%TF.GenerationSoftware,KiCad,Pcbnew,7.0.5*%
%TF.CreationDate,2023-06-21T15:03:31-07:00*%
%TF.ProjectId,solar-panel-NoCutout,736f6c61-722d-4706-916e-656c2d4e6f43,3.0*%
%TF.SameCoordinates,Original*%
%TF.FileFunction,Legend,Top*%
%TF.FilePolarity,Positive*%
%FSLAX46Y46*%
G04 Gerber Fmt 4.6, Leading zero omitted, Abs format (unit mm)*
G04 Created by KiCad (PCBNEW 7.0.5) date 2023-06-21 15:03:31*
%MOMM*%
%LPD*%
G01*
G04 APERTURE LIST*
%ADD10C,0.150000*%
%ADD11C,0.500000*%
%ADD12C,0.120000*%
%TA.AperFunction,Profile*%
%ADD13C,0.050000*%
%TD*%
G04 APERTURE END LIST*
D10*
X117598095Y-119012438D02*
X117502857Y-118964819D01*
X117502857Y-118964819D02*
X117360000Y-118964819D01*
X117360000Y-118964819D02*
X117217143Y-119012438D01*
X117217143Y-119012438D02*
X117121905Y-119107676D01*
X117121905Y-119107676D02*
X117074286Y-119202914D01*
X117074286Y-119202914D02*
X117026667Y-119393390D01*
X117026667Y-119393390D02*
X117026667Y-119536247D01*
X117026667Y-119536247D02*
X117074286Y-119726723D01*
X117074286Y-119726723D02*
X117121905Y-119821961D01*
X117121905Y-119821961D02*
X117217143Y-119917200D01*
X117217143Y-119917200D02*
X117360000Y-119964819D01*
X117360000Y-119964819D02*
X117455238Y-119964819D01*
X117455238Y-119964819D02*
X117598095Y-119917200D01*
X117598095Y-119917200D02*
X117645714Y-119869580D01*
X117645714Y-119869580D02*
X117645714Y-119536247D01*
X117645714Y-119536247D02*
X117455238Y-119536247D01*
X118074286Y-119964819D02*
X118074286Y-118964819D01*
X118074286Y-118964819D02*
X118645714Y-119964819D01*
X118645714Y-119964819D02*
X118645714Y-118964819D01*
X119121905Y-119964819D02*
X119121905Y-118964819D01*
X119121905Y-118964819D02*
X119360000Y-118964819D01*
X119360000Y-118964819D02*
X119502857Y-119012438D01*
X119502857Y-119012438D02*
X119598095Y-119107676D01*
X119598095Y-119107676D02*
X119645714Y-119202914D01*
X119645714Y-119202914D02*
X119693333Y-119393390D01*
X119693333Y-119393390D02*
X119693333Y-119536247D01*
X119693333Y-119536247D02*
X119645714Y-119726723D01*
X119645714Y-119726723D02*
X119598095Y-119821961D01*
X119598095Y-119821961D02*
X119502857Y-119917200D01*
X119502857Y-119917200D02*
X119360000Y-119964819D01*
X119360000Y-119964819D02*
X119121905Y-119964819D01*
X156580714Y-118815414D02*
X156580714Y-118065414D01*
X156580714Y-118065414D02*
X156866428Y-118065414D01*
X156866428Y-118065414D02*
X156937857Y-118101128D01*
X156937857Y-118101128D02*
X156973571Y-118136842D01*
X156973571Y-118136842D02*
X157009285Y-118208271D01*
X157009285Y-118208271D02*
X157009285Y-118315414D01*
X157009285Y-118315414D02*
X156973571Y-118386842D01*
X156973571Y-118386842D02*
X156937857Y-118422557D01*
X156937857Y-118422557D02*
X156866428Y-118458271D01*
X156866428Y-118458271D02*
X156580714Y-118458271D01*
X157473571Y-118065414D02*
X157616428Y-118065414D01*
X157616428Y-118065414D02*
X157687857Y-118101128D01*
X157687857Y-118101128D02*
X157759285Y-118172557D01*
X157759285Y-118172557D02*
X157795000Y-118315414D01*
X157795000Y-118315414D02*
X157795000Y-118565414D01*
X157795000Y-118565414D02*
X157759285Y-118708271D01*
X157759285Y-118708271D02*
X157687857Y-118779700D01*
X157687857Y-118779700D02*
X157616428Y-118815414D01*
X157616428Y-118815414D02*
X157473571Y-118815414D01*
X157473571Y-118815414D02*
X157402143Y-118779700D01*
X157402143Y-118779700D02*
X157330714Y-118708271D01*
X157330714Y-118708271D02*
X157295000Y-118565414D01*
X157295000Y-118565414D02*
X157295000Y-118315414D01*
X157295000Y-118315414D02*
X157330714Y-118172557D01*
X157330714Y-118172557D02*
X157402143Y-118101128D01*
X157402143Y-118101128D02*
X157473571Y-118065414D01*
X158116428Y-118815414D02*
X158116428Y-118065414D01*
X158116428Y-118065414D02*
X158402142Y-118065414D01*
X158402142Y-118065414D02*
X158473571Y-118101128D01*
X158473571Y-118101128D02*
X158509285Y-118136842D01*
X158509285Y-118136842D02*
X158544999Y-118208271D01*
X158544999Y-118208271D02*
X158544999Y-118315414D01*
X158544999Y-118315414D02*
X158509285Y-118386842D01*
X158509285Y-118386842D02*
X158473571Y-118422557D01*
X158473571Y-118422557D02*
X158402142Y-118458271D01*
X158402142Y-118458271D02*
X158116428Y-118458271D01*
X158866428Y-118065414D02*
X158866428Y-118672557D01*
X158866428Y-118672557D02*
X158902142Y-118743985D01*
X158902142Y-118743985D02*
X158937857Y-118779700D01*
X158937857Y-118779700D02*
X159009285Y-118815414D01*
X159009285Y-118815414D02*
X159152142Y-118815414D01*
X159152142Y-118815414D02*
X159223571Y-118779700D01*
X159223571Y-118779700D02*
X159259285Y-118743985D01*
X159259285Y-118743985D02*
X159294999Y-118672557D01*
X159294999Y-118672557D02*
X159294999Y-118065414D01*
X160009285Y-118815414D02*
X159652142Y-118815414D01*
X159652142Y-118815414D02*
X159652142Y-118065414D01*
X160223571Y-118601128D02*
X160580714Y-118601128D01*
X160152142Y-118815414D02*
X160402142Y-118065414D01*
X160402142Y-118065414D02*
X160652142Y-118815414D01*
X160794999Y-118065414D02*
X161223571Y-118065414D01*
X161009285Y-118815414D02*
X161009285Y-118065414D01*
X161473571Y-118422557D02*
X161723571Y-118422557D01*
X161830714Y-118815414D02*
X161473571Y-118815414D01*
X161473571Y-118815414D02*
X161473571Y-118065414D01*
X161473571Y-118065414D02*
X161830714Y-118065414D01*
X163152142Y-118815414D02*
X162902142Y-118458271D01*
X162723571Y-118815414D02*
X162723571Y-118065414D01*
X162723571Y-118065414D02*
X163009285Y-118065414D01*
X163009285Y-118065414D02*
X163080714Y-118101128D01*
X163080714Y-118101128D02*
X163116428Y-118136842D01*
X163116428Y-118136842D02*
X163152142Y-118208271D01*
X163152142Y-118208271D02*
X163152142Y-118315414D01*
X163152142Y-118315414D02*
X163116428Y-118386842D01*
X163116428Y-118386842D02*
X163080714Y-118422557D01*
X163080714Y-118422557D02*
X163009285Y-118458271D01*
X163009285Y-118458271D02*
X162723571Y-118458271D01*
X163402142Y-118065414D02*
X163866428Y-118065414D01*
X163866428Y-118065414D02*
X163616428Y-118351128D01*
X163616428Y-118351128D02*
X163723571Y-118351128D01*
X163723571Y-118351128D02*
X163795000Y-118386842D01*
X163795000Y-118386842D02*
X163830714Y-118422557D01*
X163830714Y-118422557D02*
X163866428Y-118493985D01*
X163866428Y-118493985D02*
X163866428Y-118672557D01*
X163866428Y-118672557D02*
X163830714Y-118743985D01*
X163830714Y-118743985D02*
X163795000Y-118779700D01*
X163795000Y-118779700D02*
X163723571Y-118815414D01*
X163723571Y-118815414D02*
X163509285Y-118815414D01*
X163509285Y-118815414D02*
X163437857Y-118779700D01*
X163437857Y-118779700D02*
X163402142Y-118743985D01*
X164902143Y-118065414D02*
X165045000Y-118065414D01*
X165045000Y-118065414D02*
X165116429Y-118101128D01*
X165116429Y-118101128D02*
X165187857Y-118172557D01*
X165187857Y-118172557D02*
X165223572Y-118315414D01*
X165223572Y-118315414D02*
X165223572Y-118565414D01*
X165223572Y-118565414D02*
X165187857Y-118708271D01*
X165187857Y-118708271D02*
X165116429Y-118779700D01*
X165116429Y-118779700D02*
X165045000Y-118815414D01*
X165045000Y-118815414D02*
X164902143Y-118815414D01*
X164902143Y-118815414D02*
X164830715Y-118779700D01*
X164830715Y-118779700D02*
X164759286Y-118708271D01*
X164759286Y-118708271D02*
X164723572Y-118565414D01*
X164723572Y-118565414D02*
X164723572Y-118315414D01*
X164723572Y-118315414D02*
X164759286Y-118172557D01*
X164759286Y-118172557D02*
X164830715Y-118101128D01*
X164830715Y-118101128D02*
X164902143Y-118065414D01*
X165545000Y-118815414D02*
X165545000Y-118065414D01*
X165545000Y-118065414D02*
X165973571Y-118815414D01*
X165973571Y-118815414D02*
X165973571Y-118065414D01*
X166795000Y-118065414D02*
X167223572Y-118065414D01*
X167009286Y-118815414D02*
X167009286Y-118065414D01*
X167402143Y-118065414D02*
X167580715Y-118815414D01*
X167580715Y-118815414D02*
X167723572Y-118279700D01*
X167723572Y-118279700D02*
X167866429Y-118815414D01*
X167866429Y-118815414D02*
X168045001Y-118065414D01*
X168473572Y-118065414D02*
X168616429Y-118065414D01*
X168616429Y-118065414D02*
X168687858Y-118101128D01*
X168687858Y-118101128D02*
X168759286Y-118172557D01*
X168759286Y-118172557D02*
X168795001Y-118315414D01*
X168795001Y-118315414D02*
X168795001Y-118565414D01*
X168795001Y-118565414D02*
X168759286Y-118708271D01*
X168759286Y-118708271D02*
X168687858Y-118779700D01*
X168687858Y-118779700D02*
X168616429Y-118815414D01*
X168616429Y-118815414D02*
X168473572Y-118815414D01*
X168473572Y-118815414D02*
X168402144Y-118779700D01*
X168402144Y-118779700D02*
X168330715Y-118708271D01*
X168330715Y-118708271D02*
X168295001Y-118565414D01*
X168295001Y-118565414D02*
X168295001Y-118315414D01*
X168295001Y-118315414D02*
X168330715Y-118172557D01*
X168330715Y-118172557D02*
X168402144Y-118101128D01*
X168402144Y-118101128D02*
X168473572Y-118065414D01*
X156330715Y-120022914D02*
X156330715Y-119272914D01*
X156330715Y-119272914D02*
X156616429Y-119272914D01*
X156616429Y-119272914D02*
X156687858Y-119308628D01*
X156687858Y-119308628D02*
X156723572Y-119344342D01*
X156723572Y-119344342D02*
X156759286Y-119415771D01*
X156759286Y-119415771D02*
X156759286Y-119522914D01*
X156759286Y-119522914D02*
X156723572Y-119594342D01*
X156723572Y-119594342D02*
X156687858Y-119630057D01*
X156687858Y-119630057D02*
X156616429Y-119665771D01*
X156616429Y-119665771D02*
X156330715Y-119665771D01*
X157080715Y-119630057D02*
X157330715Y-119630057D01*
X157437858Y-120022914D02*
X157080715Y-120022914D01*
X157080715Y-120022914D02*
X157080715Y-119272914D01*
X157080715Y-119272914D02*
X157437858Y-119272914D01*
X158187857Y-120022914D02*
X157937857Y-119665771D01*
X157759286Y-120022914D02*
X157759286Y-119272914D01*
X157759286Y-119272914D02*
X158045000Y-119272914D01*
X158045000Y-119272914D02*
X158116429Y-119308628D01*
X158116429Y-119308628D02*
X158152143Y-119344342D01*
X158152143Y-119344342D02*
X158187857Y-119415771D01*
X158187857Y-119415771D02*
X158187857Y-119522914D01*
X158187857Y-119522914D02*
X158152143Y-119594342D01*
X158152143Y-119594342D02*
X158116429Y-119630057D01*
X158116429Y-119630057D02*
X158045000Y-119665771D01*
X158045000Y-119665771D02*
X157759286Y-119665771D01*
X158509286Y-120022914D02*
X158509286Y-119272914D01*
X158509286Y-119272914D02*
X158795000Y-119272914D01*
X158795000Y-119272914D02*
X158866429Y-119308628D01*
X158866429Y-119308628D02*
X158902143Y-119344342D01*
X158902143Y-119344342D02*
X158937857Y-119415771D01*
X158937857Y-119415771D02*
X158937857Y-119522914D01*
X158937857Y-119522914D02*
X158902143Y-119594342D01*
X158902143Y-119594342D02*
X158866429Y-119630057D01*
X158866429Y-119630057D02*
X158795000Y-119665771D01*
X158795000Y-119665771D02*
X158509286Y-119665771D01*
X159259286Y-119630057D02*
X159509286Y-119630057D01*
X159616429Y-120022914D02*
X159259286Y-120022914D01*
X159259286Y-120022914D02*
X159259286Y-119272914D01*
X159259286Y-119272914D02*
X159616429Y-119272914D01*
X159937857Y-120022914D02*
X159937857Y-119272914D01*
X159937857Y-119272914D02*
X160366428Y-120022914D01*
X160366428Y-120022914D02*
X160366428Y-119272914D01*
X160723571Y-120022914D02*
X160723571Y-119272914D01*
X160723571Y-119272914D02*
X160902142Y-119272914D01*
X160902142Y-119272914D02*
X161009285Y-119308628D01*
X161009285Y-119308628D02*
X161080714Y-119380057D01*
X161080714Y-119380057D02*
X161116428Y-119451485D01*
X161116428Y-119451485D02*
X161152142Y-119594342D01*
X161152142Y-119594342D02*
X161152142Y-119701485D01*
X161152142Y-119701485D02*
X161116428Y-119844342D01*
X161116428Y-119844342D02*
X161080714Y-119915771D01*
X161080714Y-119915771D02*
X161009285Y-119987200D01*
X161009285Y-119987200D02*
X160902142Y-120022914D01*
X160902142Y-120022914D02*
X160723571Y-120022914D01*
X161473571Y-120022914D02*
X161473571Y-119272914D01*
X162259285Y-119951485D02*
X162223571Y-119987200D01*
X162223571Y-119987200D02*
X162116428Y-120022914D01*
X162116428Y-120022914D02*
X162045000Y-120022914D01*
X162045000Y-120022914D02*
X161937857Y-119987200D01*
X161937857Y-119987200D02*
X161866428Y-119915771D01*
X161866428Y-119915771D02*
X161830714Y-119844342D01*
X161830714Y-119844342D02*
X161795000Y-119701485D01*
X161795000Y-119701485D02*
X161795000Y-119594342D01*
X161795000Y-119594342D02*
X161830714Y-119451485D01*
X161830714Y-119451485D02*
X161866428Y-119380057D01*
X161866428Y-119380057D02*
X161937857Y-119308628D01*
X161937857Y-119308628D02*
X162045000Y-119272914D01*
X162045000Y-119272914D02*
X162116428Y-119272914D01*
X162116428Y-119272914D02*
X162223571Y-119308628D01*
X162223571Y-119308628D02*
X162259285Y-119344342D01*
X162580714Y-119272914D02*
X162580714Y-119880057D01*
X162580714Y-119880057D02*
X162616428Y-119951485D01*
X162616428Y-119951485D02*
X162652143Y-119987200D01*
X162652143Y-119987200D02*
X162723571Y-120022914D01*
X162723571Y-120022914D02*
X162866428Y-120022914D01*
X162866428Y-120022914D02*
X162937857Y-119987200D01*
X162937857Y-119987200D02*
X162973571Y-119951485D01*
X162973571Y-119951485D02*
X163009285Y-119880057D01*
X163009285Y-119880057D02*
X163009285Y-119272914D01*
X163723571Y-120022914D02*
X163366428Y-120022914D01*
X163366428Y-120022914D02*
X163366428Y-119272914D01*
X163937857Y-119808628D02*
X164295000Y-119808628D01*
X163866428Y-120022914D02*
X164116428Y-119272914D01*
X164116428Y-119272914D02*
X164366428Y-120022914D01*
X165044999Y-120022914D02*
X164794999Y-119665771D01*
X164616428Y-120022914D02*
X164616428Y-119272914D01*
X164616428Y-119272914D02*
X164902142Y-119272914D01*
X164902142Y-119272914D02*
X164973571Y-119308628D01*
X164973571Y-119308628D02*
X165009285Y-119344342D01*
X165009285Y-119344342D02*
X165044999Y-119415771D01*
X165044999Y-119415771D02*
X165044999Y-119522914D01*
X165044999Y-119522914D02*
X165009285Y-119594342D01*
X165009285Y-119594342D02*
X164973571Y-119630057D01*
X164973571Y-119630057D02*
X164902142Y-119665771D01*
X164902142Y-119665771D02*
X164616428Y-119665771D01*
X166187857Y-119630057D02*
X165937857Y-119630057D01*
X165937857Y-120022914D02*
X165937857Y-119272914D01*
X165937857Y-119272914D02*
X166295000Y-119272914D01*
X166545000Y-119808628D02*
X166902143Y-119808628D01*
X166473571Y-120022914D02*
X166723571Y-119272914D01*
X166723571Y-119272914D02*
X166973571Y-120022914D01*
X167652142Y-119951485D02*
X167616428Y-119987200D01*
X167616428Y-119987200D02*
X167509285Y-120022914D01*
X167509285Y-120022914D02*
X167437857Y-120022914D01*
X167437857Y-120022914D02*
X167330714Y-119987200D01*
X167330714Y-119987200D02*
X167259285Y-119915771D01*
X167259285Y-119915771D02*
X167223571Y-119844342D01*
X167223571Y-119844342D02*
X167187857Y-119701485D01*
X167187857Y-119701485D02*
X167187857Y-119594342D01*
X167187857Y-119594342D02*
X167223571Y-119451485D01*
X167223571Y-119451485D02*
X167259285Y-119380057D01*
X167259285Y-119380057D02*
X167330714Y-119308628D01*
X167330714Y-119308628D02*
X167437857Y-119272914D01*
X167437857Y-119272914D02*
X167509285Y-119272914D01*
X167509285Y-119272914D02*
X167616428Y-119308628D01*
X167616428Y-119308628D02*
X167652142Y-119344342D01*
X167973571Y-119630057D02*
X168223571Y-119630057D01*
X168330714Y-120022914D02*
X167973571Y-120022914D01*
X167973571Y-120022914D02*
X167973571Y-119272914D01*
X167973571Y-119272914D02*
X168330714Y-119272914D01*
X168616428Y-119987200D02*
X168723571Y-120022914D01*
X168723571Y-120022914D02*
X168902142Y-120022914D01*
X168902142Y-120022914D02*
X168973571Y-119987200D01*
X168973571Y-119987200D02*
X169009285Y-119951485D01*
X169009285Y-119951485D02*
X169044999Y-119880057D01*
X169044999Y-119880057D02*
X169044999Y-119808628D01*
X169044999Y-119808628D02*
X169009285Y-119737200D01*
X169009285Y-119737200D02*
X168973571Y-119701485D01*
X168973571Y-119701485D02*
X168902142Y-119665771D01*
X168902142Y-119665771D02*
X168759285Y-119630057D01*
X168759285Y-119630057D02*
X168687856Y-119594342D01*
X168687856Y-119594342D02*
X168652142Y-119558628D01*
X168652142Y-119558628D02*
X168616428Y-119487200D01*
X168616428Y-119487200D02*
X168616428Y-119415771D01*
X168616428Y-119415771D02*
X168652142Y-119344342D01*
X168652142Y-119344342D02*
X168687856Y-119308628D01*
X168687856Y-119308628D02*
X168759285Y-119272914D01*
X168759285Y-119272914D02*
X168937856Y-119272914D01*
X168937856Y-119272914D02*
X169044999Y-119308628D01*
%TO.C,J2*%
X106206666Y-69764819D02*
X106206666Y-70479104D01*
X106206666Y-70479104D02*
X106159047Y-70621961D01*
X106159047Y-70621961D02*
X106063809Y-70717200D01*
X106063809Y-70717200D02*
X105920952Y-70764819D01*
X105920952Y-70764819D02*
X105825714Y-70764819D01*
X106635238Y-69860057D02*
X106682857Y-69812438D01*
X106682857Y-69812438D02*
X106778095Y-69764819D01*
X106778095Y-69764819D02*
X107016190Y-69764819D01*
X107016190Y-69764819D02*
X107111428Y-69812438D01*
X107111428Y-69812438D02*
X107159047Y-69860057D01*
X107159047Y-69860057D02*
X107206666Y-69955295D01*
X107206666Y-69955295D02*
X107206666Y-70050533D01*
X107206666Y-70050533D02*
X107159047Y-70193390D01*
X107159047Y-70193390D02*
X106587619Y-70764819D01*
X106587619Y-70764819D02*
X107206666Y-70764819D01*
%TO.C,J3*%
X106086666Y-158884819D02*
X106086666Y-159599104D01*
X106086666Y-159599104D02*
X106039047Y-159741961D01*
X106039047Y-159741961D02*
X105943809Y-159837200D01*
X105943809Y-159837200D02*
X105800952Y-159884819D01*
X105800952Y-159884819D02*
X105705714Y-159884819D01*
X106467619Y-158884819D02*
X107086666Y-158884819D01*
X107086666Y-158884819D02*
X106753333Y-159265771D01*
X106753333Y-159265771D02*
X106896190Y-159265771D01*
X106896190Y-159265771D02*
X106991428Y-159313390D01*
X106991428Y-159313390D02*
X107039047Y-159361009D01*
X107039047Y-159361009D02*
X107086666Y-159456247D01*
X107086666Y-159456247D02*
X107086666Y-159694342D01*
X107086666Y-159694342D02*
X107039047Y-159789580D01*
X107039047Y-159789580D02*
X106991428Y-159837200D01*
X106991428Y-159837200D02*
X106896190Y-159884819D01*
X106896190Y-159884819D02*
X106610476Y-159884819D01*
X106610476Y-159884819D02*
X106515238Y-159837200D01*
X106515238Y-159837200D02*
X106467619Y-159789580D01*
%TO.C,J4*%
X182266666Y-69834819D02*
X182266666Y-70549104D01*
X182266666Y-70549104D02*
X182219047Y-70691961D01*
X182219047Y-70691961D02*
X182123809Y-70787200D01*
X182123809Y-70787200D02*
X181980952Y-70834819D01*
X181980952Y-70834819D02*
X181885714Y-70834819D01*
X183171428Y-70168152D02*
X183171428Y-70834819D01*
X182933333Y-69787200D02*
X182695238Y-70501485D01*
X182695238Y-70501485D02*
X183314285Y-70501485D01*
%TO.C,J5*%
X182046666Y-158824819D02*
X182046666Y-159539104D01*
X182046666Y-159539104D02*
X181999047Y-159681961D01*
X181999047Y-159681961D02*
X181903809Y-159777200D01*
X181903809Y-159777200D02*
X181760952Y-159824819D01*
X181760952Y-159824819D02*
X181665714Y-159824819D01*
X182999047Y-158824819D02*
X182522857Y-158824819D01*
X182522857Y-158824819D02*
X182475238Y-159301009D01*
X182475238Y-159301009D02*
X182522857Y-159253390D01*
X182522857Y-159253390D02*
X182618095Y-159205771D01*
X182618095Y-159205771D02*
X182856190Y-159205771D01*
X182856190Y-159205771D02*
X182951428Y-159253390D01*
X182951428Y-159253390D02*
X182999047Y-159301009D01*
X182999047Y-159301009D02*
X183046666Y-159396247D01*
X183046666Y-159396247D02*
X183046666Y-159634342D01*
X183046666Y-159634342D02*
X182999047Y-159729580D01*
X182999047Y-159729580D02*
X182951428Y-159777200D01*
X182951428Y-159777200D02*
X182856190Y-159824819D01*
X182856190Y-159824819D02*
X182618095Y-159824819D01*
X182618095Y-159824819D02*
X182522857Y-159777200D01*
X182522857Y-159777200D02*
X182475238Y-159729580D01*
%TO.C,SC5*%
X166598095Y-88477200D02*
X166740952Y-88524819D01*
X166740952Y-88524819D02*
X166979047Y-88524819D01*
X166979047Y-88524819D02*
X167074285Y-88477200D01*
X167074285Y-88477200D02*
X167121904Y-88429580D01*
X167121904Y-88429580D02*
X167169523Y-88334342D01*
X167169523Y-88334342D02*
X167169523Y-88239104D01*
X167169523Y-88239104D02*
X167121904Y-88143866D01*
X167121904Y-88143866D02*
X167074285Y-88096247D01*
X167074285Y-88096247D02*
X166979047Y-88048628D01*
X166979047Y-88048628D02*
X166788571Y-88001009D01*
X166788571Y-88001009D02*
X166693333Y-87953390D01*
X166693333Y-87953390D02*
X166645714Y-87905771D01*
X166645714Y-87905771D02*
X166598095Y-87810533D01*
X166598095Y-87810533D02*
X166598095Y-87715295D01*
X166598095Y-87715295D02*
X166645714Y-87620057D01*
X166645714Y-87620057D02*
X166693333Y-87572438D01*
X166693333Y-87572438D02*
X166788571Y-87524819D01*
X166788571Y-87524819D02*
X167026666Y-87524819D01*
X167026666Y-87524819D02*
X167169523Y-87572438D01*
X168169523Y-88429580D02*
X168121904Y-88477200D01*
X168121904Y-88477200D02*
X167979047Y-88524819D01*
X167979047Y-88524819D02*
X167883809Y-88524819D01*
X167883809Y-88524819D02*
X167740952Y-88477200D01*
X167740952Y-88477200D02*
X167645714Y-88381961D01*
X167645714Y-88381961D02*
X167598095Y-88286723D01*
X167598095Y-88286723D02*
X167550476Y-88096247D01*
X167550476Y-88096247D02*
X167550476Y-87953390D01*
X167550476Y-87953390D02*
X167598095Y-87762914D01*
X167598095Y-87762914D02*
X167645714Y-87667676D01*
X167645714Y-87667676D02*
X167740952Y-87572438D01*
X167740952Y-87572438D02*
X167883809Y-87524819D01*
X167883809Y-87524819D02*
X167979047Y-87524819D01*
X167979047Y-87524819D02*
X168121904Y-87572438D01*
X168121904Y-87572438D02*
X168169523Y-87620057D01*
X169074285Y-87524819D02*
X168598095Y-87524819D01*
X168598095Y-87524819D02*
X168550476Y-88001009D01*
X168550476Y-88001009D02*
X168598095Y-87953390D01*
X168598095Y-87953390D02*
X168693333Y-87905771D01*
X168693333Y-87905771D02*
X168931428Y-87905771D01*
X168931428Y-87905771D02*
X169026666Y-87953390D01*
X169026666Y-87953390D02*
X169074285Y-88001009D01*
X169074285Y-88001009D02*
X169121904Y-88096247D01*
X169121904Y-88096247D02*
X169121904Y-88334342D01*
X169121904Y-88334342D02*
X169074285Y-88429580D01*
X169074285Y-88429580D02*
X169026666Y-88477200D01*
X169026666Y-88477200D02*
X168931428Y-88524819D01*
X168931428Y-88524819D02*
X168693333Y-88524819D01*
X168693333Y-88524819D02*
X168598095Y-88477200D01*
X168598095Y-88477200D02*
X168550476Y-88429580D01*
D11*
X166717142Y-71789000D02*
X169002857Y-71789000D01*
X167859999Y-72931857D02*
X167859999Y-70646142D01*
X166717142Y-103539000D02*
X169002857Y-103539000D01*
D10*
%TO.C,SC3*%
X143228095Y-88477200D02*
X143370952Y-88524819D01*
X143370952Y-88524819D02*
X143609047Y-88524819D01*
X143609047Y-88524819D02*
X143704285Y-88477200D01*
X143704285Y-88477200D02*
X143751904Y-88429580D01*
X143751904Y-88429580D02*
X143799523Y-88334342D01*
X143799523Y-88334342D02*
X143799523Y-88239104D01*
X143799523Y-88239104D02*
X143751904Y-88143866D01*
X143751904Y-88143866D02*
X143704285Y-88096247D01*
X143704285Y-88096247D02*
X143609047Y-88048628D01*
X143609047Y-88048628D02*
X143418571Y-88001009D01*
X143418571Y-88001009D02*
X143323333Y-87953390D01*
X143323333Y-87953390D02*
X143275714Y-87905771D01*
X143275714Y-87905771D02*
X143228095Y-87810533D01*
X143228095Y-87810533D02*
X143228095Y-87715295D01*
X143228095Y-87715295D02*
X143275714Y-87620057D01*
X143275714Y-87620057D02*
X143323333Y-87572438D01*
X143323333Y-87572438D02*
X143418571Y-87524819D01*
X143418571Y-87524819D02*
X143656666Y-87524819D01*
X143656666Y-87524819D02*
X143799523Y-87572438D01*
X144799523Y-88429580D02*
X144751904Y-88477200D01*
X144751904Y-88477200D02*
X144609047Y-88524819D01*
X144609047Y-88524819D02*
X144513809Y-88524819D01*
X144513809Y-88524819D02*
X144370952Y-88477200D01*
X144370952Y-88477200D02*
X144275714Y-88381961D01*
X144275714Y-88381961D02*
X144228095Y-88286723D01*
X144228095Y-88286723D02*
X144180476Y-88096247D01*
X144180476Y-88096247D02*
X144180476Y-87953390D01*
X144180476Y-87953390D02*
X144228095Y-87762914D01*
X144228095Y-87762914D02*
X144275714Y-87667676D01*
X144275714Y-87667676D02*
X144370952Y-87572438D01*
X144370952Y-87572438D02*
X144513809Y-87524819D01*
X144513809Y-87524819D02*
X144609047Y-87524819D01*
X144609047Y-87524819D02*
X144751904Y-87572438D01*
X144751904Y-87572438D02*
X144799523Y-87620057D01*
X145132857Y-87524819D02*
X145751904Y-87524819D01*
X145751904Y-87524819D02*
X145418571Y-87905771D01*
X145418571Y-87905771D02*
X145561428Y-87905771D01*
X145561428Y-87905771D02*
X145656666Y-87953390D01*
X145656666Y-87953390D02*
X145704285Y-88001009D01*
X145704285Y-88001009D02*
X145751904Y-88096247D01*
X145751904Y-88096247D02*
X145751904Y-88334342D01*
X145751904Y-88334342D02*
X145704285Y-88429580D01*
X145704285Y-88429580D02*
X145656666Y-88477200D01*
X145656666Y-88477200D02*
X145561428Y-88524819D01*
X145561428Y-88524819D02*
X145275714Y-88524819D01*
X145275714Y-88524819D02*
X145180476Y-88477200D01*
X145180476Y-88477200D02*
X145132857Y-88429580D01*
D11*
X143347142Y-103539000D02*
X145632857Y-103539000D01*
X143347142Y-71789000D02*
X145632857Y-71789000D01*
X144489999Y-72931857D02*
X144489999Y-70646142D01*
D10*
%TO.C,SC4*%
X143188095Y-142847200D02*
X143330952Y-142894819D01*
X143330952Y-142894819D02*
X143569047Y-142894819D01*
X143569047Y-142894819D02*
X143664285Y-142847200D01*
X143664285Y-142847200D02*
X143711904Y-142799580D01*
X143711904Y-142799580D02*
X143759523Y-142704342D01*
X143759523Y-142704342D02*
X143759523Y-142609104D01*
X143759523Y-142609104D02*
X143711904Y-142513866D01*
X143711904Y-142513866D02*
X143664285Y-142466247D01*
X143664285Y-142466247D02*
X143569047Y-142418628D01*
X143569047Y-142418628D02*
X143378571Y-142371009D01*
X143378571Y-142371009D02*
X143283333Y-142323390D01*
X143283333Y-142323390D02*
X143235714Y-142275771D01*
X143235714Y-142275771D02*
X143188095Y-142180533D01*
X143188095Y-142180533D02*
X143188095Y-142085295D01*
X143188095Y-142085295D02*
X143235714Y-141990057D01*
X143235714Y-141990057D02*
X143283333Y-141942438D01*
X143283333Y-141942438D02*
X143378571Y-141894819D01*
X143378571Y-141894819D02*
X143616666Y-141894819D01*
X143616666Y-141894819D02*
X143759523Y-141942438D01*
X144759523Y-142799580D02*
X144711904Y-142847200D01*
X144711904Y-142847200D02*
X144569047Y-142894819D01*
X144569047Y-142894819D02*
X144473809Y-142894819D01*
X144473809Y-142894819D02*
X144330952Y-142847200D01*
X144330952Y-142847200D02*
X144235714Y-142751961D01*
X144235714Y-142751961D02*
X144188095Y-142656723D01*
X144188095Y-142656723D02*
X144140476Y-142466247D01*
X144140476Y-142466247D02*
X144140476Y-142323390D01*
X144140476Y-142323390D02*
X144188095Y-142132914D01*
X144188095Y-142132914D02*
X144235714Y-142037676D01*
X144235714Y-142037676D02*
X144330952Y-141942438D01*
X144330952Y-141942438D02*
X144473809Y-141894819D01*
X144473809Y-141894819D02*
X144569047Y-141894819D01*
X144569047Y-141894819D02*
X144711904Y-141942438D01*
X144711904Y-141942438D02*
X144759523Y-141990057D01*
X145616666Y-142228152D02*
X145616666Y-142894819D01*
X145378571Y-141847200D02*
X145140476Y-142561485D01*
X145140476Y-142561485D02*
X145759523Y-142561485D01*
D11*
X143307142Y-157909000D02*
X145592857Y-157909000D01*
X143307142Y-126159000D02*
X145592857Y-126159000D01*
X144449999Y-127301857D02*
X144449999Y-125016142D01*
D10*
%TO.C,SC2*%
X119858095Y-142827200D02*
X120000952Y-142874819D01*
X120000952Y-142874819D02*
X120239047Y-142874819D01*
X120239047Y-142874819D02*
X120334285Y-142827200D01*
X120334285Y-142827200D02*
X120381904Y-142779580D01*
X120381904Y-142779580D02*
X120429523Y-142684342D01*
X120429523Y-142684342D02*
X120429523Y-142589104D01*
X120429523Y-142589104D02*
X120381904Y-142493866D01*
X120381904Y-142493866D02*
X120334285Y-142446247D01*
X120334285Y-142446247D02*
X120239047Y-142398628D01*
X120239047Y-142398628D02*
X120048571Y-142351009D01*
X120048571Y-142351009D02*
X119953333Y-142303390D01*
X119953333Y-142303390D02*
X119905714Y-142255771D01*
X119905714Y-142255771D02*
X119858095Y-142160533D01*
X119858095Y-142160533D02*
X119858095Y-142065295D01*
X119858095Y-142065295D02*
X119905714Y-141970057D01*
X119905714Y-141970057D02*
X119953333Y-141922438D01*
X119953333Y-141922438D02*
X120048571Y-141874819D01*
X120048571Y-141874819D02*
X120286666Y-141874819D01*
X120286666Y-141874819D02*
X120429523Y-141922438D01*
X121429523Y-142779580D02*
X121381904Y-142827200D01*
X121381904Y-142827200D02*
X121239047Y-142874819D01*
X121239047Y-142874819D02*
X121143809Y-142874819D01*
X121143809Y-142874819D02*
X121000952Y-142827200D01*
X121000952Y-142827200D02*
X120905714Y-142731961D01*
X120905714Y-142731961D02*
X120858095Y-142636723D01*
X120858095Y-142636723D02*
X120810476Y-142446247D01*
X120810476Y-142446247D02*
X120810476Y-142303390D01*
X120810476Y-142303390D02*
X120858095Y-142112914D01*
X120858095Y-142112914D02*
X120905714Y-142017676D01*
X120905714Y-142017676D02*
X121000952Y-141922438D01*
X121000952Y-141922438D02*
X121143809Y-141874819D01*
X121143809Y-141874819D02*
X121239047Y-141874819D01*
X121239047Y-141874819D02*
X121381904Y-141922438D01*
X121381904Y-141922438D02*
X121429523Y-141970057D01*
X121810476Y-141970057D02*
X121858095Y-141922438D01*
X121858095Y-141922438D02*
X121953333Y-141874819D01*
X121953333Y-141874819D02*
X122191428Y-141874819D01*
X122191428Y-141874819D02*
X122286666Y-141922438D01*
X122286666Y-141922438D02*
X122334285Y-141970057D01*
X122334285Y-141970057D02*
X122381904Y-142065295D01*
X122381904Y-142065295D02*
X122381904Y-142160533D01*
X122381904Y-142160533D02*
X122334285Y-142303390D01*
X122334285Y-142303390D02*
X121762857Y-142874819D01*
X121762857Y-142874819D02*
X122381904Y-142874819D01*
D11*
X119977142Y-126139000D02*
X122262857Y-126139000D01*
X121119999Y-127281857D02*
X121119999Y-124996142D01*
X119977142Y-157889000D02*
X122262857Y-157889000D01*
D10*
%TO.C,SC6*%
X166588095Y-142857200D02*
X166730952Y-142904819D01*
X166730952Y-142904819D02*
X166969047Y-142904819D01*
X166969047Y-142904819D02*
X167064285Y-142857200D01*
X167064285Y-142857200D02*
X167111904Y-142809580D01*
X167111904Y-142809580D02*
X167159523Y-142714342D01*
X167159523Y-142714342D02*
X167159523Y-142619104D01*
X167159523Y-142619104D02*
X167111904Y-142523866D01*
X167111904Y-142523866D02*
X167064285Y-142476247D01*
X167064285Y-142476247D02*
X166969047Y-142428628D01*
X166969047Y-142428628D02*
X166778571Y-142381009D01*
X166778571Y-142381009D02*
X166683333Y-142333390D01*
X166683333Y-142333390D02*
X166635714Y-142285771D01*
X166635714Y-142285771D02*
X166588095Y-142190533D01*
X166588095Y-142190533D02*
X166588095Y-142095295D01*
X166588095Y-142095295D02*
X166635714Y-142000057D01*
X166635714Y-142000057D02*
X166683333Y-141952438D01*
X166683333Y-141952438D02*
X166778571Y-141904819D01*
X166778571Y-141904819D02*
X167016666Y-141904819D01*
X167016666Y-141904819D02*
X167159523Y-141952438D01*
X168159523Y-142809580D02*
X168111904Y-142857200D01*
X168111904Y-142857200D02*
X167969047Y-142904819D01*
X167969047Y-142904819D02*
X167873809Y-142904819D01*
X167873809Y-142904819D02*
X167730952Y-142857200D01*
X167730952Y-142857200D02*
X167635714Y-142761961D01*
X167635714Y-142761961D02*
X167588095Y-142666723D01*
X167588095Y-142666723D02*
X167540476Y-142476247D01*
X167540476Y-142476247D02*
X167540476Y-142333390D01*
X167540476Y-142333390D02*
X167588095Y-142142914D01*
X167588095Y-142142914D02*
X167635714Y-142047676D01*
X167635714Y-142047676D02*
X167730952Y-141952438D01*
X167730952Y-141952438D02*
X167873809Y-141904819D01*
X167873809Y-141904819D02*
X167969047Y-141904819D01*
X167969047Y-141904819D02*
X168111904Y-141952438D01*
X168111904Y-141952438D02*
X168159523Y-142000057D01*
X169016666Y-141904819D02*
X168826190Y-141904819D01*
X168826190Y-141904819D02*
X168730952Y-141952438D01*
X168730952Y-141952438D02*
X168683333Y-142000057D01*
X168683333Y-142000057D02*
X168588095Y-142142914D01*
X168588095Y-142142914D02*
X168540476Y-142333390D01*
X168540476Y-142333390D02*
X168540476Y-142714342D01*
X168540476Y-142714342D02*
X168588095Y-142809580D01*
X168588095Y-142809580D02*
X168635714Y-142857200D01*
X168635714Y-142857200D02*
X168730952Y-142904819D01*
X168730952Y-142904819D02*
X168921428Y-142904819D01*
X168921428Y-142904819D02*
X169016666Y-142857200D01*
X169016666Y-142857200D02*
X169064285Y-142809580D01*
X169064285Y-142809580D02*
X169111904Y-142714342D01*
X169111904Y-142714342D02*
X169111904Y-142476247D01*
X169111904Y-142476247D02*
X169064285Y-142381009D01*
X169064285Y-142381009D02*
X169016666Y-142333390D01*
X169016666Y-142333390D02*
X168921428Y-142285771D01*
X168921428Y-142285771D02*
X168730952Y-142285771D01*
X168730952Y-142285771D02*
X168635714Y-142333390D01*
X168635714Y-142333390D02*
X168588095Y-142381009D01*
X168588095Y-142381009D02*
X168540476Y-142476247D01*
D11*
X166707142Y-157919000D02*
X168992857Y-157919000D01*
X166707142Y-126169000D02*
X168992857Y-126169000D01*
X167849999Y-127311857D02*
X167849999Y-125026142D01*
D10*
%TO.C,SC1*%
X119828095Y-88477200D02*
X119970952Y-88524819D01*
X119970952Y-88524819D02*
X120209047Y-88524819D01*
X120209047Y-88524819D02*
X120304285Y-88477200D01*
X120304285Y-88477200D02*
X120351904Y-88429580D01*
X120351904Y-88429580D02*
X120399523Y-88334342D01*
X120399523Y-88334342D02*
X120399523Y-88239104D01*
X120399523Y-88239104D02*
X120351904Y-88143866D01*
X120351904Y-88143866D02*
X120304285Y-88096247D01*
X120304285Y-88096247D02*
X120209047Y-88048628D01*
X120209047Y-88048628D02*
X120018571Y-88001009D01*
X120018571Y-88001009D02*
X119923333Y-87953390D01*
X119923333Y-87953390D02*
X119875714Y-87905771D01*
X119875714Y-87905771D02*
X119828095Y-87810533D01*
X119828095Y-87810533D02*
X119828095Y-87715295D01*
X119828095Y-87715295D02*
X119875714Y-87620057D01*
X119875714Y-87620057D02*
X119923333Y-87572438D01*
X119923333Y-87572438D02*
X120018571Y-87524819D01*
X120018571Y-87524819D02*
X120256666Y-87524819D01*
X120256666Y-87524819D02*
X120399523Y-87572438D01*
X121399523Y-88429580D02*
X121351904Y-88477200D01*
X121351904Y-88477200D02*
X121209047Y-88524819D01*
X121209047Y-88524819D02*
X121113809Y-88524819D01*
X121113809Y-88524819D02*
X120970952Y-88477200D01*
X120970952Y-88477200D02*
X120875714Y-88381961D01*
X120875714Y-88381961D02*
X120828095Y-88286723D01*
X120828095Y-88286723D02*
X120780476Y-88096247D01*
X120780476Y-88096247D02*
X120780476Y-87953390D01*
X120780476Y-87953390D02*
X120828095Y-87762914D01*
X120828095Y-87762914D02*
X120875714Y-87667676D01*
X120875714Y-87667676D02*
X120970952Y-87572438D01*
X120970952Y-87572438D02*
X121113809Y-87524819D01*
X121113809Y-87524819D02*
X121209047Y-87524819D01*
X121209047Y-87524819D02*
X121351904Y-87572438D01*
X121351904Y-87572438D02*
X121399523Y-87620057D01*
X122351904Y-88524819D02*
X121780476Y-88524819D01*
X122066190Y-88524819D02*
X122066190Y-87524819D01*
X122066190Y-87524819D02*
X121970952Y-87667676D01*
X121970952Y-87667676D02*
X121875714Y-87762914D01*
X121875714Y-87762914D02*
X121780476Y-87810533D01*
D11*
X119947142Y-71789000D02*
X122232857Y-71789000D01*
X121089999Y-72931857D02*
X121089999Y-70646142D01*
X119947142Y-103539000D02*
X122232857Y-103539000D01*
D12*
%TO.C,SC5*%
X156360000Y-66570000D02*
X156360000Y-71320000D01*
X156360000Y-66570000D02*
X161110000Y-66570000D01*
X156360000Y-77570000D02*
X156360000Y-97570000D01*
X156360000Y-87570000D02*
X156360000Y-77570000D01*
X156360000Y-108570000D02*
X156360000Y-103820000D01*
X156360000Y-108570000D02*
X161110000Y-108570000D01*
X161110000Y-66570000D02*
X156360000Y-66570000D01*
X174610000Y-66570000D02*
X179360000Y-66570000D01*
X174610000Y-108570000D02*
X179360000Y-108570000D01*
X179360000Y-66570000D02*
X179360000Y-71320000D01*
X179360000Y-77570000D02*
X179360000Y-95820000D01*
X179360000Y-87570000D02*
X179360000Y-77570000D01*
X179360000Y-87570000D02*
X179360000Y-97570000D01*
X179360000Y-95820000D02*
X179360000Y-87570000D01*
X179360000Y-108570000D02*
X179360000Y-103820000D01*
%TO.C,SC3*%
X132990000Y-66570000D02*
X132990000Y-71320000D01*
X132990000Y-66570000D02*
X137740000Y-66570000D01*
X132990000Y-77570000D02*
X132990000Y-97570000D01*
X132990000Y-87570000D02*
X132990000Y-77570000D01*
X132990000Y-108570000D02*
X132990000Y-103820000D01*
X132990000Y-108570000D02*
X137740000Y-108570000D01*
X137740000Y-66570000D02*
X132990000Y-66570000D01*
X151240000Y-66570000D02*
X155990000Y-66570000D01*
X151240000Y-108570000D02*
X155990000Y-108570000D01*
X155990000Y-66570000D02*
X155990000Y-71320000D01*
X155990000Y-77570000D02*
X155990000Y-95820000D01*
X155990000Y-87570000D02*
X155990000Y-77570000D01*
X155990000Y-87570000D02*
X155990000Y-97570000D01*
X155990000Y-95820000D02*
X155990000Y-87570000D01*
X155990000Y-108570000D02*
X155990000Y-103820000D01*
%TO.C,SC4*%
X132950000Y-120940000D02*
X132950000Y-125690000D01*
X132950000Y-120940000D02*
X137700000Y-120940000D01*
X132950000Y-131940000D02*
X132950000Y-151940000D01*
X132950000Y-141940000D02*
X132950000Y-131940000D01*
X132950000Y-162940000D02*
X132950000Y-158190000D01*
X132950000Y-162940000D02*
X137700000Y-162940000D01*
X137700000Y-120940000D02*
X132950000Y-120940000D01*
X151200000Y-120940000D02*
X155950000Y-120940000D01*
X151200000Y-162940000D02*
X155950000Y-162940000D01*
X155950000Y-120940000D02*
X155950000Y-125690000D01*
X155950000Y-131940000D02*
X155950000Y-150190000D01*
X155950000Y-141940000D02*
X155950000Y-131940000D01*
X155950000Y-141940000D02*
X155950000Y-151940000D01*
X155950000Y-150190000D02*
X155950000Y-141940000D01*
X155950000Y-162940000D02*
X155950000Y-158190000D01*
%TO.C,SC2*%
X109620000Y-120920000D02*
X109620000Y-125670000D01*
X109620000Y-120920000D02*
X114370000Y-120920000D01*
X109620000Y-131920000D02*
X109620000Y-151920000D01*
X109620000Y-141920000D02*
X109620000Y-131920000D01*
X109620000Y-162920000D02*
X109620000Y-158170000D01*
X109620000Y-162920000D02*
X114370000Y-162920000D01*
X114370000Y-120920000D02*
X109620000Y-120920000D01*
X127870000Y-120920000D02*
X132620000Y-120920000D01*
X127870000Y-162920000D02*
X132620000Y-162920000D01*
X132620000Y-120920000D02*
X132620000Y-125670000D01*
X132620000Y-131920000D02*
X132620000Y-150170000D01*
X132620000Y-141920000D02*
X132620000Y-131920000D01*
X132620000Y-141920000D02*
X132620000Y-151920000D01*
X132620000Y-150170000D02*
X132620000Y-141920000D01*
X132620000Y-162920000D02*
X132620000Y-158170000D01*
%TO.C,SC6*%
X156350000Y-120950000D02*
X156350000Y-125700000D01*
X156350000Y-120950000D02*
X161100000Y-120950000D01*
X156350000Y-131950000D02*
X156350000Y-151950000D01*
X156350000Y-141950000D02*
X156350000Y-131950000D01*
X156350000Y-162950000D02*
X156350000Y-158200000D01*
X156350000Y-162950000D02*
X161100000Y-162950000D01*
X161100000Y-120950000D02*
X156350000Y-120950000D01*
X174600000Y-120950000D02*
X179350000Y-120950000D01*
X174600000Y-162950000D02*
X179350000Y-162950000D01*
X179350000Y-120950000D02*
X179350000Y-125700000D01*
X179350000Y-131950000D02*
X179350000Y-150200000D01*
X179350000Y-141950000D02*
X179350000Y-131950000D01*
X179350000Y-141950000D02*
X179350000Y-151950000D01*
X179350000Y-150200000D02*
X179350000Y-141950000D01*
X179350000Y-162950000D02*
X179350000Y-158200000D01*
%TO.C,SC1*%
X109590000Y-66570000D02*
X109590000Y-71320000D01*
X109590000Y-66570000D02*
X114340000Y-66570000D01*
X109590000Y-77570000D02*
X109590000Y-97570000D01*
X109590000Y-87570000D02*
X109590000Y-77570000D01*
X109590000Y-108570000D02*
X109590000Y-103820000D01*
X109590000Y-108570000D02*
X114340000Y-108570000D01*
X114340000Y-66570000D02*
X109590000Y-66570000D01*
X127840000Y-66570000D02*
X132590000Y-66570000D01*
X127840000Y-108570000D02*
X132590000Y-108570000D01*
X132590000Y-66570000D02*
X132590000Y-71320000D01*
X132590000Y-77570000D02*
X132590000Y-95820000D01*
X132590000Y-87570000D02*
X132590000Y-77570000D01*
X132590000Y-87570000D02*
X132590000Y-97570000D01*
X132590000Y-95820000D02*
X132590000Y-87570000D01*
X132590000Y-108570000D02*
X132590000Y-103820000D01*
%TD*%
D13*
X136850000Y-153000000D02*
X136850000Y-147000000D01*
X142150000Y-153000000D02*
X142150000Y-147000000D01*
X146850000Y-147000000D02*
X146850000Y-153000000D01*
X152150000Y-153000000D02*
X152150000Y-147000000D01*
X142150000Y-76600000D02*
X142150000Y-82600000D01*
X136850000Y-76600000D02*
X136850000Y-82600000D01*
X146850000Y-76600000D02*
X146850000Y-82600000D01*
X152150000Y-76600000D02*
X152150000Y-82600000D01*
X186000000Y-65750000D02*
X103000000Y-65750000D01*
X108580000Y-74920000D02*
X103000000Y-74920000D01*
X111239937Y-77570000D02*
G75*
G03*
X108580000Y-74920001I-2644937J5100D01*
G01*
X103000000Y-65750000D02*
X103000000Y-74920000D01*
X103000000Y-154620000D02*
X103000000Y-163750000D01*
X136850000Y-82600000D02*
G75*
G03*
X142150000Y-82600000I2650000J0D01*
G01*
X186000000Y-74925000D02*
X180420000Y-74925000D01*
X152150000Y-76600000D02*
G75*
G03*
X146850000Y-76600000I-2650000J0D01*
G01*
X186000000Y-74925000D02*
X186000000Y-65750000D01*
X142150000Y-76600000D02*
G75*
G03*
X136850000Y-76600000I-2650000J0D01*
G01*
X111240000Y-123595000D02*
X111240000Y-151970000D01*
X109650000Y-108545000D02*
X109650000Y-120995000D01*
X109650000Y-120995000D02*
X111240000Y-123595000D01*
X103000000Y-163750000D02*
X186000000Y-163750000D01*
X142150000Y-147000000D02*
G75*
G03*
X136850000Y-147000000I-2650000J0D01*
G01*
X186000000Y-163750000D02*
X186000000Y-154625000D01*
X136850000Y-153000000D02*
G75*
G03*
X142150000Y-153000000I2650000J0D01*
G01*
X180420000Y-74925039D02*
G75*
G03*
X177760001Y-77575000I-15100J-2644861D01*
G01*
X109650000Y-108545000D02*
X111240000Y-105945000D01*
X177760000Y-105950000D02*
X179350000Y-108550000D01*
X177760000Y-77575000D02*
X177760000Y-105950000D01*
X152150000Y-147000000D02*
G75*
G03*
X146850000Y-147000000I-2650000J0D01*
G01*
X108580000Y-154619961D02*
G75*
G03*
X111239999Y-151970000I15000J2644961D01*
G01*
X179350000Y-108550000D02*
X179350000Y-121000000D01*
X146850000Y-153000000D02*
G75*
G03*
X152150000Y-153000000I2650000J0D01*
G01*
X111240000Y-77570000D02*
X111240000Y-105945000D01*
X177759964Y-151975000D02*
G75*
G03*
X180420000Y-154624999I2645136J-4900D01*
G01*
X103000000Y-154620000D02*
X108580000Y-154620000D01*
X146850000Y-82600000D02*
G75*
G03*
X152150000Y-82600000I2650000J0D01*
G01*
X177760000Y-123600000D02*
X177760000Y-151975000D01*
X177760000Y-123600000D02*
X179350000Y-121000000D01*
X180420000Y-154625000D02*
X186000000Y-154625000D01*
M02*
