%TF.GenerationSoftware,KiCad,Pcbnew,9.0.3*%
%TF.CreationDate,2025-11-12T20:55:45-08:00*%
%TF.ProjectId,XY_Faces_V3lp,58595f46-6163-4657-935f-56336c702e6b,3.0*%
%TF.SameCoordinates,Original*%
%TF.FileFunction,Legend,Bot*%
%TF.FilePolarity,Positive*%
%FSLAX46Y46*%
G04 Gerber Fmt 4.6, Leading zero omitted, Abs format (unit mm)*
G04 Created by KiCad (PCBNEW 9.0.3) date 2025-11-12 20:55:45*
%MOMM*%
%LPD*%
G01*
G04 APERTURE LIST*
G04 Aperture macros list*
%AMRoundRect*
0 Rectangle with rounded corners*
0 $1 Rounding radius*
0 $2 $3 $4 $5 $6 $7 $8 $9 X,Y pos of 4 corners*
0 Add a 4 corners polygon primitive as box body*
4,1,4,$2,$3,$4,$5,$6,$7,$8,$9,$2,$3,0*
0 Add four circle primitives for the rounded corners*
1,1,$1+$1,$2,$3*
1,1,$1+$1,$4,$5*
1,1,$1+$1,$6,$7*
1,1,$1+$1,$8,$9*
0 Add four rect primitives between the rounded corners*
20,1,$1+$1,$2,$3,$4,$5,0*
20,1,$1+$1,$4,$5,$6,$7,0*
20,1,$1+$1,$6,$7,$8,$9,0*
20,1,$1+$1,$8,$9,$2,$3,0*%
G04 Aperture macros list end*
%ADD10C,0.150000*%
%ADD11C,0.120000*%
%ADD12C,0.250000*%
%ADD13C,0.400000*%
%ADD14C,5.700000*%
%ADD15RoundRect,0.250000X0.350000X0.575000X-0.350000X0.575000X-0.350000X-0.575000X0.350000X-0.575000X0*%
%ADD16O,1.200000X1.650000*%
%ADD17R,0.600000X1.500000*%
%ADD18R,1.250000X1.800000*%
G04 APERTURE END LIST*
D10*
X138785715Y-67644875D02*
X138785715Y-66644875D01*
X138785715Y-66644875D02*
X138404763Y-66644875D01*
X138404763Y-66644875D02*
X138309525Y-66692494D01*
X138309525Y-66692494D02*
X138261906Y-66740113D01*
X138261906Y-66740113D02*
X138214287Y-66835351D01*
X138214287Y-66835351D02*
X138214287Y-66978208D01*
X138214287Y-66978208D02*
X138261906Y-67073446D01*
X138261906Y-67073446D02*
X138309525Y-67121065D01*
X138309525Y-67121065D02*
X138404763Y-67168684D01*
X138404763Y-67168684D02*
X138785715Y-67168684D01*
X137214287Y-67644875D02*
X137547620Y-67168684D01*
X137785715Y-67644875D02*
X137785715Y-66644875D01*
X137785715Y-66644875D02*
X137404763Y-66644875D01*
X137404763Y-66644875D02*
X137309525Y-66692494D01*
X137309525Y-66692494D02*
X137261906Y-66740113D01*
X137261906Y-66740113D02*
X137214287Y-66835351D01*
X137214287Y-66835351D02*
X137214287Y-66978208D01*
X137214287Y-66978208D02*
X137261906Y-67073446D01*
X137261906Y-67073446D02*
X137309525Y-67121065D01*
X137309525Y-67121065D02*
X137404763Y-67168684D01*
X137404763Y-67168684D02*
X137785715Y-67168684D01*
X136595239Y-66644875D02*
X136404763Y-66644875D01*
X136404763Y-66644875D02*
X136309525Y-66692494D01*
X136309525Y-66692494D02*
X136214287Y-66787732D01*
X136214287Y-66787732D02*
X136166668Y-66978208D01*
X136166668Y-66978208D02*
X136166668Y-67311541D01*
X136166668Y-67311541D02*
X136214287Y-67502017D01*
X136214287Y-67502017D02*
X136309525Y-67597256D01*
X136309525Y-67597256D02*
X136404763Y-67644875D01*
X136404763Y-67644875D02*
X136595239Y-67644875D01*
X136595239Y-67644875D02*
X136690477Y-67597256D01*
X136690477Y-67597256D02*
X136785715Y-67502017D01*
X136785715Y-67502017D02*
X136833334Y-67311541D01*
X136833334Y-67311541D02*
X136833334Y-66978208D01*
X136833334Y-66978208D02*
X136785715Y-66787732D01*
X136785715Y-66787732D02*
X136690477Y-66692494D01*
X136690477Y-66692494D02*
X136595239Y-66644875D01*
X135880953Y-66644875D02*
X135547620Y-67644875D01*
X135547620Y-67644875D02*
X135214287Y-66644875D01*
X134880953Y-67121065D02*
X134547620Y-67121065D01*
X134404763Y-67644875D02*
X134880953Y-67644875D01*
X134880953Y-67644875D02*
X134880953Y-66644875D01*
X134880953Y-66644875D02*
X134404763Y-66644875D01*
X134023810Y-67597256D02*
X133880953Y-67644875D01*
X133880953Y-67644875D02*
X133642858Y-67644875D01*
X133642858Y-67644875D02*
X133547620Y-67597256D01*
X133547620Y-67597256D02*
X133500001Y-67549636D01*
X133500001Y-67549636D02*
X133452382Y-67454398D01*
X133452382Y-67454398D02*
X133452382Y-67359160D01*
X133452382Y-67359160D02*
X133500001Y-67263922D01*
X133500001Y-67263922D02*
X133547620Y-67216303D01*
X133547620Y-67216303D02*
X133642858Y-67168684D01*
X133642858Y-67168684D02*
X133833334Y-67121065D01*
X133833334Y-67121065D02*
X133928572Y-67073446D01*
X133928572Y-67073446D02*
X133976191Y-67025827D01*
X133976191Y-67025827D02*
X134023810Y-66930589D01*
X134023810Y-66930589D02*
X134023810Y-66835351D01*
X134023810Y-66835351D02*
X133976191Y-66740113D01*
X133976191Y-66740113D02*
X133928572Y-66692494D01*
X133928572Y-66692494D02*
X133833334Y-66644875D01*
X133833334Y-66644875D02*
X133595239Y-66644875D01*
X133595239Y-66644875D02*
X133452382Y-66692494D01*
X132357143Y-66644875D02*
X131690477Y-67644875D01*
X131690477Y-66644875D02*
X132357143Y-67644875D01*
X131119048Y-67168684D02*
X131119048Y-67644875D01*
X131452381Y-66644875D02*
X131119048Y-67168684D01*
X131119048Y-67168684D02*
X130785715Y-66644875D01*
X129738095Y-67597256D02*
X129595238Y-67644875D01*
X129595238Y-67644875D02*
X129357143Y-67644875D01*
X129357143Y-67644875D02*
X129261905Y-67597256D01*
X129261905Y-67597256D02*
X129214286Y-67549636D01*
X129214286Y-67549636D02*
X129166667Y-67454398D01*
X129166667Y-67454398D02*
X129166667Y-67359160D01*
X129166667Y-67359160D02*
X129214286Y-67263922D01*
X129214286Y-67263922D02*
X129261905Y-67216303D01*
X129261905Y-67216303D02*
X129357143Y-67168684D01*
X129357143Y-67168684D02*
X129547619Y-67121065D01*
X129547619Y-67121065D02*
X129642857Y-67073446D01*
X129642857Y-67073446D02*
X129690476Y-67025827D01*
X129690476Y-67025827D02*
X129738095Y-66930589D01*
X129738095Y-66930589D02*
X129738095Y-66835351D01*
X129738095Y-66835351D02*
X129690476Y-66740113D01*
X129690476Y-66740113D02*
X129642857Y-66692494D01*
X129642857Y-66692494D02*
X129547619Y-66644875D01*
X129547619Y-66644875D02*
X129309524Y-66644875D01*
X129309524Y-66644875D02*
X129166667Y-66692494D01*
X128547619Y-66644875D02*
X128357143Y-66644875D01*
X128357143Y-66644875D02*
X128261905Y-66692494D01*
X128261905Y-66692494D02*
X128166667Y-66787732D01*
X128166667Y-66787732D02*
X128119048Y-66978208D01*
X128119048Y-66978208D02*
X128119048Y-67311541D01*
X128119048Y-67311541D02*
X128166667Y-67502017D01*
X128166667Y-67502017D02*
X128261905Y-67597256D01*
X128261905Y-67597256D02*
X128357143Y-67644875D01*
X128357143Y-67644875D02*
X128547619Y-67644875D01*
X128547619Y-67644875D02*
X128642857Y-67597256D01*
X128642857Y-67597256D02*
X128738095Y-67502017D01*
X128738095Y-67502017D02*
X128785714Y-67311541D01*
X128785714Y-67311541D02*
X128785714Y-66978208D01*
X128785714Y-66978208D02*
X128738095Y-66787732D01*
X128738095Y-66787732D02*
X128642857Y-66692494D01*
X128642857Y-66692494D02*
X128547619Y-66644875D01*
X127214286Y-67644875D02*
X127690476Y-67644875D01*
X127690476Y-67644875D02*
X127690476Y-66644875D01*
X126928571Y-67359160D02*
X126452381Y-67359160D01*
X127023809Y-67644875D02*
X126690476Y-66644875D01*
X126690476Y-66644875D02*
X126357143Y-67644875D01*
X125452381Y-67644875D02*
X125785714Y-67168684D01*
X126023809Y-67644875D02*
X126023809Y-66644875D01*
X126023809Y-66644875D02*
X125642857Y-66644875D01*
X125642857Y-66644875D02*
X125547619Y-66692494D01*
X125547619Y-66692494D02*
X125500000Y-66740113D01*
X125500000Y-66740113D02*
X125452381Y-66835351D01*
X125452381Y-66835351D02*
X125452381Y-66978208D01*
X125452381Y-66978208D02*
X125500000Y-67073446D01*
X125500000Y-67073446D02*
X125547619Y-67121065D01*
X125547619Y-67121065D02*
X125642857Y-67168684D01*
X125642857Y-67168684D02*
X126023809Y-67168684D01*
X125023809Y-67549636D02*
X124976190Y-67597256D01*
X124976190Y-67597256D02*
X125023809Y-67644875D01*
X125023809Y-67644875D02*
X125071428Y-67597256D01*
X125071428Y-67597256D02*
X125023809Y-67549636D01*
X125023809Y-67549636D02*
X125023809Y-67644875D01*
X125023809Y-67025827D02*
X124976190Y-67073446D01*
X124976190Y-67073446D02*
X125023809Y-67121065D01*
X125023809Y-67121065D02*
X125071428Y-67073446D01*
X125071428Y-67073446D02*
X125023809Y-67025827D01*
X125023809Y-67025827D02*
X125023809Y-67121065D01*
X123785714Y-67644875D02*
X123785714Y-66644875D01*
X123214286Y-67644875D02*
X123642857Y-67073446D01*
X123214286Y-66644875D02*
X123785714Y-67216303D01*
X122785714Y-67644875D02*
X122785714Y-66644875D01*
X122452381Y-66644875D02*
X121880953Y-66644875D01*
X122166667Y-67644875D02*
X122166667Y-66644875D01*
X120928571Y-66644875D02*
X120595238Y-67644875D01*
X120595238Y-67644875D02*
X120261905Y-66644875D01*
X120023809Y-66644875D02*
X119404762Y-66644875D01*
X119404762Y-66644875D02*
X119738095Y-67025827D01*
X119738095Y-67025827D02*
X119595238Y-67025827D01*
X119595238Y-67025827D02*
X119500000Y-67073446D01*
X119500000Y-67073446D02*
X119452381Y-67121065D01*
X119452381Y-67121065D02*
X119404762Y-67216303D01*
X119404762Y-67216303D02*
X119404762Y-67454398D01*
X119404762Y-67454398D02*
X119452381Y-67549636D01*
X119452381Y-67549636D02*
X119500000Y-67597256D01*
X119500000Y-67597256D02*
X119595238Y-67644875D01*
X119595238Y-67644875D02*
X119880952Y-67644875D01*
X119880952Y-67644875D02*
X119976190Y-67597256D01*
X119976190Y-67597256D02*
X120023809Y-67549636D01*
X117738095Y-67644875D02*
X118214285Y-67644875D01*
X118214285Y-67644875D02*
X118214285Y-66644875D01*
X117261904Y-67644875D02*
X117357142Y-67597256D01*
X117357142Y-67597256D02*
X117404761Y-67549636D01*
X117404761Y-67549636D02*
X117452380Y-67454398D01*
X117452380Y-67454398D02*
X117452380Y-67168684D01*
X117452380Y-67168684D02*
X117404761Y-67073446D01*
X117404761Y-67073446D02*
X117357142Y-67025827D01*
X117357142Y-67025827D02*
X117261904Y-66978208D01*
X117261904Y-66978208D02*
X117119047Y-66978208D01*
X117119047Y-66978208D02*
X117023809Y-67025827D01*
X117023809Y-67025827D02*
X116976190Y-67073446D01*
X116976190Y-67073446D02*
X116928571Y-67168684D01*
X116928571Y-67168684D02*
X116928571Y-67454398D01*
X116928571Y-67454398D02*
X116976190Y-67549636D01*
X116976190Y-67549636D02*
X117023809Y-67597256D01*
X117023809Y-67597256D02*
X117119047Y-67644875D01*
X117119047Y-67644875D02*
X117261904Y-67644875D01*
X116595237Y-66978208D02*
X116404761Y-67644875D01*
X116404761Y-67644875D02*
X116214285Y-67168684D01*
X116214285Y-67168684D02*
X116023809Y-67644875D01*
X116023809Y-67644875D02*
X115833333Y-66978208D01*
X114690475Y-67644875D02*
X114690475Y-66644875D01*
X114690475Y-66644875D02*
X114309523Y-66644875D01*
X114309523Y-66644875D02*
X114214285Y-66692494D01*
X114214285Y-66692494D02*
X114166666Y-66740113D01*
X114166666Y-66740113D02*
X114119047Y-66835351D01*
X114119047Y-66835351D02*
X114119047Y-66978208D01*
X114119047Y-66978208D02*
X114166666Y-67073446D01*
X114166666Y-67073446D02*
X114214285Y-67121065D01*
X114214285Y-67121065D02*
X114309523Y-67168684D01*
X114309523Y-67168684D02*
X114690475Y-67168684D01*
X113690475Y-67644875D02*
X113690475Y-66978208D01*
X113690475Y-67168684D02*
X113642856Y-67073446D01*
X113642856Y-67073446D02*
X113595237Y-67025827D01*
X113595237Y-67025827D02*
X113499999Y-66978208D01*
X113499999Y-66978208D02*
X113404761Y-66978208D01*
X112928570Y-67644875D02*
X113023808Y-67597256D01*
X113023808Y-67597256D02*
X113071427Y-67549636D01*
X113071427Y-67549636D02*
X113119046Y-67454398D01*
X113119046Y-67454398D02*
X113119046Y-67168684D01*
X113119046Y-67168684D02*
X113071427Y-67073446D01*
X113071427Y-67073446D02*
X113023808Y-67025827D01*
X113023808Y-67025827D02*
X112928570Y-66978208D01*
X112928570Y-66978208D02*
X112785713Y-66978208D01*
X112785713Y-66978208D02*
X112690475Y-67025827D01*
X112690475Y-67025827D02*
X112642856Y-67073446D01*
X112642856Y-67073446D02*
X112595237Y-67168684D01*
X112595237Y-67168684D02*
X112595237Y-67454398D01*
X112595237Y-67454398D02*
X112642856Y-67549636D01*
X112642856Y-67549636D02*
X112690475Y-67597256D01*
X112690475Y-67597256D02*
X112785713Y-67644875D01*
X112785713Y-67644875D02*
X112928570Y-67644875D01*
X112309522Y-66978208D02*
X111928570Y-66978208D01*
X112166665Y-67644875D02*
X112166665Y-66787732D01*
X112166665Y-66787732D02*
X112119046Y-66692494D01*
X112119046Y-66692494D02*
X112023808Y-66644875D01*
X112023808Y-66644875D02*
X111928570Y-66644875D01*
X111595236Y-67644875D02*
X111595236Y-66978208D01*
X111595236Y-66644875D02*
X111642855Y-66692494D01*
X111642855Y-66692494D02*
X111595236Y-66740113D01*
X111595236Y-66740113D02*
X111547617Y-66692494D01*
X111547617Y-66692494D02*
X111595236Y-66644875D01*
X111595236Y-66644875D02*
X111595236Y-66740113D01*
X110976189Y-67644875D02*
X111071427Y-67597256D01*
X111071427Y-67597256D02*
X111119046Y-67502017D01*
X111119046Y-67502017D02*
X111119046Y-66644875D01*
X110214284Y-67597256D02*
X110309522Y-67644875D01*
X110309522Y-67644875D02*
X110499998Y-67644875D01*
X110499998Y-67644875D02*
X110595236Y-67597256D01*
X110595236Y-67597256D02*
X110642855Y-67502017D01*
X110642855Y-67502017D02*
X110642855Y-67121065D01*
X110642855Y-67121065D02*
X110595236Y-67025827D01*
X110595236Y-67025827D02*
X110499998Y-66978208D01*
X110499998Y-66978208D02*
X110309522Y-66978208D01*
X110309522Y-66978208D02*
X110214284Y-67025827D01*
X110214284Y-67025827D02*
X110166665Y-67121065D01*
X110166665Y-67121065D02*
X110166665Y-67216303D01*
X110166665Y-67216303D02*
X110642855Y-67311541D01*
X136928570Y-68969104D02*
X136452380Y-68969104D01*
X137023808Y-69254819D02*
X136690475Y-68254819D01*
X136690475Y-68254819D02*
X136357142Y-69254819D01*
X136023808Y-69254819D02*
X136023808Y-68254819D01*
X136023808Y-68254819D02*
X135690475Y-68969104D01*
X135690475Y-68969104D02*
X135357142Y-68254819D01*
X135357142Y-68254819D02*
X135357142Y-69254819D01*
X134928570Y-68969104D02*
X134452380Y-68969104D01*
X135023808Y-69254819D02*
X134690475Y-68254819D01*
X134690475Y-68254819D02*
X134357142Y-69254819D01*
X134023808Y-69254819D02*
X134023808Y-68254819D01*
X134023808Y-68254819D02*
X133452380Y-69254819D01*
X133452380Y-69254819D02*
X133452380Y-68254819D01*
X132976189Y-69254819D02*
X132976189Y-68254819D01*
X132976189Y-68254819D02*
X132738094Y-68254819D01*
X132738094Y-68254819D02*
X132595237Y-68302438D01*
X132595237Y-68302438D02*
X132499999Y-68397676D01*
X132499999Y-68397676D02*
X132452380Y-68492914D01*
X132452380Y-68492914D02*
X132404761Y-68683390D01*
X132404761Y-68683390D02*
X132404761Y-68826247D01*
X132404761Y-68826247D02*
X132452380Y-69016723D01*
X132452380Y-69016723D02*
X132499999Y-69111961D01*
X132499999Y-69111961D02*
X132595237Y-69207200D01*
X132595237Y-69207200D02*
X132738094Y-69254819D01*
X132738094Y-69254819D02*
X132976189Y-69254819D01*
X132023808Y-68969104D02*
X131547618Y-68969104D01*
X132119046Y-69254819D02*
X131785713Y-68254819D01*
X131785713Y-68254819D02*
X131452380Y-69254819D01*
X130357141Y-68731009D02*
X130023808Y-68731009D01*
X129880951Y-69254819D02*
X130357141Y-69254819D01*
X130357141Y-69254819D02*
X130357141Y-68254819D01*
X130357141Y-68254819D02*
X129880951Y-68254819D01*
X129547617Y-68254819D02*
X129309522Y-69254819D01*
X129309522Y-69254819D02*
X129119046Y-68540533D01*
X129119046Y-68540533D02*
X128928570Y-69254819D01*
X128928570Y-69254819D02*
X128690475Y-68254819D01*
X128309522Y-69254819D02*
X128309522Y-68254819D01*
X127833332Y-69254819D02*
X127833332Y-68254819D01*
X127833332Y-68254819D02*
X127261904Y-69254819D01*
X127261904Y-69254819D02*
X127261904Y-68254819D01*
X126261904Y-68302438D02*
X126357142Y-68254819D01*
X126357142Y-68254819D02*
X126499999Y-68254819D01*
X126499999Y-68254819D02*
X126642856Y-68302438D01*
X126642856Y-68302438D02*
X126738094Y-68397676D01*
X126738094Y-68397676D02*
X126785713Y-68492914D01*
X126785713Y-68492914D02*
X126833332Y-68683390D01*
X126833332Y-68683390D02*
X126833332Y-68826247D01*
X126833332Y-68826247D02*
X126785713Y-69016723D01*
X126785713Y-69016723D02*
X126738094Y-69111961D01*
X126738094Y-69111961D02*
X126642856Y-69207200D01*
X126642856Y-69207200D02*
X126499999Y-69254819D01*
X126499999Y-69254819D02*
X126404761Y-69254819D01*
X126404761Y-69254819D02*
X126261904Y-69207200D01*
X126261904Y-69207200D02*
X126214285Y-69159580D01*
X126214285Y-69159580D02*
X126214285Y-68826247D01*
X126214285Y-68826247D02*
X126404761Y-68826247D01*
X125738094Y-69207200D02*
X125738094Y-69254819D01*
X125738094Y-69254819D02*
X125785713Y-69350057D01*
X125785713Y-69350057D02*
X125833332Y-69397676D01*
X124547618Y-69254819D02*
X124547618Y-68254819D01*
X124547618Y-68254819D02*
X123976190Y-69254819D01*
X123976190Y-69254819D02*
X123976190Y-68254819D01*
X123499999Y-69254819D02*
X123499999Y-68254819D01*
X122452381Y-69159580D02*
X122500000Y-69207200D01*
X122500000Y-69207200D02*
X122642857Y-69254819D01*
X122642857Y-69254819D02*
X122738095Y-69254819D01*
X122738095Y-69254819D02*
X122880952Y-69207200D01*
X122880952Y-69207200D02*
X122976190Y-69111961D01*
X122976190Y-69111961D02*
X123023809Y-69016723D01*
X123023809Y-69016723D02*
X123071428Y-68826247D01*
X123071428Y-68826247D02*
X123071428Y-68683390D01*
X123071428Y-68683390D02*
X123023809Y-68492914D01*
X123023809Y-68492914D02*
X122976190Y-68397676D01*
X122976190Y-68397676D02*
X122880952Y-68302438D01*
X122880952Y-68302438D02*
X122738095Y-68254819D01*
X122738095Y-68254819D02*
X122642857Y-68254819D01*
X122642857Y-68254819D02*
X122500000Y-68302438D01*
X122500000Y-68302438D02*
X122452381Y-68350057D01*
X121833333Y-68254819D02*
X121642857Y-68254819D01*
X121642857Y-68254819D02*
X121547619Y-68302438D01*
X121547619Y-68302438D02*
X121452381Y-68397676D01*
X121452381Y-68397676D02*
X121404762Y-68588152D01*
X121404762Y-68588152D02*
X121404762Y-68921485D01*
X121404762Y-68921485D02*
X121452381Y-69111961D01*
X121452381Y-69111961D02*
X121547619Y-69207200D01*
X121547619Y-69207200D02*
X121642857Y-69254819D01*
X121642857Y-69254819D02*
X121833333Y-69254819D01*
X121833333Y-69254819D02*
X121928571Y-69207200D01*
X121928571Y-69207200D02*
X122023809Y-69111961D01*
X122023809Y-69111961D02*
X122071428Y-68921485D01*
X122071428Y-68921485D02*
X122071428Y-68588152D01*
X122071428Y-68588152D02*
X122023809Y-68397676D01*
X122023809Y-68397676D02*
X121928571Y-68302438D01*
X121928571Y-68302438D02*
X121833333Y-68254819D01*
X120500000Y-69254819D02*
X120976190Y-69254819D01*
X120976190Y-69254819D02*
X120976190Y-68254819D01*
X120166666Y-68731009D02*
X119833333Y-68731009D01*
X119690476Y-69254819D02*
X120166666Y-69254819D01*
X120166666Y-69254819D02*
X120166666Y-68254819D01*
X120166666Y-68254819D02*
X119690476Y-68254819D01*
X118499999Y-69254819D02*
X118499999Y-68254819D01*
X118499999Y-68254819D02*
X118166666Y-68969104D01*
X118166666Y-68969104D02*
X117833333Y-68254819D01*
X117833333Y-68254819D02*
X117833333Y-69254819D01*
X117404761Y-68969104D02*
X116928571Y-68969104D01*
X117499999Y-69254819D02*
X117166666Y-68254819D01*
X117166666Y-68254819D02*
X116833333Y-69254819D01*
X115976190Y-68302438D02*
X116071428Y-68254819D01*
X116071428Y-68254819D02*
X116214285Y-68254819D01*
X116214285Y-68254819D02*
X116357142Y-68302438D01*
X116357142Y-68302438D02*
X116452380Y-68397676D01*
X116452380Y-68397676D02*
X116499999Y-68492914D01*
X116499999Y-68492914D02*
X116547618Y-68683390D01*
X116547618Y-68683390D02*
X116547618Y-68826247D01*
X116547618Y-68826247D02*
X116499999Y-69016723D01*
X116499999Y-69016723D02*
X116452380Y-69111961D01*
X116452380Y-69111961D02*
X116357142Y-69207200D01*
X116357142Y-69207200D02*
X116214285Y-69254819D01*
X116214285Y-69254819D02*
X116119047Y-69254819D01*
X116119047Y-69254819D02*
X115976190Y-69207200D01*
X115976190Y-69207200D02*
X115928571Y-69159580D01*
X115928571Y-69159580D02*
X115928571Y-68826247D01*
X115928571Y-68826247D02*
X116119047Y-68826247D01*
X114976190Y-68302438D02*
X115071428Y-68254819D01*
X115071428Y-68254819D02*
X115214285Y-68254819D01*
X115214285Y-68254819D02*
X115357142Y-68302438D01*
X115357142Y-68302438D02*
X115452380Y-68397676D01*
X115452380Y-68397676D02*
X115499999Y-68492914D01*
X115499999Y-68492914D02*
X115547618Y-68683390D01*
X115547618Y-68683390D02*
X115547618Y-68826247D01*
X115547618Y-68826247D02*
X115499999Y-69016723D01*
X115499999Y-69016723D02*
X115452380Y-69111961D01*
X115452380Y-69111961D02*
X115357142Y-69207200D01*
X115357142Y-69207200D02*
X115214285Y-69254819D01*
X115214285Y-69254819D02*
X115119047Y-69254819D01*
X115119047Y-69254819D02*
X114976190Y-69207200D01*
X114976190Y-69207200D02*
X114928571Y-69159580D01*
X114928571Y-69159580D02*
X114928571Y-68826247D01*
X114928571Y-68826247D02*
X115119047Y-68826247D01*
X114547618Y-68969104D02*
X114071428Y-68969104D01*
X114642856Y-69254819D02*
X114309523Y-68254819D01*
X114309523Y-68254819D02*
X113976190Y-69254819D01*
X113071428Y-69254819D02*
X113404761Y-68778628D01*
X113642856Y-69254819D02*
X113642856Y-68254819D01*
X113642856Y-68254819D02*
X113261904Y-68254819D01*
X113261904Y-68254819D02*
X113166666Y-68302438D01*
X113166666Y-68302438D02*
X113119047Y-68350057D01*
X113119047Y-68350057D02*
X113071428Y-68445295D01*
X113071428Y-68445295D02*
X113071428Y-68588152D01*
X113071428Y-68588152D02*
X113119047Y-68683390D01*
X113119047Y-68683390D02*
X113166666Y-68731009D01*
X113166666Y-68731009D02*
X113261904Y-68778628D01*
X113261904Y-68778628D02*
X113642856Y-68778628D01*
X112642856Y-69254819D02*
X112642856Y-68254819D01*
X112642856Y-68254819D02*
X112404761Y-68254819D01*
X112404761Y-68254819D02*
X112261904Y-68302438D01*
X112261904Y-68302438D02*
X112166666Y-68397676D01*
X112166666Y-68397676D02*
X112119047Y-68492914D01*
X112119047Y-68492914D02*
X112071428Y-68683390D01*
X112071428Y-68683390D02*
X112071428Y-68826247D01*
X112071428Y-68826247D02*
X112119047Y-69016723D01*
X112119047Y-69016723D02*
X112166666Y-69111961D01*
X112166666Y-69111961D02*
X112261904Y-69207200D01*
X112261904Y-69207200D02*
X112404761Y-69254819D01*
X112404761Y-69254819D02*
X112642856Y-69254819D01*
X136261905Y-70864763D02*
X136595238Y-70388572D01*
X136833333Y-70864763D02*
X136833333Y-69864763D01*
X136833333Y-69864763D02*
X136452381Y-69864763D01*
X136452381Y-69864763D02*
X136357143Y-69912382D01*
X136357143Y-69912382D02*
X136309524Y-69960001D01*
X136309524Y-69960001D02*
X136261905Y-70055239D01*
X136261905Y-70055239D02*
X136261905Y-70198096D01*
X136261905Y-70198096D02*
X136309524Y-70293334D01*
X136309524Y-70293334D02*
X136357143Y-70340953D01*
X136357143Y-70340953D02*
X136452381Y-70388572D01*
X136452381Y-70388572D02*
X136833333Y-70388572D01*
X135404762Y-70864763D02*
X135404762Y-70340953D01*
X135404762Y-70340953D02*
X135452381Y-70245715D01*
X135452381Y-70245715D02*
X135547619Y-70198096D01*
X135547619Y-70198096D02*
X135738095Y-70198096D01*
X135738095Y-70198096D02*
X135833333Y-70245715D01*
X135404762Y-70817144D02*
X135500000Y-70864763D01*
X135500000Y-70864763D02*
X135738095Y-70864763D01*
X135738095Y-70864763D02*
X135833333Y-70817144D01*
X135833333Y-70817144D02*
X135880952Y-70721905D01*
X135880952Y-70721905D02*
X135880952Y-70626667D01*
X135880952Y-70626667D02*
X135833333Y-70531429D01*
X135833333Y-70531429D02*
X135738095Y-70483810D01*
X135738095Y-70483810D02*
X135500000Y-70483810D01*
X135500000Y-70483810D02*
X135404762Y-70436191D01*
X134500000Y-70817144D02*
X134595238Y-70864763D01*
X134595238Y-70864763D02*
X134785714Y-70864763D01*
X134785714Y-70864763D02*
X134880952Y-70817144D01*
X134880952Y-70817144D02*
X134928571Y-70769524D01*
X134928571Y-70769524D02*
X134976190Y-70674286D01*
X134976190Y-70674286D02*
X134976190Y-70388572D01*
X134976190Y-70388572D02*
X134928571Y-70293334D01*
X134928571Y-70293334D02*
X134880952Y-70245715D01*
X134880952Y-70245715D02*
X134785714Y-70198096D01*
X134785714Y-70198096D02*
X134595238Y-70198096D01*
X134595238Y-70198096D02*
X134500000Y-70245715D01*
X134071428Y-70864763D02*
X134071428Y-69864763D01*
X133642857Y-70864763D02*
X133642857Y-70340953D01*
X133642857Y-70340953D02*
X133690476Y-70245715D01*
X133690476Y-70245715D02*
X133785714Y-70198096D01*
X133785714Y-70198096D02*
X133928571Y-70198096D01*
X133928571Y-70198096D02*
X134023809Y-70245715D01*
X134023809Y-70245715D02*
X134071428Y-70293334D01*
X132785714Y-70817144D02*
X132880952Y-70864763D01*
X132880952Y-70864763D02*
X133071428Y-70864763D01*
X133071428Y-70864763D02*
X133166666Y-70817144D01*
X133166666Y-70817144D02*
X133214285Y-70721905D01*
X133214285Y-70721905D02*
X133214285Y-70340953D01*
X133214285Y-70340953D02*
X133166666Y-70245715D01*
X133166666Y-70245715D02*
X133071428Y-70198096D01*
X133071428Y-70198096D02*
X132880952Y-70198096D01*
X132880952Y-70198096D02*
X132785714Y-70245715D01*
X132785714Y-70245715D02*
X132738095Y-70340953D01*
X132738095Y-70340953D02*
X132738095Y-70436191D01*
X132738095Y-70436191D02*
X133214285Y-70531429D01*
X132166666Y-70864763D02*
X132261904Y-70817144D01*
X132261904Y-70817144D02*
X132309523Y-70721905D01*
X132309523Y-70721905D02*
X132309523Y-69864763D01*
X130452380Y-70864763D02*
X130785713Y-70388572D01*
X131023808Y-70864763D02*
X131023808Y-69864763D01*
X131023808Y-69864763D02*
X130642856Y-69864763D01*
X130642856Y-69864763D02*
X130547618Y-69912382D01*
X130547618Y-69912382D02*
X130499999Y-69960001D01*
X130499999Y-69960001D02*
X130452380Y-70055239D01*
X130452380Y-70055239D02*
X130452380Y-70198096D01*
X130452380Y-70198096D02*
X130499999Y-70293334D01*
X130499999Y-70293334D02*
X130547618Y-70340953D01*
X130547618Y-70340953D02*
X130642856Y-70388572D01*
X130642856Y-70388572D02*
X131023808Y-70388572D01*
X129595237Y-70864763D02*
X129595237Y-70340953D01*
X129595237Y-70340953D02*
X129642856Y-70245715D01*
X129642856Y-70245715D02*
X129738094Y-70198096D01*
X129738094Y-70198096D02*
X129928570Y-70198096D01*
X129928570Y-70198096D02*
X130023808Y-70245715D01*
X129595237Y-70817144D02*
X129690475Y-70864763D01*
X129690475Y-70864763D02*
X129928570Y-70864763D01*
X129928570Y-70864763D02*
X130023808Y-70817144D01*
X130023808Y-70817144D02*
X130071427Y-70721905D01*
X130071427Y-70721905D02*
X130071427Y-70626667D01*
X130071427Y-70626667D02*
X130023808Y-70531429D01*
X130023808Y-70531429D02*
X129928570Y-70483810D01*
X129928570Y-70483810D02*
X129690475Y-70483810D01*
X129690475Y-70483810D02*
X129595237Y-70436191D01*
X129119046Y-70864763D02*
X129119046Y-69864763D01*
X129023808Y-70483810D02*
X128738094Y-70864763D01*
X128738094Y-70198096D02*
X129119046Y-70579048D01*
X127880951Y-70198096D02*
X127880951Y-70864763D01*
X128309522Y-70198096D02*
X128309522Y-70721905D01*
X128309522Y-70721905D02*
X128261903Y-70817144D01*
X128261903Y-70817144D02*
X128166665Y-70864763D01*
X128166665Y-70864763D02*
X128023808Y-70864763D01*
X128023808Y-70864763D02*
X127928570Y-70817144D01*
X127928570Y-70817144D02*
X127880951Y-70769524D01*
X127452379Y-70817144D02*
X127357141Y-70864763D01*
X127357141Y-70864763D02*
X127166665Y-70864763D01*
X127166665Y-70864763D02*
X127071427Y-70817144D01*
X127071427Y-70817144D02*
X127023808Y-70721905D01*
X127023808Y-70721905D02*
X127023808Y-70674286D01*
X127023808Y-70674286D02*
X127071427Y-70579048D01*
X127071427Y-70579048D02*
X127166665Y-70531429D01*
X127166665Y-70531429D02*
X127309522Y-70531429D01*
X127309522Y-70531429D02*
X127404760Y-70483810D01*
X127404760Y-70483810D02*
X127452379Y-70388572D01*
X127452379Y-70388572D02*
X127452379Y-70340953D01*
X127452379Y-70340953D02*
X127404760Y-70245715D01*
X127404760Y-70245715D02*
X127309522Y-70198096D01*
X127309522Y-70198096D02*
X127166665Y-70198096D01*
X127166665Y-70198096D02*
X127071427Y-70245715D01*
X126595236Y-70864763D02*
X126595236Y-69864763D01*
X126166665Y-70864763D02*
X126166665Y-70340953D01*
X126166665Y-70340953D02*
X126214284Y-70245715D01*
X126214284Y-70245715D02*
X126309522Y-70198096D01*
X126309522Y-70198096D02*
X126452379Y-70198096D01*
X126452379Y-70198096D02*
X126547617Y-70245715D01*
X126547617Y-70245715D02*
X126595236Y-70293334D01*
X125690474Y-70864763D02*
X125690474Y-69864763D01*
X125595236Y-70483810D02*
X125309522Y-70864763D01*
X125309522Y-70198096D02*
X125690474Y-70579048D01*
X124880950Y-70864763D02*
X124880950Y-70198096D01*
X124880950Y-69864763D02*
X124928569Y-69912382D01*
X124928569Y-69912382D02*
X124880950Y-69960001D01*
X124880950Y-69960001D02*
X124833331Y-69912382D01*
X124833331Y-69912382D02*
X124880950Y-69864763D01*
X124880950Y-69864763D02*
X124880950Y-69960001D01*
X124404760Y-70198096D02*
X124404760Y-70864763D01*
X124404760Y-70293334D02*
X124357141Y-70245715D01*
X124357141Y-70245715D02*
X124261903Y-70198096D01*
X124261903Y-70198096D02*
X124119046Y-70198096D01*
X124119046Y-70198096D02*
X124023808Y-70245715D01*
X124023808Y-70245715D02*
X123976189Y-70340953D01*
X123976189Y-70340953D02*
X123976189Y-70864763D01*
X123452379Y-70817144D02*
X123452379Y-70864763D01*
X123452379Y-70864763D02*
X123499998Y-70960001D01*
X123499998Y-70960001D02*
X123547617Y-71007620D01*
X122261903Y-70864763D02*
X122261903Y-69864763D01*
X122261903Y-69864763D02*
X121928570Y-70579048D01*
X121928570Y-70579048D02*
X121595237Y-69864763D01*
X121595237Y-69864763D02*
X121595237Y-70864763D01*
X121119046Y-70864763D02*
X121119046Y-70198096D01*
X121119046Y-69864763D02*
X121166665Y-69912382D01*
X121166665Y-69912382D02*
X121119046Y-69960001D01*
X121119046Y-69960001D02*
X121071427Y-69912382D01*
X121071427Y-69912382D02*
X121119046Y-69864763D01*
X121119046Y-69864763D02*
X121119046Y-69960001D01*
X120214285Y-70817144D02*
X120309523Y-70864763D01*
X120309523Y-70864763D02*
X120499999Y-70864763D01*
X120499999Y-70864763D02*
X120595237Y-70817144D01*
X120595237Y-70817144D02*
X120642856Y-70769524D01*
X120642856Y-70769524D02*
X120690475Y-70674286D01*
X120690475Y-70674286D02*
X120690475Y-70388572D01*
X120690475Y-70388572D02*
X120642856Y-70293334D01*
X120642856Y-70293334D02*
X120595237Y-70245715D01*
X120595237Y-70245715D02*
X120499999Y-70198096D01*
X120499999Y-70198096D02*
X120309523Y-70198096D01*
X120309523Y-70198096D02*
X120214285Y-70245715D01*
X119785713Y-70864763D02*
X119785713Y-69864763D01*
X119357142Y-70864763D02*
X119357142Y-70340953D01*
X119357142Y-70340953D02*
X119404761Y-70245715D01*
X119404761Y-70245715D02*
X119499999Y-70198096D01*
X119499999Y-70198096D02*
X119642856Y-70198096D01*
X119642856Y-70198096D02*
X119738094Y-70245715D01*
X119738094Y-70245715D02*
X119785713Y-70293334D01*
X118452380Y-70864763D02*
X118452380Y-70340953D01*
X118452380Y-70340953D02*
X118499999Y-70245715D01*
X118499999Y-70245715D02*
X118595237Y-70198096D01*
X118595237Y-70198096D02*
X118785713Y-70198096D01*
X118785713Y-70198096D02*
X118880951Y-70245715D01*
X118452380Y-70817144D02*
X118547618Y-70864763D01*
X118547618Y-70864763D02*
X118785713Y-70864763D01*
X118785713Y-70864763D02*
X118880951Y-70817144D01*
X118880951Y-70817144D02*
X118928570Y-70721905D01*
X118928570Y-70721905D02*
X118928570Y-70626667D01*
X118928570Y-70626667D02*
X118880951Y-70531429D01*
X118880951Y-70531429D02*
X118785713Y-70483810D01*
X118785713Y-70483810D02*
X118547618Y-70483810D01*
X118547618Y-70483810D02*
X118452380Y-70436191D01*
X117595237Y-70817144D02*
X117690475Y-70864763D01*
X117690475Y-70864763D02*
X117880951Y-70864763D01*
X117880951Y-70864763D02*
X117976189Y-70817144D01*
X117976189Y-70817144D02*
X118023808Y-70721905D01*
X118023808Y-70721905D02*
X118023808Y-70340953D01*
X118023808Y-70340953D02*
X117976189Y-70245715D01*
X117976189Y-70245715D02*
X117880951Y-70198096D01*
X117880951Y-70198096D02*
X117690475Y-70198096D01*
X117690475Y-70198096D02*
X117595237Y-70245715D01*
X117595237Y-70245715D02*
X117547618Y-70340953D01*
X117547618Y-70340953D02*
X117547618Y-70436191D01*
X117547618Y-70436191D02*
X118023808Y-70531429D01*
X116976189Y-70864763D02*
X117071427Y-70817144D01*
X117071427Y-70817144D02*
X117119046Y-70721905D01*
X117119046Y-70721905D02*
X117119046Y-69864763D01*
X115833331Y-70864763D02*
X115833331Y-69864763D01*
X115833331Y-69864763D02*
X115452379Y-69864763D01*
X115452379Y-69864763D02*
X115357141Y-69912382D01*
X115357141Y-69912382D02*
X115309522Y-69960001D01*
X115309522Y-69960001D02*
X115261903Y-70055239D01*
X115261903Y-70055239D02*
X115261903Y-70198096D01*
X115261903Y-70198096D02*
X115309522Y-70293334D01*
X115309522Y-70293334D02*
X115357141Y-70340953D01*
X115357141Y-70340953D02*
X115452379Y-70388572D01*
X115452379Y-70388572D02*
X115833331Y-70388572D01*
X114833331Y-70864763D02*
X114833331Y-69864763D01*
X114404760Y-70864763D02*
X114404760Y-70340953D01*
X114404760Y-70340953D02*
X114452379Y-70245715D01*
X114452379Y-70245715D02*
X114547617Y-70198096D01*
X114547617Y-70198096D02*
X114690474Y-70198096D01*
X114690474Y-70198096D02*
X114785712Y-70245715D01*
X114785712Y-70245715D02*
X114833331Y-70293334D01*
X113499998Y-70864763D02*
X113499998Y-70340953D01*
X113499998Y-70340953D02*
X113547617Y-70245715D01*
X113547617Y-70245715D02*
X113642855Y-70198096D01*
X113642855Y-70198096D02*
X113833331Y-70198096D01*
X113833331Y-70198096D02*
X113928569Y-70245715D01*
X113499998Y-70817144D02*
X113595236Y-70864763D01*
X113595236Y-70864763D02*
X113833331Y-70864763D01*
X113833331Y-70864763D02*
X113928569Y-70817144D01*
X113928569Y-70817144D02*
X113976188Y-70721905D01*
X113976188Y-70721905D02*
X113976188Y-70626667D01*
X113976188Y-70626667D02*
X113928569Y-70531429D01*
X113928569Y-70531429D02*
X113833331Y-70483810D01*
X113833331Y-70483810D02*
X113595236Y-70483810D01*
X113595236Y-70483810D02*
X113499998Y-70436191D01*
X113023807Y-70864763D02*
X113023807Y-70198096D01*
X113023807Y-70293334D02*
X112976188Y-70245715D01*
X112976188Y-70245715D02*
X112880950Y-70198096D01*
X112880950Y-70198096D02*
X112738093Y-70198096D01*
X112738093Y-70198096D02*
X112642855Y-70245715D01*
X112642855Y-70245715D02*
X112595236Y-70340953D01*
X112595236Y-70340953D02*
X112595236Y-70864763D01*
X112595236Y-70340953D02*
X112547617Y-70245715D01*
X112547617Y-70245715D02*
X112452379Y-70198096D01*
X112452379Y-70198096D02*
X112309522Y-70198096D01*
X112309522Y-70198096D02*
X112214283Y-70245715D01*
X112214283Y-70245715D02*
X112166664Y-70340953D01*
X112166664Y-70340953D02*
X112166664Y-70864763D01*
X162947621Y-161419819D02*
X162376193Y-161419819D01*
X162661907Y-162419819D02*
X162661907Y-161419819D01*
X162042859Y-162419819D02*
X162042859Y-161419819D01*
X161614288Y-162419819D02*
X161614288Y-161896009D01*
X161614288Y-161896009D02*
X161661907Y-161800771D01*
X161661907Y-161800771D02*
X161757145Y-161753152D01*
X161757145Y-161753152D02*
X161900002Y-161753152D01*
X161900002Y-161753152D02*
X161995240Y-161800771D01*
X161995240Y-161800771D02*
X162042859Y-161848390D01*
X160757145Y-162372200D02*
X160852383Y-162419819D01*
X160852383Y-162419819D02*
X161042859Y-162419819D01*
X161042859Y-162419819D02*
X161138097Y-162372200D01*
X161138097Y-162372200D02*
X161185716Y-162276961D01*
X161185716Y-162276961D02*
X161185716Y-161896009D01*
X161185716Y-161896009D02*
X161138097Y-161800771D01*
X161138097Y-161800771D02*
X161042859Y-161753152D01*
X161042859Y-161753152D02*
X160852383Y-161753152D01*
X160852383Y-161753152D02*
X160757145Y-161800771D01*
X160757145Y-161800771D02*
X160709526Y-161896009D01*
X160709526Y-161896009D02*
X160709526Y-161991247D01*
X160709526Y-161991247D02*
X161185716Y-162086485D01*
X159519049Y-162419819D02*
X159519049Y-161419819D01*
X159519049Y-161419819D02*
X159138097Y-161419819D01*
X159138097Y-161419819D02*
X159042859Y-161467438D01*
X159042859Y-161467438D02*
X158995240Y-161515057D01*
X158995240Y-161515057D02*
X158947621Y-161610295D01*
X158947621Y-161610295D02*
X158947621Y-161753152D01*
X158947621Y-161753152D02*
X158995240Y-161848390D01*
X158995240Y-161848390D02*
X159042859Y-161896009D01*
X159042859Y-161896009D02*
X159138097Y-161943628D01*
X159138097Y-161943628D02*
X159519049Y-161943628D01*
X158376192Y-162419819D02*
X158471430Y-162372200D01*
X158471430Y-162372200D02*
X158519049Y-162324580D01*
X158519049Y-162324580D02*
X158566668Y-162229342D01*
X158566668Y-162229342D02*
X158566668Y-161943628D01*
X158566668Y-161943628D02*
X158519049Y-161848390D01*
X158519049Y-161848390D02*
X158471430Y-161800771D01*
X158471430Y-161800771D02*
X158376192Y-161753152D01*
X158376192Y-161753152D02*
X158233335Y-161753152D01*
X158233335Y-161753152D02*
X158138097Y-161800771D01*
X158138097Y-161800771D02*
X158090478Y-161848390D01*
X158090478Y-161848390D02*
X158042859Y-161943628D01*
X158042859Y-161943628D02*
X158042859Y-162229342D01*
X158042859Y-162229342D02*
X158090478Y-162324580D01*
X158090478Y-162324580D02*
X158138097Y-162372200D01*
X158138097Y-162372200D02*
X158233335Y-162419819D01*
X158233335Y-162419819D02*
X158376192Y-162419819D01*
X157709525Y-161753152D02*
X157519049Y-162419819D01*
X157519049Y-162419819D02*
X157328573Y-161943628D01*
X157328573Y-161943628D02*
X157138097Y-162419819D01*
X157138097Y-162419819D02*
X156947621Y-161753152D01*
X156185716Y-162372200D02*
X156280954Y-162419819D01*
X156280954Y-162419819D02*
X156471430Y-162419819D01*
X156471430Y-162419819D02*
X156566668Y-162372200D01*
X156566668Y-162372200D02*
X156614287Y-162276961D01*
X156614287Y-162276961D02*
X156614287Y-161896009D01*
X156614287Y-161896009D02*
X156566668Y-161800771D01*
X156566668Y-161800771D02*
X156471430Y-161753152D01*
X156471430Y-161753152D02*
X156280954Y-161753152D01*
X156280954Y-161753152D02*
X156185716Y-161800771D01*
X156185716Y-161800771D02*
X156138097Y-161896009D01*
X156138097Y-161896009D02*
X156138097Y-161991247D01*
X156138097Y-161991247D02*
X156614287Y-162086485D01*
X155709525Y-162419819D02*
X155709525Y-161753152D01*
X155709525Y-161943628D02*
X155661906Y-161848390D01*
X155661906Y-161848390D02*
X155614287Y-161800771D01*
X155614287Y-161800771D02*
X155519049Y-161753152D01*
X155519049Y-161753152D02*
X155423811Y-161753152D01*
X154185715Y-162419819D02*
X154280953Y-162372200D01*
X154280953Y-162372200D02*
X154328572Y-162324580D01*
X154328572Y-162324580D02*
X154376191Y-162229342D01*
X154376191Y-162229342D02*
X154376191Y-161943628D01*
X154376191Y-161943628D02*
X154328572Y-161848390D01*
X154328572Y-161848390D02*
X154280953Y-161800771D01*
X154280953Y-161800771D02*
X154185715Y-161753152D01*
X154185715Y-161753152D02*
X154042858Y-161753152D01*
X154042858Y-161753152D02*
X153947620Y-161800771D01*
X153947620Y-161800771D02*
X153900001Y-161848390D01*
X153900001Y-161848390D02*
X153852382Y-161943628D01*
X153852382Y-161943628D02*
X153852382Y-162229342D01*
X153852382Y-162229342D02*
X153900001Y-162324580D01*
X153900001Y-162324580D02*
X153947620Y-162372200D01*
X153947620Y-162372200D02*
X154042858Y-162419819D01*
X154042858Y-162419819D02*
X154185715Y-162419819D01*
X153566667Y-161753152D02*
X153185715Y-161753152D01*
X153423810Y-162419819D02*
X153423810Y-161562676D01*
X153423810Y-161562676D02*
X153376191Y-161467438D01*
X153376191Y-161467438D02*
X153280953Y-161419819D01*
X153280953Y-161419819D02*
X153185715Y-161419819D01*
X152233333Y-161753152D02*
X151852381Y-161753152D01*
X152090476Y-161419819D02*
X152090476Y-162276961D01*
X152090476Y-162276961D02*
X152042857Y-162372200D01*
X152042857Y-162372200D02*
X151947619Y-162419819D01*
X151947619Y-162419819D02*
X151852381Y-162419819D01*
X151519047Y-162419819D02*
X151519047Y-161419819D01*
X151090476Y-162419819D02*
X151090476Y-161896009D01*
X151090476Y-161896009D02*
X151138095Y-161800771D01*
X151138095Y-161800771D02*
X151233333Y-161753152D01*
X151233333Y-161753152D02*
X151376190Y-161753152D01*
X151376190Y-161753152D02*
X151471428Y-161800771D01*
X151471428Y-161800771D02*
X151519047Y-161848390D01*
X150233333Y-162372200D02*
X150328571Y-162419819D01*
X150328571Y-162419819D02*
X150519047Y-162419819D01*
X150519047Y-162419819D02*
X150614285Y-162372200D01*
X150614285Y-162372200D02*
X150661904Y-162276961D01*
X150661904Y-162276961D02*
X150661904Y-161896009D01*
X150661904Y-161896009D02*
X150614285Y-161800771D01*
X150614285Y-161800771D02*
X150519047Y-161753152D01*
X150519047Y-161753152D02*
X150328571Y-161753152D01*
X150328571Y-161753152D02*
X150233333Y-161800771D01*
X150233333Y-161800771D02*
X150185714Y-161896009D01*
X150185714Y-161896009D02*
X150185714Y-161991247D01*
X150185714Y-161991247D02*
X150661904Y-162086485D01*
X149042856Y-162372200D02*
X148899999Y-162419819D01*
X148899999Y-162419819D02*
X148661904Y-162419819D01*
X148661904Y-162419819D02*
X148566666Y-162372200D01*
X148566666Y-162372200D02*
X148519047Y-162324580D01*
X148519047Y-162324580D02*
X148471428Y-162229342D01*
X148471428Y-162229342D02*
X148471428Y-162134104D01*
X148471428Y-162134104D02*
X148519047Y-162038866D01*
X148519047Y-162038866D02*
X148566666Y-161991247D01*
X148566666Y-161991247D02*
X148661904Y-161943628D01*
X148661904Y-161943628D02*
X148852380Y-161896009D01*
X148852380Y-161896009D02*
X148947618Y-161848390D01*
X148947618Y-161848390D02*
X148995237Y-161800771D01*
X148995237Y-161800771D02*
X149042856Y-161705533D01*
X149042856Y-161705533D02*
X149042856Y-161610295D01*
X149042856Y-161610295D02*
X148995237Y-161515057D01*
X148995237Y-161515057D02*
X148947618Y-161467438D01*
X148947618Y-161467438D02*
X148852380Y-161419819D01*
X148852380Y-161419819D02*
X148614285Y-161419819D01*
X148614285Y-161419819D02*
X148471428Y-161467438D01*
X147614285Y-161753152D02*
X147614285Y-162419819D01*
X148042856Y-161753152D02*
X148042856Y-162276961D01*
X148042856Y-162276961D02*
X147995237Y-162372200D01*
X147995237Y-162372200D02*
X147899999Y-162419819D01*
X147899999Y-162419819D02*
X147757142Y-162419819D01*
X147757142Y-162419819D02*
X147661904Y-162372200D01*
X147661904Y-162372200D02*
X147614285Y-162324580D01*
X147138094Y-161753152D02*
X147138094Y-162419819D01*
X147138094Y-161848390D02*
X147090475Y-161800771D01*
X147090475Y-161800771D02*
X146995237Y-161753152D01*
X146995237Y-161753152D02*
X146852380Y-161753152D01*
X146852380Y-161753152D02*
X146757142Y-161800771D01*
X146757142Y-161800771D02*
X146709523Y-161896009D01*
X146709523Y-161896009D02*
X146709523Y-162419819D01*
X145471427Y-162419819D02*
X145471427Y-161753152D01*
X145471427Y-161419819D02*
X145519046Y-161467438D01*
X145519046Y-161467438D02*
X145471427Y-161515057D01*
X145471427Y-161515057D02*
X145423808Y-161467438D01*
X145423808Y-161467438D02*
X145471427Y-161419819D01*
X145471427Y-161419819D02*
X145471427Y-161515057D01*
X144995237Y-161753152D02*
X144995237Y-162419819D01*
X144995237Y-161848390D02*
X144947618Y-161800771D01*
X144947618Y-161800771D02*
X144852380Y-161753152D01*
X144852380Y-161753152D02*
X144709523Y-161753152D01*
X144709523Y-161753152D02*
X144614285Y-161800771D01*
X144614285Y-161800771D02*
X144566666Y-161896009D01*
X144566666Y-161896009D02*
X144566666Y-162419819D01*
X143471427Y-161753152D02*
X143090475Y-161753152D01*
X143328570Y-161419819D02*
X143328570Y-162276961D01*
X143328570Y-162276961D02*
X143280951Y-162372200D01*
X143280951Y-162372200D02*
X143185713Y-162419819D01*
X143185713Y-162419819D02*
X143090475Y-162419819D01*
X142757141Y-162419819D02*
X142757141Y-161419819D01*
X142328570Y-162419819D02*
X142328570Y-161896009D01*
X142328570Y-161896009D02*
X142376189Y-161800771D01*
X142376189Y-161800771D02*
X142471427Y-161753152D01*
X142471427Y-161753152D02*
X142614284Y-161753152D01*
X142614284Y-161753152D02*
X142709522Y-161800771D01*
X142709522Y-161800771D02*
X142757141Y-161848390D01*
X141471427Y-162372200D02*
X141566665Y-162419819D01*
X141566665Y-162419819D02*
X141757141Y-162419819D01*
X141757141Y-162419819D02*
X141852379Y-162372200D01*
X141852379Y-162372200D02*
X141899998Y-162276961D01*
X141899998Y-162276961D02*
X141899998Y-161896009D01*
X141899998Y-161896009D02*
X141852379Y-161800771D01*
X141852379Y-161800771D02*
X141757141Y-161753152D01*
X141757141Y-161753152D02*
X141566665Y-161753152D01*
X141566665Y-161753152D02*
X141471427Y-161800771D01*
X141471427Y-161800771D02*
X141423808Y-161896009D01*
X141423808Y-161896009D02*
X141423808Y-161991247D01*
X141423808Y-161991247D02*
X141899998Y-162086485D01*
X140233331Y-162419819D02*
X140233331Y-161419819D01*
X140233331Y-161419819D02*
X139852379Y-161419819D01*
X139852379Y-161419819D02*
X139757141Y-161467438D01*
X139757141Y-161467438D02*
X139709522Y-161515057D01*
X139709522Y-161515057D02*
X139661903Y-161610295D01*
X139661903Y-161610295D02*
X139661903Y-161753152D01*
X139661903Y-161753152D02*
X139709522Y-161848390D01*
X139709522Y-161848390D02*
X139757141Y-161896009D01*
X139757141Y-161896009D02*
X139852379Y-161943628D01*
X139852379Y-161943628D02*
X140233331Y-161943628D01*
X138804760Y-162419819D02*
X138804760Y-161896009D01*
X138804760Y-161896009D02*
X138852379Y-161800771D01*
X138852379Y-161800771D02*
X138947617Y-161753152D01*
X138947617Y-161753152D02*
X139138093Y-161753152D01*
X139138093Y-161753152D02*
X139233331Y-161800771D01*
X138804760Y-162372200D02*
X138899998Y-162419819D01*
X138899998Y-162419819D02*
X139138093Y-162419819D01*
X139138093Y-162419819D02*
X139233331Y-162372200D01*
X139233331Y-162372200D02*
X139280950Y-162276961D01*
X139280950Y-162276961D02*
X139280950Y-162181723D01*
X139280950Y-162181723D02*
X139233331Y-162086485D01*
X139233331Y-162086485D02*
X139138093Y-162038866D01*
X139138093Y-162038866D02*
X138899998Y-162038866D01*
X138899998Y-162038866D02*
X138804760Y-161991247D01*
X138185712Y-162419819D02*
X138280950Y-162372200D01*
X138280950Y-162372200D02*
X138328569Y-162276961D01*
X138328569Y-162276961D02*
X138328569Y-161419819D01*
X137804759Y-162419819D02*
X137804759Y-161753152D01*
X137804759Y-161848390D02*
X137757140Y-161800771D01*
X137757140Y-161800771D02*
X137661902Y-161753152D01*
X137661902Y-161753152D02*
X137519045Y-161753152D01*
X137519045Y-161753152D02*
X137423807Y-161800771D01*
X137423807Y-161800771D02*
X137376188Y-161896009D01*
X137376188Y-161896009D02*
X137376188Y-162419819D01*
X137376188Y-161896009D02*
X137328569Y-161800771D01*
X137328569Y-161800771D02*
X137233331Y-161753152D01*
X137233331Y-161753152D02*
X137090474Y-161753152D01*
X137090474Y-161753152D02*
X136995235Y-161800771D01*
X136995235Y-161800771D02*
X136947616Y-161896009D01*
X136947616Y-161896009D02*
X136947616Y-162419819D01*
X135519045Y-161419819D02*
X135328569Y-161419819D01*
X135328569Y-161419819D02*
X135233331Y-161467438D01*
X135233331Y-161467438D02*
X135138093Y-161562676D01*
X135138093Y-161562676D02*
X135090474Y-161753152D01*
X135090474Y-161753152D02*
X135090474Y-162086485D01*
X135090474Y-162086485D02*
X135138093Y-162276961D01*
X135138093Y-162276961D02*
X135233331Y-162372200D01*
X135233331Y-162372200D02*
X135328569Y-162419819D01*
X135328569Y-162419819D02*
X135519045Y-162419819D01*
X135519045Y-162419819D02*
X135614283Y-162372200D01*
X135614283Y-162372200D02*
X135709521Y-162276961D01*
X135709521Y-162276961D02*
X135757140Y-162086485D01*
X135757140Y-162086485D02*
X135757140Y-161753152D01*
X135757140Y-161753152D02*
X135709521Y-161562676D01*
X135709521Y-161562676D02*
X135614283Y-161467438D01*
X135614283Y-161467438D02*
X135519045Y-161419819D01*
X134804759Y-161753152D02*
X134423807Y-161753152D01*
X134661902Y-162419819D02*
X134661902Y-161562676D01*
X134661902Y-161562676D02*
X134614283Y-161467438D01*
X134614283Y-161467438D02*
X134519045Y-161419819D01*
X134519045Y-161419819D02*
X134423807Y-161419819D01*
X133138092Y-161943628D02*
X133138092Y-162419819D01*
X133471425Y-161419819D02*
X133138092Y-161943628D01*
X133138092Y-161943628D02*
X132804759Y-161419819D01*
X132328568Y-162419819D02*
X132423806Y-162372200D01*
X132423806Y-162372200D02*
X132471425Y-162324580D01*
X132471425Y-162324580D02*
X132519044Y-162229342D01*
X132519044Y-162229342D02*
X132519044Y-161943628D01*
X132519044Y-161943628D02*
X132471425Y-161848390D01*
X132471425Y-161848390D02*
X132423806Y-161800771D01*
X132423806Y-161800771D02*
X132328568Y-161753152D01*
X132328568Y-161753152D02*
X132185711Y-161753152D01*
X132185711Y-161753152D02*
X132090473Y-161800771D01*
X132090473Y-161800771D02*
X132042854Y-161848390D01*
X132042854Y-161848390D02*
X131995235Y-161943628D01*
X131995235Y-161943628D02*
X131995235Y-162229342D01*
X131995235Y-162229342D02*
X132042854Y-162324580D01*
X132042854Y-162324580D02*
X132090473Y-162372200D01*
X132090473Y-162372200D02*
X132185711Y-162419819D01*
X132185711Y-162419819D02*
X132328568Y-162419819D01*
X131138092Y-161753152D02*
X131138092Y-162419819D01*
X131566663Y-161753152D02*
X131566663Y-162276961D01*
X131566663Y-162276961D02*
X131519044Y-162372200D01*
X131519044Y-162372200D02*
X131423806Y-162419819D01*
X131423806Y-162419819D02*
X131280949Y-162419819D01*
X131280949Y-162419819D02*
X131185711Y-162372200D01*
X131185711Y-162372200D02*
X131138092Y-162324580D01*
X130661901Y-162419819D02*
X130661901Y-161753152D01*
X130661901Y-161943628D02*
X130614282Y-161848390D01*
X130614282Y-161848390D02*
X130566663Y-161800771D01*
X130566663Y-161800771D02*
X130471425Y-161753152D01*
X130471425Y-161753152D02*
X130376187Y-161753152D01*
X129280948Y-162419819D02*
X129280948Y-161419819D01*
X129280948Y-161896009D02*
X128709520Y-161896009D01*
X128709520Y-162419819D02*
X128709520Y-161419819D01*
X127804758Y-162419819D02*
X127804758Y-161896009D01*
X127804758Y-161896009D02*
X127852377Y-161800771D01*
X127852377Y-161800771D02*
X127947615Y-161753152D01*
X127947615Y-161753152D02*
X128138091Y-161753152D01*
X128138091Y-161753152D02*
X128233329Y-161800771D01*
X127804758Y-162372200D02*
X127899996Y-162419819D01*
X127899996Y-162419819D02*
X128138091Y-162419819D01*
X128138091Y-162419819D02*
X128233329Y-162372200D01*
X128233329Y-162372200D02*
X128280948Y-162276961D01*
X128280948Y-162276961D02*
X128280948Y-162181723D01*
X128280948Y-162181723D02*
X128233329Y-162086485D01*
X128233329Y-162086485D02*
X128138091Y-162038866D01*
X128138091Y-162038866D02*
X127899996Y-162038866D01*
X127899996Y-162038866D02*
X127804758Y-161991247D01*
X127328567Y-161753152D02*
X127328567Y-162419819D01*
X127328567Y-161848390D02*
X127280948Y-161800771D01*
X127280948Y-161800771D02*
X127185710Y-161753152D01*
X127185710Y-161753152D02*
X127042853Y-161753152D01*
X127042853Y-161753152D02*
X126947615Y-161800771D01*
X126947615Y-161800771D02*
X126899996Y-161896009D01*
X126899996Y-161896009D02*
X126899996Y-162419819D01*
X125995234Y-162419819D02*
X125995234Y-161419819D01*
X125995234Y-162372200D02*
X126090472Y-162419819D01*
X126090472Y-162419819D02*
X126280948Y-162419819D01*
X126280948Y-162419819D02*
X126376186Y-162372200D01*
X126376186Y-162372200D02*
X126423805Y-162324580D01*
X126423805Y-162324580D02*
X126471424Y-162229342D01*
X126471424Y-162229342D02*
X126471424Y-161943628D01*
X126471424Y-161943628D02*
X126423805Y-161848390D01*
X126423805Y-161848390D02*
X126376186Y-161800771D01*
X126376186Y-161800771D02*
X126280948Y-161753152D01*
X126280948Y-161753152D02*
X126090472Y-161753152D01*
X126090472Y-161753152D02*
X125995234Y-161800771D01*
X145190477Y-111409581D02*
X145238096Y-111457201D01*
X145238096Y-111457201D02*
X145380953Y-111504820D01*
X145380953Y-111504820D02*
X145476191Y-111504820D01*
X145476191Y-111504820D02*
X145619048Y-111457201D01*
X145619048Y-111457201D02*
X145714286Y-111361962D01*
X145714286Y-111361962D02*
X145761905Y-111266724D01*
X145761905Y-111266724D02*
X145809524Y-111076248D01*
X145809524Y-111076248D02*
X145809524Y-110933391D01*
X145809524Y-110933391D02*
X145761905Y-110742915D01*
X145761905Y-110742915D02*
X145714286Y-110647677D01*
X145714286Y-110647677D02*
X145619048Y-110552439D01*
X145619048Y-110552439D02*
X145476191Y-110504820D01*
X145476191Y-110504820D02*
X145380953Y-110504820D01*
X145380953Y-110504820D02*
X145238096Y-110552439D01*
X145238096Y-110552439D02*
X145190477Y-110600058D01*
X144761905Y-111504820D02*
X144761905Y-110504820D01*
X144761905Y-110504820D02*
X144190477Y-111504820D01*
X144190477Y-111504820D02*
X144190477Y-110504820D01*
X143190477Y-111504820D02*
X143761905Y-111504820D01*
X143476191Y-111504820D02*
X143476191Y-110504820D01*
X143476191Y-110504820D02*
X143571429Y-110647677D01*
X143571429Y-110647677D02*
X143666667Y-110742915D01*
X143666667Y-110742915D02*
X143761905Y-110790534D01*
X136521904Y-95794818D02*
X136521904Y-96604341D01*
X136521904Y-96604341D02*
X136474285Y-96699579D01*
X136474285Y-96699579D02*
X136426666Y-96747199D01*
X136426666Y-96747199D02*
X136331428Y-96794818D01*
X136331428Y-96794818D02*
X136140952Y-96794818D01*
X136140952Y-96794818D02*
X136045714Y-96747199D01*
X136045714Y-96747199D02*
X135998095Y-96699579D01*
X135998095Y-96699579D02*
X135950476Y-96604341D01*
X135950476Y-96604341D02*
X135950476Y-95794818D01*
X135045714Y-95794818D02*
X135236190Y-95794818D01*
X135236190Y-95794818D02*
X135331428Y-95842437D01*
X135331428Y-95842437D02*
X135379047Y-95890056D01*
X135379047Y-95890056D02*
X135474285Y-96032913D01*
X135474285Y-96032913D02*
X135521904Y-96223389D01*
X135521904Y-96223389D02*
X135521904Y-96604341D01*
X135521904Y-96604341D02*
X135474285Y-96699579D01*
X135474285Y-96699579D02*
X135426666Y-96747199D01*
X135426666Y-96747199D02*
X135331428Y-96794818D01*
X135331428Y-96794818D02*
X135140952Y-96794818D01*
X135140952Y-96794818D02*
X135045714Y-96747199D01*
X135045714Y-96747199D02*
X134998095Y-96699579D01*
X134998095Y-96699579D02*
X134950476Y-96604341D01*
X134950476Y-96604341D02*
X134950476Y-96366246D01*
X134950476Y-96366246D02*
X134998095Y-96271008D01*
X134998095Y-96271008D02*
X135045714Y-96223389D01*
X135045714Y-96223389D02*
X135140952Y-96175770D01*
X135140952Y-96175770D02*
X135331428Y-96175770D01*
X135331428Y-96175770D02*
X135426666Y-96223389D01*
X135426666Y-96223389D02*
X135474285Y-96271008D01*
X135474285Y-96271008D02*
X135521904Y-96366246D01*
X145041904Y-134232320D02*
X145041904Y-135041843D01*
X145041904Y-135041843D02*
X144994285Y-135137081D01*
X144994285Y-135137081D02*
X144946666Y-135184701D01*
X144946666Y-135184701D02*
X144851428Y-135232320D01*
X144851428Y-135232320D02*
X144660952Y-135232320D01*
X144660952Y-135232320D02*
X144565714Y-135184701D01*
X144565714Y-135184701D02*
X144518095Y-135137081D01*
X144518095Y-135137081D02*
X144470476Y-135041843D01*
X144470476Y-135041843D02*
X144470476Y-134232320D01*
X143518095Y-134232320D02*
X143994285Y-134232320D01*
X143994285Y-134232320D02*
X144041904Y-134708510D01*
X144041904Y-134708510D02*
X143994285Y-134660891D01*
X143994285Y-134660891D02*
X143899047Y-134613272D01*
X143899047Y-134613272D02*
X143660952Y-134613272D01*
X143660952Y-134613272D02*
X143565714Y-134660891D01*
X143565714Y-134660891D02*
X143518095Y-134708510D01*
X143518095Y-134708510D02*
X143470476Y-134803748D01*
X143470476Y-134803748D02*
X143470476Y-135041843D01*
X143470476Y-135041843D02*
X143518095Y-135137081D01*
X143518095Y-135137081D02*
X143565714Y-135184701D01*
X143565714Y-135184701D02*
X143660952Y-135232320D01*
X143660952Y-135232320D02*
X143899047Y-135232320D01*
X143899047Y-135232320D02*
X143994285Y-135184701D01*
X143994285Y-135184701D02*
X144041904Y-135137081D01*
D11*
%TO.C,CN1*%
X140400001Y-112150001D02*
X148600001Y-112150001D01*
X140400001Y-114750001D02*
X140800001Y-114750001D01*
X140400001Y-117350001D02*
X140400001Y-112150001D01*
X140800001Y-112550001D02*
X143000001Y-112550001D01*
X140800001Y-114750001D02*
X140800001Y-112550001D01*
X140800001Y-115750001D02*
X140400001Y-115750001D01*
X140800001Y-116950001D02*
X140800001Y-115750001D01*
X143000001Y-112550001D02*
X143000001Y-112150001D01*
X144000001Y-112550001D02*
X144000001Y-112150001D01*
X145000001Y-112150001D02*
X145000001Y-112550001D01*
X145000001Y-112550001D02*
X144000001Y-112550001D01*
X146000001Y-112550000D02*
X146000001Y-112150001D01*
X148200001Y-112550000D02*
X146000001Y-112550000D01*
X148200001Y-114750001D02*
X148200001Y-112550000D01*
X148200001Y-115750001D02*
X148200001Y-116950001D01*
X148200001Y-116950001D02*
X140800001Y-116950001D01*
X148600001Y-112150001D02*
X148600001Y-117350001D01*
X148600001Y-114750001D02*
X148200001Y-114750001D01*
X148600001Y-115750001D02*
X148200001Y-115750001D01*
X148600001Y-117350001D02*
X140400001Y-117350001D01*
X148910001Y-111840001D02*
X147000000Y-111840001D01*
X148910001Y-113750001D02*
X148910001Y-111840001D01*
D12*
%TO.C,U6*%
X142360000Y-100329999D02*
X142360000Y-104379999D01*
X142360000Y-100329999D02*
X140040000Y-100329998D01*
X140260000Y-106630000D02*
X142360000Y-106629999D01*
X140260000Y-104379999D02*
X140260000Y-106630000D01*
X140260000Y-103629999D02*
X139960000Y-104379999D01*
X139810000Y-104379999D02*
X139510000Y-103629999D01*
X139510000Y-103629999D02*
X140260000Y-103629999D01*
X138980000Y-100329999D02*
X138540000Y-100329999D01*
X137480000Y-100329999D02*
X137040000Y-100329999D01*
X135980000Y-100329999D02*
X135540000Y-100329999D01*
X134480000Y-100329999D02*
X134040000Y-100329999D01*
X132980000Y-100329999D02*
X132540000Y-100329999D01*
X131480000Y-100329998D02*
X129160000Y-100329999D01*
X131260000Y-106630000D02*
X131260000Y-104379999D01*
X131260000Y-104379999D02*
X140260000Y-104379999D01*
X129160000Y-106629999D02*
X131260000Y-106630000D01*
X129160000Y-100329999D02*
X129160000Y-104379999D01*
D13*
X140870000Y-99679999D02*
G75*
G02*
X140470000Y-99679999I-200000J0D01*
G01*
X140470000Y-99679999D02*
G75*
G02*
X140870000Y-99679999I200000J0D01*
G01*
D12*
%TO.C,U5*%
X150880000Y-130787501D02*
X150880000Y-126737501D01*
X150880000Y-124487501D02*
X148780000Y-124487500D01*
X148780000Y-126737501D02*
X139780000Y-126737501D01*
X148780000Y-124487500D02*
X148780000Y-126737501D01*
X148560000Y-130787502D02*
X150880000Y-130787501D01*
X147060000Y-130787501D02*
X147500000Y-130787501D01*
X145560000Y-130787501D02*
X146000000Y-130787501D01*
X144060000Y-130787501D02*
X144500000Y-130787501D01*
X142560000Y-130787501D02*
X143000000Y-130787501D01*
X141060000Y-130787501D02*
X141500000Y-130787501D01*
X140530000Y-127487501D02*
X139780000Y-127487501D01*
X140230000Y-126737501D02*
X140530000Y-127487501D01*
X139780000Y-127487501D02*
X140080000Y-126737501D01*
X139780000Y-126737501D02*
X139780000Y-124487500D01*
X139780000Y-124487500D02*
X137680000Y-124487501D01*
X137680000Y-130787501D02*
X140000000Y-130787502D01*
X137680000Y-130787501D02*
X137680000Y-126737501D01*
D13*
X139570000Y-131437501D02*
G75*
G02*
X139170000Y-131437501I-200000J0D01*
G01*
X139170000Y-131437501D02*
G75*
G02*
X139570000Y-131437501I200000J0D01*
G01*
%TD*%
%LPC*%
D14*
%TO.C,J2*%
X106500000Y-70300000D03*
%TD*%
%TO.C,J3*%
X106500000Y-159300000D03*
%TD*%
%TO.C,J4*%
X182500000Y-70300000D03*
%TD*%
%TO.C,J5*%
X182500000Y-159300000D03*
%TD*%
D15*
%TO.C,CN1*%
X146500001Y-113750001D03*
D16*
X146500001Y-115750002D03*
X144500000Y-113750001D03*
X144500001Y-115750001D03*
X142500001Y-113750001D03*
X142500000Y-115750001D03*
%TD*%
D17*
%TO.C,U6*%
X139510000Y-100339999D03*
X138010000Y-100339999D03*
X136510001Y-100339999D03*
X135009999Y-100339999D03*
X133510000Y-100339999D03*
X132010000Y-100339999D03*
D18*
X129410000Y-105520000D03*
X142110000Y-105520000D03*
%TD*%
D17*
%TO.C,U5*%
X140530000Y-130777501D03*
X142030000Y-130777501D03*
X143529999Y-130777501D03*
X145030001Y-130777501D03*
X146530000Y-130777501D03*
X148030000Y-130777501D03*
D18*
X150630000Y-125597500D03*
X137930000Y-125597500D03*
%TD*%
%LPD*%
M02*
