%TF.GenerationSoftware,KiCad,Pcbnew,9.0.3*%
%TF.CreationDate,2025-07-30T14:55:58-07:00*%
%TF.ProjectId,xy_faces_v2a,78795f66-6163-4657-935f-7632612e6b69,3.0*%
%TF.SameCoordinates,Original*%
%TF.FileFunction,Copper,L3,Inr*%
%TF.FilePolarity,Positive*%
%FSLAX46Y46*%
G04 Gerber Fmt 4.6, Leading zero omitted, Abs format (unit mm)*
G04 Created by KiCad (PCBNEW 9.0.3) date 2025-07-30 14:55:58*
%MOMM*%
%LPD*%
G01*
G04 APERTURE LIST*
G04 Aperture macros list*
%AMRoundRect*
0 Rectangle with rounded corners*
0 $1 Rounding radius*
0 $2 $3 $4 $5 $6 $7 $8 $9 X,Y pos of 4 corners*
0 Add a 4 corners polygon primitive as box body*
4,1,4,$2,$3,$4,$5,$6,$7,$8,$9,$2,$3,0*
0 Add four circle primitives for the rounded corners*
1,1,$1+$1,$2,$3*
1,1,$1+$1,$4,$5*
1,1,$1+$1,$6,$7*
1,1,$1+$1,$8,$9*
0 Add four rect primitives between the rounded corners*
20,1,$1+$1,$2,$3,$4,$5,0*
20,1,$1+$1,$4,$5,$6,$7,0*
20,1,$1+$1,$6,$7,$8,$9,0*
20,1,$1+$1,$8,$9,$2,$3,0*%
G04 Aperture macros list end*
%TA.AperFunction,ComponentPad*%
%ADD10C,5.700000*%
%TD*%
%TA.AperFunction,HeatsinkPad*%
%ADD11C,0.500000*%
%TD*%
%TA.AperFunction,ComponentPad*%
%ADD12RoundRect,0.250000X0.350000X0.575000X-0.350000X0.575000X-0.350000X-0.575000X0.350000X-0.575000X0*%
%TD*%
%TA.AperFunction,ComponentPad*%
%ADD13O,1.200000X1.650000*%
%TD*%
%TA.AperFunction,ViaPad*%
%ADD14C,0.800000*%
%TD*%
%TA.AperFunction,Conductor*%
%ADD15C,0.250000*%
%TD*%
%TA.AperFunction,Conductor*%
%ADD16C,1.000000*%
%TD*%
G04 APERTURE END LIST*
D10*
%TO.N,unconnected-(J2-Pin_1-Pad1)*%
%TO.C,J2*%
X106500000Y-70300000D03*
%TD*%
%TO.N,unconnected-(J3-Pin_1-Pad1)*%
%TO.C,J3*%
X106500000Y-159300000D03*
%TD*%
%TO.N,unconnected-(J4-Pin_1-Pad1)*%
%TO.C,J4*%
X182500000Y-70300000D03*
%TD*%
%TO.N,unconnected-(J5-Pin_1-Pad1)*%
%TO.C,J5*%
X182500000Y-159300000D03*
%TD*%
D11*
%TO.N,GND*%
%TO.C,U2*%
X152600000Y-116750000D03*
X152600000Y-115450000D03*
X151500000Y-116750000D03*
X151500000Y-115450000D03*
%TD*%
D12*
%TO.N,GND*%
%TO.C,CN1*%
X146500001Y-113750001D03*
D13*
%TO.N,Net-(CN1-Pin_2)*%
X146500001Y-115750002D03*
%TO.N,VSOLAR*%
X144500000Y-113750001D03*
%TO.N,+3V3*%
X144500001Y-115750001D03*
%TO.N,VSOLAR*%
X142500001Y-113750001D03*
%TO.N,Net-(CN1-Pin_6)*%
X142500000Y-115750001D03*
%TD*%
D14*
%TO.N,GND*%
X153250000Y-111750000D03*
X169300000Y-159860000D03*
X160825000Y-112900000D03*
X157100000Y-110000000D03*
X152300000Y-117700000D03*
X144520000Y-159900000D03*
X119500000Y-159800000D03*
X167920000Y-159860000D03*
X144750000Y-111000000D03*
X142900000Y-159900000D03*
X154700000Y-120000000D03*
X166300000Y-159860000D03*
X145900000Y-159900000D03*
X135015253Y-113208948D03*
X121120000Y-159800000D03*
X124150000Y-116450000D03*
X122500000Y-159800000D03*
X160750000Y-114500000D03*
%TO.N,+3V3*%
X150250000Y-111000000D03*
X150050000Y-118605000D03*
X163300000Y-116900000D03*
X138227388Y-110744462D03*
X135750000Y-115750000D03*
X140750000Y-115250000D03*
X160750000Y-109750000D03*
X158775000Y-116900000D03*
X155500000Y-109750000D03*
%TO.N,VSOLAR*%
X124500000Y-114750000D03*
X124500000Y-111500000D03*
X124500000Y-118000000D03*
%TO.N,SDA*%
X157165885Y-115284647D03*
X156250000Y-113750000D03*
%TO.N,SCL*%
X148508348Y-112272245D03*
X143496487Y-110201487D03*
%TO.N,Net-(SC3--)*%
X137250000Y-123000000D03*
X136250000Y-109000000D03*
X137250000Y-108000000D03*
X137250000Y-121000000D03*
%TO.N,Net-(U3-OUT+)*%
X161890000Y-115330000D03*
X174680000Y-141950000D03*
X161820000Y-113350000D03*
X164800000Y-127190000D03*
X174900000Y-87350000D03*
%TD*%
D15*
%TO.N,+3V3*%
X158775000Y-116900000D02*
X163300000Y-116900000D01*
X143426001Y-114676001D02*
X143426001Y-113141439D01*
X147355000Y-118605000D02*
X144500001Y-115750001D01*
X163300000Y-116900000D02*
X163300000Y-112300000D01*
X144500001Y-115750001D02*
X143426001Y-114676001D01*
X150050000Y-118605000D02*
X147355000Y-118605000D01*
X157070000Y-118605000D02*
X158775000Y-116900000D01*
X143426001Y-113141439D02*
X141029024Y-110744462D01*
X150250000Y-111000000D02*
X151500000Y-109750000D01*
X141029024Y-110744462D02*
X138227388Y-110744462D01*
X150050000Y-111200000D02*
X150050000Y-118605000D01*
X150050000Y-118605000D02*
X157070000Y-118605000D01*
X163300000Y-112300000D02*
X160750000Y-109750000D01*
X151500000Y-109750000D02*
X155500000Y-109750000D01*
X150250000Y-111000000D02*
X150050000Y-111200000D01*
X155976000Y-109274000D02*
X160274000Y-109274000D01*
X160274000Y-109274000D02*
X160750000Y-109750000D01*
X155500000Y-109750000D02*
X155976000Y-109274000D01*
D16*
%TO.N,Net-(SC3--)*%
X137250000Y-111324124D02*
X137250000Y-121000000D01*
X136250000Y-109000000D02*
X136250000Y-110324124D01*
X137250000Y-108000000D02*
X136250000Y-109000000D01*
X136250000Y-110324124D02*
X137250000Y-111324124D01*
X137250000Y-121000000D02*
X137250000Y-123000000D01*
D15*
%TO.N,Net-(U3-OUT+)*%
X166500000Y-95500000D02*
X167750000Y-96750000D01*
X121750000Y-135500000D02*
X119750000Y-133500000D01*
X121250000Y-132750000D02*
X121250000Y-96750000D01*
X166500000Y-135000000D02*
X122000000Y-135000000D01*
X123250000Y-132500000D02*
X122750000Y-132000000D01*
X112750000Y-137000000D02*
X112750000Y-92500000D01*
X118750000Y-95500000D02*
X121250000Y-93000000D01*
X122250000Y-134500000D02*
X120750000Y-133000000D01*
X120750000Y-96500000D02*
X122250000Y-95000000D01*
X167750000Y-93000000D02*
X170250000Y-95500000D01*
X167000000Y-94500000D02*
X168750000Y-96250000D01*
X167000000Y-136000000D02*
X121500000Y-136000000D01*
X121750000Y-94000000D02*
X167250000Y-94000000D01*
X120750000Y-137500000D02*
X117750000Y-134500000D01*
X112250000Y-92250000D02*
X118000000Y-86500000D01*
X113250000Y-136750000D02*
X113250000Y-92750000D01*
X169500000Y-141000000D02*
X119000000Y-141000000D01*
X123250000Y-97750000D02*
X123500000Y-97500000D01*
X116250000Y-135250000D02*
X116250000Y-94250000D01*
X122750000Y-96000000D02*
X166250000Y-96000000D01*
X117250000Y-134750000D02*
X117250000Y-94750000D01*
X119000000Y-141000000D02*
X114250000Y-136250000D01*
X170250000Y-88000000D02*
X175250000Y-93000000D01*
X169750000Y-141500000D02*
X118750000Y-141500000D01*
X171750000Y-94750000D02*
X171750000Y-135000000D01*
X172750000Y-94250000D02*
X172750000Y-135500000D01*
X174750000Y-93250000D02*
X174750000Y-136500000D01*
X166250000Y-97500000D02*
X166250000Y-132250000D01*
X168750000Y-91000000D02*
X172250000Y-94500000D01*
X165000000Y-132000000D02*
X123500000Y-132000000D01*
X173750000Y-136000000D02*
X169250000Y-140500000D01*
X170750000Y-134500000D02*
X167750000Y-137500000D01*
X111750000Y-137500000D02*
X111750000Y-92000000D01*
X120250000Y-133250000D02*
X120250000Y-96250000D01*
X121000000Y-92500000D02*
X168000000Y-92500000D01*
X118000000Y-143000000D02*
X112250000Y-137250000D01*
X123000000Y-133000000D02*
X122250000Y-132250000D01*
X116250000Y-94250000D02*
X120000000Y-90500000D01*
X164800000Y-127190000D02*
X165290000Y-127680000D01*
X168250000Y-96500000D02*
X168250000Y-133250000D01*
X122250000Y-132250000D02*
X122250000Y-97250000D01*
X119500000Y-89500000D02*
X169500000Y-89500000D01*
X170750000Y-143500000D02*
X117750000Y-143500000D01*
X171000000Y-86500000D02*
X176750000Y-92250000D01*
X168250000Y-92000000D02*
X171250000Y-95000000D01*
X122750000Y-132000000D02*
X122750000Y-97500000D01*
X118250000Y-142500000D02*
X112750000Y-137000000D01*
X123250000Y-97000000D02*
X165750000Y-97000000D01*
X170500000Y-87500000D02*
X175750000Y-92750000D01*
X121750000Y-132500000D02*
X121750000Y-97000000D01*
X119250000Y-140500000D02*
X114750000Y-136000000D01*
X167750000Y-137500000D02*
X120750000Y-137500000D01*
X166750000Y-97250000D02*
X166750000Y-132500000D01*
X115250000Y-93750000D02*
X119500000Y-89500000D01*
X117750000Y-143500000D02*
X111750000Y-137500000D01*
X121000000Y-137000000D02*
X118250000Y-134250000D01*
X166750000Y-135500000D02*
X121750000Y-135500000D01*
X119250000Y-133750000D02*
X119250000Y-95750000D01*
X118750000Y-134000000D02*
X118750000Y-95500000D01*
X121500000Y-93500000D02*
X167500000Y-93500000D01*
X118250000Y-87000000D02*
X170750000Y-87000000D01*
X175250000Y-93000000D02*
X175250000Y-136750000D01*
X169750000Y-89000000D02*
X174250000Y-93500000D01*
X120750000Y-133000000D02*
X120750000Y-96500000D01*
X173750000Y-93750000D02*
X173750000Y-136000000D01*
X121250000Y-136500000D02*
X118750000Y-134000000D01*
X176750000Y-137500000D02*
X170750000Y-143500000D01*
X122750000Y-97500000D02*
X123250000Y-97000000D01*
X174750000Y-136500000D02*
X169750000Y-141500000D01*
X119750000Y-90000000D02*
X169250000Y-90000000D01*
X165500000Y-97500000D02*
X165750000Y-97750000D01*
X170500000Y-143000000D02*
X118000000Y-143000000D01*
X117750000Y-134500000D02*
X117750000Y-95000000D01*
X172750000Y-135500000D02*
X168750000Y-139500000D01*
X173250000Y-135750000D02*
X169000000Y-140000000D01*
X169000000Y-90500000D02*
X172750000Y-94250000D01*
X117250000Y-94750000D02*
X120500000Y-91500000D01*
X166750000Y-132500000D02*
X165750000Y-133500000D01*
X114750000Y-93500000D02*
X119250000Y-89000000D01*
X174250000Y-136250000D02*
X169500000Y-141000000D01*
X119500000Y-140000000D02*
X115250000Y-135750000D01*
X113750000Y-93000000D02*
X118750000Y-88000000D01*
X169250000Y-140500000D02*
X119250000Y-140500000D01*
X168000000Y-92500000D02*
X170750000Y-95250000D01*
X171250000Y-134750000D02*
X168000000Y-138000000D01*
X170000000Y-88500000D02*
X174750000Y-93250000D01*
X167750000Y-96750000D02*
X167750000Y-133000000D01*
X168500000Y-91500000D02*
X171750000Y-94750000D01*
X122000000Y-94500000D02*
X167000000Y-94500000D01*
X169750000Y-134000000D02*
X167250000Y-136500000D01*
X165750000Y-97000000D02*
X166250000Y-97500000D01*
X165250000Y-132500000D02*
X123250000Y-132500000D01*
X117750000Y-95000000D02*
X120750000Y-92000000D01*
X167500000Y-93500000D02*
X169750000Y-95750000D01*
X120250000Y-91000000D02*
X168750000Y-91000000D01*
X121250000Y-96750000D02*
X122500000Y-95500000D01*
X169500000Y-89500000D02*
X173750000Y-93750000D01*
X170250000Y-134250000D02*
X167500000Y-137000000D01*
X123500000Y-132000000D02*
X123250000Y-131750000D01*
X119750000Y-133500000D02*
X119750000Y-96000000D01*
X169250000Y-133750000D02*
X167000000Y-136000000D01*
X170250000Y-142500000D02*
X118250000Y-142500000D01*
X122250000Y-97250000D02*
X123000000Y-96500000D01*
X121250000Y-93000000D02*
X167750000Y-93000000D01*
X118000000Y-86500000D02*
X171000000Y-86500000D01*
X120250000Y-138500000D02*
X116750000Y-135000000D01*
X166250000Y-132250000D02*
X165500000Y-133000000D01*
X176250000Y-92500000D02*
X176250000Y-137250000D01*
X165500000Y-133000000D02*
X123000000Y-133000000D01*
X167500000Y-137000000D02*
X121000000Y-137000000D01*
X166000000Y-134000000D02*
X122500000Y-134000000D01*
X114250000Y-136250000D02*
X114250000Y-93250000D01*
X176250000Y-137250000D02*
X170500000Y-143000000D01*
X170750000Y-87000000D02*
X176250000Y-92500000D01*
X123000000Y-96500000D02*
X166000000Y-96500000D01*
X166250000Y-134500000D02*
X122250000Y-134500000D01*
X117750000Y-86000000D02*
X173550000Y-86000000D01*
X115750000Y-135500000D02*
X115750000Y-94000000D01*
X118750000Y-141500000D02*
X113750000Y-136500000D01*
X172250000Y-94500000D02*
X172250000Y-135250000D01*
X118250000Y-95250000D02*
X121000000Y-92500000D01*
X165750000Y-133500000D02*
X122750000Y-133500000D01*
X120000000Y-90500000D02*
X169000000Y-90500000D01*
X170250000Y-95500000D02*
X170250000Y-134250000D01*
X166000000Y-96500000D02*
X166750000Y-97250000D01*
X120250000Y-96250000D02*
X122000000Y-94500000D01*
X114750000Y-136000000D02*
X114750000Y-93500000D01*
X166250000Y-96000000D02*
X167250000Y-97000000D01*
X115250000Y-135750000D02*
X115250000Y-93750000D01*
X167250000Y-132750000D02*
X166000000Y-134000000D01*
X165750000Y-132000000D02*
X165250000Y-132500000D01*
X120500000Y-91500000D02*
X168500000Y-91500000D01*
X112250000Y-137250000D02*
X112250000Y-92250000D01*
X170000000Y-142000000D02*
X118500000Y-142000000D01*
X167250000Y-97000000D02*
X167250000Y-132750000D01*
X168250000Y-133250000D02*
X166500000Y-135000000D01*
X121750000Y-97000000D02*
X122750000Y-96000000D01*
X167250000Y-94000000D02*
X169250000Y-96000000D01*
X169000000Y-140000000D02*
X119500000Y-140000000D01*
X113750000Y-136500000D02*
X113750000Y-93000000D01*
X118250000Y-134250000D02*
X118250000Y-95250000D01*
X116750000Y-94500000D02*
X120250000Y-91000000D01*
X173250000Y-94000000D02*
X173250000Y-135750000D01*
X119250000Y-89000000D02*
X169750000Y-89000000D01*
X119750000Y-139500000D02*
X115750000Y-135500000D01*
X120000000Y-139000000D02*
X116250000Y-135250000D01*
X111750000Y-92000000D02*
X117750000Y-86000000D01*
X120500000Y-138000000D02*
X117250000Y-134750000D01*
X166750000Y-95000000D02*
X168250000Y-96500000D01*
X122000000Y-135000000D02*
X120250000Y-133250000D01*
X165290000Y-127680000D02*
X165290000Y-131710000D01*
X168000000Y-138000000D02*
X120500000Y-138000000D01*
X176750000Y-92250000D02*
X176750000Y-137500000D01*
X122500000Y-134000000D02*
X121250000Y-132750000D01*
X168750000Y-133500000D02*
X166750000Y-135500000D01*
X170750000Y-95250000D02*
X170750000Y-134500000D01*
X172250000Y-135250000D02*
X168500000Y-139000000D01*
X165290000Y-131710000D02*
X165000000Y-132000000D01*
X119750000Y-96000000D02*
X121750000Y-94000000D01*
X171250000Y-95000000D02*
X171250000Y-134750000D01*
X116750000Y-135000000D02*
X116750000Y-94500000D01*
X119000000Y-88500000D02*
X170000000Y-88500000D01*
X118750000Y-88000000D02*
X170250000Y-88000000D01*
X169750000Y-95750000D02*
X169750000Y-134000000D01*
X168750000Y-139500000D02*
X119750000Y-139500000D01*
X167750000Y-133000000D02*
X166250000Y-134500000D01*
X122750000Y-133500000D02*
X121750000Y-132500000D01*
X122500000Y-95500000D02*
X166500000Y-95500000D01*
X113250000Y-92750000D02*
X118500000Y-87500000D01*
X173550000Y-86000000D02*
X174900000Y-87350000D01*
X174250000Y-93500000D02*
X174250000Y-136250000D01*
X169250000Y-90000000D02*
X173250000Y-94000000D01*
X122250000Y-95000000D02*
X166750000Y-95000000D01*
X175250000Y-136750000D02*
X170000000Y-142000000D01*
X165750000Y-97750000D02*
X165750000Y-132000000D01*
X168500000Y-139000000D02*
X120000000Y-139000000D01*
X167250000Y-136500000D02*
X121250000Y-136500000D01*
X123500000Y-97500000D02*
X165500000Y-97500000D01*
X168750000Y-96250000D02*
X168750000Y-133500000D01*
X168250000Y-138500000D02*
X120250000Y-138500000D01*
X123250000Y-131750000D02*
X123250000Y-97750000D01*
X120750000Y-92000000D02*
X168250000Y-92000000D01*
X171750000Y-135000000D02*
X168250000Y-138500000D01*
X175750000Y-92750000D02*
X175750000Y-137000000D01*
X118500000Y-142000000D02*
X113250000Y-136750000D01*
X118500000Y-87500000D02*
X170500000Y-87500000D01*
X114250000Y-93250000D02*
X119000000Y-88500000D01*
X119250000Y-95750000D02*
X121500000Y-93500000D01*
X169250000Y-96000000D02*
X169250000Y-133750000D01*
X175750000Y-137000000D02*
X170250000Y-142500000D01*
X112750000Y-92500000D02*
X118250000Y-87000000D01*
X121500000Y-136000000D02*
X119250000Y-133750000D01*
X115750000Y-94000000D02*
X119750000Y-90000000D01*
%TD*%
%TA.AperFunction,Conductor*%
%TO.N,+3V3*%
G36*
X164990854Y-105809244D02*
G01*
X165058918Y-105829438D01*
X165105260Y-105883224D01*
X165116500Y-105935244D01*
X165116500Y-123874000D01*
X165096498Y-123942121D01*
X165042842Y-123988614D01*
X164990500Y-124000000D01*
X137980424Y-124000000D01*
X137912303Y-123979998D01*
X137865810Y-123926342D01*
X137855706Y-123856068D01*
X137885200Y-123791488D01*
X137891329Y-123784905D01*
X137892881Y-123783353D01*
X138033353Y-123642881D01*
X138143721Y-123477704D01*
X138219744Y-123294169D01*
X138258500Y-123099329D01*
X138258500Y-120900671D01*
X138258500Y-119910518D01*
X153791500Y-119910518D01*
X153791500Y-119910521D01*
X153791500Y-120089479D01*
X153826413Y-120265000D01*
X153894898Y-120430336D01*
X153994322Y-120579135D01*
X154120865Y-120705678D01*
X154269664Y-120805102D01*
X154435000Y-120873587D01*
X154610521Y-120908500D01*
X154610522Y-120908500D01*
X154789478Y-120908500D01*
X154789479Y-120908500D01*
X154965000Y-120873587D01*
X155130336Y-120805102D01*
X155279135Y-120705678D01*
X155405678Y-120579135D01*
X155505102Y-120430336D01*
X155573587Y-120265000D01*
X155608500Y-120089479D01*
X155608500Y-119910521D01*
X155573587Y-119735000D01*
X155505102Y-119569664D01*
X155405678Y-119420865D01*
X155279135Y-119294322D01*
X155130336Y-119194898D01*
X155013429Y-119146473D01*
X154965003Y-119126414D01*
X154965001Y-119126413D01*
X154965000Y-119126413D01*
X154876645Y-119108838D01*
X154789481Y-119091500D01*
X154789479Y-119091500D01*
X154610521Y-119091500D01*
X154610518Y-119091500D01*
X154479771Y-119117507D01*
X154435000Y-119126413D01*
X154434999Y-119126413D01*
X154434996Y-119126414D01*
X154269662Y-119194899D01*
X154120869Y-119294319D01*
X154120862Y-119294324D01*
X153994324Y-119420862D01*
X153994319Y-119420869D01*
X153894899Y-119569662D01*
X153826414Y-119734996D01*
X153791500Y-119910518D01*
X138258500Y-119910518D01*
X138258500Y-115437760D01*
X141391500Y-115437760D01*
X141391500Y-116062242D01*
X141418795Y-116234575D01*
X141418796Y-116234578D01*
X141469527Y-116390716D01*
X141472712Y-116400517D01*
X141551926Y-116555982D01*
X141551928Y-116555985D01*
X141570128Y-116581035D01*
X141654483Y-116697140D01*
X141654484Y-116697141D01*
X141654485Y-116697142D01*
X141654487Y-116697145D01*
X141777855Y-116820513D01*
X141777858Y-116820515D01*
X141777861Y-116820518D01*
X141919019Y-116923075D01*
X142074484Y-117002289D01*
X142240426Y-117056206D01*
X142412759Y-117083501D01*
X142412762Y-117083501D01*
X142587238Y-117083501D01*
X142587241Y-117083501D01*
X142759574Y-117056206D01*
X142925516Y-117002289D01*
X143080981Y-116923075D01*
X143222139Y-116820518D01*
X143345517Y-116697140D01*
X143398375Y-116624386D01*
X143454594Y-116581035D01*
X143525330Y-116574958D01*
X143588122Y-116608089D01*
X143602245Y-116624388D01*
X143654867Y-116696816D01*
X143778182Y-116820131D01*
X143778185Y-116820133D01*
X143919279Y-116922644D01*
X144074675Y-117001823D01*
X144074681Y-117001826D01*
X144240535Y-117055715D01*
X144246001Y-117056581D01*
X144246001Y-116094101D01*
X144335957Y-116146038D01*
X144444049Y-116175001D01*
X144555953Y-116175001D01*
X144664045Y-116146038D01*
X144754001Y-116094101D01*
X144754001Y-117056581D01*
X144759466Y-117055715D01*
X144925320Y-117001826D01*
X144925326Y-117001823D01*
X145080722Y-116922644D01*
X145221816Y-116820133D01*
X145221819Y-116820131D01*
X145345131Y-116696819D01*
X145397754Y-116624390D01*
X145453977Y-116581035D01*
X145524713Y-116574959D01*
X145587505Y-116608091D01*
X145601625Y-116624387D01*
X145654484Y-116697141D01*
X145654485Y-116697142D01*
X145654486Y-116697143D01*
X145654488Y-116697146D01*
X145777856Y-116820514D01*
X145777859Y-116820516D01*
X145777862Y-116820519D01*
X145919020Y-116923076D01*
X146074485Y-117002290D01*
X146240427Y-117056207D01*
X146412760Y-117083502D01*
X146412763Y-117083502D01*
X146587239Y-117083502D01*
X146587242Y-117083502D01*
X146759575Y-117056207D01*
X146925517Y-117002290D01*
X147080982Y-116923076D01*
X147222140Y-116820519D01*
X147345518Y-116697141D01*
X147448075Y-116555983D01*
X147527289Y-116400518D01*
X147581206Y-116234576D01*
X147608501Y-116062243D01*
X147608501Y-115437761D01*
X147598607Y-115375290D01*
X150741500Y-115375290D01*
X150741500Y-115524709D01*
X150770649Y-115671246D01*
X150770650Y-115671249D01*
X150807986Y-115761387D01*
X150827826Y-115809284D01*
X150910835Y-115933516D01*
X150910837Y-115933518D01*
X150988224Y-116010905D01*
X151022250Y-116073217D01*
X151017185Y-116144032D01*
X150988224Y-116189095D01*
X150910837Y-116266481D01*
X150910832Y-116266488D01*
X150827826Y-116390715D01*
X150770650Y-116528750D01*
X150770649Y-116528753D01*
X150741500Y-116675290D01*
X150741500Y-116824709D01*
X150770649Y-116971246D01*
X150770650Y-116971249D01*
X150783507Y-117002288D01*
X150827826Y-117109284D01*
X150910835Y-117233516D01*
X151016484Y-117339165D01*
X151140716Y-117422174D01*
X151278754Y-117479351D01*
X151290080Y-117481604D01*
X151352988Y-117514507D01*
X151388122Y-117576201D01*
X151391500Y-117605182D01*
X151391500Y-117610521D01*
X151391500Y-117789479D01*
X151426413Y-117965000D01*
X151494898Y-118130336D01*
X151594322Y-118279135D01*
X151720865Y-118405678D01*
X151869664Y-118505102D01*
X152035000Y-118573587D01*
X152210521Y-118608500D01*
X152210522Y-118608500D01*
X152389478Y-118608500D01*
X152389479Y-118608500D01*
X152565000Y-118573587D01*
X152730336Y-118505102D01*
X152879135Y-118405678D01*
X153005678Y-118279135D01*
X153105102Y-118130336D01*
X153173587Y-117965000D01*
X153208500Y-117789479D01*
X153208500Y-117610521D01*
X153173587Y-117435000D01*
X153173584Y-117434993D01*
X153173583Y-117434989D01*
X153151355Y-117381327D01*
X153143765Y-117310737D01*
X153175544Y-117247250D01*
X153178671Y-117244010D01*
X153180038Y-117242642D01*
X153189165Y-117233516D01*
X153272174Y-117109284D01*
X153329351Y-116971246D01*
X153358500Y-116824706D01*
X153358500Y-116675294D01*
X153329351Y-116528754D01*
X153272174Y-116390716D01*
X153189165Y-116266484D01*
X153111776Y-116189095D01*
X153077750Y-116126783D01*
X153082815Y-116055968D01*
X153111776Y-116010905D01*
X153150000Y-115972681D01*
X153189165Y-115933516D01*
X153272174Y-115809284D01*
X153329351Y-115671246D01*
X153358500Y-115524706D01*
X153358500Y-115375294D01*
X153329351Y-115228754D01*
X153272174Y-115090716D01*
X153189165Y-114966484D01*
X153083516Y-114860835D01*
X152959284Y-114777826D01*
X152821249Y-114720650D01*
X152821246Y-114720649D01*
X152674709Y-114691500D01*
X152674706Y-114691500D01*
X152525294Y-114691500D01*
X152525290Y-114691500D01*
X152378753Y-114720649D01*
X152378750Y-114720650D01*
X152240715Y-114777826D01*
X152240711Y-114777828D01*
X152120001Y-114858484D01*
X152052249Y-114879699D01*
X151983782Y-114860916D01*
X151979999Y-114858484D01*
X151859288Y-114777828D01*
X151859284Y-114777826D01*
X151721249Y-114720650D01*
X151721246Y-114720649D01*
X151574709Y-114691500D01*
X151574706Y-114691500D01*
X151425294Y-114691500D01*
X151425290Y-114691500D01*
X151278753Y-114720649D01*
X151278750Y-114720650D01*
X151140715Y-114777826D01*
X151016488Y-114860832D01*
X151016481Y-114860837D01*
X150910837Y-114966481D01*
X150910832Y-114966488D01*
X150827826Y-115090715D01*
X150770650Y-115228750D01*
X150770649Y-115228753D01*
X150741500Y-115375290D01*
X147598607Y-115375290D01*
X147581206Y-115265428D01*
X147527289Y-115099486D01*
X147448075Y-114944021D01*
X147448071Y-114944016D01*
X147448070Y-114944013D01*
X147445487Y-114939797D01*
X147447024Y-114938854D01*
X147425780Y-114879293D01*
X147441867Y-114810143D01*
X147445329Y-114804992D01*
X147445178Y-114804899D01*
X147449031Y-114798653D01*
X147542116Y-114647739D01*
X147597888Y-114479427D01*
X147608501Y-114375546D01*
X147608500Y-113660518D01*
X155341500Y-113660518D01*
X155341500Y-113839481D01*
X155376414Y-114015003D01*
X155393263Y-114055680D01*
X155444898Y-114180336D01*
X155544322Y-114329135D01*
X155670865Y-114455678D01*
X155819664Y-114555102D01*
X155985000Y-114623587D01*
X156160521Y-114658500D01*
X156160522Y-114658500D01*
X156255890Y-114658500D01*
X156324011Y-114678502D01*
X156370504Y-114732158D01*
X156380608Y-114802432D01*
X156362970Y-114848464D01*
X156363700Y-114848854D01*
X156360784Y-114854307D01*
X156292299Y-115019643D01*
X156257385Y-115195165D01*
X156257385Y-115374128D01*
X156270042Y-115437760D01*
X156291019Y-115543218D01*
X156292299Y-115549650D01*
X156303385Y-115576413D01*
X156360783Y-115714983D01*
X156460207Y-115863782D01*
X156586750Y-115990325D01*
X156735549Y-116089749D01*
X156900885Y-116158234D01*
X157076406Y-116193147D01*
X157076407Y-116193147D01*
X157255363Y-116193147D01*
X157255364Y-116193147D01*
X157430885Y-116158234D01*
X157596221Y-116089749D01*
X157745020Y-115990325D01*
X157871563Y-115863782D01*
X157970987Y-115714983D01*
X158039472Y-115549647D01*
X158074385Y-115374126D01*
X158074385Y-115195168D01*
X158039472Y-115019647D01*
X157970987Y-114854311D01*
X157871563Y-114705512D01*
X157745020Y-114578969D01*
X157745017Y-114578967D01*
X157745011Y-114578962D01*
X157640499Y-114509130D01*
X157640447Y-114509096D01*
X157596222Y-114479546D01*
X157596223Y-114479546D01*
X157596221Y-114479545D01*
X157451495Y-114419597D01*
X157430888Y-114411061D01*
X157430886Y-114411060D01*
X157430885Y-114411060D01*
X157428160Y-114410518D01*
X159841500Y-114410518D01*
X159841500Y-114589481D01*
X159855229Y-114658499D01*
X159873602Y-114750869D01*
X159876414Y-114765003D01*
X159890353Y-114798653D01*
X159944898Y-114930336D01*
X160044322Y-115079135D01*
X160170865Y-115205678D01*
X160319664Y-115305102D01*
X160485000Y-115373587D01*
X160660521Y-115408500D01*
X160660522Y-115408500D01*
X160839479Y-115408500D01*
X160850413Y-115406325D01*
X160921127Y-115412652D01*
X160977195Y-115456206D01*
X160998575Y-115505322D01*
X161016413Y-115595000D01*
X161084898Y-115760336D01*
X161184322Y-115909135D01*
X161310865Y-116035678D01*
X161459664Y-116135102D01*
X161625000Y-116203587D01*
X161800521Y-116238500D01*
X161800522Y-116238500D01*
X161979478Y-116238500D01*
X161979479Y-116238500D01*
X162155000Y-116203587D01*
X162320336Y-116135102D01*
X162469135Y-116035678D01*
X162595678Y-115909135D01*
X162695102Y-115760336D01*
X162763587Y-115595000D01*
X162798500Y-115419479D01*
X162798500Y-115240521D01*
X162763587Y-115065000D01*
X162695102Y-114899664D01*
X162595678Y-114750865D01*
X162469135Y-114624322D01*
X162320336Y-114524898D01*
X162210848Y-114479546D01*
X162154999Y-114456412D01*
X162135356Y-114452505D01*
X162072447Y-114419597D01*
X162037317Y-114357901D01*
X162041118Y-114287006D01*
X162082645Y-114229421D01*
X162111720Y-114212519D01*
X162250336Y-114155102D01*
X162399135Y-114055678D01*
X162525678Y-113929135D01*
X162625102Y-113780336D01*
X162693587Y-113615000D01*
X162728500Y-113439479D01*
X162728500Y-113260521D01*
X162693587Y-113085000D01*
X162625102Y-112919664D01*
X162525678Y-112770865D01*
X162399135Y-112644322D01*
X162250336Y-112544898D01*
X162100627Y-112482886D01*
X162085003Y-112476414D01*
X162085001Y-112476413D01*
X162085000Y-112476413D01*
X161996645Y-112458838D01*
X161909481Y-112441500D01*
X161909479Y-112441500D01*
X161730521Y-112441500D01*
X161730520Y-112441500D01*
X161730510Y-112441501D01*
X161707841Y-112446010D01*
X161637127Y-112439681D01*
X161581061Y-112396126D01*
X161578522Y-112392470D01*
X161530678Y-112320865D01*
X161404135Y-112194322D01*
X161255336Y-112094898D01*
X161138429Y-112046473D01*
X161090003Y-112026414D01*
X161090001Y-112026413D01*
X161090000Y-112026413D01*
X160993615Y-112007241D01*
X160914481Y-111991500D01*
X160914479Y-111991500D01*
X160735521Y-111991500D01*
X160735518Y-111991500D01*
X160617362Y-112015003D01*
X160560000Y-112026413D01*
X160559999Y-112026413D01*
X160559996Y-112026414D01*
X160394662Y-112094899D01*
X160245869Y-112194319D01*
X160245862Y-112194324D01*
X160119324Y-112320862D01*
X160119319Y-112320869D01*
X160029242Y-112455680D01*
X160019898Y-112469664D01*
X160017102Y-112476414D01*
X159951414Y-112634996D01*
X159951413Y-112634999D01*
X159951413Y-112635000D01*
X159946739Y-112658499D01*
X159916500Y-112810518D01*
X159916500Y-112810521D01*
X159916500Y-112989479D01*
X159951413Y-113165000D01*
X160019898Y-113330336D01*
X160119322Y-113479135D01*
X160119324Y-113479137D01*
X160220345Y-113580158D01*
X160254371Y-113642470D01*
X160249306Y-113713285D01*
X160206759Y-113770121D01*
X160201252Y-113774018D01*
X160170869Y-113794319D01*
X160170862Y-113794324D01*
X160044324Y-113920862D01*
X160044319Y-113920869D01*
X159954242Y-114055680D01*
X159944898Y-114069664D01*
X159939567Y-114082535D01*
X159876414Y-114234996D01*
X159876413Y-114234999D01*
X159876413Y-114235000D01*
X159871739Y-114258500D01*
X159841500Y-114410518D01*
X157428160Y-114410518D01*
X157342530Y-114393485D01*
X157255366Y-114376147D01*
X157255364Y-114376147D01*
X157159995Y-114376147D01*
X157091874Y-114356145D01*
X157045381Y-114302489D01*
X157035277Y-114232215D01*
X157052914Y-114186182D01*
X157052185Y-114185793D01*
X157055100Y-114180339D01*
X157055101Y-114180337D01*
X157055102Y-114180336D01*
X157123587Y-114015000D01*
X157158500Y-113839479D01*
X157158500Y-113660521D01*
X157123587Y-113485000D01*
X157055102Y-113319664D01*
X156955678Y-113170865D01*
X156829135Y-113044322D01*
X156680336Y-112944898D01*
X156546884Y-112889620D01*
X156515003Y-112876414D01*
X156515001Y-112876413D01*
X156515000Y-112876413D01*
X156389150Y-112851380D01*
X156339481Y-112841500D01*
X156339479Y-112841500D01*
X156160521Y-112841500D01*
X156160518Y-112841500D01*
X156029771Y-112867507D01*
X155985000Y-112876413D01*
X155984999Y-112876413D01*
X155984996Y-112876414D01*
X155868778Y-112924554D01*
X155821794Y-112944016D01*
X155819662Y-112944899D01*
X155670869Y-113044319D01*
X155670862Y-113044324D01*
X155544324Y-113170862D01*
X155544319Y-113170869D01*
X155459087Y-113298429D01*
X155444898Y-113319664D01*
X155440477Y-113330337D01*
X155376414Y-113484996D01*
X155341500Y-113660518D01*
X147608500Y-113660518D01*
X147608500Y-113124457D01*
X147607990Y-113119469D01*
X147597888Y-113020575D01*
X147578005Y-112960573D01*
X147575566Y-112889620D01*
X147611874Y-112828610D01*
X147675403Y-112796915D01*
X147745983Y-112804597D01*
X147798348Y-112846910D01*
X147798739Y-112846590D01*
X147800287Y-112848476D01*
X147801205Y-112849218D01*
X147802377Y-112850942D01*
X147802665Y-112851374D01*
X147802669Y-112851378D01*
X147802670Y-112851380D01*
X147929213Y-112977923D01*
X148078012Y-113077347D01*
X148243348Y-113145832D01*
X148418869Y-113180745D01*
X148418870Y-113180745D01*
X148597826Y-113180745D01*
X148597827Y-113180745D01*
X148773348Y-113145832D01*
X148938684Y-113077347D01*
X149087483Y-112977923D01*
X149214026Y-112851380D01*
X149313450Y-112702581D01*
X149381935Y-112537245D01*
X149416848Y-112361724D01*
X149416848Y-112182766D01*
X149381935Y-112007245D01*
X149313450Y-111841909D01*
X149214026Y-111693110D01*
X149181434Y-111660518D01*
X152341500Y-111660518D01*
X152341500Y-111660521D01*
X152341500Y-111839479D01*
X152376413Y-112015000D01*
X152444898Y-112180336D01*
X152544322Y-112329135D01*
X152670865Y-112455678D01*
X152819664Y-112555102D01*
X152985000Y-112623587D01*
X153160521Y-112658500D01*
X153160522Y-112658500D01*
X153339478Y-112658500D01*
X153339479Y-112658500D01*
X153515000Y-112623587D01*
X153680336Y-112555102D01*
X153829135Y-112455678D01*
X153955678Y-112329135D01*
X154055102Y-112180336D01*
X154123587Y-112015000D01*
X154158500Y-111839479D01*
X154158500Y-111660521D01*
X154123587Y-111485000D01*
X154055102Y-111319664D01*
X153955678Y-111170865D01*
X153829135Y-111044322D01*
X153680336Y-110944898D01*
X153563429Y-110896473D01*
X153515003Y-110876414D01*
X153515001Y-110876413D01*
X153515000Y-110876413D01*
X153426645Y-110858838D01*
X153339481Y-110841500D01*
X153339479Y-110841500D01*
X153160521Y-110841500D01*
X153160518Y-110841500D01*
X153029771Y-110867507D01*
X152985000Y-110876413D01*
X152984999Y-110876413D01*
X152984996Y-110876414D01*
X152819662Y-110944899D01*
X152670869Y-111044319D01*
X152670862Y-111044324D01*
X152544324Y-111170862D01*
X152544319Y-111170869D01*
X152444899Y-111319662D01*
X152376414Y-111484996D01*
X152341500Y-111660518D01*
X149181434Y-111660518D01*
X149087483Y-111566567D01*
X148938684Y-111467143D01*
X148801988Y-111410521D01*
X148773351Y-111398659D01*
X148773349Y-111398658D01*
X148773348Y-111398658D01*
X148684993Y-111381083D01*
X148597829Y-111363745D01*
X148597827Y-111363745D01*
X148418869Y-111363745D01*
X148418866Y-111363745D01*
X148288119Y-111389752D01*
X148243348Y-111398658D01*
X148243347Y-111398658D01*
X148243344Y-111398659D01*
X148078010Y-111467144D01*
X147929217Y-111566564D01*
X147929210Y-111566569D01*
X147802672Y-111693107D01*
X147802667Y-111693114D01*
X147703247Y-111841907D01*
X147634762Y-112007241D01*
X147634761Y-112007244D01*
X147634761Y-112007245D01*
X147633218Y-112015003D01*
X147599848Y-112182763D01*
X147599848Y-112361726D01*
X147634762Y-112537250D01*
X147639721Y-112549221D01*
X147647310Y-112619811D01*
X147615530Y-112683298D01*
X147554472Y-112719525D01*
X147483521Y-112716991D01*
X147434217Y-112686534D01*
X147323659Y-112575976D01*
X147323653Y-112575971D01*
X147289816Y-112555100D01*
X147172739Y-112482886D01*
X147088583Y-112455000D01*
X147004428Y-112427114D01*
X147004421Y-112427113D01*
X146900554Y-112416501D01*
X146099456Y-112416501D01*
X145995575Y-112427113D01*
X145827262Y-112482886D01*
X145676348Y-112575971D01*
X145676342Y-112575976D01*
X145550976Y-112701342D01*
X145550972Y-112701347D01*
X145517519Y-112755582D01*
X145464732Y-112803059D01*
X145394657Y-112814461D01*
X145329542Y-112786167D01*
X145321184Y-112778528D01*
X145222144Y-112679488D01*
X145222141Y-112679486D01*
X145222139Y-112679484D01*
X145080981Y-112576927D01*
X144925516Y-112497713D01*
X144925513Y-112497712D01*
X144925511Y-112497711D01*
X144759577Y-112443797D01*
X144759574Y-112443796D01*
X144587241Y-112416501D01*
X144412759Y-112416501D01*
X144240426Y-112443796D01*
X144240423Y-112443796D01*
X144240422Y-112443797D01*
X144074488Y-112497711D01*
X144074482Y-112497714D01*
X143919015Y-112576929D01*
X143777858Y-112679486D01*
X143777855Y-112679488D01*
X143654488Y-112802855D01*
X143601936Y-112875187D01*
X143545713Y-112918540D01*
X143474977Y-112924615D01*
X143412185Y-112891483D01*
X143398064Y-112875186D01*
X143345518Y-112802862D01*
X143345515Y-112802859D01*
X143345513Y-112802856D01*
X143222145Y-112679488D01*
X143222142Y-112679486D01*
X143222140Y-112679484D01*
X143080982Y-112576927D01*
X142925517Y-112497713D01*
X142925514Y-112497712D01*
X142925512Y-112497711D01*
X142759578Y-112443797D01*
X142759575Y-112443796D01*
X142587242Y-112416501D01*
X142412760Y-112416501D01*
X142240427Y-112443796D01*
X142240424Y-112443796D01*
X142240423Y-112443797D01*
X142074489Y-112497711D01*
X142074483Y-112497714D01*
X141919016Y-112576929D01*
X141777859Y-112679486D01*
X141777856Y-112679488D01*
X141654488Y-112802856D01*
X141654486Y-112802859D01*
X141551929Y-112944016D01*
X141472714Y-113099483D01*
X141472711Y-113099489D01*
X141418797Y-113265423D01*
X141418796Y-113265427D01*
X141391501Y-113437760D01*
X141391501Y-114062242D01*
X141418796Y-114234575D01*
X141418797Y-114234578D01*
X141464599Y-114375546D01*
X141472713Y-114400517D01*
X141551927Y-114555982D01*
X141626410Y-114658500D01*
X141639080Y-114675938D01*
X141662939Y-114742806D01*
X141646858Y-114811957D01*
X141639081Y-114824059D01*
X141551927Y-114944017D01*
X141472713Y-115099483D01*
X141472710Y-115099489D01*
X141426888Y-115240518D01*
X141418795Y-115265427D01*
X141391500Y-115437760D01*
X138258500Y-115437760D01*
X138258500Y-111224795D01*
X138219744Y-111029955D01*
X138170273Y-110910521D01*
X138143722Y-110846421D01*
X138033354Y-110681243D01*
X137464116Y-110112005D01*
X142587987Y-110112005D01*
X142587987Y-110290968D01*
X142588655Y-110294324D01*
X142622900Y-110466487D01*
X142691385Y-110631823D01*
X142790809Y-110780622D01*
X142917352Y-110907165D01*
X143066151Y-111006589D01*
X143231487Y-111075074D01*
X143407008Y-111109987D01*
X143407009Y-111109987D01*
X143585965Y-111109987D01*
X143585966Y-111109987D01*
X143712121Y-111084893D01*
X143782832Y-111091221D01*
X143838899Y-111134775D01*
X143860279Y-111183890D01*
X143876413Y-111265000D01*
X143944898Y-111430336D01*
X144044322Y-111579135D01*
X144170865Y-111705678D01*
X144319664Y-111805102D01*
X144485000Y-111873587D01*
X144660521Y-111908500D01*
X144660522Y-111908500D01*
X144839478Y-111908500D01*
X144839479Y-111908500D01*
X145015000Y-111873587D01*
X145180336Y-111805102D01*
X145329135Y-111705678D01*
X145455678Y-111579135D01*
X145555102Y-111430336D01*
X145623587Y-111265000D01*
X145658500Y-111089479D01*
X145658500Y-110910521D01*
X145623587Y-110735000D01*
X145555102Y-110569664D01*
X145455678Y-110420865D01*
X145329135Y-110294322D01*
X145180336Y-110194898D01*
X145063429Y-110146473D01*
X145015003Y-110126414D01*
X145015001Y-110126413D01*
X145015000Y-110126413D01*
X144926645Y-110108838D01*
X144839481Y-110091500D01*
X144839479Y-110091500D01*
X144660521Y-110091500D01*
X144660515Y-110091500D01*
X144534367Y-110116593D01*
X144525312Y-110115782D01*
X144516744Y-110118822D01*
X144490500Y-110112667D01*
X144463653Y-110110265D01*
X144456473Y-110104687D01*
X144447623Y-110102612D01*
X144428873Y-110083246D01*
X144407586Y-110066710D01*
X144403258Y-110056791D01*
X144398238Y-110051606D01*
X144386421Y-110018201D01*
X144386249Y-110017806D01*
X144370074Y-109936487D01*
X144359317Y-109910518D01*
X156191500Y-109910518D01*
X156191500Y-110089481D01*
X156226414Y-110265003D01*
X156246473Y-110313429D01*
X156294898Y-110430336D01*
X156394322Y-110579135D01*
X156520865Y-110705678D01*
X156669664Y-110805102D01*
X156835000Y-110873587D01*
X157010521Y-110908500D01*
X157010522Y-110908500D01*
X157189478Y-110908500D01*
X157189479Y-110908500D01*
X157365000Y-110873587D01*
X157530336Y-110805102D01*
X157679135Y-110705678D01*
X157805678Y-110579135D01*
X157905102Y-110430336D01*
X157973587Y-110265000D01*
X158008500Y-110089479D01*
X158008500Y-109910521D01*
X157973587Y-109735000D01*
X157905102Y-109569664D01*
X157805678Y-109420865D01*
X157679135Y-109294322D01*
X157530336Y-109194898D01*
X157413429Y-109146473D01*
X157365003Y-109126414D01*
X157365001Y-109126413D01*
X157365000Y-109126413D01*
X157276645Y-109108838D01*
X157189481Y-109091500D01*
X157189479Y-109091500D01*
X157010521Y-109091500D01*
X157010518Y-109091500D01*
X156879771Y-109117507D01*
X156835000Y-109126413D01*
X156834999Y-109126413D01*
X156834996Y-109126414D01*
X156669662Y-109194899D01*
X156520869Y-109294319D01*
X156520862Y-109294324D01*
X156394324Y-109420862D01*
X156394319Y-109420869D01*
X156294899Y-109569662D01*
X156226414Y-109734996D01*
X156191500Y-109910518D01*
X144359317Y-109910518D01*
X144301589Y-109771151D01*
X144202165Y-109622352D01*
X144075622Y-109495809D01*
X143926823Y-109396385D01*
X143809916Y-109347960D01*
X143761490Y-109327901D01*
X143761488Y-109327900D01*
X143761487Y-109327900D01*
X143673132Y-109310325D01*
X143585968Y-109292987D01*
X143585966Y-109292987D01*
X143407008Y-109292987D01*
X143407005Y-109292987D01*
X143276258Y-109318994D01*
X143231487Y-109327900D01*
X143231486Y-109327900D01*
X143231483Y-109327901D01*
X143066149Y-109396386D01*
X142917356Y-109495806D01*
X142917349Y-109495811D01*
X142790811Y-109622349D01*
X142790806Y-109622356D01*
X142691386Y-109771149D01*
X142622901Y-109936483D01*
X142587987Y-110112005D01*
X137464116Y-110112005D01*
X137295405Y-109943294D01*
X137261379Y-109880982D01*
X137258500Y-109854199D01*
X137258500Y-109469925D01*
X137278502Y-109401804D01*
X137295405Y-109380830D01*
X137655377Y-109020856D01*
X138033354Y-108642881D01*
X138143722Y-108477703D01*
X138219744Y-108294168D01*
X138258500Y-108099328D01*
X138258500Y-107900671D01*
X138219744Y-107705831D01*
X138143722Y-107522296D01*
X138033354Y-107357119D01*
X137892881Y-107216646D01*
X137727704Y-107106278D01*
X137544169Y-107030256D01*
X137349331Y-106991500D01*
X137349329Y-106991500D01*
X137150672Y-106991500D01*
X137150669Y-106991500D01*
X136955831Y-107030256D01*
X136955826Y-107030258D01*
X136772296Y-107106278D01*
X136607123Y-107216643D01*
X136607116Y-107216648D01*
X135607119Y-108216647D01*
X135466649Y-108357116D01*
X135466644Y-108357123D01*
X135356279Y-108522296D01*
X135280258Y-108705825D01*
X135280256Y-108705830D01*
X135241500Y-108900668D01*
X135241500Y-110423455D01*
X135280256Y-110618293D01*
X135311987Y-110694898D01*
X135356279Y-110801828D01*
X135466647Y-110967005D01*
X135466649Y-110967007D01*
X136204595Y-111704953D01*
X136238621Y-111767265D01*
X136241500Y-111794048D01*
X136241500Y-120900671D01*
X136241500Y-123099329D01*
X136280256Y-123294169D01*
X136356279Y-123477704D01*
X136466647Y-123642881D01*
X136466649Y-123642883D01*
X136608671Y-123784905D01*
X136642697Y-123847217D01*
X136637632Y-123918032D01*
X136595085Y-123974868D01*
X136528565Y-123999679D01*
X136519576Y-124000000D01*
X124009500Y-124000000D01*
X123941379Y-123979998D01*
X123894886Y-123926342D01*
X123883500Y-123874000D01*
X123883500Y-118915813D01*
X123903502Y-118847692D01*
X123957158Y-118801199D01*
X124027432Y-118791095D01*
X124063823Y-118803028D01*
X124063946Y-118802733D01*
X124067841Y-118804346D01*
X124068904Y-118804695D01*
X124069659Y-118805099D01*
X124069664Y-118805102D01*
X124235000Y-118873587D01*
X124410521Y-118908500D01*
X124410522Y-118908500D01*
X124589478Y-118908500D01*
X124589479Y-118908500D01*
X124765000Y-118873587D01*
X124930336Y-118805102D01*
X125079135Y-118705678D01*
X125205678Y-118579135D01*
X125305102Y-118430336D01*
X125373587Y-118265000D01*
X125408500Y-118089479D01*
X125408500Y-117910521D01*
X125373587Y-117735000D01*
X125305102Y-117569664D01*
X125205678Y-117420865D01*
X125079135Y-117294322D01*
X124930336Y-117194898D01*
X124926953Y-117193497D01*
X124925454Y-117192288D01*
X124924875Y-117191979D01*
X124924933Y-117191869D01*
X124871675Y-117148949D01*
X124849254Y-117081585D01*
X124866813Y-117012794D01*
X124870393Y-117007112D01*
X124955102Y-116880336D01*
X125023587Y-116715000D01*
X125058500Y-116539479D01*
X125058500Y-116360521D01*
X125023587Y-116185000D01*
X124955102Y-116019664D01*
X124855678Y-115870865D01*
X124787607Y-115802794D01*
X124753581Y-115740482D01*
X124758646Y-115669667D01*
X124801193Y-115612831D01*
X124828478Y-115597293D01*
X124930336Y-115555102D01*
X125079135Y-115455678D01*
X125205678Y-115329135D01*
X125305102Y-115180336D01*
X125373587Y-115015000D01*
X125408500Y-114839479D01*
X125408500Y-114660521D01*
X125373587Y-114485000D01*
X125305102Y-114319664D01*
X125205678Y-114170865D01*
X125079135Y-114044322D01*
X124930336Y-113944898D01*
X124813429Y-113896473D01*
X124765003Y-113876414D01*
X124765001Y-113876413D01*
X124765000Y-113876413D01*
X124676645Y-113858838D01*
X124589481Y-113841500D01*
X124589479Y-113841500D01*
X124410521Y-113841500D01*
X124410518Y-113841500D01*
X124279771Y-113867507D01*
X124235000Y-113876413D01*
X124234999Y-113876413D01*
X124234996Y-113876414D01*
X124069654Y-113944902D01*
X124068890Y-113945311D01*
X124068443Y-113945403D01*
X124063946Y-113947267D01*
X124063592Y-113946413D01*
X123999384Y-113959779D01*
X123933089Y-113934372D01*
X123891054Y-113877157D01*
X123883500Y-113834186D01*
X123883500Y-113119466D01*
X134106753Y-113119466D01*
X134106753Y-113119469D01*
X134106753Y-113298427D01*
X134134809Y-113439477D01*
X134141667Y-113473951D01*
X134143815Y-113479137D01*
X134210151Y-113639284D01*
X134309575Y-113788083D01*
X134436118Y-113914626D01*
X134584917Y-114014050D01*
X134750253Y-114082535D01*
X134925774Y-114117448D01*
X134925775Y-114117448D01*
X135104731Y-114117448D01*
X135104732Y-114117448D01*
X135280253Y-114082535D01*
X135445589Y-114014050D01*
X135594388Y-113914626D01*
X135720931Y-113788083D01*
X135820355Y-113639284D01*
X135888840Y-113473948D01*
X135923753Y-113298427D01*
X135923753Y-113119469D01*
X135888840Y-112943948D01*
X135820355Y-112778612D01*
X135720931Y-112629813D01*
X135594388Y-112503270D01*
X135445589Y-112403846D01*
X135328682Y-112355421D01*
X135280256Y-112335362D01*
X135280254Y-112335361D01*
X135280253Y-112335361D01*
X135191898Y-112317786D01*
X135104734Y-112300448D01*
X135104732Y-112300448D01*
X134925774Y-112300448D01*
X134925771Y-112300448D01*
X134795024Y-112326455D01*
X134750253Y-112335361D01*
X134750252Y-112335361D01*
X134750249Y-112335362D01*
X134584915Y-112403847D01*
X134436122Y-112503267D01*
X134436115Y-112503272D01*
X134309577Y-112629810D01*
X134309572Y-112629817D01*
X134215325Y-112770869D01*
X134210151Y-112778612D01*
X134200106Y-112802862D01*
X134141667Y-112943944D01*
X134141666Y-112943947D01*
X134141666Y-112943948D01*
X134141652Y-112944020D01*
X134106753Y-113119466D01*
X123883500Y-113119466D01*
X123883500Y-112415813D01*
X123903502Y-112347692D01*
X123957158Y-112301199D01*
X124027432Y-112291095D01*
X124063823Y-112303028D01*
X124063946Y-112302733D01*
X124067841Y-112304346D01*
X124068904Y-112304695D01*
X124069659Y-112305099D01*
X124069664Y-112305102D01*
X124235000Y-112373587D01*
X124410521Y-112408500D01*
X124410522Y-112408500D01*
X124589478Y-112408500D01*
X124589479Y-112408500D01*
X124765000Y-112373587D01*
X124930336Y-112305102D01*
X125079135Y-112205678D01*
X125205678Y-112079135D01*
X125305102Y-111930336D01*
X125373587Y-111765000D01*
X125408500Y-111589479D01*
X125408500Y-111410521D01*
X125373587Y-111235000D01*
X125305102Y-111069664D01*
X125205678Y-110920865D01*
X125079135Y-110794322D01*
X124930336Y-110694898D01*
X124813429Y-110646473D01*
X124765003Y-110626414D01*
X124765001Y-110626413D01*
X124765000Y-110626413D01*
X124676645Y-110608838D01*
X124589481Y-110591500D01*
X124589479Y-110591500D01*
X124410521Y-110591500D01*
X124410518Y-110591500D01*
X124279771Y-110617507D01*
X124235000Y-110626413D01*
X124234999Y-110626413D01*
X124234996Y-110626414D01*
X124069654Y-110694902D01*
X124068890Y-110695311D01*
X124068443Y-110695403D01*
X124063946Y-110697267D01*
X124063592Y-110696413D01*
X123999384Y-110709779D01*
X123933089Y-110684372D01*
X123891054Y-110627157D01*
X123883500Y-110584186D01*
X123883500Y-105820128D01*
X123903502Y-105752007D01*
X123957158Y-105705514D01*
X124009848Y-105694129D01*
X164990854Y-105809244D01*
G37*
%TD.AperFunction*%
%TD*%
M02*
