%TF.GenerationSoftware,KiCad,Pcbnew,9.0.3*%
%TF.CreationDate,2025-07-30T14:55:58-07:00*%
%TF.ProjectId,xy_faces_v2a,78795f66-6163-4657-935f-7632612e6b69,3.0*%
%TF.SameCoordinates,Original*%
%TF.FileFunction,Copper,L1,Top*%
%TF.FilePolarity,Positive*%
%FSLAX46Y46*%
G04 Gerber Fmt 4.6, Leading zero omitted, Abs format (unit mm)*
G04 Created by KiCad (PCBNEW 9.0.3) date 2025-07-30 14:55:58*
%MOMM*%
%LPD*%
G01*
G04 APERTURE LIST*
G04 Aperture macros list*
%AMRoundRect*
0 Rectangle with rounded corners*
0 $1 Rounding radius*
0 $2 $3 $4 $5 $6 $7 $8 $9 X,Y pos of 4 corners*
0 Add a 4 corners polygon primitive as box body*
4,1,4,$2,$3,$4,$5,$6,$7,$8,$9,$2,$3,0*
0 Add four circle primitives for the rounded corners*
1,1,$1+$1,$2,$3*
1,1,$1+$1,$4,$5*
1,1,$1+$1,$6,$7*
1,1,$1+$1,$8,$9*
0 Add four rect primitives between the rounded corners*
20,1,$1+$1,$2,$3,$4,$5,0*
20,1,$1+$1,$4,$5,$6,$7,0*
20,1,$1+$1,$6,$7,$8,$9,0*
20,1,$1+$1,$8,$9,$2,$3,0*%
G04 Aperture macros list end*
%TA.AperFunction,SMDPad,CuDef*%
%ADD10RoundRect,0.225000X-0.225000X-0.250000X0.225000X-0.250000X0.225000X0.250000X-0.225000X0.250000X0*%
%TD*%
%TA.AperFunction,SMDPad,CuDef*%
%ADD11RoundRect,0.225000X0.225000X0.250000X-0.225000X0.250000X-0.225000X-0.250000X0.225000X-0.250000X0*%
%TD*%
%TA.AperFunction,ComponentPad*%
%ADD12C,5.700000*%
%TD*%
%TA.AperFunction,SMDPad,CuDef*%
%ADD13RoundRect,0.100000X0.687500X0.100000X-0.687500X0.100000X-0.687500X-0.100000X0.687500X-0.100000X0*%
%TD*%
%TA.AperFunction,HeatsinkPad*%
%ADD14C,0.500000*%
%TD*%
%TA.AperFunction,HeatsinkPad*%
%ADD15R,1.500000X1.800000*%
%TD*%
%TA.AperFunction,SMDPad,CuDef*%
%ADD16R,13.000000X3.000000*%
%TD*%
%TA.AperFunction,SMDPad,CuDef*%
%ADD17RoundRect,0.750000X0.750000X-0.750000X0.750000X0.750000X-0.750000X0.750000X-0.750000X-0.750000X0*%
%TD*%
%TA.AperFunction,SMDPad,CuDef*%
%ADD18R,2.500000X1.700000*%
%TD*%
%TA.AperFunction,SMDPad,CuDef*%
%ADD19O,1.690000X0.360000*%
%TD*%
%TA.AperFunction,SMDPad,CuDef*%
%ADD20RoundRect,0.200000X0.275000X-0.200000X0.275000X0.200000X-0.275000X0.200000X-0.275000X-0.200000X0*%
%TD*%
%TA.AperFunction,SMDPad,CuDef*%
%ADD21RoundRect,0.250000X0.250000X0.475000X-0.250000X0.475000X-0.250000X-0.475000X0.250000X-0.475000X0*%
%TD*%
%TA.AperFunction,SMDPad,CuDef*%
%ADD22RoundRect,0.200000X-0.275000X0.200000X-0.275000X-0.200000X0.275000X-0.200000X0.275000X0.200000X0*%
%TD*%
%TA.AperFunction,SMDPad,CuDef*%
%ADD23R,0.700000X1.600000*%
%TD*%
%TA.AperFunction,SMDPad,CuDef*%
%ADD24RoundRect,0.200000X-0.200000X-0.275000X0.200000X-0.275000X0.200000X0.275000X-0.200000X0.275000X0*%
%TD*%
%TA.AperFunction,SMDPad,CuDef*%
%ADD25RoundRect,0.200000X0.200000X0.275000X-0.200000X0.275000X-0.200000X-0.275000X0.200000X-0.275000X0*%
%TD*%
%TA.AperFunction,SMDPad,CuDef*%
%ADD26RoundRect,0.218750X0.256250X-0.218750X0.256250X0.218750X-0.256250X0.218750X-0.256250X-0.218750X0*%
%TD*%
%TA.AperFunction,SMDPad,CuDef*%
%ADD27RoundRect,0.075000X-0.650000X-0.075000X0.650000X-0.075000X0.650000X0.075000X-0.650000X0.075000X0*%
%TD*%
%TA.AperFunction,ComponentPad*%
%ADD28RoundRect,0.250000X0.350000X0.575000X-0.350000X0.575000X-0.350000X-0.575000X0.350000X-0.575000X0*%
%TD*%
%TA.AperFunction,ComponentPad*%
%ADD29O,1.200000X1.650000*%
%TD*%
%TA.AperFunction,ViaPad*%
%ADD30C,0.800000*%
%TD*%
%TA.AperFunction,Conductor*%
%ADD31C,1.000000*%
%TD*%
%TA.AperFunction,Conductor*%
%ADD32C,0.250000*%
%TD*%
%TA.AperFunction,Conductor*%
%ADD33C,0.500000*%
%TD*%
G04 APERTURE END LIST*
D10*
%TO.P,C6,1*%
%TO.N,GND*%
X136475000Y-113750000D03*
%TO.P,C6,2*%
%TO.N,+3V3*%
X138025000Y-113750000D03*
%TD*%
D11*
%TO.P,C4,1*%
%TO.N,+3V3*%
X147775000Y-111000000D03*
%TO.P,C4,2*%
%TO.N,GND*%
X146225000Y-111000000D03*
%TD*%
D10*
%TO.P,C2,1*%
%TO.N,+3V3*%
X151200000Y-118880000D03*
%TO.P,C2,2*%
%TO.N,GND*%
X152750000Y-118880000D03*
%TD*%
D11*
%TO.P,C3,1*%
%TO.N,Net-(U3-EN)*%
X163175000Y-111500000D03*
%TO.P,C3,2*%
%TO.N,GND*%
X161625000Y-111500000D03*
%TD*%
D12*
%TO.P,J2,1,Pin_1*%
%TO.N,unconnected-(J2-Pin_1-Pad1)*%
X106500000Y-70300000D03*
%TD*%
%TO.P,J3,1,Pin_1*%
%TO.N,unconnected-(J3-Pin_1-Pad1)*%
X106500000Y-159300000D03*
%TD*%
%TO.P,J4,1,Pin_1*%
%TO.N,unconnected-(J4-Pin_1-Pad1)*%
X182500000Y-70300000D03*
%TD*%
%TO.P,J5,1,Pin_1*%
%TO.N,unconnected-(J5-Pin_1-Pad1)*%
X182500000Y-159300000D03*
%TD*%
D13*
%TO.P,U2,1,SDA*%
%TO.N,SDA*%
X154162500Y-117075000D03*
%TO.P,U2,2,SCL*%
%TO.N,SCL*%
X154162500Y-116425000D03*
%TO.P,U2,3,Alert*%
%TO.N,unconnected-(U2-Alert-Pad3)*%
X154162500Y-115775000D03*
%TO.P,U2,4,GND*%
%TO.N,GND*%
X154162500Y-115125000D03*
%TO.P,U2,5,A2*%
X149937500Y-115125000D03*
%TO.P,U2,6,A1*%
%TO.N,+3V3*%
X149937500Y-115775000D03*
%TO.P,U2,7,A0*%
X149937500Y-116425000D03*
%TO.P,U2,8,VDD*%
X149937500Y-117075000D03*
D14*
%TO.P,U2,9,EP/GND*%
%TO.N,GND*%
X152600000Y-116750000D03*
X152600000Y-115450000D03*
D15*
X152050000Y-116100000D03*
D14*
X151500000Y-116750000D03*
X151500000Y-115450000D03*
%TD*%
D16*
%TO.P,SC5,1,+*%
%TO.N,Net-(D3-A)*%
X167860000Y-67570000D03*
%TO.P,SC5,2,-*%
%TO.N,Net-(SC5--)*%
X167860000Y-107570000D03*
%TD*%
D17*
%TO.P,TP1,1,1*%
%TO.N,VSOLAR*%
X118370000Y-112450000D03*
%TD*%
D18*
%TO.P,D3,1,K*%
%TO.N,VSOLAR*%
X126400000Y-118000000D03*
%TO.P,D3,2,A*%
%TO.N,Net-(D3-A)*%
X130400000Y-118000000D03*
%TD*%
D19*
%TO.P,U4,1,EN*%
%TO.N,Net-(U4-EN)*%
X135350000Y-110270000D03*
%TO.P,U4,2,SCLOUT*%
%TO.N,SCL*%
X135350000Y-110930000D03*
%TO.P,U4,3,SCLIN*%
%TO.N,Net-(CN1-Pin_6)*%
X135350000Y-111580000D03*
%TO.P,U4,4,GND*%
%TO.N,GND*%
X135350000Y-112230000D03*
%TO.P,U4,5,READY*%
%TO.N,Net-(U4-READY)*%
X139650000Y-112230000D03*
%TO.P,U4,6,SDAIN*%
%TO.N,Net-(CN1-Pin_2)*%
X139650000Y-111580000D03*
%TO.P,U4,7,SDAOUT*%
%TO.N,SDA*%
X139650000Y-110930000D03*
%TO.P,U4,8,VCC*%
%TO.N,+3V3*%
X139650000Y-110270000D03*
%TD*%
D17*
%TO.P,TP2,1,1*%
%TO.N,GND*%
X118360000Y-117050000D03*
%TD*%
D18*
%TO.P,D1,1,K*%
%TO.N,VSOLAR*%
X126360000Y-111540000D03*
%TO.P,D1,2,A*%
%TO.N,Net-(D1-A)*%
X130360000Y-111540000D03*
%TD*%
D16*
%TO.P,SC3,1,+*%
%TO.N,Net-(D2-A)*%
X144490000Y-67570000D03*
%TO.P,SC3,2,-*%
%TO.N,Net-(SC3--)*%
X144490000Y-107570000D03*
%TD*%
D20*
%TO.P,R2,1*%
%TO.N,+3V3*%
X134500000Y-115825000D03*
%TO.P,R2,2*%
%TO.N,Net-(U4-EN)*%
X134500000Y-114175000D03*
%TD*%
D16*
%TO.P,SC4,1,+*%
%TO.N,Net-(SC3--)*%
X144450000Y-121940000D03*
%TO.P,SC4,2,-*%
%TO.N,GND*%
X144450000Y-161940000D03*
%TD*%
%TO.P,SC2,1,+*%
%TO.N,Net-(SC1--)*%
X121120000Y-121920000D03*
%TO.P,SC2,2,-*%
%TO.N,GND*%
X121120000Y-161920000D03*
%TD*%
D18*
%TO.P,D2,1,K*%
%TO.N,VSOLAR*%
X126360000Y-114750000D03*
%TO.P,D2,2,A*%
%TO.N,Net-(D2-A)*%
X130360000Y-114750000D03*
%TD*%
D16*
%TO.P,SC6,1,+*%
%TO.N,Net-(SC5--)*%
X167850000Y-121950000D03*
%TO.P,SC6,2,-*%
%TO.N,GND*%
X167850000Y-161950000D03*
%TD*%
D21*
%TO.P,C5,1*%
%TO.N,Net-(U3-REG)*%
X159050000Y-111500000D03*
%TO.P,C5,2*%
%TO.N,GND*%
X157150000Y-111500000D03*
%TD*%
D22*
%TO.P,R4,1*%
%TO.N,Net-(U4-READY)*%
X139750000Y-113675000D03*
%TO.P,R4,2*%
%TO.N,+3V3*%
X139750000Y-115325000D03*
%TD*%
D23*
%TO.P,U1,1,SCL*%
%TO.N,SCL*%
X150595000Y-113150001D03*
%TO.P,U1,2,VDD*%
%TO.N,+3V3*%
X151865000Y-113150000D03*
%TO.P,U1,3,GND*%
%TO.N,GND*%
X153135000Y-113150000D03*
%TO.P,U1,4,SDA*%
%TO.N,SDA*%
X154405000Y-113150001D03*
%TD*%
D24*
%TO.P,R6,1*%
%TO.N,SDA*%
X152675000Y-109750000D03*
%TO.P,R6,2*%
%TO.N,+3V3*%
X154325000Y-109750000D03*
%TD*%
%TO.P,R5,1*%
%TO.N,SCL*%
X158175000Y-109750000D03*
%TO.P,R5,2*%
%TO.N,+3V3*%
X159825000Y-109750000D03*
%TD*%
D25*
%TO.P,R3,1*%
%TO.N,+3V3*%
X161990000Y-116970000D03*
%TO.P,R3,2*%
%TO.N,Net-(U3-EN)*%
X160340000Y-116970000D03*
%TD*%
D26*
%TO.P,D4,1,K*%
%TO.N,GND*%
X156993750Y-119518750D03*
%TO.P,D4,2,A*%
%TO.N,Net-(D4-A)*%
X156993750Y-117943750D03*
%TD*%
D16*
%TO.P,SC1,1,+*%
%TO.N,Net-(D1-A)*%
X121090000Y-67570000D03*
%TO.P,SC1,2,-*%
%TO.N,Net-(SC1--)*%
X121090000Y-107570000D03*
%TD*%
D22*
%TO.P,R1,1*%
%TO.N,+3V3*%
X158768750Y-117906250D03*
%TO.P,R1,2*%
%TO.N,Net-(D4-A)*%
X158768750Y-119556250D03*
%TD*%
D27*
%TO.P,U3,1,REG*%
%TO.N,Net-(U3-REG)*%
X158980000Y-113350000D03*
%TO.P,U3,2,SCL*%
%TO.N,SCL*%
X158980000Y-113850000D03*
%TO.P,U3,3,SDA*%
%TO.N,SDA*%
X158980000Y-114350000D03*
%TO.P,U3,4,IN/TRIG*%
%TO.N,GND*%
X158980000Y-114850000D03*
%TO.P,U3,5,EN*%
%TO.N,Net-(U3-EN)*%
X158980000Y-115350000D03*
%TO.P,U3,6,VDD/NC*%
%TO.N,unconnected-(U3-VDD{slash}NC-Pad6)*%
X163380000Y-115350000D03*
%TO.P,U3,7,OUT+*%
%TO.N,Net-(U3-OUT+)*%
X163380000Y-114850000D03*
%TO.P,U3,8,GND*%
%TO.N,GND*%
X163380000Y-114350000D03*
%TO.P,U3,9,OUT-*%
%TO.N,Net-(U3-OUT+)*%
X163380000Y-113850000D03*
%TO.P,U3,10,VDD*%
%TO.N,Net-(U3-EN)*%
X163380000Y-113350000D03*
%TD*%
D28*
%TO.P,CN1,1,Pin_1*%
%TO.N,GND*%
X146500001Y-113750001D03*
D29*
%TO.P,CN1,2,Pin_2*%
%TO.N,Net-(CN1-Pin_2)*%
X146500001Y-115750002D03*
%TO.P,CN1,3,Pin_3*%
%TO.N,VSOLAR*%
X144500000Y-113750001D03*
%TO.P,CN1,4,Pin_4*%
%TO.N,+3V3*%
X144500001Y-115750001D03*
%TO.P,CN1,5,Pin_5*%
%TO.N,VSOLAR*%
X142500001Y-113750001D03*
%TO.P,CN1,6,Pin_6*%
%TO.N,Net-(CN1-Pin_6)*%
X142500000Y-115750001D03*
%TD*%
D30*
%TO.N,GND*%
X153250000Y-111750000D03*
X169300000Y-159860000D03*
X160825000Y-112900000D03*
X157100000Y-110000000D03*
X152300000Y-117700000D03*
X144520000Y-159900000D03*
X119500000Y-159800000D03*
X167920000Y-159860000D03*
X144750000Y-111000000D03*
X142900000Y-159900000D03*
X154700000Y-120000000D03*
X166300000Y-159860000D03*
X145900000Y-159900000D03*
X135015253Y-113208948D03*
X121120000Y-159800000D03*
X124150000Y-116450000D03*
X122500000Y-159800000D03*
X160750000Y-114500000D03*
%TO.N,+3V3*%
X150250000Y-111000000D03*
X150050000Y-118605000D03*
X163300000Y-116900000D03*
X138227388Y-110744462D03*
X135750000Y-115750000D03*
X140750000Y-115250000D03*
X160750000Y-109750000D03*
X158775000Y-116900000D03*
X155500000Y-109750000D03*
%TO.N,VSOLAR*%
X124500000Y-114750000D03*
X124500000Y-111500000D03*
X124500000Y-118000000D03*
%TO.N,SDA*%
X157165885Y-115284647D03*
X156250000Y-113750000D03*
%TO.N,SCL*%
X148508348Y-112272245D03*
X143496487Y-110201487D03*
%TO.N,Net-(SC3--)*%
X137250000Y-123000000D03*
X136250000Y-109000000D03*
X137250000Y-108000000D03*
X137250000Y-121000000D03*
%TO.N,Net-(U3-OUT+)*%
X161890000Y-115330000D03*
X174680000Y-141950000D03*
X161820000Y-113350000D03*
X164800000Y-127190000D03*
X174900000Y-87350000D03*
%TD*%
D31*
%TO.N,GND*%
X144520000Y-159900000D02*
X145900000Y-159900000D01*
D32*
X146050001Y-111000000D02*
X144750000Y-111000000D01*
D31*
X144520000Y-159900000D02*
X142900000Y-159900000D01*
X167920000Y-159860000D02*
X169300000Y-159860000D01*
D32*
X135015253Y-113084747D02*
X135350000Y-112750000D01*
X160750000Y-112975000D02*
X160825000Y-112900000D01*
D31*
X121120000Y-161920000D02*
X121120000Y-159800000D01*
D32*
X152300000Y-117700000D02*
X152925000Y-117700000D01*
D31*
X121120000Y-159800000D02*
X119500000Y-159800000D01*
X142900000Y-160400000D02*
X144520000Y-162020000D01*
D32*
X154162500Y-115125000D02*
X152925000Y-115125000D01*
D31*
X119500000Y-159800000D02*
X119500000Y-160300000D01*
X121120000Y-159800000D02*
X122500000Y-159800000D01*
D32*
X149937500Y-115125000D02*
X151175000Y-115125000D01*
X152925000Y-117075000D02*
X152925000Y-117700000D01*
X135015253Y-113208948D02*
X135015253Y-113084747D01*
X152925000Y-117700000D02*
X152925000Y-118330000D01*
X135350000Y-112230000D02*
X135350000Y-112750000D01*
X160900000Y-114350000D02*
X160750000Y-114500000D01*
X153135000Y-111865000D02*
X153250000Y-111750000D01*
D31*
X169300000Y-160600000D02*
X167920000Y-161980000D01*
D33*
X156512500Y-120000000D02*
X156993750Y-119518750D01*
D32*
X158980000Y-114850000D02*
X160400000Y-114850000D01*
X153135000Y-113150000D02*
X153135000Y-111865000D01*
D31*
X144520000Y-162020000D02*
X144520000Y-159900000D01*
X122500000Y-159800000D02*
X122500000Y-160540000D01*
X166300000Y-160360000D02*
X169060000Y-160360000D01*
X145660000Y-160400000D02*
X145900000Y-160640000D01*
D32*
X160750000Y-114500000D02*
X160750000Y-112975000D01*
X161450001Y-111500000D02*
X161450001Y-112274999D01*
X151175000Y-115125000D02*
X151500000Y-115450000D01*
X157100000Y-110000000D02*
X157150000Y-110050000D01*
X160400000Y-114850000D02*
X160750000Y-114500000D01*
X152925000Y-118330000D02*
X152600000Y-118655000D01*
D31*
X142900000Y-160400000D02*
X145660000Y-160400000D01*
D32*
X157150000Y-110050000D02*
X157150000Y-111450000D01*
D31*
X145900000Y-160640000D02*
X144520000Y-162020000D01*
X169300000Y-159860000D02*
X169300000Y-160600000D01*
X119500000Y-160300000D02*
X122260000Y-160300000D01*
D32*
X151645000Y-117700000D02*
X151500000Y-117555000D01*
X135350000Y-112750000D02*
X135350000Y-112799999D01*
D31*
X122260000Y-160300000D02*
X122500000Y-160540000D01*
X145900000Y-159900000D02*
X145900000Y-160640000D01*
X166300000Y-160360000D02*
X167920000Y-161980000D01*
D32*
X135350000Y-112799999D02*
X136300001Y-113750000D01*
D31*
X122500000Y-160540000D02*
X121120000Y-161920000D01*
D33*
X154700000Y-120000000D02*
X156512500Y-120000000D01*
D32*
X152300000Y-117700000D02*
X151645000Y-117700000D01*
D31*
X169060000Y-160360000D02*
X169300000Y-160600000D01*
D32*
X152600000Y-116750000D02*
X152925000Y-117075000D01*
D31*
X167920000Y-159860000D02*
X166300000Y-159860000D01*
D32*
X163380000Y-114350000D02*
X160900000Y-114350000D01*
D31*
X119500000Y-160300000D02*
X121120000Y-161920000D01*
X142900000Y-159900000D02*
X142900000Y-160400000D01*
D32*
X151500000Y-117555000D02*
X151500000Y-116750000D01*
D33*
X118360000Y-117050000D02*
X123550000Y-117050000D01*
D32*
X152925000Y-115125000D02*
X152600000Y-115450000D01*
D31*
X167920000Y-161980000D02*
X167920000Y-159860000D01*
X166300000Y-159860000D02*
X166300000Y-160360000D01*
D32*
X161450001Y-112274999D02*
X160825000Y-112900000D01*
D33*
X123550000Y-117050000D02*
X124150000Y-116450000D01*
D32*
%TO.N,+3V3*%
X159825000Y-109750000D02*
X160750000Y-109750000D01*
X149975000Y-117112500D02*
X149937500Y-117075000D01*
X139650000Y-110270000D02*
X138701850Y-110270000D01*
X151865000Y-113150000D02*
X151865000Y-112618001D01*
X150050000Y-118605000D02*
X150325000Y-118880000D01*
X138227388Y-113722611D02*
X138199999Y-113750000D01*
X161990000Y-116970000D02*
X163230000Y-116970000D01*
X158775000Y-117775000D02*
X158775000Y-116900000D01*
X150048586Y-118605000D02*
X149975000Y-118531414D01*
X163230000Y-116970000D02*
X163300000Y-116900000D01*
X150246999Y-111000000D02*
X147949999Y-111000000D01*
X150325000Y-118880000D02*
X150675000Y-118880000D01*
X149937500Y-116425000D02*
X149937500Y-115775000D01*
X149975000Y-118531414D02*
X149975000Y-117112500D01*
X138701850Y-110270000D02*
X138227388Y-110744462D01*
X138227388Y-110744462D02*
X138227388Y-113722611D01*
X140675000Y-115325000D02*
X140750000Y-115250000D01*
X135675000Y-115825000D02*
X135750000Y-115750000D01*
X154325000Y-109750000D02*
X155500000Y-109750000D01*
X134500000Y-115825000D02*
X135675000Y-115825000D01*
X151865000Y-112618001D02*
X150246999Y-111000000D01*
X139750000Y-115325000D02*
X140675000Y-115325000D01*
X150050000Y-118605000D02*
X150048586Y-118605000D01*
X149937500Y-117075000D02*
X149937500Y-116425000D01*
D31*
%TO.N,VSOLAR*%
X126320000Y-111500000D02*
X126360000Y-111540000D01*
D33*
X126360000Y-117960000D02*
X126400000Y-118000000D01*
D31*
X124500000Y-118000000D02*
X126400000Y-118000000D01*
D33*
X126360000Y-111540000D02*
X126360000Y-117960000D01*
X118370000Y-112450000D02*
X119280000Y-111540000D01*
D31*
X124500000Y-114750000D02*
X126360000Y-114750000D01*
D33*
X119280000Y-111540000D02*
X126360000Y-111540000D01*
D31*
X124500000Y-111500000D02*
X126320000Y-111500000D01*
D32*
%TO.N,Net-(U3-EN)*%
X161140000Y-116170000D02*
X164130000Y-116170000D01*
X158980000Y-115350000D02*
X158980000Y-115610000D01*
X158980000Y-115610000D02*
X160340000Y-116970000D01*
X164450000Y-113350000D02*
X163380000Y-113350000D01*
X164600000Y-113500000D02*
X164450000Y-113350000D01*
X163380000Y-113350000D02*
X163380000Y-111410000D01*
X160340000Y-116970000D02*
X161140000Y-116170000D01*
X164130000Y-116170000D02*
X164600000Y-115700000D01*
X164600000Y-115700000D02*
X164600000Y-113500000D01*
%TO.N,Net-(U3-REG)*%
X158980000Y-113350000D02*
X158980000Y-111570000D01*
X158980000Y-111570000D02*
X159050000Y-111500000D01*
D31*
%TO.N,Net-(D1-A)*%
X128500000Y-109680000D02*
X130360000Y-111540000D01*
X121090000Y-67570000D02*
X128500000Y-74980000D01*
X128500000Y-74980000D02*
X128500000Y-109680000D01*
%TO.N,Net-(D2-A)*%
X131060000Y-109060000D02*
X132349000Y-110349000D01*
X144490000Y-67570000D02*
X140260000Y-71800000D01*
X131060000Y-77740000D02*
X131060000Y-109060000D01*
X140260000Y-71800000D02*
X137000000Y-71800000D01*
X132349000Y-110349000D02*
X132349000Y-112761000D01*
X132349000Y-112761000D02*
X130360000Y-114750000D01*
X137000000Y-71800000D02*
X131060000Y-77740000D01*
D32*
%TO.N,SDA*%
X157286906Y-114786906D02*
X154998812Y-117075000D01*
X157723812Y-114350000D02*
X157286906Y-114786906D01*
X139650000Y-110930000D02*
X143793280Y-110930000D01*
X156250000Y-113750000D02*
X155004999Y-113750000D01*
X154998812Y-117075000D02*
X154162500Y-117075000D01*
X154405000Y-111878280D02*
X154405000Y-113150001D01*
X152475720Y-109949000D02*
X154405000Y-111878280D01*
X157165885Y-114907927D02*
X157165885Y-115284647D01*
X143793280Y-110930000D02*
X144774280Y-109949000D01*
X144774280Y-109949000D02*
X152475720Y-109949000D01*
X158980000Y-114350000D02*
X157723812Y-114350000D01*
X157286906Y-114786906D02*
X157165885Y-114907927D01*
X155004999Y-113750000D02*
X154405000Y-113150001D01*
%TO.N,SCL*%
X150595000Y-113682000D02*
X151500613Y-114587613D01*
X157750000Y-113850000D02*
X157575226Y-113850000D01*
X158175000Y-112269514D02*
X157750000Y-112694514D01*
X135350000Y-110930000D02*
X136969408Y-110930000D01*
X157750000Y-112694514D02*
X157750000Y-113850000D01*
X148508348Y-112272245D02*
X149717244Y-112272245D01*
X136969408Y-110930000D02*
X138399408Y-109500000D01*
X151500613Y-114587613D02*
X156837613Y-114587613D01*
X159125000Y-113850000D02*
X157750000Y-113850000D01*
X149717244Y-112272245D02*
X150595000Y-113150001D01*
X150595000Y-113150001D02*
X150595000Y-113682000D01*
X156837613Y-114587613D02*
X155000226Y-116425000D01*
X158175000Y-109750000D02*
X158175000Y-112269514D01*
X157575226Y-113850000D02*
X156837613Y-114587613D01*
X138399408Y-109500000D02*
X142795000Y-109500000D01*
X142795000Y-109500000D02*
X143496487Y-110201487D01*
X155000226Y-116425000D02*
X154162500Y-116425000D01*
D31*
%TO.N,Net-(D3-A)*%
X152600000Y-105200000D02*
X167860000Y-89940000D01*
X135050000Y-105200000D02*
X152600000Y-105200000D01*
X167860000Y-89940000D02*
X167860000Y-67570000D01*
X135050000Y-105200000D02*
X133300000Y-106950000D01*
D33*
X133300000Y-116610000D02*
X131910000Y-118000000D01*
X133300000Y-106950000D02*
X133300000Y-116610000D01*
X131910000Y-118000000D02*
X130400000Y-118000000D01*
D32*
%TO.N,Net-(D4-A)*%
X158775000Y-119425000D02*
X158612500Y-119425000D01*
X158606250Y-119556250D02*
X156993750Y-117943750D01*
D31*
%TO.N,Net-(SC1--)*%
X115500000Y-118500000D02*
X118920000Y-121920000D01*
X118920000Y-121920000D02*
X121120000Y-121920000D01*
X115500000Y-111633987D02*
X115500000Y-118500000D01*
X119563987Y-107570000D02*
X115500000Y-111633987D01*
X121090000Y-107570000D02*
X119563987Y-107570000D01*
%TO.N,Net-(SC3--)*%
X137250000Y-123000000D02*
X143390000Y-123000000D01*
X143390000Y-123000000D02*
X144450000Y-121940000D01*
X137680000Y-107570000D02*
X136250000Y-109000000D01*
X143510000Y-121000000D02*
X144450000Y-121940000D01*
X137250000Y-121000000D02*
X143510000Y-121000000D01*
X144490000Y-107570000D02*
X137680000Y-107570000D01*
%TO.N,Net-(SC5--)*%
X167860000Y-107570000D02*
X167860000Y-121940000D01*
X167860000Y-121940000D02*
X167850000Y-121950000D01*
D32*
%TO.N,Net-(U3-OUT+)*%
X163380000Y-114850000D02*
X162370000Y-114850000D01*
X162320000Y-113850000D02*
X161820000Y-113350000D01*
X162370000Y-114850000D02*
X161890000Y-115330000D01*
X163380000Y-113850000D02*
X162320000Y-113850000D01*
%TO.N,Net-(CN1-Pin_6)*%
X136330000Y-111580000D02*
X137250000Y-112500000D01*
X135350000Y-111580000D02*
X136330000Y-111580000D01*
X137250000Y-112500000D02*
X137250000Y-114500000D01*
X142000001Y-116250000D02*
X142500000Y-115750001D01*
X137250000Y-114500000D02*
X139000000Y-116250000D01*
X139000000Y-116250000D02*
X142000001Y-116250000D01*
%TO.N,Net-(CN1-Pin_2)*%
X144080000Y-111580000D02*
X145574001Y-113074001D01*
X145574001Y-114824002D02*
X146500001Y-115750002D01*
X139650000Y-111580000D02*
X144080000Y-111580000D01*
X145574001Y-113074001D02*
X145574001Y-114824002D01*
%TO.N,Net-(U4-EN)*%
X134000000Y-113675000D02*
X134500000Y-114175000D01*
X135350000Y-110270000D02*
X134629408Y-110270000D01*
X134629408Y-110270000D02*
X134000000Y-110899408D01*
X134000000Y-110899408D02*
X134000000Y-113675000D01*
%TO.N,Net-(U4-READY)*%
X139650000Y-112230000D02*
X139650000Y-113575000D01*
X139650000Y-113575000D02*
X139750000Y-113675000D01*
%TD*%
%TA.AperFunction,NonConductor*%
G36*
X137119917Y-124002382D02*
G01*
X137137321Y-124005844D01*
X137150670Y-124008500D01*
X137150671Y-124008500D01*
X143489330Y-124008500D01*
X143502678Y-124005844D01*
X143520082Y-124002382D01*
X143544273Y-124000000D01*
X161748638Y-124000000D01*
X161778078Y-124008644D01*
X161808065Y-124015168D01*
X161813080Y-124018922D01*
X161815677Y-124019685D01*
X161836319Y-124036319D01*
X161863681Y-124063681D01*
X161897166Y-124125004D01*
X161900000Y-124151362D01*
X161900000Y-143248638D01*
X161880315Y-143315677D01*
X161863681Y-143336319D01*
X161736319Y-143463681D01*
X161674996Y-143497166D01*
X161648638Y-143500000D01*
X126324000Y-143500000D01*
X126256961Y-143480315D01*
X126211206Y-143427511D01*
X126200000Y-143376000D01*
X126200000Y-124151362D01*
X126208644Y-124121921D01*
X126215168Y-124091935D01*
X126218922Y-124086919D01*
X126219685Y-124084323D01*
X126236319Y-124063681D01*
X126263681Y-124036319D01*
X126325004Y-124002834D01*
X126351362Y-124000000D01*
X137095727Y-124000000D01*
X137119917Y-124002382D01*
G37*
%TD.AperFunction*%
%TA.AperFunction,NonConductor*%
G36*
X155055901Y-89219685D02*
G01*
X155101656Y-89272489D01*
X155112862Y-89324000D01*
X155112862Y-97276000D01*
X155093177Y-97343039D01*
X155040373Y-97388794D01*
X154988862Y-97400000D01*
X154900000Y-97400000D01*
X133924000Y-97400000D01*
X133856961Y-97380315D01*
X133811206Y-97327511D01*
X133800000Y-97276000D01*
X133800000Y-89324000D01*
X133819685Y-89256961D01*
X133872489Y-89211206D01*
X133924000Y-89200000D01*
X154988862Y-89200000D01*
X155055901Y-89219685D01*
G37*
%TD.AperFunction*%
%TA.AperFunction,Conductor*%
%TO.N,+3V3*%
G36*
X128327012Y-110933700D02*
G01*
X128333595Y-110939829D01*
X128564595Y-111170829D01*
X128598621Y-111233141D01*
X128601500Y-111259924D01*
X128601500Y-112438649D01*
X128608009Y-112499196D01*
X128608011Y-112499204D01*
X128659110Y-112636202D01*
X128659112Y-112636207D01*
X128746738Y-112753261D01*
X128863792Y-112840887D01*
X128863794Y-112840888D01*
X128863796Y-112840889D01*
X128909482Y-112857929D01*
X129000795Y-112891988D01*
X129000803Y-112891990D01*
X129061350Y-112898499D01*
X129061355Y-112898499D01*
X129061362Y-112898500D01*
X130481074Y-112898500D01*
X130549195Y-112918502D01*
X130595688Y-112972158D01*
X130605792Y-113042432D01*
X130576298Y-113107012D01*
X130570170Y-113113595D01*
X130329171Y-113354595D01*
X130266858Y-113388620D01*
X130240075Y-113391500D01*
X129061350Y-113391500D01*
X129000803Y-113398009D01*
X129000795Y-113398011D01*
X128863797Y-113449110D01*
X128863792Y-113449112D01*
X128746738Y-113536738D01*
X128659112Y-113653792D01*
X128659110Y-113653797D01*
X128608011Y-113790795D01*
X128608009Y-113790803D01*
X128601500Y-113851350D01*
X128601500Y-115648649D01*
X128608009Y-115709196D01*
X128608011Y-115709204D01*
X128659110Y-115846202D01*
X128659112Y-115846207D01*
X128746738Y-115963261D01*
X128863792Y-116050887D01*
X128863794Y-116050888D01*
X128863796Y-116050889D01*
X128894237Y-116062243D01*
X129000795Y-116101988D01*
X129000803Y-116101990D01*
X129061350Y-116108499D01*
X129061355Y-116108499D01*
X129061362Y-116108500D01*
X129061368Y-116108500D01*
X131658632Y-116108500D01*
X131658638Y-116108500D01*
X131658645Y-116108499D01*
X131658649Y-116108499D01*
X131719196Y-116101990D01*
X131719199Y-116101989D01*
X131719201Y-116101989D01*
X131856204Y-116050889D01*
X131879137Y-116033722D01*
X131973261Y-115963261D01*
X132060887Y-115846207D01*
X132060887Y-115846206D01*
X132060889Y-115846204D01*
X132111989Y-115709201D01*
X132115352Y-115677925D01*
X132118499Y-115648649D01*
X132118500Y-115648632D01*
X132118500Y-114469924D01*
X132127283Y-114440008D01*
X132133912Y-114409539D01*
X132137726Y-114404443D01*
X132138502Y-114401803D01*
X132155405Y-114380829D01*
X132326405Y-114209829D01*
X132388717Y-114175803D01*
X132459532Y-114180868D01*
X132516368Y-114223415D01*
X132541179Y-114289935D01*
X132541500Y-114298924D01*
X132541500Y-116243627D01*
X132521498Y-116311748D01*
X132504595Y-116332723D01*
X132111804Y-116725513D01*
X132049492Y-116759538D01*
X131978676Y-116754473D01*
X131947201Y-116737286D01*
X131896206Y-116699112D01*
X131896202Y-116699110D01*
X131759204Y-116648011D01*
X131759196Y-116648009D01*
X131698649Y-116641500D01*
X131698638Y-116641500D01*
X129101362Y-116641500D01*
X129101350Y-116641500D01*
X129040803Y-116648009D01*
X129040795Y-116648011D01*
X128903797Y-116699110D01*
X128903792Y-116699112D01*
X128786738Y-116786738D01*
X128699112Y-116903792D01*
X128699110Y-116903797D01*
X128648011Y-117040795D01*
X128648009Y-117040803D01*
X128641500Y-117101350D01*
X128641500Y-118898649D01*
X128648009Y-118959196D01*
X128648011Y-118959204D01*
X128699110Y-119096202D01*
X128699112Y-119096207D01*
X128786738Y-119213261D01*
X128903792Y-119300887D01*
X128903794Y-119300888D01*
X128903796Y-119300889D01*
X128962875Y-119322924D01*
X129040795Y-119351988D01*
X129040803Y-119351990D01*
X129101350Y-119358499D01*
X129101355Y-119358499D01*
X129101362Y-119358500D01*
X129101368Y-119358500D01*
X131698632Y-119358500D01*
X131698638Y-119358500D01*
X131698645Y-119358499D01*
X131698649Y-119358499D01*
X131759196Y-119351990D01*
X131759199Y-119351989D01*
X131759201Y-119351989D01*
X131896204Y-119300889D01*
X131904977Y-119294322D01*
X132013261Y-119213261D01*
X132100887Y-119096207D01*
X132100887Y-119096206D01*
X132100889Y-119096204D01*
X132151989Y-118959201D01*
X132156624Y-118916094D01*
X132158499Y-118898649D01*
X132158500Y-118898632D01*
X132158500Y-118802252D01*
X132178502Y-118734131D01*
X132232158Y-118687638D01*
X132236237Y-118685862D01*
X132269284Y-118672174D01*
X132393515Y-118589166D01*
X133707681Y-117275000D01*
X148649920Y-117275000D01*
X148657649Y-117333718D01*
X148657650Y-117333719D01*
X148718912Y-117481621D01*
X148718917Y-117481629D01*
X148816369Y-117608630D01*
X148943370Y-117706082D01*
X148943378Y-117706087D01*
X149091281Y-117767350D01*
X149210155Y-117782999D01*
X149737500Y-117782999D01*
X149737500Y-117275000D01*
X148649920Y-117275000D01*
X133707681Y-117275000D01*
X133889166Y-117093515D01*
X133972174Y-116969284D01*
X134029351Y-116831247D01*
X134029353Y-116831232D01*
X134031145Y-116825330D01*
X134032911Y-116825865D01*
X134061798Y-116770639D01*
X134123492Y-116735506D01*
X134163878Y-116732645D01*
X134167783Y-116732999D01*
X134754000Y-116732999D01*
X134832222Y-116732999D01*
X134903553Y-116726518D01*
X135067706Y-116675366D01*
X135214840Y-116586421D01*
X135214850Y-116586413D01*
X135336413Y-116464850D01*
X135336421Y-116464840D01*
X135425366Y-116317706D01*
X135476518Y-116153553D01*
X135476518Y-116153552D01*
X135483000Y-116082222D01*
X135483000Y-116079000D01*
X134754000Y-116079000D01*
X134754000Y-116732999D01*
X134167783Y-116732999D01*
X134245999Y-116732998D01*
X134246000Y-116732998D01*
X134246000Y-115951000D01*
X134266002Y-115882879D01*
X134319658Y-115836386D01*
X134372000Y-115825000D01*
X134500000Y-115825000D01*
X134500000Y-115697000D01*
X134520002Y-115628879D01*
X134573658Y-115582386D01*
X134626000Y-115571000D01*
X135482999Y-115571000D01*
X135482999Y-115567778D01*
X135476518Y-115496446D01*
X135425366Y-115332293D01*
X135336421Y-115185159D01*
X135336413Y-115185149D01*
X135240713Y-115089449D01*
X135206687Y-115027137D01*
X135211752Y-114956322D01*
X135240713Y-114911259D01*
X135336811Y-114815160D01*
X135336816Y-114815155D01*
X135425827Y-114667913D01*
X135471860Y-114520183D01*
X135511220Y-114461100D01*
X135576278Y-114432674D01*
X135646376Y-114443934D01*
X135681249Y-114468575D01*
X135791953Y-114579279D01*
X135791959Y-114579284D01*
X135791960Y-114579285D01*
X135937899Y-114669302D01*
X136100664Y-114723236D01*
X136120756Y-114725288D01*
X136201120Y-114733500D01*
X136201128Y-114733500D01*
X136577494Y-114733500D01*
X136645615Y-114753502D01*
X136684342Y-114795474D01*
X136685161Y-114794928D01*
X136688599Y-114800074D01*
X136688600Y-114800075D01*
X136757929Y-114903833D01*
X138596167Y-116742072D01*
X138699925Y-116811401D01*
X138781447Y-116845168D01*
X138815215Y-116859155D01*
X138937606Y-116883500D01*
X141823609Y-116883500D01*
X141891730Y-116903502D01*
X141897655Y-116907553D01*
X141919019Y-116923075D01*
X142074484Y-117002289D01*
X142240426Y-117056206D01*
X142412759Y-117083501D01*
X142412762Y-117083501D01*
X142587238Y-117083501D01*
X142587241Y-117083501D01*
X142759574Y-117056206D01*
X142925516Y-117002289D01*
X143080981Y-116923075D01*
X143222139Y-116820518D01*
X143345517Y-116697140D01*
X143398375Y-116624386D01*
X143454594Y-116581035D01*
X143525330Y-116574958D01*
X143588122Y-116608089D01*
X143602245Y-116624388D01*
X143654867Y-116696816D01*
X143778182Y-116820131D01*
X143778185Y-116820133D01*
X143919279Y-116922644D01*
X144074675Y-117001823D01*
X144074681Y-117001826D01*
X144240535Y-117055715D01*
X144246001Y-117056581D01*
X144246001Y-116094101D01*
X144335957Y-116146038D01*
X144444049Y-116175001D01*
X144555953Y-116175001D01*
X144664045Y-116146038D01*
X144754001Y-116094101D01*
X144754001Y-117056581D01*
X144759466Y-117055715D01*
X144925320Y-117001826D01*
X144925326Y-117001823D01*
X145080722Y-116922644D01*
X145221816Y-116820133D01*
X145221819Y-116820131D01*
X145345131Y-116696819D01*
X145397754Y-116624390D01*
X145453977Y-116581035D01*
X145524713Y-116574959D01*
X145587505Y-116608091D01*
X145601625Y-116624387D01*
X145654484Y-116697141D01*
X145654486Y-116697143D01*
X145654488Y-116697146D01*
X145777856Y-116820514D01*
X145777859Y-116820516D01*
X145777862Y-116820519D01*
X145919020Y-116923076D01*
X146074485Y-117002290D01*
X146240427Y-117056207D01*
X146412760Y-117083502D01*
X146412763Y-117083502D01*
X146587239Y-117083502D01*
X146587242Y-117083502D01*
X146759575Y-117056207D01*
X146925517Y-117002290D01*
X147080982Y-116923076D01*
X147222140Y-116820519D01*
X147345518Y-116697141D01*
X147397931Y-116625000D01*
X148649920Y-116625000D01*
X148657650Y-116683722D01*
X148665131Y-116701783D01*
X148667120Y-116720289D01*
X148674105Y-116737544D01*
X148672619Y-116771440D01*
X148672720Y-116772373D01*
X148672554Y-116772938D01*
X148672535Y-116773373D01*
X148653350Y-116875000D01*
X149737500Y-116875000D01*
X149737500Y-116625000D01*
X148649920Y-116625000D01*
X147397931Y-116625000D01*
X147448075Y-116555983D01*
X147527289Y-116400518D01*
X147581206Y-116234576D01*
X147608501Y-116062243D01*
X147608501Y-115437761D01*
X147581206Y-115265428D01*
X147527289Y-115099486D01*
X147448075Y-114944021D01*
X147448071Y-114944016D01*
X147448070Y-114944013D01*
X147445487Y-114939797D01*
X147447024Y-114938854D01*
X147425780Y-114879293D01*
X147441867Y-114810143D01*
X147445329Y-114804992D01*
X147445178Y-114804899D01*
X147449031Y-114798653D01*
X147542116Y-114647739D01*
X147597888Y-114479427D01*
X147608501Y-114375546D01*
X147608500Y-113124457D01*
X147605610Y-113096171D01*
X147597888Y-113020575D01*
X147583754Y-112977920D01*
X147578005Y-112960573D01*
X147575566Y-112889620D01*
X147611874Y-112828610D01*
X147675403Y-112796915D01*
X147745983Y-112804597D01*
X147798348Y-112846910D01*
X147798739Y-112846590D01*
X147800287Y-112848476D01*
X147801205Y-112849218D01*
X147802377Y-112850942D01*
X147802665Y-112851374D01*
X147802669Y-112851378D01*
X147802670Y-112851380D01*
X147929213Y-112977923D01*
X148078012Y-113077347D01*
X148243348Y-113145832D01*
X148418869Y-113180745D01*
X148418870Y-113180745D01*
X148597826Y-113180745D01*
X148597827Y-113180745D01*
X148773348Y-113145832D01*
X148938684Y-113077347D01*
X149087483Y-112977923D01*
X149122756Y-112942650D01*
X149150124Y-112927705D01*
X149176353Y-112910849D01*
X149182651Y-112909943D01*
X149185068Y-112908624D01*
X149211851Y-112905745D01*
X149402650Y-112905745D01*
X149470771Y-112925747D01*
X149491745Y-112942650D01*
X149699595Y-113150500D01*
X149733621Y-113212812D01*
X149736500Y-113239595D01*
X149736500Y-113998650D01*
X149743009Y-114059197D01*
X149743011Y-114059205D01*
X149794110Y-114196203D01*
X149794112Y-114196207D01*
X149808174Y-114214992D01*
X149832984Y-114281512D01*
X149817892Y-114350886D01*
X149767689Y-114401088D01*
X149707305Y-114416500D01*
X149210116Y-114416500D01*
X149210107Y-114416501D01*
X149103046Y-114430595D01*
X149091150Y-114432162D01*
X148943121Y-114493477D01*
X148816013Y-114591013D01*
X148718477Y-114718121D01*
X148657161Y-114866151D01*
X148641500Y-114985113D01*
X148641500Y-115264883D01*
X148641501Y-115264892D01*
X148657162Y-115383850D01*
X148664861Y-115402438D01*
X148672449Y-115473027D01*
X148664861Y-115498870D01*
X148657650Y-115516278D01*
X148657650Y-115516279D01*
X148649919Y-115574999D01*
X148649919Y-115575000D01*
X148689431Y-115575000D01*
X148757552Y-115595002D01*
X148772936Y-115606644D01*
X148782011Y-115614675D01*
X148816013Y-115658987D01*
X148936868Y-115751723D01*
X148940168Y-115754644D01*
X148956795Y-115781122D01*
X148975235Y-115806376D01*
X148975505Y-115810917D01*
X148977924Y-115814769D01*
X148977596Y-115846031D01*
X148979456Y-115877247D01*
X148977228Y-115881213D01*
X148977181Y-115885762D01*
X148960000Y-115911889D01*
X148944691Y-115939150D01*
X148940673Y-115941282D01*
X148938174Y-115945083D01*
X148909600Y-115957772D01*
X148881978Y-115972431D01*
X148874995Y-115973139D01*
X148873288Y-115973898D01*
X148871001Y-115973544D01*
X148856663Y-115975000D01*
X148649920Y-115975000D01*
X148657650Y-116033722D01*
X148665131Y-116051783D01*
X148672720Y-116122373D01*
X148665131Y-116148217D01*
X148657651Y-116166275D01*
X148657650Y-116166279D01*
X148649919Y-116224999D01*
X148649919Y-116225000D01*
X149737500Y-116225000D01*
X149737500Y-115959499D01*
X149740091Y-115950673D01*
X149738782Y-115941567D01*
X149749937Y-115917141D01*
X149757502Y-115891378D01*
X149764455Y-115885353D01*
X149768276Y-115876987D01*
X149790861Y-115862472D01*
X149811158Y-115844885D01*
X149821844Y-115842560D01*
X149828002Y-115838603D01*
X149863496Y-115833499D01*
X150011501Y-115833499D01*
X150079621Y-115853501D01*
X150126114Y-115907157D01*
X150137500Y-115959499D01*
X150137500Y-117782999D01*
X150507657Y-117782999D01*
X150575778Y-117803001D01*
X150622271Y-117856657D01*
X150632375Y-117926931D01*
X150602881Y-117991511D01*
X150573804Y-118016240D01*
X150517271Y-118051109D01*
X150517265Y-118051114D01*
X150396114Y-118172265D01*
X150396109Y-118172271D01*
X150306152Y-118318115D01*
X150252257Y-118480758D01*
X150252255Y-118480770D01*
X150242000Y-118581147D01*
X150242000Y-118626000D01*
X151074000Y-118626000D01*
X151142121Y-118646002D01*
X151188614Y-118699658D01*
X151200000Y-118752000D01*
X151200000Y-119008000D01*
X151179998Y-119076121D01*
X151126342Y-119122614D01*
X151074000Y-119134000D01*
X150242000Y-119134000D01*
X150242000Y-119178852D01*
X150252255Y-119279229D01*
X150252257Y-119279241D01*
X150306152Y-119441884D01*
X150396109Y-119587728D01*
X150396114Y-119587734D01*
X150522461Y-119714081D01*
X150520849Y-119715692D01*
X150555485Y-119764608D01*
X150558673Y-119835533D01*
X150523011Y-119896923D01*
X150459820Y-119929286D01*
X150436305Y-119931500D01*
X137901350Y-119931500D01*
X137840803Y-119938009D01*
X137840802Y-119938010D01*
X137840799Y-119938010D01*
X137840799Y-119938011D01*
X137718688Y-119983556D01*
X137674657Y-119991500D01*
X137150668Y-119991500D01*
X136955830Y-120030256D01*
X136955825Y-120030258D01*
X136772296Y-120106279D01*
X136607123Y-120216644D01*
X136607116Y-120216649D01*
X136466649Y-120357116D01*
X136466644Y-120357123D01*
X136356279Y-120522296D01*
X136280258Y-120705825D01*
X136280256Y-120705830D01*
X136241500Y-120900668D01*
X136241500Y-120900671D01*
X136241500Y-121099329D01*
X136280256Y-121294169D01*
X136356279Y-121477704D01*
X136466647Y-121642881D01*
X136607119Y-121783353D01*
X136772296Y-121893721D01*
X136774562Y-121895235D01*
X136820090Y-121949712D01*
X136828938Y-122020155D01*
X136798296Y-122084199D01*
X136774562Y-122104765D01*
X136607123Y-122216644D01*
X136607116Y-122216649D01*
X136466649Y-122357116D01*
X136466644Y-122357123D01*
X136356279Y-122522296D01*
X136280258Y-122705825D01*
X136280256Y-122705830D01*
X136241500Y-122900668D01*
X136241500Y-123099331D01*
X136280256Y-123294169D01*
X136280258Y-123294175D01*
X136287758Y-123312280D01*
X136295348Y-123382870D01*
X136263570Y-123446357D01*
X136202513Y-123482586D01*
X136171350Y-123486500D01*
X128254500Y-123486500D01*
X128186379Y-123466498D01*
X128139886Y-123412842D01*
X128128500Y-123360500D01*
X128128500Y-120371367D01*
X128128499Y-120371350D01*
X128121990Y-120310803D01*
X128121988Y-120310795D01*
X128091600Y-120229325D01*
X128070889Y-120173796D01*
X128070888Y-120173794D01*
X128070887Y-120173792D01*
X127983261Y-120056738D01*
X127866207Y-119969112D01*
X127866202Y-119969110D01*
X127729204Y-119918011D01*
X127729196Y-119918009D01*
X127668649Y-119911500D01*
X127668638Y-119911500D01*
X120513830Y-119911500D01*
X120445709Y-119891498D01*
X120399216Y-119837842D01*
X120387838Y-119786877D01*
X120384070Y-119442100D01*
X120367608Y-117935875D01*
X120386864Y-117867542D01*
X120440008Y-117820465D01*
X120493600Y-117808500D01*
X123365500Y-117808500D01*
X123433621Y-117828502D01*
X123480114Y-117882158D01*
X123491500Y-117934500D01*
X123491500Y-118099331D01*
X123513356Y-118209206D01*
X123530256Y-118294169D01*
X123606279Y-118477704D01*
X123716647Y-118642881D01*
X123857119Y-118783353D01*
X124022296Y-118893721D01*
X124205831Y-118969744D01*
X124400671Y-119008500D01*
X124578916Y-119008500D01*
X124647037Y-119028502D01*
X124693530Y-119082158D01*
X124696971Y-119090467D01*
X124699110Y-119096202D01*
X124699112Y-119096207D01*
X124786738Y-119213261D01*
X124903792Y-119300887D01*
X124903794Y-119300888D01*
X124903796Y-119300889D01*
X124962875Y-119322924D01*
X125040795Y-119351988D01*
X125040803Y-119351990D01*
X125101350Y-119358499D01*
X125101355Y-119358499D01*
X125101362Y-119358500D01*
X125101368Y-119358500D01*
X127698632Y-119358500D01*
X127698638Y-119358500D01*
X127698645Y-119358499D01*
X127698649Y-119358499D01*
X127759196Y-119351990D01*
X127759199Y-119351989D01*
X127759201Y-119351989D01*
X127896204Y-119300889D01*
X127904977Y-119294322D01*
X128013261Y-119213261D01*
X128100887Y-119096207D01*
X128100887Y-119096206D01*
X128100889Y-119096204D01*
X128151989Y-118959201D01*
X128156624Y-118916094D01*
X128158499Y-118898649D01*
X128158500Y-118898632D01*
X128158500Y-117101367D01*
X128158499Y-117101350D01*
X128151990Y-117040803D01*
X128151988Y-117040795D01*
X128108079Y-116923073D01*
X128100889Y-116903796D01*
X128100888Y-116903794D01*
X128100887Y-116903792D01*
X128013261Y-116786738D01*
X127896207Y-116699112D01*
X127896202Y-116699110D01*
X127759204Y-116648011D01*
X127759196Y-116648009D01*
X127698649Y-116641500D01*
X127698638Y-116641500D01*
X127244500Y-116641500D01*
X127176379Y-116621498D01*
X127129886Y-116567842D01*
X127118500Y-116515500D01*
X127118500Y-116234500D01*
X127138502Y-116166379D01*
X127192158Y-116119886D01*
X127244500Y-116108500D01*
X127658632Y-116108500D01*
X127658638Y-116108500D01*
X127658645Y-116108499D01*
X127658649Y-116108499D01*
X127719196Y-116101990D01*
X127719199Y-116101989D01*
X127719201Y-116101989D01*
X127856204Y-116050889D01*
X127879137Y-116033722D01*
X127973261Y-115963261D01*
X128060887Y-115846207D01*
X128060887Y-115846206D01*
X128060889Y-115846204D01*
X128111989Y-115709201D01*
X128115352Y-115677925D01*
X128118499Y-115648649D01*
X128118500Y-115648632D01*
X128118500Y-113851367D01*
X128118499Y-113851350D01*
X128111990Y-113790803D01*
X128111988Y-113790795D01*
X128065574Y-113666357D01*
X128060889Y-113653796D01*
X128060888Y-113653794D01*
X128060887Y-113653792D01*
X127973261Y-113536738D01*
X127856207Y-113449112D01*
X127856202Y-113449110D01*
X127719204Y-113398011D01*
X127719196Y-113398009D01*
X127658649Y-113391500D01*
X127658638Y-113391500D01*
X127244500Y-113391500D01*
X127235674Y-113388908D01*
X127226568Y-113390218D01*
X127202142Y-113379062D01*
X127176379Y-113371498D01*
X127170354Y-113364544D01*
X127161988Y-113360724D01*
X127147473Y-113338138D01*
X127129886Y-113317842D01*
X127127561Y-113307155D01*
X127123604Y-113300998D01*
X127118500Y-113265500D01*
X127118500Y-113024500D01*
X127138502Y-112956379D01*
X127192158Y-112909886D01*
X127244500Y-112898500D01*
X127658632Y-112898500D01*
X127658638Y-112898500D01*
X127658645Y-112898499D01*
X127658649Y-112898499D01*
X127719196Y-112891990D01*
X127719199Y-112891989D01*
X127719201Y-112891989D01*
X127725553Y-112889620D01*
X127738045Y-112884960D01*
X127856204Y-112840889D01*
X127857204Y-112840141D01*
X127973261Y-112753261D01*
X128060887Y-112636207D01*
X128060888Y-112636205D01*
X128060889Y-112636204D01*
X128111989Y-112499201D01*
X128112150Y-112497711D01*
X128118499Y-112438649D01*
X128118500Y-112438632D01*
X128118500Y-111028924D01*
X128138502Y-110960803D01*
X128192158Y-110914310D01*
X128262432Y-110904206D01*
X128327012Y-110933700D01*
G37*
%TD.AperFunction*%
%TA.AperFunction,Conductor*%
G36*
X160737874Y-105797297D02*
G01*
X160805937Y-105817491D01*
X160852279Y-105871277D01*
X160862186Y-105941579D01*
X160859257Y-105952998D01*
X160859823Y-105953132D01*
X160858009Y-105960803D01*
X160851500Y-106021350D01*
X160851500Y-109021669D01*
X160831498Y-109089790D01*
X160777842Y-109136283D01*
X160707568Y-109146387D01*
X160642988Y-109116893D01*
X160617671Y-109086853D01*
X160586421Y-109035160D01*
X160586413Y-109035149D01*
X160464850Y-108913586D01*
X160464840Y-108913578D01*
X160317706Y-108824633D01*
X160153552Y-108773481D01*
X160082223Y-108767000D01*
X160079000Y-108767000D01*
X160079000Y-109496000D01*
X160732999Y-109496000D01*
X160732999Y-109459515D01*
X160753001Y-109391394D01*
X160806657Y-109344901D01*
X160876931Y-109334797D01*
X160941511Y-109364291D01*
X160959867Y-109384006D01*
X160996738Y-109433261D01*
X161113792Y-109520887D01*
X161113794Y-109520888D01*
X161113796Y-109520889D01*
X161168678Y-109541359D01*
X161250795Y-109571988D01*
X161250803Y-109571990D01*
X161311350Y-109578499D01*
X161311355Y-109578499D01*
X161311362Y-109578500D01*
X166725500Y-109578500D01*
X166793621Y-109598502D01*
X166840114Y-109652158D01*
X166851500Y-109704500D01*
X166851500Y-119815500D01*
X166831498Y-119883621D01*
X166777842Y-119930114D01*
X166725500Y-119941500D01*
X161301350Y-119941500D01*
X161240803Y-119948009D01*
X161240795Y-119948011D01*
X161103797Y-119999110D01*
X161103792Y-119999112D01*
X160986738Y-120086738D01*
X160899112Y-120203792D01*
X160899110Y-120203797D01*
X160848011Y-120340795D01*
X160848009Y-120340803D01*
X160841500Y-120401350D01*
X160841500Y-123360500D01*
X160821498Y-123428621D01*
X160767842Y-123475114D01*
X160715500Y-123486500D01*
X151584500Y-123486500D01*
X151516379Y-123466498D01*
X151469886Y-123412842D01*
X151458500Y-123360500D01*
X151458500Y-120391367D01*
X151458499Y-120391350D01*
X151451990Y-120330803D01*
X151451988Y-120330795D01*
X151404617Y-120203792D01*
X151400889Y-120193796D01*
X151400888Y-120193794D01*
X151400887Y-120193792D01*
X151307861Y-120069525D01*
X151309335Y-120068421D01*
X151280592Y-120015783D01*
X151285657Y-119944968D01*
X151328204Y-119888132D01*
X151394724Y-119863321D01*
X151403713Y-119863000D01*
X151473853Y-119863000D01*
X151473852Y-119862999D01*
X151574229Y-119852744D01*
X151574241Y-119852742D01*
X151736884Y-119798847D01*
X151882727Y-119708890D01*
X151885546Y-119706072D01*
X151887960Y-119704753D01*
X151888486Y-119704338D01*
X151888556Y-119704427D01*
X151947856Y-119672043D01*
X152018672Y-119677104D01*
X152063745Y-119706070D01*
X152066960Y-119709285D01*
X152212899Y-119799302D01*
X152375664Y-119853236D01*
X152395756Y-119855288D01*
X152476120Y-119863500D01*
X152476128Y-119863500D01*
X153023880Y-119863500D01*
X153096936Y-119856035D01*
X153124336Y-119853236D01*
X153287101Y-119799302D01*
X153433040Y-119709285D01*
X153554285Y-119588040D01*
X153644302Y-119442101D01*
X153698236Y-119279336D01*
X153702177Y-119240760D01*
X153708500Y-119178880D01*
X153708500Y-118581119D01*
X153698247Y-118480770D01*
X153698236Y-118480664D01*
X153644302Y-118317899D01*
X153577258Y-118209205D01*
X153572486Y-118192378D01*
X153563604Y-118178557D01*
X153558500Y-118143059D01*
X153558500Y-117909499D01*
X153578502Y-117841378D01*
X153632158Y-117794885D01*
X153684500Y-117783499D01*
X154889884Y-117783499D01*
X154889892Y-117783498D01*
X154894693Y-117782865D01*
X155008850Y-117767838D01*
X155156876Y-117706524D01*
X155175719Y-117692064D01*
X155204202Y-117675619D01*
X155298887Y-117636400D01*
X155402645Y-117567071D01*
X156778890Y-116190825D01*
X156841200Y-116156802D01*
X156894431Y-116158948D01*
X156894814Y-116157026D01*
X156900883Y-116158233D01*
X156900885Y-116158234D01*
X157076406Y-116193147D01*
X157076407Y-116193147D01*
X157255363Y-116193147D01*
X157255364Y-116193147D01*
X157430885Y-116158234D01*
X157596221Y-116089749D01*
X157745020Y-115990325D01*
X157824587Y-115910758D01*
X157886899Y-115876732D01*
X157957714Y-115881797D01*
X157990386Y-115899891D01*
X158004548Y-115910758D01*
X158035732Y-115934686D01*
X158177676Y-115993481D01*
X158291756Y-116008500D01*
X158430405Y-116008500D01*
X158498526Y-116028502D01*
X158519500Y-116045404D01*
X159263395Y-116789299D01*
X159297419Y-116851610D01*
X159292355Y-116922425D01*
X159249808Y-116979261D01*
X159183288Y-117004072D01*
X159162899Y-117003876D01*
X159100974Y-116998250D01*
X159022750Y-116998250D01*
X159022750Y-117780250D01*
X159002748Y-117848371D01*
X158949092Y-117894864D01*
X158896750Y-117906250D01*
X158640750Y-117906250D01*
X158572629Y-117886248D01*
X158526136Y-117832592D01*
X158514750Y-117780250D01*
X158514750Y-116998249D01*
X158436528Y-116998250D01*
X158365196Y-117004731D01*
X158201043Y-117055883D01*
X158053909Y-117144828D01*
X158053899Y-117144836D01*
X157965207Y-117233529D01*
X157902895Y-117267555D01*
X157832080Y-117262490D01*
X157787017Y-117233529D01*
X157704143Y-117150655D01*
X157704137Y-117150650D01*
X157559442Y-117061401D01*
X157543758Y-117056204D01*
X157398064Y-117007926D01*
X157398061Y-117007925D01*
X157398059Y-117007925D01*
X157298469Y-116997750D01*
X156689039Y-116997750D01*
X156589440Y-117007925D01*
X156589437Y-117007925D01*
X156589436Y-117007926D01*
X156509473Y-117034422D01*
X156428057Y-117061401D01*
X156283362Y-117150650D01*
X156283356Y-117150655D01*
X156163155Y-117270856D01*
X156163150Y-117270862D01*
X156073901Y-117415557D01*
X156073901Y-117415558D01*
X156023695Y-117567073D01*
X156020425Y-117576940D01*
X156010250Y-117676530D01*
X156010250Y-118210960D01*
X156020282Y-118309155D01*
X156020426Y-118310564D01*
X156057879Y-118423591D01*
X156073901Y-118471942D01*
X156163150Y-118616637D01*
X156163155Y-118616643D01*
X156188667Y-118642155D01*
X156222693Y-118704467D01*
X156217628Y-118775282D01*
X156188667Y-118820345D01*
X156163155Y-118845856D01*
X156163150Y-118845862D01*
X156073899Y-118990561D01*
X156019366Y-119155133D01*
X155978952Y-119213504D01*
X155913396Y-119240760D01*
X155899762Y-119241500D01*
X155238302Y-119241500D01*
X155170181Y-119221498D01*
X155168300Y-119220265D01*
X155130336Y-119194898D01*
X155013429Y-119146473D01*
X154965003Y-119126414D01*
X154965001Y-119126413D01*
X154965000Y-119126413D01*
X154876645Y-119108838D01*
X154789481Y-119091500D01*
X154789479Y-119091500D01*
X154610521Y-119091500D01*
X154610518Y-119091500D01*
X154479771Y-119117507D01*
X154435000Y-119126413D01*
X154434999Y-119126413D01*
X154434996Y-119126414D01*
X154269662Y-119194899D01*
X154120869Y-119294319D01*
X154120862Y-119294324D01*
X153994324Y-119420862D01*
X153994319Y-119420869D01*
X153894899Y-119569662D01*
X153826414Y-119734996D01*
X153791500Y-119910518D01*
X153791500Y-120089481D01*
X153808271Y-120173792D01*
X153826413Y-120265000D01*
X153894898Y-120430336D01*
X153994322Y-120579135D01*
X154120865Y-120705678D01*
X154269664Y-120805102D01*
X154435000Y-120873587D01*
X154610521Y-120908500D01*
X154610522Y-120908500D01*
X154789478Y-120908500D01*
X154789479Y-120908500D01*
X154965000Y-120873587D01*
X155130336Y-120805102D01*
X155168300Y-120779734D01*
X155236053Y-120758520D01*
X155238302Y-120758500D01*
X156587201Y-120758500D01*
X156587205Y-120758500D01*
X156587206Y-120758500D01*
X156660476Y-120743925D01*
X156733747Y-120729351D01*
X156871784Y-120672174D01*
X156913005Y-120644630D01*
X156996010Y-120589170D01*
X156996011Y-120589168D01*
X156996015Y-120589166D01*
X157083526Y-120501653D01*
X157145838Y-120467629D01*
X157172622Y-120464749D01*
X157298460Y-120464749D01*
X157398064Y-120454574D01*
X157559442Y-120401099D01*
X157704137Y-120311850D01*
X157705192Y-120310795D01*
X157786663Y-120229325D01*
X157848975Y-120195299D01*
X157919790Y-120200364D01*
X157964853Y-120229325D01*
X158053589Y-120318061D01*
X158053594Y-120318065D01*
X158053595Y-120318066D01*
X158200837Y-120407077D01*
X158365101Y-120458263D01*
X158436485Y-120464750D01*
X159101014Y-120464749D01*
X159172399Y-120458263D01*
X159336663Y-120407077D01*
X159483905Y-120318066D01*
X159605566Y-120196405D01*
X159694577Y-120049163D01*
X159745763Y-119884899D01*
X159752250Y-119813515D01*
X159752249Y-119298986D01*
X159745763Y-119227601D01*
X159694577Y-119063337D01*
X159605566Y-118916095D01*
X159605565Y-118916094D01*
X159605561Y-118916089D01*
X159509463Y-118819991D01*
X159475437Y-118757679D01*
X159480502Y-118686864D01*
X159509463Y-118641801D01*
X159605163Y-118546100D01*
X159605171Y-118546090D01*
X159694116Y-118398956D01*
X159745268Y-118234803D01*
X159745268Y-118234802D01*
X159751749Y-118163472D01*
X159751749Y-118037358D01*
X159771751Y-117969237D01*
X159825406Y-117922744D01*
X159895680Y-117912639D01*
X159915232Y-117917061D01*
X160011351Y-117947013D01*
X160082735Y-117953500D01*
X160597264Y-117953499D01*
X160668649Y-117947013D01*
X160832913Y-117895827D01*
X160980155Y-117806816D01*
X161019621Y-117767350D01*
X161076259Y-117710713D01*
X161138571Y-117676687D01*
X161209386Y-117681752D01*
X161254449Y-117710713D01*
X161350149Y-117806413D01*
X161350159Y-117806421D01*
X161497293Y-117895366D01*
X161661446Y-117946518D01*
X161732781Y-117952999D01*
X161735999Y-117952999D01*
X162244000Y-117952999D01*
X162247222Y-117952999D01*
X162318553Y-117946518D01*
X162482706Y-117895366D01*
X162629840Y-117806421D01*
X162629850Y-117806413D01*
X162751413Y-117684850D01*
X162751421Y-117684840D01*
X162840366Y-117537706D01*
X162891518Y-117373553D01*
X162891518Y-117373552D01*
X162898000Y-117302222D01*
X162898000Y-117224000D01*
X162244000Y-117224000D01*
X162244000Y-117952999D01*
X161735999Y-117952999D01*
X161736000Y-117952998D01*
X161736000Y-117096000D01*
X161756002Y-117027879D01*
X161809658Y-116981386D01*
X161862000Y-116970000D01*
X161990000Y-116970000D01*
X161990000Y-116929500D01*
X162010002Y-116861379D01*
X162063658Y-116814886D01*
X162116000Y-116803500D01*
X164192393Y-116803500D01*
X164192394Y-116803500D01*
X164314785Y-116779155D01*
X164430075Y-116731400D01*
X164533833Y-116662071D01*
X165092071Y-116103833D01*
X165161400Y-116000075D01*
X165209155Y-115884785D01*
X165233500Y-115762394D01*
X165233500Y-115637607D01*
X165233500Y-113437606D01*
X165209155Y-113315215D01*
X165161400Y-113199925D01*
X165092071Y-113096167D01*
X165003833Y-113007929D01*
X164853833Y-112857929D01*
X164750075Y-112788600D01*
X164634785Y-112740845D01*
X164544504Y-112722887D01*
X164512396Y-112716500D01*
X164512394Y-112716500D01*
X164231484Y-112716500D01*
X164208968Y-112714472D01*
X164195711Y-112712064D01*
X164182324Y-112706519D01*
X164120001Y-112698314D01*
X164116984Y-112697766D01*
X164087891Y-112683160D01*
X164058127Y-112669994D01*
X164056376Y-112667339D01*
X164053534Y-112665913D01*
X164036953Y-112637893D01*
X164019035Y-112610728D01*
X164018409Y-112606556D01*
X164017378Y-112604813D01*
X164017530Y-112600686D01*
X164013500Y-112573794D01*
X164013500Y-112188301D01*
X164032259Y-112122156D01*
X164069302Y-112062101D01*
X164123236Y-111899336D01*
X164128480Y-111848010D01*
X164133500Y-111798880D01*
X164133500Y-111201119D01*
X164123236Y-111100666D01*
X164123236Y-111100664D01*
X164069302Y-110937899D01*
X163979285Y-110791960D01*
X163979284Y-110791959D01*
X163979279Y-110791953D01*
X163858046Y-110670720D01*
X163858040Y-110670715D01*
X163780632Y-110622969D01*
X163712101Y-110580698D01*
X163549336Y-110526764D01*
X163549333Y-110526763D01*
X163448880Y-110516500D01*
X163448872Y-110516500D01*
X162901128Y-110516500D01*
X162901120Y-110516500D01*
X162800666Y-110526763D01*
X162637899Y-110580698D01*
X162491959Y-110670715D01*
X162491953Y-110670720D01*
X162489095Y-110673579D01*
X162486648Y-110674914D01*
X162486202Y-110675268D01*
X162486141Y-110675191D01*
X162426783Y-110707605D01*
X162355968Y-110702540D01*
X162310905Y-110673579D01*
X162308046Y-110670720D01*
X162308040Y-110670715D01*
X162230632Y-110622969D01*
X162162101Y-110580698D01*
X161999336Y-110526764D01*
X161999333Y-110526763D01*
X161898880Y-110516500D01*
X161898872Y-110516500D01*
X161351128Y-110516500D01*
X161351120Y-110516500D01*
X161250666Y-110526763D01*
X161087899Y-110580698D01*
X160941959Y-110670715D01*
X160941953Y-110670720D01*
X160820720Y-110791953D01*
X160820715Y-110791959D01*
X160730698Y-110937899D01*
X160676763Y-111100666D01*
X160666500Y-111201119D01*
X160666500Y-111798880D01*
X160666499Y-111798880D01*
X160675513Y-111887093D01*
X160662539Y-111956894D01*
X160613887Y-112008600D01*
X160574752Y-112023478D01*
X160560004Y-112026411D01*
X160560000Y-112026413D01*
X160394665Y-112094897D01*
X160248818Y-112192348D01*
X160181065Y-112213562D01*
X160112598Y-112194778D01*
X160065155Y-112141961D01*
X160053470Y-112074775D01*
X160058500Y-112025545D01*
X160058499Y-110974456D01*
X160047887Y-110870574D01*
X160047886Y-110870572D01*
X160047216Y-110864010D01*
X160060192Y-110794210D01*
X160108845Y-110742504D01*
X160147989Y-110727625D01*
X160153555Y-110726518D01*
X160317706Y-110675366D01*
X160464840Y-110586421D01*
X160464850Y-110586413D01*
X160586413Y-110464850D01*
X160586421Y-110464840D01*
X160675366Y-110317706D01*
X160726518Y-110153553D01*
X160726518Y-110153552D01*
X160733000Y-110082222D01*
X160733000Y-110004000D01*
X159951000Y-110004000D01*
X159882879Y-109983998D01*
X159836386Y-109930342D01*
X159825000Y-109878000D01*
X159825000Y-109750000D01*
X159697000Y-109750000D01*
X159628879Y-109729998D01*
X159582386Y-109676342D01*
X159571000Y-109624000D01*
X159571000Y-108767000D01*
X159567768Y-108767001D01*
X159496446Y-108773481D01*
X159332293Y-108824633D01*
X159185159Y-108913578D01*
X159185149Y-108913586D01*
X159089449Y-109009287D01*
X159027137Y-109043313D01*
X158956322Y-109038248D01*
X158911259Y-109009287D01*
X158815160Y-108913188D01*
X158815155Y-108913184D01*
X158667911Y-108824172D01*
X158667906Y-108824170D01*
X158503646Y-108772986D01*
X158451723Y-108768268D01*
X158432265Y-108766500D01*
X158432262Y-108766500D01*
X157917738Y-108766500D01*
X157846353Y-108772986D01*
X157846352Y-108772986D01*
X157682093Y-108824170D01*
X157682088Y-108824172D01*
X157534844Y-108913184D01*
X157534843Y-108913185D01*
X157413181Y-109034848D01*
X157404320Y-109049506D01*
X157351959Y-109097453D01*
X157281988Y-109109479D01*
X157271914Y-109107896D01*
X157189486Y-109091500D01*
X157189479Y-109091500D01*
X157010521Y-109091500D01*
X157010518Y-109091500D01*
X156891040Y-109115266D01*
X156835000Y-109126413D01*
X156834999Y-109126413D01*
X156834996Y-109126414D01*
X156669662Y-109194899D01*
X156520869Y-109294319D01*
X156520862Y-109294324D01*
X156394324Y-109420862D01*
X156394319Y-109420869D01*
X156313811Y-109541359D01*
X156294898Y-109569664D01*
X156291238Y-109578500D01*
X156226414Y-109734996D01*
X156191500Y-109910518D01*
X156191500Y-109910521D01*
X156191500Y-110089479D01*
X156221263Y-110239111D01*
X156226414Y-110265003D01*
X156294899Y-110430339D01*
X156297815Y-110435793D01*
X156295414Y-110437076D01*
X156313127Y-110493582D01*
X156294389Y-110562017D01*
X156207885Y-110702262D01*
X156152113Y-110870572D01*
X156152112Y-110870579D01*
X156141500Y-110974446D01*
X156141500Y-112025544D01*
X156152112Y-112129425D01*
X156207885Y-112297738D01*
X156300970Y-112448652D01*
X156300975Y-112448658D01*
X156426341Y-112574024D01*
X156426345Y-112574027D01*
X156426348Y-112574030D01*
X156512213Y-112626992D01*
X156559691Y-112679776D01*
X156571094Y-112749851D01*
X156542802Y-112814967D01*
X156483797Y-112854450D01*
X156421485Y-112857811D01*
X156339484Y-112841500D01*
X156339479Y-112841500D01*
X156160521Y-112841500D01*
X156160518Y-112841500D01*
X156029771Y-112867507D01*
X155985000Y-112876413D01*
X155984999Y-112876413D01*
X155984996Y-112876414D01*
X155853902Y-112930716D01*
X155821794Y-112944016D01*
X155819662Y-112944899D01*
X155670869Y-113044319D01*
X155670862Y-113044324D01*
X155635592Y-113079595D01*
X155608223Y-113094539D01*
X155581995Y-113111396D01*
X155575696Y-113112301D01*
X155573280Y-113113621D01*
X155546497Y-113116500D01*
X155389500Y-113116500D01*
X155321379Y-113096498D01*
X155274886Y-113042842D01*
X155263500Y-112990500D01*
X155263500Y-112301368D01*
X155263499Y-112301351D01*
X155256990Y-112240804D01*
X155256988Y-112240796D01*
X155224080Y-112152569D01*
X155205889Y-112103797D01*
X155205888Y-112103795D01*
X155205887Y-112103793D01*
X155118261Y-111986739D01*
X155088990Y-111964827D01*
X155046444Y-111907991D01*
X155038500Y-111863960D01*
X155038500Y-111815887D01*
X155038499Y-111815883D01*
X155035117Y-111798880D01*
X155014155Y-111693495D01*
X154966400Y-111578205D01*
X154897071Y-111474447D01*
X154808833Y-111386209D01*
X154155623Y-110732999D01*
X154579000Y-110732999D01*
X154582222Y-110732999D01*
X154653553Y-110726518D01*
X154817706Y-110675366D01*
X154964840Y-110586421D01*
X154964850Y-110586413D01*
X155086413Y-110464850D01*
X155086421Y-110464840D01*
X155175366Y-110317706D01*
X155226518Y-110153553D01*
X155226518Y-110153552D01*
X155233000Y-110082222D01*
X155233000Y-110004000D01*
X154579000Y-110004000D01*
X154579000Y-110732999D01*
X154155623Y-110732999D01*
X154107905Y-110685281D01*
X154073879Y-110622969D01*
X154071000Y-110596186D01*
X154071000Y-109496000D01*
X154579000Y-109496000D01*
X155232999Y-109496000D01*
X155232999Y-109417778D01*
X155226518Y-109346446D01*
X155175366Y-109182293D01*
X155086421Y-109035159D01*
X155086413Y-109035149D01*
X154964850Y-108913586D01*
X154964840Y-108913578D01*
X154817706Y-108824633D01*
X154653552Y-108773481D01*
X154582223Y-108767000D01*
X154579000Y-108767000D01*
X154579000Y-109496000D01*
X154071000Y-109496000D01*
X154071000Y-108767000D01*
X154067768Y-108767001D01*
X153996446Y-108773481D01*
X153832293Y-108824633D01*
X153685159Y-108913578D01*
X153685149Y-108913586D01*
X153589449Y-109009287D01*
X153527137Y-109043313D01*
X153456322Y-109038248D01*
X153411259Y-109009287D01*
X153315160Y-108913188D01*
X153315155Y-108913184D01*
X153167911Y-108824172D01*
X153167906Y-108824170D01*
X153003646Y-108772986D01*
X152951723Y-108768268D01*
X152932265Y-108766500D01*
X152932262Y-108766500D01*
X152417738Y-108766500D01*
X152346353Y-108772986D01*
X152346352Y-108772986D01*
X152182093Y-108824170D01*
X152182088Y-108824172D01*
X152034844Y-108913184D01*
X152034839Y-108913188D01*
X151913188Y-109034839D01*
X151913184Y-109034844D01*
X151824173Y-109182086D01*
X151824173Y-109182087D01*
X151810181Y-109226987D01*
X151795850Y-109248499D01*
X151785112Y-109272012D01*
X151776498Y-109277547D01*
X151770821Y-109286070D01*
X151747132Y-109296420D01*
X151725386Y-109310396D01*
X151710124Y-109312590D01*
X151705763Y-109314496D01*
X151689888Y-109315500D01*
X151617608Y-109315500D01*
X151549487Y-109295498D01*
X151502994Y-109241842D01*
X151492330Y-109176032D01*
X151498499Y-109118649D01*
X151498500Y-109118632D01*
X151498500Y-106334500D01*
X151518502Y-106266379D01*
X151572158Y-106219886D01*
X151624500Y-106208500D01*
X152699328Y-106208500D01*
X152699329Y-106208500D01*
X152894169Y-106169744D01*
X153077704Y-106093721D01*
X153242881Y-105983353D01*
X153383353Y-105842881D01*
X153412358Y-105813875D01*
X153474668Y-105779851D01*
X153501801Y-105776971D01*
X160737874Y-105797297D01*
G37*
%TD.AperFunction*%
%TA.AperFunction,Conductor*%
G36*
X142221794Y-112233502D02*
G01*
X142268287Y-112287158D01*
X142278391Y-112357432D01*
X142248897Y-112422012D01*
X142192609Y-112459332D01*
X142168765Y-112467080D01*
X142074489Y-112497711D01*
X142074483Y-112497714D01*
X141919016Y-112576929D01*
X141777859Y-112679486D01*
X141777856Y-112679488D01*
X141654488Y-112802856D01*
X141654486Y-112802859D01*
X141551929Y-112944016D01*
X141472714Y-113099483D01*
X141472711Y-113099489D01*
X141435891Y-113212812D01*
X141418796Y-113265427D01*
X141391501Y-113437760D01*
X141391501Y-114062242D01*
X141418796Y-114234575D01*
X141418797Y-114234578D01*
X141464599Y-114375546D01*
X141472713Y-114400517D01*
X141537230Y-114527137D01*
X141551929Y-114555985D01*
X141639080Y-114675938D01*
X141662939Y-114742806D01*
X141646858Y-114811957D01*
X141639081Y-114824059D01*
X141551927Y-114944017D01*
X141472713Y-115099483D01*
X141472710Y-115099489D01*
X141418971Y-115264884D01*
X141418795Y-115265427D01*
X141393216Y-115426931D01*
X141391500Y-115437763D01*
X141391500Y-115490500D01*
X141371498Y-115558621D01*
X141317842Y-115605114D01*
X141265500Y-115616500D01*
X140822691Y-115616500D01*
X140754570Y-115596498D01*
X140733596Y-115579595D01*
X140733001Y-115579000D01*
X139876000Y-115579000D01*
X139807879Y-115558998D01*
X139761386Y-115505342D01*
X139750000Y-115453000D01*
X139750000Y-115197000D01*
X139770002Y-115128879D01*
X139823658Y-115082386D01*
X139876000Y-115071000D01*
X140732999Y-115071000D01*
X140732999Y-115067778D01*
X140726518Y-114996446D01*
X140675366Y-114832293D01*
X140586421Y-114685159D01*
X140586413Y-114685149D01*
X140490713Y-114589449D01*
X140456687Y-114527137D01*
X140461752Y-114456322D01*
X140490713Y-114411259D01*
X140586811Y-114315160D01*
X140586816Y-114315155D01*
X140675827Y-114167913D01*
X140727013Y-114003649D01*
X140733500Y-113932265D01*
X140733499Y-113417736D01*
X140727013Y-113346351D01*
X140685401Y-113212812D01*
X140675829Y-113182093D01*
X140675827Y-113182088D01*
X140675827Y-113182087D01*
X140586816Y-113034845D01*
X140586815Y-113034844D01*
X140582873Y-113028323D01*
X140584143Y-113027554D01*
X140561020Y-112969489D01*
X140574583Y-112899799D01*
X140623669Y-112848506D01*
X140638257Y-112841329D01*
X140638917Y-112841055D01*
X140641127Y-112840140D01*
X140753893Y-112764793D01*
X140849793Y-112668893D01*
X140925140Y-112556127D01*
X140944868Y-112508500D01*
X140977037Y-112430839D01*
X140977038Y-112430834D01*
X140977041Y-112430828D01*
X141000097Y-112314917D01*
X141033005Y-112252009D01*
X141094700Y-112216877D01*
X141123676Y-112213500D01*
X142153673Y-112213500D01*
X142221794Y-112233502D01*
G37*
%TD.AperFunction*%
%TA.AperFunction,Conductor*%
G36*
X138226146Y-110673331D02*
G01*
X138282982Y-110715878D01*
X138307793Y-110782398D01*
X138305693Y-110815968D01*
X138296500Y-110862183D01*
X138296500Y-110997814D01*
X138314085Y-111086217D01*
X138322959Y-111130828D01*
X138352075Y-111201119D01*
X138354420Y-111206781D01*
X138362009Y-111277371D01*
X138354420Y-111303219D01*
X138322960Y-111379169D01*
X138322959Y-111379170D01*
X138296500Y-111512185D01*
X138296500Y-111647814D01*
X138313508Y-111733316D01*
X138322959Y-111780828D01*
X138332804Y-111804596D01*
X138354420Y-111856781D01*
X138362009Y-111927371D01*
X138354420Y-111953219D01*
X138322960Y-112029169D01*
X138322959Y-112029170D01*
X138296500Y-112162185D01*
X138296500Y-112297814D01*
X138322959Y-112430829D01*
X138322962Y-112430839D01*
X138374857Y-112556122D01*
X138374860Y-112556128D01*
X138384796Y-112570997D01*
X138406012Y-112638749D01*
X138387230Y-112707216D01*
X138334413Y-112754660D01*
X138280032Y-112767000D01*
X138279000Y-112767000D01*
X138279000Y-113624000D01*
X138276408Y-113632825D01*
X138277718Y-113641932D01*
X138266562Y-113666357D01*
X138258998Y-113692121D01*
X138252044Y-113698145D01*
X138248224Y-113706512D01*
X138225638Y-113721026D01*
X138205342Y-113738614D01*
X138194655Y-113740938D01*
X138188498Y-113744896D01*
X138153000Y-113750000D01*
X138009500Y-113750000D01*
X137941379Y-113729998D01*
X137894886Y-113676342D01*
X137883500Y-113624000D01*
X137883500Y-112437607D01*
X137883499Y-112437603D01*
X137859155Y-112315215D01*
X137811400Y-112199925D01*
X137742071Y-112096167D01*
X137653833Y-112007929D01*
X137298810Y-111652906D01*
X137264784Y-111590594D01*
X137269849Y-111519779D01*
X137312396Y-111462943D01*
X137317877Y-111459064D01*
X137373241Y-111422071D01*
X138093022Y-110702289D01*
X138155331Y-110668267D01*
X138226146Y-110673331D01*
G37*
%TD.AperFunction*%
%TA.AperFunction,Conductor*%
G36*
X152009098Y-110587104D02*
G01*
X152024746Y-110586675D01*
X152057764Y-110600671D01*
X152182087Y-110675827D01*
X152182088Y-110675827D01*
X152182091Y-110675829D01*
X152333376Y-110722970D01*
X152384986Y-110754170D01*
X152583906Y-110953090D01*
X152617932Y-111015402D01*
X152612867Y-111086217D01*
X152583907Y-111131279D01*
X152544325Y-111170861D01*
X152544319Y-111170869D01*
X152456534Y-111302250D01*
X152444898Y-111319664D01*
X152430716Y-111353902D01*
X152376414Y-111484996D01*
X152341500Y-111660518D01*
X152341500Y-111716000D01*
X152321498Y-111784121D01*
X152267842Y-111830614D01*
X152215500Y-111842000D01*
X152119000Y-111842000D01*
X152119000Y-113024000D01*
X152098998Y-113092121D01*
X152045342Y-113138614D01*
X151993000Y-113150000D01*
X151737000Y-113150000D01*
X151668879Y-113129998D01*
X151622386Y-113076342D01*
X151611000Y-113024000D01*
X151611000Y-111842000D01*
X151466402Y-111842000D01*
X151405904Y-111848505D01*
X151274743Y-111897425D01*
X151203928Y-111902489D01*
X151186679Y-111897424D01*
X151054204Y-111848012D01*
X151054196Y-111848010D01*
X150993649Y-111841501D01*
X150993638Y-111841501D01*
X150234594Y-111841501D01*
X150166473Y-111821499D01*
X150145499Y-111804596D01*
X150121079Y-111780176D01*
X150121077Y-111780174D01*
X150017319Y-111710845D01*
X149902029Y-111663090D01*
X149825216Y-111647811D01*
X149779640Y-111638745D01*
X149779638Y-111638745D01*
X149211851Y-111638745D01*
X149143730Y-111618743D01*
X149122756Y-111601840D01*
X149087485Y-111566569D01*
X149087483Y-111566567D01*
X149006094Y-111512185D01*
X148938683Y-111467142D01*
X148938679Y-111467140D01*
X148810781Y-111414162D01*
X148755500Y-111369614D01*
X148733080Y-111302250D01*
X148733000Y-111297754D01*
X148733000Y-111254000D01*
X147901000Y-111254000D01*
X147832879Y-111233998D01*
X147786386Y-111180342D01*
X147775000Y-111128000D01*
X147775000Y-110872000D01*
X147795002Y-110803879D01*
X147848658Y-110757386D01*
X147901000Y-110746000D01*
X148733000Y-110746000D01*
X148733000Y-110708500D01*
X148753002Y-110640379D01*
X148806658Y-110593886D01*
X148859000Y-110582500D01*
X151992581Y-110582500D01*
X152009098Y-110587104D01*
G37*
%TD.AperFunction*%
%TD*%
M02*
