%TF.GenerationSoftware,KiCad,Pcbnew,10.0.1*%
%TF.CreationDate,2026-08-30T15:01:59-07:00*%
%TF.ProjectId,XY_Face_V4,58595f46-6163-4655-9f56-342e6b696361,3.0*%
%TF.SameCoordinates,Original*%
%TF.FileFunction,Copper,L1,Top*%
%TF.FilePolarity,Positive*%
%FSLAX46Y46*%
G04 Gerber Fmt 4.6, Leading zero omitted, Abs format (unit mm)*
G04 Created by KiCad (PCBNEW 10.0.1) date 2026-08-30 15:01:59*
%MOMM*%
%LPD*%
G01*
G04 APERTURE LIST*
G04 Aperture macros list*
%AMRoundRect*
0 Rectangle with rounded corners*
0 $1 Rounding radius*
0 $2 $3 $4 $5 $6 $7 $8 $9 X,Y pos of 4 corners*
0 Add a 4 corners polygon primitive as box body*
4,1,4,$2,$3,$4,$5,$6,$7,$8,$9,$2,$3,0*
0 Add four circle primitives for the rounded corners*
1,1,$1+$1,$2,$3*
1,1,$1+$1,$4,$5*
1,1,$1+$1,$6,$7*
1,1,$1+$1,$8,$9*
0 Add four rect primitives between the rounded corners*
20,1,$1+$1,$2,$3,$4,$5,0*
20,1,$1+$1,$4,$5,$6,$7,0*
20,1,$1+$1,$6,$7,$8,$9,0*
20,1,$1+$1,$8,$9,$2,$3,0*%
G04 Aperture macros list end*
%TA.AperFunction,ComponentPad*%
%ADD10C,5.700000*%
%TD*%
%TA.AperFunction,SMDPad,CuDef*%
%ADD11RoundRect,0.625000X0.625000X-0.625000X0.625000X0.625000X-0.625000X0.625000X-0.625000X-0.625000X0*%
%TD*%
%TA.AperFunction,SMDPad,CuDef*%
%ADD12RoundRect,0.087500X-0.087500X0.250000X-0.087500X-0.250000X0.087500X-0.250000X0.087500X0.250000X0*%
%TD*%
%TA.AperFunction,SMDPad,CuDef*%
%ADD13O,1.690000X0.360000*%
%TD*%
%TA.AperFunction,SMDPad,CuDef*%
%ADD14RoundRect,0.140000X0.140000X0.170000X-0.140000X0.170000X-0.140000X-0.170000X0.140000X-0.170000X0*%
%TD*%
%TA.AperFunction,SMDPad,CuDef*%
%ADD15R,2.500000X1.700000*%
%TD*%
%TA.AperFunction,ComponentPad*%
%ADD16C,5.000000*%
%TD*%
%TA.AperFunction,SMDPad,CuDef*%
%ADD17RoundRect,0.135000X-0.185000X0.135000X-0.185000X-0.135000X0.185000X-0.135000X0.185000X0.135000X0*%
%TD*%
%TA.AperFunction,ComponentPad*%
%ADD18RoundRect,0.250000X-0.350000X-0.575000X0.350000X-0.575000X0.350000X0.575000X-0.350000X0.575000X0*%
%TD*%
%TA.AperFunction,ComponentPad*%
%ADD19O,1.200000X1.650000*%
%TD*%
%TA.AperFunction,SMDPad,CuDef*%
%ADD20R,0.850000X0.790000*%
%TD*%
%TA.AperFunction,SMDPad,CuDef*%
%ADD21R,0.790000X0.850000*%
%TD*%
%TA.AperFunction,SMDPad,CuDef*%
%ADD22RoundRect,0.140000X0.170000X-0.140000X0.170000X0.140000X-0.170000X0.140000X-0.170000X-0.140000X0*%
%TD*%
%TA.AperFunction,SMDPad,CuDef*%
%ADD23RoundRect,0.140000X-0.140000X-0.170000X0.140000X-0.170000X0.140000X0.170000X-0.140000X0.170000X0*%
%TD*%
%TA.AperFunction,SMDPad,CuDef*%
%ADD24RoundRect,0.135000X-0.135000X-0.185000X0.135000X-0.185000X0.135000X0.185000X-0.135000X0.185000X0*%
%TD*%
%TA.AperFunction,SMDPad,CuDef*%
%ADD25RoundRect,0.218750X0.218750X0.256250X-0.218750X0.256250X-0.218750X-0.256250X0.218750X-0.256250X0*%
%TD*%
%TA.AperFunction,SMDPad,CuDef*%
%ADD26RoundRect,0.075000X-0.650000X-0.075000X0.650000X-0.075000X0.650000X0.075000X-0.650000X0.075000X0*%
%TD*%
%TA.AperFunction,ComponentPad*%
%ADD27RoundRect,0.250000X0.350000X0.575000X-0.350000X0.575000X-0.350000X-0.575000X0.350000X-0.575000X0*%
%TD*%
%TA.AperFunction,ViaPad*%
%ADD28C,0.800000*%
%TD*%
%TA.AperFunction,Conductor*%
%ADD29C,0.250000*%
%TD*%
%TA.AperFunction,Conductor*%
%ADD30C,1.000000*%
%TD*%
G04 APERTURE END LIST*
D10*
%TO.P,J2,1,Pin_1*%
%TO.N,unconnected-(J2-Pin_1-Pad1)*%
X106500000Y-70300000D03*
%TD*%
%TO.P,J3,1,Pin_1*%
%TO.N,unconnected-(J3-Pin_1-Pad1)*%
X106500000Y-159300000D03*
%TD*%
%TO.P,J4,1,Pin_1*%
%TO.N,unconnected-(J4-Pin_1-Pad1)*%
X182500000Y-70300000D03*
%TD*%
%TO.P,J5,1,Pin_1*%
%TO.N,unconnected-(J5-Pin_1-Pad1)*%
X182500000Y-159300000D03*
%TD*%
D11*
%TO.P,TP1,1,1*%
%TO.N,VSOLAR*%
X114000000Y-113000000D03*
%TD*%
D12*
%TO.P,U2,1,SCL*%
%TO.N,/SCL*%
X129400000Y-115887500D03*
%TO.P,U2,2,GND*%
%TO.N,GND*%
X128900000Y-115887500D03*
%TO.P,U2,3,ALERT*%
X128400000Y-115887500D03*
%TO.P,U2,4,ADD0*%
X128400000Y-117312500D03*
%TO.P,U2,5,V+*%
%TO.N,+3V3*%
X128900000Y-117312500D03*
%TO.P,U2,6,SDA*%
%TO.N,/SDA*%
X129400000Y-117312500D03*
%TD*%
D13*
%TO.P,U4,1,EN*%
%TO.N,Net-(U4-EN)*%
X134300000Y-114820000D03*
%TO.P,U4,2,SCLOUT*%
%TO.N,/SCL*%
X134300000Y-115480000D03*
%TO.P,U4,3,SCLIN*%
%TO.N,SCLIN*%
X134300000Y-116130000D03*
%TO.P,U4,4,GND*%
%TO.N,GND*%
X134300000Y-116780000D03*
%TO.P,U4,5,READY*%
%TO.N,Net-(U4-READY)*%
X138600000Y-116780000D03*
%TO.P,U4,6,SDAIN*%
%TO.N,SDAIN*%
X138600000Y-116130000D03*
%TO.P,U4,7,SDAOUT*%
%TO.N,/SDA*%
X138600000Y-115480000D03*
%TO.P,U4,8,VCC*%
%TO.N,+3V3*%
X138600000Y-114820000D03*
%TD*%
D14*
%TO.P,C6,1*%
%TO.N,GND*%
X140930000Y-113950000D03*
%TO.P,C6,2*%
%TO.N,+3V3*%
X139970000Y-113950000D03*
%TD*%
D11*
%TO.P,TP2,1,1*%
%TO.N,GND*%
X114000000Y-116500000D03*
%TD*%
D15*
%TO.P,D1,1,K*%
%TO.N,VSOLAR*%
X126600001Y-113200000D03*
%TO.P,D1,2,A*%
%TO.N,Net-(D1-A)*%
X122599999Y-113200000D03*
%TD*%
D16*
%TO.P,SC2,1,+*%
%TO.N,Net-(SC1--)*%
X122425000Y-141000000D03*
%TO.P,SC2,2,-*%
%TO.N,GND*%
X166425000Y-141000000D03*
%TD*%
D17*
%TO.P,R2,1*%
%TO.N,+3V3*%
X134100000Y-112240001D03*
%TO.P,R2,2*%
%TO.N,Net-(U4-EN)*%
X134100000Y-113259999D03*
%TD*%
D18*
%TO.P,J13,1,Pin_1*%
%TO.N,Net-(J13-Pin_1)*%
X149500000Y-113900000D03*
D19*
%TO.P,J13,2,Pin_2*%
%TO.N,GND*%
X149500000Y-115900000D03*
%TO.P,J13,3,Pin_3*%
%TO.N,Net-(J13-Pin_1)*%
X151500000Y-113900000D03*
%TO.P,J13,4,Pin_4*%
%TO.N,GND*%
X151500000Y-115900000D03*
%TD*%
D20*
%TO.P,U7,1,GND*%
%TO.N,GND*%
X124695000Y-117517500D03*
D21*
%TO.P,U7,2,SDA*%
%TO.N,/SDA*%
X125845000Y-117077500D03*
%TO.P,U7,3,INT*%
%TO.N,unconnected-(U7-INT-Pad3)*%
X125845000Y-115877500D03*
D20*
%TO.P,U7,4,GND*%
%TO.N,GND*%
X124695000Y-115437500D03*
D21*
%TO.P,U7,5,SCL*%
%TO.N,/SCL*%
X123545000Y-115877500D03*
%TO.P,U7,6,VDD*%
%TO.N,+3V3*%
X123545000Y-117077500D03*
%TD*%
D22*
%TO.P,C4,1*%
%TO.N,+3V3*%
X122450000Y-117030000D03*
%TO.P,C4,2*%
%TO.N,GND*%
X122450000Y-116070000D03*
%TD*%
%TO.P,C2,1*%
%TO.N,+3V3*%
X127100000Y-116330000D03*
%TO.P,C2,2*%
%TO.N,GND*%
X127100000Y-115370000D03*
%TD*%
D23*
%TO.P,C5,1*%
%TO.N,Net-(U3-REG)*%
X159020000Y-112100000D03*
%TO.P,C5,2*%
%TO.N,GND*%
X159980000Y-112100000D03*
%TD*%
D24*
%TO.P,R7,1,1*%
%TO.N,Net-(J13-Pin_1)*%
X154490000Y-112000000D03*
%TO.P,R7,2,2*%
%TO.N,/RBF_High*%
X155510000Y-112000000D03*
%TD*%
%TO.P,R4,1*%
%TO.N,Net-(U4-READY)*%
X138190001Y-113000000D03*
%TO.P,R4,2*%
%TO.N,+3V3*%
X139209999Y-113000000D03*
%TD*%
D16*
%TO.P,SC1,1,+*%
%TO.N,Net-(D1-A)*%
X122450000Y-88500000D03*
%TO.P,SC1,2,-*%
%TO.N,Net-(SC1--)*%
X166450000Y-88500000D03*
%TD*%
D24*
%TO.P,R6,1*%
%TO.N,/SDA*%
X130540000Y-116800000D03*
%TO.P,R6,2*%
%TO.N,+3V3*%
X131560000Y-116800000D03*
%TD*%
%TO.P,R5,1*%
%TO.N,/SCL*%
X130590000Y-114700000D03*
%TO.P,R5,2*%
%TO.N,+3V3*%
X131610000Y-114700000D03*
%TD*%
D14*
%TO.P,C3,1*%
%TO.N,+3V3*%
X162880000Y-112000000D03*
%TO.P,C3,2*%
%TO.N,GND*%
X161920000Y-112000000D03*
%TD*%
D25*
%TO.P,D4,1,K*%
%TO.N,GND*%
X145262501Y-117275000D03*
%TO.P,D4,2,A*%
%TO.N,Net-(D4-A)*%
X143687499Y-117275000D03*
%TD*%
D24*
%TO.P,R1,1*%
%TO.N,+3V3*%
X141502501Y-117275000D03*
%TO.P,R1,2*%
%TO.N,Net-(D4-A)*%
X142522501Y-117275000D03*
%TD*%
D26*
%TO.P,U3,1,REG*%
%TO.N,Net-(U3-REG)*%
X158980000Y-113350000D03*
%TO.P,U3,2,SCL*%
%TO.N,/SCL*%
X158980000Y-113850000D03*
%TO.P,U3,3,SDA*%
%TO.N,/SDA*%
X158980000Y-114350000D03*
%TO.P,U3,4,IN/TRIG*%
%TO.N,GND*%
X158980000Y-114850000D03*
%TO.P,U3,5,EN*%
%TO.N,+3V3*%
X158980000Y-115350000D03*
%TO.P,U3,6,VDD/NC*%
%TO.N,unconnected-(U3-VDD{slash}NC-Pad6)*%
X163380000Y-115350000D03*
%TO.P,U3,7,OUT+*%
%TO.N,Net-(U3-OUT+)*%
X163380000Y-114850000D03*
%TO.P,U3,8,GND*%
%TO.N,GND*%
X163380000Y-114350000D03*
%TO.P,U3,9,OUT-*%
%TO.N,Net-(U3-OUT+)*%
X163380000Y-113850000D03*
%TO.P,U3,10,VDD*%
%TO.N,+3V3*%
X163380000Y-113350000D03*
%TD*%
D27*
%TO.P,CN1,1,Pin_1*%
%TO.N,GND*%
X146500001Y-113750001D03*
D19*
%TO.P,CN1,2,Pin_2*%
%TO.N,SDAIN*%
X146500001Y-115750001D03*
%TO.P,CN1,3,Pin_3*%
%TO.N,VSOLAR*%
X144500001Y-113750001D03*
%TO.P,CN1,4,Pin_4*%
%TO.N,+3V3*%
X144500001Y-115750001D03*
%TO.P,CN1,5,Pin_5*%
%TO.N,VSOLAR*%
X142500001Y-113750001D03*
%TO.P,CN1,6,Pin_6*%
%TO.N,SCLIN*%
X142500001Y-115750001D03*
%TD*%
D18*
%TO.P,J11,1,Pin_1*%
%TO.N,/RBF_High*%
X154500000Y-115900000D03*
D19*
%TO.P,J11,2,Pin_2*%
%TO.N,/RBF_Low*%
X154500000Y-113900000D03*
%TO.P,J11,3,Pin_3*%
%TO.N,/RBF_High*%
X156500000Y-115900000D03*
%TO.P,J11,4,Pin_4*%
%TO.N,/RBF_Low*%
X156500000Y-113900000D03*
%TD*%
D28*
%TO.N,GND*%
X160825000Y-112900000D03*
X143800000Y-126000000D03*
X145272182Y-103027818D03*
X111025000Y-117300000D03*
X124699788Y-114808242D03*
X128450000Y-115000000D03*
X140811000Y-114850001D03*
X133000000Y-116800000D03*
X145260000Y-118110000D03*
X125255477Y-118217426D03*
X160750000Y-114500000D03*
%TO.N,+3V3*%
X124300000Y-118512502D03*
X127100000Y-117250000D03*
X145200000Y-125100000D03*
X129800000Y-112650001D03*
X131850000Y-116205000D03*
X143700000Y-102100000D03*
X163300000Y-116900000D03*
X133200000Y-112250000D03*
X143700000Y-103300000D03*
X139800000Y-114850001D03*
X158775000Y-116900000D03*
X145200000Y-126100000D03*
%TO.N,VSOLAR*%
X146400000Y-102600000D03*
X140620000Y-117926393D03*
X124800000Y-113550000D03*
X128350000Y-113700000D03*
X148200000Y-102600000D03*
%TO.N,/SCL*%
X130000000Y-115800000D03*
X124650000Y-116450000D03*
%TO.N,Net-(U3-OUT+)*%
X161890000Y-115330000D03*
X177200000Y-149200000D03*
X161820000Y-113350000D03*
X164800000Y-127190000D03*
X177220000Y-78400000D03*
%TO.N,SCLIN*%
X142300000Y-102100000D03*
X135550000Y-116100000D03*
%TO.N,Net-(U4-READY)*%
X138228388Y-112452586D03*
X137300000Y-116750000D03*
%TO.N,/RBF_Low*%
X153000000Y-117779000D03*
X153100000Y-116800000D03*
%TD*%
%TO.N,GND*%
D29*
X122850500Y-115100000D02*
X124408030Y-115100000D01*
X160750000Y-112975000D02*
X160825000Y-112900000D01*
X128400000Y-115050000D02*
X128450000Y-115000000D01*
X124695000Y-117517500D02*
X124695000Y-117656949D01*
X124408030Y-115100000D02*
X124699788Y-114808242D01*
X140811000Y-114850001D02*
X140930000Y-114731001D01*
X161020000Y-112900000D02*
X161920000Y-112000000D01*
X160125000Y-112200000D02*
X160825000Y-112900000D01*
X122450000Y-115500500D02*
X122850500Y-115100000D01*
X128080000Y-115370000D02*
X128450000Y-115000000D01*
X134300000Y-116780000D02*
X133020000Y-116780000D01*
X160900000Y-114350000D02*
X160750000Y-114500000D01*
X160825000Y-112900000D02*
X161020000Y-112900000D01*
X111825000Y-116500000D02*
X111025000Y-117300000D01*
X128400000Y-115887500D02*
X128400000Y-116600000D01*
X158980000Y-114850000D02*
X160400000Y-114850000D01*
X128400000Y-116600000D02*
X128400000Y-115050000D01*
X127100000Y-115370000D02*
X128080000Y-115370000D01*
X145260000Y-118110000D02*
X145260000Y-117277501D01*
X145260000Y-117277501D02*
X145262501Y-117275000D01*
X160750000Y-114500000D02*
X160750000Y-112975000D01*
X122450000Y-116070000D02*
X122450000Y-115500500D01*
X160400000Y-114850000D02*
X160750000Y-114500000D01*
X124695000Y-114813030D02*
X124699788Y-114808242D01*
X128400000Y-115887500D02*
X128900000Y-115887500D01*
X114000000Y-116500000D02*
X111825000Y-116500000D01*
X163380000Y-114350000D02*
X160900000Y-114350000D01*
X140930000Y-114731001D02*
X140930000Y-113950000D01*
X159980000Y-112200000D02*
X160125000Y-112200000D01*
X133020000Y-116780000D02*
X133000000Y-116800000D01*
X128400000Y-116600000D02*
X128400000Y-117312500D01*
X124695000Y-115437500D02*
X124695000Y-114813030D01*
X124695000Y-117656949D02*
X125255477Y-118217426D01*
%TO.N,+3V3*%
X163400000Y-112800000D02*
X162880000Y-112280000D01*
X139800000Y-114120000D02*
X139970000Y-113950000D01*
X131610000Y-114460001D02*
X129800000Y-112650001D01*
X139800000Y-114850001D02*
X139800000Y-114120000D01*
X128900000Y-117312500D02*
X128900000Y-117800000D01*
X128700000Y-118000000D02*
X127600000Y-118000000D01*
X123545000Y-117077500D02*
X123545000Y-117757502D01*
X163250000Y-116170000D02*
X164130000Y-116170000D01*
X131610000Y-114850000D02*
X131610000Y-114460001D01*
X123545000Y-117077500D02*
X122497500Y-117077500D01*
X127100000Y-117250000D02*
X127100000Y-116330000D01*
X138600000Y-114820000D02*
X139769999Y-114820000D01*
X163230000Y-116970000D02*
X163300000Y-116900000D01*
X158775000Y-116900000D02*
X158775000Y-115555000D01*
X163300000Y-116900000D02*
X163300000Y-116220000D01*
X163300000Y-116220000D02*
X163250000Y-116170000D01*
X158775000Y-115555000D02*
X158980000Y-115350000D01*
X158980000Y-115350000D02*
X160320000Y-115350000D01*
X158980000Y-115350000D02*
X158400000Y-115350000D01*
X164450000Y-113350000D02*
X163380000Y-113350000D01*
X127200000Y-117600000D02*
X127200000Y-117350000D01*
X164600000Y-113500000D02*
X164450000Y-113350000D01*
X133209999Y-112240001D02*
X133200000Y-112250000D01*
X160320000Y-115350000D02*
X161140000Y-116170000D01*
X131560000Y-116495000D02*
X131850000Y-116205000D01*
X128800000Y-117900000D02*
X128700000Y-118000000D01*
X164130000Y-116170000D02*
X164600000Y-115700000D01*
X139209999Y-113000000D02*
X139209999Y-113189999D01*
X123545000Y-117757502D02*
X124300000Y-118512502D01*
X163380000Y-112820000D02*
X163380000Y-113350000D01*
X139209999Y-113189999D02*
X139970000Y-113950000D01*
X164600000Y-115700000D02*
X164600000Y-113500000D01*
X127600000Y-118000000D02*
X127200000Y-117600000D01*
X131560000Y-116800000D02*
X131560000Y-116495000D01*
X134100000Y-112240001D02*
X133209999Y-112240001D01*
X122497500Y-117077500D02*
X122450000Y-117030000D01*
X163400000Y-112800000D02*
X163380000Y-112820000D01*
X128900000Y-117800000D02*
X128800000Y-117900000D01*
X139769999Y-114820000D02*
X139800000Y-114850001D01*
X162880000Y-112280000D02*
X162880000Y-112000000D01*
X127200000Y-117350000D02*
X127100000Y-117250000D01*
X161140000Y-116170000D02*
X163250000Y-116170000D01*
%TO.N,VSOLAR*%
D30*
X126600001Y-113200000D02*
X127850000Y-113200000D01*
X124950000Y-113400000D02*
X124800000Y-113550000D01*
D29*
X114000000Y-113000000D02*
X115507522Y-114507522D01*
X115507522Y-114507522D02*
X123942478Y-114507522D01*
X124800000Y-113650000D02*
X124800000Y-113550000D01*
X123942478Y-114507522D02*
X124800000Y-113650000D01*
D30*
X127850000Y-113200000D02*
X128350000Y-113700000D01*
X126600001Y-113400000D02*
X124950000Y-113400000D01*
%TO.N,Net-(U3-REG)*%
D29*
X158980000Y-113350000D02*
X158980000Y-112240000D01*
X158980000Y-112240000D02*
X159020000Y-112200000D01*
%TO.N,Net-(D1-A)*%
D30*
X122450000Y-88500000D02*
X122450000Y-113250001D01*
X122450000Y-113250001D02*
X122599999Y-113400000D01*
%TO.N,/SCL*%
D29*
X130320000Y-115480000D02*
X130650000Y-115480000D01*
X158185822Y-113850000D02*
X157925000Y-113589178D01*
X136350000Y-112666444D02*
X136350000Y-114165000D01*
X130650000Y-115480000D02*
X134300000Y-115480000D01*
X130650000Y-115300000D02*
X130590000Y-115240000D01*
X130590000Y-115240000D02*
X130590000Y-114850000D01*
X138342444Y-110674000D02*
X136350000Y-112666444D01*
X157925000Y-113589178D02*
X157925000Y-112625000D01*
X129400000Y-115887500D02*
X129912500Y-115887500D01*
X136350000Y-114165000D02*
X135035000Y-115480000D01*
X135035000Y-115480000D02*
X134300000Y-115480000D01*
X124358500Y-116158500D02*
X124650000Y-116450000D01*
X130000000Y-115800000D02*
X130320000Y-115480000D01*
X130650000Y-115480000D02*
X130650000Y-115300000D01*
X123545000Y-115877500D02*
X123826000Y-116158500D01*
X129912500Y-115887500D02*
X130000000Y-115800000D01*
X158980000Y-113850000D02*
X158185822Y-113850000D01*
X157925000Y-112625000D02*
X155974000Y-110674000D01*
X155974000Y-110674000D02*
X138342444Y-110674000D01*
X123826000Y-116158500D02*
X124358500Y-116158500D01*
%TO.N,/SDA*%
X130500000Y-117526000D02*
X130500000Y-117350000D01*
X137196720Y-115480000D02*
X138600000Y-115480000D01*
X130540000Y-117310000D02*
X130540000Y-116800000D01*
X137196720Y-115480000D02*
X137196720Y-112457534D01*
X129613500Y-117526000D02*
X130500000Y-117526000D01*
X125845000Y-117077500D02*
X127267500Y-118500000D01*
X155610694Y-111125000D02*
X157474000Y-112988306D01*
X128900000Y-118500000D02*
X129400000Y-118000000D01*
X137196720Y-112457534D02*
X138529254Y-111125000D01*
X129400000Y-117312500D02*
X129613500Y-117526000D01*
X129400000Y-118000000D02*
X129400000Y-117312500D01*
X130500000Y-117526000D02*
X135150720Y-117526000D01*
X157474000Y-112988306D02*
X157474000Y-113971602D01*
X157852398Y-114350000D02*
X158980000Y-114350000D01*
X135150720Y-117526000D02*
X137196720Y-115480000D01*
X157474000Y-113971602D02*
X157852398Y-114350000D01*
X138529254Y-111125000D02*
X155610694Y-111125000D01*
X127267500Y-118500000D02*
X128900000Y-118500000D01*
X130500000Y-117350000D02*
X130540000Y-117310000D01*
%TO.N,Net-(D4-A)*%
X142522501Y-117275000D02*
X143687499Y-117275000D01*
%TO.N,Net-(SC1--)*%
D30*
X142500000Y-141000000D02*
X166450000Y-117050000D01*
X122425000Y-141000000D02*
X142500000Y-141000000D01*
X166450000Y-117050000D02*
X166450000Y-88500000D01*
%TO.N,Net-(U3-OUT+)*%
D29*
X163380000Y-114850000D02*
X162370000Y-114850000D01*
X162320000Y-113850000D02*
X161820000Y-113350000D01*
X162370000Y-114850000D02*
X161890000Y-115330000D01*
X163380000Y-113850000D02*
X162320000Y-113850000D01*
%TO.N,SCLIN*%
X135035000Y-116130000D02*
X134300000Y-116130000D01*
X135550000Y-116100000D02*
X134330000Y-116100000D01*
X134330000Y-116100000D02*
X134300000Y-116130000D01*
%TO.N,SDAIN*%
X141981903Y-112599001D02*
X141536000Y-113044904D01*
X145574001Y-114824002D02*
X145574001Y-113074001D01*
X141536000Y-113044904D02*
X141536000Y-115614000D01*
X141020000Y-116130000D02*
X138600000Y-116130000D01*
X145574001Y-113074001D02*
X145099001Y-112599001D01*
X146500001Y-115750002D02*
X145574001Y-114824002D01*
X141536000Y-115614000D02*
X141020000Y-116130000D01*
X145099001Y-112599001D02*
X141981903Y-112599001D01*
%TO.N,Net-(U4-EN)*%
X134300000Y-114820000D02*
X134300000Y-113459999D01*
X134300000Y-113459999D02*
X134100000Y-113259999D01*
%TO.N,Net-(U4-READY)*%
X137330000Y-116780000D02*
X137300000Y-116750000D01*
X138600000Y-116780000D02*
X137330000Y-116780000D01*
X138228388Y-112452586D02*
X138190001Y-112490973D01*
X138190001Y-112490973D02*
X138190001Y-113000000D01*
%TO.N,/RBF_High*%
X155510000Y-114910000D02*
X156500000Y-115900000D01*
D30*
X154500000Y-115900000D02*
X156500000Y-115900000D01*
D29*
X155510000Y-112000000D02*
X155510000Y-114910000D01*
%TO.N,Net-(J13-Pin_1)*%
D30*
X149500000Y-113900000D02*
X151500000Y-113900000D01*
D29*
X154490000Y-112000000D02*
X153400000Y-112000000D01*
X153400000Y-112000000D02*
X151500000Y-113900000D01*
%TD*%
%TA.AperFunction,NonConductor*%
G36*
X155055901Y-89219685D02*
G01*
X155101656Y-89272489D01*
X155112862Y-89324000D01*
X155112862Y-97276000D01*
X155093177Y-97343039D01*
X155040373Y-97388794D01*
X154988862Y-97400000D01*
X154900000Y-97400000D01*
X133924000Y-97400000D01*
X133856961Y-97380315D01*
X133811206Y-97327511D01*
X133800000Y-97276000D01*
X133800000Y-89324000D01*
X133819685Y-89256961D01*
X133872489Y-89211206D01*
X133924000Y-89200000D01*
X154988862Y-89200000D01*
X155055901Y-89219685D01*
G37*
%TD.AperFunction*%
%TA.AperFunction,Conductor*%
%TO.N,+3V3*%
G36*
X165685407Y-109522987D02*
G01*
X165729547Y-109541417D01*
X165747728Y-109585143D01*
X165749499Y-109907361D01*
X165749500Y-109907705D01*
X165749500Y-116733955D01*
X165731194Y-116778149D01*
X163027649Y-119481694D01*
X162983455Y-119500000D01*
X123648988Y-119500000D01*
X123604794Y-119481694D01*
X123586492Y-119438183D01*
X123579713Y-118817926D01*
X123574000Y-118295109D01*
X123571580Y-118073683D01*
X123589402Y-118029291D01*
X123633393Y-118010504D01*
X123634076Y-118010500D01*
X123988584Y-118010500D01*
X123988595Y-118010499D01*
X124049629Y-118003937D01*
X124095527Y-118017414D01*
X124108278Y-118031356D01*
X124125447Y-118057052D01*
X124191767Y-118101366D01*
X124191769Y-118101367D01*
X124250252Y-118113000D01*
X124592477Y-118113000D01*
X124636671Y-118131306D01*
X124654977Y-118175500D01*
X124654977Y-118296481D01*
X124654978Y-118296489D01*
X124695898Y-118449206D01*
X124695899Y-118449209D01*
X124695900Y-118449210D01*
X124774957Y-118586142D01*
X124886761Y-118697946D01*
X124995052Y-118760467D01*
X125023693Y-118777003D01*
X125023696Y-118777004D01*
X125104873Y-118798755D01*
X125176420Y-118817926D01*
X125176421Y-118817926D01*
X125334533Y-118817926D01*
X125334534Y-118817926D01*
X125487261Y-118777003D01*
X125624193Y-118697946D01*
X125735997Y-118586142D01*
X125815054Y-118449210D01*
X125855977Y-118296483D01*
X125855977Y-118138369D01*
X125827192Y-118030943D01*
X125815055Y-117985645D01*
X125815054Y-117985642D01*
X125807240Y-117972108D01*
X125735997Y-117848710D01*
X125696981Y-117809694D01*
X125678675Y-117765500D01*
X125696981Y-117721306D01*
X125741175Y-117703000D01*
X125984285Y-117703000D01*
X126028479Y-117721306D01*
X127004847Y-118697673D01*
X127004852Y-118697679D01*
X127007035Y-118699862D01*
X127067638Y-118760465D01*
X127080267Y-118767756D01*
X127096280Y-118777002D01*
X127096282Y-118777002D01*
X127096283Y-118777003D01*
X127141861Y-118803318D01*
X127224647Y-118825500D01*
X127224648Y-118825500D01*
X128942852Y-118825500D01*
X128942853Y-118825500D01*
X129025639Y-118803318D01*
X129099862Y-118760465D01*
X129594715Y-118265609D01*
X129594720Y-118265606D01*
X129599860Y-118260465D01*
X129599862Y-118260465D01*
X129660465Y-118199862D01*
X129684533Y-118158176D01*
X129687607Y-118152852D01*
X129700046Y-118131306D01*
X129703318Y-118125639D01*
X129725500Y-118042853D01*
X129725500Y-117957147D01*
X129725500Y-117914000D01*
X129743806Y-117869806D01*
X129788000Y-117851500D01*
X135193572Y-117851500D01*
X135193573Y-117851500D01*
X135209110Y-117847337D01*
X140019500Y-117847337D01*
X140019500Y-118005448D01*
X140019501Y-118005456D01*
X140060421Y-118158173D01*
X140060422Y-118158176D01*
X140069538Y-118173965D01*
X140139480Y-118295109D01*
X140251284Y-118406913D01*
X140375652Y-118478716D01*
X140388216Y-118485970D01*
X140388219Y-118485971D01*
X140481681Y-118511014D01*
X140540943Y-118526893D01*
X140540944Y-118526893D01*
X140699056Y-118526893D01*
X140699057Y-118526893D01*
X140851784Y-118485970D01*
X140988716Y-118406913D01*
X141100520Y-118295109D01*
X141179577Y-118158177D01*
X141183738Y-118142644D01*
X141212857Y-118104696D01*
X141240443Y-118101063D01*
X141248501Y-118095013D01*
X141248501Y-117529000D01*
X141097731Y-117529000D01*
X141053537Y-117510694D01*
X140988720Y-117445877D01*
X140988716Y-117445873D01*
X140892464Y-117390302D01*
X140851783Y-117366815D01*
X140851780Y-117366814D01*
X140699063Y-117325894D01*
X140699058Y-117325893D01*
X140699057Y-117325893D01*
X140540943Y-117325893D01*
X140540942Y-117325893D01*
X140540936Y-117325894D01*
X140388219Y-117366814D01*
X140388216Y-117366815D01*
X140291964Y-117422386D01*
X140251284Y-117445873D01*
X140251283Y-117445874D01*
X140251279Y-117445877D01*
X140139484Y-117557672D01*
X140139481Y-117557676D01*
X140139480Y-117557677D01*
X140135680Y-117564259D01*
X140060422Y-117694609D01*
X140060421Y-117694612D01*
X140019501Y-117847329D01*
X140019500Y-117847337D01*
X135209110Y-117847337D01*
X135276359Y-117829318D01*
X135350582Y-117786465D01*
X136619994Y-116517053D01*
X136664188Y-116498747D01*
X136708382Y-116517053D01*
X136726688Y-116561247D01*
X136724558Y-116577423D01*
X136699501Y-116670936D01*
X136699500Y-116670944D01*
X136699500Y-116829055D01*
X136699501Y-116829063D01*
X136740421Y-116981780D01*
X136740422Y-116981783D01*
X136748296Y-116995421D01*
X136819480Y-117118716D01*
X136931284Y-117230520D01*
X137068216Y-117309577D01*
X137068219Y-117309578D01*
X137120909Y-117323696D01*
X137220943Y-117350500D01*
X137220944Y-117350500D01*
X137379056Y-117350500D01*
X137379057Y-117350500D01*
X137531784Y-117309577D01*
X137668716Y-117230520D01*
X137744110Y-117155125D01*
X137788302Y-117136819D01*
X137804477Y-117138948D01*
X137829169Y-117145565D01*
X137884900Y-117160499D01*
X137884906Y-117160500D01*
X139315094Y-117160500D01*
X139315099Y-117160499D01*
X139343848Y-117152795D01*
X139411867Y-117134569D01*
X139498632Y-117084476D01*
X139569476Y-117013632D01*
X139619569Y-116926867D01*
X139644828Y-116832602D01*
X139645499Y-116830099D01*
X139645500Y-116830093D01*
X139645500Y-116729906D01*
X139645499Y-116729900D01*
X139629700Y-116670943D01*
X139619569Y-116633133D01*
X139598587Y-116596790D01*
X139571140Y-116549249D01*
X139564897Y-116501823D01*
X139594018Y-116463873D01*
X139625267Y-116455500D01*
X140948760Y-116455500D01*
X140992954Y-116473806D01*
X141011260Y-116518000D01*
X140992954Y-116562194D01*
X140980576Y-116571796D01*
X140970267Y-116577892D01*
X140855393Y-116692767D01*
X140855391Y-116692768D01*
X140772695Y-116832600D01*
X140772694Y-116832602D01*
X140727368Y-116988613D01*
X140727367Y-116988618D01*
X140724819Y-117020999D01*
X140724820Y-117021000D01*
X141248501Y-117021000D01*
X141248501Y-116450859D01*
X141228539Y-116417105D01*
X141240436Y-116370772D01*
X141246222Y-116364105D01*
X141410827Y-116199500D01*
X141593238Y-116017088D01*
X141637431Y-115998783D01*
X141681625Y-116017089D01*
X141697702Y-116051070D01*
X141698902Y-116050832D01*
X141730263Y-116208496D01*
X141790607Y-116354180D01*
X141791205Y-116355075D01*
X141791275Y-116355431D01*
X141792054Y-116356887D01*
X141791612Y-116357123D01*
X141800532Y-116401993D01*
X141776761Y-116439773D01*
X141756501Y-116454985D01*
X141756501Y-118095014D01*
X141894894Y-118054807D01*
X141894899Y-118054805D01*
X142034732Y-117972109D01*
X142034734Y-117972108D01*
X142149607Y-117857234D01*
X142184721Y-117797859D01*
X142222974Y-117769137D01*
X142264932Y-117773029D01*
X142292176Y-117785733D01*
X142299328Y-117789068D01*
X142348185Y-117795500D01*
X142348191Y-117795500D01*
X142696811Y-117795500D01*
X142696817Y-117795500D01*
X142745674Y-117789068D01*
X142852905Y-117739065D01*
X142936566Y-117655404D01*
X142945248Y-117636784D01*
X142980515Y-117604467D01*
X143028305Y-117606554D01*
X143060623Y-117641821D01*
X143063622Y-117653420D01*
X143065046Y-117662414D01*
X143065048Y-117662421D01*
X143095052Y-117721306D01*
X143125341Y-117780751D01*
X143219248Y-117874658D01*
X143337579Y-117934951D01*
X143337582Y-117934951D01*
X143337584Y-117934952D01*
X143435739Y-117950498D01*
X143435745Y-117950498D01*
X143435753Y-117950500D01*
X143435755Y-117950500D01*
X143939243Y-117950500D01*
X143939245Y-117950500D01*
X144037419Y-117934951D01*
X144155750Y-117874658D01*
X144249657Y-117780751D01*
X144309950Y-117662420D01*
X144318964Y-117605505D01*
X144325497Y-117564259D01*
X144325499Y-117564243D01*
X144325499Y-116985756D01*
X144325497Y-116985740D01*
X144309951Y-116887585D01*
X144309950Y-116887583D01*
X144309950Y-116887580D01*
X144309948Y-116887577D01*
X144309948Y-116887575D01*
X144252813Y-116775442D01*
X144246001Y-116747068D01*
X144246001Y-116094101D01*
X144335957Y-116146038D01*
X144444049Y-116175001D01*
X144555953Y-116175001D01*
X144664045Y-116146038D01*
X144754001Y-116094101D01*
X144754001Y-116689703D01*
X144735695Y-116733897D01*
X144700343Y-116769248D01*
X144640050Y-116887578D01*
X144640048Y-116887585D01*
X144624502Y-116985740D01*
X144624501Y-116985756D01*
X144624501Y-117564243D01*
X144624502Y-117564259D01*
X144640048Y-117662414D01*
X144640050Y-117662421D01*
X144700343Y-117780751D01*
X144702156Y-117782564D01*
X144702813Y-117784152D01*
X144703233Y-117784729D01*
X144703094Y-117784829D01*
X144720462Y-117826758D01*
X144712090Y-117858005D01*
X144700425Y-117878211D01*
X144700421Y-117878219D01*
X144659501Y-118030936D01*
X144659500Y-118030944D01*
X144659500Y-118189055D01*
X144659501Y-118189063D01*
X144700421Y-118341780D01*
X144700422Y-118341783D01*
X144700423Y-118341784D01*
X144779480Y-118478716D01*
X144891284Y-118590520D01*
X145028216Y-118669577D01*
X145028219Y-118669578D01*
X145121681Y-118694621D01*
X145180943Y-118710500D01*
X145180944Y-118710500D01*
X145339056Y-118710500D01*
X145339057Y-118710500D01*
X145491784Y-118669577D01*
X145628716Y-118590520D01*
X145740520Y-118478716D01*
X145819577Y-118341784D01*
X145860500Y-118189057D01*
X145860500Y-118030943D01*
X145819577Y-117878216D01*
X145809740Y-117861179D01*
X145803498Y-117813753D01*
X145819674Y-117785735D01*
X145824659Y-117780751D01*
X145884952Y-117662420D01*
X145893966Y-117605505D01*
X145900499Y-117564259D01*
X145900501Y-117564243D01*
X145900501Y-116985756D01*
X145900499Y-116985740D01*
X145884953Y-116887585D01*
X145884951Y-116887578D01*
X145855132Y-116829055D01*
X145824659Y-116769249D01*
X145730752Y-116675342D01*
X145612422Y-116615049D01*
X145612415Y-116615047D01*
X145516944Y-116599926D01*
X145476157Y-116574932D01*
X145464991Y-116528419D01*
X145471033Y-116509821D01*
X145526823Y-116400328D01*
X145526824Y-116400326D01*
X145580716Y-116234462D01*
X145594547Y-116147137D01*
X145619541Y-116106351D01*
X145666055Y-116095183D01*
X145706841Y-116120177D01*
X145717577Y-116144720D01*
X145730263Y-116208497D01*
X145790607Y-116354181D01*
X145878211Y-116485289D01*
X145989712Y-116596790D01*
X146120820Y-116684394D01*
X146120821Y-116684394D01*
X146120822Y-116684395D01*
X146266504Y-116744738D01*
X146421159Y-116775501D01*
X146578843Y-116775501D01*
X146733498Y-116744738D01*
X146879180Y-116684395D01*
X147010290Y-116596790D01*
X147121790Y-116485290D01*
X147209395Y-116354180D01*
X147269738Y-116208498D01*
X147300501Y-116053843D01*
X147300501Y-115446159D01*
X147269738Y-115291504D01*
X147209395Y-115145822D01*
X147202020Y-115134785D01*
X147121790Y-115014712D01*
X147010289Y-114903211D01*
X146976353Y-114880536D01*
X146960212Y-114869751D01*
X146933637Y-114829978D01*
X146942969Y-114783062D01*
X146974292Y-114758792D01*
X147062883Y-114727794D01*
X147172151Y-114647151D01*
X147252794Y-114537883D01*
X147297647Y-114409700D01*
X147300501Y-114379267D01*
X147300501Y-113120735D01*
X147297647Y-113090302D01*
X147252794Y-112962119D01*
X147247276Y-112954643D01*
X147214968Y-112910866D01*
X147172151Y-112852851D01*
X147062883Y-112772208D01*
X147044427Y-112765750D01*
X146934702Y-112727355D01*
X146934697Y-112727354D01*
X146914700Y-112725479D01*
X146904267Y-112724501D01*
X146095735Y-112724501D01*
X146086125Y-112725402D01*
X146065304Y-112727354D01*
X146065299Y-112727355D01*
X145937118Y-112772208D01*
X145862683Y-112827143D01*
X145843667Y-112831858D01*
X145825570Y-112839355D01*
X145821027Y-112837473D01*
X145816254Y-112838657D01*
X145781376Y-112821049D01*
X145773863Y-112813536D01*
X145298868Y-112338540D01*
X145298859Y-112338533D01*
X145224645Y-112295685D01*
X145224636Y-112295681D01*
X145141860Y-112273502D01*
X145141855Y-112273501D01*
X145141854Y-112273501D01*
X142024756Y-112273501D01*
X141939050Y-112273501D01*
X141939049Y-112273501D01*
X141939043Y-112273502D01*
X141856267Y-112295681D01*
X141856258Y-112295685D01*
X141782044Y-112338533D01*
X141782035Y-112338540D01*
X141275539Y-112845036D01*
X141275532Y-112845045D01*
X141232684Y-112919259D01*
X141232682Y-112919263D01*
X141232682Y-112919265D01*
X141221200Y-112962119D01*
X141210500Y-113002046D01*
X141210500Y-113381476D01*
X141192194Y-113425670D01*
X141148000Y-113443976D01*
X141139844Y-113443442D01*
X141109901Y-113439500D01*
X141109894Y-113439500D01*
X140750108Y-113439500D01*
X140750103Y-113439500D01*
X140750100Y-113439501D01*
X140708802Y-113444936D01*
X140662598Y-113432554D01*
X140646852Y-113414786D01*
X140626089Y-113379678D01*
X140510322Y-113263911D01*
X140369394Y-113180568D01*
X140212172Y-113134890D01*
X140175448Y-113132000D01*
X140056499Y-113132000D01*
X140056499Y-113191500D01*
X140038193Y-113235694D01*
X139993999Y-113254000D01*
X139272499Y-113254000D01*
X139228305Y-113235694D01*
X139209999Y-113191500D01*
X139209999Y-113000000D01*
X139018499Y-113000000D01*
X138974305Y-112981694D01*
X138955999Y-112937500D01*
X138955999Y-112746000D01*
X139463999Y-112746000D01*
X139987680Y-112746000D01*
X139987680Y-112745999D01*
X139985132Y-112713618D01*
X139985131Y-112713613D01*
X139939805Y-112557602D01*
X139939804Y-112557600D01*
X139857108Y-112417768D01*
X139742230Y-112302890D01*
X139602398Y-112220194D01*
X139602396Y-112220193D01*
X139463999Y-112179984D01*
X139463999Y-112746000D01*
X138955999Y-112746000D01*
X138955999Y-112179985D01*
X138955998Y-112179984D01*
X138838981Y-112213981D01*
X138791434Y-112208732D01*
X138767419Y-112185214D01*
X138708908Y-112083870D01*
X138597104Y-111972066D01*
X138500852Y-111916495D01*
X138460171Y-111893008D01*
X138460168Y-111893007D01*
X138376557Y-111870604D01*
X138338606Y-111841484D01*
X138332363Y-111794058D01*
X138348537Y-111766042D01*
X138645774Y-111468806D01*
X138689968Y-111450500D01*
X154094142Y-111450500D01*
X154138336Y-111468806D01*
X154156642Y-111513000D01*
X154138336Y-111557194D01*
X154075937Y-111619592D01*
X154075935Y-111619595D01*
X154075935Y-111619596D01*
X154070299Y-111631684D01*
X154067160Y-111638415D01*
X154031891Y-111670731D01*
X154010516Y-111674500D01*
X153446694Y-111674500D01*
X153446678Y-111674499D01*
X153442853Y-111674499D01*
X153357147Y-111674499D01*
X153357141Y-111674499D01*
X153274363Y-111696681D01*
X153274359Y-111696682D01*
X153249620Y-111710966D01*
X153237250Y-111718108D01*
X153213239Y-111731971D01*
X153200136Y-111739536D01*
X153177478Y-111762195D01*
X153139535Y-111800138D01*
X153139533Y-111800140D01*
X151972329Y-112967342D01*
X151928135Y-112985648D01*
X151893414Y-112975116D01*
X151879184Y-112965608D01*
X151879181Y-112965607D01*
X151870760Y-112962119D01*
X151779942Y-112924501D01*
X151733495Y-112905262D01*
X151578842Y-112874500D01*
X151421158Y-112874500D01*
X151266504Y-112905262D01*
X151120819Y-112965606D01*
X150989711Y-113053210D01*
X150878210Y-113164711D01*
X150873526Y-113171723D01*
X150833753Y-113198299D01*
X150821559Y-113199500D01*
X150327715Y-113199500D01*
X150283521Y-113181194D01*
X150268722Y-113157642D01*
X150264586Y-113145822D01*
X150252793Y-113112118D01*
X150172150Y-113002850D01*
X150062882Y-112922207D01*
X150054457Y-112919259D01*
X149934701Y-112877354D01*
X149934696Y-112877353D01*
X149914699Y-112875478D01*
X149904266Y-112874500D01*
X149095734Y-112874500D01*
X149086124Y-112875401D01*
X149065303Y-112877353D01*
X149065298Y-112877354D01*
X148937117Y-112922207D01*
X148937116Y-112922207D01*
X148827850Y-113002850D01*
X148747207Y-113112116D01*
X148747207Y-113112117D01*
X148702354Y-113240298D01*
X148702353Y-113240303D01*
X148699500Y-113270737D01*
X148699500Y-114529262D01*
X148702353Y-114559696D01*
X148702354Y-114559701D01*
X148747207Y-114687882D01*
X148747207Y-114687883D01*
X148787454Y-114742415D01*
X148827850Y-114797150D01*
X148901875Y-114851783D01*
X148937116Y-114877792D01*
X148937117Y-114877792D01*
X148937118Y-114877793D01*
X149016915Y-114905715D01*
X149025706Y-114908791D01*
X149061374Y-114940666D01*
X149064057Y-114988426D01*
X149039787Y-115019751D01*
X148989711Y-115053210D01*
X148878210Y-115164711D01*
X148790606Y-115295819D01*
X148730262Y-115441504D01*
X148699500Y-115596157D01*
X148699500Y-116203842D01*
X148730262Y-116358495D01*
X148790606Y-116504180D01*
X148878210Y-116635288D01*
X148989711Y-116746789D01*
X149120819Y-116834393D01*
X149120820Y-116834393D01*
X149120821Y-116834394D01*
X149266503Y-116894737D01*
X149421158Y-116925500D01*
X149578842Y-116925500D01*
X149733497Y-116894737D01*
X149879179Y-116834394D01*
X150010289Y-116746789D01*
X150121789Y-116635289D01*
X150209394Y-116504179D01*
X150269737Y-116358497D01*
X150300500Y-116203842D01*
X150300500Y-115596158D01*
X150269737Y-115441503D01*
X150209394Y-115295821D01*
X150206509Y-115291504D01*
X150121789Y-115164711D01*
X150010288Y-115053210D01*
X149979284Y-115032494D01*
X149960211Y-115019750D01*
X149933636Y-114979977D01*
X149942968Y-114933061D01*
X149974291Y-114908791D01*
X150062882Y-114877793D01*
X150172150Y-114797150D01*
X150252793Y-114687882D01*
X150268722Y-114642357D01*
X150300597Y-114606690D01*
X150327715Y-114600500D01*
X150821559Y-114600500D01*
X150865753Y-114618806D01*
X150873526Y-114628277D01*
X150878210Y-114635288D01*
X150989711Y-114746789D01*
X151120819Y-114834393D01*
X151120820Y-114834393D01*
X151120821Y-114834394D01*
X151133233Y-114839535D01*
X151139804Y-114842257D01*
X151173629Y-114876082D01*
X151173630Y-114923917D01*
X151139804Y-114957743D01*
X151120822Y-114965605D01*
X151120819Y-114965606D01*
X150989711Y-115053210D01*
X150878210Y-115164711D01*
X150790606Y-115295819D01*
X150730262Y-115441504D01*
X150699500Y-115596157D01*
X150699500Y-116203842D01*
X150730262Y-116358495D01*
X150790606Y-116504180D01*
X150878210Y-116635288D01*
X150989711Y-116746789D01*
X151120819Y-116834393D01*
X151120820Y-116834393D01*
X151120821Y-116834394D01*
X151266503Y-116894737D01*
X151421158Y-116925500D01*
X151578842Y-116925500D01*
X151733497Y-116894737D01*
X151879179Y-116834394D01*
X152010289Y-116746789D01*
X152121789Y-116635289D01*
X152209394Y-116504179D01*
X152269737Y-116358497D01*
X152300500Y-116203842D01*
X152300500Y-115596158D01*
X152269737Y-115441503D01*
X152209394Y-115295821D01*
X152206509Y-115291504D01*
X152121789Y-115164711D01*
X152010288Y-115053210D01*
X151879180Y-114965606D01*
X151879177Y-114965605D01*
X151860196Y-114957743D01*
X151826371Y-114923918D01*
X151826370Y-114876083D01*
X151860196Y-114842257D01*
X151866767Y-114839535D01*
X151879179Y-114834394D01*
X152010289Y-114746789D01*
X152121789Y-114635289D01*
X152209394Y-114504179D01*
X152269737Y-114358497D01*
X152300500Y-114203842D01*
X152300500Y-113596158D01*
X152300500Y-113596157D01*
X152300199Y-113593103D01*
X152302136Y-113592912D01*
X152310297Y-113551738D01*
X152318089Y-113542236D01*
X153516520Y-112343806D01*
X153560714Y-112325500D01*
X154010516Y-112325500D01*
X154054710Y-112343806D01*
X154067158Y-112361583D01*
X154075935Y-112380404D01*
X154075936Y-112380405D01*
X154075937Y-112380407D01*
X154159593Y-112464063D01*
X154159594Y-112464063D01*
X154159596Y-112464065D01*
X154266827Y-112514068D01*
X154315684Y-112520500D01*
X154315690Y-112520500D01*
X154664310Y-112520500D01*
X154664316Y-112520500D01*
X154713173Y-112514068D01*
X154820404Y-112464065D01*
X154904065Y-112380404D01*
X154943356Y-112296143D01*
X154978624Y-112263827D01*
X155026414Y-112265914D01*
X155056643Y-112296143D01*
X155087515Y-112362347D01*
X155095936Y-112380406D01*
X155166194Y-112450663D01*
X155184500Y-112494857D01*
X155184500Y-113076534D01*
X155166194Y-113120728D01*
X155122000Y-113139034D01*
X155077806Y-113120728D01*
X155010288Y-113053210D01*
X154879180Y-112965606D01*
X154733495Y-112905262D01*
X154578842Y-112874500D01*
X154421158Y-112874500D01*
X154266504Y-112905262D01*
X154120819Y-112965606D01*
X153989711Y-113053210D01*
X153878210Y-113164711D01*
X153790606Y-113295819D01*
X153730262Y-113441504D01*
X153699500Y-113596157D01*
X153699500Y-114203842D01*
X153730262Y-114358495D01*
X153790606Y-114504180D01*
X153875534Y-114631283D01*
X153878211Y-114635289D01*
X153989711Y-114746789D01*
X154039787Y-114780249D01*
X154066363Y-114820021D01*
X154057031Y-114866938D01*
X154025707Y-114891208D01*
X153937116Y-114922207D01*
X153827850Y-115002850D01*
X153747207Y-115112116D01*
X153747207Y-115112117D01*
X153702354Y-115240298D01*
X153702353Y-115240303D01*
X153699500Y-115270737D01*
X153699500Y-116404111D01*
X153681194Y-116448305D01*
X153637000Y-116466611D01*
X153592806Y-116448305D01*
X153582874Y-116435362D01*
X153581694Y-116433318D01*
X153580520Y-116431284D01*
X153468716Y-116319480D01*
X153348199Y-116249900D01*
X153331783Y-116240422D01*
X153331780Y-116240421D01*
X153179063Y-116199501D01*
X153179058Y-116199500D01*
X153179057Y-116199500D01*
X153020943Y-116199500D01*
X153020942Y-116199500D01*
X153020936Y-116199501D01*
X152868219Y-116240421D01*
X152868216Y-116240422D01*
X152817887Y-116269480D01*
X152731284Y-116319480D01*
X152731283Y-116319481D01*
X152731279Y-116319484D01*
X152619484Y-116431279D01*
X152619481Y-116431283D01*
X152619480Y-116431284D01*
X152601169Y-116463000D01*
X152540422Y-116568216D01*
X152540421Y-116568219D01*
X152499501Y-116720936D01*
X152499500Y-116720944D01*
X152499500Y-116879055D01*
X152499501Y-116879063D01*
X152540421Y-117031780D01*
X152540422Y-117031783D01*
X152540423Y-117031784D01*
X152619480Y-117168716D01*
X152619484Y-117168720D01*
X152648472Y-117197708D01*
X152666778Y-117241902D01*
X152648472Y-117286096D01*
X152635535Y-117296025D01*
X152631284Y-117298479D01*
X152631278Y-117298484D01*
X152519484Y-117410279D01*
X152519481Y-117410283D01*
X152440422Y-117547216D01*
X152440421Y-117547219D01*
X152399501Y-117699936D01*
X152399500Y-117699944D01*
X152399500Y-117858055D01*
X152399501Y-117858063D01*
X152440421Y-118010780D01*
X152440422Y-118010783D01*
X152452062Y-118030944D01*
X152519480Y-118147716D01*
X152631284Y-118259520D01*
X152768216Y-118338577D01*
X152768219Y-118338578D01*
X152861681Y-118363621D01*
X152920943Y-118379500D01*
X152920944Y-118379500D01*
X153079056Y-118379500D01*
X153079057Y-118379500D01*
X153231784Y-118338577D01*
X153368716Y-118259520D01*
X153480520Y-118147716D01*
X153559577Y-118010784D01*
X153600500Y-117858057D01*
X153600500Y-117699943D01*
X153575477Y-117606554D01*
X153559578Y-117547219D01*
X153559577Y-117547216D01*
X153530321Y-117496543D01*
X153480520Y-117410284D01*
X153451527Y-117381291D01*
X153433221Y-117337097D01*
X153451527Y-117292903D01*
X153464472Y-117282970D01*
X153468716Y-117280520D01*
X153580520Y-117168716D01*
X153659577Y-117031784D01*
X153700500Y-116879057D01*
X153700500Y-116814531D01*
X153718806Y-116770337D01*
X153763000Y-116752031D01*
X153807194Y-116770337D01*
X153813282Y-116777411D01*
X153827850Y-116797150D01*
X153937118Y-116877793D01*
X154065301Y-116922646D01*
X154095734Y-116925500D01*
X154095738Y-116925500D01*
X154904262Y-116925500D01*
X154904266Y-116925500D01*
X154934699Y-116922646D01*
X155062882Y-116877793D01*
X155172150Y-116797150D01*
X155252793Y-116687882D01*
X155268722Y-116642357D01*
X155300597Y-116606690D01*
X155327715Y-116600500D01*
X155821559Y-116600500D01*
X155865753Y-116618806D01*
X155873526Y-116628277D01*
X155878210Y-116635288D01*
X155989711Y-116746789D01*
X156120819Y-116834393D01*
X156120820Y-116834393D01*
X156120821Y-116834394D01*
X156266503Y-116894737D01*
X156421158Y-116925500D01*
X156578842Y-116925500D01*
X156733497Y-116894737D01*
X156879179Y-116834394D01*
X157010289Y-116746789D01*
X157121789Y-116635289D01*
X157209394Y-116504179D01*
X157269737Y-116358497D01*
X157300500Y-116203842D01*
X157300500Y-115596158D01*
X157281373Y-115500000D01*
X157751842Y-115500000D01*
X157762004Y-115577186D01*
X157762006Y-115577193D01*
X157820750Y-115719016D01*
X157914198Y-115840801D01*
X158035983Y-115934249D01*
X158177806Y-115992993D01*
X158177812Y-115992995D01*
X158291781Y-116007999D01*
X158291792Y-116008000D01*
X158830000Y-116008000D01*
X159130000Y-116008000D01*
X159668208Y-116008000D01*
X159668218Y-116007999D01*
X159782187Y-115992995D01*
X159782193Y-115992993D01*
X159924016Y-115934249D01*
X160045801Y-115840801D01*
X160139249Y-115719016D01*
X160197993Y-115577193D01*
X160197995Y-115577186D01*
X160208157Y-115500000D01*
X159130000Y-115500000D01*
X159130000Y-116008000D01*
X158830000Y-116008000D01*
X158830000Y-115500000D01*
X157751842Y-115500000D01*
X157281373Y-115500000D01*
X157269737Y-115441503D01*
X157209394Y-115295821D01*
X157206509Y-115291504D01*
X157121789Y-115164711D01*
X157010288Y-115053210D01*
X156879180Y-114965606D01*
X156879177Y-114965605D01*
X156860196Y-114957743D01*
X156826371Y-114923918D01*
X156826370Y-114876083D01*
X156860196Y-114842257D01*
X156866767Y-114839535D01*
X156879179Y-114834394D01*
X157010289Y-114746789D01*
X157121789Y-114635289D01*
X157209394Y-114504179D01*
X157269737Y-114358497D01*
X157269739Y-114358486D01*
X157269911Y-114357921D01*
X157270041Y-114357762D01*
X157270912Y-114355660D01*
X157271548Y-114355923D01*
X157300245Y-114320933D01*
X157347848Y-114316228D01*
X157373920Y-114331849D01*
X157589745Y-114547673D01*
X157589750Y-114547679D01*
X157591933Y-114549862D01*
X157652536Y-114610465D01*
X157665963Y-114618217D01*
X157720203Y-114649533D01*
X157720206Y-114649534D01*
X157720208Y-114649535D01*
X157726760Y-114653318D01*
X157726762Y-114653319D01*
X157809540Y-114675500D01*
X157809546Y-114675501D01*
X157899076Y-114675501D01*
X157899092Y-114675500D01*
X157969481Y-114675500D01*
X158013675Y-114693806D01*
X158031981Y-114738000D01*
X158013675Y-114782194D01*
X158007528Y-114787585D01*
X157914198Y-114859198D01*
X157820750Y-114980983D01*
X157762006Y-115122806D01*
X157762004Y-115122813D01*
X157751842Y-115199999D01*
X157751843Y-115200000D01*
X158294721Y-115200000D01*
X158300848Y-115200301D01*
X158302856Y-115200497D01*
X158302867Y-115200500D01*
X159657132Y-115200499D01*
X159657134Y-115200498D01*
X159659139Y-115200301D01*
X159665267Y-115200000D01*
X160208157Y-115200000D01*
X160210970Y-115196792D01*
X160253872Y-115175634D01*
X160257961Y-115175500D01*
X160442852Y-115175500D01*
X160442853Y-115175500D01*
X160525639Y-115153318D01*
X160599862Y-115110465D01*
X160599864Y-115110462D01*
X160603111Y-115107972D01*
X160604696Y-115110038D01*
X160641300Y-115094794D01*
X160657597Y-115096923D01*
X160670943Y-115100500D01*
X160829056Y-115100500D01*
X160829057Y-115100500D01*
X160981784Y-115059577D01*
X161118716Y-114980520D01*
X161230520Y-114868716D01*
X161309577Y-114731784D01*
X161311806Y-114723466D01*
X161312246Y-114721824D01*
X161341366Y-114683874D01*
X161372616Y-114675500D01*
X161589374Y-114675500D01*
X161633568Y-114693806D01*
X161651874Y-114738000D01*
X161633568Y-114782194D01*
X161620626Y-114792125D01*
X161521284Y-114849480D01*
X161521283Y-114849481D01*
X161521279Y-114849484D01*
X161409484Y-114961279D01*
X161409481Y-114961283D01*
X161409480Y-114961284D01*
X161393810Y-114988426D01*
X161330422Y-115098216D01*
X161330421Y-115098219D01*
X161289501Y-115250936D01*
X161289500Y-115250944D01*
X161289500Y-115409055D01*
X161289501Y-115409063D01*
X161330421Y-115561780D01*
X161330422Y-115561783D01*
X161330423Y-115561784D01*
X161409480Y-115698716D01*
X161521284Y-115810520D01*
X161639995Y-115879057D01*
X161658216Y-115889577D01*
X161658219Y-115889578D01*
X161683560Y-115896368D01*
X161810943Y-115930500D01*
X161810944Y-115930500D01*
X161969056Y-115930500D01*
X161969057Y-115930500D01*
X162121784Y-115889577D01*
X162258716Y-115810520D01*
X162370520Y-115698716D01*
X162418087Y-115616326D01*
X162456035Y-115587207D01*
X162503461Y-115593450D01*
X162524178Y-115612853D01*
X162531375Y-115623623D01*
X162531376Y-115623624D01*
X162540197Y-115629518D01*
X162622503Y-115684514D01*
X162622505Y-115684515D01*
X162702867Y-115700500D01*
X164057132Y-115700499D01*
X164137495Y-115684515D01*
X164228624Y-115623624D01*
X164289515Y-115532495D01*
X164305500Y-115452133D01*
X164305499Y-115247868D01*
X164289515Y-115167505D01*
X164289514Y-115167503D01*
X164289513Y-115167501D01*
X164267611Y-115134724D01*
X164258278Y-115087808D01*
X164267611Y-115065276D01*
X164289514Y-115032497D01*
X164289515Y-115032494D01*
X164295260Y-115003612D01*
X164305500Y-114952133D01*
X164305499Y-114747868D01*
X164289515Y-114667505D01*
X164289514Y-114667503D01*
X164289513Y-114667501D01*
X164271476Y-114640509D01*
X164267610Y-114634723D01*
X164258278Y-114587808D01*
X164267611Y-114565276D01*
X164289514Y-114532497D01*
X164289515Y-114532494D01*
X164292103Y-114519484D01*
X164305500Y-114452133D01*
X164305499Y-114247868D01*
X164289515Y-114167505D01*
X164289514Y-114167503D01*
X164289513Y-114167501D01*
X164267611Y-114134724D01*
X164258278Y-114087808D01*
X164260998Y-114078212D01*
X164263547Y-114071357D01*
X164289515Y-114032495D01*
X164302749Y-113965958D01*
X164304493Y-113961272D01*
X164314305Y-113950713D01*
X164325025Y-113933475D01*
X164445801Y-113840801D01*
X164539249Y-113719016D01*
X164597993Y-113577193D01*
X164597995Y-113577186D01*
X164608157Y-113500000D01*
X164065279Y-113500000D01*
X164059152Y-113499699D01*
X164057133Y-113499500D01*
X164057132Y-113499500D01*
X163442500Y-113499500D01*
X163398306Y-113481194D01*
X163380000Y-113437000D01*
X163380000Y-113262500D01*
X163398306Y-113218306D01*
X163442500Y-113200000D01*
X164608157Y-113200000D01*
X164608157Y-113199999D01*
X164597995Y-113122813D01*
X164597993Y-113122806D01*
X164539249Y-112980983D01*
X164445801Y-112859198D01*
X164324016Y-112765750D01*
X164182193Y-112707006D01*
X164182187Y-112707004D01*
X164068218Y-112692000D01*
X163565299Y-112692000D01*
X163521105Y-112673694D01*
X163502799Y-112629500D01*
X163521105Y-112585306D01*
X163536088Y-112570322D01*
X163619431Y-112429394D01*
X163665109Y-112272172D01*
X163666539Y-112254000D01*
X162942500Y-112254000D01*
X162898306Y-112235694D01*
X162880000Y-112191500D01*
X162880000Y-112000000D01*
X162688500Y-112000000D01*
X162644306Y-111981694D01*
X162626000Y-111937500D01*
X162626000Y-111746000D01*
X163134000Y-111746000D01*
X163666539Y-111746000D01*
X163666539Y-111745999D01*
X163665109Y-111727827D01*
X163619431Y-111570605D01*
X163536088Y-111429677D01*
X163420322Y-111313911D01*
X163279393Y-111230568D01*
X163134000Y-111188326D01*
X163134000Y-111746000D01*
X162626000Y-111746000D01*
X162626000Y-111188326D01*
X162625999Y-111188326D01*
X162480606Y-111230568D01*
X162339677Y-111313911D01*
X162223910Y-111429678D01*
X162203147Y-111464787D01*
X162164894Y-111493508D01*
X162141194Y-111494936D01*
X162099901Y-111489500D01*
X161740108Y-111489500D01*
X161740106Y-111489500D01*
X161740100Y-111489501D01*
X161690513Y-111496028D01*
X161690511Y-111496028D01*
X161690510Y-111496029D01*
X161581681Y-111546777D01*
X161496777Y-111631681D01*
X161446027Y-111740513D01*
X161439500Y-111790092D01*
X161439500Y-111994284D01*
X161421194Y-112038478D01*
X161130296Y-112329375D01*
X161086102Y-112347681D01*
X161061003Y-112340952D01*
X161060573Y-112341992D01*
X161056783Y-112340422D01*
X160904063Y-112299501D01*
X160904058Y-112299500D01*
X160904057Y-112299500D01*
X160745943Y-112299500D01*
X160745938Y-112299500D01*
X160732594Y-112303076D01*
X160685168Y-112296831D01*
X160672226Y-112286899D01*
X160478805Y-112093478D01*
X160460499Y-112049284D01*
X160460499Y-111890108D01*
X160460499Y-111890100D01*
X160453972Y-111840513D01*
X160403224Y-111731684D01*
X160403222Y-111731682D01*
X160403222Y-111731681D01*
X160318318Y-111646777D01*
X160209486Y-111596027D01*
X160159901Y-111589500D01*
X159800108Y-111589500D01*
X159800106Y-111589500D01*
X159800100Y-111589501D01*
X159750513Y-111596028D01*
X159750511Y-111596028D01*
X159750510Y-111596029D01*
X159641681Y-111646777D01*
X159556775Y-111731683D01*
X159556642Y-111731971D01*
X159556454Y-111732142D01*
X159553643Y-111736159D01*
X159552751Y-111735535D01*
X159521372Y-111764285D01*
X159473582Y-111762195D01*
X159447056Y-111735669D01*
X159446357Y-111736159D01*
X159443581Y-111732194D01*
X159443358Y-111731971D01*
X159443224Y-111731683D01*
X159358318Y-111646777D01*
X159249486Y-111596027D01*
X159199901Y-111589500D01*
X158840108Y-111589500D01*
X158840106Y-111589500D01*
X158840100Y-111589501D01*
X158790513Y-111596028D01*
X158790511Y-111596028D01*
X158790510Y-111596029D01*
X158681681Y-111646777D01*
X158596777Y-111731681D01*
X158546027Y-111840513D01*
X158539500Y-111890092D01*
X158539500Y-112309891D01*
X158539500Y-112309892D01*
X158539501Y-112309900D01*
X158546028Y-112359487D01*
X158596776Y-112468316D01*
X158636194Y-112507734D01*
X158654500Y-112551927D01*
X158654500Y-112937000D01*
X158636194Y-112981194D01*
X158592000Y-112999500D01*
X158313000Y-112999500D01*
X158268806Y-112981194D01*
X158250500Y-112937000D01*
X158250500Y-112672897D01*
X158250501Y-112672884D01*
X158250501Y-112582147D01*
X158250500Y-112582141D01*
X158236968Y-112531643D01*
X158228318Y-112499362D01*
X158225223Y-112494001D01*
X158216851Y-112479499D01*
X158216851Y-112479498D01*
X158185467Y-112425141D01*
X158185464Y-112425137D01*
X158178095Y-112417768D01*
X158124862Y-112364535D01*
X158124859Y-112364533D01*
X158122679Y-112362352D01*
X158122673Y-112362347D01*
X156173867Y-110413539D01*
X156173858Y-110413532D01*
X156099644Y-110370684D01*
X156099635Y-110370680D01*
X156016859Y-110348501D01*
X156016854Y-110348500D01*
X156016853Y-110348500D01*
X138299591Y-110348500D01*
X138299590Y-110348500D01*
X138299584Y-110348501D01*
X138216809Y-110370680D01*
X138216806Y-110370681D01*
X138142580Y-110413536D01*
X138142576Y-110413539D01*
X136089539Y-112466576D01*
X136089532Y-112466585D01*
X136046684Y-112540799D01*
X136046681Y-112540806D01*
X136042570Y-112556150D01*
X136042569Y-112556149D01*
X136024501Y-112623584D01*
X136024500Y-112623592D01*
X136024500Y-114004285D01*
X136006194Y-114048479D01*
X135399847Y-114654825D01*
X135355653Y-114673131D01*
X135311459Y-114654825D01*
X135301526Y-114641881D01*
X135283385Y-114610460D01*
X135269476Y-114586368D01*
X135198632Y-114515524D01*
X135111867Y-114465431D01*
X135111864Y-114465430D01*
X135015099Y-114439500D01*
X135015094Y-114439500D01*
X134688000Y-114439500D01*
X134643806Y-114421194D01*
X134625500Y-114377000D01*
X134625500Y-113509232D01*
X134625500Y-113502855D01*
X134625501Y-113502852D01*
X134625501Y-113417146D01*
X134620848Y-113399781D01*
X134620556Y-113392908D01*
X134620771Y-113392317D01*
X134620500Y-113390254D01*
X134620500Y-113085689D01*
X134620499Y-113085676D01*
X134614068Y-113036826D01*
X134598028Y-113002430D01*
X134595942Y-112954643D01*
X134622859Y-112922221D01*
X134682233Y-112887108D01*
X134797108Y-112772234D01*
X134797109Y-112772232D01*
X134879805Y-112632400D01*
X134879806Y-112632398D01*
X134920015Y-112494001D01*
X133279985Y-112494001D01*
X133320193Y-112632398D01*
X133320194Y-112632400D01*
X133402890Y-112772232D01*
X133517765Y-112887107D01*
X133577140Y-112922221D01*
X133605861Y-112960475D01*
X133601970Y-113002430D01*
X133585933Y-113036823D01*
X133585931Y-113036828D01*
X133579500Y-113085678D01*
X133579500Y-113434321D01*
X133585931Y-113483171D01*
X133635936Y-113590405D01*
X133719593Y-113674062D01*
X133719594Y-113674062D01*
X133719596Y-113674064D01*
X133826827Y-113724067D01*
X133875684Y-113730499D01*
X133912000Y-113730499D01*
X133956194Y-113748805D01*
X133974500Y-113792999D01*
X133974500Y-114377000D01*
X133956194Y-114421194D01*
X133912000Y-114439500D01*
X133584900Y-114439500D01*
X133488135Y-114465430D01*
X133488133Y-114465431D01*
X133401367Y-114515524D01*
X133330524Y-114586367D01*
X133280431Y-114673133D01*
X133280430Y-114673135D01*
X133254500Y-114769900D01*
X133254500Y-114870099D01*
X133278935Y-114961284D01*
X133280431Y-114966867D01*
X133308054Y-115014712D01*
X133330527Y-115053638D01*
X133330770Y-115053954D01*
X133330821Y-115054147D01*
X133332572Y-115057179D01*
X133331759Y-115057647D01*
X133343150Y-115100159D01*
X133319231Y-115141585D01*
X133281185Y-115154500D01*
X132419532Y-115154500D01*
X132375338Y-115136194D01*
X132357032Y-115092000D01*
X132359514Y-115074563D01*
X132385132Y-114986386D01*
X132385133Y-114986381D01*
X132387681Y-114954000D01*
X131672500Y-114954000D01*
X131628306Y-114935694D01*
X131610000Y-114891500D01*
X131610000Y-114700000D01*
X131418500Y-114700000D01*
X131374306Y-114681694D01*
X131356000Y-114637500D01*
X131356000Y-114446000D01*
X131864000Y-114446000D01*
X132387681Y-114446000D01*
X132387681Y-114445999D01*
X132385133Y-114413618D01*
X132385132Y-114413613D01*
X132339806Y-114257602D01*
X132339805Y-114257600D01*
X132257109Y-114117768D01*
X132142231Y-114002890D01*
X132002399Y-113920194D01*
X132002397Y-113920193D01*
X131864000Y-113879984D01*
X131864000Y-114446000D01*
X131356000Y-114446000D01*
X131356000Y-113879985D01*
X131355999Y-113879984D01*
X131217602Y-113920193D01*
X131217600Y-113920194D01*
X131077768Y-114002890D01*
X131077767Y-114002892D01*
X130962892Y-114117766D01*
X130927777Y-114177142D01*
X130889523Y-114205863D01*
X130847568Y-114201970D01*
X130813175Y-114185932D01*
X130813172Y-114185931D01*
X130764322Y-114179500D01*
X130764316Y-114179500D01*
X130415684Y-114179500D01*
X130415677Y-114179500D01*
X130366827Y-114185931D01*
X130259593Y-114235936D01*
X130175936Y-114319593D01*
X130125931Y-114426827D01*
X130119500Y-114475677D01*
X130119500Y-114924322D01*
X130125931Y-114973172D01*
X130175936Y-115080406D01*
X130186121Y-115090591D01*
X130189352Y-115098392D01*
X130196053Y-115103534D01*
X130198183Y-115119711D01*
X130204427Y-115134785D01*
X130201195Y-115142586D01*
X130202298Y-115150960D01*
X130192364Y-115163905D01*
X130186121Y-115178979D01*
X130173178Y-115188911D01*
X130153238Y-115200424D01*
X130105812Y-115206669D01*
X130105810Y-115206667D01*
X130079063Y-115199501D01*
X130079058Y-115199500D01*
X130079057Y-115199500D01*
X129920943Y-115199500D01*
X129920942Y-115199500D01*
X129920936Y-115199501D01*
X129768219Y-115240421D01*
X129768216Y-115240422D01*
X129631283Y-115319480D01*
X129614711Y-115336052D01*
X129570516Y-115354357D01*
X129558278Y-115352722D01*
X129554580Y-115352293D01*
X129530505Y-115349500D01*
X129530503Y-115349500D01*
X129269496Y-115349500D01*
X129245418Y-115352293D01*
X129175244Y-115383278D01*
X129128323Y-115384724D01*
X129126516Y-115384055D01*
X129054580Y-115352293D01*
X129034231Y-115349932D01*
X129027202Y-115347333D01*
X129014731Y-115335787D01*
X128999885Y-115327518D01*
X128997770Y-115320085D01*
X128992100Y-115314836D01*
X128991445Y-115297856D01*
X128986794Y-115281509D01*
X128990395Y-115270626D01*
X128990257Y-115267036D01*
X128992321Y-115264806D01*
X128994752Y-115257461D01*
X128998516Y-115250943D01*
X129009577Y-115231784D01*
X129050500Y-115079057D01*
X129050500Y-114920943D01*
X129023458Y-114820021D01*
X129009578Y-114768219D01*
X129009577Y-114768216D01*
X128999754Y-114751202D01*
X128930520Y-114631284D01*
X128818716Y-114519480D01*
X128691444Y-114446000D01*
X128681783Y-114440422D01*
X128678000Y-114438856D01*
X128678806Y-114436909D01*
X128646294Y-114411956D01*
X128640057Y-114364529D01*
X128669182Y-114326582D01*
X128676500Y-114322974D01*
X128681811Y-114320775D01*
X128796543Y-114244114D01*
X128894114Y-114146543D01*
X128970775Y-114031811D01*
X129023580Y-113904329D01*
X129050500Y-113768994D01*
X129050500Y-113631006D01*
X129023580Y-113495672D01*
X128970775Y-113368189D01*
X128945545Y-113330430D01*
X128894114Y-113253457D01*
X128296542Y-112655885D01*
X128181812Y-112579225D01*
X128181804Y-112579221D01*
X128089083Y-112540815D01*
X128055259Y-112506991D01*
X128050501Y-112483073D01*
X128050501Y-112330252D01*
X128038868Y-112271769D01*
X128034956Y-112265914D01*
X127994553Y-112205447D01*
X127928233Y-112161133D01*
X127928231Y-112161132D01*
X127869749Y-112149500D01*
X125330253Y-112149500D01*
X125271770Y-112161132D01*
X125271768Y-112161133D01*
X125205448Y-112205447D01*
X125161134Y-112271767D01*
X125161133Y-112271769D01*
X125149501Y-112330251D01*
X125149501Y-112637000D01*
X125131195Y-112681194D01*
X125087001Y-112699500D01*
X124881006Y-112699500D01*
X124745675Y-112726419D01*
X124745673Y-112726419D01*
X124745672Y-112726420D01*
X124743415Y-112727355D01*
X124618190Y-112779224D01*
X124618187Y-112779225D01*
X124503457Y-112855885D01*
X124255885Y-113103457D01*
X124179225Y-113218187D01*
X124179221Y-113218195D01*
X124170741Y-113238669D01*
X124136916Y-113272494D01*
X124089081Y-113272493D01*
X124055256Y-113238668D01*
X124050499Y-113214751D01*
X124050499Y-112330252D01*
X124038866Y-112271769D01*
X124034954Y-112265914D01*
X123994551Y-112205447D01*
X123928231Y-112161133D01*
X123928229Y-112161132D01*
X123869747Y-112149500D01*
X123568655Y-112149500D01*
X123546859Y-112140471D01*
X123524947Y-112131675D01*
X123524801Y-112131335D01*
X123524461Y-112131194D01*
X123506159Y-112087683D01*
X123505048Y-111986000D01*
X133279984Y-111986000D01*
X133279986Y-111986001D01*
X133846000Y-111986001D01*
X134354000Y-111986001D01*
X134920014Y-111986001D01*
X134920015Y-111986000D01*
X134879806Y-111847603D01*
X134879805Y-111847601D01*
X134797109Y-111707769D01*
X134682231Y-111592891D01*
X134542399Y-111510195D01*
X134542397Y-111510194D01*
X134386386Y-111464868D01*
X134386381Y-111464867D01*
X134354000Y-111462319D01*
X134354000Y-111986001D01*
X133846000Y-111986001D01*
X133846000Y-111462320D01*
X133845999Y-111462319D01*
X133813618Y-111464867D01*
X133813613Y-111464868D01*
X133657602Y-111510194D01*
X133657600Y-111510195D01*
X133517768Y-111592891D01*
X133517767Y-111592893D01*
X133402892Y-111707768D01*
X133402890Y-111707769D01*
X133320194Y-111847601D01*
X133320193Y-111847603D01*
X133279984Y-111986000D01*
X123505048Y-111986000D01*
X123477526Y-109467782D01*
X123495348Y-109423392D01*
X123539339Y-109404605D01*
X123540065Y-109404601D01*
X165685407Y-109522987D01*
G37*
%TD.AperFunction*%
%TA.AperFunction,Conductor*%
G36*
X128006194Y-115713806D02*
G01*
X128024500Y-115758000D01*
X128024500Y-116180503D01*
X128027293Y-116204582D01*
X128069174Y-116299430D01*
X128074500Y-116324676D01*
X128074500Y-116875323D01*
X128069175Y-116900566D01*
X128027295Y-116995417D01*
X128027293Y-116995421D01*
X128024500Y-117019496D01*
X128024500Y-117605503D01*
X128027293Y-117629582D01*
X128058362Y-117699944D01*
X128070785Y-117728079D01*
X128146921Y-117804215D01*
X128245420Y-117847707D01*
X128257907Y-117849155D01*
X128299697Y-117872431D01*
X128300290Y-117873191D01*
X128387785Y-117987217D01*
X128485785Y-118062415D01*
X128509703Y-118103842D01*
X128497323Y-118150047D01*
X128455896Y-118173965D01*
X128447738Y-118174500D01*
X127428214Y-118174500D01*
X127384020Y-118156194D01*
X126458806Y-117230979D01*
X126440500Y-117186785D01*
X126440500Y-117042923D01*
X126458806Y-116998729D01*
X126503000Y-116980423D01*
X126534815Y-116989127D01*
X126670600Y-117069429D01*
X126670605Y-117069431D01*
X126827828Y-117115109D01*
X126827826Y-117115109D01*
X126845999Y-117116539D01*
X126846000Y-117116539D01*
X127354000Y-117116539D01*
X127372172Y-117115109D01*
X127529394Y-117069431D01*
X127670322Y-116986088D01*
X127786088Y-116870322D01*
X127869431Y-116729394D01*
X127911673Y-116584000D01*
X127354000Y-116584000D01*
X127354000Y-117116539D01*
X126846000Y-117116539D01*
X126846000Y-116392500D01*
X126864306Y-116348306D01*
X126908500Y-116330000D01*
X127100000Y-116330000D01*
X127100000Y-116138500D01*
X127118306Y-116094306D01*
X127162500Y-116076000D01*
X127899500Y-116076000D01*
X127899500Y-116034101D01*
X127869431Y-115930605D01*
X127786170Y-115789815D01*
X127779431Y-115742456D01*
X127808152Y-115704203D01*
X127839967Y-115695500D01*
X127962000Y-115695500D01*
X128006194Y-115713806D01*
G37*
%TD.AperFunction*%
%TA.AperFunction,Conductor*%
G36*
X133318927Y-115823806D02*
G01*
X133337233Y-115868000D01*
X133328860Y-115899249D01*
X133280432Y-115983130D01*
X133280430Y-115983135D01*
X133254500Y-116079900D01*
X133254500Y-116165058D01*
X133236194Y-116209252D01*
X133192000Y-116227558D01*
X133175824Y-116225428D01*
X133079063Y-116199501D01*
X133079058Y-116199500D01*
X133079057Y-116199500D01*
X132920943Y-116199500D01*
X132920942Y-116199500D01*
X132920936Y-116199501D01*
X132768219Y-116240421D01*
X132768216Y-116240422D01*
X132717887Y-116269480D01*
X132631284Y-116319480D01*
X132631283Y-116319481D01*
X132631279Y-116319484D01*
X132519484Y-116431279D01*
X132519477Y-116431288D01*
X132452185Y-116547841D01*
X132414235Y-116576961D01*
X132366809Y-116570717D01*
X132337689Y-116532767D01*
X132335751Y-116521490D01*
X132335131Y-116513611D01*
X132289806Y-116357602D01*
X132289805Y-116357600D01*
X132207109Y-116217768D01*
X132092231Y-116102890D01*
X131952399Y-116020194D01*
X131952397Y-116020193D01*
X131814000Y-115979984D01*
X131814000Y-116737500D01*
X131795694Y-116781694D01*
X131751500Y-116800000D01*
X131368500Y-116800000D01*
X131324306Y-116781694D01*
X131306000Y-116737500D01*
X131306000Y-115979985D01*
X131305999Y-115979984D01*
X131167602Y-116020193D01*
X131167600Y-116020194D01*
X131027768Y-116102890D01*
X131027767Y-116102892D01*
X130912892Y-116217766D01*
X130877777Y-116277142D01*
X130839523Y-116305863D01*
X130797568Y-116301970D01*
X130763175Y-116285932D01*
X130763172Y-116285931D01*
X130714322Y-116279500D01*
X130714316Y-116279500D01*
X130520624Y-116279500D01*
X130476430Y-116261194D01*
X130458124Y-116217000D01*
X130476430Y-116172806D01*
X130480520Y-116168716D01*
X130559577Y-116031784D01*
X130600500Y-115879057D01*
X130600500Y-115868000D01*
X130618806Y-115823806D01*
X130663000Y-115805500D01*
X130692853Y-115805500D01*
X133274733Y-115805500D01*
X133318927Y-115823806D01*
G37*
%TD.AperFunction*%
%TA.AperFunction,Conductor*%
G36*
X137630213Y-112572720D02*
G01*
X137646406Y-112600755D01*
X137668809Y-112684366D01*
X137668810Y-112684369D01*
X137677546Y-112699500D01*
X137711128Y-112757668D01*
X137719501Y-112788915D01*
X137719501Y-113224322D01*
X137725932Y-113273172D01*
X137759740Y-113345672D01*
X137775597Y-113379678D01*
X137775937Y-113380406D01*
X137859594Y-113464063D01*
X137859595Y-113464063D01*
X137859597Y-113464065D01*
X137966828Y-113514068D01*
X138015685Y-113520500D01*
X138015691Y-113520500D01*
X138364311Y-113520500D01*
X138364317Y-113520500D01*
X138413174Y-113514068D01*
X138447569Y-113498028D01*
X138495356Y-113495942D01*
X138527778Y-113522858D01*
X138562892Y-113582234D01*
X138677767Y-113697109D01*
X138817599Y-113779805D01*
X138817601Y-113779806D01*
X138973614Y-113825132D01*
X139010047Y-113828000D01*
X139113500Y-113828000D01*
X139113500Y-113758500D01*
X139131806Y-113714306D01*
X139176000Y-113696000D01*
X139907500Y-113696000D01*
X139951694Y-113714306D01*
X139970000Y-113758500D01*
X139970000Y-113950000D01*
X140161500Y-113950000D01*
X140205694Y-113968306D01*
X140224000Y-114012500D01*
X140224000Y-114712333D01*
X140221870Y-114728510D01*
X140210500Y-114770939D01*
X140210500Y-114929056D01*
X140210501Y-114929064D01*
X140251421Y-115081781D01*
X140251422Y-115081784D01*
X140269825Y-115113659D01*
X140330480Y-115218717D01*
X140442284Y-115330521D01*
X140552970Y-115394425D01*
X140579216Y-115409578D01*
X140579219Y-115409579D01*
X140642799Y-115426615D01*
X140731943Y-115450501D01*
X140731944Y-115450501D01*
X140890056Y-115450501D01*
X140890057Y-115450501D01*
X141042784Y-115409578D01*
X141116752Y-115366872D01*
X141132927Y-115364743D01*
X141148000Y-115358500D01*
X141155803Y-115361732D01*
X141164176Y-115360630D01*
X141177120Y-115370562D01*
X141192194Y-115376806D01*
X141195425Y-115384608D01*
X141202127Y-115389750D01*
X141210500Y-115421000D01*
X141210500Y-115453285D01*
X141192194Y-115497479D01*
X140903479Y-115786194D01*
X140859285Y-115804500D01*
X139625267Y-115804500D01*
X139581073Y-115786194D01*
X139562767Y-115742000D01*
X139571140Y-115710751D01*
X139604396Y-115653147D01*
X139619569Y-115626867D01*
X139640193Y-115549900D01*
X139645499Y-115530099D01*
X139645500Y-115530093D01*
X139645500Y-115426615D01*
X139663806Y-115382421D01*
X139673278Y-115374648D01*
X139703569Y-115354408D01*
X139703575Y-115354403D01*
X139799405Y-115258573D01*
X139874696Y-115145892D01*
X139874697Y-115145890D01*
X139926561Y-115020680D01*
X139930675Y-115000000D01*
X138662500Y-115000000D01*
X138618306Y-114981694D01*
X138600000Y-114937500D01*
X138600000Y-114820000D01*
X138482500Y-114820000D01*
X138438306Y-114801694D01*
X138420000Y-114757500D01*
X138420000Y-114640000D01*
X138780000Y-114640000D01*
X139716000Y-114640000D01*
X139716000Y-114204000D01*
X139176000Y-114204000D01*
X139131806Y-114185694D01*
X139113500Y-114141500D01*
X139113500Y-114132000D01*
X138780000Y-114132000D01*
X138780000Y-114640000D01*
X138420000Y-114640000D01*
X138420000Y-114132000D01*
X137867238Y-114132000D01*
X137734322Y-114158438D01*
X137608638Y-114210498D01*
X137560802Y-114210497D01*
X137526977Y-114176673D01*
X137522220Y-114152755D01*
X137522220Y-112618248D01*
X137540509Y-112574071D01*
X137541105Y-112573475D01*
X137541826Y-112572753D01*
X137586012Y-112554431D01*
X137630213Y-112572720D01*
G37*
%TD.AperFunction*%
%TD*%
M02*
