%TF.GenerationSoftware,KiCad,Pcbnew,9.0.0*%
%TF.CreationDate,2025-04-09T20:41:04-07:00*%
%TF.ProjectId,xy_faces_v2,78795f66-6163-4657-935f-76322e6b6963,3.0*%
%TF.SameCoordinates,Original*%
%TF.FileFunction,Copper,L1,Top*%
%TF.FilePolarity,Positive*%
%FSLAX46Y46*%
G04 Gerber Fmt 4.6, Leading zero omitted, Abs format (unit mm)*
G04 Created by KiCad (PCBNEW 9.0.0) date 2025-04-09 20:41:04*
%MOMM*%
%LPD*%
G01*
G04 APERTURE LIST*
G04 Aperture macros list*
%AMRoundRect*
0 Rectangle with rounded corners*
0 $1 Rounding radius*
0 $2 $3 $4 $5 $6 $7 $8 $9 X,Y pos of 4 corners*
0 Add a 4 corners polygon primitive as box body*
4,1,4,$2,$3,$4,$5,$6,$7,$8,$9,$2,$3,0*
0 Add four circle primitives for the rounded corners*
1,1,$1+$1,$2,$3*
1,1,$1+$1,$4,$5*
1,1,$1+$1,$6,$7*
1,1,$1+$1,$8,$9*
0 Add four rect primitives between the rounded corners*
20,1,$1+$1,$2,$3,$4,$5,0*
20,1,$1+$1,$4,$5,$6,$7,0*
20,1,$1+$1,$6,$7,$8,$9,0*
20,1,$1+$1,$8,$9,$2,$3,0*%
G04 Aperture macros list end*
%TA.AperFunction,ComponentPad*%
%ADD10C,5.250000*%
%TD*%
%TA.AperFunction,SMDPad,CuDef*%
%ADD11RoundRect,0.100000X0.687500X0.100000X-0.687500X0.100000X-0.687500X-0.100000X0.687500X-0.100000X0*%
%TD*%
%TA.AperFunction,HeatsinkPad*%
%ADD12C,0.500000*%
%TD*%
%TA.AperFunction,HeatsinkPad*%
%ADD13R,1.500000X1.800000*%
%TD*%
%TA.AperFunction,SMDPad,CuDef*%
%ADD14R,13.000000X3.000000*%
%TD*%
%TA.AperFunction,SMDPad,CuDef*%
%ADD15RoundRect,0.750000X0.750000X-0.750000X0.750000X0.750000X-0.750000X0.750000X-0.750000X-0.750000X0*%
%TD*%
%TA.AperFunction,SMDPad,CuDef*%
%ADD16R,2.500000X1.700000*%
%TD*%
%TA.AperFunction,SMDPad,CuDef*%
%ADD17RoundRect,0.250000X-0.250000X-0.475000X0.250000X-0.475000X0.250000X0.475000X-0.250000X0.475000X0*%
%TD*%
%TA.AperFunction,SMDPad,CuDef*%
%ADD18RoundRect,0.250000X0.250000X0.475000X-0.250000X0.475000X-0.250000X-0.475000X0.250000X-0.475000X0*%
%TD*%
%TA.AperFunction,SMDPad,CuDef*%
%ADD19R,1.600000X0.700000*%
%TD*%
%TA.AperFunction,SMDPad,CuDef*%
%ADD20RoundRect,0.200000X0.200000X0.275000X-0.200000X0.275000X-0.200000X-0.275000X0.200000X-0.275000X0*%
%TD*%
%TA.AperFunction,SMDPad,CuDef*%
%ADD21RoundRect,0.218750X-0.218750X-0.256250X0.218750X-0.256250X0.218750X0.256250X-0.218750X0.256250X0*%
%TD*%
%TA.AperFunction,SMDPad,CuDef*%
%ADD22RoundRect,0.075000X-0.650000X-0.075000X0.650000X-0.075000X0.650000X0.075000X-0.650000X0.075000X0*%
%TD*%
%TA.AperFunction,ViaPad*%
%ADD23C,0.800000*%
%TD*%
%TA.AperFunction,Conductor*%
%ADD24C,0.250000*%
%TD*%
%TA.AperFunction,Conductor*%
%ADD25C,0.500000*%
%TD*%
G04 APERTURE END LIST*
D10*
%TO.P,J2,1,Pin_1*%
%TO.N,unconnected-(J2-Pin_1-Pad1)*%
X106500000Y-70300000D03*
%TD*%
%TO.P,J3,1,Pin_1*%
%TO.N,unconnected-(J3-Pin_1-Pad1)*%
X106500000Y-159300000D03*
%TD*%
%TO.P,J4,1,Pin_1*%
%TO.N,unconnected-(J4-Pin_1-Pad1)*%
X182500000Y-70300000D03*
%TD*%
%TO.P,J5,1,Pin_1*%
%TO.N,unconnected-(J5-Pin_1-Pad1)*%
X182500000Y-159300000D03*
%TD*%
D11*
%TO.P,U2,1,SDA*%
%TO.N,SDA*%
X155937500Y-115395000D03*
%TO.P,U2,2,SCL*%
%TO.N,SCL*%
X155937500Y-114745000D03*
%TO.P,U2,3,Alert*%
%TO.N,unconnected-(U2-Alert-Pad3)*%
X155937500Y-114095000D03*
%TO.P,U2,4,GND*%
%TO.N,GND*%
X155937500Y-113445000D03*
%TO.P,U2,5,A2*%
X151712500Y-113445000D03*
%TO.P,U2,6,A1*%
%TO.N,+3V3*%
X151712500Y-114095000D03*
%TO.P,U2,7,A0*%
X151712500Y-114745000D03*
%TO.P,U2,8,VDD*%
X151712500Y-115395000D03*
D12*
%TO.P,U2,9,EP/GND*%
%TO.N,GND*%
X154375000Y-115070000D03*
X154375000Y-113770000D03*
D13*
X153825000Y-114420000D03*
D12*
X153275000Y-115070000D03*
X153275000Y-113770000D03*
%TD*%
D14*
%TO.P,SC5,1,+*%
%TO.N,Net-(D3-A)*%
X167860000Y-67570000D03*
%TO.P,SC5,2,-*%
%TO.N,Net-(SC5--)*%
X167860000Y-107570000D03*
%TD*%
D15*
%TO.P,TP1,1,1*%
%TO.N,VSOLAR*%
X118370000Y-112450000D03*
%TD*%
D16*
%TO.P,D3,1,K*%
%TO.N,VSOLAR*%
X126400000Y-118000000D03*
%TO.P,D3,2,A*%
%TO.N,Net-(D3-A)*%
X130400000Y-118000000D03*
%TD*%
D15*
%TO.P,TP2,1,1*%
%TO.N,GND*%
X118360000Y-117050000D03*
%TD*%
D16*
%TO.P,D1,1,K*%
%TO.N,VSOLAR*%
X126360000Y-111540000D03*
%TO.P,D1,2,A*%
%TO.N,Net-(D1-A)*%
X130360000Y-111540000D03*
%TD*%
D14*
%TO.P,SC3,1,+*%
%TO.N,Net-(D2-A)*%
X144490000Y-67570000D03*
%TO.P,SC3,2,-*%
%TO.N,Net-(SC3--)*%
X144490000Y-107570000D03*
%TD*%
%TO.P,SC4,1,+*%
%TO.N,Net-(SC3--)*%
X144450000Y-121940000D03*
%TO.P,SC4,2,-*%
%TO.N,GND*%
X144450000Y-161940000D03*
%TD*%
%TO.P,SC2,1,+*%
%TO.N,Net-(SC1--)*%
X121120000Y-121920000D03*
%TO.P,SC2,2,-*%
%TO.N,GND*%
X121120000Y-161920000D03*
%TD*%
D16*
%TO.P,D2,1,K*%
%TO.N,VSOLAR*%
X126360000Y-114750000D03*
%TO.P,D2,2,A*%
%TO.N,Net-(D2-A)*%
X130360000Y-114750000D03*
%TD*%
D14*
%TO.P,SC6,1,+*%
%TO.N,Net-(SC5--)*%
X167850000Y-121950000D03*
%TO.P,SC6,2,-*%
%TO.N,GND*%
X167850000Y-161950000D03*
%TD*%
D17*
%TO.P,C2,1*%
%TO.N,+3V3*%
X152450000Y-117200000D03*
%TO.P,C2,2*%
%TO.N,GND*%
X154350000Y-117200000D03*
%TD*%
D18*
%TO.P,C5,1*%
%TO.N,Net-(U3-REG)*%
X159050000Y-111500000D03*
%TO.P,C5,2*%
%TO.N,GND*%
X157150000Y-111500000D03*
%TD*%
D19*
%TO.P,U1,1,SCL*%
%TO.N,SCL*%
X148075000Y-115430000D03*
%TO.P,U1,2,VDD*%
%TO.N,+3V3*%
X148075000Y-114160000D03*
%TO.P,U1,3,GND*%
%TO.N,GND*%
X148075000Y-112890000D03*
%TO.P,U1,4,SDA*%
%TO.N,SDA*%
X148075000Y-111620000D03*
%TD*%
D20*
%TO.P,R3,1*%
%TO.N,+3V3*%
X161990000Y-116970000D03*
%TO.P,R3,2*%
%TO.N,Net-(U3-EN)*%
X160340000Y-116970000D03*
%TD*%
D18*
%TO.P,C3,1*%
%TO.N,Net-(U3-EN)*%
X163349999Y-111500000D03*
%TO.P,C3,2*%
%TO.N,GND*%
X161450001Y-111500000D03*
%TD*%
D21*
%TO.P,D4,1,K*%
%TO.N,GND*%
X137912500Y-111525000D03*
%TO.P,D4,2,A*%
%TO.N,Net-(D4-A)*%
X139487500Y-111525000D03*
%TD*%
D14*
%TO.P,SC1,1,+*%
%TO.N,Net-(D1-A)*%
X121090000Y-67570000D03*
%TO.P,SC1,2,-*%
%TO.N,Net-(SC1--)*%
X121090000Y-107570000D03*
%TD*%
D20*
%TO.P,R1,1*%
%TO.N,+3V3*%
X142725000Y-111550000D03*
%TO.P,R1,2*%
%TO.N,Net-(D4-A)*%
X141075000Y-111550000D03*
%TD*%
D22*
%TO.P,U3,1,REG*%
%TO.N,Net-(U3-REG)*%
X158980000Y-113350000D03*
%TO.P,U3,2,SCL*%
%TO.N,SCL*%
X158980000Y-113850000D03*
%TO.P,U3,3,SDA*%
%TO.N,SDA*%
X158980000Y-114350000D03*
%TO.P,U3,4,IN/TRIG*%
%TO.N,GND*%
X158980000Y-114850000D03*
%TO.P,U3,5,EN*%
%TO.N,Net-(U3-EN)*%
X158980000Y-115350000D03*
%TO.P,U3,6,VDD/NC*%
%TO.N,unconnected-(U3-VDD{slash}NC-Pad6)*%
X163380000Y-115350000D03*
%TO.P,U3,7,OUT+*%
%TO.N,Net-(U3-OUT+)*%
X163380000Y-114850000D03*
%TO.P,U3,8,GND*%
%TO.N,GND*%
X163380000Y-114350000D03*
%TO.P,U3,9,OUT-*%
%TO.N,Net-(U3-OUT+)*%
X163380000Y-113850000D03*
%TO.P,U3,10,VDD*%
%TO.N,Net-(U3-EN)*%
X163380000Y-113350000D03*
%TD*%
D23*
%TO.N,+3V3*%
X143500000Y-117500000D03*
%TO.N,GND*%
X151000000Y-119500000D03*
X141000000Y-117000000D03*
X143000000Y-119425000D03*
X150000000Y-131000000D03*
X139500000Y-129500000D03*
X143000000Y-127000000D03*
X168000000Y-156390000D03*
X160825000Y-112900000D03*
X157100000Y-110000000D03*
X144450000Y-156250000D03*
X153400000Y-116000000D03*
X149675000Y-112100000D03*
X121120000Y-156220000D03*
X124150000Y-116450000D03*
X137912500Y-112600000D03*
X160750000Y-114500000D03*
%TO.N,+3V3*%
X143600000Y-112600000D03*
X139300000Y-104410000D03*
X149500000Y-114160000D03*
X151300000Y-116400000D03*
X163300000Y-116900000D03*
X126600000Y-104300000D03*
X132050000Y-104410000D03*
X145500000Y-112600000D03*
%TO.N,VSOLAR*%
X124270000Y-118000000D03*
%TO.N,SDA*%
X146500000Y-118500000D03*
X128560000Y-121470000D03*
%TO.N,SCL*%
X128630000Y-123030000D03*
X149600000Y-115990000D03*
%TO.N,Net-(U3-OUT+)*%
X161890000Y-115330000D03*
X174680000Y-141950000D03*
X161820000Y-113350000D03*
X164800000Y-127190000D03*
X174900000Y-87350000D03*
%TD*%
D24*
%TO.N,GND*%
X153275000Y-115875000D02*
X153275000Y-115070000D01*
X148075000Y-112890000D02*
X148885000Y-112890000D01*
X160750000Y-112975000D02*
X160825000Y-112900000D01*
X155937500Y-113445000D02*
X154700000Y-113445000D01*
D25*
X144450000Y-161940000D02*
X144450000Y-156250000D01*
D24*
X151712500Y-113445000D02*
X152950000Y-113445000D01*
X137912500Y-112600000D02*
X137912500Y-111525000D01*
X160900000Y-114350000D02*
X160750000Y-114500000D01*
D25*
X168000000Y-161970000D02*
X168000000Y-156390000D01*
D24*
X153400000Y-116000000D02*
X153275000Y-115875000D01*
X158980000Y-114850000D02*
X160400000Y-114850000D01*
X154375000Y-115070000D02*
X154375000Y-116975000D01*
D25*
X121120000Y-161920000D02*
X121120000Y-156220000D01*
D24*
X160750000Y-114500000D02*
X160750000Y-112975000D01*
X161450001Y-111500000D02*
X161450001Y-112274999D01*
X152950000Y-113445000D02*
X153275000Y-113770000D01*
X157100000Y-110000000D02*
X157150000Y-110050000D01*
X160400000Y-114850000D02*
X160750000Y-114500000D01*
X157150000Y-110050000D02*
X157150000Y-111450000D01*
X148885000Y-112890000D02*
X149675000Y-112100000D01*
X163380000Y-114350000D02*
X160900000Y-114350000D01*
D25*
X118360000Y-117050000D02*
X123550000Y-117050000D01*
D24*
X154700000Y-113445000D02*
X154375000Y-113770000D01*
X161450001Y-112274999D02*
X160825000Y-112900000D01*
D25*
X123550000Y-117050000D02*
X124150000Y-116450000D01*
D24*
%TO.N,+3V3*%
X142725000Y-111725000D02*
X143600000Y-112600000D01*
X151300000Y-116400000D02*
X151300000Y-115807500D01*
X161990000Y-116970000D02*
X163230000Y-116970000D01*
X151712500Y-114745000D02*
X151712500Y-114095000D01*
X163230000Y-116970000D02*
X163300000Y-116900000D01*
X149500000Y-114160000D02*
X148075000Y-114160000D01*
X151300000Y-115807500D02*
X151712500Y-115395000D01*
X152100000Y-117200000D02*
X151300000Y-116400000D01*
X142725000Y-111550000D02*
X142725000Y-111725000D01*
X152450000Y-117200000D02*
X152100000Y-117200000D01*
X151712500Y-115395000D02*
X151712500Y-114745000D01*
D25*
%TO.N,VSOLAR*%
X126360000Y-117960000D02*
X126400000Y-118000000D01*
X126360000Y-111540000D02*
X126360000Y-117960000D01*
X118370000Y-112450000D02*
X119280000Y-111540000D01*
X126400000Y-118000000D02*
X124270000Y-118000000D01*
X119280000Y-111540000D02*
X126360000Y-111540000D01*
D24*
%TO.N,Net-(U3-EN)*%
X161140000Y-116170000D02*
X164130000Y-116170000D01*
X158980000Y-115350000D02*
X158980000Y-115610000D01*
X158980000Y-115610000D02*
X160340000Y-116970000D01*
X164450000Y-113350000D02*
X163380000Y-113350000D01*
X164600000Y-113500000D02*
X164450000Y-113350000D01*
X163380000Y-113350000D02*
X163380000Y-111410000D01*
X163380000Y-111410000D02*
X163410000Y-111380000D01*
X160340000Y-116970000D02*
X161140000Y-116170000D01*
X164130000Y-116170000D02*
X164600000Y-115700000D01*
X164600000Y-115700000D02*
X164600000Y-113500000D01*
%TO.N,Net-(U3-REG)*%
X158980000Y-113350000D02*
X158980000Y-111570000D01*
X158980000Y-111570000D02*
X159050000Y-111500000D01*
D25*
%TO.N,Net-(D1-A)*%
X128500000Y-109680000D02*
X130360000Y-111540000D01*
X121090000Y-67570000D02*
X128500000Y-74980000D01*
X128500000Y-74980000D02*
X128500000Y-109680000D01*
%TO.N,Net-(D2-A)*%
X131060000Y-77740000D02*
X131060000Y-102217918D01*
X144490000Y-67570000D02*
X140260000Y-71800000D01*
X133240000Y-104397918D02*
X133240000Y-111870000D01*
X131060000Y-102217918D02*
X133240000Y-104397918D01*
X140260000Y-71800000D02*
X137000000Y-71800000D01*
X137000000Y-71800000D02*
X131060000Y-77740000D01*
X133240000Y-111870000D02*
X130360000Y-114750000D01*
D24*
%TO.N,SDA*%
X146500000Y-118500000D02*
X146510000Y-118510000D01*
X156678812Y-115395000D02*
X155937500Y-115395000D01*
X155490000Y-118510000D02*
X155937500Y-118062500D01*
X146510000Y-118510000D02*
X155490000Y-118510000D01*
X146500000Y-112000000D02*
X146880000Y-111620000D01*
X155937500Y-118062500D02*
X155937500Y-115395000D01*
X146880000Y-111620000D02*
X148075000Y-111620000D01*
X157723812Y-114350000D02*
X156678812Y-115395000D01*
X146500000Y-118500000D02*
X146500000Y-112000000D01*
X158980000Y-114350000D02*
X157723812Y-114350000D01*
%TO.N,SCL*%
X150300000Y-115290000D02*
X150300000Y-113200000D01*
X157573812Y-113850000D02*
X158980000Y-113850000D01*
X155937500Y-114745000D02*
X156678812Y-114745000D01*
X157573812Y-113690000D02*
X157573812Y-113850000D01*
X149600000Y-115990000D02*
X148635000Y-115990000D01*
X150300000Y-113200000D02*
X150900000Y-112600000D01*
X149600000Y-115990000D02*
X150300000Y-115290000D01*
X148635000Y-115990000D02*
X148075000Y-115430000D01*
X156678812Y-114745000D02*
X157573812Y-113850000D01*
X156483812Y-112600000D02*
X157573812Y-113690000D01*
X150900000Y-112600000D02*
X156483812Y-112600000D01*
D25*
%TO.N,Net-(D3-A)*%
X136280000Y-106880000D02*
X137540000Y-105620000D01*
X137540000Y-105620000D02*
X152180000Y-105620000D01*
X152180000Y-105620000D02*
X167860000Y-89940000D01*
X167860000Y-89940000D02*
X167860000Y-67570000D01*
X136280000Y-113630000D02*
X136280000Y-106880000D01*
X131910000Y-118000000D02*
X136280000Y-113630000D01*
X130400000Y-118000000D02*
X131910000Y-118000000D01*
D24*
%TO.N,Net-(D4-A)*%
X141075000Y-111550000D02*
X139512500Y-111550000D01*
X139512500Y-111550000D02*
X139487500Y-111525000D01*
D25*
%TO.N,Net-(SC1--)*%
X112600000Y-110950000D02*
X115980000Y-107570000D01*
X112600000Y-118490000D02*
X112600000Y-110950000D01*
X116030000Y-121920000D02*
X112600000Y-118490000D01*
X115980000Y-107570000D02*
X121090000Y-107570000D01*
X121120000Y-121920000D02*
X116030000Y-121920000D01*
%TO.N,Net-(SC3--)*%
X144490000Y-121900000D02*
X144450000Y-121940000D01*
X144490000Y-107570000D02*
X144490000Y-121900000D01*
%TO.N,Net-(SC5--)*%
X167860000Y-121830000D02*
X168000000Y-121970000D01*
X167860000Y-107570000D02*
X167860000Y-121830000D01*
D24*
%TO.N,Net-(U3-OUT+)*%
X163380000Y-114850000D02*
X162370000Y-114850000D01*
X162320000Y-113850000D02*
X161820000Y-113350000D01*
X162370000Y-114850000D02*
X161890000Y-115330000D01*
X163380000Y-113850000D02*
X162320000Y-113850000D01*
%TD*%
%TA.AperFunction,Conductor*%
%TO.N,+3V3*%
G36*
X114043771Y-65795502D02*
G01*
X114090264Y-65849158D01*
X114100368Y-65919432D01*
X114093706Y-65945528D01*
X114088011Y-65960799D01*
X114088010Y-65960802D01*
X114088009Y-65960803D01*
X114081500Y-66021350D01*
X114081500Y-69118649D01*
X114088009Y-69179196D01*
X114088011Y-69179204D01*
X114139110Y-69316202D01*
X114139112Y-69316207D01*
X114226738Y-69433261D01*
X114343792Y-69520887D01*
X114343794Y-69520888D01*
X114343796Y-69520889D01*
X114402875Y-69542924D01*
X114480795Y-69571988D01*
X114480803Y-69571990D01*
X114541350Y-69578499D01*
X114541355Y-69578499D01*
X114541362Y-69578500D01*
X121973629Y-69578500D01*
X122041750Y-69598502D01*
X122062724Y-69615405D01*
X127704595Y-75257276D01*
X127738621Y-75319588D01*
X127741500Y-75346371D01*
X127741500Y-105435500D01*
X127721498Y-105503621D01*
X127667842Y-105550114D01*
X127615500Y-105561500D01*
X114541350Y-105561500D01*
X114480803Y-105568009D01*
X114480795Y-105568011D01*
X114343797Y-105619110D01*
X114343792Y-105619112D01*
X114226738Y-105706738D01*
X114139112Y-105823792D01*
X114139110Y-105823797D01*
X114088011Y-105960795D01*
X114088009Y-105960803D01*
X114081500Y-106021350D01*
X114081500Y-108343629D01*
X114061498Y-108411750D01*
X114044595Y-108432724D01*
X112010838Y-110466480D01*
X112010833Y-110466486D01*
X111927826Y-110590716D01*
X111889394Y-110683499D01*
X111870650Y-110728749D01*
X111870649Y-110728754D01*
X111841500Y-110875290D01*
X111841500Y-118564709D01*
X111845616Y-118585399D01*
X111846428Y-118589479D01*
X111870649Y-118711247D01*
X111927826Y-118849284D01*
X112010834Y-118973515D01*
X112010838Y-118973519D01*
X114074595Y-121037276D01*
X114108621Y-121099588D01*
X114111500Y-121126371D01*
X114111500Y-123468649D01*
X114118009Y-123529196D01*
X114118011Y-123529204D01*
X114169110Y-123666202D01*
X114169112Y-123666207D01*
X114256738Y-123783261D01*
X114373792Y-123870887D01*
X114373794Y-123870888D01*
X114373796Y-123870889D01*
X114432875Y-123892924D01*
X114510795Y-123921988D01*
X114510803Y-123921990D01*
X114571350Y-123928499D01*
X114571355Y-123928499D01*
X114571362Y-123928500D01*
X125573130Y-123928500D01*
X125641251Y-123948502D01*
X125687744Y-124002158D01*
X125697847Y-124072428D01*
X125694392Y-124096467D01*
X125686500Y-124151364D01*
X125686500Y-143376007D01*
X125698237Y-143485164D01*
X125709441Y-143536667D01*
X125744109Y-143640825D01*
X125823130Y-143763784D01*
X125823131Y-143763786D01*
X125868880Y-143816582D01*
X125868882Y-143816583D01*
X125868884Y-143816586D01*
X125979339Y-143912297D01*
X126057194Y-143947853D01*
X126112284Y-143973013D01*
X126112286Y-143973013D01*
X126112287Y-143973014D01*
X126179326Y-143992699D01*
X126179330Y-143992700D01*
X126324000Y-144013500D01*
X126324004Y-144013500D01*
X161648650Y-144013500D01*
X161694536Y-144011039D01*
X161703533Y-144010557D01*
X161729891Y-144007723D01*
X161770797Y-144001094D01*
X161784145Y-143998932D01*
X161784146Y-143998931D01*
X161784149Y-143998931D01*
X161921091Y-143947854D01*
X161982414Y-143914369D01*
X162099418Y-143826780D01*
X162226780Y-143699418D01*
X162263517Y-143658520D01*
X162280151Y-143637878D01*
X162312353Y-143593212D01*
X162317091Y-143582831D01*
X162335522Y-143554155D01*
X162359388Y-143490165D01*
X162373043Y-143460251D01*
X162373805Y-143457654D01*
X162373804Y-143457653D01*
X162380982Y-143433192D01*
X162380996Y-143433144D01*
X162382258Y-143428848D01*
X162386598Y-143417213D01*
X162389221Y-143405152D01*
X162392059Y-143395490D01*
X162392568Y-143393863D01*
X162392699Y-143393310D01*
X162392700Y-143393308D01*
X162413500Y-143248638D01*
X162413500Y-141860518D01*
X173771500Y-141860518D01*
X173771500Y-141860521D01*
X173771500Y-142039479D01*
X173806413Y-142215000D01*
X173874898Y-142380336D01*
X173974322Y-142529135D01*
X174100865Y-142655678D01*
X174249664Y-142755102D01*
X174415000Y-142823587D01*
X174590521Y-142858500D01*
X174590522Y-142858500D01*
X174769478Y-142858500D01*
X174769479Y-142858500D01*
X174945000Y-142823587D01*
X175110336Y-142755102D01*
X175259135Y-142655678D01*
X175385678Y-142529135D01*
X175485102Y-142380336D01*
X175553587Y-142215000D01*
X175588500Y-142039479D01*
X175588500Y-141860521D01*
X175553587Y-141685000D01*
X175485102Y-141519664D01*
X175385678Y-141370865D01*
X175259135Y-141244322D01*
X175110336Y-141144898D01*
X174993429Y-141096473D01*
X174945003Y-141076414D01*
X174945001Y-141076413D01*
X174945000Y-141076413D01*
X174856645Y-141058838D01*
X174769481Y-141041500D01*
X174769479Y-141041500D01*
X174590521Y-141041500D01*
X174590518Y-141041500D01*
X174459771Y-141067507D01*
X174415000Y-141076413D01*
X174414999Y-141076413D01*
X174414996Y-141076414D01*
X174249662Y-141144899D01*
X174100869Y-141244319D01*
X174100862Y-141244324D01*
X173974324Y-141370862D01*
X173974319Y-141370869D01*
X173874899Y-141519662D01*
X173806414Y-141684996D01*
X173771500Y-141860518D01*
X162413500Y-141860518D01*
X162413500Y-127100518D01*
X163891500Y-127100518D01*
X163891500Y-127100521D01*
X163891500Y-127279479D01*
X163926413Y-127455000D01*
X163994898Y-127620336D01*
X164094322Y-127769135D01*
X164220865Y-127895678D01*
X164369664Y-127995102D01*
X164535000Y-128063587D01*
X164710521Y-128098500D01*
X164710522Y-128098500D01*
X164889478Y-128098500D01*
X164889479Y-128098500D01*
X165065000Y-128063587D01*
X165230336Y-127995102D01*
X165379135Y-127895678D01*
X165505678Y-127769135D01*
X165605102Y-127620336D01*
X165673587Y-127455000D01*
X165708500Y-127279479D01*
X165708500Y-127100521D01*
X165673587Y-126925000D01*
X165605102Y-126759664D01*
X165505678Y-126610865D01*
X165379135Y-126484322D01*
X165230336Y-126384898D01*
X165113429Y-126336473D01*
X165065003Y-126316414D01*
X165065001Y-126316413D01*
X165065000Y-126316413D01*
X164976645Y-126298838D01*
X164889481Y-126281500D01*
X164889479Y-126281500D01*
X164710521Y-126281500D01*
X164710518Y-126281500D01*
X164579771Y-126307507D01*
X164535000Y-126316413D01*
X164534999Y-126316413D01*
X164534996Y-126316414D01*
X164369662Y-126384899D01*
X164220869Y-126484319D01*
X164220862Y-126484324D01*
X164094324Y-126610862D01*
X164094319Y-126610869D01*
X163994899Y-126759662D01*
X163926414Y-126924996D01*
X163891500Y-127100518D01*
X162413500Y-127100518D01*
X162413500Y-124151362D01*
X162413500Y-124151349D01*
X162410558Y-124096487D01*
X162410557Y-124096467D01*
X162410554Y-124096444D01*
X162410422Y-124094795D01*
X162410467Y-124094791D01*
X162410467Y-124094783D01*
X162410777Y-124094766D01*
X162411358Y-124094719D01*
X162423230Y-124028288D01*
X162471522Y-123976245D01*
X162535996Y-123958500D01*
X174398632Y-123958500D01*
X174398638Y-123958500D01*
X174398645Y-123958499D01*
X174398649Y-123958499D01*
X174459196Y-123951990D01*
X174459199Y-123951989D01*
X174459201Y-123951989D01*
X174596204Y-123900889D01*
X174713261Y-123813261D01*
X174800889Y-123696204D01*
X174851989Y-123559201D01*
X174855215Y-123529201D01*
X174858499Y-123498649D01*
X174858500Y-123498632D01*
X174858500Y-120401367D01*
X174858499Y-120401350D01*
X174851990Y-120340803D01*
X174851988Y-120340795D01*
X174818473Y-120250941D01*
X174800889Y-120203796D01*
X174800888Y-120203794D01*
X174800887Y-120203792D01*
X174713261Y-120086738D01*
X174596207Y-119999112D01*
X174596202Y-119999110D01*
X174459204Y-119948011D01*
X174459196Y-119948009D01*
X174398649Y-119941500D01*
X174398638Y-119941500D01*
X168744500Y-119941500D01*
X168676379Y-119921498D01*
X168629886Y-119867842D01*
X168618500Y-119815500D01*
X168618500Y-109704500D01*
X168638502Y-109636379D01*
X168692158Y-109589886D01*
X168744500Y-109578500D01*
X174408632Y-109578500D01*
X174408638Y-109578500D01*
X174408645Y-109578499D01*
X174408649Y-109578499D01*
X174469196Y-109571990D01*
X174469199Y-109571989D01*
X174469201Y-109571989D01*
X174606204Y-109520889D01*
X174723261Y-109433261D01*
X174810889Y-109316204D01*
X174861989Y-109179201D01*
X174868500Y-109118638D01*
X174868500Y-106021362D01*
X174868499Y-106021350D01*
X174861990Y-105960803D01*
X174861988Y-105960795D01*
X174810889Y-105823797D01*
X174810887Y-105823792D01*
X174723261Y-105706738D01*
X174606207Y-105619112D01*
X174606202Y-105619110D01*
X174469204Y-105568011D01*
X174469196Y-105568009D01*
X174408649Y-105561500D01*
X174408638Y-105561500D01*
X161311362Y-105561500D01*
X161311350Y-105561500D01*
X161250803Y-105568009D01*
X161250795Y-105568011D01*
X161113797Y-105619110D01*
X161113792Y-105619112D01*
X160996738Y-105706738D01*
X160909112Y-105823792D01*
X160909110Y-105823797D01*
X160858011Y-105960795D01*
X160858009Y-105960803D01*
X160851500Y-106021350D01*
X160851500Y-109118649D01*
X160858009Y-109179196D01*
X160858011Y-109179204D01*
X160909110Y-109316202D01*
X160909112Y-109316207D01*
X160996738Y-109433261D01*
X161113792Y-109520887D01*
X161113794Y-109520888D01*
X161113796Y-109520889D01*
X161172875Y-109542924D01*
X161250795Y-109571988D01*
X161250803Y-109571990D01*
X161311350Y-109578499D01*
X161311355Y-109578499D01*
X161311362Y-109578500D01*
X166975500Y-109578500D01*
X167043621Y-109598502D01*
X167090114Y-109652158D01*
X167101500Y-109704500D01*
X167101500Y-119815500D01*
X167081498Y-119883621D01*
X167027842Y-119930114D01*
X166975500Y-119941500D01*
X161301350Y-119941500D01*
X161240803Y-119948009D01*
X161240795Y-119948011D01*
X161103797Y-119999110D01*
X161103792Y-119999112D01*
X160986738Y-120086738D01*
X160899112Y-120203792D01*
X160899110Y-120203797D01*
X160848011Y-120340795D01*
X160848009Y-120340803D01*
X160841500Y-120401350D01*
X160841500Y-123360500D01*
X160821498Y-123428621D01*
X160767842Y-123475114D01*
X160715500Y-123486500D01*
X151584500Y-123486500D01*
X151516379Y-123466498D01*
X151469886Y-123412842D01*
X151458500Y-123360500D01*
X151458500Y-120391367D01*
X151458499Y-120391352D01*
X151456115Y-120369176D01*
X151468721Y-120299307D01*
X151511393Y-120250941D01*
X151518109Y-120246453D01*
X151579135Y-120205678D01*
X151705678Y-120079135D01*
X151805102Y-119930336D01*
X151873587Y-119765000D01*
X151908500Y-119589479D01*
X151908500Y-119410521D01*
X151901153Y-119373587D01*
X151885339Y-119294081D01*
X151891667Y-119223367D01*
X151935221Y-119167300D01*
X152002174Y-119143681D01*
X152008918Y-119143500D01*
X155552393Y-119143500D01*
X155552394Y-119143500D01*
X155674785Y-119119155D01*
X155790075Y-119071400D01*
X155893833Y-119002071D01*
X156429572Y-118466333D01*
X156498901Y-118362575D01*
X156535577Y-118274030D01*
X156546655Y-118247285D01*
X156571000Y-118124894D01*
X156571000Y-116226358D01*
X156591002Y-116158237D01*
X156644658Y-116111744D01*
X156680555Y-116101436D01*
X156783850Y-116087838D01*
X156931876Y-116026524D01*
X157058987Y-115928987D01*
X157114186Y-115857049D01*
X157125040Y-115844674D01*
X157537910Y-115431804D01*
X157600220Y-115397780D01*
X157671035Y-115402845D01*
X157727871Y-115445392D01*
X157751925Y-115504454D01*
X157761518Y-115577322D01*
X157820313Y-115719266D01*
X157820318Y-115719274D01*
X157913842Y-115841157D01*
X158035725Y-115934681D01*
X158035732Y-115934686D01*
X158177676Y-115993481D01*
X158291756Y-116008500D01*
X158430405Y-116008500D01*
X158498526Y-116028502D01*
X158519500Y-116045404D01*
X159394596Y-116920500D01*
X159428620Y-116982811D01*
X159431500Y-117009594D01*
X159431500Y-117302261D01*
X159437986Y-117373646D01*
X159437986Y-117373647D01*
X159489170Y-117537906D01*
X159489172Y-117537911D01*
X159578184Y-117685155D01*
X159578188Y-117685160D01*
X159699839Y-117806811D01*
X159699844Y-117806815D01*
X159699845Y-117806816D01*
X159847087Y-117895827D01*
X160011351Y-117947013D01*
X160082735Y-117953500D01*
X160597264Y-117953499D01*
X160668649Y-117947013D01*
X160832913Y-117895827D01*
X160980155Y-117806816D01*
X160990474Y-117796497D01*
X161076259Y-117710713D01*
X161138571Y-117676687D01*
X161209386Y-117681752D01*
X161254449Y-117710713D01*
X161350149Y-117806413D01*
X161350159Y-117806421D01*
X161497293Y-117895366D01*
X161661446Y-117946518D01*
X161732781Y-117952999D01*
X161735999Y-117952999D01*
X162244000Y-117952999D01*
X162247222Y-117952999D01*
X162318553Y-117946518D01*
X162482706Y-117895366D01*
X162629840Y-117806421D01*
X162629850Y-117806413D01*
X162751413Y-117684850D01*
X162751421Y-117684840D01*
X162840366Y-117537706D01*
X162891518Y-117373553D01*
X162891518Y-117373552D01*
X162898000Y-117302222D01*
X162898000Y-117224000D01*
X162244000Y-117224000D01*
X162244000Y-117952999D01*
X161735999Y-117952999D01*
X161736000Y-117952998D01*
X161736000Y-117096000D01*
X161756002Y-117027879D01*
X161809658Y-116981386D01*
X161862000Y-116970000D01*
X161990000Y-116970000D01*
X161990000Y-116929500D01*
X162010002Y-116861379D01*
X162063658Y-116814886D01*
X162116000Y-116803500D01*
X164192393Y-116803500D01*
X164192394Y-116803500D01*
X164314785Y-116779155D01*
X164430075Y-116731400D01*
X164533833Y-116662071D01*
X165092071Y-116103833D01*
X165161400Y-116000075D01*
X165209155Y-115884785D01*
X165233500Y-115762394D01*
X165233500Y-115637607D01*
X165233500Y-113437606D01*
X165209155Y-113315215D01*
X165161400Y-113199925D01*
X165092071Y-113096167D01*
X165003833Y-113007929D01*
X164853833Y-112857929D01*
X164750075Y-112788600D01*
X164634785Y-112740845D01*
X164544504Y-112722887D01*
X164512396Y-112716500D01*
X164512394Y-112716500D01*
X164235372Y-112716500D01*
X164167251Y-112696498D01*
X164120758Y-112642842D01*
X164110654Y-112572568D01*
X164140148Y-112507988D01*
X164146277Y-112501405D01*
X164199023Y-112448658D01*
X164199029Y-112448652D01*
X164292114Y-112297738D01*
X164347886Y-112129426D01*
X164358499Y-112025545D01*
X164358498Y-110974456D01*
X164347886Y-110870574D01*
X164292114Y-110702262D01*
X164199029Y-110551348D01*
X164199027Y-110551346D01*
X164199023Y-110551341D01*
X164073657Y-110425975D01*
X164073651Y-110425970D01*
X163989302Y-110373943D01*
X163922737Y-110332885D01*
X163838581Y-110304999D01*
X163754426Y-110277113D01*
X163754419Y-110277112D01*
X163650552Y-110266500D01*
X163049454Y-110266500D01*
X162945573Y-110277112D01*
X162777260Y-110332885D01*
X162626346Y-110425970D01*
X162626340Y-110425975D01*
X162500969Y-110551346D01*
X162498835Y-110554046D01*
X162496899Y-110555416D01*
X162495779Y-110556537D01*
X162495587Y-110556345D01*
X162440894Y-110595074D01*
X162369969Y-110598264D01*
X162308578Y-110562602D01*
X162301165Y-110554046D01*
X162299030Y-110551346D01*
X162173659Y-110425975D01*
X162173653Y-110425970D01*
X162089304Y-110373943D01*
X162022739Y-110332885D01*
X161938583Y-110304999D01*
X161854428Y-110277113D01*
X161854421Y-110277112D01*
X161750554Y-110266500D01*
X161149456Y-110266500D01*
X161045575Y-110277112D01*
X160877262Y-110332885D01*
X160726348Y-110425970D01*
X160726342Y-110425975D01*
X160600976Y-110551341D01*
X160600971Y-110551347D01*
X160507886Y-110702262D01*
X160452114Y-110870572D01*
X160452113Y-110870579D01*
X160441501Y-110974446D01*
X160441501Y-111996252D01*
X160439228Y-112003991D01*
X160440519Y-112011954D01*
X160429369Y-112037567D01*
X160421499Y-112064373D01*
X160414679Y-112071314D01*
X160412183Y-112077051D01*
X160385503Y-112101017D01*
X160248819Y-112192347D01*
X160181066Y-112213562D01*
X160112599Y-112194779D01*
X160065156Y-112141962D01*
X160053470Y-112074775D01*
X160058500Y-112025545D01*
X160058499Y-110974456D01*
X160047887Y-110870574D01*
X159992115Y-110702262D01*
X159899030Y-110551348D01*
X159899028Y-110551346D01*
X159899024Y-110551341D01*
X159773658Y-110425975D01*
X159773652Y-110425970D01*
X159689303Y-110373943D01*
X159622738Y-110332885D01*
X159538582Y-110304999D01*
X159454427Y-110277113D01*
X159454420Y-110277112D01*
X159350553Y-110266500D01*
X158749455Y-110266500D01*
X158645574Y-110277112D01*
X158477261Y-110332885D01*
X158326347Y-110425970D01*
X158326341Y-110425975D01*
X158200972Y-110551344D01*
X158198834Y-110554049D01*
X158196895Y-110555421D01*
X158195780Y-110556537D01*
X158195589Y-110556346D01*
X158184573Y-110564146D01*
X158173880Y-110577963D01*
X158156202Y-110584235D01*
X158140892Y-110595076D01*
X158123436Y-110595860D01*
X158106970Y-110601703D01*
X158088705Y-110597421D01*
X158069967Y-110598264D01*
X158054550Y-110589415D01*
X158037847Y-110585500D01*
X158017837Y-110568343D01*
X158009486Y-110563550D01*
X158001416Y-110555217D01*
X157999030Y-110551348D01*
X157955986Y-110508304D01*
X157955282Y-110507577D01*
X157939217Y-110476999D01*
X157922675Y-110446706D01*
X157922750Y-110445656D01*
X157922261Y-110444726D01*
X157925276Y-110410329D01*
X157927740Y-110375891D01*
X157928455Y-110374072D01*
X157928462Y-110374001D01*
X157928506Y-110373943D01*
X157929372Y-110371741D01*
X157973587Y-110265000D01*
X158008500Y-110089479D01*
X158008500Y-109910521D01*
X157973587Y-109735000D01*
X157905102Y-109569664D01*
X157805678Y-109420865D01*
X157679135Y-109294322D01*
X157530336Y-109194898D01*
X157413429Y-109146473D01*
X157365003Y-109126414D01*
X157365001Y-109126413D01*
X157365000Y-109126413D01*
X157276645Y-109108838D01*
X157189481Y-109091500D01*
X157189479Y-109091500D01*
X157010521Y-109091500D01*
X157010518Y-109091500D01*
X156879771Y-109117507D01*
X156835000Y-109126413D01*
X156834999Y-109126413D01*
X156834996Y-109126414D01*
X156669662Y-109194899D01*
X156520869Y-109294319D01*
X156520862Y-109294324D01*
X156394324Y-109420862D01*
X156394319Y-109420869D01*
X156327490Y-109520887D01*
X156294898Y-109569664D01*
X156286522Y-109589886D01*
X156226414Y-109734996D01*
X156191500Y-109910518D01*
X156191500Y-110089481D01*
X156208838Y-110176645D01*
X156221263Y-110239111D01*
X156226414Y-110265003D01*
X156294899Y-110430339D01*
X156297815Y-110435793D01*
X156295414Y-110437076D01*
X156313127Y-110493582D01*
X156294389Y-110562017D01*
X156207885Y-110702262D01*
X156152113Y-110870572D01*
X156152112Y-110870579D01*
X156141500Y-110974446D01*
X156141501Y-111840500D01*
X156121499Y-111908621D01*
X156067843Y-111955114D01*
X156015501Y-111966500D01*
X150837603Y-111966500D01*
X150773872Y-111979177D01*
X150715215Y-111990845D01*
X150715212Y-111990846D01*
X150709145Y-111992053D01*
X150708623Y-111989430D01*
X150649165Y-111989874D01*
X150589155Y-111951936D01*
X150560183Y-111893298D01*
X150548587Y-111835000D01*
X150480102Y-111669664D01*
X150380678Y-111520865D01*
X150254135Y-111394322D01*
X150105336Y-111294898D01*
X149966498Y-111237389D01*
X149940003Y-111226414D01*
X149940001Y-111226413D01*
X149940000Y-111226413D01*
X149851645Y-111208838D01*
X149764481Y-111191500D01*
X149764479Y-111191500D01*
X149585521Y-111191500D01*
X149585515Y-111191500D01*
X149507216Y-111207075D01*
X149436502Y-111200747D01*
X149380435Y-111157192D01*
X149364580Y-111127529D01*
X149325889Y-111023796D01*
X149325887Y-111023792D01*
X149238261Y-110906738D01*
X149121207Y-110819112D01*
X149121202Y-110819110D01*
X148984204Y-110768011D01*
X148984196Y-110768009D01*
X148923649Y-110761500D01*
X148923638Y-110761500D01*
X147226362Y-110761500D01*
X147226350Y-110761500D01*
X147165803Y-110768009D01*
X147165795Y-110768011D01*
X147028797Y-110819110D01*
X147028792Y-110819112D01*
X146911738Y-110906738D01*
X146886987Y-110939803D01*
X146830151Y-110982350D01*
X146810701Y-110987873D01*
X146747632Y-111000418D01*
X146695215Y-111010845D01*
X146695213Y-111010845D01*
X146695212Y-111010846D01*
X146579923Y-111058601D01*
X146476171Y-111127926D01*
X146476164Y-111127931D01*
X146007931Y-111596164D01*
X146007926Y-111596171D01*
X145958820Y-111669664D01*
X145938600Y-111699925D01*
X145925030Y-111732685D01*
X145890846Y-111815212D01*
X145866500Y-111937603D01*
X145866500Y-117796497D01*
X145846498Y-117864618D01*
X145829595Y-117885592D01*
X145794324Y-117920862D01*
X145794319Y-117920869D01*
X145743001Y-117997673D01*
X145694898Y-118069664D01*
X145680716Y-118103902D01*
X145626414Y-118234996D01*
X145626413Y-118234999D01*
X145626413Y-118235000D01*
X145620446Y-118265000D01*
X145591500Y-118410518D01*
X145591500Y-118410521D01*
X145591500Y-118589479D01*
X145626413Y-118765000D01*
X145694898Y-118930336D01*
X145794322Y-119079135D01*
X145920865Y-119205678D01*
X146069664Y-119305102D01*
X146235000Y-119373587D01*
X146410521Y-119408500D01*
X146410522Y-119408500D01*
X146589478Y-119408500D01*
X146589479Y-119408500D01*
X146765000Y-119373587D01*
X146930336Y-119305102D01*
X147079135Y-119205678D01*
X147104408Y-119180405D01*
X147166720Y-119146379D01*
X147193503Y-119143500D01*
X149991082Y-119143500D01*
X150059203Y-119163502D01*
X150105696Y-119217158D01*
X150115800Y-119287432D01*
X150114661Y-119294081D01*
X150091500Y-119410515D01*
X150091500Y-119589481D01*
X150126415Y-119765008D01*
X150127607Y-119768939D01*
X150128232Y-119839933D01*
X150090375Y-119899995D01*
X150026056Y-119930055D01*
X150007028Y-119931500D01*
X145374500Y-119931500D01*
X145306379Y-119911498D01*
X145259886Y-119857842D01*
X145248500Y-119805500D01*
X145248500Y-109704500D01*
X145268502Y-109636379D01*
X145322158Y-109589886D01*
X145374500Y-109578500D01*
X151038632Y-109578500D01*
X151038638Y-109578500D01*
X151038645Y-109578499D01*
X151038649Y-109578499D01*
X151099196Y-109571990D01*
X151099199Y-109571989D01*
X151099201Y-109571989D01*
X151236204Y-109520889D01*
X151353261Y-109433261D01*
X151440889Y-109316204D01*
X151491989Y-109179201D01*
X151498500Y-109118638D01*
X151498500Y-106504500D01*
X151518502Y-106436379D01*
X151572158Y-106389886D01*
X151624500Y-106378500D01*
X152254701Y-106378500D01*
X152254705Y-106378500D01*
X152254706Y-106378500D01*
X152327976Y-106363925D01*
X152401247Y-106349351D01*
X152539284Y-106292174D01*
X152663515Y-106209166D01*
X168449166Y-90423515D01*
X168532174Y-90299284D01*
X168589351Y-90161246D01*
X168618500Y-90014705D01*
X168618500Y-89865295D01*
X168618500Y-87260518D01*
X173991500Y-87260518D01*
X173991500Y-87260521D01*
X173991500Y-87439479D01*
X174026413Y-87615000D01*
X174094898Y-87780336D01*
X174194322Y-87929135D01*
X174320865Y-88055678D01*
X174469664Y-88155102D01*
X174635000Y-88223587D01*
X174810521Y-88258500D01*
X174810522Y-88258500D01*
X174989478Y-88258500D01*
X174989479Y-88258500D01*
X175165000Y-88223587D01*
X175330336Y-88155102D01*
X175479135Y-88055678D01*
X175605678Y-87929135D01*
X175705102Y-87780336D01*
X175773587Y-87615000D01*
X175808500Y-87439479D01*
X175808500Y-87260521D01*
X175773587Y-87085000D01*
X175705102Y-86919664D01*
X175605678Y-86770865D01*
X175479135Y-86644322D01*
X175330336Y-86544898D01*
X175213429Y-86496473D01*
X175165003Y-86476414D01*
X175165001Y-86476413D01*
X175165000Y-86476413D01*
X175076645Y-86458838D01*
X174989481Y-86441500D01*
X174989479Y-86441500D01*
X174810521Y-86441500D01*
X174810518Y-86441500D01*
X174679771Y-86467507D01*
X174635000Y-86476413D01*
X174634999Y-86476413D01*
X174634996Y-86476414D01*
X174469662Y-86544899D01*
X174320869Y-86644319D01*
X174320862Y-86644324D01*
X174194324Y-86770862D01*
X174194319Y-86770869D01*
X174094899Y-86919662D01*
X174026414Y-87084996D01*
X173991500Y-87260518D01*
X168618500Y-87260518D01*
X168618500Y-70124024D01*
X179366500Y-70124024D01*
X179366500Y-70475975D01*
X179405906Y-70825711D01*
X179484223Y-71168837D01*
X179600455Y-71501010D01*
X179600466Y-71501037D01*
X179753163Y-71818116D01*
X179753168Y-71818125D01*
X179940414Y-72116124D01*
X180159844Y-72391283D01*
X180408716Y-72640155D01*
X180683875Y-72859585D01*
X180683877Y-72859586D01*
X180981879Y-73046834D01*
X181298972Y-73199538D01*
X181298988Y-73199543D01*
X181298989Y-73199544D01*
X181631162Y-73315776D01*
X181631165Y-73315776D01*
X181631169Y-73315778D01*
X181974292Y-73394094D01*
X182222284Y-73422036D01*
X182324024Y-73433500D01*
X182324026Y-73433500D01*
X182675976Y-73433500D01*
X182764795Y-73423492D01*
X183025708Y-73394094D01*
X183368831Y-73315778D01*
X183701028Y-73199538D01*
X184018121Y-73046834D01*
X184316123Y-72859586D01*
X184371155Y-72815699D01*
X184591283Y-72640155D01*
X184840155Y-72391283D01*
X185059585Y-72116124D01*
X185246831Y-71818125D01*
X185246834Y-71818121D01*
X185399538Y-71501028D01*
X185515778Y-71168831D01*
X185594094Y-70825708D01*
X185633500Y-70475974D01*
X185633500Y-70124026D01*
X185594094Y-69774292D01*
X185515778Y-69431169D01*
X185475551Y-69316207D01*
X185399544Y-69098989D01*
X185399543Y-69098988D01*
X185399538Y-69098972D01*
X185246834Y-68781879D01*
X185059586Y-68483877D01*
X185059585Y-68483875D01*
X184840155Y-68208716D01*
X184591283Y-67959844D01*
X184316124Y-67740414D01*
X184018125Y-67553168D01*
X184018116Y-67553163D01*
X183701037Y-67400466D01*
X183701032Y-67400464D01*
X183701028Y-67400462D01*
X183701022Y-67400459D01*
X183701010Y-67400455D01*
X183368837Y-67284223D01*
X183025711Y-67205906D01*
X182675976Y-67166500D01*
X182675974Y-67166500D01*
X182324026Y-67166500D01*
X182324024Y-67166500D01*
X181974288Y-67205906D01*
X181631162Y-67284223D01*
X181298989Y-67400455D01*
X181298962Y-67400466D01*
X180981883Y-67553163D01*
X180981874Y-67553168D01*
X180683875Y-67740414D01*
X180408716Y-67959844D01*
X180159844Y-68208716D01*
X179940414Y-68483875D01*
X179753168Y-68781874D01*
X179753163Y-68781883D01*
X179600466Y-69098962D01*
X179600455Y-69098989D01*
X179484223Y-69431162D01*
X179405906Y-69774288D01*
X179366500Y-70124024D01*
X168618500Y-70124024D01*
X168618500Y-69704500D01*
X168638502Y-69636379D01*
X168692158Y-69589886D01*
X168744500Y-69578500D01*
X174408632Y-69578500D01*
X174408638Y-69578500D01*
X174408645Y-69578499D01*
X174408649Y-69578499D01*
X174469196Y-69571990D01*
X174469199Y-69571989D01*
X174469201Y-69571989D01*
X174606204Y-69520889D01*
X174723261Y-69433261D01*
X174810889Y-69316204D01*
X174861989Y-69179201D01*
X174868500Y-69118638D01*
X174868500Y-66021362D01*
X174868499Y-66021350D01*
X174861990Y-65960803D01*
X174861989Y-65960802D01*
X174861989Y-65960799D01*
X174856294Y-65945532D01*
X174851229Y-65874720D01*
X174885252Y-65812407D01*
X174947564Y-65778380D01*
X174974350Y-65775500D01*
X185848500Y-65775500D01*
X185916621Y-65795502D01*
X185963114Y-65849158D01*
X185974500Y-65901500D01*
X185974500Y-74773500D01*
X185954498Y-74841621D01*
X185900842Y-74888114D01*
X185848500Y-74899500D01*
X180413112Y-74899500D01*
X180412427Y-74899498D01*
X180400600Y-74899433D01*
X180269453Y-74898720D01*
X180269452Y-74898720D01*
X180269447Y-74898720D01*
X180076259Y-74919477D01*
X179969787Y-74930918D01*
X179969783Y-74930918D01*
X179969781Y-74930919D01*
X179969775Y-74930920D01*
X179675661Y-74996622D01*
X179675645Y-74996626D01*
X179390770Y-75095007D01*
X179390758Y-75095012D01*
X179118766Y-75224817D01*
X178863092Y-75384407D01*
X178626999Y-75571746D01*
X178413483Y-75784456D01*
X178225255Y-76019835D01*
X178064696Y-76274911D01*
X177933861Y-76546415D01*
X177933859Y-76546422D01*
X177834402Y-76830918D01*
X177834397Y-76830932D01*
X177767583Y-77124802D01*
X177767582Y-77124809D01*
X177767582Y-77124813D01*
X177734251Y-77424354D01*
X177734500Y-77574446D01*
X177734500Y-105946971D01*
X177732735Y-105954293D01*
X177734500Y-105957179D01*
X177734500Y-105960564D01*
X177735738Y-105963554D01*
X177747635Y-105978659D01*
X178253155Y-106805294D01*
X179305993Y-108526915D01*
X179324500Y-108592650D01*
X179324500Y-120957348D01*
X179305993Y-121023084D01*
X177747632Y-123571344D01*
X177739823Y-123584113D01*
X177734500Y-123589438D01*
X177734500Y-123592819D01*
X177732734Y-123595707D01*
X177732230Y-123598906D01*
X177734500Y-123618003D01*
X177734500Y-151952482D01*
X177734225Y-152125650D01*
X177734225Y-152125652D01*
X177767574Y-152425179D01*
X177767575Y-152425187D01*
X177833273Y-152714067D01*
X177834410Y-152719067D01*
X177932134Y-152998571D01*
X177933886Y-153003580D01*
X178064724Y-153275068D01*
X178225285Y-153530133D01*
X178413508Y-153765503D01*
X178413514Y-153765510D01*
X178413515Y-153765511D01*
X178627031Y-153978221D01*
X178863120Y-154165562D01*
X179118786Y-154325154D01*
X179390783Y-154454971D01*
X179675656Y-154553366D01*
X179969791Y-154619090D01*
X180269452Y-154651307D01*
X180419585Y-154650502D01*
X180420261Y-154650500D01*
X185848500Y-154650500D01*
X185916621Y-154670502D01*
X185963114Y-154724158D01*
X185974500Y-154776500D01*
X185974500Y-163598500D01*
X185954498Y-163666621D01*
X185900842Y-163713114D01*
X185848500Y-163724500D01*
X174971810Y-163724500D01*
X174903689Y-163704498D01*
X174857196Y-163650842D01*
X174847092Y-163580568D01*
X174850566Y-163566960D01*
X174850177Y-163566868D01*
X174851990Y-163559196D01*
X174858499Y-163498649D01*
X174858500Y-163498632D01*
X174858500Y-160401367D01*
X174858499Y-160401350D01*
X174851990Y-160340803D01*
X174851988Y-160340795D01*
X174800889Y-160203797D01*
X174800887Y-160203792D01*
X174713261Y-160086738D01*
X174596207Y-159999112D01*
X174596202Y-159999110D01*
X174459204Y-159948011D01*
X174459196Y-159948009D01*
X174398649Y-159941500D01*
X174398638Y-159941500D01*
X168884500Y-159941500D01*
X168816379Y-159921498D01*
X168769886Y-159867842D01*
X168758500Y-159815500D01*
X168758500Y-159124024D01*
X179366500Y-159124024D01*
X179366500Y-159475975D01*
X179405906Y-159825711D01*
X179484223Y-160168837D01*
X179600455Y-160501010D01*
X179600466Y-160501037D01*
X179753163Y-160818116D01*
X179753168Y-160818125D01*
X179940414Y-161116124D01*
X180159844Y-161391283D01*
X180408716Y-161640155D01*
X180683875Y-161859585D01*
X180683877Y-161859586D01*
X180981879Y-162046834D01*
X181298972Y-162199538D01*
X181298988Y-162199543D01*
X181298989Y-162199544D01*
X181631162Y-162315776D01*
X181631165Y-162315776D01*
X181631169Y-162315778D01*
X181974292Y-162394094D01*
X182222284Y-162422036D01*
X182324024Y-162433500D01*
X182324026Y-162433500D01*
X182675976Y-162433500D01*
X182764795Y-162423492D01*
X183025708Y-162394094D01*
X183368831Y-162315778D01*
X183701028Y-162199538D01*
X184018121Y-162046834D01*
X184316123Y-161859586D01*
X184371155Y-161815699D01*
X184591283Y-161640155D01*
X184840155Y-161391283D01*
X185059585Y-161116124D01*
X185246831Y-160818125D01*
X185246834Y-160818121D01*
X185399538Y-160501028D01*
X185515778Y-160168831D01*
X185594094Y-159825708D01*
X185633500Y-159475974D01*
X185633500Y-159124026D01*
X185594094Y-158774292D01*
X185515778Y-158431169D01*
X185399538Y-158098972D01*
X185246834Y-157781879D01*
X185059586Y-157483877D01*
X185059585Y-157483875D01*
X184840155Y-157208716D01*
X184591283Y-156959844D01*
X184316124Y-156740414D01*
X184018125Y-156553168D01*
X184018116Y-156553163D01*
X183701037Y-156400466D01*
X183701032Y-156400464D01*
X183701028Y-156400462D01*
X183701022Y-156400459D01*
X183701010Y-156400455D01*
X183368837Y-156284223D01*
X183025711Y-156205906D01*
X182675976Y-156166500D01*
X182675974Y-156166500D01*
X182324026Y-156166500D01*
X182324024Y-156166500D01*
X181974288Y-156205906D01*
X181631162Y-156284223D01*
X181298989Y-156400455D01*
X181298962Y-156400466D01*
X180981883Y-156553163D01*
X180981874Y-156553168D01*
X180683875Y-156740414D01*
X180408716Y-156959844D01*
X180159844Y-157208716D01*
X179940414Y-157483875D01*
X179753168Y-157781874D01*
X179753163Y-157781883D01*
X179600466Y-158098962D01*
X179600455Y-158098989D01*
X179484223Y-158431162D01*
X179405906Y-158774288D01*
X179366500Y-159124024D01*
X168758500Y-159124024D01*
X168758500Y-156928302D01*
X168778502Y-156860181D01*
X168779735Y-156858300D01*
X168805102Y-156820336D01*
X168873587Y-156655000D01*
X168908500Y-156479479D01*
X168908500Y-156300521D01*
X168873587Y-156125000D01*
X168805102Y-155959664D01*
X168705678Y-155810865D01*
X168579135Y-155684322D01*
X168430336Y-155584898D01*
X168313429Y-155536473D01*
X168265003Y-155516414D01*
X168265001Y-155516413D01*
X168265000Y-155516413D01*
X168176645Y-155498838D01*
X168089481Y-155481500D01*
X168089479Y-155481500D01*
X167910521Y-155481500D01*
X167910518Y-155481500D01*
X167779771Y-155507507D01*
X167735000Y-155516413D01*
X167734999Y-155516413D01*
X167734996Y-155516414D01*
X167569662Y-155584899D01*
X167420869Y-155684319D01*
X167420862Y-155684324D01*
X167294324Y-155810862D01*
X167294319Y-155810869D01*
X167194899Y-155959662D01*
X167126414Y-156124996D01*
X167126413Y-156124999D01*
X167126413Y-156125000D01*
X167119347Y-156160522D01*
X167091500Y-156300518D01*
X167091500Y-156479481D01*
X167108838Y-156566645D01*
X167125485Y-156650337D01*
X167126414Y-156655003D01*
X167136908Y-156680337D01*
X167194898Y-156820336D01*
X167194899Y-156820337D01*
X167220265Y-156858300D01*
X167241480Y-156926053D01*
X167241500Y-156928302D01*
X167241500Y-159815500D01*
X167221498Y-159883621D01*
X167167842Y-159930114D01*
X167115500Y-159941500D01*
X161301350Y-159941500D01*
X161240803Y-159948009D01*
X161240795Y-159948011D01*
X161103797Y-159999110D01*
X161103792Y-159999112D01*
X160986738Y-160086738D01*
X160899112Y-160203792D01*
X160899110Y-160203797D01*
X160848011Y-160340795D01*
X160848009Y-160340803D01*
X160841500Y-160401350D01*
X160841500Y-163498649D01*
X160848009Y-163559196D01*
X160849823Y-163566868D01*
X160847175Y-163567493D01*
X160851313Y-163625274D01*
X160817292Y-163687589D01*
X160754983Y-163721618D01*
X160728190Y-163724500D01*
X151568080Y-163724500D01*
X151499959Y-163704498D01*
X151453466Y-163650842D01*
X151443362Y-163580568D01*
X151450026Y-163554464D01*
X151450059Y-163554372D01*
X151451989Y-163549201D01*
X151454140Y-163529201D01*
X151458499Y-163488649D01*
X151458500Y-163488632D01*
X151458500Y-160391367D01*
X151458499Y-160391350D01*
X151451990Y-160330803D01*
X151451988Y-160330795D01*
X151400889Y-160193797D01*
X151400887Y-160193792D01*
X151313261Y-160076738D01*
X151196207Y-159989112D01*
X151196202Y-159989110D01*
X151059204Y-159938011D01*
X151059196Y-159938009D01*
X150998649Y-159931500D01*
X150998638Y-159931500D01*
X145334500Y-159931500D01*
X145266379Y-159911498D01*
X145219886Y-159857842D01*
X145208500Y-159805500D01*
X145208500Y-156788302D01*
X145228502Y-156720181D01*
X145229735Y-156718300D01*
X145255102Y-156680336D01*
X145323587Y-156515000D01*
X145358500Y-156339479D01*
X145358500Y-156160521D01*
X145323587Y-155985000D01*
X145255102Y-155819664D01*
X145155678Y-155670865D01*
X145029135Y-155544322D01*
X144880336Y-155444898D01*
X144759786Y-155394964D01*
X144715003Y-155376414D01*
X144715001Y-155376413D01*
X144715000Y-155376413D01*
X144626645Y-155358838D01*
X144539481Y-155341500D01*
X144539479Y-155341500D01*
X144360521Y-155341500D01*
X144360518Y-155341500D01*
X144229771Y-155367507D01*
X144185000Y-155376413D01*
X144184999Y-155376413D01*
X144184996Y-155376414D01*
X144019662Y-155444899D01*
X143870869Y-155544319D01*
X143870862Y-155544324D01*
X143744324Y-155670862D01*
X143744319Y-155670869D01*
X143644899Y-155819662D01*
X143576414Y-155984996D01*
X143541500Y-156160518D01*
X143541500Y-156160521D01*
X143541500Y-156339479D01*
X143576413Y-156515000D01*
X143644898Y-156680336D01*
X143670265Y-156718300D01*
X143691480Y-156786053D01*
X143691500Y-156788302D01*
X143691500Y-159805500D01*
X143671498Y-159873621D01*
X143617842Y-159920114D01*
X143565500Y-159931500D01*
X137901350Y-159931500D01*
X137840803Y-159938009D01*
X137840795Y-159938011D01*
X137703797Y-159989110D01*
X137703792Y-159989112D01*
X137586738Y-160076738D01*
X137499112Y-160193792D01*
X137499110Y-160193797D01*
X137448011Y-160330795D01*
X137448009Y-160330803D01*
X137441500Y-160391350D01*
X137441500Y-163488649D01*
X137448009Y-163549196D01*
X137448011Y-163549201D01*
X137449974Y-163554464D01*
X137455041Y-163625280D01*
X137421018Y-163687593D01*
X137358707Y-163721620D01*
X137331920Y-163724500D01*
X128230621Y-163724500D01*
X128162500Y-163704498D01*
X128116007Y-163650842D01*
X128105903Y-163580568D01*
X128112565Y-163554468D01*
X128121989Y-163529200D01*
X128121990Y-163529196D01*
X128128499Y-163468649D01*
X128128500Y-163468632D01*
X128128500Y-160371367D01*
X128128499Y-160371350D01*
X128121990Y-160310803D01*
X128121988Y-160310795D01*
X128082079Y-160203797D01*
X128070889Y-160173796D01*
X128070888Y-160173794D01*
X128070887Y-160173792D01*
X127983261Y-160056738D01*
X127866207Y-159969112D01*
X127866202Y-159969110D01*
X127729204Y-159918011D01*
X127729196Y-159918009D01*
X127668649Y-159911500D01*
X127668638Y-159911500D01*
X122004500Y-159911500D01*
X121936379Y-159891498D01*
X121889886Y-159837842D01*
X121878500Y-159785500D01*
X121878500Y-156758302D01*
X121898502Y-156690181D01*
X121899735Y-156688300D01*
X121925102Y-156650336D01*
X121993587Y-156485000D01*
X122028500Y-156309479D01*
X122028500Y-156130521D01*
X121993587Y-155955000D01*
X121925102Y-155789664D01*
X121825678Y-155640865D01*
X121699135Y-155514322D01*
X121550336Y-155414898D01*
X121433429Y-155366473D01*
X121385003Y-155346414D01*
X121385001Y-155346413D01*
X121385000Y-155346413D01*
X121296645Y-155328838D01*
X121209481Y-155311500D01*
X121209479Y-155311500D01*
X121030521Y-155311500D01*
X121030518Y-155311500D01*
X120899771Y-155337507D01*
X120855000Y-155346413D01*
X120854999Y-155346413D01*
X120854996Y-155346414D01*
X120689662Y-155414899D01*
X120540869Y-155514319D01*
X120540862Y-155514324D01*
X120414324Y-155640862D01*
X120414319Y-155640869D01*
X120385284Y-155684324D01*
X120314898Y-155789664D01*
X120300716Y-155823902D01*
X120246414Y-155954996D01*
X120246413Y-155954999D01*
X120246413Y-155955000D01*
X120240446Y-155985000D01*
X120211500Y-156130518D01*
X120211500Y-156309481D01*
X120228838Y-156396645D01*
X120245315Y-156479481D01*
X120246414Y-156485003D01*
X120258841Y-156515003D01*
X120314898Y-156650336D01*
X120334944Y-156680337D01*
X120340265Y-156688300D01*
X120361480Y-156756053D01*
X120361500Y-156758302D01*
X120361500Y-159785500D01*
X120341498Y-159853621D01*
X120287842Y-159900114D01*
X120235500Y-159911500D01*
X114571350Y-159911500D01*
X114510803Y-159918009D01*
X114510795Y-159918011D01*
X114373797Y-159969110D01*
X114373792Y-159969112D01*
X114256738Y-160056738D01*
X114169112Y-160173792D01*
X114169110Y-160173797D01*
X114118011Y-160310795D01*
X114118009Y-160310803D01*
X114111500Y-160371350D01*
X114111500Y-163468649D01*
X114118009Y-163529196D01*
X114118010Y-163529200D01*
X114127435Y-163554468D01*
X114132499Y-163625284D01*
X114098474Y-163687596D01*
X114036162Y-163721621D01*
X114009379Y-163724500D01*
X103151500Y-163724500D01*
X103083379Y-163704498D01*
X103036886Y-163650842D01*
X103025500Y-163598500D01*
X103025500Y-159124024D01*
X103366500Y-159124024D01*
X103366500Y-159475975D01*
X103405906Y-159825711D01*
X103484223Y-160168837D01*
X103600455Y-160501010D01*
X103600466Y-160501037D01*
X103753163Y-160818116D01*
X103753168Y-160818125D01*
X103940414Y-161116124D01*
X104159844Y-161391283D01*
X104408716Y-161640155D01*
X104683875Y-161859585D01*
X104683877Y-161859586D01*
X104981879Y-162046834D01*
X105298972Y-162199538D01*
X105298988Y-162199543D01*
X105298989Y-162199544D01*
X105631162Y-162315776D01*
X105631165Y-162315776D01*
X105631169Y-162315778D01*
X105974292Y-162394094D01*
X106222284Y-162422036D01*
X106324024Y-162433500D01*
X106324026Y-162433500D01*
X106675976Y-162433500D01*
X106764795Y-162423492D01*
X107025708Y-162394094D01*
X107368831Y-162315778D01*
X107701028Y-162199538D01*
X108018121Y-162046834D01*
X108316123Y-161859586D01*
X108371155Y-161815699D01*
X108591283Y-161640155D01*
X108840155Y-161391283D01*
X109059585Y-161116124D01*
X109246831Y-160818125D01*
X109246834Y-160818121D01*
X109399538Y-160501028D01*
X109515778Y-160168831D01*
X109594094Y-159825708D01*
X109633500Y-159475974D01*
X109633500Y-159124026D01*
X109594094Y-158774292D01*
X109515778Y-158431169D01*
X109399538Y-158098972D01*
X109246834Y-157781879D01*
X109059586Y-157483877D01*
X109059585Y-157483875D01*
X108840155Y-157208716D01*
X108591283Y-156959844D01*
X108316124Y-156740414D01*
X108018125Y-156553168D01*
X108018116Y-156553163D01*
X107701037Y-156400466D01*
X107701032Y-156400464D01*
X107701028Y-156400462D01*
X107701022Y-156400459D01*
X107701010Y-156400455D01*
X107368837Y-156284223D01*
X107025711Y-156205906D01*
X106675976Y-156166500D01*
X106675974Y-156166500D01*
X106324026Y-156166500D01*
X106324024Y-156166500D01*
X105974288Y-156205906D01*
X105631162Y-156284223D01*
X105298989Y-156400455D01*
X105298962Y-156400466D01*
X104981883Y-156553163D01*
X104981874Y-156553168D01*
X104683875Y-156740414D01*
X104408716Y-156959844D01*
X104159844Y-157208716D01*
X103940414Y-157483875D01*
X103753168Y-157781874D01*
X103753163Y-157781883D01*
X103600466Y-158098962D01*
X103600455Y-158098989D01*
X103484223Y-158431162D01*
X103405906Y-158774288D01*
X103366500Y-159124024D01*
X103025500Y-159124024D01*
X103025500Y-154771500D01*
X103045502Y-154703379D01*
X103099158Y-154656886D01*
X103151500Y-154645500D01*
X108579855Y-154645500D01*
X108586765Y-154645500D01*
X108587445Y-154645502D01*
X108588434Y-154645507D01*
X108730547Y-154646275D01*
X109030208Y-154614068D01*
X109226298Y-154570257D01*
X109324340Y-154548353D01*
X109324343Y-154548352D01*
X109373203Y-154531477D01*
X109609218Y-154449964D01*
X109881216Y-154320151D01*
X110136883Y-154160562D01*
X110372972Y-153973224D01*
X110586488Y-153760514D01*
X110774717Y-153525134D01*
X110935271Y-153270073D01*
X111066112Y-152998568D01*
X111165577Y-152714067D01*
X111232403Y-152420182D01*
X111265744Y-152120645D01*
X111265500Y-151970567D01*
X111265500Y-146844167D01*
X136824500Y-146844167D01*
X136824500Y-153155832D01*
X136860681Y-153465378D01*
X136860682Y-153465384D01*
X136876028Y-153530133D01*
X136930629Y-153760513D01*
X136932557Y-153768645D01*
X136932558Y-153768650D01*
X137039146Y-154061497D01*
X137039151Y-154061509D01*
X137179024Y-154340021D01*
X137350279Y-154600400D01*
X137550610Y-154839147D01*
X137777310Y-155053028D01*
X137920893Y-155159921D01*
X138027297Y-155239136D01*
X138297203Y-155394966D01*
X138583374Y-155518408D01*
X138881942Y-155607793D01*
X139188867Y-155661913D01*
X139500000Y-155680034D01*
X139811133Y-155661913D01*
X140118058Y-155607793D01*
X140416626Y-155518408D01*
X140702797Y-155394966D01*
X140972703Y-155239136D01*
X141222693Y-155053025D01*
X141449386Y-154839151D01*
X141649717Y-154600405D01*
X141820978Y-154340017D01*
X141960850Y-154061507D01*
X142067444Y-153768642D01*
X142139318Y-153465383D01*
X142175500Y-153155830D01*
X142175500Y-153000000D01*
X142175500Y-152991715D01*
X142175500Y-146989438D01*
X142175500Y-146844170D01*
X142175500Y-146844167D01*
X146824500Y-146844167D01*
X146824500Y-153155832D01*
X146860681Y-153465378D01*
X146860682Y-153465384D01*
X146876028Y-153530133D01*
X146930629Y-153760513D01*
X146932557Y-153768645D01*
X146932558Y-153768650D01*
X147039146Y-154061497D01*
X147039151Y-154061509D01*
X147179024Y-154340021D01*
X147350279Y-154600400D01*
X147550610Y-154839147D01*
X147777310Y-155053028D01*
X147920893Y-155159921D01*
X148027297Y-155239136D01*
X148297203Y-155394966D01*
X148583374Y-155518408D01*
X148881942Y-155607793D01*
X149188867Y-155661913D01*
X149500000Y-155680034D01*
X149811133Y-155661913D01*
X150118058Y-155607793D01*
X150416626Y-155518408D01*
X150702797Y-155394966D01*
X150972703Y-155239136D01*
X151222693Y-155053025D01*
X151449386Y-154839151D01*
X151649717Y-154600405D01*
X151820978Y-154340017D01*
X151960850Y-154061507D01*
X152067444Y-153768642D01*
X152139318Y-153465383D01*
X152175500Y-153155830D01*
X152175500Y-153000000D01*
X152175500Y-152991715D01*
X152175500Y-146989438D01*
X152175500Y-146844170D01*
X152139318Y-146534617D01*
X152067444Y-146231358D01*
X151960850Y-145938493D01*
X151820978Y-145659983D01*
X151820975Y-145659978D01*
X151649720Y-145399599D01*
X151449389Y-145160852D01*
X151222689Y-144946971D01*
X150972718Y-144760875D01*
X150972715Y-144760873D01*
X150972703Y-144760864D01*
X150702797Y-144605034D01*
X150702798Y-144605034D01*
X150702794Y-144605032D01*
X150416633Y-144481595D01*
X150416632Y-144481594D01*
X150416626Y-144481592D01*
X150118058Y-144392207D01*
X150118059Y-144392207D01*
X150023309Y-144375500D01*
X149811133Y-144338087D01*
X149811129Y-144338086D01*
X149811125Y-144338086D01*
X149500000Y-144319966D01*
X149188877Y-144338086D01*
X149188871Y-144338086D01*
X148881941Y-144392207D01*
X148754360Y-144430402D01*
X148583374Y-144481592D01*
X148583372Y-144481593D01*
X148583366Y-144481595D01*
X148297205Y-144605032D01*
X148297200Y-144605035D01*
X148027308Y-144760857D01*
X148027281Y-144760875D01*
X147777310Y-144946971D01*
X147550610Y-145160852D01*
X147350279Y-145399599D01*
X147179024Y-145659978D01*
X147039151Y-145938490D01*
X147039146Y-145938502D01*
X146932558Y-146231349D01*
X146932557Y-146231354D01*
X146860682Y-146534615D01*
X146860681Y-146534621D01*
X146824500Y-146844167D01*
X142175500Y-146844167D01*
X142139318Y-146534617D01*
X142067444Y-146231358D01*
X141960850Y-145938493D01*
X141820978Y-145659983D01*
X141820975Y-145659978D01*
X141649720Y-145399599D01*
X141449389Y-145160852D01*
X141222689Y-144946971D01*
X140972718Y-144760875D01*
X140972715Y-144760873D01*
X140972703Y-144760864D01*
X140702797Y-144605034D01*
X140702798Y-144605034D01*
X140702794Y-144605032D01*
X140416633Y-144481595D01*
X140416632Y-144481594D01*
X140416626Y-144481592D01*
X140118058Y-144392207D01*
X140118059Y-144392207D01*
X140023309Y-144375500D01*
X139811133Y-144338087D01*
X139811129Y-144338086D01*
X139811125Y-144338086D01*
X139500000Y-144319966D01*
X139188877Y-144338086D01*
X139188871Y-144338086D01*
X138881941Y-144392207D01*
X138754360Y-144430402D01*
X138583374Y-144481592D01*
X138583372Y-144481593D01*
X138583366Y-144481595D01*
X138297205Y-144605032D01*
X138297200Y-144605035D01*
X138027308Y-144760857D01*
X138027281Y-144760875D01*
X137777310Y-144946971D01*
X137550610Y-145160852D01*
X137350279Y-145399599D01*
X137179024Y-145659978D01*
X137039151Y-145938490D01*
X137039146Y-145938502D01*
X136932558Y-146231349D01*
X136932557Y-146231354D01*
X136860682Y-146534615D01*
X136860681Y-146534621D01*
X136824500Y-146844167D01*
X111265500Y-146844167D01*
X111265500Y-123598028D01*
X111267265Y-123590707D01*
X111265500Y-123587820D01*
X111265500Y-123584438D01*
X111265500Y-123584437D01*
X111264260Y-123581444D01*
X111252363Y-123566339D01*
X109694007Y-121018084D01*
X109675500Y-120952348D01*
X109675500Y-108587650D01*
X109694006Y-108521915D01*
X111260174Y-105960887D01*
X111265500Y-105955562D01*
X111265500Y-105952179D01*
X111267265Y-105949293D01*
X111267265Y-105949291D01*
X111267769Y-105946093D01*
X111265500Y-105926999D01*
X111265500Y-77534375D01*
X111265538Y-77534375D01*
X111265496Y-77534155D01*
X111265687Y-77419355D01*
X111247564Y-77256485D01*
X111232357Y-77119817D01*
X111165540Y-76825930D01*
X111066083Y-76541426D01*
X110941868Y-76283651D01*
X110935252Y-76269921D01*
X110935251Y-76269920D01*
X110935250Y-76269917D01*
X110774702Y-76014851D01*
X110586477Y-75779467D01*
X110586475Y-75779465D01*
X110586470Y-75779459D01*
X110372969Y-75566757D01*
X110372966Y-75566754D01*
X110136879Y-75379411D01*
X110136874Y-75379407D01*
X110136866Y-75379402D01*
X109881214Y-75219819D01*
X109609218Y-75090003D01*
X109606242Y-75088975D01*
X109324343Y-74991612D01*
X109324341Y-74991611D01*
X109324331Y-74991608D01*
X109030211Y-74925895D01*
X109030200Y-74925893D01*
X108730551Y-74893687D01*
X108730547Y-74893687D01*
X108616177Y-74894304D01*
X108580409Y-74894498D01*
X108579729Y-74894500D01*
X103151500Y-74894500D01*
X103083379Y-74874498D01*
X103036886Y-74820842D01*
X103025500Y-74768500D01*
X103025500Y-70124024D01*
X103366500Y-70124024D01*
X103366500Y-70475975D01*
X103405906Y-70825711D01*
X103484223Y-71168837D01*
X103600455Y-71501010D01*
X103600466Y-71501037D01*
X103753163Y-71818116D01*
X103753168Y-71818125D01*
X103940414Y-72116124D01*
X104159844Y-72391283D01*
X104408716Y-72640155D01*
X104683875Y-72859585D01*
X104683877Y-72859586D01*
X104981879Y-73046834D01*
X105298972Y-73199538D01*
X105298988Y-73199543D01*
X105298989Y-73199544D01*
X105631162Y-73315776D01*
X105631165Y-73315776D01*
X105631169Y-73315778D01*
X105974292Y-73394094D01*
X106222284Y-73422036D01*
X106324024Y-73433500D01*
X106324026Y-73433500D01*
X106675976Y-73433500D01*
X106764795Y-73423492D01*
X107025708Y-73394094D01*
X107368831Y-73315778D01*
X107701028Y-73199538D01*
X108018121Y-73046834D01*
X108316123Y-72859586D01*
X108371155Y-72815699D01*
X108591283Y-72640155D01*
X108840155Y-72391283D01*
X109059585Y-72116124D01*
X109246831Y-71818125D01*
X109246834Y-71818121D01*
X109399538Y-71501028D01*
X109515778Y-71168831D01*
X109594094Y-70825708D01*
X109633500Y-70475974D01*
X109633500Y-70124026D01*
X109594094Y-69774292D01*
X109515778Y-69431169D01*
X109475551Y-69316207D01*
X109399544Y-69098989D01*
X109399543Y-69098988D01*
X109399538Y-69098972D01*
X109246834Y-68781879D01*
X109059586Y-68483877D01*
X109059585Y-68483875D01*
X108840155Y-68208716D01*
X108591283Y-67959844D01*
X108316124Y-67740414D01*
X108018125Y-67553168D01*
X108018116Y-67553163D01*
X107701037Y-67400466D01*
X107701032Y-67400464D01*
X107701028Y-67400462D01*
X107701022Y-67400459D01*
X107701010Y-67400455D01*
X107368837Y-67284223D01*
X107025711Y-67205906D01*
X106675976Y-67166500D01*
X106675974Y-67166500D01*
X106324026Y-67166500D01*
X106324024Y-67166500D01*
X105974288Y-67205906D01*
X105631162Y-67284223D01*
X105298989Y-67400455D01*
X105298962Y-67400466D01*
X104981883Y-67553163D01*
X104981874Y-67553168D01*
X104683875Y-67740414D01*
X104408716Y-67959844D01*
X104159844Y-68208716D01*
X103940414Y-68483875D01*
X103753168Y-68781874D01*
X103753163Y-68781883D01*
X103600466Y-69098962D01*
X103600455Y-69098989D01*
X103484223Y-69431162D01*
X103405906Y-69774288D01*
X103366500Y-70124024D01*
X103025500Y-70124024D01*
X103025500Y-65901500D01*
X103045502Y-65833379D01*
X103099158Y-65786886D01*
X103151500Y-65775500D01*
X113975650Y-65775500D01*
X114043771Y-65795502D01*
G37*
%TD.AperFunction*%
%TA.AperFunction,Conductor*%
G36*
X160813771Y-65795502D02*
G01*
X160860264Y-65849158D01*
X160870368Y-65919432D01*
X160863706Y-65945528D01*
X160858011Y-65960799D01*
X160858010Y-65960802D01*
X160858009Y-65960803D01*
X160851500Y-66021350D01*
X160851500Y-69118649D01*
X160858009Y-69179196D01*
X160858011Y-69179204D01*
X160909110Y-69316202D01*
X160909112Y-69316207D01*
X160996738Y-69433261D01*
X161113792Y-69520887D01*
X161113794Y-69520888D01*
X161113796Y-69520889D01*
X161172875Y-69542924D01*
X161250795Y-69571988D01*
X161250803Y-69571990D01*
X161311350Y-69578499D01*
X161311355Y-69578499D01*
X161311362Y-69578500D01*
X166975500Y-69578500D01*
X167043621Y-69598502D01*
X167090114Y-69652158D01*
X167101500Y-69704500D01*
X167101500Y-89573629D01*
X167081498Y-89641750D01*
X167064595Y-89662724D01*
X151902724Y-104824595D01*
X151840412Y-104858621D01*
X151813629Y-104861500D01*
X137465288Y-104861500D01*
X137392024Y-104876073D01*
X137392024Y-104876074D01*
X137318753Y-104890649D01*
X137318751Y-104890649D01*
X137318750Y-104890650D01*
X137318749Y-104890650D01*
X137180715Y-104947826D01*
X137056489Y-105030831D01*
X137056482Y-105030836D01*
X135690837Y-106396481D01*
X135690832Y-106396488D01*
X135607826Y-106520715D01*
X135550650Y-106658750D01*
X135550649Y-106658753D01*
X135521500Y-106805290D01*
X135521500Y-113263628D01*
X135501498Y-113331749D01*
X135484595Y-113352723D01*
X132111804Y-116725513D01*
X132049492Y-116759539D01*
X131978676Y-116754474D01*
X131947201Y-116737287D01*
X131912777Y-116711518D01*
X131896203Y-116699110D01*
X131759204Y-116648011D01*
X131759196Y-116648009D01*
X131698649Y-116641500D01*
X131698638Y-116641500D01*
X129101362Y-116641500D01*
X129101350Y-116641500D01*
X129040803Y-116648009D01*
X129040795Y-116648011D01*
X128903797Y-116699110D01*
X128903792Y-116699112D01*
X128786738Y-116786738D01*
X128699112Y-116903792D01*
X128699110Y-116903797D01*
X128648011Y-117040795D01*
X128648009Y-117040803D01*
X128641500Y-117101350D01*
X128641500Y-118898649D01*
X128648009Y-118959196D01*
X128648011Y-118959204D01*
X128699110Y-119096202D01*
X128699112Y-119096207D01*
X128786738Y-119213261D01*
X128903792Y-119300887D01*
X128903794Y-119300888D01*
X128903796Y-119300889D01*
X128962875Y-119322924D01*
X129040795Y-119351988D01*
X129040803Y-119351990D01*
X129101350Y-119358499D01*
X129101355Y-119358499D01*
X129101362Y-119358500D01*
X129101368Y-119358500D01*
X131698632Y-119358500D01*
X131698638Y-119358500D01*
X131698645Y-119358499D01*
X131698649Y-119358499D01*
X131759196Y-119351990D01*
X131759199Y-119351989D01*
X131759201Y-119351989D01*
X131896204Y-119300889D01*
X131905299Y-119294081D01*
X132013261Y-119213261D01*
X132100887Y-119096207D01*
X132100887Y-119096206D01*
X132100889Y-119096204D01*
X132151989Y-118959201D01*
X132155093Y-118930336D01*
X132158499Y-118898649D01*
X132158500Y-118898632D01*
X132158500Y-118802252D01*
X132178502Y-118734131D01*
X132232158Y-118687638D01*
X132236237Y-118685862D01*
X132269284Y-118672174D01*
X132393515Y-118589166D01*
X134072163Y-116910518D01*
X140091500Y-116910518D01*
X140091500Y-117089481D01*
X140108838Y-117176645D01*
X140126413Y-117265000D01*
X140194898Y-117430336D01*
X140294322Y-117579135D01*
X140420865Y-117705678D01*
X140569664Y-117805102D01*
X140735000Y-117873587D01*
X140910521Y-117908500D01*
X140910522Y-117908500D01*
X141089478Y-117908500D01*
X141089479Y-117908500D01*
X141265000Y-117873587D01*
X141430336Y-117805102D01*
X141579135Y-117705678D01*
X141705678Y-117579135D01*
X141805102Y-117430336D01*
X141873587Y-117265000D01*
X141908500Y-117089479D01*
X141908500Y-116910521D01*
X141873587Y-116735000D01*
X141805102Y-116569664D01*
X141705678Y-116420865D01*
X141579135Y-116294322D01*
X141430336Y-116194898D01*
X141279215Y-116132301D01*
X141265003Y-116126414D01*
X141265001Y-116126413D01*
X141265000Y-116126413D01*
X141175854Y-116108681D01*
X141089481Y-116091500D01*
X141089479Y-116091500D01*
X140910521Y-116091500D01*
X140910518Y-116091500D01*
X140779771Y-116117507D01*
X140735000Y-116126413D01*
X140734999Y-116126413D01*
X140734996Y-116126414D01*
X140638514Y-116166379D01*
X140593553Y-116185003D01*
X140569662Y-116194899D01*
X140420869Y-116294319D01*
X140420862Y-116294324D01*
X140294324Y-116420862D01*
X140294319Y-116420869D01*
X140194899Y-116569662D01*
X140126414Y-116734996D01*
X140126413Y-116734999D01*
X140126413Y-116735000D01*
X140121532Y-116759539D01*
X140091500Y-116910518D01*
X134072163Y-116910518D01*
X136869165Y-114113516D01*
X136912702Y-114048358D01*
X136952174Y-113989284D01*
X137003033Y-113866500D01*
X137009351Y-113851247D01*
X137038500Y-113704705D01*
X137038500Y-113555295D01*
X137038500Y-113315003D01*
X137058502Y-113246882D01*
X137112158Y-113200389D01*
X137182432Y-113190285D01*
X137247012Y-113219779D01*
X137253595Y-113225908D01*
X137333365Y-113305678D01*
X137482164Y-113405102D01*
X137647500Y-113473587D01*
X137823021Y-113508500D01*
X137823022Y-113508500D01*
X138001978Y-113508500D01*
X138001979Y-113508500D01*
X138177500Y-113473587D01*
X138342836Y-113405102D01*
X138491635Y-113305678D01*
X138618178Y-113179135D01*
X138717602Y-113030336D01*
X138786087Y-112865000D01*
X138821000Y-112689479D01*
X138821000Y-112573507D01*
X138841002Y-112505386D01*
X138894658Y-112458893D01*
X138964932Y-112448789D01*
X138986627Y-112453901D01*
X139120686Y-112498324D01*
X139220289Y-112508500D01*
X139754710Y-112508499D01*
X139854314Y-112498324D01*
X140015692Y-112444849D01*
X140160387Y-112355600D01*
X140192913Y-112323073D01*
X140255223Y-112289049D01*
X140326039Y-112294113D01*
X140371101Y-112323072D01*
X140434845Y-112386816D01*
X140582087Y-112475827D01*
X140746351Y-112527013D01*
X140817735Y-112533500D01*
X141332264Y-112533499D01*
X141403649Y-112527013D01*
X141567913Y-112475827D01*
X141715155Y-112386816D01*
X141748461Y-112353510D01*
X141811259Y-112290713D01*
X141873571Y-112256687D01*
X141944386Y-112261752D01*
X141989449Y-112290713D01*
X142085149Y-112386413D01*
X142085159Y-112386421D01*
X142232293Y-112475366D01*
X142396446Y-112526518D01*
X142467781Y-112532999D01*
X142470999Y-112532999D01*
X142471000Y-112532998D01*
X142471000Y-110567000D01*
X142467768Y-110567001D01*
X142396446Y-110573481D01*
X142232293Y-110624633D01*
X142085159Y-110713578D01*
X142085149Y-110713586D01*
X141989449Y-110809287D01*
X141927137Y-110843313D01*
X141856322Y-110838248D01*
X141811259Y-110809287D01*
X141715160Y-110713188D01*
X141715155Y-110713184D01*
X141684091Y-110694405D01*
X141567913Y-110624173D01*
X141567912Y-110624172D01*
X141567911Y-110624172D01*
X141567906Y-110624170D01*
X141403646Y-110572986D01*
X141351723Y-110568268D01*
X141332265Y-110566500D01*
X141332262Y-110566500D01*
X140817738Y-110566500D01*
X140746353Y-110572986D01*
X140746352Y-110572986D01*
X140582093Y-110624170D01*
X140582088Y-110624172D01*
X140434844Y-110713184D01*
X140434839Y-110713188D01*
X140396103Y-110751925D01*
X140333791Y-110785951D01*
X140262976Y-110780886D01*
X140217913Y-110751925D01*
X140160393Y-110694405D01*
X140160387Y-110694400D01*
X140015692Y-110605151D01*
X139854314Y-110551676D01*
X139854311Y-110551675D01*
X139854309Y-110551675D01*
X139754719Y-110541500D01*
X139220289Y-110541500D01*
X139120690Y-110551675D01*
X139120687Y-110551675D01*
X139120686Y-110551676D01*
X139041357Y-110577963D01*
X138959307Y-110605151D01*
X138814612Y-110694400D01*
X138814606Y-110694405D01*
X138789095Y-110719917D01*
X138726783Y-110753943D01*
X138655968Y-110748878D01*
X138610905Y-110719917D01*
X138585393Y-110694405D01*
X138585387Y-110694400D01*
X138440692Y-110605151D01*
X138279314Y-110551676D01*
X138279311Y-110551675D01*
X138279309Y-110551675D01*
X138179719Y-110541500D01*
X137645289Y-110541500D01*
X137545690Y-110551675D01*
X137545687Y-110551675D01*
X137545686Y-110551676D01*
X137466357Y-110577963D01*
X137384307Y-110605151D01*
X137302680Y-110655500D01*
X137239613Y-110694400D01*
X137239612Y-110694400D01*
X137233367Y-110698253D01*
X137232129Y-110696246D01*
X137176789Y-110718561D01*
X137107042Y-110705298D01*
X137055538Y-110656433D01*
X137038500Y-110593162D01*
X137038500Y-107246371D01*
X137058502Y-107178250D01*
X137075405Y-107157276D01*
X137266405Y-106966276D01*
X137328717Y-106932250D01*
X137399532Y-106937315D01*
X137456368Y-106979862D01*
X137481179Y-107046382D01*
X137481500Y-107055371D01*
X137481500Y-109118649D01*
X137488009Y-109179196D01*
X137488011Y-109179204D01*
X137539110Y-109316202D01*
X137539112Y-109316207D01*
X137626738Y-109433261D01*
X137743792Y-109520887D01*
X137743794Y-109520888D01*
X137743796Y-109520889D01*
X137802875Y-109542924D01*
X137880795Y-109571988D01*
X137880803Y-109571990D01*
X137941350Y-109578499D01*
X137941355Y-109578499D01*
X137941362Y-109578500D01*
X143605500Y-109578500D01*
X143673621Y-109598502D01*
X143720114Y-109652158D01*
X143731500Y-109704500D01*
X143731500Y-110788584D01*
X143711498Y-110856705D01*
X143657842Y-110903198D01*
X143587568Y-110913302D01*
X143522988Y-110883808D01*
X143497672Y-110853770D01*
X143486421Y-110835159D01*
X143486413Y-110835149D01*
X143364850Y-110713586D01*
X143364840Y-110713578D01*
X143217706Y-110624633D01*
X143053552Y-110573481D01*
X142982223Y-110567000D01*
X142979000Y-110567000D01*
X142979000Y-112532999D01*
X142982222Y-112532999D01*
X143053553Y-112526518D01*
X143217706Y-112475366D01*
X143364840Y-112386421D01*
X143364850Y-112386413D01*
X143486413Y-112264850D01*
X143486421Y-112264840D01*
X143497671Y-112246231D01*
X143550030Y-112198282D01*
X143620000Y-112186252D01*
X143685366Y-112213960D01*
X143725376Y-112272610D01*
X143731500Y-112311415D01*
X143731500Y-118585399D01*
X143711498Y-118653520D01*
X143657842Y-118700013D01*
X143587568Y-118710117D01*
X143535499Y-118690165D01*
X143430336Y-118619898D01*
X143265003Y-118551414D01*
X143265001Y-118551413D01*
X143265000Y-118551413D01*
X143176645Y-118533838D01*
X143089481Y-118516500D01*
X143089479Y-118516500D01*
X142910521Y-118516500D01*
X142910518Y-118516500D01*
X142779771Y-118542507D01*
X142735000Y-118551413D01*
X142734999Y-118551413D01*
X142734996Y-118551414D01*
X142569662Y-118619899D01*
X142420869Y-118719319D01*
X142420862Y-118719324D01*
X142294324Y-118845862D01*
X142294319Y-118845869D01*
X142209027Y-118973519D01*
X142194898Y-118994664D01*
X142191829Y-119002073D01*
X142126414Y-119159996D01*
X142126413Y-119159999D01*
X142126413Y-119160000D01*
X142124961Y-119167300D01*
X142091500Y-119335518D01*
X142091500Y-119514481D01*
X142126414Y-119690003D01*
X142154282Y-119757281D01*
X142161871Y-119827871D01*
X142130092Y-119891358D01*
X142069034Y-119927586D01*
X142037873Y-119931500D01*
X137901350Y-119931500D01*
X137840803Y-119938009D01*
X137840795Y-119938011D01*
X137703797Y-119989110D01*
X137703792Y-119989112D01*
X137586738Y-120076738D01*
X137499112Y-120193792D01*
X137499110Y-120193797D01*
X137448011Y-120330795D01*
X137448009Y-120330803D01*
X137441500Y-120391350D01*
X137441500Y-123360500D01*
X137421498Y-123428621D01*
X137367842Y-123475114D01*
X137315500Y-123486500D01*
X129612838Y-123486500D01*
X129544717Y-123466498D01*
X129498224Y-123412842D01*
X129488120Y-123342568D01*
X129496429Y-123312282D01*
X129503585Y-123295005D01*
X129503585Y-123295004D01*
X129503587Y-123295000D01*
X129538500Y-123119479D01*
X129538500Y-122940521D01*
X129503587Y-122765000D01*
X129435102Y-122599664D01*
X129335678Y-122450865D01*
X129209135Y-122324322D01*
X129209133Y-122324320D01*
X129209130Y-122324318D01*
X129205723Y-122322042D01*
X129160195Y-122267565D01*
X129151348Y-122197122D01*
X129181989Y-122133078D01*
X129186593Y-122128219D01*
X129265678Y-122049135D01*
X129365102Y-121900336D01*
X129433587Y-121735000D01*
X129468500Y-121559479D01*
X129468500Y-121380521D01*
X129433587Y-121205000D01*
X129365102Y-121039664D01*
X129265678Y-120890865D01*
X129139135Y-120764322D01*
X128990336Y-120664898D01*
X128873429Y-120616473D01*
X128825003Y-120596414D01*
X128825001Y-120596413D01*
X128825000Y-120596413D01*
X128736645Y-120578838D01*
X128649481Y-120561500D01*
X128649479Y-120561500D01*
X128470521Y-120561500D01*
X128470518Y-120561500D01*
X128340650Y-120587332D01*
X128295000Y-120596413D01*
X128294999Y-120596413D01*
X128294991Y-120596415D01*
X128291061Y-120597607D01*
X128220067Y-120598232D01*
X128160005Y-120560375D01*
X128129945Y-120496056D01*
X128128500Y-120477028D01*
X128128500Y-120371367D01*
X128128499Y-120371350D01*
X128121990Y-120310803D01*
X128121988Y-120310795D01*
X128082079Y-120203797D01*
X128070889Y-120173796D01*
X128070888Y-120173794D01*
X128070887Y-120173792D01*
X127983261Y-120056738D01*
X127866207Y-119969112D01*
X127866202Y-119969110D01*
X127729204Y-119918011D01*
X127729196Y-119918009D01*
X127668649Y-119911500D01*
X127668638Y-119911500D01*
X115146371Y-119911500D01*
X115078250Y-119891498D01*
X115057276Y-119874595D01*
X113395405Y-118212724D01*
X113361379Y-118150412D01*
X113358500Y-118123629D01*
X113358500Y-111316371D01*
X113378502Y-111248250D01*
X113395405Y-111227276D01*
X115007276Y-109615405D01*
X115069588Y-109581379D01*
X115096371Y-109578500D01*
X127615500Y-109578500D01*
X127683621Y-109598502D01*
X127730114Y-109652158D01*
X127741500Y-109704500D01*
X127741500Y-109754708D01*
X127753536Y-109815215D01*
X127770649Y-109901247D01*
X127770650Y-109901250D01*
X127816097Y-110010968D01*
X127823686Y-110081558D01*
X127791907Y-110145045D01*
X127730849Y-110181272D01*
X127686224Y-110184465D01*
X127658640Y-110181500D01*
X127658638Y-110181500D01*
X125061362Y-110181500D01*
X125061350Y-110181500D01*
X125000803Y-110188009D01*
X125000795Y-110188011D01*
X124863797Y-110239110D01*
X124863792Y-110239112D01*
X124746738Y-110326738D01*
X124659112Y-110443792D01*
X124659110Y-110443797D01*
X124608011Y-110580795D01*
X124608009Y-110580803D01*
X124601500Y-110641350D01*
X124601500Y-110655500D01*
X124581498Y-110723621D01*
X124527842Y-110770114D01*
X124475500Y-110781500D01*
X120033479Y-110781500D01*
X119965358Y-110761498D01*
X119944384Y-110744595D01*
X119929804Y-110730015D01*
X119929799Y-110730011D01*
X119743597Y-110601009D01*
X119743588Y-110601004D01*
X119537341Y-110507323D01*
X119537338Y-110507322D01*
X119537336Y-110507321D01*
X119375277Y-110466486D01*
X119317673Y-110451971D01*
X119317672Y-110451970D01*
X119317669Y-110451970D01*
X119184636Y-110441500D01*
X117555364Y-110441500D01*
X117422331Y-110451970D01*
X117422327Y-110451970D01*
X117422326Y-110451971D01*
X117202667Y-110507320D01*
X117202658Y-110507323D01*
X116996411Y-110601004D01*
X116996402Y-110601009D01*
X116810200Y-110730011D01*
X116810195Y-110730015D01*
X116650015Y-110890195D01*
X116650011Y-110890200D01*
X116521009Y-111076402D01*
X116521004Y-111076411D01*
X116427323Y-111282658D01*
X116427320Y-111282667D01*
X116399187Y-111394319D01*
X116371970Y-111502331D01*
X116361500Y-111635364D01*
X116361500Y-113264636D01*
X116371970Y-113397669D01*
X116371970Y-113397672D01*
X116371971Y-113397673D01*
X116427320Y-113617332D01*
X116427323Y-113617341D01*
X116521004Y-113823588D01*
X116521009Y-113823597D01*
X116650011Y-114009799D01*
X116650015Y-114009804D01*
X116810195Y-114169984D01*
X116810200Y-114169988D01*
X116996402Y-114298990D01*
X116996408Y-114298993D01*
X116996409Y-114298994D01*
X117202664Y-114392679D01*
X117422331Y-114448030D01*
X117555364Y-114458500D01*
X117555367Y-114458500D01*
X119184633Y-114458500D01*
X119184636Y-114458500D01*
X119317669Y-114448030D01*
X119537336Y-114392679D01*
X119743591Y-114298994D01*
X119929802Y-114169986D01*
X120089986Y-114009802D01*
X120161901Y-113906000D01*
X120218990Y-113823597D01*
X120218990Y-113823595D01*
X120218994Y-113823591D01*
X120312679Y-113617336D01*
X120368030Y-113397669D01*
X120378500Y-113264636D01*
X120378500Y-112424500D01*
X120398502Y-112356379D01*
X120452158Y-112309886D01*
X120504500Y-112298500D01*
X124475500Y-112298500D01*
X124543621Y-112318502D01*
X124590114Y-112372158D01*
X124601500Y-112424500D01*
X124601500Y-112438649D01*
X124608009Y-112499196D01*
X124608011Y-112499204D01*
X124659110Y-112636202D01*
X124659112Y-112636207D01*
X124746738Y-112753261D01*
X124863792Y-112840887D01*
X124863794Y-112840888D01*
X124863796Y-112840889D01*
X124909482Y-112857929D01*
X125000795Y-112891988D01*
X125000803Y-112891990D01*
X125061350Y-112898499D01*
X125061355Y-112898499D01*
X125061362Y-112898500D01*
X125475500Y-112898500D01*
X125484325Y-112901091D01*
X125493432Y-112899782D01*
X125517857Y-112910937D01*
X125543621Y-112918502D01*
X125549645Y-112925455D01*
X125558012Y-112929276D01*
X125572526Y-112951861D01*
X125590114Y-112972158D01*
X125592438Y-112982844D01*
X125596396Y-112989002D01*
X125601500Y-113024500D01*
X125601500Y-113265500D01*
X125581498Y-113333621D01*
X125527842Y-113380114D01*
X125475500Y-113391500D01*
X125061350Y-113391500D01*
X125000803Y-113398009D01*
X125000795Y-113398011D01*
X124863797Y-113449110D01*
X124863792Y-113449112D01*
X124746738Y-113536738D01*
X124659112Y-113653792D01*
X124659110Y-113653797D01*
X124608011Y-113790795D01*
X124608009Y-113790803D01*
X124601500Y-113851350D01*
X124601500Y-115465090D01*
X124581498Y-115533211D01*
X124527842Y-115579704D01*
X124457568Y-115589808D01*
X124427287Y-115581501D01*
X124415006Y-115576414D01*
X124239481Y-115541500D01*
X124239479Y-115541500D01*
X124060521Y-115541500D01*
X124060518Y-115541500D01*
X123963266Y-115560845D01*
X123885000Y-115576413D01*
X123884999Y-115576413D01*
X123884996Y-115576414D01*
X123807294Y-115608600D01*
X123727996Y-115641447D01*
X123719662Y-115644899D01*
X123570869Y-115744319D01*
X123570862Y-115744324D01*
X123444324Y-115870862D01*
X123444319Y-115870869D01*
X123344898Y-116019663D01*
X123276413Y-116185000D01*
X123276412Y-116185003D01*
X123275401Y-116190087D01*
X123242491Y-116252995D01*
X123180794Y-116288124D01*
X123151823Y-116291500D01*
X120489391Y-116291500D01*
X120421270Y-116271498D01*
X120374777Y-116217842D01*
X120363779Y-116175389D01*
X120358030Y-116102331D01*
X120302679Y-115882664D01*
X120223889Y-115709201D01*
X120208995Y-115676411D01*
X120208990Y-115676402D01*
X120079988Y-115490200D01*
X120079984Y-115490195D01*
X119919804Y-115330015D01*
X119919799Y-115330011D01*
X119733597Y-115201009D01*
X119733588Y-115201004D01*
X119527341Y-115107323D01*
X119527338Y-115107322D01*
X119527336Y-115107321D01*
X119307669Y-115051970D01*
X119174636Y-115041500D01*
X117545364Y-115041500D01*
X117412331Y-115051970D01*
X117412327Y-115051970D01*
X117412326Y-115051971D01*
X117192667Y-115107320D01*
X117192658Y-115107323D01*
X116986411Y-115201004D01*
X116986402Y-115201009D01*
X116800200Y-115330011D01*
X116800195Y-115330015D01*
X116640015Y-115490195D01*
X116640011Y-115490200D01*
X116511009Y-115676402D01*
X116511004Y-115676411D01*
X116417323Y-115882658D01*
X116417320Y-115882667D01*
X116362196Y-116101436D01*
X116361970Y-116102331D01*
X116351500Y-116235364D01*
X116351500Y-117864636D01*
X116361970Y-117997669D01*
X116361970Y-117997672D01*
X116361971Y-117997673D01*
X116417320Y-118217332D01*
X116417323Y-118217341D01*
X116511004Y-118423588D01*
X116511009Y-118423597D01*
X116640011Y-118609799D01*
X116640015Y-118609804D01*
X116800195Y-118769984D01*
X116800200Y-118769988D01*
X116986402Y-118898990D01*
X116986408Y-118898993D01*
X116986409Y-118898994D01*
X117192664Y-118992679D01*
X117412331Y-119048030D01*
X117545364Y-119058500D01*
X117545367Y-119058500D01*
X119174633Y-119058500D01*
X119174636Y-119058500D01*
X119307669Y-119048030D01*
X119527336Y-118992679D01*
X119733591Y-118898994D01*
X119919802Y-118769986D01*
X120079986Y-118609802D01*
X120208994Y-118423591D01*
X120302679Y-118217336D01*
X120358030Y-117997669D01*
X120363779Y-117924612D01*
X120389065Y-117858272D01*
X120446203Y-117816133D01*
X120489391Y-117808500D01*
X123235500Y-117808500D01*
X123303621Y-117828502D01*
X123350114Y-117882158D01*
X123361500Y-117934500D01*
X123361500Y-118089479D01*
X123396413Y-118265000D01*
X123464898Y-118430336D01*
X123564322Y-118579135D01*
X123690865Y-118705678D01*
X123839664Y-118805102D01*
X124005000Y-118873587D01*
X124180521Y-118908500D01*
X124180522Y-118908500D01*
X124359478Y-118908500D01*
X124359479Y-118908500D01*
X124505316Y-118879491D01*
X124576026Y-118885819D01*
X124632093Y-118929373D01*
X124647949Y-118959037D01*
X124699110Y-119096202D01*
X124699112Y-119096207D01*
X124786738Y-119213261D01*
X124903792Y-119300887D01*
X124903794Y-119300888D01*
X124903796Y-119300889D01*
X124962875Y-119322924D01*
X125040795Y-119351988D01*
X125040803Y-119351990D01*
X125101350Y-119358499D01*
X125101355Y-119358499D01*
X125101362Y-119358500D01*
X125101368Y-119358500D01*
X127698632Y-119358500D01*
X127698638Y-119358500D01*
X127698645Y-119358499D01*
X127698649Y-119358499D01*
X127759196Y-119351990D01*
X127759199Y-119351989D01*
X127759201Y-119351989D01*
X127896204Y-119300889D01*
X127905299Y-119294081D01*
X128013261Y-119213261D01*
X128100887Y-119096207D01*
X128100887Y-119096206D01*
X128100889Y-119096204D01*
X128151989Y-118959201D01*
X128155093Y-118930336D01*
X128158499Y-118898649D01*
X128158500Y-118898632D01*
X128158500Y-117101367D01*
X128158499Y-117101350D01*
X128151990Y-117040803D01*
X128151988Y-117040795D01*
X128110476Y-116929500D01*
X128100889Y-116903796D01*
X128100888Y-116903794D01*
X128100887Y-116903792D01*
X128013261Y-116786738D01*
X127896207Y-116699112D01*
X127896202Y-116699110D01*
X127759204Y-116648011D01*
X127759196Y-116648009D01*
X127698649Y-116641500D01*
X127698638Y-116641500D01*
X127244500Y-116641500D01*
X127176379Y-116621498D01*
X127129886Y-116567842D01*
X127118500Y-116515500D01*
X127118500Y-116234500D01*
X127138502Y-116166379D01*
X127192158Y-116119886D01*
X127244500Y-116108500D01*
X127658632Y-116108500D01*
X127658638Y-116108500D01*
X127658645Y-116108499D01*
X127658649Y-116108499D01*
X127719196Y-116101990D01*
X127719199Y-116101989D01*
X127719201Y-116101989D01*
X127856204Y-116050889D01*
X127886110Y-116028502D01*
X127973261Y-115963261D01*
X128060887Y-115846207D01*
X128060887Y-115846206D01*
X128060889Y-115846204D01*
X128111989Y-115709201D01*
X128113642Y-115693833D01*
X128118499Y-115648649D01*
X128118500Y-115648632D01*
X128118500Y-113851367D01*
X128118499Y-113851350D01*
X128111990Y-113790803D01*
X128111988Y-113790795D01*
X128079877Y-113704705D01*
X128060889Y-113653796D01*
X128060888Y-113653794D01*
X128060887Y-113653792D01*
X127973261Y-113536738D01*
X127856207Y-113449112D01*
X127856202Y-113449110D01*
X127719204Y-113398011D01*
X127719196Y-113398009D01*
X127658649Y-113391500D01*
X127658638Y-113391500D01*
X127244500Y-113391500D01*
X127235674Y-113388908D01*
X127226568Y-113390218D01*
X127202142Y-113379062D01*
X127176379Y-113371498D01*
X127170354Y-113364544D01*
X127161988Y-113360724D01*
X127147473Y-113338138D01*
X127129886Y-113317842D01*
X127127561Y-113307155D01*
X127123604Y-113300998D01*
X127118500Y-113265500D01*
X127118500Y-113024500D01*
X127138502Y-112956379D01*
X127192158Y-112909886D01*
X127244500Y-112898500D01*
X127658632Y-112898500D01*
X127658638Y-112898500D01*
X127658645Y-112898499D01*
X127658649Y-112898499D01*
X127719196Y-112891990D01*
X127719199Y-112891989D01*
X127719201Y-112891989D01*
X127856204Y-112840889D01*
X127926053Y-112788601D01*
X127973261Y-112753261D01*
X128060887Y-112636207D01*
X128060887Y-112636206D01*
X128060889Y-112636204D01*
X128111989Y-112499201D01*
X128112084Y-112498324D01*
X128118499Y-112438649D01*
X128118500Y-112438632D01*
X128118500Y-110675371D01*
X128138502Y-110607250D01*
X128192158Y-110560757D01*
X128262432Y-110550653D01*
X128327012Y-110580147D01*
X128333595Y-110586276D01*
X128564595Y-110817276D01*
X128598621Y-110879588D01*
X128601500Y-110906371D01*
X128601500Y-112438649D01*
X128608009Y-112499196D01*
X128608011Y-112499204D01*
X128659110Y-112636202D01*
X128659112Y-112636207D01*
X128746738Y-112753261D01*
X128863792Y-112840887D01*
X128863794Y-112840888D01*
X128863796Y-112840889D01*
X128909482Y-112857929D01*
X129000795Y-112891988D01*
X129000803Y-112891990D01*
X129061350Y-112898499D01*
X129061355Y-112898499D01*
X129061362Y-112898500D01*
X130834629Y-112898500D01*
X130902750Y-112918502D01*
X130949243Y-112972158D01*
X130959347Y-113042432D01*
X130929853Y-113107012D01*
X130923724Y-113113595D01*
X130682724Y-113354595D01*
X130620412Y-113388621D01*
X130593629Y-113391500D01*
X129061350Y-113391500D01*
X129000803Y-113398009D01*
X129000795Y-113398011D01*
X128863797Y-113449110D01*
X128863792Y-113449112D01*
X128746738Y-113536738D01*
X128659112Y-113653792D01*
X128659110Y-113653797D01*
X128608011Y-113790795D01*
X128608009Y-113790803D01*
X128601500Y-113851350D01*
X128601500Y-115648649D01*
X128608009Y-115709196D01*
X128608011Y-115709204D01*
X128659110Y-115846202D01*
X128659112Y-115846207D01*
X128746738Y-115963261D01*
X128863792Y-116050887D01*
X128863794Y-116050888D01*
X128863796Y-116050889D01*
X128922875Y-116072924D01*
X129000795Y-116101988D01*
X129000803Y-116101990D01*
X129061350Y-116108499D01*
X129061355Y-116108499D01*
X129061362Y-116108500D01*
X129061368Y-116108500D01*
X131658632Y-116108500D01*
X131658638Y-116108500D01*
X131658645Y-116108499D01*
X131658649Y-116108499D01*
X131719196Y-116101990D01*
X131719199Y-116101989D01*
X131719201Y-116101989D01*
X131856204Y-116050889D01*
X131886110Y-116028502D01*
X131973261Y-115963261D01*
X132060887Y-115846207D01*
X132060887Y-115846206D01*
X132060889Y-115846204D01*
X132111989Y-115709201D01*
X132113642Y-115693833D01*
X132118499Y-115648649D01*
X132118500Y-115648632D01*
X132118500Y-114116371D01*
X132138502Y-114048250D01*
X132155405Y-114027276D01*
X132992142Y-113190539D01*
X133829166Y-112353515D01*
X133912174Y-112229285D01*
X133969351Y-112091247D01*
X133994168Y-111966485D01*
X133998500Y-111944706D01*
X133998500Y-104323212D01*
X133969351Y-104176672D01*
X133912174Y-104038634D01*
X133829165Y-103914402D01*
X133723516Y-103808753D01*
X131855405Y-101940642D01*
X131821379Y-101878330D01*
X131818500Y-101851547D01*
X131818500Y-89324003D01*
X133286500Y-89324003D01*
X133286500Y-97276007D01*
X133298237Y-97385164D01*
X133309441Y-97436667D01*
X133344109Y-97540825D01*
X133423130Y-97663784D01*
X133423131Y-97663786D01*
X133468880Y-97716582D01*
X133468882Y-97716583D01*
X133468884Y-97716586D01*
X133579339Y-97812297D01*
X133658416Y-97848411D01*
X133712284Y-97873013D01*
X133712286Y-97873013D01*
X133712287Y-97873014D01*
X133779326Y-97892699D01*
X133779330Y-97892700D01*
X133924000Y-97913500D01*
X133924004Y-97913500D01*
X154988857Y-97913500D01*
X154988862Y-97913500D01*
X155098019Y-97901764D01*
X155149530Y-97890558D01*
X155253689Y-97855890D01*
X155376644Y-97776871D01*
X155376646Y-97776868D01*
X155376648Y-97776868D01*
X155403046Y-97753993D01*
X155429448Y-97731116D01*
X155525159Y-97620661D01*
X155585876Y-97487713D01*
X155605561Y-97420674D01*
X155605562Y-97420670D01*
X155626362Y-97276000D01*
X155626362Y-89324000D01*
X155614626Y-89214843D01*
X155603420Y-89163332D01*
X155568752Y-89059173D01*
X155489733Y-88936218D01*
X155489732Y-88936217D01*
X155489731Y-88936215D01*
X155489730Y-88936213D01*
X155443981Y-88883417D01*
X155427209Y-88868884D01*
X155333523Y-88787703D01*
X155200577Y-88726986D01*
X155133541Y-88707302D01*
X155133537Y-88707301D01*
X155133534Y-88707300D01*
X155133532Y-88707300D01*
X154988862Y-88686500D01*
X133924000Y-88686500D01*
X133923992Y-88686500D01*
X133830104Y-88696595D01*
X133814843Y-88698236D01*
X133814841Y-88698236D01*
X133814835Y-88698237D01*
X133763332Y-88709441D01*
X133659174Y-88744109D01*
X133536215Y-88823130D01*
X133536213Y-88823131D01*
X133483417Y-88868880D01*
X133387704Y-88979337D01*
X133387703Y-88979338D01*
X133326986Y-89112284D01*
X133307302Y-89179320D01*
X133307301Y-89179324D01*
X133307301Y-89179326D01*
X133307300Y-89179330D01*
X133286502Y-89323992D01*
X133286500Y-89324003D01*
X131818500Y-89324003D01*
X131818500Y-78106371D01*
X131838502Y-78038250D01*
X131855405Y-78017276D01*
X133428514Y-76444167D01*
X136824500Y-76444167D01*
X136824500Y-82755832D01*
X136860681Y-83065378D01*
X136860682Y-83065384D01*
X136932557Y-83368645D01*
X136932558Y-83368650D01*
X137039146Y-83661497D01*
X137039151Y-83661509D01*
X137179024Y-83940021D01*
X137350279Y-84200400D01*
X137550610Y-84439147D01*
X137777310Y-84653028D01*
X137920893Y-84759921D01*
X138027297Y-84839136D01*
X138297203Y-84994966D01*
X138583374Y-85118408D01*
X138881942Y-85207793D01*
X139188867Y-85261913D01*
X139500000Y-85280034D01*
X139811133Y-85261913D01*
X140118058Y-85207793D01*
X140416626Y-85118408D01*
X140702797Y-84994966D01*
X140972703Y-84839136D01*
X141222693Y-84653025D01*
X141449386Y-84439151D01*
X141649717Y-84200405D01*
X141820978Y-83940017D01*
X141960850Y-83661507D01*
X142067444Y-83368642D01*
X142139318Y-83065383D01*
X142175500Y-82755830D01*
X142175500Y-82600000D01*
X142175500Y-82591715D01*
X142175500Y-76589438D01*
X142175500Y-76444170D01*
X142175500Y-76444167D01*
X146824500Y-76444167D01*
X146824500Y-82755832D01*
X146860681Y-83065378D01*
X146860682Y-83065384D01*
X146932557Y-83368645D01*
X146932558Y-83368650D01*
X147039146Y-83661497D01*
X147039151Y-83661509D01*
X147179024Y-83940021D01*
X147350279Y-84200400D01*
X147550610Y-84439147D01*
X147777310Y-84653028D01*
X147920893Y-84759921D01*
X148027297Y-84839136D01*
X148297203Y-84994966D01*
X148583374Y-85118408D01*
X148881942Y-85207793D01*
X149188867Y-85261913D01*
X149500000Y-85280034D01*
X149811133Y-85261913D01*
X150118058Y-85207793D01*
X150416626Y-85118408D01*
X150702797Y-84994966D01*
X150972703Y-84839136D01*
X151222693Y-84653025D01*
X151449386Y-84439151D01*
X151649717Y-84200405D01*
X151820978Y-83940017D01*
X151960850Y-83661507D01*
X152067444Y-83368642D01*
X152139318Y-83065383D01*
X152175500Y-82755830D01*
X152175500Y-82600000D01*
X152175500Y-82591715D01*
X152175500Y-76589438D01*
X152175500Y-76444170D01*
X152139318Y-76134617D01*
X152067444Y-75831358D01*
X152048554Y-75779459D01*
X151960853Y-75538502D01*
X151960850Y-75538493D01*
X151820978Y-75259983D01*
X151782119Y-75200901D01*
X151649720Y-74999599D01*
X151647225Y-74996626D01*
X151499726Y-74820842D01*
X151449389Y-74760852D01*
X151222689Y-74546971D01*
X150972718Y-74360875D01*
X150972715Y-74360873D01*
X150972703Y-74360864D01*
X150702797Y-74205034D01*
X150702798Y-74205034D01*
X150702794Y-74205032D01*
X150416633Y-74081595D01*
X150416632Y-74081594D01*
X150416626Y-74081592D01*
X150118058Y-73992207D01*
X150118059Y-73992207D01*
X150023309Y-73975500D01*
X149811133Y-73938087D01*
X149811129Y-73938086D01*
X149811125Y-73938086D01*
X149500000Y-73919966D01*
X149188877Y-73938086D01*
X149188871Y-73938086D01*
X148881941Y-73992207D01*
X148754360Y-74030402D01*
X148583374Y-74081592D01*
X148583372Y-74081593D01*
X148583366Y-74081595D01*
X148297205Y-74205032D01*
X148297200Y-74205035D01*
X148027308Y-74360857D01*
X148027281Y-74360875D01*
X147777310Y-74546971D01*
X147550610Y-74760852D01*
X147350279Y-74999599D01*
X147179024Y-75259978D01*
X147039151Y-75538490D01*
X147039146Y-75538502D01*
X146932558Y-75831349D01*
X146932557Y-75831354D01*
X146860682Y-76134615D01*
X146860681Y-76134621D01*
X146824500Y-76444167D01*
X142175500Y-76444167D01*
X142139318Y-76134617D01*
X142067444Y-75831358D01*
X142048554Y-75779459D01*
X141960853Y-75538502D01*
X141960850Y-75538493D01*
X141820978Y-75259983D01*
X141782119Y-75200901D01*
X141649720Y-74999599D01*
X141647225Y-74996626D01*
X141499726Y-74820842D01*
X141449389Y-74760852D01*
X141222689Y-74546971D01*
X140972718Y-74360875D01*
X140972715Y-74360873D01*
X140972703Y-74360864D01*
X140702797Y-74205034D01*
X140702798Y-74205034D01*
X140702794Y-74205032D01*
X140416633Y-74081595D01*
X140416632Y-74081594D01*
X140416626Y-74081592D01*
X140118058Y-73992207D01*
X140118059Y-73992207D01*
X140023309Y-73975500D01*
X139811133Y-73938087D01*
X139811129Y-73938086D01*
X139811125Y-73938086D01*
X139500000Y-73919966D01*
X139188877Y-73938086D01*
X139188871Y-73938086D01*
X138881941Y-73992207D01*
X138754360Y-74030402D01*
X138583374Y-74081592D01*
X138583372Y-74081593D01*
X138583366Y-74081595D01*
X138297205Y-74205032D01*
X138297200Y-74205035D01*
X138027308Y-74360857D01*
X138027281Y-74360875D01*
X137777310Y-74546971D01*
X137550610Y-74760852D01*
X137350279Y-74999599D01*
X137179024Y-75259978D01*
X137039151Y-75538490D01*
X137039146Y-75538502D01*
X136932558Y-75831349D01*
X136932557Y-75831354D01*
X136860682Y-76134615D01*
X136860681Y-76134621D01*
X136824500Y-76444167D01*
X133428514Y-76444167D01*
X137277276Y-72595405D01*
X137339588Y-72561379D01*
X137366371Y-72558500D01*
X140334701Y-72558500D01*
X140334705Y-72558500D01*
X140334706Y-72558500D01*
X140407976Y-72543925D01*
X140481247Y-72529351D01*
X140619284Y-72472174D01*
X140743515Y-72389166D01*
X143517276Y-69615405D01*
X143579588Y-69581379D01*
X143606371Y-69578500D01*
X151038632Y-69578500D01*
X151038638Y-69578500D01*
X151038645Y-69578499D01*
X151038649Y-69578499D01*
X151099196Y-69571990D01*
X151099199Y-69571989D01*
X151099201Y-69571989D01*
X151236204Y-69520889D01*
X151353261Y-69433261D01*
X151440889Y-69316204D01*
X151491989Y-69179201D01*
X151498500Y-69118638D01*
X151498500Y-66021362D01*
X151498499Y-66021350D01*
X151491990Y-65960803D01*
X151491989Y-65960802D01*
X151491989Y-65960799D01*
X151486294Y-65945532D01*
X151481229Y-65874720D01*
X151515252Y-65812407D01*
X151577564Y-65778380D01*
X151604350Y-65775500D01*
X160745650Y-65775500D01*
X160813771Y-65795502D01*
G37*
%TD.AperFunction*%
%TA.AperFunction,Conductor*%
G36*
X150671472Y-115997927D02*
G01*
X150706259Y-116016788D01*
X150718374Y-116026084D01*
X150718378Y-116026087D01*
X150866281Y-116087350D01*
X150985155Y-116102999D01*
X151467302Y-116102999D01*
X151535423Y-116123001D01*
X151581916Y-116176656D01*
X151592020Y-116246930D01*
X151574543Y-116295145D01*
X151508343Y-116402472D01*
X151452606Y-116570678D01*
X151452605Y-116570681D01*
X151442000Y-116674483D01*
X151442000Y-116946000D01*
X152324000Y-116946000D01*
X152392121Y-116966002D01*
X152438614Y-117019658D01*
X152450000Y-117072000D01*
X152450000Y-117328000D01*
X152429998Y-117396121D01*
X152376342Y-117442614D01*
X152324000Y-117454000D01*
X151442000Y-117454000D01*
X151442000Y-117725507D01*
X151443245Y-117737694D01*
X151430270Y-117807495D01*
X151381617Y-117859200D01*
X151317897Y-117876500D01*
X147259500Y-117876500D01*
X147191379Y-117856498D01*
X147144886Y-117802842D01*
X147133500Y-117750500D01*
X147133500Y-116414500D01*
X147153502Y-116346379D01*
X147207158Y-116299886D01*
X147259500Y-116288500D01*
X147985405Y-116288500D01*
X148053526Y-116308502D01*
X148074500Y-116325405D01*
X148231167Y-116482072D01*
X148334925Y-116551401D01*
X148416447Y-116585168D01*
X148450215Y-116599155D01*
X148572606Y-116623500D01*
X148572607Y-116623500D01*
X148697394Y-116623500D01*
X148896497Y-116623500D01*
X148964618Y-116643502D01*
X148985592Y-116660405D01*
X149020865Y-116695678D01*
X149169664Y-116795102D01*
X149335000Y-116863587D01*
X149510521Y-116898500D01*
X149510522Y-116898500D01*
X149689478Y-116898500D01*
X149689479Y-116898500D01*
X149865000Y-116863587D01*
X150030336Y-116795102D01*
X150179135Y-116695678D01*
X150305678Y-116569135D01*
X150405102Y-116420336D01*
X150473587Y-116255000D01*
X150505976Y-116092166D01*
X150538882Y-116029259D01*
X150600577Y-115994127D01*
X150671472Y-115997927D01*
G37*
%TD.AperFunction*%
%TA.AperFunction,Conductor*%
G36*
X151854621Y-114173501D02*
G01*
X151901114Y-114227157D01*
X151912500Y-114279499D01*
X151912500Y-115269000D01*
X151909908Y-115277825D01*
X151911218Y-115286932D01*
X151900062Y-115311357D01*
X151892498Y-115337121D01*
X151885544Y-115343145D01*
X151881724Y-115351512D01*
X151859138Y-115366026D01*
X151838842Y-115383614D01*
X151828155Y-115385938D01*
X151821998Y-115389896D01*
X151786500Y-115395000D01*
X151638500Y-115395000D01*
X151570379Y-115374998D01*
X151523886Y-115321342D01*
X151512500Y-115269000D01*
X151512500Y-114279499D01*
X151532502Y-114211378D01*
X151586158Y-114164885D01*
X151638497Y-114153499D01*
X151786501Y-114153499D01*
X151854621Y-114173501D01*
G37*
%TD.AperFunction*%
%TA.AperFunction,Conductor*%
G36*
X149584534Y-113190539D02*
G01*
X149641369Y-113233086D01*
X149666179Y-113299607D01*
X149666500Y-113308594D01*
X149666500Y-114955500D01*
X149664010Y-114963978D01*
X149665318Y-114972717D01*
X149654160Y-114997523D01*
X149646498Y-115023621D01*
X149639820Y-115029406D01*
X149636196Y-115037466D01*
X149613397Y-115052302D01*
X149592842Y-115070114D01*
X149582535Y-115072386D01*
X149576690Y-115076191D01*
X149542629Y-115081187D01*
X149541222Y-115081498D01*
X149540873Y-115081500D01*
X149510521Y-115081500D01*
X149509620Y-115081679D01*
X149502816Y-115081718D01*
X149474065Y-115073454D01*
X149444675Y-115067876D01*
X149440332Y-115063758D01*
X149434582Y-115062106D01*
X149414863Y-115039611D01*
X149393154Y-115019029D01*
X149390964Y-115012348D01*
X149387782Y-115008718D01*
X149386108Y-114997533D01*
X149379785Y-114978241D01*
X149378803Y-114978474D01*
X149376988Y-114970795D01*
X149327575Y-114838317D01*
X149322509Y-114767502D01*
X149327575Y-114750251D01*
X149376494Y-114619096D01*
X149382999Y-114558597D01*
X149383000Y-114558585D01*
X149383000Y-114414000D01*
X148201000Y-114414000D01*
X148132879Y-114393998D01*
X148086386Y-114340342D01*
X148075000Y-114288000D01*
X148075000Y-114032000D01*
X148095002Y-113963879D01*
X148148658Y-113917386D01*
X148201000Y-113906000D01*
X149383000Y-113906000D01*
X149383000Y-113761414D01*
X149382999Y-113761402D01*
X149376494Y-113700903D01*
X149327575Y-113569748D01*
X149325849Y-113545626D01*
X149319678Y-113522243D01*
X149322967Y-113505345D01*
X149322509Y-113498932D01*
X149325758Y-113486899D01*
X149326602Y-113484291D01*
X149376989Y-113349201D01*
X149380290Y-113318494D01*
X149384303Y-113306102D01*
X149397263Y-113287106D01*
X149406063Y-113265861D01*
X149415063Y-113255840D01*
X149451408Y-113219495D01*
X149513718Y-113185473D01*
X149584534Y-113190539D01*
G37*
%TD.AperFunction*%
%TA.AperFunction,Conductor*%
G36*
X137443771Y-65795502D02*
G01*
X137490264Y-65849158D01*
X137500368Y-65919432D01*
X137493706Y-65945528D01*
X137488011Y-65960799D01*
X137488010Y-65960802D01*
X137488009Y-65960803D01*
X137481500Y-66021350D01*
X137481500Y-69118649D01*
X137488009Y-69179196D01*
X137488011Y-69179204D01*
X137539110Y-69316202D01*
X137539112Y-69316207D01*
X137626738Y-69433261D01*
X137743792Y-69520887D01*
X137743794Y-69520888D01*
X137743796Y-69520889D01*
X137802875Y-69542924D01*
X137880795Y-69571988D01*
X137880803Y-69571990D01*
X137941350Y-69578499D01*
X137941355Y-69578499D01*
X137941362Y-69578500D01*
X141104629Y-69578500D01*
X141172750Y-69598502D01*
X141219243Y-69652158D01*
X141229347Y-69722432D01*
X141199853Y-69787012D01*
X141193724Y-69793595D01*
X139982724Y-71004595D01*
X139920412Y-71038621D01*
X139893629Y-71041500D01*
X136925290Y-71041500D01*
X136778753Y-71070649D01*
X136778750Y-71070650D01*
X136640716Y-71127826D01*
X136516486Y-71210833D01*
X136516480Y-71210838D01*
X130470838Y-77256480D01*
X130470833Y-77256486D01*
X130387827Y-77380714D01*
X130369751Y-77424354D01*
X130369751Y-77424355D01*
X130330650Y-77518751D01*
X130330649Y-77518752D01*
X130301500Y-77665290D01*
X130301500Y-77665294D01*
X130301500Y-102143213D01*
X130301500Y-102292623D01*
X130330649Y-102439165D01*
X130387826Y-102577202D01*
X130470834Y-102701433D01*
X130470838Y-102701437D01*
X132444595Y-104675194D01*
X132478621Y-104737506D01*
X132481500Y-104764289D01*
X132481500Y-111503629D01*
X132472716Y-111533544D01*
X132466088Y-111564014D01*
X132462273Y-111569109D01*
X132461498Y-111571750D01*
X132444595Y-111592724D01*
X132333595Y-111703724D01*
X132271283Y-111737750D01*
X132200468Y-111732685D01*
X132143632Y-111690138D01*
X132118821Y-111623618D01*
X132118500Y-111614629D01*
X132118500Y-110641367D01*
X132118499Y-110641350D01*
X132111990Y-110580803D01*
X132111988Y-110580795D01*
X132069352Y-110466486D01*
X132060889Y-110443796D01*
X132060888Y-110443794D01*
X132060887Y-110443792D01*
X131973261Y-110326738D01*
X131856207Y-110239112D01*
X131856202Y-110239110D01*
X131719204Y-110188011D01*
X131719196Y-110188009D01*
X131658649Y-110181500D01*
X131658638Y-110181500D01*
X130126371Y-110181500D01*
X130058250Y-110161498D01*
X130037276Y-110144595D01*
X129295405Y-109402724D01*
X129261379Y-109340412D01*
X129258500Y-109313629D01*
X129258500Y-74905293D01*
X129258499Y-74905290D01*
X129256353Y-74894500D01*
X129229351Y-74758754D01*
X129172174Y-74620716D01*
X129089165Y-74496484D01*
X128983516Y-74390835D01*
X124386276Y-69793595D01*
X124352250Y-69731283D01*
X124357315Y-69660468D01*
X124399862Y-69603632D01*
X124466382Y-69578821D01*
X124475371Y-69578500D01*
X127638632Y-69578500D01*
X127638638Y-69578500D01*
X127638645Y-69578499D01*
X127638649Y-69578499D01*
X127699196Y-69571990D01*
X127699199Y-69571989D01*
X127699201Y-69571989D01*
X127836204Y-69520889D01*
X127953261Y-69433261D01*
X128040889Y-69316204D01*
X128091989Y-69179201D01*
X128098500Y-69118638D01*
X128098500Y-66021362D01*
X128098499Y-66021350D01*
X128091990Y-65960803D01*
X128091989Y-65960802D01*
X128091989Y-65960799D01*
X128086294Y-65945532D01*
X128081229Y-65874720D01*
X128115252Y-65812407D01*
X128177564Y-65778380D01*
X128204350Y-65775500D01*
X137375650Y-65775500D01*
X137443771Y-65795502D01*
G37*
%TD.AperFunction*%
%TD*%
%TA.AperFunction,NonConductor*%
G36*
X161815677Y-124019685D02*
G01*
X161836319Y-124036319D01*
X161863681Y-124063681D01*
X161897166Y-124125004D01*
X161900000Y-124151362D01*
X161900000Y-143248638D01*
X161891355Y-143278078D01*
X161884832Y-143308065D01*
X161881077Y-143313080D01*
X161880315Y-143315677D01*
X161863681Y-143336319D01*
X161736319Y-143463681D01*
X161674996Y-143497166D01*
X161648638Y-143500000D01*
X126324000Y-143500000D01*
X126256961Y-143480315D01*
X126211206Y-143427511D01*
X126200000Y-143376000D01*
X126200000Y-130910516D01*
X149091500Y-130910516D01*
X149091500Y-131089483D01*
X149126411Y-131264992D01*
X149126413Y-131265000D01*
X149194896Y-131430332D01*
X149194901Y-131430342D01*
X149294321Y-131579134D01*
X149294324Y-131579138D01*
X149420861Y-131705675D01*
X149420865Y-131705678D01*
X149569657Y-131805098D01*
X149569661Y-131805100D01*
X149569664Y-131805102D01*
X149735000Y-131873587D01*
X149910516Y-131908499D01*
X149910520Y-131908500D01*
X149910521Y-131908500D01*
X150089480Y-131908500D01*
X150089481Y-131908499D01*
X150265000Y-131873587D01*
X150430336Y-131805102D01*
X150579135Y-131705678D01*
X150705678Y-131579135D01*
X150805102Y-131430336D01*
X150873587Y-131265000D01*
X150908500Y-131089479D01*
X150908500Y-130910521D01*
X150873587Y-130735000D01*
X150805102Y-130569664D01*
X150805100Y-130569661D01*
X150805098Y-130569657D01*
X150705678Y-130420865D01*
X150705675Y-130420861D01*
X150579138Y-130294324D01*
X150579134Y-130294321D01*
X150430342Y-130194901D01*
X150430332Y-130194896D01*
X150265000Y-130126413D01*
X150264992Y-130126411D01*
X150089483Y-130091500D01*
X150089479Y-130091500D01*
X149910521Y-130091500D01*
X149910516Y-130091500D01*
X149735007Y-130126411D01*
X149734999Y-130126413D01*
X149569667Y-130194896D01*
X149569657Y-130194901D01*
X149420865Y-130294321D01*
X149420861Y-130294324D01*
X149294324Y-130420861D01*
X149294321Y-130420865D01*
X149194901Y-130569657D01*
X149194896Y-130569667D01*
X149126413Y-130734999D01*
X149126411Y-130735007D01*
X149091500Y-130910516D01*
X126200000Y-130910516D01*
X126200000Y-129410516D01*
X138591500Y-129410516D01*
X138591500Y-129589483D01*
X138626411Y-129764992D01*
X138626413Y-129765000D01*
X138694896Y-129930332D01*
X138694901Y-129930342D01*
X138794321Y-130079134D01*
X138794324Y-130079138D01*
X138920861Y-130205675D01*
X138920865Y-130205678D01*
X139069657Y-130305098D01*
X139069661Y-130305100D01*
X139069664Y-130305102D01*
X139235000Y-130373587D01*
X139410516Y-130408499D01*
X139410520Y-130408500D01*
X139410521Y-130408500D01*
X139589480Y-130408500D01*
X139589481Y-130408499D01*
X139765000Y-130373587D01*
X139930336Y-130305102D01*
X140079135Y-130205678D01*
X140205678Y-130079135D01*
X140305102Y-129930336D01*
X140373587Y-129765000D01*
X140408500Y-129589479D01*
X140408500Y-129410521D01*
X140373587Y-129235000D01*
X140305102Y-129069664D01*
X140305100Y-129069661D01*
X140305098Y-129069657D01*
X140205678Y-128920865D01*
X140205675Y-128920861D01*
X140079138Y-128794324D01*
X140079134Y-128794321D01*
X139930342Y-128694901D01*
X139930332Y-128694896D01*
X139765000Y-128626413D01*
X139764992Y-128626411D01*
X139589483Y-128591500D01*
X139589479Y-128591500D01*
X139410521Y-128591500D01*
X139410516Y-128591500D01*
X139235007Y-128626411D01*
X139234999Y-128626413D01*
X139069667Y-128694896D01*
X139069657Y-128694901D01*
X138920865Y-128794321D01*
X138920861Y-128794324D01*
X138794324Y-128920861D01*
X138794321Y-128920865D01*
X138694901Y-129069657D01*
X138694896Y-129069667D01*
X138626413Y-129234999D01*
X138626411Y-129235007D01*
X138591500Y-129410516D01*
X126200000Y-129410516D01*
X126200000Y-126910516D01*
X142091500Y-126910516D01*
X142091500Y-127089483D01*
X142126411Y-127264992D01*
X142126413Y-127265000D01*
X142194896Y-127430332D01*
X142194901Y-127430342D01*
X142294321Y-127579134D01*
X142294324Y-127579138D01*
X142420861Y-127705675D01*
X142420865Y-127705678D01*
X142569657Y-127805098D01*
X142569661Y-127805100D01*
X142569664Y-127805102D01*
X142735000Y-127873587D01*
X142910516Y-127908499D01*
X142910520Y-127908500D01*
X142910521Y-127908500D01*
X143089480Y-127908500D01*
X143089481Y-127908499D01*
X143265000Y-127873587D01*
X143430336Y-127805102D01*
X143579135Y-127705678D01*
X143705678Y-127579135D01*
X143805102Y-127430336D01*
X143873587Y-127265000D01*
X143908500Y-127089479D01*
X143908500Y-126910521D01*
X143873587Y-126735000D01*
X143805102Y-126569664D01*
X143805100Y-126569661D01*
X143805098Y-126569657D01*
X143705678Y-126420865D01*
X143705675Y-126420861D01*
X143579138Y-126294324D01*
X143579134Y-126294321D01*
X143430342Y-126194901D01*
X143430332Y-126194896D01*
X143265000Y-126126413D01*
X143264992Y-126126411D01*
X143089483Y-126091500D01*
X143089479Y-126091500D01*
X142910521Y-126091500D01*
X142910516Y-126091500D01*
X142735007Y-126126411D01*
X142734999Y-126126413D01*
X142569667Y-126194896D01*
X142569657Y-126194901D01*
X142420865Y-126294321D01*
X142420861Y-126294324D01*
X142294324Y-126420861D01*
X142294321Y-126420865D01*
X142194901Y-126569657D01*
X142194896Y-126569667D01*
X142126413Y-126734999D01*
X142126411Y-126735007D01*
X142091500Y-126910516D01*
X126200000Y-126910516D01*
X126200000Y-124151362D01*
X126208644Y-124121921D01*
X126215168Y-124091935D01*
X126218922Y-124086919D01*
X126219685Y-124084323D01*
X126236319Y-124063681D01*
X126263681Y-124036319D01*
X126325004Y-124002834D01*
X126351362Y-124000000D01*
X161748638Y-124000000D01*
X161815677Y-124019685D01*
G37*
%TD.AperFunction*%
%TA.AperFunction,NonConductor*%
G36*
X155055901Y-89219685D02*
G01*
X155101656Y-89272489D01*
X155112862Y-89324000D01*
X155112862Y-97276000D01*
X155093177Y-97343039D01*
X155040373Y-97388794D01*
X154988862Y-97400000D01*
X154900000Y-97400000D01*
X133924000Y-97400000D01*
X133856961Y-97380315D01*
X133811206Y-97327511D01*
X133800000Y-97276000D01*
X133800000Y-89324000D01*
X133819685Y-89256961D01*
X133872489Y-89211206D01*
X133924000Y-89200000D01*
X154988862Y-89200000D01*
X155055901Y-89219685D01*
G37*
%TD.AperFunction*%
M02*
