%TF.GenerationSoftware,KiCad,Pcbnew,9.0.0*%
%TF.CreationDate,2025-04-09T20:41:04-07:00*%
%TF.ProjectId,xy_faces_v2,78795f66-6163-4657-935f-76322e6b6963,3.0*%
%TF.SameCoordinates,Original*%
%TF.FileFunction,Copper,L4,Bot*%
%TF.FilePolarity,Positive*%
%FSLAX46Y46*%
G04 Gerber Fmt 4.6, Leading zero omitted, Abs format (unit mm)*
G04 Created by KiCad (PCBNEW 9.0.0) date 2025-04-09 20:41:04*
%MOMM*%
%LPD*%
G01*
G04 APERTURE LIST*
%TA.AperFunction,SMDPad,CuDef*%
%ADD10R,0.730000X1.800000*%
%TD*%
%TA.AperFunction,SMDPad,CuDef*%
%ADD11R,0.700000X1.800000*%
%TD*%
%TA.AperFunction,SMDPad,CuDef*%
%ADD12R,2.000000X2.400000*%
%TD*%
%TA.AperFunction,SMDPad,CuDef*%
%ADD13R,0.700000X2.000000*%
%TD*%
%TA.AperFunction,SMDPad,CuDef*%
%ADD14R,1.600000X2.200000*%
%TD*%
%TA.AperFunction,ComponentPad*%
%ADD15C,5.250000*%
%TD*%
%TA.AperFunction,HeatsinkPad*%
%ADD16C,0.500000*%
%TD*%
%TA.AperFunction,HeatsinkPad*%
%ADD17R,1.600000X1.800000*%
%TD*%
%TA.AperFunction,ViaPad*%
%ADD18C,0.800000*%
%TD*%
%TA.AperFunction,Conductor*%
%ADD19C,0.500000*%
%TD*%
%TA.AperFunction,Conductor*%
%ADD20C,0.250000*%
%TD*%
G04 APERTURE END LIST*
D10*
%TO.P,CN2,1,1*%
%TO.N,SDA*%
X147085000Y-134100000D03*
D11*
%TO.P,CN2,2,2*%
%TO.N,SCL*%
X145850000Y-134100001D03*
%TO.P,CN2,3,3*%
%TO.N,+3V3*%
X144600000Y-134100000D03*
%TO.P,CN2,4,4*%
%TO.N,GND*%
X143350000Y-134100001D03*
%TO.P,CN2,5,5*%
%TO.N,VSOLAR*%
X142100000Y-134100000D03*
D12*
%TO.P,CN2,6,6*%
%TO.N,GND*%
X139349999Y-136880000D03*
%TO.P,CN2,7,7*%
X149850001Y-136880000D03*
%TD*%
D13*
%TO.P,CN1,1,1*%
%TO.N,SDA*%
X147000000Y-121660000D03*
%TO.P,CN1,2,2*%
%TO.N,SCL*%
X145750000Y-121660000D03*
%TO.P,CN1,3,3*%
%TO.N,+3V3*%
X144500000Y-121660000D03*
%TO.P,CN1,4,4*%
%TO.N,GND*%
X143250000Y-121660000D03*
%TO.P,CN1,5,5*%
%TO.N,VSOLAR*%
X142000000Y-121660000D03*
D14*
%TO.P,CN1,6,6*%
%TO.N,GND*%
X139580000Y-118340000D03*
%TO.P,CN1,7,7*%
X149420000Y-118340000D03*
%TD*%
D15*
%TO.P,J2,1,Pin_1*%
%TO.N,unconnected-(J2-Pin_1-Pad1)*%
X106500000Y-70300000D03*
%TD*%
%TO.P,J3,1,Pin_1*%
%TO.N,unconnected-(J3-Pin_1-Pad1)*%
X106500000Y-159300000D03*
%TD*%
%TO.P,J4,1,Pin_1*%
%TO.N,unconnected-(J4-Pin_1-Pad1)*%
X182500000Y-70300000D03*
%TD*%
%TO.P,J5,1,Pin_1*%
%TO.N,unconnected-(J5-Pin_1-Pad1)*%
X182500000Y-159300000D03*
%TD*%
D16*
%TO.P,U2,9,EP/GND*%
%TO.N,GND*%
X154375000Y-115070000D03*
X154375000Y-113770000D03*
D17*
X153825000Y-114420000D03*
D16*
X153275000Y-115070000D03*
X153275000Y-113770000D03*
%TD*%
D18*
%TO.N,+3V3*%
X143500000Y-117500000D03*
%TO.N,GND*%
X151000000Y-119500000D03*
X141000000Y-117000000D03*
X143000000Y-119425000D03*
X150000000Y-131000000D03*
X139500000Y-129500000D03*
X143000000Y-127000000D03*
X168000000Y-156390000D03*
X160825000Y-112900000D03*
X157100000Y-110000000D03*
X144450000Y-156250000D03*
X153400000Y-116000000D03*
X149675000Y-112100000D03*
X121120000Y-156220000D03*
X124150000Y-116450000D03*
X137912500Y-112600000D03*
X160750000Y-114500000D03*
%TO.N,+3V3*%
X143600000Y-112600000D03*
X139300000Y-104410000D03*
X149500000Y-114160000D03*
X151300000Y-116400000D03*
X163300000Y-116900000D03*
X126600000Y-104300000D03*
X132050000Y-104410000D03*
X145500000Y-112600000D03*
%TO.N,VSOLAR*%
X124270000Y-118000000D03*
%TO.N,SDA*%
X146500000Y-118500000D03*
X128560000Y-121470000D03*
%TO.N,SCL*%
X128630000Y-123030000D03*
X149600000Y-115990000D03*
%TO.N,Net-(U3-OUT+)*%
X161890000Y-115330000D03*
X174680000Y-141950000D03*
X161820000Y-113350000D03*
X164800000Y-127190000D03*
X174900000Y-87350000D03*
%TD*%
D19*
%TO.N,+3V3*%
X144500000Y-118500000D02*
X143500000Y-117500000D01*
X144500000Y-121660000D02*
X144500000Y-118500000D01*
X144500000Y-118500000D02*
X148840000Y-114160000D01*
X148840000Y-114160000D02*
X149500000Y-114160000D01*
%TO.N,GND*%
X143000000Y-127000000D02*
X143000000Y-130800000D01*
X143000000Y-130800000D02*
X143350000Y-131150000D01*
X143350000Y-131150000D02*
X143350000Y-134100001D01*
X139500000Y-129500000D02*
X139500000Y-131000000D01*
X139500000Y-131000000D02*
X139349999Y-131150001D01*
X139349999Y-131150001D02*
X139349999Y-136880000D01*
%TO.N,VSOLAR*%
X127930000Y-118000000D02*
X131590000Y-121660000D01*
X131590000Y-121660000D02*
X142000000Y-121660000D01*
D20*
%TO.N,SCL*%
X149600000Y-115990000D02*
X147983280Y-115990000D01*
X145750000Y-118223280D02*
X145750000Y-121660000D01*
X147983280Y-115990000D02*
X145750000Y-118223280D01*
%TO.N,SDA*%
X146500000Y-118500000D02*
X147000000Y-119000000D01*
X147000000Y-119000000D02*
X147000000Y-121660000D01*
D19*
%TO.N,GND*%
X149840000Y-118340000D02*
X151000000Y-119500000D01*
X149420000Y-118340000D02*
X149840000Y-118340000D01*
X139660000Y-118340000D02*
X141000000Y-117000000D01*
X139580000Y-118340000D02*
X139660000Y-118340000D01*
X143250000Y-119675000D02*
X143000000Y-119425000D01*
X143250000Y-121660000D02*
X143250000Y-119675000D01*
%TO.N,SDA*%
X147085000Y-134100000D02*
X147085000Y-121745000D01*
X147085000Y-121745000D02*
X147000000Y-121660000D01*
%TO.N,SCL*%
X145850000Y-134100001D02*
X145850000Y-121760000D01*
X145850000Y-121760000D02*
X145750000Y-121660000D01*
%TO.N,+3V3*%
X144600000Y-134100000D02*
X144500000Y-134000000D01*
X144500000Y-134000000D02*
X144500000Y-121660000D01*
%TO.N,GND*%
X149850001Y-131149999D02*
X150000000Y-131000000D01*
X149850001Y-136880000D02*
X149850001Y-131149999D01*
%TO.N,VSOLAR*%
X142000000Y-121660000D02*
X142000000Y-134000000D01*
X142000000Y-134000000D02*
X142100000Y-134100000D01*
D20*
%TO.N,+3V3*%
X139300000Y-104410000D02*
X132050000Y-104410000D01*
X132050000Y-104410000D02*
X126710000Y-104410000D01*
X126710000Y-104410000D02*
X126600000Y-104300000D01*
X143600000Y-112600000D02*
X145500000Y-112600000D01*
D19*
%TO.N,VSOLAR*%
X124270000Y-118000000D02*
X127930000Y-118000000D01*
D20*
%TO.N,Net-(U3-OUT+)*%
X161820000Y-113350000D02*
X169720000Y-113350000D01*
X169720000Y-113350000D02*
X174900000Y-108170000D01*
X174900000Y-108170000D02*
X174900000Y-87350000D01*
X174680000Y-121310000D02*
X174680000Y-141950000D01*
X168700000Y-115330000D02*
X174680000Y-121310000D01*
X161890000Y-115330000D02*
X168700000Y-115330000D01*
%TD*%
%TA.AperFunction,Conductor*%
%TO.N,GND*%
G36*
X185916621Y-65795502D02*
G01*
X185963114Y-65849158D01*
X185974500Y-65901500D01*
X185974500Y-74773500D01*
X185954498Y-74841621D01*
X185900842Y-74888114D01*
X185848500Y-74899500D01*
X180413112Y-74899500D01*
X180412427Y-74899498D01*
X180400600Y-74899433D01*
X180269453Y-74898720D01*
X180269452Y-74898720D01*
X180269447Y-74898720D01*
X180076259Y-74919477D01*
X179969787Y-74930918D01*
X179969783Y-74930918D01*
X179969781Y-74930919D01*
X179969775Y-74930920D01*
X179675661Y-74996622D01*
X179675645Y-74996626D01*
X179390770Y-75095007D01*
X179390758Y-75095012D01*
X179118766Y-75224817D01*
X178863092Y-75384407D01*
X178626999Y-75571746D01*
X178413483Y-75784456D01*
X178225255Y-76019835D01*
X178064696Y-76274911D01*
X177933861Y-76546415D01*
X177933859Y-76546422D01*
X177834402Y-76830918D01*
X177834397Y-76830932D01*
X177767583Y-77124802D01*
X177767582Y-77124809D01*
X177734250Y-77424355D01*
X177734475Y-77559392D01*
X177734500Y-77574446D01*
X177734500Y-105946971D01*
X177732735Y-105954293D01*
X177734500Y-105957179D01*
X177734500Y-105960564D01*
X177735738Y-105963554D01*
X177747635Y-105978659D01*
X178502617Y-107213220D01*
X179305993Y-108526915D01*
X179324500Y-108592650D01*
X179324500Y-120957348D01*
X179305993Y-121023084D01*
X177747632Y-123571344D01*
X177739823Y-123584113D01*
X177734500Y-123589438D01*
X177734500Y-123592819D01*
X177732734Y-123595707D01*
X177732230Y-123598906D01*
X177734500Y-123618003D01*
X177734500Y-151952482D01*
X177734225Y-152125650D01*
X177734225Y-152125652D01*
X177767574Y-152425179D01*
X177767575Y-152425187D01*
X177833273Y-152714067D01*
X177834410Y-152719067D01*
X177932134Y-152998571D01*
X177933886Y-153003580D01*
X178064724Y-153275068D01*
X178225285Y-153530133D01*
X178413508Y-153765503D01*
X178413514Y-153765510D01*
X178413515Y-153765511D01*
X178627031Y-153978221D01*
X178863120Y-154165562D01*
X179118786Y-154325154D01*
X179390783Y-154454971D01*
X179675656Y-154553366D01*
X179969791Y-154619090D01*
X180269452Y-154651307D01*
X180419585Y-154650502D01*
X180420261Y-154650500D01*
X185848500Y-154650500D01*
X185916621Y-154670502D01*
X185963114Y-154724158D01*
X185974500Y-154776500D01*
X185974500Y-163598500D01*
X185954498Y-163666621D01*
X185900842Y-163713114D01*
X185848500Y-163724500D01*
X103151500Y-163724500D01*
X103083379Y-163704498D01*
X103036886Y-163650842D01*
X103025500Y-163598500D01*
X103025500Y-159124024D01*
X103366500Y-159124024D01*
X103366500Y-159475975D01*
X103405906Y-159825711D01*
X103484223Y-160168837D01*
X103600455Y-160501010D01*
X103600466Y-160501037D01*
X103753163Y-160818116D01*
X103753168Y-160818125D01*
X103940414Y-161116124D01*
X104159844Y-161391283D01*
X104408716Y-161640155D01*
X104683875Y-161859585D01*
X104683877Y-161859586D01*
X104981879Y-162046834D01*
X105298972Y-162199538D01*
X105298988Y-162199543D01*
X105298989Y-162199544D01*
X105631162Y-162315776D01*
X105631165Y-162315776D01*
X105631169Y-162315778D01*
X105974292Y-162394094D01*
X106222284Y-162422036D01*
X106324024Y-162433500D01*
X106324026Y-162433500D01*
X106675976Y-162433500D01*
X106764795Y-162423492D01*
X107025708Y-162394094D01*
X107368831Y-162315778D01*
X107701028Y-162199538D01*
X108018121Y-162046834D01*
X108316123Y-161859586D01*
X108371155Y-161815699D01*
X108591283Y-161640155D01*
X108840155Y-161391283D01*
X109059585Y-161116124D01*
X109246831Y-160818125D01*
X109246834Y-160818121D01*
X109399538Y-160501028D01*
X109515778Y-160168831D01*
X109594094Y-159825708D01*
X109633500Y-159475974D01*
X109633500Y-159124026D01*
X109633500Y-159124024D01*
X179366500Y-159124024D01*
X179366500Y-159475975D01*
X179405906Y-159825711D01*
X179484223Y-160168837D01*
X179600455Y-160501010D01*
X179600466Y-160501037D01*
X179753163Y-160818116D01*
X179753168Y-160818125D01*
X179940414Y-161116124D01*
X180159844Y-161391283D01*
X180408716Y-161640155D01*
X180683875Y-161859585D01*
X180683877Y-161859586D01*
X180981879Y-162046834D01*
X181298972Y-162199538D01*
X181298988Y-162199543D01*
X181298989Y-162199544D01*
X181631162Y-162315776D01*
X181631165Y-162315776D01*
X181631169Y-162315778D01*
X181974292Y-162394094D01*
X182222284Y-162422036D01*
X182324024Y-162433500D01*
X182324026Y-162433500D01*
X182675976Y-162433500D01*
X182764795Y-162423492D01*
X183025708Y-162394094D01*
X183368831Y-162315778D01*
X183701028Y-162199538D01*
X184018121Y-162046834D01*
X184316123Y-161859586D01*
X184371155Y-161815699D01*
X184591283Y-161640155D01*
X184840155Y-161391283D01*
X185059585Y-161116124D01*
X185246831Y-160818125D01*
X185246834Y-160818121D01*
X185399538Y-160501028D01*
X185515778Y-160168831D01*
X185594094Y-159825708D01*
X185633500Y-159475974D01*
X185633500Y-159124026D01*
X185594094Y-158774292D01*
X185515778Y-158431169D01*
X185399538Y-158098972D01*
X185246834Y-157781879D01*
X185059586Y-157483877D01*
X185059585Y-157483875D01*
X184840155Y-157208716D01*
X184591283Y-156959844D01*
X184316124Y-156740414D01*
X184018125Y-156553168D01*
X184018116Y-156553163D01*
X183701037Y-156400466D01*
X183701032Y-156400464D01*
X183701028Y-156400462D01*
X183701022Y-156400459D01*
X183701010Y-156400455D01*
X183368837Y-156284223D01*
X183025711Y-156205906D01*
X182675976Y-156166500D01*
X182675974Y-156166500D01*
X182324026Y-156166500D01*
X182324024Y-156166500D01*
X181974288Y-156205906D01*
X181631162Y-156284223D01*
X181298989Y-156400455D01*
X181298962Y-156400466D01*
X180981883Y-156553163D01*
X180981874Y-156553168D01*
X180683875Y-156740414D01*
X180408716Y-156959844D01*
X180159844Y-157208716D01*
X179940414Y-157483875D01*
X179753168Y-157781874D01*
X179753163Y-157781883D01*
X179600466Y-158098962D01*
X179600455Y-158098989D01*
X179484223Y-158431162D01*
X179405906Y-158774288D01*
X179366500Y-159124024D01*
X109633500Y-159124024D01*
X109594094Y-158774292D01*
X109515778Y-158431169D01*
X109399538Y-158098972D01*
X109246834Y-157781879D01*
X109059586Y-157483877D01*
X109059585Y-157483875D01*
X108840155Y-157208716D01*
X108591283Y-156959844D01*
X108316124Y-156740414D01*
X108018125Y-156553168D01*
X108018116Y-156553163D01*
X107701037Y-156400466D01*
X107701032Y-156400464D01*
X107701028Y-156400462D01*
X107701022Y-156400459D01*
X107701010Y-156400455D01*
X107368837Y-156284223D01*
X107025711Y-156205906D01*
X106675976Y-156166500D01*
X106675974Y-156166500D01*
X106324026Y-156166500D01*
X106324024Y-156166500D01*
X105974288Y-156205906D01*
X105631162Y-156284223D01*
X105298989Y-156400455D01*
X105298962Y-156400466D01*
X104981883Y-156553163D01*
X104981874Y-156553168D01*
X104683875Y-156740414D01*
X104408716Y-156959844D01*
X104159844Y-157208716D01*
X103940414Y-157483875D01*
X103753168Y-157781874D01*
X103753163Y-157781883D01*
X103600466Y-158098962D01*
X103600455Y-158098989D01*
X103484223Y-158431162D01*
X103405906Y-158774288D01*
X103366500Y-159124024D01*
X103025500Y-159124024D01*
X103025500Y-154771500D01*
X103045502Y-154703379D01*
X103099158Y-154656886D01*
X103151500Y-154645500D01*
X108579855Y-154645500D01*
X108586765Y-154645500D01*
X108587445Y-154645502D01*
X108588434Y-154645507D01*
X108730547Y-154646275D01*
X109030208Y-154614068D01*
X109226298Y-154570257D01*
X109324340Y-154548353D01*
X109324343Y-154548352D01*
X109373203Y-154531477D01*
X109609218Y-154449964D01*
X109881216Y-154320151D01*
X110136883Y-154160562D01*
X110372972Y-153973224D01*
X110586488Y-153760514D01*
X110774717Y-153525134D01*
X110935271Y-153270073D01*
X111066112Y-152998568D01*
X111165577Y-152714067D01*
X111232403Y-152420182D01*
X111265744Y-152120645D01*
X111265500Y-151970567D01*
X111265500Y-146844167D01*
X136824500Y-146844167D01*
X136824500Y-153155832D01*
X136860681Y-153465378D01*
X136860682Y-153465384D01*
X136876028Y-153530133D01*
X136930629Y-153760513D01*
X136932557Y-153768645D01*
X136932558Y-153768650D01*
X137039146Y-154061497D01*
X137039151Y-154061509D01*
X137179024Y-154340021D01*
X137350279Y-154600400D01*
X137550610Y-154839147D01*
X137777310Y-155053028D01*
X137920893Y-155159921D01*
X138027297Y-155239136D01*
X138297203Y-155394966D01*
X138583374Y-155518408D01*
X138881942Y-155607793D01*
X139188867Y-155661913D01*
X139500000Y-155680034D01*
X139811133Y-155661913D01*
X140118058Y-155607793D01*
X140416626Y-155518408D01*
X140702797Y-155394966D01*
X140972703Y-155239136D01*
X141222693Y-155053025D01*
X141449386Y-154839151D01*
X141649717Y-154600405D01*
X141820978Y-154340017D01*
X141960850Y-154061507D01*
X142067444Y-153768642D01*
X142139318Y-153465383D01*
X142175500Y-153155830D01*
X142175500Y-153000000D01*
X142175500Y-152991715D01*
X142175500Y-146989438D01*
X142175500Y-146844170D01*
X142175500Y-146844167D01*
X146824500Y-146844167D01*
X146824500Y-153155832D01*
X146860681Y-153465378D01*
X146860682Y-153465384D01*
X146876028Y-153530133D01*
X146930629Y-153760513D01*
X146932557Y-153768645D01*
X146932558Y-153768650D01*
X147039146Y-154061497D01*
X147039151Y-154061509D01*
X147179024Y-154340021D01*
X147350279Y-154600400D01*
X147550610Y-154839147D01*
X147777310Y-155053028D01*
X147920893Y-155159921D01*
X148027297Y-155239136D01*
X148297203Y-155394966D01*
X148583374Y-155518408D01*
X148881942Y-155607793D01*
X149188867Y-155661913D01*
X149500000Y-155680034D01*
X149811133Y-155661913D01*
X150118058Y-155607793D01*
X150416626Y-155518408D01*
X150702797Y-155394966D01*
X150972703Y-155239136D01*
X151222693Y-155053025D01*
X151449386Y-154839151D01*
X151649717Y-154600405D01*
X151820978Y-154340017D01*
X151960850Y-154061507D01*
X152067444Y-153768642D01*
X152139318Y-153465383D01*
X152175500Y-153155830D01*
X152175500Y-153000000D01*
X152175500Y-152991715D01*
X152175500Y-146989438D01*
X152175500Y-146844170D01*
X152139318Y-146534617D01*
X152067444Y-146231358D01*
X151960850Y-145938493D01*
X151820978Y-145659983D01*
X151820975Y-145659978D01*
X151649720Y-145399599D01*
X151449389Y-145160852D01*
X151222689Y-144946971D01*
X150972718Y-144760875D01*
X150972715Y-144760873D01*
X150972703Y-144760864D01*
X150702797Y-144605034D01*
X150702798Y-144605034D01*
X150702794Y-144605032D01*
X150416633Y-144481595D01*
X150416632Y-144481594D01*
X150416626Y-144481592D01*
X150118058Y-144392207D01*
X150118059Y-144392207D01*
X150023309Y-144375500D01*
X149811133Y-144338087D01*
X149811129Y-144338086D01*
X149811125Y-144338086D01*
X149500000Y-144319966D01*
X149188877Y-144338086D01*
X149188871Y-144338086D01*
X148881941Y-144392207D01*
X148754360Y-144430402D01*
X148583374Y-144481592D01*
X148583372Y-144481593D01*
X148583366Y-144481595D01*
X148297205Y-144605032D01*
X148297200Y-144605035D01*
X148027308Y-144760857D01*
X148027281Y-144760875D01*
X147777310Y-144946971D01*
X147550610Y-145160852D01*
X147350279Y-145399599D01*
X147179024Y-145659978D01*
X147039151Y-145938490D01*
X147039146Y-145938502D01*
X146932558Y-146231349D01*
X146932557Y-146231354D01*
X146860682Y-146534615D01*
X146860681Y-146534621D01*
X146824500Y-146844167D01*
X142175500Y-146844167D01*
X142139318Y-146534617D01*
X142067444Y-146231358D01*
X141960850Y-145938493D01*
X141820978Y-145659983D01*
X141820975Y-145659978D01*
X141649720Y-145399599D01*
X141449389Y-145160852D01*
X141222689Y-144946971D01*
X140972718Y-144760875D01*
X140972715Y-144760873D01*
X140972703Y-144760864D01*
X140702797Y-144605034D01*
X140702798Y-144605034D01*
X140702794Y-144605032D01*
X140416633Y-144481595D01*
X140416632Y-144481594D01*
X140416626Y-144481592D01*
X140118058Y-144392207D01*
X140118059Y-144392207D01*
X140023309Y-144375500D01*
X139811133Y-144338087D01*
X139811129Y-144338086D01*
X139811125Y-144338086D01*
X139500000Y-144319966D01*
X139188877Y-144338086D01*
X139188871Y-144338086D01*
X138881941Y-144392207D01*
X138754360Y-144430402D01*
X138583374Y-144481592D01*
X138583372Y-144481593D01*
X138583366Y-144481595D01*
X138297205Y-144605032D01*
X138297200Y-144605035D01*
X138027308Y-144760857D01*
X138027281Y-144760875D01*
X137777310Y-144946971D01*
X137550610Y-145160852D01*
X137350279Y-145399599D01*
X137179024Y-145659978D01*
X137039151Y-145938490D01*
X137039146Y-145938502D01*
X136932558Y-146231349D01*
X136932557Y-146231354D01*
X136860682Y-146534615D01*
X136860681Y-146534621D01*
X136824500Y-146844167D01*
X111265500Y-146844167D01*
X111265500Y-138128597D01*
X137841999Y-138128597D01*
X137848504Y-138189093D01*
X137899554Y-138325964D01*
X137899554Y-138325965D01*
X137987094Y-138442904D01*
X138104033Y-138530444D01*
X138240905Y-138581494D01*
X138301401Y-138587999D01*
X138301414Y-138588000D01*
X139095999Y-138588000D01*
X139603999Y-138588000D01*
X140398584Y-138588000D01*
X140398596Y-138587999D01*
X140459092Y-138581494D01*
X140595963Y-138530444D01*
X140595964Y-138530444D01*
X140712903Y-138442904D01*
X140800443Y-138325965D01*
X140800443Y-138325964D01*
X140851493Y-138189093D01*
X140857998Y-138128597D01*
X148342001Y-138128597D01*
X148348506Y-138189093D01*
X148399556Y-138325964D01*
X148399556Y-138325965D01*
X148487096Y-138442904D01*
X148604035Y-138530444D01*
X148740907Y-138581494D01*
X148801403Y-138587999D01*
X148801416Y-138588000D01*
X149596001Y-138588000D01*
X150104001Y-138588000D01*
X150898586Y-138588000D01*
X150898598Y-138587999D01*
X150959094Y-138581494D01*
X151095965Y-138530444D01*
X151095966Y-138530444D01*
X151212905Y-138442904D01*
X151300445Y-138325965D01*
X151300445Y-138325964D01*
X151351495Y-138189093D01*
X151358000Y-138128597D01*
X151358001Y-138128585D01*
X151358001Y-137134000D01*
X150104001Y-137134000D01*
X150104001Y-138588000D01*
X149596001Y-138588000D01*
X149596001Y-137134000D01*
X148342001Y-137134000D01*
X148342001Y-138128597D01*
X140857998Y-138128597D01*
X140857999Y-138128585D01*
X140857999Y-137134000D01*
X139603999Y-137134000D01*
X139603999Y-138588000D01*
X139095999Y-138588000D01*
X139095999Y-137134000D01*
X137841999Y-137134000D01*
X137841999Y-138128597D01*
X111265500Y-138128597D01*
X111265500Y-135631402D01*
X137841999Y-135631402D01*
X137841999Y-136626000D01*
X139095999Y-136626000D01*
X139603999Y-136626000D01*
X140857999Y-136626000D01*
X140857999Y-135631414D01*
X140857998Y-135631402D01*
X148342001Y-135631402D01*
X148342001Y-136626000D01*
X149596001Y-136626000D01*
X150104001Y-136626000D01*
X151358001Y-136626000D01*
X151358001Y-135631414D01*
X151358000Y-135631402D01*
X151351495Y-135570906D01*
X151300445Y-135434035D01*
X151300445Y-135434034D01*
X151212905Y-135317095D01*
X151095966Y-135229555D01*
X150959094Y-135178505D01*
X150898598Y-135172000D01*
X150104001Y-135172000D01*
X150104001Y-136626000D01*
X149596001Y-136626000D01*
X149596001Y-135172000D01*
X148801403Y-135172000D01*
X148740907Y-135178505D01*
X148604036Y-135229555D01*
X148604035Y-135229555D01*
X148487096Y-135317095D01*
X148399556Y-135434034D01*
X148399556Y-135434035D01*
X148348506Y-135570906D01*
X148342001Y-135631402D01*
X140857998Y-135631402D01*
X140851493Y-135570906D01*
X140800443Y-135434035D01*
X140800443Y-135434034D01*
X140712903Y-135317095D01*
X140595964Y-135229555D01*
X140459092Y-135178505D01*
X140398596Y-135172000D01*
X139603999Y-135172000D01*
X139603999Y-136626000D01*
X139095999Y-136626000D01*
X139095999Y-135172000D01*
X138301401Y-135172000D01*
X138240905Y-135178505D01*
X138104034Y-135229555D01*
X138104033Y-135229555D01*
X137987094Y-135317095D01*
X137899554Y-135434034D01*
X137899554Y-135434035D01*
X137848504Y-135570906D01*
X137841999Y-135631402D01*
X111265500Y-135631402D01*
X111265500Y-123598028D01*
X111267265Y-123590707D01*
X111265500Y-123587820D01*
X111265500Y-123584438D01*
X111265500Y-123584437D01*
X111264260Y-123581444D01*
X111252363Y-123566339D01*
X109952066Y-121440067D01*
X109915649Y-121380518D01*
X127651500Y-121380518D01*
X127651500Y-121559481D01*
X127664452Y-121624594D01*
X127686413Y-121735000D01*
X127754898Y-121900336D01*
X127854322Y-122049135D01*
X127980865Y-122175678D01*
X127984279Y-122177959D01*
X128029805Y-122232437D01*
X128038651Y-122302881D01*
X128008008Y-122366924D01*
X128003370Y-122371817D01*
X127924320Y-122450867D01*
X127924319Y-122450869D01*
X127824899Y-122599662D01*
X127756414Y-122764996D01*
X127756413Y-122764999D01*
X127756413Y-122765000D01*
X127754052Y-122776868D01*
X127721500Y-122940518D01*
X127721500Y-122940521D01*
X127721500Y-123119479D01*
X127756413Y-123295000D01*
X127824898Y-123460336D01*
X127924322Y-123609135D01*
X128050865Y-123735678D01*
X128199664Y-123835102D01*
X128365000Y-123903587D01*
X128540521Y-123938500D01*
X128540522Y-123938500D01*
X128719478Y-123938500D01*
X128719479Y-123938500D01*
X128895000Y-123903587D01*
X129060336Y-123835102D01*
X129209135Y-123735678D01*
X129335678Y-123609135D01*
X129435102Y-123460336D01*
X129503587Y-123295000D01*
X129538500Y-123119479D01*
X129538500Y-122940521D01*
X129503587Y-122765000D01*
X129435102Y-122599664D01*
X129335678Y-122450865D01*
X129209135Y-122324322D01*
X129209133Y-122324320D01*
X129209130Y-122324318D01*
X129205723Y-122322042D01*
X129160195Y-122267565D01*
X129151348Y-122197122D01*
X129181989Y-122133078D01*
X129186593Y-122128219D01*
X129265678Y-122049135D01*
X129365102Y-121900336D01*
X129433587Y-121735000D01*
X129468500Y-121559479D01*
X129468500Y-121380521D01*
X129433587Y-121205000D01*
X129365102Y-121039664D01*
X129265678Y-120890865D01*
X129139135Y-120764322D01*
X128990336Y-120664898D01*
X128861061Y-120611350D01*
X128825003Y-120596414D01*
X128825001Y-120596413D01*
X128825000Y-120596413D01*
X128736645Y-120578838D01*
X128649481Y-120561500D01*
X128649479Y-120561500D01*
X128470521Y-120561500D01*
X128470518Y-120561500D01*
X128339771Y-120587507D01*
X128295000Y-120596413D01*
X128294999Y-120596413D01*
X128294996Y-120596414D01*
X128129662Y-120664899D01*
X127980869Y-120764319D01*
X127980862Y-120764324D01*
X127854324Y-120890862D01*
X127854319Y-120890869D01*
X127754899Y-121039662D01*
X127686414Y-121204996D01*
X127651500Y-121380518D01*
X109915649Y-121380518D01*
X109694007Y-121018084D01*
X109675500Y-120952348D01*
X109675500Y-117910518D01*
X123361500Y-117910518D01*
X123361500Y-117910521D01*
X123361500Y-118089479D01*
X123396413Y-118265000D01*
X123464898Y-118430336D01*
X123564322Y-118579135D01*
X123690865Y-118705678D01*
X123839664Y-118805102D01*
X124005000Y-118873587D01*
X124180521Y-118908500D01*
X124180522Y-118908500D01*
X124359478Y-118908500D01*
X124359479Y-118908500D01*
X124535000Y-118873587D01*
X124700336Y-118805102D01*
X124738300Y-118779734D01*
X124806053Y-118758520D01*
X124808302Y-118758500D01*
X127563629Y-118758500D01*
X127631750Y-118778502D01*
X127652724Y-118795405D01*
X131106477Y-122249159D01*
X131106481Y-122249162D01*
X131106485Y-122249166D01*
X131172836Y-122293500D01*
X131172837Y-122293501D01*
X131201776Y-122312837D01*
X131230716Y-122332174D01*
X131368754Y-122389351D01*
X131515294Y-122418500D01*
X131515295Y-122418500D01*
X131664705Y-122418500D01*
X141015500Y-122418500D01*
X141083621Y-122438502D01*
X141130114Y-122492158D01*
X141141500Y-122544500D01*
X141141500Y-122708649D01*
X141148009Y-122769196D01*
X141148011Y-122769201D01*
X141199111Y-122906204D01*
X141216367Y-122929255D01*
X141241179Y-122995774D01*
X141241500Y-123004765D01*
X141241500Y-135048649D01*
X141248009Y-135109196D01*
X141248011Y-135109204D01*
X141299110Y-135246202D01*
X141299112Y-135246207D01*
X141386738Y-135363261D01*
X141503792Y-135450887D01*
X141503794Y-135450888D01*
X141503796Y-135450889D01*
X141534036Y-135462168D01*
X141640795Y-135501988D01*
X141640803Y-135501990D01*
X141701350Y-135508499D01*
X141701355Y-135508499D01*
X141701362Y-135508500D01*
X141701368Y-135508500D01*
X142498632Y-135508500D01*
X142498638Y-135508500D01*
X142498645Y-135508499D01*
X142498649Y-135508499D01*
X142559196Y-135501990D01*
X142559199Y-135501989D01*
X142559201Y-135501989D01*
X142559204Y-135501988D01*
X142681681Y-135456306D01*
X142752497Y-135451240D01*
X142769747Y-135456305D01*
X142890907Y-135501495D01*
X142951402Y-135508000D01*
X142951415Y-135508001D01*
X143096000Y-135508001D01*
X143096000Y-132692001D01*
X142951397Y-132692001D01*
X142897968Y-132697746D01*
X142828100Y-132685140D01*
X142776138Y-132636762D01*
X142758500Y-132572468D01*
X142758500Y-123294000D01*
X142778502Y-123225879D01*
X142832158Y-123179386D01*
X142884500Y-123168000D01*
X142996000Y-123168000D01*
X142996000Y-120152000D01*
X142851402Y-120152000D01*
X142790905Y-120158505D01*
X142669746Y-120203695D01*
X142598930Y-120208759D01*
X142581681Y-120203694D01*
X142459204Y-120158011D01*
X142459196Y-120158009D01*
X142398649Y-120151500D01*
X142398638Y-120151500D01*
X141601362Y-120151500D01*
X141601350Y-120151500D01*
X141540803Y-120158009D01*
X141540795Y-120158011D01*
X141403797Y-120209110D01*
X141403792Y-120209112D01*
X141286738Y-120296738D01*
X141199112Y-120413792D01*
X141199110Y-120413797D01*
X141148011Y-120550795D01*
X141148009Y-120550803D01*
X141141500Y-120611350D01*
X141141500Y-120775500D01*
X141121498Y-120843621D01*
X141067842Y-120890114D01*
X141015500Y-120901500D01*
X131956371Y-120901500D01*
X131888250Y-120881498D01*
X131867276Y-120864595D01*
X130491278Y-119488597D01*
X138272000Y-119488597D01*
X138278505Y-119549093D01*
X138329555Y-119685964D01*
X138329555Y-119685965D01*
X138417095Y-119802904D01*
X138534034Y-119890444D01*
X138670906Y-119941494D01*
X138731402Y-119947999D01*
X138731415Y-119948000D01*
X139326000Y-119948000D01*
X139834000Y-119948000D01*
X140428585Y-119948000D01*
X140428597Y-119947999D01*
X140489093Y-119941494D01*
X140625964Y-119890444D01*
X140625965Y-119890444D01*
X140742904Y-119802904D01*
X140830444Y-119685965D01*
X140830444Y-119685964D01*
X140881494Y-119549093D01*
X140887999Y-119488597D01*
X140888000Y-119488585D01*
X140888000Y-118594000D01*
X139834000Y-118594000D01*
X139834000Y-119948000D01*
X139326000Y-119948000D01*
X139326000Y-118594000D01*
X138272000Y-118594000D01*
X138272000Y-119488597D01*
X130491278Y-119488597D01*
X128413519Y-117410838D01*
X128413515Y-117410834D01*
X128289284Y-117327826D01*
X128151247Y-117270649D01*
X128077976Y-117256074D01*
X128077975Y-117256073D01*
X128004711Y-117241500D01*
X128004706Y-117241500D01*
X124808302Y-117241500D01*
X124740181Y-117221498D01*
X124738300Y-117220265D01*
X124700337Y-117194899D01*
X124700338Y-117194899D01*
X124700336Y-117194898D01*
X124691896Y-117191402D01*
X138272000Y-117191402D01*
X138272000Y-118086000D01*
X139326000Y-118086000D01*
X139834000Y-118086000D01*
X140888000Y-118086000D01*
X140888000Y-117410518D01*
X142591500Y-117410518D01*
X142591500Y-117589481D01*
X142608838Y-117676645D01*
X142623061Y-117748150D01*
X142626414Y-117765003D01*
X142638559Y-117794322D01*
X142694898Y-117930336D01*
X142794322Y-118079135D01*
X142920865Y-118205678D01*
X143069664Y-118305102D01*
X143235000Y-118373587D01*
X143279783Y-118382494D01*
X143342692Y-118415401D01*
X143344297Y-118416978D01*
X143704595Y-118777276D01*
X143738621Y-118839588D01*
X143741500Y-118866371D01*
X143741500Y-120026000D01*
X143721498Y-120094121D01*
X143667842Y-120140614D01*
X143615500Y-120152000D01*
X143504000Y-120152000D01*
X143504000Y-123168000D01*
X143615500Y-123168000D01*
X143683621Y-123188002D01*
X143730114Y-123241658D01*
X143741500Y-123294000D01*
X143741500Y-132566001D01*
X143721498Y-132634122D01*
X143667842Y-132680615D01*
X143615500Y-132692001D01*
X143604000Y-132692001D01*
X143604000Y-135508001D01*
X143748585Y-135508001D01*
X143748597Y-135508000D01*
X143809092Y-135501495D01*
X143930253Y-135456305D01*
X144001069Y-135451240D01*
X144018319Y-135456306D01*
X144140795Y-135501988D01*
X144140803Y-135501990D01*
X144201350Y-135508499D01*
X144201355Y-135508499D01*
X144201362Y-135508500D01*
X144201368Y-135508500D01*
X144998632Y-135508500D01*
X144998638Y-135508500D01*
X144998645Y-135508499D01*
X144998649Y-135508499D01*
X145059196Y-135501990D01*
X145059201Y-135501989D01*
X145060525Y-135501495D01*
X145180968Y-135456571D01*
X145251780Y-135451506D01*
X145269022Y-135456569D01*
X145351824Y-135487453D01*
X145390798Y-135501990D01*
X145390803Y-135501991D01*
X145451350Y-135508500D01*
X145451355Y-135508500D01*
X145451362Y-135508501D01*
X145451368Y-135508501D01*
X146248632Y-135508501D01*
X146248638Y-135508501D01*
X146248645Y-135508500D01*
X146248649Y-135508500D01*
X146309196Y-135501991D01*
X146309199Y-135501990D01*
X146309201Y-135501990D01*
X146309204Y-135501989D01*
X146415968Y-135462168D01*
X146486784Y-135457102D01*
X146504030Y-135462165D01*
X146610799Y-135501989D01*
X146610802Y-135501989D01*
X146610803Y-135501990D01*
X146671350Y-135508499D01*
X146671355Y-135508499D01*
X146671362Y-135508500D01*
X146671368Y-135508500D01*
X147498632Y-135508500D01*
X147498638Y-135508500D01*
X147498645Y-135508499D01*
X147498649Y-135508499D01*
X147552063Y-135502757D01*
X147559196Y-135501990D01*
X147559199Y-135501989D01*
X147559201Y-135501989D01*
X147560526Y-135501495D01*
X147578045Y-135494960D01*
X147696204Y-135450889D01*
X147718719Y-135434035D01*
X147813261Y-135363261D01*
X147900887Y-135246207D01*
X147900887Y-135246206D01*
X147900889Y-135246204D01*
X147951989Y-135109201D01*
X147958500Y-135048638D01*
X147958500Y-133151362D01*
X147958499Y-133151350D01*
X147951990Y-133090803D01*
X147951988Y-133090795D01*
X147900889Y-132953797D01*
X147900887Y-132953792D01*
X147868632Y-132910705D01*
X147843821Y-132844185D01*
X147843500Y-132835196D01*
X147843500Y-127100518D01*
X163891500Y-127100518D01*
X163891500Y-127100521D01*
X163891500Y-127279479D01*
X163926413Y-127455000D01*
X163994898Y-127620336D01*
X164094322Y-127769135D01*
X164220865Y-127895678D01*
X164369664Y-127995102D01*
X164535000Y-128063587D01*
X164710521Y-128098500D01*
X164710522Y-128098500D01*
X164889478Y-128098500D01*
X164889479Y-128098500D01*
X165065000Y-128063587D01*
X165230336Y-127995102D01*
X165379135Y-127895678D01*
X165505678Y-127769135D01*
X165605102Y-127620336D01*
X165673587Y-127455000D01*
X165708500Y-127279479D01*
X165708500Y-127100521D01*
X165673587Y-126925000D01*
X165605102Y-126759664D01*
X165505678Y-126610865D01*
X165379135Y-126484322D01*
X165230336Y-126384898D01*
X165113429Y-126336473D01*
X165065003Y-126316414D01*
X165065001Y-126316413D01*
X165065000Y-126316413D01*
X164976645Y-126298838D01*
X164889481Y-126281500D01*
X164889479Y-126281500D01*
X164710521Y-126281500D01*
X164710518Y-126281500D01*
X164579771Y-126307507D01*
X164535000Y-126316413D01*
X164534999Y-126316413D01*
X164534996Y-126316414D01*
X164369662Y-126384899D01*
X164220869Y-126484319D01*
X164220862Y-126484324D01*
X164094324Y-126610862D01*
X164094319Y-126610869D01*
X163994899Y-126759662D01*
X163926414Y-126924996D01*
X163891500Y-127100518D01*
X147843500Y-127100518D01*
X147843500Y-122814693D01*
X147850319Y-122776901D01*
X147850177Y-122776868D01*
X147850803Y-122774218D01*
X147851446Y-122770656D01*
X147851989Y-122769201D01*
X147852442Y-122764996D01*
X147858499Y-122708649D01*
X147858500Y-122708632D01*
X147858500Y-120611367D01*
X147858499Y-120611350D01*
X147851990Y-120550803D01*
X147851988Y-120550795D01*
X147800889Y-120413797D01*
X147800887Y-120413792D01*
X147713261Y-120296738D01*
X147683990Y-120274826D01*
X147641444Y-120217990D01*
X147633500Y-120173959D01*
X147633500Y-119488597D01*
X148112000Y-119488597D01*
X148118505Y-119549093D01*
X148169555Y-119685964D01*
X148169555Y-119685965D01*
X148257095Y-119802904D01*
X148374034Y-119890444D01*
X148510906Y-119941494D01*
X148571402Y-119947999D01*
X148571415Y-119948000D01*
X149166000Y-119948000D01*
X149674000Y-119948000D01*
X150268585Y-119948000D01*
X150268597Y-119947999D01*
X150329093Y-119941494D01*
X150465964Y-119890444D01*
X150465965Y-119890444D01*
X150582904Y-119802904D01*
X150670444Y-119685965D01*
X150670444Y-119685964D01*
X150721494Y-119549093D01*
X150727999Y-119488597D01*
X150728000Y-119488585D01*
X150728000Y-118594000D01*
X149674000Y-118594000D01*
X149674000Y-119948000D01*
X149166000Y-119948000D01*
X149166000Y-118594000D01*
X148112000Y-118594000D01*
X148112000Y-119488597D01*
X147633500Y-119488597D01*
X147633500Y-118937607D01*
X147633499Y-118937603D01*
X147627710Y-118908499D01*
X147609155Y-118815215D01*
X147596507Y-118784680D01*
X147561401Y-118699925D01*
X147492072Y-118596167D01*
X147442914Y-118547009D01*
X147440574Y-118544392D01*
X147426775Y-118515383D01*
X147411379Y-118487188D01*
X147410799Y-118481798D01*
X147410077Y-118480279D01*
X147410380Y-118477902D01*
X147408500Y-118460405D01*
X147408500Y-118410522D01*
X147408499Y-118410518D01*
X147401153Y-118373587D01*
X147373587Y-118235000D01*
X147305102Y-118069664D01*
X147205678Y-117920865D01*
X147195331Y-117910518D01*
X147166092Y-117881278D01*
X147132067Y-117818966D01*
X147137133Y-117748150D01*
X147166089Y-117703093D01*
X147935121Y-116934061D01*
X147997430Y-116900039D01*
X148068246Y-116905104D01*
X148125081Y-116947651D01*
X148149892Y-117014171D01*
X148142269Y-117067192D01*
X148118505Y-117130905D01*
X148112000Y-117191402D01*
X148112000Y-118086000D01*
X150728000Y-118086000D01*
X150728000Y-117334995D01*
X150748002Y-117266874D01*
X150801658Y-117220381D01*
X150871932Y-117210277D01*
X150902219Y-117218587D01*
X151034992Y-117273584D01*
X151034993Y-117273584D01*
X151035000Y-117273587D01*
X151210521Y-117308500D01*
X151210522Y-117308500D01*
X151389478Y-117308500D01*
X151389479Y-117308500D01*
X151565000Y-117273587D01*
X151730336Y-117205102D01*
X151879135Y-117105678D01*
X152005678Y-116979135D01*
X152105102Y-116830336D01*
X152173587Y-116665000D01*
X152208500Y-116489479D01*
X152208500Y-116310521D01*
X152173587Y-116135000D01*
X152105102Y-115969664D01*
X152005678Y-115820865D01*
X151938513Y-115753700D01*
X152944852Y-115753700D01*
X153053901Y-115798870D01*
X153053900Y-115798870D01*
X153200340Y-115827999D01*
X153200344Y-115828000D01*
X153349656Y-115828000D01*
X153349662Y-115827999D01*
X153496098Y-115798871D01*
X153496101Y-115798870D01*
X153605147Y-115753700D01*
X154044852Y-115753700D01*
X154153901Y-115798870D01*
X154153900Y-115798870D01*
X154300340Y-115827999D01*
X154300344Y-115828000D01*
X154449656Y-115828000D01*
X154449662Y-115827999D01*
X154596098Y-115798871D01*
X154596101Y-115798870D01*
X154705147Y-115753700D01*
X154375001Y-115423554D01*
X154375000Y-115423554D01*
X154044852Y-115753700D01*
X153605147Y-115753700D01*
X153275001Y-115423554D01*
X153275000Y-115423554D01*
X152944852Y-115753700D01*
X151938513Y-115753700D01*
X151879135Y-115694322D01*
X151730336Y-115594898D01*
X151613429Y-115546473D01*
X151565003Y-115526414D01*
X151565001Y-115526413D01*
X151565000Y-115526413D01*
X151476645Y-115508838D01*
X151389481Y-115491500D01*
X151389479Y-115491500D01*
X151210521Y-115491500D01*
X151210518Y-115491500D01*
X151079771Y-115517507D01*
X151035000Y-115526413D01*
X151034999Y-115526413D01*
X151034996Y-115526414D01*
X150869662Y-115594899D01*
X150720869Y-115694319D01*
X150720867Y-115694320D01*
X150670368Y-115744819D01*
X150608055Y-115778844D01*
X150537239Y-115773778D01*
X150480404Y-115731231D01*
X150464864Y-115703942D01*
X150460880Y-115694324D01*
X150405102Y-115559664D01*
X150305678Y-115410865D01*
X150179135Y-115284322D01*
X150030336Y-115184898D01*
X150030337Y-115184898D01*
X150030335Y-115184897D01*
X150030331Y-115184895D01*
X149983324Y-115165424D01*
X149975284Y-115158945D01*
X149965325Y-115156213D01*
X149948107Y-115137045D01*
X149928043Y-115120876D01*
X149924781Y-115111076D01*
X149917882Y-115103395D01*
X149913760Y-115077962D01*
X149905623Y-115053512D01*
X149908176Y-115043506D01*
X149906525Y-115033313D01*
X149916809Y-115009685D01*
X149920471Y-114995340D01*
X152517000Y-114995340D01*
X152517000Y-115144659D01*
X152546131Y-115291108D01*
X152591297Y-115400146D01*
X152591298Y-115400147D01*
X152921446Y-115069999D01*
X152901556Y-115050109D01*
X153175000Y-115050109D01*
X153175000Y-115089891D01*
X153190224Y-115126645D01*
X153218355Y-115154776D01*
X153255109Y-115170000D01*
X153294891Y-115170000D01*
X153331645Y-115154776D01*
X153359776Y-115126645D01*
X153375000Y-115089891D01*
X153375000Y-115069999D01*
X153628554Y-115069999D01*
X153628554Y-115070001D01*
X153824999Y-115266446D01*
X153825001Y-115266446D01*
X154021446Y-115070001D01*
X154021446Y-115069999D01*
X154001556Y-115050109D01*
X154275000Y-115050109D01*
X154275000Y-115089891D01*
X154290224Y-115126645D01*
X154318355Y-115154776D01*
X154355109Y-115170000D01*
X154394891Y-115170000D01*
X154431645Y-115154776D01*
X154459776Y-115126645D01*
X154475000Y-115089891D01*
X154475000Y-115069999D01*
X154728554Y-115069999D01*
X154728554Y-115070001D01*
X155058700Y-115400147D01*
X155103870Y-115291101D01*
X155103871Y-115291098D01*
X155132999Y-115144662D01*
X155133000Y-115144655D01*
X155133000Y-114995344D01*
X155132999Y-114995340D01*
X155103870Y-114848900D01*
X155058700Y-114739852D01*
X154728554Y-115069999D01*
X154475000Y-115069999D01*
X154475000Y-115050109D01*
X154459776Y-115013355D01*
X154431645Y-114985224D01*
X154394891Y-114970000D01*
X154355109Y-114970000D01*
X154318355Y-114985224D01*
X154290224Y-115013355D01*
X154275000Y-115050109D01*
X154001556Y-115050109D01*
X153825001Y-114873554D01*
X153824999Y-114873554D01*
X153628554Y-115069999D01*
X153375000Y-115069999D01*
X153375000Y-115050109D01*
X153359776Y-115013355D01*
X153331645Y-114985224D01*
X153294891Y-114970000D01*
X153255109Y-114970000D01*
X153218355Y-114985224D01*
X153190224Y-115013355D01*
X153175000Y-115050109D01*
X152901556Y-115050109D01*
X152591298Y-114739851D01*
X152591297Y-114739851D01*
X152546131Y-114848893D01*
X152546129Y-114848898D01*
X152517000Y-114995340D01*
X149920471Y-114995340D01*
X149923182Y-114984721D01*
X149931493Y-114975952D01*
X149934861Y-114968216D01*
X149961542Y-114944251D01*
X150051129Y-114884391D01*
X150051129Y-114884390D01*
X150079135Y-114865678D01*
X150205678Y-114739135D01*
X150305102Y-114590336D01*
X150373587Y-114425000D01*
X150374582Y-114419999D01*
X152978554Y-114419999D01*
X152978554Y-114420001D01*
X153274999Y-114716446D01*
X153275001Y-114716446D01*
X153571446Y-114420001D01*
X153571446Y-114419999D01*
X154078554Y-114419999D01*
X154078554Y-114420001D01*
X154374999Y-114716446D01*
X154375001Y-114716446D01*
X154671446Y-114420001D01*
X154671446Y-114419999D01*
X154375001Y-114123554D01*
X154374999Y-114123554D01*
X154078554Y-114419999D01*
X153571446Y-114419999D01*
X153275001Y-114123554D01*
X153274999Y-114123554D01*
X152978554Y-114419999D01*
X150374582Y-114419999D01*
X150408500Y-114249479D01*
X150408500Y-114070521D01*
X150373587Y-113895000D01*
X150305102Y-113729664D01*
X150282168Y-113695340D01*
X152517000Y-113695340D01*
X152517000Y-113844659D01*
X152546131Y-113991108D01*
X152591297Y-114100146D01*
X152591298Y-114100147D01*
X152921446Y-113769999D01*
X152901556Y-113750109D01*
X153175000Y-113750109D01*
X153175000Y-113789891D01*
X153190224Y-113826645D01*
X153218355Y-113854776D01*
X153255109Y-113870000D01*
X153294891Y-113870000D01*
X153331645Y-113854776D01*
X153359776Y-113826645D01*
X153375000Y-113789891D01*
X153375000Y-113769999D01*
X153628554Y-113769999D01*
X153628554Y-113770001D01*
X153824999Y-113966446D01*
X153825001Y-113966446D01*
X154021446Y-113770001D01*
X154021446Y-113769999D01*
X154001556Y-113750109D01*
X154275000Y-113750109D01*
X154275000Y-113789891D01*
X154290224Y-113826645D01*
X154318355Y-113854776D01*
X154355109Y-113870000D01*
X154394891Y-113870000D01*
X154431645Y-113854776D01*
X154459776Y-113826645D01*
X154475000Y-113789891D01*
X154475000Y-113769999D01*
X154728554Y-113769999D01*
X154728554Y-113770001D01*
X155058700Y-114100147D01*
X155103870Y-113991101D01*
X155103871Y-113991098D01*
X155132999Y-113844662D01*
X155133000Y-113844655D01*
X155133000Y-113695344D01*
X155132999Y-113695340D01*
X155103870Y-113548900D01*
X155058700Y-113439852D01*
X154728554Y-113769999D01*
X154475000Y-113769999D01*
X154475000Y-113750109D01*
X154459776Y-113713355D01*
X154431645Y-113685224D01*
X154394891Y-113670000D01*
X154355109Y-113670000D01*
X154318355Y-113685224D01*
X154290224Y-113713355D01*
X154275000Y-113750109D01*
X154001556Y-113750109D01*
X153825001Y-113573554D01*
X153824999Y-113573554D01*
X153628554Y-113769999D01*
X153375000Y-113769999D01*
X153375000Y-113750109D01*
X153359776Y-113713355D01*
X153331645Y-113685224D01*
X153294891Y-113670000D01*
X153255109Y-113670000D01*
X153218355Y-113685224D01*
X153190224Y-113713355D01*
X153175000Y-113750109D01*
X152901556Y-113750109D01*
X152591298Y-113439851D01*
X152591297Y-113439851D01*
X152546131Y-113548893D01*
X152546129Y-113548898D01*
X152517000Y-113695340D01*
X150282168Y-113695340D01*
X150205678Y-113580865D01*
X150079135Y-113454322D01*
X149930336Y-113354898D01*
X149811502Y-113305675D01*
X149765003Y-113286414D01*
X149765001Y-113286413D01*
X149765000Y-113286413D01*
X149684522Y-113270405D01*
X149589482Y-113251500D01*
X149589479Y-113251500D01*
X149410521Y-113251500D01*
X149410518Y-113251500D01*
X149315478Y-113270405D01*
X149235000Y-113286413D01*
X149234999Y-113286413D01*
X149234996Y-113286414D01*
X149069662Y-113354899D01*
X149031700Y-113380265D01*
X148963947Y-113401480D01*
X148961698Y-113401500D01*
X148765290Y-113401500D01*
X148710527Y-113412394D01*
X148618752Y-113430649D01*
X148618747Y-113430651D01*
X148480716Y-113487826D01*
X148356486Y-113570833D01*
X148356480Y-113570838D01*
X144593153Y-117334165D01*
X144530841Y-117368191D01*
X144460025Y-117363126D01*
X144403190Y-117320579D01*
X144380479Y-117269651D01*
X144379927Y-117266874D01*
X144373587Y-117235000D01*
X144305102Y-117069664D01*
X144205678Y-116920865D01*
X144079135Y-116794322D01*
X143930336Y-116694898D01*
X143785721Y-116634996D01*
X143765003Y-116626414D01*
X143765001Y-116626413D01*
X143765000Y-116626413D01*
X143676645Y-116608838D01*
X143589481Y-116591500D01*
X143589479Y-116591500D01*
X143410521Y-116591500D01*
X143410518Y-116591500D01*
X143279771Y-116617507D01*
X143235000Y-116626413D01*
X143234999Y-116626413D01*
X143234996Y-116626414D01*
X143069662Y-116694899D01*
X142920869Y-116794319D01*
X142920862Y-116794324D01*
X142794324Y-116920862D01*
X142794319Y-116920869D01*
X142694899Y-117069662D01*
X142626414Y-117234996D01*
X142591500Y-117410518D01*
X140888000Y-117410518D01*
X140888000Y-117191414D01*
X140887999Y-117191402D01*
X140881494Y-117130906D01*
X140830444Y-116994035D01*
X140830444Y-116994034D01*
X140742904Y-116877095D01*
X140625965Y-116789555D01*
X140489093Y-116738505D01*
X140428597Y-116732000D01*
X139834000Y-116732000D01*
X139834000Y-118086000D01*
X139326000Y-118086000D01*
X139326000Y-116732000D01*
X138731402Y-116732000D01*
X138670906Y-116738505D01*
X138534035Y-116789555D01*
X138534034Y-116789555D01*
X138417095Y-116877095D01*
X138329555Y-116994034D01*
X138329555Y-116994035D01*
X138278505Y-117130906D01*
X138272000Y-117191402D01*
X124691896Y-117191402D01*
X124545845Y-117130905D01*
X124535003Y-117126414D01*
X124535001Y-117126413D01*
X124535000Y-117126413D01*
X124446645Y-117108838D01*
X124359481Y-117091500D01*
X124359479Y-117091500D01*
X124180521Y-117091500D01*
X124180518Y-117091500D01*
X124049771Y-117117507D01*
X124005000Y-117126413D01*
X124004999Y-117126413D01*
X124004996Y-117126414D01*
X123839662Y-117194899D01*
X123690869Y-117294319D01*
X123690862Y-117294324D01*
X123564324Y-117420862D01*
X123564319Y-117420869D01*
X123525391Y-117479130D01*
X123464898Y-117569664D01*
X123450716Y-117603902D01*
X123396414Y-117734996D01*
X123361500Y-117910518D01*
X109675500Y-117910518D01*
X109675500Y-112510518D01*
X142691500Y-112510518D01*
X142691500Y-112689481D01*
X142707688Y-112770862D01*
X142726413Y-112865000D01*
X142794898Y-113030336D01*
X142894322Y-113179135D01*
X143020865Y-113305678D01*
X143169664Y-113405102D01*
X143335000Y-113473587D01*
X143510521Y-113508500D01*
X143510522Y-113508500D01*
X143689478Y-113508500D01*
X143689479Y-113508500D01*
X143865000Y-113473587D01*
X144030336Y-113405102D01*
X144179135Y-113305678D01*
X144214408Y-113270405D01*
X144276720Y-113236379D01*
X144303503Y-113233500D01*
X144796497Y-113233500D01*
X144864618Y-113253502D01*
X144885592Y-113270405D01*
X144920865Y-113305678D01*
X145069664Y-113405102D01*
X145235000Y-113473587D01*
X145410521Y-113508500D01*
X145410522Y-113508500D01*
X145589478Y-113508500D01*
X145589479Y-113508500D01*
X145765000Y-113473587D01*
X145930336Y-113405102D01*
X146079135Y-113305678D01*
X146205678Y-113179135D01*
X146267710Y-113086297D01*
X152944851Y-113086297D01*
X152944851Y-113086298D01*
X153274999Y-113416446D01*
X153275000Y-113416446D01*
X153605147Y-113086298D01*
X153605146Y-113086297D01*
X154044851Y-113086297D01*
X154044851Y-113086298D01*
X154374999Y-113416446D01*
X154375000Y-113416446D01*
X154530927Y-113260518D01*
X160911500Y-113260518D01*
X160911500Y-113439481D01*
X160918284Y-113473585D01*
X160946413Y-113615000D01*
X161014898Y-113780336D01*
X161114322Y-113929135D01*
X161240865Y-114055678D01*
X161389664Y-114155102D01*
X161555000Y-114223587D01*
X161574640Y-114227493D01*
X161637549Y-114260400D01*
X161672682Y-114322094D01*
X161668882Y-114392989D01*
X161627357Y-114450576D01*
X161598278Y-114467480D01*
X161459669Y-114524895D01*
X161459664Y-114524897D01*
X161310869Y-114624319D01*
X161310862Y-114624324D01*
X161184324Y-114750862D01*
X161184319Y-114750869D01*
X161084899Y-114899662D01*
X161016414Y-115064996D01*
X160981500Y-115240518D01*
X160981500Y-115419481D01*
X160995826Y-115491500D01*
X161016413Y-115595000D01*
X161084898Y-115760336D01*
X161184322Y-115909135D01*
X161310865Y-116035678D01*
X161459664Y-116135102D01*
X161625000Y-116203587D01*
X161800521Y-116238500D01*
X161800522Y-116238500D01*
X161979478Y-116238500D01*
X161979479Y-116238500D01*
X162155000Y-116203587D01*
X162320336Y-116135102D01*
X162469135Y-116035678D01*
X162504408Y-116000405D01*
X162531776Y-115985460D01*
X162558005Y-115968604D01*
X162564303Y-115967698D01*
X162566720Y-115966379D01*
X162593503Y-115963500D01*
X162650948Y-115963500D01*
X162719069Y-115983502D01*
X162765562Y-116037158D01*
X162775666Y-116107432D01*
X162746172Y-116172012D01*
X162725523Y-116190230D01*
X162725655Y-116190391D01*
X162721147Y-116194090D01*
X162720951Y-116194264D01*
X162720871Y-116194316D01*
X162720862Y-116194324D01*
X162594324Y-116320862D01*
X162594322Y-116320865D01*
X162494898Y-116469664D01*
X162480716Y-116503902D01*
X162426414Y-116634996D01*
X162391500Y-116810518D01*
X162391500Y-116989481D01*
X162406958Y-117067192D01*
X162419631Y-117130906D01*
X162426414Y-117165003D01*
X162446473Y-117213429D01*
X162494898Y-117330336D01*
X162594322Y-117479135D01*
X162720865Y-117605678D01*
X162869664Y-117705102D01*
X163035000Y-117773587D01*
X163210521Y-117808500D01*
X163210522Y-117808500D01*
X163389478Y-117808500D01*
X163389479Y-117808500D01*
X163565000Y-117773587D01*
X163730336Y-117705102D01*
X163879135Y-117605678D01*
X164005678Y-117479135D01*
X164105102Y-117330336D01*
X164173587Y-117165000D01*
X164208500Y-116989479D01*
X164208500Y-116810521D01*
X164173587Y-116635000D01*
X164105102Y-116469664D01*
X164005678Y-116320865D01*
X163879135Y-116194322D01*
X163879133Y-116194321D01*
X163879128Y-116194316D01*
X163879049Y-116194264D01*
X163879016Y-116194225D01*
X163874345Y-116190391D01*
X163875072Y-116189505D01*
X163833522Y-116139787D01*
X163824675Y-116069344D01*
X163855316Y-116005300D01*
X163915719Y-115967989D01*
X163949052Y-115963500D01*
X168385406Y-115963500D01*
X168453527Y-115983502D01*
X168474501Y-116000405D01*
X174009595Y-121535499D01*
X174043621Y-121597811D01*
X174046500Y-121624594D01*
X174046500Y-141246497D01*
X174026498Y-141314618D01*
X174009595Y-141335592D01*
X173974324Y-141370862D01*
X173974319Y-141370869D01*
X173874899Y-141519662D01*
X173806414Y-141684996D01*
X173771500Y-141860518D01*
X173771500Y-141860521D01*
X173771500Y-142039479D01*
X173806413Y-142215000D01*
X173874898Y-142380336D01*
X173974322Y-142529135D01*
X174100865Y-142655678D01*
X174249664Y-142755102D01*
X174415000Y-142823587D01*
X174590521Y-142858500D01*
X174590522Y-142858500D01*
X174769478Y-142858500D01*
X174769479Y-142858500D01*
X174945000Y-142823587D01*
X175110336Y-142755102D01*
X175259135Y-142655678D01*
X175385678Y-142529135D01*
X175485102Y-142380336D01*
X175553587Y-142215000D01*
X175588500Y-142039479D01*
X175588500Y-141860521D01*
X175553587Y-141685000D01*
X175485102Y-141519664D01*
X175385678Y-141370865D01*
X175350405Y-141335592D01*
X175316379Y-141273280D01*
X175313500Y-141246497D01*
X175313500Y-121247607D01*
X175313499Y-121247603D01*
X175289155Y-121125215D01*
X175241400Y-121009925D01*
X175172071Y-120906167D01*
X175083833Y-120817929D01*
X169103833Y-114837929D01*
X169000075Y-114768600D01*
X168884785Y-114720845D01*
X168811086Y-114706185D01*
X168762396Y-114696500D01*
X168762394Y-114696500D01*
X162593503Y-114696500D01*
X162525382Y-114676498D01*
X162504408Y-114659595D01*
X162469137Y-114624324D01*
X162469135Y-114624322D01*
X162320336Y-114524898D01*
X162237668Y-114490655D01*
X162154999Y-114456412D01*
X162135356Y-114452505D01*
X162072447Y-114419597D01*
X162037317Y-114357901D01*
X162041118Y-114287006D01*
X162082645Y-114229421D01*
X162111720Y-114212519D01*
X162250336Y-114155102D01*
X162399135Y-114055678D01*
X162434408Y-114020405D01*
X162496720Y-113986379D01*
X162523503Y-113983500D01*
X169782393Y-113983500D01*
X169782394Y-113983500D01*
X169904785Y-113959155D01*
X170020075Y-113911400D01*
X170123833Y-113842071D01*
X175392071Y-108573833D01*
X175461400Y-108470075D01*
X175509155Y-108354785D01*
X175533500Y-108232394D01*
X175533500Y-108107606D01*
X175533500Y-88053503D01*
X175553502Y-87985382D01*
X175570405Y-87964408D01*
X175605678Y-87929135D01*
X175705102Y-87780336D01*
X175773587Y-87615000D01*
X175808500Y-87439479D01*
X175808500Y-87260521D01*
X175773587Y-87085000D01*
X175705102Y-86919664D01*
X175605678Y-86770865D01*
X175479135Y-86644322D01*
X175330336Y-86544898D01*
X175213429Y-86496473D01*
X175165003Y-86476414D01*
X175165001Y-86476413D01*
X175165000Y-86476413D01*
X175076645Y-86458838D01*
X174989481Y-86441500D01*
X174989479Y-86441500D01*
X174810521Y-86441500D01*
X174810518Y-86441500D01*
X174679771Y-86467507D01*
X174635000Y-86476413D01*
X174634999Y-86476413D01*
X174634996Y-86476414D01*
X174469662Y-86544899D01*
X174320869Y-86644319D01*
X174320862Y-86644324D01*
X174194324Y-86770862D01*
X174194319Y-86770869D01*
X174094899Y-86919662D01*
X174026414Y-87084996D01*
X173991500Y-87260518D01*
X173991500Y-87260521D01*
X173991500Y-87439479D01*
X174026413Y-87615000D01*
X174094898Y-87780336D01*
X174194322Y-87929135D01*
X174194324Y-87929137D01*
X174229595Y-87964408D01*
X174263621Y-88026720D01*
X174266500Y-88053503D01*
X174266500Y-107855406D01*
X174246498Y-107923527D01*
X174229595Y-107944501D01*
X169494501Y-112679595D01*
X169432189Y-112713621D01*
X169405406Y-112716500D01*
X162523503Y-112716500D01*
X162455382Y-112696498D01*
X162434408Y-112679595D01*
X162399137Y-112644324D01*
X162399135Y-112644322D01*
X162250336Y-112544898D01*
X162133429Y-112496473D01*
X162085003Y-112476414D01*
X162085001Y-112476413D01*
X162085000Y-112476413D01*
X161996645Y-112458838D01*
X161909481Y-112441500D01*
X161909479Y-112441500D01*
X161730521Y-112441500D01*
X161730518Y-112441500D01*
X161599771Y-112467507D01*
X161555000Y-112476413D01*
X161554999Y-112476413D01*
X161554996Y-112476414D01*
X161389662Y-112544899D01*
X161240869Y-112644319D01*
X161240862Y-112644324D01*
X161114324Y-112770862D01*
X161114319Y-112770869D01*
X161014899Y-112919662D01*
X160946414Y-113084996D01*
X160911500Y-113260518D01*
X154530927Y-113260518D01*
X154626209Y-113165236D01*
X154705147Y-113086298D01*
X154705146Y-113086297D01*
X154596108Y-113041131D01*
X154449659Y-113012000D01*
X154300340Y-113012000D01*
X154153898Y-113041129D01*
X154153893Y-113041131D01*
X154044851Y-113086297D01*
X153605146Y-113086297D01*
X153496108Y-113041131D01*
X153349659Y-113012000D01*
X153200340Y-113012000D01*
X153053898Y-113041129D01*
X153053893Y-113041131D01*
X152944851Y-113086297D01*
X146267710Y-113086297D01*
X146305102Y-113030336D01*
X146373587Y-112865000D01*
X146408500Y-112689479D01*
X146408500Y-112510521D01*
X146373587Y-112335000D01*
X146305102Y-112169664D01*
X146205678Y-112020865D01*
X146079135Y-111894322D01*
X145930336Y-111794898D01*
X145813429Y-111746473D01*
X145765003Y-111726414D01*
X145765001Y-111726413D01*
X145765000Y-111726413D01*
X145676645Y-111708838D01*
X145589481Y-111691500D01*
X145589479Y-111691500D01*
X145410521Y-111691500D01*
X145410518Y-111691500D01*
X145279771Y-111717507D01*
X145235000Y-111726413D01*
X145234999Y-111726413D01*
X145234996Y-111726414D01*
X145069662Y-111794899D01*
X144920869Y-111894319D01*
X144920862Y-111894324D01*
X144885592Y-111929595D01*
X144823280Y-111963621D01*
X144796497Y-111966500D01*
X144303503Y-111966500D01*
X144235382Y-111946498D01*
X144214408Y-111929595D01*
X144179137Y-111894324D01*
X144179135Y-111894322D01*
X144030336Y-111794898D01*
X143913429Y-111746473D01*
X143865003Y-111726414D01*
X143865001Y-111726413D01*
X143865000Y-111726413D01*
X143776645Y-111708838D01*
X143689481Y-111691500D01*
X143689479Y-111691500D01*
X143510521Y-111691500D01*
X143510518Y-111691500D01*
X143379771Y-111717507D01*
X143335000Y-111726413D01*
X143334999Y-111726413D01*
X143334996Y-111726414D01*
X143169662Y-111794899D01*
X143020869Y-111894319D01*
X143020862Y-111894324D01*
X142894324Y-112020862D01*
X142894319Y-112020869D01*
X142794899Y-112169662D01*
X142726414Y-112334996D01*
X142691500Y-112510518D01*
X109675500Y-112510518D01*
X109675500Y-108587650D01*
X109694006Y-108521915D01*
X111260174Y-105960887D01*
X111265500Y-105955562D01*
X111265500Y-105952179D01*
X111267265Y-105949293D01*
X111267265Y-105949291D01*
X111267769Y-105946093D01*
X111265500Y-105926999D01*
X111265500Y-104210518D01*
X125691500Y-104210518D01*
X125691500Y-104210521D01*
X125691500Y-104389479D01*
X125726413Y-104565000D01*
X125794898Y-104730336D01*
X125894322Y-104879135D01*
X126020865Y-105005678D01*
X126169664Y-105105102D01*
X126335000Y-105173587D01*
X126510521Y-105208500D01*
X126510522Y-105208500D01*
X126689478Y-105208500D01*
X126689479Y-105208500D01*
X126865000Y-105173587D01*
X127030336Y-105105102D01*
X127090750Y-105064734D01*
X127158502Y-105043520D01*
X127160751Y-105043500D01*
X131346497Y-105043500D01*
X131414618Y-105063502D01*
X131435592Y-105080405D01*
X131470865Y-105115678D01*
X131619664Y-105215102D01*
X131785000Y-105283587D01*
X131960521Y-105318500D01*
X131960522Y-105318500D01*
X132139478Y-105318500D01*
X132139479Y-105318500D01*
X132315000Y-105283587D01*
X132480336Y-105215102D01*
X132629135Y-105115678D01*
X132664408Y-105080405D01*
X132726720Y-105046379D01*
X132753503Y-105043500D01*
X138596497Y-105043500D01*
X138664618Y-105063502D01*
X138685592Y-105080405D01*
X138720865Y-105115678D01*
X138869664Y-105215102D01*
X139035000Y-105283587D01*
X139210521Y-105318500D01*
X139210522Y-105318500D01*
X139389478Y-105318500D01*
X139389479Y-105318500D01*
X139565000Y-105283587D01*
X139730336Y-105215102D01*
X139879135Y-105115678D01*
X140005678Y-104989135D01*
X140105102Y-104840336D01*
X140173587Y-104675000D01*
X140208500Y-104499479D01*
X140208500Y-104320521D01*
X140173587Y-104145000D01*
X140105102Y-103979664D01*
X140005678Y-103830865D01*
X139879135Y-103704322D01*
X139730336Y-103604898D01*
X139613429Y-103556473D01*
X139565003Y-103536414D01*
X139565001Y-103536413D01*
X139565000Y-103536413D01*
X139476645Y-103518838D01*
X139389481Y-103501500D01*
X139389479Y-103501500D01*
X139210521Y-103501500D01*
X139210518Y-103501500D01*
X139079771Y-103527507D01*
X139035000Y-103536413D01*
X139034999Y-103536413D01*
X139034996Y-103536414D01*
X138869662Y-103604899D01*
X138720869Y-103704319D01*
X138720862Y-103704324D01*
X138685592Y-103739595D01*
X138623280Y-103773621D01*
X138596497Y-103776500D01*
X132753503Y-103776500D01*
X132685382Y-103756498D01*
X132664408Y-103739595D01*
X132629137Y-103704324D01*
X132629135Y-103704322D01*
X132480336Y-103604898D01*
X132363429Y-103556473D01*
X132315003Y-103536414D01*
X132315001Y-103536413D01*
X132315000Y-103536413D01*
X132226645Y-103518838D01*
X132139481Y-103501500D01*
X132139479Y-103501500D01*
X131960521Y-103501500D01*
X131960518Y-103501500D01*
X131829771Y-103527507D01*
X131785000Y-103536413D01*
X131784999Y-103536413D01*
X131784996Y-103536414D01*
X131619662Y-103604899D01*
X131470869Y-103704319D01*
X131470862Y-103704324D01*
X131435592Y-103739595D01*
X131373280Y-103773621D01*
X131346497Y-103776500D01*
X127410201Y-103776500D01*
X127342080Y-103756498D01*
X127310192Y-103725176D01*
X127309609Y-103725655D01*
X127305680Y-103720868D01*
X127305678Y-103720865D01*
X127179135Y-103594322D01*
X127030336Y-103494898D01*
X126913429Y-103446473D01*
X126865003Y-103426414D01*
X126865001Y-103426413D01*
X126865000Y-103426413D01*
X126776645Y-103408838D01*
X126689481Y-103391500D01*
X126689479Y-103391500D01*
X126510521Y-103391500D01*
X126510518Y-103391500D01*
X126379771Y-103417507D01*
X126335000Y-103426413D01*
X126334999Y-103426413D01*
X126334996Y-103426414D01*
X126169662Y-103494899D01*
X126020869Y-103594319D01*
X126020862Y-103594324D01*
X125894324Y-103720862D01*
X125894319Y-103720869D01*
X125794899Y-103869662D01*
X125726414Y-104034996D01*
X125691500Y-104210518D01*
X111265500Y-104210518D01*
X111265500Y-77534375D01*
X111265538Y-77534375D01*
X111265496Y-77534155D01*
X111265687Y-77419355D01*
X111249649Y-77275222D01*
X111232357Y-77119817D01*
X111165540Y-76825930D01*
X111066083Y-76541426D01*
X111019216Y-76444167D01*
X136824500Y-76444167D01*
X136824500Y-82755832D01*
X136860681Y-83065378D01*
X136860682Y-83065384D01*
X136932557Y-83368645D01*
X136932558Y-83368650D01*
X137039146Y-83661497D01*
X137039151Y-83661509D01*
X137179024Y-83940021D01*
X137350279Y-84200400D01*
X137550610Y-84439147D01*
X137777310Y-84653028D01*
X137920893Y-84759921D01*
X138027297Y-84839136D01*
X138297203Y-84994966D01*
X138583374Y-85118408D01*
X138881942Y-85207793D01*
X139188867Y-85261913D01*
X139500000Y-85280034D01*
X139811133Y-85261913D01*
X140118058Y-85207793D01*
X140416626Y-85118408D01*
X140702797Y-84994966D01*
X140972703Y-84839136D01*
X141222693Y-84653025D01*
X141449386Y-84439151D01*
X141649717Y-84200405D01*
X141820978Y-83940017D01*
X141960850Y-83661507D01*
X142067444Y-83368642D01*
X142139318Y-83065383D01*
X142175500Y-82755830D01*
X142175500Y-82600000D01*
X142175500Y-82591715D01*
X142175500Y-76589438D01*
X142175500Y-76444170D01*
X142175500Y-76444167D01*
X146824500Y-76444167D01*
X146824500Y-82755832D01*
X146860681Y-83065378D01*
X146860682Y-83065384D01*
X146932557Y-83368645D01*
X146932558Y-83368650D01*
X147039146Y-83661497D01*
X147039151Y-83661509D01*
X147179024Y-83940021D01*
X147350279Y-84200400D01*
X147550610Y-84439147D01*
X147777310Y-84653028D01*
X147920893Y-84759921D01*
X148027297Y-84839136D01*
X148297203Y-84994966D01*
X148583374Y-85118408D01*
X148881942Y-85207793D01*
X149188867Y-85261913D01*
X149500000Y-85280034D01*
X149811133Y-85261913D01*
X150118058Y-85207793D01*
X150416626Y-85118408D01*
X150702797Y-84994966D01*
X150972703Y-84839136D01*
X151222693Y-84653025D01*
X151449386Y-84439151D01*
X151649717Y-84200405D01*
X151820978Y-83940017D01*
X151960850Y-83661507D01*
X152067444Y-83368642D01*
X152139318Y-83065383D01*
X152175500Y-82755830D01*
X152175500Y-82600000D01*
X152175500Y-82591715D01*
X152175500Y-76589438D01*
X152175500Y-76444170D01*
X152139318Y-76134617D01*
X152067444Y-75831358D01*
X152048554Y-75779459D01*
X151960853Y-75538502D01*
X151960850Y-75538493D01*
X151820978Y-75259983D01*
X151782119Y-75200901D01*
X151649720Y-74999599D01*
X151647225Y-74996626D01*
X151499726Y-74820842D01*
X151449389Y-74760852D01*
X151222689Y-74546971D01*
X150972718Y-74360875D01*
X150972715Y-74360873D01*
X150972703Y-74360864D01*
X150702797Y-74205034D01*
X150702798Y-74205034D01*
X150702794Y-74205032D01*
X150416633Y-74081595D01*
X150416632Y-74081594D01*
X150416626Y-74081592D01*
X150118058Y-73992207D01*
X150118059Y-73992207D01*
X150023309Y-73975500D01*
X149811133Y-73938087D01*
X149811129Y-73938086D01*
X149811125Y-73938086D01*
X149500000Y-73919966D01*
X149188877Y-73938086D01*
X149188871Y-73938086D01*
X148881941Y-73992207D01*
X148754360Y-74030402D01*
X148583374Y-74081592D01*
X148583372Y-74081593D01*
X148583366Y-74081595D01*
X148297205Y-74205032D01*
X148297200Y-74205035D01*
X148027308Y-74360857D01*
X148027281Y-74360875D01*
X147777310Y-74546971D01*
X147550610Y-74760852D01*
X147350279Y-74999599D01*
X147179024Y-75259978D01*
X147039151Y-75538490D01*
X147039146Y-75538502D01*
X146932558Y-75831349D01*
X146932557Y-75831354D01*
X146860682Y-76134615D01*
X146860681Y-76134621D01*
X146824500Y-76444167D01*
X142175500Y-76444167D01*
X142139318Y-76134617D01*
X142067444Y-75831358D01*
X142048554Y-75779459D01*
X141960853Y-75538502D01*
X141960850Y-75538493D01*
X141820978Y-75259983D01*
X141782119Y-75200901D01*
X141649720Y-74999599D01*
X141647225Y-74996626D01*
X141499726Y-74820842D01*
X141449389Y-74760852D01*
X141222689Y-74546971D01*
X140972718Y-74360875D01*
X140972715Y-74360873D01*
X140972703Y-74360864D01*
X140702797Y-74205034D01*
X140702798Y-74205034D01*
X140702794Y-74205032D01*
X140416633Y-74081595D01*
X140416632Y-74081594D01*
X140416626Y-74081592D01*
X140118058Y-73992207D01*
X140118059Y-73992207D01*
X140023309Y-73975500D01*
X139811133Y-73938087D01*
X139811129Y-73938086D01*
X139811125Y-73938086D01*
X139500000Y-73919966D01*
X139188877Y-73938086D01*
X139188871Y-73938086D01*
X138881941Y-73992207D01*
X138754360Y-74030402D01*
X138583374Y-74081592D01*
X138583372Y-74081593D01*
X138583366Y-74081595D01*
X138297205Y-74205032D01*
X138297200Y-74205035D01*
X138027308Y-74360857D01*
X138027281Y-74360875D01*
X137777310Y-74546971D01*
X137550610Y-74760852D01*
X137350279Y-74999599D01*
X137179024Y-75259978D01*
X137039151Y-75538490D01*
X137039146Y-75538502D01*
X136932558Y-75831349D01*
X136932557Y-75831354D01*
X136860682Y-76134615D01*
X136860681Y-76134621D01*
X136824500Y-76444167D01*
X111019216Y-76444167D01*
X110941868Y-76283651D01*
X110935252Y-76269921D01*
X110935251Y-76269920D01*
X110935250Y-76269917D01*
X110774702Y-76014851D01*
X110586477Y-75779467D01*
X110586475Y-75779465D01*
X110586470Y-75779459D01*
X110372969Y-75566757D01*
X110372966Y-75566754D01*
X110136879Y-75379411D01*
X110136874Y-75379407D01*
X110136866Y-75379402D01*
X109881214Y-75219819D01*
X109609218Y-75090003D01*
X109606242Y-75088975D01*
X109324343Y-74991612D01*
X109324341Y-74991611D01*
X109324331Y-74991608D01*
X109030211Y-74925895D01*
X109030200Y-74925893D01*
X108730551Y-74893687D01*
X108730547Y-74893687D01*
X108616177Y-74894304D01*
X108580409Y-74894498D01*
X108579729Y-74894500D01*
X103151500Y-74894500D01*
X103083379Y-74874498D01*
X103036886Y-74820842D01*
X103025500Y-74768500D01*
X103025500Y-70124024D01*
X103366500Y-70124024D01*
X103366500Y-70475975D01*
X103405906Y-70825711D01*
X103484223Y-71168837D01*
X103600455Y-71501010D01*
X103600466Y-71501037D01*
X103753163Y-71818116D01*
X103753168Y-71818125D01*
X103940414Y-72116124D01*
X104159844Y-72391283D01*
X104408716Y-72640155D01*
X104683875Y-72859585D01*
X104683877Y-72859586D01*
X104981879Y-73046834D01*
X105298972Y-73199538D01*
X105298988Y-73199543D01*
X105298989Y-73199544D01*
X105631162Y-73315776D01*
X105631165Y-73315776D01*
X105631169Y-73315778D01*
X105974292Y-73394094D01*
X106222284Y-73422036D01*
X106324024Y-73433500D01*
X106324026Y-73433500D01*
X106675976Y-73433500D01*
X106764795Y-73423492D01*
X107025708Y-73394094D01*
X107368831Y-73315778D01*
X107701028Y-73199538D01*
X108018121Y-73046834D01*
X108316123Y-72859586D01*
X108371155Y-72815699D01*
X108591283Y-72640155D01*
X108840155Y-72391283D01*
X109059585Y-72116124D01*
X109246831Y-71818125D01*
X109246834Y-71818121D01*
X109399538Y-71501028D01*
X109515778Y-71168831D01*
X109594094Y-70825708D01*
X109633500Y-70475974D01*
X109633500Y-70124026D01*
X109633500Y-70124024D01*
X179366500Y-70124024D01*
X179366500Y-70475975D01*
X179405906Y-70825711D01*
X179484223Y-71168837D01*
X179600455Y-71501010D01*
X179600466Y-71501037D01*
X179753163Y-71818116D01*
X179753168Y-71818125D01*
X179940414Y-72116124D01*
X180159844Y-72391283D01*
X180408716Y-72640155D01*
X180683875Y-72859585D01*
X180683877Y-72859586D01*
X180981879Y-73046834D01*
X181298972Y-73199538D01*
X181298988Y-73199543D01*
X181298989Y-73199544D01*
X181631162Y-73315776D01*
X181631165Y-73315776D01*
X181631169Y-73315778D01*
X181974292Y-73394094D01*
X182222284Y-73422036D01*
X182324024Y-73433500D01*
X182324026Y-73433500D01*
X182675976Y-73433500D01*
X182764795Y-73423492D01*
X183025708Y-73394094D01*
X183368831Y-73315778D01*
X183701028Y-73199538D01*
X184018121Y-73046834D01*
X184316123Y-72859586D01*
X184371155Y-72815699D01*
X184591283Y-72640155D01*
X184840155Y-72391283D01*
X185059585Y-72116124D01*
X185246831Y-71818125D01*
X185246834Y-71818121D01*
X185399538Y-71501028D01*
X185515778Y-71168831D01*
X185594094Y-70825708D01*
X185633500Y-70475974D01*
X185633500Y-70124026D01*
X185594094Y-69774292D01*
X185515778Y-69431169D01*
X185399538Y-69098972D01*
X185246834Y-68781879D01*
X185059586Y-68483877D01*
X185059585Y-68483875D01*
X184840155Y-68208716D01*
X184591283Y-67959844D01*
X184316124Y-67740414D01*
X184018125Y-67553168D01*
X184018116Y-67553163D01*
X183701037Y-67400466D01*
X183701032Y-67400464D01*
X183701028Y-67400462D01*
X183701022Y-67400459D01*
X183701010Y-67400455D01*
X183368837Y-67284223D01*
X183025711Y-67205906D01*
X182675976Y-67166500D01*
X182675974Y-67166500D01*
X182324026Y-67166500D01*
X182324024Y-67166500D01*
X181974288Y-67205906D01*
X181631162Y-67284223D01*
X181298989Y-67400455D01*
X181298962Y-67400466D01*
X180981883Y-67553163D01*
X180981874Y-67553168D01*
X180683875Y-67740414D01*
X180408716Y-67959844D01*
X180159844Y-68208716D01*
X179940414Y-68483875D01*
X179753168Y-68781874D01*
X179753163Y-68781883D01*
X179600466Y-69098962D01*
X179600455Y-69098989D01*
X179484223Y-69431162D01*
X179405906Y-69774288D01*
X179366500Y-70124024D01*
X109633500Y-70124024D01*
X109594094Y-69774292D01*
X109515778Y-69431169D01*
X109399538Y-69098972D01*
X109246834Y-68781879D01*
X109059586Y-68483877D01*
X109059585Y-68483875D01*
X108840155Y-68208716D01*
X108591283Y-67959844D01*
X108316124Y-67740414D01*
X108018125Y-67553168D01*
X108018116Y-67553163D01*
X107701037Y-67400466D01*
X107701032Y-67400464D01*
X107701028Y-67400462D01*
X107701022Y-67400459D01*
X107701010Y-67400455D01*
X107368837Y-67284223D01*
X107025711Y-67205906D01*
X106675976Y-67166500D01*
X106675974Y-67166500D01*
X106324026Y-67166500D01*
X106324024Y-67166500D01*
X105974288Y-67205906D01*
X105631162Y-67284223D01*
X105298989Y-67400455D01*
X105298962Y-67400466D01*
X104981883Y-67553163D01*
X104981874Y-67553168D01*
X104683875Y-67740414D01*
X104408716Y-67959844D01*
X104159844Y-68208716D01*
X103940414Y-68483875D01*
X103753168Y-68781874D01*
X103753163Y-68781883D01*
X103600466Y-69098962D01*
X103600455Y-69098989D01*
X103484223Y-69431162D01*
X103405906Y-69774288D01*
X103366500Y-70124024D01*
X103025500Y-70124024D01*
X103025500Y-65901500D01*
X103045502Y-65833379D01*
X103099158Y-65786886D01*
X103151500Y-65775500D01*
X185848500Y-65775500D01*
X185916621Y-65795502D01*
G37*
%TD.AperFunction*%
%TD*%
M02*
