%TF.GenerationSoftware,KiCad,Pcbnew,(6.0.9)*%
%TF.CreationDate,2023-03-20T12:04:43-07:00*%
%TF.ProjectId,solar-panel-side-Z,736f6c61-722d-4706-916e-656c2d736964,3.0*%
%TF.SameCoordinates,Original*%
%TF.FileFunction,Soldermask,Top*%
%TF.FilePolarity,Negative*%
%FSLAX46Y46*%
G04 Gerber Fmt 4.6, Leading zero omitted, Abs format (unit mm)*
G04 Created by KiCad (PCBNEW (6.0.9)) date 2023-03-20 12:04:43*
%MOMM*%
%LPD*%
G01*
G04 APERTURE LIST*
G04 Aperture macros list*
%AMRoundRect*
0 Rectangle with rounded corners*
0 $1 Rounding radius*
0 $2 $3 $4 $5 $6 $7 $8 $9 X,Y pos of 4 corners*
0 Add a 4 corners polygon primitive as box body*
4,1,4,$2,$3,$4,$5,$6,$7,$8,$9,$2,$3,0*
0 Add four circle primitives for the rounded corners*
1,1,$1+$1,$2,$3*
1,1,$1+$1,$4,$5*
1,1,$1+$1,$6,$7*
1,1,$1+$1,$8,$9*
0 Add four rect primitives between the rounded corners*
20,1,$1+$1,$2,$3,$4,$5,0*
20,1,$1+$1,$4,$5,$6,$7,0*
20,1,$1+$1,$6,$7,$8,$9,0*
20,1,$1+$1,$8,$9,$2,$3,0*%
G04 Aperture macros list end*
%TA.AperFunction,Profile*%
%ADD10C,0.050000*%
%TD*%
%ADD11R,3.000000X3.000000*%
%ADD12C,3.000000*%
%ADD13C,5.250000*%
%ADD14R,2.500000X1.700000*%
%ADD15RoundRect,0.750000X-0.750000X-0.750000X0.750000X-0.750000X0.750000X0.750000X-0.750000X0.750000X0*%
%ADD16RoundRect,0.218750X0.218750X0.256250X-0.218750X0.256250X-0.218750X-0.256250X0.218750X-0.256250X0*%
%ADD17RoundRect,0.250000X0.250000X0.475000X-0.250000X0.475000X-0.250000X-0.475000X0.250000X-0.475000X0*%
%ADD18R,0.750000X0.300000*%
%ADD19R,1.750000X1.450000*%
%ADD20R,3.000000X13.000000*%
%ADD21R,13.000000X3.000000*%
%ADD22RoundRect,0.200000X-0.200000X-0.275000X0.200000X-0.275000X0.200000X0.275000X-0.200000X0.275000X0*%
%ADD23RoundRect,0.075000X-0.650000X-0.075000X0.650000X-0.075000X0.650000X0.075000X-0.650000X0.075000X0*%
%ADD24R,1.600000X0.700000*%
%ADD25R,1.700000X2.500000*%
%ADD26C,1.800000*%
G04 APERTURE END LIST*
D10*
X99500000Y-45500000D02*
X110000000Y-45500000D01*
X189000000Y-135000000D02*
X110000000Y-135000000D01*
X199500000Y-124500000D02*
X189000000Y-124500000D01*
X189000000Y-45500000D02*
X199500000Y-45500000D01*
X99500000Y-124500000D02*
X99500000Y-45500000D01*
X110000000Y-135000000D02*
X110000000Y-124500000D01*
X110000000Y-35000000D02*
X189000000Y-35000000D01*
X110000000Y-124500000D02*
X99500000Y-124500000D01*
X199500000Y-45500000D02*
X199500000Y-124500000D01*
X189000000Y-35000000D02*
X189000000Y-45500000D01*
X110000000Y-45500000D02*
X110000000Y-35000000D01*
X189000000Y-124500000D02*
X189000000Y-135000000D01*
D11*
%TO.C,J3*%
X146000000Y-86710000D03*
D12*
X146000000Y-81630000D03*
%TD*%
D13*
%TO.C,J4*%
X110500000Y-85000000D03*
%TD*%
%TO.C,J5*%
X141750000Y-124000000D03*
%TD*%
%TO.C,J6*%
X157250000Y-46000000D03*
%TD*%
%TO.C,J7*%
X188500000Y-85000000D03*
%TD*%
D14*
%TO.C,D3*%
X141590000Y-107770000D03*
X137590000Y-107770000D03*
%TD*%
D15*
%TO.C,TP1*%
X104050000Y-106110000D03*
%TD*%
D16*
%TO.C,D5*%
X135390000Y-86480000D03*
X133815000Y-86480000D03*
%TD*%
D17*
%TO.C,C3*%
X148430000Y-98750000D03*
X146530000Y-98750000D03*
%TD*%
D18*
%TO.C,U3*%
X151780000Y-66080000D03*
X151780000Y-66580000D03*
X151780000Y-67080000D03*
X151780000Y-67580000D03*
X154680000Y-67580000D03*
X154680000Y-67080000D03*
X154680000Y-66580000D03*
X154680000Y-66080000D03*
D19*
X153230000Y-66830000D03*
%TD*%
D20*
%TO.C,SC5*%
X146930000Y-123240000D03*
X186930000Y-123240000D03*
%TD*%
D15*
%TO.C,TP2*%
X104080000Y-112590000D03*
%TD*%
D21*
%TO.C,SC3*%
X121720000Y-133090000D03*
X121720000Y-93090000D03*
%TD*%
D22*
%TO.C,R1*%
X129767500Y-86520000D03*
X131417500Y-86520000D03*
%TD*%
D17*
%TO.C,C2*%
X148460000Y-104540000D03*
X146560000Y-104540000D03*
%TD*%
D23*
%TO.C,U2*%
X148440000Y-100610000D03*
X148440000Y-101110000D03*
X148440000Y-101610000D03*
X148440000Y-102110000D03*
X148440000Y-102610000D03*
X152840000Y-102610000D03*
X152840000Y-102110000D03*
X152840000Y-101610000D03*
X152840000Y-101110000D03*
X152840000Y-100610000D03*
%TD*%
D14*
%TO.C,D4*%
X137680000Y-113090000D03*
X141680000Y-113090000D03*
%TD*%
D17*
%TO.C,C1*%
X154500000Y-64285000D03*
X152600000Y-64285000D03*
%TD*%
D24*
%TO.C,U1*%
X154350000Y-72095000D03*
X154350000Y-73365000D03*
X154350000Y-74635000D03*
X154350000Y-75905000D03*
%TD*%
D20*
%TO.C,SC4*%
X101620000Y-69850000D03*
X141620000Y-69850000D03*
%TD*%
%TO.C,SC6*%
X197440000Y-99920000D03*
X157440000Y-99920000D03*
%TD*%
D21*
%TO.C,SC2*%
X176760000Y-36940000D03*
X176760000Y-76940000D03*
%TD*%
D25*
%TO.C,D2*%
X105650000Y-54590000D03*
X105650000Y-50590000D03*
%TD*%
D20*
%TO.C,SC1*%
X111870000Y-46630000D03*
X151870000Y-46630000D03*
%TD*%
D26*
%TO.C,J2*%
X150850000Y-82450000D03*
X150850000Y-85950000D03*
%TD*%
M02*
