%TF.GenerationSoftware,KiCad,Pcbnew,(6.0.7)*%
%TF.CreationDate,2023-05-18T12:23:57-07:00*%
%TF.ProjectId,solar-panel-NoCutout,736f6c61-722d-4706-916e-656c2d4e6f43,3.0*%
%TF.SameCoordinates,Original*%
%TF.FileFunction,Legend,Bot*%
%TF.FilePolarity,Positive*%
%FSLAX46Y46*%
G04 Gerber Fmt 4.6, Leading zero omitted, Abs format (unit mm)*
G04 Created by KiCad (PCBNEW (6.0.7)) date 2023-05-18 12:23:57*
%MOMM*%
%LPD*%
G01*
G04 APERTURE LIST*
%ADD10C,0.150000*%
%ADD11C,0.120000*%
%ADD12C,5.250000*%
%ADD13R,0.600000X1.000000*%
%ADD14R,1.250000X1.800000*%
G04 APERTURE END LIST*
D10*
X129937619Y-118226666D02*
X128937619Y-117893333D01*
X129937619Y-117560000D01*
X128985238Y-117274285D02*
X128937619Y-117131428D01*
X128937619Y-116893333D01*
X128985238Y-116798095D01*
X129032857Y-116750476D01*
X129128095Y-116702857D01*
X129223333Y-116702857D01*
X129318571Y-116750476D01*
X129366190Y-116798095D01*
X129413809Y-116893333D01*
X129461428Y-117083809D01*
X129509047Y-117179047D01*
X129556666Y-117226666D01*
X129651904Y-117274285D01*
X129747142Y-117274285D01*
X129842380Y-117226666D01*
X129890000Y-117179047D01*
X129937619Y-117083809D01*
X129937619Y-116845714D01*
X129890000Y-116702857D01*
X129937619Y-116083809D02*
X129937619Y-115893333D01*
X129890000Y-115798095D01*
X129794761Y-115702857D01*
X129604285Y-115655238D01*
X129270952Y-115655238D01*
X129080476Y-115702857D01*
X128985238Y-115798095D01*
X128937619Y-115893333D01*
X128937619Y-116083809D01*
X128985238Y-116179047D01*
X129080476Y-116274285D01*
X129270952Y-116321904D01*
X129604285Y-116321904D01*
X129794761Y-116274285D01*
X129890000Y-116179047D01*
X129937619Y-116083809D01*
X128937619Y-114750476D02*
X128937619Y-115226666D01*
X129937619Y-115226666D01*
X129223333Y-114464761D02*
X129223333Y-113988571D01*
X128937619Y-114560000D02*
X129937619Y-114226666D01*
X128937619Y-113893333D01*
X128937619Y-112988571D02*
X129413809Y-113321904D01*
X128937619Y-113560000D02*
X129937619Y-113560000D01*
X129937619Y-113179047D01*
X129890000Y-113083809D01*
X129842380Y-113036190D01*
X129747142Y-112988571D01*
X129604285Y-112988571D01*
X129509047Y-113036190D01*
X129461428Y-113083809D01*
X129413809Y-113179047D01*
X129413809Y-113560000D01*
X137101785Y-68007380D02*
X137101785Y-67007380D01*
X136720833Y-67007380D01*
X136625595Y-67055000D01*
X136577976Y-67102619D01*
X136530357Y-67197857D01*
X136530357Y-67340714D01*
X136577976Y-67435952D01*
X136625595Y-67483571D01*
X136720833Y-67531190D01*
X137101785Y-67531190D01*
X135530357Y-68007380D02*
X135863690Y-67531190D01*
X136101785Y-68007380D02*
X136101785Y-67007380D01*
X135720833Y-67007380D01*
X135625595Y-67055000D01*
X135577976Y-67102619D01*
X135530357Y-67197857D01*
X135530357Y-67340714D01*
X135577976Y-67435952D01*
X135625595Y-67483571D01*
X135720833Y-67531190D01*
X136101785Y-67531190D01*
X134911309Y-67007380D02*
X134720833Y-67007380D01*
X134625595Y-67055000D01*
X134530357Y-67150238D01*
X134482738Y-67340714D01*
X134482738Y-67674047D01*
X134530357Y-67864523D01*
X134625595Y-67959761D01*
X134720833Y-68007380D01*
X134911309Y-68007380D01*
X135006547Y-67959761D01*
X135101785Y-67864523D01*
X135149404Y-67674047D01*
X135149404Y-67340714D01*
X135101785Y-67150238D01*
X135006547Y-67055000D01*
X134911309Y-67007380D01*
X134197023Y-67007380D02*
X133863690Y-68007380D01*
X133530357Y-67007380D01*
X133197023Y-67483571D02*
X132863690Y-67483571D01*
X132720833Y-68007380D02*
X133197023Y-68007380D01*
X133197023Y-67007380D01*
X132720833Y-67007380D01*
X132339880Y-67959761D02*
X132197023Y-68007380D01*
X131958928Y-68007380D01*
X131863690Y-67959761D01*
X131816071Y-67912142D01*
X131768452Y-67816904D01*
X131768452Y-67721666D01*
X131816071Y-67626428D01*
X131863690Y-67578809D01*
X131958928Y-67531190D01*
X132149404Y-67483571D01*
X132244642Y-67435952D01*
X132292261Y-67388333D01*
X132339880Y-67293095D01*
X132339880Y-67197857D01*
X132292261Y-67102619D01*
X132244642Y-67055000D01*
X132149404Y-67007380D01*
X131911309Y-67007380D01*
X131768452Y-67055000D01*
X130673214Y-67007380D02*
X130006547Y-68007380D01*
X130006547Y-67007380D02*
X130673214Y-68007380D01*
X129435119Y-67531190D02*
X129435119Y-68007380D01*
X129768452Y-67007380D02*
X129435119Y-67531190D01*
X129101785Y-67007380D01*
X128054166Y-67959761D02*
X127911309Y-68007380D01*
X127673214Y-68007380D01*
X127577976Y-67959761D01*
X127530357Y-67912142D01*
X127482738Y-67816904D01*
X127482738Y-67721666D01*
X127530357Y-67626428D01*
X127577976Y-67578809D01*
X127673214Y-67531190D01*
X127863690Y-67483571D01*
X127958928Y-67435952D01*
X128006547Y-67388333D01*
X128054166Y-67293095D01*
X128054166Y-67197857D01*
X128006547Y-67102619D01*
X127958928Y-67055000D01*
X127863690Y-67007380D01*
X127625595Y-67007380D01*
X127482738Y-67055000D01*
X126863690Y-67007380D02*
X126673214Y-67007380D01*
X126577976Y-67055000D01*
X126482738Y-67150238D01*
X126435119Y-67340714D01*
X126435119Y-67674047D01*
X126482738Y-67864523D01*
X126577976Y-67959761D01*
X126673214Y-68007380D01*
X126863690Y-68007380D01*
X126958928Y-67959761D01*
X127054166Y-67864523D01*
X127101785Y-67674047D01*
X127101785Y-67340714D01*
X127054166Y-67150238D01*
X126958928Y-67055000D01*
X126863690Y-67007380D01*
X125530357Y-68007380D02*
X126006547Y-68007380D01*
X126006547Y-67007380D01*
X125244642Y-67721666D02*
X124768452Y-67721666D01*
X125339880Y-68007380D02*
X125006547Y-67007380D01*
X124673214Y-68007380D01*
X123768452Y-68007380D02*
X124101785Y-67531190D01*
X124339880Y-68007380D02*
X124339880Y-67007380D01*
X123958928Y-67007380D01*
X123863690Y-67055000D01*
X123816071Y-67102619D01*
X123768452Y-67197857D01*
X123768452Y-67340714D01*
X123816071Y-67435952D01*
X123863690Y-67483571D01*
X123958928Y-67531190D01*
X124339880Y-67531190D01*
X123339880Y-67912142D02*
X123292261Y-67959761D01*
X123339880Y-68007380D01*
X123387500Y-67959761D01*
X123339880Y-67912142D01*
X123339880Y-68007380D01*
X123339880Y-67388333D02*
X123292261Y-67435952D01*
X123339880Y-67483571D01*
X123387500Y-67435952D01*
X123339880Y-67388333D01*
X123339880Y-67483571D01*
X121911309Y-67531190D02*
X121911309Y-68007380D01*
X122244642Y-67007380D02*
X121911309Y-67531190D01*
X121577976Y-67007380D01*
X121244642Y-67483571D02*
X120911309Y-67483571D01*
X120768452Y-68007380D02*
X121244642Y-68007380D01*
X121244642Y-67007380D01*
X120768452Y-67007380D01*
X120387500Y-67721666D02*
X119911309Y-67721666D01*
X120482738Y-68007380D02*
X120149404Y-67007380D01*
X119816071Y-68007380D01*
X118911309Y-68007380D02*
X119244642Y-67531190D01*
X119482738Y-68007380D02*
X119482738Y-67007380D01*
X119101785Y-67007380D01*
X119006547Y-67055000D01*
X118958928Y-67102619D01*
X118911309Y-67197857D01*
X118911309Y-67340714D01*
X118958928Y-67435952D01*
X119006547Y-67483571D01*
X119101785Y-67531190D01*
X119482738Y-67531190D01*
X118006547Y-68007380D02*
X118482738Y-68007380D01*
X118482738Y-67007380D01*
X117673214Y-68007380D02*
X117673214Y-67007380D01*
X117197023Y-68007380D02*
X117197023Y-67007380D01*
X116625595Y-68007380D01*
X116625595Y-67007380D01*
X115625595Y-67055000D02*
X115720833Y-67007380D01*
X115863690Y-67007380D01*
X116006547Y-67055000D01*
X116101785Y-67150238D01*
X116149404Y-67245476D01*
X116197023Y-67435952D01*
X116197023Y-67578809D01*
X116149404Y-67769285D01*
X116101785Y-67864523D01*
X116006547Y-67959761D01*
X115863690Y-68007380D01*
X115768452Y-68007380D01*
X115625595Y-67959761D01*
X115577976Y-67912142D01*
X115577976Y-67578809D01*
X115768452Y-67578809D01*
X114387500Y-68007380D02*
X114387500Y-67007380D01*
X113816071Y-68007380D02*
X114244642Y-67435952D01*
X113816071Y-67007380D02*
X114387500Y-67578809D01*
X113387500Y-68007380D02*
X113387500Y-67007380D01*
X113054166Y-67007380D02*
X112482738Y-67007380D01*
X112768452Y-68007380D02*
X112768452Y-67007380D01*
X137435119Y-69331666D02*
X136958928Y-69331666D01*
X137530357Y-69617380D02*
X137197023Y-68617380D01*
X136863690Y-69617380D01*
X136530357Y-69617380D02*
X136530357Y-68617380D01*
X136197023Y-69331666D01*
X135863690Y-68617380D01*
X135863690Y-69617380D01*
X135435119Y-69331666D02*
X134958928Y-69331666D01*
X135530357Y-69617380D02*
X135197023Y-68617380D01*
X134863690Y-69617380D01*
X134530357Y-69617380D02*
X134530357Y-68617380D01*
X133958928Y-69617380D01*
X133958928Y-68617380D01*
X133482738Y-69617380D02*
X133482738Y-68617380D01*
X133244642Y-68617380D01*
X133101785Y-68665000D01*
X133006547Y-68760238D01*
X132958928Y-68855476D01*
X132911309Y-69045952D01*
X132911309Y-69188809D01*
X132958928Y-69379285D01*
X133006547Y-69474523D01*
X133101785Y-69569761D01*
X133244642Y-69617380D01*
X133482738Y-69617380D01*
X132530357Y-69331666D02*
X132054166Y-69331666D01*
X132625595Y-69617380D02*
X132292261Y-68617380D01*
X131958928Y-69617380D01*
X130863690Y-69093571D02*
X130530357Y-69093571D01*
X130387500Y-69617380D02*
X130863690Y-69617380D01*
X130863690Y-68617380D01*
X130387500Y-68617380D01*
X130054166Y-68617380D02*
X129816071Y-69617380D01*
X129625595Y-68903095D01*
X129435119Y-69617380D01*
X129197023Y-68617380D01*
X128816071Y-69617380D02*
X128816071Y-68617380D01*
X128339880Y-69617380D02*
X128339880Y-68617380D01*
X127768452Y-69617380D01*
X127768452Y-68617380D01*
X126768452Y-68665000D02*
X126863690Y-68617380D01*
X127006547Y-68617380D01*
X127149404Y-68665000D01*
X127244642Y-68760238D01*
X127292261Y-68855476D01*
X127339880Y-69045952D01*
X127339880Y-69188809D01*
X127292261Y-69379285D01*
X127244642Y-69474523D01*
X127149404Y-69569761D01*
X127006547Y-69617380D01*
X126911309Y-69617380D01*
X126768452Y-69569761D01*
X126720833Y-69522142D01*
X126720833Y-69188809D01*
X126911309Y-69188809D01*
X126244642Y-69569761D02*
X126244642Y-69617380D01*
X126292261Y-69712619D01*
X126339880Y-69760238D01*
X125054166Y-69617380D02*
X125054166Y-68617380D01*
X124482738Y-69617380D01*
X124482738Y-68617380D01*
X124006547Y-69617380D02*
X124006547Y-68617380D01*
X122958928Y-69522142D02*
X123006547Y-69569761D01*
X123149404Y-69617380D01*
X123244642Y-69617380D01*
X123387500Y-69569761D01*
X123482738Y-69474523D01*
X123530357Y-69379285D01*
X123577976Y-69188809D01*
X123577976Y-69045952D01*
X123530357Y-68855476D01*
X123482738Y-68760238D01*
X123387500Y-68665000D01*
X123244642Y-68617380D01*
X123149404Y-68617380D01*
X123006547Y-68665000D01*
X122958928Y-68712619D01*
X122339880Y-68617380D02*
X122149404Y-68617380D01*
X122054166Y-68665000D01*
X121958928Y-68760238D01*
X121911309Y-68950714D01*
X121911309Y-69284047D01*
X121958928Y-69474523D01*
X122054166Y-69569761D01*
X122149404Y-69617380D01*
X122339880Y-69617380D01*
X122435119Y-69569761D01*
X122530357Y-69474523D01*
X122577976Y-69284047D01*
X122577976Y-68950714D01*
X122530357Y-68760238D01*
X122435119Y-68665000D01*
X122339880Y-68617380D01*
X121006547Y-69617380D02*
X121482738Y-69617380D01*
X121482738Y-68617380D01*
X120673214Y-69093571D02*
X120339880Y-69093571D01*
X120197023Y-69617380D02*
X120673214Y-69617380D01*
X120673214Y-68617380D01*
X120197023Y-68617380D01*
X119006547Y-69617380D02*
X119006547Y-68617380D01*
X118673214Y-69331666D01*
X118339880Y-68617380D01*
X118339880Y-69617380D01*
X117911309Y-69331666D02*
X117435119Y-69331666D01*
X118006547Y-69617380D02*
X117673214Y-68617380D01*
X117339880Y-69617380D01*
X116482738Y-68665000D02*
X116577976Y-68617380D01*
X116720833Y-68617380D01*
X116863690Y-68665000D01*
X116958928Y-68760238D01*
X117006547Y-68855476D01*
X117054166Y-69045952D01*
X117054166Y-69188809D01*
X117006547Y-69379285D01*
X116958928Y-69474523D01*
X116863690Y-69569761D01*
X116720833Y-69617380D01*
X116625595Y-69617380D01*
X116482738Y-69569761D01*
X116435119Y-69522142D01*
X116435119Y-69188809D01*
X116625595Y-69188809D01*
X115482738Y-68665000D02*
X115577976Y-68617380D01*
X115720833Y-68617380D01*
X115863690Y-68665000D01*
X115958928Y-68760238D01*
X116006547Y-68855476D01*
X116054166Y-69045952D01*
X116054166Y-69188809D01*
X116006547Y-69379285D01*
X115958928Y-69474523D01*
X115863690Y-69569761D01*
X115720833Y-69617380D01*
X115625595Y-69617380D01*
X115482738Y-69569761D01*
X115435119Y-69522142D01*
X115435119Y-69188809D01*
X115625595Y-69188809D01*
X115054166Y-69331666D02*
X114577976Y-69331666D01*
X115149404Y-69617380D02*
X114816071Y-68617380D01*
X114482738Y-69617380D01*
X113577976Y-69617380D02*
X113911309Y-69141190D01*
X114149404Y-69617380D02*
X114149404Y-68617380D01*
X113768452Y-68617380D01*
X113673214Y-68665000D01*
X113625595Y-68712619D01*
X113577976Y-68807857D01*
X113577976Y-68950714D01*
X113625595Y-69045952D01*
X113673214Y-69093571D01*
X113768452Y-69141190D01*
X114149404Y-69141190D01*
X113149404Y-69617380D02*
X113149404Y-68617380D01*
X112911309Y-68617380D01*
X112768452Y-68665000D01*
X112673214Y-68760238D01*
X112625595Y-68855476D01*
X112577976Y-69045952D01*
X112577976Y-69188809D01*
X112625595Y-69379285D01*
X112673214Y-69474523D01*
X112768452Y-69569761D01*
X112911309Y-69617380D01*
X113149404Y-69617380D01*
X128300000Y-117601904D02*
X128347619Y-117697142D01*
X128347619Y-117840000D01*
X128300000Y-117982857D01*
X128204761Y-118078095D01*
X128109523Y-118125714D01*
X127919047Y-118173333D01*
X127776190Y-118173333D01*
X127585714Y-118125714D01*
X127490476Y-118078095D01*
X127395238Y-117982857D01*
X127347619Y-117840000D01*
X127347619Y-117744761D01*
X127395238Y-117601904D01*
X127442857Y-117554285D01*
X127776190Y-117554285D01*
X127776190Y-117744761D01*
X127347619Y-117125714D02*
X128347619Y-117125714D01*
X127347619Y-116554285D01*
X128347619Y-116554285D01*
X127347619Y-116078095D02*
X128347619Y-116078095D01*
X128347619Y-115840000D01*
X128300000Y-115697142D01*
X128204761Y-115601904D01*
X128109523Y-115554285D01*
X127919047Y-115506666D01*
X127776190Y-115506666D01*
X127585714Y-115554285D01*
X127490476Y-115601904D01*
X127395238Y-115697142D01*
X127347619Y-115840000D01*
X127347619Y-116078095D01*
X126787619Y-118188095D02*
X126787619Y-117569047D01*
X126406666Y-117902380D01*
X126406666Y-117759523D01*
X126359047Y-117664285D01*
X126311428Y-117616666D01*
X126216190Y-117569047D01*
X125978095Y-117569047D01*
X125882857Y-117616666D01*
X125835238Y-117664285D01*
X125787619Y-117759523D01*
X125787619Y-118045238D01*
X125835238Y-118140476D01*
X125882857Y-118188095D01*
X126787619Y-117283333D02*
X125787619Y-116950000D01*
X126787619Y-116616666D01*
X126787619Y-116378571D02*
X126787619Y-115759523D01*
X126406666Y-116092857D01*
X126406666Y-115950000D01*
X126359047Y-115854761D01*
X126311428Y-115807142D01*
X126216190Y-115759523D01*
X125978095Y-115759523D01*
X125882857Y-115807142D01*
X125835238Y-115854761D01*
X125787619Y-115950000D01*
X125787619Y-116235714D01*
X125835238Y-116330952D01*
X125882857Y-116378571D01*
X122925238Y-118184285D02*
X122877619Y-118041428D01*
X122877619Y-117803333D01*
X122925238Y-117708095D01*
X122972857Y-117660476D01*
X123068095Y-117612857D01*
X123163333Y-117612857D01*
X123258571Y-117660476D01*
X123306190Y-117708095D01*
X123353809Y-117803333D01*
X123401428Y-117993809D01*
X123449047Y-118089047D01*
X123496666Y-118136666D01*
X123591904Y-118184285D01*
X123687142Y-118184285D01*
X123782380Y-118136666D01*
X123830000Y-118089047D01*
X123877619Y-117993809D01*
X123877619Y-117755714D01*
X123830000Y-117612857D01*
X122877619Y-117184285D02*
X123877619Y-117184285D01*
X123877619Y-116946190D01*
X123830000Y-116803333D01*
X123734761Y-116708095D01*
X123639523Y-116660476D01*
X123449047Y-116612857D01*
X123306190Y-116612857D01*
X123115714Y-116660476D01*
X123020476Y-116708095D01*
X122925238Y-116803333D01*
X122877619Y-116946190D01*
X122877619Y-117184285D01*
X123163333Y-116231904D02*
X123163333Y-115755714D01*
X122877619Y-116327142D02*
X123877619Y-115993809D01*
X122877619Y-115660476D01*
X124405238Y-118160476D02*
X124357619Y-118017619D01*
X124357619Y-117779523D01*
X124405238Y-117684285D01*
X124452857Y-117636666D01*
X124548095Y-117589047D01*
X124643333Y-117589047D01*
X124738571Y-117636666D01*
X124786190Y-117684285D01*
X124833809Y-117779523D01*
X124881428Y-117970000D01*
X124929047Y-118065238D01*
X124976666Y-118112857D01*
X125071904Y-118160476D01*
X125167142Y-118160476D01*
X125262380Y-118112857D01*
X125310000Y-118065238D01*
X125357619Y-117970000D01*
X125357619Y-117731904D01*
X125310000Y-117589047D01*
X124452857Y-116589047D02*
X124405238Y-116636666D01*
X124357619Y-116779523D01*
X124357619Y-116874761D01*
X124405238Y-117017619D01*
X124500476Y-117112857D01*
X124595714Y-117160476D01*
X124786190Y-117208095D01*
X124929047Y-117208095D01*
X125119523Y-117160476D01*
X125214761Y-117112857D01*
X125310000Y-117017619D01*
X125357619Y-116874761D01*
X125357619Y-116779523D01*
X125310000Y-116636666D01*
X125262380Y-116589047D01*
X124357619Y-115684285D02*
X124357619Y-116160476D01*
X125357619Y-116160476D01*
%TO.C,J1*%
X134533333Y-121652380D02*
X134533333Y-122366666D01*
X134580952Y-122509523D01*
X134676190Y-122604761D01*
X134819047Y-122652380D01*
X134914285Y-122652380D01*
X133533333Y-122652380D02*
X134104761Y-122652380D01*
X133819047Y-122652380D02*
X133819047Y-121652380D01*
X133914285Y-121795238D01*
X134009523Y-121890476D01*
X134104761Y-121938095D01*
X123520000Y-123322380D02*
X123520000Y-123560476D01*
X123758095Y-123465238D02*
X123520000Y-123560476D01*
X123281904Y-123465238D01*
X123662857Y-123750952D02*
X123520000Y-123560476D01*
X123377142Y-123750952D01*
D11*
X132524989Y-125090000D02*
X130120041Y-125090000D01*
X132524989Y-120780040D02*
X132524989Y-125090000D01*
X125879959Y-125090000D02*
X125620040Y-125090000D01*
X127379961Y-125090000D02*
X127120039Y-125090000D01*
X118697013Y-125385000D02*
X120221013Y-124750000D01*
X128879961Y-125090000D02*
X128620041Y-125090000D01*
X121839885Y-118650000D02*
X131160116Y-118650000D01*
X120221013Y-124750000D02*
X118697013Y-124115000D01*
X124379960Y-125090000D02*
X124120040Y-125090000D01*
X122879960Y-125090000D02*
X120475012Y-125090000D01*
X118697013Y-124115000D02*
X118697013Y-125385000D01*
X120475012Y-125090000D02*
X120475012Y-120780040D01*
%TD*%
%LPC*%
D12*
%TO.C,J2*%
X106500000Y-70300000D03*
%TD*%
%TO.C,J3*%
X106500000Y-159300000D03*
%TD*%
%TO.C,J4*%
X182500000Y-70300000D03*
%TD*%
%TO.C,J5*%
X182500000Y-159300000D03*
%TD*%
D13*
%TO.C,J1*%
X123500000Y-124750000D03*
X125000000Y-124750000D03*
X126499999Y-124750000D03*
X128000001Y-124750000D03*
X129500001Y-124750000D03*
D14*
X120895001Y-119560000D03*
X132104999Y-119560000D03*
%TD*%
M02*
