M48
; DRILL file {KiCad 8.0.2-1} date 2024-06-12T16:50:45-0700
; FORMAT={-:-/ absolute / inch / decimal}
; #@! TF.CreationDate,2024-06-12T16:50:45-07:00
; #@! TF.GenerationSoftware,Kicad,Pcbnew,8.0.2-1
; #@! TF.FileFunction,Plated,1,4,PTH
FMAT,2
INCH
; #@! TA.AperFunction,Plated,PTH,ComponentDrill
T1C0.0079
; #@! TA.AperFunction,Plated,PTH,ViaDrill
T2C0.0157
; #@! TA.AperFunction,Plated,PTH,ComponentDrill
T3C0.1161
%
G90
G05
T1
X6.0591Y-4.4791
X6.0591Y-4.5303
X6.1024Y-4.4791
X6.1024Y-4.5303
T2
X4.7685Y-6.1504
X4.8878Y-4.5846
X4.8925Y-4.6457
X4.9016Y-4.9685
X4.9843Y-4.1063
X5.0614Y-4.7823
X5.0642Y-4.8437
X5.1988Y-4.1106
X5.4321Y-4.4459
X5.4843Y-4.1106
X5.687Y-6.1516
X5.7886Y-4.6657
X5.8927Y-4.4134
X5.9051Y-4.5665
X5.9203Y-4.4833
X5.9602Y-4.6236
X6.1122Y-4.4478
X6.2205Y-4.311
X6.2783Y-4.572
X6.3287Y-4.5079
X6.3709Y-4.4626
X6.3736Y-4.5406
X6.3882Y-4.3925
X6.4764Y-4.3307
X6.4882Y-5.0075
X6.6142Y-6.1571
X6.8772Y-5.5886
X6.8858Y-3.439
T3
X4.1929Y-2.7677
X4.1929Y-6.2717
X7.185Y-2.7677
X7.185Y-6.2717
M30
