%TF.GenerationSoftware,KiCad,Pcbnew,8.0.2-1*%
%TF.CreationDate,2024-06-12T16:50:45-07:00*%
%TF.ProjectId,solar-panel-NoCutout,736f6c61-722d-4706-916e-656c2d4e6f43,3.0*%
%TF.SameCoordinates,Original*%
%TF.FileFunction,Soldermask,Bot*%
%TF.FilePolarity,Negative*%
%FSLAX46Y46*%
G04 Gerber Fmt 4.6, Leading zero omitted, Abs format (unit mm)*
G04 Created by KiCad (PCBNEW 8.0.2-1) date 2024-06-12 16:50:45*
%MOMM*%
%LPD*%
G01*
G04 APERTURE LIST*
%ADD10C,0.150000*%
%ADD11C,0.000000*%
%ADD12C,5.250000*%
%ADD13R,0.600000X1.000000*%
%ADD14R,1.250000X1.800000*%
G04 APERTURE END LIST*
D10*
X157561906Y-94526037D02*
X157419049Y-94573656D01*
X157419049Y-94573656D02*
X157371430Y-94621275D01*
X157371430Y-94621275D02*
X157323811Y-94716513D01*
X157323811Y-94716513D02*
X157323811Y-94859370D01*
X157323811Y-94859370D02*
X157371430Y-94954608D01*
X157371430Y-94954608D02*
X157419049Y-95002228D01*
X157419049Y-95002228D02*
X157514287Y-95049847D01*
X157514287Y-95049847D02*
X157895239Y-95049847D01*
X157895239Y-95049847D02*
X157895239Y-94049847D01*
X157895239Y-94049847D02*
X157561906Y-94049847D01*
X157561906Y-94049847D02*
X157466668Y-94097466D01*
X157466668Y-94097466D02*
X157419049Y-94145085D01*
X157419049Y-94145085D02*
X157371430Y-94240323D01*
X157371430Y-94240323D02*
X157371430Y-94335561D01*
X157371430Y-94335561D02*
X157419049Y-94430799D01*
X157419049Y-94430799D02*
X157466668Y-94478418D01*
X157466668Y-94478418D02*
X157561906Y-94526037D01*
X157561906Y-94526037D02*
X157895239Y-94526037D01*
X156323811Y-95049847D02*
X156657144Y-94573656D01*
X156895239Y-95049847D02*
X156895239Y-94049847D01*
X156895239Y-94049847D02*
X156514287Y-94049847D01*
X156514287Y-94049847D02*
X156419049Y-94097466D01*
X156419049Y-94097466D02*
X156371430Y-94145085D01*
X156371430Y-94145085D02*
X156323811Y-94240323D01*
X156323811Y-94240323D02*
X156323811Y-94383180D01*
X156323811Y-94383180D02*
X156371430Y-94478418D01*
X156371430Y-94478418D02*
X156419049Y-94526037D01*
X156419049Y-94526037D02*
X156514287Y-94573656D01*
X156514287Y-94573656D02*
X156895239Y-94573656D01*
X155704763Y-94049847D02*
X155514287Y-94049847D01*
X155514287Y-94049847D02*
X155419049Y-94097466D01*
X155419049Y-94097466D02*
X155323811Y-94192704D01*
X155323811Y-94192704D02*
X155276192Y-94383180D01*
X155276192Y-94383180D02*
X155276192Y-94716513D01*
X155276192Y-94716513D02*
X155323811Y-94906989D01*
X155323811Y-94906989D02*
X155419049Y-95002228D01*
X155419049Y-95002228D02*
X155514287Y-95049847D01*
X155514287Y-95049847D02*
X155704763Y-95049847D01*
X155704763Y-95049847D02*
X155800001Y-95002228D01*
X155800001Y-95002228D02*
X155895239Y-94906989D01*
X155895239Y-94906989D02*
X155942858Y-94716513D01*
X155942858Y-94716513D02*
X155942858Y-94383180D01*
X155942858Y-94383180D02*
X155895239Y-94192704D01*
X155895239Y-94192704D02*
X155800001Y-94097466D01*
X155800001Y-94097466D02*
X155704763Y-94049847D01*
X154847620Y-95049847D02*
X154847620Y-94049847D01*
X154847620Y-94049847D02*
X154276192Y-95049847D01*
X154276192Y-95049847D02*
X154276192Y-94049847D01*
X153228573Y-94954608D02*
X153276192Y-95002228D01*
X153276192Y-95002228D02*
X153419049Y-95049847D01*
X153419049Y-95049847D02*
X153514287Y-95049847D01*
X153514287Y-95049847D02*
X153657144Y-95002228D01*
X153657144Y-95002228D02*
X153752382Y-94906989D01*
X153752382Y-94906989D02*
X153800001Y-94811751D01*
X153800001Y-94811751D02*
X153847620Y-94621275D01*
X153847620Y-94621275D02*
X153847620Y-94478418D01*
X153847620Y-94478418D02*
X153800001Y-94287942D01*
X153800001Y-94287942D02*
X153752382Y-94192704D01*
X153752382Y-94192704D02*
X153657144Y-94097466D01*
X153657144Y-94097466D02*
X153514287Y-94049847D01*
X153514287Y-94049847D02*
X153419049Y-94049847D01*
X153419049Y-94049847D02*
X153276192Y-94097466D01*
X153276192Y-94097466D02*
X153228573Y-94145085D01*
X152609525Y-94049847D02*
X152419049Y-94049847D01*
X152419049Y-94049847D02*
X152323811Y-94097466D01*
X152323811Y-94097466D02*
X152228573Y-94192704D01*
X152228573Y-94192704D02*
X152180954Y-94383180D01*
X152180954Y-94383180D02*
X152180954Y-94716513D01*
X152180954Y-94716513D02*
X152228573Y-94906989D01*
X152228573Y-94906989D02*
X152323811Y-95002228D01*
X152323811Y-95002228D02*
X152419049Y-95049847D01*
X152419049Y-95049847D02*
X152609525Y-95049847D01*
X152609525Y-95049847D02*
X152704763Y-95002228D01*
X152704763Y-95002228D02*
X152800001Y-94906989D01*
X152800001Y-94906989D02*
X152847620Y-94716513D01*
X152847620Y-94716513D02*
X152847620Y-94383180D01*
X152847620Y-94383180D02*
X152800001Y-94192704D01*
X152800001Y-94192704D02*
X152704763Y-94097466D01*
X152704763Y-94097466D02*
X152609525Y-94049847D01*
X151038096Y-95002228D02*
X150895239Y-95049847D01*
X150895239Y-95049847D02*
X150657144Y-95049847D01*
X150657144Y-95049847D02*
X150561906Y-95002228D01*
X150561906Y-95002228D02*
X150514287Y-94954608D01*
X150514287Y-94954608D02*
X150466668Y-94859370D01*
X150466668Y-94859370D02*
X150466668Y-94764132D01*
X150466668Y-94764132D02*
X150514287Y-94668894D01*
X150514287Y-94668894D02*
X150561906Y-94621275D01*
X150561906Y-94621275D02*
X150657144Y-94573656D01*
X150657144Y-94573656D02*
X150847620Y-94526037D01*
X150847620Y-94526037D02*
X150942858Y-94478418D01*
X150942858Y-94478418D02*
X150990477Y-94430799D01*
X150990477Y-94430799D02*
X151038096Y-94335561D01*
X151038096Y-94335561D02*
X151038096Y-94240323D01*
X151038096Y-94240323D02*
X150990477Y-94145085D01*
X150990477Y-94145085D02*
X150942858Y-94097466D01*
X150942858Y-94097466D02*
X150847620Y-94049847D01*
X150847620Y-94049847D02*
X150609525Y-94049847D01*
X150609525Y-94049847D02*
X150466668Y-94097466D01*
X150038096Y-95049847D02*
X150038096Y-94049847D01*
X150038096Y-94049847D02*
X149657144Y-94049847D01*
X149657144Y-94049847D02*
X149561906Y-94097466D01*
X149561906Y-94097466D02*
X149514287Y-94145085D01*
X149514287Y-94145085D02*
X149466668Y-94240323D01*
X149466668Y-94240323D02*
X149466668Y-94383180D01*
X149466668Y-94383180D02*
X149514287Y-94478418D01*
X149514287Y-94478418D02*
X149561906Y-94526037D01*
X149561906Y-94526037D02*
X149657144Y-94573656D01*
X149657144Y-94573656D02*
X150038096Y-94573656D01*
X149085715Y-94764132D02*
X148609525Y-94764132D01*
X149180953Y-95049847D02*
X148847620Y-94049847D01*
X148847620Y-94049847D02*
X148514287Y-95049847D01*
X147609525Y-94954608D02*
X147657144Y-95002228D01*
X147657144Y-95002228D02*
X147800001Y-95049847D01*
X147800001Y-95049847D02*
X147895239Y-95049847D01*
X147895239Y-95049847D02*
X148038096Y-95002228D01*
X148038096Y-95002228D02*
X148133334Y-94906989D01*
X148133334Y-94906989D02*
X148180953Y-94811751D01*
X148180953Y-94811751D02*
X148228572Y-94621275D01*
X148228572Y-94621275D02*
X148228572Y-94478418D01*
X148228572Y-94478418D02*
X148180953Y-94287942D01*
X148180953Y-94287942D02*
X148133334Y-94192704D01*
X148133334Y-94192704D02*
X148038096Y-94097466D01*
X148038096Y-94097466D02*
X147895239Y-94049847D01*
X147895239Y-94049847D02*
X147800001Y-94049847D01*
X147800001Y-94049847D02*
X147657144Y-94097466D01*
X147657144Y-94097466D02*
X147609525Y-94145085D01*
X147180953Y-94526037D02*
X146847620Y-94526037D01*
X146704763Y-95049847D02*
X147180953Y-95049847D01*
X147180953Y-95049847D02*
X147180953Y-94049847D01*
X147180953Y-94049847D02*
X146704763Y-94049847D01*
X145514286Y-94526037D02*
X145180953Y-94526037D01*
X145038096Y-95049847D02*
X145514286Y-95049847D01*
X145514286Y-95049847D02*
X145514286Y-94049847D01*
X145514286Y-94049847D02*
X145038096Y-94049847D01*
X144180953Y-95049847D02*
X144180953Y-94049847D01*
X144180953Y-95002228D02*
X144276191Y-95049847D01*
X144276191Y-95049847D02*
X144466667Y-95049847D01*
X144466667Y-95049847D02*
X144561905Y-95002228D01*
X144561905Y-95002228D02*
X144609524Y-94954608D01*
X144609524Y-94954608D02*
X144657143Y-94859370D01*
X144657143Y-94859370D02*
X144657143Y-94573656D01*
X144657143Y-94573656D02*
X144609524Y-94478418D01*
X144609524Y-94478418D02*
X144561905Y-94430799D01*
X144561905Y-94430799D02*
X144466667Y-94383180D01*
X144466667Y-94383180D02*
X144276191Y-94383180D01*
X144276191Y-94383180D02*
X144180953Y-94430799D01*
X143276191Y-94383180D02*
X143276191Y-95049847D01*
X143704762Y-94383180D02*
X143704762Y-94906989D01*
X143704762Y-94906989D02*
X143657143Y-95002228D01*
X143657143Y-95002228D02*
X143561905Y-95049847D01*
X143561905Y-95049847D02*
X143419048Y-95049847D01*
X143419048Y-95049847D02*
X143323810Y-95002228D01*
X143323810Y-95002228D02*
X143276191Y-94954608D01*
X142371429Y-95002228D02*
X142466667Y-95049847D01*
X142466667Y-95049847D02*
X142657143Y-95049847D01*
X142657143Y-95049847D02*
X142752381Y-95002228D01*
X142752381Y-95002228D02*
X142800000Y-94954608D01*
X142800000Y-94954608D02*
X142847619Y-94859370D01*
X142847619Y-94859370D02*
X142847619Y-94573656D01*
X142847619Y-94573656D02*
X142800000Y-94478418D01*
X142800000Y-94478418D02*
X142752381Y-94430799D01*
X142752381Y-94430799D02*
X142657143Y-94383180D01*
X142657143Y-94383180D02*
X142466667Y-94383180D01*
X142466667Y-94383180D02*
X142371429Y-94430799D01*
X141514286Y-95049847D02*
X141514286Y-94526037D01*
X141514286Y-94526037D02*
X141561905Y-94430799D01*
X141561905Y-94430799D02*
X141657143Y-94383180D01*
X141657143Y-94383180D02*
X141847619Y-94383180D01*
X141847619Y-94383180D02*
X141942857Y-94430799D01*
X141514286Y-95002228D02*
X141609524Y-95049847D01*
X141609524Y-95049847D02*
X141847619Y-95049847D01*
X141847619Y-95049847D02*
X141942857Y-95002228D01*
X141942857Y-95002228D02*
X141990476Y-94906989D01*
X141990476Y-94906989D02*
X141990476Y-94811751D01*
X141990476Y-94811751D02*
X141942857Y-94716513D01*
X141942857Y-94716513D02*
X141847619Y-94668894D01*
X141847619Y-94668894D02*
X141609524Y-94668894D01*
X141609524Y-94668894D02*
X141514286Y-94621275D01*
X141180952Y-94383180D02*
X140800000Y-94383180D01*
X141038095Y-94049847D02*
X141038095Y-94906989D01*
X141038095Y-94906989D02*
X140990476Y-95002228D01*
X140990476Y-95002228D02*
X140895238Y-95049847D01*
X140895238Y-95049847D02*
X140800000Y-95049847D01*
X140466666Y-95049847D02*
X140466666Y-94383180D01*
X140466666Y-94049847D02*
X140514285Y-94097466D01*
X140514285Y-94097466D02*
X140466666Y-94145085D01*
X140466666Y-94145085D02*
X140419047Y-94097466D01*
X140419047Y-94097466D02*
X140466666Y-94049847D01*
X140466666Y-94049847D02*
X140466666Y-94145085D01*
X139847619Y-95049847D02*
X139942857Y-95002228D01*
X139942857Y-95002228D02*
X139990476Y-94954608D01*
X139990476Y-94954608D02*
X140038095Y-94859370D01*
X140038095Y-94859370D02*
X140038095Y-94573656D01*
X140038095Y-94573656D02*
X139990476Y-94478418D01*
X139990476Y-94478418D02*
X139942857Y-94430799D01*
X139942857Y-94430799D02*
X139847619Y-94383180D01*
X139847619Y-94383180D02*
X139704762Y-94383180D01*
X139704762Y-94383180D02*
X139609524Y-94430799D01*
X139609524Y-94430799D02*
X139561905Y-94478418D01*
X139561905Y-94478418D02*
X139514286Y-94573656D01*
X139514286Y-94573656D02*
X139514286Y-94859370D01*
X139514286Y-94859370D02*
X139561905Y-94954608D01*
X139561905Y-94954608D02*
X139609524Y-95002228D01*
X139609524Y-95002228D02*
X139704762Y-95049847D01*
X139704762Y-95049847D02*
X139847619Y-95049847D01*
X139085714Y-94383180D02*
X139085714Y-95049847D01*
X139085714Y-94478418D02*
X139038095Y-94430799D01*
X139038095Y-94430799D02*
X138942857Y-94383180D01*
X138942857Y-94383180D02*
X138800000Y-94383180D01*
X138800000Y-94383180D02*
X138704762Y-94430799D01*
X138704762Y-94430799D02*
X138657143Y-94526037D01*
X138657143Y-94526037D02*
X138657143Y-95049847D01*
X137752381Y-95049847D02*
X137752381Y-94526037D01*
X137752381Y-94526037D02*
X137800000Y-94430799D01*
X137800000Y-94430799D02*
X137895238Y-94383180D01*
X137895238Y-94383180D02*
X138085714Y-94383180D01*
X138085714Y-94383180D02*
X138180952Y-94430799D01*
X137752381Y-95002228D02*
X137847619Y-95049847D01*
X137847619Y-95049847D02*
X138085714Y-95049847D01*
X138085714Y-95049847D02*
X138180952Y-95002228D01*
X138180952Y-95002228D02*
X138228571Y-94906989D01*
X138228571Y-94906989D02*
X138228571Y-94811751D01*
X138228571Y-94811751D02*
X138180952Y-94716513D01*
X138180952Y-94716513D02*
X138085714Y-94668894D01*
X138085714Y-94668894D02*
X137847619Y-94668894D01*
X137847619Y-94668894D02*
X137752381Y-94621275D01*
X137133333Y-95049847D02*
X137228571Y-95002228D01*
X137228571Y-95002228D02*
X137276190Y-94906989D01*
X137276190Y-94906989D02*
X137276190Y-94049847D01*
X135990475Y-95049847D02*
X135990475Y-94049847D01*
X135990475Y-94049847D02*
X135609523Y-94049847D01*
X135609523Y-94049847D02*
X135514285Y-94097466D01*
X135514285Y-94097466D02*
X135466666Y-94145085D01*
X135466666Y-94145085D02*
X135419047Y-94240323D01*
X135419047Y-94240323D02*
X135419047Y-94383180D01*
X135419047Y-94383180D02*
X135466666Y-94478418D01*
X135466666Y-94478418D02*
X135514285Y-94526037D01*
X135514285Y-94526037D02*
X135609523Y-94573656D01*
X135609523Y-94573656D02*
X135990475Y-94573656D01*
X134990475Y-95049847D02*
X134990475Y-94383180D01*
X134990475Y-94573656D02*
X134942856Y-94478418D01*
X134942856Y-94478418D02*
X134895237Y-94430799D01*
X134895237Y-94430799D02*
X134799999Y-94383180D01*
X134799999Y-94383180D02*
X134704761Y-94383180D01*
X134228570Y-95049847D02*
X134323808Y-95002228D01*
X134323808Y-95002228D02*
X134371427Y-94954608D01*
X134371427Y-94954608D02*
X134419046Y-94859370D01*
X134419046Y-94859370D02*
X134419046Y-94573656D01*
X134419046Y-94573656D02*
X134371427Y-94478418D01*
X134371427Y-94478418D02*
X134323808Y-94430799D01*
X134323808Y-94430799D02*
X134228570Y-94383180D01*
X134228570Y-94383180D02*
X134085713Y-94383180D01*
X134085713Y-94383180D02*
X133990475Y-94430799D01*
X133990475Y-94430799D02*
X133942856Y-94478418D01*
X133942856Y-94478418D02*
X133895237Y-94573656D01*
X133895237Y-94573656D02*
X133895237Y-94859370D01*
X133895237Y-94859370D02*
X133942856Y-94954608D01*
X133942856Y-94954608D02*
X133990475Y-95002228D01*
X133990475Y-95002228D02*
X134085713Y-95049847D01*
X134085713Y-95049847D02*
X134228570Y-95049847D01*
X133038094Y-95049847D02*
X133038094Y-94049847D01*
X133038094Y-95002228D02*
X133133332Y-95049847D01*
X133133332Y-95049847D02*
X133323808Y-95049847D01*
X133323808Y-95049847D02*
X133419046Y-95002228D01*
X133419046Y-95002228D02*
X133466665Y-94954608D01*
X133466665Y-94954608D02*
X133514284Y-94859370D01*
X133514284Y-94859370D02*
X133514284Y-94573656D01*
X133514284Y-94573656D02*
X133466665Y-94478418D01*
X133466665Y-94478418D02*
X133419046Y-94430799D01*
X133419046Y-94430799D02*
X133323808Y-94383180D01*
X133323808Y-94383180D02*
X133133332Y-94383180D01*
X133133332Y-94383180D02*
X133038094Y-94430799D01*
X132133332Y-94383180D02*
X132133332Y-95049847D01*
X132561903Y-94383180D02*
X132561903Y-94906989D01*
X132561903Y-94906989D02*
X132514284Y-95002228D01*
X132514284Y-95002228D02*
X132419046Y-95049847D01*
X132419046Y-95049847D02*
X132276189Y-95049847D01*
X132276189Y-95049847D02*
X132180951Y-95002228D01*
X132180951Y-95002228D02*
X132133332Y-94954608D01*
X131228570Y-95002228D02*
X131323808Y-95049847D01*
X131323808Y-95049847D02*
X131514284Y-95049847D01*
X131514284Y-95049847D02*
X131609522Y-95002228D01*
X131609522Y-95002228D02*
X131657141Y-94954608D01*
X131657141Y-94954608D02*
X131704760Y-94859370D01*
X131704760Y-94859370D02*
X131704760Y-94573656D01*
X131704760Y-94573656D02*
X131657141Y-94478418D01*
X131657141Y-94478418D02*
X131609522Y-94430799D01*
X131609522Y-94430799D02*
X131514284Y-94383180D01*
X131514284Y-94383180D02*
X131323808Y-94383180D01*
X131323808Y-94383180D02*
X131228570Y-94430799D01*
X130942855Y-94383180D02*
X130561903Y-94383180D01*
X130799998Y-94049847D02*
X130799998Y-94906989D01*
X130799998Y-94906989D02*
X130752379Y-95002228D01*
X130752379Y-95002228D02*
X130657141Y-95049847D01*
X130657141Y-95049847D02*
X130561903Y-95049847D01*
X153752382Y-96135981D02*
X154085715Y-96135981D01*
X154085715Y-96659791D02*
X154085715Y-95659791D01*
X154085715Y-95659791D02*
X153609525Y-95659791D01*
X153085715Y-96659791D02*
X153180953Y-96612172D01*
X153180953Y-96612172D02*
X153228572Y-96564552D01*
X153228572Y-96564552D02*
X153276191Y-96469314D01*
X153276191Y-96469314D02*
X153276191Y-96183600D01*
X153276191Y-96183600D02*
X153228572Y-96088362D01*
X153228572Y-96088362D02*
X153180953Y-96040743D01*
X153180953Y-96040743D02*
X153085715Y-95993124D01*
X153085715Y-95993124D02*
X152942858Y-95993124D01*
X152942858Y-95993124D02*
X152847620Y-96040743D01*
X152847620Y-96040743D02*
X152800001Y-96088362D01*
X152800001Y-96088362D02*
X152752382Y-96183600D01*
X152752382Y-96183600D02*
X152752382Y-96469314D01*
X152752382Y-96469314D02*
X152800001Y-96564552D01*
X152800001Y-96564552D02*
X152847620Y-96612172D01*
X152847620Y-96612172D02*
X152942858Y-96659791D01*
X152942858Y-96659791D02*
X153085715Y-96659791D01*
X152323810Y-96659791D02*
X152323810Y-95993124D01*
X152323810Y-96183600D02*
X152276191Y-96088362D01*
X152276191Y-96088362D02*
X152228572Y-96040743D01*
X152228572Y-96040743D02*
X152133334Y-95993124D01*
X152133334Y-95993124D02*
X152038096Y-95993124D01*
X150942857Y-96659791D02*
X150942857Y-95659791D01*
X150466667Y-95993124D02*
X150466667Y-96659791D01*
X150466667Y-96088362D02*
X150419048Y-96040743D01*
X150419048Y-96040743D02*
X150323810Y-95993124D01*
X150323810Y-95993124D02*
X150180953Y-95993124D01*
X150180953Y-95993124D02*
X150085715Y-96040743D01*
X150085715Y-96040743D02*
X150038096Y-96135981D01*
X150038096Y-96135981D02*
X150038096Y-96659791D01*
X149609524Y-96612172D02*
X149514286Y-96659791D01*
X149514286Y-96659791D02*
X149323810Y-96659791D01*
X149323810Y-96659791D02*
X149228572Y-96612172D01*
X149228572Y-96612172D02*
X149180953Y-96516933D01*
X149180953Y-96516933D02*
X149180953Y-96469314D01*
X149180953Y-96469314D02*
X149228572Y-96374076D01*
X149228572Y-96374076D02*
X149323810Y-96326457D01*
X149323810Y-96326457D02*
X149466667Y-96326457D01*
X149466667Y-96326457D02*
X149561905Y-96278838D01*
X149561905Y-96278838D02*
X149609524Y-96183600D01*
X149609524Y-96183600D02*
X149609524Y-96135981D01*
X149609524Y-96135981D02*
X149561905Y-96040743D01*
X149561905Y-96040743D02*
X149466667Y-95993124D01*
X149466667Y-95993124D02*
X149323810Y-95993124D01*
X149323810Y-95993124D02*
X149228572Y-96040743D01*
X148895238Y-95993124D02*
X148514286Y-95993124D01*
X148752381Y-95659791D02*
X148752381Y-96516933D01*
X148752381Y-96516933D02*
X148704762Y-96612172D01*
X148704762Y-96612172D02*
X148609524Y-96659791D01*
X148609524Y-96659791D02*
X148514286Y-96659791D01*
X148180952Y-96659791D02*
X148180952Y-95993124D01*
X148180952Y-96183600D02*
X148133333Y-96088362D01*
X148133333Y-96088362D02*
X148085714Y-96040743D01*
X148085714Y-96040743D02*
X147990476Y-95993124D01*
X147990476Y-95993124D02*
X147895238Y-95993124D01*
X147133333Y-95993124D02*
X147133333Y-96659791D01*
X147561904Y-95993124D02*
X147561904Y-96516933D01*
X147561904Y-96516933D02*
X147514285Y-96612172D01*
X147514285Y-96612172D02*
X147419047Y-96659791D01*
X147419047Y-96659791D02*
X147276190Y-96659791D01*
X147276190Y-96659791D02*
X147180952Y-96612172D01*
X147180952Y-96612172D02*
X147133333Y-96564552D01*
X146228571Y-96612172D02*
X146323809Y-96659791D01*
X146323809Y-96659791D02*
X146514285Y-96659791D01*
X146514285Y-96659791D02*
X146609523Y-96612172D01*
X146609523Y-96612172D02*
X146657142Y-96564552D01*
X146657142Y-96564552D02*
X146704761Y-96469314D01*
X146704761Y-96469314D02*
X146704761Y-96183600D01*
X146704761Y-96183600D02*
X146657142Y-96088362D01*
X146657142Y-96088362D02*
X146609523Y-96040743D01*
X146609523Y-96040743D02*
X146514285Y-95993124D01*
X146514285Y-95993124D02*
X146323809Y-95993124D01*
X146323809Y-95993124D02*
X146228571Y-96040743D01*
X145942856Y-95993124D02*
X145561904Y-95993124D01*
X145799999Y-95659791D02*
X145799999Y-96516933D01*
X145799999Y-96516933D02*
X145752380Y-96612172D01*
X145752380Y-96612172D02*
X145657142Y-96659791D01*
X145657142Y-96659791D02*
X145561904Y-96659791D01*
X145228570Y-96659791D02*
X145228570Y-95993124D01*
X145228570Y-95659791D02*
X145276189Y-95707410D01*
X145276189Y-95707410D02*
X145228570Y-95755029D01*
X145228570Y-95755029D02*
X145180951Y-95707410D01*
X145180951Y-95707410D02*
X145228570Y-95659791D01*
X145228570Y-95659791D02*
X145228570Y-95755029D01*
X144609523Y-96659791D02*
X144704761Y-96612172D01*
X144704761Y-96612172D02*
X144752380Y-96564552D01*
X144752380Y-96564552D02*
X144799999Y-96469314D01*
X144799999Y-96469314D02*
X144799999Y-96183600D01*
X144799999Y-96183600D02*
X144752380Y-96088362D01*
X144752380Y-96088362D02*
X144704761Y-96040743D01*
X144704761Y-96040743D02*
X144609523Y-95993124D01*
X144609523Y-95993124D02*
X144466666Y-95993124D01*
X144466666Y-95993124D02*
X144371428Y-96040743D01*
X144371428Y-96040743D02*
X144323809Y-96088362D01*
X144323809Y-96088362D02*
X144276190Y-96183600D01*
X144276190Y-96183600D02*
X144276190Y-96469314D01*
X144276190Y-96469314D02*
X144323809Y-96564552D01*
X144323809Y-96564552D02*
X144371428Y-96612172D01*
X144371428Y-96612172D02*
X144466666Y-96659791D01*
X144466666Y-96659791D02*
X144609523Y-96659791D01*
X143847618Y-95993124D02*
X143847618Y-96659791D01*
X143847618Y-96088362D02*
X143799999Y-96040743D01*
X143799999Y-96040743D02*
X143704761Y-95993124D01*
X143704761Y-95993124D02*
X143561904Y-95993124D01*
X143561904Y-95993124D02*
X143466666Y-96040743D01*
X143466666Y-96040743D02*
X143419047Y-96135981D01*
X143419047Y-96135981D02*
X143419047Y-96659791D01*
X142514285Y-96659791D02*
X142514285Y-96135981D01*
X142514285Y-96135981D02*
X142561904Y-96040743D01*
X142561904Y-96040743D02*
X142657142Y-95993124D01*
X142657142Y-95993124D02*
X142847618Y-95993124D01*
X142847618Y-95993124D02*
X142942856Y-96040743D01*
X142514285Y-96612172D02*
X142609523Y-96659791D01*
X142609523Y-96659791D02*
X142847618Y-96659791D01*
X142847618Y-96659791D02*
X142942856Y-96612172D01*
X142942856Y-96612172D02*
X142990475Y-96516933D01*
X142990475Y-96516933D02*
X142990475Y-96421695D01*
X142990475Y-96421695D02*
X142942856Y-96326457D01*
X142942856Y-96326457D02*
X142847618Y-96278838D01*
X142847618Y-96278838D02*
X142609523Y-96278838D01*
X142609523Y-96278838D02*
X142514285Y-96231219D01*
X141895237Y-96659791D02*
X141990475Y-96612172D01*
X141990475Y-96612172D02*
X142038094Y-96516933D01*
X142038094Y-96516933D02*
X142038094Y-95659791D01*
X140752379Y-95659791D02*
X140752379Y-96469314D01*
X140752379Y-96469314D02*
X140704760Y-96564552D01*
X140704760Y-96564552D02*
X140657141Y-96612172D01*
X140657141Y-96612172D02*
X140561903Y-96659791D01*
X140561903Y-96659791D02*
X140371427Y-96659791D01*
X140371427Y-96659791D02*
X140276189Y-96612172D01*
X140276189Y-96612172D02*
X140228570Y-96564552D01*
X140228570Y-96564552D02*
X140180951Y-96469314D01*
X140180951Y-96469314D02*
X140180951Y-95659791D01*
X139752379Y-96612172D02*
X139657141Y-96659791D01*
X139657141Y-96659791D02*
X139466665Y-96659791D01*
X139466665Y-96659791D02*
X139371427Y-96612172D01*
X139371427Y-96612172D02*
X139323808Y-96516933D01*
X139323808Y-96516933D02*
X139323808Y-96469314D01*
X139323808Y-96469314D02*
X139371427Y-96374076D01*
X139371427Y-96374076D02*
X139466665Y-96326457D01*
X139466665Y-96326457D02*
X139609522Y-96326457D01*
X139609522Y-96326457D02*
X139704760Y-96278838D01*
X139704760Y-96278838D02*
X139752379Y-96183600D01*
X139752379Y-96183600D02*
X139752379Y-96135981D01*
X139752379Y-96135981D02*
X139704760Y-96040743D01*
X139704760Y-96040743D02*
X139609522Y-95993124D01*
X139609522Y-95993124D02*
X139466665Y-95993124D01*
X139466665Y-95993124D02*
X139371427Y-96040743D01*
X138514284Y-96612172D02*
X138609522Y-96659791D01*
X138609522Y-96659791D02*
X138799998Y-96659791D01*
X138799998Y-96659791D02*
X138895236Y-96612172D01*
X138895236Y-96612172D02*
X138942855Y-96516933D01*
X138942855Y-96516933D02*
X138942855Y-96135981D01*
X138942855Y-96135981D02*
X138895236Y-96040743D01*
X138895236Y-96040743D02*
X138799998Y-95993124D01*
X138799998Y-95993124D02*
X138609522Y-95993124D01*
X138609522Y-95993124D02*
X138514284Y-96040743D01*
X138514284Y-96040743D02*
X138466665Y-96135981D01*
X138466665Y-96135981D02*
X138466665Y-96231219D01*
X138466665Y-96231219D02*
X138942855Y-96326457D01*
X137085712Y-95659791D02*
X136895236Y-95659791D01*
X136895236Y-95659791D02*
X136799998Y-95707410D01*
X136799998Y-95707410D02*
X136704760Y-95802648D01*
X136704760Y-95802648D02*
X136657141Y-95993124D01*
X136657141Y-95993124D02*
X136657141Y-96326457D01*
X136657141Y-96326457D02*
X136704760Y-96516933D01*
X136704760Y-96516933D02*
X136799998Y-96612172D01*
X136799998Y-96612172D02*
X136895236Y-96659791D01*
X136895236Y-96659791D02*
X137085712Y-96659791D01*
X137085712Y-96659791D02*
X137180950Y-96612172D01*
X137180950Y-96612172D02*
X137276188Y-96516933D01*
X137276188Y-96516933D02*
X137323807Y-96326457D01*
X137323807Y-96326457D02*
X137323807Y-95993124D01*
X137323807Y-95993124D02*
X137276188Y-95802648D01*
X137276188Y-95802648D02*
X137180950Y-95707410D01*
X137180950Y-95707410D02*
X137085712Y-95659791D01*
X136228569Y-95993124D02*
X136228569Y-96659791D01*
X136228569Y-96088362D02*
X136180950Y-96040743D01*
X136180950Y-96040743D02*
X136085712Y-95993124D01*
X136085712Y-95993124D02*
X135942855Y-95993124D01*
X135942855Y-95993124D02*
X135847617Y-96040743D01*
X135847617Y-96040743D02*
X135799998Y-96135981D01*
X135799998Y-96135981D02*
X135799998Y-96659791D01*
X135180950Y-96659791D02*
X135276188Y-96612172D01*
X135276188Y-96612172D02*
X135323807Y-96516933D01*
X135323807Y-96516933D02*
X135323807Y-95659791D01*
X134895235Y-95993124D02*
X134657140Y-96659791D01*
X134419045Y-95993124D02*
X134657140Y-96659791D01*
X134657140Y-96659791D02*
X134752378Y-96897886D01*
X134752378Y-96897886D02*
X134799997Y-96945505D01*
X134799997Y-96945505D02*
X134895235Y-96993124D01*
D11*
%TO.C,G\u002A\u002A\u002A*%
G36*
X133804737Y-88563947D02*
G01*
X133793596Y-88575088D01*
X133782456Y-88563947D01*
X133793596Y-88552807D01*
X133804737Y-88563947D01*
G37*
G36*
X141179649Y-87472193D02*
G01*
X141168509Y-87483333D01*
X141157368Y-87472193D01*
X141168509Y-87461053D01*
X141179649Y-87472193D01*
G37*
G36*
X142494210Y-88697632D02*
G01*
X142483070Y-88708772D01*
X142471930Y-88697632D01*
X142483070Y-88686491D01*
X142494210Y-88697632D01*
G37*
G36*
X142672456Y-86647807D02*
G01*
X142661316Y-86658947D01*
X142650175Y-86647807D01*
X142661316Y-86636667D01*
X142672456Y-86647807D01*
G37*
G36*
X144922807Y-90212719D02*
G01*
X144911666Y-90223860D01*
X144900526Y-90212719D01*
X144911666Y-90201579D01*
X144922807Y-90212719D01*
G37*
G36*
X145814035Y-92908684D02*
G01*
X145802895Y-92919825D01*
X145791754Y-92908684D01*
X145802895Y-92897544D01*
X145814035Y-92908684D01*
G37*
G36*
X146125965Y-92841842D02*
G01*
X146114824Y-92852982D01*
X146103684Y-92841842D01*
X146114824Y-92830702D01*
X146125965Y-92841842D01*
G37*
G36*
X146326491Y-92017456D02*
G01*
X146315351Y-92028596D01*
X146304210Y-92017456D01*
X146315351Y-92006316D01*
X146326491Y-92017456D01*
G37*
G36*
X146371052Y-92886403D02*
G01*
X146359912Y-92897544D01*
X146348772Y-92886403D01*
X146359912Y-92875263D01*
X146371052Y-92886403D01*
G37*
G36*
X148888772Y-92841842D02*
G01*
X148877631Y-92852982D01*
X148866491Y-92841842D01*
X148877631Y-92830702D01*
X148888772Y-92841842D01*
G37*
G36*
X152854737Y-87628158D02*
G01*
X152843596Y-87639298D01*
X152832456Y-87628158D01*
X152843596Y-87617018D01*
X152854737Y-87628158D01*
G37*
G36*
X153924210Y-92128860D02*
G01*
X153913070Y-92140000D01*
X153901930Y-92128860D01*
X153913070Y-92117719D01*
X153924210Y-92128860D01*
G37*
G36*
X155194210Y-86135351D02*
G01*
X155183070Y-86146491D01*
X155171930Y-86135351D01*
X155183070Y-86124211D01*
X155194210Y-86135351D01*
G37*
G36*
X155216491Y-86269035D02*
G01*
X155205351Y-86280175D01*
X155194210Y-86269035D01*
X155205351Y-86257895D01*
X155216491Y-86269035D01*
G37*
G36*
X133775029Y-87602164D02*
G01*
X133778515Y-87608865D01*
X133760175Y-87617018D01*
X133748380Y-87615410D01*
X133745321Y-87602164D01*
X133748587Y-87599497D01*
X133775029Y-87602164D01*
G37*
G36*
X141662397Y-89317778D02*
G01*
X141665883Y-89324479D01*
X141647544Y-89332632D01*
X141635748Y-89331024D01*
X141632690Y-89317778D01*
X141635956Y-89315111D01*
X141662397Y-89317778D01*
G37*
G36*
X144837862Y-90164078D02*
G01*
X144848175Y-90172098D01*
X144824400Y-90177539D01*
X144801802Y-90175964D01*
X144795157Y-90165837D01*
X144803040Y-90161422D01*
X144837862Y-90164078D01*
G37*
G36*
X145435263Y-91337895D02*
G01*
X145433655Y-91349690D01*
X145420409Y-91352749D01*
X145417743Y-91349483D01*
X145420409Y-91323041D01*
X145427111Y-91319555D01*
X145435263Y-91337895D01*
G37*
G36*
X145516959Y-90520936D02*
G01*
X145520445Y-90527637D01*
X145502105Y-90535789D01*
X145490310Y-90534181D01*
X145487251Y-90520936D01*
X145490517Y-90518269D01*
X145516959Y-90520936D01*
G37*
G36*
X145851169Y-89874795D02*
G01*
X145854655Y-89881497D01*
X145836316Y-89889649D01*
X145824520Y-89888041D01*
X145821462Y-89874795D01*
X145824727Y-89872129D01*
X145851169Y-89874795D01*
G37*
G36*
X146442072Y-93060569D02*
G01*
X146452385Y-93068589D01*
X146428611Y-93074030D01*
X146406012Y-93072455D01*
X146399368Y-93062328D01*
X146407250Y-93057913D01*
X146442072Y-93060569D01*
G37*
G36*
X150823675Y-90758596D02*
G01*
X150820569Y-90789246D01*
X150812437Y-90786447D01*
X150809494Y-90776362D01*
X150812437Y-90730746D01*
X150820173Y-90726966D01*
X150823675Y-90758596D01*
G37*
G36*
X150894035Y-92964386D02*
G01*
X150892427Y-92976181D01*
X150879181Y-92979240D01*
X150876515Y-92975974D01*
X150879181Y-92949532D01*
X150885883Y-92946046D01*
X150894035Y-92964386D01*
G37*
G36*
X151361930Y-92652456D02*
G01*
X151360322Y-92664251D01*
X151347076Y-92667310D01*
X151344409Y-92664044D01*
X151347076Y-92637602D01*
X151353777Y-92634117D01*
X151361930Y-92652456D01*
G37*
G36*
X151532748Y-92058304D02*
G01*
X151536234Y-92065006D01*
X151517895Y-92073158D01*
X151506099Y-92071550D01*
X151503041Y-92058304D01*
X151506306Y-92055638D01*
X151532748Y-92058304D01*
G37*
G36*
X134776075Y-88839014D02*
G01*
X134769197Y-88848911D01*
X134750352Y-88864737D01*
X134747237Y-88864520D01*
X134742330Y-88851622D01*
X134766249Y-88829188D01*
X134778701Y-88823767D01*
X134776075Y-88839014D01*
G37*
G36*
X142208903Y-89604585D02*
G01*
X142226842Y-89635278D01*
X142223112Y-89652039D01*
X142200384Y-89661736D01*
X142171055Y-89639712D01*
X142167165Y-89612988D01*
X142191564Y-89600000D01*
X142208903Y-89604585D01*
G37*
G36*
X145947719Y-92729124D02*
G01*
X145947283Y-92740373D01*
X145936758Y-92762875D01*
X145915250Y-92743118D01*
X145912222Y-92735085D01*
X145925075Y-92708382D01*
X145936757Y-92706176D01*
X145947719Y-92729124D01*
G37*
G36*
X146942408Y-87828290D02*
G01*
X146960059Y-87855574D01*
X146961645Y-87859801D01*
X146966320Y-87882127D01*
X146947586Y-87868047D01*
X146934872Y-87851664D01*
X146932373Y-87828095D01*
X146942408Y-87828290D01*
G37*
G36*
X152221968Y-92725243D02*
G01*
X152226064Y-92734049D01*
X152217889Y-92766850D01*
X152203327Y-92783712D01*
X152191056Y-92766940D01*
X152188325Y-92746219D01*
X152199942Y-92721584D01*
X152221968Y-92725243D01*
G37*
G36*
X155229748Y-86386009D02*
G01*
X155197813Y-86421115D01*
X155179617Y-86436140D01*
X155173883Y-86435032D01*
X155179961Y-86417826D01*
X155222061Y-86378322D01*
X155272193Y-86335877D01*
X155229748Y-86386009D01*
G37*
G36*
X134265205Y-89785672D02*
G01*
X134268424Y-89791319D01*
X134262407Y-89821325D01*
X134247997Y-89836765D01*
X134219808Y-89843738D01*
X134205789Y-89824122D01*
X134212511Y-89805232D01*
X134239145Y-89783993D01*
X134265205Y-89785672D01*
G37*
G36*
X136104975Y-86169419D02*
G01*
X136121930Y-86191053D01*
X136121282Y-86196378D01*
X136099649Y-86213333D01*
X136094323Y-86212686D01*
X136077368Y-86191053D01*
X136078016Y-86185727D01*
X136099649Y-86168772D01*
X136104975Y-86169419D01*
G37*
G36*
X138244446Y-86127615D02*
G01*
X138249737Y-86146491D01*
X138245170Y-86153232D01*
X138227456Y-86168772D01*
X138224233Y-86167723D01*
X138205175Y-86146491D01*
X138203391Y-86134691D01*
X138227456Y-86124211D01*
X138244446Y-86127615D01*
G37*
G36*
X138824184Y-89355550D02*
G01*
X138840175Y-89377193D01*
X138835924Y-89387841D01*
X138805439Y-89399474D01*
X138789525Y-89396267D01*
X138784474Y-89377193D01*
X138789034Y-89371108D01*
X138819210Y-89354912D01*
X138824184Y-89355550D01*
G37*
G36*
X139138614Y-90316685D02*
G01*
X139164108Y-90338314D01*
X139158926Y-90365576D01*
X139137011Y-90378316D01*
X139101878Y-90374430D01*
X139085263Y-90346403D01*
X139088978Y-90330846D01*
X139117369Y-90312982D01*
X139138614Y-90316685D01*
G37*
G36*
X140640684Y-87023943D02*
G01*
X140659037Y-87044029D01*
X140657036Y-87057417D01*
X140616265Y-87060000D01*
X140571618Y-87052231D01*
X140556103Y-87030661D01*
X140580208Y-87002977D01*
X140603175Y-87001440D01*
X140640684Y-87023943D01*
G37*
G36*
X141103926Y-87484359D02*
G01*
X141123947Y-87505614D01*
X141127429Y-87514245D01*
X141114122Y-87527895D01*
X141107654Y-87527039D01*
X141090526Y-87505614D01*
X141090782Y-87500572D01*
X141100352Y-87483333D01*
X141103926Y-87484359D01*
G37*
G36*
X142008269Y-88377075D02*
G01*
X142026316Y-88396842D01*
X142022545Y-88407092D01*
X141992895Y-88419123D01*
X141977520Y-88416609D01*
X141959474Y-88396842D01*
X141963244Y-88386592D01*
X141992895Y-88374561D01*
X142008269Y-88377075D01*
G37*
G36*
X142176445Y-88492861D02*
G01*
X142193465Y-88510489D01*
X142201595Y-88527328D01*
X142177230Y-88530526D01*
X142145207Y-88522159D01*
X142120432Y-88496698D01*
X142124878Y-88469098D01*
X142142701Y-88469038D01*
X142176445Y-88492861D01*
G37*
G36*
X142773170Y-88828406D02*
G01*
X142790131Y-88839235D01*
X142795097Y-88864579D01*
X142792528Y-88868417D01*
X142759627Y-88886021D01*
X142727242Y-88863254D01*
X142720013Y-88845061D01*
X142732784Y-88824006D01*
X142773170Y-88828406D01*
G37*
G36*
X143567918Y-89045496D02*
G01*
X143585965Y-89065263D01*
X143582194Y-89075513D01*
X143552544Y-89087544D01*
X143537169Y-89085030D01*
X143519123Y-89065263D01*
X143522893Y-89055013D01*
X143552544Y-89042982D01*
X143567918Y-89045496D01*
G37*
G36*
X143735833Y-89481122D02*
G01*
X143762421Y-89533158D01*
X143777374Y-89565511D01*
X143777334Y-89573001D01*
X143754299Y-89545610D01*
X143732386Y-89513328D01*
X143719649Y-89480625D01*
X143722649Y-89466634D01*
X143735833Y-89481122D01*
G37*
G36*
X143973022Y-87198321D02*
G01*
X143995789Y-87228967D01*
X143999631Y-87248464D01*
X143982855Y-87255425D01*
X143980932Y-87254735D01*
X143954996Y-87233414D01*
X143945903Y-87206766D01*
X143960496Y-87193684D01*
X143973022Y-87198321D01*
G37*
G36*
X146090962Y-92630383D02*
G01*
X146103684Y-92666503D01*
X146103318Y-92677192D01*
X146094879Y-92687299D01*
X146067611Y-92664127D01*
X146047688Y-92638695D01*
X146043847Y-92615743D01*
X146063991Y-92610622D01*
X146090962Y-92630383D01*
G37*
G36*
X146077735Y-90625580D02*
G01*
X146059123Y-90658333D01*
X146040253Y-90676396D01*
X146019352Y-90681691D01*
X146018230Y-90668806D01*
X146036842Y-90636053D01*
X146055711Y-90617990D01*
X146076613Y-90612695D01*
X146077735Y-90625580D01*
G37*
G36*
X146653448Y-87561423D02*
G01*
X146677423Y-87589167D01*
X146674235Y-87606373D01*
X146640278Y-87617018D01*
X146612602Y-87610888D01*
X146593859Y-87581963D01*
X146596109Y-87570383D01*
X146619757Y-87554594D01*
X146653448Y-87561423D01*
G37*
G36*
X147713220Y-91138016D02*
G01*
X147730175Y-91159649D01*
X147729528Y-91164975D01*
X147707895Y-91181930D01*
X147702569Y-91181282D01*
X147685614Y-91159649D01*
X147686261Y-91154323D01*
X147707895Y-91137368D01*
X147713220Y-91138016D01*
G37*
G36*
X149329394Y-87480923D02*
G01*
X149352396Y-87503943D01*
X149350975Y-87516589D01*
X149323245Y-87527895D01*
X149304850Y-87524259D01*
X149294095Y-87503943D01*
X149297121Y-87497337D01*
X149323245Y-87479991D01*
X149329394Y-87480923D01*
G37*
G36*
X149588681Y-91201766D02*
G01*
X149601754Y-91240261D01*
X149598751Y-91255111D01*
X149579474Y-91259912D01*
X149570266Y-91251216D01*
X149557193Y-91212721D01*
X149560196Y-91197871D01*
X149579474Y-91193070D01*
X149588681Y-91201766D01*
G37*
G36*
X149963571Y-92987314D02*
G01*
X149980526Y-93008947D01*
X149979879Y-93014273D01*
X149958245Y-93031228D01*
X149952920Y-93030581D01*
X149935965Y-93008947D01*
X149936612Y-93003622D01*
X149958245Y-92986667D01*
X149963571Y-92987314D01*
G37*
G36*
X150052521Y-87417347D02*
G01*
X150069649Y-87438772D01*
X150069394Y-87443814D01*
X150059824Y-87461053D01*
X150056250Y-87460027D01*
X150036228Y-87438772D01*
X150032746Y-87430141D01*
X150046053Y-87416491D01*
X150052521Y-87417347D01*
G37*
G36*
X151262662Y-91377418D02*
G01*
X151289517Y-91399167D01*
X151279319Y-91419661D01*
X151228245Y-91427018D01*
X151178568Y-91420295D01*
X151166974Y-91399167D01*
X151184147Y-91381819D01*
X151228245Y-91371316D01*
X151262662Y-91377418D01*
G37*
G36*
X151245534Y-87837415D02*
G01*
X151268536Y-87860434D01*
X151267116Y-87873081D01*
X151239386Y-87884386D01*
X151220991Y-87880751D01*
X151210235Y-87860434D01*
X151213261Y-87853828D01*
X151239386Y-87836482D01*
X151245534Y-87837415D01*
G37*
G36*
X151746551Y-92232527D02*
G01*
X151751842Y-92251403D01*
X151747275Y-92258144D01*
X151729561Y-92273684D01*
X151726338Y-92272636D01*
X151707281Y-92251403D01*
X151705496Y-92239603D01*
X151729561Y-92229123D01*
X151746551Y-92232527D01*
G37*
G36*
X152019083Y-92100775D02*
G01*
X152052631Y-92128860D01*
X152064879Y-92148864D01*
X152058088Y-92162281D01*
X152041619Y-92156945D01*
X152008070Y-92128860D01*
X151995822Y-92108855D01*
X152002614Y-92095439D01*
X152019083Y-92100775D01*
G37*
G36*
X152141754Y-92873948D02*
G01*
X152140898Y-92880415D01*
X152119474Y-92897544D01*
X152114431Y-92897288D01*
X152097193Y-92887718D01*
X152098218Y-92884144D01*
X152119474Y-92864123D01*
X152128104Y-92860641D01*
X152141754Y-92873948D01*
G37*
G36*
X152810175Y-87516754D02*
G01*
X152820761Y-87527915D01*
X152832115Y-87568201D01*
X152832039Y-87573268D01*
X152827479Y-87593336D01*
X152810175Y-87572456D01*
X152793764Y-87541524D01*
X152790493Y-87514956D01*
X152810175Y-87516754D01*
G37*
G36*
X152947479Y-86128388D02*
G01*
X152966140Y-86146491D01*
X152957784Y-86159441D01*
X152921579Y-86168772D01*
X152895679Y-86164594D01*
X152877017Y-86146491D01*
X152885373Y-86133541D01*
X152921579Y-86124211D01*
X152947479Y-86128388D01*
G37*
G36*
X153156814Y-89690125D02*
G01*
X153177807Y-89711403D01*
X153181957Y-89719292D01*
X153180437Y-89733684D01*
X153176519Y-89732682D01*
X153155526Y-89711403D01*
X153151376Y-89703515D01*
X153152896Y-89689123D01*
X153156814Y-89690125D01*
G37*
G36*
X137187545Y-90226718D02*
G01*
X137213238Y-90244918D01*
X137198830Y-90275848D01*
X137195948Y-90278472D01*
X137158524Y-90291058D01*
X137119995Y-90282589D01*
X137102281Y-90257281D01*
X137113183Y-90235481D01*
X137157982Y-90223860D01*
X137187545Y-90226718D01*
G37*
G36*
X145791754Y-86391579D02*
G01*
X145801538Y-86411026D01*
X145813694Y-86465306D01*
X145809868Y-86485847D01*
X145791754Y-86491842D01*
X145777037Y-86467450D01*
X145769815Y-86418115D01*
X145770279Y-86399495D01*
X145776226Y-86376243D01*
X145791754Y-86391579D01*
G37*
G36*
X149690877Y-86369298D02*
G01*
X149701684Y-86388187D01*
X149712817Y-86419430D01*
X149712274Y-86423346D01*
X149690877Y-86436140D01*
X149677058Y-86425128D01*
X149668938Y-86386009D01*
X149669185Y-86373930D01*
X149674624Y-86351800D01*
X149690877Y-86369298D01*
G37*
G36*
X151379927Y-92124325D02*
G01*
X151361930Y-92151140D01*
X151338509Y-92169667D01*
X151286789Y-92184424D01*
X151262333Y-92182775D01*
X151263859Y-92173461D01*
X151303205Y-92151003D01*
X151321679Y-92141513D01*
X151367611Y-92121118D01*
X151379927Y-92124325D01*
G37*
G36*
X151637997Y-92099030D02*
G01*
X151650013Y-92161662D01*
X151649847Y-92168033D01*
X151636812Y-92173829D01*
X151601447Y-92144218D01*
X151577232Y-92118104D01*
X151566148Y-92092344D01*
X151584731Y-92073240D01*
X151612440Y-92069024D01*
X151637997Y-92099030D01*
G37*
G36*
X154270108Y-86508547D02*
G01*
X154278903Y-86531410D01*
X154252851Y-86555068D01*
X154241937Y-86559436D01*
X154219430Y-86568066D01*
X154216863Y-86565093D01*
X154213859Y-86536403D01*
X154217741Y-86520817D01*
X154247281Y-86502982D01*
X154270108Y-86508547D01*
G37*
G36*
X144949303Y-86392555D02*
G01*
X144921168Y-86432766D01*
X144881036Y-86467244D01*
X144847563Y-86481909D01*
X144833684Y-86470709D01*
X144837430Y-86459443D01*
X144862336Y-86427465D01*
X144899082Y-86392988D01*
X144934010Y-86368082D01*
X144953462Y-86364823D01*
X144949303Y-86392555D01*
G37*
G36*
X151194824Y-92050877D02*
G01*
X151212412Y-92070509D01*
X151228245Y-92112035D01*
X151228228Y-92114403D01*
X151221274Y-92133589D01*
X151194824Y-92117719D01*
X151177237Y-92098087D01*
X151161403Y-92056561D01*
X151161420Y-92054194D01*
X151168375Y-92035008D01*
X151194824Y-92050877D01*
G37*
G36*
X155240066Y-88557506D02*
G01*
X155286280Y-88588481D01*
X155305614Y-88635246D01*
X155305606Y-88636843D01*
X155299585Y-88660140D01*
X155276300Y-88657533D01*
X155226848Y-88628227D01*
X155221238Y-88624476D01*
X155180306Y-88587870D01*
X155176923Y-88562375D01*
X155212035Y-88552807D01*
X155240066Y-88557506D01*
G37*
G36*
X144621127Y-86239385D02*
G01*
X144633158Y-86269035D01*
X144644670Y-86302906D01*
X144677719Y-86347018D01*
X144707899Y-86383122D01*
X144722281Y-86413860D01*
X144721276Y-86425457D01*
X144706856Y-86435166D01*
X144678135Y-86408398D01*
X144638728Y-86348002D01*
X144613198Y-86302275D01*
X144593109Y-86259491D01*
X144593048Y-86240146D01*
X144610877Y-86235614D01*
X144621127Y-86239385D01*
G37*
G36*
X151862730Y-86427885D02*
G01*
X151878984Y-86436227D01*
X151896666Y-86458020D01*
X151896668Y-86458294D01*
X151900829Y-86491004D01*
X151910592Y-86544759D01*
X151914672Y-86595039D01*
X151899452Y-86614386D01*
X151882758Y-86599772D01*
X151874386Y-86557219D01*
X151869689Y-86513792D01*
X151851590Y-86457458D01*
X151847477Y-86449564D01*
X151840519Y-86424869D01*
X151862730Y-86427885D01*
G37*
G36*
X134236167Y-89290113D02*
G01*
X134241727Y-89336628D01*
X134241962Y-89403458D01*
X134237511Y-89475764D01*
X134229013Y-89538704D01*
X134217104Y-89577437D01*
X134206579Y-89591856D01*
X134185530Y-89599182D01*
X134174334Y-89568799D01*
X134175633Y-89505307D01*
X134179313Y-89471797D01*
X134192012Y-89372050D01*
X134203840Y-89310065D01*
X134216070Y-89280523D01*
X134229972Y-89278105D01*
X134236167Y-89290113D01*
G37*
G36*
X151367949Y-92858953D02*
G01*
X151440628Y-92885267D01*
X151497813Y-92919688D01*
X151517895Y-92963249D01*
X151513565Y-92990237D01*
X151495614Y-93008947D01*
X151490320Y-93008338D01*
X151473333Y-92987712D01*
X151471969Y-92983111D01*
X151445315Y-92958144D01*
X151395351Y-92929472D01*
X151380750Y-92922194D01*
X151335569Y-92894002D01*
X151317368Y-92872724D01*
X151328452Y-92855604D01*
X151367949Y-92858953D01*
G37*
G36*
X138228509Y-90380588D02*
G01*
X138462733Y-90404698D01*
X138663349Y-90457971D01*
X138830326Y-90540389D01*
X138963628Y-90651933D01*
X139063221Y-90792584D01*
X139129074Y-90962321D01*
X139130604Y-90968395D01*
X139142926Y-91049446D01*
X139149324Y-91156838D01*
X139148766Y-91274251D01*
X139148692Y-91276241D01*
X139142240Y-91386555D01*
X139130440Y-91468667D01*
X139109892Y-91538653D01*
X139077196Y-91612588D01*
X139044324Y-91672544D01*
X138989474Y-91755507D01*
X138937089Y-91818794D01*
X138850215Y-91889652D01*
X138720417Y-91964894D01*
X138574561Y-92025160D01*
X138427982Y-92063093D01*
X138343783Y-92076667D01*
X138239984Y-92088538D01*
X138146827Y-92090291D01*
X138046294Y-92081942D01*
X137920370Y-92063505D01*
X137872159Y-92054497D01*
X137760301Y-92025920D01*
X137650009Y-91988777D01*
X137549656Y-91946783D01*
X137467611Y-91903656D01*
X137412245Y-91863112D01*
X137391930Y-91828869D01*
X137393677Y-91812019D01*
X137423100Y-91760704D01*
X137477377Y-91728915D01*
X137541544Y-91726855D01*
X137562790Y-91732133D01*
X137659965Y-91751979D01*
X137729365Y-91754936D01*
X137782723Y-91740198D01*
X137831774Y-91706962D01*
X137910144Y-91622570D01*
X137963033Y-91519168D01*
X137992861Y-91389581D01*
X138002227Y-91226491D01*
X137993497Y-91068618D01*
X137964209Y-90937075D01*
X137911894Y-90832522D01*
X137834098Y-90747976D01*
X137813313Y-90733078D01*
X137748733Y-90704632D01*
X137678491Y-90690626D01*
X137617660Y-90693086D01*
X137581316Y-90714035D01*
X137555088Y-90732996D01*
X137505913Y-90732857D01*
X137452458Y-90711946D01*
X137409529Y-90676589D01*
X137391930Y-90633113D01*
X137406088Y-90602517D01*
X137457090Y-90561440D01*
X137537726Y-90518755D01*
X137640082Y-90477265D01*
X137756247Y-90439774D01*
X137878308Y-90409082D01*
X137998352Y-90387994D01*
X138108466Y-90379312D01*
X138228509Y-90380588D01*
G37*
G36*
X146626496Y-88237345D02*
G01*
X146710986Y-88240161D01*
X146775030Y-88247500D01*
X146830584Y-88261481D01*
X146889607Y-88284222D01*
X146964055Y-88317841D01*
X146992659Y-88331431D01*
X147153703Y-88427596D01*
X147275675Y-88541372D01*
X147361447Y-88677108D01*
X147413892Y-88839149D01*
X147435882Y-89031842D01*
X147436835Y-89104568D01*
X147421032Y-89273953D01*
X147375912Y-89425774D01*
X147297833Y-89574343D01*
X147267495Y-89615704D01*
X147169970Y-89707092D01*
X147041755Y-89788511D01*
X146892492Y-89854425D01*
X146731823Y-89899300D01*
X146684233Y-89908459D01*
X146573191Y-89925227D01*
X146476232Y-89929751D01*
X146374342Y-89922163D01*
X146248509Y-89902590D01*
X146093571Y-89869869D01*
X145954222Y-89829616D01*
X145839950Y-89784887D01*
X145755572Y-89737916D01*
X145705900Y-89690936D01*
X145695752Y-89646182D01*
X145721440Y-89591328D01*
X145764760Y-89562592D01*
X145815542Y-89573490D01*
X145838707Y-89582967D01*
X145901836Y-89595210D01*
X145978245Y-89600000D01*
X146026103Y-89599170D01*
X146082553Y-89590470D01*
X146125650Y-89565353D01*
X146174904Y-89515429D01*
X146238436Y-89426995D01*
X146280117Y-89320477D01*
X146299880Y-89189887D01*
X146299883Y-89026791D01*
X146287837Y-88895987D01*
X146262026Y-88786867D01*
X146218463Y-88697080D01*
X146152674Y-88614079D01*
X146111933Y-88577869D01*
X146061327Y-88557853D01*
X145986647Y-88552807D01*
X145953531Y-88553870D01*
X145881130Y-88562882D01*
X145830711Y-88578087D01*
X145802441Y-88589367D01*
X145770674Y-88581668D01*
X145731049Y-88542420D01*
X145710027Y-88514800D01*
X145696579Y-88475041D01*
X145714295Y-88439270D01*
X145767019Y-88401908D01*
X145858596Y-88357378D01*
X145949783Y-88319373D01*
X146071348Y-88279564D01*
X146195601Y-88254261D01*
X146336324Y-88240905D01*
X146507301Y-88236937D01*
X146509603Y-88236935D01*
X146626496Y-88237345D01*
G37*
G36*
X143864932Y-89800526D02*
G01*
X143882643Y-89809649D01*
X144023375Y-89904448D01*
X144125682Y-90019092D01*
X144188120Y-90152010D01*
X144194567Y-90178109D01*
X144208271Y-90254160D01*
X144221977Y-90352285D01*
X144233505Y-90457807D01*
X144239571Y-90522474D01*
X144266514Y-90796274D01*
X144291691Y-91028359D01*
X144315431Y-91221026D01*
X144338062Y-91376573D01*
X144359911Y-91497299D01*
X144381306Y-91585501D01*
X144402575Y-91643478D01*
X144414440Y-91666269D01*
X144447211Y-91709831D01*
X144494894Y-91740646D01*
X144571886Y-91769423D01*
X144575918Y-91770735D01*
X144645262Y-91795054D01*
X144682365Y-91816278D01*
X144697264Y-91843540D01*
X144700000Y-91885972D01*
X144697946Y-91923845D01*
X144681380Y-91957724D01*
X144638728Y-91973812D01*
X144589472Y-91984840D01*
X144532895Y-91998938D01*
X144512934Y-92003206D01*
X144451482Y-92013406D01*
X144365015Y-92025954D01*
X144265526Y-92039048D01*
X144248638Y-92041158D01*
X144121532Y-92056327D01*
X144026112Y-92065284D01*
X143951204Y-92068029D01*
X143885635Y-92064558D01*
X143818231Y-92054869D01*
X143737816Y-92038962D01*
X143706983Y-92032044D01*
X143527495Y-91969935D01*
X143379666Y-91876746D01*
X143262543Y-91751726D01*
X143175176Y-91594123D01*
X143163339Y-91557122D01*
X143145551Y-91471709D01*
X143129599Y-91361291D01*
X143117392Y-91237632D01*
X143111662Y-91163210D01*
X143094818Y-90947972D01*
X143080435Y-90770824D01*
X143068064Y-90626892D01*
X143057256Y-90511302D01*
X143047561Y-90419184D01*
X143038533Y-90345662D01*
X143029720Y-90285865D01*
X143018983Y-90218036D01*
X143010249Y-90159169D01*
X143006835Y-90130876D01*
X143002894Y-90116797D01*
X142973050Y-90073915D01*
X142923997Y-90023411D01*
X142867859Y-89977044D01*
X142816761Y-89946570D01*
X142780929Y-89926242D01*
X142738655Y-89883080D01*
X142719688Y-89837230D01*
X142731515Y-89801442D01*
X142757700Y-89786827D01*
X142829753Y-89766516D01*
X142934571Y-89749142D01*
X143065069Y-89735567D01*
X143214159Y-89726650D01*
X143374757Y-89723255D01*
X143709426Y-89722544D01*
X143864932Y-89800526D01*
G37*
G36*
X145644316Y-89145898D02*
G01*
X145642076Y-89234296D01*
X145635410Y-89299170D01*
X145621900Y-89353001D01*
X145599128Y-89408269D01*
X145564676Y-89477456D01*
X145523527Y-89551484D01*
X145458303Y-89639927D01*
X145382555Y-89706875D01*
X145301246Y-89760171D01*
X145140756Y-89840313D01*
X144983640Y-89888445D01*
X144892789Y-89900920D01*
X144768625Y-89908404D01*
X144633266Y-89909442D01*
X144500564Y-89904279D01*
X144384377Y-89893160D01*
X144298560Y-89876330D01*
X144150680Y-89818147D01*
X144002073Y-89719765D01*
X143885725Y-89591377D01*
X143802445Y-89434194D01*
X143753046Y-89249428D01*
X143738470Y-89040214D01*
X143964861Y-89040214D01*
X143964869Y-89044634D01*
X143975361Y-89223049D01*
X144005550Y-89362728D01*
X144055276Y-89463182D01*
X144124377Y-89523918D01*
X144207968Y-89552855D01*
X144293245Y-89545505D01*
X144368050Y-89494963D01*
X144432751Y-89401082D01*
X144442319Y-89370231D01*
X144452882Y-89297641D01*
X144460056Y-89201163D01*
X144463521Y-89092741D01*
X144462955Y-88984320D01*
X144458040Y-88887845D01*
X144448455Y-88815261D01*
X144447062Y-88809200D01*
X144417572Y-88733342D01*
X144374062Y-88664866D01*
X144343311Y-88632335D01*
X144293973Y-88604519D01*
X144224554Y-88597864D01*
X144217313Y-88598001D01*
X144140763Y-88610130D01*
X144082441Y-88636855D01*
X144045001Y-88677873D01*
X144001730Y-88769651D01*
X143974353Y-88892709D01*
X143964861Y-89040214D01*
X143738470Y-89040214D01*
X143738336Y-89038293D01*
X143738648Y-89021666D01*
X143759559Y-88827197D01*
X143813117Y-88661892D01*
X143901110Y-88522864D01*
X144025324Y-88407225D01*
X144187544Y-88312089D01*
X144218059Y-88297734D01*
X144278792Y-88270705D01*
X144330969Y-88252465D01*
X144385212Y-88241233D01*
X144452146Y-88235229D01*
X144542393Y-88232671D01*
X144666579Y-88231777D01*
X144758165Y-88231862D01*
X144874819Y-88234626D01*
X144962588Y-88241393D01*
X145031082Y-88253042D01*
X145089912Y-88270452D01*
X145244331Y-88337394D01*
X145381477Y-88428355D01*
X145491980Y-88544377D01*
X145584533Y-88692884D01*
X145591668Y-88706829D01*
X145615733Y-88759331D01*
X145631176Y-88809774D01*
X145639874Y-88869809D01*
X145643705Y-88951088D01*
X145644546Y-89065263D01*
X145644468Y-89092741D01*
X145644316Y-89145898D01*
G37*
G36*
X141021281Y-91485877D02*
G01*
X141000657Y-91625940D01*
X140942162Y-91750399D01*
X140848893Y-91854549D01*
X140723944Y-91933688D01*
X140570411Y-91983112D01*
X140539219Y-91986940D01*
X140463384Y-91991858D01*
X140355663Y-91996242D01*
X140223359Y-91999860D01*
X140073773Y-92002481D01*
X139914206Y-92003875D01*
X139350606Y-92006316D01*
X139237655Y-91893365D01*
X139243496Y-91482719D01*
X140422105Y-91482719D01*
X140422105Y-91805789D01*
X140483377Y-91804805D01*
X140523257Y-91800565D01*
X140616223Y-91766489D01*
X140696896Y-91706949D01*
X140749266Y-91632330D01*
X140771146Y-91544275D01*
X140772751Y-91446545D01*
X140755417Y-91356364D01*
X140720573Y-91290737D01*
X140676499Y-91252251D01*
X140603991Y-91207051D01*
X140528315Y-91173061D01*
X140467554Y-91159649D01*
X140461065Y-91159793D01*
X140445211Y-91163979D01*
X140434365Y-91179034D01*
X140427579Y-91211698D01*
X140423906Y-91268708D01*
X140422397Y-91356802D01*
X140422105Y-91482719D01*
X139243496Y-91482719D01*
X139245012Y-91376112D01*
X139245050Y-91373413D01*
X139247585Y-91208404D01*
X139250323Y-91081342D01*
X139253915Y-90985712D01*
X139259012Y-90914998D01*
X139266266Y-90862682D01*
X139276328Y-90822248D01*
X139289849Y-90787180D01*
X139307481Y-90750961D01*
X139313391Y-90739625D01*
X139392708Y-90624328D01*
X139496809Y-90536059D01*
X139634884Y-90466843D01*
X139683055Y-90449120D01*
X139736300Y-90434321D01*
X139796147Y-90424580D01*
X139872084Y-90418870D01*
X139973597Y-90416167D01*
X140110175Y-90415444D01*
X140199538Y-90415818D01*
X140331916Y-90418923D01*
X140433324Y-90425759D01*
X140512471Y-90437032D01*
X140578070Y-90453452D01*
X140632414Y-90472711D01*
X140713788Y-90507467D01*
X140794964Y-90547297D01*
X140865668Y-90586746D01*
X140915625Y-90620361D01*
X140934561Y-90642686D01*
X140931671Y-90657815D01*
X140905412Y-90701896D01*
X140865171Y-90741416D01*
X140827464Y-90758513D01*
X140821770Y-90758104D01*
X140774389Y-90743333D01*
X140716786Y-90713952D01*
X140709787Y-90709873D01*
X140638598Y-90682484D01*
X140560827Y-90670768D01*
X140492187Y-90675653D01*
X140448390Y-90698070D01*
X140434799Y-90731673D01*
X140423846Y-90791378D01*
X140417937Y-90858972D01*
X140418526Y-90917307D01*
X140427069Y-90949233D01*
X140433800Y-90953033D01*
X140474991Y-90963914D01*
X140537044Y-90973399D01*
X140626447Y-90991995D01*
X140752123Y-91046258D01*
X140862790Y-91125864D01*
X140948624Y-91223223D01*
X140999796Y-91330748D01*
X141000938Y-91334913D01*
X141015981Y-91446545D01*
X141021281Y-91485877D01*
G37*
G36*
X142868435Y-90923084D02*
G01*
X142876973Y-90962151D01*
X142883479Y-91010193D01*
X142888228Y-91072295D01*
X142891496Y-91153540D01*
X142893557Y-91259012D01*
X142894689Y-91393794D01*
X142895165Y-91562969D01*
X142895263Y-91771623D01*
X142895289Y-91974068D01*
X142894962Y-92148492D01*
X142893629Y-92286953D01*
X142890640Y-92393867D01*
X142885342Y-92473649D01*
X142877083Y-92530714D01*
X142865213Y-92569476D01*
X142849078Y-92594352D01*
X142828028Y-92609755D01*
X142801410Y-92620102D01*
X142768573Y-92629806D01*
X142733374Y-92635287D01*
X142658970Y-92640915D01*
X142555981Y-92645583D01*
X142432881Y-92648916D01*
X142298148Y-92650541D01*
X142208638Y-92650745D01*
X142075786Y-92649667D01*
X141977445Y-92646339D01*
X141907135Y-92640322D01*
X141858374Y-92631176D01*
X141824683Y-92618463D01*
X141758947Y-92584470D01*
X141758947Y-92341405D01*
X141758818Y-92304464D01*
X141755098Y-92175146D01*
X141745217Y-92083681D01*
X141727794Y-92024830D01*
X141701450Y-91993355D01*
X141664806Y-91984017D01*
X141662061Y-91983975D01*
X141596019Y-91969394D01*
X141509964Y-91933531D01*
X141417178Y-91883504D01*
X141330944Y-91826434D01*
X141264541Y-91769441D01*
X141194706Y-91687206D01*
X141140098Y-91595108D01*
X141105222Y-91490889D01*
X141086681Y-91364080D01*
X141081076Y-91204211D01*
X141081075Y-91197925D01*
X141313822Y-91197925D01*
X141318964Y-91325461D01*
X141343334Y-91471504D01*
X141389828Y-91585619D01*
X141460755Y-91672904D01*
X141558421Y-91738459D01*
X141603711Y-91760011D01*
X141668705Y-91786672D01*
X141717872Y-91801981D01*
X141739161Y-91801721D01*
X141739996Y-91780434D01*
X141741193Y-91720179D01*
X141742638Y-91626906D01*
X141744245Y-91506523D01*
X141745932Y-91364935D01*
X141747614Y-91208050D01*
X141749030Y-91033878D01*
X141749220Y-90888878D01*
X141747889Y-90779638D01*
X141744857Y-90701646D01*
X141739945Y-90650387D01*
X141732972Y-90621346D01*
X141723758Y-90610010D01*
X141683450Y-90606522D01*
X141613387Y-90626891D01*
X141535855Y-90670364D01*
X141463428Y-90731093D01*
X141414628Y-90785754D01*
X141364832Y-90862514D01*
X141333843Y-90949275D01*
X141318045Y-91057318D01*
X141313822Y-91197925D01*
X141081075Y-91197925D01*
X141081070Y-91168606D01*
X141082407Y-91064710D01*
X141087355Y-90990014D01*
X141097867Y-90932501D01*
X141115898Y-90880156D01*
X141143402Y-90820962D01*
X141204606Y-90715597D01*
X141310787Y-90594562D01*
X141444985Y-90502746D01*
X141613296Y-90435146D01*
X141689395Y-90412966D01*
X141769974Y-90394287D01*
X141847328Y-90384541D01*
X141937340Y-90381913D01*
X142055893Y-90384590D01*
X142164087Y-90389832D01*
X142271031Y-90400722D01*
X142357962Y-90418395D01*
X142438509Y-90445004D01*
X142525217Y-90486813D01*
X142658553Y-90585698D01*
X142768788Y-90711991D01*
X142845584Y-90855272D01*
X142857588Y-90887909D01*
X142857887Y-90888878D01*
X142868435Y-90923084D01*
G37*
G36*
X154909129Y-88945961D02*
G01*
X154910016Y-89153804D01*
X154909834Y-89324487D01*
X154908207Y-89461797D01*
X154904760Y-89569522D01*
X154901126Y-89622281D01*
X154899117Y-89651449D01*
X154890902Y-89711366D01*
X154879738Y-89753060D01*
X154865251Y-89780318D01*
X154847063Y-89796928D01*
X154824800Y-89806677D01*
X154798085Y-89813352D01*
X154752228Y-89823854D01*
X154715175Y-89833199D01*
X154697408Y-89835719D01*
X154636859Y-89838400D01*
X154544024Y-89839406D01*
X154426517Y-89838922D01*
X154291953Y-89837134D01*
X154147946Y-89834230D01*
X154002110Y-89830394D01*
X153862061Y-89825814D01*
X153735413Y-89820676D01*
X153629779Y-89815166D01*
X153552776Y-89809469D01*
X153512017Y-89803773D01*
X153453661Y-89785153D01*
X153333949Y-89724905D01*
X153251718Y-89643051D01*
X153204302Y-89536266D01*
X153189030Y-89401225D01*
X153189067Y-89374764D01*
X153189476Y-89365180D01*
X153415573Y-89365180D01*
X153419690Y-89419172D01*
X153440731Y-89482801D01*
X153500455Y-89561009D01*
X153561170Y-89602663D01*
X153635749Y-89622281D01*
X153703076Y-89622281D01*
X153696669Y-89416184D01*
X153690263Y-89210088D01*
X153626963Y-89214560D01*
X153612076Y-89216801D01*
X153549209Y-89239995D01*
X153485279Y-89278820D01*
X153473261Y-89288096D01*
X153430589Y-89327567D01*
X153415573Y-89365180D01*
X153189476Y-89365180D01*
X153192028Y-89305351D01*
X153204928Y-89258236D01*
X153235032Y-89216120D01*
X153289602Y-89161707D01*
X153335777Y-89114796D01*
X153365270Y-89078971D01*
X153368359Y-89065263D01*
X153339853Y-89054133D01*
X153289954Y-89015962D01*
X153233570Y-88960734D01*
X153181344Y-88899056D01*
X153143918Y-88841540D01*
X153117834Y-88778343D01*
X153089135Y-88689669D01*
X153064527Y-88595799D01*
X153052908Y-88538041D01*
X153038520Y-88354141D01*
X153300351Y-88354141D01*
X153300817Y-88423264D01*
X153304868Y-88510422D01*
X153315520Y-88577842D01*
X153335674Y-88640941D01*
X153368228Y-88715135D01*
X153401650Y-88780611D01*
X153458080Y-88861552D01*
X153523715Y-88918163D01*
X153593115Y-88958679D01*
X153649656Y-88975296D01*
X153686550Y-88961287D01*
X153688229Y-88958489D01*
X153694546Y-88920487D01*
X153698692Y-88845751D01*
X153700667Y-88740655D01*
X153700468Y-88611572D01*
X153698093Y-88464876D01*
X153693541Y-88306939D01*
X153686809Y-88144137D01*
X153681218Y-88040095D01*
X153673818Y-87944005D01*
X153665272Y-87882361D01*
X153654733Y-87849517D01*
X153641360Y-87839825D01*
X153578831Y-87854870D01*
X153501125Y-87898661D01*
X153425703Y-87961754D01*
X153366043Y-88034612D01*
X153337723Y-88081870D01*
X153317409Y-88128101D01*
X153306171Y-88180322D01*
X153301365Y-88251384D01*
X153300351Y-88354141D01*
X153038520Y-88354141D01*
X153037538Y-88341594D01*
X153061423Y-88160971D01*
X153123067Y-87999256D01*
X153220971Y-87859536D01*
X153353638Y-87744894D01*
X153519570Y-87658417D01*
X153539634Y-87650801D01*
X153583831Y-87636503D01*
X153632743Y-87625377D01*
X153693011Y-87616784D01*
X153771274Y-87610089D01*
X153874172Y-87604653D01*
X154008347Y-87599841D01*
X154180438Y-87595014D01*
X154182041Y-87594972D01*
X154371530Y-87590751D01*
X154521625Y-87589480D01*
X154637395Y-87591757D01*
X154723907Y-87598176D01*
X154786228Y-87609336D01*
X154829427Y-87625833D01*
X154858571Y-87648262D01*
X154878728Y-87677222D01*
X154879379Y-87678728D01*
X154884939Y-87716157D01*
X154890124Y-87794963D01*
X154894855Y-87912288D01*
X154899051Y-88065272D01*
X154902632Y-88251056D01*
X154905520Y-88466782D01*
X154907632Y-88709591D01*
X154907829Y-88740655D01*
X154909129Y-88945961D01*
G37*
G36*
X153064929Y-87740636D02*
G01*
X153007085Y-87908091D01*
X152907426Y-88080410D01*
X152898057Y-88094002D01*
X152853435Y-88161067D01*
X152822040Y-88212113D01*
X152810175Y-88236993D01*
X152821339Y-88257289D01*
X152827084Y-88263158D01*
X152854737Y-88291409D01*
X152859643Y-88295779D01*
X152871026Y-88309093D01*
X152879995Y-88328486D01*
X152886838Y-88358767D01*
X152891841Y-88404748D01*
X152895291Y-88471239D01*
X152897474Y-88563050D01*
X152898679Y-88684991D01*
X152899191Y-88841873D01*
X152899203Y-88864202D01*
X152899298Y-89038506D01*
X152899245Y-89123028D01*
X152898560Y-89313417D01*
X152896949Y-89465055D01*
X152894244Y-89582137D01*
X152890276Y-89668853D01*
X152884877Y-89729396D01*
X152877877Y-89767959D01*
X152869109Y-89788734D01*
X152866115Y-89792597D01*
X152851366Y-89805454D01*
X152827339Y-89815146D01*
X152788154Y-89822206D01*
X152727931Y-89827170D01*
X152640789Y-89830572D01*
X152520846Y-89832948D01*
X152362223Y-89834831D01*
X152225849Y-89835793D01*
X152078437Y-89834938D01*
X151966436Y-89830798D01*
X151884630Y-89822465D01*
X151827799Y-89809029D01*
X151790726Y-89789580D01*
X151768191Y-89763209D01*
X151754978Y-89729006D01*
X151753031Y-89718410D01*
X151748378Y-89663880D01*
X151744591Y-89577887D01*
X151742017Y-89469889D01*
X151741006Y-89349342D01*
X151740792Y-89294340D01*
X151739326Y-89186273D01*
X151736714Y-89099467D01*
X151733237Y-89041687D01*
X151729175Y-89020702D01*
X151716197Y-89026046D01*
X151670873Y-89049259D01*
X151601729Y-89086639D01*
X151524703Y-89129519D01*
X151517448Y-89133558D01*
X151317249Y-89246415D01*
X151228112Y-89433174D01*
X151217228Y-89455797D01*
X151170724Y-89545099D01*
X151127937Y-89608551D01*
X151078706Y-89659237D01*
X151012866Y-89710239D01*
X151012121Y-89710771D01*
X150845254Y-89804262D01*
X150794485Y-89821007D01*
X150650574Y-89868473D01*
X150435243Y-89901699D01*
X150206424Y-89902235D01*
X149991666Y-89887150D01*
X149757719Y-89997505D01*
X149691165Y-90028509D01*
X149574735Y-90081467D01*
X149446127Y-90138772D01*
X149311946Y-90197600D01*
X149178796Y-90255127D01*
X149053280Y-90308528D01*
X148942002Y-90354979D01*
X148851567Y-90391656D01*
X148788578Y-90415733D01*
X148759638Y-90424386D01*
X148754965Y-90424911D01*
X148715631Y-90439414D01*
X148661668Y-90467585D01*
X148656577Y-90470503D01*
X148595565Y-90501284D01*
X148511463Y-90539232D01*
X148420877Y-90576814D01*
X148409298Y-90581406D01*
X148319373Y-90617704D01*
X148204290Y-90664912D01*
X148077631Y-90717432D01*
X147952982Y-90769664D01*
X147917839Y-90784422D01*
X147803656Y-90831596D01*
X147699614Y-90873491D01*
X147615984Y-90906014D01*
X147563039Y-90925071D01*
X147517117Y-90941186D01*
X147435226Y-90972187D01*
X147335024Y-91011631D01*
X147228829Y-91054738D01*
X147156650Y-91084368D01*
X147020393Y-91139770D01*
X146883497Y-91194887D01*
X146766846Y-91241286D01*
X146549921Y-91326754D01*
X146549609Y-91464745D01*
X146549323Y-91518865D01*
X146547858Y-91538421D01*
X146545824Y-91565581D01*
X146534530Y-91601690D01*
X146510846Y-91628558D01*
X146470176Y-91647550D01*
X146407923Y-91660028D01*
X146319493Y-91667358D01*
X146200290Y-91670905D01*
X146045718Y-91672033D01*
X145851181Y-91672105D01*
X145252102Y-91672105D01*
X145143547Y-91601764D01*
X145097661Y-91569487D01*
X145047716Y-91526860D01*
X145023829Y-91495931D01*
X145020534Y-91466612D01*
X145016610Y-91398451D01*
X145012395Y-91297997D01*
X145008436Y-91180773D01*
X145260910Y-91180773D01*
X145262480Y-91318377D01*
X145266397Y-91417099D01*
X145272747Y-91479413D01*
X145281616Y-91507793D01*
X145290259Y-91514313D01*
X145317528Y-91522723D01*
X145365637Y-91529043D01*
X145439328Y-91533522D01*
X145543345Y-91536411D01*
X145682429Y-91537960D01*
X145861324Y-91538421D01*
X146415614Y-91538421D01*
X146415614Y-90995272D01*
X146415475Y-90892347D01*
X146414413Y-90737872D01*
X146412087Y-90620525D01*
X146408240Y-90535520D01*
X146404107Y-90493313D01*
X146549298Y-90493313D01*
X146549298Y-90837622D01*
X146549638Y-90906632D01*
X146551724Y-91015470D01*
X146555393Y-91102352D01*
X146560277Y-91159744D01*
X146566009Y-91180110D01*
X146570422Y-91178787D01*
X146608509Y-91164481D01*
X146680705Y-91136149D01*
X146781811Y-91095870D01*
X146906625Y-91045722D01*
X147049947Y-90987783D01*
X147206579Y-90924131D01*
X147249896Y-90906503D01*
X147410696Y-90841405D01*
X147561682Y-90780788D01*
X147696571Y-90727138D01*
X147809082Y-90682945D01*
X147892933Y-90650696D01*
X147941842Y-90632881D01*
X147981337Y-90618985D01*
X148050840Y-90591116D01*
X148097807Y-90567835D01*
X148099910Y-90566587D01*
X148138401Y-90547955D01*
X148210239Y-90516174D01*
X148308297Y-90474293D01*
X148425447Y-90425361D01*
X148554561Y-90372428D01*
X148651067Y-90332997D01*
X148840388Y-90254378D01*
X149024153Y-90176505D01*
X149197900Y-90101387D01*
X149357164Y-90031031D01*
X149497481Y-89967448D01*
X149614387Y-89912645D01*
X149703418Y-89868632D01*
X149760110Y-89837416D01*
X149780000Y-89821007D01*
X149778861Y-89817327D01*
X149754242Y-89792207D01*
X149707588Y-89759343D01*
X149690007Y-89748008D01*
X149568081Y-89639950D01*
X149467145Y-89494167D01*
X149449056Y-89462466D01*
X149419750Y-89417273D01*
X149402695Y-89399557D01*
X149399508Y-89400211D01*
X149367533Y-89415209D01*
X149317675Y-89443791D01*
X149287056Y-89463843D01*
X149259197Y-89493487D01*
X149247586Y-89536145D01*
X149245263Y-89607559D01*
X149244489Y-89641565D01*
X149235168Y-89709683D01*
X149211814Y-89763202D01*
X149170085Y-89803699D01*
X149105641Y-89832751D01*
X149014141Y-89851936D01*
X148891244Y-89862831D01*
X148732610Y-89867013D01*
X148533897Y-89866059D01*
X148479349Y-89865352D01*
X148366347Y-89864676D01*
X148284109Y-89866664D01*
X148222714Y-89872603D01*
X148172242Y-89883782D01*
X148122773Y-89901488D01*
X148064386Y-89927010D01*
X148055289Y-89931066D01*
X147973649Y-89965241D01*
X147864954Y-90008147D01*
X147742297Y-90054705D01*
X147618772Y-90099838D01*
X147616533Y-90100637D01*
X147482484Y-90148932D01*
X147339608Y-90201049D01*
X147204856Y-90250772D01*
X147095175Y-90291884D01*
X147027333Y-90317256D01*
X146932261Y-90351555D01*
X146854247Y-90378246D01*
X146805526Y-90393055D01*
X146788642Y-90397688D01*
X146718447Y-90421477D01*
X146643991Y-90451477D01*
X146549298Y-90493313D01*
X146404107Y-90493313D01*
X146402615Y-90478072D01*
X146394952Y-90443398D01*
X146384995Y-90426712D01*
X146379013Y-90423427D01*
X146339610Y-90415500D01*
X146265613Y-90410006D01*
X146154544Y-90406859D01*
X146003922Y-90405976D01*
X145811267Y-90407273D01*
X145268158Y-90413246D01*
X145262178Y-90945206D01*
X145261604Y-91001812D01*
X145260910Y-91180773D01*
X145008436Y-91180773D01*
X145008122Y-91171488D01*
X145004024Y-91025162D01*
X145000331Y-90865256D01*
X144997789Y-90740412D01*
X144995064Y-90589039D01*
X144993834Y-90473231D01*
X144994378Y-90387620D01*
X144996972Y-90326839D01*
X145001893Y-90285522D01*
X145009417Y-90258302D01*
X145019822Y-90239812D01*
X145033384Y-90224686D01*
X145041950Y-90216611D01*
X145059077Y-90204790D01*
X145083323Y-90195767D01*
X145120039Y-90189165D01*
X145174571Y-90184608D01*
X145252270Y-90181720D01*
X145358484Y-90180124D01*
X145498561Y-90179442D01*
X145677851Y-90179298D01*
X146276929Y-90179298D01*
X146390296Y-90257281D01*
X146444452Y-90292280D01*
X146500661Y-90323311D01*
X146534268Y-90335263D01*
X146561814Y-90329398D01*
X146623546Y-90311048D01*
X146708743Y-90283192D01*
X146807744Y-90248880D01*
X146869929Y-90226784D01*
X147011326Y-90176644D01*
X147157294Y-90124994D01*
X147284561Y-90080071D01*
X147345448Y-90058274D01*
X147471844Y-90011401D01*
X147595529Y-89963760D01*
X147696754Y-89922881D01*
X147716466Y-89914686D01*
X147814132Y-89875848D01*
X147906283Y-89841669D01*
X147975263Y-89818752D01*
X148075526Y-89789386D01*
X148075526Y-89323068D01*
X149629838Y-89323068D01*
X149638016Y-89359326D01*
X149664661Y-89409974D01*
X149701503Y-89460998D01*
X149740269Y-89498384D01*
X149770182Y-89514379D01*
X149850237Y-89531308D01*
X149934197Y-89524457D01*
X150001057Y-89494167D01*
X150021694Y-89470050D01*
X150054735Y-89408234D01*
X150081243Y-89332632D01*
X150099560Y-89253433D01*
X150111447Y-89181126D01*
X150114848Y-89129519D01*
X150108396Y-89109825D01*
X150108250Y-89109830D01*
X150083443Y-89118612D01*
X150028403Y-89141097D01*
X149953301Y-89172869D01*
X149868307Y-89209510D01*
X149783594Y-89246600D01*
X149709333Y-89279722D01*
X149655694Y-89304458D01*
X149632851Y-89316389D01*
X149629838Y-89323068D01*
X148075526Y-89323068D01*
X148075526Y-89154386D01*
X148074893Y-88988685D01*
X148072882Y-88829031D01*
X148069647Y-88694364D01*
X148065343Y-88589577D01*
X148060129Y-88519563D01*
X148054161Y-88489214D01*
X148051148Y-88485135D01*
X147998682Y-88444331D01*
X147936845Y-88433261D01*
X147883024Y-88455364D01*
X147875638Y-88462822D01*
X147865113Y-88479274D01*
X147857001Y-88504745D01*
X147850992Y-88544312D01*
X147846773Y-88603052D01*
X147844033Y-88686044D01*
X147842462Y-88798364D01*
X147841748Y-88945090D01*
X147841579Y-89131300D01*
X147841482Y-89320972D01*
X147840545Y-89480645D01*
X147837786Y-89604454D01*
X147832221Y-89696854D01*
X147822865Y-89762297D01*
X147808735Y-89805238D01*
X147788848Y-89830128D01*
X147762220Y-89841421D01*
X147727867Y-89843571D01*
X147684806Y-89841031D01*
X147585351Y-89833947D01*
X147579177Y-89176667D01*
X147578563Y-89106682D01*
X147577633Y-88907900D01*
X147578839Y-88747343D01*
X147582859Y-88620186D01*
X147590371Y-88521604D01*
X147602054Y-88446771D01*
X147618585Y-88390862D01*
X147640645Y-88349051D01*
X147668910Y-88316513D01*
X147704060Y-88288422D01*
X147737035Y-88269034D01*
X147837162Y-88239219D01*
X147946266Y-88237738D01*
X148045156Y-88265859D01*
X148072065Y-88278286D01*
X148135563Y-88294294D01*
X148200973Y-88284606D01*
X148201418Y-88284480D01*
X148246712Y-88277992D01*
X148326217Y-88272590D01*
X148431185Y-88268347D01*
X148552865Y-88265332D01*
X148682511Y-88263617D01*
X148811373Y-88263271D01*
X148930701Y-88264366D01*
X149031748Y-88266972D01*
X149105764Y-88271159D01*
X149144002Y-88276998D01*
X149148284Y-88278713D01*
X149179530Y-88297946D01*
X149203446Y-88329743D01*
X149220952Y-88379431D01*
X149232967Y-88452338D01*
X149240411Y-88553789D01*
X149244203Y-88689111D01*
X149245263Y-88863630D01*
X149245279Y-88916252D01*
X149245690Y-89055092D01*
X149247064Y-89156896D01*
X149249935Y-89227377D01*
X149254839Y-89272249D01*
X149262310Y-89297226D01*
X149272884Y-89308022D01*
X149287096Y-89310351D01*
X149305750Y-89308967D01*
X149348207Y-89285384D01*
X149367169Y-89229663D01*
X149364349Y-89137979D01*
X149362958Y-89078765D01*
X149605956Y-89078765D01*
X149614032Y-89133104D01*
X149636853Y-89154672D01*
X149679381Y-89148895D01*
X149746579Y-89121198D01*
X149800824Y-89096705D01*
X149878881Y-89061611D01*
X149963816Y-89023530D01*
X150034554Y-88990162D01*
X150089001Y-88954091D01*
X150111236Y-88913470D01*
X150106501Y-88857024D01*
X150080036Y-88773479D01*
X150057721Y-88717520D01*
X150006260Y-88635008D01*
X149954331Y-88598252D01*
X151205965Y-88598252D01*
X151212742Y-88620524D01*
X151233856Y-88672815D01*
X151264314Y-88741717D01*
X151293396Y-88812216D01*
X151312367Y-88890626D01*
X151312142Y-88913470D01*
X151311613Y-88967216D01*
X151309602Y-88987403D01*
X151310184Y-89036570D01*
X151325915Y-89059688D01*
X151362184Y-89056953D01*
X151424381Y-89028560D01*
X151517895Y-88974706D01*
X151529088Y-88968044D01*
X151601316Y-88927341D01*
X151659019Y-88898519D01*
X151690570Y-88887454D01*
X151705264Y-88885382D01*
X151722502Y-88864202D01*
X151710107Y-88826571D01*
X151672122Y-88780453D01*
X151612588Y-88733814D01*
X151576705Y-88710302D01*
X151491037Y-88651543D01*
X151415840Y-88596974D01*
X151387487Y-88575943D01*
X151340482Y-88547380D01*
X151304932Y-88541873D01*
X151265446Y-88555139D01*
X151223954Y-88578610D01*
X151205965Y-88598252D01*
X149954331Y-88598252D01*
X149941573Y-88589222D01*
X149857982Y-88575088D01*
X149792518Y-88583205D01*
X149716500Y-88624215D01*
X149661156Y-88701293D01*
X149625460Y-88816064D01*
X149608386Y-88970151D01*
X149607660Y-88986230D01*
X149605956Y-89078765D01*
X149362958Y-89078765D01*
X149361672Y-89023995D01*
X149379159Y-88877884D01*
X149414733Y-88733622D01*
X149464506Y-88611655D01*
X149534709Y-88506504D01*
X149658349Y-88389049D01*
X149813512Y-88298563D01*
X149996976Y-88236402D01*
X150205522Y-88203922D01*
X150435929Y-88202479D01*
X150477641Y-88205505D01*
X150673245Y-88236656D01*
X150846215Y-88296865D01*
X151008917Y-88390184D01*
X151016559Y-88395412D01*
X151084678Y-88437567D01*
X151129401Y-88453650D01*
X151159691Y-88447041D01*
X151177175Y-88429153D01*
X151185400Y-88395009D01*
X151574729Y-88395009D01*
X151578268Y-88409569D01*
X151605875Y-88448020D01*
X151652502Y-88498006D01*
X151740702Y-88584131D01*
X151740702Y-88473164D01*
X151741397Y-88448410D01*
X151752981Y-88368856D01*
X151775386Y-88312677D01*
X151796584Y-88278641D01*
X151800473Y-88263158D01*
X151794690Y-88264572D01*
X151758338Y-88281704D01*
X151703847Y-88311677D01*
X151645536Y-88346127D01*
X151597723Y-88376693D01*
X151574729Y-88395009D01*
X151185400Y-88395009D01*
X151187660Y-88385629D01*
X151187588Y-88373647D01*
X151208058Y-88326826D01*
X151249651Y-88276037D01*
X151299269Y-88235291D01*
X151343817Y-88218596D01*
X151365730Y-88221943D01*
X151384210Y-88239376D01*
X151391804Y-88253604D01*
X151426702Y-88273641D01*
X151428486Y-88274133D01*
X151474040Y-88267773D01*
X151546343Y-88237542D01*
X151638845Y-88188028D01*
X151744997Y-88123818D01*
X151858247Y-88049498D01*
X151972045Y-87969654D01*
X152079841Y-87888874D01*
X152175085Y-87811745D01*
X152251226Y-87742852D01*
X152301715Y-87686783D01*
X152320000Y-87648125D01*
X152310060Y-87631874D01*
X152265095Y-87602433D01*
X152192149Y-87569114D01*
X152100345Y-87535505D01*
X151998809Y-87505190D01*
X151896666Y-87481756D01*
X151818338Y-87467135D01*
X151656995Y-87438731D01*
X151508683Y-87415760D01*
X151363805Y-87397202D01*
X151212762Y-87382035D01*
X151045956Y-87369238D01*
X150853790Y-87357792D01*
X150626666Y-87346674D01*
X150563685Y-87343919D01*
X150259111Y-87333883D01*
X149943974Y-87329072D01*
X149611543Y-87329536D01*
X149255084Y-87335327D01*
X148867867Y-87346495D01*
X148443158Y-87363091D01*
X148344599Y-87367398D01*
X148123549Y-87377427D01*
X147934543Y-87386752D01*
X147768638Y-87395970D01*
X147616892Y-87405679D01*
X147470361Y-87416476D01*
X147320102Y-87428959D01*
X147157173Y-87443726D01*
X146972631Y-87461375D01*
X146900618Y-87468359D01*
X146760340Y-87481887D01*
X146621173Y-87495226D01*
X146504737Y-87506299D01*
X146464410Y-87510197D01*
X146295460Y-87527814D01*
X146097132Y-87550060D01*
X145880935Y-87575531D01*
X145658378Y-87602823D01*
X145440970Y-87630533D01*
X145240218Y-87657258D01*
X145067631Y-87681592D01*
X145062167Y-87682391D01*
X144969775Y-87695459D01*
X144857875Y-87710724D01*
X144749458Y-87725046D01*
X144720864Y-87728858D01*
X144637701Y-87741330D01*
X144575256Y-87752757D01*
X144545296Y-87761062D01*
X144537400Y-87763968D01*
X144492242Y-87773416D01*
X144418915Y-87785026D01*
X144328733Y-87796923D01*
X144306419Y-87799641D01*
X144196699Y-87813719D01*
X144090939Y-87828273D01*
X144009298Y-87840551D01*
X143939181Y-87851630D01*
X143833152Y-87867739D01*
X143730789Y-87882718D01*
X143649922Y-87894739D01*
X143539941Y-87912189D01*
X143446710Y-87928094D01*
X143240285Y-87965479D01*
X142945395Y-88019184D01*
X142899193Y-88027450D01*
X142792034Y-88045807D01*
X142694737Y-88061581D01*
X142689862Y-88062350D01*
X142622863Y-88074000D01*
X142522644Y-88092583D01*
X142398609Y-88116247D01*
X142260164Y-88143140D01*
X142116714Y-88171410D01*
X141977664Y-88199205D01*
X141852419Y-88224673D01*
X141750385Y-88245961D01*
X141680965Y-88261217D01*
X141627726Y-88273599D01*
X141538814Y-88294274D01*
X141447017Y-88315618D01*
X141446454Y-88315749D01*
X141349121Y-88337919D01*
X141233301Y-88363651D01*
X141123947Y-88387402D01*
X141118503Y-88388569D01*
X141013281Y-88411942D01*
X140907456Y-88436709D01*
X140823158Y-88457698D01*
X140741602Y-88478784D01*
X140636141Y-88505551D01*
X140533509Y-88531188D01*
X140515664Y-88535611D01*
X140335728Y-88581185D01*
X140139119Y-88632435D01*
X139945858Y-88684085D01*
X139775965Y-88730858D01*
X139679222Y-88757694D01*
X139558704Y-88790497D01*
X139452895Y-88818701D01*
X139398227Y-88833253D01*
X139173008Y-88896729D01*
X138917241Y-88973450D01*
X138639356Y-89060598D01*
X138347787Y-89155359D01*
X138050962Y-89254916D01*
X137757314Y-89356454D01*
X137475272Y-89457154D01*
X137213270Y-89554203D01*
X136979737Y-89644783D01*
X136894301Y-89679735D01*
X136704940Y-89761913D01*
X136501234Y-89855579D01*
X136292490Y-89956107D01*
X136088011Y-90058869D01*
X135897102Y-90159238D01*
X135729067Y-90252588D01*
X135593211Y-90334291D01*
X135566660Y-90351368D01*
X135363839Y-90494371D01*
X135197682Y-90635661D01*
X135069541Y-90773581D01*
X134980769Y-90906474D01*
X134932717Y-91032685D01*
X134926738Y-91150557D01*
X134930662Y-91174615D01*
X134967242Y-91285202D01*
X135035304Y-91388267D01*
X135138041Y-91487003D01*
X135278645Y-91584603D01*
X135460307Y-91684261D01*
X135492424Y-91700193D01*
X135584650Y-91742805D01*
X135656043Y-91768157D01*
X135720293Y-91780355D01*
X135791090Y-91783509D01*
X135913398Y-91771487D01*
X136024105Y-91727286D01*
X136110000Y-91647803D01*
X136175496Y-91530130D01*
X136175556Y-91529984D01*
X136198077Y-91474086D01*
X136208486Y-91434451D01*
X136201375Y-91408285D01*
X136171336Y-91392795D01*
X136112961Y-91385189D01*
X136020843Y-91382674D01*
X135889574Y-91382456D01*
X135834557Y-91382425D01*
X135705969Y-91380886D01*
X135614208Y-91374339D01*
X135553553Y-91359131D01*
X135518281Y-91331611D01*
X135502669Y-91288127D01*
X135500996Y-91225028D01*
X135507539Y-91138661D01*
X135514649Y-91093786D01*
X135791138Y-91093786D01*
X135794875Y-91113482D01*
X135806843Y-91133326D01*
X135834937Y-91144771D01*
X135888632Y-91150924D01*
X135977403Y-91154895D01*
X136053092Y-91156259D01*
X136133116Y-91150472D01*
X136181266Y-91132317D01*
X136204819Y-91098378D01*
X136211052Y-91045240D01*
X136209876Y-91016195D01*
X136188012Y-90920493D01*
X136143833Y-90842567D01*
X136084282Y-90787424D01*
X136016303Y-90760067D01*
X135946842Y-90765500D01*
X135882844Y-90808728D01*
X135858887Y-90840809D01*
X135819785Y-90922962D01*
X135794847Y-91014607D01*
X135791138Y-91093786D01*
X135514649Y-91093786D01*
X135526681Y-91017840D01*
X135574909Y-90860975D01*
X135643909Y-90718978D01*
X135727726Y-90606249D01*
X135786810Y-90552282D01*
X135910631Y-90475910D01*
X136062693Y-90422683D01*
X136246932Y-90391404D01*
X136467281Y-90380872D01*
X136546916Y-90382285D01*
X136761911Y-90405793D01*
X136945246Y-90458988D01*
X137098968Y-90542886D01*
X137225125Y-90658505D01*
X137325767Y-90806860D01*
X137348197Y-90849307D01*
X137373525Y-90903563D01*
X137389247Y-90954115D01*
X137397675Y-91013030D01*
X137399073Y-91045240D01*
X137401119Y-91092373D01*
X137401892Y-91204211D01*
X137401905Y-91234107D01*
X137400609Y-91340435D01*
X137395622Y-91417626D01*
X137384931Y-91478205D01*
X137366525Y-91534700D01*
X137338394Y-91599637D01*
X137335700Y-91605439D01*
X137240298Y-91757429D01*
X137111488Y-91882404D01*
X136954687Y-91975064D01*
X136900341Y-92002228D01*
X136857429Y-92031375D01*
X136846198Y-92051113D01*
X136849419Y-92058058D01*
X136846052Y-92095439D01*
X136839928Y-92103843D01*
X136809166Y-92115882D01*
X136783434Y-92087271D01*
X136770732Y-92075218D01*
X136738601Y-92067314D01*
X136680891Y-92063543D01*
X136591306Y-92063502D01*
X136463550Y-92066789D01*
X136456071Y-92067030D01*
X136332205Y-92070408D01*
X136240013Y-92070409D01*
X136167279Y-92065700D01*
X136101789Y-92054944D01*
X136031329Y-92036806D01*
X135943684Y-92009951D01*
X135906455Y-91998035D01*
X135596227Y-91883689D01*
X135319067Y-91751959D01*
X135066351Y-91598805D01*
X134986435Y-91537912D01*
X134876110Y-91424181D01*
X134797643Y-91300875D01*
X134754861Y-91174640D01*
X134751591Y-91052124D01*
X134761955Y-91001099D01*
X134816188Y-90857349D01*
X134905118Y-90709719D01*
X135023757Y-90567098D01*
X135114765Y-90480007D01*
X135238988Y-90374167D01*
X135375490Y-90267743D01*
X135510274Y-90171607D01*
X135629345Y-90096632D01*
X135666937Y-90074670D01*
X135727254Y-90037229D01*
X135765438Y-90010600D01*
X135766170Y-90010006D01*
X135808712Y-89982333D01*
X135883732Y-89940296D01*
X135985217Y-89886780D01*
X136107150Y-89824669D01*
X136243519Y-89756849D01*
X136388310Y-89686204D01*
X136535507Y-89615619D01*
X136679097Y-89547979D01*
X136813065Y-89486167D01*
X136931397Y-89433070D01*
X137028079Y-89391572D01*
X137097097Y-89364558D01*
X137132436Y-89354912D01*
X137142176Y-89353865D01*
X137181377Y-89334082D01*
X137183976Y-89332080D01*
X137219433Y-89313955D01*
X137287545Y-89283809D01*
X137380818Y-89244634D01*
X137491759Y-89199421D01*
X137612875Y-89151164D01*
X137736671Y-89102854D01*
X137855654Y-89057483D01*
X137962332Y-89018045D01*
X138049210Y-88987532D01*
X138119738Y-88963524D01*
X138222823Y-88928053D01*
X138348485Y-88884571D01*
X138486966Y-88836454D01*
X138628509Y-88787079D01*
X138763123Y-88740476D01*
X138911990Y-88689857D01*
X139052479Y-88642957D01*
X139173385Y-88603513D01*
X139263509Y-88575263D01*
X139370298Y-88543006D01*
X139571443Y-88481842D01*
X139759405Y-88424033D01*
X139954210Y-88363439D01*
X139963056Y-88360688D01*
X140061959Y-88330937D01*
X140187093Y-88294594D01*
X140323326Y-88256003D01*
X140455526Y-88219508D01*
X140474555Y-88214332D01*
X140604924Y-88178557D01*
X140734417Y-88142558D01*
X140848981Y-88110264D01*
X140934561Y-88085602D01*
X140948002Y-88081661D01*
X141033135Y-88057297D01*
X141103935Y-88037975D01*
X141146228Y-88027580D01*
X141163580Y-88024020D01*
X141254728Y-88003446D01*
X141385848Y-87971650D01*
X141558421Y-87928277D01*
X141689044Y-87895102D01*
X141906133Y-87840221D01*
X142084629Y-87795495D01*
X142227494Y-87760195D01*
X142337691Y-87733592D01*
X142418182Y-87714957D01*
X142429875Y-87712478D01*
X143786631Y-87712478D01*
X143788489Y-87715528D01*
X143818695Y-87720497D01*
X143876130Y-87718345D01*
X143948116Y-87710364D01*
X144021977Y-87697845D01*
X144085035Y-87682080D01*
X144089170Y-87680819D01*
X144158836Y-87667189D01*
X144235110Y-87661579D01*
X144247943Y-87661369D01*
X144331830Y-87654216D01*
X144415601Y-87640047D01*
X144432198Y-87636516D01*
X144509047Y-87622700D01*
X144607744Y-87607389D01*
X144711140Y-87593296D01*
X144737303Y-87589952D01*
X144847635Y-87574917D01*
X144953183Y-87559278D01*
X145034210Y-87545929D01*
X145113436Y-87532910D01*
X145219952Y-87517476D01*
X145323859Y-87504151D01*
X145333234Y-87503049D01*
X145443091Y-87490148D01*
X145569137Y-87475351D01*
X145685921Y-87461646D01*
X145690377Y-87461123D01*
X145814621Y-87446508D01*
X145952804Y-87430201D01*
X146075833Y-87415636D01*
X146162493Y-87405513D01*
X146358391Y-87383498D01*
X146572618Y-87360364D01*
X146792660Y-87337404D01*
X147006004Y-87315913D01*
X147200137Y-87297187D01*
X147362544Y-87282518D01*
X147369617Y-87281920D01*
X147460834Y-87274978D01*
X147587244Y-87266333D01*
X147740409Y-87256513D01*
X147911892Y-87246048D01*
X148093252Y-87235466D01*
X148276052Y-87225296D01*
X148475745Y-87216087D01*
X148716337Y-87208195D01*
X148976756Y-87202407D01*
X149251150Y-87198677D01*
X149533669Y-87196958D01*
X149818462Y-87197204D01*
X150099678Y-87199369D01*
X150371466Y-87203405D01*
X150627976Y-87209266D01*
X150863356Y-87216906D01*
X151071756Y-87226278D01*
X151247324Y-87237335D01*
X151384210Y-87250032D01*
X151426159Y-87255099D01*
X151631705Y-87284756D01*
X151827059Y-87320601D01*
X152007335Y-87361183D01*
X152167649Y-87405055D01*
X152303116Y-87450766D01*
X152408852Y-87496869D01*
X152479972Y-87541913D01*
X152511591Y-87584451D01*
X152512558Y-87631037D01*
X152479140Y-87711179D01*
X152405102Y-87805217D01*
X152291198Y-87912380D01*
X152138179Y-88031898D01*
X151946798Y-88162998D01*
X151913106Y-88186158D01*
X151869265Y-88221632D01*
X151852105Y-88243838D01*
X151852181Y-88246954D01*
X151857675Y-88258164D01*
X151870746Y-88256714D01*
X151921832Y-88254332D01*
X152004529Y-88251680D01*
X152111387Y-88248990D01*
X152234958Y-88246492D01*
X152606672Y-88239813D01*
X152710519Y-88101665D01*
X152793532Y-87984418D01*
X152862995Y-87863507D01*
X152903644Y-87754320D01*
X152918625Y-87647973D01*
X152911086Y-87535586D01*
X152905991Y-87507386D01*
X152885238Y-87446106D01*
X152846246Y-87385310D01*
X152780777Y-87310785D01*
X152761295Y-87290498D01*
X152666276Y-87202843D01*
X152568423Y-87135637D01*
X152453898Y-87080634D01*
X152308859Y-87029586D01*
X152243899Y-87010497D01*
X152099393Y-86974278D01*
X151940243Y-86940667D01*
X151780746Y-86912328D01*
X151635198Y-86891927D01*
X151517895Y-86882129D01*
X151489891Y-86881107D01*
X151116556Y-86868695D01*
X150776144Y-86860069D01*
X150460082Y-86855399D01*
X150159795Y-86854856D01*
X149866709Y-86858609D01*
X149572251Y-86866829D01*
X149267846Y-86879685D01*
X148944920Y-86897349D01*
X148594900Y-86919989D01*
X148209210Y-86947777D01*
X148153620Y-86952078D01*
X148039484Y-86961830D01*
X147943611Y-86971254D01*
X147874732Y-86979454D01*
X147841579Y-86985532D01*
X147820458Y-86990374D01*
X147760332Y-86999277D01*
X147674586Y-87009369D01*
X147574210Y-87019265D01*
X147481829Y-87027743D01*
X147375776Y-87038082D01*
X147264990Y-87049670D01*
X147139600Y-87063578D01*
X146989736Y-87080877D01*
X146805526Y-87102637D01*
X146740535Y-87110381D01*
X146453474Y-87144931D01*
X146206118Y-87175363D01*
X145994654Y-87202179D01*
X145815268Y-87225880D01*
X145664149Y-87246967D01*
X145537482Y-87265942D01*
X145431455Y-87283306D01*
X145365094Y-87294421D01*
X145273130Y-87308950D01*
X145201316Y-87319332D01*
X145185933Y-87321482D01*
X145121782Y-87333012D01*
X145078772Y-87344607D01*
X145038437Y-87355236D01*
X144978509Y-87363639D01*
X144968771Y-87364481D01*
X144831796Y-87383308D01*
X144655438Y-87418556D01*
X144593172Y-87434586D01*
X144504443Y-87460585D01*
X144397882Y-87493761D01*
X144281037Y-87531562D01*
X144161454Y-87571432D01*
X144046680Y-87610820D01*
X143944264Y-87647172D01*
X143861753Y-87677934D01*
X143806692Y-87700554D01*
X143786631Y-87712478D01*
X142429875Y-87712478D01*
X142471930Y-87703562D01*
X142488240Y-87700353D01*
X142582368Y-87680732D01*
X142672456Y-87660582D01*
X142688743Y-87656800D01*
X142782881Y-87635931D01*
X142872982Y-87617187D01*
X142888702Y-87614062D01*
X142983070Y-87594960D01*
X143073509Y-87576234D01*
X143085307Y-87573769D01*
X143162532Y-87558053D01*
X143261275Y-87538402D01*
X143363158Y-87518481D01*
X143389638Y-87513279D01*
X143484905Y-87493395D01*
X143567150Y-87474577D01*
X143620968Y-87460301D01*
X143681897Y-87445607D01*
X143741930Y-87438772D01*
X143796109Y-87433265D01*
X143862892Y-87418308D01*
X143941345Y-87398038D01*
X144064748Y-87371973D01*
X144216488Y-87344250D01*
X144388070Y-87316515D01*
X144422084Y-87311317D01*
X144603672Y-87282880D01*
X144773254Y-87255210D01*
X144922800Y-87229673D01*
X145044281Y-87207633D01*
X145129667Y-87190455D01*
X145180593Y-87180125D01*
X145278402Y-87162964D01*
X145374755Y-87148571D01*
X145375220Y-87148509D01*
X145469379Y-87135669D01*
X145582964Y-87119647D01*
X145691491Y-87103895D01*
X145702600Y-87102262D01*
X145801150Y-87088464D01*
X145892751Y-87076688D01*
X145958859Y-87069333D01*
X145984705Y-87066914D01*
X146109393Y-87054242D01*
X146227996Y-87040715D01*
X146330940Y-87027543D01*
X146408651Y-87015936D01*
X146451553Y-87007102D01*
X146472254Y-87002011D01*
X146512249Y-86995102D01*
X146573973Y-86986507D01*
X146661948Y-86975672D01*
X146780696Y-86962043D01*
X146934738Y-86945068D01*
X147128596Y-86924192D01*
X147152706Y-86921610D01*
X147280404Y-86907830D01*
X147414504Y-86893221D01*
X147529649Y-86880546D01*
X147595866Y-86873532D01*
X147719033Y-86861453D01*
X147854482Y-86849020D01*
X147982982Y-86838038D01*
X148083939Y-86829244D01*
X148177802Y-86819904D01*
X148247850Y-86811649D01*
X148283772Y-86805592D01*
X148300029Y-86802886D01*
X148357417Y-86796642D01*
X148448281Y-86788351D01*
X148565984Y-86778577D01*
X148703887Y-86767888D01*
X148855351Y-86756849D01*
X148927020Y-86752237D01*
X149097243Y-86743759D01*
X149295685Y-86736481D01*
X149516282Y-86730432D01*
X149752973Y-86725640D01*
X149999693Y-86722135D01*
X150250382Y-86719944D01*
X150498975Y-86719097D01*
X150739410Y-86719622D01*
X150965624Y-86721548D01*
X151171554Y-86724903D01*
X151351139Y-86729717D01*
X151498314Y-86736017D01*
X151607017Y-86743833D01*
X151694670Y-86753161D01*
X152011983Y-86800926D01*
X152290220Y-86866729D01*
X152528894Y-86950405D01*
X152727515Y-87051792D01*
X152885595Y-87170727D01*
X152988115Y-87290177D01*
X153055389Y-87429406D01*
X153081013Y-87580316D01*
X153074225Y-87647973D01*
X153064929Y-87740636D01*
G37*
%TD*%
D12*
%TO.C,J2*%
X106500000Y-70300000D03*
%TD*%
%TO.C,J3*%
X106500000Y-159300000D03*
%TD*%
%TO.C,J4*%
X182500000Y-70300000D03*
%TD*%
%TO.C,J5*%
X182500000Y-159300000D03*
%TD*%
D13*
%TO.C,J1*%
X123500000Y-124750000D03*
X125000000Y-124750000D03*
X126499999Y-124750000D03*
X128000001Y-124750000D03*
X129500001Y-124750000D03*
D14*
X120895001Y-119560000D03*
X132104999Y-119560000D03*
%TD*%
M02*
