%TF.GenerationSoftware,KiCad,Pcbnew,8.0.2-1*%
%TF.CreationDate,2024-05-28T20:36:57-07:00*%
%TF.ProjectId,solar-panel-side-Z,736f6c61-722d-4706-916e-656c2d736964,3.1*%
%TF.SameCoordinates,Original*%
%TF.FileFunction,Copper,L1,Top*%
%TF.FilePolarity,Positive*%
%FSLAX46Y46*%
G04 Gerber Fmt 4.6, Leading zero omitted, Abs format (unit mm)*
G04 Created by KiCad (PCBNEW 8.0.2-1) date 2024-05-28 20:36:57*
%MOMM*%
%LPD*%
G01*
G04 APERTURE LIST*
G04 Aperture macros list*
%AMRoundRect*
0 Rectangle with rounded corners*
0 $1 Rounding radius*
0 $2 $3 $4 $5 $6 $7 $8 $9 X,Y pos of 4 corners*
0 Add a 4 corners polygon primitive as box body*
4,1,4,$2,$3,$4,$5,$6,$7,$8,$9,$2,$3,0*
0 Add four circle primitives for the rounded corners*
1,1,$1+$1,$2,$3*
1,1,$1+$1,$4,$5*
1,1,$1+$1,$6,$7*
1,1,$1+$1,$8,$9*
0 Add four rect primitives between the rounded corners*
20,1,$1+$1,$2,$3,$4,$5,0*
20,1,$1+$1,$4,$5,$6,$7,0*
20,1,$1+$1,$6,$7,$8,$9,0*
20,1,$1+$1,$8,$9,$2,$3,0*%
%AMRotRect*
0 Rectangle, with rotation*
0 The origin of the aperture is its center*
0 $1 length*
0 $2 width*
0 $3 Rotation angle, in degrees counterclockwise*
0 Add horizontal line*
21,1,$1,$2,0,0,$3*%
G04 Aperture macros list end*
%ADD10C,0.250000*%
%TA.AperFunction,NonConductor*%
%ADD11C,0.250000*%
%TD*%
%TA.AperFunction,ComponentPad*%
%ADD12C,5.250000*%
%TD*%
%TA.AperFunction,SMDPad,CuDef*%
%ADD13RotRect,2.500000X1.700000X45.000000*%
%TD*%
%TA.AperFunction,SMDPad,CuDef*%
%ADD14RoundRect,0.750000X0.750000X-0.750000X0.750000X0.750000X-0.750000X0.750000X-0.750000X-0.750000X0*%
%TD*%
%TA.AperFunction,SMDPad,CuDef*%
%ADD15RoundRect,0.218750X0.335876X0.026517X0.026517X0.335876X-0.335876X-0.026517X-0.026517X-0.335876X0*%
%TD*%
%TA.AperFunction,SMDPad,CuDef*%
%ADD16RoundRect,0.250000X0.512652X0.159099X0.159099X0.512652X-0.512652X-0.159099X-0.159099X-0.512652X0*%
%TD*%
%TA.AperFunction,SMDPad,CuDef*%
%ADD17RotRect,13.000000X3.000000X45.000000*%
%TD*%
%TA.AperFunction,SMDPad,CuDef*%
%ADD18RoundRect,0.087500X-0.477297X0.353553X0.353553X-0.477297X0.477297X-0.353553X-0.353553X0.477297X0*%
%TD*%
%TA.AperFunction,SMDPad,CuDef*%
%ADD19RotRect,2.500000X3.000000X315.000000*%
%TD*%
%TA.AperFunction,SMDPad,CuDef*%
%ADD20RoundRect,0.200000X-0.335876X-0.053033X-0.053033X-0.335876X0.335876X0.053033X0.053033X0.335876X0*%
%TD*%
%TA.AperFunction,SMDPad,CuDef*%
%ADD21RoundRect,0.075000X-0.512652X0.406586X0.406586X-0.512652X0.512652X-0.406586X-0.406586X0.512652X0*%
%TD*%
%TA.AperFunction,SMDPad,CuDef*%
%ADD22RotRect,2.500000X1.700000X135.000000*%
%TD*%
%TA.AperFunction,SMDPad,CuDef*%
%ADD23RotRect,1.600000X0.700000X135.000000*%
%TD*%
%TA.AperFunction,SMDPad,CuDef*%
%ADD24RotRect,13.000000X3.000000X225.000000*%
%TD*%
%TA.AperFunction,ViaPad*%
%ADD25C,0.800000*%
%TD*%
%TA.AperFunction,Conductor*%
%ADD26C,0.250000*%
%TD*%
%TA.AperFunction,Conductor*%
%ADD27C,0.500000*%
%TD*%
G04 APERTURE END LIST*
D10*
D11*
X137654949Y-131578904D02*
X138131139Y-131578904D01*
X137559711Y-131864619D02*
X137893044Y-130864619D01*
X137893044Y-130864619D02*
X138226377Y-131864619D01*
X138559711Y-131864619D02*
X138559711Y-131197952D01*
X138559711Y-131388428D02*
X138607330Y-131293190D01*
X138607330Y-131293190D02*
X138654949Y-131245571D01*
X138654949Y-131245571D02*
X138750187Y-131197952D01*
X138750187Y-131197952D02*
X138845425Y-131197952D01*
X139035902Y-131197952D02*
X139416854Y-131197952D01*
X139178759Y-130864619D02*
X139178759Y-131721761D01*
X139178759Y-131721761D02*
X139226378Y-131817000D01*
X139226378Y-131817000D02*
X139321616Y-131864619D01*
X139321616Y-131864619D02*
X139416854Y-131864619D01*
X139750188Y-131864619D02*
X139750188Y-131197952D01*
X139750188Y-130864619D02*
X139702569Y-130912238D01*
X139702569Y-130912238D02*
X139750188Y-130959857D01*
X139750188Y-130959857D02*
X139797807Y-130912238D01*
X139797807Y-130912238D02*
X139750188Y-130864619D01*
X139750188Y-130864619D02*
X139750188Y-130959857D01*
X140178759Y-131817000D02*
X140273997Y-131864619D01*
X140273997Y-131864619D02*
X140464473Y-131864619D01*
X140464473Y-131864619D02*
X140559711Y-131817000D01*
X140559711Y-131817000D02*
X140607330Y-131721761D01*
X140607330Y-131721761D02*
X140607330Y-131674142D01*
X140607330Y-131674142D02*
X140559711Y-131578904D01*
X140559711Y-131578904D02*
X140464473Y-131531285D01*
X140464473Y-131531285D02*
X140321616Y-131531285D01*
X140321616Y-131531285D02*
X140226378Y-131483666D01*
X140226378Y-131483666D02*
X140178759Y-131388428D01*
X140178759Y-131388428D02*
X140178759Y-131340809D01*
X140178759Y-131340809D02*
X140226378Y-131245571D01*
X140226378Y-131245571D02*
X140321616Y-131197952D01*
X140321616Y-131197952D02*
X140464473Y-131197952D01*
X140464473Y-131197952D02*
X140559711Y-131245571D01*
X141464473Y-131864619D02*
X141464473Y-131340809D01*
X141464473Y-131340809D02*
X141416854Y-131245571D01*
X141416854Y-131245571D02*
X141321616Y-131197952D01*
X141321616Y-131197952D02*
X141131140Y-131197952D01*
X141131140Y-131197952D02*
X141035902Y-131245571D01*
X141464473Y-131817000D02*
X141369235Y-131864619D01*
X141369235Y-131864619D02*
X141131140Y-131864619D01*
X141131140Y-131864619D02*
X141035902Y-131817000D01*
X141035902Y-131817000D02*
X140988283Y-131721761D01*
X140988283Y-131721761D02*
X140988283Y-131626523D01*
X140988283Y-131626523D02*
X141035902Y-131531285D01*
X141035902Y-131531285D02*
X141131140Y-131483666D01*
X141131140Y-131483666D02*
X141369235Y-131483666D01*
X141369235Y-131483666D02*
X141464473Y-131436047D01*
X141940664Y-131197952D02*
X141940664Y-131864619D01*
X141940664Y-131293190D02*
X141988283Y-131245571D01*
X141988283Y-131245571D02*
X142083521Y-131197952D01*
X142083521Y-131197952D02*
X142226378Y-131197952D01*
X142226378Y-131197952D02*
X142321616Y-131245571D01*
X142321616Y-131245571D02*
X142369235Y-131340809D01*
X142369235Y-131340809D02*
X142369235Y-131864619D01*
X143273997Y-131864619D02*
X143273997Y-131340809D01*
X143273997Y-131340809D02*
X143226378Y-131245571D01*
X143226378Y-131245571D02*
X143131140Y-131197952D01*
X143131140Y-131197952D02*
X142940664Y-131197952D01*
X142940664Y-131197952D02*
X142845426Y-131245571D01*
X143273997Y-131817000D02*
X143178759Y-131864619D01*
X143178759Y-131864619D02*
X142940664Y-131864619D01*
X142940664Y-131864619D02*
X142845426Y-131817000D01*
X142845426Y-131817000D02*
X142797807Y-131721761D01*
X142797807Y-131721761D02*
X142797807Y-131626523D01*
X142797807Y-131626523D02*
X142845426Y-131531285D01*
X142845426Y-131531285D02*
X142940664Y-131483666D01*
X142940664Y-131483666D02*
X143178759Y-131483666D01*
X143178759Y-131483666D02*
X143273997Y-131436047D01*
X143893045Y-131864619D02*
X143797807Y-131817000D01*
X143797807Y-131817000D02*
X143750188Y-131721761D01*
X143750188Y-131721761D02*
X143750188Y-130864619D01*
X144416855Y-131864619D02*
X144321617Y-131817000D01*
X144321617Y-131817000D02*
X144273998Y-131721761D01*
X144273998Y-131721761D02*
X144273998Y-130864619D01*
X144702570Y-131197952D02*
X144940665Y-131864619D01*
X145178760Y-131197952D02*
X144940665Y-131864619D01*
X144940665Y-131864619D02*
X144845427Y-132102714D01*
X144845427Y-132102714D02*
X144797808Y-132150333D01*
X144797808Y-132150333D02*
X144702570Y-132197952D01*
X146321618Y-131864619D02*
X146321618Y-130864619D01*
X146321618Y-131340809D02*
X146893046Y-131340809D01*
X146893046Y-131864619D02*
X146893046Y-130864619D01*
X147797808Y-131864619D02*
X147797808Y-131340809D01*
X147797808Y-131340809D02*
X147750189Y-131245571D01*
X147750189Y-131245571D02*
X147654951Y-131197952D01*
X147654951Y-131197952D02*
X147464475Y-131197952D01*
X147464475Y-131197952D02*
X147369237Y-131245571D01*
X147797808Y-131817000D02*
X147702570Y-131864619D01*
X147702570Y-131864619D02*
X147464475Y-131864619D01*
X147464475Y-131864619D02*
X147369237Y-131817000D01*
X147369237Y-131817000D02*
X147321618Y-131721761D01*
X147321618Y-131721761D02*
X147321618Y-131626523D01*
X147321618Y-131626523D02*
X147369237Y-131531285D01*
X147369237Y-131531285D02*
X147464475Y-131483666D01*
X147464475Y-131483666D02*
X147702570Y-131483666D01*
X147702570Y-131483666D02*
X147797808Y-131436047D01*
X148273999Y-131197952D02*
X148273999Y-131864619D01*
X148273999Y-131293190D02*
X148321618Y-131245571D01*
X148321618Y-131245571D02*
X148416856Y-131197952D01*
X148416856Y-131197952D02*
X148559713Y-131197952D01*
X148559713Y-131197952D02*
X148654951Y-131245571D01*
X148654951Y-131245571D02*
X148702570Y-131340809D01*
X148702570Y-131340809D02*
X148702570Y-131864619D01*
X149607332Y-131864619D02*
X149607332Y-130864619D01*
X149607332Y-131817000D02*
X149512094Y-131864619D01*
X149512094Y-131864619D02*
X149321618Y-131864619D01*
X149321618Y-131864619D02*
X149226380Y-131817000D01*
X149226380Y-131817000D02*
X149178761Y-131769380D01*
X149178761Y-131769380D02*
X149131142Y-131674142D01*
X149131142Y-131674142D02*
X149131142Y-131388428D01*
X149131142Y-131388428D02*
X149178761Y-131293190D01*
X149178761Y-131293190D02*
X149226380Y-131245571D01*
X149226380Y-131245571D02*
X149321618Y-131197952D01*
X149321618Y-131197952D02*
X149512094Y-131197952D01*
X149512094Y-131197952D02*
X149607332Y-131245571D01*
X151416856Y-131769380D02*
X151369237Y-131817000D01*
X151369237Y-131817000D02*
X151226380Y-131864619D01*
X151226380Y-131864619D02*
X151131142Y-131864619D01*
X151131142Y-131864619D02*
X150988285Y-131817000D01*
X150988285Y-131817000D02*
X150893047Y-131721761D01*
X150893047Y-131721761D02*
X150845428Y-131626523D01*
X150845428Y-131626523D02*
X150797809Y-131436047D01*
X150797809Y-131436047D02*
X150797809Y-131293190D01*
X150797809Y-131293190D02*
X150845428Y-131102714D01*
X150845428Y-131102714D02*
X150893047Y-131007476D01*
X150893047Y-131007476D02*
X150988285Y-130912238D01*
X150988285Y-130912238D02*
X151131142Y-130864619D01*
X151131142Y-130864619D02*
X151226380Y-130864619D01*
X151226380Y-130864619D02*
X151369237Y-130912238D01*
X151369237Y-130912238D02*
X151416856Y-130959857D01*
X151845428Y-131864619D02*
X151845428Y-131197952D01*
X151845428Y-131388428D02*
X151893047Y-131293190D01*
X151893047Y-131293190D02*
X151940666Y-131245571D01*
X151940666Y-131245571D02*
X152035904Y-131197952D01*
X152035904Y-131197952D02*
X152131142Y-131197952D01*
X152893047Y-131864619D02*
X152893047Y-131340809D01*
X152893047Y-131340809D02*
X152845428Y-131245571D01*
X152845428Y-131245571D02*
X152750190Y-131197952D01*
X152750190Y-131197952D02*
X152559714Y-131197952D01*
X152559714Y-131197952D02*
X152464476Y-131245571D01*
X152893047Y-131817000D02*
X152797809Y-131864619D01*
X152797809Y-131864619D02*
X152559714Y-131864619D01*
X152559714Y-131864619D02*
X152464476Y-131817000D01*
X152464476Y-131817000D02*
X152416857Y-131721761D01*
X152416857Y-131721761D02*
X152416857Y-131626523D01*
X152416857Y-131626523D02*
X152464476Y-131531285D01*
X152464476Y-131531285D02*
X152559714Y-131483666D01*
X152559714Y-131483666D02*
X152797809Y-131483666D01*
X152797809Y-131483666D02*
X152893047Y-131436047D01*
X153226381Y-131197952D02*
X153607333Y-131197952D01*
X153369238Y-131864619D02*
X153369238Y-131007476D01*
X153369238Y-131007476D02*
X153416857Y-130912238D01*
X153416857Y-130912238D02*
X153512095Y-130864619D01*
X153512095Y-130864619D02*
X153607333Y-130864619D01*
X153797810Y-131197952D02*
X154178762Y-131197952D01*
X153940667Y-130864619D02*
X153940667Y-131721761D01*
X153940667Y-131721761D02*
X153988286Y-131817000D01*
X153988286Y-131817000D02*
X154083524Y-131864619D01*
X154083524Y-131864619D02*
X154178762Y-131864619D01*
X154893048Y-131817000D02*
X154797810Y-131864619D01*
X154797810Y-131864619D02*
X154607334Y-131864619D01*
X154607334Y-131864619D02*
X154512096Y-131817000D01*
X154512096Y-131817000D02*
X154464477Y-131721761D01*
X154464477Y-131721761D02*
X154464477Y-131340809D01*
X154464477Y-131340809D02*
X154512096Y-131245571D01*
X154512096Y-131245571D02*
X154607334Y-131197952D01*
X154607334Y-131197952D02*
X154797810Y-131197952D01*
X154797810Y-131197952D02*
X154893048Y-131245571D01*
X154893048Y-131245571D02*
X154940667Y-131340809D01*
X154940667Y-131340809D02*
X154940667Y-131436047D01*
X154940667Y-131436047D02*
X154464477Y-131531285D01*
X155797810Y-131864619D02*
X155797810Y-130864619D01*
X155797810Y-131817000D02*
X155702572Y-131864619D01*
X155702572Y-131864619D02*
X155512096Y-131864619D01*
X155512096Y-131864619D02*
X155416858Y-131817000D01*
X155416858Y-131817000D02*
X155369239Y-131769380D01*
X155369239Y-131769380D02*
X155321620Y-131674142D01*
X155321620Y-131674142D02*
X155321620Y-131388428D01*
X155321620Y-131388428D02*
X155369239Y-131293190D01*
X155369239Y-131293190D02*
X155416858Y-131245571D01*
X155416858Y-131245571D02*
X155512096Y-131197952D01*
X155512096Y-131197952D02*
X155702572Y-131197952D01*
X155702572Y-131197952D02*
X155797810Y-131245571D01*
X157035906Y-131864619D02*
X157035906Y-130864619D01*
X157035906Y-130864619D02*
X157416858Y-130864619D01*
X157416858Y-130864619D02*
X157512096Y-130912238D01*
X157512096Y-130912238D02*
X157559715Y-130959857D01*
X157559715Y-130959857D02*
X157607334Y-131055095D01*
X157607334Y-131055095D02*
X157607334Y-131197952D01*
X157607334Y-131197952D02*
X157559715Y-131293190D01*
X157559715Y-131293190D02*
X157512096Y-131340809D01*
X157512096Y-131340809D02*
X157416858Y-131388428D01*
X157416858Y-131388428D02*
X157035906Y-131388428D01*
X158607334Y-131769380D02*
X158559715Y-131817000D01*
X158559715Y-131817000D02*
X158416858Y-131864619D01*
X158416858Y-131864619D02*
X158321620Y-131864619D01*
X158321620Y-131864619D02*
X158178763Y-131817000D01*
X158178763Y-131817000D02*
X158083525Y-131721761D01*
X158083525Y-131721761D02*
X158035906Y-131626523D01*
X158035906Y-131626523D02*
X157988287Y-131436047D01*
X157988287Y-131436047D02*
X157988287Y-131293190D01*
X157988287Y-131293190D02*
X158035906Y-131102714D01*
X158035906Y-131102714D02*
X158083525Y-131007476D01*
X158083525Y-131007476D02*
X158178763Y-130912238D01*
X158178763Y-130912238D02*
X158321620Y-130864619D01*
X158321620Y-130864619D02*
X158416858Y-130864619D01*
X158416858Y-130864619D02*
X158559715Y-130912238D01*
X158559715Y-130912238D02*
X158607334Y-130959857D01*
X159369239Y-131340809D02*
X159512096Y-131388428D01*
X159512096Y-131388428D02*
X159559715Y-131436047D01*
X159559715Y-131436047D02*
X159607334Y-131531285D01*
X159607334Y-131531285D02*
X159607334Y-131674142D01*
X159607334Y-131674142D02*
X159559715Y-131769380D01*
X159559715Y-131769380D02*
X159512096Y-131817000D01*
X159512096Y-131817000D02*
X159416858Y-131864619D01*
X159416858Y-131864619D02*
X159035906Y-131864619D01*
X159035906Y-131864619D02*
X159035906Y-130864619D01*
X159035906Y-130864619D02*
X159369239Y-130864619D01*
X159369239Y-130864619D02*
X159464477Y-130912238D01*
X159464477Y-130912238D02*
X159512096Y-130959857D01*
X159512096Y-130959857D02*
X159559715Y-131055095D01*
X159559715Y-131055095D02*
X159559715Y-131150333D01*
X159559715Y-131150333D02*
X159512096Y-131245571D01*
X159512096Y-131245571D02*
X159464477Y-131293190D01*
X159464477Y-131293190D02*
X159369239Y-131340809D01*
X159369239Y-131340809D02*
X159035906Y-131340809D01*
D12*
%TO.P,J4,1,Pin_1*%
%TO.N,unconnected-(J4-Pin_1-Pad1)*%
X110500000Y-85000000D03*
%TD*%
%TO.P,J5,1,Pin_1*%
%TO.N,unconnected-(J5-Pin_1-Pad1)*%
X149500000Y-124000000D03*
%TD*%
%TO.P,J6,1,Pin_1*%
%TO.N,unconnected-(J6-Pin_1-Pad1)*%
X149500000Y-46000000D03*
%TD*%
%TO.P,J7,1,Pin_1*%
%TO.N,unconnected-(J7-Pin_1-Pad1)*%
X188500000Y-85000000D03*
%TD*%
D13*
%TO.P,D2,1,K*%
%TO.N,VSOLAR*%
X112421572Y-50578428D03*
%TO.P,D2,2,A*%
%TO.N,Net-(D2-A)*%
X115250000Y-47750000D03*
%TD*%
D14*
%TO.P,TP1,1,1*%
%TO.N,VSOLAR*%
X113410000Y-130950000D03*
%TD*%
D15*
%TO.P,D4,1,K*%
%TO.N,GND*%
X168840000Y-69680000D03*
%TO.P,D4,2,A*%
%TO.N,Net-(D4-A)*%
X167726306Y-68566306D03*
%TD*%
D16*
%TO.P,C3,1*%
%TO.N,Net-(U2-REG)*%
X141201700Y-91147870D03*
%TO.P,C3,2*%
%TO.N,GND*%
X139858198Y-89804368D03*
%TD*%
D17*
%TO.P,SC5,1,+*%
%TO.N,Net-(D3-A)*%
X108537864Y-97657864D03*
%TO.P,SC5,2,-*%
%TO.N,Net-(SC5--)*%
X136822136Y-125942136D03*
%TD*%
D18*
%TO.P,U3,1,SDA*%
%TO.N,SDA*%
X161192721Y-70719477D03*
%TO.P,U3,2,SCL*%
%TO.N,SCL*%
X160733101Y-71179096D03*
%TO.P,U3,3,Alert*%
%TO.N,unconnected-(U3-Alert-Pad3)*%
X160273482Y-71638715D03*
%TO.P,U3,4,GND*%
%TO.N,GND*%
X159813863Y-72098335D03*
%TO.P,U3,5,A2*%
X162889777Y-75174249D03*
%TO.P,U3,6,A1*%
%TO.N,+3V3*%
X163349397Y-74714630D03*
%TO.P,U3,7,A0*%
X163809016Y-74255011D03*
%TO.P,U3,8,VDD*%
X164268635Y-73795391D03*
D19*
%TO.P,U3,9,EP/GND*%
%TO.N,GND*%
X162041249Y-72946863D03*
%TD*%
D14*
%TO.P,TP2,1,1*%
%TO.N,GND*%
X119890000Y-130920000D03*
%TD*%
D17*
%TO.P,SC3,1,+*%
%TO.N,Net-(D2-A)*%
X125000000Y-43980000D03*
%TO.P,SC3,2,-*%
%TO.N,Net-(SC3--)*%
X153284272Y-72264272D03*
%TD*%
D20*
%TO.P,R1,1*%
%TO.N,+3V3*%
X164836005Y-65732575D03*
%TO.P,R1,2*%
%TO.N,Net-(D4-A)*%
X166002731Y-66899301D03*
%TD*%
D16*
%TO.P,C2,1*%
%TO.N,+3V3*%
X137128765Y-95263232D03*
%TO.P,C2,2*%
%TO.N,GND*%
X135785263Y-93919730D03*
%TD*%
D21*
%TO.P,U2,1,REG*%
%TO.N,Net-(U2-REG)*%
X139893554Y-92470160D03*
%TO.P,U2,2,SCL*%
%TO.N,SCL*%
X139540000Y-92823714D03*
%TO.P,U2,3,SDA*%
%TO.N,SDA*%
X139186447Y-93177267D03*
%TO.P,U2,4,IN/TRIG*%
%TO.N,GND*%
X138832894Y-93530820D03*
%TO.P,U2,5,EN*%
%TO.N,+3V3*%
X138479340Y-93884374D03*
%TO.P,U2,6,VDD/NC*%
%TO.N,unconnected-(U2-VDD{slash}NC-Pad6)*%
X141590610Y-96995644D03*
%TO.P,U2,7,OUT+*%
%TO.N,Net-(U2-OUT+)*%
X141944164Y-96642090D03*
%TO.P,U2,8,GND*%
%TO.N,GND*%
X142297717Y-96288537D03*
%TO.P,U2,9,OUT-*%
%TO.N,Net-(U2-OUT+)*%
X142651270Y-95934984D03*
%TO.P,U2,10,VDD*%
%TO.N,+3V3*%
X143004824Y-95581430D03*
%TD*%
D22*
%TO.P,D3,1,K*%
%TO.N,VSOLAR*%
X133978428Y-103318428D03*
%TO.P,D3,2,A*%
%TO.N,Net-(D3-A)*%
X131150000Y-100490000D03*
%TD*%
D16*
%TO.P,C1,1*%
%TO.N,+3V3*%
X164240000Y-71195441D03*
%TO.P,C1,2*%
%TO.N,GND*%
X162896498Y-69851939D03*
%TD*%
D23*
%TO.P,U1,1,SCL*%
%TO.N,SCL*%
X155819358Y-80333435D03*
%TO.P,U1,2,VDD*%
%TO.N,+3V3*%
X156717383Y-79435409D03*
%TO.P,U1,3,GND*%
%TO.N,GND*%
X157615409Y-78537383D03*
%TO.P,U1,4,SDA*%
%TO.N,SDA*%
X158513435Y-77639358D03*
%TD*%
D24*
%TO.P,SC4,1,+*%
%TO.N,Net-(SC3--)*%
X136824272Y-88734272D03*
%TO.P,SC4,2,-*%
%TO.N,GND*%
X108540000Y-60450000D03*
%TD*%
D17*
%TO.P,SC6,1,+*%
%TO.N,Net-(SC5--)*%
X145755728Y-97665728D03*
%TO.P,SC6,2,-*%
%TO.N,GND*%
X174040000Y-125950000D03*
%TD*%
D24*
%TO.P,SC2,1,+*%
%TO.N,Net-(SC1--)*%
X190462136Y-72342136D03*
%TO.P,SC2,2,-*%
%TO.N,GND*%
X162177864Y-44057864D03*
%TD*%
D13*
%TO.P,D1,1,K*%
%TO.N,VSOLAR*%
X184161572Y-122588428D03*
%TO.P,D1,2,A*%
%TO.N,Net-(D1-A)*%
X186990000Y-119760000D03*
%TD*%
D24*
%TO.P,SC1,1,+*%
%TO.N,Net-(D1-A)*%
X190480000Y-109480000D03*
%TO.P,SC1,2,-*%
%TO.N,Net-(SC1--)*%
X162195728Y-81195728D03*
%TD*%
D25*
%TO.N,GND*%
X171630000Y-123540000D03*
X161490000Y-69180000D03*
X164540000Y-46420000D03*
X156260000Y-77181974D03*
X145680000Y-105410000D03*
X148900000Y-105410000D03*
X137946283Y-91716283D03*
X111040000Y-62950000D03*
X165948061Y-69851939D03*
X119890000Y-126760000D03*
%TO.N,+3V3*%
X116900000Y-59950000D03*
X165140000Y-72790000D03*
X165980000Y-102000000D03*
%TO.N,VSOLAR*%
X132315000Y-96935000D03*
X188000000Y-62790000D03*
X198050000Y-65120000D03*
X188210000Y-122990000D03*
%TO.N,SDA*%
X144270000Y-90620000D03*
X153960000Y-75540000D03*
X157770000Y-123090000D03*
X153530000Y-123080000D03*
X144245000Y-93955000D03*
X156630000Y-75850000D03*
%TO.N,SCL*%
X157434500Y-121970000D03*
X153670000Y-121990000D03*
X143511396Y-92641396D03*
%TO.N,SDA_Break*%
X169800000Y-97570000D03*
X144850000Y-101950000D03*
%TO.N,SCL_Break*%
X145372687Y-102815246D03*
X168080000Y-97620000D03*
%TO.N,Net-(SC5--)*%
X139330000Y-104100000D03*
X133930000Y-123050000D03*
%TO.N,Net-(U2-OUT+)*%
X147180000Y-121330000D03*
X141780000Y-94680000D03*
X150850000Y-109290000D03*
X140460000Y-95870000D03*
X151860000Y-121250000D03*
%TO.N,F2_ENB*%
X194460000Y-63910000D03*
X189570000Y-64130000D03*
%TO.N,F2_SCL*%
X190000000Y-65100000D03*
X195700000Y-64650000D03*
%TO.N,F2_SDA*%
X196900000Y-65780000D03*
X190820000Y-66290000D03*
%TO.N,3v3_break*%
X169240000Y-98420000D03*
X145470000Y-103810000D03*
%TO.N,Camera_Pwr*%
X148409960Y-78339960D03*
X152600000Y-80680000D03*
%TO.N,Camera_SCL*%
X147160000Y-80390000D03*
X151592701Y-80697299D03*
%TO.N,Camera_SDA*%
X151257701Y-79612299D03*
X147806483Y-79534500D03*
%TD*%
D26*
%TO.N,GND*%
X162041249Y-74325721D02*
X162041249Y-72946863D01*
X140944595Y-94935415D02*
X142297717Y-96288537D01*
D27*
X174040000Y-125950000D02*
X171630000Y-123540000D01*
D26*
X168668061Y-69851939D02*
X168840000Y-69680000D01*
D27*
X162177864Y-44057864D02*
X164540000Y-46420000D01*
D26*
X137946283Y-91716283D02*
X137984365Y-91678201D01*
X137984365Y-91678201D02*
X139858198Y-89804368D01*
X138832894Y-93530820D02*
X140242074Y-94940000D01*
X165948061Y-69851939D02*
X168668061Y-69851939D01*
X137984365Y-92710576D02*
X137984365Y-91678201D01*
X140246659Y-94935415D02*
X140944595Y-94935415D01*
D27*
X119890000Y-130920000D02*
X119890000Y-126760000D01*
D26*
X162896498Y-72091614D02*
X162896498Y-69851939D01*
X162896498Y-69851939D02*
X165948061Y-69851939D01*
D27*
X108540000Y-60450000D02*
X111040000Y-62950000D01*
D26*
X162889777Y-75174249D02*
X162041249Y-74325721D01*
X157615409Y-78537383D02*
X156260000Y-77181974D01*
X162896498Y-69851939D02*
X162161939Y-69851939D01*
X140242074Y-94940000D02*
X140246659Y-94935415D01*
X135785263Y-93877303D02*
X137946283Y-91716283D01*
X162161939Y-69851939D02*
X161490000Y-69180000D01*
X159813863Y-72098335D02*
X160662391Y-72946863D01*
X160662391Y-72946863D02*
X162041249Y-72946863D01*
X145680000Y-105410000D02*
X148900000Y-105410000D01*
X135785263Y-93919730D02*
X135785263Y-93934737D01*
X162041249Y-72946863D02*
X162896498Y-72091614D01*
X138804609Y-93530820D02*
X137984365Y-92710576D01*
%TO.N,+3V3*%
X143700000Y-96690000D02*
X142140000Y-98250000D01*
X143004824Y-95581430D02*
X143700000Y-96276606D01*
X133560000Y-94935841D02*
X142806126Y-85689715D01*
X142806126Y-85689715D02*
X142806126Y-85683874D01*
X143700000Y-96276606D02*
X143700000Y-96690000D01*
X134210000Y-96330000D02*
X133560000Y-95680000D01*
X143004824Y-95581430D02*
X143004824Y-95575176D01*
X143004824Y-95581430D02*
X143004824Y-95594824D01*
X163349397Y-74714629D02*
X164268635Y-73795391D01*
X133560000Y-95680000D02*
X133560000Y-94935841D01*
X164314249Y-73615751D02*
X165140000Y-72790000D01*
X137128766Y-95263232D02*
X138479340Y-93912658D01*
X143004824Y-95575176D02*
X143540000Y-95040000D01*
X136030000Y-96330000D02*
X134210000Y-96330000D01*
X137096768Y-95263232D02*
X136030000Y-96330000D01*
X163349397Y-74714630D02*
X163349397Y-74714629D01*
X143600000Y-96190000D02*
X144210000Y-96190000D01*
X143004824Y-95594824D02*
X143600000Y-96190000D01*
X142806126Y-85683874D02*
X143090000Y-85400000D01*
X137128765Y-95263232D02*
X137096768Y-95263232D01*
D27*
%TO.N,VSOLAR*%
X113410000Y-124310000D02*
X113410000Y-123990000D01*
X184993144Y-123420000D02*
X184161572Y-122588428D01*
X133978428Y-103318428D02*
X113410000Y-123886856D01*
X188000000Y-62790000D02*
X195720000Y-62790000D01*
X114646854Y-52803710D02*
X114653710Y-52803710D01*
X195720000Y-62790000D02*
X198050000Y-65120000D01*
X187780000Y-123420000D02*
X184993144Y-123420000D01*
X133978428Y-103318428D02*
X145100000Y-114440000D01*
X120480000Y-58630000D02*
X120480000Y-85100000D01*
X133978428Y-98598428D02*
X132315000Y-96935000D01*
X113410000Y-130950000D02*
X113410000Y-124310000D01*
X120480000Y-85100000D02*
X132300000Y-96920000D01*
X133978428Y-103318428D02*
X133978428Y-98598428D01*
X145100000Y-114440000D02*
X176013144Y-114440000D01*
X112421572Y-50578428D02*
X114646854Y-52803710D01*
X114653710Y-52803710D02*
X120480000Y-58630000D01*
X113410000Y-123886856D02*
X113410000Y-124310000D01*
X188210000Y-122990000D02*
X187780000Y-123420000D01*
X176013144Y-114440000D02*
X184161572Y-122588428D01*
D26*
%TO.N,SDA*%
X158449358Y-77639358D02*
X157140000Y-76330000D01*
X160163244Y-69690000D02*
X161192721Y-70719477D01*
X144270000Y-90620000D02*
X153960000Y-80930000D01*
X153960000Y-80930000D02*
X153960000Y-74980000D01*
X157140000Y-76330000D02*
X156660000Y-75850000D01*
X139964180Y-93955000D02*
X144245000Y-93955000D01*
X153540000Y-123090000D02*
X153530000Y-123080000D01*
X153960000Y-74980000D02*
X159250000Y-69690000D01*
X158513435Y-77639358D02*
X158449358Y-77639358D01*
X159250000Y-69690000D02*
X160163244Y-69690000D01*
X157770000Y-123090000D02*
X153540000Y-123090000D01*
X139186447Y-93177267D02*
X139964180Y-93955000D01*
X156660000Y-75850000D02*
X156630000Y-75850000D01*
%TO.N,SCL*%
X158918198Y-70658198D02*
X160212203Y-70658198D01*
X139540000Y-92823714D02*
X140099098Y-93382812D01*
X143511396Y-92641396D02*
X155819358Y-80333435D01*
X157414500Y-121990000D02*
X157434500Y-121970000D01*
X153670000Y-121990000D02*
X157414500Y-121990000D01*
X155275000Y-74301396D02*
X158918198Y-70658198D01*
X160212203Y-70658198D02*
X160733101Y-71179096D01*
X140099098Y-93382812D02*
X142769981Y-93382812D01*
X142769981Y-93382812D02*
X143511396Y-92641396D01*
X155275000Y-79895000D02*
X155275000Y-74301396D01*
%TO.N,Net-(U2-REG)*%
X139893553Y-92470160D02*
X141201701Y-91162013D01*
D27*
%TO.N,Net-(D1-A)*%
X190480000Y-109480000D02*
X190480000Y-116270000D01*
X190480000Y-116270000D02*
X186990000Y-119760000D01*
%TO.N,Net-(D2-A)*%
X125000000Y-43980000D02*
X119020000Y-43980000D01*
X119020000Y-43980000D02*
X115250000Y-47750000D01*
%TO.N,Net-(D3-A)*%
X108537864Y-97657864D02*
X128317864Y-97657864D01*
X128317864Y-97657864D02*
X131150000Y-100490000D01*
D26*
%TO.N,Net-(D4-A)*%
X166002732Y-66899302D02*
X167669736Y-68566306D01*
%TO.N,SDA_Break*%
X169800000Y-97570000D02*
X168530000Y-96300000D01*
X166400000Y-96300000D02*
X160750000Y-101950000D01*
X168530000Y-96300000D02*
X166400000Y-96300000D01*
X160750000Y-101950000D02*
X144850000Y-101950000D01*
%TO.N,SCL_Break*%
X161084754Y-102815246D02*
X145372687Y-102815246D01*
X166280000Y-97620000D02*
X161084754Y-102815246D01*
X168080000Y-97620000D02*
X166280000Y-97620000D01*
D27*
%TO.N,Net-(SC1--)*%
X190462136Y-72342136D02*
X171049320Y-72342136D01*
X171049320Y-72342136D02*
X162195728Y-81195728D01*
%TO.N,Net-(SC3--)*%
X152965728Y-72264272D02*
X153284272Y-72264272D01*
X136824272Y-88405728D02*
X152965728Y-72264272D01*
X136824272Y-88734272D02*
X136824272Y-88405728D01*
%TO.N,Net-(SC5--)*%
X136822136Y-125942136D02*
X133930000Y-123050000D01*
X145755728Y-97674272D02*
X139330000Y-104100000D01*
X145755728Y-97665728D02*
X145755728Y-97674272D01*
D26*
%TO.N,Net-(U2-OUT+)*%
X141172074Y-95870000D02*
X140460000Y-95870000D01*
X142651270Y-95934984D02*
X141780000Y-95063714D01*
X141944164Y-96642090D02*
X141172074Y-95870000D01*
X141780000Y-95063714D02*
X141780000Y-94680000D01*
%TO.N,F2_ENB*%
X194230000Y-64140000D02*
X189580000Y-64140000D01*
X194460000Y-63910000D02*
X194230000Y-64140000D01*
X189580000Y-64140000D02*
X189570000Y-64130000D01*
%TO.N,F2_SCL*%
X195250000Y-65100000D02*
X195700000Y-64650000D01*
X190000000Y-65100000D02*
X195250000Y-65100000D01*
%TO.N,F2_SDA*%
X191330000Y-65780000D02*
X196900000Y-65780000D01*
X190820000Y-66290000D02*
X191330000Y-65780000D01*
%TO.N,3v3_break*%
X166940000Y-98420000D02*
X161550000Y-103810000D01*
X161550000Y-103810000D02*
X145470000Y-103810000D01*
X169240000Y-98420000D02*
X166940000Y-98420000D01*
%TO.N,Camera_Pwr*%
X151009960Y-78339960D02*
X152600000Y-79930000D01*
X152600000Y-79930000D02*
X152600000Y-80680000D01*
X148409960Y-78339960D02*
X151009960Y-78339960D01*
%TO.N,Camera_SCL*%
X147467299Y-80697299D02*
X151592701Y-80697299D01*
X147160000Y-80390000D02*
X147467299Y-80697299D01*
%TO.N,Camera_SDA*%
X151179902Y-79534500D02*
X147806483Y-79534500D01*
X151257701Y-79612299D02*
X151179902Y-79534500D01*
%TD*%
%TA.AperFunction,Conductor*%
%TO.N,+3V3*%
G36*
X146167231Y-80239614D02*
G01*
X146224067Y-80282161D01*
X146248878Y-80348681D01*
X146248509Y-80370836D01*
X146246496Y-80389995D01*
X146246496Y-80389998D01*
X146266457Y-80579927D01*
X146293576Y-80663388D01*
X146325473Y-80761556D01*
X146325476Y-80761561D01*
X146420958Y-80926941D01*
X146420965Y-80926951D01*
X146548744Y-81068864D01*
X146548747Y-81068866D01*
X146703248Y-81181118D01*
X146877712Y-81258794D01*
X147064513Y-81298500D01*
X147238248Y-81298500D01*
X147276167Y-81306041D01*
X147276588Y-81304656D01*
X147282504Y-81306450D01*
X147282514Y-81306454D01*
X147404905Y-81330799D01*
X147529692Y-81330799D01*
X150884501Y-81330799D01*
X150952622Y-81350801D01*
X150978138Y-81372489D01*
X150981448Y-81376165D01*
X151135949Y-81488417D01*
X151310413Y-81566093D01*
X151497214Y-81605799D01*
X151688188Y-81605799D01*
X151874989Y-81566093D01*
X152049453Y-81488417D01*
X152049470Y-81488404D01*
X152051598Y-81487177D01*
X152053003Y-81486835D01*
X152055485Y-81485731D01*
X152055686Y-81486184D01*
X152120592Y-81470433D01*
X152165856Y-81481184D01*
X152176069Y-81485731D01*
X152238514Y-81513533D01*
X152292609Y-81559511D01*
X152313259Y-81627438D01*
X152293907Y-81695746D01*
X152276360Y-81717734D01*
X144319501Y-89674595D01*
X144257189Y-89708621D01*
X144230406Y-89711500D01*
X144174513Y-89711500D01*
X143987711Y-89751206D01*
X143813247Y-89828882D01*
X143658744Y-89941135D01*
X143530965Y-90083048D01*
X143530958Y-90083058D01*
X143435476Y-90248438D01*
X143435473Y-90248445D01*
X143376457Y-90430072D01*
X143356496Y-90620000D01*
X143376457Y-90809927D01*
X143388662Y-90847489D01*
X143435473Y-90991556D01*
X143435476Y-90991561D01*
X143530958Y-91156941D01*
X143530965Y-91156951D01*
X143658743Y-91298863D01*
X143658746Y-91298865D01*
X143658747Y-91298866D01*
X143712732Y-91338088D01*
X143756086Y-91394309D01*
X143762162Y-91465046D01*
X143729030Y-91527838D01*
X143727767Y-91529119D01*
X143560897Y-91695991D01*
X143498585Y-91730016D01*
X143471801Y-91732896D01*
X143415909Y-91732896D01*
X143229107Y-91772602D01*
X143054643Y-91850278D01*
X142900140Y-91962531D01*
X142772361Y-92104444D01*
X142772354Y-92104454D01*
X142676872Y-92269834D01*
X142676869Y-92269841D01*
X142617853Y-92451468D01*
X142600488Y-92616688D01*
X142573475Y-92682345D01*
X142564278Y-92692608D01*
X142544485Y-92712403D01*
X142482174Y-92746431D01*
X142455385Y-92749312D01*
X141069188Y-92749312D01*
X141001067Y-92729310D01*
X140954574Y-92675654D01*
X140952780Y-92671531D01*
X140920351Y-92593242D01*
X140912761Y-92522652D01*
X140944540Y-92459165D01*
X141005598Y-92422937D01*
X141036759Y-92419023D01*
X141131255Y-92419023D01*
X141131257Y-92419023D01*
X141303790Y-92378132D01*
X141462241Y-92298554D01*
X141543201Y-92232604D01*
X142286432Y-91489371D01*
X142352384Y-91408411D01*
X142431962Y-91249960D01*
X142472853Y-91077427D01*
X142472853Y-90900115D01*
X142431962Y-90727582D01*
X142352384Y-90569131D01*
X142286434Y-90488171D01*
X141861399Y-90063138D01*
X141780439Y-89997186D01*
X141621988Y-89917608D01*
X141449455Y-89876717D01*
X141272143Y-89876717D01*
X141272138Y-89876717D01*
X141268724Y-89877116D01*
X141266389Y-89876717D01*
X141264804Y-89876717D01*
X141264804Y-89876446D01*
X141198742Y-89865156D01*
X141146335Y-89817260D01*
X141128143Y-89748634D01*
X141128952Y-89737330D01*
X141129349Y-89733931D01*
X141129351Y-89733925D01*
X141129351Y-89556613D01*
X141088460Y-89384080D01*
X141008882Y-89225629D01*
X140942932Y-89144669D01*
X140517897Y-88719636D01*
X140436937Y-88653684D01*
X140278486Y-88574106D01*
X140278484Y-88574105D01*
X140278481Y-88574104D01*
X140278482Y-88574104D01*
X140131465Y-88539260D01*
X140069793Y-88504088D01*
X140036928Y-88441156D01*
X140043303Y-88370446D01*
X140071425Y-88327565D01*
X142875082Y-85523910D01*
X142913303Y-85476481D01*
X142921157Y-85459284D01*
X142935338Y-85428229D01*
X142974045Y-85343472D01*
X142994855Y-85198738D01*
X142994855Y-85198734D01*
X142974046Y-85054008D01*
X142974045Y-85054005D01*
X142953494Y-85009004D01*
X142913303Y-84920995D01*
X142877039Y-84875996D01*
X142875083Y-84873568D01*
X142875080Y-84873564D01*
X142241193Y-84239677D01*
X142207167Y-84177365D01*
X142212232Y-84106550D01*
X142241191Y-84061489D01*
X146034106Y-80268573D01*
X146096416Y-80234549D01*
X146167231Y-80239614D01*
G37*
%TD.AperFunction*%
%TA.AperFunction,Conductor*%
G36*
X136955423Y-91547733D02*
G01*
X137012259Y-91590280D01*
X137037070Y-91656800D01*
X137036701Y-91678953D01*
X137035376Y-91691566D01*
X137008367Y-91757224D01*
X136999162Y-91767497D01*
X136151511Y-92615149D01*
X136089198Y-92649174D01*
X136040386Y-92648722D01*
X136040304Y-92649429D01*
X136038482Y-92649216D01*
X136037254Y-92648694D01*
X136033359Y-92648658D01*
X136033018Y-92648577D01*
X136033016Y-92648577D01*
X136025877Y-92646885D01*
X136026528Y-92644134D01*
X135973144Y-92621439D01*
X135933196Y-92562748D01*
X135931320Y-92491776D01*
X135964015Y-92434975D01*
X136822298Y-91576692D01*
X136884608Y-91542668D01*
X136955423Y-91547733D01*
G37*
%TD.AperFunction*%
%TA.AperFunction,Conductor*%
G36*
X138514519Y-89988637D02*
G01*
X138571355Y-90031184D01*
X138593090Y-90077634D01*
X138595253Y-90086760D01*
X138591501Y-90157658D01*
X138561746Y-90204914D01*
X137995784Y-90770878D01*
X137933471Y-90804903D01*
X137906688Y-90807783D01*
X137895398Y-90807783D01*
X137827277Y-90787781D01*
X137780784Y-90734125D01*
X137770680Y-90663851D01*
X137800174Y-90599271D01*
X137806288Y-90592702D01*
X138381395Y-90017595D01*
X138443704Y-89983573D01*
X138514519Y-89988637D01*
G37*
%TD.AperFunction*%
%TA.AperFunction,Conductor*%
G36*
X188741621Y-35220502D02*
G01*
X188788114Y-35274158D01*
X188799500Y-35326500D01*
X188799500Y-45539882D01*
X188830023Y-45613573D01*
X188830026Y-45613577D01*
X188886422Y-45669973D01*
X188886426Y-45669976D01*
X188960118Y-45700500D01*
X189039882Y-45700500D01*
X199173500Y-45700500D01*
X199241621Y-45720502D01*
X199288114Y-45774158D01*
X199299500Y-45826500D01*
X199299500Y-124173500D01*
X199279498Y-124241621D01*
X199225842Y-124288114D01*
X199173500Y-124299500D01*
X188960118Y-124299500D01*
X188886426Y-124330023D01*
X188886422Y-124330026D01*
X188830026Y-124386422D01*
X188830023Y-124386426D01*
X188799500Y-124460117D01*
X188799500Y-134673500D01*
X188779498Y-134741621D01*
X188725842Y-134788114D01*
X188673500Y-134799500D01*
X110326500Y-134799500D01*
X110258379Y-134779498D01*
X110211886Y-134725842D01*
X110200500Y-134673500D01*
X110200500Y-124460117D01*
X110169976Y-124386426D01*
X110169973Y-124386422D01*
X110113577Y-124330026D01*
X110113573Y-124330023D01*
X110039882Y-124299500D01*
X99826500Y-124299500D01*
X99758379Y-124279498D01*
X99711886Y-124225842D01*
X99700500Y-124173500D01*
X99700500Y-101193394D01*
X102367281Y-101193394D01*
X102367281Y-101193401D01*
X102388089Y-101338127D01*
X102388090Y-101338130D01*
X102448832Y-101471140D01*
X102448835Y-101471144D01*
X102487052Y-101518567D01*
X102487055Y-101518571D01*
X104677156Y-103708672D01*
X104677160Y-103708675D01*
X104723482Y-103746005D01*
X104724587Y-103746895D01*
X104857596Y-103807637D01*
X104857597Y-103807637D01*
X104857600Y-103807638D01*
X105002327Y-103828447D01*
X105002330Y-103828447D01*
X105002333Y-103828447D01*
X105147059Y-103807638D01*
X105147061Y-103807637D01*
X105147064Y-103807637D01*
X105231821Y-103768930D01*
X105280067Y-103746898D01*
X105280068Y-103746897D01*
X105280073Y-103746895D01*
X105327502Y-103708674D01*
X110582907Y-98453269D01*
X110645219Y-98419243D01*
X110672002Y-98416364D01*
X127951493Y-98416364D01*
X128019614Y-98436366D01*
X128040588Y-98453269D01*
X129281116Y-99693797D01*
X129315142Y-99756109D01*
X129310077Y-99826924D01*
X129281124Y-99871980D01*
X129271130Y-99881975D01*
X129271111Y-99881996D01*
X129232902Y-99929409D01*
X129232898Y-99929414D01*
X129172156Y-100062424D01*
X129172155Y-100062427D01*
X129151347Y-100207153D01*
X129151347Y-100207160D01*
X129172155Y-100351886D01*
X129172156Y-100351890D01*
X129232895Y-100484894D01*
X129232899Y-100484900D01*
X129271120Y-100532329D01*
X131107671Y-102368880D01*
X131133928Y-102390039D01*
X131150786Y-102403625D01*
X131155100Y-102407101D01*
X131155101Y-102407101D01*
X131155105Y-102407104D01*
X131288109Y-102467843D01*
X131288113Y-102467844D01*
X131432840Y-102488653D01*
X131432843Y-102488653D01*
X131432846Y-102488653D01*
X131577572Y-102467844D01*
X131577573Y-102467843D01*
X131577577Y-102467843D01*
X131710586Y-102407101D01*
X131758014Y-102368880D01*
X132126572Y-102000322D01*
X133004833Y-101122062D01*
X133067145Y-101088036D01*
X133137960Y-101093101D01*
X133194796Y-101135648D01*
X133219607Y-101202168D01*
X133219928Y-101211157D01*
X133219928Y-101537843D01*
X133199926Y-101605964D01*
X133183023Y-101626938D01*
X132099549Y-102710411D01*
X132099546Y-102710415D01*
X132061329Y-102757838D01*
X132061326Y-102757842D01*
X132000584Y-102890852D01*
X132000583Y-102890855D01*
X131979775Y-103035581D01*
X131979775Y-103035588D01*
X132000583Y-103180314D01*
X132000584Y-103180318D01*
X132061323Y-103313322D01*
X132061329Y-103313331D01*
X132099546Y-103360754D01*
X132099549Y-103360758D01*
X132392388Y-103653597D01*
X132426414Y-103715909D01*
X132421349Y-103786724D01*
X132392388Y-103831787D01*
X112820838Y-123403336D01*
X112820833Y-123403342D01*
X112737826Y-123527572D01*
X112680650Y-123665605D01*
X112680649Y-123665609D01*
X112680001Y-123668863D01*
X112680001Y-123668866D01*
X112673999Y-123699042D01*
X112651500Y-123812147D01*
X112651500Y-128820608D01*
X112631498Y-128888729D01*
X112577842Y-128935222D01*
X112535388Y-128946219D01*
X112462335Y-128951969D01*
X112462330Y-128951970D01*
X112242667Y-129007320D01*
X112242658Y-129007323D01*
X112036411Y-129101004D01*
X112036402Y-129101009D01*
X111850200Y-129230011D01*
X111850195Y-129230015D01*
X111690015Y-129390195D01*
X111690011Y-129390200D01*
X111561009Y-129576402D01*
X111561004Y-129576411D01*
X111467323Y-129782658D01*
X111467320Y-129782667D01*
X111419531Y-129972326D01*
X111411970Y-130002331D01*
X111401500Y-130135364D01*
X111401500Y-131764636D01*
X111411970Y-131897669D01*
X111411970Y-131897672D01*
X111411971Y-131897673D01*
X111467320Y-132117332D01*
X111467323Y-132117341D01*
X111561004Y-132323588D01*
X111561009Y-132323597D01*
X111690011Y-132509799D01*
X111690015Y-132509804D01*
X111850195Y-132669984D01*
X111850200Y-132669988D01*
X112036402Y-132798990D01*
X112036408Y-132798993D01*
X112036409Y-132798994D01*
X112242664Y-132892679D01*
X112462331Y-132948030D01*
X112595364Y-132958500D01*
X112595367Y-132958500D01*
X114224633Y-132958500D01*
X114224636Y-132958500D01*
X114357669Y-132948030D01*
X114577336Y-132892679D01*
X114783591Y-132798994D01*
X114969802Y-132669986D01*
X115129986Y-132509802D01*
X115258994Y-132323591D01*
X115352679Y-132117336D01*
X115408030Y-131897669D01*
X115418500Y-131764636D01*
X115418500Y-130135364D01*
X115416139Y-130105364D01*
X117881500Y-130105364D01*
X117881500Y-131734636D01*
X117891970Y-131867669D01*
X117891970Y-131867672D01*
X117891971Y-131867673D01*
X117947320Y-132087332D01*
X117947323Y-132087341D01*
X118041004Y-132293588D01*
X118041009Y-132293597D01*
X118170011Y-132479799D01*
X118170015Y-132479804D01*
X118330195Y-132639984D01*
X118330200Y-132639988D01*
X118516402Y-132768990D01*
X118516408Y-132768993D01*
X118516409Y-132768994D01*
X118722664Y-132862679D01*
X118942331Y-132918030D01*
X119075364Y-132928500D01*
X119075367Y-132928500D01*
X120704633Y-132928500D01*
X120704636Y-132928500D01*
X120837669Y-132918030D01*
X121057336Y-132862679D01*
X121111918Y-132837887D01*
X136919776Y-132837887D01*
X160247269Y-132837887D01*
X160247269Y-130224684D01*
X136919776Y-130224684D01*
X136919776Y-132837887D01*
X121111918Y-132837887D01*
X121263591Y-132768994D01*
X121449802Y-132639986D01*
X121609986Y-132479802D01*
X121738994Y-132293591D01*
X121832679Y-132087336D01*
X121888030Y-131867669D01*
X121898500Y-131734636D01*
X121898500Y-130105364D01*
X121888030Y-129972331D01*
X121832679Y-129752664D01*
X121762415Y-129597972D01*
X121738995Y-129546411D01*
X121738990Y-129546402D01*
X121691369Y-129477666D01*
X130651553Y-129477666D01*
X130651553Y-129477673D01*
X130672361Y-129622399D01*
X130672362Y-129622402D01*
X130733104Y-129755412D01*
X130733107Y-129755416D01*
X130771324Y-129802839D01*
X130771327Y-129802843D01*
X132961428Y-131992944D01*
X132961432Y-131992947D01*
X132971190Y-132000811D01*
X133008859Y-132031167D01*
X133141868Y-132091909D01*
X133141869Y-132091909D01*
X133141872Y-132091910D01*
X133286599Y-132112719D01*
X133286602Y-132112719D01*
X133286605Y-132112719D01*
X133431331Y-132091910D01*
X133431333Y-132091909D01*
X133431336Y-132091909D01*
X133516093Y-132053202D01*
X133564339Y-132031170D01*
X133564340Y-132031169D01*
X133564345Y-132031167D01*
X133611774Y-131992946D01*
X136119190Y-129485530D01*
X167869417Y-129485530D01*
X167869417Y-129485537D01*
X167890225Y-129630263D01*
X167890226Y-129630266D01*
X167950968Y-129763276D01*
X167950971Y-129763280D01*
X167989188Y-129810703D01*
X167989191Y-129810707D01*
X170179292Y-132000808D01*
X170179296Y-132000811D01*
X170216964Y-132031167D01*
X170226723Y-132039031D01*
X170359732Y-132099773D01*
X170359733Y-132099773D01*
X170359736Y-132099774D01*
X170504463Y-132120583D01*
X170504466Y-132120583D01*
X170504469Y-132120583D01*
X170649195Y-132099774D01*
X170649197Y-132099773D01*
X170649200Y-132099773D01*
X170733957Y-132061066D01*
X170782203Y-132039034D01*
X170782204Y-132039033D01*
X170782209Y-132039031D01*
X170829638Y-132000810D01*
X180090810Y-122739638D01*
X180129031Y-122692209D01*
X180132623Y-122684345D01*
X180189773Y-122559199D01*
X180189774Y-122559195D01*
X180210583Y-122414469D01*
X180210583Y-122414462D01*
X180189774Y-122269736D01*
X180189773Y-122269733D01*
X180186183Y-122261872D01*
X180129031Y-122136723D01*
X180122690Y-122128855D01*
X180090811Y-122089296D01*
X180090808Y-122089292D01*
X177900707Y-119899191D01*
X177900703Y-119899188D01*
X177853280Y-119860971D01*
X177853276Y-119860968D01*
X177720266Y-119800226D01*
X177720263Y-119800225D01*
X177575537Y-119779417D01*
X177575531Y-119779417D01*
X177430804Y-119800225D01*
X177430800Y-119800226D01*
X177297796Y-119860965D01*
X177297787Y-119860971D01*
X177250364Y-119899188D01*
X177250360Y-119899191D01*
X173245211Y-123904340D01*
X173182899Y-123938366D01*
X173112083Y-123933301D01*
X173067021Y-123904340D01*
X172550125Y-123387444D01*
X172519387Y-123337285D01*
X172464528Y-123168447D01*
X172464527Y-123168445D01*
X172464527Y-123168444D01*
X172369040Y-123003056D01*
X172369038Y-123003054D01*
X172369034Y-123003048D01*
X172241255Y-122861135D01*
X172086752Y-122748882D01*
X171912288Y-122671206D01*
X171725487Y-122631500D01*
X171534513Y-122631500D01*
X171347711Y-122671206D01*
X171173247Y-122748882D01*
X171018744Y-122861135D01*
X170890965Y-123003048D01*
X170890958Y-123003058D01*
X170806689Y-123149017D01*
X170795473Y-123168444D01*
X170786376Y-123196442D01*
X170736457Y-123350072D01*
X170716496Y-123540000D01*
X170736457Y-123729927D01*
X170763173Y-123812147D01*
X170795473Y-123911556D01*
X170795476Y-123911561D01*
X170890958Y-124076941D01*
X170890965Y-124076951D01*
X171018744Y-124218864D01*
X171041358Y-124235294D01*
X171173248Y-124331118D01*
X171347712Y-124408794D01*
X171410769Y-124422197D01*
X171473243Y-124455925D01*
X171473668Y-124456349D01*
X171994340Y-124977021D01*
X172028366Y-125039333D01*
X172023301Y-125110148D01*
X171994340Y-125155211D01*
X167989191Y-129160360D01*
X167989188Y-129160364D01*
X167950971Y-129207787D01*
X167950965Y-129207796D01*
X167890226Y-129340800D01*
X167890225Y-129340804D01*
X167869417Y-129485530D01*
X136119190Y-129485530D01*
X142872946Y-122731774D01*
X142911167Y-122684345D01*
X142913861Y-122678447D01*
X142950370Y-122598501D01*
X142971909Y-122551336D01*
X142972662Y-122546099D01*
X142992719Y-122406605D01*
X142992719Y-122406598D01*
X142971910Y-122261872D01*
X142971909Y-122261869D01*
X142943104Y-122198794D01*
X142911167Y-122128859D01*
X142891857Y-122104898D01*
X142872947Y-122081432D01*
X142872944Y-122081428D01*
X142121516Y-121330000D01*
X146266496Y-121330000D01*
X146286457Y-121519927D01*
X146311968Y-121598438D01*
X146345473Y-121701556D01*
X146345476Y-121701561D01*
X146440958Y-121866941D01*
X146440965Y-121866951D01*
X146568744Y-122008864D01*
X146613138Y-122041118D01*
X146723248Y-122121118D01*
X146786448Y-122149256D01*
X146840544Y-122195236D01*
X146861193Y-122263163D01*
X146843268Y-122326575D01*
X146844319Y-122327156D01*
X146672373Y-122638270D01*
X146672361Y-122638293D01*
X146537683Y-122963435D01*
X146522538Y-123016005D01*
X146470556Y-123196440D01*
X146440248Y-123301640D01*
X146381296Y-123648609D01*
X146381296Y-123648610D01*
X146361563Y-124000000D01*
X146381296Y-124351389D01*
X146381296Y-124351390D01*
X146425843Y-124613574D01*
X146440250Y-124698368D01*
X146517759Y-124967409D01*
X146537683Y-125036564D01*
X146672361Y-125361706D01*
X146672366Y-125361717D01*
X146672373Y-125361729D01*
X146842602Y-125669738D01*
X146842606Y-125669745D01*
X147046268Y-125956779D01*
X147046273Y-125956786D01*
X147057083Y-125968882D01*
X147280790Y-126219210D01*
X147447448Y-126368144D01*
X147543213Y-126453726D01*
X147543220Y-126453731D01*
X147830254Y-126657393D01*
X147830261Y-126657397D01*
X147943389Y-126719920D01*
X148138283Y-126827634D01*
X148463440Y-126962318D01*
X148801632Y-127059750D01*
X149148607Y-127118703D01*
X149500000Y-127138437D01*
X149851393Y-127118703D01*
X150198368Y-127059750D01*
X150536560Y-126962318D01*
X150861717Y-126827634D01*
X151169749Y-126657391D01*
X151456783Y-126453729D01*
X151719210Y-126219210D01*
X151953729Y-125956783D01*
X152157391Y-125669749D01*
X152327634Y-125361717D01*
X152462318Y-125036560D01*
X152559750Y-124698368D01*
X152618703Y-124351393D01*
X152638437Y-124000000D01*
X152625418Y-123768177D01*
X152641569Y-123699042D01*
X152692534Y-123649613D01*
X152762131Y-123635585D01*
X152828263Y-123661411D01*
X152844852Y-123676798D01*
X152918747Y-123758866D01*
X153073248Y-123871118D01*
X153247712Y-123948794D01*
X153434513Y-123988500D01*
X153625487Y-123988500D01*
X153812288Y-123948794D01*
X153986752Y-123871118D01*
X154141253Y-123758866D01*
X154141256Y-123758862D01*
X154144582Y-123755868D01*
X154208588Y-123725148D01*
X154228897Y-123723500D01*
X157061800Y-123723500D01*
X157129921Y-123743502D01*
X157155437Y-123765190D01*
X157158747Y-123768866D01*
X157313248Y-123881118D01*
X157487712Y-123958794D01*
X157674513Y-123998500D01*
X157865487Y-123998500D01*
X158052288Y-123958794D01*
X158226752Y-123881118D01*
X158381253Y-123768866D01*
X158381255Y-123768864D01*
X158509034Y-123626951D01*
X158509035Y-123626949D01*
X158509040Y-123626944D01*
X158604527Y-123461556D01*
X158663542Y-123279928D01*
X158683504Y-123090000D01*
X158663542Y-122900072D01*
X158604527Y-122718444D01*
X158509040Y-122553056D01*
X158509038Y-122553054D01*
X158509034Y-122553048D01*
X158381255Y-122411135D01*
X158346231Y-122385689D01*
X158302877Y-122329467D01*
X158296802Y-122258731D01*
X158300460Y-122244815D01*
X158328040Y-122159936D01*
X158328042Y-122159926D01*
X158348004Y-121970000D01*
X158328042Y-121780072D01*
X158269027Y-121598444D01*
X158173540Y-121433056D01*
X158173538Y-121433054D01*
X158173534Y-121433048D01*
X158045755Y-121291135D01*
X157891252Y-121178882D01*
X157716788Y-121101206D01*
X157529987Y-121061500D01*
X157339013Y-121061500D01*
X157152211Y-121101206D01*
X156977747Y-121178882D01*
X156823244Y-121291135D01*
X156801928Y-121314810D01*
X156741483Y-121352050D01*
X156708292Y-121356500D01*
X154378200Y-121356500D01*
X154310079Y-121336498D01*
X154284563Y-121314810D01*
X154281252Y-121311133D01*
X154126752Y-121198882D01*
X153952288Y-121121206D01*
X153765487Y-121081500D01*
X153574513Y-121081500D01*
X153387711Y-121121206D01*
X153213247Y-121198882D01*
X153058746Y-121311134D01*
X152988013Y-121389691D01*
X152927567Y-121426930D01*
X152856583Y-121425578D01*
X152797599Y-121386064D01*
X152769341Y-121320933D01*
X152769067Y-121292215D01*
X152773504Y-121250000D01*
X152753542Y-121060072D01*
X152694527Y-120878444D01*
X152599040Y-120713056D01*
X152599038Y-120713054D01*
X152599034Y-120713048D01*
X152471255Y-120571135D01*
X152316752Y-120458882D01*
X152142288Y-120381206D01*
X151955487Y-120341500D01*
X151764513Y-120341500D01*
X151577711Y-120381206D01*
X151403247Y-120458882D01*
X151248744Y-120571135D01*
X151120965Y-120713048D01*
X151120958Y-120713058D01*
X151035219Y-120861563D01*
X151025473Y-120878444D01*
X151005391Y-120940250D01*
X150964417Y-121066353D01*
X150961855Y-121065520D01*
X150933775Y-121117478D01*
X150871611Y-121151772D01*
X150800774Y-121147013D01*
X150796078Y-121145177D01*
X150536564Y-121037683D01*
X150467409Y-121017759D01*
X150198368Y-120940250D01*
X150198362Y-120940249D01*
X150198359Y-120940248D01*
X149851389Y-120881296D01*
X149500000Y-120861563D01*
X149148610Y-120881296D01*
X149148609Y-120881296D01*
X148801640Y-120940248D01*
X148801634Y-120940249D01*
X148801632Y-120940250D01*
X148663330Y-120980094D01*
X148463435Y-121037683D01*
X148216400Y-121140009D01*
X148145810Y-121147598D01*
X148082323Y-121115819D01*
X148048349Y-121062537D01*
X148047548Y-121060072D01*
X148014527Y-120958444D01*
X147919040Y-120793056D01*
X147919038Y-120793054D01*
X147919034Y-120793048D01*
X147791255Y-120651135D01*
X147636752Y-120538882D01*
X147462288Y-120461206D01*
X147275487Y-120421500D01*
X147084513Y-120421500D01*
X146897711Y-120461206D01*
X146723247Y-120538882D01*
X146568744Y-120651135D01*
X146440965Y-120793048D01*
X146440958Y-120793058D01*
X146345476Y-120958438D01*
X146345473Y-120958445D01*
X146286457Y-121140072D01*
X146266496Y-121330000D01*
X142121516Y-121330000D01*
X140682843Y-119891327D01*
X140682839Y-119891324D01*
X140635416Y-119853107D01*
X140635412Y-119853104D01*
X140502402Y-119792362D01*
X140502399Y-119792361D01*
X140357673Y-119771553D01*
X140357667Y-119771553D01*
X140212940Y-119792361D01*
X140212936Y-119792362D01*
X140079932Y-119853101D01*
X140079923Y-119853107D01*
X140032500Y-119891324D01*
X140032496Y-119891327D01*
X136027347Y-123896476D01*
X135965035Y-123930502D01*
X135894219Y-123925437D01*
X135849157Y-123896476D01*
X134850125Y-122897444D01*
X134819387Y-122847285D01*
X134764528Y-122678447D01*
X134764527Y-122678445D01*
X134764527Y-122678444D01*
X134669040Y-122513056D01*
X134669038Y-122513054D01*
X134669034Y-122513048D01*
X134541255Y-122371135D01*
X134386752Y-122258882D01*
X134212288Y-122181206D01*
X134025487Y-122141500D01*
X133834513Y-122141500D01*
X133647711Y-122181206D01*
X133473247Y-122258882D01*
X133318744Y-122371135D01*
X133190965Y-122513048D01*
X133190958Y-122513058D01*
X133095476Y-122678438D01*
X133095473Y-122678444D01*
X133085727Y-122708438D01*
X133036457Y-122860072D01*
X133016496Y-123050000D01*
X133036457Y-123239927D01*
X133066526Y-123332470D01*
X133095473Y-123421556D01*
X133095476Y-123421561D01*
X133190958Y-123586941D01*
X133190965Y-123586951D01*
X133318744Y-123728864D01*
X133355912Y-123755868D01*
X133473248Y-123841118D01*
X133647712Y-123918794D01*
X133710769Y-123932197D01*
X133773243Y-123965925D01*
X133773668Y-123966349D01*
X134776476Y-124969157D01*
X134810502Y-125031469D01*
X134805437Y-125102284D01*
X134776476Y-125147347D01*
X130771327Y-129152496D01*
X130771324Y-129152500D01*
X130733107Y-129199923D01*
X130733101Y-129199932D01*
X130672362Y-129332936D01*
X130672361Y-129332940D01*
X130651553Y-129477666D01*
X121691369Y-129477666D01*
X121609988Y-129360200D01*
X121609984Y-129360195D01*
X121449804Y-129200015D01*
X121449799Y-129200011D01*
X121263597Y-129071009D01*
X121263588Y-129071004D01*
X121057341Y-128977323D01*
X121057338Y-128977322D01*
X121057336Y-128977321D01*
X120837669Y-128921970D01*
X120837664Y-128921969D01*
X120764612Y-128916219D01*
X120698271Y-128890933D01*
X120656132Y-128833795D01*
X120648500Y-128790608D01*
X120648500Y-127296999D01*
X120665380Y-127234000D01*
X120724527Y-127131556D01*
X120783542Y-126949928D01*
X120803504Y-126760000D01*
X120783542Y-126570072D01*
X120724527Y-126388444D01*
X120629040Y-126223056D01*
X120629038Y-126223054D01*
X120629034Y-126223048D01*
X120501255Y-126081135D01*
X120346752Y-125968882D01*
X120172288Y-125891206D01*
X119985487Y-125851500D01*
X119794513Y-125851500D01*
X119607711Y-125891206D01*
X119433247Y-125968882D01*
X119278744Y-126081135D01*
X119150965Y-126223048D01*
X119150958Y-126223058D01*
X119055476Y-126388438D01*
X119055473Y-126388445D01*
X118996457Y-126570072D01*
X118976496Y-126760000D01*
X118996457Y-126949927D01*
X119032142Y-127059750D01*
X119055473Y-127131556D01*
X119114619Y-127234000D01*
X119131500Y-127296999D01*
X119131500Y-128790608D01*
X119111498Y-128858729D01*
X119057842Y-128905222D01*
X119015388Y-128916219D01*
X118942335Y-128921969D01*
X118942330Y-128921970D01*
X118722667Y-128977320D01*
X118722658Y-128977323D01*
X118516411Y-129071004D01*
X118516402Y-129071009D01*
X118330200Y-129200011D01*
X118330195Y-129200015D01*
X118170015Y-129360195D01*
X118170011Y-129360200D01*
X118041009Y-129546402D01*
X118041004Y-129546411D01*
X117947323Y-129752658D01*
X117947320Y-129752667D01*
X117932696Y-129810707D01*
X117891970Y-129972331D01*
X117881500Y-130105364D01*
X115416139Y-130105364D01*
X115408030Y-130002331D01*
X115352679Y-129782664D01*
X115258994Y-129576409D01*
X115258993Y-129576408D01*
X115258990Y-129576402D01*
X115129988Y-129390200D01*
X115129984Y-129390195D01*
X114969804Y-129230015D01*
X114969799Y-129230011D01*
X114783597Y-129101009D01*
X114783588Y-129101004D01*
X114577341Y-129007323D01*
X114577338Y-129007322D01*
X114577336Y-129007321D01*
X114357669Y-128951970D01*
X114357664Y-128951969D01*
X114284612Y-128946219D01*
X114218271Y-128920933D01*
X114176132Y-128863795D01*
X114168500Y-128820608D01*
X114168500Y-124253227D01*
X114188502Y-124185106D01*
X114205405Y-124164132D01*
X133465069Y-104904468D01*
X133527381Y-104870442D01*
X133598196Y-104875507D01*
X133643259Y-104904468D01*
X133936099Y-105197308D01*
X133983528Y-105235529D01*
X133983529Y-105235529D01*
X133983533Y-105235532D01*
X134116537Y-105296271D01*
X134116541Y-105296272D01*
X134261268Y-105317081D01*
X134261271Y-105317081D01*
X134261274Y-105317081D01*
X134406000Y-105296272D01*
X134406001Y-105296271D01*
X134406005Y-105296271D01*
X134539014Y-105235529D01*
X134586442Y-105197308D01*
X134596435Y-105187314D01*
X134658741Y-105153287D01*
X134729557Y-105158346D01*
X134774629Y-105187310D01*
X144616485Y-115029166D01*
X144740716Y-115112174D01*
X144878753Y-115169351D01*
X144952022Y-115183924D01*
X144952023Y-115183925D01*
X144966598Y-115186824D01*
X145025294Y-115198500D01*
X145025295Y-115198500D01*
X145174705Y-115198500D01*
X175646773Y-115198500D01*
X175714894Y-115218502D01*
X175735868Y-115235405D01*
X182575532Y-122075069D01*
X182609558Y-122137381D01*
X182604493Y-122208196D01*
X182575532Y-122253259D01*
X182282693Y-122546097D01*
X182282690Y-122546101D01*
X182244473Y-122593524D01*
X182244467Y-122593533D01*
X182183728Y-122726537D01*
X182183727Y-122726541D01*
X182162919Y-122871267D01*
X182162919Y-122871274D01*
X182183727Y-123016000D01*
X182183728Y-123016003D01*
X182244470Y-123149013D01*
X182244473Y-123149017D01*
X182282690Y-123196440D01*
X182282693Y-123196444D01*
X183553555Y-124467306D01*
X183553558Y-124467308D01*
X183600986Y-124505529D01*
X183733995Y-124566271D01*
X183733996Y-124566271D01*
X183733999Y-124566272D01*
X183878726Y-124587081D01*
X183878729Y-124587081D01*
X183878732Y-124587081D01*
X184023458Y-124566272D01*
X184023460Y-124566271D01*
X184023463Y-124566271D01*
X184108220Y-124527564D01*
X184156466Y-124505532D01*
X184156467Y-124505531D01*
X184156472Y-124505529D01*
X184203901Y-124467308D01*
X184535562Y-124135645D01*
X184597872Y-124101622D01*
X184668688Y-124106686D01*
X184672837Y-124108318D01*
X184699008Y-124119159D01*
X184714714Y-124125665D01*
X184714716Y-124125665D01*
X184714720Y-124125667D01*
X184771897Y-124149351D01*
X184845166Y-124163924D01*
X184845167Y-124163925D01*
X184859742Y-124166824D01*
X184918438Y-124178500D01*
X184918439Y-124178500D01*
X184918443Y-124178500D01*
X187854701Y-124178500D01*
X187854705Y-124178500D01*
X187854706Y-124178500D01*
X187927976Y-124163925D01*
X188001247Y-124149351D01*
X188139284Y-124092174D01*
X188180505Y-124064630D01*
X188263510Y-124009170D01*
X188263511Y-124009168D01*
X188263515Y-124009166D01*
X188366332Y-123906347D01*
X188428642Y-123872324D01*
X188429151Y-123872213D01*
X188492288Y-123858794D01*
X188666752Y-123781118D01*
X188821253Y-123668866D01*
X188827966Y-123661411D01*
X188949034Y-123526951D01*
X188949035Y-123526949D01*
X188949040Y-123526944D01*
X189044527Y-123361556D01*
X189103542Y-123179928D01*
X189123504Y-122990000D01*
X189103542Y-122800072D01*
X189044527Y-122618444D01*
X188949040Y-122453056D01*
X188949038Y-122453054D01*
X188949034Y-122453048D01*
X188821255Y-122311135D01*
X188666752Y-122198882D01*
X188492288Y-122121206D01*
X188305487Y-122081500D01*
X188114513Y-122081500D01*
X187927711Y-122121206D01*
X187753247Y-122198882D01*
X187598744Y-122311135D01*
X187470965Y-122453048D01*
X187470961Y-122453054D01*
X187470960Y-122453056D01*
X187409678Y-122559199D01*
X187386987Y-122598501D01*
X187335604Y-122647494D01*
X187277868Y-122661500D01*
X186239032Y-122661500D01*
X186170911Y-122641498D01*
X186124418Y-122587842D01*
X186114314Y-122517568D01*
X186124417Y-122483160D01*
X186139415Y-122450319D01*
X186140608Y-122442022D01*
X186160225Y-122305588D01*
X186160225Y-122305581D01*
X186139416Y-122160855D01*
X186139415Y-122160852D01*
X186138992Y-122159926D01*
X186078673Y-122027842D01*
X186048176Y-121989999D01*
X186040453Y-121980415D01*
X186040450Y-121980411D01*
X184769588Y-120709549D01*
X184769584Y-120709546D01*
X184722161Y-120671329D01*
X184722157Y-120671326D01*
X184589147Y-120610584D01*
X184589144Y-120610583D01*
X184444418Y-120589775D01*
X184444412Y-120589775D01*
X184299685Y-120610583D01*
X184299681Y-120610584D01*
X184166677Y-120671323D01*
X184166668Y-120671329D01*
X184119245Y-120709546D01*
X184119241Y-120709549D01*
X183826403Y-121002388D01*
X183764091Y-121036414D01*
X183693276Y-121031349D01*
X183648213Y-121002388D01*
X176496663Y-113850838D01*
X176496659Y-113850834D01*
X176372428Y-113767826D01*
X176234391Y-113710649D01*
X176161120Y-113696074D01*
X176161119Y-113696073D01*
X176087855Y-113681500D01*
X176087850Y-113681500D01*
X145466371Y-113681500D01*
X145398250Y-113661498D01*
X145377276Y-113644595D01*
X144748211Y-113015530D01*
X184309417Y-113015530D01*
X184309417Y-113015537D01*
X184330225Y-113160263D01*
X184330226Y-113160266D01*
X184390968Y-113293276D01*
X184390971Y-113293280D01*
X184429188Y-113340703D01*
X184429191Y-113340707D01*
X186619292Y-115530808D01*
X186619295Y-115530810D01*
X186666723Y-115569031D01*
X186799732Y-115629773D01*
X186799733Y-115629773D01*
X186799736Y-115629774D01*
X186944463Y-115650583D01*
X186944466Y-115650583D01*
X186944469Y-115650583D01*
X187089195Y-115629774D01*
X187089197Y-115629773D01*
X187089200Y-115629773D01*
X187173957Y-115591066D01*
X187222203Y-115569034D01*
X187222204Y-115569033D01*
X187222209Y-115569031D01*
X187269638Y-115530810D01*
X189506405Y-113294043D01*
X189568717Y-113260017D01*
X189639532Y-113265082D01*
X189696368Y-113307629D01*
X189721179Y-113374149D01*
X189721500Y-113383138D01*
X189721500Y-115903628D01*
X189701498Y-115971749D01*
X189684595Y-115992723D01*
X187786201Y-117891116D01*
X187723889Y-117925142D01*
X187653073Y-117920077D01*
X187608011Y-117891116D01*
X187598016Y-117881121D01*
X187598012Y-117881118D01*
X187550589Y-117842901D01*
X187550585Y-117842898D01*
X187417575Y-117782156D01*
X187417572Y-117782155D01*
X187272846Y-117761347D01*
X187272840Y-117761347D01*
X187128113Y-117782155D01*
X187128109Y-117782156D01*
X186995105Y-117842895D01*
X186995096Y-117842901D01*
X186947673Y-117881118D01*
X186947669Y-117881121D01*
X185111121Y-119717669D01*
X185111118Y-119717673D01*
X185072901Y-119765096D01*
X185072895Y-119765105D01*
X185012156Y-119898109D01*
X185012155Y-119898113D01*
X184991347Y-120042839D01*
X184991347Y-120042846D01*
X185012155Y-120187572D01*
X185012156Y-120187575D01*
X185072898Y-120320585D01*
X185072901Y-120320589D01*
X185111118Y-120368012D01*
X185111121Y-120368016D01*
X186381983Y-121638878D01*
X186381986Y-121638880D01*
X186429414Y-121677101D01*
X186562423Y-121737843D01*
X186562424Y-121737843D01*
X186562427Y-121737844D01*
X186707154Y-121758653D01*
X186707157Y-121758653D01*
X186707160Y-121758653D01*
X186851886Y-121737844D01*
X186851888Y-121737843D01*
X186851891Y-121737843D01*
X186936648Y-121699136D01*
X186984894Y-121677104D01*
X186984895Y-121677103D01*
X186984900Y-121677101D01*
X187032329Y-121638880D01*
X188868880Y-119802329D01*
X188907101Y-119754900D01*
X188924104Y-119717669D01*
X188967843Y-119621890D01*
X188967844Y-119621886D01*
X188988653Y-119477160D01*
X188988653Y-119477153D01*
X188967844Y-119332427D01*
X188967843Y-119332424D01*
X188907101Y-119199414D01*
X188907098Y-119199410D01*
X188868881Y-119151987D01*
X188868878Y-119151983D01*
X188858882Y-119141987D01*
X188824856Y-119079675D01*
X188829921Y-119008860D01*
X188858880Y-118963799D01*
X191069165Y-116753516D01*
X191152173Y-116629285D01*
X191152174Y-116629284D01*
X191209351Y-116491246D01*
X191238500Y-116344706D01*
X191238500Y-111614138D01*
X191258502Y-111546017D01*
X191275405Y-111525043D01*
X193882010Y-108918438D01*
X196530810Y-106269638D01*
X196569031Y-106222209D01*
X196629773Y-106089200D01*
X196629821Y-106088866D01*
X196650583Y-105944469D01*
X196650583Y-105944462D01*
X196629774Y-105799736D01*
X196629773Y-105799733D01*
X196621474Y-105781561D01*
X196569031Y-105666723D01*
X196530810Y-105619295D01*
X196530808Y-105619292D01*
X194340707Y-103429191D01*
X194340703Y-103429188D01*
X194293280Y-103390971D01*
X194293276Y-103390968D01*
X194160266Y-103330226D01*
X194160263Y-103330225D01*
X194015537Y-103309417D01*
X194015531Y-103309417D01*
X193870804Y-103330225D01*
X193870800Y-103330226D01*
X193737796Y-103390965D01*
X193737787Y-103390971D01*
X193690364Y-103429188D01*
X193690360Y-103429191D01*
X184429191Y-112690360D01*
X184429188Y-112690364D01*
X184390971Y-112737787D01*
X184390965Y-112737796D01*
X184330226Y-112870800D01*
X184330225Y-112870804D01*
X184309417Y-113015530D01*
X144748211Y-113015530D01*
X141022681Y-109290000D01*
X149936496Y-109290000D01*
X149956457Y-109479927D01*
X149986526Y-109572470D01*
X150015473Y-109661556D01*
X150015476Y-109661561D01*
X150110958Y-109826941D01*
X150110965Y-109826951D01*
X150238744Y-109968864D01*
X150238747Y-109968866D01*
X150393248Y-110081118D01*
X150567712Y-110158794D01*
X150754513Y-110198500D01*
X150945487Y-110198500D01*
X151132288Y-110158794D01*
X151306752Y-110081118D01*
X151461253Y-109968866D01*
X151589040Y-109826944D01*
X151684527Y-109661556D01*
X151743542Y-109479928D01*
X151763504Y-109290000D01*
X151743542Y-109100072D01*
X151684527Y-108918444D01*
X151589040Y-108753056D01*
X151589038Y-108753054D01*
X151589034Y-108753048D01*
X151461255Y-108611135D01*
X151306752Y-108498882D01*
X151132288Y-108421206D01*
X150945487Y-108381500D01*
X150754513Y-108381500D01*
X150567711Y-108421206D01*
X150393247Y-108498882D01*
X150238744Y-108611135D01*
X150110965Y-108753048D01*
X150110958Y-108753058D01*
X150015476Y-108918438D01*
X150015473Y-108918445D01*
X149956457Y-109100072D01*
X149936496Y-109290000D01*
X141022681Y-109290000D01*
X135847310Y-104114629D01*
X135813284Y-104052317D01*
X135818349Y-103981502D01*
X135847313Y-103936436D01*
X135857308Y-103926442D01*
X135895529Y-103879014D01*
X135956271Y-103746005D01*
X135956272Y-103746000D01*
X135977081Y-103601274D01*
X135977081Y-103601267D01*
X135956272Y-103456541D01*
X135956271Y-103456537D01*
X135895532Y-103323533D01*
X135895526Y-103323524D01*
X135883726Y-103308881D01*
X135857308Y-103276099D01*
X134773833Y-102192624D01*
X134739807Y-102130312D01*
X134736928Y-102103529D01*
X134736928Y-98523721D01*
X134736927Y-98523718D01*
X134707779Y-98377182D01*
X134699670Y-98357606D01*
X134684095Y-98320004D01*
X134650602Y-98239144D01*
X134567593Y-98114912D01*
X134461944Y-98009263D01*
X133235125Y-96782444D01*
X133204387Y-96732285D01*
X133202710Y-96727125D01*
X133149527Y-96563444D01*
X133054040Y-96398056D01*
X133054038Y-96398054D01*
X133054034Y-96398048D01*
X132978986Y-96314699D01*
X136436507Y-96314699D01*
X136436507Y-96314700D01*
X136469384Y-96347577D01*
X136550298Y-96413492D01*
X136550301Y-96413493D01*
X136708653Y-96493021D01*
X136881063Y-96533884D01*
X136881068Y-96533885D01*
X137058264Y-96533885D01*
X137058268Y-96533884D01*
X137230678Y-96493021D01*
X137389030Y-96413493D01*
X137389033Y-96413492D01*
X137469942Y-96347581D01*
X137661923Y-96155601D01*
X137661923Y-96155599D01*
X137128766Y-95622442D01*
X137128765Y-95622442D01*
X136436507Y-96314699D01*
X132978986Y-96314699D01*
X132926255Y-96256135D01*
X132771752Y-96143882D01*
X132597288Y-96066206D01*
X132534227Y-96052801D01*
X132471754Y-96019072D01*
X132471331Y-96018650D01*
X128722483Y-92269802D01*
X130653689Y-92269802D01*
X130653689Y-92269809D01*
X130674497Y-92414535D01*
X130674498Y-92414538D01*
X130735240Y-92547548D01*
X130735243Y-92547552D01*
X130773460Y-92594975D01*
X130773463Y-92594979D01*
X132963564Y-94785080D01*
X132963568Y-94785083D01*
X132986539Y-94803595D01*
X133010995Y-94823303D01*
X133144004Y-94884045D01*
X133144005Y-94884045D01*
X133144008Y-94884046D01*
X133288735Y-94904855D01*
X133288738Y-94904855D01*
X133288741Y-94904855D01*
X133433467Y-94884046D01*
X133433469Y-94884045D01*
X133433472Y-94884045D01*
X133565406Y-94823794D01*
X133566475Y-94823306D01*
X133566476Y-94823305D01*
X133566481Y-94823303D01*
X133613910Y-94785082D01*
X134300507Y-94098483D01*
X134362818Y-94064460D01*
X134433633Y-94069524D01*
X134490469Y-94112071D01*
X134509954Y-94160927D01*
X134512418Y-94160344D01*
X134514110Y-94167483D01*
X134514110Y-94167485D01*
X134551812Y-94326561D01*
X134555002Y-94340021D01*
X134634575Y-94498463D01*
X134634577Y-94498466D01*
X134634579Y-94498469D01*
X134700529Y-94579429D01*
X135125564Y-95004462D01*
X135206524Y-95070414D01*
X135364975Y-95149992D01*
X135537508Y-95190883D01*
X135537510Y-95190883D01*
X135714814Y-95190883D01*
X135714820Y-95190883D01*
X135714825Y-95190881D01*
X135718738Y-95190424D01*
X135721425Y-95190883D01*
X135722159Y-95190883D01*
X135722159Y-95191008D01*
X135788721Y-95202377D01*
X135841133Y-95250268D01*
X135859332Y-95318892D01*
X135858525Y-95330187D01*
X135858112Y-95333723D01*
X135858112Y-95510933D01*
X135898975Y-95683343D01*
X135978503Y-95841695D01*
X135978504Y-95841698D01*
X136044419Y-95922612D01*
X136077296Y-95955489D01*
X136077298Y-95955489D01*
X137811696Y-94221091D01*
X137811696Y-94221090D01*
X138046303Y-93986484D01*
X138108615Y-93952459D01*
X138135398Y-93949580D01*
X138202002Y-93949580D01*
X138207933Y-93947123D01*
X138278522Y-93939531D01*
X138342010Y-93971309D01*
X138345249Y-93974435D01*
X138405512Y-94034698D01*
X138439538Y-94097010D01*
X138442417Y-94123793D01*
X138442417Y-94256598D01*
X138422415Y-94324719D01*
X138405512Y-94345693D01*
X138217136Y-94534068D01*
X138217137Y-94534069D01*
X137487975Y-95263231D01*
X137487975Y-95263233D01*
X138021132Y-95796390D01*
X138021134Y-95796390D01*
X138213114Y-95604409D01*
X138279025Y-95523500D01*
X138279026Y-95523497D01*
X138358554Y-95365145D01*
X138399417Y-95192735D01*
X138399418Y-95192731D01*
X138399418Y-95013378D01*
X138419420Y-94945257D01*
X138473076Y-94898764D01*
X138543350Y-94888660D01*
X138588419Y-94904259D01*
X138591910Y-94906274D01*
X138733734Y-94965021D01*
X138885926Y-94985058D01*
X139038120Y-94965020D01*
X139038123Y-94965019D01*
X139179938Y-94906276D01*
X139180216Y-94906117D01*
X139180479Y-94906053D01*
X139187570Y-94903116D01*
X139188028Y-94904221D01*
X139249211Y-94889379D01*
X139316303Y-94912599D01*
X139332311Y-94926141D01*
X139659280Y-95253110D01*
X139693306Y-95315422D01*
X139688241Y-95386237D01*
X139679304Y-95405205D01*
X139625476Y-95498438D01*
X139625473Y-95498445D01*
X139566457Y-95680072D01*
X139546496Y-95870000D01*
X139566457Y-96059927D01*
X139596526Y-96152470D01*
X139625473Y-96241556D01*
X139625476Y-96241561D01*
X139720958Y-96406941D01*
X139720965Y-96406951D01*
X139848744Y-96548864D01*
X139868812Y-96563444D01*
X140003248Y-96661118D01*
X140177712Y-96738794D01*
X140364513Y-96778500D01*
X140440661Y-96778500D01*
X140508782Y-96798502D01*
X140555275Y-96852158D01*
X140557057Y-96856253D01*
X140565759Y-96877260D01*
X140568270Y-96883323D01*
X140568275Y-96883331D01*
X140638313Y-96974606D01*
X140638332Y-96974627D01*
X141611626Y-97947921D01*
X141611636Y-97947930D01*
X141611642Y-97947936D01*
X141611645Y-97947938D01*
X141611647Y-97947940D01*
X141691564Y-98009263D01*
X141702929Y-98017983D01*
X141844873Y-98076778D01*
X141997196Y-98096831D01*
X141997197Y-98096831D01*
X142035277Y-98091817D01*
X142149520Y-98076778D01*
X142169824Y-98068367D01*
X142240410Y-98060777D01*
X142303897Y-98092555D01*
X142340126Y-98153612D01*
X142337594Y-98224564D01*
X142307136Y-98273871D01*
X139704919Y-100876088D01*
X139704916Y-100876092D01*
X139666699Y-100923515D01*
X139666693Y-100923524D01*
X139605954Y-101056528D01*
X139605953Y-101056532D01*
X139585145Y-101201258D01*
X139585145Y-101201265D01*
X139605953Y-101345991D01*
X139605954Y-101345994D01*
X139666696Y-101479004D01*
X139666699Y-101479008D01*
X139704916Y-101526431D01*
X139704919Y-101526435D01*
X140178806Y-102000322D01*
X140212832Y-102062634D01*
X140207767Y-102133449D01*
X140178806Y-102178512D01*
X139173667Y-103183650D01*
X139111355Y-103217676D01*
X139110772Y-103217801D01*
X139047712Y-103231206D01*
X138873249Y-103308881D01*
X138873248Y-103308882D01*
X138718744Y-103421135D01*
X138590965Y-103563048D01*
X138590958Y-103563058D01*
X138495476Y-103728438D01*
X138495473Y-103728445D01*
X138436457Y-103910072D01*
X138416496Y-104100000D01*
X138436457Y-104289927D01*
X138454983Y-104346941D01*
X138495473Y-104471556D01*
X138495476Y-104471561D01*
X138590958Y-104636941D01*
X138590965Y-104636951D01*
X138718744Y-104778864D01*
X138718747Y-104778866D01*
X138873248Y-104891118D01*
X139047712Y-104968794D01*
X139234513Y-105008500D01*
X139425487Y-105008500D01*
X139612288Y-104968794D01*
X139786752Y-104891118D01*
X139941253Y-104778866D01*
X139941255Y-104778864D01*
X140069034Y-104636951D01*
X140069035Y-104636949D01*
X140069040Y-104636944D01*
X140164527Y-104471556D01*
X140219388Y-104302711D01*
X140250124Y-104252555D01*
X141251489Y-103251191D01*
X141313799Y-103217167D01*
X141384615Y-103222232D01*
X141429677Y-103251193D01*
X141895020Y-103716536D01*
X141895024Y-103716539D01*
X141932692Y-103746895D01*
X141942451Y-103754759D01*
X142075460Y-103815501D01*
X142075461Y-103815501D01*
X142075464Y-103815502D01*
X142220191Y-103836311D01*
X142220194Y-103836311D01*
X142220197Y-103836311D01*
X142364923Y-103815502D01*
X142364925Y-103815501D01*
X142364928Y-103815501D01*
X142449685Y-103776794D01*
X142497931Y-103754762D01*
X142497932Y-103754761D01*
X142497937Y-103754759D01*
X142545366Y-103716538D01*
X143871866Y-102390036D01*
X143934175Y-102356014D01*
X144004990Y-102361078D01*
X144061826Y-102403625D01*
X144070077Y-102416133D01*
X144110960Y-102486944D01*
X144110965Y-102486951D01*
X144238744Y-102628864D01*
X144238743Y-102628864D01*
X144393245Y-102741116D01*
X144398962Y-102744417D01*
X144397500Y-102746947D01*
X144441873Y-102784649D01*
X144461850Y-102840624D01*
X144479144Y-103005173D01*
X144489026Y-103035585D01*
X144538160Y-103186802D01*
X144538163Y-103186807D01*
X144624698Y-103336691D01*
X144641436Y-103405687D01*
X144635412Y-103438627D01*
X144576457Y-103620070D01*
X144556496Y-103810000D01*
X144576457Y-103999927D01*
X144593480Y-104052317D01*
X144635473Y-104181556D01*
X144635476Y-104181561D01*
X144730958Y-104346941D01*
X144730965Y-104346951D01*
X144858744Y-104488864D01*
X144858743Y-104488864D01*
X145004357Y-104594659D01*
X145047711Y-104650882D01*
X145053786Y-104721618D01*
X145023932Y-104780905D01*
X144940965Y-104873048D01*
X144940958Y-104873058D01*
X144845476Y-105038438D01*
X144845473Y-105038445D01*
X144786457Y-105220072D01*
X144766496Y-105410000D01*
X144786457Y-105599927D01*
X144792751Y-105619296D01*
X144845473Y-105781556D01*
X144845476Y-105781561D01*
X144940958Y-105946941D01*
X144940965Y-105946951D01*
X145068744Y-106088864D01*
X145129999Y-106133368D01*
X145223248Y-106201118D01*
X145397712Y-106278794D01*
X145584513Y-106318500D01*
X145775487Y-106318500D01*
X145962288Y-106278794D01*
X146136752Y-106201118D01*
X146291253Y-106088866D01*
X146294563Y-106085190D01*
X146355009Y-106047950D01*
X146388200Y-106043500D01*
X148191800Y-106043500D01*
X148259921Y-106063502D01*
X148285437Y-106085190D01*
X148288747Y-106088866D01*
X148443248Y-106201118D01*
X148617712Y-106278794D01*
X148804513Y-106318500D01*
X148995487Y-106318500D01*
X149182288Y-106278794D01*
X149356752Y-106201118D01*
X149511253Y-106088866D01*
X149639040Y-105946944D01*
X149734527Y-105781556D01*
X149793542Y-105599928D01*
X149813504Y-105410000D01*
X149793542Y-105220072D01*
X149734527Y-105038444D01*
X149639040Y-104873056D01*
X149639038Y-104873054D01*
X149639034Y-104873048D01*
X149511255Y-104731135D01*
X149429086Y-104671436D01*
X149385732Y-104615214D01*
X149379657Y-104544478D01*
X149412788Y-104481686D01*
X149474608Y-104446775D01*
X149503147Y-104443500D01*
X161612393Y-104443500D01*
X161612394Y-104443500D01*
X161734785Y-104419155D01*
X161850075Y-104371400D01*
X161953833Y-104302071D01*
X167165499Y-99090405D01*
X167227811Y-99056379D01*
X167254594Y-99053500D01*
X168531800Y-99053500D01*
X168599921Y-99073502D01*
X168625437Y-99095190D01*
X168628747Y-99098866D01*
X168783248Y-99211118D01*
X168957712Y-99288794D01*
X169144513Y-99328500D01*
X169335487Y-99328500D01*
X169522288Y-99288794D01*
X169696752Y-99211118D01*
X169851253Y-99098866D01*
X169854563Y-99095190D01*
X169979034Y-98956951D01*
X169979035Y-98956949D01*
X169979040Y-98956944D01*
X170074527Y-98791556D01*
X170133542Y-98609928D01*
X170147324Y-98478798D01*
X170174335Y-98413144D01*
X170221385Y-98376864D01*
X170256752Y-98361118D01*
X170411253Y-98248866D01*
X170531866Y-98114912D01*
X170539034Y-98106951D01*
X170539035Y-98106949D01*
X170539040Y-98106944D01*
X170634527Y-97941556D01*
X170693542Y-97759928D01*
X170713504Y-97570000D01*
X170693542Y-97380072D01*
X170634527Y-97198444D01*
X170539040Y-97033056D01*
X170539038Y-97033054D01*
X170539034Y-97033048D01*
X170411255Y-96891135D01*
X170256752Y-96778882D01*
X170082288Y-96701206D01*
X169895487Y-96661500D01*
X169839594Y-96661500D01*
X169771473Y-96641498D01*
X169750499Y-96624595D01*
X168933835Y-95807931D01*
X168933834Y-95807930D01*
X168933833Y-95807929D01*
X168830075Y-95738600D01*
X168714785Y-95690845D01*
X168641086Y-95676185D01*
X168592396Y-95666500D01*
X168592394Y-95666500D01*
X166337606Y-95666500D01*
X166337603Y-95666500D01*
X166215215Y-95690845D01*
X166215211Y-95690846D01*
X166195045Y-95699198D01*
X166195046Y-95699199D01*
X166099923Y-95738600D01*
X165996171Y-95807925D01*
X165996164Y-95807930D01*
X160524501Y-101279595D01*
X160462189Y-101313621D01*
X160435406Y-101316500D01*
X145558200Y-101316500D01*
X145490079Y-101296498D01*
X145464563Y-101274810D01*
X145461252Y-101271133D01*
X145354259Y-101193398D01*
X145308102Y-101159863D01*
X145264749Y-101103642D01*
X145258674Y-101032906D01*
X145291805Y-100970114D01*
X145292993Y-100968909D01*
X151806538Y-94455366D01*
X151844759Y-94407937D01*
X151848351Y-94400073D01*
X151873184Y-94345693D01*
X151905501Y-94274928D01*
X151906632Y-94267063D01*
X151926311Y-94130197D01*
X151926311Y-94130190D01*
X151905502Y-93985464D01*
X151905501Y-93985461D01*
X151903476Y-93981027D01*
X151844759Y-93852451D01*
X151844537Y-93852176D01*
X151806539Y-93805024D01*
X151806536Y-93805020D01*
X149616435Y-91614919D01*
X149616431Y-91614916D01*
X149569008Y-91576699D01*
X149569006Y-91576698D01*
X149569005Y-91576697D01*
X149549684Y-91567873D01*
X149512923Y-91551085D01*
X149459268Y-91504592D01*
X149439266Y-91436472D01*
X149459268Y-91368351D01*
X149476166Y-91347382D01*
X155886785Y-84936763D01*
X155949095Y-84902739D01*
X156019910Y-84907804D01*
X156076746Y-84950351D01*
X156090489Y-84973514D01*
X156098993Y-84992136D01*
X156106696Y-85009004D01*
X156106699Y-85009008D01*
X156144916Y-85056431D01*
X156144919Y-85056435D01*
X158335020Y-87246536D01*
X158335023Y-87246538D01*
X158382451Y-87284759D01*
X158515460Y-87345501D01*
X158515461Y-87345501D01*
X158515464Y-87345502D01*
X158660191Y-87366311D01*
X158660194Y-87366311D01*
X158660197Y-87366311D01*
X158804923Y-87345502D01*
X158804925Y-87345501D01*
X158804928Y-87345501D01*
X158889685Y-87306794D01*
X158937931Y-87284762D01*
X158937932Y-87284761D01*
X158937937Y-87284759D01*
X158985366Y-87246538D01*
X161231904Y-85000000D01*
X185361563Y-85000000D01*
X185381296Y-85351389D01*
X185381296Y-85351390D01*
X185440248Y-85698359D01*
X185440250Y-85698368D01*
X185517759Y-85967409D01*
X185537683Y-86036564D01*
X185672361Y-86361706D01*
X185672366Y-86361717D01*
X185672373Y-86361729D01*
X185842602Y-86669738D01*
X185842606Y-86669745D01*
X186046268Y-86956779D01*
X186046273Y-86956786D01*
X186147692Y-87070274D01*
X186280790Y-87219210D01*
X186354143Y-87284762D01*
X186543213Y-87453726D01*
X186543220Y-87453731D01*
X186830254Y-87657393D01*
X186830261Y-87657397D01*
X186943389Y-87719920D01*
X187138283Y-87827634D01*
X187463440Y-87962318D01*
X187801632Y-88059750D01*
X188148607Y-88118703D01*
X188500000Y-88138437D01*
X188851393Y-88118703D01*
X189198368Y-88059750D01*
X189536560Y-87962318D01*
X189861717Y-87827634D01*
X190169749Y-87657391D01*
X190456783Y-87453729D01*
X190719210Y-87219210D01*
X190953729Y-86956783D01*
X191157391Y-86669749D01*
X191327634Y-86361717D01*
X191462318Y-86036560D01*
X191559750Y-85698368D01*
X191618703Y-85351393D01*
X191638437Y-85000000D01*
X191618703Y-84648607D01*
X191559750Y-84301632D01*
X191462318Y-83963440D01*
X191327634Y-83638283D01*
X191157391Y-83330251D01*
X190953729Y-83043217D01*
X190953728Y-83043216D01*
X190953726Y-83043213D01*
X190803401Y-82875000D01*
X190719210Y-82780790D01*
X190567526Y-82645237D01*
X190456786Y-82546273D01*
X190456779Y-82546268D01*
X190169745Y-82342606D01*
X190169738Y-82342602D01*
X189949669Y-82220975D01*
X189861717Y-82172366D01*
X189861710Y-82172363D01*
X189861706Y-82172361D01*
X189536564Y-82037683D01*
X189467409Y-82017759D01*
X189198368Y-81940250D01*
X189198362Y-81940249D01*
X189198359Y-81940248D01*
X188851389Y-81881296D01*
X188500000Y-81861563D01*
X188148610Y-81881296D01*
X188148609Y-81881296D01*
X187801640Y-81940248D01*
X187801634Y-81940249D01*
X187801632Y-81940250D01*
X187717459Y-81964500D01*
X187463435Y-82037683D01*
X187138293Y-82172361D01*
X187138270Y-82172373D01*
X186830261Y-82342602D01*
X186830254Y-82342606D01*
X186543220Y-82546268D01*
X186543213Y-82546273D01*
X186280790Y-82780790D01*
X186046273Y-83043213D01*
X186046268Y-83043220D01*
X185842606Y-83330254D01*
X185842602Y-83330261D01*
X185672373Y-83638270D01*
X185672361Y-83638293D01*
X185537683Y-83963435D01*
X185440248Y-84301640D01*
X185381296Y-84648609D01*
X185381296Y-84648610D01*
X185361563Y-85000000D01*
X161231904Y-85000000D01*
X168246538Y-77985366D01*
X168284759Y-77937937D01*
X168345501Y-77804928D01*
X168349292Y-77778561D01*
X168366311Y-77660197D01*
X168366311Y-77660190D01*
X168345502Y-77515464D01*
X168345501Y-77515461D01*
X168337503Y-77497948D01*
X168284759Y-77382451D01*
X168246538Y-77335023D01*
X168246536Y-77335020D01*
X167776921Y-76865405D01*
X167742895Y-76803093D01*
X167747960Y-76732278D01*
X167776919Y-76687217D01*
X171326596Y-73137541D01*
X171388908Y-73103515D01*
X171415691Y-73100636D01*
X186558998Y-73100636D01*
X186627119Y-73120638D01*
X186673612Y-73174294D01*
X186683716Y-73244568D01*
X186654222Y-73309148D01*
X186648093Y-73315731D01*
X184411327Y-75552496D01*
X184411324Y-75552500D01*
X184373107Y-75599923D01*
X184373101Y-75599932D01*
X184312362Y-75732936D01*
X184312361Y-75732940D01*
X184291553Y-75877666D01*
X184291553Y-75877673D01*
X184312361Y-76022399D01*
X184312362Y-76022402D01*
X184373104Y-76155412D01*
X184373107Y-76155416D01*
X184411324Y-76202839D01*
X184411327Y-76202843D01*
X186601428Y-78392944D01*
X186601431Y-78392946D01*
X186648859Y-78431167D01*
X186781868Y-78491909D01*
X186781869Y-78491909D01*
X186781872Y-78491910D01*
X186926599Y-78512719D01*
X186926602Y-78512719D01*
X186926605Y-78512719D01*
X187071331Y-78491910D01*
X187071333Y-78491909D01*
X187071336Y-78491909D01*
X187156093Y-78453202D01*
X187204339Y-78431170D01*
X187204340Y-78431169D01*
X187204345Y-78431167D01*
X187251774Y-78392946D01*
X196512946Y-69131774D01*
X196551167Y-69084345D01*
X196552766Y-69080845D01*
X196586096Y-69007859D01*
X196611909Y-68951336D01*
X196611919Y-68951268D01*
X196632719Y-68806605D01*
X196632719Y-68806598D01*
X196611910Y-68661872D01*
X196611909Y-68661869D01*
X196609265Y-68656080D01*
X196551167Y-68528859D01*
X196534232Y-68507845D01*
X196512947Y-68481432D01*
X196512944Y-68481428D01*
X194660110Y-66628595D01*
X194626085Y-66566283D01*
X194631149Y-66495468D01*
X194673696Y-66438632D01*
X194740216Y-66413821D01*
X194749205Y-66413500D01*
X196191800Y-66413500D01*
X196259921Y-66433502D01*
X196285437Y-66455190D01*
X196288747Y-66458866D01*
X196443248Y-66571118D01*
X196617712Y-66648794D01*
X196804513Y-66688500D01*
X196995487Y-66688500D01*
X197182288Y-66648794D01*
X197356752Y-66571118D01*
X197511253Y-66458866D01*
X197527481Y-66440843D01*
X197639034Y-66316951D01*
X197639035Y-66316949D01*
X197639040Y-66316944D01*
X197734527Y-66151556D01*
X197746569Y-66114497D01*
X197751081Y-66100609D01*
X197791154Y-66042003D01*
X197856550Y-66014365D01*
X197897107Y-66016297D01*
X197954513Y-66028500D01*
X197954515Y-66028500D01*
X198145487Y-66028500D01*
X198332288Y-65988794D01*
X198506752Y-65911118D01*
X198661253Y-65798866D01*
X198724228Y-65728925D01*
X198789034Y-65656951D01*
X198789035Y-65656949D01*
X198789040Y-65656944D01*
X198884527Y-65491556D01*
X198943542Y-65309928D01*
X198963504Y-65120000D01*
X198943542Y-64930072D01*
X198884527Y-64748444D01*
X198789040Y-64583056D01*
X198789038Y-64583054D01*
X198789034Y-64583048D01*
X198661255Y-64441135D01*
X198506752Y-64328882D01*
X198332288Y-64251206D01*
X198269227Y-64237801D01*
X198206754Y-64204072D01*
X198206331Y-64203650D01*
X196203519Y-62200838D01*
X196203515Y-62200834D01*
X196079284Y-62117826D01*
X195941247Y-62060649D01*
X195867976Y-62046074D01*
X195867975Y-62046073D01*
X195794711Y-62031500D01*
X195794706Y-62031500D01*
X188542587Y-62031500D01*
X188474466Y-62011498D01*
X188468524Y-62007435D01*
X188456754Y-61998883D01*
X188282288Y-61921206D01*
X188095487Y-61881500D01*
X187904513Y-61881500D01*
X187717711Y-61921206D01*
X187543247Y-61998882D01*
X187388744Y-62111135D01*
X187260965Y-62253048D01*
X187260958Y-62253058D01*
X187165476Y-62418438D01*
X187165473Y-62418445D01*
X187106457Y-62600072D01*
X187086496Y-62790000D01*
X187106457Y-62979927D01*
X187136526Y-63072470D01*
X187165473Y-63161556D01*
X187165476Y-63161561D01*
X187260958Y-63326941D01*
X187260965Y-63326951D01*
X187388744Y-63468864D01*
X187388747Y-63468866D01*
X187543248Y-63581118D01*
X187717712Y-63658794D01*
X187904513Y-63698500D01*
X188095487Y-63698500D01*
X188282288Y-63658794D01*
X188456752Y-63581118D01*
X188468524Y-63572564D01*
X188535391Y-63548706D01*
X188542587Y-63548500D01*
X188638446Y-63548500D01*
X188706567Y-63568502D01*
X188753060Y-63622158D01*
X188763164Y-63692432D01*
X188747565Y-63737500D01*
X188735476Y-63758438D01*
X188735473Y-63758445D01*
X188676457Y-63940072D01*
X188656496Y-64130000D01*
X188676457Y-64319927D01*
X188679367Y-64328882D01*
X188735473Y-64501556D01*
X188735476Y-64501561D01*
X188830958Y-64666941D01*
X188830965Y-64666951D01*
X188958744Y-64808864D01*
X188958747Y-64808866D01*
X189047009Y-64872992D01*
X189090362Y-64929213D01*
X189098257Y-64988097D01*
X189086496Y-65099999D01*
X189106457Y-65289927D01*
X189135875Y-65380462D01*
X189165473Y-65471556D01*
X189165476Y-65471561D01*
X189260958Y-65636941D01*
X189260965Y-65636951D01*
X189388744Y-65778864D01*
X189449999Y-65823368D01*
X189543248Y-65891118D01*
X189717712Y-65968794D01*
X189824420Y-65991475D01*
X189886893Y-66025203D01*
X189921215Y-66087353D01*
X189923533Y-66127892D01*
X189906496Y-66289999D01*
X189926457Y-66479927D01*
X189933242Y-66500808D01*
X189985473Y-66661556D01*
X189985476Y-66661561D01*
X190080958Y-66826941D01*
X190080965Y-66826951D01*
X190208744Y-66968864D01*
X190208747Y-66968866D01*
X190363248Y-67081118D01*
X190537712Y-67158794D01*
X190724513Y-67198500D01*
X190915487Y-67198500D01*
X191102288Y-67158794D01*
X191276752Y-67081118D01*
X191431253Y-66968866D01*
X191464182Y-66932295D01*
X191559034Y-66826951D01*
X191559035Y-66826949D01*
X191559040Y-66826944D01*
X191654527Y-66661556D01*
X191706837Y-66500562D01*
X191746911Y-66441958D01*
X191812308Y-66414321D01*
X191826670Y-66413500D01*
X193246134Y-66413500D01*
X193314255Y-66433502D01*
X193360748Y-66487158D01*
X193370852Y-66557432D01*
X193341358Y-66622012D01*
X193335229Y-66628595D01*
X188417093Y-71546731D01*
X188354781Y-71580757D01*
X188327998Y-71583636D01*
X170974608Y-71583636D01*
X170901344Y-71598209D01*
X170901344Y-71598210D01*
X170828073Y-71612785D01*
X170828071Y-71612785D01*
X170828070Y-71612786D01*
X170690034Y-71669963D01*
X170565806Y-71752969D01*
X170565800Y-71752974D01*
X166704240Y-75614534D01*
X166641928Y-75648560D01*
X166571112Y-75643495D01*
X166526050Y-75614534D01*
X166056435Y-75144919D01*
X166056431Y-75144916D01*
X166009008Y-75106699D01*
X166009004Y-75106696D01*
X165875994Y-75045954D01*
X165875991Y-75045953D01*
X165731265Y-75025145D01*
X165731259Y-75025145D01*
X165586532Y-75045953D01*
X165586528Y-75045954D01*
X165453524Y-75106693D01*
X165453515Y-75106699D01*
X165406092Y-75144916D01*
X165406088Y-75144919D01*
X157901374Y-82649633D01*
X157839062Y-82683659D01*
X157768247Y-82678594D01*
X157723184Y-82649633D01*
X157068577Y-81995026D01*
X157068573Y-81995023D01*
X156994882Y-81964500D01*
X156915118Y-81964500D01*
X156841426Y-81995023D01*
X156841425Y-81995024D01*
X156813225Y-82023225D01*
X156785024Y-82051426D01*
X156785023Y-82051427D01*
X146600264Y-92236184D01*
X146599893Y-92236489D01*
X146534993Y-92301389D01*
X146534990Y-92301393D01*
X146504467Y-92375084D01*
X146504467Y-92454849D01*
X146534990Y-92528540D01*
X146534993Y-92528544D01*
X147204633Y-93198184D01*
X147238659Y-93260496D01*
X147233594Y-93331311D01*
X147204633Y-93376374D01*
X144282128Y-96298879D01*
X144219816Y-96332905D01*
X144149001Y-96327840D01*
X144092165Y-96285293D01*
X144067354Y-96218773D01*
X144076626Y-96161562D01*
X144085470Y-96140210D01*
X144105508Y-95988016D01*
X144105508Y-95988015D01*
X144085471Y-95835824D01*
X144026724Y-95694000D01*
X144026723Y-95693998D01*
X143956739Y-95602793D01*
X143956726Y-95602779D01*
X143157542Y-94803595D01*
X143123516Y-94741283D01*
X143128581Y-94670468D01*
X143171128Y-94613632D01*
X143237648Y-94588821D01*
X143246637Y-94588500D01*
X143536800Y-94588500D01*
X143604921Y-94608502D01*
X143630437Y-94630190D01*
X143633747Y-94633866D01*
X143788248Y-94746118D01*
X143962712Y-94823794D01*
X144149513Y-94863500D01*
X144340487Y-94863500D01*
X144527288Y-94823794D01*
X144701752Y-94746118D01*
X144856253Y-94633866D01*
X144897101Y-94588500D01*
X144984034Y-94491951D01*
X144984035Y-94491949D01*
X144984040Y-94491944D01*
X145079527Y-94326556D01*
X145138542Y-94144928D01*
X145158504Y-93955000D01*
X145138542Y-93765072D01*
X145079527Y-93583444D01*
X144984040Y-93418056D01*
X144984038Y-93418054D01*
X144984034Y-93418048D01*
X144856255Y-93276135D01*
X144701752Y-93163882D01*
X144527284Y-93086204D01*
X144472254Y-93074507D01*
X144409781Y-93040779D01*
X144375460Y-92978629D01*
X144378619Y-92912324D01*
X144404938Y-92831323D01*
X144422303Y-92666099D01*
X144449316Y-92600444D01*
X144458509Y-92590185D01*
X155571164Y-81477530D01*
X155633474Y-81443506D01*
X155704289Y-81448571D01*
X155749352Y-81477532D01*
X155812368Y-81540548D01*
X155812380Y-81540559D01*
X155812385Y-81540564D01*
X155812388Y-81540567D01*
X155812392Y-81540570D01*
X155844063Y-81566092D01*
X155859813Y-81578784D01*
X155992822Y-81639527D01*
X156137556Y-81660336D01*
X156282290Y-81639527D01*
X156415299Y-81578784D01*
X156462728Y-81540564D01*
X157026487Y-80976805D01*
X157064707Y-80929376D01*
X157123446Y-80800754D01*
X157169938Y-80747100D01*
X157185716Y-80738485D01*
X157313048Y-80680333D01*
X157360430Y-80642151D01*
X157360437Y-80642145D01*
X157462673Y-80539908D01*
X156447268Y-79524503D01*
X156413242Y-79462191D01*
X156418307Y-79391376D01*
X156447268Y-79346313D01*
X156628287Y-79165294D01*
X156690599Y-79131268D01*
X156761414Y-79136333D01*
X156806477Y-79165294D01*
X157821882Y-80180699D01*
X157821883Y-80180699D01*
X157924119Y-80078463D01*
X157924125Y-80078456D01*
X157962306Y-80031076D01*
X158020458Y-79903742D01*
X158066951Y-79850086D01*
X158082723Y-79841473D01*
X158211350Y-79782732D01*
X158258779Y-79744512D01*
X158822538Y-79180753D01*
X158860758Y-79133324D01*
X158919179Y-79005398D01*
X158965671Y-78951744D01*
X158981442Y-78943132D01*
X159109376Y-78884707D01*
X159156805Y-78846487D01*
X159720564Y-78282728D01*
X159758784Y-78235299D01*
X159819527Y-78102290D01*
X159840336Y-77957556D01*
X159819527Y-77812822D01*
X159758784Y-77679813D01*
X159758781Y-77679809D01*
X159720570Y-77632392D01*
X159720548Y-77632368D01*
X158520424Y-76432244D01*
X158520400Y-76432222D01*
X158472983Y-76394011D01*
X158472981Y-76394010D01*
X158472980Y-76394009D01*
X158339971Y-76333266D01*
X158195237Y-76312457D01*
X158195236Y-76312457D01*
X158103021Y-76325715D01*
X158032748Y-76315610D01*
X157995996Y-76290092D01*
X157636482Y-75930578D01*
X157636473Y-75930568D01*
X157617459Y-75911554D01*
X157573596Y-75867691D01*
X157539573Y-75805382D01*
X157537383Y-75791768D01*
X157523542Y-75660072D01*
X157511820Y-75623996D01*
X157464527Y-75478444D01*
X157369040Y-75313056D01*
X157369038Y-75313054D01*
X157369034Y-75313048D01*
X157241255Y-75171135D01*
X157086752Y-75058882D01*
X156912288Y-74981206D01*
X156725487Y-74941500D01*
X156534513Y-74941500D01*
X156347711Y-74981206D01*
X156173247Y-75058882D01*
X156108561Y-75105880D01*
X156041693Y-75129739D01*
X155972542Y-75113658D01*
X155923061Y-75062744D01*
X155908500Y-75003944D01*
X155908500Y-74615989D01*
X155928502Y-74547868D01*
X155945400Y-74526899D01*
X158568682Y-71903616D01*
X158630992Y-71869592D01*
X158701807Y-71874657D01*
X158758643Y-71917204D01*
X158774183Y-71944494D01*
X158815961Y-72045354D01*
X158887506Y-72138593D01*
X159580812Y-72831899D01*
X159614836Y-72894210D01*
X159609772Y-72965025D01*
X159606330Y-72973335D01*
X159603786Y-72978903D01*
X159591794Y-73062313D01*
X159582977Y-73123640D01*
X159603786Y-73268374D01*
X159664529Y-73401383D01*
X159664530Y-73401384D01*
X159664531Y-73401386D01*
X159702742Y-73448803D01*
X159702764Y-73448827D01*
X161539284Y-75285347D01*
X161539308Y-75285369D01*
X161586725Y-75323580D01*
X161586729Y-75323583D01*
X161719738Y-75384326D01*
X161864472Y-75405135D01*
X162009206Y-75384326D01*
X162014773Y-75381783D01*
X162085044Y-75371677D01*
X162149626Y-75401166D01*
X162156199Y-75407286D01*
X162849519Y-76100606D01*
X162942758Y-76172151D01*
X163087744Y-76232206D01*
X163243330Y-76252689D01*
X163398917Y-76232206D01*
X163543902Y-76172151D01*
X163637142Y-76100606D01*
X163816134Y-75921614D01*
X163887679Y-75828374D01*
X163901906Y-75794025D01*
X163946451Y-75738747D01*
X163970100Y-75725835D01*
X164003263Y-75712099D01*
X164003267Y-75712097D01*
X164057648Y-75670368D01*
X164005122Y-75617842D01*
X163971096Y-75555530D01*
X163968217Y-75528747D01*
X163968217Y-75527801D01*
X163949678Y-75386982D01*
X163960617Y-75316833D01*
X164007746Y-75263735D01*
X164076100Y-75244545D01*
X164143977Y-75265356D01*
X164163696Y-75281441D01*
X164305135Y-75422880D01*
X164346860Y-75368506D01*
X164346861Y-75368505D01*
X164360873Y-75334678D01*
X164405421Y-75279397D01*
X164429064Y-75266487D01*
X164462888Y-75252476D01*
X164517266Y-75210749D01*
X163650623Y-74344105D01*
X163616598Y-74281793D01*
X163618514Y-74255010D01*
X164056503Y-74255010D01*
X164056503Y-74255012D01*
X164764753Y-74963262D01*
X164764754Y-74963261D01*
X164806481Y-74908884D01*
X164820490Y-74875062D01*
X164865036Y-74819779D01*
X164888687Y-74806864D01*
X164922507Y-74792856D01*
X164976885Y-74751129D01*
X164268635Y-74042878D01*
X164056503Y-74255010D01*
X163618514Y-74255010D01*
X163621663Y-74210977D01*
X163650624Y-74165914D01*
X163809017Y-74007523D01*
X164021144Y-73795394D01*
X164021147Y-73795390D01*
X164516122Y-73795390D01*
X164516122Y-73795392D01*
X165224372Y-74503642D01*
X165224373Y-74503641D01*
X165266100Y-74449265D01*
X165326105Y-74304399D01*
X165346571Y-74148944D01*
X165346571Y-74148943D01*
X165326105Y-73993489D01*
X165266101Y-73848626D01*
X165266096Y-73848618D01*
X165194620Y-73755469D01*
X165194608Y-73755456D01*
X164875332Y-73436181D01*
X164875331Y-73436181D01*
X164516122Y-73795390D01*
X164021147Y-73795390D01*
X164021148Y-73795389D01*
X164268636Y-73547903D01*
X164627845Y-73188693D01*
X164501464Y-73062313D01*
X164467439Y-73000001D01*
X164472503Y-72929185D01*
X164475930Y-72920910D01*
X164478712Y-72914820D01*
X164499521Y-72770086D01*
X164478712Y-72625352D01*
X164429286Y-72517124D01*
X164419183Y-72446855D01*
X164448676Y-72382274D01*
X164487358Y-72352185D01*
X164500265Y-72345703D01*
X164581177Y-72279790D01*
X164773158Y-72087810D01*
X164773158Y-72087808D01*
X163969885Y-71284535D01*
X163935859Y-71222223D01*
X163940924Y-71151408D01*
X163969885Y-71106345D01*
X164150904Y-70925326D01*
X164213216Y-70891300D01*
X164284031Y-70896365D01*
X164329094Y-70925326D01*
X165132367Y-71728599D01*
X165132369Y-71728599D01*
X165324349Y-71536618D01*
X165390260Y-71455709D01*
X165390261Y-71455706D01*
X165469789Y-71297354D01*
X165510652Y-71124944D01*
X165510653Y-71124940D01*
X165510653Y-70947744D01*
X165510652Y-70947742D01*
X165490911Y-70864449D01*
X165494663Y-70793552D01*
X165536150Y-70735938D01*
X165602199Y-70709899D01*
X165659272Y-70719373D01*
X165659493Y-70718693D01*
X165664002Y-70720158D01*
X165664766Y-70720285D01*
X165665527Y-70720623D01*
X165665773Y-70720733D01*
X165852574Y-70760439D01*
X166043548Y-70760439D01*
X166230349Y-70720733D01*
X166404813Y-70643057D01*
X166559314Y-70530805D01*
X166562624Y-70527129D01*
X166623070Y-70489889D01*
X166656261Y-70485439D01*
X168202371Y-70485439D01*
X168270492Y-70505441D01*
X168291467Y-70522345D01*
X168333503Y-70564381D01*
X168333502Y-70564381D01*
X168411123Y-70627614D01*
X168411127Y-70627616D01*
X168411133Y-70627621D01*
X168563057Y-70703920D01*
X168728480Y-70743126D01*
X168728482Y-70743126D01*
X168898485Y-70743126D01*
X168898487Y-70743126D01*
X169063910Y-70703920D01*
X169215834Y-70627621D01*
X169293460Y-70564386D01*
X169724385Y-70133460D01*
X169787621Y-70055834D01*
X169863920Y-69903910D01*
X169903126Y-69738487D01*
X169903126Y-69568480D01*
X169863920Y-69403057D01*
X169787621Y-69251133D01*
X169724386Y-69173507D01*
X169346493Y-68795615D01*
X169346492Y-68795614D01*
X169268876Y-68732385D01*
X169268870Y-68732382D01*
X169268867Y-68732379D01*
X169116943Y-68656080D01*
X168951520Y-68616874D01*
X168951518Y-68616874D01*
X168915432Y-68616874D01*
X168847311Y-68596872D01*
X168800818Y-68543216D01*
X168789432Y-68490874D01*
X168789432Y-68454786D01*
X168750226Y-68289363D01*
X168673927Y-68137439D01*
X168610692Y-68059813D01*
X168232799Y-67681921D01*
X168232798Y-67681920D01*
X168155182Y-67618691D01*
X168155176Y-67618688D01*
X168155173Y-67618685D01*
X168003249Y-67542386D01*
X167837826Y-67503180D01*
X167667819Y-67503180D01*
X167638256Y-67510186D01*
X167602611Y-67518634D01*
X167531714Y-67514880D01*
X167484460Y-67485125D01*
X167074522Y-67075187D01*
X167040496Y-67012875D01*
X167041279Y-66955935D01*
X167047107Y-66932295D01*
X167047107Y-66760241D01*
X167012685Y-66620583D01*
X167005933Y-66593188D01*
X167005932Y-66593186D01*
X167005932Y-66593185D01*
X166957320Y-66500563D01*
X166925976Y-66440843D01*
X166925974Y-66440841D01*
X166925973Y-66440838D01*
X166880084Y-66385775D01*
X166516257Y-66021949D01*
X166516256Y-66021948D01*
X166516254Y-66021946D01*
X166461194Y-65976059D01*
X166461192Y-65976058D01*
X166308847Y-65896100D01*
X166308843Y-65896098D01*
X166141793Y-65854925D01*
X166141791Y-65854925D01*
X166005881Y-65854925D01*
X165937760Y-65834923D01*
X165891267Y-65781267D01*
X165879881Y-65728925D01*
X165879881Y-65593576D01*
X165879880Y-65593573D01*
X165838734Y-65426639D01*
X165838731Y-65426632D01*
X165758836Y-65274403D01*
X165758828Y-65274392D01*
X165712985Y-65219384D01*
X165712974Y-65219372D01*
X165710695Y-65217093D01*
X164836006Y-66091784D01*
X164836005Y-66091785D01*
X164320524Y-66607264D01*
X164322802Y-66609542D01*
X164322806Y-66609545D01*
X164377826Y-66655401D01*
X164530069Y-66735304D01*
X164697003Y-66776450D01*
X164697006Y-66776451D01*
X164832355Y-66776451D01*
X164900476Y-66796453D01*
X164946969Y-66850109D01*
X164958355Y-66902451D01*
X164958355Y-67038363D01*
X164999528Y-67205413D01*
X164999530Y-67205417D01*
X165079485Y-67357758D01*
X165079488Y-67357762D01*
X165079489Y-67357764D01*
X165125378Y-67412827D01*
X165489205Y-67776653D01*
X165544268Y-67822543D01*
X165696615Y-67902502D01*
X165696616Y-67902502D01*
X165696618Y-67902503D01*
X165771024Y-67920842D01*
X165863671Y-67943677D01*
X165863673Y-67943677D01*
X166035724Y-67943677D01*
X166035725Y-67943677D01*
X166059364Y-67937850D01*
X166130291Y-67940965D01*
X166178617Y-67971092D01*
X166626275Y-68418750D01*
X166660301Y-68481062D01*
X166663180Y-68507845D01*
X166663180Y-68677826D01*
X166702386Y-68843249D01*
X166776123Y-68990072D01*
X166778686Y-68995174D01*
X166778687Y-68995175D01*
X166793094Y-69012861D01*
X166820609Y-69078308D01*
X166808373Y-69148243D01*
X166760270Y-69200460D01*
X166695404Y-69218439D01*
X166656261Y-69218439D01*
X166588140Y-69198437D01*
X166562624Y-69176749D01*
X166559313Y-69173072D01*
X166404813Y-69060821D01*
X166230349Y-68983145D01*
X166043548Y-68943439D01*
X165852574Y-68943439D01*
X165665772Y-68983145D01*
X165491308Y-69060821D01*
X165336808Y-69173072D01*
X165333498Y-69176749D01*
X165273052Y-69213989D01*
X165239861Y-69218439D01*
X164059622Y-69218439D01*
X163991501Y-69198437D01*
X163970527Y-69181535D01*
X163556197Y-68767207D01*
X163556193Y-68767204D01*
X163475237Y-68701255D01*
X163316786Y-68621677D01*
X163144253Y-68580786D01*
X162966941Y-68580786D01*
X162794408Y-68621677D01*
X162794404Y-68621678D01*
X162635962Y-68701251D01*
X162635954Y-68701257D01*
X162554998Y-68767204D01*
X162554994Y-68767207D01*
X162509901Y-68812300D01*
X162447588Y-68846325D01*
X162376772Y-68841259D01*
X162319937Y-68798712D01*
X162311687Y-68786204D01*
X162257407Y-68692189D01*
X162229040Y-68643056D01*
X162229038Y-68643054D01*
X162229034Y-68643048D01*
X162101255Y-68501135D01*
X161946752Y-68388882D01*
X161772288Y-68311206D01*
X161585487Y-68271500D01*
X161394513Y-68271500D01*
X161207711Y-68311206D01*
X161033247Y-68388882D01*
X160878744Y-68501135D01*
X160750965Y-68643048D01*
X160750958Y-68643058D01*
X160655476Y-68808438D01*
X160655473Y-68808445D01*
X160596456Y-68990075D01*
X160596456Y-68990077D01*
X160594587Y-69007859D01*
X160567573Y-69073515D01*
X160509351Y-69114144D01*
X160438406Y-69116845D01*
X160421060Y-69111095D01*
X160348034Y-69080846D01*
X160225640Y-69056500D01*
X160225638Y-69056500D01*
X159546518Y-69056500D01*
X159478397Y-69036498D01*
X159431904Y-68982842D01*
X159421800Y-68912568D01*
X159431905Y-68878157D01*
X159434045Y-68873472D01*
X159434046Y-68873467D01*
X159454855Y-68728741D01*
X159454855Y-68728734D01*
X159434046Y-68584008D01*
X159434045Y-68584005D01*
X159408861Y-68528859D01*
X159373303Y-68450995D01*
X159335082Y-68403567D01*
X159335080Y-68403564D01*
X157144979Y-66213463D01*
X157144975Y-66213460D01*
X157097552Y-66175243D01*
X157097548Y-66175240D01*
X156964538Y-66114498D01*
X156964535Y-66114497D01*
X156819809Y-66093689D01*
X156819803Y-66093689D01*
X156675076Y-66114497D01*
X156675072Y-66114498D01*
X156542068Y-66175237D01*
X156542059Y-66175243D01*
X156494636Y-66213460D01*
X156494632Y-66213463D01*
X147233463Y-75474632D01*
X147233460Y-75474636D01*
X147195243Y-75522059D01*
X147195237Y-75522068D01*
X147134498Y-75655072D01*
X147134497Y-75655076D01*
X147113689Y-75799802D01*
X147113689Y-75799809D01*
X147134497Y-75944535D01*
X147134498Y-75944538D01*
X147195240Y-76077548D01*
X147195243Y-76077552D01*
X147233460Y-76124975D01*
X147233463Y-76124979D01*
X147543806Y-76435322D01*
X147577832Y-76497634D01*
X147572767Y-76568449D01*
X147543806Y-76613512D01*
X141168512Y-82988806D01*
X141106200Y-83022832D01*
X141035385Y-83017767D01*
X140990322Y-82988806D01*
X140684979Y-82683463D01*
X140684975Y-82683460D01*
X140637552Y-82645243D01*
X140637548Y-82645240D01*
X140504538Y-82584498D01*
X140504535Y-82584497D01*
X140359809Y-82563689D01*
X140359803Y-82563689D01*
X140215076Y-82584497D01*
X140215072Y-82584498D01*
X140082068Y-82645237D01*
X140082059Y-82645243D01*
X140034636Y-82683460D01*
X140034632Y-82683463D01*
X130773463Y-91944632D01*
X130773460Y-91944636D01*
X130735243Y-91992059D01*
X130735237Y-91992068D01*
X130674498Y-92125072D01*
X130674497Y-92125076D01*
X130653689Y-92269802D01*
X128722483Y-92269802D01*
X121275405Y-84822724D01*
X121241379Y-84760412D01*
X121238500Y-84733629D01*
X121238500Y-65699640D01*
X163792129Y-65699640D01*
X163792129Y-65871576D01*
X163833275Y-66038510D01*
X163833278Y-66038517D01*
X163913173Y-66190746D01*
X163913181Y-66190757D01*
X163959024Y-66245765D01*
X163959035Y-66245777D01*
X163961313Y-66248055D01*
X163961314Y-66248054D01*
X164476794Y-65732575D01*
X164014346Y-65270127D01*
X163959036Y-65325439D01*
X163913178Y-65380462D01*
X163833275Y-65532706D01*
X163792129Y-65699640D01*
X121238500Y-65699640D01*
X121238500Y-64910916D01*
X164373557Y-64910916D01*
X164373557Y-64910918D01*
X164836004Y-65373365D01*
X164836005Y-65373365D01*
X165351485Y-64857884D01*
X165349207Y-64855607D01*
X165349203Y-64855604D01*
X165294183Y-64809748D01*
X165141940Y-64729845D01*
X164975006Y-64688699D01*
X164803070Y-64688699D01*
X164636136Y-64729845D01*
X164483893Y-64809748D01*
X164428869Y-64855604D01*
X164428856Y-64855616D01*
X164373557Y-64910916D01*
X121238500Y-64910916D01*
X121238500Y-58555293D01*
X121238499Y-58555290D01*
X121209351Y-58408754D01*
X121152174Y-58270716D01*
X121069165Y-58146484D01*
X120963516Y-58040835D01*
X119511973Y-56589292D01*
X115137230Y-52214548D01*
X115137221Y-52214541D01*
X115126877Y-52207629D01*
X115107785Y-52191960D01*
X114007612Y-51091787D01*
X113973586Y-51029475D01*
X113978651Y-50958660D01*
X114007612Y-50913597D01*
X114059942Y-50861267D01*
X114300452Y-50620757D01*
X114338673Y-50573328D01*
X114355676Y-50536097D01*
X114399415Y-50440318D01*
X114399416Y-50440314D01*
X114420225Y-50295588D01*
X114420225Y-50295581D01*
X114399416Y-50150855D01*
X114399415Y-50150852D01*
X114399292Y-50150583D01*
X114338673Y-50017842D01*
X114300452Y-49970414D01*
X114300450Y-49970411D01*
X113029588Y-48699549D01*
X113029584Y-48699546D01*
X112982161Y-48661329D01*
X112982157Y-48661326D01*
X112849147Y-48600584D01*
X112849144Y-48600583D01*
X112704418Y-48579775D01*
X112704412Y-48579775D01*
X112559685Y-48600583D01*
X112559681Y-48600584D01*
X112426677Y-48661323D01*
X112426668Y-48661329D01*
X112379245Y-48699546D01*
X112379241Y-48699549D01*
X110542693Y-50536097D01*
X110542690Y-50536101D01*
X110504473Y-50583524D01*
X110504467Y-50583533D01*
X110443728Y-50716537D01*
X110443727Y-50716541D01*
X110422919Y-50861267D01*
X110422919Y-50861274D01*
X110443727Y-51006000D01*
X110443728Y-51006003D01*
X110504470Y-51139013D01*
X110504473Y-51139017D01*
X110542690Y-51186440D01*
X110542693Y-51186444D01*
X111813555Y-52457306D01*
X111813558Y-52457308D01*
X111860986Y-52495529D01*
X111993995Y-52556271D01*
X111993996Y-52556271D01*
X111993999Y-52556272D01*
X112138726Y-52577081D01*
X112138729Y-52577081D01*
X112138732Y-52577081D01*
X112283458Y-52556272D01*
X112283460Y-52556271D01*
X112283463Y-52556271D01*
X112368220Y-52517564D01*
X112416466Y-52495532D01*
X112416467Y-52495531D01*
X112416472Y-52495529D01*
X112463901Y-52457308D01*
X112756743Y-52164465D01*
X112819052Y-52130443D01*
X112889867Y-52135507D01*
X112934930Y-52164468D01*
X114163334Y-53392872D01*
X114163342Y-53392878D01*
X114173683Y-53399788D01*
X114192778Y-53415459D01*
X119684595Y-58907276D01*
X119718621Y-58969588D01*
X119721500Y-58996371D01*
X119721500Y-85174707D01*
X119726280Y-85198738D01*
X119750649Y-85321247D01*
X119807826Y-85459284D01*
X119890834Y-85583515D01*
X119890838Y-85583519D01*
X131394874Y-97087555D01*
X131425612Y-97137713D01*
X131480473Y-97306556D01*
X131480476Y-97306561D01*
X131575958Y-97471941D01*
X131575965Y-97471951D01*
X131703744Y-97613864D01*
X131703747Y-97613866D01*
X131858248Y-97726118D01*
X132032712Y-97803794D01*
X132095769Y-97817197D01*
X132158243Y-97850925D01*
X132158668Y-97851349D01*
X133183023Y-98875704D01*
X133217049Y-98938016D01*
X133219928Y-98964799D01*
X133219928Y-100334529D01*
X133199926Y-100402650D01*
X133146270Y-100449143D01*
X133075996Y-100459247D01*
X133011416Y-100429753D01*
X133004833Y-100423624D01*
X131192330Y-98611121D01*
X131192329Y-98611120D01*
X131144904Y-98572902D01*
X131144903Y-98572901D01*
X131144894Y-98572895D01*
X131011890Y-98512156D01*
X131011886Y-98512155D01*
X130867160Y-98491347D01*
X130867154Y-98491347D01*
X130722427Y-98512155D01*
X130722424Y-98512156D01*
X130589414Y-98572898D01*
X130589409Y-98572902D01*
X130541996Y-98611111D01*
X130541975Y-98611130D01*
X130531980Y-98621124D01*
X130469665Y-98655144D01*
X130398850Y-98650073D01*
X130353797Y-98621116D01*
X128801383Y-97068702D01*
X128801379Y-97068698D01*
X128677148Y-96985690D01*
X128551151Y-96933500D01*
X128539114Y-96928514D01*
X128539111Y-96928513D01*
X128409215Y-96902675D01*
X128409213Y-96902674D01*
X128409211Y-96902673D01*
X128392575Y-96899365D01*
X128392570Y-96899364D01*
X128392566Y-96899364D01*
X112441002Y-96899364D01*
X112372881Y-96879362D01*
X112326388Y-96825706D01*
X112316284Y-96755432D01*
X112345778Y-96690852D01*
X112351907Y-96684269D01*
X113433397Y-95602779D01*
X114588674Y-94447502D01*
X114626895Y-94400073D01*
X114687637Y-94267064D01*
X114694247Y-94221091D01*
X114708447Y-94122333D01*
X114708447Y-94122326D01*
X114687638Y-93977600D01*
X114687637Y-93977597D01*
X114684765Y-93971309D01*
X114626895Y-93844587D01*
X114595011Y-93805023D01*
X114588675Y-93797160D01*
X114588672Y-93797156D01*
X112398571Y-91607055D01*
X112398567Y-91607052D01*
X112351144Y-91568835D01*
X112351140Y-91568832D01*
X112218130Y-91508090D01*
X112218127Y-91508089D01*
X112073401Y-91487281D01*
X112073395Y-91487281D01*
X111928668Y-91508089D01*
X111928664Y-91508090D01*
X111795660Y-91568829D01*
X111795651Y-91568835D01*
X111748228Y-91607052D01*
X111748224Y-91607055D01*
X102487055Y-100868224D01*
X102487052Y-100868228D01*
X102448835Y-100915651D01*
X102448829Y-100915660D01*
X102388090Y-101048664D01*
X102388089Y-101048668D01*
X102367281Y-101193394D01*
X99700500Y-101193394D01*
X99700500Y-85000000D01*
X107361563Y-85000000D01*
X107381296Y-85351389D01*
X107381296Y-85351390D01*
X107440248Y-85698359D01*
X107440250Y-85698368D01*
X107517759Y-85967409D01*
X107537683Y-86036564D01*
X107672361Y-86361706D01*
X107672366Y-86361717D01*
X107672373Y-86361729D01*
X107842602Y-86669738D01*
X107842606Y-86669745D01*
X108046268Y-86956779D01*
X108046273Y-86956786D01*
X108147692Y-87070274D01*
X108280790Y-87219210D01*
X108354143Y-87284762D01*
X108543213Y-87453726D01*
X108543220Y-87453731D01*
X108830254Y-87657393D01*
X108830261Y-87657397D01*
X108943389Y-87719920D01*
X109138283Y-87827634D01*
X109463440Y-87962318D01*
X109801632Y-88059750D01*
X110148607Y-88118703D01*
X110500000Y-88138437D01*
X110851393Y-88118703D01*
X111198368Y-88059750D01*
X111536560Y-87962318D01*
X111861717Y-87827634D01*
X112169749Y-87657391D01*
X112456783Y-87453729D01*
X112719210Y-87219210D01*
X112953729Y-86956783D01*
X113157391Y-86669749D01*
X113327634Y-86361717D01*
X113462318Y-86036560D01*
X113559750Y-85698368D01*
X113618703Y-85351393D01*
X113638437Y-85000000D01*
X113618703Y-84648607D01*
X113559750Y-84301632D01*
X113462318Y-83963440D01*
X113327634Y-83638283D01*
X113157391Y-83330251D01*
X112953729Y-83043217D01*
X112953728Y-83043216D01*
X112953726Y-83043213D01*
X112803401Y-82875000D01*
X112719210Y-82780790D01*
X112567526Y-82645237D01*
X112456786Y-82546273D01*
X112456779Y-82546268D01*
X112169745Y-82342606D01*
X112169738Y-82342602D01*
X111949669Y-82220975D01*
X111861717Y-82172366D01*
X111861710Y-82172363D01*
X111861706Y-82172361D01*
X111536564Y-82037683D01*
X111467409Y-82017759D01*
X111198368Y-81940250D01*
X111198362Y-81940249D01*
X111198359Y-81940248D01*
X110851389Y-81881296D01*
X110500000Y-81861563D01*
X110148610Y-81881296D01*
X110148609Y-81881296D01*
X109801640Y-81940248D01*
X109801634Y-81940249D01*
X109801632Y-81940250D01*
X109717459Y-81964500D01*
X109463435Y-82037683D01*
X109138293Y-82172361D01*
X109138270Y-82172373D01*
X108830261Y-82342602D01*
X108830254Y-82342606D01*
X108543220Y-82546268D01*
X108543213Y-82546273D01*
X108280790Y-82780790D01*
X108046273Y-83043213D01*
X108046268Y-83043220D01*
X107842606Y-83330254D01*
X107842602Y-83330261D01*
X107672373Y-83638270D01*
X107672361Y-83638293D01*
X107537683Y-83963435D01*
X107440248Y-84301640D01*
X107381296Y-84648609D01*
X107381296Y-84648610D01*
X107361563Y-85000000D01*
X99700500Y-85000000D01*
X99700500Y-63985530D01*
X102369417Y-63985530D01*
X102369417Y-63985537D01*
X102390225Y-64130263D01*
X102390226Y-64130266D01*
X102450968Y-64263276D01*
X102450971Y-64263280D01*
X102489188Y-64310703D01*
X102489191Y-64310707D01*
X104679292Y-66500808D01*
X104679295Y-66500810D01*
X104726723Y-66539031D01*
X104859732Y-66599773D01*
X104859733Y-66599773D01*
X104859736Y-66599774D01*
X105004463Y-66620583D01*
X105004466Y-66620583D01*
X105004469Y-66620583D01*
X105149195Y-66599774D01*
X105149197Y-66599773D01*
X105149200Y-66599773D01*
X105241916Y-66557432D01*
X105282203Y-66539034D01*
X105282204Y-66539033D01*
X105282209Y-66539031D01*
X105329638Y-66500810D01*
X109334788Y-62495658D01*
X109397100Y-62461633D01*
X109467915Y-62466698D01*
X109512978Y-62495659D01*
X110119874Y-63102555D01*
X110150612Y-63152713D01*
X110205473Y-63321556D01*
X110205476Y-63321561D01*
X110300958Y-63486941D01*
X110300965Y-63486951D01*
X110428744Y-63628864D01*
X110428747Y-63628866D01*
X110583248Y-63741118D01*
X110757712Y-63818794D01*
X110944513Y-63858500D01*
X111135487Y-63858500D01*
X111322288Y-63818794D01*
X111496752Y-63741118D01*
X111651253Y-63628866D01*
X111657293Y-63622158D01*
X111779034Y-63486951D01*
X111779035Y-63486949D01*
X111779040Y-63486944D01*
X111874527Y-63321556D01*
X111933542Y-63139928D01*
X111953504Y-62950000D01*
X111933542Y-62760072D01*
X111874527Y-62578444D01*
X111779040Y-62413056D01*
X111779038Y-62413054D01*
X111779034Y-62413048D01*
X111651255Y-62271135D01*
X111496752Y-62158882D01*
X111322288Y-62081206D01*
X111259227Y-62067801D01*
X111196754Y-62034072D01*
X111196331Y-62033650D01*
X110585659Y-61422978D01*
X110551633Y-61360666D01*
X110556698Y-61289851D01*
X110585659Y-61244788D01*
X114590810Y-57239638D01*
X114629031Y-57192209D01*
X114689773Y-57059200D01*
X114710583Y-56914466D01*
X114710583Y-56914462D01*
X114689774Y-56769736D01*
X114689773Y-56769733D01*
X114629031Y-56636723D01*
X114629028Y-56636719D01*
X114590811Y-56589296D01*
X114590808Y-56589292D01*
X112400707Y-54399191D01*
X112400703Y-54399188D01*
X112353280Y-54360971D01*
X112353276Y-54360968D01*
X112220266Y-54300226D01*
X112220263Y-54300225D01*
X112075537Y-54279417D01*
X112075531Y-54279417D01*
X111930804Y-54300225D01*
X111930800Y-54300226D01*
X111797796Y-54360965D01*
X111797787Y-54360971D01*
X111750364Y-54399188D01*
X111750360Y-54399191D01*
X102489191Y-63660360D01*
X102489188Y-63660364D01*
X102450971Y-63707787D01*
X102450965Y-63707796D01*
X102390226Y-63840800D01*
X102390225Y-63840804D01*
X102369417Y-63985530D01*
X99700500Y-63985530D01*
X99700500Y-48032839D01*
X113251347Y-48032839D01*
X113251347Y-48032846D01*
X113272155Y-48177572D01*
X113272156Y-48177575D01*
X113332898Y-48310585D01*
X113332901Y-48310589D01*
X113371118Y-48358012D01*
X113371121Y-48358016D01*
X114641983Y-49628878D01*
X114641986Y-49628880D01*
X114689414Y-49667101D01*
X114822423Y-49727843D01*
X114822424Y-49727843D01*
X114822427Y-49727844D01*
X114967154Y-49748653D01*
X114967157Y-49748653D01*
X114967160Y-49748653D01*
X115111886Y-49727844D01*
X115111888Y-49727843D01*
X115111891Y-49727843D01*
X115196648Y-49689136D01*
X115244894Y-49667104D01*
X115244895Y-49667103D01*
X115244900Y-49667101D01*
X115292329Y-49628880D01*
X117128880Y-47792329D01*
X117167101Y-47744900D01*
X117184104Y-47707669D01*
X117205751Y-47660266D01*
X117227843Y-47611891D01*
X117241697Y-47515537D01*
X117248653Y-47467160D01*
X117248653Y-47467153D01*
X117227844Y-47322427D01*
X117227843Y-47322424D01*
X117224754Y-47315660D01*
X117167101Y-47189414D01*
X117128880Y-47141986D01*
X117128878Y-47141983D01*
X117118882Y-47131987D01*
X117084856Y-47069675D01*
X117089921Y-46998860D01*
X117118880Y-46953799D01*
X119297276Y-44775405D01*
X119359588Y-44741379D01*
X119386371Y-44738500D01*
X121096862Y-44738500D01*
X121164983Y-44758502D01*
X121211476Y-44812158D01*
X121221580Y-44882432D01*
X121192086Y-44947012D01*
X121185957Y-44953595D01*
X118949191Y-47190360D01*
X118949188Y-47190364D01*
X118910971Y-47237787D01*
X118910965Y-47237796D01*
X118850226Y-47370800D01*
X118850225Y-47370804D01*
X118829417Y-47515530D01*
X118829417Y-47515537D01*
X118850225Y-47660263D01*
X118850226Y-47660266D01*
X118910968Y-47793276D01*
X118910971Y-47793280D01*
X118949188Y-47840703D01*
X118949191Y-47840707D01*
X121139292Y-50030808D01*
X121139295Y-50030810D01*
X121186723Y-50069031D01*
X121319732Y-50129773D01*
X121319733Y-50129773D01*
X121319736Y-50129774D01*
X121464463Y-50150583D01*
X121464466Y-50150583D01*
X121464469Y-50150583D01*
X121609195Y-50129774D01*
X121609197Y-50129773D01*
X121609200Y-50129773D01*
X121693957Y-50091066D01*
X121742203Y-50069034D01*
X121742204Y-50069033D01*
X121742209Y-50069031D01*
X121789638Y-50030810D01*
X125820448Y-46000000D01*
X146361563Y-46000000D01*
X146381296Y-46351389D01*
X146381296Y-46351390D01*
X146440248Y-46698359D01*
X146440250Y-46698368D01*
X146467099Y-46791561D01*
X146537683Y-47036564D01*
X146658607Y-47328500D01*
X146672366Y-47361717D01*
X146720420Y-47448664D01*
X146842602Y-47669738D01*
X146842606Y-47669745D01*
X147046268Y-47956779D01*
X147046273Y-47956786D01*
X147114239Y-48032839D01*
X147280790Y-48219210D01*
X147436110Y-48358012D01*
X147543213Y-48453726D01*
X147543220Y-48453731D01*
X147830254Y-48657393D01*
X147830261Y-48657397D01*
X147906525Y-48699546D01*
X148138283Y-48827634D01*
X148463440Y-48962318D01*
X148801632Y-49059750D01*
X149148607Y-49118703D01*
X149500000Y-49138437D01*
X149851393Y-49118703D01*
X150198368Y-49059750D01*
X150536560Y-48962318D01*
X150861717Y-48827634D01*
X151169749Y-48657391D01*
X151456783Y-48453729D01*
X151719210Y-48219210D01*
X151953729Y-47956783D01*
X152157391Y-47669749D01*
X152199591Y-47593394D01*
X156007281Y-47593394D01*
X156007281Y-47593401D01*
X156028089Y-47738127D01*
X156028090Y-47738130D01*
X156088832Y-47871140D01*
X156088835Y-47871144D01*
X156127052Y-47918567D01*
X156127055Y-47918571D01*
X158317156Y-50108672D01*
X158317160Y-50108675D01*
X158343341Y-50129774D01*
X158364587Y-50146895D01*
X158497596Y-50207637D01*
X158497597Y-50207637D01*
X158497600Y-50207638D01*
X158642327Y-50228447D01*
X158642330Y-50228447D01*
X158642333Y-50228447D01*
X158787059Y-50207638D01*
X158787061Y-50207637D01*
X158787064Y-50207637D01*
X158911402Y-50150855D01*
X158920067Y-50146898D01*
X158920068Y-50146897D01*
X158920073Y-50146895D01*
X158967502Y-50108674D01*
X162972652Y-46103522D01*
X163034964Y-46069497D01*
X163105779Y-46074562D01*
X163150842Y-46103523D01*
X163619874Y-46572555D01*
X163650612Y-46622713D01*
X163705473Y-46791556D01*
X163705476Y-46791561D01*
X163800958Y-46956941D01*
X163800965Y-46956951D01*
X163928744Y-47098864D01*
X163928747Y-47098866D01*
X164083248Y-47211118D01*
X164257712Y-47288794D01*
X164444513Y-47328500D01*
X164635487Y-47328500D01*
X164822288Y-47288794D01*
X164996752Y-47211118D01*
X165151253Y-47098866D01*
X165279040Y-46956944D01*
X165374527Y-46791556D01*
X165433542Y-46609928D01*
X165453504Y-46420000D01*
X165433542Y-46230072D01*
X165374527Y-46048444D01*
X165279040Y-45883056D01*
X165279038Y-45883054D01*
X165279034Y-45883048D01*
X165151255Y-45741135D01*
X164996752Y-45628882D01*
X164822288Y-45551206D01*
X164759227Y-45537801D01*
X164696754Y-45504072D01*
X164696331Y-45503650D01*
X164223523Y-45030842D01*
X164189497Y-44968530D01*
X164194562Y-44897715D01*
X164223523Y-44852652D01*
X166135927Y-42940248D01*
X168228674Y-40847502D01*
X168266895Y-40800073D01*
X168280794Y-40769639D01*
X168302452Y-40722212D01*
X168327637Y-40667064D01*
X168327638Y-40667059D01*
X168348447Y-40522333D01*
X168348447Y-40522326D01*
X168327638Y-40377600D01*
X168327637Y-40377597D01*
X168266895Y-40244587D01*
X168266892Y-40244583D01*
X168228675Y-40197160D01*
X168228672Y-40197156D01*
X166038571Y-38007055D01*
X166038567Y-38007052D01*
X165991144Y-37968835D01*
X165991140Y-37968832D01*
X165858130Y-37908090D01*
X165858127Y-37908089D01*
X165713401Y-37887281D01*
X165713395Y-37887281D01*
X165568668Y-37908089D01*
X165568664Y-37908090D01*
X165435660Y-37968829D01*
X165435651Y-37968835D01*
X165388228Y-38007052D01*
X165388224Y-38007055D01*
X156127055Y-47268224D01*
X156127052Y-47268228D01*
X156088835Y-47315651D01*
X156088829Y-47315660D01*
X156028090Y-47448664D01*
X156028089Y-47448668D01*
X156007281Y-47593394D01*
X152199591Y-47593394D01*
X152327634Y-47361717D01*
X152462318Y-47036560D01*
X152559750Y-46698368D01*
X152618703Y-46351393D01*
X152638437Y-46000000D01*
X152618703Y-45648607D01*
X152559750Y-45301632D01*
X152462318Y-44963440D01*
X152453332Y-44941747D01*
X152327638Y-44638293D01*
X152327634Y-44638283D01*
X152157391Y-44330251D01*
X151953729Y-44043217D01*
X151953728Y-44043216D01*
X151953726Y-44043213D01*
X151868144Y-43947448D01*
X151719210Y-43780790D01*
X151570274Y-43647692D01*
X151456786Y-43546273D01*
X151456779Y-43546268D01*
X151169745Y-43342606D01*
X151169738Y-43342602D01*
X150945409Y-43218621D01*
X150861717Y-43172366D01*
X150861710Y-43172363D01*
X150861706Y-43172361D01*
X150536564Y-43037683D01*
X150467409Y-43017759D01*
X150198368Y-42940250D01*
X150198362Y-42940249D01*
X150198359Y-42940248D01*
X149851389Y-42881296D01*
X149500000Y-42861563D01*
X149148610Y-42881296D01*
X149148609Y-42881296D01*
X148801640Y-42940248D01*
X148801634Y-42940249D01*
X148801632Y-42940250D01*
X148663330Y-42980094D01*
X148463435Y-43037683D01*
X148138293Y-43172361D01*
X148138270Y-43172373D01*
X147830261Y-43342602D01*
X147830254Y-43342606D01*
X147543220Y-43546268D01*
X147543213Y-43546273D01*
X147280790Y-43780790D01*
X147046273Y-44043213D01*
X147046268Y-44043220D01*
X146842606Y-44330254D01*
X146842602Y-44330261D01*
X146672373Y-44638270D01*
X146672361Y-44638293D01*
X146537683Y-44963435D01*
X146480094Y-45163330D01*
X146440865Y-45299500D01*
X146440248Y-45301640D01*
X146381296Y-45648609D01*
X146381296Y-45648610D01*
X146361563Y-46000000D01*
X125820448Y-46000000D01*
X131050810Y-40769638D01*
X131089031Y-40722209D01*
X131149773Y-40589200D01*
X131149774Y-40589195D01*
X131170583Y-40444469D01*
X131170583Y-40444462D01*
X131149774Y-40299736D01*
X131149773Y-40299733D01*
X131124589Y-40244587D01*
X131089031Y-40166723D01*
X131050810Y-40119295D01*
X131050808Y-40119292D01*
X128860707Y-37929191D01*
X128860703Y-37929188D01*
X128813280Y-37890971D01*
X128813276Y-37890968D01*
X128680266Y-37830226D01*
X128680263Y-37830225D01*
X128535537Y-37809417D01*
X128535531Y-37809417D01*
X128390804Y-37830225D01*
X128390800Y-37830226D01*
X128257796Y-37890965D01*
X128257787Y-37890971D01*
X128210364Y-37929188D01*
X128210360Y-37929191D01*
X122954957Y-43184595D01*
X122892645Y-43218621D01*
X122865862Y-43221500D01*
X118945288Y-43221500D01*
X118872024Y-43236073D01*
X118872024Y-43236074D01*
X118798753Y-43250649D01*
X118798751Y-43250649D01*
X118798750Y-43250650D01*
X118798749Y-43250650D01*
X118741576Y-43274332D01*
X118741575Y-43274331D01*
X118660720Y-43307823D01*
X118660718Y-43307824D01*
X118619305Y-43335495D01*
X118608664Y-43342606D01*
X118598599Y-43349331D01*
X118536489Y-43390831D01*
X118536482Y-43390836D01*
X116046201Y-45881116D01*
X115983889Y-45915142D01*
X115913073Y-45910077D01*
X115868011Y-45881116D01*
X115858016Y-45871121D01*
X115858012Y-45871118D01*
X115810589Y-45832901D01*
X115810585Y-45832898D01*
X115677575Y-45772156D01*
X115677572Y-45772155D01*
X115532846Y-45751347D01*
X115532840Y-45751347D01*
X115388113Y-45772155D01*
X115388109Y-45772156D01*
X115255105Y-45832895D01*
X115255096Y-45832901D01*
X115207673Y-45871118D01*
X115207669Y-45871121D01*
X113371121Y-47707669D01*
X113371118Y-47707673D01*
X113332901Y-47755096D01*
X113332895Y-47755105D01*
X113272156Y-47888109D01*
X113272155Y-47888113D01*
X113251347Y-48032839D01*
X99700500Y-48032839D01*
X99700500Y-45826500D01*
X99720502Y-45758379D01*
X99774158Y-45711886D01*
X99826500Y-45700500D01*
X110039882Y-45700500D01*
X110113574Y-45669976D01*
X110169976Y-45613574D01*
X110200500Y-45539882D01*
X110200500Y-35326500D01*
X110220502Y-35258379D01*
X110274158Y-35211886D01*
X110326500Y-35200500D01*
X188673500Y-35200500D01*
X188741621Y-35220502D01*
G37*
%TD.AperFunction*%
%TD*%
M02*
