M48
; DRILL file {KiCad 8.0.2-1} date 2024-05-28T20:36:57-0700
; FORMAT={-:-/ absolute / inch / decimal}
; #@! TF.CreationDate,2024-05-28T20:36:57-07:00
; #@! TF.GenerationSoftware,Kicad,Pcbnew,8.0.2-1
; #@! TF.FileFunction,Plated,1,4,PTH
FMAT,2
INCH
; #@! TA.AperFunction,Plated,PTH,ViaDrill
T1C0.0157
; #@! TA.AperFunction,Plated,PTH,ComponentDrill
T2C0.1161
%
G90
G05
T1
X4.3717Y-2.4783
X4.6024Y-2.3602
X4.7201Y-4.9906
X5.2093Y-3.8163
X5.2728Y-4.8445
X5.431Y-3.6109
X5.4854Y-4.0984
X5.5299Y-3.7744
X5.5819Y-3.7276
X5.6501Y-3.6473
X5.6789Y-3.699
X5.6799Y-3.5677
X5.7028Y-4.0138
X5.7233Y-4.0478
X5.7272Y-4.087
X5.7354Y-4.15
X5.7937Y-3.165
X5.7945Y-4.7768
X5.8192Y-3.1313
X5.8429Y-3.0843
X5.8622Y-4.15
X5.939Y-4.3028
X5.955Y-3.1343
X5.9682Y-3.1771
X5.9787Y-4.7736
X6.0079Y-3.1764
X6.0445Y-4.8457
X6.05Y-4.8028
X6.0614Y-2.974
X6.152Y-3.0387
X6.1665Y-2.9862
X6.1982Y-4.802
X6.2114Y-4.8461
X6.3579Y-2.7236
X6.478Y-1.8276
X6.5016Y-2.8657
X6.5334Y-2.7501
X6.5346Y-4.0157
X6.6173Y-3.8433
X6.663Y-3.8748
X6.685Y-3.8413
X6.7571Y-4.8638
X7.4016Y-2.472
X7.4098Y-4.8421
X7.4634Y-2.5248
X7.4803Y-2.563
X7.5126Y-2.6098
X7.6559Y-2.5161
X7.7047Y-2.5453
X7.752Y-2.5898
X7.7972Y-2.5638
T2
X4.3504Y-3.3465
X5.8858Y-1.811
X5.8858Y-4.8819
X7.4213Y-3.3465
M30
