%TF.GenerationSoftware,KiCad,Pcbnew,8.0.2-1*%
%TF.CreationDate,2024-05-28T20:36:57-07:00*%
%TF.ProjectId,solar-panel-side-Z,736f6c61-722d-4706-916e-656c2d736964,3.1*%
%TF.SameCoordinates,Original*%
%TF.FileFunction,Copper,L3,Inr*%
%TF.FilePolarity,Positive*%
%FSLAX46Y46*%
G04 Gerber Fmt 4.6, Leading zero omitted, Abs format (unit mm)*
G04 Created by KiCad (PCBNEW 8.0.2-1) date 2024-05-28 20:36:57*
%MOMM*%
%LPD*%
G01*
G04 APERTURE LIST*
%TA.AperFunction,ComponentPad*%
%ADD10C,5.250000*%
%TD*%
%TA.AperFunction,ViaPad*%
%ADD11C,0.800000*%
%TD*%
%TA.AperFunction,Conductor*%
%ADD12C,0.250000*%
%TD*%
G04 APERTURE END LIST*
D10*
%TO.N,unconnected-(J4-Pin_1-Pad1)*%
%TO.C,J4*%
X110500000Y-85000000D03*
%TD*%
%TO.N,unconnected-(J5-Pin_1-Pad1)*%
%TO.C,J5*%
X149500000Y-124000000D03*
%TD*%
%TO.N,unconnected-(J6-Pin_1-Pad1)*%
%TO.C,J6*%
X149500000Y-46000000D03*
%TD*%
%TO.N,unconnected-(J7-Pin_1-Pad1)*%
%TO.C,J7*%
X188500000Y-85000000D03*
%TD*%
D11*
%TO.N,GND*%
X171630000Y-123540000D03*
X161490000Y-69180000D03*
X164540000Y-46420000D03*
X156260000Y-77181974D03*
X145680000Y-105410000D03*
X148900000Y-105410000D03*
X137946283Y-91716283D03*
X111040000Y-62950000D03*
X165948061Y-69851939D03*
X119890000Y-126760000D03*
%TO.N,+3V3*%
X116900000Y-59950000D03*
X165140000Y-72790000D03*
X165980000Y-102000000D03*
%TO.N,VSOLAR*%
X132315000Y-96935000D03*
X188000000Y-62790000D03*
X198050000Y-65120000D03*
X188210000Y-122990000D03*
%TO.N,SDA*%
X144270000Y-90620000D03*
X153960000Y-75540000D03*
X157770000Y-123090000D03*
X153530000Y-123080000D03*
X144245000Y-93955000D03*
X156630000Y-75850000D03*
%TO.N,SCL*%
X157434500Y-121970000D03*
X153670000Y-121990000D03*
X143511396Y-92641396D03*
%TO.N,SDA_Break*%
X169800000Y-97570000D03*
X144850000Y-101950000D03*
%TO.N,SCL_Break*%
X145372687Y-102815246D03*
X168080000Y-97620000D03*
%TO.N,Net-(SC5--)*%
X139330000Y-104100000D03*
X133930000Y-123050000D03*
%TO.N,Net-(U2-OUT+)*%
X147180000Y-121330000D03*
X141780000Y-94680000D03*
X150850000Y-109290000D03*
X140460000Y-95870000D03*
X151860000Y-121250000D03*
%TO.N,F2_ENB*%
X194460000Y-63910000D03*
X189570000Y-64130000D03*
%TO.N,F2_SCL*%
X190000000Y-65100000D03*
X195700000Y-64650000D03*
%TO.N,F2_SDA*%
X196900000Y-65780000D03*
X190820000Y-66290000D03*
%TO.N,3v3_break*%
X169240000Y-98420000D03*
X145470000Y-103810000D03*
%TO.N,Camera_Pwr*%
X148409960Y-78339960D03*
X152600000Y-80680000D03*
%TO.N,Camera_SCL*%
X147160000Y-80390000D03*
X151592701Y-80697299D03*
%TO.N,Camera_SDA*%
X151257701Y-79612299D03*
X147806483Y-79534500D03*
%TD*%
D12*
%TO.N,Net-(U2-OUT+)*%
X118955000Y-103495000D02*
X117175000Y-100175000D01*
X122065000Y-104595000D02*
X120105000Y-101505000D01*
X180165000Y-83555000D02*
X180115000Y-87085000D01*
X174605000Y-71825000D02*
X175975000Y-74895000D01*
X133595000Y-57135000D02*
X136795000Y-55545000D01*
X115265000Y-78205000D02*
X116185000Y-74595000D01*
X166025000Y-63905000D02*
X168475000Y-66095000D01*
X154995000Y-55875000D02*
X158385000Y-56735000D01*
X173615000Y-108695000D02*
X170855000Y-111195000D01*
X114705000Y-93025000D02*
X114055000Y-89325000D01*
X181765000Y-83465000D02*
X181725000Y-87045000D01*
X181825000Y-72275000D02*
X182985000Y-75795000D01*
X183115000Y-89225000D02*
X182455000Y-92815000D01*
X160805000Y-117665000D02*
X157255000Y-118675000D01*
X163595000Y-60795000D02*
X166385000Y-62665000D01*
X170725000Y-98255000D02*
X168845000Y-100855000D01*
X126965000Y-110085000D02*
X124365000Y-107465000D01*
X172515000Y-67075000D02*
X174445000Y-69905000D01*
X121725000Y-94355000D02*
X120825000Y-91045000D01*
X136855000Y-107395000D02*
X134205000Y-105675000D01*
X176395000Y-74885000D02*
X177395000Y-78145000D01*
X138965000Y-113225000D02*
X135795000Y-111825000D01*
X113945000Y-81765000D02*
X114485000Y-78035000D01*
X127495000Y-105555000D02*
X125295000Y-102915000D01*
X121395000Y-94615000D02*
X120475000Y-91315000D01*
X119445000Y-86815000D02*
X119445000Y-83325000D01*
X149545000Y-115945000D02*
X146015000Y-115745000D01*
X131025000Y-104565000D02*
X128775000Y-102165000D01*
X153015000Y-117365000D02*
X149415000Y-117545000D01*
X172305000Y-112075000D02*
X169335000Y-114305000D01*
X131685000Y-106755000D02*
X129195000Y-104435000D01*
X147895000Y-120305000D02*
X144135000Y-119925000D01*
X132185000Y-54715000D02*
X135545000Y-53035000D01*
X134345000Y-112415000D02*
X131345000Y-110525000D01*
X164015000Y-64425000D02*
X166475000Y-66425000D01*
X127085000Y-65525000D02*
X129485000Y-63075000D01*
X152275000Y-59945000D02*
X155365000Y-60485000D01*
X174415000Y-69085000D02*
X176075000Y-72085000D01*
X178835000Y-93925000D02*
X177605000Y-97225000D01*
X173155000Y-58945000D02*
X175755000Y-61585000D01*
X120495000Y-80845000D02*
X121185000Y-77465000D01*
X154875000Y-52195000D02*
X158445000Y-52995000D01*
X116335000Y-82025000D02*
X116855000Y-78415000D01*
X177745000Y-68415000D02*
X179395000Y-71645000D01*
X119985000Y-73435000D02*
X121465000Y-70205000D01*
X140605000Y-112105000D02*
X137445000Y-110855000D01*
X178665000Y-99655000D02*
X176865000Y-102765000D01*
X142275000Y-111775000D02*
X139125000Y-110715000D01*
X170985000Y-99335000D02*
X169045000Y-101865000D01*
X123195000Y-81725000D02*
X123805000Y-78515000D01*
X137095000Y-56725000D02*
X140445000Y-55485000D01*
X179285000Y-82385000D02*
X179375000Y-85825000D01*
X178815000Y-77225000D02*
X179495000Y-80625000D01*
X140285000Y-118695000D02*
X136715000Y-117505000D01*
X116865000Y-71545000D02*
X118475000Y-68165000D01*
X159775000Y-116745000D02*
X156255000Y-117665000D01*
X146015000Y-115745000D02*
X142575000Y-115145000D01*
X114215000Y-86245000D02*
X114285000Y-82485000D01*
X139875000Y-117745000D02*
X136385000Y-116505000D01*
X163455000Y-112205000D02*
X160255000Y-113615000D01*
X127175000Y-112365000D02*
X124395000Y-109835000D01*
X172015000Y-99225000D02*
X170125000Y-101825000D01*
X121485000Y-100695000D02*
X119915000Y-97475000D01*
X165305000Y-105885000D02*
X162605000Y-107665000D01*
X172865000Y-68915000D02*
X174605000Y-71825000D01*
X124165000Y-68025000D02*
X126235000Y-65285000D01*
X173615000Y-59925000D02*
X176145000Y-62655000D01*
X168365000Y-107025000D02*
X165665000Y-109065000D01*
X123415000Y-103725000D02*
X121485000Y-100695000D01*
X182555000Y-79485000D02*
X182945000Y-83145000D01*
X180315000Y-93115000D02*
X179205000Y-96485000D01*
X141235000Y-60275000D02*
X144315000Y-59455000D01*
X141425000Y-56445000D02*
X144815000Y-55705000D01*
X180595000Y-89875000D02*
X179845000Y-93315000D01*
X136285000Y-108455000D02*
X133525000Y-106665000D01*
X142895000Y-111525000D02*
X139765000Y-110535000D01*
X139895000Y-59045000D02*
X143035000Y-58095000D01*
X150835000Y-119125000D02*
X147125000Y-119055000D01*
X122025000Y-70855000D02*
X123815000Y-67825000D01*
X133435000Y-116455000D02*
X130205000Y-114585000D01*
X149485000Y-112345000D02*
X146175000Y-112135000D01*
X126395000Y-97155000D02*
X125085000Y-94245000D01*
X144875000Y-116395000D02*
X141355000Y-115665000D01*
X119835000Y-79885000D02*
X120615000Y-76525000D01*
X123625000Y-81545000D02*
X124255000Y-78365000D01*
X148955000Y-54945000D02*
X152425000Y-55095000D01*
X150005000Y-115545000D02*
X146465000Y-115385000D01*
X122055000Y-81235000D02*
X122695000Y-78005000D01*
X128325000Y-104685000D02*
X126155000Y-102055000D01*
X129155000Y-66805000D02*
X131515000Y-64475000D01*
X171455000Y-61185000D02*
X173945000Y-63765000D01*
X160625000Y-59285000D02*
X163595000Y-60795000D01*
X154655000Y-52565000D02*
X158175000Y-53335000D01*
X178075000Y-79395000D02*
X178515000Y-82725000D01*
X167345000Y-106315000D02*
X164695000Y-108265000D01*
X125005000Y-92805000D02*
X124225000Y-89695000D01*
X123815000Y-67825000D02*
X125905000Y-65055000D01*
X147565000Y-57005000D02*
X150915000Y-56985000D01*
X166725000Y-109315000D02*
X163755000Y-111145000D01*
X118005000Y-75475000D02*
X119255000Y-72045000D01*
X137225000Y-58855000D02*
X140435000Y-57585000D01*
X162915000Y-53295000D02*
X166265000Y-54945000D01*
X134765000Y-57405000D02*
X138025000Y-55905000D01*
X128885000Y-65335000D02*
X131355000Y-63035000D01*
X118355000Y-90945000D02*
X117885000Y-87425000D01*
X131675000Y-113155000D02*
X128705000Y-111035000D01*
X125275000Y-75285000D02*
X126665000Y-72365000D01*
X171075000Y-106145000D02*
X168505000Y-108465000D01*
X128775000Y-102165000D02*
X126835000Y-99505000D01*
X146205000Y-117775000D02*
X142605000Y-117205000D01*
X157705000Y-55275000D02*
X161055000Y-56425000D01*
X145805000Y-117325000D02*
X142245000Y-116715000D01*
X151307403Y-109747403D02*
X150850000Y-109290000D01*
X175805000Y-99085000D02*
X173995000Y-102015000D01*
X183955000Y-78205000D02*
X184465000Y-81885000D01*
X117885000Y-90605000D02*
X117465000Y-87055000D01*
X124245000Y-83825000D02*
X124595000Y-80625000D01*
X159705000Y-109535000D02*
X156615000Y-110585000D01*
X181725000Y-87045000D02*
X181285000Y-90595000D01*
X183265000Y-81915000D02*
X183395000Y-85555000D01*
X157465000Y-51085000D02*
X161025000Y-52135000D01*
X123545000Y-105885000D02*
X121425000Y-102935000D01*
X137055000Y-62535000D02*
X139965000Y-61165000D01*
X158585000Y-109115000D02*
X155495000Y-110055000D01*
X117485000Y-71105000D02*
X119155000Y-67765000D01*
X141395000Y-54795000D02*
X144835000Y-54085000D01*
X136205000Y-115995000D02*
X132885000Y-114345000D01*
X153515000Y-110845000D02*
X150265000Y-111135000D01*
X126275000Y-71435000D02*
X128135000Y-68665000D01*
X116425000Y-94865000D02*
X115555000Y-91215000D01*
X170015000Y-103175000D02*
X167675000Y-105505000D01*
X121775000Y-74345000D02*
X123205000Y-71195000D01*
X164175000Y-52545000D02*
X167515000Y-54285000D01*
X143685000Y-53465000D02*
X147175000Y-53025000D01*
X117965000Y-73115000D02*
X119455000Y-69745000D01*
X118875000Y-76805000D02*
X119985000Y-73435000D01*
X118145000Y-80305000D02*
X118875000Y-76805000D01*
X178745000Y-72145000D02*
X179985000Y-75505000D01*
X179225000Y-97505000D02*
X177645000Y-100715000D01*
X179075000Y-76665000D02*
X179815000Y-80065000D01*
X116855000Y-78415000D02*
X117775000Y-74875000D01*
X127695000Y-60375000D02*
X130545000Y-58125000D01*
X138235000Y-116365000D02*
X134875000Y-114945000D01*
X182185000Y-71035000D02*
X183465000Y-74565000D01*
X178385000Y-65655000D02*
X180275000Y-68855000D01*
X149685000Y-57745000D02*
X153015000Y-57985000D01*
X139175000Y-114155000D02*
X135945000Y-112795000D01*
X184695000Y-89505000D02*
X184015000Y-93175000D01*
X129195000Y-104435000D02*
X127025000Y-101885000D01*
X162315000Y-117535000D02*
X158755000Y-118715000D01*
X175075000Y-109485000D02*
X172305000Y-112075000D01*
X179675000Y-87575000D02*
X179165000Y-91025000D01*
X119005000Y-84405000D02*
X119255000Y-81025000D01*
X183735000Y-90535000D02*
X182925000Y-94195000D01*
X145755000Y-49535000D02*
X149535000Y-49345000D01*
X135435000Y-114325000D02*
X132285000Y-112595000D01*
X170235000Y-56555000D02*
X173155000Y-58945000D01*
X147825000Y-116295000D02*
X144335000Y-115905000D01*
X133335000Y-115955000D02*
X130115000Y-114045000D01*
X134205000Y-105675000D02*
X131705000Y-103565000D01*
X116865000Y-76595000D02*
X117965000Y-73115000D01*
X121445000Y-97965000D02*
X120165000Y-94735000D01*
X178095000Y-64525000D02*
X180095000Y-67685000D01*
X126685000Y-67925000D02*
X128885000Y-65335000D01*
X170565000Y-71265000D02*
X172125000Y-74075000D01*
X159715000Y-60635000D02*
X162615000Y-62075000D01*
X182465000Y-81975000D02*
X182585000Y-85615000D01*
X180445000Y-94115000D02*
X179225000Y-97505000D01*
X121065000Y-86905000D02*
X121035000Y-83525000D01*
X166475000Y-110445000D02*
X163455000Y-112205000D01*
X139635000Y-117255000D02*
X136205000Y-115995000D01*
X172255000Y-59215000D02*
X174915000Y-61845000D01*
X119935000Y-87885000D02*
X119805000Y-84385000D01*
X121795000Y-84605000D02*
X122055000Y-81235000D01*
X129675000Y-68655000D02*
X131845000Y-66335000D01*
X115335000Y-80165000D02*
X116065000Y-76485000D01*
X119915000Y-97475000D02*
X118705000Y-94085000D01*
X130785000Y-56515000D02*
X133965000Y-54665000D01*
X148865000Y-112735000D02*
X145555000Y-112455000D01*
X178015000Y-69715000D02*
X179515000Y-72955000D01*
X173955000Y-74175000D02*
X175085000Y-77265000D01*
X133525000Y-106665000D02*
X131025000Y-104565000D01*
X173285000Y-64845000D02*
X175415000Y-67695000D01*
X123685000Y-77425000D02*
X124805000Y-74335000D01*
X131345000Y-110525000D02*
X128565000Y-108295000D01*
X158825000Y-55195000D02*
X162105000Y-56435000D01*
X121135000Y-79455000D02*
X121985000Y-76155000D01*
X131245000Y-108455000D02*
X128655000Y-106175000D01*
X157395000Y-59355000D02*
X160485000Y-60535000D01*
X139025000Y-51735000D02*
X142645000Y-50815000D01*
X119285000Y-101675000D02*
X117665000Y-98315000D01*
X144185000Y-116695000D02*
X140715000Y-115905000D01*
X164925000Y-56035000D02*
X167985000Y-57905000D01*
X152085000Y-111825000D02*
X148805000Y-111935000D01*
X171195000Y-98265000D02*
X169355000Y-100865000D01*
X114055000Y-89325000D02*
X113795000Y-85625000D01*
X173765000Y-98635000D02*
X171935000Y-101455000D01*
X168505000Y-108465000D02*
X165655000Y-110495000D01*
X120165000Y-94735000D02*
X119245000Y-91315000D01*
X151895000Y-53845000D02*
X155375000Y-54315000D01*
X125085000Y-94245000D02*
X124125000Y-91135000D01*
X176875000Y-69305000D02*
X178455000Y-72485000D01*
X116475000Y-89325000D02*
X116205000Y-85645000D01*
X180555000Y-97435000D02*
X178995000Y-100755000D01*
X150795000Y-54175000D02*
X154315000Y-54535000D01*
X176025000Y-101105000D02*
X174025000Y-103995000D01*
X117885000Y-87425000D02*
X117815000Y-83855000D01*
X148725000Y-55755000D02*
X152105000Y-55865000D01*
X134335000Y-110095000D02*
X131505000Y-108145000D01*
X126155000Y-102055000D02*
X124315000Y-99195000D01*
X148995000Y-118335000D02*
X145305000Y-118075000D01*
X134885000Y-61015000D02*
X137845000Y-59455000D01*
X182945000Y-83145000D02*
X182935000Y-86835000D01*
X176815000Y-81765000D02*
X176995000Y-84975000D01*
X181485000Y-100265000D02*
X179715000Y-103515000D01*
X131845000Y-66335000D02*
X134315000Y-64285000D01*
X119455000Y-69745000D02*
X121295000Y-66565000D01*
X125325000Y-59285000D02*
X128245000Y-56835000D01*
X174585000Y-67185000D02*
X176445000Y-70175000D01*
X169355000Y-100865000D02*
X167215000Y-103215000D01*
X169145000Y-108975000D02*
X166225000Y-111085000D01*
X149175000Y-49745000D02*
X152905000Y-49915000D01*
X116995000Y-85455000D02*
X117155000Y-81815000D01*
X122685000Y-97795000D02*
X121395000Y-94615000D01*
X119675000Y-91415000D02*
X119145000Y-87965000D01*
X160255000Y-113615000D02*
X156925000Y-114645000D01*
X169625000Y-58095000D02*
X172405000Y-60425000D01*
X126765000Y-108805000D02*
X124275000Y-106145000D01*
X176135000Y-66615000D02*
X178015000Y-69715000D01*
X140735000Y-109615000D02*
X137755000Y-108335000D01*
X147115000Y-114645000D02*
X143695000Y-114165000D01*
X155535000Y-116175000D02*
X151955000Y-116655000D01*
X136715000Y-109145000D02*
X133935000Y-107455000D01*
X178455000Y-72485000D02*
X179665000Y-75825000D01*
X176835000Y-79325000D02*
X177295000Y-82555000D01*
X170025000Y-110835000D02*
X167045000Y-112935000D01*
X147405000Y-52205000D02*
X151065000Y-52185000D01*
X127755000Y-61395000D02*
X130565000Y-59095000D01*
X159765000Y-109075000D02*
X156645000Y-110165000D01*
X121485000Y-90275000D02*
X121065000Y-86905000D01*
X177185000Y-70715000D02*
X178615000Y-73955000D01*
X133315000Y-107505000D02*
X130705000Y-105375000D01*
X146155000Y-119375000D02*
X142485000Y-118815000D01*
X120825000Y-91045000D02*
X120315000Y-87655000D01*
X153075000Y-115745000D02*
X149545000Y-115945000D01*
X118605000Y-84345000D02*
X118865000Y-80895000D01*
X180325000Y-80775000D02*
X180595000Y-84315000D01*
X168525000Y-110475000D02*
X165515000Y-112455000D01*
X130115000Y-114045000D02*
X127125000Y-111805000D01*
X152945000Y-57575000D02*
X156205000Y-58185000D01*
X120205000Y-84265000D02*
X120495000Y-80845000D01*
X177295000Y-82555000D02*
X177345000Y-84575000D01*
X174555000Y-76905000D02*
X175345000Y-80045000D01*
X170795000Y-63885000D02*
X173075000Y-66495000D01*
X152820000Y-109640000D02*
X151307403Y-109747403D01*
X150075000Y-50155000D02*
X153775000Y-50415000D01*
X134235000Y-58615000D02*
X137385000Y-57035000D01*
X136795000Y-55545000D02*
X140185000Y-54305000D01*
X166475000Y-66425000D02*
X168665000Y-68695000D01*
X135895000Y-118035000D02*
X132475000Y-116405000D01*
X145495000Y-55205000D02*
X148955000Y-54945000D01*
X178215000Y-89585000D02*
X177465000Y-92905000D01*
X158715000Y-111195000D02*
X155505000Y-112105000D01*
X122735000Y-65195000D02*
X125035000Y-62415000D01*
X130565000Y-59095000D02*
X133595000Y-57135000D01*
X177555000Y-106625000D02*
X175075000Y-109485000D01*
X158375000Y-115085000D02*
X154925000Y-115885000D01*
X167345000Y-58915000D02*
X170145000Y-61085000D01*
X143985000Y-52195000D02*
X147655000Y-51795000D01*
X114755000Y-78745000D02*
X115615000Y-75095000D01*
X120555000Y-66975000D02*
X122665000Y-63965000D01*
X164265000Y-106145000D02*
X161525000Y-107805000D01*
X169955000Y-68355000D02*
X171845000Y-71015000D01*
X184465000Y-81885000D02*
X184585000Y-85655000D01*
X164305000Y-57065000D02*
X167345000Y-58915000D01*
X126835000Y-99505000D02*
X125235000Y-96635000D01*
X179925000Y-91305000D02*
X178995000Y-94725000D01*
X135545000Y-53035000D02*
X139025000Y-51735000D01*
X173295000Y-76935000D02*
X174105000Y-79975000D01*
X149805000Y-119545000D02*
X146155000Y-119375000D01*
X158755000Y-108205000D02*
X156232525Y-109012525D01*
X120735000Y-68225000D02*
X122735000Y-65195000D01*
X124315000Y-99195000D02*
X122825000Y-96145000D01*
X126405000Y-100315000D02*
X124745000Y-97455000D01*
X156925000Y-114645000D02*
X153475000Y-115295000D01*
X138025000Y-55905000D02*
X141395000Y-54795000D01*
X165155000Y-55705000D02*
X168295000Y-57625000D01*
X121225000Y-69805000D02*
X123065000Y-66805000D01*
X175675000Y-91875000D02*
X174645000Y-94975000D01*
X116185000Y-74595000D02*
X117485000Y-71105000D01*
X179845000Y-93315000D02*
X178695000Y-96695000D01*
X118565000Y-76425000D02*
X119715000Y-73025000D01*
X177055000Y-89235000D02*
X176335000Y-92495000D01*
X179205000Y-96485000D02*
X177745000Y-99705000D01*
X121915000Y-98035000D02*
X120605000Y-94795000D01*
X156355000Y-52065000D02*
X159925000Y-53025000D01*
X152655000Y-114985000D02*
X149185000Y-115145000D01*
X117015000Y-95395000D02*
X116085000Y-91835000D01*
X128635000Y-60095000D02*
X131575000Y-57915000D01*
X126455000Y-74595000D02*
X127955000Y-71795000D01*
X168115000Y-111265000D02*
X165035000Y-113185000D01*
X169375000Y-103285000D02*
X166985000Y-105575000D01*
X117665000Y-98315000D02*
X116425000Y-94865000D01*
X161065000Y-55565000D02*
X164305000Y-57065000D01*
X119805000Y-103355000D02*
X118015000Y-100075000D01*
X122105000Y-102505000D02*
X120325000Y-99345000D01*
X167515000Y-58545000D02*
X170325000Y-60715000D01*
X173715000Y-105635000D02*
X171225000Y-108225000D01*
X179665000Y-77325000D02*
X180325000Y-80775000D01*
X142645000Y-50815000D02*
X146315000Y-50285000D01*
X136385000Y-116505000D02*
X133065000Y-114905000D01*
X123555000Y-107765000D02*
X121255000Y-104835000D01*
X181815000Y-74655000D02*
X182735000Y-78235000D01*
X119155000Y-67765000D02*
X121175000Y-64615000D01*
X174105000Y-79975000D02*
X174525000Y-83125000D01*
X157365000Y-113705000D02*
X153995000Y-114415000D01*
X184305000Y-89395000D02*
X183625000Y-93075000D01*
X160095000Y-115795000D02*
X156555000Y-116785000D01*
X184875000Y-81945000D02*
X184985000Y-85725000D01*
X135665000Y-58285000D02*
X138795000Y-56895000D01*
X172005000Y-69785000D02*
X173675000Y-72645000D01*
X134405000Y-108725000D02*
X131685000Y-106755000D01*
X116685000Y-82565000D02*
X117155000Y-78965000D01*
X176145000Y-62655000D02*
X178385000Y-65655000D01*
X174725000Y-72965000D02*
X175965000Y-76055000D01*
X124395000Y-109835000D02*
X121905000Y-107035000D01*
X135385000Y-63065000D02*
X138205000Y-61495000D01*
X150335000Y-113135000D02*
X146985000Y-113025000D01*
X128995000Y-61365000D02*
X131795000Y-59205000D01*
X144855000Y-52865000D02*
X148435000Y-52555000D01*
X128095000Y-99955000D02*
X126395000Y-97155000D01*
X143685000Y-112525000D02*
X140425000Y-111625000D01*
X118645000Y-74785000D02*
X119955000Y-71455000D01*
X138685000Y-57795000D02*
X141965000Y-56715000D01*
X129975000Y-63165000D02*
X132775000Y-60965000D01*
X175085000Y-97885000D02*
X173375000Y-100795000D01*
X168255000Y-113585000D02*
X165055000Y-115435000D01*
X125105000Y-103985000D02*
X123115000Y-101105000D01*
X174725000Y-105675000D02*
X172235000Y-108365000D01*
X130115000Y-102495000D02*
X128095000Y-99955000D01*
X122165000Y-76925000D02*
X123315000Y-73745000D01*
X182565000Y-96645000D02*
X181115000Y-100115000D01*
X123065000Y-66805000D02*
X125285000Y-63935000D01*
X118195000Y-96375000D02*
X117135000Y-92865000D01*
X124225000Y-89695000D02*
X123835000Y-86505000D01*
X129055000Y-56735000D02*
X132185000Y-54715000D01*
X133065000Y-114905000D02*
X129955000Y-112965000D01*
X176025000Y-72925000D02*
X177235000Y-76085000D01*
X170835000Y-104655000D02*
X168365000Y-107025000D01*
X122065000Y-100905000D02*
X120455000Y-97725000D01*
X175055000Y-69365000D02*
X176675000Y-72415000D01*
X123565000Y-87985000D02*
X123395000Y-84775000D01*
X172235000Y-108365000D02*
X169565000Y-110685000D01*
X129235000Y-114415000D02*
X126255000Y-112115000D01*
X155495000Y-110055000D02*
X152315000Y-110595000D01*
X123935000Y-94595000D02*
X122965000Y-91455000D01*
X134985000Y-106715000D02*
X132395000Y-104735000D01*
X131925000Y-66845000D02*
X134345000Y-64805000D01*
X117665000Y-93345000D02*
X116945000Y-89795000D01*
X127715000Y-59825000D02*
X130565000Y-57625000D01*
X129905000Y-62165000D02*
X132685000Y-60055000D01*
X123945000Y-73315000D02*
X125515000Y-70365000D01*
X164265000Y-64085000D02*
X166775000Y-66125000D01*
X181895000Y-89315000D02*
X181205000Y-92875000D01*
X143655000Y-109645000D02*
X140505000Y-108665000D01*
X157135000Y-57195000D02*
X160355000Y-58295000D01*
X116365000Y-91175000D02*
X115895000Y-87525000D01*
X171955000Y-111845000D02*
X168945000Y-114085000D01*
X135425000Y-116525000D02*
X132135000Y-114835000D01*
X150435000Y-56165000D02*
X153825000Y-56485000D01*
X132295000Y-64865000D02*
X134875000Y-62925000D01*
X122725000Y-76465000D02*
X123945000Y-73315000D01*
X133965000Y-62085000D02*
X136835000Y-60385000D01*
X157015000Y-50165000D02*
X160635000Y-51155000D01*
X128245000Y-56835000D02*
X131315000Y-54765000D01*
X142065000Y-50115000D02*
X145755000Y-49535000D01*
X174935000Y-63075000D02*
X177145000Y-65965000D01*
X142285000Y-114255000D02*
X138965000Y-113225000D01*
X147175000Y-53025000D02*
X150725000Y-52975000D01*
X155845000Y-51145000D02*
X159455000Y-52035000D01*
X154245000Y-57365000D02*
X157475000Y-58125000D01*
X115015000Y-83835000D02*
X115335000Y-80165000D01*
X160415000Y-111405000D02*
X157235000Y-112495000D01*
X122375000Y-88125000D02*
X122195000Y-84875000D01*
X177065000Y-103905000D02*
X174815000Y-106815000D01*
X152165000Y-50655000D02*
X155845000Y-51145000D01*
X175175000Y-105755000D02*
X172775000Y-108405000D01*
X126145000Y-110415000D02*
X123555000Y-107765000D01*
X161325000Y-116635000D02*
X157775000Y-117735000D01*
X179395000Y-71645000D02*
X180675000Y-75015000D01*
X118235000Y-86555000D02*
X118265000Y-82945000D01*
X168895000Y-63725000D02*
X171265000Y-66175000D01*
X122495000Y-91195000D02*
X121945000Y-87905000D01*
X165305000Y-63855000D02*
X167775000Y-65965000D01*
X154185000Y-118425000D02*
X150545000Y-118735000D01*
X116735000Y-70825000D02*
X118405000Y-67455000D01*
X173585000Y-96385000D02*
X172015000Y-99225000D01*
X132185000Y-62885000D02*
X134885000Y-61015000D01*
X155475000Y-51485000D02*
X159065000Y-52335000D01*
X137015000Y-59405000D02*
X140125000Y-58115000D01*
X159405000Y-59215000D02*
X162405000Y-60585000D01*
X156232525Y-109012525D02*
X154400000Y-109450000D01*
X177925000Y-75615000D02*
X178805000Y-78955000D01*
X153415000Y-56825000D02*
X156715000Y-57495000D01*
X163165000Y-109645000D02*
X160135000Y-111085000D01*
X184145000Y-83145000D02*
X184135000Y-86885000D01*
X150585000Y-113525000D02*
X147185000Y-113445000D01*
X171265000Y-66175000D02*
X173305000Y-68855000D01*
X135625000Y-59215000D02*
X138685000Y-57795000D01*
X155625000Y-60105000D02*
X158655000Y-61065000D01*
X161525000Y-62395000D02*
X164265000Y-64085000D01*
X130205000Y-114585000D02*
X127175000Y-112365000D01*
X143845000Y-110515000D02*
X140735000Y-109615000D01*
X132175000Y-105075000D02*
X129855000Y-102805000D01*
X165245000Y-62325000D02*
X167845000Y-64395000D01*
X136835000Y-60385000D02*
X139895000Y-59045000D01*
X173075000Y-66495000D02*
X175055000Y-69365000D01*
X132795000Y-110065000D02*
X130025000Y-107975000D01*
X177385000Y-75265000D02*
X178305000Y-78555000D01*
X143695000Y-114165000D02*
X140345000Y-113285000D01*
X175385000Y-84125000D02*
X175285000Y-87315000D01*
X149095000Y-51345000D02*
X152715000Y-51505000D01*
X113795000Y-85625000D02*
X113945000Y-81765000D01*
X177255000Y-64735000D02*
X179255000Y-67825000D01*
X166085000Y-116255000D02*
X162625000Y-117845000D01*
X178735000Y-88815000D02*
X178075000Y-92185000D01*
X157475000Y-58125000D02*
X160625000Y-59285000D01*
X119715000Y-73025000D02*
X121225000Y-69805000D01*
X172995000Y-102035000D02*
X170835000Y-104655000D01*
X165515000Y-112455000D02*
X162315000Y-114075000D01*
X117235000Y-94755000D02*
X116365000Y-91175000D01*
X124735000Y-90105000D02*
X124295000Y-86985000D01*
X175745000Y-83255000D02*
X175745000Y-86515000D01*
X132285000Y-112595000D02*
X129335000Y-110515000D01*
X158385000Y-56735000D02*
X161565000Y-57945000D01*
X123145000Y-90425000D02*
X122685000Y-87215000D01*
X143455000Y-118595000D02*
X139875000Y-117745000D01*
X139685000Y-113905000D02*
X136435000Y-112585000D01*
X174445000Y-69905000D02*
X176025000Y-72925000D01*
X129205000Y-105025000D02*
X126985000Y-102495000D01*
X120105000Y-101505000D02*
X118475000Y-98185000D01*
X119635000Y-99755000D02*
X118195000Y-96375000D01*
X119715000Y-103965000D02*
X117865000Y-100685000D01*
X117175000Y-72945000D02*
X118655000Y-69545000D01*
X149895000Y-110345000D02*
X146715000Y-110175000D01*
X132885000Y-114345000D02*
X129815000Y-112375000D01*
X125285000Y-63935000D02*
X127755000Y-61395000D01*
X139995000Y-59435000D02*
X143175000Y-58475000D01*
X173665000Y-76745000D02*
X174495000Y-79855000D01*
X124255000Y-78365000D02*
X125275000Y-75285000D01*
X121185000Y-77465000D02*
X122235000Y-74275000D01*
X167105000Y-54505000D02*
X170235000Y-56555000D01*
X117465000Y-87055000D02*
X117435000Y-83465000D01*
X147075000Y-56245000D02*
X150435000Y-56165000D01*
X169335000Y-114305000D02*
X166085000Y-116255000D01*
X119545000Y-77395000D02*
X120605000Y-74045000D01*
X173795000Y-97755000D02*
X172075000Y-100575000D01*
X135055000Y-59065000D02*
X138185000Y-57565000D01*
X182935000Y-96795000D02*
X181485000Y-100265000D01*
X184585000Y-85655000D02*
X184305000Y-89395000D01*
X124745000Y-97455000D02*
X123435000Y-94395000D01*
X165405000Y-59555000D02*
X168225000Y-61565000D01*
X158655000Y-61065000D02*
X161525000Y-62395000D01*
X179165000Y-91025000D02*
X178275000Y-94355000D01*
X136905000Y-118005000D02*
X133435000Y-116455000D01*
X144055000Y-55025000D02*
X147515000Y-54605000D01*
X162605000Y-107665000D02*
X159765000Y-109075000D01*
X149625000Y-57345000D02*
X152945000Y-57575000D01*
X169045000Y-101865000D02*
X166795000Y-104145000D01*
X130785000Y-107045000D02*
X128325000Y-104685000D01*
X159165000Y-56565000D02*
X162385000Y-57885000D01*
X166695000Y-108835000D02*
X163805000Y-110665000D01*
X155505000Y-112105000D02*
X152195000Y-112615000D01*
X156655000Y-59555000D02*
X159715000Y-60635000D01*
X118725000Y-87855000D02*
X118605000Y-84345000D01*
X177235000Y-76085000D02*
X178075000Y-79395000D01*
X166335000Y-108105000D02*
X163505000Y-109915000D01*
X142795000Y-109845000D02*
X139775000Y-108815000D01*
X174695000Y-109305000D02*
X171955000Y-111845000D01*
X114285000Y-82485000D02*
X114755000Y-78745000D01*
X123505000Y-96705000D02*
X122305000Y-93555000D01*
X170995000Y-103275000D02*
X168665000Y-105695000D01*
X143175000Y-58475000D02*
X146395000Y-57915000D01*
X179785000Y-84075000D02*
X179675000Y-87575000D01*
X178615000Y-73955000D02*
X179665000Y-77325000D01*
X176855000Y-64865000D02*
X178855000Y-67935000D01*
X180345000Y-99875000D02*
X178555000Y-103095000D01*
X170045000Y-63705000D02*
X172385000Y-66265000D01*
X173845000Y-92455000D02*
X172715000Y-95425000D01*
X167175000Y-60265000D02*
X169945000Y-62515000D01*
X152495000Y-59535000D02*
X155625000Y-60105000D01*
X131675000Y-56415000D02*
X134905000Y-54645000D01*
X153115000Y-110095000D02*
X149895000Y-110345000D01*
X179985000Y-75505000D02*
X180835000Y-78945000D01*
X122695000Y-78005000D02*
X123725000Y-74855000D01*
X154515000Y-118785000D02*
X150835000Y-119125000D01*
X143035000Y-58095000D02*
X146385000Y-57515000D01*
X124225000Y-66545000D02*
X126455000Y-63825000D01*
X161965000Y-58575000D02*
X164955000Y-60215000D01*
X177035000Y-95445000D02*
X175635000Y-98555000D01*
X126015000Y-62545000D02*
X128635000Y-60095000D01*
X131705000Y-103565000D02*
X129545000Y-101215000D01*
X138285000Y-53245000D02*
X141825000Y-52215000D01*
X120505000Y-66315000D02*
X122695000Y-63295000D01*
X128415000Y-102985000D02*
X126405000Y-100315000D01*
X127405000Y-67645000D02*
X129635000Y-65135000D01*
X175175000Y-65945000D02*
X177135000Y-68955000D01*
X121615000Y-68305000D02*
X123665000Y-65295000D01*
X172265000Y-109445000D02*
X169485000Y-111755000D01*
X141735000Y-117415000D02*
X138235000Y-116365000D01*
X182315000Y-89255000D02*
X181625000Y-92825000D01*
X166385000Y-62665000D02*
X168915000Y-64845000D01*
X128905000Y-105865000D02*
X126615000Y-103315000D01*
X162935000Y-62725000D02*
X165595000Y-64585000D01*
X126235000Y-65285000D02*
X128635000Y-62765000D01*
X132135000Y-114835000D02*
X129005000Y-112775000D01*
X137695000Y-107365000D02*
X134995000Y-105705000D01*
X137045000Y-63025000D02*
X139895000Y-61645000D01*
X175345000Y-80045000D02*
X175745000Y-83255000D01*
X170625000Y-112395000D02*
X167545000Y-114505000D01*
X120005000Y-102135000D02*
X118315000Y-98815000D01*
X123205000Y-71195000D02*
X124975000Y-68255000D01*
X144495000Y-58605000D02*
X147695000Y-58205000D01*
X168665000Y-68695000D02*
X170565000Y-71265000D01*
X160245000Y-51445000D02*
X163755000Y-52795000D01*
X153905000Y-59335000D02*
X157055000Y-60095000D01*
X176865000Y-102765000D02*
X174725000Y-105675000D01*
X162625000Y-117845000D02*
X159055000Y-119045000D01*
X130275000Y-101425000D02*
X128365000Y-98885000D01*
X128965000Y-64675000D02*
X131475000Y-62425000D01*
X181725000Y-94015000D02*
X180555000Y-97435000D01*
X123315000Y-70155000D02*
X125215000Y-67225000D01*
X175635000Y-98555000D02*
X173875000Y-101485000D01*
X140845000Y-52045000D02*
X144485000Y-51305000D01*
X123835000Y-86505000D02*
X123855000Y-83285000D01*
X122745000Y-61985000D02*
X125325000Y-59285000D01*
X168475000Y-66095000D02*
X170625000Y-68555000D01*
X168845000Y-100855000D02*
X166625000Y-103175000D01*
X117155000Y-78965000D02*
X118005000Y-75475000D01*
X180535000Y-67655000D02*
X182185000Y-71035000D01*
X134905000Y-54645000D02*
X138285000Y-53245000D01*
X127905000Y-61805000D02*
X130645000Y-59535000D01*
X174835000Y-93305000D02*
X173585000Y-96385000D01*
X163805000Y-110665000D02*
X160695000Y-112155000D01*
X151655000Y-55425000D02*
X154995000Y-55875000D01*
X144135000Y-119925000D02*
X140485000Y-119165000D01*
X178165000Y-102975000D02*
X176035000Y-105965000D01*
X132685000Y-60055000D02*
X135665000Y-58285000D01*
X176075000Y-72085000D02*
X177385000Y-75265000D01*
X129335000Y-110515000D02*
X126645000Y-108125000D01*
X146315000Y-50285000D02*
X150075000Y-50155000D01*
X173135000Y-105695000D02*
X170685000Y-108175000D01*
X125085000Y-61205000D02*
X127825000Y-58685000D01*
X129955000Y-112965000D02*
X127035000Y-110675000D01*
X175345000Y-89715000D02*
X174555000Y-92865000D01*
X141695000Y-50605000D02*
X145425000Y-49975000D01*
X125555000Y-103905000D02*
X123565000Y-101075000D01*
X161815000Y-114725000D02*
X158455000Y-115895000D01*
X123875000Y-102995000D02*
X122025000Y-100015000D01*
X122375000Y-71055000D02*
X124165000Y-68025000D01*
X168945000Y-105975000D02*
X166335000Y-108105000D01*
X146895000Y-111405000D02*
X143695000Y-110895000D01*
X124385000Y-109255000D02*
X121935000Y-106425000D01*
X173405000Y-92485000D02*
X172235000Y-95475000D01*
X167485000Y-61495000D02*
X170045000Y-63705000D01*
X123115000Y-101105000D02*
X121445000Y-97965000D01*
X123435000Y-94395000D02*
X122495000Y-91195000D01*
X127415000Y-64555000D02*
X129905000Y-62165000D01*
X177745000Y-73935000D02*
X178815000Y-77225000D01*
X143045000Y-114845000D02*
X139685000Y-113905000D01*
X126455000Y-63825000D02*
X128995000Y-61365000D01*
X124775000Y-75455000D02*
X126145000Y-72475000D01*
X123435000Y-63655000D02*
X125915000Y-60935000D01*
X179765000Y-71485000D02*
X181055000Y-74895000D01*
X131695000Y-111255000D02*
X128875000Y-109095000D01*
X136125000Y-109285000D02*
X133315000Y-107505000D01*
X138205000Y-61495000D02*
X141235000Y-60275000D01*
X136895000Y-54635000D02*
X140285000Y-53445000D01*
X177795000Y-84745000D02*
X177605000Y-88145000D01*
X119085000Y-71445000D02*
X120735000Y-68225000D01*
X171235000Y-111405000D02*
X168255000Y-113585000D01*
X154245000Y-53715000D02*
X157705000Y-54445000D01*
X133705000Y-55705000D02*
X136975000Y-54175000D01*
X149135000Y-110745000D02*
X145935000Y-110485000D01*
X178515000Y-82725000D02*
X178565000Y-86195000D01*
X119215000Y-94395000D02*
X118355000Y-90945000D01*
X177325000Y-102795000D02*
X175175000Y-105755000D01*
X180115000Y-87085000D02*
X179665000Y-90555000D01*
X156245000Y-58615000D02*
X159365000Y-59625000D01*
X181035000Y-89645000D02*
X180315000Y-93115000D01*
X175755000Y-65395000D02*
X177745000Y-68415000D01*
X125905000Y-65055000D02*
X128375000Y-62465000D01*
X152965000Y-113745000D02*
X149535000Y-113945000D01*
X122195000Y-84875000D02*
X122415000Y-81555000D01*
X156965000Y-112155000D02*
X153665000Y-112845000D01*
X152315000Y-110595000D02*
X149135000Y-110745000D01*
X117355000Y-73615000D02*
X118775000Y-70205000D01*
X182985000Y-75795000D02*
X183765000Y-79435000D01*
X115895000Y-87525000D02*
X115815000Y-83875000D01*
X153445000Y-117715000D02*
X149835000Y-117945000D01*
X134805000Y-107075000D02*
X132175000Y-105075000D01*
X175085000Y-80895000D02*
X175385000Y-84125000D01*
X162625000Y-108115000D02*
X159705000Y-109535000D01*
X146465000Y-115385000D02*
X143045000Y-114845000D01*
X119925000Y-77545000D02*
X120965000Y-74225000D01*
X175975000Y-74895000D02*
X176975000Y-78125000D01*
X177605000Y-88145000D02*
X177035000Y-91405000D01*
X175415000Y-67695000D02*
X177185000Y-70715000D01*
X121465000Y-70205000D02*
X123295000Y-67165000D01*
X180835000Y-78945000D02*
X181305000Y-82495000D01*
X121175000Y-64615000D02*
X123485000Y-61745000D01*
X155375000Y-54315000D02*
X158825000Y-55195000D01*
X129005000Y-112775000D02*
X126145000Y-110415000D01*
X137325000Y-110355000D02*
X134405000Y-108725000D01*
X137445000Y-110855000D02*
X134465000Y-109235000D01*
X166585000Y-112745000D02*
X163415000Y-114455000D01*
X166265000Y-54945000D02*
X169385000Y-56925000D01*
X122695000Y-63295000D02*
X125165000Y-60555000D01*
X183765000Y-79435000D02*
X184145000Y-83145000D01*
X183145000Y-78225000D02*
X183665000Y-81895000D01*
X174975000Y-75655000D02*
X175905000Y-78795000D01*
X120625000Y-86245000D02*
X120675000Y-82845000D01*
X154465000Y-54965000D02*
X157855000Y-55735000D01*
X161525000Y-107805000D02*
X158585000Y-109115000D01*
X176215000Y-61505000D02*
X178525000Y-64445000D01*
X176175000Y-91545000D02*
X175175000Y-94715000D01*
X121905000Y-107035000D02*
X119715000Y-103965000D01*
X125585000Y-93215000D02*
X124735000Y-90105000D01*
X174705000Y-97735000D02*
X173015000Y-100615000D01*
X116135000Y-80215000D02*
X116865000Y-76595000D01*
X155415000Y-119855000D02*
X151645000Y-120285000D01*
X181755000Y-71055000D02*
X183055000Y-74595000D01*
X125965000Y-108575000D02*
X123545000Y-105885000D01*
X174385000Y-77735000D02*
X175085000Y-80895000D01*
X130255000Y-66215000D02*
X132665000Y-64035000D01*
X147655000Y-51795000D02*
X151265000Y-51795000D01*
X145415000Y-51585000D02*
X149095000Y-51345000D01*
X123525000Y-109505000D02*
X121075000Y-106615000D01*
X171845000Y-71015000D02*
X173375000Y-73865000D01*
X129545000Y-101215000D02*
X127685000Y-98605000D01*
X171905000Y-59435000D02*
X174495000Y-61975000D01*
X120315000Y-87655000D02*
X120205000Y-84265000D01*
X174495000Y-61975000D02*
X176855000Y-64865000D01*
X177145000Y-65965000D02*
X179065000Y-69135000D01*
X155365000Y-60485000D02*
X158435000Y-61445000D01*
X120055000Y-81035000D02*
X120735000Y-77615000D01*
X167215000Y-103215000D02*
X164775000Y-105285000D01*
X172405000Y-60425000D02*
X174935000Y-63075000D01*
X176775000Y-88345000D02*
X176175000Y-91545000D01*
X120735000Y-77615000D02*
X121775000Y-74345000D01*
X127935000Y-58085000D02*
X130975000Y-55915000D01*
X122235000Y-74275000D02*
X123665000Y-71175000D01*
X169005000Y-57145000D02*
X171905000Y-59435000D01*
X168945000Y-114085000D02*
X165715000Y-115995000D01*
X138895000Y-117865000D02*
X135425000Y-116525000D01*
X127805000Y-71235000D02*
X129675000Y-68655000D01*
X157855000Y-55735000D02*
X161125000Y-56885000D01*
X128385000Y-69665000D02*
X130465000Y-67155000D01*
X125455000Y-58625000D02*
X128385000Y-56235000D01*
X118695000Y-79445000D02*
X119525000Y-75995000D01*
X166775000Y-66125000D02*
X168985000Y-68435000D01*
X137385000Y-57035000D02*
X140665000Y-55835000D01*
X150045000Y-56555000D02*
X153415000Y-56825000D01*
X167695000Y-64795000D02*
X170025000Y-67185000D01*
X160485000Y-60535000D02*
X163365000Y-62055000D01*
X118605000Y-90065000D02*
X118235000Y-86555000D01*
X118265000Y-82945000D02*
X118695000Y-79445000D01*
X169565000Y-110685000D02*
X166585000Y-112745000D01*
X161675000Y-116925000D02*
X158125000Y-118055000D01*
X146735000Y-56675000D02*
X150045000Y-56555000D01*
X170685000Y-108175000D02*
X167885000Y-110445000D01*
X143385000Y-57195000D02*
X146735000Y-56675000D01*
X131015000Y-111265000D02*
X128205000Y-109045000D01*
X161875000Y-54165000D02*
X165155000Y-55705000D01*
X179065000Y-89305000D02*
X178355000Y-92695000D01*
X176975000Y-78125000D02*
X177585000Y-81435000D01*
X124265000Y-80125000D02*
X125065000Y-77035000D01*
X124825000Y-70745000D02*
X126685000Y-67925000D01*
X177465000Y-92905000D02*
X176335000Y-96125000D01*
X145905000Y-60015000D02*
X149165000Y-59765000D01*
X126155000Y-95765000D02*
X125005000Y-92805000D01*
X144315000Y-59455000D02*
X147525000Y-59015000D01*
X179065000Y-69135000D02*
X180605000Y-72455000D01*
X147055000Y-111025000D02*
X143845000Y-110515000D01*
X123775000Y-91395000D02*
X123185000Y-88205000D01*
X145315000Y-56035000D02*
X148725000Y-55755000D01*
X158455000Y-115895000D02*
X154855000Y-116705000D01*
X177155000Y-106485000D02*
X174695000Y-109305000D01*
X177035000Y-91405000D02*
X176055000Y-94655000D01*
X118785000Y-96815000D02*
X117665000Y-93345000D01*
X146875000Y-120645000D02*
X147180000Y-120950000D01*
X141125000Y-51565000D02*
X144755000Y-50865000D01*
X120415000Y-64995000D02*
X122745000Y-61985000D01*
X159075000Y-54015000D02*
X162455000Y-55275000D01*
X181625000Y-92825000D02*
X180555000Y-96315000D01*
X150225000Y-58555000D02*
X153465000Y-58855000D01*
X170905000Y-109055000D02*
X168115000Y-111265000D01*
X134875000Y-114945000D02*
X131675000Y-113155000D01*
X115815000Y-83875000D02*
X116135000Y-80215000D01*
X161715000Y-113895000D02*
X158375000Y-115085000D01*
X118405000Y-67455000D02*
X120435000Y-64275000D01*
X122685000Y-87215000D02*
X122625000Y-83835000D01*
X122415000Y-81555000D02*
X123025000Y-78335000D01*
X125185000Y-99105000D02*
X123685000Y-96125000D01*
X140485000Y-119165000D02*
X136905000Y-118005000D01*
X184015000Y-93175000D02*
X182935000Y-96795000D01*
X154855000Y-116705000D02*
X151335000Y-117095000D01*
X125235000Y-96635000D02*
X124005000Y-93605000D01*
X116305000Y-77175000D02*
X117355000Y-73615000D01*
X176285000Y-70725000D02*
X177745000Y-73935000D01*
X125165000Y-60555000D02*
X127935000Y-58085000D01*
X130015000Y-109005000D02*
X127425000Y-106645000D01*
X161125000Y-56885000D02*
X164275000Y-58415000D01*
X134075000Y-61055000D02*
X137015000Y-59405000D01*
X162455000Y-55275000D02*
X165645000Y-56885000D01*
X121935000Y-106425000D02*
X119805000Y-103355000D01*
X173385000Y-95875000D02*
X171835000Y-98765000D01*
X152105000Y-55865000D02*
X155505000Y-56385000D01*
X178555000Y-103095000D02*
X176415000Y-106135000D01*
X122095000Y-103225000D02*
X120275000Y-100125000D01*
X146875000Y-120645000D02*
X143105000Y-120155000D01*
X129785000Y-69175000D02*
X131925000Y-66845000D01*
X123185000Y-88205000D02*
X122995000Y-84955000D01*
X146385000Y-57515000D02*
X149625000Y-57345000D01*
X117885000Y-92575000D02*
X117245000Y-89025000D01*
X171835000Y-98765000D02*
X169995000Y-101355000D01*
X181115000Y-100115000D02*
X179305000Y-103415000D01*
X177405000Y-91565000D02*
X176435000Y-94775000D01*
X147335000Y-54215000D02*
X150795000Y-54175000D01*
X125295000Y-102915000D02*
X123395000Y-100005000D01*
X140505000Y-108665000D02*
X137695000Y-107365000D01*
X160485000Y-116085000D02*
X156995000Y-117095000D01*
X163415000Y-59765000D02*
X166275000Y-61585000D01*
X120675000Y-82845000D02*
X121135000Y-79455000D01*
X174605000Y-89335000D02*
X173845000Y-92455000D01*
X149835000Y-117945000D02*
X146205000Y-117775000D01*
X125035000Y-62415000D02*
X127715000Y-59825000D01*
X151365000Y-116295000D02*
X147825000Y-116295000D01*
X130545000Y-58125000D02*
X133565000Y-56235000D01*
X178255000Y-104295000D02*
X176025000Y-107245000D01*
X127815000Y-100255000D02*
X126115000Y-97485000D01*
X172125000Y-74075000D02*
X173295000Y-76935000D01*
X119145000Y-87965000D02*
X119005000Y-84405000D01*
X181285000Y-90595000D02*
X180445000Y-94115000D01*
X180555000Y-96315000D02*
X179125000Y-99625000D01*
X115535000Y-93055000D02*
X114865000Y-89345000D01*
X142345000Y-110965000D02*
X139265000Y-109905000D01*
X175875000Y-102805000D02*
X173715000Y-105635000D01*
X150555000Y-114725000D02*
X147115000Y-114645000D01*
X136995000Y-60755000D02*
X139995000Y-59435000D01*
X114485000Y-78035000D02*
X115405000Y-74405000D01*
X144275000Y-57425000D02*
X147565000Y-57005000D01*
X155105000Y-119505000D02*
X151395000Y-119895000D01*
X156555000Y-115145000D02*
X153075000Y-115745000D01*
X127595000Y-65555000D02*
X129975000Y-63165000D01*
X175345000Y-100685000D02*
X173385000Y-103515000D01*
X172685000Y-63555000D02*
X174965000Y-66345000D01*
X134465000Y-109235000D02*
X131705000Y-107285000D01*
X127125000Y-111805000D02*
X124385000Y-109255000D01*
X150265000Y-111135000D02*
X147055000Y-111025000D01*
X167885000Y-110445000D02*
X164895000Y-112345000D01*
X175665000Y-90185000D02*
X174835000Y-93305000D01*
X159435000Y-113485000D02*
X156065000Y-114435000D01*
X152775000Y-112155000D02*
X149485000Y-112345000D01*
X141355000Y-53565000D02*
X144855000Y-52865000D01*
X123025000Y-78335000D02*
X124035000Y-75165000D01*
X178195000Y-84805000D02*
X178005000Y-88215000D01*
X159915000Y-114165000D02*
X156555000Y-115145000D01*
X184365000Y-78215000D02*
X184875000Y-81945000D01*
X127025000Y-101885000D02*
X125185000Y-99105000D01*
X126745000Y-67195000D02*
X128965000Y-64675000D01*
X157235000Y-112495000D02*
X153945000Y-113205000D01*
X174495000Y-79855000D02*
X174925000Y-82985000D01*
X144815000Y-55705000D02*
X148215000Y-55375000D01*
X137895000Y-54665000D02*
X141355000Y-53565000D01*
X180925000Y-82765000D02*
X180955000Y-86395000D01*
X171175000Y-67315000D02*
X173105000Y-70015000D01*
X177745000Y-99705000D02*
X175875000Y-102805000D01*
X131505000Y-108145000D02*
X128905000Y-105865000D01*
X130975000Y-55915000D02*
X134185000Y-54105000D01*
X123805000Y-78515000D02*
X124775000Y-75455000D01*
X119805000Y-84385000D02*
X120055000Y-81035000D01*
X158755000Y-118715000D02*
X155105000Y-119505000D01*
X165085000Y-107525000D02*
X162195000Y-109255000D01*
X123205000Y-73005000D02*
X124805000Y-69995000D01*
X134055000Y-113165000D02*
X131015000Y-111265000D01*
X124295000Y-86985000D02*
X124245000Y-83825000D01*
X159365000Y-59625000D02*
X162355000Y-61015000D01*
X171225000Y-108225000D02*
X168525000Y-110475000D01*
X143915000Y-119485000D02*
X140285000Y-118695000D01*
X114735000Y-81905000D02*
X115265000Y-78205000D01*
X142245000Y-116715000D02*
X138795000Y-115715000D01*
X164475000Y-53565000D02*
X167735000Y-55355000D01*
X142115000Y-55855000D02*
X145495000Y-55205000D01*
X131575000Y-57915000D02*
X134645000Y-56115000D01*
X155835000Y-55635000D02*
X159165000Y-56565000D01*
X178275000Y-94355000D02*
X176995000Y-97605000D01*
X116205000Y-85645000D02*
X116335000Y-82025000D01*
X138795000Y-56895000D02*
X142115000Y-55855000D01*
X119245000Y-91315000D02*
X118725000Y-87855000D01*
X123485000Y-61745000D02*
X126175000Y-59055000D01*
X118015000Y-100075000D02*
X116585000Y-96635000D01*
X170805000Y-66255000D02*
X172865000Y-68915000D01*
X140565000Y-112935000D02*
X137335000Y-111685000D01*
X178305000Y-78555000D02*
X178845000Y-81955000D01*
X135945000Y-112795000D02*
X132875000Y-111075000D01*
X126975000Y-100445000D02*
X125285000Y-97625000D01*
X120965000Y-89615000D02*
X120625000Y-86245000D01*
X174165000Y-89435000D02*
X173405000Y-92485000D01*
X120325000Y-99345000D02*
X118925000Y-96045000D01*
X118315000Y-98815000D02*
X117015000Y-95395000D01*
X137305000Y-114725000D02*
X134055000Y-113165000D01*
X151335000Y-117095000D02*
X147745000Y-117095000D01*
X126985000Y-102495000D02*
X125075000Y-99705000D01*
X160135000Y-111085000D02*
X156965000Y-112155000D01*
X164235000Y-57935000D02*
X167195000Y-59785000D01*
X172455000Y-73795000D02*
X173665000Y-76745000D01*
X125065000Y-77035000D02*
X126255000Y-74045000D01*
X124175000Y-105385000D02*
X122105000Y-102505000D01*
X176025000Y-100325000D02*
X174085000Y-103255000D01*
X174915000Y-61845000D02*
X177255000Y-64735000D01*
X177945000Y-73345000D02*
X179075000Y-76665000D01*
X137335000Y-111685000D02*
X134335000Y-110095000D01*
X164895000Y-112345000D02*
X161715000Y-113895000D01*
X151395000Y-119895000D02*
X147655000Y-119895000D01*
X120475000Y-91315000D02*
X119935000Y-87885000D01*
X140565000Y-109975000D02*
X137585000Y-108695000D01*
X167675000Y-105505000D02*
X165085000Y-107525000D01*
X118475000Y-98185000D02*
X117235000Y-94755000D01*
X169435000Y-107155000D02*
X166725000Y-109315000D01*
X173305000Y-68855000D02*
X175035000Y-71785000D01*
X118775000Y-70205000D02*
X120555000Y-66975000D01*
X142775000Y-113145000D02*
X139535000Y-112155000D01*
X164285000Y-116255000D02*
X160805000Y-117665000D01*
X151645000Y-120285000D02*
X147895000Y-120305000D01*
X146715000Y-110175000D02*
X143655000Y-109645000D01*
X126255000Y-74045000D02*
X127805000Y-71235000D01*
X162355000Y-61015000D02*
X165145000Y-62745000D01*
X143215000Y-118145000D02*
X139635000Y-117255000D01*
X172385000Y-66265000D02*
X174415000Y-69085000D01*
X178075000Y-92185000D02*
X177035000Y-95445000D01*
X167925000Y-104195000D02*
X165395000Y-106325000D01*
X150945000Y-58185000D02*
X154215000Y-58575000D01*
X172215000Y-69385000D02*
X173865000Y-72145000D01*
X147255000Y-114255000D02*
X143805000Y-113775000D01*
X121985000Y-76155000D02*
X123205000Y-73005000D01*
X170125000Y-101825000D02*
X167925000Y-104195000D01*
X170805000Y-57485000D02*
X173615000Y-59925000D01*
X121405000Y-80205000D02*
X122165000Y-76925000D01*
X137585000Y-108695000D02*
X134805000Y-107075000D01*
X178095000Y-68215000D02*
X179765000Y-71485000D01*
X136825000Y-55965000D02*
X140155000Y-54735000D01*
X177645000Y-100715000D02*
X175705000Y-103755000D01*
X126145000Y-72475000D02*
X127885000Y-69675000D01*
X160635000Y-51155000D02*
X164175000Y-52545000D01*
X159065000Y-52335000D02*
X162545000Y-53575000D01*
X134145000Y-62445000D02*
X136995000Y-60755000D01*
X144755000Y-50865000D02*
X148485000Y-50555000D01*
X124645000Y-100535000D02*
X122985000Y-97485000D01*
X165055000Y-115435000D02*
X161675000Y-116925000D01*
X161055000Y-56425000D02*
X164235000Y-57935000D01*
X181785000Y-96455000D02*
X180345000Y-99875000D01*
X133565000Y-56235000D02*
X136895000Y-54635000D01*
X167705000Y-62175000D02*
X170265000Y-64495000D01*
X176035000Y-105965000D02*
X173615000Y-108695000D01*
X168185000Y-60015000D02*
X170905000Y-62315000D01*
X115395000Y-84485000D02*
X115655000Y-80795000D01*
X180095000Y-67685000D02*
X181755000Y-71055000D01*
X137125000Y-112025000D02*
X134105000Y-110425000D01*
X126665000Y-72365000D02*
X128385000Y-69665000D01*
X126645000Y-108125000D02*
X124175000Y-105385000D01*
X147185000Y-113445000D02*
X143875000Y-112975000D01*
X181205000Y-92875000D02*
X180135000Y-96295000D01*
X122795000Y-61315000D02*
X125455000Y-58625000D01*
X143795000Y-54665000D02*
X147335000Y-54215000D01*
X166795000Y-104145000D02*
X164265000Y-106145000D01*
X127825000Y-58685000D02*
X130785000Y-56515000D01*
X148445000Y-116725000D02*
X144875000Y-116395000D01*
X169955000Y-61985000D02*
X172415000Y-64455000D01*
X180655000Y-76375000D02*
X181415000Y-79935000D01*
X167975000Y-66725000D02*
X170085000Y-69165000D01*
X173875000Y-101485000D02*
X171745000Y-104245000D01*
X168665000Y-105695000D02*
X166015000Y-107845000D01*
X125215000Y-67225000D02*
X127415000Y-64555000D01*
X129635000Y-65135000D02*
X132185000Y-62885000D01*
X127895000Y-106545000D02*
X125555000Y-103905000D01*
X172415000Y-64455000D02*
X174585000Y-67185000D01*
X162545000Y-53575000D02*
X165795000Y-55145000D01*
X114865000Y-89345000D02*
X114605000Y-85645000D01*
X117155000Y-81815000D02*
X117695000Y-78295000D01*
X131345000Y-60505000D02*
X134235000Y-58615000D01*
X147655000Y-119895000D02*
X143915000Y-119485000D01*
X127885000Y-69675000D02*
X129925000Y-67145000D01*
X178525000Y-64445000D02*
X180535000Y-67655000D01*
X173445000Y-62605000D02*
X175755000Y-65395000D01*
X123565000Y-101075000D02*
X121915000Y-98035000D01*
X170885000Y-70995000D02*
X172455000Y-73795000D01*
X150915000Y-56985000D02*
X154245000Y-57365000D01*
X162705000Y-110795000D02*
X159565000Y-112165000D01*
X171745000Y-104245000D02*
X169365000Y-106675000D01*
X149165000Y-59765000D02*
X152275000Y-59945000D01*
X154215000Y-58575000D02*
X157395000Y-59355000D01*
X174025000Y-103995000D02*
X171685000Y-106665000D01*
X173325000Y-74735000D02*
X174385000Y-77735000D01*
X147745000Y-117095000D02*
X144185000Y-116695000D01*
X128205000Y-109045000D02*
X125655000Y-106515000D01*
X173375000Y-100795000D02*
X171325000Y-103505000D01*
X161265000Y-62725000D02*
X164015000Y-64425000D01*
X131375000Y-64065000D02*
X133965000Y-62085000D01*
X145685000Y-114895000D02*
X142285000Y-114255000D01*
X143605000Y-53885000D02*
X147125000Y-53425000D01*
X166225000Y-111085000D02*
X163155000Y-112805000D01*
X156715000Y-57495000D02*
X159915000Y-58545000D01*
X129815000Y-112375000D02*
X126965000Y-110085000D01*
X131515000Y-54175000D02*
X134855000Y-52465000D01*
X162105000Y-56435000D02*
X165235000Y-58045000D01*
X117245000Y-89025000D02*
X116995000Y-85455000D01*
X177275000Y-95935000D02*
X175805000Y-99085000D01*
X169995000Y-101355000D02*
X167795000Y-103765000D01*
X147695000Y-58205000D02*
X150945000Y-58185000D01*
X149185000Y-115145000D02*
X145685000Y-114895000D01*
X175175000Y-94715000D02*
X173795000Y-97755000D01*
X166015000Y-107845000D02*
X163165000Y-109645000D01*
X128135000Y-68665000D02*
X130255000Y-66215000D01*
X180135000Y-96295000D02*
X178665000Y-99655000D01*
X148435000Y-52555000D02*
X152015000Y-52645000D01*
X125515000Y-70365000D02*
X127405000Y-67645000D01*
X153405000Y-111265000D02*
X150165000Y-111535000D01*
X172775000Y-108405000D02*
X170025000Y-110835000D01*
X177985000Y-81435000D02*
X178195000Y-84805000D01*
X164275000Y-105175000D02*
X161605000Y-106855000D01*
X116065000Y-76485000D02*
X117175000Y-72945000D01*
X115755000Y-96675000D02*
X114705000Y-93025000D01*
X156255000Y-117665000D02*
X152615000Y-118205000D01*
X155355000Y-111315000D02*
X152085000Y-111825000D01*
X164695000Y-108265000D02*
X161765000Y-109925000D01*
X164775000Y-105285000D02*
X162095000Y-107035000D01*
X122965000Y-91455000D02*
X122375000Y-88125000D01*
X184985000Y-85725000D02*
X184695000Y-89505000D01*
X163505000Y-109915000D02*
X160415000Y-111405000D01*
X167905000Y-113335000D02*
X164705000Y-115165000D01*
X175255000Y-75255000D02*
X176225000Y-78425000D01*
X172715000Y-95425000D02*
X171195000Y-98265000D01*
X135725000Y-114905000D02*
X132505000Y-113195000D01*
X181375000Y-86055000D02*
X181035000Y-89645000D01*
X184135000Y-86885000D02*
X183735000Y-90535000D01*
X150695000Y-53375000D02*
X154245000Y-53715000D01*
X126095000Y-105805000D02*
X123875000Y-102995000D01*
X162615000Y-62075000D02*
X165305000Y-63855000D01*
X128875000Y-109095000D02*
X126295000Y-106615000D01*
X152425000Y-55095000D02*
X155835000Y-55635000D01*
X152015000Y-52645000D02*
X155595000Y-53135000D01*
X114605000Y-85645000D02*
X114735000Y-81905000D01*
X120655000Y-93625000D02*
X119855000Y-90255000D01*
X175035000Y-71785000D02*
X176395000Y-74885000D01*
X161765000Y-109925000D02*
X158715000Y-111195000D01*
X122995000Y-84955000D02*
X123195000Y-81725000D01*
X115405000Y-74405000D02*
X116735000Y-70825000D01*
X159915000Y-58545000D02*
X162975000Y-59985000D01*
X176445000Y-82045000D02*
X176585000Y-85425000D01*
X156615000Y-110585000D02*
X153405000Y-111265000D01*
X171325000Y-103505000D02*
X168945000Y-105975000D01*
X173435000Y-106555000D02*
X170905000Y-109055000D01*
X166275000Y-61585000D02*
X168895000Y-63725000D01*
X123315000Y-73745000D02*
X124825000Y-70745000D01*
X180955000Y-86395000D02*
X180595000Y-89875000D01*
X167515000Y-54285000D02*
X170675000Y-56385000D01*
X175225000Y-95665000D02*
X173765000Y-98635000D01*
X178805000Y-78955000D02*
X179285000Y-82385000D01*
X174845000Y-99165000D02*
X172995000Y-102035000D01*
X136415000Y-110795000D02*
X133495000Y-109085000D01*
X122665000Y-63965000D02*
X125085000Y-61205000D01*
X125355000Y-77535000D02*
X126455000Y-74595000D01*
X120615000Y-76525000D02*
X121775000Y-73275000D01*
X149535000Y-113945000D02*
X146155000Y-113745000D01*
X116615000Y-86115000D02*
X116685000Y-82565000D01*
X122025000Y-100015000D02*
X120505000Y-96815000D01*
X167775000Y-65965000D02*
X169955000Y-68355000D01*
X163315000Y-54345000D02*
X166535000Y-56025000D01*
X142575000Y-115145000D02*
X139175000Y-114155000D01*
X167195000Y-59785000D02*
X169955000Y-61985000D01*
X166535000Y-56025000D02*
X169625000Y-58095000D01*
X131705000Y-107285000D02*
X129205000Y-105025000D01*
X132145000Y-60915000D02*
X135055000Y-59065000D01*
X136975000Y-54175000D02*
X140405000Y-52995000D01*
X174485000Y-67745000D02*
X176285000Y-70725000D01*
X121945000Y-87905000D02*
X121795000Y-84605000D01*
X127035000Y-110675000D02*
X124385000Y-108085000D01*
X153265000Y-49555000D02*
X157015000Y-50165000D01*
X173375000Y-73865000D02*
X174555000Y-76905000D01*
X138015000Y-114575000D02*
X134735000Y-113075000D01*
X137515000Y-113945000D02*
X134345000Y-112415000D01*
X151265000Y-51795000D02*
X154875000Y-52195000D01*
X174525000Y-83125000D02*
X174545000Y-86315000D01*
X149415000Y-117545000D02*
X145805000Y-117325000D01*
X140875000Y-115125000D02*
X137515000Y-113945000D01*
X122545000Y-92965000D02*
X121795000Y-89725000D01*
X140155000Y-54735000D02*
X143605000Y-53885000D01*
X137345000Y-53165000D02*
X140845000Y-52045000D01*
X169385000Y-56925000D02*
X172255000Y-59215000D01*
X150545000Y-118735000D02*
X146925000Y-118645000D01*
X137655000Y-61315000D02*
X140655000Y-60045000D01*
X171865000Y-104705000D02*
X169435000Y-107155000D01*
X137845000Y-59455000D02*
X140995000Y-58245000D01*
X138795000Y-115715000D02*
X135435000Y-114325000D01*
X117815000Y-83855000D02*
X118145000Y-80305000D01*
X159925000Y-53025000D02*
X163315000Y-54345000D01*
X164705000Y-115165000D02*
X161325000Y-116635000D01*
X125485000Y-68225000D02*
X127595000Y-65555000D01*
X183665000Y-81895000D02*
X183785000Y-85615000D01*
X145545000Y-111645000D02*
X142345000Y-110965000D01*
X155505000Y-56385000D02*
X158785000Y-57285000D01*
X121465000Y-83025000D02*
X121905000Y-79685000D01*
X152615000Y-118205000D02*
X148995000Y-118335000D01*
X120875000Y-68785000D02*
X122845000Y-65715000D01*
X158125000Y-118055000D02*
X154515000Y-118785000D01*
X161195000Y-55185000D02*
X164445000Y-56685000D01*
X156995000Y-117095000D02*
X153445000Y-117715000D01*
X171825000Y-105945000D02*
X169285000Y-108345000D01*
X133375000Y-110915000D02*
X130505000Y-108885000D01*
X128385000Y-56235000D02*
X131515000Y-54175000D01*
X129525000Y-111165000D02*
X126765000Y-108805000D01*
X152715000Y-51505000D02*
X156355000Y-52065000D01*
X173755000Y-62355000D02*
X176095000Y-65175000D01*
X118705000Y-94085000D02*
X117885000Y-90605000D01*
X123685000Y-96125000D02*
X122545000Y-92965000D01*
X177375000Y-85925000D02*
X177055000Y-89235000D01*
X176675000Y-72415000D02*
X177925000Y-75615000D01*
X177345000Y-84575000D02*
X177375000Y-85925000D01*
X121775000Y-73275000D02*
X123315000Y-70155000D01*
X140665000Y-55835000D02*
X144055000Y-55025000D01*
X170025000Y-67185000D02*
X172005000Y-69785000D01*
X154925000Y-115885000D02*
X151365000Y-116295000D01*
X165655000Y-110495000D02*
X162625000Y-112175000D01*
X179515000Y-72955000D02*
X180655000Y-76375000D01*
X170855000Y-111195000D02*
X167905000Y-113335000D01*
X119855000Y-90255000D02*
X119445000Y-86815000D01*
X170835000Y-60095000D02*
X173445000Y-62605000D01*
X132775000Y-60965000D02*
X135625000Y-59215000D01*
X129925000Y-67145000D02*
X132295000Y-64865000D01*
X177135000Y-68955000D02*
X178745000Y-72145000D01*
X163195000Y-115435000D02*
X159775000Y-116745000D01*
X139125000Y-110715000D02*
X136125000Y-109285000D01*
X165395000Y-106325000D02*
X162625000Y-108115000D01*
X182925000Y-94195000D02*
X181735000Y-97705000D01*
X138185000Y-57565000D02*
X141425000Y-56445000D01*
X146155000Y-113745000D02*
X142775000Y-113145000D01*
X134315000Y-64285000D02*
X137055000Y-62535000D01*
X163155000Y-112805000D02*
X159915000Y-114165000D01*
X159565000Y-112165000D02*
X156325000Y-113145000D01*
X121905000Y-79685000D02*
X122725000Y-76465000D01*
X176335000Y-96125000D02*
X174845000Y-99165000D01*
X122955000Y-80615000D02*
X123685000Y-77425000D01*
X175085000Y-77265000D02*
X175825000Y-80465000D01*
X134735000Y-113075000D02*
X131695000Y-111255000D01*
X175745000Y-86515000D02*
X175345000Y-89715000D01*
X133665000Y-57555000D02*
X136825000Y-55965000D01*
X130505000Y-108885000D02*
X127895000Y-106545000D01*
X162625000Y-112175000D02*
X159435000Y-113485000D01*
X151955000Y-116655000D02*
X148445000Y-116725000D01*
X180925000Y-71145000D02*
X182225000Y-74635000D01*
X180675000Y-75015000D02*
X181575000Y-78525000D01*
X121705000Y-92945000D02*
X120965000Y-89615000D01*
X143105000Y-120155000D02*
X139445000Y-119285000D01*
X173995000Y-102015000D02*
X171865000Y-104705000D01*
X126885000Y-69015000D02*
X128965000Y-66415000D01*
X173675000Y-72645000D02*
X174975000Y-75655000D01*
X122825000Y-96145000D02*
X121705000Y-92945000D01*
X148805000Y-111935000D02*
X145545000Y-111645000D01*
X122315000Y-69495000D02*
X124225000Y-66545000D01*
X144485000Y-51305000D02*
X148125000Y-50965000D01*
X139535000Y-112155000D02*
X136415000Y-110795000D01*
X176025000Y-107245000D02*
X173455000Y-109975000D01*
X145425000Y-49975000D02*
X149175000Y-49745000D01*
X171485000Y-100715000D02*
X169375000Y-103285000D01*
X165645000Y-56885000D02*
X168685000Y-58895000D01*
X116585000Y-96635000D02*
X115535000Y-93055000D01*
X153465000Y-58855000D02*
X156655000Y-59555000D01*
X168295000Y-57625000D02*
X171155000Y-59845000D01*
X139765000Y-110535000D02*
X136715000Y-109145000D01*
X175825000Y-80465000D02*
X176165000Y-83675000D01*
X173385000Y-103515000D02*
X171075000Y-106145000D01*
X173555000Y-58775000D02*
X176215000Y-61505000D01*
X171935000Y-101455000D02*
X169805000Y-104005000D01*
X121035000Y-83525000D02*
X121405000Y-80205000D01*
X160695000Y-112155000D02*
X157455000Y-113265000D01*
X163365000Y-62055000D02*
X166025000Y-63905000D01*
X148365000Y-53765000D02*
X151895000Y-53845000D01*
X123395000Y-100005000D02*
X121845000Y-96905000D01*
X143835000Y-52625000D02*
X147405000Y-52205000D01*
X124125000Y-91135000D02*
X123565000Y-87985000D01*
X183785000Y-85615000D02*
X183515000Y-89255000D01*
X123665000Y-65295000D02*
X126015000Y-62545000D01*
X175285000Y-87315000D02*
X174775000Y-90505000D01*
X156645000Y-110165000D02*
X153515000Y-110845000D01*
X130705000Y-105375000D02*
X128415000Y-102985000D01*
X180525000Y-71225000D02*
X181815000Y-74655000D01*
X159055000Y-119045000D02*
X155415000Y-119855000D01*
X137575000Y-52655000D02*
X141125000Y-51565000D01*
X174645000Y-94975000D02*
X173235000Y-97945000D01*
X135335000Y-62155000D02*
X138265000Y-60585000D01*
X123725000Y-74855000D02*
X125125000Y-71835000D01*
X121425000Y-102935000D02*
X119635000Y-99755000D01*
X156625000Y-50485000D02*
X160245000Y-51445000D01*
X172615000Y-96555000D02*
X170985000Y-99335000D01*
X161595000Y-54485000D02*
X164925000Y-56035000D01*
X124035000Y-75165000D02*
X125405000Y-72165000D01*
X120605000Y-74045000D02*
X122025000Y-70855000D01*
X179665000Y-75825000D02*
X180495000Y-79305000D01*
X141355000Y-115665000D02*
X138015000Y-114575000D01*
X120435000Y-64275000D02*
X122795000Y-61315000D01*
X172465000Y-71265000D02*
X173955000Y-74175000D01*
X142875000Y-60625000D02*
X145905000Y-60015000D01*
X140425000Y-111625000D02*
X137325000Y-110355000D01*
X179375000Y-85825000D02*
X179065000Y-89305000D01*
X172235000Y-95475000D02*
X170725000Y-98255000D01*
X179815000Y-80065000D02*
X180165000Y-83555000D01*
X167545000Y-114505000D02*
X164285000Y-116255000D01*
X170145000Y-61085000D02*
X172685000Y-63555000D01*
X146395000Y-57915000D02*
X149685000Y-57745000D01*
X125915000Y-60935000D02*
X128685000Y-58515000D01*
X169285000Y-108345000D02*
X166475000Y-110445000D01*
X181305000Y-82495000D02*
X181375000Y-86055000D01*
X134645000Y-56115000D02*
X137895000Y-54665000D01*
X139965000Y-61165000D02*
X142995000Y-60175000D01*
X150735000Y-58975000D02*
X153905000Y-59335000D01*
X120725000Y-72685000D02*
X122315000Y-69495000D01*
X134855000Y-52465000D02*
X138375000Y-51105000D01*
X157705000Y-54445000D02*
X161065000Y-55565000D01*
X139775000Y-108815000D02*
X136855000Y-107395000D01*
X149535000Y-49345000D02*
X153265000Y-49555000D01*
X157775000Y-117735000D02*
X154185000Y-118425000D01*
X153825000Y-56485000D02*
X157135000Y-57195000D01*
X162405000Y-60585000D02*
X165245000Y-62325000D01*
X124765000Y-94525000D02*
X123775000Y-91395000D01*
X124805000Y-74335000D02*
X126275000Y-71435000D01*
X176335000Y-88635000D02*
X175675000Y-91875000D01*
X139265000Y-109905000D02*
X136285000Y-108455000D01*
X175965000Y-76055000D02*
X176835000Y-79325000D01*
X141325000Y-59405000D02*
X144495000Y-58605000D01*
X153475000Y-115295000D02*
X150005000Y-115545000D01*
X147515000Y-54605000D02*
X150995000Y-54585000D01*
X151815000Y-51025000D02*
X155475000Y-51485000D01*
X130645000Y-59535000D02*
X133665000Y-57555000D01*
X130465000Y-67155000D02*
X132785000Y-64965000D01*
X163415000Y-114455000D02*
X160095000Y-115795000D01*
X165795000Y-55145000D02*
X169005000Y-57145000D01*
X178355000Y-92695000D02*
X177275000Y-95935000D01*
X128965000Y-66415000D02*
X131375000Y-64065000D01*
X124275000Y-106145000D02*
X122095000Y-103225000D01*
X123665000Y-71175000D02*
X125485000Y-68225000D01*
X124365000Y-107465000D02*
X122065000Y-104595000D01*
X166625000Y-103175000D02*
X164275000Y-105175000D01*
X167045000Y-112935000D02*
X163855000Y-114685000D01*
X165235000Y-58045000D02*
X168185000Y-60015000D01*
X171875000Y-71845000D02*
X173325000Y-74735000D01*
X154085000Y-113995000D02*
X150685000Y-114325000D01*
X128635000Y-62765000D02*
X131345000Y-60505000D01*
X154295000Y-53315000D02*
X157805000Y-54065000D01*
X125405000Y-72165000D02*
X127125000Y-69365000D01*
X136715000Y-117505000D02*
X133335000Y-115955000D01*
X150995000Y-54585000D02*
X154465000Y-54965000D01*
X131045000Y-60235000D02*
X133995000Y-58295000D01*
X161025000Y-52135000D02*
X164475000Y-53565000D01*
X138065000Y-51635000D02*
X141695000Y-50605000D01*
X163755000Y-111145000D02*
X160645000Y-112605000D01*
X173235000Y-97945000D02*
X171485000Y-100715000D01*
X176995000Y-97605000D02*
X175345000Y-100685000D01*
X134185000Y-54105000D02*
X137575000Y-52655000D01*
X123855000Y-83285000D02*
X124265000Y-80125000D01*
X177605000Y-97225000D02*
X176025000Y-100325000D01*
X165665000Y-109065000D02*
X162705000Y-110795000D01*
X133965000Y-54665000D02*
X137345000Y-53165000D01*
X125655000Y-106515000D02*
X123415000Y-103725000D01*
X173945000Y-63765000D02*
X176135000Y-66615000D01*
X126115000Y-97485000D02*
X124765000Y-94525000D01*
X167735000Y-55355000D02*
X170805000Y-57485000D01*
X153775000Y-50415000D02*
X157465000Y-51085000D01*
X153015000Y-57985000D02*
X156245000Y-58615000D01*
X119955000Y-71455000D02*
X121615000Y-68305000D01*
X116385000Y-97245000D02*
X115265000Y-93645000D01*
X178845000Y-81955000D02*
X178985000Y-85385000D01*
X140285000Y-53445000D02*
X143835000Y-52625000D01*
X156205000Y-58185000D02*
X159405000Y-59215000D01*
X170175000Y-66745000D02*
X172215000Y-69385000D01*
X119255000Y-81025000D02*
X119925000Y-77545000D01*
X129485000Y-63075000D02*
X132145000Y-60915000D01*
X146985000Y-113025000D02*
X143685000Y-112525000D01*
X138265000Y-60585000D02*
X141325000Y-59405000D01*
X169365000Y-106675000D02*
X166695000Y-108835000D01*
X164445000Y-56685000D02*
X167515000Y-58545000D01*
X143875000Y-112975000D02*
X140605000Y-112105000D01*
X176995000Y-84975000D02*
X176775000Y-88345000D01*
X176585000Y-85425000D02*
X176335000Y-88635000D01*
X167795000Y-103765000D02*
X165305000Y-105885000D01*
X183465000Y-74565000D02*
X184365000Y-78215000D01*
X121845000Y-96905000D02*
X120655000Y-93625000D01*
X153995000Y-114415000D02*
X150555000Y-114725000D01*
X147180000Y-120950000D02*
X147180000Y-121330000D01*
X173015000Y-100615000D02*
X170995000Y-103275000D01*
X157055000Y-60095000D02*
X160075000Y-61225000D01*
X174815000Y-106815000D02*
X172265000Y-109445000D01*
X119445000Y-83325000D02*
X119835000Y-79885000D01*
X159455000Y-52035000D02*
X162915000Y-53295000D01*
X141965000Y-56715000D02*
X145315000Y-56035000D01*
X168685000Y-58895000D02*
X171455000Y-61185000D01*
X142605000Y-117205000D02*
X139105000Y-116245000D01*
X179305000Y-103415000D02*
X177155000Y-106485000D01*
X168915000Y-64845000D02*
X171175000Y-67315000D01*
X174085000Y-103255000D02*
X171825000Y-105945000D01*
X156065000Y-114435000D02*
X152655000Y-114985000D01*
X173885000Y-93595000D02*
X172615000Y-96555000D01*
X176115000Y-86955000D02*
X175665000Y-90185000D01*
X150165000Y-111535000D02*
X146895000Y-111405000D01*
X124385000Y-108085000D02*
X122025000Y-105215000D01*
X182845000Y-92895000D02*
X181785000Y-96455000D01*
X148485000Y-50555000D02*
X152165000Y-50655000D01*
X182935000Y-86835000D02*
X182535000Y-90415000D01*
X162095000Y-107035000D02*
X159245000Y-108425000D01*
X159225000Y-110585000D02*
X156045000Y-111565000D01*
X133495000Y-109085000D02*
X130785000Y-107045000D01*
X180275000Y-68855000D02*
X181825000Y-72275000D01*
X118655000Y-69545000D02*
X120505000Y-66315000D01*
X179255000Y-67825000D02*
X180925000Y-71145000D01*
X174965000Y-66345000D02*
X176875000Y-69305000D01*
X143695000Y-110895000D02*
X140565000Y-109975000D01*
X144835000Y-54085000D02*
X148365000Y-53765000D01*
X145935000Y-110485000D02*
X142795000Y-109845000D01*
X156555000Y-116785000D02*
X153015000Y-117365000D01*
X128565000Y-108295000D02*
X126095000Y-105805000D01*
X147125000Y-53425000D02*
X150695000Y-53375000D01*
X128705000Y-111035000D02*
X125965000Y-108575000D01*
X177395000Y-78145000D02*
X177985000Y-81435000D01*
X181575000Y-78525000D02*
X182075000Y-82095000D01*
X118925000Y-96045000D02*
X117885000Y-92575000D01*
X158995000Y-115315000D02*
X155535000Y-116175000D01*
X146925000Y-118645000D02*
X143215000Y-118145000D01*
X175325000Y-102905000D02*
X173135000Y-105695000D01*
X165825000Y-61755000D02*
X168435000Y-63845000D01*
X164635000Y-59545000D02*
X167485000Y-61495000D01*
X165145000Y-62745000D02*
X167695000Y-64795000D01*
X126325000Y-103595000D02*
X124345000Y-100805000D01*
X128375000Y-62465000D02*
X131045000Y-60235000D01*
X122625000Y-83835000D02*
X122955000Y-80615000D01*
X170265000Y-64495000D02*
X172515000Y-67075000D01*
X161535000Y-109145000D02*
X158515000Y-110415000D01*
X131315000Y-54765000D02*
X134655000Y-52995000D01*
X145555000Y-112455000D02*
X142275000Y-111775000D01*
X178565000Y-86195000D02*
X178215000Y-89585000D01*
X144335000Y-115905000D02*
X140875000Y-115125000D01*
X181735000Y-97705000D02*
X180175000Y-101095000D01*
X138375000Y-51105000D02*
X142065000Y-50115000D01*
X126255000Y-112115000D02*
X123525000Y-109505000D01*
X179715000Y-103515000D02*
X177555000Y-106625000D01*
X152905000Y-49915000D02*
X156625000Y-50485000D01*
X170905000Y-62315000D02*
X173285000Y-64845000D01*
X174555000Y-92865000D02*
X173385000Y-95875000D01*
X180595000Y-84315000D02*
X180455000Y-87825000D01*
X132505000Y-113195000D02*
X129525000Y-111165000D01*
X127685000Y-98605000D02*
X126155000Y-95765000D01*
X178695000Y-96695000D02*
X177185000Y-99895000D01*
X130025000Y-107975000D02*
X127495000Y-105555000D01*
X132495000Y-103715000D02*
X130275000Y-101425000D01*
X119365000Y-93485000D02*
X118605000Y-90065000D01*
X117865000Y-100685000D02*
X116385000Y-97245000D01*
X133995000Y-58295000D02*
X137095000Y-56725000D01*
X117775000Y-74875000D02*
X119085000Y-71445000D01*
X123395000Y-84775000D02*
X123625000Y-81545000D01*
X132785000Y-64965000D02*
X135385000Y-63065000D01*
X167845000Y-64395000D02*
X170175000Y-66745000D01*
X121255000Y-104835000D02*
X119285000Y-101675000D01*
X163855000Y-114685000D02*
X160485000Y-116085000D01*
X182225000Y-74635000D02*
X183145000Y-78225000D01*
X120505000Y-96815000D02*
X119365000Y-93485000D01*
X142995000Y-60175000D02*
X146095000Y-59565000D01*
X182455000Y-92815000D02*
X181395000Y-96355000D01*
X163755000Y-52795000D02*
X167105000Y-54505000D01*
X175705000Y-103755000D02*
X173435000Y-106555000D01*
X124005000Y-93605000D02*
X123145000Y-90425000D01*
X143775000Y-59155000D02*
X147045000Y-58655000D01*
X142485000Y-118815000D02*
X138895000Y-117865000D01*
X153665000Y-112845000D02*
X150335000Y-113135000D01*
X121075000Y-106615000D02*
X118955000Y-103495000D01*
X175755000Y-61585000D02*
X178095000Y-64525000D01*
X146175000Y-112135000D02*
X142895000Y-111525000D01*
X182535000Y-90415000D02*
X181725000Y-94015000D01*
X143685000Y-56725000D02*
X147075000Y-56245000D01*
X176435000Y-94775000D02*
X175085000Y-97885000D01*
X147525000Y-59015000D02*
X150735000Y-58975000D01*
X155595000Y-53135000D02*
X159075000Y-54015000D01*
X169945000Y-62515000D02*
X172355000Y-64985000D01*
X127425000Y-106645000D02*
X125105000Y-103985000D01*
X122985000Y-97485000D02*
X121725000Y-94355000D01*
X136435000Y-112585000D02*
X133375000Y-110915000D01*
X174925000Y-82985000D02*
X174965000Y-86175000D01*
X120965000Y-74225000D02*
X122375000Y-71055000D01*
X181055000Y-74895000D02*
X181955000Y-78405000D01*
X162385000Y-57885000D02*
X165405000Y-59555000D01*
X162315000Y-114075000D02*
X158995000Y-115315000D01*
X173105000Y-70015000D02*
X174725000Y-72965000D01*
X179955000Y-99755000D02*
X178165000Y-102975000D01*
X115085000Y-87525000D02*
X115015000Y-83835000D01*
X134995000Y-105705000D02*
X132495000Y-103715000D01*
X147125000Y-119055000D02*
X143455000Y-118595000D01*
X125075000Y-99705000D02*
X123505000Y-96705000D01*
X140405000Y-52995000D02*
X143985000Y-52195000D01*
X157805000Y-54065000D02*
X161195000Y-55185000D01*
X126795000Y-96135000D02*
X125585000Y-93215000D01*
X162975000Y-59985000D02*
X165825000Y-61755000D01*
X160645000Y-112605000D02*
X157365000Y-113705000D01*
X128365000Y-98885000D02*
X126795000Y-96135000D01*
X128685000Y-58515000D02*
X131675000Y-56415000D01*
X181395000Y-96355000D02*
X179955000Y-99755000D01*
X151065000Y-52185000D02*
X154655000Y-52565000D01*
X180495000Y-79305000D02*
X180925000Y-82765000D01*
X128975000Y-103015000D02*
X126975000Y-100445000D01*
X170625000Y-68555000D02*
X172465000Y-71265000D01*
X131355000Y-63035000D02*
X134075000Y-61055000D01*
X177185000Y-99895000D02*
X175325000Y-102905000D01*
X170085000Y-69165000D02*
X171875000Y-71845000D01*
X182075000Y-82095000D02*
X182185000Y-85695000D01*
X164405000Y-107505000D02*
X161535000Y-109145000D01*
X170675000Y-56385000D02*
X173555000Y-58775000D01*
X131475000Y-62425000D02*
X134275000Y-60455000D01*
X122845000Y-65715000D02*
X125085000Y-62955000D01*
X140655000Y-60045000D02*
X143775000Y-59155000D01*
X171155000Y-59845000D02*
X173755000Y-62355000D01*
X182185000Y-85695000D02*
X181895000Y-89315000D01*
X156325000Y-113145000D02*
X152965000Y-113745000D01*
X149295000Y-59345000D02*
X152495000Y-59535000D01*
X125085000Y-62955000D02*
X127695000Y-60375000D01*
X139105000Y-116245000D02*
X135725000Y-114905000D01*
X116945000Y-89795000D02*
X116615000Y-86115000D01*
X168225000Y-61565000D02*
X170795000Y-63885000D01*
X173455000Y-109975000D02*
X170625000Y-112395000D01*
X168435000Y-63845000D02*
X170805000Y-66255000D01*
X169805000Y-104005000D02*
X167345000Y-106315000D01*
X120455000Y-97725000D02*
X119215000Y-94395000D01*
X160355000Y-58295000D02*
X163415000Y-59765000D01*
X152195000Y-112615000D02*
X148865000Y-112735000D01*
X121295000Y-66565000D02*
X123435000Y-63655000D01*
X183055000Y-74595000D02*
X183955000Y-78205000D01*
X127955000Y-71795000D02*
X129785000Y-69175000D01*
X153945000Y-113205000D02*
X150585000Y-113525000D01*
X162195000Y-109255000D02*
X159225000Y-110585000D01*
X118475000Y-68165000D02*
X120415000Y-64995000D01*
X183395000Y-85555000D02*
X183115000Y-89225000D01*
X140715000Y-115905000D02*
X137305000Y-114725000D01*
X161565000Y-57945000D02*
X164635000Y-59545000D01*
X139895000Y-61645000D02*
X142875000Y-60625000D01*
X165715000Y-115995000D02*
X162315000Y-117535000D01*
X153555000Y-119315000D02*
X149805000Y-119545000D01*
X177585000Y-81435000D02*
X177795000Y-84745000D01*
X154315000Y-54535000D02*
X157705000Y-55275000D01*
X134345000Y-64805000D02*
X137045000Y-63025000D01*
X168985000Y-68435000D02*
X170885000Y-70995000D01*
X176055000Y-94655000D02*
X174705000Y-97735000D01*
X139445000Y-119285000D02*
X135895000Y-118035000D01*
X117135000Y-92865000D02*
X116475000Y-89325000D01*
X124015000Y-103875000D02*
X122065000Y-100905000D01*
X156215000Y-109455000D02*
X153115000Y-110095000D01*
X182585000Y-85615000D02*
X182315000Y-89255000D01*
X124595000Y-80625000D02*
X125355000Y-77535000D01*
X123295000Y-67165000D02*
X125475000Y-64325000D01*
X146095000Y-59565000D02*
X149295000Y-59345000D01*
X158785000Y-57285000D02*
X161965000Y-58575000D01*
X141825000Y-52215000D02*
X145415000Y-51585000D01*
X125475000Y-64325000D02*
X127905000Y-61805000D01*
X176225000Y-78425000D02*
X176815000Y-81765000D01*
X157455000Y-113265000D02*
X154085000Y-113995000D01*
X158435000Y-61445000D02*
X161265000Y-62725000D01*
X121795000Y-89725000D02*
X121425000Y-86355000D01*
X166425000Y-113775000D02*
X163195000Y-115435000D01*
X128655000Y-106175000D02*
X126325000Y-103595000D01*
X161605000Y-106855000D02*
X158755000Y-108205000D01*
X140345000Y-113285000D02*
X137125000Y-112025000D01*
X159245000Y-108425000D02*
X156215000Y-109455000D01*
X165035000Y-113185000D02*
X161815000Y-114725000D01*
X180605000Y-72455000D02*
X181775000Y-75915000D01*
X140185000Y-54305000D02*
X143685000Y-53465000D01*
X183625000Y-93075000D02*
X182565000Y-96645000D01*
X131335000Y-105405000D02*
X128975000Y-103015000D01*
X132875000Y-111075000D02*
X130015000Y-109005000D01*
X176095000Y-65175000D02*
X178095000Y-68215000D01*
X174775000Y-90505000D02*
X173885000Y-93595000D01*
X158445000Y-52995000D02*
X161875000Y-54165000D01*
X115265000Y-93645000D02*
X114545000Y-89995000D01*
X140445000Y-55485000D02*
X143795000Y-54665000D01*
X140435000Y-57585000D02*
X143685000Y-56725000D01*
X176165000Y-83675000D02*
X176115000Y-86955000D01*
X126295000Y-106615000D02*
X124015000Y-103875000D01*
X116085000Y-91835000D02*
X115545000Y-88205000D01*
X124345000Y-100805000D02*
X122685000Y-97795000D01*
X175905000Y-78795000D02*
X176445000Y-82045000D01*
X132395000Y-104735000D02*
X130115000Y-102495000D01*
X174965000Y-86175000D02*
X174605000Y-89335000D01*
X173965000Y-108905000D02*
X171235000Y-111405000D01*
X134655000Y-52995000D02*
X138065000Y-51635000D01*
X176445000Y-70175000D02*
X177945000Y-73345000D01*
X178005000Y-88215000D02*
X177405000Y-91565000D01*
X172905000Y-63205000D02*
X175175000Y-65945000D01*
X156045000Y-111565000D02*
X152775000Y-112155000D01*
X145305000Y-118075000D02*
X141735000Y-117415000D01*
X179125000Y-99625000D02*
X177325000Y-102795000D01*
X164275000Y-58415000D02*
X167175000Y-60265000D01*
X150725000Y-52975000D02*
X154295000Y-53315000D01*
X115555000Y-91215000D02*
X115085000Y-87525000D01*
X181775000Y-75915000D02*
X182555000Y-79485000D01*
X173865000Y-72145000D02*
X175255000Y-75255000D01*
X154400000Y-109450000D02*
X152820000Y-109640000D01*
X133935000Y-107455000D02*
X131335000Y-105405000D01*
X178855000Y-67935000D02*
X180525000Y-71225000D01*
X157255000Y-118675000D02*
X153555000Y-119315000D01*
X148215000Y-55375000D02*
X151655000Y-55425000D01*
X130565000Y-57625000D02*
X133705000Y-55705000D01*
X125285000Y-97625000D02*
X123935000Y-94595000D01*
X172355000Y-64985000D02*
X174485000Y-67745000D01*
X115655000Y-80795000D02*
X116305000Y-77175000D01*
X131795000Y-59205000D02*
X134765000Y-57405000D01*
X171685000Y-106665000D02*
X169145000Y-108975000D01*
X165595000Y-64585000D02*
X167975000Y-66725000D01*
X114545000Y-89995000D02*
X114215000Y-86245000D01*
X117435000Y-83465000D02*
X117805000Y-79905000D01*
X158515000Y-110415000D02*
X155355000Y-111315000D01*
X124805000Y-69995000D02*
X126745000Y-67195000D01*
X164955000Y-60215000D02*
X167705000Y-62175000D01*
X181415000Y-79935000D02*
X181765000Y-83465000D01*
X148125000Y-50965000D02*
X151815000Y-51025000D01*
X181955000Y-78405000D02*
X182465000Y-81975000D01*
X134875000Y-62925000D02*
X137655000Y-61315000D01*
X122305000Y-93555000D02*
X121485000Y-90275000D01*
X122025000Y-105215000D02*
X120005000Y-102135000D01*
X180175000Y-101095000D02*
X178255000Y-104295000D01*
X134275000Y-60455000D02*
X137225000Y-58855000D01*
X118865000Y-80895000D02*
X119545000Y-77395000D01*
X126615000Y-103315000D02*
X124645000Y-100535000D01*
X183515000Y-89255000D02*
X182845000Y-92895000D01*
X120605000Y-94795000D02*
X119675000Y-91415000D01*
X150685000Y-114325000D02*
X147255000Y-114255000D01*
X178985000Y-85385000D02*
X178735000Y-88815000D01*
X180455000Y-87825000D02*
X179925000Y-91305000D01*
X140125000Y-58115000D02*
X143385000Y-57195000D01*
X182735000Y-78235000D02*
X183265000Y-81915000D01*
X117175000Y-100175000D02*
X115755000Y-96675000D01*
X176415000Y-106135000D02*
X173965000Y-108905000D01*
X117695000Y-78295000D02*
X118645000Y-74785000D01*
X127125000Y-69365000D02*
X129155000Y-66805000D01*
X166985000Y-105575000D02*
X164405000Y-107505000D01*
X147045000Y-58655000D02*
X150225000Y-58555000D01*
X169485000Y-111755000D02*
X166425000Y-113775000D01*
X115545000Y-88205000D02*
X115395000Y-84485000D01*
X174545000Y-86315000D02*
X174165000Y-89435000D01*
X134105000Y-110425000D02*
X131245000Y-108455000D01*
X176335000Y-92495000D02*
X175225000Y-95665000D01*
X132475000Y-116405000D02*
X129235000Y-114415000D01*
X179495000Y-80625000D02*
X179785000Y-84075000D01*
X137755000Y-108335000D02*
X134985000Y-106715000D01*
X172075000Y-100575000D02*
X170015000Y-103175000D01*
X119525000Y-75995000D02*
X120725000Y-72685000D01*
X140995000Y-58245000D02*
X144275000Y-57425000D01*
X170325000Y-60715000D02*
X172905000Y-63205000D01*
X131515000Y-64475000D02*
X134145000Y-62445000D01*
X160075000Y-61225000D02*
X162935000Y-62725000D01*
X117805000Y-79905000D02*
X118565000Y-76425000D01*
X143805000Y-113775000D02*
X140565000Y-112935000D01*
X124975000Y-68255000D02*
X127085000Y-65525000D01*
X120275000Y-100125000D02*
X118785000Y-96815000D01*
X179665000Y-90555000D02*
X178835000Y-93925000D01*
X178995000Y-94725000D02*
X177695000Y-97995000D01*
X119255000Y-72045000D02*
X120875000Y-68785000D01*
X121425000Y-86355000D02*
X121465000Y-83025000D01*
X132665000Y-64035000D02*
X135335000Y-62155000D01*
X115615000Y-75095000D02*
X116865000Y-71545000D01*
X126175000Y-59055000D02*
X129055000Y-56735000D01*
X135795000Y-111825000D02*
X132795000Y-110065000D01*
X178995000Y-100755000D02*
X177065000Y-103905000D01*
X129855000Y-102805000D02*
X127815000Y-100255000D01*
X167985000Y-57905000D02*
X170835000Y-60095000D01*
X158175000Y-53335000D02*
X161595000Y-54485000D01*
X177695000Y-97995000D02*
X176025000Y-101105000D01*
X125125000Y-71835000D02*
X126885000Y-69015000D01*
%TD*%
%TA.AperFunction,Conductor*%
%TO.N,GND*%
G36*
X152194686Y-60574911D02*
G01*
X152209072Y-60576578D01*
X155207231Y-61100529D01*
X155223129Y-61104386D01*
X158201795Y-62035826D01*
X158216086Y-62041270D01*
X160913286Y-63261206D01*
X160959258Y-63281999D01*
X160973585Y-63289626D01*
X161884786Y-63852914D01*
X163640182Y-64938068D01*
X163653413Y-64947477D01*
X166039758Y-66887594D01*
X166050952Y-66897877D01*
X168174538Y-69099037D01*
X168185177Y-69111616D01*
X170026245Y-71601901D01*
X170035089Y-71615647D01*
X171063921Y-73468864D01*
X171537635Y-74322158D01*
X171549265Y-74343106D01*
X171555722Y-74356556D01*
X172490315Y-76641118D01*
X172690246Y-77129837D01*
X172695379Y-77145104D01*
X173480338Y-80091122D01*
X173483481Y-80106910D01*
X173890709Y-83161127D01*
X173891812Y-83176990D01*
X173911208Y-86270501D01*
X173910286Y-86286525D01*
X173541801Y-89311987D01*
X173538986Y-89327218D01*
X172802137Y-92284303D01*
X172797213Y-92299752D01*
X171662317Y-95200040D01*
X171655701Y-95214266D01*
X170704432Y-96965610D01*
X170654342Y-97015923D01*
X170585001Y-97031169D01*
X170518426Y-97006505D01*
X170500075Y-96989780D01*
X170411255Y-96891135D01*
X170256752Y-96778882D01*
X170082288Y-96701206D01*
X169895487Y-96661500D01*
X169704513Y-96661500D01*
X169517711Y-96701206D01*
X169343247Y-96778882D01*
X169188744Y-96891135D01*
X169060965Y-97033048D01*
X169060961Y-97033054D01*
X169060960Y-97033056D01*
X169045021Y-97060663D01*
X169034685Y-97078566D01*
X168983302Y-97127559D01*
X168913588Y-97140994D01*
X168847677Y-97114607D01*
X168824174Y-97087483D01*
X168822919Y-97088396D01*
X168819034Y-97083048D01*
X168691255Y-96941135D01*
X168536752Y-96828882D01*
X168362288Y-96751206D01*
X168175487Y-96711500D01*
X167984513Y-96711500D01*
X167797711Y-96751206D01*
X167623247Y-96828882D01*
X167468744Y-96941135D01*
X167340965Y-97083048D01*
X167340958Y-97083058D01*
X167245476Y-97248438D01*
X167245473Y-97248445D01*
X167186457Y-97430072D01*
X167166496Y-97620000D01*
X167186457Y-97809927D01*
X167197366Y-97843500D01*
X167245473Y-97991556D01*
X167245476Y-97991561D01*
X167340958Y-98156941D01*
X167340965Y-98156951D01*
X167468744Y-98298864D01*
X167468747Y-98298866D01*
X167623248Y-98411118D01*
X167797712Y-98488794D01*
X167984513Y-98528500D01*
X168175482Y-98528500D01*
X168175487Y-98528500D01*
X168199694Y-98523354D01*
X168270479Y-98528754D01*
X168327113Y-98571568D01*
X168345722Y-98607663D01*
X168346458Y-98609928D01*
X168405473Y-98791556D01*
X168405476Y-98791561D01*
X168500958Y-98956941D01*
X168500965Y-98956951D01*
X168628744Y-99098864D01*
X168628747Y-99098866D01*
X168783248Y-99211118D01*
X168957712Y-99288794D01*
X168974705Y-99292406D01*
X169037179Y-99326134D01*
X169071501Y-99388284D01*
X169066773Y-99459123D01*
X169050613Y-99489482D01*
X168362250Y-100441473D01*
X168351182Y-100454756D01*
X167065089Y-101798781D01*
X167003541Y-101834170D01*
X166932631Y-101830666D01*
X166874872Y-101789381D01*
X166854220Y-101750606D01*
X166814527Y-101628444D01*
X166719040Y-101463056D01*
X166719038Y-101463054D01*
X166719034Y-101463048D01*
X166591255Y-101321135D01*
X166436752Y-101208882D01*
X166262288Y-101131206D01*
X166075487Y-101091500D01*
X165884513Y-101091500D01*
X165697711Y-101131206D01*
X165523247Y-101208882D01*
X165368744Y-101321135D01*
X165240965Y-101463048D01*
X165240958Y-101463058D01*
X165145476Y-101628438D01*
X165145473Y-101628445D01*
X165086457Y-101810072D01*
X165066496Y-102000000D01*
X165086457Y-102189927D01*
X165115170Y-102278294D01*
X165145473Y-102371556D01*
X165145476Y-102371561D01*
X165240958Y-102536941D01*
X165240965Y-102536951D01*
X165368744Y-102678864D01*
X165368747Y-102678866D01*
X165523248Y-102791118D01*
X165577441Y-102815246D01*
X165697716Y-102868796D01*
X165703992Y-102870835D01*
X165703373Y-102872739D01*
X165757471Y-102901945D01*
X165791792Y-102964094D01*
X165787065Y-103034933D01*
X165750464Y-103087418D01*
X163905985Y-104657185D01*
X163891425Y-104667876D01*
X161306002Y-106294661D01*
X161292838Y-106301887D01*
X158529364Y-107610900D01*
X158513841Y-107617030D01*
X156066692Y-108400442D01*
X156057534Y-108402997D01*
X154295299Y-108823692D01*
X154281084Y-108826235D01*
X152762765Y-109008817D01*
X152756646Y-109009402D01*
X151835895Y-109074781D01*
X151766529Y-109059654D01*
X151716353Y-109009426D01*
X151707138Y-108988033D01*
X151684529Y-108918448D01*
X151684526Y-108918442D01*
X151589041Y-108753058D01*
X151589034Y-108753048D01*
X151461255Y-108611135D01*
X151306752Y-108498882D01*
X151132288Y-108421206D01*
X150945487Y-108381500D01*
X150754513Y-108381500D01*
X150567711Y-108421206D01*
X150393247Y-108498882D01*
X150238744Y-108611135D01*
X150110965Y-108753048D01*
X150110958Y-108753058D01*
X150015476Y-108918438D01*
X150015473Y-108918445D01*
X149956457Y-109100072D01*
X149936496Y-109290000D01*
X149956457Y-109479928D01*
X149977101Y-109543462D01*
X149979129Y-109614429D01*
X149942466Y-109675227D01*
X149878754Y-109706553D01*
X149850542Y-109708218D01*
X146793661Y-109544800D01*
X146778884Y-109543132D01*
X143811866Y-109029236D01*
X143795939Y-109025396D01*
X140741013Y-108074975D01*
X140725539Y-108069018D01*
X138001684Y-106808873D01*
X137988596Y-106801854D01*
X135366006Y-105189446D01*
X135353527Y-105180692D01*
X133995875Y-104100000D01*
X138416496Y-104100000D01*
X138436457Y-104289927D01*
X138454983Y-104346941D01*
X138495473Y-104471556D01*
X138495476Y-104471561D01*
X138590958Y-104636941D01*
X138590965Y-104636951D01*
X138718744Y-104778864D01*
X138718747Y-104778866D01*
X138873248Y-104891118D01*
X139047712Y-104968794D01*
X139234513Y-105008500D01*
X139425487Y-105008500D01*
X139612288Y-104968794D01*
X139786752Y-104891118D01*
X139941253Y-104778866D01*
X140041189Y-104667876D01*
X140069034Y-104636951D01*
X140069035Y-104636949D01*
X140069040Y-104636944D01*
X140164527Y-104471556D01*
X140223542Y-104289928D01*
X140243504Y-104100000D01*
X140223542Y-103910072D01*
X140164527Y-103728444D01*
X140069040Y-103563056D01*
X140069038Y-103563054D01*
X140069034Y-103563048D01*
X139941255Y-103421135D01*
X139786752Y-103308882D01*
X139612288Y-103231206D01*
X139425487Y-103191500D01*
X139234513Y-103191500D01*
X139047711Y-103231206D01*
X138873247Y-103308882D01*
X138718744Y-103421135D01*
X138590965Y-103563048D01*
X138590958Y-103563058D01*
X138495476Y-103728438D01*
X138495473Y-103728444D01*
X138480999Y-103772986D01*
X138436457Y-103910072D01*
X138416496Y-104100000D01*
X133995875Y-104100000D01*
X132927796Y-103249809D01*
X132915800Y-103238929D01*
X131666271Y-101950000D01*
X143936496Y-101950000D01*
X143956457Y-102139927D01*
X143972704Y-102189928D01*
X144015473Y-102321556D01*
X144015476Y-102321561D01*
X144110958Y-102486941D01*
X144110965Y-102486951D01*
X144238744Y-102628864D01*
X144238743Y-102628864D01*
X144393245Y-102741116D01*
X144398962Y-102744417D01*
X144397500Y-102746947D01*
X144441873Y-102784649D01*
X144461850Y-102840624D01*
X144479144Y-103005173D01*
X144488814Y-103034933D01*
X144538160Y-103186802D01*
X144538163Y-103186807D01*
X144624698Y-103336691D01*
X144641436Y-103405687D01*
X144635412Y-103438627D01*
X144576457Y-103620070D01*
X144556496Y-103810000D01*
X144576457Y-103999927D01*
X144606526Y-104092470D01*
X144635473Y-104181556D01*
X144635476Y-104181561D01*
X144730958Y-104346941D01*
X144730965Y-104346951D01*
X144858744Y-104488864D01*
X144858747Y-104488866D01*
X145013248Y-104601118D01*
X145187712Y-104678794D01*
X145374513Y-104718500D01*
X145565487Y-104718500D01*
X145752288Y-104678794D01*
X145926752Y-104601118D01*
X146081253Y-104488866D01*
X146081255Y-104488864D01*
X146209034Y-104346951D01*
X146209035Y-104346949D01*
X146209040Y-104346944D01*
X146304527Y-104181556D01*
X146363542Y-103999928D01*
X146383504Y-103810000D01*
X146363542Y-103620072D01*
X146304527Y-103438444D01*
X146217986Y-103288552D01*
X146201249Y-103219558D01*
X146207271Y-103186626D01*
X146266229Y-103005174D01*
X146286191Y-102815246D01*
X146266229Y-102625318D01*
X146207214Y-102443690D01*
X146111727Y-102278302D01*
X146111725Y-102278300D01*
X146111721Y-102278294D01*
X145983942Y-102136381D01*
X145924597Y-102093265D01*
X145829439Y-102024128D01*
X145829434Y-102024126D01*
X145823718Y-102020825D01*
X145825170Y-102018309D01*
X145780757Y-101980511D01*
X145760836Y-101924623D01*
X145743542Y-101760072D01*
X145684527Y-101578444D01*
X145589040Y-101413056D01*
X145589038Y-101413054D01*
X145589034Y-101413048D01*
X145461255Y-101271135D01*
X145306752Y-101158882D01*
X145132288Y-101081206D01*
X144945487Y-101041500D01*
X144754513Y-101041500D01*
X144567711Y-101081206D01*
X144393247Y-101158882D01*
X144238744Y-101271135D01*
X144110965Y-101413048D01*
X144110958Y-101413058D01*
X144015476Y-101578438D01*
X144015473Y-101578445D01*
X143956457Y-101760072D01*
X143936496Y-101950000D01*
X131666271Y-101950000D01*
X130762968Y-101018215D01*
X130752730Y-101006240D01*
X128900115Y-98542552D01*
X128891397Y-98529296D01*
X127981198Y-96935000D01*
X131401496Y-96935000D01*
X131421457Y-97124927D01*
X131445345Y-97198444D01*
X131480473Y-97306556D01*
X131480476Y-97306561D01*
X131575958Y-97471941D01*
X131575965Y-97471951D01*
X131703744Y-97613864D01*
X131764999Y-97658368D01*
X131858248Y-97726118D01*
X132032712Y-97803794D01*
X132219513Y-97843500D01*
X132410487Y-97843500D01*
X132597288Y-97803794D01*
X132771752Y-97726118D01*
X132926253Y-97613866D01*
X133054040Y-97471944D01*
X133149527Y-97306556D01*
X133208542Y-97124928D01*
X133228504Y-96935000D01*
X133208542Y-96745072D01*
X133149527Y-96563444D01*
X133054040Y-96398056D01*
X133054038Y-96398054D01*
X133054034Y-96398048D01*
X132926255Y-96256135D01*
X132771752Y-96143882D01*
X132597288Y-96066206D01*
X132410487Y-96026500D01*
X132219513Y-96026500D01*
X132032711Y-96066206D01*
X131858247Y-96143882D01*
X131703744Y-96256135D01*
X131575965Y-96398048D01*
X131575958Y-96398058D01*
X131480476Y-96563438D01*
X131480473Y-96563445D01*
X131421457Y-96745072D01*
X131401496Y-96935000D01*
X127981198Y-96935000D01*
X127593628Y-96256135D01*
X127373180Y-95870000D01*
X139546496Y-95870000D01*
X139566457Y-96059927D01*
X139596526Y-96152470D01*
X139625473Y-96241556D01*
X139625476Y-96241561D01*
X139720958Y-96406941D01*
X139720965Y-96406951D01*
X139848744Y-96548864D01*
X139868812Y-96563444D01*
X140003248Y-96661118D01*
X140177712Y-96738794D01*
X140364513Y-96778500D01*
X140555487Y-96778500D01*
X140742288Y-96738794D01*
X140916752Y-96661118D01*
X141071253Y-96548866D01*
X141199040Y-96406944D01*
X141294527Y-96241556D01*
X141353542Y-96059928D01*
X141373504Y-95870000D01*
X141354262Y-95686922D01*
X141367034Y-95617085D01*
X141415536Y-95565238D01*
X141484369Y-95547844D01*
X141505769Y-95550507D01*
X141684508Y-95588500D01*
X141684513Y-95588500D01*
X141875487Y-95588500D01*
X142062288Y-95548794D01*
X142236752Y-95471118D01*
X142391253Y-95358866D01*
X142414491Y-95333058D01*
X142519034Y-95216951D01*
X142519035Y-95216949D01*
X142519040Y-95216944D01*
X142614527Y-95051556D01*
X142673542Y-94869928D01*
X142693504Y-94680000D01*
X142673542Y-94490072D01*
X142614527Y-94308444D01*
X142519040Y-94143056D01*
X142519038Y-94143054D01*
X142519034Y-94143048D01*
X142391255Y-94001135D01*
X142236752Y-93888882D01*
X142062288Y-93811206D01*
X141875487Y-93771500D01*
X141684513Y-93771500D01*
X141497711Y-93811206D01*
X141323247Y-93888882D01*
X141168744Y-94001135D01*
X141040965Y-94143048D01*
X141040958Y-94143058D01*
X140945476Y-94308438D01*
X140945473Y-94308444D01*
X140930999Y-94352986D01*
X140886457Y-94490072D01*
X140866496Y-94680000D01*
X140885737Y-94863076D01*
X140872964Y-94932915D01*
X140824462Y-94984761D01*
X140755629Y-95002155D01*
X140734230Y-94999493D01*
X140555487Y-94961500D01*
X140364513Y-94961500D01*
X140177711Y-95001206D01*
X140003247Y-95078882D01*
X139848744Y-95191135D01*
X139720965Y-95333048D01*
X139720958Y-95333058D01*
X139625476Y-95498438D01*
X139625473Y-95498445D01*
X139566457Y-95680072D01*
X139546496Y-95870000D01*
X127373180Y-95870000D01*
X127368892Y-95862489D01*
X127361914Y-95848255D01*
X127254276Y-95588500D01*
X126188585Y-93016750D01*
X126183453Y-93001758D01*
X126084962Y-92641396D01*
X142597892Y-92641396D01*
X142617853Y-92831323D01*
X142621144Y-92841450D01*
X142676869Y-93012952D01*
X142676872Y-93012957D01*
X142772354Y-93178337D01*
X142772361Y-93178347D01*
X142900140Y-93320260D01*
X142907352Y-93325500D01*
X143054644Y-93432514D01*
X143229108Y-93510190D01*
X143284139Y-93521887D01*
X143346613Y-93555615D01*
X143380934Y-93617764D01*
X143377776Y-93684069D01*
X143351457Y-93765069D01*
X143331496Y-93955000D01*
X143351457Y-94144927D01*
X143381526Y-94237470D01*
X143410473Y-94326556D01*
X143410476Y-94326561D01*
X143505958Y-94491941D01*
X143505965Y-94491951D01*
X143633744Y-94633864D01*
X143633747Y-94633866D01*
X143788248Y-94746118D01*
X143962712Y-94823794D01*
X144149513Y-94863500D01*
X144340487Y-94863500D01*
X144527288Y-94823794D01*
X144701752Y-94746118D01*
X144856253Y-94633866D01*
X144984040Y-94491944D01*
X145079527Y-94326556D01*
X145138542Y-94144928D01*
X145158504Y-93955000D01*
X145138542Y-93765072D01*
X145079527Y-93583444D01*
X144984040Y-93418056D01*
X144984038Y-93418054D01*
X144984034Y-93418048D01*
X144856255Y-93276135D01*
X144701752Y-93163882D01*
X144527284Y-93086204D01*
X144472254Y-93074507D01*
X144409781Y-93040779D01*
X144375460Y-92978629D01*
X144378619Y-92912324D01*
X144404938Y-92831323D01*
X144424900Y-92641396D01*
X144404938Y-92451468D01*
X144380119Y-92375084D01*
X146504467Y-92375084D01*
X146504467Y-92454849D01*
X146534990Y-92528540D01*
X146534991Y-92528541D01*
X147245024Y-93238574D01*
X147301426Y-93294976D01*
X147375118Y-93325500D01*
X147454882Y-93325500D01*
X147528574Y-93294976D01*
X157834976Y-82988574D01*
X157865500Y-82914882D01*
X157865500Y-82835118D01*
X157834976Y-82761426D01*
X157778574Y-82705024D01*
X157068574Y-81995024D01*
X157068573Y-81995023D01*
X156994882Y-81964500D01*
X156915118Y-81964500D01*
X156841426Y-81995023D01*
X156841425Y-81995024D01*
X156813225Y-82023225D01*
X156785024Y-82051426D01*
X156785023Y-82051427D01*
X146600264Y-92236184D01*
X146599893Y-92236489D01*
X146534993Y-92301389D01*
X146534990Y-92301393D01*
X146504467Y-92375084D01*
X144380119Y-92375084D01*
X144345923Y-92269840D01*
X144250436Y-92104452D01*
X144250434Y-92104450D01*
X144250430Y-92104444D01*
X144122651Y-91962531D01*
X143968148Y-91850278D01*
X143793684Y-91772602D01*
X143606883Y-91732896D01*
X143415909Y-91732896D01*
X143229107Y-91772602D01*
X143054643Y-91850278D01*
X142900140Y-91962531D01*
X142772361Y-92104444D01*
X142772354Y-92104454D01*
X142676872Y-92269834D01*
X142676869Y-92269841D01*
X142617853Y-92451468D01*
X142597892Y-92641396D01*
X126084962Y-92641396D01*
X125532490Y-90620000D01*
X143356496Y-90620000D01*
X143376457Y-90809927D01*
X143406526Y-90902470D01*
X143435473Y-90991556D01*
X143435476Y-90991561D01*
X143530958Y-91156941D01*
X143530965Y-91156951D01*
X143658744Y-91298864D01*
X143658747Y-91298866D01*
X143813248Y-91411118D01*
X143987712Y-91488794D01*
X144174513Y-91528500D01*
X144365487Y-91528500D01*
X144552288Y-91488794D01*
X144726752Y-91411118D01*
X144881253Y-91298866D01*
X145009040Y-91156944D01*
X145104527Y-90991556D01*
X145163542Y-90809928D01*
X145183504Y-90620000D01*
X145163542Y-90430072D01*
X145104527Y-90248444D01*
X145009040Y-90083056D01*
X145009038Y-90083054D01*
X145009034Y-90083048D01*
X144881255Y-89941135D01*
X144726752Y-89828882D01*
X144552288Y-89751206D01*
X144365487Y-89711500D01*
X144174513Y-89711500D01*
X143987711Y-89751206D01*
X143813247Y-89828882D01*
X143658744Y-89941135D01*
X143530965Y-90083048D01*
X143530958Y-90083058D01*
X143435476Y-90248438D01*
X143435473Y-90248445D01*
X143376457Y-90430072D01*
X143356496Y-90620000D01*
X125532490Y-90620000D01*
X125358786Y-89984449D01*
X125355565Y-89968832D01*
X124928889Y-86943315D01*
X124927673Y-86927743D01*
X124879171Y-83862403D01*
X124879901Y-83846728D01*
X125219276Y-80743858D01*
X125222172Y-80727484D01*
X125305178Y-80390000D01*
X146246496Y-80390000D01*
X146266457Y-80579927D01*
X146296526Y-80672470D01*
X146325473Y-80761556D01*
X146325476Y-80761561D01*
X146420958Y-80926941D01*
X146420965Y-80926951D01*
X146548744Y-81068864D01*
X146548747Y-81068866D01*
X146703248Y-81181118D01*
X146877712Y-81258794D01*
X147064513Y-81298500D01*
X147255487Y-81298500D01*
X147442288Y-81258794D01*
X147616752Y-81181118D01*
X147771253Y-81068866D01*
X147771255Y-81068864D01*
X147899034Y-80926951D01*
X147899035Y-80926949D01*
X147899040Y-80926944D01*
X147994527Y-80761556D01*
X148053542Y-80579928D01*
X148063684Y-80483426D01*
X148090697Y-80417770D01*
X148137743Y-80381490D01*
X148263235Y-80325618D01*
X148417736Y-80213366D01*
X148481042Y-80143058D01*
X148545517Y-80071451D01*
X148545518Y-80071449D01*
X148545523Y-80071444D01*
X148641010Y-79906056D01*
X148700025Y-79724428D01*
X148711810Y-79612299D01*
X150344197Y-79612299D01*
X150364158Y-79802226D01*
X150380672Y-79853048D01*
X150423174Y-79983855D01*
X150423177Y-79983860D01*
X150518659Y-80149240D01*
X150518666Y-80149250D01*
X150646443Y-80291161D01*
X150646447Y-80291163D01*
X150646448Y-80291165D01*
X150671864Y-80309630D01*
X150715217Y-80365850D01*
X150721294Y-80436586D01*
X150717636Y-80450502D01*
X150699158Y-80507369D01*
X150679197Y-80697299D01*
X150699158Y-80887226D01*
X150712063Y-80926941D01*
X150758174Y-81068855D01*
X150758177Y-81068860D01*
X150853659Y-81234240D01*
X150853666Y-81234250D01*
X150981445Y-81376163D01*
X150981448Y-81376165D01*
X151135949Y-81488417D01*
X151310413Y-81566093D01*
X151497214Y-81605799D01*
X151688188Y-81605799D01*
X151874989Y-81566093D01*
X152049453Y-81488417D01*
X152049470Y-81488404D01*
X152051598Y-81487177D01*
X152053003Y-81486835D01*
X152055485Y-81485731D01*
X152055686Y-81486184D01*
X152120592Y-81470433D01*
X152165856Y-81481183D01*
X152317712Y-81548794D01*
X152504513Y-81588500D01*
X152695487Y-81588500D01*
X152882288Y-81548794D01*
X153056752Y-81471118D01*
X153211253Y-81358866D01*
X153339040Y-81216944D01*
X153434527Y-81051556D01*
X153493542Y-80869928D01*
X153513504Y-80680000D01*
X153493542Y-80490072D01*
X153434527Y-80308444D01*
X153339040Y-80143056D01*
X153339038Y-80143054D01*
X153339034Y-80143048D01*
X153211255Y-80001135D01*
X153056752Y-79888882D01*
X152882288Y-79811206D01*
X152695487Y-79771500D01*
X152504513Y-79771500D01*
X152504511Y-79771500D01*
X152316107Y-79811546D01*
X152245317Y-79806144D01*
X152188684Y-79763327D01*
X152164191Y-79696689D01*
X152164601Y-79675128D01*
X152171205Y-79612299D01*
X152151243Y-79422371D01*
X152092228Y-79240743D01*
X151996741Y-79075355D01*
X151996739Y-79075353D01*
X151996735Y-79075347D01*
X151868956Y-78933434D01*
X151714453Y-78821181D01*
X151539989Y-78743505D01*
X151353188Y-78703799D01*
X151162214Y-78703799D01*
X150975412Y-78743505D01*
X150800948Y-78821181D01*
X150646445Y-78933434D01*
X150518666Y-79075347D01*
X150518659Y-79075357D01*
X150423177Y-79240737D01*
X150423174Y-79240744D01*
X150364158Y-79422371D01*
X150344197Y-79612299D01*
X148711810Y-79612299D01*
X148719987Y-79534500D01*
X148700025Y-79344572D01*
X148695547Y-79330793D01*
X148693518Y-79259828D01*
X148730179Y-79199029D01*
X148764128Y-79176750D01*
X148866712Y-79131078D01*
X149021213Y-79018826D01*
X149149000Y-78876904D01*
X149244487Y-78711516D01*
X149303502Y-78529888D01*
X149323464Y-78339960D01*
X149303502Y-78150032D01*
X149244487Y-77968404D01*
X149149000Y-77803016D01*
X149148998Y-77803014D01*
X149148994Y-77803008D01*
X149021215Y-77661095D01*
X148866712Y-77548842D01*
X148692248Y-77471166D01*
X148505447Y-77431460D01*
X148314473Y-77431460D01*
X148127671Y-77471166D01*
X147953207Y-77548842D01*
X147798704Y-77661095D01*
X147670925Y-77803008D01*
X147670918Y-77803018D01*
X147575436Y-77968398D01*
X147575433Y-77968405D01*
X147516417Y-78150032D01*
X147496456Y-78339960D01*
X147516417Y-78529889D01*
X147520895Y-78543670D01*
X147522921Y-78614638D01*
X147486257Y-78675435D01*
X147452311Y-78697709D01*
X147349734Y-78743380D01*
X147349731Y-78743382D01*
X147195227Y-78855635D01*
X147067448Y-78997548D01*
X147067441Y-78997558D01*
X146971959Y-79162938D01*
X146971956Y-79162945D01*
X146912940Y-79344572D01*
X146902798Y-79441074D01*
X146875785Y-79506731D01*
X146828737Y-79543011D01*
X146703247Y-79598882D01*
X146548744Y-79711135D01*
X146420965Y-79853048D01*
X146420958Y-79853058D01*
X146325476Y-80018438D01*
X146325473Y-80018445D01*
X146266457Y-80200072D01*
X146246496Y-80390000D01*
X125305178Y-80390000D01*
X125959557Y-77729429D01*
X125963892Y-77715398D01*
X126777817Y-75540000D01*
X153046496Y-75540000D01*
X153066457Y-75729927D01*
X153096526Y-75822470D01*
X153125473Y-75911556D01*
X153125476Y-75911561D01*
X153220958Y-76076941D01*
X153220965Y-76076951D01*
X153348744Y-76218864D01*
X153352449Y-76221556D01*
X153503248Y-76331118D01*
X153677712Y-76408794D01*
X153864513Y-76448500D01*
X154055487Y-76448500D01*
X154242288Y-76408794D01*
X154416752Y-76331118D01*
X154571253Y-76218866D01*
X154699040Y-76076944D01*
X154794527Y-75911556D01*
X154814528Y-75850000D01*
X155716496Y-75850000D01*
X155736457Y-76039927D01*
X155766526Y-76132470D01*
X155795473Y-76221556D01*
X155795476Y-76221561D01*
X155890958Y-76386941D01*
X155890965Y-76386951D01*
X156018744Y-76528864D01*
X156018747Y-76528866D01*
X156173248Y-76641118D01*
X156347712Y-76718794D01*
X156534513Y-76758500D01*
X156725487Y-76758500D01*
X156912288Y-76718794D01*
X157086752Y-76641118D01*
X157241253Y-76528866D01*
X157369040Y-76386944D01*
X157464527Y-76221556D01*
X157523542Y-76039928D01*
X157543504Y-75850000D01*
X157523542Y-75660072D01*
X157464527Y-75478444D01*
X157369040Y-75313056D01*
X157369038Y-75313054D01*
X157369034Y-75313048D01*
X157241255Y-75171135D01*
X157086752Y-75058882D01*
X156912288Y-74981206D01*
X156725487Y-74941500D01*
X156534513Y-74941500D01*
X156347711Y-74981206D01*
X156173247Y-75058882D01*
X156018744Y-75171135D01*
X155890965Y-75313048D01*
X155890958Y-75313058D01*
X155795476Y-75478438D01*
X155795473Y-75478445D01*
X155736457Y-75660072D01*
X155716496Y-75850000D01*
X154814528Y-75850000D01*
X154853542Y-75729928D01*
X154873504Y-75540000D01*
X154853542Y-75350072D01*
X154794527Y-75168444D01*
X154699040Y-75003056D01*
X154699038Y-75003054D01*
X154699034Y-75003048D01*
X154571255Y-74861135D01*
X154416752Y-74748882D01*
X154242288Y-74671206D01*
X154055487Y-74631500D01*
X153864513Y-74631500D01*
X153677711Y-74671206D01*
X153503247Y-74748882D01*
X153348744Y-74861135D01*
X153220965Y-75003048D01*
X153220958Y-75003058D01*
X153125476Y-75168438D01*
X153125473Y-75168445D01*
X153066457Y-75350072D01*
X153046496Y-75540000D01*
X126777817Y-75540000D01*
X127030505Y-74864634D01*
X127037440Y-74849307D01*
X128140640Y-72790000D01*
X164226496Y-72790000D01*
X164246457Y-72979927D01*
X164276526Y-73072470D01*
X164305473Y-73161556D01*
X164305476Y-73161561D01*
X164400958Y-73326941D01*
X164400965Y-73326951D01*
X164528744Y-73468864D01*
X164528747Y-73468866D01*
X164683248Y-73581118D01*
X164857712Y-73658794D01*
X165044513Y-73698500D01*
X165235487Y-73698500D01*
X165422288Y-73658794D01*
X165596752Y-73581118D01*
X165751253Y-73468866D01*
X165879040Y-73326944D01*
X165974527Y-73161556D01*
X166033542Y-72979928D01*
X166053504Y-72790000D01*
X166033542Y-72600072D01*
X165974527Y-72418444D01*
X165879040Y-72253056D01*
X165879038Y-72253054D01*
X165879034Y-72253048D01*
X165751255Y-72111135D01*
X165596752Y-71998882D01*
X165422288Y-71921206D01*
X165235487Y-71881500D01*
X165044513Y-71881500D01*
X164857711Y-71921206D01*
X164683247Y-71998882D01*
X164528744Y-72111135D01*
X164400965Y-72253048D01*
X164400958Y-72253058D01*
X164305476Y-72418438D01*
X164305473Y-72418445D01*
X164246457Y-72600072D01*
X164226496Y-72790000D01*
X128140640Y-72790000D01*
X128492254Y-72133654D01*
X128500015Y-72121017D01*
X130275350Y-69579281D01*
X130285830Y-69566222D01*
X132358789Y-67309216D01*
X132370365Y-67298122D01*
X134719143Y-65318161D01*
X134730982Y-65309314D01*
X137351809Y-63581511D01*
X137366230Y-63573314D01*
X140129641Y-62235241D01*
X140143723Y-62229447D01*
X143032974Y-61240509D01*
X143048900Y-61236200D01*
X145984525Y-60645200D01*
X145999734Y-60643094D01*
X149162514Y-60400550D01*
X149179400Y-60400393D01*
X152194686Y-60574911D01*
G37*
%TD.AperFunction*%
%TA.AperFunction,Conductor*%
G36*
X188741621Y-35220502D02*
G01*
X188788114Y-35274158D01*
X188799500Y-35326500D01*
X188799500Y-45539882D01*
X188830023Y-45613573D01*
X188830026Y-45613577D01*
X188886422Y-45669973D01*
X188886426Y-45669976D01*
X188960118Y-45700500D01*
X189039882Y-45700500D01*
X199173500Y-45700500D01*
X199241621Y-45720502D01*
X199288114Y-45774158D01*
X199299500Y-45826500D01*
X199299500Y-124173500D01*
X199279498Y-124241621D01*
X199225842Y-124288114D01*
X199173500Y-124299500D01*
X188960118Y-124299500D01*
X188886426Y-124330023D01*
X188886422Y-124330026D01*
X188830026Y-124386422D01*
X188830023Y-124386426D01*
X188799500Y-124460117D01*
X188799500Y-134673500D01*
X188779498Y-134741621D01*
X188725842Y-134788114D01*
X188673500Y-134799500D01*
X110326500Y-134799500D01*
X110258379Y-134779498D01*
X110211886Y-134725842D01*
X110200500Y-134673500D01*
X110200500Y-124460117D01*
X110169976Y-124386426D01*
X110169973Y-124386422D01*
X110113577Y-124330026D01*
X110113573Y-124330023D01*
X110039882Y-124299500D01*
X99826500Y-124299500D01*
X99758379Y-124279498D01*
X99711886Y-124225842D01*
X99700500Y-124173500D01*
X99700500Y-123050000D01*
X133016496Y-123050000D01*
X133036457Y-123239927D01*
X133066526Y-123332470D01*
X133095473Y-123421556D01*
X133095476Y-123421561D01*
X133190958Y-123586941D01*
X133190965Y-123586951D01*
X133318744Y-123728864D01*
X133360038Y-123758866D01*
X133473248Y-123841118D01*
X133647712Y-123918794D01*
X133834513Y-123958500D01*
X134025487Y-123958500D01*
X134212288Y-123918794D01*
X134386752Y-123841118D01*
X134541253Y-123728866D01*
X134613517Y-123648609D01*
X134669034Y-123586951D01*
X134669035Y-123586949D01*
X134669040Y-123586944D01*
X134764527Y-123421556D01*
X134823542Y-123239928D01*
X134843504Y-123050000D01*
X134823542Y-122860072D01*
X134764527Y-122678444D01*
X134669040Y-122513056D01*
X134669038Y-122513054D01*
X134669034Y-122513048D01*
X134541255Y-122371135D01*
X134386752Y-122258882D01*
X134212288Y-122181206D01*
X134025487Y-122141500D01*
X133834513Y-122141500D01*
X133647711Y-122181206D01*
X133473247Y-122258882D01*
X133318744Y-122371135D01*
X133190965Y-122513048D01*
X133190958Y-122513058D01*
X133097860Y-122674309D01*
X133095473Y-122678444D01*
X133086112Y-122707254D01*
X133036457Y-122860072D01*
X133016496Y-123050000D01*
X99700500Y-123050000D01*
X99700500Y-85000000D01*
X107361563Y-85000000D01*
X107381296Y-85351389D01*
X107381296Y-85351390D01*
X107381297Y-85351393D01*
X107440250Y-85698368D01*
X107517759Y-85967409D01*
X107537683Y-86036564D01*
X107672361Y-86361706D01*
X107672366Y-86361717D01*
X107672373Y-86361729D01*
X107842602Y-86669738D01*
X107842606Y-86669745D01*
X108046268Y-86956779D01*
X108046273Y-86956786D01*
X108147692Y-87070274D01*
X108280790Y-87219210D01*
X108447448Y-87368144D01*
X108543213Y-87453726D01*
X108543220Y-87453731D01*
X108830254Y-87657393D01*
X108830261Y-87657397D01*
X108943389Y-87719920D01*
X109138283Y-87827634D01*
X109463440Y-87962318D01*
X109801632Y-88059750D01*
X110148607Y-88118703D01*
X110500000Y-88138437D01*
X110851393Y-88118703D01*
X111198368Y-88059750D01*
X111536560Y-87962318D01*
X111861717Y-87827634D01*
X112169749Y-87657391D01*
X112456783Y-87453729D01*
X112719210Y-87219210D01*
X112953729Y-86956783D01*
X113022741Y-86859518D01*
X113078471Y-86815539D01*
X113149134Y-86808669D01*
X113212294Y-86841094D01*
X113247897Y-86902518D01*
X113251190Y-86923601D01*
X113420591Y-89334303D01*
X113420869Y-89345961D01*
X113420259Y-89373159D01*
X113420260Y-89373162D01*
X113424233Y-89395784D01*
X113425822Y-89408743D01*
X113427432Y-89431647D01*
X113427432Y-89431648D01*
X113434594Y-89457885D01*
X113437141Y-89469263D01*
X114075129Y-93100879D01*
X114076587Y-93112137D01*
X114078941Y-93140176D01*
X114085031Y-93161346D01*
X114088040Y-93174375D01*
X114091849Y-93196058D01*
X114091853Y-93196072D01*
X114102033Y-93222300D01*
X114105659Y-93233056D01*
X115136626Y-96816891D01*
X115139291Y-96828041D01*
X115144516Y-96855345D01*
X115144517Y-96855348D01*
X115152923Y-96876068D01*
X115157253Y-96888597D01*
X115163438Y-96910095D01*
X115176187Y-96934798D01*
X115180976Y-96945214D01*
X116575168Y-100381603D01*
X116578937Y-100392239D01*
X116587198Y-100419345D01*
X116587201Y-100419353D01*
X116597516Y-100438592D01*
X116603223Y-100450754D01*
X116611428Y-100470977D01*
X116611430Y-100470981D01*
X116626999Y-100494652D01*
X116632774Y-100504353D01*
X118380221Y-103763637D01*
X118385202Y-103774047D01*
X118395951Y-103799434D01*
X118408655Y-103818131D01*
X118415482Y-103829404D01*
X118426163Y-103849325D01*
X118426165Y-103849328D01*
X118443667Y-103870599D01*
X118450585Y-103879839D01*
X120438704Y-106805749D01*
X120531795Y-106942750D01*
X120537735Y-106952400D01*
X120551428Y-106977061D01*
X120564057Y-106991958D01*
X120565634Y-106993818D01*
X120573740Y-107004481D01*
X120586080Y-107022642D01*
X120586086Y-107022649D01*
X120606175Y-107042428D01*
X120613883Y-107050732D01*
X121482186Y-108074975D01*
X123019249Y-109888083D01*
X123026304Y-109897223D01*
X123042120Y-109919780D01*
X123042126Y-109919787D01*
X123058465Y-109935408D01*
X123067502Y-109945002D01*
X123069336Y-109947165D01*
X123082122Y-109962247D01*
X123103704Y-109979390D01*
X123112398Y-109986971D01*
X125792296Y-112549070D01*
X125800189Y-112557333D01*
X125807505Y-112565722D01*
X125818542Y-112578379D01*
X125836167Y-112591982D01*
X125846244Y-112600646D01*
X125862324Y-112616019D01*
X125885871Y-112630998D01*
X125895224Y-112637563D01*
X128820918Y-114895648D01*
X128829532Y-114902936D01*
X128850282Y-114922156D01*
X128850287Y-114922160D01*
X128868950Y-114933622D01*
X128879984Y-114941235D01*
X128897329Y-114954623D01*
X128922632Y-114967190D01*
X128932529Y-114972672D01*
X131976220Y-116842099D01*
X132114199Y-116926845D01*
X132123615Y-116933232D01*
X132146116Y-116950024D01*
X132166060Y-116959529D01*
X132177802Y-116965910D01*
X132196616Y-116977466D01*
X132222950Y-116987211D01*
X132233413Y-116991630D01*
X135591528Y-118592135D01*
X135601528Y-118597466D01*
X135625747Y-118611817D01*
X135625749Y-118611818D01*
X135646518Y-118619131D01*
X135658885Y-118624238D01*
X135678766Y-118633714D01*
X135706032Y-118640630D01*
X135716902Y-118643914D01*
X136640335Y-118969066D01*
X139201926Y-119871034D01*
X139212554Y-119875330D01*
X139237793Y-119886898D01*
X139237794Y-119886898D01*
X139237796Y-119886899D01*
X139246660Y-119889005D01*
X139259606Y-119892083D01*
X139272301Y-119895814D01*
X139293451Y-119903262D01*
X139320929Y-119907195D01*
X139332188Y-119909336D01*
X142924400Y-120763221D01*
X142935559Y-120766423D01*
X142961475Y-120775174D01*
X142984104Y-120778114D01*
X142996989Y-120780476D01*
X143019199Y-120785756D01*
X143046540Y-120786768D01*
X143058083Y-120787730D01*
X146157563Y-121190580D01*
X146222537Y-121219195D01*
X146261726Y-121278396D01*
X146266117Y-121323397D01*
X146266496Y-121323397D01*
X146266496Y-121327279D01*
X146266633Y-121328684D01*
X146266496Y-121329988D01*
X146266496Y-121329999D01*
X146286457Y-121519927D01*
X146311968Y-121598438D01*
X146345473Y-121701556D01*
X146345476Y-121701561D01*
X146440958Y-121866941D01*
X146440965Y-121866951D01*
X146568744Y-122008864D01*
X146613138Y-122041118D01*
X146723248Y-122121118D01*
X146786448Y-122149256D01*
X146840544Y-122195236D01*
X146861193Y-122263163D01*
X146843268Y-122326575D01*
X146844319Y-122327156D01*
X146672373Y-122638270D01*
X146672361Y-122638293D01*
X146537683Y-122963435D01*
X146440248Y-123301640D01*
X146381296Y-123648609D01*
X146381296Y-123648610D01*
X146361563Y-124000000D01*
X146381296Y-124351389D01*
X146381296Y-124351390D01*
X146399770Y-124460118D01*
X146440250Y-124698368D01*
X146517759Y-124967409D01*
X146537683Y-125036564D01*
X146672361Y-125361706D01*
X146672366Y-125361717D01*
X146672373Y-125361729D01*
X146842602Y-125669738D01*
X146842606Y-125669745D01*
X147046268Y-125956779D01*
X147046273Y-125956786D01*
X147147692Y-126070274D01*
X147280790Y-126219210D01*
X147447448Y-126368144D01*
X147543213Y-126453726D01*
X147543220Y-126453731D01*
X147830254Y-126657393D01*
X147830261Y-126657397D01*
X147943389Y-126719920D01*
X148138283Y-126827634D01*
X148463440Y-126962318D01*
X148801632Y-127059750D01*
X149148607Y-127118703D01*
X149500000Y-127138437D01*
X149851393Y-127118703D01*
X150198368Y-127059750D01*
X150536560Y-126962318D01*
X150861717Y-126827634D01*
X151169749Y-126657391D01*
X151456783Y-126453729D01*
X151719210Y-126219210D01*
X151953729Y-125956783D01*
X152157391Y-125669749D01*
X152327634Y-125361717D01*
X152462318Y-125036560D01*
X152559750Y-124698368D01*
X152618703Y-124351393D01*
X152638437Y-124000000D01*
X152625418Y-123768177D01*
X152641569Y-123699042D01*
X152692534Y-123649613D01*
X152762131Y-123635585D01*
X152828263Y-123661411D01*
X152844852Y-123676798D01*
X152918747Y-123758866D01*
X153073248Y-123871118D01*
X153247712Y-123948794D01*
X153434513Y-123988500D01*
X153625487Y-123988500D01*
X153812288Y-123948794D01*
X153986752Y-123871118D01*
X154141253Y-123758866D01*
X154215144Y-123676802D01*
X154269034Y-123616951D01*
X154269035Y-123616949D01*
X154269040Y-123616944D01*
X154364527Y-123451556D01*
X154423542Y-123269928D01*
X154443504Y-123080000D01*
X154423542Y-122890072D01*
X154364527Y-122708444D01*
X154364524Y-122708438D01*
X154363841Y-122707254D01*
X154363653Y-122706480D01*
X154361839Y-122702405D01*
X154362584Y-122702073D01*
X154347104Y-122638258D01*
X154370326Y-122571167D01*
X154379320Y-122559951D01*
X154409040Y-122526944D01*
X154504527Y-122361556D01*
X154563542Y-122179928D01*
X154583504Y-121990000D01*
X154581402Y-121970000D01*
X156520996Y-121970000D01*
X156540957Y-122159927D01*
X156552430Y-122195236D01*
X156599973Y-122341556D01*
X156625453Y-122385689D01*
X156695458Y-122506941D01*
X156695465Y-122506951D01*
X156823243Y-122648863D01*
X156823246Y-122648865D01*
X156823247Y-122648866D01*
X156858268Y-122674310D01*
X156901622Y-122730531D01*
X156907698Y-122801268D01*
X156904040Y-122815182D01*
X156876457Y-122900071D01*
X156856496Y-123090000D01*
X156876457Y-123279927D01*
X156902980Y-123361554D01*
X156935473Y-123461556D01*
X156935476Y-123461561D01*
X157030958Y-123626941D01*
X157030965Y-123626951D01*
X157158744Y-123768864D01*
X157158747Y-123768866D01*
X157313248Y-123881118D01*
X157487712Y-123958794D01*
X157674513Y-123998500D01*
X157865487Y-123998500D01*
X158052288Y-123958794D01*
X158226752Y-123881118D01*
X158381253Y-123768866D01*
X158381255Y-123768864D01*
X158509034Y-123626951D01*
X158509035Y-123626949D01*
X158509040Y-123626944D01*
X158604527Y-123461556D01*
X158663542Y-123279928D01*
X158683504Y-123090000D01*
X158672994Y-122990000D01*
X187296496Y-122990000D01*
X187316457Y-123179927D01*
X187335953Y-123239927D01*
X187375473Y-123361556D01*
X187375476Y-123361561D01*
X187470958Y-123526941D01*
X187470965Y-123526951D01*
X187598744Y-123668864D01*
X187659999Y-123713368D01*
X187753248Y-123781118D01*
X187927712Y-123858794D01*
X188114513Y-123898500D01*
X188305487Y-123898500D01*
X188492288Y-123858794D01*
X188666752Y-123781118D01*
X188821253Y-123668866D01*
X188827966Y-123661411D01*
X188949034Y-123526951D01*
X188949035Y-123526949D01*
X188949040Y-123526944D01*
X189044527Y-123361556D01*
X189103542Y-123179928D01*
X189123504Y-122990000D01*
X189103542Y-122800072D01*
X189044527Y-122618444D01*
X188949040Y-122453056D01*
X188949038Y-122453054D01*
X188949034Y-122453048D01*
X188821255Y-122311135D01*
X188666752Y-122198882D01*
X188492288Y-122121206D01*
X188305487Y-122081500D01*
X188114513Y-122081500D01*
X187927711Y-122121206D01*
X187753247Y-122198882D01*
X187598744Y-122311135D01*
X187470965Y-122453048D01*
X187470958Y-122453058D01*
X187375476Y-122618438D01*
X187375473Y-122618445D01*
X187316457Y-122800072D01*
X187296496Y-122990000D01*
X158672994Y-122990000D01*
X158663542Y-122900072D01*
X158604527Y-122718444D01*
X158509040Y-122553056D01*
X158509038Y-122553054D01*
X158509034Y-122553048D01*
X158381255Y-122411135D01*
X158346231Y-122385689D01*
X158302877Y-122329467D01*
X158296802Y-122258731D01*
X158300460Y-122244815D01*
X158328040Y-122159936D01*
X158328042Y-122159926D01*
X158348004Y-121970000D01*
X158328042Y-121780072D01*
X158269027Y-121598444D01*
X158173540Y-121433056D01*
X158173538Y-121433054D01*
X158173534Y-121433048D01*
X158045755Y-121291135D01*
X157891252Y-121178882D01*
X157716788Y-121101206D01*
X157529987Y-121061500D01*
X157339013Y-121061500D01*
X157152211Y-121101206D01*
X156977747Y-121178882D01*
X156823244Y-121291135D01*
X156695465Y-121433048D01*
X156695458Y-121433058D01*
X156645304Y-121519928D01*
X156599973Y-121598444D01*
X156585499Y-121642986D01*
X156540957Y-121780072D01*
X156520996Y-121970000D01*
X154581402Y-121970000D01*
X154563542Y-121800072D01*
X154504527Y-121618444D01*
X154409040Y-121453056D01*
X154409038Y-121453054D01*
X154409034Y-121453048D01*
X154281255Y-121311135D01*
X154126752Y-121198882D01*
X153952288Y-121121206D01*
X153765487Y-121081500D01*
X153574513Y-121081500D01*
X153387711Y-121121206D01*
X153213247Y-121198882D01*
X153058746Y-121311134D01*
X152988013Y-121389691D01*
X152927567Y-121426930D01*
X152856583Y-121425578D01*
X152797599Y-121386064D01*
X152769341Y-121320933D01*
X152769067Y-121292215D01*
X152773504Y-121250000D01*
X152753542Y-121060072D01*
X152718507Y-120952249D01*
X152716480Y-120881282D01*
X152753142Y-120820484D01*
X152816855Y-120789159D01*
X152824059Y-120788125D01*
X155452450Y-120488335D01*
X155463862Y-120487556D01*
X155491701Y-120486927D01*
X155513515Y-120482072D01*
X155526575Y-120479880D01*
X155548782Y-120477348D01*
X155575284Y-120468860D01*
X155586329Y-120465869D01*
X159158848Y-119670885D01*
X159170130Y-119668909D01*
X159197701Y-119665364D01*
X159218889Y-119658240D01*
X159231667Y-119654681D01*
X159253510Y-119649822D01*
X159278946Y-119638605D01*
X159289643Y-119634458D01*
X162794464Y-118456367D01*
X162805347Y-118453245D01*
X162832829Y-118446683D01*
X162852753Y-118437526D01*
X162865198Y-118432591D01*
X162885986Y-118425604D01*
X162910497Y-118411548D01*
X162920534Y-118406378D01*
X166319610Y-116844375D01*
X166329706Y-116840256D01*
X166357431Y-116830323D01*
X166375189Y-116819667D01*
X166387390Y-116813228D01*
X166406218Y-116804577D01*
X166430075Y-116787286D01*
X166439180Y-116781272D01*
X169630717Y-114866349D01*
X169640978Y-114860822D01*
X169665478Y-114849059D01*
X169683886Y-114835236D01*
X169694694Y-114827964D01*
X169714436Y-114816120D01*
X169734557Y-114797866D01*
X169743552Y-114790437D01*
X172658465Y-112601797D01*
X172667651Y-112595515D01*
X172692090Y-112580348D01*
X172707743Y-112565710D01*
X172718130Y-112556998D01*
X172735268Y-112544132D01*
X172754446Y-112522718D01*
X172762233Y-112514761D01*
X175482211Y-109971534D01*
X175490987Y-109964051D01*
X175512742Y-109947165D01*
X175527577Y-109930056D01*
X175536707Y-109920579D01*
X175537562Y-109919780D01*
X175553240Y-109905121D01*
X175569300Y-109882747D01*
X175576444Y-109873700D01*
X178011469Y-107065567D01*
X178019149Y-107057470D01*
X178039724Y-107037624D01*
X178052055Y-107019867D01*
X178060341Y-107009207D01*
X178074495Y-106992886D01*
X178088638Y-106968068D01*
X178094612Y-106958593D01*
X180216244Y-103903835D01*
X180222956Y-103895027D01*
X180241499Y-103872791D01*
X180242693Y-103870599D01*
X180251649Y-103854152D01*
X180258808Y-103842551D01*
X180270909Y-103825130D01*
X180282472Y-103798573D01*
X180287327Y-103788640D01*
X182024367Y-100599161D01*
X182030457Y-100589127D01*
X182045463Y-100566822D01*
X182054444Y-100545328D01*
X182060038Y-100533664D01*
X182071185Y-100513198D01*
X182079192Y-100487523D01*
X182083210Y-100476486D01*
X183506270Y-97070956D01*
X183511115Y-97060690D01*
X183524221Y-97035901D01*
X183530552Y-97014678D01*
X183535034Y-97002120D01*
X183543576Y-96981682D01*
X183549129Y-96954208D01*
X183551889Y-96943160D01*
X183552493Y-96941135D01*
X184612326Y-93388732D01*
X184616022Y-93378105D01*
X184626531Y-93351764D01*
X184630509Y-93330285D01*
X184633652Y-93317250D01*
X184639897Y-93296322D01*
X184642545Y-93268100D01*
X184644102Y-93256927D01*
X184655381Y-93196058D01*
X185311685Y-89653936D01*
X185314240Y-89642932D01*
X185321871Y-89615671D01*
X185321871Y-89615669D01*
X185323542Y-89593882D01*
X185325283Y-89580553D01*
X185329265Y-89559065D01*
X185329265Y-89559064D01*
X185328892Y-89530759D01*
X185329249Y-89519484D01*
X185551593Y-86621349D01*
X185576748Y-86554960D01*
X185633802Y-86512707D01*
X185704643Y-86508009D01*
X185766779Y-86542355D01*
X185787502Y-86570041D01*
X185842602Y-86669738D01*
X185842606Y-86669745D01*
X186046268Y-86956779D01*
X186046273Y-86956786D01*
X186147692Y-87070274D01*
X186280790Y-87219210D01*
X186447448Y-87368144D01*
X186543213Y-87453726D01*
X186543220Y-87453731D01*
X186830254Y-87657393D01*
X186830261Y-87657397D01*
X186943389Y-87719920D01*
X187138283Y-87827634D01*
X187463440Y-87962318D01*
X187801632Y-88059750D01*
X188148607Y-88118703D01*
X188500000Y-88138437D01*
X188851393Y-88118703D01*
X189198368Y-88059750D01*
X189536560Y-87962318D01*
X189861717Y-87827634D01*
X190169749Y-87657391D01*
X190456783Y-87453729D01*
X190719210Y-87219210D01*
X190953729Y-86956783D01*
X191157391Y-86669749D01*
X191327634Y-86361717D01*
X191462318Y-86036560D01*
X191559750Y-85698368D01*
X191618703Y-85351393D01*
X191638437Y-85000000D01*
X191618703Y-84648607D01*
X191559750Y-84301632D01*
X191462318Y-83963440D01*
X191327634Y-83638283D01*
X191213413Y-83431615D01*
X191157397Y-83330261D01*
X191157393Y-83330254D01*
X191044598Y-83171284D01*
X190953729Y-83043217D01*
X190953728Y-83043216D01*
X190953726Y-83043213D01*
X190767760Y-82835118D01*
X190719210Y-82780790D01*
X190570274Y-82647692D01*
X190456786Y-82546273D01*
X190456779Y-82546268D01*
X190169745Y-82342606D01*
X190169738Y-82342602D01*
X189949669Y-82220975D01*
X189861717Y-82172366D01*
X189861710Y-82172363D01*
X189861706Y-82172361D01*
X189536564Y-82037683D01*
X189467409Y-82017759D01*
X189198368Y-81940250D01*
X189198362Y-81940249D01*
X189198359Y-81940248D01*
X188851389Y-81881296D01*
X188500000Y-81861563D01*
X188148610Y-81881296D01*
X188148609Y-81881296D01*
X187801640Y-81940248D01*
X187801634Y-81940249D01*
X187801632Y-81940250D01*
X187731017Y-81960594D01*
X187463435Y-82037683D01*
X187138293Y-82172361D01*
X187138270Y-82172373D01*
X186830261Y-82342602D01*
X186830254Y-82342606D01*
X186543220Y-82546268D01*
X186543213Y-82546273D01*
X186280790Y-82780790D01*
X186046273Y-83043213D01*
X186046268Y-83043220D01*
X185842606Y-83330254D01*
X185786587Y-83431615D01*
X185736130Y-83481560D01*
X185666679Y-83496297D01*
X185600286Y-83471148D01*
X185558030Y-83414096D01*
X185550362Y-83374331D01*
X185549080Y-83330261D01*
X185509221Y-81960587D01*
X185509398Y-81949312D01*
X185509947Y-81940248D01*
X185511113Y-81921000D01*
X185508158Y-81899398D01*
X185507050Y-81885988D01*
X185506417Y-81864208D01*
X185506417Y-81864205D01*
X185500070Y-81836534D01*
X185498051Y-81825478D01*
X184997317Y-78163241D01*
X184996286Y-78151895D01*
X184995015Y-78123917D01*
X184989711Y-78102409D01*
X184987210Y-78089324D01*
X184984208Y-78067362D01*
X184975071Y-78040880D01*
X184971845Y-78029952D01*
X184956667Y-77968398D01*
X184088286Y-74446631D01*
X184086068Y-74435497D01*
X184081825Y-74407704D01*
X184074299Y-74386951D01*
X184070423Y-74374187D01*
X184065140Y-74352757D01*
X184053216Y-74327306D01*
X184048869Y-74316820D01*
X182792223Y-70851225D01*
X182788840Y-70840395D01*
X182781660Y-70813163D01*
X182781660Y-70813162D01*
X182772012Y-70793399D01*
X182766788Y-70781079D01*
X182759287Y-70760391D01*
X182744696Y-70736281D01*
X182739273Y-70726334D01*
X182695735Y-70637147D01*
X181119459Y-67408168D01*
X181114906Y-67397651D01*
X181105039Y-67371679D01*
X181105038Y-67371678D01*
X181105038Y-67371677D01*
X181093163Y-67352713D01*
X181086731Y-67341125D01*
X181076919Y-67321025D01*
X181076915Y-67321018D01*
X181060085Y-67298902D01*
X181053568Y-67289478D01*
X179737026Y-65186941D01*
X179080033Y-64137713D01*
X179075673Y-64130000D01*
X188656496Y-64130000D01*
X188676457Y-64319927D01*
X188706526Y-64412470D01*
X188735473Y-64501556D01*
X188735476Y-64501561D01*
X188830958Y-64666941D01*
X188830965Y-64666951D01*
X188958744Y-64808864D01*
X188958747Y-64808866D01*
X189047009Y-64872992D01*
X189090362Y-64929213D01*
X189098257Y-64988097D01*
X189086496Y-65099999D01*
X189106457Y-65289927D01*
X189130784Y-65364795D01*
X189165473Y-65471556D01*
X189165476Y-65471561D01*
X189260958Y-65636941D01*
X189260965Y-65636951D01*
X189388744Y-65778864D01*
X189449999Y-65823368D01*
X189543248Y-65891118D01*
X189717712Y-65968794D01*
X189824420Y-65991475D01*
X189886893Y-66025203D01*
X189921215Y-66087353D01*
X189923533Y-66127892D01*
X189906496Y-66289999D01*
X189926457Y-66479927D01*
X189956087Y-66571117D01*
X189985473Y-66661556D01*
X189985476Y-66661561D01*
X190080958Y-66826941D01*
X190080965Y-66826951D01*
X190208744Y-66968864D01*
X190208747Y-66968866D01*
X190363248Y-67081118D01*
X190537712Y-67158794D01*
X190724513Y-67198500D01*
X190915487Y-67198500D01*
X191102288Y-67158794D01*
X191276752Y-67081118D01*
X191431253Y-66968866D01*
X191559040Y-66826944D01*
X191654527Y-66661556D01*
X191713542Y-66479928D01*
X191733504Y-66290000D01*
X191713542Y-66100072D01*
X191654527Y-65918444D01*
X191559040Y-65753056D01*
X191559038Y-65753054D01*
X191559034Y-65753048D01*
X191431255Y-65611135D01*
X191276752Y-65498882D01*
X191102288Y-65421206D01*
X190995579Y-65398524D01*
X190933105Y-65364795D01*
X190898784Y-65302646D01*
X190896466Y-65262107D01*
X190904365Y-65186951D01*
X190913504Y-65100000D01*
X190893542Y-64910072D01*
X190834527Y-64728444D01*
X190739040Y-64563056D01*
X190739038Y-64563054D01*
X190739034Y-64563048D01*
X190611255Y-64421135D01*
X190522991Y-64357007D01*
X190479637Y-64300784D01*
X190471742Y-64241900D01*
X190483504Y-64130000D01*
X190463542Y-63940072D01*
X190453771Y-63910000D01*
X193546496Y-63910000D01*
X193566457Y-64099927D01*
X193576229Y-64130000D01*
X193625473Y-64281556D01*
X193625476Y-64281561D01*
X193720958Y-64446941D01*
X193720965Y-64446951D01*
X193848744Y-64588864D01*
X193848747Y-64588866D01*
X194003248Y-64701118D01*
X194177712Y-64778794D01*
X194364513Y-64818500D01*
X194555491Y-64818500D01*
X194672759Y-64793573D01*
X194743550Y-64798974D01*
X194800183Y-64841790D01*
X194818790Y-64877882D01*
X194820681Y-64883701D01*
X194865473Y-65021556D01*
X194865476Y-65021561D01*
X194960958Y-65186941D01*
X194960965Y-65186951D01*
X195088744Y-65328864D01*
X195088747Y-65328866D01*
X195243248Y-65441118D01*
X195417712Y-65518794D01*
X195604513Y-65558500D01*
X195795491Y-65558500D01*
X195845037Y-65547968D01*
X195915828Y-65553369D01*
X195972461Y-65596185D01*
X195996955Y-65662822D01*
X195996545Y-65684384D01*
X195986496Y-65779999D01*
X196006457Y-65969927D01*
X196024418Y-66025203D01*
X196065473Y-66151556D01*
X196065474Y-66151557D01*
X196065476Y-66151561D01*
X196160958Y-66316941D01*
X196160965Y-66316951D01*
X196288744Y-66458864D01*
X196288747Y-66458866D01*
X196443248Y-66571118D01*
X196617712Y-66648794D01*
X196804513Y-66688500D01*
X196995487Y-66688500D01*
X197182288Y-66648794D01*
X197356752Y-66571118D01*
X197511253Y-66458866D01*
X197639040Y-66316944D01*
X197734527Y-66151556D01*
X197751081Y-66100609D01*
X197791154Y-66042003D01*
X197856550Y-66014365D01*
X197897107Y-66016297D01*
X197954513Y-66028500D01*
X197954515Y-66028500D01*
X198145487Y-66028500D01*
X198332288Y-65988794D01*
X198506752Y-65911118D01*
X198661253Y-65798866D01*
X198702499Y-65753058D01*
X198789034Y-65656951D01*
X198789035Y-65656949D01*
X198789040Y-65656944D01*
X198884527Y-65491556D01*
X198943542Y-65309928D01*
X198963504Y-65120000D01*
X198943542Y-64930072D01*
X198884527Y-64748444D01*
X198789040Y-64583056D01*
X198789038Y-64583054D01*
X198789034Y-64583048D01*
X198661255Y-64441135D01*
X198506752Y-64328882D01*
X198332288Y-64251206D01*
X198145487Y-64211500D01*
X197954513Y-64211500D01*
X197767711Y-64251206D01*
X197593247Y-64328882D01*
X197438744Y-64441135D01*
X197310965Y-64583048D01*
X197310958Y-64583058D01*
X197215475Y-64748438D01*
X197215473Y-64748443D01*
X197215473Y-64748444D01*
X197199055Y-64798974D01*
X197198919Y-64799392D01*
X197158844Y-64857997D01*
X197093447Y-64885633D01*
X197052889Y-64883701D01*
X196995487Y-64871500D01*
X196804513Y-64871500D01*
X196804511Y-64871500D01*
X196754960Y-64882032D01*
X196684169Y-64876629D01*
X196627537Y-64833812D01*
X196603044Y-64767174D01*
X196603453Y-64745621D01*
X196613504Y-64650000D01*
X196593542Y-64460072D01*
X196534527Y-64278444D01*
X196439040Y-64113056D01*
X196439038Y-64113054D01*
X196439034Y-64113048D01*
X196311255Y-63971135D01*
X196156752Y-63858882D01*
X195982288Y-63781206D01*
X195795487Y-63741500D01*
X195604513Y-63741500D01*
X195604512Y-63741500D01*
X195487239Y-63766427D01*
X195416448Y-63761025D01*
X195359815Y-63718208D01*
X195341209Y-63682116D01*
X195294528Y-63538447D01*
X195294527Y-63538445D01*
X195294527Y-63538444D01*
X195199040Y-63373056D01*
X195199038Y-63373054D01*
X195199034Y-63373048D01*
X195071255Y-63231135D01*
X194916752Y-63118882D01*
X194742288Y-63041206D01*
X194555487Y-63001500D01*
X194364513Y-63001500D01*
X194177711Y-63041206D01*
X194003247Y-63118882D01*
X193848744Y-63231135D01*
X193720965Y-63373048D01*
X193720958Y-63373058D01*
X193625476Y-63538438D01*
X193625473Y-63538445D01*
X193566457Y-63720072D01*
X193546496Y-63910000D01*
X190453771Y-63910000D01*
X190404527Y-63758444D01*
X190309040Y-63593056D01*
X190309038Y-63593054D01*
X190309034Y-63593048D01*
X190181255Y-63451135D01*
X190026752Y-63338882D01*
X189852288Y-63261206D01*
X189665487Y-63221500D01*
X189474513Y-63221500D01*
X189287711Y-63261206D01*
X189113247Y-63338882D01*
X188958744Y-63451135D01*
X188948700Y-63462290D01*
X188888252Y-63499527D01*
X188827776Y-63498372D01*
X188839967Y-63526468D01*
X188828528Y-63596537D01*
X188824050Y-63605024D01*
X188745256Y-63741500D01*
X188735473Y-63758444D01*
X188732879Y-63766427D01*
X188676457Y-63940072D01*
X188656496Y-64130000D01*
X179075673Y-64130000D01*
X179074466Y-64127864D01*
X179061682Y-64102673D01*
X179061679Y-64102670D01*
X179048157Y-64085460D01*
X179040439Y-64074481D01*
X179028816Y-64055919D01*
X179028812Y-64055913D01*
X179009424Y-64035341D01*
X179002045Y-64026771D01*
X178030296Y-62790000D01*
X187086496Y-62790000D01*
X187106457Y-62979927D01*
X187136526Y-63072470D01*
X187165473Y-63161556D01*
X187165476Y-63161561D01*
X187260958Y-63326941D01*
X187260965Y-63326951D01*
X187388744Y-63468864D01*
X187388747Y-63468866D01*
X187543248Y-63581118D01*
X187717712Y-63658794D01*
X187904513Y-63698500D01*
X188095487Y-63698500D01*
X188282288Y-63658794D01*
X188456752Y-63581118D01*
X188611253Y-63468866D01*
X188621293Y-63457714D01*
X188681739Y-63420475D01*
X188742222Y-63421625D01*
X188730031Y-63393523D01*
X188741474Y-63323455D01*
X188745928Y-63315012D01*
X188834527Y-63161556D01*
X188893542Y-62979928D01*
X188913504Y-62790000D01*
X188893542Y-62600072D01*
X188834527Y-62418444D01*
X188739040Y-62253056D01*
X188739038Y-62253054D01*
X188739034Y-62253048D01*
X188611255Y-62111135D01*
X188456752Y-61998882D01*
X188282288Y-61921206D01*
X188095487Y-61881500D01*
X187904513Y-61881500D01*
X187717711Y-61921206D01*
X187543247Y-61998882D01*
X187388744Y-62111135D01*
X187260965Y-62253048D01*
X187260958Y-62253058D01*
X187165476Y-62418438D01*
X187165473Y-62418445D01*
X187106457Y-62600072D01*
X187086496Y-62790000D01*
X178030296Y-62790000D01*
X176734244Y-61140480D01*
X176727655Y-61131269D01*
X176712277Y-61107594D01*
X176705393Y-61100529D01*
X176696962Y-61091876D01*
X176688137Y-61081798D01*
X176674582Y-61064547D01*
X176653151Y-61046183D01*
X176644892Y-61038436D01*
X176194878Y-60576580D01*
X174032765Y-58357569D01*
X174025176Y-58349039D01*
X174007571Y-58327346D01*
X173990479Y-58313162D01*
X173980701Y-58304134D01*
X173965191Y-58288216D01*
X173965190Y-58288215D01*
X173965189Y-58288214D01*
X173942136Y-58272373D01*
X173933042Y-58265497D01*
X171105933Y-55919388D01*
X171097526Y-55911746D01*
X171077595Y-55891915D01*
X171059239Y-55879717D01*
X171048511Y-55871736D01*
X171031543Y-55857655D01*
X171006808Y-55844259D01*
X170997073Y-55838404D01*
X167894140Y-53776328D01*
X167884992Y-53769636D01*
X167863026Y-53751996D01*
X167863024Y-53751995D01*
X167863023Y-53751994D01*
X167843505Y-53741826D01*
X167831981Y-53735020D01*
X167813669Y-53722850D01*
X167787616Y-53712135D01*
X167777328Y-53707351D01*
X164498098Y-51999009D01*
X164488266Y-51993309D01*
X164464616Y-51978133D01*
X164464615Y-51978132D01*
X164444077Y-51970068D01*
X164431929Y-51964538D01*
X164412355Y-51954341D01*
X164412354Y-51954340D01*
X164412351Y-51954339D01*
X164412349Y-51954338D01*
X164385371Y-51946466D01*
X164374616Y-51942794D01*
X160898062Y-50577705D01*
X160887809Y-50573142D01*
X160862295Y-50560397D01*
X160862292Y-50560396D01*
X160841415Y-50554686D01*
X160828613Y-50550436D01*
X160808455Y-50542522D01*
X160780386Y-50537477D01*
X160769439Y-50535002D01*
X157215345Y-49563026D01*
X157204485Y-49559520D01*
X157178301Y-49549737D01*
X157178289Y-49549734D01*
X157156367Y-49546168D01*
X157143362Y-49543340D01*
X157121934Y-49537480D01*
X157121937Y-49537480D01*
X157094047Y-49535507D01*
X157082712Y-49534186D01*
X153400976Y-48935291D01*
X153389723Y-48932929D01*
X153362905Y-48926008D01*
X153362898Y-48926007D01*
X153340451Y-48924743D01*
X153327312Y-48923309D01*
X153305122Y-48919700D01*
X153277463Y-48920671D01*
X153265961Y-48920550D01*
X151339664Y-48812098D01*
X151272776Y-48788298D01*
X151229372Y-48732114D01*
X151223235Y-48661383D01*
X151256311Y-48598562D01*
X151273822Y-48583546D01*
X151456783Y-48453729D01*
X151719210Y-48219210D01*
X151953729Y-47956783D01*
X152157391Y-47669749D01*
X152327634Y-47361717D01*
X152462318Y-47036560D01*
X152559750Y-46698368D01*
X152618703Y-46351393D01*
X152638437Y-46000000D01*
X152618703Y-45648607D01*
X152559750Y-45301632D01*
X152462318Y-44963440D01*
X152327634Y-44638283D01*
X152157391Y-44330251D01*
X151953729Y-44043217D01*
X151953728Y-44043216D01*
X151953726Y-44043213D01*
X151868144Y-43947448D01*
X151719210Y-43780790D01*
X151570274Y-43647692D01*
X151456786Y-43546273D01*
X151456779Y-43546268D01*
X151169745Y-43342606D01*
X151169738Y-43342602D01*
X150949669Y-43220975D01*
X150861717Y-43172366D01*
X150861710Y-43172363D01*
X150861706Y-43172361D01*
X150536564Y-43037683D01*
X150467409Y-43017759D01*
X150198368Y-42940250D01*
X150198362Y-42940249D01*
X150198359Y-42940248D01*
X149851389Y-42881296D01*
X149500000Y-42861563D01*
X149148610Y-42881296D01*
X149148609Y-42881296D01*
X148801640Y-42940248D01*
X148801634Y-42940249D01*
X148801632Y-42940250D01*
X148663330Y-42980094D01*
X148463435Y-43037683D01*
X148138293Y-43172361D01*
X148138270Y-43172373D01*
X147830261Y-43342602D01*
X147830254Y-43342606D01*
X147543220Y-43546268D01*
X147543213Y-43546273D01*
X147280790Y-43780790D01*
X147046273Y-44043213D01*
X147046268Y-44043220D01*
X146842606Y-44330254D01*
X146842602Y-44330261D01*
X146672373Y-44638270D01*
X146672361Y-44638293D01*
X146537683Y-44963435D01*
X146537682Y-44963440D01*
X146440865Y-45299500D01*
X146440248Y-45301640D01*
X146381296Y-45648609D01*
X146381296Y-45648610D01*
X146361563Y-46000000D01*
X146381296Y-46351389D01*
X146381296Y-46351390D01*
X146381297Y-46351393D01*
X146440250Y-46698368D01*
X146517759Y-46967409D01*
X146537683Y-47036564D01*
X146672361Y-47361706D01*
X146672366Y-47361717D01*
X146672373Y-47361729D01*
X146842602Y-47669738D01*
X146842606Y-47669745D01*
X147046268Y-47956779D01*
X147046273Y-47956786D01*
X147147692Y-48070274D01*
X147280790Y-48219210D01*
X147447448Y-48368144D01*
X147543213Y-48453726D01*
X147543216Y-48453728D01*
X147543217Y-48453729D01*
X147716726Y-48576840D01*
X147760707Y-48632571D01*
X147767576Y-48703235D01*
X147735151Y-48766395D01*
X147673727Y-48801997D01*
X147650138Y-48805441D01*
X145757607Y-48900568D01*
X145746191Y-48900624D01*
X145718273Y-48899495D01*
X145718272Y-48899495D01*
X145718271Y-48899495D01*
X145696308Y-48902946D01*
X145683085Y-48904314D01*
X145660881Y-48905431D01*
X145660880Y-48905431D01*
X145633783Y-48912250D01*
X145622601Y-48914531D01*
X142000459Y-49483865D01*
X141989183Y-49485120D01*
X141963493Y-49486813D01*
X141961105Y-49486971D01*
X141961104Y-49486971D01*
X141939831Y-49492678D01*
X141926757Y-49495451D01*
X141913228Y-49497577D01*
X141904996Y-49498872D01*
X141904994Y-49498872D01*
X141904991Y-49498873D01*
X141878569Y-49508585D01*
X141867750Y-49512017D01*
X138243793Y-50484297D01*
X138232755Y-50486734D01*
X138204892Y-50491585D01*
X138204886Y-50491586D01*
X138184465Y-50499475D01*
X138171718Y-50503634D01*
X138150586Y-50509304D01*
X138150574Y-50509308D01*
X138125208Y-50521826D01*
X138114862Y-50526367D01*
X134659244Y-51861492D01*
X134648277Y-51865160D01*
X134621841Y-51872672D01*
X134621839Y-51872672D01*
X134621839Y-51872673D01*
X134601642Y-51883012D01*
X134589647Y-51888382D01*
X134568488Y-51896557D01*
X134568485Y-51896559D01*
X134545262Y-51911281D01*
X134535222Y-51917017D01*
X131255892Y-53595956D01*
X131245882Y-53600541D01*
X131218851Y-53611518D01*
X131218832Y-53611528D01*
X131201295Y-53623070D01*
X131189457Y-53629969D01*
X131170763Y-53639540D01*
X131147889Y-53657644D01*
X131138966Y-53664092D01*
X128066633Y-55686140D01*
X128056430Y-55692187D01*
X128032924Y-55704661D01*
X128014657Y-55719562D01*
X128004290Y-55727171D01*
X127984607Y-55740126D01*
X127984606Y-55740127D01*
X127965662Y-55758806D01*
X127956840Y-55766721D01*
X125080954Y-58112582D01*
X125071904Y-58119313D01*
X125048412Y-58135201D01*
X125033077Y-58150710D01*
X125023135Y-58159745D01*
X125006226Y-58173539D01*
X125006222Y-58173543D01*
X124988167Y-58195408D01*
X124980605Y-58203773D01*
X122368497Y-60845341D01*
X122360209Y-60853004D01*
X122338564Y-60871286D01*
X122324944Y-60888367D01*
X122316031Y-60898398D01*
X122300677Y-60913927D01*
X122300668Y-60913937D01*
X122285062Y-60937579D01*
X122278427Y-60946712D01*
X119961318Y-63852914D01*
X119953740Y-63861576D01*
X119934596Y-63881538D01*
X119922480Y-63900516D01*
X119914804Y-63911254D01*
X119900770Y-63928857D01*
X119900769Y-63928859D01*
X119888077Y-63953432D01*
X119882334Y-63963406D01*
X117889074Y-67085853D01*
X117882685Y-67094950D01*
X117865076Y-67117807D01*
X117855607Y-67136915D01*
X117848918Y-67148759D01*
X117837450Y-67166724D01*
X117826975Y-67193588D01*
X117822483Y-67203758D01*
X116182885Y-70512407D01*
X116177272Y-70522535D01*
X116162886Y-70545891D01*
X116162885Y-70545895D01*
X116154972Y-70567192D01*
X116149764Y-70579245D01*
X116139668Y-70599620D01*
X116139668Y-70599622D01*
X116132511Y-70626121D01*
X116128983Y-70637147D01*
X114822912Y-74152736D01*
X114818553Y-74163042D01*
X114806243Y-74188883D01*
X114800950Y-74209765D01*
X114796929Y-74222672D01*
X114789429Y-74242863D01*
X114789428Y-74242869D01*
X114784885Y-74271132D01*
X114782620Y-74282090D01*
X113879494Y-77845511D01*
X113876139Y-77856586D01*
X113866976Y-77882480D01*
X113866974Y-77882487D01*
X113863721Y-77904955D01*
X113861162Y-77917844D01*
X113855589Y-77939838D01*
X113855587Y-77939846D01*
X113855586Y-77939849D01*
X113855586Y-77939854D01*
X113854162Y-77967275D01*
X113853032Y-77978791D01*
X113323010Y-81639864D01*
X113320842Y-81651168D01*
X113314401Y-81678049D01*
X113314400Y-81678058D01*
X113313526Y-81700543D01*
X113312322Y-81713694D01*
X113309096Y-81735983D01*
X113310549Y-81763609D01*
X113310628Y-81775120D01*
X113259756Y-83084228D01*
X113237124Y-83151520D01*
X113181703Y-83195895D01*
X113111090Y-83203262D01*
X113047703Y-83171284D01*
X113031090Y-83152247D01*
X112953731Y-83043220D01*
X112953726Y-83043213D01*
X112767760Y-82835118D01*
X112719210Y-82780790D01*
X112570274Y-82647692D01*
X112456786Y-82546273D01*
X112456779Y-82546268D01*
X112169745Y-82342606D01*
X112169738Y-82342602D01*
X111949669Y-82220975D01*
X111861717Y-82172366D01*
X111861710Y-82172363D01*
X111861706Y-82172361D01*
X111536564Y-82037683D01*
X111467409Y-82017759D01*
X111198368Y-81940250D01*
X111198362Y-81940249D01*
X111198359Y-81940248D01*
X110851389Y-81881296D01*
X110500000Y-81861563D01*
X110148610Y-81881296D01*
X110148609Y-81881296D01*
X109801640Y-81940248D01*
X109801634Y-81940249D01*
X109801632Y-81940250D01*
X109731017Y-81960594D01*
X109463435Y-82037683D01*
X109138293Y-82172361D01*
X109138270Y-82172373D01*
X108830261Y-82342602D01*
X108830254Y-82342606D01*
X108543220Y-82546268D01*
X108543213Y-82546273D01*
X108280790Y-82780790D01*
X108046273Y-83043213D01*
X108046268Y-83043220D01*
X107842606Y-83330254D01*
X107842602Y-83330261D01*
X107672373Y-83638270D01*
X107672361Y-83638293D01*
X107537683Y-83963435D01*
X107440248Y-84301640D01*
X107381296Y-84648609D01*
X107381296Y-84648610D01*
X107361563Y-85000000D01*
X99700500Y-85000000D01*
X99700500Y-59950000D01*
X115986496Y-59950000D01*
X116006457Y-60139927D01*
X116036526Y-60232470D01*
X116065473Y-60321556D01*
X116065476Y-60321561D01*
X116160958Y-60486941D01*
X116160965Y-60486951D01*
X116288744Y-60628864D01*
X116288747Y-60628866D01*
X116443248Y-60741118D01*
X116617712Y-60818794D01*
X116804513Y-60858500D01*
X116995487Y-60858500D01*
X117182288Y-60818794D01*
X117356752Y-60741118D01*
X117511253Y-60628866D01*
X117511255Y-60628864D01*
X117639034Y-60486951D01*
X117639035Y-60486949D01*
X117639040Y-60486944D01*
X117734527Y-60321556D01*
X117793542Y-60139928D01*
X117813504Y-59950000D01*
X117793542Y-59760072D01*
X117734527Y-59578444D01*
X117639040Y-59413056D01*
X117639038Y-59413054D01*
X117639034Y-59413048D01*
X117511255Y-59271135D01*
X117356752Y-59158882D01*
X117182288Y-59081206D01*
X116995487Y-59041500D01*
X116804513Y-59041500D01*
X116617711Y-59081206D01*
X116443247Y-59158882D01*
X116288744Y-59271135D01*
X116160965Y-59413048D01*
X116160958Y-59413058D01*
X116065476Y-59578438D01*
X116065473Y-59578445D01*
X116006457Y-59760072D01*
X115986496Y-59950000D01*
X99700500Y-59950000D01*
X99700500Y-45826500D01*
X99720502Y-45758379D01*
X99774158Y-45711886D01*
X99826500Y-45700500D01*
X110039882Y-45700500D01*
X110113574Y-45669976D01*
X110169976Y-45613574D01*
X110200500Y-45539882D01*
X110200500Y-35326500D01*
X110220502Y-35258379D01*
X110274158Y-35211886D01*
X110326500Y-35200500D01*
X188673500Y-35200500D01*
X188741621Y-35220502D01*
G37*
%TD.AperFunction*%
%TD*%
M02*
