M48
; DRILL file {KiCad 9.0.3} date 2026-03-29T18:17:19-0700
; FORMAT={-:-/ absolute / inch / decimal}
; #@! TF.CreationDate,2026-03-29T18:17:19-07:00
; #@! TF.GenerationSoftware,Kicad,Pcbnew,9.0.3
; #@! TF.FileFunction,Plated,1,4,PTH
FMAT,2
INCH
; #@! TA.AperFunction,Plated,PTH,ViaDrill
T1C0.0157
; #@! TA.AperFunction,Plated,PTH,ComponentDrill
T2C0.0335
; #@! TA.AperFunction,Plated,PTH,ComponentDrill
T3C0.1181
; #@! TA.AperFunction,Plated,PTH,ComponentDrill
T4C0.1260
%
G90
G05
T1
X4.3711Y-4.6181
X4.8937Y-4.6658
X4.9075Y-4.5846
X4.9094Y-4.52
X4.9134Y-4.4705
X4.9313Y-4.6542
X5.0039Y-4.6161
X5.0531Y-4.4764
X5.0571Y-4.5276
X5.1181Y-4.5591
X5.3163Y-4.5465
X5.5362Y-4.6428
X5.5484Y-4.0122
X5.5719Y-4.8413
X5.5719Y-5.0272
X5.5846Y-3.9764
X5.6289Y-5.0047
X5.6575Y-4.0197
X5.6575Y-4.0669
X5.6575Y-4.8508
X5.6614Y-4.9606
X5.663Y-3.8705
X5.7165Y-4.9252
X5.7165Y-4.9646
X5.7181Y-5.1244
X5.7189Y-4.65
X5.7276Y-4.1516
X6.0236Y-4.637
X6.0276Y-4.5984
X6.251Y-4.6024
X6.3287Y-4.5079
X6.3317Y-4.4449
X6.3709Y-4.4626
X6.3736Y-4.5406
X6.4291Y-4.6024
X6.4882Y-5.0075
X6.9764Y-5.874
X6.9772Y-3.0866
T2
X5.6102Y-4.4783
X5.6102Y-4.5571
X5.689Y-4.4783
X5.689Y-4.5571
X5.7677Y-4.4783
X5.7677Y-4.5571
X5.8858Y-4.4843
X5.8858Y-4.563
X5.9646Y-4.4843
X5.9646Y-4.563
X6.0827Y-4.4843
X6.0827Y-4.563
X6.1614Y-4.4843
X6.1614Y-4.563
T3
X4.8199Y-5.5512
X4.8209Y-3.4843
X6.5522Y-5.5512
X6.5531Y-3.4843
T4
X4.1929Y-2.7677
X4.1929Y-6.2717
X7.185Y-2.7677
X7.185Y-6.2717
M30
