%TF.GenerationSoftware,KiCad,Pcbnew,9.0.3*%
%TF.CreationDate,2026-03-29T18:17:19-07:00*%
%TF.ProjectId,XY_Face_V4nb,58595f46-6163-4655-9f56-346e622e6b69,3.0*%
%TF.SameCoordinates,Original*%
%TF.FileFunction,Copper,L3,Inr*%
%TF.FilePolarity,Positive*%
%FSLAX46Y46*%
G04 Gerber Fmt 4.6, Leading zero omitted, Abs format (unit mm)*
G04 Created by KiCad (PCBNEW 9.0.3) date 2026-03-29 18:17:19*
%MOMM*%
%LPD*%
G01*
G04 APERTURE LIST*
G04 Aperture macros list*
%AMRoundRect*
0 Rectangle with rounded corners*
0 $1 Rounding radius*
0 $2 $3 $4 $5 $6 $7 $8 $9 X,Y pos of 4 corners*
0 Add a 4 corners polygon primitive as box body*
4,1,4,$2,$3,$4,$5,$6,$7,$8,$9,$2,$3,0*
0 Add four circle primitives for the rounded corners*
1,1,$1+$1,$2,$3*
1,1,$1+$1,$4,$5*
1,1,$1+$1,$6,$7*
1,1,$1+$1,$8,$9*
0 Add four rect primitives between the rounded corners*
20,1,$1+$1,$2,$3,$4,$5,0*
20,1,$1+$1,$4,$5,$6,$7,0*
20,1,$1+$1,$6,$7,$8,$9,0*
20,1,$1+$1,$8,$9,$2,$3,0*%
G04 Aperture macros list end*
%TA.AperFunction,ComponentPad*%
%ADD10C,5.700000*%
%TD*%
%TA.AperFunction,ComponentPad*%
%ADD11C,5.000000*%
%TD*%
%TA.AperFunction,ComponentPad*%
%ADD12RoundRect,0.250000X-0.350000X-0.575000X0.350000X-0.575000X0.350000X0.575000X-0.350000X0.575000X0*%
%TD*%
%TA.AperFunction,ComponentPad*%
%ADD13O,1.200000X1.650000*%
%TD*%
%TA.AperFunction,ComponentPad*%
%ADD14RoundRect,0.250000X0.350000X0.575000X-0.350000X0.575000X-0.350000X-0.575000X0.350000X-0.575000X0*%
%TD*%
%TA.AperFunction,ViaPad*%
%ADD15C,0.800000*%
%TD*%
%TA.AperFunction,Conductor*%
%ADD16C,1.000000*%
%TD*%
%TA.AperFunction,Conductor*%
%ADD17C,0.250000*%
%TD*%
%TA.AperFunction,Conductor*%
%ADD18C,0.500000*%
%TD*%
G04 APERTURE END LIST*
D10*
%TO.N,unconnected-(J2-Pin_1-Pad1)*%
%TO.C,J2*%
X106500000Y-70300000D03*
%TD*%
%TO.N,unconnected-(J3-Pin_1-Pad1)*%
%TO.C,J3*%
X106500000Y-159300000D03*
%TD*%
%TO.N,unconnected-(J4-Pin_1-Pad1)*%
%TO.C,J4*%
X182500000Y-70300000D03*
%TD*%
%TO.N,unconnected-(J5-Pin_1-Pad1)*%
%TO.C,J5*%
X182500000Y-159300000D03*
%TD*%
D11*
%TO.N,Net-(SC1--)*%
%TO.C,SC2*%
X122425000Y-141000000D03*
%TO.N,GND*%
X166425000Y-141000000D03*
%TD*%
D12*
%TO.N,Net-(J13-Pin_1)*%
%TO.C,J13*%
X149500000Y-113900000D03*
D13*
%TO.N,GND*%
X149500000Y-115900000D03*
%TO.N,Net-(J13-Pin_1)*%
X151500000Y-113900000D03*
%TO.N,GND*%
X151500000Y-115900000D03*
%TD*%
D11*
%TO.N,Net-(D1-A)*%
%TO.C,SC1*%
X122450000Y-88500000D03*
%TO.N,Net-(SC1--)*%
X166450000Y-88500000D03*
%TD*%
D14*
%TO.N,GND*%
%TO.C,CN1*%
X146500001Y-113750001D03*
D13*
%TO.N,SDA*%
X146500001Y-115750001D03*
%TO.N,VSOLAR*%
X144500001Y-113750001D03*
%TO.N,+3V3*%
X144500001Y-115750001D03*
%TO.N,VSOLAR*%
X142500001Y-113750001D03*
%TO.N,SCL*%
X142500001Y-115750001D03*
%TD*%
D12*
%TO.N,/RBF_High*%
%TO.C,J11*%
X154500000Y-115900000D03*
D13*
%TO.N,/RBF_Low*%
X154500000Y-113900000D03*
%TO.N,/RBF_High*%
X156500000Y-115900000D03*
%TO.N,/RBF_Low*%
X156500000Y-113900000D03*
%TD*%
D15*
%TO.N,GND*%
X160825000Y-112900000D03*
X143800000Y-126000000D03*
X111025000Y-117300000D03*
X145240000Y-130160000D03*
X124699788Y-114808242D03*
X128450000Y-115000000D03*
X145260000Y-118110000D03*
X125255477Y-118217426D03*
X143840000Y-98310000D03*
X160750000Y-114500000D03*
%TO.N,+3V3*%
X124300000Y-118512502D03*
X127100000Y-117250000D03*
X145200000Y-125100000D03*
X143700000Y-102100000D03*
X163300000Y-116900000D03*
X143700000Y-103300000D03*
X158775000Y-116900000D03*
X145200000Y-126100000D03*
%TO.N,VSOLAR*%
X141850000Y-101000000D03*
X140620000Y-117926393D03*
X124800000Y-113550000D03*
X128350000Y-113700000D03*
X141525000Y-122970000D03*
X143700000Y-123210000D03*
X140930000Y-101910000D03*
%TO.N,SCL*%
X130000000Y-115800000D03*
X145480000Y-105450000D03*
X135035000Y-115480000D03*
X124650000Y-116450000D03*
%TO.N,SDA*%
X141525000Y-127690000D03*
X142975000Y-127120000D03*
%TO.N,Net-(U3-OUT+)*%
X161890000Y-115330000D03*
X177200000Y-149200000D03*
X161820000Y-113350000D03*
X164800000Y-127190000D03*
X177220000Y-78400000D03*
%TO.N,/RBF_Low*%
X153000000Y-117779000D03*
X153100000Y-116800000D03*
%TD*%
D16*
%TO.N,GND*%
X151500000Y-115900000D02*
X149500000Y-115900000D01*
D17*
%TO.N,+3V3*%
X145200000Y-126100000D02*
X145200000Y-123100000D01*
X158775000Y-116900000D02*
X163300000Y-116900000D01*
X147355000Y-118605000D02*
X144500001Y-115750001D01*
X156814900Y-109274000D02*
X160274000Y-109274000D01*
X143700000Y-106500000D02*
X143426001Y-106773999D01*
X143426001Y-106773999D02*
X143426001Y-114676001D01*
X163300000Y-112300000D02*
X163300000Y-116900000D01*
X143700000Y-102100000D02*
X143700000Y-106500000D01*
X150050000Y-118605000D02*
X147355000Y-118605000D01*
X151500000Y-109750000D02*
X147900000Y-113350000D01*
X157070000Y-118605000D02*
X158775000Y-116900000D01*
X160274000Y-109274000D02*
X163300000Y-112300000D01*
X145200000Y-123100000D02*
X147355000Y-120945000D01*
X147900000Y-113350000D02*
X147900000Y-116455000D01*
X150050000Y-118605000D02*
X157070000Y-118605000D01*
X156305163Y-109783737D02*
X156271426Y-109750000D01*
X156271426Y-109750000D02*
X151500000Y-109750000D01*
X147900000Y-116455000D02*
X150050000Y-118605000D01*
X156305163Y-109783737D02*
X156814900Y-109274000D01*
X143426001Y-114676001D02*
X144500001Y-115750001D01*
X147355000Y-120945000D02*
X147355000Y-118605000D01*
D18*
%TO.N,VSOLAR*%
X138949000Y-115474000D02*
X138949000Y-114497505D01*
X140721503Y-117246503D02*
X138949000Y-115474000D01*
X140620000Y-117926393D02*
X140721503Y-117824890D01*
X140721503Y-117824890D02*
X140721503Y-117246503D01*
X138949000Y-114497505D02*
X139696504Y-113750001D01*
X141765000Y-123210000D02*
X141525000Y-122970000D01*
X139696504Y-113750001D02*
X142500001Y-113750001D01*
X143700000Y-123210000D02*
X141765000Y-123210000D01*
D17*
%TO.N,Net-(U3-OUT+)*%
X166000000Y-96500000D02*
X123000000Y-96500000D01*
X161700000Y-161250000D02*
X123850000Y-161250000D01*
X114250000Y-150050000D02*
X114250000Y-83050000D01*
X169750000Y-134000000D02*
X169750000Y-95750000D01*
X124450000Y-160250000D02*
X114250000Y-150050000D01*
X118750000Y-95500000D02*
X118750000Y-134000000D01*
X168500000Y-91500000D02*
X120500000Y-91500000D01*
X160350000Y-158000000D02*
X125275000Y-158000000D01*
X166750000Y-97250000D02*
X166000000Y-96500000D01*
X165290000Y-127680000D02*
X164800000Y-127190000D01*
X119750000Y-96000000D02*
X119750000Y-133500000D01*
X127500000Y-73500000D02*
X161750000Y-73500000D01*
X126200000Y-67100000D02*
X163350000Y-67100000D01*
X119750000Y-133500000D02*
X121750000Y-135500000D01*
X126450000Y-67700000D02*
X163000000Y-67700000D01*
X162200000Y-70900000D02*
X174250000Y-82950000D01*
X161950000Y-72100000D02*
X173250000Y-83400000D01*
X127250000Y-71500000D02*
X162050000Y-71500000D01*
X165750000Y-97750000D02*
X165500000Y-97500000D01*
X172250000Y-146100000D02*
X160350000Y-158000000D01*
X113750000Y-150350000D02*
X113750000Y-82700000D01*
X121000000Y-137000000D02*
X167500000Y-137000000D01*
X121500000Y-136000000D02*
X167000000Y-136000000D01*
X112750000Y-150850000D02*
X112750000Y-82100000D01*
X122250000Y-132250000D02*
X123000000Y-133000000D01*
X111700000Y-81600000D02*
X126200000Y-67100000D01*
X122250000Y-95000000D02*
X120750000Y-96500000D01*
X121750000Y-132500000D02*
X122750000Y-133500000D01*
X121750000Y-94000000D02*
X119750000Y-96000000D01*
X123250000Y-97750000D02*
X123250000Y-131750000D01*
X161450000Y-160750000D02*
X124150000Y-160750000D01*
X166250000Y-97500000D02*
X165750000Y-97000000D01*
X171750000Y-145750000D02*
X171750000Y-94750000D01*
X120750000Y-133000000D02*
X122250000Y-134500000D01*
X123400000Y-162400000D02*
X112250000Y-151250000D01*
X162400000Y-69600000D02*
X175250000Y-82450000D01*
X174900000Y-78650000D02*
X176970000Y-78650000D01*
X122000000Y-94500000D02*
X120250000Y-96250000D01*
X167250000Y-132750000D02*
X167250000Y-97000000D01*
X121000000Y-92500000D02*
X118250000Y-95250000D01*
X166750000Y-132500000D02*
X166750000Y-97250000D01*
X112250000Y-151250000D02*
X112250000Y-81900000D01*
X165250000Y-132500000D02*
X165750000Y-132000000D01*
X168250000Y-92000000D02*
X120750000Y-92000000D01*
X125275000Y-158000000D02*
X116250000Y-148975000D01*
X160150000Y-157350000D02*
X171750000Y-145750000D01*
X167750000Y-133000000D02*
X167750000Y-96750000D01*
X113250000Y-150650000D02*
X113250000Y-82400000D01*
X126650000Y-69000000D02*
X162700000Y-69000000D01*
X176970000Y-78650000D02*
X177220000Y-78400000D01*
X122000000Y-135000000D02*
X166500000Y-135000000D01*
X165500000Y-97500000D02*
X123500000Y-97500000D01*
X165290000Y-131710000D02*
X165290000Y-127680000D01*
X160700000Y-159100000D02*
X124850000Y-159100000D01*
X167000000Y-136000000D02*
X169250000Y-133750000D01*
X168000000Y-138000000D02*
X171250000Y-134750000D01*
X117250000Y-94750000D02*
X117250000Y-134750000D01*
X124850000Y-159100000D02*
X115250000Y-149500000D01*
X165000000Y-132000000D02*
X165290000Y-131710000D01*
X175250000Y-82450000D02*
X175250000Y-147700000D01*
X167750000Y-137500000D02*
X170750000Y-134500000D01*
X171250000Y-95000000D02*
X168250000Y-92000000D01*
X168000000Y-92500000D02*
X121000000Y-92500000D01*
X161800000Y-72800000D02*
X172750000Y-83750000D01*
X124650000Y-159650000D02*
X114750000Y-149750000D01*
X168750000Y-96250000D02*
X167000000Y-94500000D01*
X120250000Y-96250000D02*
X120250000Y-133250000D01*
X165750000Y-97000000D02*
X123250000Y-97000000D01*
X123250000Y-97000000D02*
X122750000Y-97500000D01*
X121250000Y-93000000D02*
X118750000Y-95500000D01*
X115750000Y-149250000D02*
X115750000Y-83700000D01*
X173750000Y-146900000D02*
X161000000Y-159650000D01*
X123700000Y-161800000D02*
X112750000Y-150850000D01*
X117250000Y-134750000D02*
X120500000Y-138000000D01*
X126450000Y-68400000D02*
X162900000Y-68400000D01*
X115750000Y-83700000D02*
X127350000Y-72100000D01*
X120750000Y-137500000D02*
X167750000Y-137500000D01*
X114750000Y-149750000D02*
X114750000Y-83300000D01*
X122250000Y-97250000D02*
X122250000Y-132250000D01*
X122750000Y-132000000D02*
X123250000Y-132500000D01*
X116750000Y-84250000D02*
X127500000Y-73500000D01*
X116750000Y-134900000D02*
X116750000Y-84250000D01*
X168750000Y-133500000D02*
X168750000Y-96250000D01*
X168250000Y-133250000D02*
X168250000Y-96500000D01*
X167500000Y-137000000D02*
X170250000Y-134250000D01*
X115250000Y-149500000D02*
X115250000Y-83500000D01*
X124150000Y-160750000D02*
X113750000Y-150350000D01*
X161750000Y-73500000D02*
X172250000Y-84000000D01*
X127350000Y-72100000D02*
X161950000Y-72100000D01*
X176750000Y-148450000D02*
X162200000Y-163000000D01*
X121500000Y-93500000D02*
X119250000Y-95750000D01*
X116750000Y-148550000D02*
X125550000Y-157350000D01*
X162200000Y-163000000D02*
X123250000Y-163000000D01*
X119250000Y-133750000D02*
X121500000Y-136000000D01*
X127450000Y-72800000D02*
X161800000Y-72800000D01*
X167000000Y-94500000D02*
X122000000Y-94500000D01*
X123500000Y-132000000D02*
X165000000Y-132000000D01*
X169250000Y-96000000D02*
X167250000Y-94000000D01*
X166000000Y-134000000D02*
X167250000Y-132750000D01*
X166250000Y-96000000D02*
X122750000Y-96000000D01*
X112750000Y-82100000D02*
X126450000Y-68400000D01*
X123250000Y-132500000D02*
X165250000Y-132500000D01*
X170250000Y-134250000D02*
X170250000Y-95500000D01*
X113250000Y-82400000D02*
X126650000Y-69000000D01*
X111750000Y-151500000D02*
X111750000Y-92000000D01*
X170750000Y-95250000D02*
X168000000Y-92500000D01*
X120750000Y-96500000D02*
X120750000Y-133000000D01*
X172750000Y-83750000D02*
X172750000Y-146350000D01*
X171750000Y-94750000D02*
X168500000Y-91500000D01*
X116250000Y-84000000D02*
X127450000Y-72800000D01*
X176250000Y-148250000D02*
X162100000Y-162400000D01*
X119250000Y-95750000D02*
X119250000Y-133750000D01*
X162900000Y-68400000D02*
X176250000Y-81750000D01*
X167750000Y-96750000D02*
X166500000Y-95500000D01*
X174250000Y-82950000D02*
X174250000Y-147200000D01*
X165500000Y-133000000D02*
X166250000Y-132250000D01*
X166250000Y-134500000D02*
X167750000Y-133000000D01*
X118250000Y-134250000D02*
X121000000Y-137000000D01*
X170250000Y-95500000D02*
X167750000Y-93000000D01*
X121750000Y-135500000D02*
X166750000Y-135500000D01*
X122750000Y-96000000D02*
X121750000Y-97000000D01*
X123000000Y-96500000D02*
X122250000Y-97250000D01*
X166750000Y-135500000D02*
X168750000Y-133500000D01*
X127150000Y-70900000D02*
X162200000Y-70900000D01*
X122500000Y-134000000D02*
X166000000Y-134000000D01*
X122500000Y-95500000D02*
X121250000Y-96750000D01*
X173250000Y-146550000D02*
X160700000Y-159100000D01*
X173250000Y-83400000D02*
X173250000Y-146550000D01*
X121750000Y-97000000D02*
X121750000Y-132500000D01*
X120750000Y-92000000D02*
X117750000Y-95000000D01*
X167750000Y-93000000D02*
X121250000Y-93000000D01*
X127000000Y-70300000D02*
X162300000Y-70300000D01*
X114750000Y-83300000D02*
X127150000Y-70900000D01*
X123850000Y-161250000D02*
X113250000Y-150650000D01*
X163000000Y-67700000D02*
X176750000Y-81450000D01*
X162050000Y-71500000D02*
X173750000Y-83200000D01*
X122750000Y-97500000D02*
X122750000Y-132000000D01*
X121250000Y-96750000D02*
X121250000Y-132750000D01*
X161000000Y-159650000D02*
X124650000Y-159650000D01*
X118750000Y-134000000D02*
X121250000Y-136500000D01*
X163350000Y-67100000D02*
X174900000Y-78650000D01*
X123000000Y-133000000D02*
X165500000Y-133000000D01*
X175750000Y-82050000D02*
X175750000Y-147950000D01*
X120500000Y-91500000D02*
X117250000Y-94750000D01*
X118250000Y-95250000D02*
X118250000Y-134250000D01*
X125550000Y-157350000D02*
X160150000Y-157350000D01*
X165750000Y-133500000D02*
X166750000Y-132500000D01*
X167250000Y-97000000D02*
X166250000Y-96000000D01*
X171250000Y-134750000D02*
X171250000Y-95000000D01*
X160500000Y-158600000D02*
X125100000Y-158600000D01*
X116750000Y-134900000D02*
X116750000Y-148550000D01*
X166500000Y-135000000D02*
X168250000Y-133250000D01*
X123250000Y-163000000D02*
X111750000Y-151500000D01*
X117750000Y-134500000D02*
X120750000Y-137500000D01*
X120500000Y-138000000D02*
X168000000Y-138000000D01*
X176250000Y-81750000D02*
X176250000Y-148250000D01*
X115250000Y-83500000D02*
X127250000Y-71500000D01*
X172250000Y-84000000D02*
X172250000Y-146100000D01*
X166250000Y-132250000D02*
X166250000Y-97500000D01*
X162700000Y-69000000D02*
X175750000Y-82050000D01*
X162300000Y-70300000D02*
X174750000Y-82750000D01*
X117750000Y-95000000D02*
X117750000Y-134500000D01*
X120250000Y-133250000D02*
X122000000Y-135000000D01*
X126850000Y-69600000D02*
X162400000Y-69600000D01*
X123500000Y-97500000D02*
X123250000Y-97750000D01*
X174750000Y-147450000D02*
X161450000Y-160750000D01*
X114250000Y-83050000D02*
X127000000Y-70300000D01*
X167250000Y-94000000D02*
X121750000Y-94000000D01*
X121250000Y-136500000D02*
X167250000Y-136500000D01*
X166750000Y-95000000D02*
X122250000Y-95000000D01*
X113750000Y-82700000D02*
X126850000Y-69600000D01*
X168250000Y-96500000D02*
X166750000Y-95000000D01*
X112250000Y-81900000D02*
X126450000Y-67700000D01*
X166500000Y-95500000D02*
X122500000Y-95500000D01*
X121250000Y-132750000D02*
X122500000Y-134000000D01*
X165750000Y-132000000D02*
X165750000Y-97750000D01*
X175750000Y-147950000D02*
X161900000Y-161800000D01*
X174750000Y-82750000D02*
X174750000Y-147450000D01*
X173750000Y-83200000D02*
X173750000Y-146900000D01*
X169250000Y-133750000D02*
X169250000Y-96000000D01*
X162100000Y-162400000D02*
X123400000Y-162400000D01*
X170750000Y-134500000D02*
X170750000Y-95250000D01*
X167500000Y-93500000D02*
X121500000Y-93500000D01*
X172750000Y-146350000D02*
X160500000Y-158600000D01*
X111750000Y-92000000D02*
X111700000Y-91950000D01*
X169750000Y-95750000D02*
X167500000Y-93500000D01*
X161200000Y-160250000D02*
X124450000Y-160250000D01*
X122250000Y-134500000D02*
X166250000Y-134500000D01*
X161900000Y-161800000D02*
X123700000Y-161800000D01*
X125100000Y-158600000D02*
X115750000Y-149250000D01*
X167250000Y-136500000D02*
X169750000Y-134000000D01*
X176750000Y-81450000D02*
X176750000Y-148450000D01*
X122750000Y-133500000D02*
X165750000Y-133500000D01*
X123250000Y-131750000D02*
X123500000Y-132000000D01*
X174250000Y-147200000D02*
X161200000Y-160250000D01*
X116250000Y-148975000D02*
X116250000Y-84000000D01*
X111700000Y-91950000D02*
X111700000Y-81600000D01*
X175250000Y-147700000D02*
X161700000Y-161250000D01*
D16*
%TO.N,/RBF_Low*%
X154223156Y-113900000D02*
X153000000Y-115123156D01*
X153000000Y-115123156D02*
X153000000Y-117779000D01*
X156500000Y-113900000D02*
X154500000Y-113900000D01*
X154500000Y-113900000D02*
X154223156Y-113900000D01*
%TD*%
%TA.AperFunction,Conductor*%
%TO.N,+3V3*%
G36*
X165362178Y-109522079D02*
G01*
X165406318Y-109540509D01*
X165424500Y-109584579D01*
X165424500Y-119437500D01*
X165406194Y-119481694D01*
X165362000Y-119500000D01*
X123648988Y-119500000D01*
X123604794Y-119481694D01*
X123586492Y-119438183D01*
X123579713Y-118817926D01*
X123575504Y-118432742D01*
X123575500Y-118432059D01*
X123575500Y-118138370D01*
X124654977Y-118138370D01*
X124654977Y-118296481D01*
X124654978Y-118296489D01*
X124695898Y-118449206D01*
X124695899Y-118449209D01*
X124712935Y-118478716D01*
X124774957Y-118586142D01*
X124886761Y-118697946D01*
X125023693Y-118777003D01*
X125023696Y-118777004D01*
X125117158Y-118802047D01*
X125176420Y-118817926D01*
X125176421Y-118817926D01*
X125334533Y-118817926D01*
X125334534Y-118817926D01*
X125487261Y-118777003D01*
X125624193Y-118697946D01*
X125735997Y-118586142D01*
X125815054Y-118449210D01*
X125855977Y-118296483D01*
X125855977Y-118138369D01*
X125827192Y-118030943D01*
X125815055Y-117985645D01*
X125815054Y-117985642D01*
X125813717Y-117983326D01*
X125735997Y-117848710D01*
X125624193Y-117736906D01*
X125499202Y-117664743D01*
X125487260Y-117657848D01*
X125487257Y-117657847D01*
X125334540Y-117616927D01*
X125334535Y-117616926D01*
X125334534Y-117616926D01*
X125176420Y-117616926D01*
X125176419Y-117616926D01*
X125176413Y-117616927D01*
X125023696Y-117657847D01*
X125023693Y-117657848D01*
X124927441Y-117713419D01*
X124886761Y-117736906D01*
X124886760Y-117736907D01*
X124886756Y-117736910D01*
X124774961Y-117848705D01*
X124774958Y-117848709D01*
X124695899Y-117985642D01*
X124695898Y-117985645D01*
X124654978Y-118138362D01*
X124654977Y-118138370D01*
X123575500Y-118138370D01*
X123575500Y-116370944D01*
X124049500Y-116370944D01*
X124049500Y-116529055D01*
X124049501Y-116529063D01*
X124090421Y-116681780D01*
X124090422Y-116681783D01*
X124113909Y-116722464D01*
X124169480Y-116818716D01*
X124281284Y-116930520D01*
X124404786Y-117001823D01*
X124418216Y-117009577D01*
X124418219Y-117009578D01*
X124511681Y-117034621D01*
X124570943Y-117050500D01*
X124570944Y-117050500D01*
X124729056Y-117050500D01*
X124729057Y-117050500D01*
X124881784Y-117009577D01*
X125018716Y-116930520D01*
X125130520Y-116818716D01*
X125209577Y-116681784D01*
X125250500Y-116529057D01*
X125250500Y-116370943D01*
X125213930Y-116234462D01*
X125209578Y-116218219D01*
X125209577Y-116218216D01*
X125130520Y-116081284D01*
X125018716Y-115969480D01*
X124922464Y-115913909D01*
X124881783Y-115890422D01*
X124881780Y-115890421D01*
X124729063Y-115849501D01*
X124729058Y-115849500D01*
X124729057Y-115849500D01*
X124570943Y-115849500D01*
X124570942Y-115849500D01*
X124570936Y-115849501D01*
X124418219Y-115890421D01*
X124418216Y-115890422D01*
X124321964Y-115945993D01*
X124281284Y-115969480D01*
X124281283Y-115969481D01*
X124281279Y-115969484D01*
X124169484Y-116081279D01*
X124169481Y-116081283D01*
X124169480Y-116081284D01*
X124161206Y-116095615D01*
X124090422Y-116218216D01*
X124090421Y-116218219D01*
X124049501Y-116370936D01*
X124049500Y-116370944D01*
X123575500Y-116370944D01*
X123575500Y-115720944D01*
X129399500Y-115720944D01*
X129399500Y-115879055D01*
X129399501Y-115879063D01*
X129440421Y-116031780D01*
X129440422Y-116031783D01*
X129463909Y-116072464D01*
X129519480Y-116168716D01*
X129631284Y-116280520D01*
X129758868Y-116354180D01*
X129768216Y-116359577D01*
X129768219Y-116359578D01*
X129810638Y-116370944D01*
X129920943Y-116400500D01*
X129920944Y-116400500D01*
X130079056Y-116400500D01*
X130079057Y-116400500D01*
X130231784Y-116359577D01*
X130368716Y-116280520D01*
X130480520Y-116168716D01*
X130559577Y-116031784D01*
X130600500Y-115879057D01*
X130600500Y-115720943D01*
X130580925Y-115647887D01*
X130559578Y-115568219D01*
X130559577Y-115568216D01*
X130480520Y-115431284D01*
X130450180Y-115400944D01*
X134434500Y-115400944D01*
X134434500Y-115559055D01*
X134434501Y-115559063D01*
X134475421Y-115711780D01*
X134475422Y-115711783D01*
X134475423Y-115711784D01*
X134554480Y-115848716D01*
X134666284Y-115960520D01*
X134789718Y-116031784D01*
X134803216Y-116039577D01*
X134803219Y-116039578D01*
X134896681Y-116064621D01*
X134955943Y-116080500D01*
X134955944Y-116080500D01*
X135114056Y-116080500D01*
X135114057Y-116080500D01*
X135266784Y-116039577D01*
X135403716Y-115960520D01*
X135515520Y-115848716D01*
X135594577Y-115711784D01*
X135635500Y-115559057D01*
X135635500Y-115400943D01*
X135603514Y-115281570D01*
X135594578Y-115248219D01*
X135594577Y-115248216D01*
X135580965Y-115224639D01*
X135515520Y-115111284D01*
X135403716Y-114999480D01*
X135272836Y-114923917D01*
X135266783Y-114920422D01*
X135266780Y-114920421D01*
X135114063Y-114879501D01*
X135114058Y-114879500D01*
X135114057Y-114879500D01*
X134955943Y-114879500D01*
X134955942Y-114879500D01*
X134955936Y-114879501D01*
X134803219Y-114920421D01*
X134803216Y-114920422D01*
X134724956Y-114965606D01*
X134666284Y-114999480D01*
X134666283Y-114999481D01*
X134666279Y-114999484D01*
X134554484Y-115111279D01*
X134554481Y-115111283D01*
X134554480Y-115111284D01*
X134534541Y-115145820D01*
X134475422Y-115248216D01*
X134475421Y-115248219D01*
X134434501Y-115400936D01*
X134434500Y-115400944D01*
X130450180Y-115400944D01*
X130368716Y-115319480D01*
X130250007Y-115250944D01*
X130231783Y-115240422D01*
X130231780Y-115240421D01*
X130079063Y-115199501D01*
X130079058Y-115199500D01*
X130079057Y-115199500D01*
X129920943Y-115199500D01*
X129920942Y-115199500D01*
X129920936Y-115199501D01*
X129768219Y-115240421D01*
X129768216Y-115240422D01*
X129672266Y-115295819D01*
X129631284Y-115319480D01*
X129631283Y-115319481D01*
X129631279Y-115319484D01*
X129519484Y-115431279D01*
X129519481Y-115431283D01*
X129440422Y-115568216D01*
X129440421Y-115568219D01*
X129399501Y-115720936D01*
X129399500Y-115720944D01*
X123575500Y-115720944D01*
X123575500Y-114729186D01*
X124099288Y-114729186D01*
X124099288Y-114887297D01*
X124099289Y-114887305D01*
X124140209Y-115040022D01*
X124140210Y-115040025D01*
X124151499Y-115059578D01*
X124219268Y-115176958D01*
X124331072Y-115288762D01*
X124468004Y-115367819D01*
X124468007Y-115367820D01*
X124561469Y-115392863D01*
X124620731Y-115408742D01*
X124620732Y-115408742D01*
X124778844Y-115408742D01*
X124778845Y-115408742D01*
X124931572Y-115367819D01*
X125068504Y-115288762D01*
X125180308Y-115176958D01*
X125259365Y-115040026D01*
X125300288Y-114887299D01*
X125300288Y-114729185D01*
X125265381Y-114598909D01*
X125259366Y-114576461D01*
X125259365Y-114576458D01*
X125249689Y-114559699D01*
X125180308Y-114439526D01*
X125068504Y-114327722D01*
X125061382Y-114323610D01*
X124929468Y-114247449D01*
X124900348Y-114209499D01*
X124906592Y-114162073D01*
X124944541Y-114132953D01*
X125031784Y-114109577D01*
X125168716Y-114030520D01*
X125280520Y-113918716D01*
X125359577Y-113781784D01*
X125400500Y-113629057D01*
X125400500Y-113620944D01*
X127749500Y-113620944D01*
X127749500Y-113779055D01*
X127749501Y-113779063D01*
X127790421Y-113931780D01*
X127790422Y-113931783D01*
X127813909Y-113972464D01*
X127869480Y-114068716D01*
X127981284Y-114180520D01*
X128099314Y-114248664D01*
X128118216Y-114259577D01*
X128118219Y-114259578D01*
X128270937Y-114300499D01*
X128270941Y-114300499D01*
X128270943Y-114300500D01*
X128270945Y-114300500D01*
X128274219Y-114300931D01*
X128315647Y-114324846D01*
X128328031Y-114371051D01*
X128304116Y-114412479D01*
X128282241Y-114423267D01*
X128218219Y-114440421D01*
X128218216Y-114440422D01*
X128140505Y-114485289D01*
X128081284Y-114519480D01*
X128081283Y-114519481D01*
X128081279Y-114519484D01*
X127969484Y-114631279D01*
X127969481Y-114631283D01*
X127969480Y-114631284D01*
X127911457Y-114731784D01*
X127890423Y-114768216D01*
X127849501Y-114920936D01*
X127849500Y-114920944D01*
X127849500Y-115079055D01*
X127849501Y-115079063D01*
X127890421Y-115231780D01*
X127890422Y-115231783D01*
X127901480Y-115250936D01*
X127969480Y-115368716D01*
X128081284Y-115480520D01*
X128217312Y-115559055D01*
X128218216Y-115559577D01*
X128218219Y-115559578D01*
X128250457Y-115568216D01*
X128370943Y-115600500D01*
X128370944Y-115600500D01*
X128529056Y-115600500D01*
X128529057Y-115600500D01*
X128681784Y-115559577D01*
X128818716Y-115480520D01*
X128930520Y-115368716D01*
X129009577Y-115231784D01*
X129050500Y-115079057D01*
X129050500Y-114920943D01*
X129009577Y-114768216D01*
X128930520Y-114631284D01*
X128818716Y-114519480D01*
X128704081Y-114453296D01*
X128681783Y-114440422D01*
X128681780Y-114440421D01*
X128673476Y-114438196D01*
X138498500Y-114438196D01*
X138498500Y-114442053D01*
X138498500Y-115533313D01*
X138507853Y-115568216D01*
X138516504Y-115600500D01*
X138529201Y-115647887D01*
X138529202Y-115647890D01*
X138529203Y-115647892D01*
X138588508Y-115750610D01*
X138588515Y-115750619D01*
X140223332Y-117385435D01*
X140241638Y-117429629D01*
X140223333Y-117473823D01*
X140139481Y-117557676D01*
X140060422Y-117694609D01*
X140060421Y-117694612D01*
X140019501Y-117847329D01*
X140019500Y-117847337D01*
X140019500Y-118005448D01*
X140019501Y-118005456D01*
X140060421Y-118158173D01*
X140060422Y-118158176D01*
X140060423Y-118158177D01*
X140139480Y-118295109D01*
X140251284Y-118406913D01*
X140375652Y-118478716D01*
X140388216Y-118485970D01*
X140388219Y-118485971D01*
X140481681Y-118511014D01*
X140540943Y-118526893D01*
X140540944Y-118526893D01*
X140699056Y-118526893D01*
X140699057Y-118526893D01*
X140851784Y-118485970D01*
X140988716Y-118406913D01*
X141100520Y-118295109D01*
X141179577Y-118158177D01*
X141213669Y-118030944D01*
X144659500Y-118030944D01*
X144659500Y-118189055D01*
X144659501Y-118189063D01*
X144700421Y-118341780D01*
X144700422Y-118341783D01*
X144700423Y-118341784D01*
X144779480Y-118478716D01*
X144891284Y-118590520D01*
X145028216Y-118669577D01*
X145028219Y-118669578D01*
X145121681Y-118694621D01*
X145180943Y-118710500D01*
X145180944Y-118710500D01*
X145339056Y-118710500D01*
X145339057Y-118710500D01*
X145491784Y-118669577D01*
X145628716Y-118590520D01*
X145740520Y-118478716D01*
X145819577Y-118341784D01*
X145860500Y-118189057D01*
X145860500Y-118030943D01*
X145819577Y-117878216D01*
X145740520Y-117741284D01*
X145628716Y-117629480D01*
X145532464Y-117573909D01*
X145491783Y-117550422D01*
X145491780Y-117550421D01*
X145339063Y-117509501D01*
X145339058Y-117509500D01*
X145339057Y-117509500D01*
X145180943Y-117509500D01*
X145180942Y-117509500D01*
X145180936Y-117509501D01*
X145028219Y-117550421D01*
X145028216Y-117550422D01*
X144931964Y-117605993D01*
X144891284Y-117629480D01*
X144891283Y-117629481D01*
X144891279Y-117629484D01*
X144779484Y-117741279D01*
X144779481Y-117741283D01*
X144700422Y-117878216D01*
X144700421Y-117878219D01*
X144659501Y-118030936D01*
X144659500Y-118030944D01*
X141213669Y-118030944D01*
X141219100Y-118010677D01*
X141219101Y-118010672D01*
X141220498Y-118005456D01*
X141220500Y-118005450D01*
X141220500Y-117847336D01*
X141192082Y-117741279D01*
X141179578Y-117694612D01*
X141178009Y-117690824D01*
X141178891Y-117690458D01*
X141172003Y-117664743D01*
X141172003Y-117187195D01*
X141172002Y-117187189D01*
X141143432Y-117080567D01*
X141143431Y-117080563D01*
X141141302Y-117072617D01*
X141141302Y-117072616D01*
X141081993Y-116969889D01*
X139417806Y-115305702D01*
X139399500Y-115261508D01*
X139399500Y-114709996D01*
X139417806Y-114665802D01*
X139864801Y-114218807D01*
X139908995Y-114200501D01*
X141685191Y-114200501D01*
X141729385Y-114218807D01*
X141742931Y-114239080D01*
X141780153Y-114328941D01*
X141790606Y-114354178D01*
X141790607Y-114354181D01*
X141878211Y-114485289D01*
X141989712Y-114596790D01*
X142120820Y-114684394D01*
X142120821Y-114684394D01*
X142120822Y-114684395D01*
X142129243Y-114687883D01*
X142139805Y-114692258D01*
X142173630Y-114726083D01*
X142173631Y-114773918D01*
X142139805Y-114807744D01*
X142120823Y-114815606D01*
X142120820Y-114815607D01*
X141989712Y-114903211D01*
X141878211Y-115014712D01*
X141790607Y-115145820D01*
X141730263Y-115291505D01*
X141699501Y-115446158D01*
X141699501Y-116053843D01*
X141730263Y-116208496D01*
X141790607Y-116354181D01*
X141878211Y-116485289D01*
X141989712Y-116596790D01*
X142120820Y-116684394D01*
X142120821Y-116684394D01*
X142120822Y-116684395D01*
X142266504Y-116744738D01*
X142421159Y-116775501D01*
X142578843Y-116775501D01*
X142733498Y-116744738D01*
X142879180Y-116684395D01*
X143010290Y-116596790D01*
X143121790Y-116485290D01*
X143209395Y-116354180D01*
X143269738Y-116208498D01*
X143282424Y-116144720D01*
X143309000Y-116104947D01*
X143355916Y-116095615D01*
X143395690Y-116122191D01*
X143405453Y-116147137D01*
X143419283Y-116234455D01*
X143419283Y-116234456D01*
X143473177Y-116400326D01*
X143473178Y-116400328D01*
X143552353Y-116555716D01*
X143654872Y-116696821D01*
X143778180Y-116820129D01*
X143919285Y-116922648D01*
X144074673Y-117001823D01*
X144074679Y-117001825D01*
X144240540Y-117055716D01*
X144240549Y-117055719D01*
X144246001Y-117056582D01*
X144246001Y-116094101D01*
X144335957Y-116146038D01*
X144444049Y-116175001D01*
X144555953Y-116175001D01*
X144664045Y-116146038D01*
X144754001Y-116094101D01*
X144754001Y-117056581D01*
X144759452Y-117055719D01*
X144759461Y-117055716D01*
X144925322Y-117001825D01*
X144925328Y-117001823D01*
X145080716Y-116922648D01*
X145221821Y-116820129D01*
X145345129Y-116696821D01*
X145447648Y-116555716D01*
X145526823Y-116400328D01*
X145526824Y-116400326D01*
X145580716Y-116234462D01*
X145594547Y-116147137D01*
X145619541Y-116106351D01*
X145666055Y-116095183D01*
X145706841Y-116120177D01*
X145717577Y-116144720D01*
X145730263Y-116208497D01*
X145790607Y-116354181D01*
X145878211Y-116485289D01*
X145989712Y-116596790D01*
X146120820Y-116684394D01*
X146120821Y-116684394D01*
X146120822Y-116684395D01*
X146266504Y-116744738D01*
X146421159Y-116775501D01*
X146578843Y-116775501D01*
X146733498Y-116744738D01*
X146879180Y-116684395D01*
X147010290Y-116596790D01*
X147121790Y-116485290D01*
X147209395Y-116354180D01*
X147269738Y-116208498D01*
X147300501Y-116053843D01*
X147300501Y-115446159D01*
X147269738Y-115291504D01*
X147209395Y-115145822D01*
X147186873Y-115112116D01*
X147121790Y-115014712D01*
X147010289Y-114903211D01*
X146988169Y-114888431D01*
X146960212Y-114869751D01*
X146933637Y-114829978D01*
X146942969Y-114783062D01*
X146974292Y-114758792D01*
X147062883Y-114727794D01*
X147172151Y-114647151D01*
X147252794Y-114537883D01*
X147297647Y-114409700D01*
X147300501Y-114379267D01*
X147300501Y-113270737D01*
X148699500Y-113270737D01*
X148699500Y-114529262D01*
X148702353Y-114559696D01*
X148702354Y-114559701D01*
X148747207Y-114687882D01*
X148747207Y-114687883D01*
X148777922Y-114729500D01*
X148827850Y-114797150D01*
X148901875Y-114851783D01*
X148937116Y-114877792D01*
X148937117Y-114877792D01*
X148937118Y-114877793D01*
X149025706Y-114908791D01*
X149061374Y-114940666D01*
X149064057Y-114988426D01*
X149039787Y-115019751D01*
X148989711Y-115053210D01*
X148878210Y-115164711D01*
X148790606Y-115295819D01*
X148730262Y-115441504D01*
X148699500Y-115596157D01*
X148699500Y-116203842D01*
X148730262Y-116358495D01*
X148790606Y-116504180D01*
X148878210Y-116635288D01*
X148989711Y-116746789D01*
X149120819Y-116834393D01*
X149120820Y-116834393D01*
X149120821Y-116834394D01*
X149266503Y-116894737D01*
X149421158Y-116925500D01*
X149578842Y-116925500D01*
X149733497Y-116894737D01*
X149879179Y-116834394D01*
X150010289Y-116746789D01*
X150121789Y-116635289D01*
X150126474Y-116628276D01*
X150166247Y-116601701D01*
X150178441Y-116600500D01*
X150821559Y-116600500D01*
X150865753Y-116618806D01*
X150873526Y-116628277D01*
X150878210Y-116635288D01*
X150989711Y-116746789D01*
X151120819Y-116834393D01*
X151120820Y-116834393D01*
X151120821Y-116834394D01*
X151266503Y-116894737D01*
X151421158Y-116925500D01*
X151578842Y-116925500D01*
X151733497Y-116894737D01*
X151879179Y-116834394D01*
X152010289Y-116746789D01*
X152121789Y-116635289D01*
X152185033Y-116540636D01*
X152224807Y-116514061D01*
X152271723Y-116523393D01*
X152298299Y-116563167D01*
X152299500Y-116575360D01*
X152299500Y-117847993D01*
X152326419Y-117983326D01*
X152326419Y-117983327D01*
X152379225Y-118110811D01*
X152379226Y-118110813D01*
X152397639Y-118138370D01*
X152455886Y-118225542D01*
X152553458Y-118323114D01*
X152668189Y-118399775D01*
X152795672Y-118452580D01*
X152931007Y-118479500D01*
X153068993Y-118479500D01*
X153204328Y-118452580D01*
X153331811Y-118399775D01*
X153446542Y-118323114D01*
X153544114Y-118225542D01*
X153620775Y-118110811D01*
X153673580Y-117983328D01*
X153700500Y-117847993D01*
X153700500Y-116814531D01*
X153718806Y-116770337D01*
X153763000Y-116752031D01*
X153807194Y-116770337D01*
X153813282Y-116777411D01*
X153827850Y-116797150D01*
X153937118Y-116877793D01*
X154065301Y-116922646D01*
X154095734Y-116925500D01*
X154095738Y-116925500D01*
X154904262Y-116925500D01*
X154904266Y-116925500D01*
X154934699Y-116922646D01*
X155062882Y-116877793D01*
X155172150Y-116797150D01*
X155252793Y-116687882D01*
X155297646Y-116559699D01*
X155300500Y-116529266D01*
X155300500Y-115270734D01*
X155297646Y-115240301D01*
X155252793Y-115112118D01*
X155252177Y-115111284D01*
X155214016Y-115059577D01*
X155172150Y-115002850D01*
X155092797Y-114944285D01*
X155062883Y-114922207D01*
X154974292Y-114891208D01*
X154938624Y-114859333D01*
X154935942Y-114811572D01*
X154960211Y-114780249D01*
X155010289Y-114746789D01*
X155121789Y-114635289D01*
X155126474Y-114628276D01*
X155166247Y-114601701D01*
X155178441Y-114600500D01*
X155821559Y-114600500D01*
X155865753Y-114618806D01*
X155873526Y-114628277D01*
X155878210Y-114635288D01*
X155989711Y-114746789D01*
X156120819Y-114834393D01*
X156120820Y-114834393D01*
X156120821Y-114834394D01*
X156130558Y-114838427D01*
X156139804Y-114842257D01*
X156173629Y-114876082D01*
X156173630Y-114923917D01*
X156139804Y-114957743D01*
X156120822Y-114965605D01*
X156120819Y-114965606D01*
X155989711Y-115053210D01*
X155878210Y-115164711D01*
X155790606Y-115295819D01*
X155730262Y-115441504D01*
X155699500Y-115596157D01*
X155699500Y-116203842D01*
X155730262Y-116358495D01*
X155790606Y-116504180D01*
X155878210Y-116635288D01*
X155989711Y-116746789D01*
X156120819Y-116834393D01*
X156120820Y-116834393D01*
X156120821Y-116834394D01*
X156266503Y-116894737D01*
X156421158Y-116925500D01*
X156578842Y-116925500D01*
X156733497Y-116894737D01*
X156879179Y-116834394D01*
X157010289Y-116746789D01*
X157121789Y-116635289D01*
X157209394Y-116504179D01*
X157269737Y-116358497D01*
X157300500Y-116203842D01*
X157300500Y-115596158D01*
X157269737Y-115441503D01*
X157209394Y-115295821D01*
X157192633Y-115270737D01*
X157179408Y-115250944D01*
X161289500Y-115250944D01*
X161289500Y-115409055D01*
X161289501Y-115409063D01*
X161330421Y-115561780D01*
X161330422Y-115561783D01*
X161330423Y-115561784D01*
X161409480Y-115698716D01*
X161521284Y-115810520D01*
X161639995Y-115879057D01*
X161658216Y-115889577D01*
X161658219Y-115889578D01*
X161661373Y-115890423D01*
X161810943Y-115930500D01*
X161810944Y-115930500D01*
X161969056Y-115930500D01*
X161969057Y-115930500D01*
X162121784Y-115889577D01*
X162258716Y-115810520D01*
X162370520Y-115698716D01*
X162449577Y-115561784D01*
X162490500Y-115409057D01*
X162490500Y-115250943D01*
X162462333Y-115145822D01*
X162449578Y-115098219D01*
X162449577Y-115098216D01*
X162438519Y-115079063D01*
X162370520Y-114961284D01*
X162258716Y-114849480D01*
X162138802Y-114780248D01*
X162121783Y-114770422D01*
X162121780Y-114770421D01*
X161969063Y-114729501D01*
X161969058Y-114729500D01*
X161969057Y-114729500D01*
X161810943Y-114729500D01*
X161810942Y-114729500D01*
X161810936Y-114729501D01*
X161658219Y-114770421D01*
X161658216Y-114770422D01*
X161586943Y-114811572D01*
X161521284Y-114849480D01*
X161521283Y-114849481D01*
X161521279Y-114849484D01*
X161409484Y-114961279D01*
X161409481Y-114961283D01*
X161409480Y-114961284D01*
X161398374Y-114980520D01*
X161330422Y-115098216D01*
X161330421Y-115098219D01*
X161289501Y-115250936D01*
X161289500Y-115250944D01*
X157179408Y-115250944D01*
X157121789Y-115164711D01*
X157010288Y-115053210D01*
X156879180Y-114965606D01*
X156879177Y-114965605D01*
X156860196Y-114957743D01*
X156826371Y-114923918D01*
X156826370Y-114876083D01*
X156860196Y-114842257D01*
X156861151Y-114841861D01*
X156879179Y-114834394D01*
X157010289Y-114746789D01*
X157121789Y-114635289D01*
X157209394Y-114504179D01*
X157217218Y-114485290D01*
X157243871Y-114420944D01*
X160149500Y-114420944D01*
X160149500Y-114579055D01*
X160149501Y-114579063D01*
X160190421Y-114731780D01*
X160190422Y-114731783D01*
X160190423Y-114731784D01*
X160269480Y-114868716D01*
X160381284Y-114980520D01*
X160507188Y-115053210D01*
X160518216Y-115059577D01*
X160518219Y-115059578D01*
X160590909Y-115079055D01*
X160670943Y-115100500D01*
X160670944Y-115100500D01*
X160829056Y-115100500D01*
X160829057Y-115100500D01*
X160981784Y-115059577D01*
X161118716Y-114980520D01*
X161230520Y-114868716D01*
X161309577Y-114731784D01*
X161350500Y-114579057D01*
X161350500Y-114420943D01*
X161318343Y-114300931D01*
X161309578Y-114268219D01*
X161309577Y-114268216D01*
X161297587Y-114247449D01*
X161230520Y-114131284D01*
X161118716Y-114019480D01*
X160999235Y-113950498D01*
X160981783Y-113940422D01*
X160981780Y-113940421D01*
X160829063Y-113899501D01*
X160829058Y-113899500D01*
X160829057Y-113899500D01*
X160670943Y-113899500D01*
X160670942Y-113899500D01*
X160670936Y-113899501D01*
X160518219Y-113940421D01*
X160518216Y-113940422D01*
X160421964Y-113995993D01*
X160381284Y-114019480D01*
X160381283Y-114019481D01*
X160381279Y-114019484D01*
X160269484Y-114131279D01*
X160269481Y-114131283D01*
X160269480Y-114131284D01*
X160259401Y-114148742D01*
X160190422Y-114268216D01*
X160190421Y-114268219D01*
X160149501Y-114420936D01*
X160149500Y-114420944D01*
X157243871Y-114420944D01*
X157255474Y-114392932D01*
X157255475Y-114392930D01*
X157261134Y-114379267D01*
X157269737Y-114358497D01*
X157300500Y-114203842D01*
X157300500Y-113596158D01*
X157269737Y-113441503D01*
X157209394Y-113295821D01*
X157206509Y-113291504D01*
X157121789Y-113164711D01*
X157010288Y-113053210D01*
X156879180Y-112965606D01*
X156733495Y-112905262D01*
X156597172Y-112878146D01*
X156578842Y-112874500D01*
X156421158Y-112874500D01*
X156266504Y-112905262D01*
X156120819Y-112965606D01*
X155989711Y-113053210D01*
X155878210Y-113164711D01*
X155873526Y-113171723D01*
X155833753Y-113198299D01*
X155821559Y-113199500D01*
X155178441Y-113199500D01*
X155134247Y-113181194D01*
X155126474Y-113171723D01*
X155121789Y-113164711D01*
X155010288Y-113053210D01*
X154879180Y-112965606D01*
X154733495Y-112905262D01*
X154578842Y-112874500D01*
X154421158Y-112874500D01*
X154266504Y-112905262D01*
X154120819Y-112965606D01*
X153989711Y-113053210D01*
X153878210Y-113164711D01*
X153790607Y-113295819D01*
X153790604Y-113295823D01*
X153762785Y-113362984D01*
X153749237Y-113383260D01*
X152455887Y-114676611D01*
X152455885Y-114676613D01*
X152394679Y-114768216D01*
X152379225Y-114791343D01*
X152379224Y-114791346D01*
X152347177Y-114868716D01*
X152330578Y-114908791D01*
X152326419Y-114918831D01*
X152299500Y-115054162D01*
X152299500Y-115224639D01*
X152281194Y-115268833D01*
X152237000Y-115287139D01*
X152192806Y-115268833D01*
X152185033Y-115259362D01*
X152121789Y-115164711D01*
X152010288Y-115053210D01*
X151879180Y-114965606D01*
X151879177Y-114965605D01*
X151860196Y-114957743D01*
X151826371Y-114923918D01*
X151826370Y-114876083D01*
X151860196Y-114842257D01*
X151861151Y-114841861D01*
X151879179Y-114834394D01*
X152010289Y-114746789D01*
X152121789Y-114635289D01*
X152209394Y-114504179D01*
X152269737Y-114358497D01*
X152300500Y-114203842D01*
X152300500Y-113596158D01*
X152269737Y-113441503D01*
X152209394Y-113295821D01*
X152206509Y-113291504D01*
X152121789Y-113164711D01*
X152010288Y-113053210D01*
X151879180Y-112965606D01*
X151733495Y-112905262D01*
X151578842Y-112874500D01*
X151421158Y-112874500D01*
X151266504Y-112905262D01*
X151120819Y-112965606D01*
X150989711Y-113053210D01*
X150878210Y-113164711D01*
X150790606Y-113295819D01*
X150730262Y-113441504D01*
X150699500Y-113596157D01*
X150699500Y-114203842D01*
X150730262Y-114358495D01*
X150790606Y-114504180D01*
X150878210Y-114635288D01*
X150989711Y-114746789D01*
X151120819Y-114834393D01*
X151120820Y-114834393D01*
X151120821Y-114834394D01*
X151130558Y-114838427D01*
X151139804Y-114842257D01*
X151173629Y-114876082D01*
X151173630Y-114923917D01*
X151139804Y-114957743D01*
X151120822Y-114965605D01*
X151120819Y-114965606D01*
X150989711Y-115053210D01*
X150878210Y-115164711D01*
X150873526Y-115171723D01*
X150833753Y-115198299D01*
X150821559Y-115199500D01*
X150178441Y-115199500D01*
X150134247Y-115181194D01*
X150126474Y-115171723D01*
X150121789Y-115164711D01*
X150010288Y-115053210D01*
X149988168Y-115038430D01*
X149960211Y-115019750D01*
X149933636Y-114979977D01*
X149942968Y-114933061D01*
X149974291Y-114908791D01*
X150062882Y-114877793D01*
X150172150Y-114797150D01*
X150252793Y-114687882D01*
X150297646Y-114559699D01*
X150300500Y-114529266D01*
X150300500Y-113270734D01*
X150297646Y-113240301D01*
X150252793Y-113112118D01*
X150243481Y-113099501D01*
X150209317Y-113053210D01*
X150172150Y-113002850D01*
X150062882Y-112922207D01*
X150014459Y-112905263D01*
X149934701Y-112877354D01*
X149934696Y-112877353D01*
X149914699Y-112875478D01*
X149904266Y-112874500D01*
X149095734Y-112874500D01*
X149086124Y-112875401D01*
X149065303Y-112877353D01*
X149065298Y-112877354D01*
X148937117Y-112922207D01*
X148937116Y-112922207D01*
X148827850Y-113002850D01*
X148747207Y-113112116D01*
X148747207Y-113112117D01*
X148702354Y-113240298D01*
X148702353Y-113240303D01*
X148699500Y-113270737D01*
X147300501Y-113270737D01*
X147300501Y-113120735D01*
X147297647Y-113090302D01*
X147252794Y-112962119D01*
X147172151Y-112852851D01*
X147128918Y-112820944D01*
X160224500Y-112820944D01*
X160224500Y-112979055D01*
X160224501Y-112979063D01*
X160265421Y-113131780D01*
X160265422Y-113131783D01*
X160273528Y-113145823D01*
X160344480Y-113268716D01*
X160456284Y-113380520D01*
X160581488Y-113452806D01*
X160593216Y-113459577D01*
X160593219Y-113459578D01*
X160635638Y-113470944D01*
X160745943Y-113500500D01*
X160745944Y-113500500D01*
X160904056Y-113500500D01*
X160904057Y-113500500D01*
X161056784Y-113459577D01*
X161134243Y-113414855D01*
X161181669Y-113408612D01*
X161219619Y-113437732D01*
X161225863Y-113452806D01*
X161260421Y-113581780D01*
X161260422Y-113581783D01*
X161283027Y-113620936D01*
X161339480Y-113718716D01*
X161451284Y-113830520D01*
X161570762Y-113899500D01*
X161588216Y-113909577D01*
X161588219Y-113909578D01*
X161622323Y-113918716D01*
X161740943Y-113950500D01*
X161740944Y-113950500D01*
X161899056Y-113950500D01*
X161899057Y-113950500D01*
X162051784Y-113909577D01*
X162188716Y-113830520D01*
X162300520Y-113718716D01*
X162379577Y-113581784D01*
X162420500Y-113429057D01*
X162420500Y-113270943D01*
X162386974Y-113145822D01*
X162379578Y-113118219D01*
X162379577Y-113118216D01*
X162363459Y-113090299D01*
X162300520Y-112981284D01*
X162188716Y-112869480D01*
X162089619Y-112812267D01*
X162051783Y-112790422D01*
X162051780Y-112790421D01*
X161899063Y-112749501D01*
X161899058Y-112749500D01*
X161899057Y-112749500D01*
X161740943Y-112749500D01*
X161740942Y-112749500D01*
X161740936Y-112749501D01*
X161588219Y-112790421D01*
X161588216Y-112790423D01*
X161510756Y-112835144D01*
X161463329Y-112841387D01*
X161425379Y-112812267D01*
X161419136Y-112797193D01*
X161417321Y-112790421D01*
X161400423Y-112727354D01*
X161384578Y-112668219D01*
X161384577Y-112668216D01*
X161305520Y-112531284D01*
X161193716Y-112419480D01*
X161097464Y-112363909D01*
X161056783Y-112340422D01*
X161056780Y-112340421D01*
X160904063Y-112299501D01*
X160904058Y-112299500D01*
X160904057Y-112299500D01*
X160745943Y-112299500D01*
X160745942Y-112299500D01*
X160745936Y-112299501D01*
X160593219Y-112340421D01*
X160593216Y-112340422D01*
X160496964Y-112395993D01*
X160456284Y-112419480D01*
X160456283Y-112419481D01*
X160456279Y-112419484D01*
X160344484Y-112531279D01*
X160344481Y-112531283D01*
X160265422Y-112668216D01*
X160265421Y-112668219D01*
X160224501Y-112820936D01*
X160224500Y-112820944D01*
X147128918Y-112820944D01*
X147062883Y-112772208D01*
X147014460Y-112755264D01*
X146934702Y-112727355D01*
X146934697Y-112727354D01*
X146914700Y-112725479D01*
X146904267Y-112724501D01*
X146095735Y-112724501D01*
X146086125Y-112725402D01*
X146065304Y-112727354D01*
X146065299Y-112727355D01*
X145937118Y-112772208D01*
X145937117Y-112772208D01*
X145827851Y-112852851D01*
X145747208Y-112962117D01*
X145747208Y-112962118D01*
X145702355Y-113090299D01*
X145702354Y-113090304D01*
X145699501Y-113120738D01*
X145699501Y-114379263D01*
X145702354Y-114409697D01*
X145702355Y-114409702D01*
X145747208Y-114537883D01*
X145747208Y-114537884D01*
X145777600Y-114579063D01*
X145827851Y-114647151D01*
X145888969Y-114692258D01*
X145937117Y-114727793D01*
X145937118Y-114727793D01*
X145937119Y-114727794D01*
X146025707Y-114758792D01*
X146061375Y-114790667D01*
X146064058Y-114838427D01*
X146039788Y-114869752D01*
X145989712Y-114903211D01*
X145878211Y-115014712D01*
X145790607Y-115145820D01*
X145730263Y-115291504D01*
X145717577Y-115355281D01*
X145691000Y-115395054D01*
X145644084Y-115404386D01*
X145604311Y-115377809D01*
X145594547Y-115352864D01*
X145580716Y-115265539D01*
X145526824Y-115099675D01*
X145526823Y-115099673D01*
X145447648Y-114944285D01*
X145345129Y-114803180D01*
X145221821Y-114679872D01*
X145110385Y-114598909D01*
X145085391Y-114558122D01*
X145096558Y-114511608D01*
X145102923Y-114504156D01*
X145121790Y-114485290D01*
X145209395Y-114354180D01*
X145269738Y-114208498D01*
X145300501Y-114053843D01*
X145300501Y-113446159D01*
X145269738Y-113291504D01*
X145209395Y-113145822D01*
X145205787Y-113140423D01*
X145121790Y-113014712D01*
X145010289Y-112903211D01*
X144879181Y-112815607D01*
X144733496Y-112755263D01*
X144578843Y-112724501D01*
X144421159Y-112724501D01*
X144266505Y-112755263D01*
X144120820Y-112815607D01*
X143989712Y-112903211D01*
X143878211Y-113014712D01*
X143790607Y-113145820D01*
X143730263Y-113291505D01*
X143699501Y-113446158D01*
X143699501Y-114053843D01*
X143730263Y-114208496D01*
X143790607Y-114354181D01*
X143878211Y-114485289D01*
X143897073Y-114504151D01*
X143915379Y-114548345D01*
X143897073Y-114592539D01*
X143889616Y-114598908D01*
X143778188Y-114679865D01*
X143778180Y-114679872D01*
X143654872Y-114803180D01*
X143552353Y-114944285D01*
X143473178Y-115099673D01*
X143473177Y-115099675D01*
X143419283Y-115265544D01*
X143405453Y-115352865D01*
X143380459Y-115393651D01*
X143333945Y-115404817D01*
X143293159Y-115379823D01*
X143282424Y-115355280D01*
X143269738Y-115291505D01*
X143261134Y-115270734D01*
X143209395Y-115145822D01*
X143186873Y-115112116D01*
X143121790Y-115014712D01*
X143010289Y-114903211D01*
X142879181Y-114815607D01*
X142879178Y-114815606D01*
X142860197Y-114807744D01*
X142826372Y-114773919D01*
X142826371Y-114726084D01*
X142860197Y-114692258D01*
X142861152Y-114691862D01*
X142879180Y-114684395D01*
X143010290Y-114596790D01*
X143121790Y-114485290D01*
X143209395Y-114354180D01*
X143269738Y-114208498D01*
X143300501Y-114053843D01*
X143300501Y-113446159D01*
X143269738Y-113291504D01*
X143209395Y-113145822D01*
X143205787Y-113140423D01*
X143121790Y-113014712D01*
X143010289Y-112903211D01*
X142879181Y-112815607D01*
X142733496Y-112755263D01*
X142578843Y-112724501D01*
X142421159Y-112724501D01*
X142266505Y-112755263D01*
X142120820Y-112815607D01*
X141989712Y-112903211D01*
X141878211Y-113014712D01*
X141790607Y-113145820D01*
X141790606Y-113145823D01*
X141775920Y-113181279D01*
X141742932Y-113260919D01*
X141709109Y-113294743D01*
X141685191Y-113299501D01*
X139637195Y-113299501D01*
X139637194Y-113299501D01*
X139637188Y-113299502D01*
X139522622Y-113330200D01*
X139522618Y-113330202D01*
X139487461Y-113350500D01*
X139487460Y-113350499D01*
X139419893Y-113389509D01*
X139419884Y-113389516D01*
X138588515Y-114220885D01*
X138588508Y-114220894D01*
X138529204Y-114323610D01*
X138529200Y-114323621D01*
X138528101Y-114327726D01*
X138527329Y-114330606D01*
X138498500Y-114438196D01*
X128673476Y-114438196D01*
X128529058Y-114399499D01*
X128525773Y-114399067D01*
X128484347Y-114375147D01*
X128471969Y-114328941D01*
X128495889Y-114287515D01*
X128517752Y-114276734D01*
X128581784Y-114259577D01*
X128718716Y-114180520D01*
X128830520Y-114068716D01*
X128909577Y-113931784D01*
X128950500Y-113779057D01*
X128950500Y-113620943D01*
X128934621Y-113561681D01*
X128909578Y-113468219D01*
X128909577Y-113468216D01*
X128904589Y-113459577D01*
X128830520Y-113331284D01*
X128718716Y-113219480D01*
X128622464Y-113163909D01*
X128581783Y-113140422D01*
X128581780Y-113140421D01*
X128429063Y-113099501D01*
X128429058Y-113099500D01*
X128429057Y-113099500D01*
X128270943Y-113099500D01*
X128270942Y-113099500D01*
X128270936Y-113099501D01*
X128118219Y-113140421D01*
X128118216Y-113140422D01*
X128047442Y-113181284D01*
X127981284Y-113219480D01*
X127981283Y-113219481D01*
X127981279Y-113219484D01*
X127869484Y-113331279D01*
X127869481Y-113331283D01*
X127869480Y-113331284D01*
X127858386Y-113350500D01*
X127790422Y-113468216D01*
X127790421Y-113468219D01*
X127749501Y-113620936D01*
X127749500Y-113620944D01*
X125400500Y-113620944D01*
X125400500Y-113470943D01*
X125378680Y-113389509D01*
X125359578Y-113318219D01*
X125359577Y-113318216D01*
X125280520Y-113181284D01*
X125168716Y-113069480D01*
X125072464Y-113013909D01*
X125031783Y-112990422D01*
X125031780Y-112990421D01*
X124879063Y-112949501D01*
X124879058Y-112949500D01*
X124879057Y-112949500D01*
X124720943Y-112949500D01*
X124720942Y-112949500D01*
X124720936Y-112949501D01*
X124568219Y-112990421D01*
X124568216Y-112990422D01*
X124471964Y-113045993D01*
X124431284Y-113069480D01*
X124431283Y-113069481D01*
X124431279Y-113069484D01*
X124319484Y-113181279D01*
X124319481Y-113181283D01*
X124319480Y-113181284D01*
X124308963Y-113199500D01*
X124240422Y-113318216D01*
X124240421Y-113318219D01*
X124199501Y-113470936D01*
X124199500Y-113470944D01*
X124199500Y-113629055D01*
X124199501Y-113629063D01*
X124240421Y-113781780D01*
X124240422Y-113781783D01*
X124240423Y-113781784D01*
X124319480Y-113918716D01*
X124431284Y-114030520D01*
X124568216Y-114109577D01*
X124570319Y-114110791D01*
X124599439Y-114148742D01*
X124593196Y-114196168D01*
X124555246Y-114225288D01*
X124468006Y-114248664D01*
X124468004Y-114248664D01*
X124400713Y-114287515D01*
X124331072Y-114327722D01*
X124331071Y-114327723D01*
X124331067Y-114327726D01*
X124219272Y-114439521D01*
X124219269Y-114439525D01*
X124219268Y-114439526D01*
X124217809Y-114442053D01*
X124140210Y-114576458D01*
X124140209Y-114576461D01*
X124099289Y-114729178D01*
X124099288Y-114729186D01*
X123575500Y-114729186D01*
X123575500Y-109467377D01*
X123593806Y-109423183D01*
X123638000Y-109404877D01*
X123638101Y-109404877D01*
X165362178Y-109522079D01*
G37*
%TD.AperFunction*%
%TD*%
M02*
