%TF.GenerationSoftware,KiCad,Pcbnew,9.0.3*%
%TF.CreationDate,2026-03-29T18:17:19-07:00*%
%TF.ProjectId,XY_Face_V4nb,58595f46-6163-4655-9f56-346e622e6b69,3.0*%
%TF.SameCoordinates,Original*%
%TF.FileFunction,Legend,Top*%
%TF.FilePolarity,Positive*%
%FSLAX46Y46*%
G04 Gerber Fmt 4.6, Leading zero omitted, Abs format (unit mm)*
G04 Created by KiCad (PCBNEW 9.0.3) date 2026-03-29 18:17:19*
%MOMM*%
%LPD*%
G01*
G04 APERTURE LIST*
G04 Aperture macros list*
%AMRoundRect*
0 Rectangle with rounded corners*
0 $1 Rounding radius*
0 $2 $3 $4 $5 $6 $7 $8 $9 X,Y pos of 4 corners*
0 Add a 4 corners polygon primitive as box body*
4,1,4,$2,$3,$4,$5,$6,$7,$8,$9,$2,$3,0*
0 Add four circle primitives for the rounded corners*
1,1,$1+$1,$2,$3*
1,1,$1+$1,$4,$5*
1,1,$1+$1,$6,$7*
1,1,$1+$1,$8,$9*
0 Add four rect primitives between the rounded corners*
20,1,$1+$1,$2,$3,$4,$5,0*
20,1,$1+$1,$4,$5,$6,$7,0*
20,1,$1+$1,$6,$7,$8,$9,0*
20,1,$1+$1,$8,$9,$2,$3,0*%
G04 Aperture macros list end*
%ADD10C,0.150000*%
%ADD11C,0.100000*%
%ADD12C,0.120000*%
%ADD13C,0.200000*%
%ADD14C,0.250000*%
%ADD15C,5.700000*%
%ADD16RoundRect,0.625000X0.625000X-0.625000X0.625000X0.625000X-0.625000X0.625000X-0.625000X-0.625000X0*%
%ADD17RoundRect,0.087500X-0.087500X0.250000X-0.087500X-0.250000X0.087500X-0.250000X0.087500X0.250000X0*%
%ADD18R,2.500000X1.700000*%
%ADD19C,5.000000*%
%ADD20RoundRect,0.250000X-0.350000X-0.575000X0.350000X-0.575000X0.350000X0.575000X-0.350000X0.575000X0*%
%ADD21O,1.200000X1.650000*%
%ADD22R,0.850000X0.790000*%
%ADD23R,0.790000X0.850000*%
%ADD24RoundRect,0.140000X0.170000X-0.140000X0.170000X0.140000X-0.170000X0.140000X-0.170000X-0.140000X0*%
%ADD25RoundRect,0.140000X-0.140000X-0.170000X0.140000X-0.170000X0.140000X0.170000X-0.140000X0.170000X0*%
%ADD26RoundRect,0.135000X-0.135000X-0.185000X0.135000X-0.185000X0.135000X0.185000X-0.135000X0.185000X0*%
%ADD27RoundRect,0.140000X0.140000X0.170000X-0.140000X0.170000X-0.140000X-0.170000X0.140000X-0.170000X0*%
%ADD28RoundRect,0.218750X0.218750X0.256250X-0.218750X0.256250X-0.218750X-0.256250X0.218750X-0.256250X0*%
%ADD29RoundRect,0.075000X-0.650000X-0.075000X0.650000X-0.075000X0.650000X0.075000X-0.650000X0.075000X0*%
%ADD30RoundRect,0.250000X0.350000X0.575000X-0.350000X0.575000X-0.350000X-0.575000X0.350000X-0.575000X0*%
G04 APERTURE END LIST*
D10*
X110348095Y-116192438D02*
X110252857Y-116144819D01*
X110252857Y-116144819D02*
X110110000Y-116144819D01*
X110110000Y-116144819D02*
X109967143Y-116192438D01*
X109967143Y-116192438D02*
X109871905Y-116287676D01*
X109871905Y-116287676D02*
X109824286Y-116382914D01*
X109824286Y-116382914D02*
X109776667Y-116573390D01*
X109776667Y-116573390D02*
X109776667Y-116716247D01*
X109776667Y-116716247D02*
X109824286Y-116906723D01*
X109824286Y-116906723D02*
X109871905Y-117001961D01*
X109871905Y-117001961D02*
X109967143Y-117097200D01*
X109967143Y-117097200D02*
X110110000Y-117144819D01*
X110110000Y-117144819D02*
X110205238Y-117144819D01*
X110205238Y-117144819D02*
X110348095Y-117097200D01*
X110348095Y-117097200D02*
X110395714Y-117049580D01*
X110395714Y-117049580D02*
X110395714Y-116716247D01*
X110395714Y-116716247D02*
X110205238Y-116716247D01*
X110824286Y-117144819D02*
X110824286Y-116144819D01*
X110824286Y-116144819D02*
X111395714Y-117144819D01*
X111395714Y-117144819D02*
X111395714Y-116144819D01*
X111871905Y-117144819D02*
X111871905Y-116144819D01*
X111871905Y-116144819D02*
X112110000Y-116144819D01*
X112110000Y-116144819D02*
X112252857Y-116192438D01*
X112252857Y-116192438D02*
X112348095Y-116287676D01*
X112348095Y-116287676D02*
X112395714Y-116382914D01*
X112395714Y-116382914D02*
X112443333Y-116573390D01*
X112443333Y-116573390D02*
X112443333Y-116716247D01*
X112443333Y-116716247D02*
X112395714Y-116906723D01*
X112395714Y-116906723D02*
X112348095Y-117001961D01*
X112348095Y-117001961D02*
X112252857Y-117097200D01*
X112252857Y-117097200D02*
X112110000Y-117144819D01*
X112110000Y-117144819D02*
X111871905Y-117144819D01*
X130523922Y-116109819D02*
X131095350Y-116109819D01*
X130809636Y-117109819D02*
X130809636Y-116109819D01*
X131428684Y-117109819D02*
X131428684Y-116109819D01*
X131428684Y-116109819D02*
X131762017Y-116824104D01*
X131762017Y-116824104D02*
X132095350Y-116109819D01*
X132095350Y-116109819D02*
X132095350Y-117109819D01*
X132571541Y-117109819D02*
X132571541Y-116109819D01*
X132571541Y-116109819D02*
X132952493Y-116109819D01*
X132952493Y-116109819D02*
X133047731Y-116157438D01*
X133047731Y-116157438D02*
X133095350Y-116205057D01*
X133095350Y-116205057D02*
X133142969Y-116300295D01*
X133142969Y-116300295D02*
X133142969Y-116443152D01*
X133142969Y-116443152D02*
X133095350Y-116538390D01*
X133095350Y-116538390D02*
X133047731Y-116586009D01*
X133047731Y-116586009D02*
X132952493Y-116633628D01*
X132952493Y-116633628D02*
X132571541Y-116633628D01*
X134095350Y-117109819D02*
X133523922Y-117109819D01*
X133809636Y-117109819D02*
X133809636Y-116109819D01*
X133809636Y-116109819D02*
X133714398Y-116252676D01*
X133714398Y-116252676D02*
X133619160Y-116347914D01*
X133619160Y-116347914D02*
X133523922Y-116395533D01*
X135047731Y-117109819D02*
X134476303Y-117109819D01*
X134762017Y-117109819D02*
X134762017Y-116109819D01*
X134762017Y-116109819D02*
X134666779Y-116252676D01*
X134666779Y-116252676D02*
X134571541Y-116347914D01*
X134571541Y-116347914D02*
X134476303Y-116395533D01*
X135428684Y-116205057D02*
X135476303Y-116157438D01*
X135476303Y-116157438D02*
X135571541Y-116109819D01*
X135571541Y-116109819D02*
X135809636Y-116109819D01*
X135809636Y-116109819D02*
X135904874Y-116157438D01*
X135904874Y-116157438D02*
X135952493Y-116205057D01*
X135952493Y-116205057D02*
X136000112Y-116300295D01*
X136000112Y-116300295D02*
X136000112Y-116395533D01*
X136000112Y-116395533D02*
X135952493Y-116538390D01*
X135952493Y-116538390D02*
X135381065Y-117109819D01*
X135381065Y-117109819D02*
X136000112Y-117109819D01*
X115974874Y-116164295D02*
X116241541Y-116964295D01*
X116241541Y-116964295D02*
X116508207Y-116164295D01*
X116774874Y-116545247D02*
X117041540Y-116545247D01*
X117155826Y-116964295D02*
X116774874Y-116964295D01*
X116774874Y-116964295D02*
X116774874Y-116164295D01*
X116774874Y-116164295D02*
X117155826Y-116164295D01*
X117498684Y-116964295D02*
X117498684Y-116164295D01*
X117498684Y-116164295D02*
X117765350Y-116735723D01*
X117765350Y-116735723D02*
X118032017Y-116164295D01*
X118032017Y-116164295D02*
X118032017Y-116964295D01*
X118793922Y-116964295D02*
X118412970Y-116964295D01*
X118412970Y-116964295D02*
X118412970Y-116164295D01*
X119403446Y-116164295D02*
X119251065Y-116164295D01*
X119251065Y-116164295D02*
X119174874Y-116202390D01*
X119174874Y-116202390D02*
X119136779Y-116240485D01*
X119136779Y-116240485D02*
X119060589Y-116354771D01*
X119060589Y-116354771D02*
X119022493Y-116507152D01*
X119022493Y-116507152D02*
X119022493Y-116811914D01*
X119022493Y-116811914D02*
X119060589Y-116888104D01*
X119060589Y-116888104D02*
X119098684Y-116926200D01*
X119098684Y-116926200D02*
X119174874Y-116964295D01*
X119174874Y-116964295D02*
X119327255Y-116964295D01*
X119327255Y-116964295D02*
X119403446Y-116926200D01*
X119403446Y-116926200D02*
X119441541Y-116888104D01*
X119441541Y-116888104D02*
X119479636Y-116811914D01*
X119479636Y-116811914D02*
X119479636Y-116621438D01*
X119479636Y-116621438D02*
X119441541Y-116545247D01*
X119441541Y-116545247D02*
X119403446Y-116507152D01*
X119403446Y-116507152D02*
X119327255Y-116469057D01*
X119327255Y-116469057D02*
X119174874Y-116469057D01*
X119174874Y-116469057D02*
X119098684Y-116507152D01*
X119098684Y-116507152D02*
X119060589Y-116545247D01*
X119060589Y-116545247D02*
X119022493Y-116621438D01*
X119974875Y-116164295D02*
X120051065Y-116164295D01*
X120051065Y-116164295D02*
X120127256Y-116202390D01*
X120127256Y-116202390D02*
X120165351Y-116240485D01*
X120165351Y-116240485D02*
X120203446Y-116316676D01*
X120203446Y-116316676D02*
X120241541Y-116469057D01*
X120241541Y-116469057D02*
X120241541Y-116659533D01*
X120241541Y-116659533D02*
X120203446Y-116811914D01*
X120203446Y-116811914D02*
X120165351Y-116888104D01*
X120165351Y-116888104D02*
X120127256Y-116926200D01*
X120127256Y-116926200D02*
X120051065Y-116964295D01*
X120051065Y-116964295D02*
X119974875Y-116964295D01*
X119974875Y-116964295D02*
X119898684Y-116926200D01*
X119898684Y-116926200D02*
X119860589Y-116888104D01*
X119860589Y-116888104D02*
X119822494Y-116811914D01*
X119822494Y-116811914D02*
X119784398Y-116659533D01*
X119784398Y-116659533D02*
X119784398Y-116469057D01*
X119784398Y-116469057D02*
X119822494Y-116316676D01*
X119822494Y-116316676D02*
X119860589Y-116240485D01*
X119860589Y-116240485D02*
X119898684Y-116202390D01*
X119898684Y-116202390D02*
X119974875Y-116164295D01*
X120508208Y-116164295D02*
X121003446Y-116164295D01*
X121003446Y-116164295D02*
X120736780Y-116469057D01*
X120736780Y-116469057D02*
X120851065Y-116469057D01*
X120851065Y-116469057D02*
X120927256Y-116507152D01*
X120927256Y-116507152D02*
X120965351Y-116545247D01*
X120965351Y-116545247D02*
X121003446Y-116621438D01*
X121003446Y-116621438D02*
X121003446Y-116811914D01*
X121003446Y-116811914D02*
X120965351Y-116888104D01*
X120965351Y-116888104D02*
X120927256Y-116926200D01*
X120927256Y-116926200D02*
X120851065Y-116964295D01*
X120851065Y-116964295D02*
X120622494Y-116964295D01*
X120622494Y-116964295D02*
X120546303Y-116926200D01*
X120546303Y-116926200D02*
X120508208Y-116888104D01*
X121765351Y-116964295D02*
X121308208Y-116964295D01*
X121536780Y-116964295D02*
X121536780Y-116164295D01*
X121536780Y-116164295D02*
X121460589Y-116278580D01*
X121460589Y-116278580D02*
X121384399Y-116354771D01*
X121384399Y-116354771D02*
X121308208Y-116392866D01*
X164724762Y-114814819D02*
X164724762Y-113814819D01*
X164724762Y-113814819D02*
X164962857Y-113814819D01*
X164962857Y-113814819D02*
X165105714Y-113862438D01*
X165105714Y-113862438D02*
X165200952Y-113957676D01*
X165200952Y-113957676D02*
X165248571Y-114052914D01*
X165248571Y-114052914D02*
X165296190Y-114243390D01*
X165296190Y-114243390D02*
X165296190Y-114386247D01*
X165296190Y-114386247D02*
X165248571Y-114576723D01*
X165248571Y-114576723D02*
X165200952Y-114671961D01*
X165200952Y-114671961D02*
X165105714Y-114767200D01*
X165105714Y-114767200D02*
X164962857Y-114814819D01*
X164962857Y-114814819D02*
X164724762Y-114814819D01*
X166296190Y-114814819D02*
X165962857Y-114338628D01*
X165724762Y-114814819D02*
X165724762Y-113814819D01*
X165724762Y-113814819D02*
X166105714Y-113814819D01*
X166105714Y-113814819D02*
X166200952Y-113862438D01*
X166200952Y-113862438D02*
X166248571Y-113910057D01*
X166248571Y-113910057D02*
X166296190Y-114005295D01*
X166296190Y-114005295D02*
X166296190Y-114148152D01*
X166296190Y-114148152D02*
X166248571Y-114243390D01*
X166248571Y-114243390D02*
X166200952Y-114291009D01*
X166200952Y-114291009D02*
X166105714Y-114338628D01*
X166105714Y-114338628D02*
X165724762Y-114338628D01*
X166581905Y-113814819D02*
X166915238Y-114814819D01*
X166915238Y-114814819D02*
X167248571Y-113814819D01*
X167534286Y-113910057D02*
X167581905Y-113862438D01*
X167581905Y-113862438D02*
X167677143Y-113814819D01*
X167677143Y-113814819D02*
X167915238Y-113814819D01*
X167915238Y-113814819D02*
X168010476Y-113862438D01*
X168010476Y-113862438D02*
X168058095Y-113910057D01*
X168058095Y-113910057D02*
X168105714Y-114005295D01*
X168105714Y-114005295D02*
X168105714Y-114100533D01*
X168105714Y-114100533D02*
X168058095Y-114243390D01*
X168058095Y-114243390D02*
X167486667Y-114814819D01*
X167486667Y-114814819D02*
X168105714Y-114814819D01*
X168962857Y-113814819D02*
X168772381Y-113814819D01*
X168772381Y-113814819D02*
X168677143Y-113862438D01*
X168677143Y-113862438D02*
X168629524Y-113910057D01*
X168629524Y-113910057D02*
X168534286Y-114052914D01*
X168534286Y-114052914D02*
X168486667Y-114243390D01*
X168486667Y-114243390D02*
X168486667Y-114624342D01*
X168486667Y-114624342D02*
X168534286Y-114719580D01*
X168534286Y-114719580D02*
X168581905Y-114767200D01*
X168581905Y-114767200D02*
X168677143Y-114814819D01*
X168677143Y-114814819D02*
X168867619Y-114814819D01*
X168867619Y-114814819D02*
X168962857Y-114767200D01*
X168962857Y-114767200D02*
X169010476Y-114719580D01*
X169010476Y-114719580D02*
X169058095Y-114624342D01*
X169058095Y-114624342D02*
X169058095Y-114386247D01*
X169058095Y-114386247D02*
X169010476Y-114291009D01*
X169010476Y-114291009D02*
X168962857Y-114243390D01*
X168962857Y-114243390D02*
X168867619Y-114195771D01*
X168867619Y-114195771D02*
X168677143Y-114195771D01*
X168677143Y-114195771D02*
X168581905Y-114243390D01*
X168581905Y-114243390D02*
X168534286Y-114291009D01*
X168534286Y-114291009D02*
X168486667Y-114386247D01*
X169677143Y-113814819D02*
X169772381Y-113814819D01*
X169772381Y-113814819D02*
X169867619Y-113862438D01*
X169867619Y-113862438D02*
X169915238Y-113910057D01*
X169915238Y-113910057D02*
X169962857Y-114005295D01*
X169962857Y-114005295D02*
X170010476Y-114195771D01*
X170010476Y-114195771D02*
X170010476Y-114433866D01*
X170010476Y-114433866D02*
X169962857Y-114624342D01*
X169962857Y-114624342D02*
X169915238Y-114719580D01*
X169915238Y-114719580D02*
X169867619Y-114767200D01*
X169867619Y-114767200D02*
X169772381Y-114814819D01*
X169772381Y-114814819D02*
X169677143Y-114814819D01*
X169677143Y-114814819D02*
X169581905Y-114767200D01*
X169581905Y-114767200D02*
X169534286Y-114719580D01*
X169534286Y-114719580D02*
X169486667Y-114624342D01*
X169486667Y-114624342D02*
X169439048Y-114433866D01*
X169439048Y-114433866D02*
X169439048Y-114195771D01*
X169439048Y-114195771D02*
X169486667Y-114005295D01*
X169486667Y-114005295D02*
X169534286Y-113910057D01*
X169534286Y-113910057D02*
X169581905Y-113862438D01*
X169581905Y-113862438D02*
X169677143Y-113814819D01*
X170915238Y-113814819D02*
X170439048Y-113814819D01*
X170439048Y-113814819D02*
X170391429Y-114291009D01*
X170391429Y-114291009D02*
X170439048Y-114243390D01*
X170439048Y-114243390D02*
X170534286Y-114195771D01*
X170534286Y-114195771D02*
X170772381Y-114195771D01*
X170772381Y-114195771D02*
X170867619Y-114243390D01*
X170867619Y-114243390D02*
X170915238Y-114291009D01*
X170915238Y-114291009D02*
X170962857Y-114386247D01*
X170962857Y-114386247D02*
X170962857Y-114624342D01*
X170962857Y-114624342D02*
X170915238Y-114719580D01*
X170915238Y-114719580D02*
X170867619Y-114767200D01*
X170867619Y-114767200D02*
X170772381Y-114814819D01*
X170772381Y-114814819D02*
X170534286Y-114814819D01*
X170534286Y-114814819D02*
X170439048Y-114767200D01*
X170439048Y-114767200D02*
X170391429Y-114719580D01*
X115533333Y-112364819D02*
X115866666Y-113364819D01*
X115866666Y-113364819D02*
X116199999Y-112364819D01*
X116485714Y-113317200D02*
X116628571Y-113364819D01*
X116628571Y-113364819D02*
X116866666Y-113364819D01*
X116866666Y-113364819D02*
X116961904Y-113317200D01*
X116961904Y-113317200D02*
X117009523Y-113269580D01*
X117009523Y-113269580D02*
X117057142Y-113174342D01*
X117057142Y-113174342D02*
X117057142Y-113079104D01*
X117057142Y-113079104D02*
X117009523Y-112983866D01*
X117009523Y-112983866D02*
X116961904Y-112936247D01*
X116961904Y-112936247D02*
X116866666Y-112888628D01*
X116866666Y-112888628D02*
X116676190Y-112841009D01*
X116676190Y-112841009D02*
X116580952Y-112793390D01*
X116580952Y-112793390D02*
X116533333Y-112745771D01*
X116533333Y-112745771D02*
X116485714Y-112650533D01*
X116485714Y-112650533D02*
X116485714Y-112555295D01*
X116485714Y-112555295D02*
X116533333Y-112460057D01*
X116533333Y-112460057D02*
X116580952Y-112412438D01*
X116580952Y-112412438D02*
X116676190Y-112364819D01*
X116676190Y-112364819D02*
X116914285Y-112364819D01*
X116914285Y-112364819D02*
X117057142Y-112412438D01*
X117676190Y-112364819D02*
X117866666Y-112364819D01*
X117866666Y-112364819D02*
X117961904Y-112412438D01*
X117961904Y-112412438D02*
X118057142Y-112507676D01*
X118057142Y-112507676D02*
X118104761Y-112698152D01*
X118104761Y-112698152D02*
X118104761Y-113031485D01*
X118104761Y-113031485D02*
X118057142Y-113221961D01*
X118057142Y-113221961D02*
X117961904Y-113317200D01*
X117961904Y-113317200D02*
X117866666Y-113364819D01*
X117866666Y-113364819D02*
X117676190Y-113364819D01*
X117676190Y-113364819D02*
X117580952Y-113317200D01*
X117580952Y-113317200D02*
X117485714Y-113221961D01*
X117485714Y-113221961D02*
X117438095Y-113031485D01*
X117438095Y-113031485D02*
X117438095Y-112698152D01*
X117438095Y-112698152D02*
X117485714Y-112507676D01*
X117485714Y-112507676D02*
X117580952Y-112412438D01*
X117580952Y-112412438D02*
X117676190Y-112364819D01*
X119009523Y-113364819D02*
X118533333Y-113364819D01*
X118533333Y-113364819D02*
X118533333Y-112364819D01*
X119295238Y-113079104D02*
X119771428Y-113079104D01*
X119200000Y-113364819D02*
X119533333Y-112364819D01*
X119533333Y-112364819D02*
X119866666Y-113364819D01*
X120771428Y-113364819D02*
X120438095Y-112888628D01*
X120200000Y-113364819D02*
X120200000Y-112364819D01*
X120200000Y-112364819D02*
X120580952Y-112364819D01*
X120580952Y-112364819D02*
X120676190Y-112412438D01*
X120676190Y-112412438D02*
X120723809Y-112460057D01*
X120723809Y-112460057D02*
X120771428Y-112555295D01*
X120771428Y-112555295D02*
X120771428Y-112698152D01*
X120771428Y-112698152D02*
X120723809Y-112793390D01*
X120723809Y-112793390D02*
X120676190Y-112841009D01*
X120676190Y-112841009D02*
X120580952Y-112888628D01*
X120580952Y-112888628D02*
X120200000Y-112888628D01*
X106166666Y-65954819D02*
X106166666Y-66669104D01*
X106166666Y-66669104D02*
X106119047Y-66811961D01*
X106119047Y-66811961D02*
X106023809Y-66907200D01*
X106023809Y-66907200D02*
X105880952Y-66954819D01*
X105880952Y-66954819D02*
X105785714Y-66954819D01*
X106595238Y-66050057D02*
X106642857Y-66002438D01*
X106642857Y-66002438D02*
X106738095Y-65954819D01*
X106738095Y-65954819D02*
X106976190Y-65954819D01*
X106976190Y-65954819D02*
X107071428Y-66002438D01*
X107071428Y-66002438D02*
X107119047Y-66050057D01*
X107119047Y-66050057D02*
X107166666Y-66145295D01*
X107166666Y-66145295D02*
X107166666Y-66240533D01*
X107166666Y-66240533D02*
X107119047Y-66383390D01*
X107119047Y-66383390D02*
X106547619Y-66954819D01*
X106547619Y-66954819D02*
X107166666Y-66954819D01*
X106166666Y-154954819D02*
X106166666Y-155669104D01*
X106166666Y-155669104D02*
X106119047Y-155811961D01*
X106119047Y-155811961D02*
X106023809Y-155907200D01*
X106023809Y-155907200D02*
X105880952Y-155954819D01*
X105880952Y-155954819D02*
X105785714Y-155954819D01*
X106547619Y-154954819D02*
X107166666Y-154954819D01*
X107166666Y-154954819D02*
X106833333Y-155335771D01*
X106833333Y-155335771D02*
X106976190Y-155335771D01*
X106976190Y-155335771D02*
X107071428Y-155383390D01*
X107071428Y-155383390D02*
X107119047Y-155431009D01*
X107119047Y-155431009D02*
X107166666Y-155526247D01*
X107166666Y-155526247D02*
X107166666Y-155764342D01*
X107166666Y-155764342D02*
X107119047Y-155859580D01*
X107119047Y-155859580D02*
X107071428Y-155907200D01*
X107071428Y-155907200D02*
X106976190Y-155954819D01*
X106976190Y-155954819D02*
X106690476Y-155954819D01*
X106690476Y-155954819D02*
X106595238Y-155907200D01*
X106595238Y-155907200D02*
X106547619Y-155859580D01*
X182166666Y-65954819D02*
X182166666Y-66669104D01*
X182166666Y-66669104D02*
X182119047Y-66811961D01*
X182119047Y-66811961D02*
X182023809Y-66907200D01*
X182023809Y-66907200D02*
X181880952Y-66954819D01*
X181880952Y-66954819D02*
X181785714Y-66954819D01*
X183071428Y-66288152D02*
X183071428Y-66954819D01*
X182833333Y-65907200D02*
X182595238Y-66621485D01*
X182595238Y-66621485D02*
X183214285Y-66621485D01*
X182166666Y-154954819D02*
X182166666Y-155669104D01*
X182166666Y-155669104D02*
X182119047Y-155811961D01*
X182119047Y-155811961D02*
X182023809Y-155907200D01*
X182023809Y-155907200D02*
X181880952Y-155954819D01*
X181880952Y-155954819D02*
X181785714Y-155954819D01*
X183119047Y-154954819D02*
X182642857Y-154954819D01*
X182642857Y-154954819D02*
X182595238Y-155431009D01*
X182595238Y-155431009D02*
X182642857Y-155383390D01*
X182642857Y-155383390D02*
X182738095Y-155335771D01*
X182738095Y-155335771D02*
X182976190Y-155335771D01*
X182976190Y-155335771D02*
X183071428Y-155383390D01*
X183071428Y-155383390D02*
X183119047Y-155431009D01*
X183119047Y-155431009D02*
X183166666Y-155526247D01*
X183166666Y-155526247D02*
X183166666Y-155764342D01*
X183166666Y-155764342D02*
X183119047Y-155859580D01*
X183119047Y-155859580D02*
X183071428Y-155907200D01*
X183071428Y-155907200D02*
X182976190Y-155954819D01*
X182976190Y-155954819D02*
X182738095Y-155954819D01*
X182738095Y-155954819D02*
X182642857Y-155907200D01*
X182642857Y-155907200D02*
X182595238Y-155859580D01*
D11*
X143178095Y-123109800D02*
X143320952Y-123157419D01*
X143320952Y-123157419D02*
X143559047Y-123157419D01*
X143559047Y-123157419D02*
X143654285Y-123109800D01*
X143654285Y-123109800D02*
X143701904Y-123062180D01*
X143701904Y-123062180D02*
X143749523Y-122966942D01*
X143749523Y-122966942D02*
X143749523Y-122871704D01*
X143749523Y-122871704D02*
X143701904Y-122776466D01*
X143701904Y-122776466D02*
X143654285Y-122728847D01*
X143654285Y-122728847D02*
X143559047Y-122681228D01*
X143559047Y-122681228D02*
X143368571Y-122633609D01*
X143368571Y-122633609D02*
X143273333Y-122585990D01*
X143273333Y-122585990D02*
X143225714Y-122538371D01*
X143225714Y-122538371D02*
X143178095Y-122443133D01*
X143178095Y-122443133D02*
X143178095Y-122347895D01*
X143178095Y-122347895D02*
X143225714Y-122252657D01*
X143225714Y-122252657D02*
X143273333Y-122205038D01*
X143273333Y-122205038D02*
X143368571Y-122157419D01*
X143368571Y-122157419D02*
X143606666Y-122157419D01*
X143606666Y-122157419D02*
X143749523Y-122205038D01*
X144749523Y-123062180D02*
X144701904Y-123109800D01*
X144701904Y-123109800D02*
X144559047Y-123157419D01*
X144559047Y-123157419D02*
X144463809Y-123157419D01*
X144463809Y-123157419D02*
X144320952Y-123109800D01*
X144320952Y-123109800D02*
X144225714Y-123014561D01*
X144225714Y-123014561D02*
X144178095Y-122919323D01*
X144178095Y-122919323D02*
X144130476Y-122728847D01*
X144130476Y-122728847D02*
X144130476Y-122585990D01*
X144130476Y-122585990D02*
X144178095Y-122395514D01*
X144178095Y-122395514D02*
X144225714Y-122300276D01*
X144225714Y-122300276D02*
X144320952Y-122205038D01*
X144320952Y-122205038D02*
X144463809Y-122157419D01*
X144463809Y-122157419D02*
X144559047Y-122157419D01*
X144559047Y-122157419D02*
X144701904Y-122205038D01*
X144701904Y-122205038D02*
X144749523Y-122252657D01*
X145130476Y-122252657D02*
X145178095Y-122205038D01*
X145178095Y-122205038D02*
X145273333Y-122157419D01*
X145273333Y-122157419D02*
X145511428Y-122157419D01*
X145511428Y-122157419D02*
X145606666Y-122205038D01*
X145606666Y-122205038D02*
X145654285Y-122252657D01*
X145654285Y-122252657D02*
X145701904Y-122347895D01*
X145701904Y-122347895D02*
X145701904Y-122443133D01*
X145701904Y-122443133D02*
X145654285Y-122585990D01*
X145654285Y-122585990D02*
X145082857Y-123157419D01*
X145082857Y-123157419D02*
X145701904Y-123157419D01*
X143078095Y-70119800D02*
X143220952Y-70167419D01*
X143220952Y-70167419D02*
X143459047Y-70167419D01*
X143459047Y-70167419D02*
X143554285Y-70119800D01*
X143554285Y-70119800D02*
X143601904Y-70072180D01*
X143601904Y-70072180D02*
X143649523Y-69976942D01*
X143649523Y-69976942D02*
X143649523Y-69881704D01*
X143649523Y-69881704D02*
X143601904Y-69786466D01*
X143601904Y-69786466D02*
X143554285Y-69738847D01*
X143554285Y-69738847D02*
X143459047Y-69691228D01*
X143459047Y-69691228D02*
X143268571Y-69643609D01*
X143268571Y-69643609D02*
X143173333Y-69595990D01*
X143173333Y-69595990D02*
X143125714Y-69548371D01*
X143125714Y-69548371D02*
X143078095Y-69453133D01*
X143078095Y-69453133D02*
X143078095Y-69357895D01*
X143078095Y-69357895D02*
X143125714Y-69262657D01*
X143125714Y-69262657D02*
X143173333Y-69215038D01*
X143173333Y-69215038D02*
X143268571Y-69167419D01*
X143268571Y-69167419D02*
X143506666Y-69167419D01*
X143506666Y-69167419D02*
X143649523Y-69215038D01*
X144649523Y-70072180D02*
X144601904Y-70119800D01*
X144601904Y-70119800D02*
X144459047Y-70167419D01*
X144459047Y-70167419D02*
X144363809Y-70167419D01*
X144363809Y-70167419D02*
X144220952Y-70119800D01*
X144220952Y-70119800D02*
X144125714Y-70024561D01*
X144125714Y-70024561D02*
X144078095Y-69929323D01*
X144078095Y-69929323D02*
X144030476Y-69738847D01*
X144030476Y-69738847D02*
X144030476Y-69595990D01*
X144030476Y-69595990D02*
X144078095Y-69405514D01*
X144078095Y-69405514D02*
X144125714Y-69310276D01*
X144125714Y-69310276D02*
X144220952Y-69215038D01*
X144220952Y-69215038D02*
X144363809Y-69167419D01*
X144363809Y-69167419D02*
X144459047Y-69167419D01*
X144459047Y-69167419D02*
X144601904Y-69215038D01*
X144601904Y-69215038D02*
X144649523Y-69262657D01*
X145601904Y-70167419D02*
X145030476Y-70167419D01*
X145316190Y-70167419D02*
X145316190Y-69167419D01*
X145316190Y-69167419D02*
X145220952Y-69310276D01*
X145220952Y-69310276D02*
X145125714Y-69405514D01*
X145125714Y-69405514D02*
X145030476Y-69453133D01*
D12*
%TO.C,U2*%
X127965000Y-116600000D02*
X127965000Y-116000000D01*
X127965000Y-116600000D02*
X127965000Y-117200000D01*
X129835000Y-116600000D02*
X129835000Y-116000000D01*
X129835000Y-116600000D02*
X129835000Y-117200000D01*
X129400000Y-115290000D02*
X129160000Y-114960000D01*
X129640000Y-114960000D01*
X129400000Y-115290000D01*
G36*
X129400000Y-115290000D02*
G01*
X129160000Y-114960000D01*
X129640000Y-114960000D01*
X129400000Y-115290000D01*
G37*
%TO.C,D1*%
X122225000Y-111750000D02*
X122225000Y-114650000D01*
X125031800Y-114012800D02*
X125031800Y-112463400D01*
X126975000Y-111750000D02*
X122225000Y-111750000D01*
X126975000Y-111750000D02*
X126975000Y-114650000D01*
X126975000Y-114650000D02*
X122225000Y-114650000D01*
D11*
X124904800Y-113225400D02*
X124092000Y-113835000D01*
X124092000Y-112488800D01*
X124904800Y-113225400D01*
G36*
X124904800Y-113225400D02*
G01*
X124092000Y-113835000D01*
X124092000Y-112488800D01*
X124904800Y-113225400D01*
G37*
%TO.C,SC2*%
X176425000Y-163500001D02*
X112425000Y-163500001D01*
X112425000Y-118499999D01*
X176425000Y-118499999D01*
X176425000Y-163500001D01*
D12*
%TO.C,J13*%
X147090000Y-111990000D02*
X149000000Y-111990000D01*
X147090000Y-113900000D02*
X147090000Y-111990000D01*
X147400000Y-112300000D02*
X147400000Y-117500000D01*
X147400000Y-114900000D02*
X147800000Y-114900000D01*
X147400000Y-115900000D02*
X147800000Y-115900000D01*
X147400000Y-117500000D02*
X153600000Y-117500000D01*
X147800000Y-112700000D02*
X150000000Y-112700000D01*
X147800000Y-114900000D02*
X147800000Y-112700000D01*
X147800000Y-115900000D02*
X147800000Y-117100000D01*
X147800000Y-117100000D02*
X153200000Y-117100000D01*
X150000000Y-112700000D02*
X150000000Y-112300000D01*
X151000000Y-112700000D02*
X151000000Y-112300000D01*
X153200000Y-112700000D02*
X151000000Y-112700000D01*
X153200000Y-114900000D02*
X153200000Y-112700000D01*
X153200000Y-115900000D02*
X153600000Y-115900000D01*
X153200000Y-117100000D02*
X153200000Y-115900000D01*
X153600000Y-112300000D02*
X147400000Y-112300000D01*
X153600000Y-114900000D02*
X153200000Y-114900000D01*
X153600000Y-117500000D02*
X153600000Y-112300000D01*
D11*
%TO.C,U7*%
X123345000Y-115297500D02*
X123345000Y-115297500D01*
X123345000Y-116457500D02*
X123345000Y-116497500D01*
X123345000Y-117657500D02*
X123345000Y-117727500D01*
X123345000Y-117727500D02*
X124115000Y-117727500D01*
X123365000Y-115297500D02*
X123345000Y-115297500D01*
X124115000Y-115297500D02*
X123365000Y-115297500D01*
X125275000Y-117727500D02*
X126045000Y-117727500D01*
X126045000Y-115297500D02*
X125275000Y-115297500D01*
X126045000Y-116497500D02*
X126045000Y-116457500D01*
X126045000Y-117727500D02*
X126045000Y-117657500D01*
X124795000Y-118277500D02*
G75*
G02*
X124595000Y-118277500I-100000J0D01*
G01*
X124595000Y-118277500D02*
G75*
G02*
X124795000Y-118277500I100000J0D01*
G01*
D12*
%TO.C,C4*%
X122090000Y-116657836D02*
X122090000Y-116442164D01*
X122810000Y-116657836D02*
X122810000Y-116442164D01*
%TO.C,C2*%
X126740000Y-115957836D02*
X126740000Y-115742164D01*
X127460000Y-115957836D02*
X127460000Y-115742164D01*
%TO.C,C5*%
X159392164Y-111740000D02*
X159607836Y-111740000D01*
X159392164Y-112460000D02*
X159607836Y-112460000D01*
%TO.C,R7*%
X154846359Y-111620000D02*
X155153641Y-111620000D01*
X154846359Y-112380000D02*
X155153641Y-112380000D01*
D11*
%TO.C,SC1*%
X176450000Y-111000001D02*
X112450000Y-111000001D01*
X112450000Y-65999999D01*
X176450000Y-65999999D01*
X176450000Y-111000001D01*
D12*
%TO.C,C3*%
X162507836Y-111640000D02*
X162292164Y-111640000D01*
X162507836Y-112360000D02*
X162292164Y-112360000D01*
%TO.C,D4*%
X143675000Y-118010000D02*
X145960000Y-118010000D01*
X145960000Y-116540000D02*
X143675000Y-116540000D01*
X145960000Y-118010000D02*
X145960000Y-116540000D01*
%TO.C,R1*%
X141858860Y-116895000D02*
X142166142Y-116895000D01*
X141858860Y-117655000D02*
X142166142Y-117655000D01*
%TO.C,U3*%
X161180000Y-112740000D02*
X158255000Y-112740000D01*
X161180000Y-112740000D02*
X162680000Y-112740000D01*
X161180000Y-115960000D02*
X159680000Y-115960000D01*
X161180000Y-115960000D02*
X162680000Y-115960000D01*
%TD*%
%LPC*%
D13*
X144880000Y-93520000D02*
X146350000Y-92050000D01*
X142700000Y-92950000D02*
X143550000Y-93800000D01*
X144200000Y-93540000D02*
X142720000Y-92060000D01*
X143550000Y-96500000D02*
X146250000Y-96500000D01*
X146250000Y-96500000D02*
X146250000Y-93800000D01*
X142700000Y-95650000D02*
X145400000Y-95650000D01*
X146250000Y-93800000D02*
X143550000Y-93800000D01*
X145400000Y-92950000D02*
X146250000Y-93800000D01*
X142700000Y-95650000D02*
X142700000Y-92950000D01*
X143550000Y-93800000D02*
X143550000Y-96500000D01*
X143550000Y-96500000D02*
X142700000Y-95650000D01*
X145400000Y-95650000D02*
X145400000Y-92950000D01*
X145400000Y-95650000D02*
X146250000Y-96500000D01*
X145400000Y-92950000D02*
X142700000Y-92950000D01*
D14*
X134583520Y-89684023D02*
X135297806Y-89684023D01*
X134940663Y-90934023D02*
X134940663Y-89684023D01*
X135714473Y-90934023D02*
X135714473Y-89684023D01*
X136250187Y-90934023D02*
X136250187Y-90279261D01*
X136250187Y-90279261D02*
X136190663Y-90160214D01*
X136190663Y-90160214D02*
X136071615Y-90100690D01*
X136071615Y-90100690D02*
X135893044Y-90100690D01*
X135893044Y-90100690D02*
X135773996Y-90160214D01*
X135773996Y-90160214D02*
X135714473Y-90219738D01*
X137321615Y-90874500D02*
X137202567Y-90934023D01*
X137202567Y-90934023D02*
X136964472Y-90934023D01*
X136964472Y-90934023D02*
X136845425Y-90874500D01*
X136845425Y-90874500D02*
X136785901Y-90755452D01*
X136785901Y-90755452D02*
X136785901Y-90279261D01*
X136785901Y-90279261D02*
X136845425Y-90160214D01*
X136845425Y-90160214D02*
X136964472Y-90100690D01*
X136964472Y-90100690D02*
X137202567Y-90100690D01*
X137202567Y-90100690D02*
X137321615Y-90160214D01*
X137321615Y-90160214D02*
X137381139Y-90279261D01*
X137381139Y-90279261D02*
X137381139Y-90398309D01*
X137381139Y-90398309D02*
X136785901Y-90517357D01*
X138869235Y-90934023D02*
X138869235Y-89684023D01*
X138869235Y-89684023D02*
X139345425Y-89684023D01*
X139345425Y-89684023D02*
X139464473Y-89743547D01*
X139464473Y-89743547D02*
X139523996Y-89803071D01*
X139523996Y-89803071D02*
X139583520Y-89922119D01*
X139583520Y-89922119D02*
X139583520Y-90100690D01*
X139583520Y-90100690D02*
X139523996Y-90219738D01*
X139523996Y-90219738D02*
X139464473Y-90279261D01*
X139464473Y-90279261D02*
X139345425Y-90338785D01*
X139345425Y-90338785D02*
X138869235Y-90338785D01*
X140833520Y-90934023D02*
X140416854Y-90338785D01*
X140119235Y-90934023D02*
X140119235Y-89684023D01*
X140119235Y-89684023D02*
X140595425Y-89684023D01*
X140595425Y-89684023D02*
X140714473Y-89743547D01*
X140714473Y-89743547D02*
X140773996Y-89803071D01*
X140773996Y-89803071D02*
X140833520Y-89922119D01*
X140833520Y-89922119D02*
X140833520Y-90100690D01*
X140833520Y-90100690D02*
X140773996Y-90219738D01*
X140773996Y-90219738D02*
X140714473Y-90279261D01*
X140714473Y-90279261D02*
X140595425Y-90338785D01*
X140595425Y-90338785D02*
X140119235Y-90338785D01*
X141607330Y-89684023D02*
X141845425Y-89684023D01*
X141845425Y-89684023D02*
X141964473Y-89743547D01*
X141964473Y-89743547D02*
X142083520Y-89862595D01*
X142083520Y-89862595D02*
X142143044Y-90100690D01*
X142143044Y-90100690D02*
X142143044Y-90517357D01*
X142143044Y-90517357D02*
X142083520Y-90755452D01*
X142083520Y-90755452D02*
X141964473Y-90874500D01*
X141964473Y-90874500D02*
X141845425Y-90934023D01*
X141845425Y-90934023D02*
X141607330Y-90934023D01*
X141607330Y-90934023D02*
X141488282Y-90874500D01*
X141488282Y-90874500D02*
X141369235Y-90755452D01*
X141369235Y-90755452D02*
X141309711Y-90517357D01*
X141309711Y-90517357D02*
X141309711Y-90100690D01*
X141309711Y-90100690D02*
X141369235Y-89862595D01*
X141369235Y-89862595D02*
X141488282Y-89743547D01*
X141488282Y-89743547D02*
X141607330Y-89684023D01*
X142500187Y-89684023D02*
X142916854Y-90934023D01*
X142916854Y-90934023D02*
X143333520Y-89684023D01*
X143750188Y-90279261D02*
X144166854Y-90279261D01*
X144345426Y-90934023D02*
X143750188Y-90934023D01*
X143750188Y-90934023D02*
X143750188Y-89684023D01*
X143750188Y-89684023D02*
X144345426Y-89684023D01*
X144821616Y-90874500D02*
X145000187Y-90934023D01*
X145000187Y-90934023D02*
X145297806Y-90934023D01*
X145297806Y-90934023D02*
X145416854Y-90874500D01*
X145416854Y-90874500D02*
X145476378Y-90814976D01*
X145476378Y-90814976D02*
X145535901Y-90695928D01*
X145535901Y-90695928D02*
X145535901Y-90576880D01*
X145535901Y-90576880D02*
X145476378Y-90457833D01*
X145476378Y-90457833D02*
X145416854Y-90398309D01*
X145416854Y-90398309D02*
X145297806Y-90338785D01*
X145297806Y-90338785D02*
X145059711Y-90279261D01*
X145059711Y-90279261D02*
X144940663Y-90219738D01*
X144940663Y-90219738D02*
X144881140Y-90160214D01*
X144881140Y-90160214D02*
X144821616Y-90041166D01*
X144821616Y-90041166D02*
X144821616Y-89922119D01*
X144821616Y-89922119D02*
X144881140Y-89803071D01*
X144881140Y-89803071D02*
X144940663Y-89743547D01*
X144940663Y-89743547D02*
X145059711Y-89684023D01*
X145059711Y-89684023D02*
X145357330Y-89684023D01*
X145357330Y-89684023D02*
X145535901Y-89743547D01*
X147023997Y-90934023D02*
X147023997Y-89684023D01*
X147738282Y-90934023D02*
X147202568Y-90219738D01*
X147738282Y-89684023D02*
X147023997Y-90398309D01*
X148273997Y-90934023D02*
X148273997Y-90100690D01*
X148273997Y-89684023D02*
X148214473Y-89743547D01*
X148214473Y-89743547D02*
X148273997Y-89803071D01*
X148273997Y-89803071D02*
X148333520Y-89743547D01*
X148333520Y-89743547D02*
X148273997Y-89684023D01*
X148273997Y-89684023D02*
X148273997Y-89803071D01*
X148690663Y-90100690D02*
X149166854Y-90100690D01*
X148869235Y-89684023D02*
X148869235Y-90755452D01*
X148869235Y-90755452D02*
X148928758Y-90874500D01*
X148928758Y-90874500D02*
X149047806Y-90934023D01*
X149047806Y-90934023D02*
X149166854Y-90934023D01*
X150357330Y-89684023D02*
X150773997Y-90934023D01*
X150773997Y-90934023D02*
X151190663Y-89684023D01*
X151488283Y-89684023D02*
X152262092Y-89684023D01*
X152262092Y-89684023D02*
X151845426Y-90160214D01*
X151845426Y-90160214D02*
X152023997Y-90160214D01*
X152023997Y-90160214D02*
X152143045Y-90219738D01*
X152143045Y-90219738D02*
X152202569Y-90279261D01*
X152202569Y-90279261D02*
X152262092Y-90398309D01*
X152262092Y-90398309D02*
X152262092Y-90695928D01*
X152262092Y-90695928D02*
X152202569Y-90814976D01*
X152202569Y-90814976D02*
X152143045Y-90874500D01*
X152143045Y-90874500D02*
X152023997Y-90934023D01*
X152023997Y-90934023D02*
X151666854Y-90934023D01*
X151666854Y-90934023D02*
X151547807Y-90874500D01*
X151547807Y-90874500D02*
X151488283Y-90814976D01*
D15*
%TO.C,J2*%
X106500000Y-70300000D03*
%TD*%
%TO.C,J3*%
X106500000Y-159300000D03*
%TD*%
%TO.C,J4*%
X182500000Y-70300000D03*
%TD*%
%TO.C,J5*%
X182500000Y-159300000D03*
%TD*%
D16*
%TO.C,TP1*%
X114000000Y-113000000D03*
%TD*%
D17*
%TO.C,U2*%
X129400000Y-115887500D03*
X128900000Y-115887500D03*
X128400000Y-115887500D03*
X128400000Y-117312500D03*
X128900000Y-117312500D03*
X129400000Y-117312500D03*
%TD*%
D16*
%TO.C,TP2*%
X114000000Y-116500000D03*
%TD*%
D18*
%TO.C,D1*%
X126600001Y-113200000D03*
X122599999Y-113200000D03*
%TD*%
D19*
%TO.C,SC2*%
X122425000Y-141000000D03*
X166425000Y-141000000D03*
%TD*%
D20*
%TO.C,J13*%
X149500000Y-113900000D03*
D21*
X149500000Y-115900000D03*
X151500000Y-113900000D03*
X151500000Y-115900000D03*
%TD*%
D22*
%TO.C,U7*%
X124695000Y-117517500D03*
D23*
X125845000Y-117077500D03*
X125845000Y-115877500D03*
D22*
X124695000Y-115437500D03*
D23*
X123545000Y-115877500D03*
X123545000Y-117077500D03*
%TD*%
D24*
%TO.C,C4*%
X122450000Y-117030000D03*
X122450000Y-116070000D03*
%TD*%
%TO.C,C2*%
X127100000Y-116330000D03*
X127100000Y-115370000D03*
%TD*%
D25*
%TO.C,C5*%
X159020000Y-112100000D03*
X159980000Y-112100000D03*
%TD*%
D26*
%TO.C,R7*%
X154490000Y-112000000D03*
X155510000Y-112000000D03*
%TD*%
D19*
%TO.C,SC1*%
X122450000Y-88500000D03*
X166450000Y-88500000D03*
%TD*%
D27*
%TO.C,C3*%
X162880000Y-112000000D03*
X161920000Y-112000000D03*
%TD*%
D28*
%TO.C,D4*%
X145262501Y-117275000D03*
X143687499Y-117275000D03*
%TD*%
D26*
%TO.C,R1*%
X141502501Y-117275000D03*
X142522501Y-117275000D03*
%TD*%
D29*
%TO.C,U3*%
X158980000Y-113350000D03*
X158980000Y-113850000D03*
X158980000Y-114350000D03*
X158980000Y-114850000D03*
X158980000Y-115350000D03*
X163380000Y-115350000D03*
X163380000Y-114850000D03*
X163380000Y-114350000D03*
X163380000Y-113850000D03*
X163380000Y-113350000D03*
%TD*%
D30*
%TO.C,CN1*%
X146500001Y-113750001D03*
D21*
X146500001Y-115750001D03*
X144500001Y-113750001D03*
X144500001Y-115750001D03*
X142500001Y-113750001D03*
X142500001Y-115750001D03*
%TD*%
D20*
%TO.C,J11*%
X154500000Y-115900000D03*
D21*
X154500000Y-113900000D03*
X156500000Y-115900000D03*
X156500000Y-113900000D03*
%TD*%
%LPD*%
M02*
