%TF.GenerationSoftware,KiCad,Pcbnew,9.0.3*%
%TF.CreationDate,2026-03-29T18:17:19-07:00*%
%TF.ProjectId,XY_Face_V4nb,58595f46-6163-4655-9f56-346e622e6b69,3.0*%
%TF.SameCoordinates,Original*%
%TF.FileFunction,Legend,Bot*%
%TF.FilePolarity,Positive*%
%FSLAX46Y46*%
G04 Gerber Fmt 4.6, Leading zero omitted, Abs format (unit mm)*
G04 Created by KiCad (PCBNEW 9.0.3) date 2026-03-29 18:17:19*
%MOMM*%
%LPD*%
G01*
G04 APERTURE LIST*
G04 Aperture macros list*
%AMRoundRect*
0 Rectangle with rounded corners*
0 $1 Rounding radius*
0 $2 $3 $4 $5 $6 $7 $8 $9 X,Y pos of 4 corners*
0 Add a 4 corners polygon primitive as box body*
4,1,4,$2,$3,$4,$5,$6,$7,$8,$9,$2,$3,0*
0 Add four circle primitives for the rounded corners*
1,1,$1+$1,$2,$3*
1,1,$1+$1,$4,$5*
1,1,$1+$1,$6,$7*
1,1,$1+$1,$8,$9*
0 Add four rect primitives between the rounded corners*
20,1,$1+$1,$2,$3,$4,$5,0*
20,1,$1+$1,$4,$5,$6,$7,0*
20,1,$1+$1,$6,$7,$8,$9,0*
20,1,$1+$1,$8,$9,$2,$3,0*%
%AMFreePoly0*
4,1,17,2.675000,1.605000,1.875000,1.605000,1.875000,0.935000,2.675000,0.935000,2.675000,0.335000,1.875000,0.335000,1.875000,-0.335000,2.675000,-0.335000,2.675000,-0.935000,1.875000,-0.935000,1.875000,-1.605000,2.675000,-1.605000,2.675000,-2.205000,-1.875000,-2.205000,-1.875000,2.205000,2.675000,2.205000,2.675000,1.605000,2.675000,1.605000,$1*%
G04 Aperture macros list end*
%ADD10C,0.150000*%
%ADD11C,0.120000*%
%ADD12C,0.250000*%
%ADD13C,0.400000*%
%ADD14C,5.700000*%
%ADD15C,5.000000*%
%ADD16RoundRect,0.250000X-0.350000X-0.575000X0.350000X-0.575000X0.350000X0.575000X-0.350000X0.575000X0*%
%ADD17O,1.200000X1.650000*%
%ADD18RoundRect,0.250000X0.350000X0.575000X-0.350000X0.575000X-0.350000X-0.575000X0.350000X-0.575000X0*%
%ADD19FreePoly0,0.000000*%
%ADD20RoundRect,0.125000X-0.300000X-0.125000X0.300000X-0.125000X0.300000X0.125000X-0.300000X0.125000X0*%
%ADD21R,0.600000X1.500000*%
%ADD22R,1.250000X1.800000*%
G04 APERTURE END LIST*
D10*
X135071428Y-67644875D02*
X135071428Y-66644875D01*
X135071428Y-66644875D02*
X134690476Y-66644875D01*
X134690476Y-66644875D02*
X134595238Y-66692494D01*
X134595238Y-66692494D02*
X134547619Y-66740113D01*
X134547619Y-66740113D02*
X134500000Y-66835351D01*
X134500000Y-66835351D02*
X134500000Y-66978208D01*
X134500000Y-66978208D02*
X134547619Y-67073446D01*
X134547619Y-67073446D02*
X134595238Y-67121065D01*
X134595238Y-67121065D02*
X134690476Y-67168684D01*
X134690476Y-67168684D02*
X135071428Y-67168684D01*
X133500000Y-67644875D02*
X133833333Y-67168684D01*
X134071428Y-67644875D02*
X134071428Y-66644875D01*
X134071428Y-66644875D02*
X133690476Y-66644875D01*
X133690476Y-66644875D02*
X133595238Y-66692494D01*
X133595238Y-66692494D02*
X133547619Y-66740113D01*
X133547619Y-66740113D02*
X133500000Y-66835351D01*
X133500000Y-66835351D02*
X133500000Y-66978208D01*
X133500000Y-66978208D02*
X133547619Y-67073446D01*
X133547619Y-67073446D02*
X133595238Y-67121065D01*
X133595238Y-67121065D02*
X133690476Y-67168684D01*
X133690476Y-67168684D02*
X134071428Y-67168684D01*
X132880952Y-66644875D02*
X132690476Y-66644875D01*
X132690476Y-66644875D02*
X132595238Y-66692494D01*
X132595238Y-66692494D02*
X132500000Y-66787732D01*
X132500000Y-66787732D02*
X132452381Y-66978208D01*
X132452381Y-66978208D02*
X132452381Y-67311541D01*
X132452381Y-67311541D02*
X132500000Y-67502017D01*
X132500000Y-67502017D02*
X132595238Y-67597256D01*
X132595238Y-67597256D02*
X132690476Y-67644875D01*
X132690476Y-67644875D02*
X132880952Y-67644875D01*
X132880952Y-67644875D02*
X132976190Y-67597256D01*
X132976190Y-67597256D02*
X133071428Y-67502017D01*
X133071428Y-67502017D02*
X133119047Y-67311541D01*
X133119047Y-67311541D02*
X133119047Y-66978208D01*
X133119047Y-66978208D02*
X133071428Y-66787732D01*
X133071428Y-66787732D02*
X132976190Y-66692494D01*
X132976190Y-66692494D02*
X132880952Y-66644875D01*
X132166666Y-66644875D02*
X131833333Y-67644875D01*
X131833333Y-67644875D02*
X131500000Y-66644875D01*
X131166666Y-67121065D02*
X130833333Y-67121065D01*
X130690476Y-67644875D02*
X131166666Y-67644875D01*
X131166666Y-67644875D02*
X131166666Y-66644875D01*
X131166666Y-66644875D02*
X130690476Y-66644875D01*
X130309523Y-67597256D02*
X130166666Y-67644875D01*
X130166666Y-67644875D02*
X129928571Y-67644875D01*
X129928571Y-67644875D02*
X129833333Y-67597256D01*
X129833333Y-67597256D02*
X129785714Y-67549636D01*
X129785714Y-67549636D02*
X129738095Y-67454398D01*
X129738095Y-67454398D02*
X129738095Y-67359160D01*
X129738095Y-67359160D02*
X129785714Y-67263922D01*
X129785714Y-67263922D02*
X129833333Y-67216303D01*
X129833333Y-67216303D02*
X129928571Y-67168684D01*
X129928571Y-67168684D02*
X130119047Y-67121065D01*
X130119047Y-67121065D02*
X130214285Y-67073446D01*
X130214285Y-67073446D02*
X130261904Y-67025827D01*
X130261904Y-67025827D02*
X130309523Y-66930589D01*
X130309523Y-66930589D02*
X130309523Y-66835351D01*
X130309523Y-66835351D02*
X130261904Y-66740113D01*
X130261904Y-66740113D02*
X130214285Y-66692494D01*
X130214285Y-66692494D02*
X130119047Y-66644875D01*
X130119047Y-66644875D02*
X129880952Y-66644875D01*
X129880952Y-66644875D02*
X129738095Y-66692494D01*
X128642856Y-66644875D02*
X127976190Y-67644875D01*
X127976190Y-66644875D02*
X128642856Y-67644875D01*
X127404761Y-67168684D02*
X127404761Y-67644875D01*
X127738094Y-66644875D02*
X127404761Y-67168684D01*
X127404761Y-67168684D02*
X127071428Y-66644875D01*
X126023808Y-67597256D02*
X125880951Y-67644875D01*
X125880951Y-67644875D02*
X125642856Y-67644875D01*
X125642856Y-67644875D02*
X125547618Y-67597256D01*
X125547618Y-67597256D02*
X125499999Y-67549636D01*
X125499999Y-67549636D02*
X125452380Y-67454398D01*
X125452380Y-67454398D02*
X125452380Y-67359160D01*
X125452380Y-67359160D02*
X125499999Y-67263922D01*
X125499999Y-67263922D02*
X125547618Y-67216303D01*
X125547618Y-67216303D02*
X125642856Y-67168684D01*
X125642856Y-67168684D02*
X125833332Y-67121065D01*
X125833332Y-67121065D02*
X125928570Y-67073446D01*
X125928570Y-67073446D02*
X125976189Y-67025827D01*
X125976189Y-67025827D02*
X126023808Y-66930589D01*
X126023808Y-66930589D02*
X126023808Y-66835351D01*
X126023808Y-66835351D02*
X125976189Y-66740113D01*
X125976189Y-66740113D02*
X125928570Y-66692494D01*
X125928570Y-66692494D02*
X125833332Y-66644875D01*
X125833332Y-66644875D02*
X125595237Y-66644875D01*
X125595237Y-66644875D02*
X125452380Y-66692494D01*
X124833332Y-66644875D02*
X124642856Y-66644875D01*
X124642856Y-66644875D02*
X124547618Y-66692494D01*
X124547618Y-66692494D02*
X124452380Y-66787732D01*
X124452380Y-66787732D02*
X124404761Y-66978208D01*
X124404761Y-66978208D02*
X124404761Y-67311541D01*
X124404761Y-67311541D02*
X124452380Y-67502017D01*
X124452380Y-67502017D02*
X124547618Y-67597256D01*
X124547618Y-67597256D02*
X124642856Y-67644875D01*
X124642856Y-67644875D02*
X124833332Y-67644875D01*
X124833332Y-67644875D02*
X124928570Y-67597256D01*
X124928570Y-67597256D02*
X125023808Y-67502017D01*
X125023808Y-67502017D02*
X125071427Y-67311541D01*
X125071427Y-67311541D02*
X125071427Y-66978208D01*
X125071427Y-66978208D02*
X125023808Y-66787732D01*
X125023808Y-66787732D02*
X124928570Y-66692494D01*
X124928570Y-66692494D02*
X124833332Y-66644875D01*
X123499999Y-67644875D02*
X123976189Y-67644875D01*
X123976189Y-67644875D02*
X123976189Y-66644875D01*
X123214284Y-67359160D02*
X122738094Y-67359160D01*
X123309522Y-67644875D02*
X122976189Y-66644875D01*
X122976189Y-66644875D02*
X122642856Y-67644875D01*
X121738094Y-67644875D02*
X122071427Y-67168684D01*
X122309522Y-67644875D02*
X122309522Y-66644875D01*
X122309522Y-66644875D02*
X121928570Y-66644875D01*
X121928570Y-66644875D02*
X121833332Y-66692494D01*
X121833332Y-66692494D02*
X121785713Y-66740113D01*
X121785713Y-66740113D02*
X121738094Y-66835351D01*
X121738094Y-66835351D02*
X121738094Y-66978208D01*
X121738094Y-66978208D02*
X121785713Y-67073446D01*
X121785713Y-67073446D02*
X121833332Y-67121065D01*
X121833332Y-67121065D02*
X121928570Y-67168684D01*
X121928570Y-67168684D02*
X122309522Y-67168684D01*
X121309522Y-67549636D02*
X121261903Y-67597256D01*
X121261903Y-67597256D02*
X121309522Y-67644875D01*
X121309522Y-67644875D02*
X121357141Y-67597256D01*
X121357141Y-67597256D02*
X121309522Y-67549636D01*
X121309522Y-67549636D02*
X121309522Y-67644875D01*
X121309522Y-67025827D02*
X121261903Y-67073446D01*
X121261903Y-67073446D02*
X121309522Y-67121065D01*
X121309522Y-67121065D02*
X121357141Y-67073446D01*
X121357141Y-67073446D02*
X121309522Y-67025827D01*
X121309522Y-67025827D02*
X121309522Y-67121065D01*
X120071427Y-67644875D02*
X120071427Y-66644875D01*
X119499999Y-67644875D02*
X119928570Y-67073446D01*
X119499999Y-66644875D02*
X120071427Y-67216303D01*
X119071427Y-67644875D02*
X119071427Y-66644875D01*
X118738094Y-66644875D02*
X118166666Y-66644875D01*
X118452380Y-67644875D02*
X118452380Y-66644875D01*
X117214284Y-66644875D02*
X116880951Y-67644875D01*
X116880951Y-67644875D02*
X116547618Y-66644875D01*
X115785713Y-66978208D02*
X115785713Y-67644875D01*
X116023808Y-66597256D02*
X116261903Y-67311541D01*
X116261903Y-67311541D02*
X115642856Y-67311541D01*
X115261903Y-66978208D02*
X115261903Y-67644875D01*
X115261903Y-67073446D02*
X115214284Y-67025827D01*
X115214284Y-67025827D02*
X115119046Y-66978208D01*
X115119046Y-66978208D02*
X114976189Y-66978208D01*
X114976189Y-66978208D02*
X114880951Y-67025827D01*
X114880951Y-67025827D02*
X114833332Y-67121065D01*
X114833332Y-67121065D02*
X114833332Y-67644875D01*
X114357141Y-67644875D02*
X114357141Y-66644875D01*
X114357141Y-67025827D02*
X114261903Y-66978208D01*
X114261903Y-66978208D02*
X114071427Y-66978208D01*
X114071427Y-66978208D02*
X113976189Y-67025827D01*
X113976189Y-67025827D02*
X113928570Y-67073446D01*
X113928570Y-67073446D02*
X113880951Y-67168684D01*
X113880951Y-67168684D02*
X113880951Y-67454398D01*
X113880951Y-67454398D02*
X113928570Y-67549636D01*
X113928570Y-67549636D02*
X113976189Y-67597256D01*
X113976189Y-67597256D02*
X114071427Y-67644875D01*
X114071427Y-67644875D02*
X114261903Y-67644875D01*
X114261903Y-67644875D02*
X114357141Y-67597256D01*
X136928570Y-68969104D02*
X136452380Y-68969104D01*
X137023808Y-69254819D02*
X136690475Y-68254819D01*
X136690475Y-68254819D02*
X136357142Y-69254819D01*
X136023808Y-69254819D02*
X136023808Y-68254819D01*
X136023808Y-68254819D02*
X135690475Y-68969104D01*
X135690475Y-68969104D02*
X135357142Y-68254819D01*
X135357142Y-68254819D02*
X135357142Y-69254819D01*
X134928570Y-68969104D02*
X134452380Y-68969104D01*
X135023808Y-69254819D02*
X134690475Y-68254819D01*
X134690475Y-68254819D02*
X134357142Y-69254819D01*
X134023808Y-69254819D02*
X134023808Y-68254819D01*
X134023808Y-68254819D02*
X133452380Y-69254819D01*
X133452380Y-69254819D02*
X133452380Y-68254819D01*
X132976189Y-69254819D02*
X132976189Y-68254819D01*
X132976189Y-68254819D02*
X132738094Y-68254819D01*
X132738094Y-68254819D02*
X132595237Y-68302438D01*
X132595237Y-68302438D02*
X132499999Y-68397676D01*
X132499999Y-68397676D02*
X132452380Y-68492914D01*
X132452380Y-68492914D02*
X132404761Y-68683390D01*
X132404761Y-68683390D02*
X132404761Y-68826247D01*
X132404761Y-68826247D02*
X132452380Y-69016723D01*
X132452380Y-69016723D02*
X132499999Y-69111961D01*
X132499999Y-69111961D02*
X132595237Y-69207200D01*
X132595237Y-69207200D02*
X132738094Y-69254819D01*
X132738094Y-69254819D02*
X132976189Y-69254819D01*
X132023808Y-68969104D02*
X131547618Y-68969104D01*
X132119046Y-69254819D02*
X131785713Y-68254819D01*
X131785713Y-68254819D02*
X131452380Y-69254819D01*
X130357141Y-68731009D02*
X130023808Y-68731009D01*
X129880951Y-69254819D02*
X130357141Y-69254819D01*
X130357141Y-69254819D02*
X130357141Y-68254819D01*
X130357141Y-68254819D02*
X129880951Y-68254819D01*
X129547617Y-68254819D02*
X129309522Y-69254819D01*
X129309522Y-69254819D02*
X129119046Y-68540533D01*
X129119046Y-68540533D02*
X128928570Y-69254819D01*
X128928570Y-69254819D02*
X128690475Y-68254819D01*
X128309522Y-69254819D02*
X128309522Y-68254819D01*
X127833332Y-69254819D02*
X127833332Y-68254819D01*
X127833332Y-68254819D02*
X127261904Y-69254819D01*
X127261904Y-69254819D02*
X127261904Y-68254819D01*
X126261904Y-68302438D02*
X126357142Y-68254819D01*
X126357142Y-68254819D02*
X126499999Y-68254819D01*
X126499999Y-68254819D02*
X126642856Y-68302438D01*
X126642856Y-68302438D02*
X126738094Y-68397676D01*
X126738094Y-68397676D02*
X126785713Y-68492914D01*
X126785713Y-68492914D02*
X126833332Y-68683390D01*
X126833332Y-68683390D02*
X126833332Y-68826247D01*
X126833332Y-68826247D02*
X126785713Y-69016723D01*
X126785713Y-69016723D02*
X126738094Y-69111961D01*
X126738094Y-69111961D02*
X126642856Y-69207200D01*
X126642856Y-69207200D02*
X126499999Y-69254819D01*
X126499999Y-69254819D02*
X126404761Y-69254819D01*
X126404761Y-69254819D02*
X126261904Y-69207200D01*
X126261904Y-69207200D02*
X126214285Y-69159580D01*
X126214285Y-69159580D02*
X126214285Y-68826247D01*
X126214285Y-68826247D02*
X126404761Y-68826247D01*
X125738094Y-69207200D02*
X125738094Y-69254819D01*
X125738094Y-69254819D02*
X125785713Y-69350057D01*
X125785713Y-69350057D02*
X125833332Y-69397676D01*
X124547618Y-69254819D02*
X124547618Y-68254819D01*
X124547618Y-68254819D02*
X123976190Y-69254819D01*
X123976190Y-69254819D02*
X123976190Y-68254819D01*
X123499999Y-69254819D02*
X123499999Y-68254819D01*
X122452381Y-69159580D02*
X122500000Y-69207200D01*
X122500000Y-69207200D02*
X122642857Y-69254819D01*
X122642857Y-69254819D02*
X122738095Y-69254819D01*
X122738095Y-69254819D02*
X122880952Y-69207200D01*
X122880952Y-69207200D02*
X122976190Y-69111961D01*
X122976190Y-69111961D02*
X123023809Y-69016723D01*
X123023809Y-69016723D02*
X123071428Y-68826247D01*
X123071428Y-68826247D02*
X123071428Y-68683390D01*
X123071428Y-68683390D02*
X123023809Y-68492914D01*
X123023809Y-68492914D02*
X122976190Y-68397676D01*
X122976190Y-68397676D02*
X122880952Y-68302438D01*
X122880952Y-68302438D02*
X122738095Y-68254819D01*
X122738095Y-68254819D02*
X122642857Y-68254819D01*
X122642857Y-68254819D02*
X122500000Y-68302438D01*
X122500000Y-68302438D02*
X122452381Y-68350057D01*
X121833333Y-68254819D02*
X121642857Y-68254819D01*
X121642857Y-68254819D02*
X121547619Y-68302438D01*
X121547619Y-68302438D02*
X121452381Y-68397676D01*
X121452381Y-68397676D02*
X121404762Y-68588152D01*
X121404762Y-68588152D02*
X121404762Y-68921485D01*
X121404762Y-68921485D02*
X121452381Y-69111961D01*
X121452381Y-69111961D02*
X121547619Y-69207200D01*
X121547619Y-69207200D02*
X121642857Y-69254819D01*
X121642857Y-69254819D02*
X121833333Y-69254819D01*
X121833333Y-69254819D02*
X121928571Y-69207200D01*
X121928571Y-69207200D02*
X122023809Y-69111961D01*
X122023809Y-69111961D02*
X122071428Y-68921485D01*
X122071428Y-68921485D02*
X122071428Y-68588152D01*
X122071428Y-68588152D02*
X122023809Y-68397676D01*
X122023809Y-68397676D02*
X121928571Y-68302438D01*
X121928571Y-68302438D02*
X121833333Y-68254819D01*
X120500000Y-69254819D02*
X120976190Y-69254819D01*
X120976190Y-69254819D02*
X120976190Y-68254819D01*
X120166666Y-68731009D02*
X119833333Y-68731009D01*
X119690476Y-69254819D02*
X120166666Y-69254819D01*
X120166666Y-69254819D02*
X120166666Y-68254819D01*
X120166666Y-68254819D02*
X119690476Y-68254819D01*
X118499999Y-69254819D02*
X118499999Y-68254819D01*
X118499999Y-68254819D02*
X118166666Y-68969104D01*
X118166666Y-68969104D02*
X117833333Y-68254819D01*
X117833333Y-68254819D02*
X117833333Y-69254819D01*
X117404761Y-68969104D02*
X116928571Y-68969104D01*
X117499999Y-69254819D02*
X117166666Y-68254819D01*
X117166666Y-68254819D02*
X116833333Y-69254819D01*
X115976190Y-68302438D02*
X116071428Y-68254819D01*
X116071428Y-68254819D02*
X116214285Y-68254819D01*
X116214285Y-68254819D02*
X116357142Y-68302438D01*
X116357142Y-68302438D02*
X116452380Y-68397676D01*
X116452380Y-68397676D02*
X116499999Y-68492914D01*
X116499999Y-68492914D02*
X116547618Y-68683390D01*
X116547618Y-68683390D02*
X116547618Y-68826247D01*
X116547618Y-68826247D02*
X116499999Y-69016723D01*
X116499999Y-69016723D02*
X116452380Y-69111961D01*
X116452380Y-69111961D02*
X116357142Y-69207200D01*
X116357142Y-69207200D02*
X116214285Y-69254819D01*
X116214285Y-69254819D02*
X116119047Y-69254819D01*
X116119047Y-69254819D02*
X115976190Y-69207200D01*
X115976190Y-69207200D02*
X115928571Y-69159580D01*
X115928571Y-69159580D02*
X115928571Y-68826247D01*
X115928571Y-68826247D02*
X116119047Y-68826247D01*
X114976190Y-68302438D02*
X115071428Y-68254819D01*
X115071428Y-68254819D02*
X115214285Y-68254819D01*
X115214285Y-68254819D02*
X115357142Y-68302438D01*
X115357142Y-68302438D02*
X115452380Y-68397676D01*
X115452380Y-68397676D02*
X115499999Y-68492914D01*
X115499999Y-68492914D02*
X115547618Y-68683390D01*
X115547618Y-68683390D02*
X115547618Y-68826247D01*
X115547618Y-68826247D02*
X115499999Y-69016723D01*
X115499999Y-69016723D02*
X115452380Y-69111961D01*
X115452380Y-69111961D02*
X115357142Y-69207200D01*
X115357142Y-69207200D02*
X115214285Y-69254819D01*
X115214285Y-69254819D02*
X115119047Y-69254819D01*
X115119047Y-69254819D02*
X114976190Y-69207200D01*
X114976190Y-69207200D02*
X114928571Y-69159580D01*
X114928571Y-69159580D02*
X114928571Y-68826247D01*
X114928571Y-68826247D02*
X115119047Y-68826247D01*
X114547618Y-68969104D02*
X114071428Y-68969104D01*
X114642856Y-69254819D02*
X114309523Y-68254819D01*
X114309523Y-68254819D02*
X113976190Y-69254819D01*
X113071428Y-69254819D02*
X113404761Y-68778628D01*
X113642856Y-69254819D02*
X113642856Y-68254819D01*
X113642856Y-68254819D02*
X113261904Y-68254819D01*
X113261904Y-68254819D02*
X113166666Y-68302438D01*
X113166666Y-68302438D02*
X113119047Y-68350057D01*
X113119047Y-68350057D02*
X113071428Y-68445295D01*
X113071428Y-68445295D02*
X113071428Y-68588152D01*
X113071428Y-68588152D02*
X113119047Y-68683390D01*
X113119047Y-68683390D02*
X113166666Y-68731009D01*
X113166666Y-68731009D02*
X113261904Y-68778628D01*
X113261904Y-68778628D02*
X113642856Y-68778628D01*
X112642856Y-69254819D02*
X112642856Y-68254819D01*
X112642856Y-68254819D02*
X112404761Y-68254819D01*
X112404761Y-68254819D02*
X112261904Y-68302438D01*
X112261904Y-68302438D02*
X112166666Y-68397676D01*
X112166666Y-68397676D02*
X112119047Y-68492914D01*
X112119047Y-68492914D02*
X112071428Y-68683390D01*
X112071428Y-68683390D02*
X112071428Y-68826247D01*
X112071428Y-68826247D02*
X112119047Y-69016723D01*
X112119047Y-69016723D02*
X112166666Y-69111961D01*
X112166666Y-69111961D02*
X112261904Y-69207200D01*
X112261904Y-69207200D02*
X112404761Y-69254819D01*
X112404761Y-69254819D02*
X112642856Y-69254819D01*
X136261905Y-70864763D02*
X136595238Y-70388572D01*
X136833333Y-70864763D02*
X136833333Y-69864763D01*
X136833333Y-69864763D02*
X136452381Y-69864763D01*
X136452381Y-69864763D02*
X136357143Y-69912382D01*
X136357143Y-69912382D02*
X136309524Y-69960001D01*
X136309524Y-69960001D02*
X136261905Y-70055239D01*
X136261905Y-70055239D02*
X136261905Y-70198096D01*
X136261905Y-70198096D02*
X136309524Y-70293334D01*
X136309524Y-70293334D02*
X136357143Y-70340953D01*
X136357143Y-70340953D02*
X136452381Y-70388572D01*
X136452381Y-70388572D02*
X136833333Y-70388572D01*
X135404762Y-70864763D02*
X135404762Y-70340953D01*
X135404762Y-70340953D02*
X135452381Y-70245715D01*
X135452381Y-70245715D02*
X135547619Y-70198096D01*
X135547619Y-70198096D02*
X135738095Y-70198096D01*
X135738095Y-70198096D02*
X135833333Y-70245715D01*
X135404762Y-70817144D02*
X135500000Y-70864763D01*
X135500000Y-70864763D02*
X135738095Y-70864763D01*
X135738095Y-70864763D02*
X135833333Y-70817144D01*
X135833333Y-70817144D02*
X135880952Y-70721905D01*
X135880952Y-70721905D02*
X135880952Y-70626667D01*
X135880952Y-70626667D02*
X135833333Y-70531429D01*
X135833333Y-70531429D02*
X135738095Y-70483810D01*
X135738095Y-70483810D02*
X135500000Y-70483810D01*
X135500000Y-70483810D02*
X135404762Y-70436191D01*
X134500000Y-70817144D02*
X134595238Y-70864763D01*
X134595238Y-70864763D02*
X134785714Y-70864763D01*
X134785714Y-70864763D02*
X134880952Y-70817144D01*
X134880952Y-70817144D02*
X134928571Y-70769524D01*
X134928571Y-70769524D02*
X134976190Y-70674286D01*
X134976190Y-70674286D02*
X134976190Y-70388572D01*
X134976190Y-70388572D02*
X134928571Y-70293334D01*
X134928571Y-70293334D02*
X134880952Y-70245715D01*
X134880952Y-70245715D02*
X134785714Y-70198096D01*
X134785714Y-70198096D02*
X134595238Y-70198096D01*
X134595238Y-70198096D02*
X134500000Y-70245715D01*
X134071428Y-70864763D02*
X134071428Y-69864763D01*
X133642857Y-70864763D02*
X133642857Y-70340953D01*
X133642857Y-70340953D02*
X133690476Y-70245715D01*
X133690476Y-70245715D02*
X133785714Y-70198096D01*
X133785714Y-70198096D02*
X133928571Y-70198096D01*
X133928571Y-70198096D02*
X134023809Y-70245715D01*
X134023809Y-70245715D02*
X134071428Y-70293334D01*
X132785714Y-70817144D02*
X132880952Y-70864763D01*
X132880952Y-70864763D02*
X133071428Y-70864763D01*
X133071428Y-70864763D02*
X133166666Y-70817144D01*
X133166666Y-70817144D02*
X133214285Y-70721905D01*
X133214285Y-70721905D02*
X133214285Y-70340953D01*
X133214285Y-70340953D02*
X133166666Y-70245715D01*
X133166666Y-70245715D02*
X133071428Y-70198096D01*
X133071428Y-70198096D02*
X132880952Y-70198096D01*
X132880952Y-70198096D02*
X132785714Y-70245715D01*
X132785714Y-70245715D02*
X132738095Y-70340953D01*
X132738095Y-70340953D02*
X132738095Y-70436191D01*
X132738095Y-70436191D02*
X133214285Y-70531429D01*
X132166666Y-70864763D02*
X132261904Y-70817144D01*
X132261904Y-70817144D02*
X132309523Y-70721905D01*
X132309523Y-70721905D02*
X132309523Y-69864763D01*
X130452380Y-70864763D02*
X130785713Y-70388572D01*
X131023808Y-70864763D02*
X131023808Y-69864763D01*
X131023808Y-69864763D02*
X130642856Y-69864763D01*
X130642856Y-69864763D02*
X130547618Y-69912382D01*
X130547618Y-69912382D02*
X130499999Y-69960001D01*
X130499999Y-69960001D02*
X130452380Y-70055239D01*
X130452380Y-70055239D02*
X130452380Y-70198096D01*
X130452380Y-70198096D02*
X130499999Y-70293334D01*
X130499999Y-70293334D02*
X130547618Y-70340953D01*
X130547618Y-70340953D02*
X130642856Y-70388572D01*
X130642856Y-70388572D02*
X131023808Y-70388572D01*
X129595237Y-70864763D02*
X129595237Y-70340953D01*
X129595237Y-70340953D02*
X129642856Y-70245715D01*
X129642856Y-70245715D02*
X129738094Y-70198096D01*
X129738094Y-70198096D02*
X129928570Y-70198096D01*
X129928570Y-70198096D02*
X130023808Y-70245715D01*
X129595237Y-70817144D02*
X129690475Y-70864763D01*
X129690475Y-70864763D02*
X129928570Y-70864763D01*
X129928570Y-70864763D02*
X130023808Y-70817144D01*
X130023808Y-70817144D02*
X130071427Y-70721905D01*
X130071427Y-70721905D02*
X130071427Y-70626667D01*
X130071427Y-70626667D02*
X130023808Y-70531429D01*
X130023808Y-70531429D02*
X129928570Y-70483810D01*
X129928570Y-70483810D02*
X129690475Y-70483810D01*
X129690475Y-70483810D02*
X129595237Y-70436191D01*
X129119046Y-70864763D02*
X129119046Y-69864763D01*
X129023808Y-70483810D02*
X128738094Y-70864763D01*
X128738094Y-70198096D02*
X129119046Y-70579048D01*
X127880951Y-70198096D02*
X127880951Y-70864763D01*
X128309522Y-70198096D02*
X128309522Y-70721905D01*
X128309522Y-70721905D02*
X128261903Y-70817144D01*
X128261903Y-70817144D02*
X128166665Y-70864763D01*
X128166665Y-70864763D02*
X128023808Y-70864763D01*
X128023808Y-70864763D02*
X127928570Y-70817144D01*
X127928570Y-70817144D02*
X127880951Y-70769524D01*
X127452379Y-70817144D02*
X127357141Y-70864763D01*
X127357141Y-70864763D02*
X127166665Y-70864763D01*
X127166665Y-70864763D02*
X127071427Y-70817144D01*
X127071427Y-70817144D02*
X127023808Y-70721905D01*
X127023808Y-70721905D02*
X127023808Y-70674286D01*
X127023808Y-70674286D02*
X127071427Y-70579048D01*
X127071427Y-70579048D02*
X127166665Y-70531429D01*
X127166665Y-70531429D02*
X127309522Y-70531429D01*
X127309522Y-70531429D02*
X127404760Y-70483810D01*
X127404760Y-70483810D02*
X127452379Y-70388572D01*
X127452379Y-70388572D02*
X127452379Y-70340953D01*
X127452379Y-70340953D02*
X127404760Y-70245715D01*
X127404760Y-70245715D02*
X127309522Y-70198096D01*
X127309522Y-70198096D02*
X127166665Y-70198096D01*
X127166665Y-70198096D02*
X127071427Y-70245715D01*
X126595236Y-70864763D02*
X126595236Y-69864763D01*
X126166665Y-70864763D02*
X126166665Y-70340953D01*
X126166665Y-70340953D02*
X126214284Y-70245715D01*
X126214284Y-70245715D02*
X126309522Y-70198096D01*
X126309522Y-70198096D02*
X126452379Y-70198096D01*
X126452379Y-70198096D02*
X126547617Y-70245715D01*
X126547617Y-70245715D02*
X126595236Y-70293334D01*
X125690474Y-70864763D02*
X125690474Y-69864763D01*
X125595236Y-70483810D02*
X125309522Y-70864763D01*
X125309522Y-70198096D02*
X125690474Y-70579048D01*
X124880950Y-70864763D02*
X124880950Y-70198096D01*
X124880950Y-69864763D02*
X124928569Y-69912382D01*
X124928569Y-69912382D02*
X124880950Y-69960001D01*
X124880950Y-69960001D02*
X124833331Y-69912382D01*
X124833331Y-69912382D02*
X124880950Y-69864763D01*
X124880950Y-69864763D02*
X124880950Y-69960001D01*
X124404760Y-70198096D02*
X124404760Y-70864763D01*
X124404760Y-70293334D02*
X124357141Y-70245715D01*
X124357141Y-70245715D02*
X124261903Y-70198096D01*
X124261903Y-70198096D02*
X124119046Y-70198096D01*
X124119046Y-70198096D02*
X124023808Y-70245715D01*
X124023808Y-70245715D02*
X123976189Y-70340953D01*
X123976189Y-70340953D02*
X123976189Y-70864763D01*
X123452379Y-70817144D02*
X123452379Y-70864763D01*
X123452379Y-70864763D02*
X123499998Y-70960001D01*
X123499998Y-70960001D02*
X123547617Y-71007620D01*
X122261903Y-70864763D02*
X122261903Y-69864763D01*
X122261903Y-69864763D02*
X121928570Y-70579048D01*
X121928570Y-70579048D02*
X121595237Y-69864763D01*
X121595237Y-69864763D02*
X121595237Y-70864763D01*
X121119046Y-70864763D02*
X121119046Y-70198096D01*
X121119046Y-69864763D02*
X121166665Y-69912382D01*
X121166665Y-69912382D02*
X121119046Y-69960001D01*
X121119046Y-69960001D02*
X121071427Y-69912382D01*
X121071427Y-69912382D02*
X121119046Y-69864763D01*
X121119046Y-69864763D02*
X121119046Y-69960001D01*
X120214285Y-70817144D02*
X120309523Y-70864763D01*
X120309523Y-70864763D02*
X120499999Y-70864763D01*
X120499999Y-70864763D02*
X120595237Y-70817144D01*
X120595237Y-70817144D02*
X120642856Y-70769524D01*
X120642856Y-70769524D02*
X120690475Y-70674286D01*
X120690475Y-70674286D02*
X120690475Y-70388572D01*
X120690475Y-70388572D02*
X120642856Y-70293334D01*
X120642856Y-70293334D02*
X120595237Y-70245715D01*
X120595237Y-70245715D02*
X120499999Y-70198096D01*
X120499999Y-70198096D02*
X120309523Y-70198096D01*
X120309523Y-70198096D02*
X120214285Y-70245715D01*
X119785713Y-70864763D02*
X119785713Y-69864763D01*
X119357142Y-70864763D02*
X119357142Y-70340953D01*
X119357142Y-70340953D02*
X119404761Y-70245715D01*
X119404761Y-70245715D02*
X119499999Y-70198096D01*
X119499999Y-70198096D02*
X119642856Y-70198096D01*
X119642856Y-70198096D02*
X119738094Y-70245715D01*
X119738094Y-70245715D02*
X119785713Y-70293334D01*
X118452380Y-70864763D02*
X118452380Y-70340953D01*
X118452380Y-70340953D02*
X118499999Y-70245715D01*
X118499999Y-70245715D02*
X118595237Y-70198096D01*
X118595237Y-70198096D02*
X118785713Y-70198096D01*
X118785713Y-70198096D02*
X118880951Y-70245715D01*
X118452380Y-70817144D02*
X118547618Y-70864763D01*
X118547618Y-70864763D02*
X118785713Y-70864763D01*
X118785713Y-70864763D02*
X118880951Y-70817144D01*
X118880951Y-70817144D02*
X118928570Y-70721905D01*
X118928570Y-70721905D02*
X118928570Y-70626667D01*
X118928570Y-70626667D02*
X118880951Y-70531429D01*
X118880951Y-70531429D02*
X118785713Y-70483810D01*
X118785713Y-70483810D02*
X118547618Y-70483810D01*
X118547618Y-70483810D02*
X118452380Y-70436191D01*
X117595237Y-70817144D02*
X117690475Y-70864763D01*
X117690475Y-70864763D02*
X117880951Y-70864763D01*
X117880951Y-70864763D02*
X117976189Y-70817144D01*
X117976189Y-70817144D02*
X118023808Y-70721905D01*
X118023808Y-70721905D02*
X118023808Y-70340953D01*
X118023808Y-70340953D02*
X117976189Y-70245715D01*
X117976189Y-70245715D02*
X117880951Y-70198096D01*
X117880951Y-70198096D02*
X117690475Y-70198096D01*
X117690475Y-70198096D02*
X117595237Y-70245715D01*
X117595237Y-70245715D02*
X117547618Y-70340953D01*
X117547618Y-70340953D02*
X117547618Y-70436191D01*
X117547618Y-70436191D02*
X118023808Y-70531429D01*
X116976189Y-70864763D02*
X117071427Y-70817144D01*
X117071427Y-70817144D02*
X117119046Y-70721905D01*
X117119046Y-70721905D02*
X117119046Y-69864763D01*
X115833331Y-70864763D02*
X115833331Y-69864763D01*
X115833331Y-69864763D02*
X115452379Y-69864763D01*
X115452379Y-69864763D02*
X115357141Y-69912382D01*
X115357141Y-69912382D02*
X115309522Y-69960001D01*
X115309522Y-69960001D02*
X115261903Y-70055239D01*
X115261903Y-70055239D02*
X115261903Y-70198096D01*
X115261903Y-70198096D02*
X115309522Y-70293334D01*
X115309522Y-70293334D02*
X115357141Y-70340953D01*
X115357141Y-70340953D02*
X115452379Y-70388572D01*
X115452379Y-70388572D02*
X115833331Y-70388572D01*
X114833331Y-70864763D02*
X114833331Y-69864763D01*
X114404760Y-70864763D02*
X114404760Y-70340953D01*
X114404760Y-70340953D02*
X114452379Y-70245715D01*
X114452379Y-70245715D02*
X114547617Y-70198096D01*
X114547617Y-70198096D02*
X114690474Y-70198096D01*
X114690474Y-70198096D02*
X114785712Y-70245715D01*
X114785712Y-70245715D02*
X114833331Y-70293334D01*
X113499998Y-70864763D02*
X113499998Y-70340953D01*
X113499998Y-70340953D02*
X113547617Y-70245715D01*
X113547617Y-70245715D02*
X113642855Y-70198096D01*
X113642855Y-70198096D02*
X113833331Y-70198096D01*
X113833331Y-70198096D02*
X113928569Y-70245715D01*
X113499998Y-70817144D02*
X113595236Y-70864763D01*
X113595236Y-70864763D02*
X113833331Y-70864763D01*
X113833331Y-70864763D02*
X113928569Y-70817144D01*
X113928569Y-70817144D02*
X113976188Y-70721905D01*
X113976188Y-70721905D02*
X113976188Y-70626667D01*
X113976188Y-70626667D02*
X113928569Y-70531429D01*
X113928569Y-70531429D02*
X113833331Y-70483810D01*
X113833331Y-70483810D02*
X113595236Y-70483810D01*
X113595236Y-70483810D02*
X113499998Y-70436191D01*
X113023807Y-70864763D02*
X113023807Y-70198096D01*
X113023807Y-70293334D02*
X112976188Y-70245715D01*
X112976188Y-70245715D02*
X112880950Y-70198096D01*
X112880950Y-70198096D02*
X112738093Y-70198096D01*
X112738093Y-70198096D02*
X112642855Y-70245715D01*
X112642855Y-70245715D02*
X112595236Y-70340953D01*
X112595236Y-70340953D02*
X112595236Y-70864763D01*
X112595236Y-70340953D02*
X112547617Y-70245715D01*
X112547617Y-70245715D02*
X112452379Y-70198096D01*
X112452379Y-70198096D02*
X112309522Y-70198096D01*
X112309522Y-70198096D02*
X112214283Y-70245715D01*
X112214283Y-70245715D02*
X112166664Y-70340953D01*
X112166664Y-70340953D02*
X112166664Y-70864763D01*
X145190477Y-111409581D02*
X145238096Y-111457201D01*
X145238096Y-111457201D02*
X145380953Y-111504820D01*
X145380953Y-111504820D02*
X145476191Y-111504820D01*
X145476191Y-111504820D02*
X145619048Y-111457201D01*
X145619048Y-111457201D02*
X145714286Y-111361962D01*
X145714286Y-111361962D02*
X145761905Y-111266724D01*
X145761905Y-111266724D02*
X145809524Y-111076248D01*
X145809524Y-111076248D02*
X145809524Y-110933391D01*
X145809524Y-110933391D02*
X145761905Y-110742915D01*
X145761905Y-110742915D02*
X145714286Y-110647677D01*
X145714286Y-110647677D02*
X145619048Y-110552439D01*
X145619048Y-110552439D02*
X145476191Y-110504820D01*
X145476191Y-110504820D02*
X145380953Y-110504820D01*
X145380953Y-110504820D02*
X145238096Y-110552439D01*
X145238096Y-110552439D02*
X145190477Y-110600058D01*
X144761905Y-111504820D02*
X144761905Y-110504820D01*
X144761905Y-110504820D02*
X144190477Y-111504820D01*
X144190477Y-111504820D02*
X144190477Y-110504820D01*
X143190477Y-111504820D02*
X143761905Y-111504820D01*
X143476191Y-111504820D02*
X143476191Y-110504820D01*
X143476191Y-110504820D02*
X143571429Y-110647677D01*
X143571429Y-110647677D02*
X143666667Y-110742915D01*
X143666667Y-110742915D02*
X143761905Y-110790534D01*
X156279523Y-110694819D02*
X156279523Y-111409104D01*
X156279523Y-111409104D02*
X156327142Y-111551961D01*
X156327142Y-111551961D02*
X156422380Y-111647200D01*
X156422380Y-111647200D02*
X156565237Y-111694819D01*
X156565237Y-111694819D02*
X156660475Y-111694819D01*
X155279523Y-111694819D02*
X155850951Y-111694819D01*
X155565237Y-111694819D02*
X155565237Y-110694819D01*
X155565237Y-110694819D02*
X155660475Y-110837676D01*
X155660475Y-110837676D02*
X155755713Y-110932914D01*
X155755713Y-110932914D02*
X155850951Y-110980533D01*
X154327142Y-111694819D02*
X154898570Y-111694819D01*
X154612856Y-111694819D02*
X154612856Y-110694819D01*
X154612856Y-110694819D02*
X154708094Y-110837676D01*
X154708094Y-110837676D02*
X154803332Y-110932914D01*
X154803332Y-110932914D02*
X154898570Y-110980533D01*
X154795238Y-124950057D02*
X154890476Y-124902438D01*
X154890476Y-124902438D02*
X154985714Y-124807200D01*
X154985714Y-124807200D02*
X155128571Y-124664342D01*
X155128571Y-124664342D02*
X155223809Y-124616723D01*
X155223809Y-124616723D02*
X155319047Y-124616723D01*
X155271428Y-124854819D02*
X155366666Y-124807200D01*
X155366666Y-124807200D02*
X155461904Y-124711961D01*
X155461904Y-124711961D02*
X155509523Y-124521485D01*
X155509523Y-124521485D02*
X155509523Y-124188152D01*
X155509523Y-124188152D02*
X155461904Y-123997676D01*
X155461904Y-123997676D02*
X155366666Y-123902438D01*
X155366666Y-123902438D02*
X155271428Y-123854819D01*
X155271428Y-123854819D02*
X155080952Y-123854819D01*
X155080952Y-123854819D02*
X154985714Y-123902438D01*
X154985714Y-123902438D02*
X154890476Y-123997676D01*
X154890476Y-123997676D02*
X154842857Y-124188152D01*
X154842857Y-124188152D02*
X154842857Y-124521485D01*
X154842857Y-124521485D02*
X154890476Y-124711961D01*
X154890476Y-124711961D02*
X154985714Y-124807200D01*
X154985714Y-124807200D02*
X155080952Y-124854819D01*
X155080952Y-124854819D02*
X155271428Y-124854819D01*
X154461904Y-123950057D02*
X154414285Y-123902438D01*
X154414285Y-123902438D02*
X154319047Y-123854819D01*
X154319047Y-123854819D02*
X154080952Y-123854819D01*
X154080952Y-123854819D02*
X153985714Y-123902438D01*
X153985714Y-123902438D02*
X153938095Y-123950057D01*
X153938095Y-123950057D02*
X153890476Y-124045295D01*
X153890476Y-124045295D02*
X153890476Y-124140533D01*
X153890476Y-124140533D02*
X153938095Y-124283390D01*
X153938095Y-124283390D02*
X154509523Y-124854819D01*
X154509523Y-124854819D02*
X153890476Y-124854819D01*
X145261904Y-90964819D02*
X145261904Y-91774342D01*
X145261904Y-91774342D02*
X145214285Y-91869580D01*
X145214285Y-91869580D02*
X145166666Y-91917200D01*
X145166666Y-91917200D02*
X145071428Y-91964819D01*
X145071428Y-91964819D02*
X144880952Y-91964819D01*
X144880952Y-91964819D02*
X144785714Y-91917200D01*
X144785714Y-91917200D02*
X144738095Y-91869580D01*
X144738095Y-91869580D02*
X144690476Y-91774342D01*
X144690476Y-91774342D02*
X144690476Y-90964819D01*
X143785714Y-90964819D02*
X143976190Y-90964819D01*
X143976190Y-90964819D02*
X144071428Y-91012438D01*
X144071428Y-91012438D02*
X144119047Y-91060057D01*
X144119047Y-91060057D02*
X144214285Y-91202914D01*
X144214285Y-91202914D02*
X144261904Y-91393390D01*
X144261904Y-91393390D02*
X144261904Y-91774342D01*
X144261904Y-91774342D02*
X144214285Y-91869580D01*
X144214285Y-91869580D02*
X144166666Y-91917200D01*
X144166666Y-91917200D02*
X144071428Y-91964819D01*
X144071428Y-91964819D02*
X143880952Y-91964819D01*
X143880952Y-91964819D02*
X143785714Y-91917200D01*
X143785714Y-91917200D02*
X143738095Y-91869580D01*
X143738095Y-91869580D02*
X143690476Y-91774342D01*
X143690476Y-91774342D02*
X143690476Y-91536247D01*
X143690476Y-91536247D02*
X143738095Y-91441009D01*
X143738095Y-91441009D02*
X143785714Y-91393390D01*
X143785714Y-91393390D02*
X143880952Y-91345771D01*
X143880952Y-91345771D02*
X144071428Y-91345771D01*
X144071428Y-91345771D02*
X144166666Y-91393390D01*
X144166666Y-91393390D02*
X144214285Y-91441009D01*
X144214285Y-91441009D02*
X144261904Y-91536247D01*
X145261904Y-136444819D02*
X145261904Y-137254342D01*
X145261904Y-137254342D02*
X145214285Y-137349580D01*
X145214285Y-137349580D02*
X145166666Y-137397200D01*
X145166666Y-137397200D02*
X145071428Y-137444819D01*
X145071428Y-137444819D02*
X144880952Y-137444819D01*
X144880952Y-137444819D02*
X144785714Y-137397200D01*
X144785714Y-137397200D02*
X144738095Y-137349580D01*
X144738095Y-137349580D02*
X144690476Y-137254342D01*
X144690476Y-137254342D02*
X144690476Y-136444819D01*
X143738095Y-136444819D02*
X144214285Y-136444819D01*
X144214285Y-136444819D02*
X144261904Y-136921009D01*
X144261904Y-136921009D02*
X144214285Y-136873390D01*
X144214285Y-136873390D02*
X144119047Y-136825771D01*
X144119047Y-136825771D02*
X143880952Y-136825771D01*
X143880952Y-136825771D02*
X143785714Y-136873390D01*
X143785714Y-136873390D02*
X143738095Y-136921009D01*
X143738095Y-136921009D02*
X143690476Y-137016247D01*
X143690476Y-137016247D02*
X143690476Y-137254342D01*
X143690476Y-137254342D02*
X143738095Y-137349580D01*
X143738095Y-137349580D02*
X143785714Y-137397200D01*
X143785714Y-137397200D02*
X143880952Y-137444819D01*
X143880952Y-137444819D02*
X144119047Y-137444819D01*
X144119047Y-137444819D02*
X144214285Y-137397200D01*
X144214285Y-137397200D02*
X144261904Y-137349580D01*
D11*
%TO.C,CN1*%
X140400001Y-112150001D02*
X148600001Y-112150001D01*
X140400001Y-114750001D02*
X140800001Y-114750001D01*
X140400001Y-117350001D02*
X140400001Y-112150001D01*
X140800001Y-112550001D02*
X143000001Y-112550001D01*
X140800001Y-114750001D02*
X140800001Y-112550001D01*
X140800001Y-115750001D02*
X140400001Y-115750001D01*
X140800001Y-116950001D02*
X140800001Y-115750001D01*
X143000001Y-112550001D02*
X143000001Y-112150001D01*
X144000001Y-112550001D02*
X144000001Y-112150001D01*
X145000001Y-112150001D02*
X145000001Y-112550001D01*
X145000001Y-112550001D02*
X144000001Y-112550001D01*
X146000001Y-112550001D02*
X146000001Y-112150001D01*
X148200001Y-112550001D02*
X146000001Y-112550001D01*
X148200001Y-114750001D02*
X148200001Y-112550001D01*
X148200001Y-115750001D02*
X148200001Y-116950001D01*
X148200001Y-116950001D02*
X140800001Y-116950001D01*
X148600001Y-112150001D02*
X148600001Y-117350001D01*
X148600001Y-114750001D02*
X148200001Y-114750001D01*
X148600001Y-115750001D02*
X148200001Y-115750001D01*
X148600001Y-117350001D02*
X140400001Y-117350001D01*
X148910001Y-111840001D02*
X147000001Y-111840001D01*
X148910001Y-113750001D02*
X148910001Y-111840001D01*
%TO.C,J11*%
X152090000Y-115900000D02*
X152090000Y-117810000D01*
X152090000Y-117810000D02*
X154000000Y-117810000D01*
X152400000Y-112300000D02*
X158600000Y-112300000D01*
X152400000Y-113900000D02*
X152800000Y-113900000D01*
X152400000Y-114900000D02*
X152800000Y-114900000D01*
X152400000Y-117500000D02*
X152400000Y-112300000D01*
X152800000Y-112700000D02*
X158200000Y-112700000D01*
X152800000Y-113900000D02*
X152800000Y-112700000D01*
X152800000Y-114900000D02*
X152800000Y-117100000D01*
X152800000Y-117100000D02*
X155000000Y-117100000D01*
X155000000Y-117100000D02*
X155000000Y-117500000D01*
X156000000Y-117100000D02*
X156000000Y-117500000D01*
X158200000Y-112700000D02*
X158200000Y-113900000D01*
X158200000Y-113900000D02*
X158600000Y-113900000D01*
X158200000Y-114900000D02*
X158200000Y-117100000D01*
X158200000Y-117100000D02*
X156000000Y-117100000D01*
X158600000Y-112300000D02*
X158600000Y-117500000D01*
X158600000Y-114900000D02*
X158200000Y-114900000D01*
X158600000Y-117500000D02*
X152400000Y-117500000D01*
%TO.C,Q2*%
X157760000Y-118215000D02*
X151640000Y-118215000D01*
X157760000Y-123585000D02*
X152080000Y-123585000D01*
X151808378Y-123650270D02*
X151328378Y-123650270D01*
X151568378Y-123320270D01*
X151808378Y-123650270D01*
G36*
X151808378Y-123650270D02*
G01*
X151328378Y-123650270D01*
X151568378Y-123320270D01*
X151808378Y-123650270D01*
G37*
D12*
%TO.C,U6*%
X137900000Y-95500000D02*
X137900000Y-99550000D01*
X137900000Y-101800000D02*
X140000000Y-101800001D01*
X140000000Y-99550000D02*
X149000000Y-99550000D01*
X140000000Y-101800001D02*
X140000000Y-99550000D01*
X140220000Y-95499999D02*
X137900000Y-95500000D01*
X141720000Y-95500000D02*
X141280000Y-95500000D01*
X143220000Y-95500000D02*
X142780000Y-95500000D01*
X144720000Y-95500000D02*
X144280000Y-95500000D01*
X146220000Y-95500000D02*
X145780000Y-95500000D01*
X147720000Y-95500000D02*
X147280000Y-95500000D01*
X148250000Y-98800000D02*
X149000000Y-98800000D01*
X148550000Y-99550000D02*
X148250000Y-98800000D01*
X149000000Y-98800000D02*
X148700000Y-99550000D01*
X149000000Y-99550000D02*
X149000000Y-101800001D01*
X149000000Y-101800001D02*
X151100000Y-101800000D01*
X151100000Y-95500000D02*
X148780000Y-95499999D01*
X151100000Y-95500000D02*
X151100000Y-99550000D01*
D13*
X149610000Y-94850000D02*
G75*
G02*
X149210000Y-94850000I-200000J0D01*
G01*
X149210000Y-94850000D02*
G75*
G02*
X149610000Y-94850000I200000J0D01*
G01*
D12*
%TO.C,U5*%
X137900000Y-133000000D02*
X137900000Y-128950000D01*
X137900000Y-133000000D02*
X140220000Y-133000001D01*
X140000000Y-126699999D02*
X137900000Y-126700000D01*
X140000000Y-128950000D02*
X140000000Y-126699999D01*
X140000000Y-129700000D02*
X140300000Y-128950000D01*
X140450000Y-128950000D02*
X140750000Y-129700000D01*
X140750000Y-129700000D02*
X140000000Y-129700000D01*
X141280000Y-133000000D02*
X141720000Y-133000000D01*
X142780000Y-133000000D02*
X143220000Y-133000000D01*
X144280000Y-133000000D02*
X144720000Y-133000000D01*
X145780000Y-133000000D02*
X146220000Y-133000000D01*
X147280000Y-133000000D02*
X147720000Y-133000000D01*
X148780000Y-133000001D02*
X151100000Y-133000000D01*
X149000000Y-126699999D02*
X149000000Y-128950000D01*
X149000000Y-128950000D02*
X140000000Y-128950000D01*
X151100000Y-126700000D02*
X149000000Y-126699999D01*
X151100000Y-133000000D02*
X151100000Y-128950000D01*
D13*
X139790000Y-133650000D02*
G75*
G02*
X139390000Y-133650000I-200000J0D01*
G01*
X139390000Y-133650000D02*
G75*
G02*
X139790000Y-133650000I200000J0D01*
G01*
%TD*%
%LPC*%
D14*
%TO.C,J2*%
X106500000Y-70300000D03*
%TD*%
%TO.C,J3*%
X106500000Y-159300000D03*
%TD*%
%TO.C,J4*%
X182500000Y-70300000D03*
%TD*%
%TO.C,J5*%
X182500000Y-159300000D03*
%TD*%
D15*
%TO.C,SC2*%
X122425000Y-141000000D03*
X166425000Y-141000000D03*
%TD*%
D16*
%TO.C,J13*%
X149500000Y-113900000D03*
D17*
X149500000Y-115900000D03*
X151500000Y-113900000D03*
X151500000Y-115900000D03*
%TD*%
D15*
%TO.C,SC1*%
X122450000Y-88500000D03*
X166450000Y-88500000D03*
%TD*%
D18*
%TO.C,CN1*%
X146500001Y-113750001D03*
D17*
X146500001Y-115750001D03*
X144500001Y-113750001D03*
X144500001Y-115750001D03*
X142500001Y-113750001D03*
X142500001Y-115750001D03*
%TD*%
D16*
%TO.C,J11*%
X154500000Y-115900000D03*
D17*
X154500000Y-113900000D03*
X156500000Y-115900000D03*
X156500000Y-113900000D03*
%TD*%
D19*
%TO.C,Q2*%
X155349999Y-120900000D03*
D20*
X151800000Y-122805000D03*
X151800000Y-121535000D03*
X151800000Y-120265000D03*
X151800000Y-118995000D03*
%TD*%
D21*
%TO.C,U6*%
X148250000Y-95510000D03*
X146750000Y-95510000D03*
X145250001Y-95510000D03*
X143749999Y-95510000D03*
X142250000Y-95510000D03*
X140750000Y-95510000D03*
D22*
X138150000Y-100690001D03*
X150850000Y-100690001D03*
%TD*%
D21*
%TO.C,U5*%
X140750000Y-132990000D03*
X142250000Y-132990000D03*
X143749999Y-132990000D03*
X145250001Y-132990000D03*
X146750000Y-132990000D03*
X148250000Y-132990000D03*
D22*
X150850000Y-127809999D03*
X138150000Y-127809999D03*
%TD*%
%LPD*%
M02*
