%TF.GenerationSoftware,KiCad,Pcbnew,9.0.0*%
%TF.CreationDate,2025-09-25T12:09:15-07:00*%
%TF.ProjectId,XY_Faces_V3,58595f46-6163-4657-935f-56332e6b6963,3.0*%
%TF.SameCoordinates,Original*%
%TF.FileFunction,Soldermask,Top*%
%TF.FilePolarity,Negative*%
%FSLAX46Y46*%
G04 Gerber Fmt 4.6, Leading zero omitted, Abs format (unit mm)*
G04 Created by KiCad (PCBNEW 9.0.0) date 2025-09-25 12:09:15*
%MOMM*%
%LPD*%
G01*
G04 APERTURE LIST*
G04 Aperture macros list*
%AMRoundRect*
0 Rectangle with rounded corners*
0 $1 Rounding radius*
0 $2 $3 $4 $5 $6 $7 $8 $9 X,Y pos of 4 corners*
0 Add a 4 corners polygon primitive as box body*
4,1,4,$2,$3,$4,$5,$6,$7,$8,$9,$2,$3,0*
0 Add four circle primitives for the rounded corners*
1,1,$1+$1,$2,$3*
1,1,$1+$1,$4,$5*
1,1,$1+$1,$6,$7*
1,1,$1+$1,$8,$9*
0 Add four rect primitives between the rounded corners*
20,1,$1+$1,$2,$3,$4,$5,0*
20,1,$1+$1,$4,$5,$6,$7,0*
20,1,$1+$1,$6,$7,$8,$9,0*
20,1,$1+$1,$8,$9,$2,$3,0*%
G04 Aperture macros list end*
%ADD10C,0.200000*%
%ADD11C,0.250000*%
%ADD12R,0.790000X0.850000*%
%ADD13R,0.850000X0.790000*%
%ADD14C,5.700000*%
%ADD15R,13.000000X3.000000*%
%ADD16RoundRect,0.750000X0.750000X-0.750000X0.750000X0.750000X-0.750000X0.750000X-0.750000X-0.750000X0*%
%ADD17RoundRect,0.087500X-0.250000X-0.087500X0.250000X-0.087500X0.250000X0.087500X-0.250000X0.087500X0*%
%ADD18R,2.500000X1.700000*%
%ADD19O,1.690000X0.360000*%
%ADD20RoundRect,0.225000X-0.225000X-0.250000X0.225000X-0.250000X0.225000X0.250000X-0.225000X0.250000X0*%
%ADD21RoundRect,0.200000X0.275000X-0.200000X0.275000X0.200000X-0.275000X0.200000X-0.275000X-0.200000X0*%
%ADD22RoundRect,0.225000X-0.250000X0.225000X-0.250000X-0.225000X0.250000X-0.225000X0.250000X0.225000X0*%
%ADD23RoundRect,0.250000X0.250000X0.475000X-0.250000X0.475000X-0.250000X-0.475000X0.250000X-0.475000X0*%
%ADD24RoundRect,0.200000X-0.275000X0.200000X-0.275000X-0.200000X0.275000X-0.200000X0.275000X0.200000X0*%
%ADD25RoundRect,0.200000X-0.200000X-0.275000X0.200000X-0.275000X0.200000X0.275000X-0.200000X0.275000X0*%
%ADD26RoundRect,0.225000X0.225000X0.250000X-0.225000X0.250000X-0.225000X-0.250000X0.225000X-0.250000X0*%
%ADD27RoundRect,0.218750X0.218750X0.256250X-0.218750X0.256250X-0.218750X-0.256250X0.218750X-0.256250X0*%
%ADD28RoundRect,0.075000X-0.650000X-0.075000X0.650000X-0.075000X0.650000X0.075000X-0.650000X0.075000X0*%
%ADD29RoundRect,0.250000X0.350000X0.575000X-0.350000X0.575000X-0.350000X-0.575000X0.350000X-0.575000X0*%
%ADD30O,1.200000X1.650000*%
G04 APERTURE END LIST*
D10*
X144880000Y-93520000D02*
X146350000Y-92050000D01*
X142700000Y-92950000D02*
X143550000Y-93800000D01*
X144200000Y-93540000D02*
X142720000Y-92060000D01*
X143550000Y-96500000D02*
X146250000Y-96500000D01*
X146250000Y-96500000D02*
X146250000Y-93800000D01*
X142700000Y-95650000D02*
X145400000Y-95650000D01*
X146250000Y-93800000D02*
X143550000Y-93800000D01*
X145400000Y-92950000D02*
X146250000Y-93800000D01*
X142700000Y-95650000D02*
X142700000Y-92950000D01*
X143550000Y-93800000D02*
X143550000Y-96500000D01*
X143550000Y-96500000D02*
X142700000Y-95650000D01*
X145400000Y-95650000D02*
X145400000Y-92950000D01*
X145400000Y-95650000D02*
X146250000Y-96500000D01*
X145400000Y-92950000D02*
X142700000Y-92950000D01*
D11*
X134583520Y-89684023D02*
X135297806Y-89684023D01*
X134940663Y-90934023D02*
X134940663Y-89684023D01*
X135714473Y-90934023D02*
X135714473Y-89684023D01*
X136250187Y-90934023D02*
X136250187Y-90279261D01*
X136250187Y-90279261D02*
X136190663Y-90160214D01*
X136190663Y-90160214D02*
X136071615Y-90100690D01*
X136071615Y-90100690D02*
X135893044Y-90100690D01*
X135893044Y-90100690D02*
X135773996Y-90160214D01*
X135773996Y-90160214D02*
X135714473Y-90219738D01*
X137321615Y-90874500D02*
X137202567Y-90934023D01*
X137202567Y-90934023D02*
X136964472Y-90934023D01*
X136964472Y-90934023D02*
X136845425Y-90874500D01*
X136845425Y-90874500D02*
X136785901Y-90755452D01*
X136785901Y-90755452D02*
X136785901Y-90279261D01*
X136785901Y-90279261D02*
X136845425Y-90160214D01*
X136845425Y-90160214D02*
X136964472Y-90100690D01*
X136964472Y-90100690D02*
X137202567Y-90100690D01*
X137202567Y-90100690D02*
X137321615Y-90160214D01*
X137321615Y-90160214D02*
X137381139Y-90279261D01*
X137381139Y-90279261D02*
X137381139Y-90398309D01*
X137381139Y-90398309D02*
X136785901Y-90517357D01*
X138869235Y-90934023D02*
X138869235Y-89684023D01*
X138869235Y-89684023D02*
X139345425Y-89684023D01*
X139345425Y-89684023D02*
X139464473Y-89743547D01*
X139464473Y-89743547D02*
X139523996Y-89803071D01*
X139523996Y-89803071D02*
X139583520Y-89922119D01*
X139583520Y-89922119D02*
X139583520Y-90100690D01*
X139583520Y-90100690D02*
X139523996Y-90219738D01*
X139523996Y-90219738D02*
X139464473Y-90279261D01*
X139464473Y-90279261D02*
X139345425Y-90338785D01*
X139345425Y-90338785D02*
X138869235Y-90338785D01*
X140833520Y-90934023D02*
X140416854Y-90338785D01*
X140119235Y-90934023D02*
X140119235Y-89684023D01*
X140119235Y-89684023D02*
X140595425Y-89684023D01*
X140595425Y-89684023D02*
X140714473Y-89743547D01*
X140714473Y-89743547D02*
X140773996Y-89803071D01*
X140773996Y-89803071D02*
X140833520Y-89922119D01*
X140833520Y-89922119D02*
X140833520Y-90100690D01*
X140833520Y-90100690D02*
X140773996Y-90219738D01*
X140773996Y-90219738D02*
X140714473Y-90279261D01*
X140714473Y-90279261D02*
X140595425Y-90338785D01*
X140595425Y-90338785D02*
X140119235Y-90338785D01*
X141607330Y-89684023D02*
X141845425Y-89684023D01*
X141845425Y-89684023D02*
X141964473Y-89743547D01*
X141964473Y-89743547D02*
X142083520Y-89862595D01*
X142083520Y-89862595D02*
X142143044Y-90100690D01*
X142143044Y-90100690D02*
X142143044Y-90517357D01*
X142143044Y-90517357D02*
X142083520Y-90755452D01*
X142083520Y-90755452D02*
X141964473Y-90874500D01*
X141964473Y-90874500D02*
X141845425Y-90934023D01*
X141845425Y-90934023D02*
X141607330Y-90934023D01*
X141607330Y-90934023D02*
X141488282Y-90874500D01*
X141488282Y-90874500D02*
X141369235Y-90755452D01*
X141369235Y-90755452D02*
X141309711Y-90517357D01*
X141309711Y-90517357D02*
X141309711Y-90100690D01*
X141309711Y-90100690D02*
X141369235Y-89862595D01*
X141369235Y-89862595D02*
X141488282Y-89743547D01*
X141488282Y-89743547D02*
X141607330Y-89684023D01*
X142500187Y-89684023D02*
X142916854Y-90934023D01*
X142916854Y-90934023D02*
X143333520Y-89684023D01*
X143750188Y-90279261D02*
X144166854Y-90279261D01*
X144345426Y-90934023D02*
X143750188Y-90934023D01*
X143750188Y-90934023D02*
X143750188Y-89684023D01*
X143750188Y-89684023D02*
X144345426Y-89684023D01*
X144821616Y-90874500D02*
X145000187Y-90934023D01*
X145000187Y-90934023D02*
X145297806Y-90934023D01*
X145297806Y-90934023D02*
X145416854Y-90874500D01*
X145416854Y-90874500D02*
X145476378Y-90814976D01*
X145476378Y-90814976D02*
X145535901Y-90695928D01*
X145535901Y-90695928D02*
X145535901Y-90576880D01*
X145535901Y-90576880D02*
X145476378Y-90457833D01*
X145476378Y-90457833D02*
X145416854Y-90398309D01*
X145416854Y-90398309D02*
X145297806Y-90338785D01*
X145297806Y-90338785D02*
X145059711Y-90279261D01*
X145059711Y-90279261D02*
X144940663Y-90219738D01*
X144940663Y-90219738D02*
X144881140Y-90160214D01*
X144881140Y-90160214D02*
X144821616Y-90041166D01*
X144821616Y-90041166D02*
X144821616Y-89922119D01*
X144821616Y-89922119D02*
X144881140Y-89803071D01*
X144881140Y-89803071D02*
X144940663Y-89743547D01*
X144940663Y-89743547D02*
X145059711Y-89684023D01*
X145059711Y-89684023D02*
X145357330Y-89684023D01*
X145357330Y-89684023D02*
X145535901Y-89743547D01*
X147023997Y-90934023D02*
X147023997Y-89684023D01*
X147738282Y-90934023D02*
X147202568Y-90219738D01*
X147738282Y-89684023D02*
X147023997Y-90398309D01*
X148273997Y-90934023D02*
X148273997Y-90100690D01*
X148273997Y-89684023D02*
X148214473Y-89743547D01*
X148214473Y-89743547D02*
X148273997Y-89803071D01*
X148273997Y-89803071D02*
X148333520Y-89743547D01*
X148333520Y-89743547D02*
X148273997Y-89684023D01*
X148273997Y-89684023D02*
X148273997Y-89803071D01*
X148690663Y-90100690D02*
X149166854Y-90100690D01*
X148869235Y-89684023D02*
X148869235Y-90755452D01*
X148869235Y-90755452D02*
X148928758Y-90874500D01*
X148928758Y-90874500D02*
X149047806Y-90934023D01*
X149047806Y-90934023D02*
X149166854Y-90934023D01*
X150357330Y-89684023D02*
X150773997Y-90934023D01*
X150773997Y-90934023D02*
X151190663Y-89684023D01*
X151488283Y-89684023D02*
X152262092Y-89684023D01*
X152262092Y-89684023D02*
X151845426Y-90160214D01*
X151845426Y-90160214D02*
X152023997Y-90160214D01*
X152023997Y-90160214D02*
X152143045Y-90219738D01*
X152143045Y-90219738D02*
X152202569Y-90279261D01*
X152202569Y-90279261D02*
X152262092Y-90398309D01*
X152262092Y-90398309D02*
X152262092Y-90695928D01*
X152262092Y-90695928D02*
X152202569Y-90814976D01*
X152202569Y-90814976D02*
X152143045Y-90874500D01*
X152143045Y-90874500D02*
X152023997Y-90934023D01*
X152023997Y-90934023D02*
X151666854Y-90934023D01*
X151666854Y-90934023D02*
X151547807Y-90874500D01*
X151547807Y-90874500D02*
X151488283Y-90814976D01*
D12*
%TO.C,U7*%
X152940000Y-112600000D03*
D13*
X152500000Y-111450000D03*
X151300000Y-111450000D03*
D12*
X150860000Y-112600000D03*
D13*
X151300000Y-113750000D03*
X152500000Y-113750000D03*
%TD*%
D14*
%TO.C,J2*%
X106500000Y-70300000D03*
%TD*%
%TO.C,J3*%
X106500000Y-159300000D03*
%TD*%
%TO.C,J4*%
X182500000Y-70300000D03*
%TD*%
%TO.C,J5*%
X182500000Y-159300000D03*
%TD*%
D15*
%TO.C,SC5*%
X167860000Y-67570000D03*
X167860000Y-107570000D03*
%TD*%
D16*
%TO.C,TP1*%
X118370000Y-112450000D03*
%TD*%
D17*
%TO.C,U2*%
X154537500Y-115500000D03*
X154537500Y-116000000D03*
X154537500Y-116500000D03*
X155962500Y-116500000D03*
X155962500Y-116000000D03*
X155962500Y-115500000D03*
%TD*%
D18*
%TO.C,D3*%
X126400000Y-118000000D03*
X130400000Y-118000000D03*
%TD*%
D19*
%TO.C,U4*%
X135350000Y-110270000D03*
X135350000Y-110930000D03*
X135350000Y-111580000D03*
X135350000Y-112230000D03*
X139650000Y-112230000D03*
X139650000Y-111580000D03*
X139650000Y-110930000D03*
X139650000Y-110270000D03*
%TD*%
D20*
%TO.C,C6*%
X136475000Y-113750000D03*
X138025000Y-113750000D03*
%TD*%
D16*
%TO.C,TP2*%
X118360000Y-117050000D03*
%TD*%
D18*
%TO.C,D1*%
X126360000Y-111540000D03*
X130360000Y-111540000D03*
%TD*%
D15*
%TO.C,SC3*%
X144490000Y-67570000D03*
X144490000Y-107570000D03*
%TD*%
D21*
%TO.C,R2*%
X134500000Y-115825000D03*
X134500000Y-114175000D03*
%TD*%
D15*
%TO.C,SC4*%
X144450000Y-121940000D03*
X144450000Y-161940000D03*
%TD*%
%TO.C,SC2*%
X121120000Y-121920000D03*
X121120000Y-161920000D03*
%TD*%
D20*
%TO.C,C4*%
X154125000Y-113600000D03*
X155675000Y-113600000D03*
%TD*%
D18*
%TO.C,D2*%
X126360000Y-114750000D03*
X130360000Y-114750000D03*
%TD*%
D15*
%TO.C,SC6*%
X167850000Y-121950000D03*
X167850000Y-161950000D03*
%TD*%
D22*
%TO.C,C2*%
X157250000Y-116500000D03*
X157250000Y-118050000D03*
%TD*%
D23*
%TO.C,C5*%
X159050000Y-111500000D03*
X157150000Y-111500000D03*
%TD*%
D24*
%TO.C,R4*%
X139750000Y-113675000D03*
X139750000Y-115325000D03*
%TD*%
D25*
%TO.C,R6*%
X152675000Y-109750000D03*
X154325000Y-109750000D03*
%TD*%
%TO.C,R5*%
X158175000Y-109750000D03*
X159825000Y-109750000D03*
%TD*%
D26*
%TO.C,C3*%
X163175000Y-111500000D03*
X161625000Y-111500000D03*
%TD*%
D27*
%TO.C,D4*%
X145250000Y-118000000D03*
X143674998Y-118000000D03*
%TD*%
D15*
%TO.C,SC1*%
X121090000Y-67570000D03*
X121090000Y-107570000D03*
%TD*%
D25*
%TO.C,R1*%
X140425000Y-118000000D03*
X142075000Y-118000000D03*
%TD*%
D28*
%TO.C,U3*%
X158980000Y-113350000D03*
X158980000Y-113850000D03*
X158980000Y-114350000D03*
X158980000Y-114850000D03*
X158980000Y-115350000D03*
X163380000Y-115350000D03*
X163380000Y-114850000D03*
X163380000Y-114350000D03*
X163380000Y-113850000D03*
X163380000Y-113350000D03*
%TD*%
D29*
%TO.C,CN1*%
X146500001Y-113750001D03*
D30*
X146500001Y-115750002D03*
X144500000Y-113750001D03*
X144500001Y-115750001D03*
X142500001Y-113750001D03*
X142500000Y-115750001D03*
%TD*%
M02*
