%TF.GenerationSoftware,KiCad,Pcbnew,7.0.5*%
%TF.CreationDate,2023-06-21T14:57:04-07:00*%
%TF.ProjectId,solar-panel-side-Z,736f6c61-722d-4706-916e-656c2d736964,3.1*%
%TF.SameCoordinates,Original*%
%TF.FileFunction,Legend,Bot*%
%TF.FilePolarity,Positive*%
%FSLAX46Y46*%
G04 Gerber Fmt 4.6, Leading zero omitted, Abs format (unit mm)*
G04 Created by KiCad (PCBNEW 7.0.5) date 2023-06-21 14:57:04*
%MOMM*%
%LPD*%
G01*
G04 APERTURE LIST*
%ADD10C,0.120000*%
%ADD11C,0.150000*%
%ADD12C,0.200000*%
%TA.AperFunction,Profile*%
%ADD13C,0.050000*%
%TD*%
G04 APERTURE END LIST*
D10*
X180978123Y-89596889D02*
X173963624Y-82582390D01*
X126070000Y-92890000D02*
X126070000Y-121940000D01*
X101770000Y-121939999D01*
X101770000Y-92889999D01*
X126070000Y-92890000D01*
X173963624Y-82582390D02*
X173942411Y-82603604D01*
X174373747Y-96215409D02*
X166553146Y-88394808D01*
X163434804Y-78516527D02*
X170732146Y-85813868D01*
X170732146Y-85813868D02*
X173942411Y-82603604D01*
X149130034Y-96144698D02*
X157594102Y-87680630D01*
X166553145Y-88734219D02*
X174204041Y-96385115D01*
X174204041Y-96385115D02*
X161787246Y-108801910D01*
X174373746Y-96215409D02*
X180978123Y-89596889D01*
D11*
X113620476Y-98904820D02*
X113953809Y-98428629D01*
X114191904Y-98904820D02*
X114191904Y-97904820D01*
X114191904Y-97904820D02*
X113810952Y-97904820D01*
X113810952Y-97904820D02*
X113715714Y-97952439D01*
X113715714Y-97952439D02*
X113668095Y-98000058D01*
X113668095Y-98000058D02*
X113620476Y-98095296D01*
X113620476Y-98095296D02*
X113620476Y-98238153D01*
X113620476Y-98238153D02*
X113668095Y-98333391D01*
X113668095Y-98333391D02*
X113715714Y-98381010D01*
X113715714Y-98381010D02*
X113810952Y-98428629D01*
X113810952Y-98428629D02*
X114191904Y-98428629D01*
X112668095Y-98904820D02*
X113239523Y-98904820D01*
X112953809Y-98904820D02*
X112953809Y-97904820D01*
X112953809Y-97904820D02*
X113049047Y-98047677D01*
X113049047Y-98047677D02*
X113144285Y-98142915D01*
X113144285Y-98142915D02*
X113239523Y-98190534D01*
X111477618Y-98381010D02*
X110715714Y-98381010D01*
X110715714Y-98666724D02*
X111477618Y-98666724D01*
X108953809Y-98904820D02*
X109525237Y-98904820D01*
X109239523Y-98904820D02*
X109239523Y-97904820D01*
X109239523Y-97904820D02*
X109334761Y-98047677D01*
X109334761Y-98047677D02*
X109429999Y-98142915D01*
X109429999Y-98142915D02*
X109525237Y-98190534D01*
X108525237Y-98904820D02*
X108525237Y-97904820D01*
X108429999Y-98523867D02*
X108144285Y-98904820D01*
X108144285Y-98238153D02*
X108525237Y-98619105D01*
X107715713Y-98523867D02*
X106953809Y-98523867D01*
X106287142Y-97904820D02*
X106096666Y-97904820D01*
X106096666Y-97904820D02*
X106001428Y-97952439D01*
X106001428Y-97952439D02*
X105906190Y-98047677D01*
X105906190Y-98047677D02*
X105858571Y-98238153D01*
X105858571Y-98238153D02*
X105858571Y-98571486D01*
X105858571Y-98571486D02*
X105906190Y-98761962D01*
X105906190Y-98761962D02*
X106001428Y-98857201D01*
X106001428Y-98857201D02*
X106096666Y-98904820D01*
X106096666Y-98904820D02*
X106287142Y-98904820D01*
X106287142Y-98904820D02*
X106382380Y-98857201D01*
X106382380Y-98857201D02*
X106477618Y-98761962D01*
X106477618Y-98761962D02*
X106525237Y-98571486D01*
X106525237Y-98571486D02*
X106525237Y-98238153D01*
X106525237Y-98238153D02*
X106477618Y-98047677D01*
X106477618Y-98047677D02*
X106382380Y-97952439D01*
X106382380Y-97952439D02*
X106287142Y-97904820D01*
X105429999Y-98904820D02*
X105429999Y-97904820D01*
X105001428Y-98904820D02*
X105001428Y-98381010D01*
X105001428Y-98381010D02*
X105049047Y-98285772D01*
X105049047Y-98285772D02*
X105144285Y-98238153D01*
X105144285Y-98238153D02*
X105287142Y-98238153D01*
X105287142Y-98238153D02*
X105382380Y-98285772D01*
X105382380Y-98285772D02*
X105429999Y-98333391D01*
X104525237Y-98904820D02*
X104525237Y-98238153D01*
X104525237Y-98333391D02*
X104477618Y-98285772D01*
X104477618Y-98285772D02*
X104382380Y-98238153D01*
X104382380Y-98238153D02*
X104239523Y-98238153D01*
X104239523Y-98238153D02*
X104144285Y-98285772D01*
X104144285Y-98285772D02*
X104096666Y-98381010D01*
X104096666Y-98381010D02*
X104096666Y-98904820D01*
X104096666Y-98381010D02*
X104049047Y-98285772D01*
X104049047Y-98285772D02*
X103953809Y-98238153D01*
X103953809Y-98238153D02*
X103810952Y-98238153D01*
X103810952Y-98238153D02*
X103715713Y-98285772D01*
X103715713Y-98285772D02*
X103668094Y-98381010D01*
X103668094Y-98381010D02*
X103668094Y-98904820D01*
X138487200Y-106219524D02*
X138534819Y-106362381D01*
X138534819Y-106362381D02*
X138534819Y-106600476D01*
X138534819Y-106600476D02*
X138487200Y-106695714D01*
X138487200Y-106695714D02*
X138439580Y-106743333D01*
X138439580Y-106743333D02*
X138344342Y-106790952D01*
X138344342Y-106790952D02*
X138249104Y-106790952D01*
X138249104Y-106790952D02*
X138153866Y-106743333D01*
X138153866Y-106743333D02*
X138106247Y-106695714D01*
X138106247Y-106695714D02*
X138058628Y-106600476D01*
X138058628Y-106600476D02*
X138011009Y-106410000D01*
X138011009Y-106410000D02*
X137963390Y-106314762D01*
X137963390Y-106314762D02*
X137915771Y-106267143D01*
X137915771Y-106267143D02*
X137820533Y-106219524D01*
X137820533Y-106219524D02*
X137725295Y-106219524D01*
X137725295Y-106219524D02*
X137630057Y-106267143D01*
X137630057Y-106267143D02*
X137582438Y-106314762D01*
X137582438Y-106314762D02*
X137534819Y-106410000D01*
X137534819Y-106410000D02*
X137534819Y-106648095D01*
X137534819Y-106648095D02*
X137582438Y-106790952D01*
X138439580Y-107790952D02*
X138487200Y-107743333D01*
X138487200Y-107743333D02*
X138534819Y-107600476D01*
X138534819Y-107600476D02*
X138534819Y-107505238D01*
X138534819Y-107505238D02*
X138487200Y-107362381D01*
X138487200Y-107362381D02*
X138391961Y-107267143D01*
X138391961Y-107267143D02*
X138296723Y-107219524D01*
X138296723Y-107219524D02*
X138106247Y-107171905D01*
X138106247Y-107171905D02*
X137963390Y-107171905D01*
X137963390Y-107171905D02*
X137772914Y-107219524D01*
X137772914Y-107219524D02*
X137677676Y-107267143D01*
X137677676Y-107267143D02*
X137582438Y-107362381D01*
X137582438Y-107362381D02*
X137534819Y-107505238D01*
X137534819Y-107505238D02*
X137534819Y-107600476D01*
X137534819Y-107600476D02*
X137582438Y-107743333D01*
X137582438Y-107743333D02*
X137630057Y-107790952D01*
X138534819Y-108695714D02*
X138534819Y-108219524D01*
X138534819Y-108219524D02*
X137534819Y-108219524D01*
X124681792Y-106129581D02*
X124729411Y-106177201D01*
X124729411Y-106177201D02*
X124872268Y-106224820D01*
X124872268Y-106224820D02*
X124967506Y-106224820D01*
X124967506Y-106224820D02*
X125110363Y-106177201D01*
X125110363Y-106177201D02*
X125205601Y-106081962D01*
X125205601Y-106081962D02*
X125253220Y-105986724D01*
X125253220Y-105986724D02*
X125300839Y-105796248D01*
X125300839Y-105796248D02*
X125300839Y-105653391D01*
X125300839Y-105653391D02*
X125253220Y-105462915D01*
X125253220Y-105462915D02*
X125205601Y-105367677D01*
X125205601Y-105367677D02*
X125110363Y-105272439D01*
X125110363Y-105272439D02*
X124967506Y-105224820D01*
X124967506Y-105224820D02*
X124872268Y-105224820D01*
X124872268Y-105224820D02*
X124729411Y-105272439D01*
X124729411Y-105272439D02*
X124681792Y-105320058D01*
X123824649Y-105558153D02*
X123824649Y-106224820D01*
X124062744Y-105177201D02*
X124300839Y-105891486D01*
X124300839Y-105891486D02*
X123681792Y-105891486D01*
X122538934Y-105701010D02*
X121777030Y-105701010D01*
X121777030Y-105986724D02*
X122538934Y-105986724D01*
X120015125Y-106224820D02*
X120586553Y-106224820D01*
X120300839Y-106224820D02*
X120300839Y-105224820D01*
X120300839Y-105224820D02*
X120396077Y-105367677D01*
X120396077Y-105367677D02*
X120491315Y-105462915D01*
X120491315Y-105462915D02*
X120586553Y-105510534D01*
X119157982Y-105558153D02*
X119157982Y-106224820D01*
X119586553Y-105558153D02*
X119586553Y-106081962D01*
X119586553Y-106081962D02*
X119538934Y-106177201D01*
X119538934Y-106177201D02*
X119443696Y-106224820D01*
X119443696Y-106224820D02*
X119300839Y-106224820D01*
X119300839Y-106224820D02*
X119205601Y-106177201D01*
X119205601Y-106177201D02*
X119157982Y-106129581D01*
X118348458Y-105701010D02*
X118681791Y-105701010D01*
X118681791Y-106224820D02*
X118681791Y-105224820D01*
X118681791Y-105224820D02*
X118205601Y-105224820D01*
X124681792Y-107739581D02*
X124729411Y-107787201D01*
X124729411Y-107787201D02*
X124872268Y-107834820D01*
X124872268Y-107834820D02*
X124967506Y-107834820D01*
X124967506Y-107834820D02*
X125110363Y-107787201D01*
X125110363Y-107787201D02*
X125205601Y-107691962D01*
X125205601Y-107691962D02*
X125253220Y-107596724D01*
X125253220Y-107596724D02*
X125300839Y-107406248D01*
X125300839Y-107406248D02*
X125300839Y-107263391D01*
X125300839Y-107263391D02*
X125253220Y-107072915D01*
X125253220Y-107072915D02*
X125205601Y-106977677D01*
X125205601Y-106977677D02*
X125110363Y-106882439D01*
X125110363Y-106882439D02*
X124967506Y-106834820D01*
X124967506Y-106834820D02*
X124872268Y-106834820D01*
X124872268Y-106834820D02*
X124729411Y-106882439D01*
X124729411Y-106882439D02*
X124681792Y-106930058D01*
X123777030Y-106834820D02*
X124253220Y-106834820D01*
X124253220Y-106834820D02*
X124300839Y-107311010D01*
X124300839Y-107311010D02*
X124253220Y-107263391D01*
X124253220Y-107263391D02*
X124157982Y-107215772D01*
X124157982Y-107215772D02*
X123919887Y-107215772D01*
X123919887Y-107215772D02*
X123824649Y-107263391D01*
X123824649Y-107263391D02*
X123777030Y-107311010D01*
X123777030Y-107311010D02*
X123729411Y-107406248D01*
X123729411Y-107406248D02*
X123729411Y-107644343D01*
X123729411Y-107644343D02*
X123777030Y-107739581D01*
X123777030Y-107739581D02*
X123824649Y-107787201D01*
X123824649Y-107787201D02*
X123919887Y-107834820D01*
X123919887Y-107834820D02*
X124157982Y-107834820D01*
X124157982Y-107834820D02*
X124253220Y-107787201D01*
X124253220Y-107787201D02*
X124300839Y-107739581D01*
X122538934Y-107311010D02*
X121777030Y-107311010D01*
X121777030Y-107596724D02*
X122538934Y-107596724D01*
X120348458Y-106834820D02*
X120253220Y-106834820D01*
X120253220Y-106834820D02*
X120157982Y-106882439D01*
X120157982Y-106882439D02*
X120110363Y-106930058D01*
X120110363Y-106930058D02*
X120062744Y-107025296D01*
X120062744Y-107025296D02*
X120015125Y-107215772D01*
X120015125Y-107215772D02*
X120015125Y-107453867D01*
X120015125Y-107453867D02*
X120062744Y-107644343D01*
X120062744Y-107644343D02*
X120110363Y-107739581D01*
X120110363Y-107739581D02*
X120157982Y-107787201D01*
X120157982Y-107787201D02*
X120253220Y-107834820D01*
X120253220Y-107834820D02*
X120348458Y-107834820D01*
X120348458Y-107834820D02*
X120443696Y-107787201D01*
X120443696Y-107787201D02*
X120491315Y-107739581D01*
X120491315Y-107739581D02*
X120538934Y-107644343D01*
X120538934Y-107644343D02*
X120586553Y-107453867D01*
X120586553Y-107453867D02*
X120586553Y-107215772D01*
X120586553Y-107215772D02*
X120538934Y-107025296D01*
X120538934Y-107025296D02*
X120491315Y-106930058D01*
X120491315Y-106930058D02*
X120443696Y-106882439D01*
X120443696Y-106882439D02*
X120348458Y-106834820D01*
X119586553Y-107739581D02*
X119538934Y-107787201D01*
X119538934Y-107787201D02*
X119586553Y-107834820D01*
X119586553Y-107834820D02*
X119634172Y-107787201D01*
X119634172Y-107787201D02*
X119586553Y-107739581D01*
X119586553Y-107739581D02*
X119586553Y-107834820D01*
X118919887Y-106834820D02*
X118824649Y-106834820D01*
X118824649Y-106834820D02*
X118729411Y-106882439D01*
X118729411Y-106882439D02*
X118681792Y-106930058D01*
X118681792Y-106930058D02*
X118634173Y-107025296D01*
X118634173Y-107025296D02*
X118586554Y-107215772D01*
X118586554Y-107215772D02*
X118586554Y-107453867D01*
X118586554Y-107453867D02*
X118634173Y-107644343D01*
X118634173Y-107644343D02*
X118681792Y-107739581D01*
X118681792Y-107739581D02*
X118729411Y-107787201D01*
X118729411Y-107787201D02*
X118824649Y-107834820D01*
X118824649Y-107834820D02*
X118919887Y-107834820D01*
X118919887Y-107834820D02*
X119015125Y-107787201D01*
X119015125Y-107787201D02*
X119062744Y-107739581D01*
X119062744Y-107739581D02*
X119110363Y-107644343D01*
X119110363Y-107644343D02*
X119157982Y-107453867D01*
X119157982Y-107453867D02*
X119157982Y-107215772D01*
X119157982Y-107215772D02*
X119110363Y-107025296D01*
X119110363Y-107025296D02*
X119062744Y-106930058D01*
X119062744Y-106930058D02*
X119015125Y-106882439D01*
X119015125Y-106882439D02*
X118919887Y-106834820D01*
X117634173Y-107834820D02*
X118205601Y-107834820D01*
X117919887Y-107834820D02*
X117919887Y-106834820D01*
X117919887Y-106834820D02*
X118015125Y-106977677D01*
X118015125Y-106977677D02*
X118110363Y-107072915D01*
X118110363Y-107072915D02*
X118205601Y-107120534D01*
X116777030Y-107168153D02*
X116777030Y-107834820D01*
X117205601Y-107168153D02*
X117205601Y-107691962D01*
X117205601Y-107691962D02*
X117157982Y-107787201D01*
X117157982Y-107787201D02*
X117062744Y-107834820D01*
X117062744Y-107834820D02*
X116919887Y-107834820D01*
X116919887Y-107834820D02*
X116824649Y-107787201D01*
X116824649Y-107787201D02*
X116777030Y-107739581D01*
X115967506Y-107311010D02*
X116300839Y-107311010D01*
X116300839Y-107834820D02*
X116300839Y-106834820D01*
X116300839Y-106834820D02*
X115824649Y-106834820D01*
X124681792Y-109349581D02*
X124729411Y-109397201D01*
X124729411Y-109397201D02*
X124872268Y-109444820D01*
X124872268Y-109444820D02*
X124967506Y-109444820D01*
X124967506Y-109444820D02*
X125110363Y-109397201D01*
X125110363Y-109397201D02*
X125205601Y-109301962D01*
X125205601Y-109301962D02*
X125253220Y-109206724D01*
X125253220Y-109206724D02*
X125300839Y-109016248D01*
X125300839Y-109016248D02*
X125300839Y-108873391D01*
X125300839Y-108873391D02*
X125253220Y-108682915D01*
X125253220Y-108682915D02*
X125205601Y-108587677D01*
X125205601Y-108587677D02*
X125110363Y-108492439D01*
X125110363Y-108492439D02*
X124967506Y-108444820D01*
X124967506Y-108444820D02*
X124872268Y-108444820D01*
X124872268Y-108444820D02*
X124729411Y-108492439D01*
X124729411Y-108492439D02*
X124681792Y-108540058D01*
X123824649Y-108444820D02*
X124015125Y-108444820D01*
X124015125Y-108444820D02*
X124110363Y-108492439D01*
X124110363Y-108492439D02*
X124157982Y-108540058D01*
X124157982Y-108540058D02*
X124253220Y-108682915D01*
X124253220Y-108682915D02*
X124300839Y-108873391D01*
X124300839Y-108873391D02*
X124300839Y-109254343D01*
X124300839Y-109254343D02*
X124253220Y-109349581D01*
X124253220Y-109349581D02*
X124205601Y-109397201D01*
X124205601Y-109397201D02*
X124110363Y-109444820D01*
X124110363Y-109444820D02*
X123919887Y-109444820D01*
X123919887Y-109444820D02*
X123824649Y-109397201D01*
X123824649Y-109397201D02*
X123777030Y-109349581D01*
X123777030Y-109349581D02*
X123729411Y-109254343D01*
X123729411Y-109254343D02*
X123729411Y-109016248D01*
X123729411Y-109016248D02*
X123777030Y-108921010D01*
X123777030Y-108921010D02*
X123824649Y-108873391D01*
X123824649Y-108873391D02*
X123919887Y-108825772D01*
X123919887Y-108825772D02*
X124110363Y-108825772D01*
X124110363Y-108825772D02*
X124205601Y-108873391D01*
X124205601Y-108873391D02*
X124253220Y-108921010D01*
X124253220Y-108921010D02*
X124300839Y-109016248D01*
X122538934Y-108921010D02*
X121777030Y-108921010D01*
X121777030Y-109206724D02*
X122538934Y-109206724D01*
X120348458Y-108444820D02*
X120253220Y-108444820D01*
X120253220Y-108444820D02*
X120157982Y-108492439D01*
X120157982Y-108492439D02*
X120110363Y-108540058D01*
X120110363Y-108540058D02*
X120062744Y-108635296D01*
X120062744Y-108635296D02*
X120015125Y-108825772D01*
X120015125Y-108825772D02*
X120015125Y-109063867D01*
X120015125Y-109063867D02*
X120062744Y-109254343D01*
X120062744Y-109254343D02*
X120110363Y-109349581D01*
X120110363Y-109349581D02*
X120157982Y-109397201D01*
X120157982Y-109397201D02*
X120253220Y-109444820D01*
X120253220Y-109444820D02*
X120348458Y-109444820D01*
X120348458Y-109444820D02*
X120443696Y-109397201D01*
X120443696Y-109397201D02*
X120491315Y-109349581D01*
X120491315Y-109349581D02*
X120538934Y-109254343D01*
X120538934Y-109254343D02*
X120586553Y-109063867D01*
X120586553Y-109063867D02*
X120586553Y-108825772D01*
X120586553Y-108825772D02*
X120538934Y-108635296D01*
X120538934Y-108635296D02*
X120491315Y-108540058D01*
X120491315Y-108540058D02*
X120443696Y-108492439D01*
X120443696Y-108492439D02*
X120348458Y-108444820D01*
X119586553Y-109349581D02*
X119538934Y-109397201D01*
X119538934Y-109397201D02*
X119586553Y-109444820D01*
X119586553Y-109444820D02*
X119634172Y-109397201D01*
X119634172Y-109397201D02*
X119586553Y-109349581D01*
X119586553Y-109349581D02*
X119586553Y-109444820D01*
X118919887Y-108444820D02*
X118824649Y-108444820D01*
X118824649Y-108444820D02*
X118729411Y-108492439D01*
X118729411Y-108492439D02*
X118681792Y-108540058D01*
X118681792Y-108540058D02*
X118634173Y-108635296D01*
X118634173Y-108635296D02*
X118586554Y-108825772D01*
X118586554Y-108825772D02*
X118586554Y-109063867D01*
X118586554Y-109063867D02*
X118634173Y-109254343D01*
X118634173Y-109254343D02*
X118681792Y-109349581D01*
X118681792Y-109349581D02*
X118729411Y-109397201D01*
X118729411Y-109397201D02*
X118824649Y-109444820D01*
X118824649Y-109444820D02*
X118919887Y-109444820D01*
X118919887Y-109444820D02*
X119015125Y-109397201D01*
X119015125Y-109397201D02*
X119062744Y-109349581D01*
X119062744Y-109349581D02*
X119110363Y-109254343D01*
X119110363Y-109254343D02*
X119157982Y-109063867D01*
X119157982Y-109063867D02*
X119157982Y-108825772D01*
X119157982Y-108825772D02*
X119110363Y-108635296D01*
X119110363Y-108635296D02*
X119062744Y-108540058D01*
X119062744Y-108540058D02*
X119015125Y-108492439D01*
X119015125Y-108492439D02*
X118919887Y-108444820D01*
X117634173Y-109444820D02*
X118205601Y-109444820D01*
X117919887Y-109444820D02*
X117919887Y-108444820D01*
X117919887Y-108444820D02*
X118015125Y-108587677D01*
X118015125Y-108587677D02*
X118110363Y-108682915D01*
X118110363Y-108682915D02*
X118205601Y-108730534D01*
X116777030Y-108778153D02*
X116777030Y-109444820D01*
X117205601Y-108778153D02*
X117205601Y-109301962D01*
X117205601Y-109301962D02*
X117157982Y-109397201D01*
X117157982Y-109397201D02*
X117062744Y-109444820D01*
X117062744Y-109444820D02*
X116919887Y-109444820D01*
X116919887Y-109444820D02*
X116824649Y-109397201D01*
X116824649Y-109397201D02*
X116777030Y-109349581D01*
X115967506Y-108921010D02*
X116300839Y-108921010D01*
X116300839Y-109444820D02*
X116300839Y-108444820D01*
X116300839Y-108444820D02*
X115824649Y-108444820D01*
X124681792Y-110959581D02*
X124729411Y-111007201D01*
X124729411Y-111007201D02*
X124872268Y-111054820D01*
X124872268Y-111054820D02*
X124967506Y-111054820D01*
X124967506Y-111054820D02*
X125110363Y-111007201D01*
X125110363Y-111007201D02*
X125205601Y-110911962D01*
X125205601Y-110911962D02*
X125253220Y-110816724D01*
X125253220Y-110816724D02*
X125300839Y-110626248D01*
X125300839Y-110626248D02*
X125300839Y-110483391D01*
X125300839Y-110483391D02*
X125253220Y-110292915D01*
X125253220Y-110292915D02*
X125205601Y-110197677D01*
X125205601Y-110197677D02*
X125110363Y-110102439D01*
X125110363Y-110102439D02*
X124967506Y-110054820D01*
X124967506Y-110054820D02*
X124872268Y-110054820D01*
X124872268Y-110054820D02*
X124729411Y-110102439D01*
X124729411Y-110102439D02*
X124681792Y-110150058D01*
X124348458Y-110054820D02*
X123681792Y-110054820D01*
X123681792Y-110054820D02*
X124110363Y-111054820D01*
X122538934Y-110531010D02*
X121777030Y-110531010D01*
X121777030Y-110816724D02*
X122538934Y-110816724D01*
X120348458Y-110054820D02*
X120253220Y-110054820D01*
X120253220Y-110054820D02*
X120157982Y-110102439D01*
X120157982Y-110102439D02*
X120110363Y-110150058D01*
X120110363Y-110150058D02*
X120062744Y-110245296D01*
X120062744Y-110245296D02*
X120015125Y-110435772D01*
X120015125Y-110435772D02*
X120015125Y-110673867D01*
X120015125Y-110673867D02*
X120062744Y-110864343D01*
X120062744Y-110864343D02*
X120110363Y-110959581D01*
X120110363Y-110959581D02*
X120157982Y-111007201D01*
X120157982Y-111007201D02*
X120253220Y-111054820D01*
X120253220Y-111054820D02*
X120348458Y-111054820D01*
X120348458Y-111054820D02*
X120443696Y-111007201D01*
X120443696Y-111007201D02*
X120491315Y-110959581D01*
X120491315Y-110959581D02*
X120538934Y-110864343D01*
X120538934Y-110864343D02*
X120586553Y-110673867D01*
X120586553Y-110673867D02*
X120586553Y-110435772D01*
X120586553Y-110435772D02*
X120538934Y-110245296D01*
X120538934Y-110245296D02*
X120491315Y-110150058D01*
X120491315Y-110150058D02*
X120443696Y-110102439D01*
X120443696Y-110102439D02*
X120348458Y-110054820D01*
X119586553Y-110959581D02*
X119538934Y-111007201D01*
X119538934Y-111007201D02*
X119586553Y-111054820D01*
X119586553Y-111054820D02*
X119634172Y-111007201D01*
X119634172Y-111007201D02*
X119586553Y-110959581D01*
X119586553Y-110959581D02*
X119586553Y-111054820D01*
X118586554Y-111054820D02*
X119157982Y-111054820D01*
X118872268Y-111054820D02*
X118872268Y-110054820D01*
X118872268Y-110054820D02*
X118967506Y-110197677D01*
X118967506Y-110197677D02*
X119062744Y-110292915D01*
X119062744Y-110292915D02*
X119157982Y-110340534D01*
X117729411Y-110388153D02*
X117729411Y-111054820D01*
X118157982Y-110388153D02*
X118157982Y-110911962D01*
X118157982Y-110911962D02*
X118110363Y-111007201D01*
X118110363Y-111007201D02*
X118015125Y-111054820D01*
X118015125Y-111054820D02*
X117872268Y-111054820D01*
X117872268Y-111054820D02*
X117777030Y-111007201D01*
X117777030Y-111007201D02*
X117729411Y-110959581D01*
X116919887Y-110531010D02*
X117253220Y-110531010D01*
X117253220Y-111054820D02*
X117253220Y-110054820D01*
X117253220Y-110054820D02*
X116777030Y-110054820D01*
X124681792Y-112569581D02*
X124729411Y-112617201D01*
X124729411Y-112617201D02*
X124872268Y-112664820D01*
X124872268Y-112664820D02*
X124967506Y-112664820D01*
X124967506Y-112664820D02*
X125110363Y-112617201D01*
X125110363Y-112617201D02*
X125205601Y-112521962D01*
X125205601Y-112521962D02*
X125253220Y-112426724D01*
X125253220Y-112426724D02*
X125300839Y-112236248D01*
X125300839Y-112236248D02*
X125300839Y-112093391D01*
X125300839Y-112093391D02*
X125253220Y-111902915D01*
X125253220Y-111902915D02*
X125205601Y-111807677D01*
X125205601Y-111807677D02*
X125110363Y-111712439D01*
X125110363Y-111712439D02*
X124967506Y-111664820D01*
X124967506Y-111664820D02*
X124872268Y-111664820D01*
X124872268Y-111664820D02*
X124729411Y-111712439D01*
X124729411Y-111712439D02*
X124681792Y-111760058D01*
X124110363Y-112093391D02*
X124205601Y-112045772D01*
X124205601Y-112045772D02*
X124253220Y-111998153D01*
X124253220Y-111998153D02*
X124300839Y-111902915D01*
X124300839Y-111902915D02*
X124300839Y-111855296D01*
X124300839Y-111855296D02*
X124253220Y-111760058D01*
X124253220Y-111760058D02*
X124205601Y-111712439D01*
X124205601Y-111712439D02*
X124110363Y-111664820D01*
X124110363Y-111664820D02*
X123919887Y-111664820D01*
X123919887Y-111664820D02*
X123824649Y-111712439D01*
X123824649Y-111712439D02*
X123777030Y-111760058D01*
X123777030Y-111760058D02*
X123729411Y-111855296D01*
X123729411Y-111855296D02*
X123729411Y-111902915D01*
X123729411Y-111902915D02*
X123777030Y-111998153D01*
X123777030Y-111998153D02*
X123824649Y-112045772D01*
X123824649Y-112045772D02*
X123919887Y-112093391D01*
X123919887Y-112093391D02*
X124110363Y-112093391D01*
X124110363Y-112093391D02*
X124205601Y-112141010D01*
X124205601Y-112141010D02*
X124253220Y-112188629D01*
X124253220Y-112188629D02*
X124300839Y-112283867D01*
X124300839Y-112283867D02*
X124300839Y-112474343D01*
X124300839Y-112474343D02*
X124253220Y-112569581D01*
X124253220Y-112569581D02*
X124205601Y-112617201D01*
X124205601Y-112617201D02*
X124110363Y-112664820D01*
X124110363Y-112664820D02*
X123919887Y-112664820D01*
X123919887Y-112664820D02*
X123824649Y-112617201D01*
X123824649Y-112617201D02*
X123777030Y-112569581D01*
X123777030Y-112569581D02*
X123729411Y-112474343D01*
X123729411Y-112474343D02*
X123729411Y-112283867D01*
X123729411Y-112283867D02*
X123777030Y-112188629D01*
X123777030Y-112188629D02*
X123824649Y-112141010D01*
X123824649Y-112141010D02*
X123919887Y-112093391D01*
X122538934Y-112141010D02*
X121777030Y-112141010D01*
X121777030Y-112426724D02*
X122538934Y-112426724D01*
X120015125Y-112664820D02*
X120586553Y-112664820D01*
X120300839Y-112664820D02*
X120300839Y-111664820D01*
X120300839Y-111664820D02*
X120396077Y-111807677D01*
X120396077Y-111807677D02*
X120491315Y-111902915D01*
X120491315Y-111902915D02*
X120586553Y-111950534D01*
X119396077Y-111664820D02*
X119300839Y-111664820D01*
X119300839Y-111664820D02*
X119205601Y-111712439D01*
X119205601Y-111712439D02*
X119157982Y-111760058D01*
X119157982Y-111760058D02*
X119110363Y-111855296D01*
X119110363Y-111855296D02*
X119062744Y-112045772D01*
X119062744Y-112045772D02*
X119062744Y-112283867D01*
X119062744Y-112283867D02*
X119110363Y-112474343D01*
X119110363Y-112474343D02*
X119157982Y-112569581D01*
X119157982Y-112569581D02*
X119205601Y-112617201D01*
X119205601Y-112617201D02*
X119300839Y-112664820D01*
X119300839Y-112664820D02*
X119396077Y-112664820D01*
X119396077Y-112664820D02*
X119491315Y-112617201D01*
X119491315Y-112617201D02*
X119538934Y-112569581D01*
X119538934Y-112569581D02*
X119586553Y-112474343D01*
X119586553Y-112474343D02*
X119634172Y-112283867D01*
X119634172Y-112283867D02*
X119634172Y-112045772D01*
X119634172Y-112045772D02*
X119586553Y-111855296D01*
X119586553Y-111855296D02*
X119538934Y-111760058D01*
X119538934Y-111760058D02*
X119491315Y-111712439D01*
X119491315Y-111712439D02*
X119396077Y-111664820D01*
X118205601Y-111998153D02*
X118205601Y-112664820D01*
X118634172Y-111998153D02*
X118634172Y-112521962D01*
X118634172Y-112521962D02*
X118586553Y-112617201D01*
X118586553Y-112617201D02*
X118491315Y-112664820D01*
X118491315Y-112664820D02*
X118348458Y-112664820D01*
X118348458Y-112664820D02*
X118253220Y-112617201D01*
X118253220Y-112617201D02*
X118205601Y-112569581D01*
X117396077Y-112141010D02*
X117729410Y-112141010D01*
X117729410Y-112664820D02*
X117729410Y-111664820D01*
X117729410Y-111664820D02*
X117253220Y-111664820D01*
X124681792Y-114179581D02*
X124729411Y-114227201D01*
X124729411Y-114227201D02*
X124872268Y-114274820D01*
X124872268Y-114274820D02*
X124967506Y-114274820D01*
X124967506Y-114274820D02*
X125110363Y-114227201D01*
X125110363Y-114227201D02*
X125205601Y-114131962D01*
X125205601Y-114131962D02*
X125253220Y-114036724D01*
X125253220Y-114036724D02*
X125300839Y-113846248D01*
X125300839Y-113846248D02*
X125300839Y-113703391D01*
X125300839Y-113703391D02*
X125253220Y-113512915D01*
X125253220Y-113512915D02*
X125205601Y-113417677D01*
X125205601Y-113417677D02*
X125110363Y-113322439D01*
X125110363Y-113322439D02*
X124967506Y-113274820D01*
X124967506Y-113274820D02*
X124872268Y-113274820D01*
X124872268Y-113274820D02*
X124729411Y-113322439D01*
X124729411Y-113322439D02*
X124681792Y-113370058D01*
X124205601Y-114274820D02*
X124015125Y-114274820D01*
X124015125Y-114274820D02*
X123919887Y-114227201D01*
X123919887Y-114227201D02*
X123872268Y-114179581D01*
X123872268Y-114179581D02*
X123777030Y-114036724D01*
X123777030Y-114036724D02*
X123729411Y-113846248D01*
X123729411Y-113846248D02*
X123729411Y-113465296D01*
X123729411Y-113465296D02*
X123777030Y-113370058D01*
X123777030Y-113370058D02*
X123824649Y-113322439D01*
X123824649Y-113322439D02*
X123919887Y-113274820D01*
X123919887Y-113274820D02*
X124110363Y-113274820D01*
X124110363Y-113274820D02*
X124205601Y-113322439D01*
X124205601Y-113322439D02*
X124253220Y-113370058D01*
X124253220Y-113370058D02*
X124300839Y-113465296D01*
X124300839Y-113465296D02*
X124300839Y-113703391D01*
X124300839Y-113703391D02*
X124253220Y-113798629D01*
X124253220Y-113798629D02*
X124205601Y-113846248D01*
X124205601Y-113846248D02*
X124110363Y-113893867D01*
X124110363Y-113893867D02*
X123919887Y-113893867D01*
X123919887Y-113893867D02*
X123824649Y-113846248D01*
X123824649Y-113846248D02*
X123777030Y-113798629D01*
X123777030Y-113798629D02*
X123729411Y-113703391D01*
X122538934Y-113751010D02*
X121777030Y-113751010D01*
X121777030Y-114036724D02*
X122538934Y-114036724D01*
X120015125Y-114274820D02*
X120586553Y-114274820D01*
X120300839Y-114274820D02*
X120300839Y-113274820D01*
X120300839Y-113274820D02*
X120396077Y-113417677D01*
X120396077Y-113417677D02*
X120491315Y-113512915D01*
X120491315Y-113512915D02*
X120586553Y-113560534D01*
X119396077Y-113274820D02*
X119300839Y-113274820D01*
X119300839Y-113274820D02*
X119205601Y-113322439D01*
X119205601Y-113322439D02*
X119157982Y-113370058D01*
X119157982Y-113370058D02*
X119110363Y-113465296D01*
X119110363Y-113465296D02*
X119062744Y-113655772D01*
X119062744Y-113655772D02*
X119062744Y-113893867D01*
X119062744Y-113893867D02*
X119110363Y-114084343D01*
X119110363Y-114084343D02*
X119157982Y-114179581D01*
X119157982Y-114179581D02*
X119205601Y-114227201D01*
X119205601Y-114227201D02*
X119300839Y-114274820D01*
X119300839Y-114274820D02*
X119396077Y-114274820D01*
X119396077Y-114274820D02*
X119491315Y-114227201D01*
X119491315Y-114227201D02*
X119538934Y-114179581D01*
X119538934Y-114179581D02*
X119586553Y-114084343D01*
X119586553Y-114084343D02*
X119634172Y-113893867D01*
X119634172Y-113893867D02*
X119634172Y-113655772D01*
X119634172Y-113655772D02*
X119586553Y-113465296D01*
X119586553Y-113465296D02*
X119538934Y-113370058D01*
X119538934Y-113370058D02*
X119491315Y-113322439D01*
X119491315Y-113322439D02*
X119396077Y-113274820D01*
X118205601Y-113608153D02*
X118205601Y-114274820D01*
X118634172Y-113608153D02*
X118634172Y-114131962D01*
X118634172Y-114131962D02*
X118586553Y-114227201D01*
X118586553Y-114227201D02*
X118491315Y-114274820D01*
X118491315Y-114274820D02*
X118348458Y-114274820D01*
X118348458Y-114274820D02*
X118253220Y-114227201D01*
X118253220Y-114227201D02*
X118205601Y-114179581D01*
X117396077Y-113751010D02*
X117729410Y-113751010D01*
X117729410Y-114274820D02*
X117729410Y-113274820D01*
X117729410Y-113274820D02*
X117253220Y-113274820D01*
X124681792Y-115789581D02*
X124729411Y-115837201D01*
X124729411Y-115837201D02*
X124872268Y-115884820D01*
X124872268Y-115884820D02*
X124967506Y-115884820D01*
X124967506Y-115884820D02*
X125110363Y-115837201D01*
X125110363Y-115837201D02*
X125205601Y-115741962D01*
X125205601Y-115741962D02*
X125253220Y-115646724D01*
X125253220Y-115646724D02*
X125300839Y-115456248D01*
X125300839Y-115456248D02*
X125300839Y-115313391D01*
X125300839Y-115313391D02*
X125253220Y-115122915D01*
X125253220Y-115122915D02*
X125205601Y-115027677D01*
X125205601Y-115027677D02*
X125110363Y-114932439D01*
X125110363Y-114932439D02*
X124967506Y-114884820D01*
X124967506Y-114884820D02*
X124872268Y-114884820D01*
X124872268Y-114884820D02*
X124729411Y-114932439D01*
X124729411Y-114932439D02*
X124681792Y-114980058D01*
X123729411Y-115884820D02*
X124300839Y-115884820D01*
X124015125Y-115884820D02*
X124015125Y-114884820D01*
X124015125Y-114884820D02*
X124110363Y-115027677D01*
X124110363Y-115027677D02*
X124205601Y-115122915D01*
X124205601Y-115122915D02*
X124300839Y-115170534D01*
X123110363Y-114884820D02*
X123015125Y-114884820D01*
X123015125Y-114884820D02*
X122919887Y-114932439D01*
X122919887Y-114932439D02*
X122872268Y-114980058D01*
X122872268Y-114980058D02*
X122824649Y-115075296D01*
X122824649Y-115075296D02*
X122777030Y-115265772D01*
X122777030Y-115265772D02*
X122777030Y-115503867D01*
X122777030Y-115503867D02*
X122824649Y-115694343D01*
X122824649Y-115694343D02*
X122872268Y-115789581D01*
X122872268Y-115789581D02*
X122919887Y-115837201D01*
X122919887Y-115837201D02*
X123015125Y-115884820D01*
X123015125Y-115884820D02*
X123110363Y-115884820D01*
X123110363Y-115884820D02*
X123205601Y-115837201D01*
X123205601Y-115837201D02*
X123253220Y-115789581D01*
X123253220Y-115789581D02*
X123300839Y-115694343D01*
X123300839Y-115694343D02*
X123348458Y-115503867D01*
X123348458Y-115503867D02*
X123348458Y-115265772D01*
X123348458Y-115265772D02*
X123300839Y-115075296D01*
X123300839Y-115075296D02*
X123253220Y-114980058D01*
X123253220Y-114980058D02*
X123205601Y-114932439D01*
X123205601Y-114932439D02*
X123110363Y-114884820D01*
X121586553Y-115361010D02*
X120824649Y-115361010D01*
X120824649Y-115646724D02*
X121586553Y-115646724D01*
X119396077Y-114884820D02*
X119300839Y-114884820D01*
X119300839Y-114884820D02*
X119205601Y-114932439D01*
X119205601Y-114932439D02*
X119157982Y-114980058D01*
X119157982Y-114980058D02*
X119110363Y-115075296D01*
X119110363Y-115075296D02*
X119062744Y-115265772D01*
X119062744Y-115265772D02*
X119062744Y-115503867D01*
X119062744Y-115503867D02*
X119110363Y-115694343D01*
X119110363Y-115694343D02*
X119157982Y-115789581D01*
X119157982Y-115789581D02*
X119205601Y-115837201D01*
X119205601Y-115837201D02*
X119300839Y-115884820D01*
X119300839Y-115884820D02*
X119396077Y-115884820D01*
X119396077Y-115884820D02*
X119491315Y-115837201D01*
X119491315Y-115837201D02*
X119538934Y-115789581D01*
X119538934Y-115789581D02*
X119586553Y-115694343D01*
X119586553Y-115694343D02*
X119634172Y-115503867D01*
X119634172Y-115503867D02*
X119634172Y-115265772D01*
X119634172Y-115265772D02*
X119586553Y-115075296D01*
X119586553Y-115075296D02*
X119538934Y-114980058D01*
X119538934Y-114980058D02*
X119491315Y-114932439D01*
X119491315Y-114932439D02*
X119396077Y-114884820D01*
X118634172Y-115789581D02*
X118586553Y-115837201D01*
X118586553Y-115837201D02*
X118634172Y-115884820D01*
X118634172Y-115884820D02*
X118681791Y-115837201D01*
X118681791Y-115837201D02*
X118634172Y-115789581D01*
X118634172Y-115789581D02*
X118634172Y-115884820D01*
X117634173Y-115884820D02*
X118205601Y-115884820D01*
X117919887Y-115884820D02*
X117919887Y-114884820D01*
X117919887Y-114884820D02*
X118015125Y-115027677D01*
X118015125Y-115027677D02*
X118110363Y-115122915D01*
X118110363Y-115122915D02*
X118205601Y-115170534D01*
X116777030Y-115218153D02*
X116777030Y-115884820D01*
X117205601Y-115218153D02*
X117205601Y-115741962D01*
X117205601Y-115741962D02*
X117157982Y-115837201D01*
X117157982Y-115837201D02*
X117062744Y-115884820D01*
X117062744Y-115884820D02*
X116919887Y-115884820D01*
X116919887Y-115884820D02*
X116824649Y-115837201D01*
X116824649Y-115837201D02*
X116777030Y-115789581D01*
X115967506Y-115361010D02*
X116300839Y-115361010D01*
X116300839Y-115884820D02*
X116300839Y-114884820D01*
X116300839Y-114884820D02*
X115824649Y-114884820D01*
X132954819Y-106153333D02*
X133954819Y-106486666D01*
X133954819Y-106486666D02*
X132954819Y-106819999D01*
X133907200Y-107105714D02*
X133954819Y-107248571D01*
X133954819Y-107248571D02*
X133954819Y-107486666D01*
X133954819Y-107486666D02*
X133907200Y-107581904D01*
X133907200Y-107581904D02*
X133859580Y-107629523D01*
X133859580Y-107629523D02*
X133764342Y-107677142D01*
X133764342Y-107677142D02*
X133669104Y-107677142D01*
X133669104Y-107677142D02*
X133573866Y-107629523D01*
X133573866Y-107629523D02*
X133526247Y-107581904D01*
X133526247Y-107581904D02*
X133478628Y-107486666D01*
X133478628Y-107486666D02*
X133431009Y-107296190D01*
X133431009Y-107296190D02*
X133383390Y-107200952D01*
X133383390Y-107200952D02*
X133335771Y-107153333D01*
X133335771Y-107153333D02*
X133240533Y-107105714D01*
X133240533Y-107105714D02*
X133145295Y-107105714D01*
X133145295Y-107105714D02*
X133050057Y-107153333D01*
X133050057Y-107153333D02*
X133002438Y-107200952D01*
X133002438Y-107200952D02*
X132954819Y-107296190D01*
X132954819Y-107296190D02*
X132954819Y-107534285D01*
X132954819Y-107534285D02*
X133002438Y-107677142D01*
X132954819Y-108296190D02*
X132954819Y-108486666D01*
X132954819Y-108486666D02*
X133002438Y-108581904D01*
X133002438Y-108581904D02*
X133097676Y-108677142D01*
X133097676Y-108677142D02*
X133288152Y-108724761D01*
X133288152Y-108724761D02*
X133621485Y-108724761D01*
X133621485Y-108724761D02*
X133811961Y-108677142D01*
X133811961Y-108677142D02*
X133907200Y-108581904D01*
X133907200Y-108581904D02*
X133954819Y-108486666D01*
X133954819Y-108486666D02*
X133954819Y-108296190D01*
X133954819Y-108296190D02*
X133907200Y-108200952D01*
X133907200Y-108200952D02*
X133811961Y-108105714D01*
X133811961Y-108105714D02*
X133621485Y-108058095D01*
X133621485Y-108058095D02*
X133288152Y-108058095D01*
X133288152Y-108058095D02*
X133097676Y-108105714D01*
X133097676Y-108105714D02*
X133002438Y-108200952D01*
X133002438Y-108200952D02*
X132954819Y-108296190D01*
X133954819Y-109629523D02*
X133954819Y-109153333D01*
X133954819Y-109153333D02*
X132954819Y-109153333D01*
X133669104Y-109915238D02*
X133669104Y-110391428D01*
X133954819Y-109820000D02*
X132954819Y-110153333D01*
X132954819Y-110153333D02*
X133954819Y-110486666D01*
X133954819Y-111391428D02*
X133478628Y-111058095D01*
X133954819Y-110820000D02*
X132954819Y-110820000D01*
X132954819Y-110820000D02*
X132954819Y-111200952D01*
X132954819Y-111200952D02*
X133002438Y-111296190D01*
X133002438Y-111296190D02*
X133050057Y-111343809D01*
X133050057Y-111343809D02*
X133145295Y-111391428D01*
X133145295Y-111391428D02*
X133288152Y-111391428D01*
X133288152Y-111391428D02*
X133383390Y-111343809D01*
X133383390Y-111343809D02*
X133431009Y-111296190D01*
X133431009Y-111296190D02*
X133478628Y-111200952D01*
X133478628Y-111200952D02*
X133478628Y-110820000D01*
X161298627Y-109281772D02*
X160894566Y-108877711D01*
X160389490Y-109786848D02*
X161096597Y-109079742D01*
X159951757Y-109349115D02*
X160658864Y-108642009D01*
X159648711Y-109046070D02*
X160019101Y-108675680D01*
X160019101Y-108675680D02*
X160120116Y-108642009D01*
X160120116Y-108642009D02*
X160221131Y-108675680D01*
X160221131Y-108675680D02*
X160322146Y-108776696D01*
X160322146Y-108776696D02*
X160355818Y-108877711D01*
X160355818Y-108877711D02*
X160355818Y-108945054D01*
X159076292Y-108406306D02*
X159109963Y-108507322D01*
X159109963Y-108507322D02*
X159244650Y-108642009D01*
X159244650Y-108642009D02*
X159345666Y-108675680D01*
X159345666Y-108675680D02*
X159446681Y-108642009D01*
X159446681Y-108642009D02*
X159716055Y-108372635D01*
X159716055Y-108372635D02*
X159749727Y-108271619D01*
X159749727Y-108271619D02*
X159716055Y-108170604D01*
X159716055Y-108170604D02*
X159581368Y-108035917D01*
X159581368Y-108035917D02*
X159480353Y-108002245D01*
X159480353Y-108002245D02*
X159379337Y-108035917D01*
X159379337Y-108035917D02*
X159311994Y-108103261D01*
X159311994Y-108103261D02*
X159581368Y-108507322D01*
X158705902Y-108103260D02*
X159177307Y-107631856D01*
X159042620Y-107766543D02*
X159076291Y-107665528D01*
X159076291Y-107665528D02*
X159076291Y-107598184D01*
X159076291Y-107598184D02*
X159042620Y-107497169D01*
X159042620Y-107497169D02*
X158975276Y-107429825D01*
X158268169Y-107665527D02*
X158739574Y-107194123D01*
X158672230Y-107261466D02*
X158672230Y-107194123D01*
X158672230Y-107194123D02*
X158638558Y-107093108D01*
X158638558Y-107093108D02*
X158537543Y-106992092D01*
X158537543Y-106992092D02*
X158436528Y-106958421D01*
X158436528Y-106958421D02*
X158335513Y-106992092D01*
X158335513Y-106992092D02*
X157965123Y-107362482D01*
X158335513Y-106992092D02*
X158369184Y-106891077D01*
X158369184Y-106891077D02*
X158335513Y-106790062D01*
X158335513Y-106790062D02*
X158234497Y-106689047D01*
X158234497Y-106689047D02*
X158133482Y-106655375D01*
X158133482Y-106655375D02*
X158032467Y-106689047D01*
X158032467Y-106689047D02*
X157662078Y-107059436D01*
X157224345Y-106621703D02*
X157325360Y-106655375D01*
X157325360Y-106655375D02*
X157392704Y-106655375D01*
X157392704Y-106655375D02*
X157493719Y-106621703D01*
X157493719Y-106621703D02*
X157695750Y-106419673D01*
X157695750Y-106419673D02*
X157729421Y-106318658D01*
X157729421Y-106318658D02*
X157729421Y-106251314D01*
X157729421Y-106251314D02*
X157695750Y-106150299D01*
X157695750Y-106150299D02*
X157594734Y-106049284D01*
X157594734Y-106049284D02*
X157493719Y-106015612D01*
X157493719Y-106015612D02*
X157426376Y-106015612D01*
X157426376Y-106015612D02*
X157325360Y-106049284D01*
X157325360Y-106049284D02*
X157123330Y-106251314D01*
X157123330Y-106251314D02*
X157089658Y-106352329D01*
X157089658Y-106352329D02*
X157089658Y-106419673D01*
X157089658Y-106419673D02*
X157123330Y-106520688D01*
X157123330Y-106520688D02*
X157224345Y-106621703D01*
X156416223Y-105746238D02*
X156449895Y-105847253D01*
X156449895Y-105847253D02*
X156584582Y-105981940D01*
X156584582Y-105981940D02*
X156685597Y-106015612D01*
X156685597Y-106015612D02*
X156752941Y-106015612D01*
X156752941Y-106015612D02*
X156853956Y-105981940D01*
X156853956Y-105981940D02*
X157055986Y-105779910D01*
X157055986Y-105779910D02*
X157089658Y-105678894D01*
X157089658Y-105678894D02*
X157089658Y-105611551D01*
X157089658Y-105611551D02*
X157055986Y-105510536D01*
X157055986Y-105510536D02*
X156921299Y-105375849D01*
X156921299Y-105375849D02*
X156820284Y-105342177D01*
X155978490Y-105375848D02*
X156079505Y-105409520D01*
X156079505Y-105409520D02*
X156146849Y-105409520D01*
X156146849Y-105409520D02*
X156247864Y-105375848D01*
X156247864Y-105375848D02*
X156449895Y-105173818D01*
X156449895Y-105173818D02*
X156483566Y-105072803D01*
X156483566Y-105072803D02*
X156483566Y-105005459D01*
X156483566Y-105005459D02*
X156449895Y-104904444D01*
X156449895Y-104904444D02*
X156348879Y-104803429D01*
X156348879Y-104803429D02*
X156247864Y-104769757D01*
X156247864Y-104769757D02*
X156180521Y-104769757D01*
X156180521Y-104769757D02*
X156079505Y-104803429D01*
X156079505Y-104803429D02*
X155877475Y-105005459D01*
X155877475Y-105005459D02*
X155843803Y-105106474D01*
X155843803Y-105106474D02*
X155843803Y-105173818D01*
X155843803Y-105173818D02*
X155877475Y-105274833D01*
X155877475Y-105274833D02*
X155978490Y-105375848D01*
X155608101Y-104062650D02*
X155136696Y-104534055D01*
X155911147Y-104365696D02*
X155540757Y-104736085D01*
X155540757Y-104736085D02*
X155439742Y-104769757D01*
X155439742Y-104769757D02*
X155338727Y-104736085D01*
X155338727Y-104736085D02*
X155237712Y-104635070D01*
X155237712Y-104635070D02*
X155204040Y-104534055D01*
X155204040Y-104534055D02*
X155204040Y-104466711D01*
X155271383Y-103725932D02*
X154564276Y-104433039D01*
X155237711Y-103759604D02*
X155204040Y-103658589D01*
X155204040Y-103658589D02*
X155069353Y-103523902D01*
X155069353Y-103523902D02*
X154968337Y-103490230D01*
X154968337Y-103490230D02*
X154900994Y-103490230D01*
X154900994Y-103490230D02*
X154799979Y-103523902D01*
X154799979Y-103523902D02*
X154597948Y-103725932D01*
X154597948Y-103725932D02*
X154564276Y-103826948D01*
X154564276Y-103826948D02*
X154564276Y-103894291D01*
X154564276Y-103894291D02*
X154597948Y-103995306D01*
X154597948Y-103995306D02*
X154732635Y-104129993D01*
X154732635Y-104129993D02*
X154833650Y-104163665D01*
X154059200Y-103456558D02*
X154160215Y-103490230D01*
X154160215Y-103490230D02*
X154261231Y-103456558D01*
X154261231Y-103456558D02*
X154867322Y-102850467D01*
X153554124Y-102884138D02*
X153587795Y-102985154D01*
X153587795Y-102985154D02*
X153722482Y-103119841D01*
X153722482Y-103119841D02*
X153823498Y-103153512D01*
X153823498Y-103153512D02*
X153924513Y-103119841D01*
X153924513Y-103119841D02*
X154193887Y-102850467D01*
X154193887Y-102850467D02*
X154227559Y-102749451D01*
X154227559Y-102749451D02*
X154193887Y-102648436D01*
X154193887Y-102648436D02*
X154059200Y-102513749D01*
X154059200Y-102513749D02*
X153958185Y-102480077D01*
X153958185Y-102480077D02*
X153857169Y-102513749D01*
X153857169Y-102513749D02*
X153789826Y-102581093D01*
X153789826Y-102581093D02*
X154059200Y-102985154D01*
X153251078Y-102513749D02*
X153183734Y-102513749D01*
X153183734Y-102513749D02*
X153183734Y-102581092D01*
X153183734Y-102581092D02*
X153251078Y-102581092D01*
X153251078Y-102581092D02*
X153251078Y-102513749D01*
X153251078Y-102513749D02*
X153183734Y-102581092D01*
X153621467Y-102143360D02*
X153554123Y-102143360D01*
X153554123Y-102143360D02*
X153554123Y-102210703D01*
X153554123Y-102210703D02*
X153621467Y-102210703D01*
X153621467Y-102210703D02*
X153621467Y-102143360D01*
X153621467Y-102143360D02*
X153554123Y-102210703D01*
X152543971Y-101537268D02*
X152207254Y-101200551D01*
X152409284Y-101806642D02*
X152880689Y-100863833D01*
X152880689Y-100863833D02*
X151937880Y-101335238D01*
X151702177Y-101099535D02*
X152409284Y-100392429D01*
X152409284Y-100392429D02*
X152240925Y-100224070D01*
X152240925Y-100224070D02*
X152106238Y-100156726D01*
X152106238Y-100156726D02*
X151971551Y-100156726D01*
X151971551Y-100156726D02*
X151870536Y-100190398D01*
X151870536Y-100190398D02*
X151702177Y-100291413D01*
X151702177Y-100291413D02*
X151601162Y-100392429D01*
X151601162Y-100392429D02*
X151500147Y-100560787D01*
X151500147Y-100560787D02*
X151466475Y-100661803D01*
X151466475Y-100661803D02*
X151466475Y-100796490D01*
X151466475Y-100796490D02*
X151533818Y-100931177D01*
X151533818Y-100931177D02*
X151702177Y-101099535D01*
X151298116Y-99887352D02*
X151399131Y-99921024D01*
X151399131Y-99921024D02*
X151466475Y-99921024D01*
X151466475Y-99921024D02*
X151567490Y-99887352D01*
X151567490Y-99887352D02*
X151601162Y-99853681D01*
X151601162Y-99853681D02*
X151634834Y-99752665D01*
X151634834Y-99752665D02*
X151634834Y-99685322D01*
X151634834Y-99685322D02*
X151601162Y-99584307D01*
X151601162Y-99584307D02*
X151466475Y-99449620D01*
X151466475Y-99449620D02*
X151365460Y-99415948D01*
X151365460Y-99415948D02*
X151298116Y-99415948D01*
X151298116Y-99415948D02*
X151197101Y-99449620D01*
X151197101Y-99449620D02*
X151163429Y-99483291D01*
X151163429Y-99483291D02*
X151129757Y-99584307D01*
X151129757Y-99584307D02*
X151129757Y-99651650D01*
X151129757Y-99651650D02*
X151163429Y-99752665D01*
X151163429Y-99752665D02*
X151298116Y-99887352D01*
X151298116Y-99887352D02*
X151331788Y-99988368D01*
X151331788Y-99988368D02*
X151331788Y-100055711D01*
X151331788Y-100055711D02*
X151298116Y-100156726D01*
X151298116Y-100156726D02*
X151163429Y-100291413D01*
X151163429Y-100291413D02*
X151062414Y-100325085D01*
X151062414Y-100325085D02*
X150995070Y-100325085D01*
X150995070Y-100325085D02*
X150894055Y-100291413D01*
X150894055Y-100291413D02*
X150759368Y-100156726D01*
X150759368Y-100156726D02*
X150725696Y-100055711D01*
X150725696Y-100055711D02*
X150725696Y-99988368D01*
X150725696Y-99988368D02*
X150759368Y-99887352D01*
X150759368Y-99887352D02*
X150894055Y-99752665D01*
X150894055Y-99752665D02*
X150995070Y-99718994D01*
X150995070Y-99718994D02*
X151062414Y-99718994D01*
X151062414Y-99718994D02*
X151163429Y-99752665D01*
X150489994Y-98944543D02*
X150018590Y-99415948D01*
X150927727Y-98843528D02*
X150591009Y-99516963D01*
X150591009Y-99516963D02*
X150153277Y-99079230D01*
X149614528Y-99011887D02*
X149479841Y-98877200D01*
X149479841Y-98877200D02*
X149446170Y-98776184D01*
X149446170Y-98776184D02*
X149446170Y-98708841D01*
X149446170Y-98708841D02*
X149479841Y-98540482D01*
X149479841Y-98540482D02*
X149580857Y-98372123D01*
X149580857Y-98372123D02*
X149850231Y-98102749D01*
X149850231Y-98102749D02*
X149951246Y-98069078D01*
X149951246Y-98069078D02*
X150018590Y-98069078D01*
X150018590Y-98069078D02*
X150119605Y-98102749D01*
X150119605Y-98102749D02*
X150254292Y-98237436D01*
X150254292Y-98237436D02*
X150287964Y-98338452D01*
X150287964Y-98338452D02*
X150287964Y-98405795D01*
X150287964Y-98405795D02*
X150254292Y-98506810D01*
X150254292Y-98506810D02*
X150085933Y-98675169D01*
X150085933Y-98675169D02*
X149984918Y-98708841D01*
X149984918Y-98708841D02*
X149917574Y-98708841D01*
X149917574Y-98708841D02*
X149816559Y-98675169D01*
X149816559Y-98675169D02*
X149681872Y-98540482D01*
X149681872Y-98540482D02*
X149648200Y-98439467D01*
X149648200Y-98439467D02*
X149648200Y-98372123D01*
X149648200Y-98372123D02*
X149681872Y-98271108D01*
X149345154Y-97328299D02*
X149681872Y-97665017D01*
X149681872Y-97665017D02*
X149378826Y-98035406D01*
X149378826Y-98035406D02*
X149378826Y-97968062D01*
X149378826Y-97968062D02*
X149345154Y-97867047D01*
X149345154Y-97867047D02*
X149176796Y-97698688D01*
X149176796Y-97698688D02*
X149075780Y-97665017D01*
X149075780Y-97665017D02*
X149008437Y-97665017D01*
X149008437Y-97665017D02*
X148907422Y-97698688D01*
X148907422Y-97698688D02*
X148739063Y-97867047D01*
X148739063Y-97867047D02*
X148705391Y-97968062D01*
X148705391Y-97968062D02*
X148705391Y-98035406D01*
X148705391Y-98035406D02*
X148739063Y-98136421D01*
X148739063Y-98136421D02*
X148907422Y-98304780D01*
X148907422Y-98304780D02*
X149008437Y-98338452D01*
X149008437Y-98338452D02*
X149075780Y-98338452D01*
X134592438Y-106778095D02*
X134544819Y-106682857D01*
X134544819Y-106682857D02*
X134544819Y-106540000D01*
X134544819Y-106540000D02*
X134592438Y-106397143D01*
X134592438Y-106397143D02*
X134687676Y-106301905D01*
X134687676Y-106301905D02*
X134782914Y-106254286D01*
X134782914Y-106254286D02*
X134973390Y-106206667D01*
X134973390Y-106206667D02*
X135116247Y-106206667D01*
X135116247Y-106206667D02*
X135306723Y-106254286D01*
X135306723Y-106254286D02*
X135401961Y-106301905D01*
X135401961Y-106301905D02*
X135497200Y-106397143D01*
X135497200Y-106397143D02*
X135544819Y-106540000D01*
X135544819Y-106540000D02*
X135544819Y-106635238D01*
X135544819Y-106635238D02*
X135497200Y-106778095D01*
X135497200Y-106778095D02*
X135449580Y-106825714D01*
X135449580Y-106825714D02*
X135116247Y-106825714D01*
X135116247Y-106825714D02*
X135116247Y-106635238D01*
X135544819Y-107254286D02*
X134544819Y-107254286D01*
X134544819Y-107254286D02*
X135544819Y-107825714D01*
X135544819Y-107825714D02*
X134544819Y-107825714D01*
X135544819Y-108301905D02*
X134544819Y-108301905D01*
X134544819Y-108301905D02*
X134544819Y-108540000D01*
X134544819Y-108540000D02*
X134592438Y-108682857D01*
X134592438Y-108682857D02*
X134687676Y-108778095D01*
X134687676Y-108778095D02*
X134782914Y-108825714D01*
X134782914Y-108825714D02*
X134973390Y-108873333D01*
X134973390Y-108873333D02*
X135116247Y-108873333D01*
X135116247Y-108873333D02*
X135306723Y-108825714D01*
X135306723Y-108825714D02*
X135401961Y-108778095D01*
X135401961Y-108778095D02*
X135497200Y-108682857D01*
X135497200Y-108682857D02*
X135544819Y-108540000D01*
X135544819Y-108540000D02*
X135544819Y-108301905D01*
X136104819Y-106191905D02*
X136104819Y-106810952D01*
X136104819Y-106810952D02*
X136485771Y-106477619D01*
X136485771Y-106477619D02*
X136485771Y-106620476D01*
X136485771Y-106620476D02*
X136533390Y-106715714D01*
X136533390Y-106715714D02*
X136581009Y-106763333D01*
X136581009Y-106763333D02*
X136676247Y-106810952D01*
X136676247Y-106810952D02*
X136914342Y-106810952D01*
X136914342Y-106810952D02*
X137009580Y-106763333D01*
X137009580Y-106763333D02*
X137057200Y-106715714D01*
X137057200Y-106715714D02*
X137104819Y-106620476D01*
X137104819Y-106620476D02*
X137104819Y-106334762D01*
X137104819Y-106334762D02*
X137057200Y-106239524D01*
X137057200Y-106239524D02*
X137009580Y-106191905D01*
X136104819Y-107096667D02*
X137104819Y-107430000D01*
X137104819Y-107430000D02*
X136104819Y-107763333D01*
X136104819Y-108001429D02*
X136104819Y-108620476D01*
X136104819Y-108620476D02*
X136485771Y-108287143D01*
X136485771Y-108287143D02*
X136485771Y-108430000D01*
X136485771Y-108430000D02*
X136533390Y-108525238D01*
X136533390Y-108525238D02*
X136581009Y-108572857D01*
X136581009Y-108572857D02*
X136676247Y-108620476D01*
X136676247Y-108620476D02*
X136914342Y-108620476D01*
X136914342Y-108620476D02*
X137009580Y-108572857D01*
X137009580Y-108572857D02*
X137057200Y-108525238D01*
X137057200Y-108525238D02*
X137104819Y-108430000D01*
X137104819Y-108430000D02*
X137104819Y-108144286D01*
X137104819Y-108144286D02*
X137057200Y-108049048D01*
X137057200Y-108049048D02*
X137009580Y-108001429D01*
X188095827Y-133754819D02*
X188095827Y-132754819D01*
X188095827Y-132754819D02*
X187714875Y-132754819D01*
X187714875Y-132754819D02*
X187619637Y-132802438D01*
X187619637Y-132802438D02*
X187572018Y-132850057D01*
X187572018Y-132850057D02*
X187524399Y-132945295D01*
X187524399Y-132945295D02*
X187524399Y-133088152D01*
X187524399Y-133088152D02*
X187572018Y-133183390D01*
X187572018Y-133183390D02*
X187619637Y-133231009D01*
X187619637Y-133231009D02*
X187714875Y-133278628D01*
X187714875Y-133278628D02*
X188095827Y-133278628D01*
X186524399Y-133754819D02*
X186857732Y-133278628D01*
X187095827Y-133754819D02*
X187095827Y-132754819D01*
X187095827Y-132754819D02*
X186714875Y-132754819D01*
X186714875Y-132754819D02*
X186619637Y-132802438D01*
X186619637Y-132802438D02*
X186572018Y-132850057D01*
X186572018Y-132850057D02*
X186524399Y-132945295D01*
X186524399Y-132945295D02*
X186524399Y-133088152D01*
X186524399Y-133088152D02*
X186572018Y-133183390D01*
X186572018Y-133183390D02*
X186619637Y-133231009D01*
X186619637Y-133231009D02*
X186714875Y-133278628D01*
X186714875Y-133278628D02*
X187095827Y-133278628D01*
X185905351Y-132754819D02*
X185714875Y-132754819D01*
X185714875Y-132754819D02*
X185619637Y-132802438D01*
X185619637Y-132802438D02*
X185524399Y-132897676D01*
X185524399Y-132897676D02*
X185476780Y-133088152D01*
X185476780Y-133088152D02*
X185476780Y-133421485D01*
X185476780Y-133421485D02*
X185524399Y-133611961D01*
X185524399Y-133611961D02*
X185619637Y-133707200D01*
X185619637Y-133707200D02*
X185714875Y-133754819D01*
X185714875Y-133754819D02*
X185905351Y-133754819D01*
X185905351Y-133754819D02*
X186000589Y-133707200D01*
X186000589Y-133707200D02*
X186095827Y-133611961D01*
X186095827Y-133611961D02*
X186143446Y-133421485D01*
X186143446Y-133421485D02*
X186143446Y-133088152D01*
X186143446Y-133088152D02*
X186095827Y-132897676D01*
X186095827Y-132897676D02*
X186000589Y-132802438D01*
X186000589Y-132802438D02*
X185905351Y-132754819D01*
X185191065Y-132754819D02*
X184857732Y-133754819D01*
X184857732Y-133754819D02*
X184524399Y-132754819D01*
X184191065Y-133231009D02*
X183857732Y-133231009D01*
X183714875Y-133754819D02*
X184191065Y-133754819D01*
X184191065Y-133754819D02*
X184191065Y-132754819D01*
X184191065Y-132754819D02*
X183714875Y-132754819D01*
X183333922Y-133707200D02*
X183191065Y-133754819D01*
X183191065Y-133754819D02*
X182952970Y-133754819D01*
X182952970Y-133754819D02*
X182857732Y-133707200D01*
X182857732Y-133707200D02*
X182810113Y-133659580D01*
X182810113Y-133659580D02*
X182762494Y-133564342D01*
X182762494Y-133564342D02*
X182762494Y-133469104D01*
X182762494Y-133469104D02*
X182810113Y-133373866D01*
X182810113Y-133373866D02*
X182857732Y-133326247D01*
X182857732Y-133326247D02*
X182952970Y-133278628D01*
X182952970Y-133278628D02*
X183143446Y-133231009D01*
X183143446Y-133231009D02*
X183238684Y-133183390D01*
X183238684Y-133183390D02*
X183286303Y-133135771D01*
X183286303Y-133135771D02*
X183333922Y-133040533D01*
X183333922Y-133040533D02*
X183333922Y-132945295D01*
X183333922Y-132945295D02*
X183286303Y-132850057D01*
X183286303Y-132850057D02*
X183238684Y-132802438D01*
X183238684Y-132802438D02*
X183143446Y-132754819D01*
X183143446Y-132754819D02*
X182905351Y-132754819D01*
X182905351Y-132754819D02*
X182762494Y-132802438D01*
X181238684Y-133231009D02*
X181095827Y-133278628D01*
X181095827Y-133278628D02*
X181048208Y-133326247D01*
X181048208Y-133326247D02*
X181000589Y-133421485D01*
X181000589Y-133421485D02*
X181000589Y-133564342D01*
X181000589Y-133564342D02*
X181048208Y-133659580D01*
X181048208Y-133659580D02*
X181095827Y-133707200D01*
X181095827Y-133707200D02*
X181191065Y-133754819D01*
X181191065Y-133754819D02*
X181572017Y-133754819D01*
X181572017Y-133754819D02*
X181572017Y-132754819D01*
X181572017Y-132754819D02*
X181238684Y-132754819D01*
X181238684Y-132754819D02*
X181143446Y-132802438D01*
X181143446Y-132802438D02*
X181095827Y-132850057D01*
X181095827Y-132850057D02*
X181048208Y-132945295D01*
X181048208Y-132945295D02*
X181048208Y-133040533D01*
X181048208Y-133040533D02*
X181095827Y-133135771D01*
X181095827Y-133135771D02*
X181143446Y-133183390D01*
X181143446Y-133183390D02*
X181238684Y-133231009D01*
X181238684Y-133231009D02*
X181572017Y-133231009D01*
X180381541Y-132754819D02*
X180191065Y-132754819D01*
X180191065Y-132754819D02*
X180095827Y-132802438D01*
X180095827Y-132802438D02*
X180000589Y-132897676D01*
X180000589Y-132897676D02*
X179952970Y-133088152D01*
X179952970Y-133088152D02*
X179952970Y-133421485D01*
X179952970Y-133421485D02*
X180000589Y-133611961D01*
X180000589Y-133611961D02*
X180095827Y-133707200D01*
X180095827Y-133707200D02*
X180191065Y-133754819D01*
X180191065Y-133754819D02*
X180381541Y-133754819D01*
X180381541Y-133754819D02*
X180476779Y-133707200D01*
X180476779Y-133707200D02*
X180572017Y-133611961D01*
X180572017Y-133611961D02*
X180619636Y-133421485D01*
X180619636Y-133421485D02*
X180619636Y-133088152D01*
X180619636Y-133088152D02*
X180572017Y-132897676D01*
X180572017Y-132897676D02*
X180476779Y-132802438D01*
X180476779Y-132802438D02*
X180381541Y-132754819D01*
X179667255Y-132754819D02*
X179095827Y-132754819D01*
X179381541Y-133754819D02*
X179381541Y-132754819D01*
X178905350Y-132754819D02*
X178333922Y-132754819D01*
X178619636Y-133754819D02*
X178619636Y-132754819D01*
X177810112Y-132754819D02*
X177619636Y-132754819D01*
X177619636Y-132754819D02*
X177524398Y-132802438D01*
X177524398Y-132802438D02*
X177429160Y-132897676D01*
X177429160Y-132897676D02*
X177381541Y-133088152D01*
X177381541Y-133088152D02*
X177381541Y-133421485D01*
X177381541Y-133421485D02*
X177429160Y-133611961D01*
X177429160Y-133611961D02*
X177524398Y-133707200D01*
X177524398Y-133707200D02*
X177619636Y-133754819D01*
X177619636Y-133754819D02*
X177810112Y-133754819D01*
X177810112Y-133754819D02*
X177905350Y-133707200D01*
X177905350Y-133707200D02*
X178000588Y-133611961D01*
X178000588Y-133611961D02*
X178048207Y-133421485D01*
X178048207Y-133421485D02*
X178048207Y-133088152D01*
X178048207Y-133088152D02*
X178000588Y-132897676D01*
X178000588Y-132897676D02*
X177905350Y-132802438D01*
X177905350Y-132802438D02*
X177810112Y-132754819D01*
X176952969Y-133754819D02*
X176952969Y-132754819D01*
X176952969Y-132754819D02*
X176619636Y-133469104D01*
X176619636Y-133469104D02*
X176286303Y-132754819D01*
X176286303Y-132754819D02*
X176286303Y-133754819D01*
X174476779Y-133659580D02*
X174524398Y-133707200D01*
X174524398Y-133707200D02*
X174667255Y-133754819D01*
X174667255Y-133754819D02*
X174762493Y-133754819D01*
X174762493Y-133754819D02*
X174905350Y-133707200D01*
X174905350Y-133707200D02*
X175000588Y-133611961D01*
X175000588Y-133611961D02*
X175048207Y-133516723D01*
X175048207Y-133516723D02*
X175095826Y-133326247D01*
X175095826Y-133326247D02*
X175095826Y-133183390D01*
X175095826Y-133183390D02*
X175048207Y-132992914D01*
X175048207Y-132992914D02*
X175000588Y-132897676D01*
X175000588Y-132897676D02*
X174905350Y-132802438D01*
X174905350Y-132802438D02*
X174762493Y-132754819D01*
X174762493Y-132754819D02*
X174667255Y-132754819D01*
X174667255Y-132754819D02*
X174524398Y-132802438D01*
X174524398Y-132802438D02*
X174476779Y-132850057D01*
X174095826Y-133469104D02*
X173619636Y-133469104D01*
X174191064Y-133754819D02*
X173857731Y-132754819D01*
X173857731Y-132754819D02*
X173524398Y-133754819D01*
X173191064Y-133754819D02*
X173191064Y-132754819D01*
X173191064Y-132754819D02*
X172810112Y-132754819D01*
X172810112Y-132754819D02*
X172714874Y-132802438D01*
X172714874Y-132802438D02*
X172667255Y-132850057D01*
X172667255Y-132850057D02*
X172619636Y-132945295D01*
X172619636Y-132945295D02*
X172619636Y-133088152D01*
X172619636Y-133088152D02*
X172667255Y-133183390D01*
X172667255Y-133183390D02*
X172714874Y-133231009D01*
X172714874Y-133231009D02*
X172810112Y-133278628D01*
X172810112Y-133278628D02*
X173191064Y-133278628D01*
X172191064Y-133659580D02*
X172143445Y-133707200D01*
X172143445Y-133707200D02*
X172191064Y-133754819D01*
X172191064Y-133754819D02*
X172238683Y-133707200D01*
X172238683Y-133707200D02*
X172191064Y-133659580D01*
X172191064Y-133659580D02*
X172191064Y-133754819D01*
X172191064Y-133135771D02*
X172143445Y-133183390D01*
X172143445Y-133183390D02*
X172191064Y-133231009D01*
X172191064Y-133231009D02*
X172238683Y-133183390D01*
X172238683Y-133183390D02*
X172191064Y-133135771D01*
X172191064Y-133135771D02*
X172191064Y-133231009D01*
X170762493Y-133278628D02*
X170762493Y-133754819D01*
X171095826Y-132754819D02*
X170762493Y-133278628D01*
X170762493Y-133278628D02*
X170429160Y-132754819D01*
X170095826Y-133231009D02*
X169762493Y-133231009D01*
X169619636Y-133754819D02*
X170095826Y-133754819D01*
X170095826Y-133754819D02*
X170095826Y-132754819D01*
X170095826Y-132754819D02*
X169619636Y-132754819D01*
X169238683Y-133469104D02*
X168762493Y-133469104D01*
X169333921Y-133754819D02*
X169000588Y-132754819D01*
X169000588Y-132754819D02*
X168667255Y-133754819D01*
X167762493Y-133754819D02*
X168095826Y-133278628D01*
X168333921Y-133754819D02*
X168333921Y-132754819D01*
X168333921Y-132754819D02*
X167952969Y-132754819D01*
X167952969Y-132754819D02*
X167857731Y-132802438D01*
X167857731Y-132802438D02*
X167810112Y-132850057D01*
X167810112Y-132850057D02*
X167762493Y-132945295D01*
X167762493Y-132945295D02*
X167762493Y-133088152D01*
X167762493Y-133088152D02*
X167810112Y-133183390D01*
X167810112Y-133183390D02*
X167857731Y-133231009D01*
X167857731Y-133231009D02*
X167952969Y-133278628D01*
X167952969Y-133278628D02*
X168333921Y-133278628D01*
X166857731Y-133754819D02*
X167333921Y-133754819D01*
X167333921Y-133754819D02*
X167333921Y-132754819D01*
X166524397Y-133754819D02*
X166524397Y-132754819D01*
X166048207Y-133754819D02*
X166048207Y-132754819D01*
X166048207Y-132754819D02*
X165476779Y-133754819D01*
X165476779Y-133754819D02*
X165476779Y-132754819D01*
X164476779Y-132802438D02*
X164572017Y-132754819D01*
X164572017Y-132754819D02*
X164714874Y-132754819D01*
X164714874Y-132754819D02*
X164857731Y-132802438D01*
X164857731Y-132802438D02*
X164952969Y-132897676D01*
X164952969Y-132897676D02*
X165000588Y-132992914D01*
X165000588Y-132992914D02*
X165048207Y-133183390D01*
X165048207Y-133183390D02*
X165048207Y-133326247D01*
X165048207Y-133326247D02*
X165000588Y-133516723D01*
X165000588Y-133516723D02*
X164952969Y-133611961D01*
X164952969Y-133611961D02*
X164857731Y-133707200D01*
X164857731Y-133707200D02*
X164714874Y-133754819D01*
X164714874Y-133754819D02*
X164619636Y-133754819D01*
X164619636Y-133754819D02*
X164476779Y-133707200D01*
X164476779Y-133707200D02*
X164429160Y-133659580D01*
X164429160Y-133659580D02*
X164429160Y-133326247D01*
X164429160Y-133326247D02*
X164619636Y-133326247D01*
X163238683Y-133754819D02*
X163238683Y-132754819D01*
X162667255Y-133754819D02*
X163095826Y-133183390D01*
X162667255Y-132754819D02*
X163238683Y-133326247D01*
X162238683Y-133754819D02*
X162238683Y-132754819D01*
X161905350Y-132754819D02*
X161333922Y-132754819D01*
X161619636Y-133754819D02*
X161619636Y-132754819D01*
X125210838Y-117829105D02*
X124734648Y-117829105D01*
X125306076Y-118114820D02*
X124972743Y-117114820D01*
X124972743Y-117114820D02*
X124639410Y-118114820D01*
X124306076Y-118114820D02*
X124306076Y-117114820D01*
X124306076Y-117114820D02*
X124067981Y-117114820D01*
X124067981Y-117114820D02*
X123925124Y-117162439D01*
X123925124Y-117162439D02*
X123829886Y-117257677D01*
X123829886Y-117257677D02*
X123782267Y-117352915D01*
X123782267Y-117352915D02*
X123734648Y-117543391D01*
X123734648Y-117543391D02*
X123734648Y-117686248D01*
X123734648Y-117686248D02*
X123782267Y-117876724D01*
X123782267Y-117876724D02*
X123829886Y-117971962D01*
X123829886Y-117971962D02*
X123925124Y-118067201D01*
X123925124Y-118067201D02*
X124067981Y-118114820D01*
X124067981Y-118114820D02*
X124306076Y-118114820D01*
X122734648Y-118019581D02*
X122782267Y-118067201D01*
X122782267Y-118067201D02*
X122925124Y-118114820D01*
X122925124Y-118114820D02*
X123020362Y-118114820D01*
X123020362Y-118114820D02*
X123163219Y-118067201D01*
X123163219Y-118067201D02*
X123258457Y-117971962D01*
X123258457Y-117971962D02*
X123306076Y-117876724D01*
X123306076Y-117876724D02*
X123353695Y-117686248D01*
X123353695Y-117686248D02*
X123353695Y-117543391D01*
X123353695Y-117543391D02*
X123306076Y-117352915D01*
X123306076Y-117352915D02*
X123258457Y-117257677D01*
X123258457Y-117257677D02*
X123163219Y-117162439D01*
X123163219Y-117162439D02*
X123020362Y-117114820D01*
X123020362Y-117114820D02*
X122925124Y-117114820D01*
X122925124Y-117114820D02*
X122782267Y-117162439D01*
X122782267Y-117162439D02*
X122734648Y-117210058D01*
X121544171Y-118114820D02*
X121544171Y-117114820D01*
X121115600Y-117210058D02*
X121067981Y-117162439D01*
X121067981Y-117162439D02*
X120972743Y-117114820D01*
X120972743Y-117114820D02*
X120734648Y-117114820D01*
X120734648Y-117114820D02*
X120639410Y-117162439D01*
X120639410Y-117162439D02*
X120591791Y-117210058D01*
X120591791Y-117210058D02*
X120544172Y-117305296D01*
X120544172Y-117305296D02*
X120544172Y-117400534D01*
X120544172Y-117400534D02*
X120591791Y-117543391D01*
X120591791Y-117543391D02*
X121163219Y-118114820D01*
X121163219Y-118114820D02*
X120544172Y-118114820D01*
X119544172Y-118019581D02*
X119591791Y-118067201D01*
X119591791Y-118067201D02*
X119734648Y-118114820D01*
X119734648Y-118114820D02*
X119829886Y-118114820D01*
X119829886Y-118114820D02*
X119972743Y-118067201D01*
X119972743Y-118067201D02*
X120067981Y-117971962D01*
X120067981Y-117971962D02*
X120115600Y-117876724D01*
X120115600Y-117876724D02*
X120163219Y-117686248D01*
X120163219Y-117686248D02*
X120163219Y-117543391D01*
X120163219Y-117543391D02*
X120115600Y-117352915D01*
X120115600Y-117352915D02*
X120067981Y-117257677D01*
X120067981Y-117257677D02*
X119972743Y-117162439D01*
X119972743Y-117162439D02*
X119829886Y-117114820D01*
X119829886Y-117114820D02*
X119734648Y-117114820D01*
X119734648Y-117114820D02*
X119591791Y-117162439D01*
X119591791Y-117162439D02*
X119544172Y-117210058D01*
X119115600Y-118019581D02*
X119067981Y-118067201D01*
X119067981Y-118067201D02*
X119115600Y-118114820D01*
X119115600Y-118114820D02*
X119163219Y-118067201D01*
X119163219Y-118067201D02*
X119115600Y-118019581D01*
X119115600Y-118019581D02*
X119115600Y-118114820D01*
X119115600Y-117495772D02*
X119067981Y-117543391D01*
X119067981Y-117543391D02*
X119115600Y-117591010D01*
X119115600Y-117591010D02*
X119163219Y-117543391D01*
X119163219Y-117543391D02*
X119115600Y-117495772D01*
X119115600Y-117495772D02*
X119115600Y-117591010D01*
X124877505Y-118724820D02*
X124877505Y-119439105D01*
X124877505Y-119439105D02*
X124925124Y-119581962D01*
X124925124Y-119581962D02*
X125020362Y-119677201D01*
X125020362Y-119677201D02*
X125163219Y-119724820D01*
X125163219Y-119724820D02*
X125258457Y-119724820D01*
X124401314Y-119724820D02*
X124401314Y-118724820D01*
X124401314Y-118724820D02*
X124020362Y-118724820D01*
X124020362Y-118724820D02*
X123925124Y-118772439D01*
X123925124Y-118772439D02*
X123877505Y-118820058D01*
X123877505Y-118820058D02*
X123829886Y-118915296D01*
X123829886Y-118915296D02*
X123829886Y-119058153D01*
X123829886Y-119058153D02*
X123877505Y-119153391D01*
X123877505Y-119153391D02*
X123925124Y-119201010D01*
X123925124Y-119201010D02*
X124020362Y-119248629D01*
X124020362Y-119248629D02*
X124401314Y-119248629D01*
X122877505Y-119724820D02*
X123448933Y-119724820D01*
X123163219Y-119724820D02*
X123163219Y-118724820D01*
X123163219Y-118724820D02*
X123258457Y-118867677D01*
X123258457Y-118867677D02*
X123353695Y-118962915D01*
X123353695Y-118962915D02*
X123448933Y-119010534D01*
X121496552Y-118724820D02*
X121306076Y-118724820D01*
X121306076Y-118724820D02*
X121210838Y-118772439D01*
X121210838Y-118772439D02*
X121115600Y-118867677D01*
X121115600Y-118867677D02*
X121067981Y-119058153D01*
X121067981Y-119058153D02*
X121067981Y-119391486D01*
X121067981Y-119391486D02*
X121115600Y-119581962D01*
X121115600Y-119581962D02*
X121210838Y-119677201D01*
X121210838Y-119677201D02*
X121306076Y-119724820D01*
X121306076Y-119724820D02*
X121496552Y-119724820D01*
X121496552Y-119724820D02*
X121591790Y-119677201D01*
X121591790Y-119677201D02*
X121687028Y-119581962D01*
X121687028Y-119581962D02*
X121734647Y-119391486D01*
X121734647Y-119391486D02*
X121734647Y-119058153D01*
X121734647Y-119058153D02*
X121687028Y-118867677D01*
X121687028Y-118867677D02*
X121591790Y-118772439D01*
X121591790Y-118772439D02*
X121496552Y-118724820D01*
X120639409Y-119058153D02*
X120639409Y-120058153D01*
X120639409Y-119105772D02*
X120544171Y-119058153D01*
X120544171Y-119058153D02*
X120353695Y-119058153D01*
X120353695Y-119058153D02*
X120258457Y-119105772D01*
X120258457Y-119105772D02*
X120210838Y-119153391D01*
X120210838Y-119153391D02*
X120163219Y-119248629D01*
X120163219Y-119248629D02*
X120163219Y-119534343D01*
X120163219Y-119534343D02*
X120210838Y-119629581D01*
X120210838Y-119629581D02*
X120258457Y-119677201D01*
X120258457Y-119677201D02*
X120353695Y-119724820D01*
X120353695Y-119724820D02*
X120544171Y-119724820D01*
X120544171Y-119724820D02*
X120639409Y-119677201D01*
X119353695Y-119677201D02*
X119448933Y-119724820D01*
X119448933Y-119724820D02*
X119639409Y-119724820D01*
X119639409Y-119724820D02*
X119734647Y-119677201D01*
X119734647Y-119677201D02*
X119782266Y-119581962D01*
X119782266Y-119581962D02*
X119782266Y-119201010D01*
X119782266Y-119201010D02*
X119734647Y-119105772D01*
X119734647Y-119105772D02*
X119639409Y-119058153D01*
X119639409Y-119058153D02*
X119448933Y-119058153D01*
X119448933Y-119058153D02*
X119353695Y-119105772D01*
X119353695Y-119105772D02*
X119306076Y-119201010D01*
X119306076Y-119201010D02*
X119306076Y-119296248D01*
X119306076Y-119296248D02*
X119782266Y-119391486D01*
X118877504Y-119058153D02*
X118877504Y-119724820D01*
X118877504Y-119153391D02*
X118829885Y-119105772D01*
X118829885Y-119105772D02*
X118734647Y-119058153D01*
X118734647Y-119058153D02*
X118591790Y-119058153D01*
X118591790Y-119058153D02*
X118496552Y-119105772D01*
X118496552Y-119105772D02*
X118448933Y-119201010D01*
X118448933Y-119201010D02*
X118448933Y-119724820D01*
X116925123Y-120105772D02*
X116972742Y-120058153D01*
X116972742Y-120058153D02*
X117067980Y-119915296D01*
X117067980Y-119915296D02*
X117115599Y-119820058D01*
X117115599Y-119820058D02*
X117163218Y-119677201D01*
X117163218Y-119677201D02*
X117210837Y-119439105D01*
X117210837Y-119439105D02*
X117210837Y-119248629D01*
X117210837Y-119248629D02*
X117163218Y-119010534D01*
X117163218Y-119010534D02*
X117115599Y-118867677D01*
X117115599Y-118867677D02*
X117067980Y-118772439D01*
X117067980Y-118772439D02*
X116972742Y-118629581D01*
X116972742Y-118629581D02*
X116925123Y-118581962D01*
X116544170Y-119724820D02*
X116544170Y-118724820D01*
X116544170Y-118724820D02*
X116306075Y-118724820D01*
X116306075Y-118724820D02*
X116163218Y-118772439D01*
X116163218Y-118772439D02*
X116067980Y-118867677D01*
X116067980Y-118867677D02*
X116020361Y-118962915D01*
X116020361Y-118962915D02*
X115972742Y-119153391D01*
X115972742Y-119153391D02*
X115972742Y-119296248D01*
X115972742Y-119296248D02*
X116020361Y-119486724D01*
X116020361Y-119486724D02*
X116067980Y-119581962D01*
X116067980Y-119581962D02*
X116163218Y-119677201D01*
X116163218Y-119677201D02*
X116306075Y-119724820D01*
X116306075Y-119724820D02*
X116544170Y-119724820D01*
X115163218Y-119677201D02*
X115258456Y-119724820D01*
X115258456Y-119724820D02*
X115448932Y-119724820D01*
X115448932Y-119724820D02*
X115544170Y-119677201D01*
X115544170Y-119677201D02*
X115591789Y-119581962D01*
X115591789Y-119581962D02*
X115591789Y-119201010D01*
X115591789Y-119201010D02*
X115544170Y-119105772D01*
X115544170Y-119105772D02*
X115448932Y-119058153D01*
X115448932Y-119058153D02*
X115258456Y-119058153D01*
X115258456Y-119058153D02*
X115163218Y-119105772D01*
X115163218Y-119105772D02*
X115115599Y-119201010D01*
X115115599Y-119201010D02*
X115115599Y-119296248D01*
X115115599Y-119296248D02*
X115591789Y-119391486D01*
X114829884Y-119058153D02*
X114448932Y-119058153D01*
X114687027Y-119724820D02*
X114687027Y-118867677D01*
X114687027Y-118867677D02*
X114639408Y-118772439D01*
X114639408Y-118772439D02*
X114544170Y-118724820D01*
X114544170Y-118724820D02*
X114448932Y-118724820D01*
X113734646Y-119677201D02*
X113829884Y-119724820D01*
X113829884Y-119724820D02*
X114020360Y-119724820D01*
X114020360Y-119724820D02*
X114115598Y-119677201D01*
X114115598Y-119677201D02*
X114163217Y-119581962D01*
X114163217Y-119581962D02*
X114163217Y-119201010D01*
X114163217Y-119201010D02*
X114115598Y-119105772D01*
X114115598Y-119105772D02*
X114020360Y-119058153D01*
X114020360Y-119058153D02*
X113829884Y-119058153D01*
X113829884Y-119058153D02*
X113734646Y-119105772D01*
X113734646Y-119105772D02*
X113687027Y-119201010D01*
X113687027Y-119201010D02*
X113687027Y-119296248D01*
X113687027Y-119296248D02*
X114163217Y-119391486D01*
X112829884Y-119058153D02*
X112829884Y-119724820D01*
X113258455Y-119058153D02*
X113258455Y-119581962D01*
X113258455Y-119581962D02*
X113210836Y-119677201D01*
X113210836Y-119677201D02*
X113115598Y-119724820D01*
X113115598Y-119724820D02*
X112972741Y-119724820D01*
X112972741Y-119724820D02*
X112877503Y-119677201D01*
X112877503Y-119677201D02*
X112829884Y-119629581D01*
X112210836Y-119724820D02*
X112306074Y-119677201D01*
X112306074Y-119677201D02*
X112353693Y-119581962D01*
X112353693Y-119581962D02*
X112353693Y-118724820D01*
X111972740Y-119058153D02*
X111591788Y-119058153D01*
X111829883Y-118724820D02*
X111829883Y-119581962D01*
X111829883Y-119581962D02*
X111782264Y-119677201D01*
X111782264Y-119677201D02*
X111687026Y-119724820D01*
X111687026Y-119724820D02*
X111591788Y-119724820D01*
X111353692Y-120105772D02*
X111306073Y-120058153D01*
X111306073Y-120058153D02*
X111210835Y-119915296D01*
X111210835Y-119915296D02*
X111163216Y-119820058D01*
X111163216Y-119820058D02*
X111115597Y-119677201D01*
X111115597Y-119677201D02*
X111067978Y-119439105D01*
X111067978Y-119439105D02*
X111067978Y-119248629D01*
X111067978Y-119248629D02*
X111115597Y-119010534D01*
X111115597Y-119010534D02*
X111163216Y-118867677D01*
X111163216Y-118867677D02*
X111210835Y-118772439D01*
X111210835Y-118772439D02*
X111306073Y-118629581D01*
X111306073Y-118629581D02*
X111353692Y-118581962D01*
X110591787Y-119629581D02*
X110544168Y-119677201D01*
X110544168Y-119677201D02*
X110591787Y-119724820D01*
X110591787Y-119724820D02*
X110639406Y-119677201D01*
X110639406Y-119677201D02*
X110591787Y-119629581D01*
X110591787Y-119629581D02*
X110591787Y-119724820D01*
X110591787Y-119105772D02*
X110544168Y-119153391D01*
X110544168Y-119153391D02*
X110591787Y-119201010D01*
X110591787Y-119201010D02*
X110639406Y-119153391D01*
X110639406Y-119153391D02*
X110591787Y-119105772D01*
X110591787Y-119105772D02*
X110591787Y-119201010D01*
X109163216Y-118724820D02*
X109067978Y-118724820D01*
X109067978Y-118724820D02*
X108972740Y-118772439D01*
X108972740Y-118772439D02*
X108925121Y-118820058D01*
X108925121Y-118820058D02*
X108877502Y-118915296D01*
X108877502Y-118915296D02*
X108829883Y-119105772D01*
X108829883Y-119105772D02*
X108829883Y-119343867D01*
X108829883Y-119343867D02*
X108877502Y-119534343D01*
X108877502Y-119534343D02*
X108925121Y-119629581D01*
X108925121Y-119629581D02*
X108972740Y-119677201D01*
X108972740Y-119677201D02*
X109067978Y-119724820D01*
X109067978Y-119724820D02*
X109163216Y-119724820D01*
X109163216Y-119724820D02*
X109258454Y-119677201D01*
X109258454Y-119677201D02*
X109306073Y-119629581D01*
X109306073Y-119629581D02*
X109353692Y-119534343D01*
X109353692Y-119534343D02*
X109401311Y-119343867D01*
X109401311Y-119343867D02*
X109401311Y-119105772D01*
X109401311Y-119105772D02*
X109353692Y-118915296D01*
X109353692Y-118915296D02*
X109306073Y-118820058D01*
X109306073Y-118820058D02*
X109258454Y-118772439D01*
X109258454Y-118772439D02*
X109163216Y-118724820D01*
X108496549Y-119724820D02*
X107972740Y-119058153D01*
X108496549Y-119058153D02*
X107972740Y-119724820D01*
X107163216Y-119058153D02*
X107163216Y-119724820D01*
X107401311Y-118677201D02*
X107639406Y-119391486D01*
X107639406Y-119391486D02*
X107020359Y-119391486D01*
X106496549Y-119153391D02*
X106591787Y-119105772D01*
X106591787Y-119105772D02*
X106639406Y-119058153D01*
X106639406Y-119058153D02*
X106687025Y-118962915D01*
X106687025Y-118962915D02*
X106687025Y-118915296D01*
X106687025Y-118915296D02*
X106639406Y-118820058D01*
X106639406Y-118820058D02*
X106591787Y-118772439D01*
X106591787Y-118772439D02*
X106496549Y-118724820D01*
X106496549Y-118724820D02*
X106306073Y-118724820D01*
X106306073Y-118724820D02*
X106210835Y-118772439D01*
X106210835Y-118772439D02*
X106163216Y-118820058D01*
X106163216Y-118820058D02*
X106115597Y-118915296D01*
X106115597Y-118915296D02*
X106115597Y-118962915D01*
X106115597Y-118962915D02*
X106163216Y-119058153D01*
X106163216Y-119058153D02*
X106210835Y-119105772D01*
X106210835Y-119105772D02*
X106306073Y-119153391D01*
X106306073Y-119153391D02*
X106496549Y-119153391D01*
X106496549Y-119153391D02*
X106591787Y-119201010D01*
X106591787Y-119201010D02*
X106639406Y-119248629D01*
X106639406Y-119248629D02*
X106687025Y-119343867D01*
X106687025Y-119343867D02*
X106687025Y-119534343D01*
X106687025Y-119534343D02*
X106639406Y-119629581D01*
X106639406Y-119629581D02*
X106591787Y-119677201D01*
X106591787Y-119677201D02*
X106496549Y-119724820D01*
X106496549Y-119724820D02*
X106306073Y-119724820D01*
X106306073Y-119724820D02*
X106210835Y-119677201D01*
X106210835Y-119677201D02*
X106163216Y-119629581D01*
X106163216Y-119629581D02*
X106115597Y-119534343D01*
X106115597Y-119534343D02*
X106115597Y-119343867D01*
X106115597Y-119343867D02*
X106163216Y-119248629D01*
X106163216Y-119248629D02*
X106210835Y-119201010D01*
X106210835Y-119201010D02*
X106306073Y-119153391D01*
X124877505Y-120334820D02*
X124877505Y-121049105D01*
X124877505Y-121049105D02*
X124925124Y-121191962D01*
X124925124Y-121191962D02*
X125020362Y-121287201D01*
X125020362Y-121287201D02*
X125163219Y-121334820D01*
X125163219Y-121334820D02*
X125258457Y-121334820D01*
X124401314Y-121334820D02*
X124401314Y-120334820D01*
X124401314Y-120334820D02*
X124020362Y-120334820D01*
X124020362Y-120334820D02*
X123925124Y-120382439D01*
X123925124Y-120382439D02*
X123877505Y-120430058D01*
X123877505Y-120430058D02*
X123829886Y-120525296D01*
X123829886Y-120525296D02*
X123829886Y-120668153D01*
X123829886Y-120668153D02*
X123877505Y-120763391D01*
X123877505Y-120763391D02*
X123925124Y-120811010D01*
X123925124Y-120811010D02*
X124020362Y-120858629D01*
X124020362Y-120858629D02*
X124401314Y-120858629D01*
X122877505Y-121334820D02*
X123448933Y-121334820D01*
X123163219Y-121334820D02*
X123163219Y-120334820D01*
X123163219Y-120334820D02*
X123258457Y-120477677D01*
X123258457Y-120477677D02*
X123353695Y-120572915D01*
X123353695Y-120572915D02*
X123448933Y-120620534D01*
X121734647Y-121287201D02*
X121591790Y-121334820D01*
X121591790Y-121334820D02*
X121353695Y-121334820D01*
X121353695Y-121334820D02*
X121258457Y-121287201D01*
X121258457Y-121287201D02*
X121210838Y-121239581D01*
X121210838Y-121239581D02*
X121163219Y-121144343D01*
X121163219Y-121144343D02*
X121163219Y-121049105D01*
X121163219Y-121049105D02*
X121210838Y-120953867D01*
X121210838Y-120953867D02*
X121258457Y-120906248D01*
X121258457Y-120906248D02*
X121353695Y-120858629D01*
X121353695Y-120858629D02*
X121544171Y-120811010D01*
X121544171Y-120811010D02*
X121639409Y-120763391D01*
X121639409Y-120763391D02*
X121687028Y-120715772D01*
X121687028Y-120715772D02*
X121734647Y-120620534D01*
X121734647Y-120620534D02*
X121734647Y-120525296D01*
X121734647Y-120525296D02*
X121687028Y-120430058D01*
X121687028Y-120430058D02*
X121639409Y-120382439D01*
X121639409Y-120382439D02*
X121544171Y-120334820D01*
X121544171Y-120334820D02*
X121306076Y-120334820D01*
X121306076Y-120334820D02*
X121163219Y-120382439D01*
X120591790Y-121334820D02*
X120687028Y-121287201D01*
X120687028Y-121287201D02*
X120734647Y-121239581D01*
X120734647Y-121239581D02*
X120782266Y-121144343D01*
X120782266Y-121144343D02*
X120782266Y-120858629D01*
X120782266Y-120858629D02*
X120734647Y-120763391D01*
X120734647Y-120763391D02*
X120687028Y-120715772D01*
X120687028Y-120715772D02*
X120591790Y-120668153D01*
X120591790Y-120668153D02*
X120448933Y-120668153D01*
X120448933Y-120668153D02*
X120353695Y-120715772D01*
X120353695Y-120715772D02*
X120306076Y-120763391D01*
X120306076Y-120763391D02*
X120258457Y-120858629D01*
X120258457Y-120858629D02*
X120258457Y-121144343D01*
X120258457Y-121144343D02*
X120306076Y-121239581D01*
X120306076Y-121239581D02*
X120353695Y-121287201D01*
X120353695Y-121287201D02*
X120448933Y-121334820D01*
X120448933Y-121334820D02*
X120591790Y-121334820D01*
X119687028Y-121334820D02*
X119782266Y-121287201D01*
X119782266Y-121287201D02*
X119829885Y-121191962D01*
X119829885Y-121191962D02*
X119829885Y-120334820D01*
X118877504Y-121334820D02*
X118877504Y-120334820D01*
X118877504Y-121287201D02*
X118972742Y-121334820D01*
X118972742Y-121334820D02*
X119163218Y-121334820D01*
X119163218Y-121334820D02*
X119258456Y-121287201D01*
X119258456Y-121287201D02*
X119306075Y-121239581D01*
X119306075Y-121239581D02*
X119353694Y-121144343D01*
X119353694Y-121144343D02*
X119353694Y-120858629D01*
X119353694Y-120858629D02*
X119306075Y-120763391D01*
X119306075Y-120763391D02*
X119258456Y-120715772D01*
X119258456Y-120715772D02*
X119163218Y-120668153D01*
X119163218Y-120668153D02*
X118972742Y-120668153D01*
X118972742Y-120668153D02*
X118877504Y-120715772D01*
X118020361Y-121287201D02*
X118115599Y-121334820D01*
X118115599Y-121334820D02*
X118306075Y-121334820D01*
X118306075Y-121334820D02*
X118401313Y-121287201D01*
X118401313Y-121287201D02*
X118448932Y-121191962D01*
X118448932Y-121191962D02*
X118448932Y-120811010D01*
X118448932Y-120811010D02*
X118401313Y-120715772D01*
X118401313Y-120715772D02*
X118306075Y-120668153D01*
X118306075Y-120668153D02*
X118115599Y-120668153D01*
X118115599Y-120668153D02*
X118020361Y-120715772D01*
X118020361Y-120715772D02*
X117972742Y-120811010D01*
X117972742Y-120811010D02*
X117972742Y-120906248D01*
X117972742Y-120906248D02*
X118448932Y-121001486D01*
X117544170Y-121334820D02*
X117544170Y-120668153D01*
X117544170Y-120858629D02*
X117496551Y-120763391D01*
X117496551Y-120763391D02*
X117448932Y-120715772D01*
X117448932Y-120715772D02*
X117353694Y-120668153D01*
X117353694Y-120668153D02*
X117258456Y-120668153D01*
X115877503Y-120334820D02*
X115877503Y-121049105D01*
X115877503Y-121049105D02*
X115925122Y-121191962D01*
X115925122Y-121191962D02*
X116020360Y-121287201D01*
X116020360Y-121287201D02*
X116163217Y-121334820D01*
X116163217Y-121334820D02*
X116258455Y-121334820D01*
X114972741Y-120668153D02*
X114972741Y-121334820D01*
X115401312Y-120668153D02*
X115401312Y-121191962D01*
X115401312Y-121191962D02*
X115353693Y-121287201D01*
X115353693Y-121287201D02*
X115258455Y-121334820D01*
X115258455Y-121334820D02*
X115115598Y-121334820D01*
X115115598Y-121334820D02*
X115020360Y-121287201D01*
X115020360Y-121287201D02*
X114972741Y-121239581D01*
X114496550Y-121334820D02*
X114496550Y-120668153D01*
X114496550Y-120763391D02*
X114448931Y-120715772D01*
X114448931Y-120715772D02*
X114353693Y-120668153D01*
X114353693Y-120668153D02*
X114210836Y-120668153D01*
X114210836Y-120668153D02*
X114115598Y-120715772D01*
X114115598Y-120715772D02*
X114067979Y-120811010D01*
X114067979Y-120811010D02*
X114067979Y-121334820D01*
X114067979Y-120811010D02*
X114020360Y-120715772D01*
X114020360Y-120715772D02*
X113925122Y-120668153D01*
X113925122Y-120668153D02*
X113782265Y-120668153D01*
X113782265Y-120668153D02*
X113687026Y-120715772D01*
X113687026Y-120715772D02*
X113639407Y-120811010D01*
X113639407Y-120811010D02*
X113639407Y-121334820D01*
X113163217Y-120668153D02*
X113163217Y-121668153D01*
X113163217Y-120715772D02*
X113067979Y-120668153D01*
X113067979Y-120668153D02*
X112877503Y-120668153D01*
X112877503Y-120668153D02*
X112782265Y-120715772D01*
X112782265Y-120715772D02*
X112734646Y-120763391D01*
X112734646Y-120763391D02*
X112687027Y-120858629D01*
X112687027Y-120858629D02*
X112687027Y-121144343D01*
X112687027Y-121144343D02*
X112734646Y-121239581D01*
X112734646Y-121239581D02*
X112782265Y-121287201D01*
X112782265Y-121287201D02*
X112877503Y-121334820D01*
X112877503Y-121334820D02*
X113067979Y-121334820D01*
X113067979Y-121334820D02*
X113163217Y-121287201D01*
X111877503Y-121287201D02*
X111972741Y-121334820D01*
X111972741Y-121334820D02*
X112163217Y-121334820D01*
X112163217Y-121334820D02*
X112258455Y-121287201D01*
X112258455Y-121287201D02*
X112306074Y-121191962D01*
X112306074Y-121191962D02*
X112306074Y-120811010D01*
X112306074Y-120811010D02*
X112258455Y-120715772D01*
X112258455Y-120715772D02*
X112163217Y-120668153D01*
X112163217Y-120668153D02*
X111972741Y-120668153D01*
X111972741Y-120668153D02*
X111877503Y-120715772D01*
X111877503Y-120715772D02*
X111829884Y-120811010D01*
X111829884Y-120811010D02*
X111829884Y-120906248D01*
X111829884Y-120906248D02*
X112306074Y-121001486D01*
X110972741Y-121334820D02*
X110972741Y-120334820D01*
X110972741Y-121287201D02*
X111067979Y-121334820D01*
X111067979Y-121334820D02*
X111258455Y-121334820D01*
X111258455Y-121334820D02*
X111353693Y-121287201D01*
X111353693Y-121287201D02*
X111401312Y-121239581D01*
X111401312Y-121239581D02*
X111448931Y-121144343D01*
X111448931Y-121144343D02*
X111448931Y-120858629D01*
X111448931Y-120858629D02*
X111401312Y-120763391D01*
X111401312Y-120763391D02*
X111353693Y-120715772D01*
X111353693Y-120715772D02*
X111258455Y-120668153D01*
X111258455Y-120668153D02*
X111067979Y-120668153D01*
X111067979Y-120668153D02*
X110972741Y-120715772D01*
X110496550Y-121239581D02*
X110448931Y-121287201D01*
X110448931Y-121287201D02*
X110496550Y-121334820D01*
X110496550Y-121334820D02*
X110544169Y-121287201D01*
X110544169Y-121287201D02*
X110496550Y-121239581D01*
X110496550Y-121239581D02*
X110496550Y-121334820D01*
X110496550Y-120715772D02*
X110448931Y-120763391D01*
X110448931Y-120763391D02*
X110496550Y-120811010D01*
X110496550Y-120811010D02*
X110544169Y-120763391D01*
X110544169Y-120763391D02*
X110496550Y-120715772D01*
X110496550Y-120715772D02*
X110496550Y-120811010D01*
X109067979Y-120334820D02*
X108972741Y-120334820D01*
X108972741Y-120334820D02*
X108877503Y-120382439D01*
X108877503Y-120382439D02*
X108829884Y-120430058D01*
X108829884Y-120430058D02*
X108782265Y-120525296D01*
X108782265Y-120525296D02*
X108734646Y-120715772D01*
X108734646Y-120715772D02*
X108734646Y-120953867D01*
X108734646Y-120953867D02*
X108782265Y-121144343D01*
X108782265Y-121144343D02*
X108829884Y-121239581D01*
X108829884Y-121239581D02*
X108877503Y-121287201D01*
X108877503Y-121287201D02*
X108972741Y-121334820D01*
X108972741Y-121334820D02*
X109067979Y-121334820D01*
X109067979Y-121334820D02*
X109163217Y-121287201D01*
X109163217Y-121287201D02*
X109210836Y-121239581D01*
X109210836Y-121239581D02*
X109258455Y-121144343D01*
X109258455Y-121144343D02*
X109306074Y-120953867D01*
X109306074Y-120953867D02*
X109306074Y-120715772D01*
X109306074Y-120715772D02*
X109258455Y-120525296D01*
X109258455Y-120525296D02*
X109210836Y-120430058D01*
X109210836Y-120430058D02*
X109163217Y-120382439D01*
X109163217Y-120382439D02*
X109067979Y-120334820D01*
X108401312Y-121334820D02*
X107877503Y-120668153D01*
X108401312Y-120668153D02*
X107877503Y-121334820D01*
X107067979Y-120668153D02*
X107067979Y-121334820D01*
X107306074Y-120287201D02*
X107544169Y-121001486D01*
X107544169Y-121001486D02*
X106925122Y-121001486D01*
X106496550Y-121334820D02*
X106306074Y-121334820D01*
X106306074Y-121334820D02*
X106210836Y-121287201D01*
X106210836Y-121287201D02*
X106163217Y-121239581D01*
X106163217Y-121239581D02*
X106067979Y-121096724D01*
X106067979Y-121096724D02*
X106020360Y-120906248D01*
X106020360Y-120906248D02*
X106020360Y-120525296D01*
X106020360Y-120525296D02*
X106067979Y-120430058D01*
X106067979Y-120430058D02*
X106115598Y-120382439D01*
X106115598Y-120382439D02*
X106210836Y-120334820D01*
X106210836Y-120334820D02*
X106401312Y-120334820D01*
X106401312Y-120334820D02*
X106496550Y-120382439D01*
X106496550Y-120382439D02*
X106544169Y-120430058D01*
X106544169Y-120430058D02*
X106591788Y-120525296D01*
X106591788Y-120525296D02*
X106591788Y-120763391D01*
X106591788Y-120763391D02*
X106544169Y-120858629D01*
X106544169Y-120858629D02*
X106496550Y-120906248D01*
X106496550Y-120906248D02*
X106401312Y-120953867D01*
X106401312Y-120953867D02*
X106210836Y-120953867D01*
X106210836Y-120953867D02*
X106115598Y-120906248D01*
X106115598Y-120906248D02*
X106067979Y-120858629D01*
X106067979Y-120858629D02*
X106020360Y-120763391D01*
D12*
X118687141Y-94913719D02*
X118739522Y-94966100D01*
X118739522Y-94966100D02*
X118896665Y-95018480D01*
X118896665Y-95018480D02*
X119001427Y-95018480D01*
X119001427Y-95018480D02*
X119158570Y-94966100D01*
X119158570Y-94966100D02*
X119263332Y-94861338D01*
X119263332Y-94861338D02*
X119315713Y-94756576D01*
X119315713Y-94756576D02*
X119368094Y-94547052D01*
X119368094Y-94547052D02*
X119368094Y-94389909D01*
X119368094Y-94389909D02*
X119315713Y-94180385D01*
X119315713Y-94180385D02*
X119263332Y-94075623D01*
X119263332Y-94075623D02*
X119158570Y-93970861D01*
X119158570Y-93970861D02*
X119001427Y-93918480D01*
X119001427Y-93918480D02*
X118896665Y-93918480D01*
X118896665Y-93918480D02*
X118739522Y-93970861D01*
X118739522Y-93970861D02*
X118687141Y-94023242D01*
X118215713Y-95018480D02*
X118215713Y-93918480D01*
X118215713Y-94442290D02*
X117587141Y-94442290D01*
X117587141Y-95018480D02*
X117587141Y-93918480D01*
X117063332Y-94442290D02*
X116696665Y-94442290D01*
X116539522Y-95018480D02*
X117063332Y-95018480D01*
X117063332Y-95018480D02*
X117063332Y-93918480D01*
X117063332Y-93918480D02*
X116539522Y-93918480D01*
X116120475Y-94704195D02*
X115596665Y-94704195D01*
X116225237Y-95018480D02*
X115858570Y-93918480D01*
X115858570Y-93918480D02*
X115491903Y-95018480D01*
X115282380Y-93918480D02*
X114653808Y-93918480D01*
X114968094Y-95018480D02*
X114968094Y-93918480D01*
X113501428Y-94966100D02*
X113344285Y-95018480D01*
X113344285Y-95018480D02*
X113082380Y-95018480D01*
X113082380Y-95018480D02*
X112977618Y-94966100D01*
X112977618Y-94966100D02*
X112925237Y-94913719D01*
X112925237Y-94913719D02*
X112872856Y-94808957D01*
X112872856Y-94808957D02*
X112872856Y-94704195D01*
X112872856Y-94704195D02*
X112925237Y-94599433D01*
X112925237Y-94599433D02*
X112977618Y-94547052D01*
X112977618Y-94547052D02*
X113082380Y-94494671D01*
X113082380Y-94494671D02*
X113291904Y-94442290D01*
X113291904Y-94442290D02*
X113396666Y-94389909D01*
X113396666Y-94389909D02*
X113449047Y-94337528D01*
X113449047Y-94337528D02*
X113501428Y-94232766D01*
X113501428Y-94232766D02*
X113501428Y-94128004D01*
X113501428Y-94128004D02*
X113449047Y-94023242D01*
X113449047Y-94023242D02*
X113396666Y-93970861D01*
X113396666Y-93970861D02*
X113291904Y-93918480D01*
X113291904Y-93918480D02*
X113029999Y-93918480D01*
X113029999Y-93918480D02*
X112872856Y-93970861D01*
X112401428Y-95018480D02*
X112401428Y-93918480D01*
X112401428Y-94442290D02*
X111772856Y-94442290D01*
X111772856Y-95018480D02*
X111772856Y-93918480D01*
X111249047Y-94442290D02*
X110882380Y-94442290D01*
X110725237Y-95018480D02*
X111249047Y-95018480D01*
X111249047Y-95018480D02*
X111249047Y-93918480D01*
X111249047Y-93918480D02*
X110725237Y-93918480D01*
X110253809Y-94442290D02*
X109887142Y-94442290D01*
X109729999Y-95018480D02*
X110253809Y-95018480D01*
X110253809Y-95018480D02*
X110253809Y-93918480D01*
X110253809Y-93918480D02*
X109729999Y-93918480D01*
X109415714Y-93918480D02*
X108787142Y-93918480D01*
X109101428Y-95018480D02*
X109101428Y-93918480D01*
D11*
X170935483Y-85139126D02*
X170598765Y-84802408D01*
X170800796Y-85408500D02*
X171272200Y-84465691D01*
X171272200Y-84465691D02*
X170329391Y-84937095D01*
X170093689Y-84701393D02*
X170800795Y-83994286D01*
X170800795Y-83994286D02*
X170632437Y-83825927D01*
X170632437Y-83825927D02*
X170497750Y-83758584D01*
X170497750Y-83758584D02*
X170363063Y-83758584D01*
X170363063Y-83758584D02*
X170262047Y-83792256D01*
X170262047Y-83792256D02*
X170093689Y-83893271D01*
X170093689Y-83893271D02*
X169992673Y-83994286D01*
X169992673Y-83994286D02*
X169891658Y-84162645D01*
X169891658Y-84162645D02*
X169857986Y-84263660D01*
X169857986Y-84263660D02*
X169857986Y-84398347D01*
X169857986Y-84398347D02*
X169925330Y-84533034D01*
X169925330Y-84533034D02*
X170093689Y-84701393D01*
X169049864Y-83522882D02*
X169049864Y-83590225D01*
X169049864Y-83590225D02*
X169117208Y-83724912D01*
X169117208Y-83724912D02*
X169184551Y-83792256D01*
X169184551Y-83792256D02*
X169319238Y-83859599D01*
X169319238Y-83859599D02*
X169453925Y-83859599D01*
X169453925Y-83859599D02*
X169554941Y-83825927D01*
X169554941Y-83825927D02*
X169723299Y-83724912D01*
X169723299Y-83724912D02*
X169824315Y-83623897D01*
X169824315Y-83623897D02*
X169925330Y-83455538D01*
X169925330Y-83455538D02*
X169959002Y-83354523D01*
X169959002Y-83354523D02*
X169959002Y-83219836D01*
X169959002Y-83219836D02*
X169891658Y-83085149D01*
X169891658Y-83085149D02*
X169824315Y-83017805D01*
X169824315Y-83017805D02*
X169689628Y-82950462D01*
X169689628Y-82950462D02*
X169622284Y-82950462D01*
X168746819Y-83219836D02*
X168679475Y-83219836D01*
X168679475Y-83219836D02*
X168679475Y-83287179D01*
X168679475Y-83287179D02*
X168746819Y-83287179D01*
X168746819Y-83287179D02*
X168746819Y-83219836D01*
X168746819Y-83219836D02*
X168679475Y-83287179D01*
X169117208Y-82849447D02*
X169049864Y-82849447D01*
X169049864Y-82849447D02*
X169049864Y-82916790D01*
X169049864Y-82916790D02*
X169117208Y-82916790D01*
X169117208Y-82916790D02*
X169117208Y-82849447D01*
X169117208Y-82849447D02*
X169049864Y-82916790D01*
X168039712Y-82243355D02*
X167702994Y-81906638D01*
X167905025Y-82512729D02*
X168376429Y-81569920D01*
X168376429Y-81569920D02*
X167433620Y-82041325D01*
X167197918Y-81805622D02*
X167905025Y-81098516D01*
X167905025Y-81098516D02*
X167736666Y-80930157D01*
X167736666Y-80930157D02*
X167601979Y-80862813D01*
X167601979Y-80862813D02*
X167467292Y-80862813D01*
X167467292Y-80862813D02*
X167366277Y-80896485D01*
X167366277Y-80896485D02*
X167197918Y-80997500D01*
X167197918Y-80997500D02*
X167096903Y-81098516D01*
X167096903Y-81098516D02*
X166995888Y-81266874D01*
X166995888Y-81266874D02*
X166962216Y-81367890D01*
X166962216Y-81367890D02*
X166962216Y-81502577D01*
X166962216Y-81502577D02*
X167029559Y-81637264D01*
X167029559Y-81637264D02*
X167197918Y-81805622D01*
X166558155Y-81098516D02*
X166423468Y-81031172D01*
X166423468Y-81031172D02*
X166255109Y-80862813D01*
X166255109Y-80862813D02*
X166221437Y-80761798D01*
X166221437Y-80761798D02*
X166221437Y-80694455D01*
X166221437Y-80694455D02*
X166255109Y-80593439D01*
X166255109Y-80593439D02*
X166322453Y-80526096D01*
X166322453Y-80526096D02*
X166423468Y-80492424D01*
X166423468Y-80492424D02*
X166490811Y-80492424D01*
X166490811Y-80492424D02*
X166591827Y-80526096D01*
X166591827Y-80526096D02*
X166760185Y-80627111D01*
X166760185Y-80627111D02*
X166861201Y-80660783D01*
X166861201Y-80660783D02*
X166928544Y-80660783D01*
X166928544Y-80660783D02*
X167029559Y-80627111D01*
X167029559Y-80627111D02*
X167096903Y-80559768D01*
X167096903Y-80559768D02*
X167130575Y-80458752D01*
X167130575Y-80458752D02*
X167130575Y-80391409D01*
X167130575Y-80391409D02*
X167096903Y-80290394D01*
X167096903Y-80290394D02*
X166928544Y-80122035D01*
X166928544Y-80122035D02*
X166793857Y-80054691D01*
X165446987Y-80054691D02*
X165851048Y-80458752D01*
X165649017Y-80256722D02*
X166356124Y-79549615D01*
X166356124Y-79549615D02*
X166322452Y-79717974D01*
X166322452Y-79717974D02*
X166322452Y-79852661D01*
X166322452Y-79852661D02*
X166356124Y-79953676D01*
X165716361Y-78909852D02*
X165649017Y-78842508D01*
X165649017Y-78842508D02*
X165548002Y-78808836D01*
X165548002Y-78808836D02*
X165480659Y-78808836D01*
X165480659Y-78808836D02*
X165379643Y-78842508D01*
X165379643Y-78842508D02*
X165211285Y-78943523D01*
X165211285Y-78943523D02*
X165042926Y-79111882D01*
X165042926Y-79111882D02*
X164941911Y-79280241D01*
X164941911Y-79280241D02*
X164908239Y-79381256D01*
X164908239Y-79381256D02*
X164908239Y-79448600D01*
X164908239Y-79448600D02*
X164941911Y-79549615D01*
X164941911Y-79549615D02*
X165009254Y-79616958D01*
X165009254Y-79616958D02*
X165110269Y-79650630D01*
X165110269Y-79650630D02*
X165177613Y-79650630D01*
X165177613Y-79650630D02*
X165278628Y-79616958D01*
X165278628Y-79616958D02*
X165446987Y-79515943D01*
X165446987Y-79515943D02*
X165615346Y-79347584D01*
X165615346Y-79347584D02*
X165716361Y-79179226D01*
X165716361Y-79179226D02*
X165750033Y-79078210D01*
X165750033Y-79078210D02*
X165750033Y-79010867D01*
X165750033Y-79010867D02*
X165716361Y-78909852D01*
X164100117Y-78707821D02*
X164504178Y-79111882D01*
X164302147Y-78909852D02*
X165009254Y-78202745D01*
X165009254Y-78202745D02*
X164975582Y-78371104D01*
X164975582Y-78371104D02*
X164975582Y-78505791D01*
X164975582Y-78505791D02*
X165009254Y-78606806D01*
X164167460Y-77360951D02*
X164504178Y-77697669D01*
X164504178Y-77697669D02*
X164201132Y-78068058D01*
X164201132Y-78068058D02*
X164201132Y-78000714D01*
X164201132Y-78000714D02*
X164167460Y-77899699D01*
X164167460Y-77899699D02*
X163999102Y-77731340D01*
X163999102Y-77731340D02*
X163898086Y-77697669D01*
X163898086Y-77697669D02*
X163830743Y-77697669D01*
X163830743Y-77697669D02*
X163729728Y-77731340D01*
X163729728Y-77731340D02*
X163561369Y-77899699D01*
X163561369Y-77899699D02*
X163527697Y-78000714D01*
X163527697Y-78000714D02*
X163527697Y-78068058D01*
X163527697Y-78068058D02*
X163561369Y-78169073D01*
X163561369Y-78169073D02*
X163729728Y-78337432D01*
X163729728Y-78337432D02*
X163830743Y-78371104D01*
X163830743Y-78371104D02*
X163898086Y-78371104D01*
X113661792Y-106324820D02*
X113995125Y-105848629D01*
X114233220Y-106324820D02*
X114233220Y-105324820D01*
X114233220Y-105324820D02*
X113852268Y-105324820D01*
X113852268Y-105324820D02*
X113757030Y-105372439D01*
X113757030Y-105372439D02*
X113709411Y-105420058D01*
X113709411Y-105420058D02*
X113661792Y-105515296D01*
X113661792Y-105515296D02*
X113661792Y-105658153D01*
X113661792Y-105658153D02*
X113709411Y-105753391D01*
X113709411Y-105753391D02*
X113757030Y-105801010D01*
X113757030Y-105801010D02*
X113852268Y-105848629D01*
X113852268Y-105848629D02*
X114233220Y-105848629D01*
X113280839Y-105420058D02*
X113233220Y-105372439D01*
X113233220Y-105372439D02*
X113137982Y-105324820D01*
X113137982Y-105324820D02*
X112899887Y-105324820D01*
X112899887Y-105324820D02*
X112804649Y-105372439D01*
X112804649Y-105372439D02*
X112757030Y-105420058D01*
X112757030Y-105420058D02*
X112709411Y-105515296D01*
X112709411Y-105515296D02*
X112709411Y-105610534D01*
X112709411Y-105610534D02*
X112757030Y-105753391D01*
X112757030Y-105753391D02*
X113328458Y-106324820D01*
X113328458Y-106324820D02*
X112709411Y-106324820D01*
X111518934Y-105801010D02*
X110757030Y-105801010D01*
X110757030Y-106086724D02*
X111518934Y-106086724D01*
X108995125Y-106324820D02*
X109566553Y-106324820D01*
X109280839Y-106324820D02*
X109280839Y-105324820D01*
X109280839Y-105324820D02*
X109376077Y-105467677D01*
X109376077Y-105467677D02*
X109471315Y-105562915D01*
X109471315Y-105562915D02*
X109566553Y-105610534D01*
X108566553Y-106324820D02*
X108566553Y-105324820D01*
X108566553Y-105324820D02*
X108233220Y-106039105D01*
X108233220Y-106039105D02*
X107899887Y-105324820D01*
X107899887Y-105324820D02*
X107899887Y-106324820D01*
X107423696Y-105943867D02*
X106661792Y-105943867D01*
X105995125Y-105324820D02*
X105804649Y-105324820D01*
X105804649Y-105324820D02*
X105709411Y-105372439D01*
X105709411Y-105372439D02*
X105614173Y-105467677D01*
X105614173Y-105467677D02*
X105566554Y-105658153D01*
X105566554Y-105658153D02*
X105566554Y-105991486D01*
X105566554Y-105991486D02*
X105614173Y-106181962D01*
X105614173Y-106181962D02*
X105709411Y-106277201D01*
X105709411Y-106277201D02*
X105804649Y-106324820D01*
X105804649Y-106324820D02*
X105995125Y-106324820D01*
X105995125Y-106324820D02*
X106090363Y-106277201D01*
X106090363Y-106277201D02*
X106185601Y-106181962D01*
X106185601Y-106181962D02*
X106233220Y-105991486D01*
X106233220Y-105991486D02*
X106233220Y-105658153D01*
X106233220Y-105658153D02*
X106185601Y-105467677D01*
X106185601Y-105467677D02*
X106090363Y-105372439D01*
X106090363Y-105372439D02*
X105995125Y-105324820D01*
X105137982Y-106324820D02*
X105137982Y-105324820D01*
X104709411Y-106324820D02*
X104709411Y-105801010D01*
X104709411Y-105801010D02*
X104757030Y-105705772D01*
X104757030Y-105705772D02*
X104852268Y-105658153D01*
X104852268Y-105658153D02*
X104995125Y-105658153D01*
X104995125Y-105658153D02*
X105090363Y-105705772D01*
X105090363Y-105705772D02*
X105137982Y-105753391D01*
X104233220Y-106324820D02*
X104233220Y-105658153D01*
X104233220Y-105753391D02*
X104185601Y-105705772D01*
X104185601Y-105705772D02*
X104090363Y-105658153D01*
X104090363Y-105658153D02*
X103947506Y-105658153D01*
X103947506Y-105658153D02*
X103852268Y-105705772D01*
X103852268Y-105705772D02*
X103804649Y-105801010D01*
X103804649Y-105801010D02*
X103804649Y-106324820D01*
X103804649Y-105801010D02*
X103757030Y-105705772D01*
X103757030Y-105705772D02*
X103661792Y-105658153D01*
X103661792Y-105658153D02*
X103518935Y-105658153D01*
X103518935Y-105658153D02*
X103423696Y-105705772D01*
X103423696Y-105705772D02*
X103376077Y-105801010D01*
X103376077Y-105801010D02*
X103376077Y-106324820D01*
X113661792Y-107934820D02*
X113995125Y-107458629D01*
X114233220Y-107934820D02*
X114233220Y-106934820D01*
X114233220Y-106934820D02*
X113852268Y-106934820D01*
X113852268Y-106934820D02*
X113757030Y-106982439D01*
X113757030Y-106982439D02*
X113709411Y-107030058D01*
X113709411Y-107030058D02*
X113661792Y-107125296D01*
X113661792Y-107125296D02*
X113661792Y-107268153D01*
X113661792Y-107268153D02*
X113709411Y-107363391D01*
X113709411Y-107363391D02*
X113757030Y-107411010D01*
X113757030Y-107411010D02*
X113852268Y-107458629D01*
X113852268Y-107458629D02*
X114233220Y-107458629D01*
X113328458Y-106934820D02*
X112709411Y-106934820D01*
X112709411Y-106934820D02*
X113042744Y-107315772D01*
X113042744Y-107315772D02*
X112899887Y-107315772D01*
X112899887Y-107315772D02*
X112804649Y-107363391D01*
X112804649Y-107363391D02*
X112757030Y-107411010D01*
X112757030Y-107411010D02*
X112709411Y-107506248D01*
X112709411Y-107506248D02*
X112709411Y-107744343D01*
X112709411Y-107744343D02*
X112757030Y-107839581D01*
X112757030Y-107839581D02*
X112804649Y-107887201D01*
X112804649Y-107887201D02*
X112899887Y-107934820D01*
X112899887Y-107934820D02*
X113185601Y-107934820D01*
X113185601Y-107934820D02*
X113280839Y-107887201D01*
X113280839Y-107887201D02*
X113328458Y-107839581D01*
X111518934Y-107411010D02*
X110757030Y-107411010D01*
X110757030Y-107696724D02*
X111518934Y-107696724D01*
X108995125Y-107934820D02*
X109566553Y-107934820D01*
X109280839Y-107934820D02*
X109280839Y-106934820D01*
X109280839Y-106934820D02*
X109376077Y-107077677D01*
X109376077Y-107077677D02*
X109471315Y-107172915D01*
X109471315Y-107172915D02*
X109566553Y-107220534D01*
X108376077Y-106934820D02*
X108280839Y-106934820D01*
X108280839Y-106934820D02*
X108185601Y-106982439D01*
X108185601Y-106982439D02*
X108137982Y-107030058D01*
X108137982Y-107030058D02*
X108090363Y-107125296D01*
X108090363Y-107125296D02*
X108042744Y-107315772D01*
X108042744Y-107315772D02*
X108042744Y-107553867D01*
X108042744Y-107553867D02*
X108090363Y-107744343D01*
X108090363Y-107744343D02*
X108137982Y-107839581D01*
X108137982Y-107839581D02*
X108185601Y-107887201D01*
X108185601Y-107887201D02*
X108280839Y-107934820D01*
X108280839Y-107934820D02*
X108376077Y-107934820D01*
X108376077Y-107934820D02*
X108471315Y-107887201D01*
X108471315Y-107887201D02*
X108518934Y-107839581D01*
X108518934Y-107839581D02*
X108566553Y-107744343D01*
X108566553Y-107744343D02*
X108614172Y-107553867D01*
X108614172Y-107553867D02*
X108614172Y-107315772D01*
X108614172Y-107315772D02*
X108566553Y-107125296D01*
X108566553Y-107125296D02*
X108518934Y-107030058D01*
X108518934Y-107030058D02*
X108471315Y-106982439D01*
X108471315Y-106982439D02*
X108376077Y-106934820D01*
X107423696Y-106934820D02*
X107328458Y-106934820D01*
X107328458Y-106934820D02*
X107233220Y-106982439D01*
X107233220Y-106982439D02*
X107185601Y-107030058D01*
X107185601Y-107030058D02*
X107137982Y-107125296D01*
X107137982Y-107125296D02*
X107090363Y-107315772D01*
X107090363Y-107315772D02*
X107090363Y-107553867D01*
X107090363Y-107553867D02*
X107137982Y-107744343D01*
X107137982Y-107744343D02*
X107185601Y-107839581D01*
X107185601Y-107839581D02*
X107233220Y-107887201D01*
X107233220Y-107887201D02*
X107328458Y-107934820D01*
X107328458Y-107934820D02*
X107423696Y-107934820D01*
X107423696Y-107934820D02*
X107518934Y-107887201D01*
X107518934Y-107887201D02*
X107566553Y-107839581D01*
X107566553Y-107839581D02*
X107614172Y-107744343D01*
X107614172Y-107744343D02*
X107661791Y-107553867D01*
X107661791Y-107553867D02*
X107661791Y-107315772D01*
X107661791Y-107315772D02*
X107614172Y-107125296D01*
X107614172Y-107125296D02*
X107566553Y-107030058D01*
X107566553Y-107030058D02*
X107518934Y-106982439D01*
X107518934Y-106982439D02*
X107423696Y-106934820D01*
X106661791Y-107553867D02*
X105899887Y-107553867D01*
X105233220Y-106934820D02*
X105042744Y-106934820D01*
X105042744Y-106934820D02*
X104947506Y-106982439D01*
X104947506Y-106982439D02*
X104852268Y-107077677D01*
X104852268Y-107077677D02*
X104804649Y-107268153D01*
X104804649Y-107268153D02*
X104804649Y-107601486D01*
X104804649Y-107601486D02*
X104852268Y-107791962D01*
X104852268Y-107791962D02*
X104947506Y-107887201D01*
X104947506Y-107887201D02*
X105042744Y-107934820D01*
X105042744Y-107934820D02*
X105233220Y-107934820D01*
X105233220Y-107934820D02*
X105328458Y-107887201D01*
X105328458Y-107887201D02*
X105423696Y-107791962D01*
X105423696Y-107791962D02*
X105471315Y-107601486D01*
X105471315Y-107601486D02*
X105471315Y-107268153D01*
X105471315Y-107268153D02*
X105423696Y-107077677D01*
X105423696Y-107077677D02*
X105328458Y-106982439D01*
X105328458Y-106982439D02*
X105233220Y-106934820D01*
X104376077Y-107934820D02*
X104376077Y-106934820D01*
X103947506Y-107934820D02*
X103947506Y-107411010D01*
X103947506Y-107411010D02*
X103995125Y-107315772D01*
X103995125Y-107315772D02*
X104090363Y-107268153D01*
X104090363Y-107268153D02*
X104233220Y-107268153D01*
X104233220Y-107268153D02*
X104328458Y-107315772D01*
X104328458Y-107315772D02*
X104376077Y-107363391D01*
X103471315Y-107934820D02*
X103471315Y-107268153D01*
X103471315Y-107363391D02*
X103423696Y-107315772D01*
X103423696Y-107315772D02*
X103328458Y-107268153D01*
X103328458Y-107268153D02*
X103185601Y-107268153D01*
X103185601Y-107268153D02*
X103090363Y-107315772D01*
X103090363Y-107315772D02*
X103042744Y-107411010D01*
X103042744Y-107411010D02*
X103042744Y-107934820D01*
X103042744Y-107411010D02*
X102995125Y-107315772D01*
X102995125Y-107315772D02*
X102899887Y-107268153D01*
X102899887Y-107268153D02*
X102757030Y-107268153D01*
X102757030Y-107268153D02*
X102661791Y-107315772D01*
X102661791Y-107315772D02*
X102614172Y-107411010D01*
X102614172Y-107411010D02*
X102614172Y-107934820D01*
X113661792Y-109544820D02*
X113995125Y-109068629D01*
X114233220Y-109544820D02*
X114233220Y-108544820D01*
X114233220Y-108544820D02*
X113852268Y-108544820D01*
X113852268Y-108544820D02*
X113757030Y-108592439D01*
X113757030Y-108592439D02*
X113709411Y-108640058D01*
X113709411Y-108640058D02*
X113661792Y-108735296D01*
X113661792Y-108735296D02*
X113661792Y-108878153D01*
X113661792Y-108878153D02*
X113709411Y-108973391D01*
X113709411Y-108973391D02*
X113757030Y-109021010D01*
X113757030Y-109021010D02*
X113852268Y-109068629D01*
X113852268Y-109068629D02*
X114233220Y-109068629D01*
X112804649Y-108878153D02*
X112804649Y-109544820D01*
X113042744Y-108497201D02*
X113280839Y-109211486D01*
X113280839Y-109211486D02*
X112661792Y-109211486D01*
X111518934Y-109021010D02*
X110757030Y-109021010D01*
X110757030Y-109306724D02*
X111518934Y-109306724D01*
X108995125Y-109544820D02*
X109566553Y-109544820D01*
X109280839Y-109544820D02*
X109280839Y-108544820D01*
X109280839Y-108544820D02*
X109376077Y-108687677D01*
X109376077Y-108687677D02*
X109471315Y-108782915D01*
X109471315Y-108782915D02*
X109566553Y-108830534D01*
X108376077Y-108544820D02*
X108280839Y-108544820D01*
X108280839Y-108544820D02*
X108185601Y-108592439D01*
X108185601Y-108592439D02*
X108137982Y-108640058D01*
X108137982Y-108640058D02*
X108090363Y-108735296D01*
X108090363Y-108735296D02*
X108042744Y-108925772D01*
X108042744Y-108925772D02*
X108042744Y-109163867D01*
X108042744Y-109163867D02*
X108090363Y-109354343D01*
X108090363Y-109354343D02*
X108137982Y-109449581D01*
X108137982Y-109449581D02*
X108185601Y-109497201D01*
X108185601Y-109497201D02*
X108280839Y-109544820D01*
X108280839Y-109544820D02*
X108376077Y-109544820D01*
X108376077Y-109544820D02*
X108471315Y-109497201D01*
X108471315Y-109497201D02*
X108518934Y-109449581D01*
X108518934Y-109449581D02*
X108566553Y-109354343D01*
X108566553Y-109354343D02*
X108614172Y-109163867D01*
X108614172Y-109163867D02*
X108614172Y-108925772D01*
X108614172Y-108925772D02*
X108566553Y-108735296D01*
X108566553Y-108735296D02*
X108518934Y-108640058D01*
X108518934Y-108640058D02*
X108471315Y-108592439D01*
X108471315Y-108592439D02*
X108376077Y-108544820D01*
X107423696Y-108544820D02*
X107328458Y-108544820D01*
X107328458Y-108544820D02*
X107233220Y-108592439D01*
X107233220Y-108592439D02*
X107185601Y-108640058D01*
X107185601Y-108640058D02*
X107137982Y-108735296D01*
X107137982Y-108735296D02*
X107090363Y-108925772D01*
X107090363Y-108925772D02*
X107090363Y-109163867D01*
X107090363Y-109163867D02*
X107137982Y-109354343D01*
X107137982Y-109354343D02*
X107185601Y-109449581D01*
X107185601Y-109449581D02*
X107233220Y-109497201D01*
X107233220Y-109497201D02*
X107328458Y-109544820D01*
X107328458Y-109544820D02*
X107423696Y-109544820D01*
X107423696Y-109544820D02*
X107518934Y-109497201D01*
X107518934Y-109497201D02*
X107566553Y-109449581D01*
X107566553Y-109449581D02*
X107614172Y-109354343D01*
X107614172Y-109354343D02*
X107661791Y-109163867D01*
X107661791Y-109163867D02*
X107661791Y-108925772D01*
X107661791Y-108925772D02*
X107614172Y-108735296D01*
X107614172Y-108735296D02*
X107566553Y-108640058D01*
X107566553Y-108640058D02*
X107518934Y-108592439D01*
X107518934Y-108592439D02*
X107423696Y-108544820D01*
X106661791Y-109163867D02*
X105899887Y-109163867D01*
X105233220Y-108544820D02*
X105042744Y-108544820D01*
X105042744Y-108544820D02*
X104947506Y-108592439D01*
X104947506Y-108592439D02*
X104852268Y-108687677D01*
X104852268Y-108687677D02*
X104804649Y-108878153D01*
X104804649Y-108878153D02*
X104804649Y-109211486D01*
X104804649Y-109211486D02*
X104852268Y-109401962D01*
X104852268Y-109401962D02*
X104947506Y-109497201D01*
X104947506Y-109497201D02*
X105042744Y-109544820D01*
X105042744Y-109544820D02*
X105233220Y-109544820D01*
X105233220Y-109544820D02*
X105328458Y-109497201D01*
X105328458Y-109497201D02*
X105423696Y-109401962D01*
X105423696Y-109401962D02*
X105471315Y-109211486D01*
X105471315Y-109211486D02*
X105471315Y-108878153D01*
X105471315Y-108878153D02*
X105423696Y-108687677D01*
X105423696Y-108687677D02*
X105328458Y-108592439D01*
X105328458Y-108592439D02*
X105233220Y-108544820D01*
X104376077Y-109544820D02*
X104376077Y-108544820D01*
X103947506Y-109544820D02*
X103947506Y-109021010D01*
X103947506Y-109021010D02*
X103995125Y-108925772D01*
X103995125Y-108925772D02*
X104090363Y-108878153D01*
X104090363Y-108878153D02*
X104233220Y-108878153D01*
X104233220Y-108878153D02*
X104328458Y-108925772D01*
X104328458Y-108925772D02*
X104376077Y-108973391D01*
X103471315Y-109544820D02*
X103471315Y-108878153D01*
X103471315Y-108973391D02*
X103423696Y-108925772D01*
X103423696Y-108925772D02*
X103328458Y-108878153D01*
X103328458Y-108878153D02*
X103185601Y-108878153D01*
X103185601Y-108878153D02*
X103090363Y-108925772D01*
X103090363Y-108925772D02*
X103042744Y-109021010D01*
X103042744Y-109021010D02*
X103042744Y-109544820D01*
X103042744Y-109021010D02*
X102995125Y-108925772D01*
X102995125Y-108925772D02*
X102899887Y-108878153D01*
X102899887Y-108878153D02*
X102757030Y-108878153D01*
X102757030Y-108878153D02*
X102661791Y-108925772D01*
X102661791Y-108925772D02*
X102614172Y-109021010D01*
X102614172Y-109021010D02*
X102614172Y-109544820D01*
X113661792Y-111154820D02*
X113995125Y-110678629D01*
X114233220Y-111154820D02*
X114233220Y-110154820D01*
X114233220Y-110154820D02*
X113852268Y-110154820D01*
X113852268Y-110154820D02*
X113757030Y-110202439D01*
X113757030Y-110202439D02*
X113709411Y-110250058D01*
X113709411Y-110250058D02*
X113661792Y-110345296D01*
X113661792Y-110345296D02*
X113661792Y-110488153D01*
X113661792Y-110488153D02*
X113709411Y-110583391D01*
X113709411Y-110583391D02*
X113757030Y-110631010D01*
X113757030Y-110631010D02*
X113852268Y-110678629D01*
X113852268Y-110678629D02*
X114233220Y-110678629D01*
X112757030Y-110154820D02*
X113233220Y-110154820D01*
X113233220Y-110154820D02*
X113280839Y-110631010D01*
X113280839Y-110631010D02*
X113233220Y-110583391D01*
X113233220Y-110583391D02*
X113137982Y-110535772D01*
X113137982Y-110535772D02*
X112899887Y-110535772D01*
X112899887Y-110535772D02*
X112804649Y-110583391D01*
X112804649Y-110583391D02*
X112757030Y-110631010D01*
X112757030Y-110631010D02*
X112709411Y-110726248D01*
X112709411Y-110726248D02*
X112709411Y-110964343D01*
X112709411Y-110964343D02*
X112757030Y-111059581D01*
X112757030Y-111059581D02*
X112804649Y-111107201D01*
X112804649Y-111107201D02*
X112899887Y-111154820D01*
X112899887Y-111154820D02*
X113137982Y-111154820D01*
X113137982Y-111154820D02*
X113233220Y-111107201D01*
X113233220Y-111107201D02*
X113280839Y-111059581D01*
X111518934Y-110631010D02*
X110757030Y-110631010D01*
X110757030Y-110916724D02*
X111518934Y-110916724D01*
X108995125Y-111154820D02*
X109566553Y-111154820D01*
X109280839Y-111154820D02*
X109280839Y-110154820D01*
X109280839Y-110154820D02*
X109376077Y-110297677D01*
X109376077Y-110297677D02*
X109471315Y-110392915D01*
X109471315Y-110392915D02*
X109566553Y-110440534D01*
X108566553Y-111154820D02*
X108566553Y-110154820D01*
X108471315Y-110773867D02*
X108185601Y-111154820D01*
X108185601Y-110488153D02*
X108566553Y-110869105D01*
X107757029Y-110773867D02*
X106995125Y-110773867D01*
X106328458Y-110154820D02*
X106137982Y-110154820D01*
X106137982Y-110154820D02*
X106042744Y-110202439D01*
X106042744Y-110202439D02*
X105947506Y-110297677D01*
X105947506Y-110297677D02*
X105899887Y-110488153D01*
X105899887Y-110488153D02*
X105899887Y-110821486D01*
X105899887Y-110821486D02*
X105947506Y-111011962D01*
X105947506Y-111011962D02*
X106042744Y-111107201D01*
X106042744Y-111107201D02*
X106137982Y-111154820D01*
X106137982Y-111154820D02*
X106328458Y-111154820D01*
X106328458Y-111154820D02*
X106423696Y-111107201D01*
X106423696Y-111107201D02*
X106518934Y-111011962D01*
X106518934Y-111011962D02*
X106566553Y-110821486D01*
X106566553Y-110821486D02*
X106566553Y-110488153D01*
X106566553Y-110488153D02*
X106518934Y-110297677D01*
X106518934Y-110297677D02*
X106423696Y-110202439D01*
X106423696Y-110202439D02*
X106328458Y-110154820D01*
X105471315Y-111154820D02*
X105471315Y-110154820D01*
X105042744Y-111154820D02*
X105042744Y-110631010D01*
X105042744Y-110631010D02*
X105090363Y-110535772D01*
X105090363Y-110535772D02*
X105185601Y-110488153D01*
X105185601Y-110488153D02*
X105328458Y-110488153D01*
X105328458Y-110488153D02*
X105423696Y-110535772D01*
X105423696Y-110535772D02*
X105471315Y-110583391D01*
X104566553Y-111154820D02*
X104566553Y-110488153D01*
X104566553Y-110583391D02*
X104518934Y-110535772D01*
X104518934Y-110535772D02*
X104423696Y-110488153D01*
X104423696Y-110488153D02*
X104280839Y-110488153D01*
X104280839Y-110488153D02*
X104185601Y-110535772D01*
X104185601Y-110535772D02*
X104137982Y-110631010D01*
X104137982Y-110631010D02*
X104137982Y-111154820D01*
X104137982Y-110631010D02*
X104090363Y-110535772D01*
X104090363Y-110535772D02*
X103995125Y-110488153D01*
X103995125Y-110488153D02*
X103852268Y-110488153D01*
X103852268Y-110488153D02*
X103757029Y-110535772D01*
X103757029Y-110535772D02*
X103709410Y-110631010D01*
X103709410Y-110631010D02*
X103709410Y-111154820D01*
X113661792Y-112764820D02*
X113995125Y-112288629D01*
X114233220Y-112764820D02*
X114233220Y-111764820D01*
X114233220Y-111764820D02*
X113852268Y-111764820D01*
X113852268Y-111764820D02*
X113757030Y-111812439D01*
X113757030Y-111812439D02*
X113709411Y-111860058D01*
X113709411Y-111860058D02*
X113661792Y-111955296D01*
X113661792Y-111955296D02*
X113661792Y-112098153D01*
X113661792Y-112098153D02*
X113709411Y-112193391D01*
X113709411Y-112193391D02*
X113757030Y-112241010D01*
X113757030Y-112241010D02*
X113852268Y-112288629D01*
X113852268Y-112288629D02*
X114233220Y-112288629D01*
X112804649Y-111764820D02*
X112995125Y-111764820D01*
X112995125Y-111764820D02*
X113090363Y-111812439D01*
X113090363Y-111812439D02*
X113137982Y-111860058D01*
X113137982Y-111860058D02*
X113233220Y-112002915D01*
X113233220Y-112002915D02*
X113280839Y-112193391D01*
X113280839Y-112193391D02*
X113280839Y-112574343D01*
X113280839Y-112574343D02*
X113233220Y-112669581D01*
X113233220Y-112669581D02*
X113185601Y-112717201D01*
X113185601Y-112717201D02*
X113090363Y-112764820D01*
X113090363Y-112764820D02*
X112899887Y-112764820D01*
X112899887Y-112764820D02*
X112804649Y-112717201D01*
X112804649Y-112717201D02*
X112757030Y-112669581D01*
X112757030Y-112669581D02*
X112709411Y-112574343D01*
X112709411Y-112574343D02*
X112709411Y-112336248D01*
X112709411Y-112336248D02*
X112757030Y-112241010D01*
X112757030Y-112241010D02*
X112804649Y-112193391D01*
X112804649Y-112193391D02*
X112899887Y-112145772D01*
X112899887Y-112145772D02*
X113090363Y-112145772D01*
X113090363Y-112145772D02*
X113185601Y-112193391D01*
X113185601Y-112193391D02*
X113233220Y-112241010D01*
X113233220Y-112241010D02*
X113280839Y-112336248D01*
X111518934Y-112241010D02*
X110757030Y-112241010D01*
X110757030Y-112526724D02*
X111518934Y-112526724D01*
X108995125Y-112764820D02*
X109566553Y-112764820D01*
X109280839Y-112764820D02*
X109280839Y-111764820D01*
X109280839Y-111764820D02*
X109376077Y-111907677D01*
X109376077Y-111907677D02*
X109471315Y-112002915D01*
X109471315Y-112002915D02*
X109566553Y-112050534D01*
X108376077Y-111764820D02*
X108280839Y-111764820D01*
X108280839Y-111764820D02*
X108185601Y-111812439D01*
X108185601Y-111812439D02*
X108137982Y-111860058D01*
X108137982Y-111860058D02*
X108090363Y-111955296D01*
X108090363Y-111955296D02*
X108042744Y-112145772D01*
X108042744Y-112145772D02*
X108042744Y-112383867D01*
X108042744Y-112383867D02*
X108090363Y-112574343D01*
X108090363Y-112574343D02*
X108137982Y-112669581D01*
X108137982Y-112669581D02*
X108185601Y-112717201D01*
X108185601Y-112717201D02*
X108280839Y-112764820D01*
X108280839Y-112764820D02*
X108376077Y-112764820D01*
X108376077Y-112764820D02*
X108471315Y-112717201D01*
X108471315Y-112717201D02*
X108518934Y-112669581D01*
X108518934Y-112669581D02*
X108566553Y-112574343D01*
X108566553Y-112574343D02*
X108614172Y-112383867D01*
X108614172Y-112383867D02*
X108614172Y-112145772D01*
X108614172Y-112145772D02*
X108566553Y-111955296D01*
X108566553Y-111955296D02*
X108518934Y-111860058D01*
X108518934Y-111860058D02*
X108471315Y-111812439D01*
X108471315Y-111812439D02*
X108376077Y-111764820D01*
X107614172Y-112764820D02*
X107614172Y-111764820D01*
X107518934Y-112383867D02*
X107233220Y-112764820D01*
X107233220Y-112098153D02*
X107614172Y-112479105D01*
X106804648Y-112383867D02*
X106042744Y-112383867D01*
X105376077Y-111764820D02*
X105185601Y-111764820D01*
X105185601Y-111764820D02*
X105090363Y-111812439D01*
X105090363Y-111812439D02*
X104995125Y-111907677D01*
X104995125Y-111907677D02*
X104947506Y-112098153D01*
X104947506Y-112098153D02*
X104947506Y-112431486D01*
X104947506Y-112431486D02*
X104995125Y-112621962D01*
X104995125Y-112621962D02*
X105090363Y-112717201D01*
X105090363Y-112717201D02*
X105185601Y-112764820D01*
X105185601Y-112764820D02*
X105376077Y-112764820D01*
X105376077Y-112764820D02*
X105471315Y-112717201D01*
X105471315Y-112717201D02*
X105566553Y-112621962D01*
X105566553Y-112621962D02*
X105614172Y-112431486D01*
X105614172Y-112431486D02*
X105614172Y-112098153D01*
X105614172Y-112098153D02*
X105566553Y-111907677D01*
X105566553Y-111907677D02*
X105471315Y-111812439D01*
X105471315Y-111812439D02*
X105376077Y-111764820D01*
X104518934Y-112764820D02*
X104518934Y-111764820D01*
X104090363Y-112764820D02*
X104090363Y-112241010D01*
X104090363Y-112241010D02*
X104137982Y-112145772D01*
X104137982Y-112145772D02*
X104233220Y-112098153D01*
X104233220Y-112098153D02*
X104376077Y-112098153D01*
X104376077Y-112098153D02*
X104471315Y-112145772D01*
X104471315Y-112145772D02*
X104518934Y-112193391D01*
X103614172Y-112764820D02*
X103614172Y-112098153D01*
X103614172Y-112193391D02*
X103566553Y-112145772D01*
X103566553Y-112145772D02*
X103471315Y-112098153D01*
X103471315Y-112098153D02*
X103328458Y-112098153D01*
X103328458Y-112098153D02*
X103233220Y-112145772D01*
X103233220Y-112145772D02*
X103185601Y-112241010D01*
X103185601Y-112241010D02*
X103185601Y-112764820D01*
X103185601Y-112241010D02*
X103137982Y-112145772D01*
X103137982Y-112145772D02*
X103042744Y-112098153D01*
X103042744Y-112098153D02*
X102899887Y-112098153D01*
X102899887Y-112098153D02*
X102804648Y-112145772D01*
X102804648Y-112145772D02*
X102757029Y-112241010D01*
X102757029Y-112241010D02*
X102757029Y-112764820D01*
X124681793Y-98759580D02*
X124729412Y-98807200D01*
X124729412Y-98807200D02*
X124872269Y-98854819D01*
X124872269Y-98854819D02*
X124967507Y-98854819D01*
X124967507Y-98854819D02*
X125110364Y-98807200D01*
X125110364Y-98807200D02*
X125205602Y-98711961D01*
X125205602Y-98711961D02*
X125253221Y-98616723D01*
X125253221Y-98616723D02*
X125300840Y-98426247D01*
X125300840Y-98426247D02*
X125300840Y-98283390D01*
X125300840Y-98283390D02*
X125253221Y-98092914D01*
X125253221Y-98092914D02*
X125205602Y-97997676D01*
X125205602Y-97997676D02*
X125110364Y-97902438D01*
X125110364Y-97902438D02*
X124967507Y-97854819D01*
X124967507Y-97854819D02*
X124872269Y-97854819D01*
X124872269Y-97854819D02*
X124729412Y-97902438D01*
X124729412Y-97902438D02*
X124681793Y-97950057D01*
X123729412Y-98854819D02*
X124300840Y-98854819D01*
X124015126Y-98854819D02*
X124015126Y-97854819D01*
X124015126Y-97854819D02*
X124110364Y-97997676D01*
X124110364Y-97997676D02*
X124205602Y-98092914D01*
X124205602Y-98092914D02*
X124300840Y-98140533D01*
X122538935Y-98331009D02*
X121777031Y-98331009D01*
X121777031Y-98616723D02*
X122538935Y-98616723D01*
X120015126Y-98854819D02*
X120586554Y-98854819D01*
X120300840Y-98854819D02*
X120300840Y-97854819D01*
X120300840Y-97854819D02*
X120396078Y-97997676D01*
X120396078Y-97997676D02*
X120491316Y-98092914D01*
X120491316Y-98092914D02*
X120586554Y-98140533D01*
X119157983Y-98188152D02*
X119157983Y-98854819D01*
X119586554Y-98188152D02*
X119586554Y-98711961D01*
X119586554Y-98711961D02*
X119538935Y-98807200D01*
X119538935Y-98807200D02*
X119443697Y-98854819D01*
X119443697Y-98854819D02*
X119300840Y-98854819D01*
X119300840Y-98854819D02*
X119205602Y-98807200D01*
X119205602Y-98807200D02*
X119157983Y-98759580D01*
X118348459Y-98331009D02*
X118681792Y-98331009D01*
X118681792Y-98854819D02*
X118681792Y-97854819D01*
X118681792Y-97854819D02*
X118205602Y-97854819D01*
X124681793Y-100369580D02*
X124729412Y-100417200D01*
X124729412Y-100417200D02*
X124872269Y-100464819D01*
X124872269Y-100464819D02*
X124967507Y-100464819D01*
X124967507Y-100464819D02*
X125110364Y-100417200D01*
X125110364Y-100417200D02*
X125205602Y-100321961D01*
X125205602Y-100321961D02*
X125253221Y-100226723D01*
X125253221Y-100226723D02*
X125300840Y-100036247D01*
X125300840Y-100036247D02*
X125300840Y-99893390D01*
X125300840Y-99893390D02*
X125253221Y-99702914D01*
X125253221Y-99702914D02*
X125205602Y-99607676D01*
X125205602Y-99607676D02*
X125110364Y-99512438D01*
X125110364Y-99512438D02*
X124967507Y-99464819D01*
X124967507Y-99464819D02*
X124872269Y-99464819D01*
X124872269Y-99464819D02*
X124729412Y-99512438D01*
X124729412Y-99512438D02*
X124681793Y-99560057D01*
X124300840Y-99560057D02*
X124253221Y-99512438D01*
X124253221Y-99512438D02*
X124157983Y-99464819D01*
X124157983Y-99464819D02*
X123919888Y-99464819D01*
X123919888Y-99464819D02*
X123824650Y-99512438D01*
X123824650Y-99512438D02*
X123777031Y-99560057D01*
X123777031Y-99560057D02*
X123729412Y-99655295D01*
X123729412Y-99655295D02*
X123729412Y-99750533D01*
X123729412Y-99750533D02*
X123777031Y-99893390D01*
X123777031Y-99893390D02*
X124348459Y-100464819D01*
X124348459Y-100464819D02*
X123729412Y-100464819D01*
X122538935Y-99941009D02*
X121777031Y-99941009D01*
X121777031Y-100226723D02*
X122538935Y-100226723D01*
X120015126Y-100464819D02*
X120586554Y-100464819D01*
X120300840Y-100464819D02*
X120300840Y-99464819D01*
X120300840Y-99464819D02*
X120396078Y-99607676D01*
X120396078Y-99607676D02*
X120491316Y-99702914D01*
X120491316Y-99702914D02*
X120586554Y-99750533D01*
X119157983Y-99798152D02*
X119157983Y-100464819D01*
X119586554Y-99798152D02*
X119586554Y-100321961D01*
X119586554Y-100321961D02*
X119538935Y-100417200D01*
X119538935Y-100417200D02*
X119443697Y-100464819D01*
X119443697Y-100464819D02*
X119300840Y-100464819D01*
X119300840Y-100464819D02*
X119205602Y-100417200D01*
X119205602Y-100417200D02*
X119157983Y-100369580D01*
X118348459Y-99941009D02*
X118681792Y-99941009D01*
X118681792Y-100464819D02*
X118681792Y-99464819D01*
X118681792Y-99464819D02*
X118205602Y-99464819D01*
X124681793Y-101979580D02*
X124729412Y-102027200D01*
X124729412Y-102027200D02*
X124872269Y-102074819D01*
X124872269Y-102074819D02*
X124967507Y-102074819D01*
X124967507Y-102074819D02*
X125110364Y-102027200D01*
X125110364Y-102027200D02*
X125205602Y-101931961D01*
X125205602Y-101931961D02*
X125253221Y-101836723D01*
X125253221Y-101836723D02*
X125300840Y-101646247D01*
X125300840Y-101646247D02*
X125300840Y-101503390D01*
X125300840Y-101503390D02*
X125253221Y-101312914D01*
X125253221Y-101312914D02*
X125205602Y-101217676D01*
X125205602Y-101217676D02*
X125110364Y-101122438D01*
X125110364Y-101122438D02*
X124967507Y-101074819D01*
X124967507Y-101074819D02*
X124872269Y-101074819D01*
X124872269Y-101074819D02*
X124729412Y-101122438D01*
X124729412Y-101122438D02*
X124681793Y-101170057D01*
X124348459Y-101074819D02*
X123729412Y-101074819D01*
X123729412Y-101074819D02*
X124062745Y-101455771D01*
X124062745Y-101455771D02*
X123919888Y-101455771D01*
X123919888Y-101455771D02*
X123824650Y-101503390D01*
X123824650Y-101503390D02*
X123777031Y-101551009D01*
X123777031Y-101551009D02*
X123729412Y-101646247D01*
X123729412Y-101646247D02*
X123729412Y-101884342D01*
X123729412Y-101884342D02*
X123777031Y-101979580D01*
X123777031Y-101979580D02*
X123824650Y-102027200D01*
X123824650Y-102027200D02*
X123919888Y-102074819D01*
X123919888Y-102074819D02*
X124205602Y-102074819D01*
X124205602Y-102074819D02*
X124300840Y-102027200D01*
X124300840Y-102027200D02*
X124348459Y-101979580D01*
X122538935Y-101551009D02*
X121777031Y-101551009D01*
X121777031Y-101836723D02*
X122538935Y-101836723D01*
X120015126Y-102074819D02*
X120586554Y-102074819D01*
X120300840Y-102074819D02*
X120300840Y-101074819D01*
X120300840Y-101074819D02*
X120396078Y-101217676D01*
X120396078Y-101217676D02*
X120491316Y-101312914D01*
X120491316Y-101312914D02*
X120586554Y-101360533D01*
X119157983Y-101408152D02*
X119157983Y-102074819D01*
X119586554Y-101408152D02*
X119586554Y-101931961D01*
X119586554Y-101931961D02*
X119538935Y-102027200D01*
X119538935Y-102027200D02*
X119443697Y-102074819D01*
X119443697Y-102074819D02*
X119300840Y-102074819D01*
X119300840Y-102074819D02*
X119205602Y-102027200D01*
X119205602Y-102027200D02*
X119157983Y-101979580D01*
X118348459Y-101551009D02*
X118681792Y-101551009D01*
X118681792Y-102074819D02*
X118681792Y-101074819D01*
X118681792Y-101074819D02*
X118205602Y-101074819D01*
X139967200Y-106195714D02*
X140014819Y-106338571D01*
X140014819Y-106338571D02*
X140014819Y-106576666D01*
X140014819Y-106576666D02*
X139967200Y-106671904D01*
X139967200Y-106671904D02*
X139919580Y-106719523D01*
X139919580Y-106719523D02*
X139824342Y-106767142D01*
X139824342Y-106767142D02*
X139729104Y-106767142D01*
X139729104Y-106767142D02*
X139633866Y-106719523D01*
X139633866Y-106719523D02*
X139586247Y-106671904D01*
X139586247Y-106671904D02*
X139538628Y-106576666D01*
X139538628Y-106576666D02*
X139491009Y-106386190D01*
X139491009Y-106386190D02*
X139443390Y-106290952D01*
X139443390Y-106290952D02*
X139395771Y-106243333D01*
X139395771Y-106243333D02*
X139300533Y-106195714D01*
X139300533Y-106195714D02*
X139205295Y-106195714D01*
X139205295Y-106195714D02*
X139110057Y-106243333D01*
X139110057Y-106243333D02*
X139062438Y-106290952D01*
X139062438Y-106290952D02*
X139014819Y-106386190D01*
X139014819Y-106386190D02*
X139014819Y-106624285D01*
X139014819Y-106624285D02*
X139062438Y-106767142D01*
X140014819Y-107195714D02*
X139014819Y-107195714D01*
X139014819Y-107195714D02*
X139014819Y-107433809D01*
X139014819Y-107433809D02*
X139062438Y-107576666D01*
X139062438Y-107576666D02*
X139157676Y-107671904D01*
X139157676Y-107671904D02*
X139252914Y-107719523D01*
X139252914Y-107719523D02*
X139443390Y-107767142D01*
X139443390Y-107767142D02*
X139586247Y-107767142D01*
X139586247Y-107767142D02*
X139776723Y-107719523D01*
X139776723Y-107719523D02*
X139871961Y-107671904D01*
X139871961Y-107671904D02*
X139967200Y-107576666D01*
X139967200Y-107576666D02*
X140014819Y-107433809D01*
X140014819Y-107433809D02*
X140014819Y-107195714D01*
X139729104Y-108148095D02*
X139729104Y-108624285D01*
X140014819Y-108052857D02*
X139014819Y-108386190D01*
X139014819Y-108386190D02*
X140014819Y-108719523D01*
D12*
X125294284Y-104422220D02*
X125294284Y-103422220D01*
X124818094Y-103755553D02*
X124818094Y-104422220D01*
X124818094Y-103850791D02*
X124770475Y-103803172D01*
X124770475Y-103803172D02*
X124675237Y-103755553D01*
X124675237Y-103755553D02*
X124532380Y-103755553D01*
X124532380Y-103755553D02*
X124437142Y-103803172D01*
X124437142Y-103803172D02*
X124389523Y-103898410D01*
X124389523Y-103898410D02*
X124389523Y-104422220D01*
X123960951Y-104374601D02*
X123865713Y-104422220D01*
X123865713Y-104422220D02*
X123675237Y-104422220D01*
X123675237Y-104422220D02*
X123579999Y-104374601D01*
X123579999Y-104374601D02*
X123532380Y-104279362D01*
X123532380Y-104279362D02*
X123532380Y-104231743D01*
X123532380Y-104231743D02*
X123579999Y-104136505D01*
X123579999Y-104136505D02*
X123675237Y-104088886D01*
X123675237Y-104088886D02*
X123818094Y-104088886D01*
X123818094Y-104088886D02*
X123913332Y-104041267D01*
X123913332Y-104041267D02*
X123960951Y-103946029D01*
X123960951Y-103946029D02*
X123960951Y-103898410D01*
X123960951Y-103898410D02*
X123913332Y-103803172D01*
X123913332Y-103803172D02*
X123818094Y-103755553D01*
X123818094Y-103755553D02*
X123675237Y-103755553D01*
X123675237Y-103755553D02*
X123579999Y-103803172D01*
X123103808Y-104422220D02*
X123103808Y-103755553D01*
X123103808Y-103422220D02*
X123151427Y-103469839D01*
X123151427Y-103469839D02*
X123103808Y-103517458D01*
X123103808Y-103517458D02*
X123056189Y-103469839D01*
X123056189Y-103469839D02*
X123103808Y-103422220D01*
X123103808Y-103422220D02*
X123103808Y-103517458D01*
X122199047Y-104422220D02*
X122199047Y-103422220D01*
X122199047Y-104374601D02*
X122294285Y-104422220D01*
X122294285Y-104422220D02*
X122484761Y-104422220D01*
X122484761Y-104422220D02*
X122579999Y-104374601D01*
X122579999Y-104374601D02*
X122627618Y-104326981D01*
X122627618Y-104326981D02*
X122675237Y-104231743D01*
X122675237Y-104231743D02*
X122675237Y-103946029D01*
X122675237Y-103946029D02*
X122627618Y-103850791D01*
X122627618Y-103850791D02*
X122579999Y-103803172D01*
X122579999Y-103803172D02*
X122484761Y-103755553D01*
X122484761Y-103755553D02*
X122294285Y-103755553D01*
X122294285Y-103755553D02*
X122199047Y-103803172D01*
X121341904Y-104374601D02*
X121437142Y-104422220D01*
X121437142Y-104422220D02*
X121627618Y-104422220D01*
X121627618Y-104422220D02*
X121722856Y-104374601D01*
X121722856Y-104374601D02*
X121770475Y-104279362D01*
X121770475Y-104279362D02*
X121770475Y-103898410D01*
X121770475Y-103898410D02*
X121722856Y-103803172D01*
X121722856Y-103803172D02*
X121627618Y-103755553D01*
X121627618Y-103755553D02*
X121437142Y-103755553D01*
X121437142Y-103755553D02*
X121341904Y-103803172D01*
X121341904Y-103803172D02*
X121294285Y-103898410D01*
X121294285Y-103898410D02*
X121294285Y-103993648D01*
X121294285Y-103993648D02*
X121770475Y-104088886D01*
X120865713Y-104326981D02*
X120818094Y-104374601D01*
X120818094Y-104374601D02*
X120865713Y-104422220D01*
X120865713Y-104422220D02*
X120913332Y-104374601D01*
X120913332Y-104374601D02*
X120865713Y-104326981D01*
X120865713Y-104326981D02*
X120865713Y-104422220D01*
X120865713Y-103803172D02*
X120818094Y-103850791D01*
X120818094Y-103850791D02*
X120865713Y-103898410D01*
X120865713Y-103898410D02*
X120913332Y-103850791D01*
X120913332Y-103850791D02*
X120865713Y-103803172D01*
X120865713Y-103803172D02*
X120865713Y-103898410D01*
D11*
X146416042Y-95556124D02*
X146416042Y-95623468D01*
X146416042Y-95623468D02*
X146483386Y-95758155D01*
X146483386Y-95758155D02*
X146550729Y-95825498D01*
X146550729Y-95825498D02*
X146685416Y-95892842D01*
X146685416Y-95892842D02*
X146820103Y-95892842D01*
X146820103Y-95892842D02*
X146921118Y-95859170D01*
X146921118Y-95859170D02*
X147089477Y-95758155D01*
X147089477Y-95758155D02*
X147190492Y-95657140D01*
X147190492Y-95657140D02*
X147291508Y-95488781D01*
X147291508Y-95488781D02*
X147325179Y-95387766D01*
X147325179Y-95387766D02*
X147325179Y-95253079D01*
X147325179Y-95253079D02*
X147257836Y-95118392D01*
X147257836Y-95118392D02*
X147190492Y-95051048D01*
X147190492Y-95051048D02*
X147055805Y-94983705D01*
X147055805Y-94983705D02*
X146988462Y-94983705D01*
X146045653Y-95320422D02*
X146752760Y-94613315D01*
X145742607Y-95017376D02*
X146112996Y-94646987D01*
X146112996Y-94646987D02*
X146214012Y-94613315D01*
X146214012Y-94613315D02*
X146315027Y-94646987D01*
X146315027Y-94646987D02*
X146416042Y-94748002D01*
X146416042Y-94748002D02*
X146449714Y-94849018D01*
X146449714Y-94849018D02*
X146449714Y-94916361D01*
X145304874Y-94579644D02*
X145405890Y-94613315D01*
X145405890Y-94613315D02*
X145473233Y-94613315D01*
X145473233Y-94613315D02*
X145574248Y-94579644D01*
X145574248Y-94579644D02*
X145776279Y-94377613D01*
X145776279Y-94377613D02*
X145809951Y-94276598D01*
X145809951Y-94276598D02*
X145809951Y-94209254D01*
X145809951Y-94209254D02*
X145776279Y-94108239D01*
X145776279Y-94108239D02*
X145675264Y-94007224D01*
X145675264Y-94007224D02*
X145574248Y-93973552D01*
X145574248Y-93973552D02*
X145506905Y-93973552D01*
X145506905Y-93973552D02*
X145405890Y-94007224D01*
X145405890Y-94007224D02*
X145203859Y-94209254D01*
X145203859Y-94209254D02*
X145170187Y-94310270D01*
X145170187Y-94310270D02*
X145170187Y-94377613D01*
X145170187Y-94377613D02*
X145203859Y-94478628D01*
X145203859Y-94478628D02*
X145304874Y-94579644D01*
X144665111Y-93939880D02*
X144766126Y-93973552D01*
X144766126Y-93973552D02*
X144833470Y-93973552D01*
X144833470Y-93973552D02*
X144934485Y-93939880D01*
X144934485Y-93939880D02*
X145136516Y-93737850D01*
X145136516Y-93737850D02*
X145170187Y-93636834D01*
X145170187Y-93636834D02*
X145170187Y-93569491D01*
X145170187Y-93569491D02*
X145136516Y-93468476D01*
X145136516Y-93468476D02*
X145035500Y-93367460D01*
X145035500Y-93367460D02*
X144934485Y-93333789D01*
X144934485Y-93333789D02*
X144867141Y-93333789D01*
X144867141Y-93333789D02*
X144766126Y-93367460D01*
X144766126Y-93367460D02*
X144564096Y-93569491D01*
X144564096Y-93569491D02*
X144530424Y-93670506D01*
X144530424Y-93670506D02*
X144530424Y-93737850D01*
X144530424Y-93737850D02*
X144564096Y-93838865D01*
X144564096Y-93838865D02*
X144665111Y-93939880D01*
X144193706Y-93401132D02*
X144092691Y-93367460D01*
X144092691Y-93367460D02*
X143958004Y-93232773D01*
X143958004Y-93232773D02*
X143924332Y-93131758D01*
X143924332Y-93131758D02*
X143958004Y-93030743D01*
X143958004Y-93030743D02*
X143991676Y-92997071D01*
X143991676Y-92997071D02*
X144092691Y-92963399D01*
X144092691Y-92963399D02*
X144193706Y-92997071D01*
X144193706Y-92997071D02*
X144294722Y-93098086D01*
X144294722Y-93098086D02*
X144395737Y-93131758D01*
X144395737Y-93131758D02*
X144496752Y-93098086D01*
X144496752Y-93098086D02*
X144530424Y-93064415D01*
X144530424Y-93064415D02*
X144564096Y-92963399D01*
X144564096Y-92963399D02*
X144530424Y-92862384D01*
X144530424Y-92862384D02*
X144429409Y-92761369D01*
X144429409Y-92761369D02*
X144328393Y-92727697D01*
X143318241Y-92525666D02*
X143351912Y-92626682D01*
X143351912Y-92626682D02*
X143486599Y-92761369D01*
X143486599Y-92761369D02*
X143587615Y-92795040D01*
X143587615Y-92795040D02*
X143688630Y-92761369D01*
X143688630Y-92761369D02*
X143958004Y-92491995D01*
X143958004Y-92491995D02*
X143991676Y-92390979D01*
X143991676Y-92390979D02*
X143958004Y-92289964D01*
X143958004Y-92289964D02*
X143823317Y-92155277D01*
X143823317Y-92155277D02*
X143722302Y-92121605D01*
X143722302Y-92121605D02*
X143621286Y-92155277D01*
X143621286Y-92155277D02*
X143553943Y-92222621D01*
X143553943Y-92222621D02*
X143823317Y-92626682D01*
X142611134Y-91212468D02*
X142274416Y-91549185D01*
X143217225Y-91077781D02*
X142611134Y-91212468D01*
X142611134Y-91212468D02*
X142745821Y-90606376D01*
X141701996Y-90976766D02*
X141803012Y-91010437D01*
X141803012Y-91010437D02*
X141870355Y-91010437D01*
X141870355Y-91010437D02*
X141971370Y-90976766D01*
X141971370Y-90976766D02*
X142173401Y-90774735D01*
X142173401Y-90774735D02*
X142207073Y-90673720D01*
X142207073Y-90673720D02*
X142207073Y-90606376D01*
X142207073Y-90606376D02*
X142173401Y-90505361D01*
X142173401Y-90505361D02*
X142072386Y-90404346D01*
X142072386Y-90404346D02*
X141971370Y-90370674D01*
X141971370Y-90370674D02*
X141904027Y-90370674D01*
X141904027Y-90370674D02*
X141803012Y-90404346D01*
X141803012Y-90404346D02*
X141600981Y-90606376D01*
X141600981Y-90606376D02*
X141567309Y-90707392D01*
X141567309Y-90707392D02*
X141567309Y-90774735D01*
X141567309Y-90774735D02*
X141600981Y-90875750D01*
X141600981Y-90875750D02*
X141701996Y-90976766D01*
X141331607Y-89663567D02*
X140860202Y-90134972D01*
X141634653Y-89966613D02*
X141264263Y-90337002D01*
X141264263Y-90337002D02*
X141163248Y-90370674D01*
X141163248Y-90370674D02*
X141062233Y-90337002D01*
X141062233Y-90337002D02*
X140961218Y-90235987D01*
X140961218Y-90235987D02*
X140927546Y-90134972D01*
X140927546Y-90134972D02*
X140927546Y-90067628D01*
X140523485Y-89798254D02*
X140994889Y-89326850D01*
X140860202Y-89461537D02*
X140893874Y-89360521D01*
X140893874Y-89360521D02*
X140893874Y-89293178D01*
X140893874Y-89293178D02*
X140860202Y-89192163D01*
X140860202Y-89192163D02*
X140792859Y-89124819D01*
X145883692Y-96694566D02*
X146119394Y-96930269D01*
X145749005Y-97300658D02*
X146456111Y-96593551D01*
X146456111Y-96593551D02*
X146119394Y-96256834D01*
X144839867Y-96391520D02*
X145210256Y-96021131D01*
X145210256Y-96021131D02*
X145311272Y-95987459D01*
X145311272Y-95987459D02*
X145412287Y-96021131D01*
X145412287Y-96021131D02*
X145546974Y-96155818D01*
X145546974Y-96155818D02*
X145580646Y-96256833D01*
X144873539Y-96357849D02*
X144907211Y-96458864D01*
X144907211Y-96458864D02*
X145075569Y-96627223D01*
X145075569Y-96627223D02*
X145176585Y-96660894D01*
X145176585Y-96660894D02*
X145277600Y-96627223D01*
X145277600Y-96627223D02*
X145344943Y-96559879D01*
X145344943Y-96559879D02*
X145378615Y-96458864D01*
X145378615Y-96458864D02*
X145344943Y-96357849D01*
X145344943Y-96357849D02*
X145176585Y-96189490D01*
X145176585Y-96189490D02*
X145142913Y-96088475D01*
X145041898Y-95650742D02*
X144402134Y-95953788D01*
X144402134Y-95953788D02*
X144705180Y-95314024D01*
X143863386Y-95415039D02*
X143964401Y-95448711D01*
X143964401Y-95448711D02*
X144031745Y-95448711D01*
X144031745Y-95448711D02*
X144132760Y-95415039D01*
X144132760Y-95415039D02*
X144334791Y-95213009D01*
X144334791Y-95213009D02*
X144368462Y-95111994D01*
X144368462Y-95111994D02*
X144368462Y-95044650D01*
X144368462Y-95044650D02*
X144334791Y-94943635D01*
X144334791Y-94943635D02*
X144233775Y-94842620D01*
X144233775Y-94842620D02*
X144132760Y-94808948D01*
X144132760Y-94808948D02*
X144065417Y-94808948D01*
X144065417Y-94808948D02*
X143964401Y-94842620D01*
X143964401Y-94842620D02*
X143762371Y-95044650D01*
X143762371Y-95044650D02*
X143728699Y-95145665D01*
X143728699Y-95145665D02*
X143728699Y-95213009D01*
X143728699Y-95213009D02*
X143762371Y-95314024D01*
X143762371Y-95314024D02*
X143863386Y-95415039D01*
X143324638Y-94876291D02*
X143796043Y-94404887D01*
X143661356Y-94539574D02*
X143695027Y-94438559D01*
X143695027Y-94438559D02*
X143695027Y-94371215D01*
X143695027Y-94371215D02*
X143661356Y-94270200D01*
X143661356Y-94270200D02*
X143594012Y-94202856D01*
X142886905Y-94438558D02*
X143358310Y-93967154D01*
X143594012Y-93731452D02*
X143594012Y-93798795D01*
X143594012Y-93798795D02*
X143526668Y-93798795D01*
X143526668Y-93798795D02*
X143526668Y-93731452D01*
X143526668Y-93731452D02*
X143594012Y-93731452D01*
X143594012Y-93731452D02*
X143526668Y-93798795D01*
X143122608Y-93731452D02*
X142853234Y-93462078D01*
X143257295Y-93394734D02*
X142651203Y-94000826D01*
X142651203Y-94000826D02*
X142550188Y-94034498D01*
X142550188Y-94034498D02*
X142449173Y-94000826D01*
X142449173Y-94000826D02*
X142381829Y-93933482D01*
X141910424Y-93394734D02*
X141944096Y-93495749D01*
X141944096Y-93495749D02*
X142078783Y-93630436D01*
X142078783Y-93630436D02*
X142179798Y-93664108D01*
X142179798Y-93664108D02*
X142280814Y-93630436D01*
X142280814Y-93630436D02*
X142550188Y-93361062D01*
X142550188Y-93361062D02*
X142583859Y-93260047D01*
X142583859Y-93260047D02*
X142550188Y-93159032D01*
X142550188Y-93159032D02*
X142415501Y-93024345D01*
X142415501Y-93024345D02*
X142314485Y-92990673D01*
X142314485Y-92990673D02*
X142213470Y-93024345D01*
X142213470Y-93024345D02*
X142146127Y-93091688D01*
X142146127Y-93091688D02*
X142415501Y-93495749D01*
X141068630Y-92552940D02*
X140933943Y-92485596D01*
X140933943Y-92485596D02*
X140765584Y-92317238D01*
X140765584Y-92317238D02*
X140731913Y-92216222D01*
X140731913Y-92216222D02*
X140731913Y-92148879D01*
X140731913Y-92148879D02*
X140765584Y-92047864D01*
X140765584Y-92047864D02*
X140832928Y-91980520D01*
X140832928Y-91980520D02*
X140933943Y-91946848D01*
X140933943Y-91946848D02*
X141001287Y-91946848D01*
X141001287Y-91946848D02*
X141102302Y-91980520D01*
X141102302Y-91980520D02*
X141270661Y-92081535D01*
X141270661Y-92081535D02*
X141371676Y-92115207D01*
X141371676Y-92115207D02*
X141439019Y-92115207D01*
X141439019Y-92115207D02*
X141540035Y-92081535D01*
X141540035Y-92081535D02*
X141607378Y-92014192D01*
X141607378Y-92014192D02*
X141641050Y-91913177D01*
X141641050Y-91913177D02*
X141641050Y-91845833D01*
X141641050Y-91845833D02*
X141607378Y-91744818D01*
X141607378Y-91744818D02*
X141439019Y-91576459D01*
X141439019Y-91576459D02*
X141304332Y-91509116D01*
X140327852Y-91879505D02*
X140799256Y-91408100D01*
X141034958Y-91172398D02*
X141034958Y-91239742D01*
X141034958Y-91239742D02*
X140967615Y-91239742D01*
X140967615Y-91239742D02*
X140967615Y-91172398D01*
X140967615Y-91172398D02*
X141034958Y-91172398D01*
X141034958Y-91172398D02*
X140967615Y-91239742D01*
X140529882Y-91138727D02*
X140159493Y-90768337D01*
X140159493Y-90768337D02*
X140058478Y-91610131D01*
X140058478Y-91610131D02*
X139688089Y-91239742D01*
X139183012Y-90667322D02*
X139216684Y-90768337D01*
X139216684Y-90768337D02*
X139351371Y-90903024D01*
X139351371Y-90903024D02*
X139452386Y-90936696D01*
X139452386Y-90936696D02*
X139553402Y-90903024D01*
X139553402Y-90903024D02*
X139822776Y-90633650D01*
X139822776Y-90633650D02*
X139856447Y-90532635D01*
X139856447Y-90532635D02*
X139822776Y-90431620D01*
X139822776Y-90431620D02*
X139688089Y-90296933D01*
X139688089Y-90296933D02*
X139587073Y-90263261D01*
X139587073Y-90263261D02*
X139486058Y-90296933D01*
X139486058Y-90296933D02*
X139418715Y-90364276D01*
X139418715Y-90364276D02*
X139688089Y-90768337D01*
D12*
X125255238Y-95962219D02*
X125064762Y-95962219D01*
X125064762Y-95962219D02*
X124969524Y-96009838D01*
X124969524Y-96009838D02*
X124874286Y-96105076D01*
X124874286Y-96105076D02*
X124826667Y-96295552D01*
X124826667Y-96295552D02*
X124826667Y-96628885D01*
X124826667Y-96628885D02*
X124874286Y-96819361D01*
X124874286Y-96819361D02*
X124969524Y-96914600D01*
X124969524Y-96914600D02*
X125064762Y-96962219D01*
X125064762Y-96962219D02*
X125255238Y-96962219D01*
X125255238Y-96962219D02*
X125350476Y-96914600D01*
X125350476Y-96914600D02*
X125445714Y-96819361D01*
X125445714Y-96819361D02*
X125493333Y-96628885D01*
X125493333Y-96628885D02*
X125493333Y-96295552D01*
X125493333Y-96295552D02*
X125445714Y-96105076D01*
X125445714Y-96105076D02*
X125350476Y-96009838D01*
X125350476Y-96009838D02*
X125255238Y-95962219D01*
X123969524Y-96295552D02*
X123969524Y-96962219D01*
X124398095Y-96295552D02*
X124398095Y-96819361D01*
X124398095Y-96819361D02*
X124350476Y-96914600D01*
X124350476Y-96914600D02*
X124255238Y-96962219D01*
X124255238Y-96962219D02*
X124112381Y-96962219D01*
X124112381Y-96962219D02*
X124017143Y-96914600D01*
X124017143Y-96914600D02*
X123969524Y-96866980D01*
X123636190Y-96295552D02*
X123255238Y-96295552D01*
X123493333Y-95962219D02*
X123493333Y-96819361D01*
X123493333Y-96819361D02*
X123445714Y-96914600D01*
X123445714Y-96914600D02*
X123350476Y-96962219D01*
X123350476Y-96962219D02*
X123255238Y-96962219D01*
X122969523Y-96914600D02*
X122874285Y-96962219D01*
X122874285Y-96962219D02*
X122683809Y-96962219D01*
X122683809Y-96962219D02*
X122588571Y-96914600D01*
X122588571Y-96914600D02*
X122540952Y-96819361D01*
X122540952Y-96819361D02*
X122540952Y-96771742D01*
X122540952Y-96771742D02*
X122588571Y-96676504D01*
X122588571Y-96676504D02*
X122683809Y-96628885D01*
X122683809Y-96628885D02*
X122826666Y-96628885D01*
X122826666Y-96628885D02*
X122921904Y-96581266D01*
X122921904Y-96581266D02*
X122969523Y-96486028D01*
X122969523Y-96486028D02*
X122969523Y-96438409D01*
X122969523Y-96438409D02*
X122921904Y-96343171D01*
X122921904Y-96343171D02*
X122826666Y-96295552D01*
X122826666Y-96295552D02*
X122683809Y-96295552D01*
X122683809Y-96295552D02*
X122588571Y-96343171D01*
X122112380Y-96962219D02*
X122112380Y-96295552D01*
X122112380Y-95962219D02*
X122159999Y-96009838D01*
X122159999Y-96009838D02*
X122112380Y-96057457D01*
X122112380Y-96057457D02*
X122064761Y-96009838D01*
X122064761Y-96009838D02*
X122112380Y-95962219D01*
X122112380Y-95962219D02*
X122112380Y-96057457D01*
X121207619Y-96962219D02*
X121207619Y-95962219D01*
X121207619Y-96914600D02*
X121302857Y-96962219D01*
X121302857Y-96962219D02*
X121493333Y-96962219D01*
X121493333Y-96962219D02*
X121588571Y-96914600D01*
X121588571Y-96914600D02*
X121636190Y-96866980D01*
X121636190Y-96866980D02*
X121683809Y-96771742D01*
X121683809Y-96771742D02*
X121683809Y-96486028D01*
X121683809Y-96486028D02*
X121636190Y-96390790D01*
X121636190Y-96390790D02*
X121588571Y-96343171D01*
X121588571Y-96343171D02*
X121493333Y-96295552D01*
X121493333Y-96295552D02*
X121302857Y-96295552D01*
X121302857Y-96295552D02*
X121207619Y-96343171D01*
X120350476Y-96914600D02*
X120445714Y-96962219D01*
X120445714Y-96962219D02*
X120636190Y-96962219D01*
X120636190Y-96962219D02*
X120731428Y-96914600D01*
X120731428Y-96914600D02*
X120779047Y-96819361D01*
X120779047Y-96819361D02*
X120779047Y-96438409D01*
X120779047Y-96438409D02*
X120731428Y-96343171D01*
X120731428Y-96343171D02*
X120636190Y-96295552D01*
X120636190Y-96295552D02*
X120445714Y-96295552D01*
X120445714Y-96295552D02*
X120350476Y-96343171D01*
X120350476Y-96343171D02*
X120302857Y-96438409D01*
X120302857Y-96438409D02*
X120302857Y-96533647D01*
X120302857Y-96533647D02*
X120779047Y-96628885D01*
X119874285Y-96866980D02*
X119826666Y-96914600D01*
X119826666Y-96914600D02*
X119874285Y-96962219D01*
X119874285Y-96962219D02*
X119921904Y-96914600D01*
X119921904Y-96914600D02*
X119874285Y-96866980D01*
X119874285Y-96866980D02*
X119874285Y-96962219D01*
X119874285Y-96343171D02*
X119826666Y-96390790D01*
X119826666Y-96390790D02*
X119874285Y-96438409D01*
X119874285Y-96438409D02*
X119921904Y-96390790D01*
X119921904Y-96390790D02*
X119874285Y-96343171D01*
X119874285Y-96343171D02*
X119874285Y-96438409D01*
D11*
%TO.C,J1*%
X144803333Y-102234819D02*
X144803333Y-102949104D01*
X144803333Y-102949104D02*
X144850952Y-103091961D01*
X144850952Y-103091961D02*
X144946190Y-103187200D01*
X144946190Y-103187200D02*
X145089047Y-103234819D01*
X145089047Y-103234819D02*
X145184285Y-103234819D01*
X143803333Y-103234819D02*
X144374761Y-103234819D01*
X144089047Y-103234819D02*
X144089047Y-102234819D01*
X144089047Y-102234819D02*
X144184285Y-102377676D01*
X144184285Y-102377676D02*
X144279523Y-102472914D01*
X144279523Y-102472914D02*
X144374761Y-102520533D01*
X139278500Y-99304819D02*
X139278500Y-99542914D01*
X139516595Y-99447676D02*
X139278500Y-99542914D01*
X139278500Y-99542914D02*
X139040405Y-99447676D01*
X139421357Y-99733390D02*
X139278500Y-99542914D01*
X139278500Y-99542914D02*
X139135643Y-99733390D01*
%TO.C,C6*%
X156290965Y-99995774D02*
X156290965Y-100063118D01*
X156290965Y-100063118D02*
X156358309Y-100197805D01*
X156358309Y-100197805D02*
X156425652Y-100265148D01*
X156425652Y-100265148D02*
X156560339Y-100332492D01*
X156560339Y-100332492D02*
X156695026Y-100332492D01*
X156695026Y-100332492D02*
X156796041Y-100298820D01*
X156796041Y-100298820D02*
X156964400Y-100197805D01*
X156964400Y-100197805D02*
X157065415Y-100096790D01*
X157065415Y-100096790D02*
X157166431Y-99928431D01*
X157166431Y-99928431D02*
X157200102Y-99827416D01*
X157200102Y-99827416D02*
X157200102Y-99692729D01*
X157200102Y-99692729D02*
X157132759Y-99558042D01*
X157132759Y-99558042D02*
X157065415Y-99490698D01*
X157065415Y-99490698D02*
X156930728Y-99423355D01*
X156930728Y-99423355D02*
X156863385Y-99423355D01*
X156324637Y-98749920D02*
X156459324Y-98884607D01*
X156459324Y-98884607D02*
X156492996Y-98985622D01*
X156492996Y-98985622D02*
X156492996Y-99052965D01*
X156492996Y-99052965D02*
X156459324Y-99221324D01*
X156459324Y-99221324D02*
X156358309Y-99389683D01*
X156358309Y-99389683D02*
X156088935Y-99659057D01*
X156088935Y-99659057D02*
X155987919Y-99692729D01*
X155987919Y-99692729D02*
X155920576Y-99692729D01*
X155920576Y-99692729D02*
X155819561Y-99659057D01*
X155819561Y-99659057D02*
X155684874Y-99524370D01*
X155684874Y-99524370D02*
X155651202Y-99423355D01*
X155651202Y-99423355D02*
X155651202Y-99356011D01*
X155651202Y-99356011D02*
X155684874Y-99254996D01*
X155684874Y-99254996D02*
X155853232Y-99086637D01*
X155853232Y-99086637D02*
X155954248Y-99052965D01*
X155954248Y-99052965D02*
X156021591Y-99052965D01*
X156021591Y-99052965D02*
X156122606Y-99086637D01*
X156122606Y-99086637D02*
X156257293Y-99221324D01*
X156257293Y-99221324D02*
X156290965Y-99322339D01*
X156290965Y-99322339D02*
X156290965Y-99389683D01*
X156290965Y-99389683D02*
X156257293Y-99490698D01*
%TO.C,C7*%
X159840047Y-95743709D02*
X159907391Y-95743709D01*
X159907391Y-95743709D02*
X160042078Y-95676365D01*
X160042078Y-95676365D02*
X160109421Y-95609022D01*
X160109421Y-95609022D02*
X160176765Y-95474335D01*
X160176765Y-95474335D02*
X160176765Y-95339648D01*
X160176765Y-95339648D02*
X160143093Y-95238633D01*
X160143093Y-95238633D02*
X160042078Y-95070274D01*
X160042078Y-95070274D02*
X159941063Y-94969259D01*
X159941063Y-94969259D02*
X159772704Y-94868243D01*
X159772704Y-94868243D02*
X159671689Y-94834572D01*
X159671689Y-94834572D02*
X159537002Y-94834572D01*
X159537002Y-94834572D02*
X159402315Y-94901915D01*
X159402315Y-94901915D02*
X159334971Y-94969259D01*
X159334971Y-94969259D02*
X159267628Y-95103946D01*
X159267628Y-95103946D02*
X159267628Y-95171289D01*
X158964582Y-95339648D02*
X158493177Y-95811052D01*
X158493177Y-95811052D02*
X159503330Y-96215113D01*
%TO.C,C4*%
X158214296Y-103729301D02*
X158214296Y-103796645D01*
X158214296Y-103796645D02*
X158281640Y-103931332D01*
X158281640Y-103931332D02*
X158348983Y-103998675D01*
X158348983Y-103998675D02*
X158483670Y-104066019D01*
X158483670Y-104066019D02*
X158618357Y-104066019D01*
X158618357Y-104066019D02*
X158719372Y-104032347D01*
X158719372Y-104032347D02*
X158887731Y-103931332D01*
X158887731Y-103931332D02*
X158988746Y-103830317D01*
X158988746Y-103830317D02*
X159089762Y-103661958D01*
X159089762Y-103661958D02*
X159123433Y-103560943D01*
X159123433Y-103560943D02*
X159123433Y-103426256D01*
X159123433Y-103426256D02*
X159056090Y-103291569D01*
X159056090Y-103291569D02*
X158988746Y-103224225D01*
X158988746Y-103224225D02*
X158854059Y-103156882D01*
X158854059Y-103156882D02*
X158786716Y-103156882D01*
X158012266Y-102719149D02*
X157540861Y-103190553D01*
X158449998Y-102618134D02*
X158113281Y-103291569D01*
X158113281Y-103291569D02*
X157675548Y-102853836D01*
%TO.C,C8*%
X175771163Y-94350708D02*
X175838507Y-94350708D01*
X175838507Y-94350708D02*
X175973194Y-94283364D01*
X175973194Y-94283364D02*
X176040537Y-94216021D01*
X176040537Y-94216021D02*
X176107881Y-94081334D01*
X176107881Y-94081334D02*
X176107881Y-93946647D01*
X176107881Y-93946647D02*
X176074209Y-93845632D01*
X176074209Y-93845632D02*
X175973194Y-93677273D01*
X175973194Y-93677273D02*
X175872179Y-93576258D01*
X175872179Y-93576258D02*
X175703820Y-93475242D01*
X175703820Y-93475242D02*
X175602805Y-93441571D01*
X175602805Y-93441571D02*
X175468118Y-93441571D01*
X175468118Y-93441571D02*
X175333431Y-93508914D01*
X175333431Y-93508914D02*
X175266087Y-93576258D01*
X175266087Y-93576258D02*
X175198744Y-93710945D01*
X175198744Y-93710945D02*
X175198744Y-93778288D01*
X175030385Y-94418051D02*
X175064057Y-94317036D01*
X175064057Y-94317036D02*
X175064057Y-94249693D01*
X175064057Y-94249693D02*
X175030385Y-94148677D01*
X175030385Y-94148677D02*
X174996713Y-94115006D01*
X174996713Y-94115006D02*
X174895698Y-94081334D01*
X174895698Y-94081334D02*
X174828354Y-94081334D01*
X174828354Y-94081334D02*
X174727339Y-94115006D01*
X174727339Y-94115006D02*
X174592652Y-94249693D01*
X174592652Y-94249693D02*
X174558980Y-94350708D01*
X174558980Y-94350708D02*
X174558980Y-94418051D01*
X174558980Y-94418051D02*
X174592652Y-94519067D01*
X174592652Y-94519067D02*
X174626324Y-94552738D01*
X174626324Y-94552738D02*
X174727339Y-94586410D01*
X174727339Y-94586410D02*
X174794683Y-94586410D01*
X174794683Y-94586410D02*
X174895698Y-94552738D01*
X174895698Y-94552738D02*
X175030385Y-94418051D01*
X175030385Y-94418051D02*
X175131400Y-94384380D01*
X175131400Y-94384380D02*
X175198744Y-94384380D01*
X175198744Y-94384380D02*
X175299759Y-94418051D01*
X175299759Y-94418051D02*
X175434446Y-94552738D01*
X175434446Y-94552738D02*
X175468118Y-94653754D01*
X175468118Y-94653754D02*
X175468118Y-94721097D01*
X175468118Y-94721097D02*
X175434446Y-94822112D01*
X175434446Y-94822112D02*
X175299759Y-94956799D01*
X175299759Y-94956799D02*
X175198744Y-94990471D01*
X175198744Y-94990471D02*
X175131400Y-94990471D01*
X175131400Y-94990471D02*
X175030385Y-94956799D01*
X175030385Y-94956799D02*
X174895698Y-94822112D01*
X174895698Y-94822112D02*
X174862026Y-94721097D01*
X174862026Y-94721097D02*
X174862026Y-94653754D01*
X174862026Y-94653754D02*
X174895698Y-94552738D01*
%TO.C,JP1*%
X176098035Y-85345872D02*
X175592959Y-85850948D01*
X175592959Y-85850948D02*
X175525616Y-85985635D01*
X175525616Y-85985635D02*
X175525616Y-86120322D01*
X175525616Y-86120322D02*
X175592959Y-86255009D01*
X175592959Y-86255009D02*
X175660303Y-86322353D01*
X175054211Y-85716261D02*
X175761318Y-85009154D01*
X175761318Y-85009154D02*
X175491944Y-84739780D01*
X175491944Y-84739780D02*
X175390928Y-84706109D01*
X175390928Y-84706109D02*
X175323585Y-84706109D01*
X175323585Y-84706109D02*
X175222570Y-84739780D01*
X175222570Y-84739780D02*
X175121554Y-84840796D01*
X175121554Y-84840796D02*
X175087883Y-84941811D01*
X175087883Y-84941811D02*
X175087883Y-85009154D01*
X175087883Y-85009154D02*
X175121554Y-85110170D01*
X175121554Y-85110170D02*
X175390928Y-85379544D01*
X173976715Y-84638765D02*
X174380776Y-85042826D01*
X174178745Y-84840796D02*
X174885852Y-84133689D01*
X174885852Y-84133689D02*
X174852180Y-84302048D01*
X174852180Y-84302048D02*
X174852180Y-84436735D01*
X174852180Y-84436735D02*
X174885852Y-84537750D01*
%TO.C,R2*%
X151189020Y-97524607D02*
X151761439Y-97423592D01*
X151593081Y-97928668D02*
X152300187Y-97221561D01*
X152300187Y-97221561D02*
X152030813Y-96952187D01*
X152030813Y-96952187D02*
X151929798Y-96918515D01*
X151929798Y-96918515D02*
X151862455Y-96918515D01*
X151862455Y-96918515D02*
X151761439Y-96952187D01*
X151761439Y-96952187D02*
X151660424Y-97053202D01*
X151660424Y-97053202D02*
X151626752Y-97154218D01*
X151626752Y-97154218D02*
X151626752Y-97221561D01*
X151626752Y-97221561D02*
X151660424Y-97322576D01*
X151660424Y-97322576D02*
X151929798Y-97591950D01*
X151559409Y-96615470D02*
X151559409Y-96548126D01*
X151559409Y-96548126D02*
X151525737Y-96447111D01*
X151525737Y-96447111D02*
X151357378Y-96278752D01*
X151357378Y-96278752D02*
X151256363Y-96245080D01*
X151256363Y-96245080D02*
X151189020Y-96245080D01*
X151189020Y-96245080D02*
X151088004Y-96278752D01*
X151088004Y-96278752D02*
X151020661Y-96346096D01*
X151020661Y-96346096D02*
X150953317Y-96480783D01*
X150953317Y-96480783D02*
X150953317Y-97288905D01*
X150953317Y-97288905D02*
X150515585Y-96851172D01*
%TO.C,FB3*%
X163013609Y-105087956D02*
X163249311Y-104852254D01*
X163619700Y-105222643D02*
X162912593Y-104515536D01*
X162912593Y-104515536D02*
X162575876Y-104852254D01*
X162407517Y-105694048D02*
X162340173Y-105828735D01*
X162340173Y-105828735D02*
X162340173Y-105896078D01*
X162340173Y-105896078D02*
X162373845Y-105997094D01*
X162373845Y-105997094D02*
X162474860Y-106098109D01*
X162474860Y-106098109D02*
X162575876Y-106131781D01*
X162575876Y-106131781D02*
X162643219Y-106131781D01*
X162643219Y-106131781D02*
X162744234Y-106098109D01*
X162744234Y-106098109D02*
X163013608Y-105828735D01*
X163013608Y-105828735D02*
X162306502Y-105121628D01*
X162306502Y-105121628D02*
X162070799Y-105357330D01*
X162070799Y-105357330D02*
X162037128Y-105458346D01*
X162037128Y-105458346D02*
X162037128Y-105525689D01*
X162037128Y-105525689D02*
X162070799Y-105626704D01*
X162070799Y-105626704D02*
X162138143Y-105694048D01*
X162138143Y-105694048D02*
X162239158Y-105727720D01*
X162239158Y-105727720D02*
X162306502Y-105727720D01*
X162306502Y-105727720D02*
X162407517Y-105694048D01*
X162407517Y-105694048D02*
X162643219Y-105458346D01*
X161666738Y-105761391D02*
X161229006Y-106199124D01*
X161229006Y-106199124D02*
X161734082Y-106232796D01*
X161734082Y-106232796D02*
X161633067Y-106333811D01*
X161633067Y-106333811D02*
X161599395Y-106434826D01*
X161599395Y-106434826D02*
X161599395Y-106502170D01*
X161599395Y-106502170D02*
X161633067Y-106603185D01*
X161633067Y-106603185D02*
X161801425Y-106771544D01*
X161801425Y-106771544D02*
X161902441Y-106805216D01*
X161902441Y-106805216D02*
X161969784Y-106805216D01*
X161969784Y-106805216D02*
X162070799Y-106771544D01*
X162070799Y-106771544D02*
X162272830Y-106569513D01*
X162272830Y-106569513D02*
X162306502Y-106468498D01*
X162306502Y-106468498D02*
X162306502Y-106401155D01*
%TO.C,R5*%
X170535463Y-97545820D02*
X171107882Y-97444805D01*
X170939524Y-97949881D02*
X171646630Y-97242774D01*
X171646630Y-97242774D02*
X171377256Y-96973400D01*
X171377256Y-96973400D02*
X171276241Y-96939728D01*
X171276241Y-96939728D02*
X171208898Y-96939728D01*
X171208898Y-96939728D02*
X171107882Y-96973400D01*
X171107882Y-96973400D02*
X171006867Y-97074415D01*
X171006867Y-97074415D02*
X170973195Y-97175431D01*
X170973195Y-97175431D02*
X170973195Y-97242774D01*
X170973195Y-97242774D02*
X171006867Y-97343789D01*
X171006867Y-97343789D02*
X171276241Y-97613163D01*
X170602806Y-96198950D02*
X170939524Y-96535667D01*
X170939524Y-96535667D02*
X170636478Y-96906057D01*
X170636478Y-96906057D02*
X170636478Y-96838713D01*
X170636478Y-96838713D02*
X170602806Y-96737698D01*
X170602806Y-96737698D02*
X170434447Y-96569339D01*
X170434447Y-96569339D02*
X170333432Y-96535667D01*
X170333432Y-96535667D02*
X170266089Y-96535667D01*
X170266089Y-96535667D02*
X170165073Y-96569339D01*
X170165073Y-96569339D02*
X169996715Y-96737698D01*
X169996715Y-96737698D02*
X169963043Y-96838713D01*
X169963043Y-96838713D02*
X169963043Y-96906057D01*
X169963043Y-96906057D02*
X169996715Y-97007072D01*
X169996715Y-97007072D02*
X170165073Y-97175431D01*
X170165073Y-97175431D02*
X170266089Y-97209102D01*
X170266089Y-97209102D02*
X170333432Y-97209102D01*
%TO.C,U4*%
X167413754Y-97210112D02*
X166841334Y-97782532D01*
X166841334Y-97782532D02*
X166740319Y-97816204D01*
X166740319Y-97816204D02*
X166672975Y-97816204D01*
X166672975Y-97816204D02*
X166571960Y-97782532D01*
X166571960Y-97782532D02*
X166437273Y-97647845D01*
X166437273Y-97647845D02*
X166403601Y-97546830D01*
X166403601Y-97546830D02*
X166403601Y-97479486D01*
X166403601Y-97479486D02*
X166437273Y-97378471D01*
X166437273Y-97378471D02*
X167009693Y-96806051D01*
X166134227Y-96401990D02*
X165662823Y-96873395D01*
X166571960Y-96300975D02*
X166235242Y-96974410D01*
X166235242Y-96974410D02*
X165797510Y-96536677D01*
%TO.C,R6*%
X177273934Y-89729932D02*
X177172919Y-89157513D01*
X177677995Y-89325871D02*
X176970888Y-88618765D01*
X176970888Y-88618765D02*
X176701514Y-88888139D01*
X176701514Y-88888139D02*
X176667842Y-88989154D01*
X176667842Y-88989154D02*
X176667842Y-89056497D01*
X176667842Y-89056497D02*
X176701514Y-89157513D01*
X176701514Y-89157513D02*
X176802529Y-89258528D01*
X176802529Y-89258528D02*
X176903545Y-89292200D01*
X176903545Y-89292200D02*
X176970888Y-89292200D01*
X176970888Y-89292200D02*
X177071903Y-89258528D01*
X177071903Y-89258528D02*
X177341277Y-88989154D01*
X175960736Y-89628917D02*
X176095423Y-89494230D01*
X176095423Y-89494230D02*
X176196438Y-89460558D01*
X176196438Y-89460558D02*
X176263781Y-89460558D01*
X176263781Y-89460558D02*
X176432140Y-89494230D01*
X176432140Y-89494230D02*
X176600499Y-89595245D01*
X176600499Y-89595245D02*
X176869873Y-89864619D01*
X176869873Y-89864619D02*
X176903545Y-89965635D01*
X176903545Y-89965635D02*
X176903545Y-90032978D01*
X176903545Y-90032978D02*
X176869873Y-90133993D01*
X176869873Y-90133993D02*
X176735186Y-90268680D01*
X176735186Y-90268680D02*
X176634171Y-90302352D01*
X176634171Y-90302352D02*
X176566827Y-90302352D01*
X176566827Y-90302352D02*
X176465812Y-90268680D01*
X176465812Y-90268680D02*
X176297453Y-90100322D01*
X176297453Y-90100322D02*
X176263781Y-89999306D01*
X176263781Y-89999306D02*
X176263781Y-89931963D01*
X176263781Y-89931963D02*
X176297453Y-89830948D01*
X176297453Y-89830948D02*
X176432140Y-89696261D01*
X176432140Y-89696261D02*
X176533155Y-89662589D01*
X176533155Y-89662589D02*
X176600499Y-89662589D01*
X176600499Y-89662589D02*
X176701514Y-89696261D01*
D10*
%TO.C,J1*%
X144081488Y-99215000D02*
X142557488Y-99850000D01*
X138398541Y-99510000D02*
X138658461Y-99510000D01*
X130253512Y-103819960D02*
X130253512Y-99510000D01*
X142303489Y-99510000D02*
X142303489Y-103819960D01*
X142557488Y-99850000D02*
X144081488Y-100485000D01*
X130253512Y-99510000D02*
X132658460Y-99510000D01*
X135398540Y-99510000D02*
X135658462Y-99510000D01*
X136898542Y-99510000D02*
X137158461Y-99510000D01*
X140938616Y-105950000D02*
X131618385Y-105950000D01*
X133898540Y-99510000D02*
X134158460Y-99510000D01*
X144081488Y-100485000D02*
X144081488Y-99215000D01*
X139898541Y-99510000D02*
X142303489Y-99510000D01*
D11*
%TO.C,U5*%
X174083833Y-89257479D02*
X171785736Y-86959382D01*
X171785736Y-91555576D02*
X169487639Y-89257479D01*
X169487639Y-89257479D02*
X169682093Y-89063025D01*
X171785736Y-86959382D02*
X171591282Y-87153836D01*
X171785736Y-91555576D02*
X171980190Y-91361122D01*
X173960089Y-89381223D02*
X174720229Y-90141362D01*
X174083833Y-89257479D02*
X173960089Y-89381223D01*
D10*
%TO.C,C6*%
X157379321Y-99027043D02*
X157009854Y-98657576D01*
X158418768Y-97987596D02*
X158049301Y-97618129D01*
%TO.C,C7*%
X160948438Y-97471410D02*
X161317905Y-97101943D01*
X159908991Y-96431963D02*
X160278458Y-96062496D01*
%TO.C,C4*%
X160342099Y-101749407D02*
X159972632Y-101379940D01*
X159302652Y-102788854D02*
X158933185Y-102419387D01*
%TO.C,C8*%
X173506655Y-92691368D02*
X173876122Y-92321901D01*
X174546102Y-93730815D02*
X174915569Y-93361348D01*
%TO.C,JP1*%
X172648405Y-86627042D02*
X173638355Y-87616992D01*
X173072670Y-85212828D02*
X172648405Y-85637093D01*
X174628304Y-87616992D02*
X175052569Y-87192727D01*
X175052569Y-86202778D02*
X174062619Y-85212828D01*
X174062618Y-85212829D02*
G75*
G03*
X173072670Y-85212828I-494974J-494974D01*
G01*
X175052569Y-87192727D02*
G75*
G03*
X175052569Y-86202778I-494974J494974D01*
G01*
X172648405Y-85637093D02*
G75*
G03*
X172648405Y-86627042I494975J-494974D01*
G01*
X173638356Y-87616991D02*
G75*
G03*
X174628303Y-87616991I494974J494973D01*
G01*
%TO.C,R2*%
X152552602Y-95512010D02*
X152888135Y-95847543D01*
X151813675Y-96250937D02*
X152149208Y-96586470D01*
%TO.C,FB3*%
X161868390Y-104707934D02*
X161532857Y-105043467D01*
X161129463Y-103969007D02*
X160793930Y-104304540D01*
%TO.C,R5*%
X168289264Y-95395337D02*
X168624797Y-95730870D01*
X169028191Y-94656410D02*
X169363724Y-94991943D01*
%TO.C,U4*%
X164854321Y-100947721D02*
X165914981Y-99887061D01*
X162577437Y-98670837D02*
X161516777Y-99731497D01*
X164854321Y-100947721D02*
X163793661Y-102008381D01*
X162577437Y-98670837D02*
X164645724Y-96602550D01*
%TO.C,R6*%
X175512017Y-87832828D02*
X175176484Y-88168361D01*
X176250944Y-88571755D02*
X175915411Y-88907288D01*
%TD*%
D13*
X189000000Y-135000000D02*
X110000000Y-135000000D01*
X110000000Y-124500000D02*
X99500000Y-124500000D01*
X110000000Y-45500000D02*
X110000000Y-35000000D01*
X189000000Y-45500000D02*
X199500000Y-45500000D01*
X99500000Y-124500000D02*
X99500000Y-45500000D01*
X199500000Y-124500000D02*
X189000000Y-124500000D01*
X110000000Y-35000000D02*
X189000000Y-35000000D01*
X199500000Y-45500000D02*
X199500000Y-124500000D01*
X189000000Y-124500000D02*
X189000000Y-135000000D01*
X99500000Y-45500000D02*
X110000000Y-45500000D01*
X189000000Y-35000000D02*
X189000000Y-45500000D01*
X110000000Y-135000000D02*
X110000000Y-124500000D01*
M02*
