%TF.GenerationSoftware,KiCad,Pcbnew,7.0.5*%
%TF.CreationDate,2023-06-21T14:57:04-07:00*%
%TF.ProjectId,solar-panel-side-Z,736f6c61-722d-4706-916e-656c2d736964,3.1*%
%TF.SameCoordinates,Original*%
%TF.FileFunction,Soldermask,Bot*%
%TF.FilePolarity,Negative*%
%FSLAX46Y46*%
G04 Gerber Fmt 4.6, Leading zero omitted, Abs format (unit mm)*
G04 Created by KiCad (PCBNEW 7.0.5) date 2023-06-21 14:57:04*
%MOMM*%
%LPD*%
G01*
G04 APERTURE LIST*
G04 Aperture macros list*
%AMRoundRect*
0 Rectangle with rounded corners*
0 $1 Rounding radius*
0 $2 $3 $4 $5 $6 $7 $8 $9 X,Y pos of 4 corners*
0 Add a 4 corners polygon primitive as box body*
4,1,4,$2,$3,$4,$5,$6,$7,$8,$9,$2,$3,0*
0 Add four circle primitives for the rounded corners*
1,1,$1+$1,$2,$3*
1,1,$1+$1,$4,$5*
1,1,$1+$1,$6,$7*
1,1,$1+$1,$8,$9*
0 Add four rect primitives between the rounded corners*
20,1,$1+$1,$2,$3,$4,$5,0*
20,1,$1+$1,$4,$5,$6,$7,0*
20,1,$1+$1,$6,$7,$8,$9,0*
20,1,$1+$1,$8,$9,$2,$3,0*%
%AMRotRect*
0 Rectangle, with rotation*
0 The origin of the aperture is its center*
0 $1 length*
0 $2 width*
0 $3 Rotation angle, in degrees counterclockwise*
0 Add horizontal line*
21,1,$1,$2,0,0,$3*%
%AMFreePoly0*
4,1,19,0.499999,-0.750000,0.000000,-0.750000,0.000000,-0.744912,-0.071157,-0.744911,-0.207708,-0.704816,-0.327430,-0.627875,-0.420627,-0.520320,-0.479746,-0.390866,-0.500000,-0.250000,-0.500000,0.250000,-0.479746,0.390866,-0.420627,0.520320,-0.327430,0.627875,-0.207708,0.704816,-0.071157,0.744911,0.000000,0.744912,0.000000,0.750000,0.499999,0.750000,0.499999,-0.750000,0.499999,-0.750000,
$1*%
%AMFreePoly1*
4,1,19,0.000000,0.744912,0.071157,0.744911,0.207708,0.704816,0.327430,0.627875,0.420627,0.520320,0.479746,0.390866,0.500000,0.250000,0.500000,-0.250000,0.479746,-0.390866,0.420627,-0.520320,0.327430,-0.627875,0.207708,-0.704816,0.071157,-0.744911,0.000000,-0.744912,0.000000,-0.750000,-0.499999,-0.750000,-0.499999,0.750000,0.000000,0.750000,0.000000,0.744912,0.000000,0.744912,
$1*%
G04 Aperture macros list end*
%ADD10C,5.250000*%
%ADD11R,0.600000X1.000000*%
%ADD12R,1.250000X1.800000*%
%ADD13RotRect,1.100000X0.250000X135.000000*%
%ADD14RoundRect,0.250000X0.512652X0.159099X0.159099X0.512652X-0.512652X-0.159099X-0.159099X-0.512652X0*%
%ADD15RoundRect,0.250000X0.159099X-0.512652X0.512652X-0.159099X-0.159099X0.512652X-0.512652X0.159099X0*%
%ADD16FreePoly0,135.000000*%
%ADD17FreePoly1,135.000000*%
%ADD18RoundRect,0.200000X-0.335876X-0.053033X-0.053033X-0.335876X0.335876X0.053033X0.053033X0.335876X0*%
%ADD19RoundRect,0.200000X-0.053033X0.335876X-0.335876X0.053033X0.053033X-0.335876X0.335876X-0.053033X0*%
%ADD20RoundRect,0.100000X0.433103X0.574524X-0.574524X-0.433103X-0.433103X-0.574524X0.574524X0.433103X0*%
%TA.AperFunction,Profile*%
%ADD21C,0.050000*%
%TD*%
G04 APERTURE END LIST*
D10*
%TO.C,J4*%
X110500000Y-85000000D03*
%TD*%
%TO.C,J5*%
X149500000Y-124000000D03*
%TD*%
%TO.C,J6*%
X149500000Y-46000000D03*
%TD*%
%TO.C,J7*%
X188500000Y-85000000D03*
%TD*%
D11*
%TO.C,J1*%
X139278501Y-99850000D03*
X137778501Y-99850000D03*
X136278502Y-99850000D03*
X134778500Y-99850000D03*
X133278500Y-99850000D03*
D12*
X141883500Y-105040000D03*
X130673502Y-105040000D03*
%TD*%
D13*
%TO.C,U5*%
X174013122Y-90070652D03*
X173659569Y-90424205D03*
X173306016Y-90777759D03*
X172952462Y-91131312D03*
X172598909Y-91484865D03*
X169558350Y-88444306D03*
X169911903Y-88090753D03*
X170265456Y-87737199D03*
X170619010Y-87383646D03*
X170972563Y-87030093D03*
%TD*%
D14*
%TO.C,C6*%
X158386062Y-98994337D03*
X157042560Y-97650835D03*
%TD*%
D15*
%TO.C,C7*%
X159941697Y-97438704D03*
X161285199Y-96095202D03*
%TD*%
D14*
%TO.C,C4*%
X160309393Y-102756148D03*
X158965891Y-101412646D03*
%TD*%
D15*
%TO.C,C8*%
X173539361Y-93698109D03*
X174882863Y-92354607D03*
%TD*%
D16*
%TO.C,JP1*%
X174310106Y-86874529D03*
D17*
X173390868Y-85955291D03*
%TD*%
D18*
%TO.C,R2*%
X151767542Y-95465877D03*
X152934268Y-96632603D03*
%TD*%
D19*
%TO.C,FB3*%
X161914523Y-103922874D03*
X160747797Y-105089600D03*
%TD*%
D18*
%TO.C,R5*%
X168243131Y-94610277D03*
X169409857Y-95777003D03*
%TD*%
D20*
%TO.C,U4*%
X164520213Y-97626087D03*
X164979832Y-98085706D03*
X165439452Y-98545326D03*
X165899071Y-99004945D03*
X162911545Y-101992471D03*
X162451926Y-101532852D03*
X161992306Y-101073232D03*
X161532687Y-100613613D03*
%TD*%
D19*
%TO.C,R6*%
X176297077Y-87786695D03*
X175130351Y-88953421D03*
%TD*%
D21*
X189000000Y-135000000D02*
X110000000Y-135000000D01*
X110000000Y-124500000D02*
X99500000Y-124500000D01*
X110000000Y-45500000D02*
X110000000Y-35000000D01*
X189000000Y-45500000D02*
X199500000Y-45500000D01*
X99500000Y-124500000D02*
X99500000Y-45500000D01*
X199500000Y-124500000D02*
X189000000Y-124500000D01*
X110000000Y-35000000D02*
X189000000Y-35000000D01*
X199500000Y-45500000D02*
X199500000Y-124500000D01*
X189000000Y-124500000D02*
X189000000Y-135000000D01*
X99500000Y-45500000D02*
X110000000Y-45500000D01*
X189000000Y-35000000D02*
X189000000Y-45500000D01*
X110000000Y-135000000D02*
X110000000Y-124500000D01*
M02*
