%TF.GenerationSoftware,KiCad,Pcbnew,7.0.5*%
%TF.CreationDate,2023-06-21T14:57:04-07:00*%
%TF.ProjectId,solar-panel-side-Z,736f6c61-722d-4706-916e-656c2d736964,3.1*%
%TF.SameCoordinates,Original*%
%TF.FileFunction,Soldermask,Top*%
%TF.FilePolarity,Negative*%
%FSLAX46Y46*%
G04 Gerber Fmt 4.6, Leading zero omitted, Abs format (unit mm)*
G04 Created by KiCad (PCBNEW 7.0.5) date 2023-06-21 14:57:04*
%MOMM*%
%LPD*%
G01*
G04 APERTURE LIST*
G04 Aperture macros list*
%AMRotRect*
0 Rectangle, with rotation*
0 The origin of the aperture is its center*
0 $1 length*
0 $2 width*
0 $3 Rotation angle, in degrees counterclockwise*
0 Add horizontal line*
21,1,$1,$2,0,0,$3*%
G04 Aperture macros list end*
%ADD10C,5.250000*%
%ADD11RotRect,13.000000X3.000000X45.000000*%
%ADD12RotRect,13.000000X3.000000X225.000000*%
%TA.AperFunction,Profile*%
%ADD13C,0.050000*%
%TD*%
G04 APERTURE END LIST*
D10*
%TO.C,J4*%
X110500000Y-85000000D03*
%TD*%
%TO.C,J5*%
X149500000Y-124000000D03*
%TD*%
%TO.C,J6*%
X149500000Y-46000000D03*
%TD*%
%TO.C,J7*%
X188500000Y-85000000D03*
%TD*%
D11*
%TO.C,SC5*%
X108537864Y-97657864D03*
X136822136Y-125942136D03*
%TD*%
%TO.C,SC3*%
X125000000Y-43980000D03*
X153284272Y-72264272D03*
%TD*%
D12*
%TO.C,SC4*%
X136824272Y-88734272D03*
X108540000Y-60450000D03*
%TD*%
D11*
%TO.C,SC6*%
X145755728Y-97665728D03*
X174040000Y-125950000D03*
%TD*%
D12*
%TO.C,SC2*%
X190462136Y-72342136D03*
X162177864Y-44057864D03*
%TD*%
%TO.C,SC1*%
X190480000Y-109480000D03*
X162195728Y-81195728D03*
%TD*%
G36*
X165643641Y-63758717D02*
G01*
X165686748Y-63786748D01*
X171012319Y-69112319D01*
X171045804Y-69173642D01*
X171040820Y-69243334D01*
X171012319Y-69287681D01*
X133787681Y-106512319D01*
X133726358Y-106545804D01*
X133656666Y-106540820D01*
X133612319Y-106512319D01*
X127888624Y-100788624D01*
X127855139Y-100727301D01*
X127860123Y-100657609D01*
X127889566Y-100612329D01*
X165512328Y-63785815D01*
X165574006Y-63752988D01*
X165643641Y-63758717D01*
G37*
D13*
X189000000Y-135000000D02*
X110000000Y-135000000D01*
X110000000Y-124500000D02*
X99500000Y-124500000D01*
X110000000Y-45500000D02*
X110000000Y-35000000D01*
X189000000Y-45500000D02*
X199500000Y-45500000D01*
X99500000Y-124500000D02*
X99500000Y-45500000D01*
X199500000Y-124500000D02*
X189000000Y-124500000D01*
X110000000Y-35000000D02*
X189000000Y-35000000D01*
X199500000Y-45500000D02*
X199500000Y-124500000D01*
X189000000Y-124500000D02*
X189000000Y-135000000D01*
X99500000Y-45500000D02*
X110000000Y-45500000D01*
X189000000Y-35000000D02*
X189000000Y-45500000D01*
X110000000Y-135000000D02*
X110000000Y-124500000D01*
M02*
