%TF.GenerationSoftware,KiCad,Pcbnew,9.0.0*%
%TF.CreationDate,2025-09-01T12:08:49-07:00*%
%TF.ProjectId,XY_Faces_V3,58595f46-6163-4657-935f-56332e6b6963,3.0*%
%TF.SameCoordinates,Original*%
%TF.FileFunction,Copper,L1,Top*%
%TF.FilePolarity,Positive*%
%FSLAX46Y46*%
G04 Gerber Fmt 4.6, Leading zero omitted, Abs format (unit mm)*
G04 Created by KiCad (PCBNEW 9.0.0) date 2025-09-01 12:08:49*
%MOMM*%
%LPD*%
G01*
G04 APERTURE LIST*
G04 Aperture macros list*
%AMRoundRect*
0 Rectangle with rounded corners*
0 $1 Rounding radius*
0 $2 $3 $4 $5 $6 $7 $8 $9 X,Y pos of 4 corners*
0 Add a 4 corners polygon primitive as box body*
4,1,4,$2,$3,$4,$5,$6,$7,$8,$9,$2,$3,0*
0 Add four circle primitives for the rounded corners*
1,1,$1+$1,$2,$3*
1,1,$1+$1,$4,$5*
1,1,$1+$1,$6,$7*
1,1,$1+$1,$8,$9*
0 Add four rect primitives between the rounded corners*
20,1,$1+$1,$2,$3,$4,$5,0*
20,1,$1+$1,$4,$5,$6,$7,0*
20,1,$1+$1,$6,$7,$8,$9,0*
20,1,$1+$1,$8,$9,$2,$3,0*%
G04 Aperture macros list end*
%TA.AperFunction,SMDPad,CuDef*%
%ADD10RoundRect,0.087500X-0.250000X-0.087500X0.250000X-0.087500X0.250000X0.087500X-0.250000X0.087500X0*%
%TD*%
%TA.AperFunction,ComponentPad*%
%ADD11C,5.700000*%
%TD*%
%TA.AperFunction,SMDPad,CuDef*%
%ADD12R,13.000000X3.000000*%
%TD*%
%TA.AperFunction,SMDPad,CuDef*%
%ADD13RoundRect,0.750000X0.750000X-0.750000X0.750000X0.750000X-0.750000X0.750000X-0.750000X-0.750000X0*%
%TD*%
%TA.AperFunction,SMDPad,CuDef*%
%ADD14R,2.500000X1.700000*%
%TD*%
%TA.AperFunction,SMDPad,CuDef*%
%ADD15O,1.690000X0.360000*%
%TD*%
%TA.AperFunction,SMDPad,CuDef*%
%ADD16RoundRect,0.225000X-0.225000X-0.250000X0.225000X-0.250000X0.225000X0.250000X-0.225000X0.250000X0*%
%TD*%
%TA.AperFunction,SMDPad,CuDef*%
%ADD17RoundRect,0.200000X0.275000X-0.200000X0.275000X0.200000X-0.275000X0.200000X-0.275000X-0.200000X0*%
%TD*%
%TA.AperFunction,SMDPad,CuDef*%
%ADD18RoundRect,0.225000X0.225000X0.250000X-0.225000X0.250000X-0.225000X-0.250000X0.225000X-0.250000X0*%
%TD*%
%TA.AperFunction,SMDPad,CuDef*%
%ADD19RoundRect,0.225000X-0.250000X0.225000X-0.250000X-0.225000X0.250000X-0.225000X0.250000X0.225000X0*%
%TD*%
%TA.AperFunction,SMDPad,CuDef*%
%ADD20RoundRect,0.250000X0.250000X0.475000X-0.250000X0.475000X-0.250000X-0.475000X0.250000X-0.475000X0*%
%TD*%
%TA.AperFunction,SMDPad,CuDef*%
%ADD21RoundRect,0.200000X-0.275000X0.200000X-0.275000X-0.200000X0.275000X-0.200000X0.275000X0.200000X0*%
%TD*%
%TA.AperFunction,SMDPad,CuDef*%
%ADD22R,0.700000X1.600000*%
%TD*%
%TA.AperFunction,SMDPad,CuDef*%
%ADD23RoundRect,0.200000X-0.200000X-0.275000X0.200000X-0.275000X0.200000X0.275000X-0.200000X0.275000X0*%
%TD*%
%TA.AperFunction,SMDPad,CuDef*%
%ADD24RoundRect,0.218750X0.218750X0.256250X-0.218750X0.256250X-0.218750X-0.256250X0.218750X-0.256250X0*%
%TD*%
%TA.AperFunction,SMDPad,CuDef*%
%ADD25RoundRect,0.075000X-0.650000X-0.075000X0.650000X-0.075000X0.650000X0.075000X-0.650000X0.075000X0*%
%TD*%
%TA.AperFunction,ComponentPad*%
%ADD26RoundRect,0.250000X0.350000X0.575000X-0.350000X0.575000X-0.350000X-0.575000X0.350000X-0.575000X0*%
%TD*%
%TA.AperFunction,ComponentPad*%
%ADD27O,1.200000X1.650000*%
%TD*%
%TA.AperFunction,ViaPad*%
%ADD28C,0.800000*%
%TD*%
%TA.AperFunction,Conductor*%
%ADD29C,0.250000*%
%TD*%
%TA.AperFunction,Conductor*%
%ADD30C,1.000000*%
%TD*%
%TA.AperFunction,Conductor*%
%ADD31C,0.500000*%
%TD*%
G04 APERTURE END LIST*
D10*
%TO.P,U2,1,SCL*%
%TO.N,/SCL*%
X154537500Y-115500000D03*
%TO.P,U2,2,GND*%
%TO.N,GND*%
X154537500Y-116000000D03*
%TO.P,U2,3,ALERT*%
X154537500Y-116500000D03*
%TO.P,U2,4,ADD0*%
X155962500Y-116500000D03*
%TO.P,U2,5,V+*%
%TO.N,+3V3*%
X155962500Y-116000000D03*
%TO.P,U2,6,SDA*%
%TO.N,/SDA*%
X155962500Y-115500000D03*
%TD*%
D11*
%TO.P,J2,1,Pin_1*%
%TO.N,unconnected-(J2-Pin_1-Pad1)*%
X106500000Y-70300000D03*
%TD*%
%TO.P,J3,1,Pin_1*%
%TO.N,unconnected-(J3-Pin_1-Pad1)*%
X106500000Y-159300000D03*
%TD*%
%TO.P,J4,1,Pin_1*%
%TO.N,unconnected-(J4-Pin_1-Pad1)*%
X182500000Y-70300000D03*
%TD*%
%TO.P,J5,1,Pin_1*%
%TO.N,unconnected-(J5-Pin_1-Pad1)*%
X182500000Y-159300000D03*
%TD*%
D12*
%TO.P,SC5,1,+*%
%TO.N,Net-(D3-A)*%
X167860000Y-67570000D03*
%TO.P,SC5,2,-*%
%TO.N,Net-(SC5--)*%
X167860000Y-107570000D03*
%TD*%
D13*
%TO.P,TP1,1,1*%
%TO.N,VSOLAR*%
X118370000Y-112450000D03*
%TD*%
D14*
%TO.P,D3,1,K*%
%TO.N,VSOLAR*%
X126400000Y-118000000D03*
%TO.P,D3,2,A*%
%TO.N,Net-(D3-A)*%
X130400000Y-118000000D03*
%TD*%
D15*
%TO.P,U4,1,EN*%
%TO.N,Net-(U4-EN)*%
X135350000Y-110270000D03*
%TO.P,U4,2,SCLOUT*%
%TO.N,/SCL*%
X135350000Y-110930000D03*
%TO.P,U4,3,SCLIN*%
%TO.N,SCLIN*%
X135350000Y-111580000D03*
%TO.P,U4,4,GND*%
%TO.N,GND*%
X135350000Y-112230000D03*
%TO.P,U4,5,READY*%
%TO.N,Net-(U4-READY)*%
X139650000Y-112230000D03*
%TO.P,U4,6,SDAIN*%
%TO.N,SDAIN*%
X139650000Y-111580000D03*
%TO.P,U4,7,SDAOUT*%
%TO.N,/SDA*%
X139650000Y-110930000D03*
%TO.P,U4,8,VCC*%
%TO.N,+3V3*%
X139650000Y-110270000D03*
%TD*%
D16*
%TO.P,C6,1*%
%TO.N,GND*%
X136475000Y-113750000D03*
%TO.P,C6,2*%
%TO.N,+3V3*%
X138025000Y-113750000D03*
%TD*%
D13*
%TO.P,TP2,1,1*%
%TO.N,GND*%
X118360000Y-117050000D03*
%TD*%
D14*
%TO.P,D1,1,K*%
%TO.N,VSOLAR*%
X126360000Y-111540000D03*
%TO.P,D1,2,A*%
%TO.N,Net-(D1-A)*%
X130360000Y-111540000D03*
%TD*%
D12*
%TO.P,SC3,1,+*%
%TO.N,Net-(D2-A)*%
X144490000Y-67570000D03*
%TO.P,SC3,2,-*%
%TO.N,Net-(SC3--)*%
X144490000Y-107570000D03*
%TD*%
D17*
%TO.P,R2,1*%
%TO.N,+3V3*%
X134500000Y-115825000D03*
%TO.P,R2,2*%
%TO.N,Net-(U4-EN)*%
X134500000Y-114175000D03*
%TD*%
D12*
%TO.P,SC4,1,+*%
%TO.N,Net-(SC3--)*%
X144450000Y-121940000D03*
%TO.P,SC4,2,-*%
%TO.N,GND*%
X144450000Y-161940000D03*
%TD*%
%TO.P,SC2,1,+*%
%TO.N,Net-(SC1--)*%
X121120000Y-121920000D03*
%TO.P,SC2,2,-*%
%TO.N,GND*%
X121120000Y-161920000D03*
%TD*%
D18*
%TO.P,C4,1*%
%TO.N,+3V3*%
X147775000Y-111000000D03*
%TO.P,C4,2*%
%TO.N,GND*%
X146225000Y-111000000D03*
%TD*%
D14*
%TO.P,D2,1,K*%
%TO.N,VSOLAR*%
X126360000Y-114750000D03*
%TO.P,D2,2,A*%
%TO.N,Net-(D2-A)*%
X130360000Y-114750000D03*
%TD*%
D12*
%TO.P,SC6,1,+*%
%TO.N,Net-(SC5--)*%
X167850000Y-121950000D03*
%TO.P,SC6,2,-*%
%TO.N,GND*%
X167850000Y-161950000D03*
%TD*%
D19*
%TO.P,C2,1*%
%TO.N,+3V3*%
X157250000Y-116500000D03*
%TO.P,C2,2*%
%TO.N,GND*%
X157250000Y-118050000D03*
%TD*%
D20*
%TO.P,C5,1*%
%TO.N,Net-(U3-REG)*%
X159050000Y-111500000D03*
%TO.P,C5,2*%
%TO.N,GND*%
X157150000Y-111500000D03*
%TD*%
D21*
%TO.P,R4,1*%
%TO.N,Net-(U4-READY)*%
X139750000Y-113675000D03*
%TO.P,R4,2*%
%TO.N,+3V3*%
X139750000Y-115325000D03*
%TD*%
D22*
%TO.P,U1,1,SCL*%
%TO.N,/SCL*%
X150595000Y-113150001D03*
%TO.P,U1,2,VDD*%
%TO.N,+3V3*%
X151865000Y-113150000D03*
%TO.P,U1,3,GND*%
%TO.N,GND*%
X153135000Y-113150000D03*
%TO.P,U1,4,SDA*%
%TO.N,/SDA*%
X154405000Y-113150001D03*
%TD*%
D23*
%TO.P,R6,1*%
%TO.N,/SDA*%
X152675000Y-109750000D03*
%TO.P,R6,2*%
%TO.N,+3V3*%
X154325000Y-109750000D03*
%TD*%
%TO.P,R5,1*%
%TO.N,/SCL*%
X158175000Y-109750000D03*
%TO.P,R5,2*%
%TO.N,+3V3*%
X159825000Y-109750000D03*
%TD*%
D18*
%TO.P,C3,1*%
%TO.N,+3V3*%
X163175000Y-111500000D03*
%TO.P,C3,2*%
%TO.N,GND*%
X161625000Y-111500000D03*
%TD*%
D24*
%TO.P,D4,1,K*%
%TO.N,GND*%
X145250000Y-118000000D03*
%TO.P,D4,2,A*%
%TO.N,Net-(D4-A)*%
X143674998Y-118000000D03*
%TD*%
D12*
%TO.P,SC1,1,+*%
%TO.N,Net-(D1-A)*%
X121090000Y-67570000D03*
%TO.P,SC1,2,-*%
%TO.N,Net-(SC1--)*%
X121090000Y-107570000D03*
%TD*%
D23*
%TO.P,R1,1*%
%TO.N,+3V3*%
X140425000Y-118000000D03*
%TO.P,R1,2*%
%TO.N,Net-(D4-A)*%
X142075000Y-118000000D03*
%TD*%
D25*
%TO.P,U3,1,REG*%
%TO.N,Net-(U3-REG)*%
X158980000Y-113350000D03*
%TO.P,U3,2,SCL*%
%TO.N,/SCL*%
X158980000Y-113850000D03*
%TO.P,U3,3,SDA*%
%TO.N,/SDA*%
X158980000Y-114350000D03*
%TO.P,U3,4,IN/TRIG*%
%TO.N,GND*%
X158980000Y-114850000D03*
%TO.P,U3,5,EN*%
%TO.N,+3V3*%
X158980000Y-115350000D03*
%TO.P,U3,6,VDD/NC*%
%TO.N,unconnected-(U3-VDD{slash}NC-Pad6)*%
X163380000Y-115350000D03*
%TO.P,U3,7,OUT+*%
%TO.N,Net-(U3-OUT+)*%
X163380000Y-114850000D03*
%TO.P,U3,8,GND*%
%TO.N,GND*%
X163380000Y-114350000D03*
%TO.P,U3,9,OUT-*%
%TO.N,Net-(U3-OUT+)*%
X163380000Y-113850000D03*
%TO.P,U3,10,VDD*%
%TO.N,+3V3*%
X163380000Y-113350000D03*
%TD*%
D26*
%TO.P,CN1,1,Pin_1*%
%TO.N,GND*%
X146500001Y-113750001D03*
D27*
%TO.P,CN1,2,Pin_2*%
%TO.N,SDAIN*%
X146500001Y-115750002D03*
%TO.P,CN1,3,Pin_3*%
%TO.N,VSOLAR*%
X144500000Y-113750001D03*
%TO.P,CN1,4,Pin_4*%
%TO.N,+3V3*%
X144500001Y-115750001D03*
%TO.P,CN1,5,Pin_5*%
%TO.N,VSOLAR*%
X142500001Y-113750001D03*
%TO.P,CN1,6,Pin_6*%
%TO.N,SCLIN*%
X142500000Y-115750001D03*
%TD*%
D28*
%TO.N,+3V3*%
X145200000Y-125100000D03*
%TO.N,GND*%
X145272182Y-103027818D03*
X143800000Y-126000000D03*
%TO.N,+3V3*%
X143700000Y-103300000D03*
X145200000Y-126100000D03*
X143700000Y-102100000D03*
%TO.N,VSOLAR*%
X148200000Y-102600000D03*
X146400000Y-102600000D03*
%TO.N,SCLIN*%
X142300000Y-102100000D03*
%TO.N,GND*%
X153500000Y-116000000D03*
X154500000Y-117250000D03*
X146112347Y-118387653D03*
X153250000Y-111750000D03*
X169300000Y-159860000D03*
X160825000Y-112900000D03*
X157100000Y-110000000D03*
X144520000Y-159900000D03*
X119500000Y-159800000D03*
X167920000Y-159860000D03*
X144750000Y-111000000D03*
X142900000Y-159900000D03*
X166300000Y-159860000D03*
X145900000Y-159900000D03*
X135015253Y-113208948D03*
X121120000Y-159800000D03*
X124150000Y-116450000D03*
X122500000Y-159800000D03*
X160750000Y-114500000D03*
%TO.N,+3V3*%
X150250000Y-111000000D03*
X163300000Y-116900000D03*
X138227388Y-110744462D03*
X135750000Y-115750000D03*
X140346149Y-114850001D03*
X160750000Y-109750000D03*
X158775000Y-116900000D03*
X155500000Y-109750000D03*
%TO.N,VSOLAR*%
X124500000Y-114750000D03*
X124500000Y-111500000D03*
X124500000Y-118000000D03*
%TO.N,/SDA*%
X157165885Y-115284647D03*
X156250000Y-113750000D03*
%TO.N,/SCL*%
X148508348Y-112272245D03*
X143496487Y-110201487D03*
%TO.N,Net-(SC3--)*%
X137250000Y-123000000D03*
X136250000Y-109000000D03*
X137250000Y-108000000D03*
X137250000Y-121000000D03*
%TO.N,Net-(U3-OUT+)*%
X161890000Y-115330000D03*
X174680000Y-141950000D03*
X161820000Y-113350000D03*
X164800000Y-127190000D03*
X174900000Y-87350000D03*
%TD*%
D29*
%TO.N,+3V3*%
X140346149Y-114850001D02*
X139871150Y-115325000D01*
X139871150Y-115325000D02*
X139750000Y-115325000D01*
X158980000Y-115350000D02*
X158400000Y-115350000D01*
X158400000Y-115350000D02*
X157250000Y-116500000D01*
X158980000Y-115350000D02*
X160320000Y-115350000D01*
X160320000Y-115350000D02*
X161140000Y-116170000D01*
X158775000Y-116900000D02*
X158775000Y-115555000D01*
X158775000Y-115555000D02*
X158980000Y-115350000D01*
X161140000Y-116170000D02*
X163250000Y-116170000D01*
X163300000Y-116900000D02*
X163300000Y-116220000D01*
X163300000Y-116220000D02*
X163250000Y-116170000D01*
%TO.N,GND*%
X154537500Y-116000000D02*
X153500000Y-116000000D01*
X154537500Y-117212500D02*
X154500000Y-117250000D01*
X154537500Y-116500000D02*
X154537500Y-117212500D01*
X154537500Y-116500000D02*
X155962500Y-116500000D01*
X154537500Y-116500000D02*
X154537500Y-116000000D01*
X157250000Y-118050000D02*
X157250000Y-117787500D01*
X157250000Y-117787500D02*
X155962500Y-116500000D01*
%TO.N,+3V3*%
X155962500Y-116000000D02*
X156750000Y-116000000D01*
X156750000Y-116000000D02*
X157250000Y-116500000D01*
%TO.N,GND*%
X145724694Y-118000000D02*
X146112347Y-118387653D01*
X145250000Y-118000000D02*
X145724694Y-118000000D01*
%TO.N,Net-(D4-A)*%
X142075000Y-118000000D02*
X143674998Y-118000000D01*
%TO.N,+3V3*%
X144500001Y-115750001D02*
X143051002Y-117199000D01*
X143051002Y-117199000D02*
X141226000Y-117199000D01*
X141226000Y-117199000D02*
X140425000Y-118000000D01*
%TO.N,/SCL*%
X154500000Y-114587613D02*
X156837613Y-114587613D01*
X154500000Y-114587613D02*
X154500000Y-115462500D01*
X154500000Y-115462500D02*
X154537500Y-115500000D01*
%TO.N,/SDA*%
X157165885Y-115284647D02*
X156177853Y-115284647D01*
X156177853Y-115284647D02*
X155962500Y-115500000D01*
%TO.N,GND*%
X146050001Y-111000000D02*
X144750000Y-111000000D01*
X135015253Y-113084747D02*
X135350000Y-112750000D01*
X160750000Y-112975000D02*
X160825000Y-112900000D01*
D30*
X121120000Y-161920000D02*
X121120000Y-159800000D01*
X119500000Y-159800000D02*
X119500000Y-160300000D01*
D29*
X135015253Y-113208948D02*
X135015253Y-113084747D01*
X135350000Y-112230000D02*
X135350000Y-112750000D01*
X160900000Y-114350000D02*
X160750000Y-114500000D01*
X153135000Y-111865000D02*
X153250000Y-111750000D01*
X158980000Y-114850000D02*
X160400000Y-114850000D01*
X153135000Y-113150000D02*
X153135000Y-111865000D01*
D30*
X144520000Y-162020000D02*
X144520000Y-159900000D01*
X122500000Y-159800000D02*
X122500000Y-160540000D01*
D29*
X160750000Y-114500000D02*
X160750000Y-112975000D01*
X161450001Y-111500000D02*
X161450001Y-112274999D01*
X157100000Y-110000000D02*
X157150000Y-110050000D01*
X160400000Y-114850000D02*
X160750000Y-114500000D01*
X157150000Y-110050000D02*
X157150000Y-111450000D01*
D30*
X145900000Y-160640000D02*
X144520000Y-162020000D01*
X169300000Y-159860000D02*
X169300000Y-160600000D01*
D29*
X135350000Y-112750000D02*
X135350000Y-112799999D01*
D30*
X145900000Y-159900000D02*
X145900000Y-160640000D01*
D29*
X135350000Y-112799999D02*
X136300001Y-113750000D01*
X163380000Y-114350000D02*
X160900000Y-114350000D01*
D30*
X142900000Y-159900000D02*
X142900000Y-160400000D01*
D31*
X118360000Y-117050000D02*
X123550000Y-117050000D01*
D30*
X167920000Y-161980000D02*
X167920000Y-159860000D01*
D29*
X161450001Y-112274999D02*
X160825000Y-112900000D01*
D31*
X123550000Y-117050000D02*
X124150000Y-116450000D01*
D29*
%TO.N,+3V3*%
X159825000Y-109750000D02*
X160750000Y-109750000D01*
X139650000Y-110270000D02*
X138701850Y-110270000D01*
X151865000Y-113150000D02*
X151865000Y-112618001D01*
X138227388Y-113722611D02*
X138199999Y-113750000D01*
X163230000Y-116970000D02*
X163300000Y-116900000D01*
X150246999Y-111000000D02*
X147949999Y-111000000D01*
X138701850Y-110270000D02*
X138227388Y-110744462D01*
X138227388Y-110744462D02*
X138227388Y-113722611D01*
X135675000Y-115825000D02*
X135750000Y-115750000D01*
X154325000Y-109750000D02*
X155500000Y-109750000D01*
X134500000Y-115825000D02*
X135675000Y-115825000D01*
X151865000Y-112618001D02*
X150246999Y-111000000D01*
D30*
%TO.N,VSOLAR*%
X126320000Y-111500000D02*
X126360000Y-111540000D01*
D31*
X126360000Y-117960000D02*
X126400000Y-118000000D01*
D30*
X124500000Y-118000000D02*
X126400000Y-118000000D01*
D31*
X126360000Y-111540000D02*
X126360000Y-117960000D01*
X118370000Y-112450000D02*
X119280000Y-111540000D01*
D30*
X124500000Y-114750000D02*
X126360000Y-114750000D01*
D31*
X119280000Y-111540000D02*
X126360000Y-111540000D01*
D30*
X124500000Y-111500000D02*
X126320000Y-111500000D01*
D29*
%TO.N,+3V3*%
X163250000Y-116170000D02*
X164130000Y-116170000D01*
X164450000Y-113350000D02*
X163380000Y-113350000D01*
X164600000Y-113500000D02*
X164450000Y-113350000D01*
X163380000Y-113350000D02*
X163380000Y-111410000D01*
X164130000Y-116170000D02*
X164600000Y-115700000D01*
X164600000Y-115700000D02*
X164600000Y-113500000D01*
%TO.N,Net-(U3-REG)*%
X158980000Y-113350000D02*
X158980000Y-111570000D01*
X158980000Y-111570000D02*
X159050000Y-111500000D01*
D30*
%TO.N,Net-(D1-A)*%
X128500000Y-109680000D02*
X130360000Y-111540000D01*
X121090000Y-67570000D02*
X128500000Y-74980000D01*
X128500000Y-74980000D02*
X128500000Y-109680000D01*
%TO.N,Net-(D2-A)*%
X131060000Y-109060000D02*
X132349000Y-110349000D01*
X144490000Y-67570000D02*
X140260000Y-71800000D01*
X131060000Y-77740000D02*
X131060000Y-109060000D01*
X140260000Y-71800000D02*
X137000000Y-71800000D01*
X132349000Y-110349000D02*
X132349000Y-112761000D01*
X132349000Y-112761000D02*
X130360000Y-114750000D01*
X137000000Y-71800000D02*
X131060000Y-77740000D01*
D29*
%TO.N,/SDA*%
X157723812Y-114350000D02*
X157286906Y-114786906D01*
X139650000Y-110930000D02*
X143793280Y-110930000D01*
X156250000Y-113750000D02*
X155004999Y-113750000D01*
X154405000Y-111878280D02*
X154405000Y-113150001D01*
X152475720Y-109949000D02*
X154405000Y-111878280D01*
X157165885Y-114907927D02*
X157165885Y-115284647D01*
X143793280Y-110930000D02*
X144774280Y-109949000D01*
X144774280Y-109949000D02*
X152475720Y-109949000D01*
X158980000Y-114350000D02*
X157723812Y-114350000D01*
X157286906Y-114786906D02*
X157165885Y-114907927D01*
X155004999Y-113750000D02*
X154405000Y-113150001D01*
%TO.N,/SCL*%
X150595000Y-113682000D02*
X151500613Y-114587613D01*
X157750000Y-113850000D02*
X157575226Y-113850000D01*
X158175000Y-112269514D02*
X157750000Y-112694514D01*
X135350000Y-110930000D02*
X136969408Y-110930000D01*
X157750000Y-112694514D02*
X157750000Y-113850000D01*
X148508348Y-112272245D02*
X149717244Y-112272245D01*
X136969408Y-110930000D02*
X138399408Y-109500000D01*
X151500613Y-114587613D02*
X154500000Y-114587613D01*
X159125000Y-113850000D02*
X157750000Y-113850000D01*
X149717244Y-112272245D02*
X150595000Y-113150001D01*
X150595000Y-113150001D02*
X150595000Y-113682000D01*
X158175000Y-109750000D02*
X158175000Y-112269514D01*
X157575226Y-113850000D02*
X156837613Y-114587613D01*
X138399408Y-109500000D02*
X142795000Y-109500000D01*
X142795000Y-109500000D02*
X143496487Y-110201487D01*
D30*
%TO.N,Net-(D3-A)*%
X152600000Y-105200000D02*
X167860000Y-89940000D01*
X135050000Y-105200000D02*
X152600000Y-105200000D01*
X167860000Y-89940000D02*
X167860000Y-67570000D01*
X135050000Y-105200000D02*
X133300000Y-106950000D01*
D31*
X133300000Y-116610000D02*
X131910000Y-118000000D01*
X133300000Y-106950000D02*
X133300000Y-116610000D01*
X131910000Y-118000000D02*
X130400000Y-118000000D01*
D30*
%TO.N,Net-(SC1--)*%
X115500000Y-118500000D02*
X118920000Y-121920000D01*
X118920000Y-121920000D02*
X121120000Y-121920000D01*
X115500000Y-111633987D02*
X115500000Y-118500000D01*
X119563987Y-107570000D02*
X115500000Y-111633987D01*
X121090000Y-107570000D02*
X119563987Y-107570000D01*
%TO.N,Net-(SC3--)*%
X137250000Y-123000000D02*
X143390000Y-123000000D01*
X143390000Y-123000000D02*
X144450000Y-121940000D01*
X137680000Y-107570000D02*
X136250000Y-109000000D01*
X143510000Y-121000000D02*
X144450000Y-121940000D01*
X137250000Y-121000000D02*
X143510000Y-121000000D01*
X144490000Y-107570000D02*
X137680000Y-107570000D01*
%TO.N,Net-(SC5--)*%
X167860000Y-107570000D02*
X167860000Y-121940000D01*
X167860000Y-121940000D02*
X167850000Y-121950000D01*
D29*
%TO.N,Net-(U3-OUT+)*%
X163380000Y-114850000D02*
X162370000Y-114850000D01*
X162320000Y-113850000D02*
X161820000Y-113350000D01*
X162370000Y-114850000D02*
X161890000Y-115330000D01*
X163380000Y-113850000D02*
X162320000Y-113850000D01*
%TO.N,SCLIN*%
X136330000Y-111580000D02*
X137250000Y-112500000D01*
X135350000Y-111580000D02*
X136330000Y-111580000D01*
X137250000Y-112500000D02*
X137250000Y-114500000D01*
X142000001Y-116250000D02*
X142500000Y-115750001D01*
X137250000Y-114500000D02*
X139000000Y-116250000D01*
X139000000Y-116250000D02*
X142000001Y-116250000D01*
%TO.N,SDAIN*%
X144080000Y-111580000D02*
X145574001Y-113074001D01*
X145574001Y-114824002D02*
X146500001Y-115750002D01*
X139650000Y-111580000D02*
X144080000Y-111580000D01*
X145574001Y-113074001D02*
X145574001Y-114824002D01*
%TO.N,Net-(U4-EN)*%
X134000000Y-113675000D02*
X134500000Y-114175000D01*
X135350000Y-110270000D02*
X134629408Y-110270000D01*
X134629408Y-110270000D02*
X134000000Y-110899408D01*
X134000000Y-110899408D02*
X134000000Y-113675000D01*
%TO.N,Net-(U4-READY)*%
X139650000Y-112230000D02*
X139650000Y-113575000D01*
X139650000Y-113575000D02*
X139750000Y-113675000D01*
D30*
%TO.N,GND*%
X166300000Y-159860000D02*
X166300000Y-160360000D01*
%TD*%
%TA.AperFunction,NonConductor*%
G36*
X155055901Y-89219685D02*
G01*
X155101656Y-89272489D01*
X155112862Y-89324000D01*
X155112862Y-97276000D01*
X155093177Y-97343039D01*
X155040373Y-97388794D01*
X154988862Y-97400000D01*
X154900000Y-97400000D01*
X133924000Y-97400000D01*
X133856961Y-97380315D01*
X133811206Y-97327511D01*
X133800000Y-97276000D01*
X133800000Y-89324000D01*
X133819685Y-89256961D01*
X133872489Y-89211206D01*
X133924000Y-89200000D01*
X154988862Y-89200000D01*
X155055901Y-89219685D01*
G37*
%TD.AperFunction*%
%TA.AperFunction,Conductor*%
%TO.N,+3V3*%
G36*
X160737874Y-105797297D02*
G01*
X160805937Y-105817491D01*
X160852279Y-105871277D01*
X160862186Y-105941579D01*
X160859257Y-105952998D01*
X160859823Y-105953132D01*
X160858009Y-105960803D01*
X160851500Y-106021350D01*
X160851500Y-109021669D01*
X160831498Y-109089790D01*
X160777842Y-109136283D01*
X160707568Y-109146387D01*
X160642988Y-109116893D01*
X160617671Y-109086853D01*
X160586421Y-109035160D01*
X160586413Y-109035149D01*
X160464850Y-108913586D01*
X160464840Y-108913578D01*
X160317706Y-108824633D01*
X160153552Y-108773481D01*
X160082223Y-108767000D01*
X160079000Y-108767000D01*
X160079000Y-109496000D01*
X160732999Y-109496000D01*
X160732999Y-109459515D01*
X160753001Y-109391394D01*
X160806657Y-109344901D01*
X160876931Y-109334797D01*
X160941511Y-109364291D01*
X160959867Y-109384006D01*
X160996738Y-109433261D01*
X161113792Y-109520887D01*
X161113794Y-109520888D01*
X161113796Y-109520889D01*
X161168678Y-109541359D01*
X161250795Y-109571988D01*
X161250803Y-109571990D01*
X161311350Y-109578499D01*
X161311355Y-109578499D01*
X161311362Y-109578500D01*
X166725500Y-109578500D01*
X166793621Y-109598502D01*
X166840114Y-109652158D01*
X166851500Y-109704500D01*
X166851500Y-119815500D01*
X166831498Y-119883621D01*
X166777842Y-119930114D01*
X166725500Y-119941500D01*
X161301350Y-119941500D01*
X161240803Y-119948009D01*
X161240795Y-119948011D01*
X161103797Y-119999110D01*
X161103792Y-119999112D01*
X160986738Y-120086738D01*
X160899112Y-120203792D01*
X160899110Y-120203797D01*
X160848011Y-120340795D01*
X160848009Y-120340803D01*
X160841500Y-120401350D01*
X160841500Y-123498649D01*
X160848009Y-123559196D01*
X160848011Y-123559204D01*
X160899110Y-123696202D01*
X160899112Y-123696207D01*
X160975682Y-123798491D01*
X161000493Y-123865011D01*
X160985402Y-123934385D01*
X160935200Y-123984587D01*
X160874814Y-124000000D01*
X151417700Y-124000000D01*
X151349579Y-123979998D01*
X151303086Y-123926342D01*
X151292982Y-123856068D01*
X151316832Y-123798491D01*
X151400887Y-123686207D01*
X151400887Y-123686206D01*
X151400889Y-123686204D01*
X151451989Y-123549201D01*
X151454140Y-123529201D01*
X151458499Y-123488649D01*
X151458500Y-123488632D01*
X151458500Y-120391367D01*
X151458499Y-120391350D01*
X151451990Y-120330803D01*
X151451988Y-120330795D01*
X151400889Y-120193797D01*
X151400887Y-120193792D01*
X151313261Y-120076738D01*
X151196207Y-119989112D01*
X151196202Y-119989110D01*
X151059204Y-119938011D01*
X151059196Y-119938009D01*
X150998649Y-119931500D01*
X150998638Y-119931500D01*
X137901362Y-119931500D01*
X137901350Y-119931500D01*
X137840803Y-119938009D01*
X137840802Y-119938010D01*
X137840799Y-119938010D01*
X137840799Y-119938011D01*
X137718688Y-119983556D01*
X137674657Y-119991500D01*
X137150668Y-119991500D01*
X136955830Y-120030256D01*
X136955825Y-120030258D01*
X136772296Y-120106279D01*
X136607123Y-120216644D01*
X136607116Y-120216649D01*
X136466649Y-120357116D01*
X136466644Y-120357123D01*
X136356279Y-120522296D01*
X136280258Y-120705825D01*
X136280256Y-120705830D01*
X136241500Y-120900668D01*
X136241500Y-120900671D01*
X136241500Y-121099329D01*
X136280256Y-121294169D01*
X136356279Y-121477704D01*
X136466647Y-121642881D01*
X136607119Y-121783353D01*
X136772296Y-121893721D01*
X136774562Y-121895235D01*
X136820090Y-121949712D01*
X136828938Y-122020155D01*
X136798296Y-122084199D01*
X136774562Y-122104765D01*
X136607123Y-122216644D01*
X136607116Y-122216649D01*
X136466649Y-122357116D01*
X136466644Y-122357123D01*
X136356279Y-122522296D01*
X136280258Y-122705825D01*
X136280256Y-122705830D01*
X136241500Y-122900668D01*
X136241500Y-122900671D01*
X136241500Y-123099329D01*
X136280256Y-123294169D01*
X136356279Y-123477704D01*
X136466647Y-123642881D01*
X136466649Y-123642883D01*
X136608671Y-123784905D01*
X136642697Y-123847217D01*
X136637632Y-123918032D01*
X136595085Y-123974868D01*
X136528565Y-123999679D01*
X136519576Y-124000000D01*
X128070713Y-124000000D01*
X128002592Y-123979998D01*
X127956099Y-123926342D01*
X127945995Y-123856068D01*
X127975489Y-123791488D01*
X127981618Y-123784905D01*
X127983259Y-123783263D01*
X127983259Y-123783261D01*
X127983261Y-123783261D01*
X128070889Y-123666204D01*
X128121989Y-123529201D01*
X128126351Y-123488632D01*
X128128499Y-123468649D01*
X128128500Y-123468632D01*
X128128500Y-120371367D01*
X128128499Y-120371350D01*
X128121990Y-120310803D01*
X128121988Y-120310795D01*
X128092924Y-120232875D01*
X128070889Y-120173796D01*
X128070888Y-120173794D01*
X128070887Y-120173792D01*
X127983261Y-120056738D01*
X127866207Y-119969112D01*
X127866202Y-119969110D01*
X127729204Y-119918011D01*
X127729196Y-119918009D01*
X127668649Y-119911500D01*
X127668638Y-119911500D01*
X120513830Y-119911500D01*
X120445709Y-119891498D01*
X120399216Y-119837842D01*
X120387838Y-119786877D01*
X120380290Y-119096207D01*
X120367608Y-117935875D01*
X120386864Y-117867542D01*
X120440008Y-117820465D01*
X120493600Y-117808500D01*
X123365500Y-117808500D01*
X123433621Y-117828502D01*
X123480114Y-117882158D01*
X123491500Y-117934500D01*
X123491500Y-118099331D01*
X123503270Y-118158500D01*
X123530256Y-118294169D01*
X123606279Y-118477704D01*
X123716647Y-118642881D01*
X123857119Y-118783353D01*
X124022296Y-118893721D01*
X124205831Y-118969744D01*
X124400671Y-119008500D01*
X124578916Y-119008500D01*
X124647037Y-119028502D01*
X124693530Y-119082158D01*
X124696971Y-119090467D01*
X124699110Y-119096202D01*
X124699112Y-119096207D01*
X124786738Y-119213261D01*
X124903792Y-119300887D01*
X124903794Y-119300888D01*
X124903796Y-119300889D01*
X124962875Y-119322924D01*
X125040795Y-119351988D01*
X125040803Y-119351990D01*
X125101350Y-119358499D01*
X125101355Y-119358499D01*
X125101362Y-119358500D01*
X125101368Y-119358500D01*
X127698632Y-119358500D01*
X127698638Y-119358500D01*
X127698645Y-119358499D01*
X127698649Y-119358499D01*
X127759196Y-119351990D01*
X127759199Y-119351989D01*
X127759201Y-119351989D01*
X127896204Y-119300889D01*
X127949172Y-119261238D01*
X128013261Y-119213261D01*
X128100887Y-119096207D01*
X128100887Y-119096206D01*
X128100889Y-119096204D01*
X128151989Y-118959201D01*
X128158500Y-118898638D01*
X128158500Y-117101362D01*
X128157657Y-117093519D01*
X128151990Y-117040803D01*
X128151988Y-117040795D01*
X128117389Y-116948035D01*
X128100889Y-116903796D01*
X128100888Y-116903794D01*
X128100887Y-116903792D01*
X128013261Y-116786738D01*
X127896207Y-116699112D01*
X127896202Y-116699110D01*
X127759204Y-116648011D01*
X127759196Y-116648009D01*
X127698649Y-116641500D01*
X127698638Y-116641500D01*
X127244500Y-116641500D01*
X127176379Y-116621498D01*
X127129886Y-116567842D01*
X127118500Y-116515500D01*
X127118500Y-116234500D01*
X127138502Y-116166379D01*
X127192158Y-116119886D01*
X127244500Y-116108500D01*
X127658632Y-116108500D01*
X127658638Y-116108500D01*
X127658645Y-116108499D01*
X127658649Y-116108499D01*
X127719196Y-116101990D01*
X127719199Y-116101989D01*
X127719201Y-116101989D01*
X127856204Y-116050889D01*
X127876524Y-116035678D01*
X127973261Y-115963261D01*
X128060887Y-115846207D01*
X128060887Y-115846206D01*
X128060889Y-115846204D01*
X128111989Y-115709201D01*
X128115515Y-115676409D01*
X128118499Y-115648649D01*
X128118500Y-115648632D01*
X128118500Y-113851367D01*
X128118499Y-113851350D01*
X128111990Y-113790803D01*
X128111988Y-113790795D01*
X128065574Y-113666357D01*
X128060889Y-113653796D01*
X128060888Y-113653794D01*
X128060887Y-113653792D01*
X127973261Y-113536738D01*
X127856207Y-113449112D01*
X127856202Y-113449110D01*
X127719204Y-113398011D01*
X127719196Y-113398009D01*
X127658649Y-113391500D01*
X127658638Y-113391500D01*
X127244500Y-113391500D01*
X127235674Y-113388908D01*
X127226568Y-113390218D01*
X127202142Y-113379062D01*
X127176379Y-113371498D01*
X127170354Y-113364544D01*
X127161988Y-113360724D01*
X127147473Y-113338138D01*
X127129886Y-113317842D01*
X127127561Y-113307155D01*
X127123604Y-113300998D01*
X127118500Y-113265500D01*
X127118500Y-113024500D01*
X127138502Y-112956379D01*
X127192158Y-112909886D01*
X127244500Y-112898500D01*
X127658632Y-112898500D01*
X127658638Y-112898500D01*
X127658645Y-112898499D01*
X127658649Y-112898499D01*
X127719196Y-112891990D01*
X127719199Y-112891989D01*
X127719201Y-112891989D01*
X127725553Y-112889620D01*
X127738045Y-112884960D01*
X127856204Y-112840889D01*
X127857204Y-112840141D01*
X127973261Y-112753261D01*
X128060887Y-112636207D01*
X128060888Y-112636205D01*
X128060889Y-112636204D01*
X128111989Y-112499201D01*
X128112150Y-112497711D01*
X128118499Y-112438649D01*
X128118500Y-112438632D01*
X128118500Y-111028924D01*
X128138502Y-110960803D01*
X128192158Y-110914310D01*
X128262432Y-110904206D01*
X128327012Y-110933700D01*
X128333595Y-110939829D01*
X128564595Y-111170829D01*
X128598621Y-111233141D01*
X128601500Y-111259924D01*
X128601500Y-112438649D01*
X128608009Y-112499196D01*
X128608011Y-112499204D01*
X128659110Y-112636202D01*
X128659112Y-112636207D01*
X128746738Y-112753261D01*
X128863792Y-112840887D01*
X128863794Y-112840888D01*
X128863796Y-112840889D01*
X128891929Y-112851382D01*
X129000795Y-112891988D01*
X129000803Y-112891990D01*
X129061350Y-112898499D01*
X129061355Y-112898499D01*
X129061362Y-112898500D01*
X130481074Y-112898500D01*
X130549195Y-112918502D01*
X130595688Y-112972158D01*
X130605792Y-113042432D01*
X130576298Y-113107012D01*
X130570170Y-113113595D01*
X130329171Y-113354595D01*
X130266858Y-113388620D01*
X130240075Y-113391500D01*
X129061350Y-113391500D01*
X129000803Y-113398009D01*
X129000795Y-113398011D01*
X128863797Y-113449110D01*
X128863792Y-113449112D01*
X128746738Y-113536738D01*
X128659112Y-113653792D01*
X128659110Y-113653797D01*
X128608011Y-113790795D01*
X128608009Y-113790803D01*
X128601500Y-113851350D01*
X128601500Y-115648649D01*
X128608009Y-115709196D01*
X128608011Y-115709204D01*
X128659110Y-115846202D01*
X128659112Y-115846207D01*
X128746738Y-115963261D01*
X128863792Y-116050887D01*
X128863794Y-116050888D01*
X128863796Y-116050889D01*
X128922875Y-116072924D01*
X129000795Y-116101988D01*
X129000803Y-116101990D01*
X129061350Y-116108499D01*
X129061355Y-116108499D01*
X129061362Y-116108500D01*
X129061368Y-116108500D01*
X131658632Y-116108500D01*
X131658638Y-116108500D01*
X131658645Y-116108499D01*
X131658649Y-116108499D01*
X131719196Y-116101990D01*
X131719199Y-116101989D01*
X131719201Y-116101989D01*
X131856204Y-116050889D01*
X131876524Y-116035678D01*
X131973261Y-115963261D01*
X132060887Y-115846207D01*
X132060887Y-115846206D01*
X132060889Y-115846204D01*
X132111989Y-115709201D01*
X132115515Y-115676409D01*
X132118499Y-115648649D01*
X132118500Y-115648632D01*
X132118500Y-114469924D01*
X132127283Y-114440008D01*
X132133912Y-114409539D01*
X132137726Y-114404443D01*
X132138502Y-114401803D01*
X132155405Y-114380829D01*
X132326405Y-114209829D01*
X132388717Y-114175803D01*
X132459532Y-114180868D01*
X132516368Y-114223415D01*
X132541179Y-114289935D01*
X132541500Y-114298924D01*
X132541500Y-116243627D01*
X132521498Y-116311748D01*
X132504595Y-116332723D01*
X132111804Y-116725513D01*
X132049492Y-116759538D01*
X131978676Y-116754473D01*
X131947201Y-116737286D01*
X131896206Y-116699112D01*
X131896202Y-116699110D01*
X131759204Y-116648011D01*
X131759196Y-116648009D01*
X131698649Y-116641500D01*
X131698638Y-116641500D01*
X129101362Y-116641500D01*
X129101350Y-116641500D01*
X129040803Y-116648009D01*
X129040795Y-116648011D01*
X128903797Y-116699110D01*
X128903792Y-116699112D01*
X128786738Y-116786738D01*
X128699112Y-116903792D01*
X128699110Y-116903797D01*
X128648011Y-117040795D01*
X128648009Y-117040803D01*
X128641500Y-117101350D01*
X128641500Y-118898649D01*
X128648009Y-118959196D01*
X128648011Y-118959204D01*
X128699110Y-119096202D01*
X128699112Y-119096207D01*
X128786738Y-119213261D01*
X128903792Y-119300887D01*
X128903794Y-119300888D01*
X128903796Y-119300889D01*
X128962875Y-119322924D01*
X129040795Y-119351988D01*
X129040803Y-119351990D01*
X129101350Y-119358499D01*
X129101355Y-119358499D01*
X129101362Y-119358500D01*
X129101368Y-119358500D01*
X131698632Y-119358500D01*
X131698638Y-119358500D01*
X131698645Y-119358499D01*
X131698649Y-119358499D01*
X131759196Y-119351990D01*
X131759199Y-119351989D01*
X131759201Y-119351989D01*
X131896204Y-119300889D01*
X131949172Y-119261238D01*
X132013261Y-119213261D01*
X132100887Y-119096207D01*
X132100887Y-119096206D01*
X132100889Y-119096204D01*
X132151989Y-118959201D01*
X132158500Y-118898638D01*
X132158500Y-118802252D01*
X132178502Y-118734131D01*
X132232158Y-118687638D01*
X132236237Y-118685862D01*
X132269284Y-118672174D01*
X132393515Y-118589166D01*
X132650460Y-118332221D01*
X139517001Y-118332221D01*
X139523481Y-118403553D01*
X139574633Y-118567706D01*
X139663578Y-118714840D01*
X139663586Y-118714850D01*
X139785149Y-118836413D01*
X139785159Y-118836421D01*
X139932293Y-118925366D01*
X140096446Y-118976518D01*
X140167781Y-118982999D01*
X140170999Y-118982999D01*
X140171000Y-118982998D01*
X140171000Y-118254000D01*
X139517001Y-118254000D01*
X139517001Y-118332221D01*
X132650460Y-118332221D01*
X133889166Y-117093515D01*
X133972174Y-116969284D01*
X134029351Y-116831247D01*
X134029352Y-116831241D01*
X134031149Y-116825321D01*
X134032922Y-116825859D01*
X134061776Y-116770662D01*
X134123461Y-116735513D01*
X134163878Y-116732645D01*
X134167783Y-116732999D01*
X134754000Y-116732999D01*
X134832222Y-116732999D01*
X134903553Y-116726518D01*
X135067706Y-116675366D01*
X135214840Y-116586421D01*
X135214850Y-116586413D01*
X135336413Y-116464850D01*
X135336421Y-116464840D01*
X135425366Y-116317706D01*
X135476518Y-116153553D01*
X135476518Y-116153552D01*
X135483000Y-116082222D01*
X135483000Y-116079000D01*
X134754000Y-116079000D01*
X134754000Y-116732999D01*
X134167783Y-116732999D01*
X134245999Y-116732998D01*
X134246000Y-116732998D01*
X134246000Y-115951000D01*
X134266002Y-115882879D01*
X134319658Y-115836386D01*
X134372000Y-115825000D01*
X134500000Y-115825000D01*
X134500000Y-115697000D01*
X134520002Y-115628879D01*
X134573658Y-115582386D01*
X134626000Y-115571000D01*
X135482999Y-115571000D01*
X135482999Y-115567778D01*
X135476518Y-115496446D01*
X135425366Y-115332293D01*
X135336421Y-115185159D01*
X135336413Y-115185149D01*
X135240713Y-115089449D01*
X135206687Y-115027137D01*
X135211752Y-114956322D01*
X135240713Y-114911259D01*
X135336811Y-114815160D01*
X135336816Y-114815155D01*
X135425827Y-114667913D01*
X135471860Y-114520183D01*
X135511220Y-114461100D01*
X135576278Y-114432674D01*
X135646376Y-114443934D01*
X135681249Y-114468575D01*
X135791953Y-114579279D01*
X135791959Y-114579284D01*
X135791960Y-114579285D01*
X135937899Y-114669302D01*
X136100664Y-114723236D01*
X136120756Y-114725288D01*
X136201120Y-114733500D01*
X136201128Y-114733500D01*
X136577494Y-114733500D01*
X136645615Y-114753502D01*
X136684342Y-114795474D01*
X136685161Y-114794928D01*
X136688599Y-114800074D01*
X136688600Y-114800075D01*
X136757929Y-114903833D01*
X138596167Y-116742072D01*
X138699925Y-116811401D01*
X138781447Y-116845168D01*
X138815215Y-116859155D01*
X138937606Y-116883500D01*
X139796483Y-116883500D01*
X139864604Y-116903502D01*
X139911097Y-116957158D01*
X139921201Y-117027432D01*
X139891707Y-117092012D01*
X139861667Y-117117329D01*
X139785159Y-117163578D01*
X139785149Y-117163586D01*
X139663586Y-117285149D01*
X139663578Y-117285159D01*
X139574633Y-117432293D01*
X139523481Y-117596446D01*
X139523481Y-117596447D01*
X139517000Y-117667777D01*
X139517000Y-117746000D01*
X140299000Y-117746000D01*
X140367121Y-117766002D01*
X140413614Y-117819658D01*
X140425000Y-117872000D01*
X140425000Y-118000000D01*
X140553000Y-118000000D01*
X140621121Y-118020002D01*
X140667614Y-118073658D01*
X140679000Y-118126000D01*
X140679000Y-118982999D01*
X140682222Y-118982999D01*
X140753553Y-118976518D01*
X140917706Y-118925366D01*
X141064840Y-118836421D01*
X141064850Y-118836413D01*
X141160551Y-118740713D01*
X141222863Y-118706687D01*
X141293678Y-118711752D01*
X141338741Y-118740713D01*
X141434839Y-118836811D01*
X141434844Y-118836815D01*
X141434845Y-118836816D01*
X141582087Y-118925827D01*
X141746351Y-118977013D01*
X141817735Y-118983500D01*
X142332264Y-118983499D01*
X142403649Y-118977013D01*
X142567913Y-118925827D01*
X142715155Y-118836816D01*
X142772647Y-118779323D01*
X142834957Y-118745300D01*
X142905773Y-118750364D01*
X142950834Y-118779323D01*
X143002111Y-118830600D01*
X143146806Y-118919849D01*
X143308184Y-118973324D01*
X143407787Y-118983500D01*
X143942208Y-118983499D01*
X144041812Y-118973324D01*
X144203190Y-118919849D01*
X144347885Y-118830600D01*
X144373404Y-118805080D01*
X144435714Y-118771056D01*
X144506530Y-118776120D01*
X144551593Y-118805080D01*
X144577113Y-118830600D01*
X144721808Y-118919849D01*
X144883186Y-118973324D01*
X144982789Y-118983500D01*
X145371190Y-118983499D01*
X145439310Y-119003501D01*
X145460285Y-119020404D01*
X145533212Y-119093331D01*
X145682011Y-119192755D01*
X145847347Y-119261240D01*
X146022868Y-119296153D01*
X146022869Y-119296153D01*
X146201825Y-119296153D01*
X146201826Y-119296153D01*
X146377347Y-119261240D01*
X146542683Y-119192755D01*
X146691482Y-119093331D01*
X146818025Y-118966788D01*
X146917449Y-118817989D01*
X146985934Y-118652653D01*
X147020847Y-118477132D01*
X147020847Y-118298174D01*
X146985934Y-118122653D01*
X146917449Y-117957317D01*
X146818025Y-117808518D01*
X146691482Y-117681975D01*
X146542683Y-117582551D01*
X146425776Y-117534126D01*
X146377350Y-117514067D01*
X146377348Y-117514066D01*
X146377347Y-117514066D01*
X146276424Y-117493991D01*
X146208001Y-117480381D01*
X146145092Y-117447473D01*
X146125344Y-117422952D01*
X146043100Y-117289613D01*
X146043099Y-117289612D01*
X146043094Y-117289606D01*
X145973490Y-117220002D01*
X145939464Y-117157690D01*
X145944529Y-117086875D01*
X145987076Y-117030039D01*
X146053596Y-117005228D01*
X146101519Y-117011073D01*
X146240427Y-117056207D01*
X146412760Y-117083502D01*
X146412763Y-117083502D01*
X146587239Y-117083502D01*
X146587242Y-117083502D01*
X146759575Y-117056207D01*
X146925517Y-117002290D01*
X147080982Y-116923076D01*
X147222140Y-116820519D01*
X147345518Y-116697141D01*
X147448075Y-116555983D01*
X147527289Y-116400518D01*
X147581206Y-116234576D01*
X147608501Y-116062243D01*
X147608501Y-115437761D01*
X147581206Y-115265428D01*
X147527289Y-115099486D01*
X147448075Y-114944021D01*
X147448071Y-114944016D01*
X147448070Y-114944013D01*
X147445487Y-114939797D01*
X147447024Y-114938854D01*
X147425780Y-114879293D01*
X147441867Y-114810143D01*
X147445329Y-114804992D01*
X147445178Y-114804899D01*
X147449031Y-114798653D01*
X147542116Y-114647739D01*
X147597888Y-114479427D01*
X147608501Y-114375546D01*
X147608500Y-113124457D01*
X147597888Y-113020575D01*
X147578005Y-112960573D01*
X147575566Y-112889620D01*
X147611874Y-112828610D01*
X147675403Y-112796915D01*
X147745983Y-112804597D01*
X147798348Y-112846910D01*
X147798739Y-112846590D01*
X147800287Y-112848476D01*
X147801205Y-112849218D01*
X147802377Y-112850942D01*
X147802665Y-112851374D01*
X147802669Y-112851378D01*
X147802670Y-112851380D01*
X147929213Y-112977923D01*
X148078012Y-113077347D01*
X148243348Y-113145832D01*
X148418869Y-113180745D01*
X148418870Y-113180745D01*
X148597826Y-113180745D01*
X148597827Y-113180745D01*
X148773348Y-113145832D01*
X148938684Y-113077347D01*
X149087483Y-112977923D01*
X149122756Y-112942650D01*
X149150124Y-112927705D01*
X149176353Y-112910849D01*
X149182651Y-112909943D01*
X149185068Y-112908624D01*
X149211851Y-112905745D01*
X149402650Y-112905745D01*
X149470771Y-112925747D01*
X149491745Y-112942650D01*
X149699595Y-113150500D01*
X149733621Y-113212812D01*
X149736500Y-113239595D01*
X149736500Y-113998650D01*
X149743009Y-114059197D01*
X149743011Y-114059205D01*
X149794110Y-114196203D01*
X149794112Y-114196208D01*
X149881738Y-114313262D01*
X149998792Y-114400888D01*
X149998794Y-114400889D01*
X149998796Y-114400890D01*
X150043956Y-114417734D01*
X150135795Y-114451989D01*
X150135803Y-114451991D01*
X150196350Y-114458500D01*
X150196355Y-114458500D01*
X150196362Y-114458501D01*
X150423407Y-114458501D01*
X150491528Y-114478503D01*
X150512502Y-114495406D01*
X151008542Y-114991446D01*
X151096780Y-115079684D01*
X151200538Y-115149013D01*
X151315828Y-115196768D01*
X151438219Y-115221113D01*
X152692063Y-115221113D01*
X152760184Y-115241115D01*
X152806677Y-115294771D01*
X152816781Y-115365045D01*
X152796828Y-115417115D01*
X152794322Y-115420864D01*
X152794322Y-115420865D01*
X152758883Y-115473903D01*
X152701119Y-115560354D01*
X152694898Y-115569664D01*
X152689723Y-115582158D01*
X152626414Y-115734996D01*
X152626413Y-115734999D01*
X152626413Y-115735000D01*
X152621373Y-115760336D01*
X152591500Y-115910518D01*
X152591500Y-116089481D01*
X152600575Y-116135102D01*
X152624898Y-116257386D01*
X152626414Y-116265003D01*
X152633182Y-116281342D01*
X152694898Y-116430336D01*
X152794322Y-116579135D01*
X152920865Y-116705678D01*
X153069664Y-116805102D01*
X153235000Y-116873587D01*
X153410521Y-116908500D01*
X153410522Y-116908500D01*
X153488099Y-116908500D01*
X153556220Y-116928502D01*
X153602713Y-116982158D01*
X153612817Y-117052432D01*
X153611682Y-117059056D01*
X153600782Y-117113852D01*
X153591500Y-117160518D01*
X153591500Y-117160521D01*
X153591500Y-117339479D01*
X153626413Y-117515000D01*
X153694898Y-117680336D01*
X153794322Y-117829135D01*
X153920865Y-117955678D01*
X154069664Y-118055102D01*
X154235000Y-118123587D01*
X154410521Y-118158500D01*
X154410522Y-118158500D01*
X154589478Y-118158500D01*
X154589479Y-118158500D01*
X154765000Y-118123587D01*
X154930336Y-118055102D01*
X155079135Y-117955678D01*
X155205678Y-117829135D01*
X155305102Y-117680336D01*
X155373587Y-117515000D01*
X155408500Y-117339479D01*
X155408500Y-117292296D01*
X155412943Y-117277162D01*
X155412346Y-117261404D01*
X155422740Y-117243796D01*
X155428502Y-117224175D01*
X155440420Y-117213847D01*
X155448438Y-117200267D01*
X155466702Y-117191074D01*
X155482158Y-117177682D01*
X155498659Y-117174989D01*
X155511855Y-117168348D01*
X155544321Y-117167539D01*
X155547693Y-117166989D01*
X155556264Y-117167891D01*
X155556913Y-117168160D01*
X155673434Y-117183500D01*
X155704517Y-117183500D01*
X155711099Y-117184193D01*
X155738054Y-117195288D01*
X155766027Y-117203502D01*
X155774398Y-117210248D01*
X155776751Y-117211217D01*
X155778228Y-117213335D01*
X155787001Y-117220405D01*
X156231227Y-117664631D01*
X156265253Y-117726943D01*
X156267480Y-117766527D01*
X156266500Y-117776122D01*
X156266500Y-118323880D01*
X156266499Y-118323880D01*
X156276763Y-118424333D01*
X156276764Y-118424336D01*
X156330698Y-118587101D01*
X156404460Y-118706687D01*
X156420715Y-118733040D01*
X156420720Y-118733046D01*
X156541953Y-118854279D01*
X156541959Y-118854284D01*
X156541960Y-118854285D01*
X156687899Y-118944302D01*
X156850664Y-118998236D01*
X156870756Y-119000288D01*
X156951120Y-119008500D01*
X156951128Y-119008500D01*
X157548880Y-119008500D01*
X157621936Y-119001035D01*
X157649336Y-118998236D01*
X157812101Y-118944302D01*
X157958040Y-118854285D01*
X158079285Y-118733040D01*
X158169302Y-118587101D01*
X158223236Y-118424336D01*
X158232643Y-118332264D01*
X158233500Y-118323880D01*
X158233500Y-117776119D01*
X158223236Y-117675666D01*
X158223236Y-117675664D01*
X158169302Y-117512899D01*
X158079285Y-117366960D01*
X158076070Y-117363745D01*
X158042043Y-117301438D01*
X158047104Y-117230622D01*
X158076072Y-117185546D01*
X158078890Y-117182727D01*
X158168847Y-117036884D01*
X158222742Y-116874241D01*
X158222744Y-116874229D01*
X158232999Y-116773852D01*
X158233000Y-116773852D01*
X158233000Y-116754000D01*
X157376000Y-116754000D01*
X157307879Y-116733998D01*
X157261386Y-116680342D01*
X157250000Y-116628000D01*
X157250000Y-116372000D01*
X157270002Y-116303879D01*
X157323658Y-116257386D01*
X157376000Y-116246000D01*
X158233000Y-116246000D01*
X158233000Y-116226147D01*
X158232999Y-116226145D01*
X158224894Y-116146806D01*
X158237868Y-116077005D01*
X158286521Y-116025300D01*
X158350241Y-116008000D01*
X158830000Y-116008000D01*
X158830000Y-115634500D01*
X158832591Y-115625674D01*
X158831282Y-115616568D01*
X158842437Y-115592142D01*
X158850002Y-115566379D01*
X158856955Y-115560354D01*
X158860776Y-115551988D01*
X158883361Y-115537473D01*
X158903658Y-115519886D01*
X158914344Y-115517561D01*
X158920502Y-115513604D01*
X158956000Y-115508500D01*
X159004000Y-115508500D01*
X159072121Y-115528502D01*
X159118614Y-115582158D01*
X159130000Y-115634500D01*
X159130000Y-116008000D01*
X159668207Y-116008000D01*
X159668216Y-116007999D01*
X159782194Y-115992993D01*
X159924012Y-115934252D01*
X160045800Y-115840800D01*
X160139252Y-115719012D01*
X160197993Y-115577195D01*
X160198075Y-115576891D01*
X160198214Y-115576662D01*
X160201154Y-115569565D01*
X160202260Y-115570023D01*
X160235025Y-115516268D01*
X160298885Y-115485245D01*
X160319782Y-115483500D01*
X160462393Y-115483500D01*
X160462394Y-115483500D01*
X160584785Y-115459155D01*
X160683922Y-115418090D01*
X160689870Y-115416807D01*
X160692773Y-115414808D01*
X160717550Y-115410837D01*
X160728088Y-115408565D01*
X160730108Y-115408500D01*
X160839479Y-115408500D01*
X160860581Y-115404302D01*
X160870944Y-115403969D01*
X160895676Y-115410374D01*
X160921127Y-115412652D01*
X160929459Y-115419124D01*
X160939673Y-115421770D01*
X160957017Y-115440531D01*
X160977195Y-115456206D01*
X160982256Y-115467834D01*
X160987867Y-115473903D01*
X160989896Y-115485385D01*
X160998575Y-115505322D01*
X161016413Y-115595000D01*
X161084898Y-115760336D01*
X161184322Y-115909135D01*
X161310865Y-116035678D01*
X161459664Y-116135102D01*
X161625000Y-116203587D01*
X161800521Y-116238500D01*
X161800522Y-116238500D01*
X161979478Y-116238500D01*
X161979479Y-116238500D01*
X162155000Y-116203587D01*
X162320336Y-116135102D01*
X162469135Y-116035678D01*
X162475109Y-116029702D01*
X162537419Y-115995676D01*
X162580654Y-115993873D01*
X162691756Y-116008500D01*
X162691763Y-116008500D01*
X164068237Y-116008500D01*
X164068244Y-116008500D01*
X164182324Y-115993481D01*
X164324268Y-115934686D01*
X164446157Y-115841157D01*
X164539686Y-115719268D01*
X164598481Y-115577324D01*
X164613500Y-115463244D01*
X164613500Y-115236756D01*
X164598481Y-115122676D01*
X164598479Y-115122672D01*
X164597660Y-115116447D01*
X164597660Y-115083553D01*
X164598479Y-115077327D01*
X164598481Y-115077324D01*
X164613500Y-114963244D01*
X164613500Y-114736756D01*
X164598481Y-114622676D01*
X164598479Y-114622672D01*
X164597660Y-114616447D01*
X164597660Y-114583553D01*
X164598479Y-114577327D01*
X164598481Y-114577324D01*
X164613500Y-114463244D01*
X164613500Y-114236756D01*
X164598481Y-114122676D01*
X164598479Y-114122672D01*
X164597660Y-114116447D01*
X164597660Y-114083553D01*
X164598479Y-114077327D01*
X164598481Y-114077324D01*
X164613500Y-113963244D01*
X164613500Y-113736756D01*
X164598481Y-113622676D01*
X164539686Y-113480732D01*
X164508419Y-113439984D01*
X164508418Y-113439982D01*
X164479813Y-113402704D01*
X164454212Y-113336484D01*
X164468476Y-113266935D01*
X164518078Y-113216139D01*
X164579775Y-113200000D01*
X164608157Y-113200000D01*
X164608156Y-113199999D01*
X164597993Y-113122805D01*
X164539252Y-112980987D01*
X164445800Y-112859199D01*
X164324012Y-112765747D01*
X164182194Y-112707006D01*
X164068216Y-112692000D01*
X163668382Y-112692000D01*
X163600261Y-112671998D01*
X163553768Y-112618342D01*
X163543664Y-112548068D01*
X163573158Y-112483488D01*
X163628749Y-112446396D01*
X163711884Y-112418847D01*
X163857728Y-112328890D01*
X163857734Y-112328885D01*
X163978885Y-112207734D01*
X163978890Y-112207728D01*
X164068847Y-112061884D01*
X164122742Y-111899241D01*
X164122744Y-111899229D01*
X164132999Y-111798852D01*
X164133000Y-111798852D01*
X164133000Y-111754000D01*
X163301000Y-111754000D01*
X163232879Y-111733998D01*
X163186386Y-111680342D01*
X163175000Y-111628000D01*
X163175000Y-111500000D01*
X163047000Y-111500000D01*
X162978879Y-111479998D01*
X162932386Y-111426342D01*
X162921000Y-111374000D01*
X162921000Y-111246000D01*
X163429000Y-111246000D01*
X164133000Y-111246000D01*
X164133000Y-111201147D01*
X164122744Y-111100770D01*
X164122742Y-111100758D01*
X164068847Y-110938115D01*
X163978890Y-110792271D01*
X163978885Y-110792265D01*
X163857734Y-110671114D01*
X163857728Y-110671109D01*
X163711884Y-110581152D01*
X163549241Y-110527257D01*
X163549229Y-110527255D01*
X163448852Y-110517000D01*
X163429000Y-110517000D01*
X163429000Y-111246000D01*
X162921000Y-111246000D01*
X162921000Y-110517000D01*
X162901147Y-110517000D01*
X162800770Y-110527255D01*
X162800758Y-110527257D01*
X162638115Y-110581152D01*
X162492271Y-110671109D01*
X162492267Y-110671112D01*
X162489442Y-110673938D01*
X162487026Y-110675256D01*
X162486514Y-110675662D01*
X162486444Y-110675574D01*
X162427128Y-110707959D01*
X162356312Y-110702890D01*
X162311253Y-110673928D01*
X162308040Y-110670715D01*
X162162101Y-110580698D01*
X161999336Y-110526764D01*
X161999333Y-110526763D01*
X161898880Y-110516500D01*
X161898872Y-110516500D01*
X161351128Y-110516500D01*
X161351120Y-110516500D01*
X161250666Y-110526763D01*
X161087899Y-110580698D01*
X160941959Y-110670715D01*
X160941953Y-110670720D01*
X160820720Y-110791953D01*
X160820715Y-110791959D01*
X160730698Y-110937899D01*
X160676763Y-111100666D01*
X160666500Y-111201119D01*
X160666500Y-111798880D01*
X160666499Y-111798880D01*
X160675513Y-111887093D01*
X160662539Y-111956894D01*
X160613887Y-112008600D01*
X160574752Y-112023478D01*
X160560004Y-112026411D01*
X160560000Y-112026413D01*
X160394665Y-112094897D01*
X160248818Y-112192348D01*
X160181065Y-112213562D01*
X160112598Y-112194778D01*
X160065155Y-112141961D01*
X160053470Y-112074775D01*
X160058500Y-112025545D01*
X160058499Y-110974456D01*
X160047887Y-110870574D01*
X160047886Y-110870572D01*
X160047216Y-110864010D01*
X160060192Y-110794210D01*
X160108845Y-110742504D01*
X160147989Y-110727625D01*
X160153555Y-110726518D01*
X160317706Y-110675366D01*
X160464840Y-110586421D01*
X160464850Y-110586413D01*
X160586413Y-110464850D01*
X160586421Y-110464840D01*
X160675366Y-110317706D01*
X160726518Y-110153553D01*
X160726518Y-110153552D01*
X160733000Y-110082222D01*
X160733000Y-110004000D01*
X159951000Y-110004000D01*
X159882879Y-109983998D01*
X159836386Y-109930342D01*
X159825000Y-109878000D01*
X159825000Y-109750000D01*
X159697000Y-109750000D01*
X159628879Y-109729998D01*
X159582386Y-109676342D01*
X159571000Y-109624000D01*
X159571000Y-108767000D01*
X159567768Y-108767001D01*
X159496446Y-108773481D01*
X159332293Y-108824633D01*
X159185159Y-108913578D01*
X159185149Y-108913586D01*
X159089449Y-109009287D01*
X159027137Y-109043313D01*
X158956322Y-109038248D01*
X158911259Y-109009287D01*
X158815160Y-108913188D01*
X158815155Y-108913184D01*
X158667911Y-108824172D01*
X158667906Y-108824170D01*
X158503646Y-108772986D01*
X158451723Y-108768268D01*
X158432265Y-108766500D01*
X158432262Y-108766500D01*
X157917738Y-108766500D01*
X157846353Y-108772986D01*
X157846352Y-108772986D01*
X157682093Y-108824170D01*
X157682088Y-108824172D01*
X157534844Y-108913184D01*
X157534843Y-108913185D01*
X157413181Y-109034848D01*
X157404320Y-109049506D01*
X157351959Y-109097453D01*
X157281988Y-109109479D01*
X157271914Y-109107896D01*
X157189486Y-109091500D01*
X157189479Y-109091500D01*
X157010521Y-109091500D01*
X157010518Y-109091500D01*
X156891040Y-109115266D01*
X156835000Y-109126413D01*
X156834999Y-109126413D01*
X156834996Y-109126414D01*
X156669662Y-109194899D01*
X156520869Y-109294319D01*
X156520862Y-109294324D01*
X156394324Y-109420862D01*
X156394319Y-109420869D01*
X156313811Y-109541359D01*
X156294898Y-109569664D01*
X156291238Y-109578500D01*
X156226414Y-109734996D01*
X156191500Y-109910518D01*
X156191500Y-109910521D01*
X156191500Y-110089479D01*
X156221263Y-110239111D01*
X156226414Y-110265003D01*
X156294899Y-110430339D01*
X156297815Y-110435793D01*
X156295414Y-110437076D01*
X156313127Y-110493582D01*
X156294389Y-110562017D01*
X156207885Y-110702262D01*
X156152113Y-110870572D01*
X156152112Y-110870579D01*
X156141500Y-110974446D01*
X156141500Y-112025544D01*
X156152112Y-112129425D01*
X156207885Y-112297738D01*
X156300970Y-112448652D01*
X156300975Y-112448658D01*
X156426341Y-112574024D01*
X156426345Y-112574027D01*
X156426348Y-112574030D01*
X156512213Y-112626992D01*
X156559691Y-112679776D01*
X156571094Y-112749851D01*
X156542802Y-112814967D01*
X156483797Y-112854450D01*
X156421485Y-112857811D01*
X156339484Y-112841500D01*
X156339479Y-112841500D01*
X156160521Y-112841500D01*
X156160518Y-112841500D01*
X156029771Y-112867507D01*
X155985000Y-112876413D01*
X155984999Y-112876413D01*
X155984996Y-112876414D01*
X155853902Y-112930716D01*
X155821794Y-112944016D01*
X155819662Y-112944899D01*
X155670869Y-113044319D01*
X155670862Y-113044324D01*
X155635592Y-113079595D01*
X155608223Y-113094539D01*
X155581995Y-113111396D01*
X155575696Y-113112301D01*
X155573280Y-113113621D01*
X155546497Y-113116500D01*
X155389500Y-113116500D01*
X155321379Y-113096498D01*
X155274886Y-113042842D01*
X155263500Y-112990500D01*
X155263500Y-112301368D01*
X155263499Y-112301351D01*
X155256990Y-112240804D01*
X155256988Y-112240796D01*
X155227667Y-112162185D01*
X155205889Y-112103797D01*
X155205888Y-112103795D01*
X155205887Y-112103793D01*
X155118261Y-111986739D01*
X155088990Y-111964827D01*
X155046444Y-111907991D01*
X155038500Y-111863960D01*
X155038500Y-111815887D01*
X155038499Y-111815883D01*
X155035117Y-111798880D01*
X155014155Y-111693495D01*
X154966400Y-111578205D01*
X154897071Y-111474447D01*
X154808833Y-111386209D01*
X154155623Y-110732999D01*
X154579000Y-110732999D01*
X154582222Y-110732999D01*
X154653553Y-110726518D01*
X154817706Y-110675366D01*
X154964840Y-110586421D01*
X154964850Y-110586413D01*
X155086413Y-110464850D01*
X155086421Y-110464840D01*
X155175366Y-110317706D01*
X155226518Y-110153553D01*
X155226518Y-110153552D01*
X155233000Y-110082222D01*
X155233000Y-110004000D01*
X154579000Y-110004000D01*
X154579000Y-110732999D01*
X154155623Y-110732999D01*
X154107905Y-110685281D01*
X154073879Y-110622969D01*
X154071000Y-110596186D01*
X154071000Y-109496000D01*
X154579000Y-109496000D01*
X155232999Y-109496000D01*
X155232999Y-109417778D01*
X155226518Y-109346446D01*
X155175366Y-109182293D01*
X155086421Y-109035159D01*
X155086413Y-109035149D01*
X154964850Y-108913586D01*
X154964840Y-108913578D01*
X154817706Y-108824633D01*
X154653552Y-108773481D01*
X154582223Y-108767000D01*
X154579000Y-108767000D01*
X154579000Y-109496000D01*
X154071000Y-109496000D01*
X154071000Y-108767000D01*
X154067768Y-108767001D01*
X153996446Y-108773481D01*
X153832293Y-108824633D01*
X153685159Y-108913578D01*
X153685149Y-108913586D01*
X153589449Y-109009287D01*
X153527137Y-109043313D01*
X153456322Y-109038248D01*
X153411259Y-109009287D01*
X153315160Y-108913188D01*
X153315155Y-108913184D01*
X153167911Y-108824172D01*
X153167906Y-108824170D01*
X153003646Y-108772986D01*
X152951723Y-108768268D01*
X152932265Y-108766500D01*
X152932262Y-108766500D01*
X152417738Y-108766500D01*
X152346353Y-108772986D01*
X152346352Y-108772986D01*
X152182093Y-108824170D01*
X152182088Y-108824172D01*
X152034844Y-108913184D01*
X152034839Y-108913188D01*
X151913188Y-109034839D01*
X151913184Y-109034844D01*
X151824173Y-109182086D01*
X151824173Y-109182087D01*
X151810181Y-109226987D01*
X151795850Y-109248499D01*
X151785112Y-109272012D01*
X151776498Y-109277547D01*
X151770821Y-109286070D01*
X151747132Y-109296420D01*
X151725386Y-109310396D01*
X151710124Y-109312590D01*
X151705763Y-109314496D01*
X151689888Y-109315500D01*
X151617608Y-109315500D01*
X151549487Y-109295498D01*
X151502994Y-109241842D01*
X151492330Y-109176032D01*
X151498499Y-109118649D01*
X151498500Y-109118632D01*
X151498500Y-106334500D01*
X151518502Y-106266379D01*
X151572158Y-106219886D01*
X151624500Y-106208500D01*
X152699328Y-106208500D01*
X152699329Y-106208500D01*
X152894169Y-106169744D01*
X153077704Y-106093721D01*
X153242881Y-105983353D01*
X153383353Y-105842881D01*
X153412358Y-105813875D01*
X153474668Y-105779851D01*
X153501801Y-105776971D01*
X160737874Y-105797297D01*
G37*
%TD.AperFunction*%
%TA.AperFunction,Conductor*%
G36*
X141447237Y-116884005D02*
G01*
X141448974Y-116883547D01*
X141481175Y-116893970D01*
X141513636Y-116903502D01*
X141514811Y-116904859D01*
X141516520Y-116905412D01*
X141537962Y-116931576D01*
X141560129Y-116957158D01*
X141560384Y-116958936D01*
X141561522Y-116960324D01*
X141565413Y-116993912D01*
X141570233Y-117027432D01*
X141569486Y-117029066D01*
X141569693Y-117030849D01*
X141554797Y-117061229D01*
X141540739Y-117092012D01*
X141538976Y-117093497D01*
X141538438Y-117094596D01*
X141510700Y-117117328D01*
X141434844Y-117163184D01*
X141434839Y-117163188D01*
X141338741Y-117259287D01*
X141276429Y-117293313D01*
X141205614Y-117288248D01*
X141160551Y-117259287D01*
X141064850Y-117163586D01*
X141064840Y-117163578D01*
X140988333Y-117117329D01*
X140940384Y-117064970D01*
X140928354Y-116995000D01*
X140956062Y-116929634D01*
X141014712Y-116889624D01*
X141053517Y-116883500D01*
X141445515Y-116883500D01*
X141447237Y-116884005D01*
G37*
%TD.AperFunction*%
%TA.AperFunction,Conductor*%
G36*
X143588122Y-116608089D02*
G01*
X143602245Y-116624388D01*
X143654867Y-116696816D01*
X143759456Y-116801405D01*
X143793482Y-116863717D01*
X143788417Y-116934532D01*
X143745870Y-116991368D01*
X143679350Y-117016179D01*
X143670361Y-117016500D01*
X143407786Y-117016500D01*
X143335070Y-117023929D01*
X143265270Y-117010953D01*
X143213565Y-116962299D01*
X143196372Y-116893416D01*
X143219150Y-116826173D01*
X143233165Y-116809491D01*
X143345517Y-116697140D01*
X143398375Y-116624386D01*
X143454594Y-116581035D01*
X143525330Y-116574958D01*
X143588122Y-116608089D01*
G37*
%TD.AperFunction*%
%TA.AperFunction,Conductor*%
G36*
X142221794Y-112233502D02*
G01*
X142268287Y-112287158D01*
X142278391Y-112357432D01*
X142248897Y-112422012D01*
X142192609Y-112459332D01*
X142163649Y-112468742D01*
X142074489Y-112497711D01*
X142074483Y-112497714D01*
X141919016Y-112576929D01*
X141777859Y-112679486D01*
X141777856Y-112679488D01*
X141654488Y-112802856D01*
X141654486Y-112802859D01*
X141551929Y-112944016D01*
X141472714Y-113099483D01*
X141472711Y-113099489D01*
X141418797Y-113265423D01*
X141418796Y-113265427D01*
X141391501Y-113437760D01*
X141391501Y-114062242D01*
X141418796Y-114234575D01*
X141418797Y-114234578D01*
X141464599Y-114375546D01*
X141472713Y-114400517D01*
X141537230Y-114527137D01*
X141551929Y-114555985D01*
X141639080Y-114675938D01*
X141662939Y-114742806D01*
X141646858Y-114811957D01*
X141639081Y-114824059D01*
X141551927Y-114944017D01*
X141472713Y-115099483D01*
X141472710Y-115099489D01*
X141428108Y-115236763D01*
X141418795Y-115265427D01*
X141394396Y-115419479D01*
X141391500Y-115437763D01*
X141391500Y-115490500D01*
X141371498Y-115558621D01*
X141317842Y-115605114D01*
X141265500Y-115616500D01*
X140822691Y-115616500D01*
X140754570Y-115596498D01*
X140733596Y-115579595D01*
X140733001Y-115579000D01*
X139876000Y-115579000D01*
X139807879Y-115558998D01*
X139761386Y-115505342D01*
X139750000Y-115453000D01*
X139750000Y-115197000D01*
X139770002Y-115128879D01*
X139823658Y-115082386D01*
X139876000Y-115071000D01*
X140732999Y-115071000D01*
X140732999Y-115067778D01*
X140726518Y-114996446D01*
X140675366Y-114832293D01*
X140586421Y-114685159D01*
X140586413Y-114685149D01*
X140490713Y-114589449D01*
X140456687Y-114527137D01*
X140461752Y-114456322D01*
X140490713Y-114411259D01*
X140586811Y-114315160D01*
X140586816Y-114315155D01*
X140675827Y-114167913D01*
X140727013Y-114003649D01*
X140733500Y-113932265D01*
X140733499Y-113417736D01*
X140727013Y-113346351D01*
X140675827Y-113182087D01*
X140586816Y-113034845D01*
X140586815Y-113034844D01*
X140582873Y-113028323D01*
X140584143Y-113027554D01*
X140561020Y-112969489D01*
X140574583Y-112899799D01*
X140623669Y-112848506D01*
X140638257Y-112841329D01*
X140638917Y-112841055D01*
X140641127Y-112840140D01*
X140753893Y-112764793D01*
X140849793Y-112668893D01*
X140925140Y-112556127D01*
X140944868Y-112508500D01*
X140977037Y-112430839D01*
X140977038Y-112430834D01*
X140977041Y-112430828D01*
X141000097Y-112314917D01*
X141033005Y-112252009D01*
X141094700Y-112216877D01*
X141123676Y-112213500D01*
X142153673Y-112213500D01*
X142221794Y-112233502D01*
G37*
%TD.AperFunction*%
%TA.AperFunction,Conductor*%
G36*
X138226146Y-110673331D02*
G01*
X138282982Y-110715878D01*
X138307793Y-110782398D01*
X138305693Y-110815968D01*
X138296500Y-110862183D01*
X138296500Y-110997814D01*
X138316980Y-111100770D01*
X138322959Y-111130828D01*
X138352075Y-111201119D01*
X138354420Y-111206781D01*
X138362009Y-111277371D01*
X138354420Y-111303219D01*
X138322960Y-111379169D01*
X138322959Y-111379170D01*
X138296500Y-111512185D01*
X138296500Y-111647814D01*
X138322828Y-111780171D01*
X138322959Y-111780828D01*
X138332804Y-111804596D01*
X138354420Y-111856781D01*
X138362009Y-111927371D01*
X138354420Y-111953219D01*
X138322960Y-112029169D01*
X138322959Y-112029170D01*
X138296500Y-112162185D01*
X138296500Y-112297814D01*
X138322959Y-112430829D01*
X138322962Y-112430839D01*
X138374857Y-112556122D01*
X138374860Y-112556128D01*
X138384796Y-112570997D01*
X138406012Y-112638749D01*
X138387230Y-112707216D01*
X138334413Y-112754660D01*
X138280032Y-112767000D01*
X138279000Y-112767000D01*
X138279000Y-113624000D01*
X138276408Y-113632825D01*
X138277718Y-113641932D01*
X138266562Y-113666357D01*
X138258998Y-113692121D01*
X138252044Y-113698145D01*
X138248224Y-113706512D01*
X138225638Y-113721026D01*
X138205342Y-113738614D01*
X138194655Y-113740938D01*
X138188498Y-113744896D01*
X138153000Y-113750000D01*
X138009500Y-113750000D01*
X137941379Y-113729998D01*
X137894886Y-113676342D01*
X137883500Y-113624000D01*
X137883500Y-112437607D01*
X137883499Y-112437603D01*
X137859155Y-112315215D01*
X137811400Y-112199925D01*
X137742071Y-112096167D01*
X137653833Y-112007929D01*
X137298810Y-111652906D01*
X137264784Y-111590594D01*
X137269849Y-111519779D01*
X137312396Y-111462943D01*
X137317877Y-111459064D01*
X137373241Y-111422071D01*
X138093022Y-110702289D01*
X138155331Y-110668267D01*
X138226146Y-110673331D01*
G37*
%TD.AperFunction*%
%TA.AperFunction,Conductor*%
G36*
X152009098Y-110587104D02*
G01*
X152024746Y-110586675D01*
X152057764Y-110600671D01*
X152182087Y-110675827D01*
X152182088Y-110675827D01*
X152182091Y-110675829D01*
X152333376Y-110722970D01*
X152384986Y-110754170D01*
X152583906Y-110953090D01*
X152617932Y-111015402D01*
X152612867Y-111086217D01*
X152583907Y-111131279D01*
X152544325Y-111170861D01*
X152544319Y-111170869D01*
X152456534Y-111302250D01*
X152444898Y-111319664D01*
X152430716Y-111353902D01*
X152376414Y-111484996D01*
X152341500Y-111660518D01*
X152341500Y-111716000D01*
X152321498Y-111784121D01*
X152267842Y-111830614D01*
X152215500Y-111842000D01*
X152119000Y-111842000D01*
X152119000Y-113024000D01*
X152098998Y-113092121D01*
X152045342Y-113138614D01*
X151993000Y-113150000D01*
X151737000Y-113150000D01*
X151668879Y-113129998D01*
X151622386Y-113076342D01*
X151611000Y-113024000D01*
X151611000Y-111842000D01*
X151466402Y-111842000D01*
X151405904Y-111848505D01*
X151274743Y-111897425D01*
X151203928Y-111902489D01*
X151186679Y-111897424D01*
X151054204Y-111848012D01*
X151054196Y-111848010D01*
X150993649Y-111841501D01*
X150993638Y-111841501D01*
X150234594Y-111841501D01*
X150166473Y-111821499D01*
X150145499Y-111804596D01*
X150121079Y-111780176D01*
X150121077Y-111780174D01*
X150017319Y-111710845D01*
X149902029Y-111663090D01*
X149825216Y-111647811D01*
X149779640Y-111638745D01*
X149779638Y-111638745D01*
X149211851Y-111638745D01*
X149143730Y-111618743D01*
X149122756Y-111601840D01*
X149087485Y-111566569D01*
X149087483Y-111566567D01*
X148987858Y-111500000D01*
X148938683Y-111467142D01*
X148938679Y-111467140D01*
X148810781Y-111414162D01*
X148755500Y-111369614D01*
X148733080Y-111302250D01*
X148733000Y-111297754D01*
X148733000Y-111254000D01*
X147901000Y-111254000D01*
X147832879Y-111233998D01*
X147786386Y-111180342D01*
X147775000Y-111128000D01*
X147775000Y-110872000D01*
X147795002Y-110803879D01*
X147848658Y-110757386D01*
X147901000Y-110746000D01*
X148733000Y-110746000D01*
X148733000Y-110708500D01*
X148753002Y-110640379D01*
X148806658Y-110593886D01*
X148859000Y-110582500D01*
X151992581Y-110582500D01*
X152009098Y-110587104D01*
G37*
%TD.AperFunction*%
%TD*%
M02*
