M48
; DRILL file {KiCad 9.0.0} date 2025-09-01T12:08:50-0700
; FORMAT={-:-/ absolute / inch / decimal}
; #@! TF.CreationDate,2025-09-01T12:08:50-07:00
; #@! TF.GenerationSoftware,Kicad,Pcbnew,9.0.0
; #@! TF.FileFunction,Plated,1,4,PTH
FMAT,2
INCH
; #@! TA.AperFunction,Plated,PTH,ViaDrill
T1C0.0157
; #@! TA.AperFunction,Plated,PTH,ComponentDrill
T2C0.0335
; #@! TA.AperFunction,Plated,PTH,ComponentDrill
T3C0.1260
%
G90
G05
T1
X4.7047Y-6.2913
X4.7685Y-6.2913
X4.8228Y-6.2913
X4.8878Y-4.5846
X4.9016Y-4.3898
X4.9016Y-4.5177
X4.9016Y-4.6457
X5.3156Y-4.457
X5.3445Y-4.5571
X5.3642Y-4.2913
X5.4035Y-4.252
X5.4035Y-4.7638
X5.4035Y-4.8425
X5.442Y-4.36
X5.5254Y-4.5217
X5.6024Y-4.0197
X5.626Y-6.2953
X5.6495Y-4.3386
X5.6575Y-4.0197
X5.6575Y-4.0669
X5.6614Y-4.9606
X5.6898Y-6.2953
X5.6988Y-4.3701
X5.7165Y-4.9252
X5.7165Y-4.9646
X5.7194Y-4.0562
X5.7441Y-6.2953
X5.7525Y-4.6609
X5.7638Y-4.0394
X5.8346Y-4.0394
X5.8468Y-4.4202
X5.9154Y-4.3701
X6.0335Y-4.3996
X6.0433Y-4.5669
X6.0827Y-4.6161
X6.122Y-4.3209
X6.1516Y-4.4783
X6.185Y-4.3307
X6.1876Y-4.5388
X6.251Y-4.6024
X6.3287Y-4.3209
X6.3287Y-4.5079
X6.3317Y-4.4449
X6.3709Y-4.4626
X6.3736Y-4.5406
X6.4291Y-4.6024
X6.4882Y-5.0075
X6.5472Y-6.2937
X6.611Y-6.2937
X6.6654Y-6.2937
X6.8772Y-5.5886
X6.8858Y-3.439
T2
X5.6102Y-4.5571
X5.6102Y-4.4783
X5.689Y-4.4783
X5.689Y-4.5571
X5.7677Y-4.4783
X5.7677Y-4.5571
T3
X4.1929Y-2.7677
X4.1929Y-6.2717
X7.185Y-2.7677
X7.185Y-6.2717
M30
