%TF.GenerationSoftware,KiCad,Pcbnew,(6.0.9)*%
%TF.CreationDate,2023-03-28T01:31:43-07:00*%
%TF.ProjectId,solar-panel-side-Z,736f6c61-722d-4706-916e-656c2d736964,3.1*%
%TF.SameCoordinates,Original*%
%TF.FileFunction,Other,Comment*%
%FSLAX46Y46*%
G04 Gerber Fmt 4.6, Leading zero omitted, Abs format (unit mm)*
G04 Created by KiCad (PCBNEW (6.0.9)) date 2023-03-28 01:31:43*
%MOMM*%
%LPD*%
G01*
G04 APERTURE LIST*
%ADD10C,0.002000*%
%ADD11C,0.150000*%
G04 APERTURE END LIST*
D10*
%TO.C,J1*%
X136632667Y-99895357D02*
X136626620Y-99901404D01*
X136608477Y-99907452D01*
X136596381Y-99907452D01*
X136578239Y-99901404D01*
X136566143Y-99889309D01*
X136560096Y-99877214D01*
X136554048Y-99853023D01*
X136554048Y-99834880D01*
X136560096Y-99810690D01*
X136566143Y-99798595D01*
X136578239Y-99786500D01*
X136596381Y-99780452D01*
X136608477Y-99780452D01*
X136626620Y-99786500D01*
X136632667Y-99792547D01*
X136705239Y-99907452D02*
X136693143Y-99901404D01*
X136687096Y-99895357D01*
X136681048Y-99883261D01*
X136681048Y-99846976D01*
X136687096Y-99834880D01*
X136693143Y-99828833D01*
X136705239Y-99822785D01*
X136723381Y-99822785D01*
X136735477Y-99828833D01*
X136741524Y-99834880D01*
X136747572Y-99846976D01*
X136747572Y-99883261D01*
X136741524Y-99895357D01*
X136735477Y-99901404D01*
X136723381Y-99907452D01*
X136705239Y-99907452D01*
X136802001Y-99822785D02*
X136802001Y-99949785D01*
X136802001Y-99828833D02*
X136814096Y-99822785D01*
X136838286Y-99822785D01*
X136850381Y-99828833D01*
X136856429Y-99834880D01*
X136862477Y-99846976D01*
X136862477Y-99883261D01*
X136856429Y-99895357D01*
X136850381Y-99901404D01*
X136838286Y-99907452D01*
X136814096Y-99907452D01*
X136802001Y-99901404D01*
X136904810Y-99822785D02*
X136935048Y-99907452D01*
X136965286Y-99822785D02*
X136935048Y-99907452D01*
X136922953Y-99937690D01*
X136916905Y-99943738D01*
X136904810Y-99949785D01*
X137013667Y-99907452D02*
X137013667Y-99822785D01*
X137013667Y-99846976D02*
X137019715Y-99834880D01*
X137025762Y-99828833D01*
X137037858Y-99822785D01*
X137049953Y-99822785D01*
X137092286Y-99907452D02*
X137092286Y-99822785D01*
X137092286Y-99780452D02*
X137086239Y-99786500D01*
X137092286Y-99792547D01*
X137098334Y-99786500D01*
X137092286Y-99780452D01*
X137092286Y-99792547D01*
X137207191Y-99822785D02*
X137207191Y-99925595D01*
X137201143Y-99937690D01*
X137195096Y-99943738D01*
X137183001Y-99949785D01*
X137164858Y-99949785D01*
X137152762Y-99943738D01*
X137207191Y-99901404D02*
X137195096Y-99907452D01*
X137170905Y-99907452D01*
X137158810Y-99901404D01*
X137152762Y-99895357D01*
X137146715Y-99883261D01*
X137146715Y-99846976D01*
X137152762Y-99834880D01*
X137158810Y-99828833D01*
X137170905Y-99822785D01*
X137195096Y-99822785D01*
X137207191Y-99828833D01*
X137267667Y-99907452D02*
X137267667Y-99780452D01*
X137322096Y-99907452D02*
X137322096Y-99840928D01*
X137316048Y-99828833D01*
X137303953Y-99822785D01*
X137285810Y-99822785D01*
X137273715Y-99828833D01*
X137267667Y-99834880D01*
X137364429Y-99822785D02*
X137412810Y-99822785D01*
X137382572Y-99780452D02*
X137382572Y-99889309D01*
X137388620Y-99901404D01*
X137400715Y-99907452D01*
X137412810Y-99907452D01*
X137545858Y-99792547D02*
X137551905Y-99786500D01*
X137564001Y-99780452D01*
X137594239Y-99780452D01*
X137606334Y-99786500D01*
X137612381Y-99792547D01*
X137618429Y-99804642D01*
X137618429Y-99816738D01*
X137612381Y-99834880D01*
X137539810Y-99907452D01*
X137618429Y-99907452D01*
X137697048Y-99780452D02*
X137709143Y-99780452D01*
X137721239Y-99786500D01*
X137727286Y-99792547D01*
X137733334Y-99804642D01*
X137739381Y-99828833D01*
X137739381Y-99859071D01*
X137733334Y-99883261D01*
X137727286Y-99895357D01*
X137721239Y-99901404D01*
X137709143Y-99907452D01*
X137697048Y-99907452D01*
X137684953Y-99901404D01*
X137678905Y-99895357D01*
X137672858Y-99883261D01*
X137666810Y-99859071D01*
X137666810Y-99828833D01*
X137672858Y-99804642D01*
X137678905Y-99792547D01*
X137684953Y-99786500D01*
X137697048Y-99780452D01*
X137787762Y-99792547D02*
X137793810Y-99786500D01*
X137805905Y-99780452D01*
X137836143Y-99780452D01*
X137848239Y-99786500D01*
X137854286Y-99792547D01*
X137860334Y-99804642D01*
X137860334Y-99816738D01*
X137854286Y-99834880D01*
X137781715Y-99907452D01*
X137860334Y-99907452D01*
X137981286Y-99907452D02*
X137908715Y-99907452D01*
X137945001Y-99907452D02*
X137945001Y-99780452D01*
X137932905Y-99798595D01*
X137920810Y-99810690D01*
X137908715Y-99816738D01*
X138126429Y-99871166D02*
X138186905Y-99871166D01*
X138114334Y-99907452D02*
X138156667Y-99780452D01*
X138199001Y-99907452D01*
X138295762Y-99901404D02*
X138283667Y-99907452D01*
X138259477Y-99907452D01*
X138247381Y-99901404D01*
X138241334Y-99895357D01*
X138235286Y-99883261D01*
X138235286Y-99846976D01*
X138241334Y-99834880D01*
X138247381Y-99828833D01*
X138259477Y-99822785D01*
X138283667Y-99822785D01*
X138295762Y-99828833D01*
X138404620Y-99901404D02*
X138392524Y-99907452D01*
X138368334Y-99907452D01*
X138356239Y-99901404D01*
X138350191Y-99895357D01*
X138344143Y-99883261D01*
X138344143Y-99846976D01*
X138350191Y-99834880D01*
X138356239Y-99828833D01*
X138368334Y-99822785D01*
X138392524Y-99822785D01*
X138404620Y-99828833D01*
X138507429Y-99901404D02*
X138495334Y-99907452D01*
X138471143Y-99907452D01*
X138459048Y-99901404D01*
X138453001Y-99889309D01*
X138453001Y-99840928D01*
X138459048Y-99828833D01*
X138471143Y-99822785D01*
X138495334Y-99822785D01*
X138507429Y-99828833D01*
X138513477Y-99840928D01*
X138513477Y-99853023D01*
X138453001Y-99865119D01*
X138586048Y-99907452D02*
X138573953Y-99901404D01*
X138567905Y-99889309D01*
X138567905Y-99780452D01*
X138682810Y-99901404D02*
X138670715Y-99907452D01*
X138646524Y-99907452D01*
X138634429Y-99901404D01*
X138628381Y-99889309D01*
X138628381Y-99840928D01*
X138634429Y-99828833D01*
X138646524Y-99822785D01*
X138670715Y-99822785D01*
X138682810Y-99828833D01*
X138688858Y-99840928D01*
X138688858Y-99853023D01*
X138628381Y-99865119D01*
X138743286Y-99907452D02*
X138743286Y-99822785D01*
X138743286Y-99846976D02*
X138749334Y-99834880D01*
X138755381Y-99828833D01*
X138767477Y-99822785D01*
X138779572Y-99822785D01*
X138876334Y-99907452D02*
X138876334Y-99840928D01*
X138870286Y-99828833D01*
X138858191Y-99822785D01*
X138834001Y-99822785D01*
X138821905Y-99828833D01*
X138876334Y-99901404D02*
X138864239Y-99907452D01*
X138834001Y-99907452D01*
X138821905Y-99901404D01*
X138815858Y-99889309D01*
X138815858Y-99877214D01*
X138821905Y-99865119D01*
X138834001Y-99859071D01*
X138864239Y-99859071D01*
X138876334Y-99853023D01*
X138918667Y-99822785D02*
X138967048Y-99822785D01*
X138936810Y-99780452D02*
X138936810Y-99889309D01*
X138942858Y-99901404D01*
X138954953Y-99907452D01*
X138967048Y-99907452D01*
X139057762Y-99901404D02*
X139045667Y-99907452D01*
X139021477Y-99907452D01*
X139009381Y-99901404D01*
X139003334Y-99889309D01*
X139003334Y-99840928D01*
X139009381Y-99828833D01*
X139021477Y-99822785D01*
X139045667Y-99822785D01*
X139057762Y-99828833D01*
X139063810Y-99840928D01*
X139063810Y-99853023D01*
X139003334Y-99865119D01*
X139172667Y-99907452D02*
X139172667Y-99780452D01*
X139172667Y-99901404D02*
X139160572Y-99907452D01*
X139136381Y-99907452D01*
X139124286Y-99901404D01*
X139118239Y-99895357D01*
X139112191Y-99883261D01*
X139112191Y-99846976D01*
X139118239Y-99834880D01*
X139124286Y-99828833D01*
X139136381Y-99822785D01*
X139160572Y-99822785D01*
X139172667Y-99828833D01*
X139329905Y-99907452D02*
X139329905Y-99780452D01*
X139360143Y-99780452D01*
X139378286Y-99786500D01*
X139390381Y-99798595D01*
X139396429Y-99810690D01*
X139402477Y-99834880D01*
X139402477Y-99853023D01*
X139396429Y-99877214D01*
X139390381Y-99889309D01*
X139378286Y-99901404D01*
X139360143Y-99907452D01*
X139329905Y-99907452D01*
X139505286Y-99901404D02*
X139493191Y-99907452D01*
X139469001Y-99907452D01*
X139456905Y-99901404D01*
X139450858Y-99889309D01*
X139450858Y-99840928D01*
X139456905Y-99828833D01*
X139469001Y-99822785D01*
X139493191Y-99822785D01*
X139505286Y-99828833D01*
X139511334Y-99840928D01*
X139511334Y-99853023D01*
X139450858Y-99865119D01*
X139559715Y-99901404D02*
X139571810Y-99907452D01*
X139596001Y-99907452D01*
X139608096Y-99901404D01*
X139614143Y-99889309D01*
X139614143Y-99883261D01*
X139608096Y-99871166D01*
X139596001Y-99865119D01*
X139577858Y-99865119D01*
X139565762Y-99859071D01*
X139559715Y-99846976D01*
X139559715Y-99840928D01*
X139565762Y-99828833D01*
X139577858Y-99822785D01*
X139596001Y-99822785D01*
X139608096Y-99828833D01*
X139668572Y-99907452D02*
X139668572Y-99822785D01*
X139668572Y-99780452D02*
X139662524Y-99786500D01*
X139668572Y-99792547D01*
X139674620Y-99786500D01*
X139668572Y-99780452D01*
X139668572Y-99792547D01*
X139783477Y-99822785D02*
X139783477Y-99925595D01*
X139777429Y-99937690D01*
X139771381Y-99943738D01*
X139759286Y-99949785D01*
X139741143Y-99949785D01*
X139729048Y-99943738D01*
X139783477Y-99901404D02*
X139771381Y-99907452D01*
X139747191Y-99907452D01*
X139735096Y-99901404D01*
X139729048Y-99895357D01*
X139723001Y-99883261D01*
X139723001Y-99846976D01*
X139729048Y-99834880D01*
X139735096Y-99828833D01*
X139747191Y-99822785D01*
X139771381Y-99822785D01*
X139783477Y-99828833D01*
X139843953Y-99822785D02*
X139843953Y-99907452D01*
X139843953Y-99834880D02*
X139850001Y-99828833D01*
X139862096Y-99822785D01*
X139880239Y-99822785D01*
X139892334Y-99828833D01*
X139898381Y-99840928D01*
X139898381Y-99907452D01*
X139952810Y-99901404D02*
X139964905Y-99907452D01*
X139989096Y-99907452D01*
X140001191Y-99901404D01*
X140007239Y-99889309D01*
X140007239Y-99883261D01*
X140001191Y-99871166D01*
X139989096Y-99865119D01*
X139970953Y-99865119D01*
X139958858Y-99859071D01*
X139952810Y-99846976D01*
X139952810Y-99840928D01*
X139958858Y-99828833D01*
X139970953Y-99822785D01*
X139989096Y-99822785D01*
X140001191Y-99828833D01*
X140061667Y-99895357D02*
X140067715Y-99901404D01*
X140061667Y-99907452D01*
X140055620Y-99901404D01*
X140061667Y-99895357D01*
X140061667Y-99907452D01*
X140212858Y-99871166D02*
X140273334Y-99871166D01*
X140200762Y-99907452D02*
X140243096Y-99780452D01*
X140285429Y-99907452D01*
X140345905Y-99907452D02*
X140333810Y-99901404D01*
X140327762Y-99889309D01*
X140327762Y-99780452D01*
X140412429Y-99907452D02*
X140400334Y-99901404D01*
X140394286Y-99889309D01*
X140394286Y-99780452D01*
X140557572Y-99907452D02*
X140557572Y-99822785D01*
X140557572Y-99846976D02*
X140563620Y-99834880D01*
X140569667Y-99828833D01*
X140581762Y-99822785D01*
X140593858Y-99822785D01*
X140636191Y-99907452D02*
X140636191Y-99822785D01*
X140636191Y-99780452D02*
X140630143Y-99786500D01*
X140636191Y-99792547D01*
X140642239Y-99786500D01*
X140636191Y-99780452D01*
X140636191Y-99792547D01*
X140751096Y-99822785D02*
X140751096Y-99925595D01*
X140745048Y-99937690D01*
X140739001Y-99943738D01*
X140726905Y-99949785D01*
X140708762Y-99949785D01*
X140696667Y-99943738D01*
X140751096Y-99901404D02*
X140739001Y-99907452D01*
X140714810Y-99907452D01*
X140702715Y-99901404D01*
X140696667Y-99895357D01*
X140690620Y-99883261D01*
X140690620Y-99846976D01*
X140696667Y-99834880D01*
X140702715Y-99828833D01*
X140714810Y-99822785D01*
X140739001Y-99822785D01*
X140751096Y-99828833D01*
X140811572Y-99907452D02*
X140811572Y-99780452D01*
X140866001Y-99907452D02*
X140866001Y-99840928D01*
X140859953Y-99828833D01*
X140847858Y-99822785D01*
X140829715Y-99822785D01*
X140817620Y-99828833D01*
X140811572Y-99834880D01*
X140908334Y-99822785D02*
X140956715Y-99822785D01*
X140926477Y-99780452D02*
X140926477Y-99889309D01*
X140932524Y-99901404D01*
X140944620Y-99907452D01*
X140956715Y-99907452D01*
X140993001Y-99901404D02*
X141005096Y-99907452D01*
X141029286Y-99907452D01*
X141041381Y-99901404D01*
X141047429Y-99889309D01*
X141047429Y-99883261D01*
X141041381Y-99871166D01*
X141029286Y-99865119D01*
X141011143Y-99865119D01*
X140999048Y-99859071D01*
X140993001Y-99846976D01*
X140993001Y-99840928D01*
X140999048Y-99828833D01*
X141011143Y-99822785D01*
X141029286Y-99822785D01*
X141041381Y-99828833D01*
X141198620Y-99907452D02*
X141198620Y-99822785D01*
X141198620Y-99846976D02*
X141204667Y-99834880D01*
X141210715Y-99828833D01*
X141222810Y-99822785D01*
X141234905Y-99822785D01*
X141325620Y-99901404D02*
X141313524Y-99907452D01*
X141289334Y-99907452D01*
X141277239Y-99901404D01*
X141271191Y-99889309D01*
X141271191Y-99840928D01*
X141277239Y-99828833D01*
X141289334Y-99822785D01*
X141313524Y-99822785D01*
X141325620Y-99828833D01*
X141331667Y-99840928D01*
X141331667Y-99853023D01*
X141271191Y-99865119D01*
X141380048Y-99901404D02*
X141392143Y-99907452D01*
X141416334Y-99907452D01*
X141428429Y-99901404D01*
X141434477Y-99889309D01*
X141434477Y-99883261D01*
X141428429Y-99871166D01*
X141416334Y-99865119D01*
X141398191Y-99865119D01*
X141386096Y-99859071D01*
X141380048Y-99846976D01*
X141380048Y-99840928D01*
X141386096Y-99828833D01*
X141398191Y-99822785D01*
X141416334Y-99822785D01*
X141428429Y-99828833D01*
X141537286Y-99901404D02*
X141525191Y-99907452D01*
X141501001Y-99907452D01*
X141488905Y-99901404D01*
X141482858Y-99889309D01*
X141482858Y-99840928D01*
X141488905Y-99828833D01*
X141501001Y-99822785D01*
X141525191Y-99822785D01*
X141537286Y-99828833D01*
X141543334Y-99840928D01*
X141543334Y-99853023D01*
X141482858Y-99865119D01*
X141597762Y-99907452D02*
X141597762Y-99822785D01*
X141597762Y-99846976D02*
X141603810Y-99834880D01*
X141609858Y-99828833D01*
X141621953Y-99822785D01*
X141634048Y-99822785D01*
X141664286Y-99822785D02*
X141694524Y-99907452D01*
X141724762Y-99822785D01*
X141821524Y-99901404D02*
X141809429Y-99907452D01*
X141785239Y-99907452D01*
X141773143Y-99901404D01*
X141767096Y-99889309D01*
X141767096Y-99840928D01*
X141773143Y-99828833D01*
X141785239Y-99822785D01*
X141809429Y-99822785D01*
X141821524Y-99828833D01*
X141827572Y-99840928D01*
X141827572Y-99853023D01*
X141767096Y-99865119D01*
X141936429Y-99907452D02*
X141936429Y-99780452D01*
X141936429Y-99901404D02*
X141924334Y-99907452D01*
X141900143Y-99907452D01*
X141888048Y-99901404D01*
X141882001Y-99895357D01*
X141875953Y-99883261D01*
X141875953Y-99846976D01*
X141882001Y-99834880D01*
X141888048Y-99828833D01*
X141900143Y-99822785D01*
X141924334Y-99822785D01*
X141936429Y-99828833D01*
X141996905Y-99895357D02*
X142002953Y-99901404D01*
X141996905Y-99907452D01*
X141990858Y-99901404D01*
X141996905Y-99895357D01*
X141996905Y-99907452D01*
D11*
X121836120Y-94452380D02*
X121836120Y-93452380D01*
X122169453Y-94166666D01*
X122502786Y-93452380D01*
X122502786Y-94452380D01*
X122931358Y-94166666D02*
X123407548Y-94166666D01*
X122836120Y-94452380D02*
X123169453Y-93452380D01*
X123502786Y-94452380D01*
X123740881Y-93452380D02*
X124407548Y-94452380D01*
X124407548Y-93452380D02*
X123740881Y-94452380D01*
X124788501Y-94452380D02*
X124788501Y-93452380D01*
X125264691Y-94452380D02*
X125264691Y-93452380D01*
X125598024Y-94166666D01*
X125931358Y-93452380D01*
X125931358Y-94452380D01*
X126407548Y-93452380D02*
X126407548Y-94261904D01*
X126455167Y-94357142D01*
X126502786Y-94404761D01*
X126598024Y-94452380D01*
X126788501Y-94452380D01*
X126883739Y-94404761D01*
X126931358Y-94357142D01*
X126978977Y-94261904D01*
X126978977Y-93452380D01*
X127455167Y-94452380D02*
X127455167Y-93452380D01*
X127788501Y-94166666D01*
X128121834Y-93452380D01*
X128121834Y-94452380D01*
X128359929Y-94547619D02*
X129121834Y-94547619D01*
X129359929Y-94452380D02*
X129359929Y-93452380D01*
X129740881Y-93452380D01*
X129836120Y-93500000D01*
X129883739Y-93547619D01*
X129931358Y-93642857D01*
X129931358Y-93785714D01*
X129883739Y-93880952D01*
X129836120Y-93928571D01*
X129740881Y-93976190D01*
X129359929Y-93976190D01*
X130312310Y-94166666D02*
X130788501Y-94166666D01*
X130217072Y-94452380D02*
X130550405Y-93452380D01*
X130883739Y-94452380D01*
X131788501Y-94357142D02*
X131740881Y-94404761D01*
X131598024Y-94452380D01*
X131502786Y-94452380D01*
X131359929Y-94404761D01*
X131264691Y-94309523D01*
X131217072Y-94214285D01*
X131169453Y-94023809D01*
X131169453Y-93880952D01*
X131217072Y-93690476D01*
X131264691Y-93595238D01*
X131359929Y-93500000D01*
X131502786Y-93452380D01*
X131598024Y-93452380D01*
X131740881Y-93500000D01*
X131788501Y-93547619D01*
X132217072Y-94452380D02*
X132217072Y-93452380D01*
X132788501Y-94452380D02*
X132359929Y-93880952D01*
X132788501Y-93452380D02*
X132217072Y-94023809D01*
X133169453Y-94166666D02*
X133645643Y-94166666D01*
X133074215Y-94452380D02*
X133407548Y-93452380D01*
X133740881Y-94452380D01*
X134598024Y-93500000D02*
X134502786Y-93452380D01*
X134359929Y-93452380D01*
X134217072Y-93500000D01*
X134121834Y-93595238D01*
X134074215Y-93690476D01*
X134026596Y-93880952D01*
X134026596Y-94023809D01*
X134074215Y-94214285D01*
X134121834Y-94309523D01*
X134217072Y-94404761D01*
X134359929Y-94452380D01*
X134455167Y-94452380D01*
X134598024Y-94404761D01*
X134645643Y-94357142D01*
X134645643Y-94023809D01*
X134455167Y-94023809D01*
X135074215Y-93928571D02*
X135407548Y-93928571D01*
X135550405Y-94452380D02*
X135074215Y-94452380D01*
X135074215Y-93452380D01*
X135550405Y-93452380D01*
X135740881Y-94547619D02*
X136502786Y-94547619D01*
X136740881Y-94452380D02*
X136740881Y-93452380D01*
X136740881Y-93928571D02*
X137312310Y-93928571D01*
X137312310Y-94452380D02*
X137312310Y-93452380D01*
X137788501Y-93928571D02*
X138121834Y-93928571D01*
X138264691Y-94452380D02*
X137788501Y-94452380D01*
X137788501Y-93452380D01*
X138264691Y-93452380D01*
X138693262Y-94452380D02*
X138693262Y-93452380D01*
X139693262Y-93500000D02*
X139598024Y-93452380D01*
X139455167Y-93452380D01*
X139312310Y-93500000D01*
X139217072Y-93595238D01*
X139169453Y-93690476D01*
X139121834Y-93880952D01*
X139121834Y-94023809D01*
X139169453Y-94214285D01*
X139217072Y-94309523D01*
X139312310Y-94404761D01*
X139455167Y-94452380D01*
X139550405Y-94452380D01*
X139693262Y-94404761D01*
X139740881Y-94357142D01*
X139740881Y-94023809D01*
X139550405Y-94023809D01*
X140169453Y-94452380D02*
X140169453Y-93452380D01*
X140169453Y-93928571D02*
X140740881Y-93928571D01*
X140740881Y-94452380D02*
X140740881Y-93452380D01*
X141074215Y-93452380D02*
X141645643Y-93452380D01*
X141359929Y-94452380D02*
X141359929Y-93452380D01*
X141978977Y-94357142D02*
X142026596Y-94404761D01*
X141978977Y-94452380D01*
X141931358Y-94404761D01*
X141978977Y-94357142D01*
X141978977Y-94452380D01*
X141978977Y-93833333D02*
X142026596Y-93880952D01*
X141978977Y-93928571D01*
X141931358Y-93880952D01*
X141978977Y-93833333D01*
X141978977Y-93928571D01*
X142217072Y-94547619D02*
X142978977Y-94547619D01*
X143169453Y-93547619D02*
X143217072Y-93500000D01*
X143312310Y-93452380D01*
X143550405Y-93452380D01*
X143645643Y-93500000D01*
X143693262Y-93547619D01*
X143740881Y-93642857D01*
X143740881Y-93738095D01*
X143693262Y-93880952D01*
X143121834Y-94452380D01*
X143740881Y-94452380D01*
X143931358Y-94547619D02*
X144693262Y-94547619D01*
X144931358Y-94452380D02*
X144931358Y-93452380D01*
X145264691Y-94166666D01*
X145598024Y-93452380D01*
X145598024Y-94452380D01*
X146074215Y-94452380D02*
X146074215Y-93452380D01*
X146407548Y-94166666D01*
X146740881Y-93452380D01*
X146740881Y-94452380D01*
X128610654Y-96242381D02*
X128610654Y-95242381D01*
X129182083Y-96242381D01*
X129182083Y-95242381D01*
X129848750Y-95242381D02*
X130039226Y-95242381D01*
X130134464Y-95290001D01*
X130229702Y-95385239D01*
X130277321Y-95575715D01*
X130277321Y-95909048D01*
X130229702Y-96099524D01*
X130134464Y-96194762D01*
X130039226Y-96242381D01*
X129848750Y-96242381D01*
X129753512Y-96194762D01*
X129658273Y-96099524D01*
X129610654Y-95909048D01*
X129610654Y-95575715D01*
X129658273Y-95385239D01*
X129753512Y-95290001D01*
X129848750Y-95242381D01*
X130563035Y-95242381D02*
X131134464Y-95242381D01*
X130848750Y-96242381D02*
X130848750Y-95242381D01*
X131467797Y-95718572D02*
X131801131Y-95718572D01*
X131943988Y-96242381D02*
X131467797Y-96242381D01*
X131467797Y-95242381D01*
X131943988Y-95242381D01*
X120476120Y-97852380D02*
X120476120Y-96852380D01*
X120809453Y-97566666D01*
X121142786Y-96852380D01*
X121142786Y-97852380D01*
X121571358Y-97566666D02*
X122047548Y-97566666D01*
X121476120Y-97852380D02*
X121809453Y-96852380D01*
X122142786Y-97852380D01*
X122380881Y-96852380D02*
X123047548Y-97852380D01*
X123047548Y-96852380D02*
X122380881Y-97852380D01*
X123428501Y-97852380D02*
X123428501Y-96852380D01*
X123904691Y-97852380D02*
X123904691Y-96852380D01*
X124238024Y-97566666D01*
X124571358Y-96852380D01*
X124571358Y-97852380D01*
X125047548Y-96852380D02*
X125047548Y-97661904D01*
X125095167Y-97757142D01*
X125142786Y-97804761D01*
X125238024Y-97852380D01*
X125428501Y-97852380D01*
X125523739Y-97804761D01*
X125571358Y-97757142D01*
X125618977Y-97661904D01*
X125618977Y-96852380D01*
X126095167Y-97852380D02*
X126095167Y-96852380D01*
X126428501Y-97566666D01*
X126761834Y-96852380D01*
X126761834Y-97852380D01*
X126999929Y-97947619D02*
X127761834Y-97947619D01*
X127999929Y-97852380D02*
X127999929Y-96852380D01*
X128380881Y-96852380D01*
X128476120Y-96900000D01*
X128523739Y-96947619D01*
X128571358Y-97042857D01*
X128571358Y-97185714D01*
X128523739Y-97280952D01*
X128476120Y-97328571D01*
X128380881Y-97376190D01*
X127999929Y-97376190D01*
X128952310Y-97566666D02*
X129428501Y-97566666D01*
X128857072Y-97852380D02*
X129190405Y-96852380D01*
X129523739Y-97852380D01*
X130428501Y-97757142D02*
X130380881Y-97804761D01*
X130238024Y-97852380D01*
X130142786Y-97852380D01*
X129999929Y-97804761D01*
X129904691Y-97709523D01*
X129857072Y-97614285D01*
X129809453Y-97423809D01*
X129809453Y-97280952D01*
X129857072Y-97090476D01*
X129904691Y-96995238D01*
X129999929Y-96900000D01*
X130142786Y-96852380D01*
X130238024Y-96852380D01*
X130380881Y-96900000D01*
X130428501Y-96947619D01*
X130857072Y-97852380D02*
X130857072Y-96852380D01*
X131428501Y-97852380D02*
X130999929Y-97280952D01*
X131428501Y-96852380D02*
X130857072Y-97423809D01*
X131809453Y-97566666D02*
X132285643Y-97566666D01*
X131714215Y-97852380D02*
X132047548Y-96852380D01*
X132380881Y-97852380D01*
X133238024Y-96900000D02*
X133142786Y-96852380D01*
X132999929Y-96852380D01*
X132857072Y-96900000D01*
X132761834Y-96995238D01*
X132714215Y-97090476D01*
X132666596Y-97280952D01*
X132666596Y-97423809D01*
X132714215Y-97614285D01*
X132761834Y-97709523D01*
X132857072Y-97804761D01*
X132999929Y-97852380D01*
X133095167Y-97852380D01*
X133238024Y-97804761D01*
X133285643Y-97757142D01*
X133285643Y-97423809D01*
X133095167Y-97423809D01*
X133714215Y-97328571D02*
X134047548Y-97328571D01*
X134190405Y-97852380D02*
X133714215Y-97852380D01*
X133714215Y-96852380D01*
X134190405Y-96852380D01*
X134380881Y-97947619D02*
X135142786Y-97947619D01*
X135380881Y-97852380D02*
X135380881Y-96852380D01*
X135380881Y-97328571D02*
X135952310Y-97328571D01*
X135952310Y-97852380D02*
X135952310Y-96852380D01*
X136428501Y-97328571D02*
X136761834Y-97328571D01*
X136904691Y-97852380D02*
X136428501Y-97852380D01*
X136428501Y-96852380D01*
X136904691Y-96852380D01*
X137333262Y-97852380D02*
X137333262Y-96852380D01*
X138333262Y-96900000D02*
X138238024Y-96852380D01*
X138095167Y-96852380D01*
X137952310Y-96900000D01*
X137857072Y-96995238D01*
X137809453Y-97090476D01*
X137761834Y-97280952D01*
X137761834Y-97423809D01*
X137809453Y-97614285D01*
X137857072Y-97709523D01*
X137952310Y-97804761D01*
X138095167Y-97852380D01*
X138190405Y-97852380D01*
X138333262Y-97804761D01*
X138380881Y-97757142D01*
X138380881Y-97423809D01*
X138190405Y-97423809D01*
X138809453Y-97852380D02*
X138809453Y-96852380D01*
X138809453Y-97328571D02*
X139380881Y-97328571D01*
X139380881Y-97852380D02*
X139380881Y-96852380D01*
X139714215Y-96852380D02*
X140285643Y-96852380D01*
X139999929Y-97852380D02*
X139999929Y-96852380D01*
X140618977Y-97757142D02*
X140666596Y-97804761D01*
X140618977Y-97852380D01*
X140571358Y-97804761D01*
X140618977Y-97757142D01*
X140618977Y-97852380D01*
X140618977Y-97233333D02*
X140666596Y-97280952D01*
X140618977Y-97328571D01*
X140571358Y-97280952D01*
X140618977Y-97233333D01*
X140618977Y-97328571D01*
X140857072Y-97947619D02*
X141618977Y-97947619D01*
X141809453Y-96947619D02*
X141857072Y-96900000D01*
X141952310Y-96852380D01*
X142190405Y-96852380D01*
X142285643Y-96900000D01*
X142333262Y-96947619D01*
X142380881Y-97042857D01*
X142380881Y-97138095D01*
X142333262Y-97280952D01*
X141761834Y-97852380D01*
X142380881Y-97852380D01*
X142571358Y-97947619D02*
X143333262Y-97947619D01*
X143571358Y-97852380D02*
X143571358Y-96852380D01*
X143904691Y-97566666D01*
X144238024Y-96852380D01*
X144238024Y-97852380D01*
X144714215Y-97852380D02*
X144714215Y-96852380D01*
X145047548Y-97566666D01*
X145380881Y-96852380D01*
X145380881Y-97852380D01*
X128610654Y-96242381D02*
X128610654Y-95242381D01*
X129182083Y-96242381D01*
X129182083Y-95242381D01*
X129848750Y-95242381D02*
X130039226Y-95242381D01*
X130134464Y-95290001D01*
X130229702Y-95385239D01*
X130277321Y-95575715D01*
X130277321Y-95909048D01*
X130229702Y-96099524D01*
X130134464Y-96194762D01*
X130039226Y-96242381D01*
X129848750Y-96242381D01*
X129753512Y-96194762D01*
X129658273Y-96099524D01*
X129610654Y-95909048D01*
X129610654Y-95575715D01*
X129658273Y-95385239D01*
X129753512Y-95290001D01*
X129848750Y-95242381D01*
X130563035Y-95242381D02*
X131134464Y-95242381D01*
X130848750Y-96242381D02*
X130848750Y-95242381D01*
X131467797Y-95718572D02*
X131801131Y-95718572D01*
X131943988Y-96242381D02*
X131467797Y-96242381D01*
X131467797Y-95242381D01*
X131943988Y-95242381D01*
%TD*%
M02*
