%TF.GenerationSoftware,KiCad,Pcbnew,(6.0.9)*%
%TF.CreationDate,2023-03-28T01:31:43-07:00*%
%TF.ProjectId,solar-panel-side-Z,736f6c61-722d-4706-916e-656c2d736964,3.1*%
%TF.SameCoordinates,Original*%
%TF.FileFunction,Copper,L3,Inr*%
%TF.FilePolarity,Positive*%
%FSLAX46Y46*%
G04 Gerber Fmt 4.6, Leading zero omitted, Abs format (unit mm)*
G04 Created by KiCad (PCBNEW (6.0.9)) date 2023-03-28 01:31:43*
%MOMM*%
%LPD*%
G01*
G04 APERTURE LIST*
G04 Aperture macros list*
%AMRotRect*
0 Rectangle, with rotation*
0 The origin of the aperture is its center*
0 $1 length*
0 $2 width*
0 $3 Rotation angle, in degrees counterclockwise*
0 Add horizontal line*
21,1,$1,$2,0,0,$3*%
G04 Aperture macros list end*
%TA.AperFunction,ComponentPad*%
%ADD10C,5.250000*%
%TD*%
%TA.AperFunction,ComponentPad*%
%ADD11C,1.800000*%
%TD*%
%TA.AperFunction,ComponentPad*%
%ADD12RotRect,3.000000X3.000000X45.000000*%
%TD*%
%TA.AperFunction,ComponentPad*%
%ADD13C,3.000000*%
%TD*%
%TA.AperFunction,ViaPad*%
%ADD14C,0.800000*%
%TD*%
%TA.AperFunction,Conductor*%
%ADD15C,0.250000*%
%TD*%
G04 APERTURE END LIST*
D10*
%TO.N,unconnected-(J4-Pad1)*%
%TO.C,J4*%
X110500000Y-85000000D03*
%TD*%
%TO.N,unconnected-(J5-Pad1)*%
%TO.C,J5*%
X149500000Y-124000000D03*
%TD*%
%TO.N,unconnected-(J6-Pad1)*%
%TO.C,J6*%
X149500000Y-46000000D03*
%TD*%
%TO.N,unconnected-(J7-Pad1)*%
%TO.C,J7*%
X188500000Y-85000000D03*
%TD*%
D11*
%TO.N,Net-(J2-Pad1)*%
%TO.C,J2*%
X153121371Y-86416497D03*
%TO.N,Net-(J2-Pad2)*%
X150646497Y-88891371D03*
%TD*%
D12*
%TO.N,Net-(J2-Pad2)*%
%TO.C,J3*%
X146020000Y-85360000D03*
D13*
%TO.N,Net-(J2-Pad1)*%
X149612102Y-81767898D03*
%TD*%
D14*
%TO.N,GND*%
X171630000Y-123540000D03*
X162420000Y-71460000D03*
X164540000Y-46420000D03*
X156260000Y-77181974D03*
X145680000Y-105410000D03*
X148900000Y-105410000D03*
X137946283Y-91716283D03*
X111040000Y-62950000D03*
X165948061Y-69851939D03*
X119890000Y-126760000D03*
X163434805Y-84636536D03*
%TO.N,+3V3*%
X136278502Y-101378502D03*
X136278502Y-98431498D03*
X159658854Y-106178544D03*
X157110000Y-86940000D03*
X172337279Y-84901701D03*
%TO.N,VSOLAR*%
X132315000Y-96935000D03*
%TO.N,SDA*%
X144270000Y-90620000D03*
X153961802Y-75551802D03*
X144245000Y-93955000D03*
X157140000Y-76330000D03*
%TO.N,SCL*%
X156280000Y-74280000D03*
X143511396Y-92641396D03*
%TO.N,Net-(SC5-Pad2)*%
X139330000Y-104100000D03*
X133930000Y-123050000D03*
%TO.N,Net-(U2-Pad7)*%
X147180000Y-121330000D03*
X141780000Y-94680000D03*
X150850000Y-109290000D03*
X140460000Y-95870000D03*
X151860000Y-121250000D03*
%TO.N,AGND*%
X172316065Y-88896855D03*
X166758207Y-85488599D03*
%TD*%
D15*
%TO.N,Net-(U2-Pad7)*%
X118955000Y-103495000D02*
X117175000Y-100175000D01*
X122065000Y-104595000D02*
X120105000Y-101505000D01*
X180165000Y-83555000D02*
X180115000Y-87085000D01*
X174605000Y-71825000D02*
X175975000Y-74895000D01*
X133595000Y-57135000D02*
X136795000Y-55545000D01*
X115265000Y-78205000D02*
X116185000Y-74595000D01*
X166025000Y-63905000D02*
X168475000Y-66095000D01*
X154995000Y-55875000D02*
X158385000Y-56735000D01*
X173615000Y-108695000D02*
X170855000Y-111195000D01*
X114705000Y-93025000D02*
X114055000Y-89325000D01*
X181765000Y-83465000D02*
X181725000Y-87045000D01*
X181825000Y-72275000D02*
X182985000Y-75795000D01*
X183115000Y-89225000D02*
X182455000Y-92815000D01*
X160805000Y-117665000D02*
X157255000Y-118675000D01*
X163595000Y-60795000D02*
X166385000Y-62665000D01*
X170725000Y-98255000D02*
X168845000Y-100855000D01*
X126965000Y-110085000D02*
X124365000Y-107465000D01*
X172515000Y-67075000D02*
X174445000Y-69905000D01*
X121725000Y-94355000D02*
X120825000Y-91045000D01*
X136855000Y-107395000D02*
X134205000Y-105675000D01*
X176395000Y-74885000D02*
X177395000Y-78145000D01*
X138965000Y-113225000D02*
X135795000Y-111825000D01*
X113945000Y-81765000D02*
X114485000Y-78035000D01*
X127495000Y-105555000D02*
X125295000Y-102915000D01*
X121395000Y-94615000D02*
X120475000Y-91315000D01*
X119445000Y-86815000D02*
X119445000Y-83325000D01*
X149545000Y-115945000D02*
X146015000Y-115745000D01*
X131025000Y-104565000D02*
X128775000Y-102165000D01*
X153015000Y-117365000D02*
X149415000Y-117545000D01*
X172305000Y-112075000D02*
X169335000Y-114305000D01*
X131685000Y-106755000D02*
X129195000Y-104435000D01*
X147895000Y-120305000D02*
X144135000Y-119925000D01*
X132185000Y-54715000D02*
X135545000Y-53035000D01*
X134345000Y-112415000D02*
X131345000Y-110525000D01*
X164015000Y-64425000D02*
X166475000Y-66425000D01*
X127085000Y-65525000D02*
X129485000Y-63075000D01*
X152275000Y-59945000D02*
X155365000Y-60485000D01*
X174415000Y-69085000D02*
X176075000Y-72085000D01*
X178835000Y-93925000D02*
X177605000Y-97225000D01*
X173155000Y-58945000D02*
X175755000Y-61585000D01*
X120495000Y-80845000D02*
X121185000Y-77465000D01*
X154875000Y-52195000D02*
X158445000Y-52995000D01*
X116335000Y-82025000D02*
X116855000Y-78415000D01*
X177745000Y-68415000D02*
X179395000Y-71645000D01*
X119985000Y-73435000D02*
X121465000Y-70205000D01*
X140605000Y-112105000D02*
X137445000Y-110855000D01*
X178665000Y-99655000D02*
X176865000Y-102765000D01*
X142275000Y-111775000D02*
X139125000Y-110715000D01*
X170985000Y-99335000D02*
X169045000Y-101865000D01*
X123195000Y-81725000D02*
X123805000Y-78515000D01*
X137095000Y-56725000D02*
X140445000Y-55485000D01*
X179285000Y-82385000D02*
X179375000Y-85825000D01*
X178815000Y-77225000D02*
X179495000Y-80625000D01*
X140285000Y-118695000D02*
X136715000Y-117505000D01*
X116865000Y-71545000D02*
X118475000Y-68165000D01*
X159775000Y-116745000D02*
X156255000Y-117665000D01*
X146015000Y-115745000D02*
X142575000Y-115145000D01*
X114215000Y-86245000D02*
X114285000Y-82485000D01*
X139875000Y-117745000D02*
X136385000Y-116505000D01*
X163455000Y-112205000D02*
X160255000Y-113615000D01*
X127175000Y-112365000D02*
X124395000Y-109835000D01*
X172015000Y-99225000D02*
X170125000Y-101825000D01*
X121485000Y-100695000D02*
X119915000Y-97475000D01*
X165305000Y-105885000D02*
X162605000Y-107665000D01*
X172865000Y-68915000D02*
X174605000Y-71825000D01*
X124165000Y-68025000D02*
X126235000Y-65285000D01*
X173615000Y-59925000D02*
X176145000Y-62655000D01*
X168365000Y-107025000D02*
X165665000Y-109065000D01*
X123415000Y-103725000D02*
X121485000Y-100695000D01*
X182555000Y-79485000D02*
X182945000Y-83145000D01*
X180315000Y-93115000D02*
X179205000Y-96485000D01*
X141235000Y-60275000D02*
X144315000Y-59455000D01*
X141425000Y-56445000D02*
X144815000Y-55705000D01*
X180595000Y-89875000D02*
X179845000Y-93315000D01*
X136285000Y-108455000D02*
X133525000Y-106665000D01*
X142895000Y-111525000D02*
X139765000Y-110535000D01*
X139895000Y-59045000D02*
X143035000Y-58095000D01*
X150835000Y-119125000D02*
X147125000Y-119055000D01*
X122025000Y-70855000D02*
X123815000Y-67825000D01*
X133435000Y-116455000D02*
X130205000Y-114585000D01*
X149485000Y-112345000D02*
X146175000Y-112135000D01*
X126395000Y-97155000D02*
X125085000Y-94245000D01*
X144875000Y-116395000D02*
X141355000Y-115665000D01*
X119835000Y-79885000D02*
X120615000Y-76525000D01*
X123625000Y-81545000D02*
X124255000Y-78365000D01*
X148955000Y-54945000D02*
X152425000Y-55095000D01*
X150005000Y-115545000D02*
X146465000Y-115385000D01*
X122055000Y-81235000D02*
X122695000Y-78005000D01*
X128325000Y-104685000D02*
X126155000Y-102055000D01*
X129155000Y-66805000D02*
X131515000Y-64475000D01*
X171455000Y-61185000D02*
X173945000Y-63765000D01*
X160625000Y-59285000D02*
X163595000Y-60795000D01*
X154655000Y-52565000D02*
X158175000Y-53335000D01*
X178075000Y-79395000D02*
X178515000Y-82725000D01*
X167345000Y-106315000D02*
X164695000Y-108265000D01*
X125005000Y-92805000D02*
X124225000Y-89695000D01*
X123815000Y-67825000D02*
X125905000Y-65055000D01*
X147565000Y-57005000D02*
X150915000Y-56985000D01*
X166725000Y-109315000D02*
X163755000Y-111145000D01*
X118005000Y-75475000D02*
X119255000Y-72045000D01*
X137225000Y-58855000D02*
X140435000Y-57585000D01*
X162915000Y-53295000D02*
X166265000Y-54945000D01*
X134765000Y-57405000D02*
X138025000Y-55905000D01*
X128885000Y-65335000D02*
X131355000Y-63035000D01*
X118355000Y-90945000D02*
X117885000Y-87425000D01*
X131675000Y-113155000D02*
X128705000Y-111035000D01*
X125275000Y-75285000D02*
X126665000Y-72365000D01*
X171075000Y-106145000D02*
X168505000Y-108465000D01*
X128775000Y-102165000D02*
X126835000Y-99505000D01*
X146205000Y-117775000D02*
X142605000Y-117205000D01*
X157705000Y-55275000D02*
X161055000Y-56425000D01*
X145805000Y-117325000D02*
X142245000Y-116715000D01*
X151307403Y-109747403D02*
X150850000Y-109290000D01*
X175805000Y-99085000D02*
X173995000Y-102015000D01*
X183955000Y-78205000D02*
X184465000Y-81885000D01*
X117885000Y-90605000D02*
X117465000Y-87055000D01*
X124245000Y-83825000D02*
X124595000Y-80625000D01*
X159705000Y-109535000D02*
X156615000Y-110585000D01*
X181725000Y-87045000D02*
X181285000Y-90595000D01*
X183265000Y-81915000D02*
X183395000Y-85555000D01*
X157465000Y-51085000D02*
X161025000Y-52135000D01*
X123545000Y-105885000D02*
X121425000Y-102935000D01*
X137055000Y-62535000D02*
X139965000Y-61165000D01*
X158585000Y-109115000D02*
X155495000Y-110055000D01*
X117485000Y-71105000D02*
X119155000Y-67765000D01*
X141395000Y-54795000D02*
X144835000Y-54085000D01*
X136205000Y-115995000D02*
X132885000Y-114345000D01*
X153515000Y-110845000D02*
X150265000Y-111135000D01*
X126275000Y-71435000D02*
X128135000Y-68665000D01*
X116425000Y-94865000D02*
X115555000Y-91215000D01*
X170015000Y-103175000D02*
X167675000Y-105505000D01*
X121775000Y-74345000D02*
X123205000Y-71195000D01*
X164175000Y-52545000D02*
X167515000Y-54285000D01*
X143685000Y-53465000D02*
X147175000Y-53025000D01*
X117965000Y-73115000D02*
X119455000Y-69745000D01*
X118875000Y-76805000D02*
X119985000Y-73435000D01*
X118145000Y-80305000D02*
X118875000Y-76805000D01*
X178745000Y-72145000D02*
X179985000Y-75505000D01*
X179225000Y-97505000D02*
X177645000Y-100715000D01*
X179075000Y-76665000D02*
X179815000Y-80065000D01*
X116855000Y-78415000D02*
X117775000Y-74875000D01*
X127695000Y-60375000D02*
X130545000Y-58125000D01*
X138235000Y-116365000D02*
X134875000Y-114945000D01*
X182185000Y-71035000D02*
X183465000Y-74565000D01*
X178385000Y-65655000D02*
X180275000Y-68855000D01*
X149685000Y-57745000D02*
X153015000Y-57985000D01*
X139175000Y-114155000D02*
X135945000Y-112795000D01*
X184695000Y-89505000D02*
X184015000Y-93175000D01*
X129195000Y-104435000D02*
X127025000Y-101885000D01*
X162315000Y-117535000D02*
X158755000Y-118715000D01*
X175075000Y-109485000D02*
X172305000Y-112075000D01*
X179675000Y-87575000D02*
X179165000Y-91025000D01*
X119005000Y-84405000D02*
X119255000Y-81025000D01*
X183735000Y-90535000D02*
X182925000Y-94195000D01*
X145755000Y-49535000D02*
X149535000Y-49345000D01*
X135435000Y-114325000D02*
X132285000Y-112595000D01*
X170235000Y-56555000D02*
X173155000Y-58945000D01*
X147825000Y-116295000D02*
X144335000Y-115905000D01*
X133335000Y-115955000D02*
X130115000Y-114045000D01*
X134205000Y-105675000D02*
X131705000Y-103565000D01*
X116865000Y-76595000D02*
X117965000Y-73115000D01*
X121445000Y-97965000D02*
X120165000Y-94735000D01*
X178095000Y-64525000D02*
X180095000Y-67685000D01*
X126685000Y-67925000D02*
X128885000Y-65335000D01*
X170565000Y-71265000D02*
X172125000Y-74075000D01*
X159715000Y-60635000D02*
X162615000Y-62075000D01*
X182465000Y-81975000D02*
X182585000Y-85615000D01*
X180445000Y-94115000D02*
X179225000Y-97505000D01*
X121065000Y-86905000D02*
X121035000Y-83525000D01*
X166475000Y-110445000D02*
X163455000Y-112205000D01*
X139635000Y-117255000D02*
X136205000Y-115995000D01*
X172255000Y-59215000D02*
X174915000Y-61845000D01*
X119935000Y-87885000D02*
X119805000Y-84385000D01*
X121795000Y-84605000D02*
X122055000Y-81235000D01*
X129675000Y-68655000D02*
X131845000Y-66335000D01*
X115335000Y-80165000D02*
X116065000Y-76485000D01*
X119915000Y-97475000D02*
X118705000Y-94085000D01*
X130785000Y-56515000D02*
X133965000Y-54665000D01*
X148865000Y-112735000D02*
X145555000Y-112455000D01*
X178015000Y-69715000D02*
X179515000Y-72955000D01*
X173955000Y-74175000D02*
X175085000Y-77265000D01*
X133525000Y-106665000D02*
X131025000Y-104565000D01*
X173285000Y-64845000D02*
X175415000Y-67695000D01*
X123685000Y-77425000D02*
X124805000Y-74335000D01*
X131345000Y-110525000D02*
X128565000Y-108295000D01*
X158825000Y-55195000D02*
X162105000Y-56435000D01*
X121135000Y-79455000D02*
X121985000Y-76155000D01*
X131245000Y-108455000D02*
X128655000Y-106175000D01*
X157395000Y-59355000D02*
X160485000Y-60535000D01*
X139025000Y-51735000D02*
X142645000Y-50815000D01*
X119285000Y-101675000D02*
X117665000Y-98315000D01*
X144185000Y-116695000D02*
X140715000Y-115905000D01*
X164925000Y-56035000D02*
X167985000Y-57905000D01*
X152085000Y-111825000D02*
X148805000Y-111935000D01*
X171195000Y-98265000D02*
X169355000Y-100865000D01*
X114055000Y-89325000D02*
X113795000Y-85625000D01*
X173765000Y-98635000D02*
X171935000Y-101455000D01*
X168505000Y-108465000D02*
X165655000Y-110495000D01*
X120165000Y-94735000D02*
X119245000Y-91315000D01*
X151895000Y-53845000D02*
X155375000Y-54315000D01*
X125085000Y-94245000D02*
X124125000Y-91135000D01*
X176875000Y-69305000D02*
X178455000Y-72485000D01*
X116475000Y-89325000D02*
X116205000Y-85645000D01*
X180555000Y-97435000D02*
X178995000Y-100755000D01*
X150795000Y-54175000D02*
X154315000Y-54535000D01*
X176025000Y-101105000D02*
X174025000Y-103995000D01*
X117885000Y-87425000D02*
X117815000Y-83855000D01*
X148725000Y-55755000D02*
X152105000Y-55865000D01*
X134335000Y-110095000D02*
X131505000Y-108145000D01*
X126155000Y-102055000D02*
X124315000Y-99195000D01*
X148995000Y-118335000D02*
X145305000Y-118075000D01*
X134885000Y-61015000D02*
X137845000Y-59455000D01*
X182945000Y-83145000D02*
X182935000Y-86835000D01*
X176815000Y-81765000D02*
X176995000Y-84975000D01*
X181485000Y-100265000D02*
X179715000Y-103515000D01*
X131845000Y-66335000D02*
X134315000Y-64285000D01*
X119455000Y-69745000D02*
X121295000Y-66565000D01*
X125325000Y-59285000D02*
X128245000Y-56835000D01*
X174585000Y-67185000D02*
X176445000Y-70175000D01*
X169355000Y-100865000D02*
X167215000Y-103215000D01*
X169145000Y-108975000D02*
X166225000Y-111085000D01*
X149175000Y-49745000D02*
X152905000Y-49915000D01*
X116995000Y-85455000D02*
X117155000Y-81815000D01*
X122685000Y-97795000D02*
X121395000Y-94615000D01*
X119675000Y-91415000D02*
X119145000Y-87965000D01*
X160255000Y-113615000D02*
X156925000Y-114645000D01*
X169625000Y-58095000D02*
X172405000Y-60425000D01*
X126765000Y-108805000D02*
X124275000Y-106145000D01*
X176135000Y-66615000D02*
X178015000Y-69715000D01*
X140735000Y-109615000D02*
X137755000Y-108335000D01*
X147115000Y-114645000D02*
X143695000Y-114165000D01*
X155535000Y-116175000D02*
X151955000Y-116655000D01*
X136715000Y-109145000D02*
X133935000Y-107455000D01*
X178455000Y-72485000D02*
X179665000Y-75825000D01*
X176835000Y-79325000D02*
X177295000Y-82555000D01*
X170025000Y-110835000D02*
X167045000Y-112935000D01*
X147405000Y-52205000D02*
X151065000Y-52185000D01*
X127755000Y-61395000D02*
X130565000Y-59095000D01*
X159765000Y-109075000D02*
X156645000Y-110165000D01*
X121485000Y-90275000D02*
X121065000Y-86905000D01*
X177185000Y-70715000D02*
X178615000Y-73955000D01*
X133315000Y-107505000D02*
X130705000Y-105375000D01*
X146155000Y-119375000D02*
X142485000Y-118815000D01*
X120825000Y-91045000D02*
X120315000Y-87655000D01*
X153075000Y-115745000D02*
X149545000Y-115945000D01*
X118605000Y-84345000D02*
X118865000Y-80895000D01*
X180325000Y-80775000D02*
X180595000Y-84315000D01*
X168525000Y-110475000D02*
X165515000Y-112455000D01*
X130115000Y-114045000D02*
X127125000Y-111805000D01*
X152945000Y-57575000D02*
X156205000Y-58185000D01*
X120205000Y-84265000D02*
X120495000Y-80845000D01*
X177295000Y-82555000D02*
X177345000Y-84575000D01*
X174555000Y-76905000D02*
X175345000Y-80045000D01*
X170795000Y-63885000D02*
X173075000Y-66495000D01*
X152820000Y-109640000D02*
X151307403Y-109747403D01*
X150075000Y-50155000D02*
X153775000Y-50415000D01*
X134235000Y-58615000D02*
X137385000Y-57035000D01*
X136795000Y-55545000D02*
X140185000Y-54305000D01*
X166475000Y-66425000D02*
X168665000Y-68695000D01*
X135895000Y-118035000D02*
X132475000Y-116405000D01*
X145495000Y-55205000D02*
X148955000Y-54945000D01*
X178215000Y-89585000D02*
X177465000Y-92905000D01*
X158715000Y-111195000D02*
X155505000Y-112105000D01*
X122735000Y-65195000D02*
X125035000Y-62415000D01*
X130565000Y-59095000D02*
X133595000Y-57135000D01*
X177555000Y-106625000D02*
X175075000Y-109485000D01*
X158375000Y-115085000D02*
X154925000Y-115885000D01*
X167345000Y-58915000D02*
X170145000Y-61085000D01*
X143985000Y-52195000D02*
X147655000Y-51795000D01*
X114755000Y-78745000D02*
X115615000Y-75095000D01*
X120555000Y-66975000D02*
X122665000Y-63965000D01*
X164265000Y-106145000D02*
X161525000Y-107805000D01*
X169955000Y-68355000D02*
X171845000Y-71015000D01*
X184465000Y-81885000D02*
X184585000Y-85655000D01*
X164305000Y-57065000D02*
X167345000Y-58915000D01*
X126835000Y-99505000D02*
X125235000Y-96635000D01*
X179925000Y-91305000D02*
X178995000Y-94725000D01*
X135545000Y-53035000D02*
X139025000Y-51735000D01*
X173295000Y-76935000D02*
X174105000Y-79975000D01*
X149805000Y-119545000D02*
X146155000Y-119375000D01*
X158755000Y-108205000D02*
X156232525Y-109012525D01*
X120735000Y-68225000D02*
X122735000Y-65195000D01*
X124315000Y-99195000D02*
X122825000Y-96145000D01*
X126405000Y-100315000D02*
X124745000Y-97455000D01*
X156925000Y-114645000D02*
X153475000Y-115295000D01*
X138025000Y-55905000D02*
X141395000Y-54795000D01*
X165155000Y-55705000D02*
X168295000Y-57625000D01*
X121225000Y-69805000D02*
X123065000Y-66805000D01*
X175675000Y-91875000D02*
X174645000Y-94975000D01*
X116185000Y-74595000D02*
X117485000Y-71105000D01*
X179845000Y-93315000D02*
X178695000Y-96695000D01*
X118565000Y-76425000D02*
X119715000Y-73025000D01*
X177055000Y-89235000D02*
X176335000Y-92495000D01*
X179205000Y-96485000D02*
X177745000Y-99705000D01*
X121915000Y-98035000D02*
X120605000Y-94795000D01*
X156355000Y-52065000D02*
X159925000Y-53025000D01*
X152655000Y-114985000D02*
X149185000Y-115145000D01*
X117015000Y-95395000D02*
X116085000Y-91835000D01*
X128635000Y-60095000D02*
X131575000Y-57915000D01*
X126455000Y-74595000D02*
X127955000Y-71795000D01*
X168115000Y-111265000D02*
X165035000Y-113185000D01*
X169375000Y-103285000D02*
X166985000Y-105575000D01*
X117665000Y-98315000D02*
X116425000Y-94865000D01*
X161065000Y-55565000D02*
X164305000Y-57065000D01*
X119805000Y-103355000D02*
X118015000Y-100075000D01*
X122105000Y-102505000D02*
X120325000Y-99345000D01*
X167515000Y-58545000D02*
X170325000Y-60715000D01*
X173715000Y-105635000D02*
X171225000Y-108225000D01*
X179665000Y-77325000D02*
X180325000Y-80775000D01*
X142645000Y-50815000D02*
X146315000Y-50285000D01*
X136385000Y-116505000D02*
X133065000Y-114905000D01*
X123555000Y-107765000D02*
X121255000Y-104835000D01*
X181815000Y-74655000D02*
X182735000Y-78235000D01*
X119155000Y-67765000D02*
X121175000Y-64615000D01*
X174105000Y-79975000D02*
X174525000Y-83125000D01*
X157365000Y-113705000D02*
X153995000Y-114415000D01*
X184305000Y-89395000D02*
X183625000Y-93075000D01*
X160095000Y-115795000D02*
X156555000Y-116785000D01*
X184875000Y-81945000D02*
X184985000Y-85725000D01*
X135665000Y-58285000D02*
X138795000Y-56895000D01*
X172005000Y-69785000D02*
X173675000Y-72645000D01*
X134405000Y-108725000D02*
X131685000Y-106755000D01*
X116685000Y-82565000D02*
X117155000Y-78965000D01*
X176145000Y-62655000D02*
X178385000Y-65655000D01*
X174725000Y-72965000D02*
X175965000Y-76055000D01*
X124395000Y-109835000D02*
X121905000Y-107035000D01*
X135385000Y-63065000D02*
X138205000Y-61495000D01*
X150335000Y-113135000D02*
X146985000Y-113025000D01*
X128995000Y-61365000D02*
X131795000Y-59205000D01*
X144855000Y-52865000D02*
X148435000Y-52555000D01*
X128095000Y-99955000D02*
X126395000Y-97155000D01*
X143685000Y-112525000D02*
X140425000Y-111625000D01*
X118645000Y-74785000D02*
X119955000Y-71455000D01*
X138685000Y-57795000D02*
X141965000Y-56715000D01*
X129975000Y-63165000D02*
X132775000Y-60965000D01*
X175085000Y-97885000D02*
X173375000Y-100795000D01*
X168255000Y-113585000D02*
X165055000Y-115435000D01*
X125105000Y-103985000D02*
X123115000Y-101105000D01*
X174725000Y-105675000D02*
X172235000Y-108365000D01*
X130115000Y-102495000D02*
X128095000Y-99955000D01*
X122165000Y-76925000D02*
X123315000Y-73745000D01*
X182565000Y-96645000D02*
X181115000Y-100115000D01*
X123065000Y-66805000D02*
X125285000Y-63935000D01*
X118195000Y-96375000D02*
X117135000Y-92865000D01*
X124225000Y-89695000D02*
X123835000Y-86505000D01*
X129055000Y-56735000D02*
X132185000Y-54715000D01*
X133065000Y-114905000D02*
X129955000Y-112965000D01*
X176025000Y-72925000D02*
X177235000Y-76085000D01*
X170835000Y-104655000D02*
X168365000Y-107025000D01*
X122065000Y-100905000D02*
X120455000Y-97725000D01*
X175055000Y-69365000D02*
X176675000Y-72415000D01*
X123565000Y-87985000D02*
X123395000Y-84775000D01*
X172235000Y-108365000D02*
X169565000Y-110685000D01*
X129235000Y-114415000D02*
X126255000Y-112115000D01*
X155495000Y-110055000D02*
X152315000Y-110595000D01*
X123935000Y-94595000D02*
X122965000Y-91455000D01*
X134985000Y-106715000D02*
X132395000Y-104735000D01*
X131925000Y-66845000D02*
X134345000Y-64805000D01*
X117665000Y-93345000D02*
X116945000Y-89795000D01*
X127715000Y-59825000D02*
X130565000Y-57625000D01*
X129905000Y-62165000D02*
X132685000Y-60055000D01*
X123945000Y-73315000D02*
X125515000Y-70365000D01*
X164265000Y-64085000D02*
X166775000Y-66125000D01*
X181895000Y-89315000D02*
X181205000Y-92875000D01*
X143655000Y-109645000D02*
X140505000Y-108665000D01*
X157135000Y-57195000D02*
X160355000Y-58295000D01*
X116365000Y-91175000D02*
X115895000Y-87525000D01*
X171955000Y-111845000D02*
X168945000Y-114085000D01*
X135425000Y-116525000D02*
X132135000Y-114835000D01*
X150435000Y-56165000D02*
X153825000Y-56485000D01*
X132295000Y-64865000D02*
X134875000Y-62925000D01*
X122725000Y-76465000D02*
X123945000Y-73315000D01*
X133965000Y-62085000D02*
X136835000Y-60385000D01*
X157015000Y-50165000D02*
X160635000Y-51155000D01*
X128245000Y-56835000D02*
X131315000Y-54765000D01*
X142065000Y-50115000D02*
X145755000Y-49535000D01*
X174935000Y-63075000D02*
X177145000Y-65965000D01*
X142285000Y-114255000D02*
X138965000Y-113225000D01*
X147175000Y-53025000D02*
X150725000Y-52975000D01*
X155845000Y-51145000D02*
X159455000Y-52035000D01*
X154245000Y-57365000D02*
X157475000Y-58125000D01*
X115015000Y-83835000D02*
X115335000Y-80165000D01*
X160415000Y-111405000D02*
X157235000Y-112495000D01*
X122375000Y-88125000D02*
X122195000Y-84875000D01*
X177065000Y-103905000D02*
X174815000Y-106815000D01*
X152165000Y-50655000D02*
X155845000Y-51145000D01*
X175175000Y-105755000D02*
X172775000Y-108405000D01*
X126145000Y-110415000D02*
X123555000Y-107765000D01*
X161325000Y-116635000D02*
X157775000Y-117735000D01*
X179395000Y-71645000D02*
X180675000Y-75015000D01*
X118235000Y-86555000D02*
X118265000Y-82945000D01*
X168895000Y-63725000D02*
X171265000Y-66175000D01*
X122495000Y-91195000D02*
X121945000Y-87905000D01*
X165305000Y-63855000D02*
X167775000Y-65965000D01*
X154185000Y-118425000D02*
X150545000Y-118735000D01*
X116735000Y-70825000D02*
X118405000Y-67455000D01*
X173585000Y-96385000D02*
X172015000Y-99225000D01*
X132185000Y-62885000D02*
X134885000Y-61015000D01*
X155475000Y-51485000D02*
X159065000Y-52335000D01*
X137015000Y-59405000D02*
X140125000Y-58115000D01*
X159405000Y-59215000D02*
X162405000Y-60585000D01*
X156232525Y-109012525D02*
X154400000Y-109450000D01*
X177925000Y-75615000D02*
X178805000Y-78955000D01*
X153415000Y-56825000D02*
X156715000Y-57495000D01*
X163165000Y-109645000D02*
X160135000Y-111085000D01*
X184145000Y-83145000D02*
X184135000Y-86885000D01*
X150585000Y-113525000D02*
X147185000Y-113445000D01*
X171265000Y-66175000D02*
X173305000Y-68855000D01*
X135625000Y-59215000D02*
X138685000Y-57795000D01*
X155625000Y-60105000D02*
X158655000Y-61065000D01*
X161525000Y-62395000D02*
X164265000Y-64085000D01*
X130205000Y-114585000D02*
X127175000Y-112365000D01*
X143845000Y-110515000D02*
X140735000Y-109615000D01*
X132175000Y-105075000D02*
X129855000Y-102805000D01*
X165245000Y-62325000D02*
X167845000Y-64395000D01*
X136835000Y-60385000D02*
X139895000Y-59045000D01*
X173075000Y-66495000D02*
X175055000Y-69365000D01*
X132795000Y-110065000D02*
X130025000Y-107975000D01*
X177385000Y-75265000D02*
X178305000Y-78555000D01*
X143695000Y-114165000D02*
X140345000Y-113285000D01*
X175385000Y-84125000D02*
X175285000Y-87315000D01*
X149095000Y-51345000D02*
X152715000Y-51505000D01*
X113795000Y-85625000D02*
X113945000Y-81765000D01*
X177255000Y-64735000D02*
X179255000Y-67825000D01*
X166085000Y-116255000D02*
X162625000Y-117845000D01*
X178735000Y-88815000D02*
X178075000Y-92185000D01*
X157475000Y-58125000D02*
X160625000Y-59285000D01*
X119715000Y-73025000D02*
X121225000Y-69805000D01*
X172995000Y-102035000D02*
X170835000Y-104655000D01*
X165515000Y-112455000D02*
X162315000Y-114075000D01*
X117235000Y-94755000D02*
X116365000Y-91175000D01*
X124735000Y-90105000D02*
X124295000Y-86985000D01*
X175745000Y-83255000D02*
X175745000Y-86515000D01*
X132285000Y-112595000D02*
X129335000Y-110515000D01*
X158385000Y-56735000D02*
X161565000Y-57945000D01*
X123145000Y-90425000D02*
X122685000Y-87215000D01*
X143455000Y-118595000D02*
X139875000Y-117745000D01*
X139685000Y-113905000D02*
X136435000Y-112585000D01*
X174445000Y-69905000D02*
X176025000Y-72925000D01*
X129205000Y-105025000D02*
X126985000Y-102495000D01*
X120105000Y-101505000D02*
X118475000Y-98185000D01*
X119635000Y-99755000D02*
X118195000Y-96375000D01*
X119715000Y-103965000D02*
X117865000Y-100685000D01*
X117175000Y-72945000D02*
X118655000Y-69545000D01*
X149895000Y-110345000D02*
X146715000Y-110175000D01*
X132885000Y-114345000D02*
X129815000Y-112375000D01*
X125285000Y-63935000D02*
X127755000Y-61395000D01*
X139995000Y-59435000D02*
X143175000Y-58475000D01*
X173665000Y-76745000D02*
X174495000Y-79855000D01*
X124255000Y-78365000D02*
X125275000Y-75285000D01*
X121185000Y-77465000D02*
X122235000Y-74275000D01*
X167105000Y-54505000D02*
X170235000Y-56555000D01*
X117465000Y-87055000D02*
X117435000Y-83465000D01*
X147075000Y-56245000D02*
X150435000Y-56165000D01*
X169335000Y-114305000D02*
X166085000Y-116255000D01*
X119545000Y-77395000D02*
X120605000Y-74045000D01*
X173795000Y-97755000D02*
X172075000Y-100575000D01*
X135055000Y-59065000D02*
X138185000Y-57565000D01*
X182935000Y-96795000D02*
X181485000Y-100265000D01*
X184585000Y-85655000D02*
X184305000Y-89395000D01*
X124745000Y-97455000D02*
X123435000Y-94395000D01*
X165405000Y-59555000D02*
X168225000Y-61565000D01*
X158655000Y-61065000D02*
X161525000Y-62395000D01*
X179165000Y-91025000D02*
X178275000Y-94355000D01*
X136905000Y-118005000D02*
X133435000Y-116455000D01*
X144055000Y-55025000D02*
X147515000Y-54605000D01*
X162605000Y-107665000D02*
X159765000Y-109075000D01*
X149625000Y-57345000D02*
X152945000Y-57575000D01*
X169045000Y-101865000D02*
X166795000Y-104145000D01*
X130785000Y-107045000D02*
X128325000Y-104685000D01*
X159165000Y-56565000D02*
X162385000Y-57885000D01*
X166695000Y-108835000D02*
X163805000Y-110665000D01*
X155505000Y-112105000D02*
X152195000Y-112615000D01*
X156655000Y-59555000D02*
X159715000Y-60635000D01*
X118725000Y-87855000D02*
X118605000Y-84345000D01*
X177235000Y-76085000D02*
X178075000Y-79395000D01*
X166335000Y-108105000D02*
X163505000Y-109915000D01*
X142795000Y-109845000D02*
X139775000Y-108815000D01*
X174695000Y-109305000D02*
X171955000Y-111845000D01*
X114285000Y-82485000D02*
X114755000Y-78745000D01*
X123505000Y-96705000D02*
X122305000Y-93555000D01*
X170995000Y-103275000D02*
X168665000Y-105695000D01*
X143175000Y-58475000D02*
X146395000Y-57915000D01*
X179785000Y-84075000D02*
X179675000Y-87575000D01*
X178615000Y-73955000D02*
X179665000Y-77325000D01*
X176855000Y-64865000D02*
X178855000Y-67935000D01*
X180345000Y-99875000D02*
X178555000Y-103095000D01*
X170045000Y-63705000D02*
X172385000Y-66265000D01*
X173845000Y-92455000D02*
X172715000Y-95425000D01*
X167175000Y-60265000D02*
X169945000Y-62515000D01*
X152495000Y-59535000D02*
X155625000Y-60105000D01*
X131675000Y-56415000D02*
X134905000Y-54645000D01*
X153115000Y-110095000D02*
X149895000Y-110345000D01*
X179985000Y-75505000D02*
X180835000Y-78945000D01*
X122695000Y-78005000D02*
X123725000Y-74855000D01*
X154515000Y-118785000D02*
X150835000Y-119125000D01*
X143035000Y-58095000D02*
X146385000Y-57515000D01*
X124225000Y-66545000D02*
X126455000Y-63825000D01*
X161965000Y-58575000D02*
X164955000Y-60215000D01*
X177035000Y-95445000D02*
X175635000Y-98555000D01*
X126015000Y-62545000D02*
X128635000Y-60095000D01*
X131705000Y-103565000D02*
X129545000Y-101215000D01*
X138285000Y-53245000D02*
X141825000Y-52215000D01*
X120505000Y-66315000D02*
X122695000Y-63295000D01*
X128415000Y-102985000D02*
X126405000Y-100315000D01*
X127405000Y-67645000D02*
X129635000Y-65135000D01*
X175175000Y-65945000D02*
X177135000Y-68955000D01*
X121615000Y-68305000D02*
X123665000Y-65295000D01*
X172265000Y-109445000D02*
X169485000Y-111755000D01*
X141735000Y-117415000D02*
X138235000Y-116365000D01*
X182315000Y-89255000D02*
X181625000Y-92825000D01*
X166385000Y-62665000D02*
X168915000Y-64845000D01*
X128905000Y-105865000D02*
X126615000Y-103315000D01*
X162935000Y-62725000D02*
X165595000Y-64585000D01*
X126235000Y-65285000D02*
X128635000Y-62765000D01*
X132135000Y-114835000D02*
X129005000Y-112775000D01*
X137695000Y-107365000D02*
X134995000Y-105705000D01*
X137045000Y-63025000D02*
X139895000Y-61645000D01*
X175345000Y-80045000D02*
X175745000Y-83255000D01*
X170625000Y-112395000D02*
X167545000Y-114505000D01*
X120005000Y-102135000D02*
X118315000Y-98815000D01*
X123205000Y-71195000D02*
X124975000Y-68255000D01*
X144495000Y-58605000D02*
X147695000Y-58205000D01*
X168665000Y-68695000D02*
X170565000Y-71265000D01*
X160245000Y-51445000D02*
X163755000Y-52795000D01*
X153905000Y-59335000D02*
X157055000Y-60095000D01*
X176865000Y-102765000D02*
X174725000Y-105675000D01*
X162625000Y-117845000D02*
X159055000Y-119045000D01*
X130275000Y-101425000D02*
X128365000Y-98885000D01*
X128965000Y-64675000D02*
X131475000Y-62425000D01*
X181725000Y-94015000D02*
X180555000Y-97435000D01*
X123315000Y-70155000D02*
X125215000Y-67225000D01*
X175635000Y-98555000D02*
X173875000Y-101485000D01*
X140845000Y-52045000D02*
X144485000Y-51305000D01*
X123835000Y-86505000D02*
X123855000Y-83285000D01*
X122745000Y-61985000D02*
X125325000Y-59285000D01*
X168475000Y-66095000D02*
X170625000Y-68555000D01*
X168845000Y-100855000D02*
X166625000Y-103175000D01*
X117155000Y-78965000D02*
X118005000Y-75475000D01*
X180535000Y-67655000D02*
X182185000Y-71035000D01*
X134905000Y-54645000D02*
X138285000Y-53245000D01*
X127905000Y-61805000D02*
X130645000Y-59535000D01*
X174835000Y-93305000D02*
X173585000Y-96385000D01*
X163805000Y-110665000D02*
X160695000Y-112155000D01*
X151655000Y-55425000D02*
X154995000Y-55875000D01*
X144135000Y-119925000D02*
X140485000Y-119165000D01*
X178165000Y-102975000D02*
X176035000Y-105965000D01*
X132685000Y-60055000D02*
X135665000Y-58285000D01*
X176075000Y-72085000D02*
X177385000Y-75265000D01*
X129335000Y-110515000D02*
X126645000Y-108125000D01*
X146315000Y-50285000D02*
X150075000Y-50155000D01*
X173135000Y-105695000D02*
X170685000Y-108175000D01*
X125085000Y-61205000D02*
X127825000Y-58685000D01*
X129955000Y-112965000D02*
X127035000Y-110675000D01*
X175345000Y-89715000D02*
X174555000Y-92865000D01*
X141695000Y-50605000D02*
X145425000Y-49975000D01*
X125555000Y-103905000D02*
X123565000Y-101075000D01*
X161815000Y-114725000D02*
X158455000Y-115895000D01*
X123875000Y-102995000D02*
X122025000Y-100015000D01*
X122375000Y-71055000D02*
X124165000Y-68025000D01*
X168945000Y-105975000D02*
X166335000Y-108105000D01*
X146895000Y-111405000D02*
X143695000Y-110895000D01*
X124385000Y-109255000D02*
X121935000Y-106425000D01*
X173405000Y-92485000D02*
X172235000Y-95475000D01*
X167485000Y-61495000D02*
X170045000Y-63705000D01*
X123115000Y-101105000D02*
X121445000Y-97965000D01*
X123435000Y-94395000D02*
X122495000Y-91195000D01*
X127415000Y-64555000D02*
X129905000Y-62165000D01*
X177745000Y-73935000D02*
X178815000Y-77225000D01*
X143045000Y-114845000D02*
X139685000Y-113905000D01*
X126455000Y-63825000D02*
X128995000Y-61365000D01*
X124775000Y-75455000D02*
X126145000Y-72475000D01*
X123435000Y-63655000D02*
X125915000Y-60935000D01*
X179765000Y-71485000D02*
X181055000Y-74895000D01*
X131695000Y-111255000D02*
X128875000Y-109095000D01*
X136125000Y-109285000D02*
X133315000Y-107505000D01*
X138205000Y-61495000D02*
X141235000Y-60275000D01*
X136895000Y-54635000D02*
X140285000Y-53445000D01*
X177795000Y-84745000D02*
X177605000Y-88145000D01*
X119085000Y-71445000D02*
X120735000Y-68225000D01*
X171235000Y-111405000D02*
X168255000Y-113585000D01*
X154245000Y-53715000D02*
X157705000Y-54445000D01*
X133705000Y-55705000D02*
X136975000Y-54175000D01*
X149135000Y-110745000D02*
X145935000Y-110485000D01*
X178515000Y-82725000D02*
X178565000Y-86195000D01*
X119215000Y-94395000D02*
X118355000Y-90945000D01*
X177325000Y-102795000D02*
X175175000Y-105755000D01*
X180115000Y-87085000D02*
X179665000Y-90555000D01*
X156245000Y-58615000D02*
X159365000Y-59625000D01*
X181035000Y-89645000D02*
X180315000Y-93115000D01*
X175755000Y-65395000D02*
X177745000Y-68415000D01*
X125905000Y-65055000D02*
X128375000Y-62465000D01*
X152965000Y-113745000D02*
X149535000Y-113945000D01*
X122195000Y-84875000D02*
X122415000Y-81555000D01*
X156965000Y-112155000D02*
X153665000Y-112845000D01*
X152315000Y-110595000D02*
X149135000Y-110745000D01*
X117355000Y-73615000D02*
X118775000Y-70205000D01*
X182985000Y-75795000D02*
X183765000Y-79435000D01*
X115895000Y-87525000D02*
X115815000Y-83875000D01*
X153445000Y-117715000D02*
X149835000Y-117945000D01*
X134805000Y-107075000D02*
X132175000Y-105075000D01*
X175085000Y-80895000D02*
X175385000Y-84125000D01*
X162625000Y-108115000D02*
X159705000Y-109535000D01*
X146465000Y-115385000D02*
X143045000Y-114845000D01*
X119925000Y-77545000D02*
X120965000Y-74225000D01*
X175975000Y-74895000D02*
X176975000Y-78125000D01*
X177605000Y-88145000D02*
X177035000Y-91405000D01*
X175415000Y-67695000D02*
X177185000Y-70715000D01*
X121465000Y-70205000D02*
X123295000Y-67165000D01*
X180835000Y-78945000D02*
X181305000Y-82495000D01*
X121175000Y-64615000D02*
X123485000Y-61745000D01*
X155375000Y-54315000D02*
X158825000Y-55195000D01*
X129005000Y-112775000D02*
X126145000Y-110415000D01*
X137325000Y-110355000D02*
X134405000Y-108725000D01*
X137445000Y-110855000D02*
X134465000Y-109235000D01*
X166585000Y-112745000D02*
X163415000Y-114455000D01*
X166265000Y-54945000D02*
X169385000Y-56925000D01*
X122695000Y-63295000D02*
X125165000Y-60555000D01*
X183765000Y-79435000D02*
X184145000Y-83145000D01*
X183145000Y-78225000D02*
X183665000Y-81895000D01*
X174975000Y-75655000D02*
X175905000Y-78795000D01*
X120625000Y-86245000D02*
X120675000Y-82845000D01*
X154465000Y-54965000D02*
X157855000Y-55735000D01*
X161525000Y-107805000D02*
X158585000Y-109115000D01*
X176215000Y-61505000D02*
X178525000Y-64445000D01*
X176175000Y-91545000D02*
X175175000Y-94715000D01*
X121905000Y-107035000D02*
X119715000Y-103965000D01*
X125585000Y-93215000D02*
X124735000Y-90105000D01*
X174705000Y-97735000D02*
X173015000Y-100615000D01*
X116135000Y-80215000D02*
X116865000Y-76595000D01*
X155415000Y-119855000D02*
X151645000Y-120285000D01*
X181755000Y-71055000D02*
X183055000Y-74595000D01*
X125965000Y-108575000D02*
X123545000Y-105885000D01*
X174385000Y-77735000D02*
X175085000Y-80895000D01*
X130255000Y-66215000D02*
X132665000Y-64035000D01*
X147655000Y-51795000D02*
X151265000Y-51795000D01*
X145415000Y-51585000D02*
X149095000Y-51345000D01*
X123525000Y-109505000D02*
X121075000Y-106615000D01*
X171845000Y-71015000D02*
X173375000Y-73865000D01*
X129545000Y-101215000D02*
X127685000Y-98605000D01*
X171905000Y-59435000D02*
X174495000Y-61975000D01*
X120315000Y-87655000D02*
X120205000Y-84265000D01*
X174495000Y-61975000D02*
X176855000Y-64865000D01*
X177145000Y-65965000D02*
X179065000Y-69135000D01*
X155365000Y-60485000D02*
X158435000Y-61445000D01*
X120055000Y-81035000D02*
X120735000Y-77615000D01*
X167215000Y-103215000D02*
X164775000Y-105285000D01*
X172405000Y-60425000D02*
X174935000Y-63075000D01*
X176775000Y-88345000D02*
X176175000Y-91545000D01*
X120735000Y-77615000D02*
X121775000Y-74345000D01*
X127935000Y-58085000D02*
X130975000Y-55915000D01*
X122235000Y-74275000D02*
X123665000Y-71175000D01*
X169005000Y-57145000D02*
X171905000Y-59435000D01*
X168945000Y-114085000D02*
X165715000Y-115995000D01*
X138895000Y-117865000D02*
X135425000Y-116525000D01*
X127805000Y-71235000D02*
X129675000Y-68655000D01*
X157855000Y-55735000D02*
X161125000Y-56885000D01*
X128385000Y-69665000D02*
X130465000Y-67155000D01*
X125455000Y-58625000D02*
X128385000Y-56235000D01*
X118695000Y-79445000D02*
X119525000Y-75995000D01*
X166775000Y-66125000D02*
X168985000Y-68435000D01*
X137385000Y-57035000D02*
X140665000Y-55835000D01*
X150045000Y-56555000D02*
X153415000Y-56825000D01*
X167695000Y-64795000D02*
X170025000Y-67185000D01*
X160485000Y-60535000D02*
X163365000Y-62055000D01*
X118605000Y-90065000D02*
X118235000Y-86555000D01*
X118265000Y-82945000D02*
X118695000Y-79445000D01*
X169565000Y-110685000D02*
X166585000Y-112745000D01*
X161675000Y-116925000D02*
X158125000Y-118055000D01*
X146735000Y-56675000D02*
X150045000Y-56555000D01*
X170685000Y-108175000D02*
X167885000Y-110445000D01*
X143385000Y-57195000D02*
X146735000Y-56675000D01*
X131015000Y-111265000D02*
X128205000Y-109045000D01*
X161875000Y-54165000D02*
X165155000Y-55705000D01*
X179065000Y-89305000D02*
X178355000Y-92695000D01*
X176975000Y-78125000D02*
X177585000Y-81435000D01*
X124265000Y-80125000D02*
X125065000Y-77035000D01*
X124825000Y-70745000D02*
X126685000Y-67925000D01*
X177465000Y-92905000D02*
X176335000Y-96125000D01*
X145905000Y-60015000D02*
X149165000Y-59765000D01*
X126155000Y-95765000D02*
X125005000Y-92805000D01*
X144315000Y-59455000D02*
X147525000Y-59015000D01*
X179065000Y-69135000D02*
X180605000Y-72455000D01*
X147055000Y-111025000D02*
X143845000Y-110515000D01*
X123775000Y-91395000D02*
X123185000Y-88205000D01*
X145315000Y-56035000D02*
X148725000Y-55755000D01*
X158455000Y-115895000D02*
X154855000Y-116705000D01*
X177155000Y-106485000D02*
X174695000Y-109305000D01*
X177035000Y-91405000D02*
X176055000Y-94655000D01*
X118785000Y-96815000D02*
X117665000Y-93345000D01*
X146875000Y-120645000D02*
X147180000Y-120950000D01*
X141125000Y-51565000D02*
X144755000Y-50865000D01*
X120415000Y-64995000D02*
X122745000Y-61985000D01*
X159075000Y-54015000D02*
X162455000Y-55275000D01*
X181625000Y-92825000D02*
X180555000Y-96315000D01*
X150225000Y-58555000D02*
X153465000Y-58855000D01*
X170905000Y-109055000D02*
X168115000Y-111265000D01*
X134875000Y-114945000D02*
X131675000Y-113155000D01*
X115815000Y-83875000D02*
X116135000Y-80215000D01*
X161715000Y-113895000D02*
X158375000Y-115085000D01*
X118405000Y-67455000D02*
X120435000Y-64275000D01*
X122685000Y-87215000D02*
X122625000Y-83835000D01*
X122415000Y-81555000D02*
X123025000Y-78335000D01*
X125185000Y-99105000D02*
X123685000Y-96125000D01*
X140485000Y-119165000D02*
X136905000Y-118005000D01*
X184015000Y-93175000D02*
X182935000Y-96795000D01*
X154855000Y-116705000D02*
X151335000Y-117095000D01*
X125235000Y-96635000D02*
X124005000Y-93605000D01*
X116305000Y-77175000D02*
X117355000Y-73615000D01*
X176285000Y-70725000D02*
X177745000Y-73935000D01*
X125165000Y-60555000D02*
X127935000Y-58085000D01*
X130015000Y-109005000D02*
X127425000Y-106645000D01*
X161125000Y-56885000D02*
X164275000Y-58415000D01*
X134075000Y-61055000D02*
X137015000Y-59405000D01*
X162455000Y-55275000D02*
X165645000Y-56885000D01*
X121935000Y-106425000D02*
X119805000Y-103355000D01*
X173385000Y-95875000D02*
X171835000Y-98765000D01*
X152105000Y-55865000D02*
X155505000Y-56385000D01*
X178555000Y-103095000D02*
X176415000Y-106135000D01*
X122095000Y-103225000D02*
X120275000Y-100125000D01*
X146875000Y-120645000D02*
X143105000Y-120155000D01*
X129785000Y-69175000D02*
X131925000Y-66845000D01*
X123185000Y-88205000D02*
X122995000Y-84955000D01*
X146385000Y-57515000D02*
X149625000Y-57345000D01*
X117885000Y-92575000D02*
X117245000Y-89025000D01*
X171835000Y-98765000D02*
X169995000Y-101355000D01*
X181115000Y-100115000D02*
X179305000Y-103415000D01*
X177405000Y-91565000D02*
X176435000Y-94775000D01*
X147335000Y-54215000D02*
X150795000Y-54175000D01*
X125295000Y-102915000D02*
X123395000Y-100005000D01*
X140505000Y-108665000D02*
X137695000Y-107365000D01*
X160485000Y-116085000D02*
X156995000Y-117095000D01*
X163415000Y-59765000D02*
X166275000Y-61585000D01*
X120675000Y-82845000D02*
X121135000Y-79455000D01*
X174605000Y-89335000D02*
X173845000Y-92455000D01*
X149835000Y-117945000D02*
X146205000Y-117775000D01*
X125035000Y-62415000D02*
X127715000Y-59825000D01*
X151365000Y-116295000D02*
X147825000Y-116295000D01*
X130545000Y-58125000D02*
X133565000Y-56235000D01*
X178255000Y-104295000D02*
X176025000Y-107245000D01*
X127815000Y-100255000D02*
X126115000Y-97485000D01*
X172125000Y-74075000D02*
X173295000Y-76935000D01*
X119145000Y-87965000D02*
X119005000Y-84405000D01*
X181285000Y-90595000D02*
X180445000Y-94115000D01*
X180555000Y-96315000D02*
X179125000Y-99625000D01*
X115535000Y-93055000D02*
X114865000Y-89345000D01*
X142345000Y-110965000D02*
X139265000Y-109905000D01*
X175875000Y-102805000D02*
X173715000Y-105635000D01*
X150555000Y-114725000D02*
X147115000Y-114645000D01*
X136995000Y-60755000D02*
X139995000Y-59435000D01*
X114485000Y-78035000D02*
X115405000Y-74405000D01*
X144275000Y-57425000D02*
X147565000Y-57005000D01*
X155105000Y-119505000D02*
X151395000Y-119895000D01*
X156555000Y-115145000D02*
X153075000Y-115745000D01*
X127595000Y-65555000D02*
X129975000Y-63165000D01*
X175345000Y-100685000D02*
X173385000Y-103515000D01*
X172685000Y-63555000D02*
X174965000Y-66345000D01*
X134465000Y-109235000D02*
X131705000Y-107285000D01*
X127125000Y-111805000D02*
X124385000Y-109255000D01*
X150265000Y-111135000D02*
X147055000Y-111025000D01*
X167885000Y-110445000D02*
X164895000Y-112345000D01*
X175665000Y-90185000D02*
X174835000Y-93305000D01*
X159435000Y-113485000D02*
X156065000Y-114435000D01*
X152775000Y-112155000D02*
X149485000Y-112345000D01*
X141355000Y-53565000D02*
X144855000Y-52865000D01*
X123025000Y-78335000D02*
X124035000Y-75165000D01*
X178195000Y-84805000D02*
X178005000Y-88215000D01*
X159915000Y-114165000D02*
X156555000Y-115145000D01*
X184365000Y-78215000D02*
X184875000Y-81945000D01*
X127025000Y-101885000D02*
X125185000Y-99105000D01*
X126745000Y-67195000D02*
X128965000Y-64675000D01*
X157235000Y-112495000D02*
X153945000Y-113205000D01*
X174495000Y-79855000D02*
X174925000Y-82985000D01*
X144815000Y-55705000D02*
X148215000Y-55375000D01*
X137895000Y-54665000D02*
X141355000Y-53565000D01*
X180925000Y-82765000D02*
X180955000Y-86395000D01*
X171175000Y-67315000D02*
X173105000Y-70015000D01*
X177745000Y-99705000D02*
X175875000Y-102805000D01*
X131505000Y-108145000D02*
X128905000Y-105865000D01*
X130975000Y-55915000D02*
X134185000Y-54105000D01*
X123805000Y-78515000D02*
X124775000Y-75455000D01*
X119805000Y-84385000D02*
X120055000Y-81035000D01*
X158755000Y-118715000D02*
X155105000Y-119505000D01*
X165085000Y-107525000D02*
X162195000Y-109255000D01*
X123205000Y-73005000D02*
X124805000Y-69995000D01*
X134055000Y-113165000D02*
X131015000Y-111265000D01*
X124295000Y-86985000D02*
X124245000Y-83825000D01*
X159365000Y-59625000D02*
X162355000Y-61015000D01*
X171225000Y-108225000D02*
X168525000Y-110475000D01*
X143915000Y-119485000D02*
X140285000Y-118695000D01*
X114735000Y-81905000D02*
X115265000Y-78205000D01*
X142245000Y-116715000D02*
X138795000Y-115715000D01*
X164475000Y-53565000D02*
X167735000Y-55355000D01*
X142115000Y-55855000D02*
X145495000Y-55205000D01*
X131575000Y-57915000D02*
X134645000Y-56115000D01*
X155835000Y-55635000D02*
X159165000Y-56565000D01*
X178275000Y-94355000D02*
X176995000Y-97605000D01*
X116205000Y-85645000D02*
X116335000Y-82025000D01*
X138795000Y-56895000D02*
X142115000Y-55855000D01*
X119245000Y-91315000D02*
X118725000Y-87855000D01*
X123485000Y-61745000D02*
X126175000Y-59055000D01*
X118015000Y-100075000D02*
X116585000Y-96635000D01*
X170805000Y-66255000D02*
X172865000Y-68915000D01*
X140565000Y-112935000D02*
X137335000Y-111685000D01*
X178305000Y-78555000D02*
X178845000Y-81955000D01*
X135945000Y-112795000D02*
X132875000Y-111075000D01*
X126975000Y-100445000D02*
X125285000Y-97625000D01*
X120965000Y-89615000D02*
X120625000Y-86245000D01*
X174165000Y-89435000D02*
X173405000Y-92485000D01*
X120325000Y-99345000D02*
X118925000Y-96045000D01*
X118315000Y-98815000D02*
X117015000Y-95395000D01*
X137305000Y-114725000D02*
X134055000Y-113165000D01*
X151335000Y-117095000D02*
X147745000Y-117095000D01*
X126985000Y-102495000D02*
X125075000Y-99705000D01*
X160135000Y-111085000D02*
X156965000Y-112155000D01*
X164235000Y-57935000D02*
X167195000Y-59785000D01*
X172455000Y-73795000D02*
X173665000Y-76745000D01*
X125065000Y-77035000D02*
X126255000Y-74045000D01*
X124175000Y-105385000D02*
X122105000Y-102505000D01*
X176025000Y-100325000D02*
X174085000Y-103255000D01*
X174915000Y-61845000D02*
X177255000Y-64735000D01*
X177945000Y-73345000D02*
X179075000Y-76665000D01*
X137335000Y-111685000D02*
X134335000Y-110095000D01*
X164895000Y-112345000D02*
X161715000Y-113895000D01*
X151395000Y-119895000D02*
X147655000Y-119895000D01*
X120475000Y-91315000D02*
X119935000Y-87885000D01*
X140565000Y-109975000D02*
X137585000Y-108695000D01*
X167675000Y-105505000D02*
X165085000Y-107525000D01*
X118475000Y-98185000D02*
X117235000Y-94755000D01*
X169435000Y-107155000D02*
X166725000Y-109315000D01*
X173305000Y-68855000D02*
X175035000Y-71785000D01*
X118775000Y-70205000D02*
X120555000Y-66975000D01*
X142775000Y-113145000D02*
X139535000Y-112155000D01*
X164285000Y-116255000D02*
X160805000Y-117665000D01*
X151645000Y-120285000D02*
X147895000Y-120305000D01*
X146715000Y-110175000D02*
X143655000Y-109645000D01*
X126255000Y-74045000D02*
X127805000Y-71235000D01*
X162355000Y-61015000D02*
X165145000Y-62745000D01*
X143215000Y-118145000D02*
X139635000Y-117255000D01*
X172385000Y-66265000D02*
X174415000Y-69085000D01*
X178075000Y-92185000D02*
X177035000Y-95445000D01*
X167925000Y-104195000D02*
X165395000Y-106325000D01*
X150945000Y-58185000D02*
X154215000Y-58575000D01*
X172215000Y-69385000D02*
X173865000Y-72145000D01*
X147255000Y-114255000D02*
X143805000Y-113775000D01*
X121985000Y-76155000D02*
X123205000Y-73005000D01*
X170125000Y-101825000D02*
X167925000Y-104195000D01*
X170805000Y-57485000D02*
X173615000Y-59925000D01*
X121405000Y-80205000D02*
X122165000Y-76925000D01*
X137585000Y-108695000D02*
X134805000Y-107075000D01*
X178095000Y-68215000D02*
X179765000Y-71485000D01*
X136825000Y-55965000D02*
X140155000Y-54735000D01*
X177645000Y-100715000D02*
X175705000Y-103755000D01*
X126145000Y-72475000D02*
X127885000Y-69675000D01*
X160635000Y-51155000D02*
X164175000Y-52545000D01*
X159065000Y-52335000D02*
X162545000Y-53575000D01*
X134145000Y-62445000D02*
X136995000Y-60755000D01*
X144755000Y-50865000D02*
X148485000Y-50555000D01*
X124645000Y-100535000D02*
X122985000Y-97485000D01*
X165055000Y-115435000D02*
X161675000Y-116925000D01*
X161055000Y-56425000D02*
X164235000Y-57935000D01*
X181785000Y-96455000D02*
X180345000Y-99875000D01*
X133565000Y-56235000D02*
X136895000Y-54635000D01*
X167705000Y-62175000D02*
X170265000Y-64495000D01*
X176035000Y-105965000D02*
X173615000Y-108695000D01*
X168185000Y-60015000D02*
X170905000Y-62315000D01*
X115395000Y-84485000D02*
X115655000Y-80795000D01*
X180095000Y-67685000D02*
X181755000Y-71055000D01*
X137125000Y-112025000D02*
X134105000Y-110425000D01*
X126665000Y-72365000D02*
X128385000Y-69665000D01*
X126645000Y-108125000D02*
X124175000Y-105385000D01*
X147185000Y-113445000D02*
X143875000Y-112975000D01*
X181205000Y-92875000D02*
X180135000Y-96295000D01*
X122795000Y-61315000D02*
X125455000Y-58625000D01*
X143795000Y-54665000D02*
X147335000Y-54215000D01*
X166795000Y-104145000D02*
X164265000Y-106145000D01*
X127825000Y-58685000D02*
X130785000Y-56515000D01*
X148445000Y-116725000D02*
X144875000Y-116395000D01*
X169955000Y-61985000D02*
X172415000Y-64455000D01*
X180655000Y-76375000D02*
X181415000Y-79935000D01*
X167975000Y-66725000D02*
X170085000Y-69165000D01*
X173875000Y-101485000D02*
X171745000Y-104245000D01*
X168665000Y-105695000D02*
X166015000Y-107845000D01*
X125215000Y-67225000D02*
X127415000Y-64555000D01*
X129635000Y-65135000D02*
X132185000Y-62885000D01*
X127895000Y-106545000D02*
X125555000Y-103905000D01*
X172415000Y-64455000D02*
X174585000Y-67185000D01*
X162545000Y-53575000D02*
X165795000Y-55145000D01*
X114865000Y-89345000D02*
X114605000Y-85645000D01*
X117155000Y-81815000D02*
X117695000Y-78295000D01*
X131345000Y-60505000D02*
X134235000Y-58615000D01*
X147655000Y-119895000D02*
X143915000Y-119485000D01*
X127885000Y-69675000D02*
X129925000Y-67145000D01*
X178525000Y-64445000D02*
X180535000Y-67655000D01*
X173445000Y-62605000D02*
X175755000Y-65395000D01*
X123565000Y-101075000D02*
X121915000Y-98035000D01*
X170885000Y-70995000D02*
X172455000Y-73795000D01*
X150915000Y-56985000D02*
X154245000Y-57365000D01*
X162705000Y-110795000D02*
X159565000Y-112165000D01*
X171745000Y-104245000D02*
X169365000Y-106675000D01*
X149165000Y-59765000D02*
X152275000Y-59945000D01*
X154215000Y-58575000D02*
X157395000Y-59355000D01*
X174025000Y-103995000D02*
X171685000Y-106665000D01*
X173325000Y-74735000D02*
X174385000Y-77735000D01*
X147745000Y-117095000D02*
X144185000Y-116695000D01*
X128205000Y-109045000D02*
X125655000Y-106515000D01*
X173375000Y-100795000D02*
X171325000Y-103505000D01*
X161265000Y-62725000D02*
X164015000Y-64425000D01*
X131375000Y-64065000D02*
X133965000Y-62085000D01*
X145685000Y-114895000D02*
X142285000Y-114255000D01*
X143605000Y-53885000D02*
X147125000Y-53425000D01*
X166225000Y-111085000D02*
X163155000Y-112805000D01*
X156715000Y-57495000D02*
X159915000Y-58545000D01*
X129815000Y-112375000D02*
X126965000Y-110085000D01*
X131515000Y-54175000D02*
X134855000Y-52465000D01*
X162105000Y-56435000D02*
X165235000Y-58045000D01*
X117245000Y-89025000D02*
X116995000Y-85455000D01*
X177275000Y-95935000D02*
X175805000Y-99085000D01*
X169995000Y-101355000D02*
X167795000Y-103765000D01*
X147695000Y-58205000D02*
X150945000Y-58185000D01*
X149185000Y-115145000D02*
X145685000Y-114895000D01*
X175175000Y-94715000D02*
X173795000Y-97755000D01*
X166015000Y-107845000D02*
X163165000Y-109645000D01*
X128135000Y-68665000D02*
X130255000Y-66215000D01*
X180135000Y-96295000D02*
X178665000Y-99655000D01*
X148435000Y-52555000D02*
X152015000Y-52645000D01*
X125515000Y-70365000D02*
X127405000Y-67645000D01*
X153405000Y-111265000D02*
X150165000Y-111535000D01*
X172775000Y-108405000D02*
X170025000Y-110835000D01*
X177985000Y-81435000D02*
X178195000Y-84805000D01*
X164275000Y-105175000D02*
X161605000Y-106855000D01*
X116065000Y-76485000D02*
X117175000Y-72945000D01*
X115755000Y-96675000D02*
X114705000Y-93025000D01*
X156255000Y-117665000D02*
X152615000Y-118205000D01*
X155355000Y-111315000D02*
X152085000Y-111825000D01*
X164695000Y-108265000D02*
X161765000Y-109925000D01*
X164775000Y-105285000D02*
X162095000Y-107035000D01*
X122965000Y-91455000D02*
X122375000Y-88125000D01*
X184985000Y-85725000D02*
X184695000Y-89505000D01*
X163505000Y-109915000D02*
X160415000Y-111405000D01*
X167905000Y-113335000D02*
X164705000Y-115165000D01*
X175255000Y-75255000D02*
X176225000Y-78425000D01*
X172715000Y-95425000D02*
X171195000Y-98265000D01*
X135725000Y-114905000D02*
X132505000Y-113195000D01*
X181375000Y-86055000D02*
X181035000Y-89645000D01*
X184135000Y-86885000D02*
X183735000Y-90535000D01*
X150695000Y-53375000D02*
X154245000Y-53715000D01*
X126095000Y-105805000D02*
X123875000Y-102995000D01*
X162615000Y-62075000D02*
X165305000Y-63855000D01*
X128875000Y-109095000D02*
X126295000Y-106615000D01*
X152425000Y-55095000D02*
X155835000Y-55635000D01*
X152015000Y-52645000D02*
X155595000Y-53135000D01*
X114605000Y-85645000D02*
X114735000Y-81905000D01*
X120655000Y-93625000D02*
X119855000Y-90255000D01*
X175035000Y-71785000D02*
X176395000Y-74885000D01*
X161765000Y-109925000D02*
X158715000Y-111195000D01*
X122995000Y-84955000D02*
X123195000Y-81725000D01*
X115405000Y-74405000D02*
X116735000Y-70825000D01*
X159915000Y-58545000D02*
X162975000Y-59985000D01*
X176445000Y-82045000D02*
X176585000Y-85425000D01*
X156615000Y-110585000D02*
X153405000Y-111265000D01*
X171325000Y-103505000D02*
X168945000Y-105975000D01*
X173435000Y-106555000D02*
X170905000Y-109055000D01*
X166275000Y-61585000D02*
X168895000Y-63725000D01*
X123315000Y-73745000D02*
X124825000Y-70745000D01*
X180955000Y-86395000D02*
X180595000Y-89875000D01*
X167515000Y-54285000D02*
X170675000Y-56385000D01*
X175225000Y-95665000D02*
X173765000Y-98635000D01*
X178805000Y-78955000D02*
X179285000Y-82385000D01*
X174845000Y-99165000D02*
X172995000Y-102035000D01*
X136415000Y-110795000D02*
X133495000Y-109085000D01*
X122665000Y-63965000D02*
X125085000Y-61205000D01*
X125355000Y-77535000D02*
X126455000Y-74595000D01*
X120615000Y-76525000D02*
X121775000Y-73275000D01*
X149535000Y-113945000D02*
X146155000Y-113745000D01*
X116615000Y-86115000D02*
X116685000Y-82565000D01*
X122025000Y-100015000D02*
X120505000Y-96815000D01*
X167775000Y-65965000D02*
X169955000Y-68355000D01*
X163315000Y-54345000D02*
X166535000Y-56025000D01*
X142575000Y-115145000D02*
X139175000Y-114155000D01*
X167195000Y-59785000D02*
X169955000Y-61985000D01*
X166535000Y-56025000D02*
X169625000Y-58095000D01*
X131705000Y-107285000D02*
X129205000Y-105025000D01*
X132145000Y-60915000D02*
X135055000Y-59065000D01*
X136975000Y-54175000D02*
X140405000Y-52995000D01*
X174485000Y-67745000D02*
X176285000Y-70725000D01*
X121945000Y-87905000D02*
X121795000Y-84605000D01*
X127035000Y-110675000D02*
X124385000Y-108085000D01*
X153265000Y-49555000D02*
X157015000Y-50165000D01*
X173375000Y-73865000D02*
X174555000Y-76905000D01*
X138015000Y-114575000D02*
X134735000Y-113075000D01*
X137515000Y-113945000D02*
X134345000Y-112415000D01*
X151265000Y-51795000D02*
X154875000Y-52195000D01*
X174525000Y-83125000D02*
X174545000Y-86315000D01*
X149415000Y-117545000D02*
X145805000Y-117325000D01*
X140875000Y-115125000D02*
X137515000Y-113945000D01*
X122545000Y-92965000D02*
X121795000Y-89725000D01*
X140155000Y-54735000D02*
X143605000Y-53885000D01*
X137345000Y-53165000D02*
X140845000Y-52045000D01*
X169385000Y-56925000D02*
X172255000Y-59215000D01*
X150545000Y-118735000D02*
X146925000Y-118645000D01*
X137655000Y-61315000D02*
X140655000Y-60045000D01*
X171865000Y-104705000D02*
X169435000Y-107155000D01*
X137845000Y-59455000D02*
X140995000Y-58245000D01*
X138795000Y-115715000D02*
X135435000Y-114325000D01*
X117815000Y-83855000D02*
X118145000Y-80305000D01*
X159925000Y-53025000D02*
X163315000Y-54345000D01*
X164705000Y-115165000D02*
X161325000Y-116635000D01*
X125485000Y-68225000D02*
X127595000Y-65555000D01*
X183665000Y-81895000D02*
X183785000Y-85615000D01*
X145545000Y-111645000D02*
X142345000Y-110965000D01*
X155505000Y-56385000D02*
X158785000Y-57285000D01*
X121465000Y-83025000D02*
X121905000Y-79685000D01*
X152615000Y-118205000D02*
X148995000Y-118335000D01*
X120875000Y-68785000D02*
X122845000Y-65715000D01*
X158125000Y-118055000D02*
X154515000Y-118785000D01*
X161195000Y-55185000D02*
X164445000Y-56685000D01*
X156995000Y-117095000D02*
X153445000Y-117715000D01*
X171825000Y-105945000D02*
X169285000Y-108345000D01*
X133375000Y-110915000D02*
X130505000Y-108885000D01*
X128385000Y-56235000D02*
X131515000Y-54175000D01*
X129525000Y-111165000D02*
X126765000Y-108805000D01*
X152715000Y-51505000D02*
X156355000Y-52065000D01*
X173755000Y-62355000D02*
X176095000Y-65175000D01*
X118705000Y-94085000D02*
X117885000Y-90605000D01*
X123685000Y-96125000D02*
X122545000Y-92965000D01*
X177375000Y-85925000D02*
X177055000Y-89235000D01*
X176675000Y-72415000D02*
X177925000Y-75615000D01*
X177345000Y-84575000D02*
X177375000Y-85925000D01*
X121775000Y-73275000D02*
X123315000Y-70155000D01*
X140665000Y-55835000D02*
X144055000Y-55025000D01*
X170025000Y-67185000D02*
X172005000Y-69785000D01*
X154925000Y-115885000D02*
X151365000Y-116295000D01*
X165655000Y-110495000D02*
X162625000Y-112175000D01*
X179515000Y-72955000D02*
X180655000Y-76375000D01*
X170855000Y-111195000D02*
X167905000Y-113335000D01*
X119855000Y-90255000D02*
X119445000Y-86815000D01*
X170835000Y-60095000D02*
X173445000Y-62605000D01*
X132775000Y-60965000D02*
X135625000Y-59215000D01*
X129925000Y-67145000D02*
X132295000Y-64865000D01*
X177135000Y-68955000D02*
X178745000Y-72145000D01*
X163195000Y-115435000D02*
X159775000Y-116745000D01*
X139125000Y-110715000D02*
X136125000Y-109285000D01*
X165395000Y-106325000D02*
X162625000Y-108115000D01*
X182925000Y-94195000D02*
X181735000Y-97705000D01*
X138185000Y-57565000D02*
X141425000Y-56445000D01*
X146155000Y-113745000D02*
X142775000Y-113145000D01*
X134315000Y-64285000D02*
X137055000Y-62535000D01*
X163155000Y-112805000D02*
X159915000Y-114165000D01*
X159565000Y-112165000D02*
X156325000Y-113145000D01*
X121905000Y-79685000D02*
X122725000Y-76465000D01*
X176335000Y-96125000D02*
X174845000Y-99165000D01*
X122955000Y-80615000D02*
X123685000Y-77425000D01*
X175085000Y-77265000D02*
X175825000Y-80465000D01*
X134735000Y-113075000D02*
X131695000Y-111255000D01*
X175745000Y-86515000D02*
X175345000Y-89715000D01*
X133665000Y-57555000D02*
X136825000Y-55965000D01*
X130505000Y-108885000D02*
X127895000Y-106545000D01*
X162625000Y-112175000D02*
X159435000Y-113485000D01*
X151955000Y-116655000D02*
X148445000Y-116725000D01*
X180925000Y-71145000D02*
X182225000Y-74635000D01*
X180675000Y-75015000D02*
X181575000Y-78525000D01*
X121705000Y-92945000D02*
X120965000Y-89615000D01*
X143105000Y-120155000D02*
X139445000Y-119285000D01*
X173995000Y-102015000D02*
X171865000Y-104705000D01*
X126885000Y-69015000D02*
X128965000Y-66415000D01*
X173675000Y-72645000D02*
X174975000Y-75655000D01*
X122825000Y-96145000D02*
X121705000Y-92945000D01*
X148805000Y-111935000D02*
X145545000Y-111645000D01*
X122315000Y-69495000D02*
X124225000Y-66545000D01*
X144485000Y-51305000D02*
X148125000Y-50965000D01*
X139535000Y-112155000D02*
X136415000Y-110795000D01*
X176025000Y-107245000D02*
X173455000Y-109975000D01*
X145425000Y-49975000D02*
X149175000Y-49745000D01*
X171485000Y-100715000D02*
X169375000Y-103285000D01*
X165645000Y-56885000D02*
X168685000Y-58895000D01*
X116585000Y-96635000D02*
X115535000Y-93055000D01*
X153465000Y-58855000D02*
X156655000Y-59555000D01*
X168295000Y-57625000D02*
X171155000Y-59845000D01*
X139765000Y-110535000D02*
X136715000Y-109145000D01*
X175825000Y-80465000D02*
X176165000Y-83675000D01*
X173385000Y-103515000D02*
X171075000Y-106145000D01*
X173555000Y-58775000D02*
X176215000Y-61505000D01*
X171935000Y-101455000D02*
X169805000Y-104005000D01*
X121035000Y-83525000D02*
X121405000Y-80205000D01*
X160695000Y-112155000D02*
X157455000Y-113265000D01*
X163365000Y-62055000D02*
X166025000Y-63905000D01*
X148365000Y-53765000D02*
X151895000Y-53845000D01*
X123395000Y-100005000D02*
X121845000Y-96905000D01*
X143835000Y-52625000D02*
X147405000Y-52205000D01*
X124125000Y-91135000D02*
X123565000Y-87985000D01*
X183785000Y-85615000D02*
X183515000Y-89255000D01*
X123665000Y-65295000D02*
X126015000Y-62545000D01*
X175285000Y-87315000D02*
X174775000Y-90505000D01*
X156645000Y-110165000D02*
X153515000Y-110845000D01*
X130705000Y-105375000D02*
X128415000Y-102985000D01*
X180525000Y-71225000D02*
X181815000Y-74655000D01*
X159055000Y-119045000D02*
X155415000Y-119855000D01*
X137575000Y-52655000D02*
X141125000Y-51565000D01*
X174645000Y-94975000D02*
X173235000Y-97945000D01*
X135335000Y-62155000D02*
X138265000Y-60585000D01*
X123725000Y-74855000D02*
X125125000Y-71835000D01*
X121425000Y-102935000D02*
X119635000Y-99755000D01*
X156625000Y-50485000D02*
X160245000Y-51445000D01*
X172615000Y-96555000D02*
X170985000Y-99335000D01*
X161595000Y-54485000D02*
X164925000Y-56035000D01*
X124035000Y-75165000D02*
X125405000Y-72165000D01*
X120605000Y-74045000D02*
X122025000Y-70855000D01*
X179665000Y-75825000D02*
X180495000Y-79305000D01*
X141355000Y-115665000D02*
X138015000Y-114575000D01*
X120435000Y-64275000D02*
X122795000Y-61315000D01*
X172465000Y-71265000D02*
X173955000Y-74175000D01*
X142875000Y-60625000D02*
X145905000Y-60015000D01*
X140425000Y-111625000D02*
X137325000Y-110355000D01*
X179375000Y-85825000D02*
X179065000Y-89305000D01*
X172235000Y-95475000D02*
X170725000Y-98255000D01*
X179815000Y-80065000D02*
X180165000Y-83555000D01*
X167545000Y-114505000D02*
X164285000Y-116255000D01*
X170145000Y-61085000D02*
X172685000Y-63555000D01*
X146395000Y-57915000D02*
X149685000Y-57745000D01*
X125915000Y-60935000D02*
X128685000Y-58515000D01*
X169285000Y-108345000D02*
X166475000Y-110445000D01*
X181305000Y-82495000D02*
X181375000Y-86055000D01*
X134645000Y-56115000D02*
X137895000Y-54665000D01*
X139965000Y-61165000D02*
X142995000Y-60175000D01*
X150735000Y-58975000D02*
X153905000Y-59335000D01*
X120725000Y-72685000D02*
X122315000Y-69495000D01*
X134855000Y-52465000D02*
X138375000Y-51105000D01*
X157705000Y-54445000D02*
X161065000Y-55565000D01*
X139775000Y-108815000D02*
X136855000Y-107395000D01*
X149535000Y-49345000D02*
X153265000Y-49555000D01*
X157775000Y-117735000D02*
X154185000Y-118425000D01*
X153825000Y-56485000D02*
X157135000Y-57195000D01*
X162405000Y-60585000D02*
X165245000Y-62325000D01*
X124765000Y-94525000D02*
X123775000Y-91395000D01*
X124805000Y-74335000D02*
X126275000Y-71435000D01*
X176335000Y-88635000D02*
X175675000Y-91875000D01*
X139265000Y-109905000D02*
X136285000Y-108455000D01*
X175965000Y-76055000D02*
X176835000Y-79325000D01*
X141325000Y-59405000D02*
X144495000Y-58605000D01*
X153475000Y-115295000D02*
X150005000Y-115545000D01*
X147515000Y-54605000D02*
X150995000Y-54585000D01*
X151815000Y-51025000D02*
X155475000Y-51485000D01*
X130645000Y-59535000D02*
X133665000Y-57555000D01*
X130465000Y-67155000D02*
X132785000Y-64965000D01*
X163415000Y-114455000D02*
X160095000Y-115795000D01*
X165795000Y-55145000D02*
X169005000Y-57145000D01*
X178355000Y-92695000D02*
X177275000Y-95935000D01*
X128965000Y-66415000D02*
X131375000Y-64065000D01*
X124275000Y-106145000D02*
X122095000Y-103225000D01*
X123665000Y-71175000D02*
X125485000Y-68225000D01*
X124365000Y-107465000D02*
X122065000Y-104595000D01*
X166625000Y-103175000D02*
X164275000Y-105175000D01*
X167045000Y-112935000D02*
X163855000Y-114685000D01*
X165235000Y-58045000D02*
X168185000Y-60015000D01*
X171875000Y-71845000D02*
X173325000Y-74735000D01*
X154085000Y-113995000D02*
X150685000Y-114325000D01*
X128635000Y-62765000D02*
X131345000Y-60505000D01*
X154295000Y-53315000D02*
X157805000Y-54065000D01*
X125405000Y-72165000D02*
X127125000Y-69365000D01*
X136715000Y-117505000D02*
X133335000Y-115955000D01*
X150995000Y-54585000D02*
X154465000Y-54965000D01*
X131045000Y-60235000D02*
X133995000Y-58295000D01*
X161025000Y-52135000D02*
X164475000Y-53565000D01*
X138065000Y-51635000D02*
X141695000Y-50605000D01*
X163755000Y-111145000D02*
X160645000Y-112605000D01*
X173235000Y-97945000D02*
X171485000Y-100715000D01*
X176995000Y-97605000D02*
X175345000Y-100685000D01*
X134185000Y-54105000D02*
X137575000Y-52655000D01*
X123855000Y-83285000D02*
X124265000Y-80125000D01*
X177605000Y-97225000D02*
X176025000Y-100325000D01*
X165665000Y-109065000D02*
X162705000Y-110795000D01*
X133965000Y-54665000D02*
X137345000Y-53165000D01*
X125655000Y-106515000D02*
X123415000Y-103725000D01*
X173945000Y-63765000D02*
X176135000Y-66615000D01*
X126115000Y-97485000D02*
X124765000Y-94525000D01*
X167735000Y-55355000D02*
X170805000Y-57485000D01*
X153775000Y-50415000D02*
X157465000Y-51085000D01*
X153015000Y-57985000D02*
X156245000Y-58615000D01*
X119955000Y-71455000D02*
X121615000Y-68305000D01*
X116385000Y-97245000D02*
X115265000Y-93645000D01*
X178845000Y-81955000D02*
X178985000Y-85385000D01*
X140285000Y-53445000D02*
X143835000Y-52625000D01*
X156205000Y-58185000D02*
X159405000Y-59215000D01*
X170175000Y-66745000D02*
X172215000Y-69385000D01*
X119255000Y-81025000D02*
X119925000Y-77545000D01*
X129485000Y-63075000D02*
X132145000Y-60915000D01*
X146985000Y-113025000D02*
X143685000Y-112525000D01*
X138265000Y-60585000D02*
X141325000Y-59405000D01*
X169365000Y-106675000D02*
X166695000Y-108835000D01*
X164445000Y-56685000D02*
X167515000Y-58545000D01*
X143875000Y-112975000D02*
X140605000Y-112105000D01*
X176995000Y-84975000D02*
X176775000Y-88345000D01*
X176585000Y-85425000D02*
X176335000Y-88635000D01*
X167795000Y-103765000D02*
X165305000Y-105885000D01*
X183465000Y-74565000D02*
X184365000Y-78215000D01*
X121845000Y-96905000D02*
X120655000Y-93625000D01*
X153995000Y-114415000D02*
X150555000Y-114725000D01*
X147180000Y-120950000D02*
X147180000Y-121330000D01*
X173015000Y-100615000D02*
X170995000Y-103275000D01*
X157055000Y-60095000D02*
X160075000Y-61225000D01*
X174815000Y-106815000D02*
X172265000Y-109445000D01*
X119445000Y-83325000D02*
X119835000Y-79885000D01*
X159455000Y-52035000D02*
X162915000Y-53295000D01*
X141965000Y-56715000D02*
X145315000Y-56035000D01*
X168685000Y-58895000D02*
X171455000Y-61185000D01*
X142605000Y-117205000D02*
X139105000Y-116245000D01*
X179305000Y-103415000D02*
X177155000Y-106485000D01*
X168915000Y-64845000D02*
X171175000Y-67315000D01*
X174085000Y-103255000D02*
X171825000Y-105945000D01*
X156065000Y-114435000D02*
X152655000Y-114985000D01*
X173885000Y-93595000D02*
X172615000Y-96555000D01*
X176115000Y-86955000D02*
X175665000Y-90185000D01*
X150165000Y-111535000D02*
X146895000Y-111405000D01*
X124385000Y-108085000D02*
X122025000Y-105215000D01*
X182845000Y-92895000D02*
X181785000Y-96455000D01*
X148485000Y-50555000D02*
X152165000Y-50655000D01*
X182935000Y-86835000D02*
X182535000Y-90415000D01*
X162095000Y-107035000D02*
X159245000Y-108425000D01*
X159225000Y-110585000D02*
X156045000Y-111565000D01*
X133495000Y-109085000D02*
X130785000Y-107045000D01*
X180275000Y-68855000D02*
X181825000Y-72275000D01*
X118655000Y-69545000D02*
X120505000Y-66315000D01*
X179255000Y-67825000D02*
X180925000Y-71145000D01*
X174965000Y-66345000D02*
X176875000Y-69305000D01*
X143695000Y-110895000D02*
X140565000Y-109975000D01*
X144835000Y-54085000D02*
X148365000Y-53765000D01*
X145935000Y-110485000D02*
X142795000Y-109845000D01*
X156555000Y-116785000D02*
X153015000Y-117365000D01*
X128565000Y-108295000D02*
X126095000Y-105805000D01*
X147125000Y-53425000D02*
X150695000Y-53375000D01*
X128705000Y-111035000D02*
X125965000Y-108575000D01*
X177395000Y-78145000D02*
X177985000Y-81435000D01*
X181575000Y-78525000D02*
X182075000Y-82095000D01*
X118925000Y-96045000D02*
X117885000Y-92575000D01*
X158995000Y-115315000D02*
X155535000Y-116175000D01*
X146925000Y-118645000D02*
X143215000Y-118145000D01*
X175325000Y-102905000D02*
X173135000Y-105695000D01*
X165825000Y-61755000D02*
X168435000Y-63845000D01*
X164635000Y-59545000D02*
X167485000Y-61495000D01*
X165145000Y-62745000D02*
X167695000Y-64795000D01*
X126325000Y-103595000D02*
X124345000Y-100805000D01*
X128375000Y-62465000D02*
X131045000Y-60235000D01*
X122625000Y-83835000D02*
X122955000Y-80615000D01*
X170265000Y-64495000D02*
X172515000Y-67075000D01*
X161535000Y-109145000D02*
X158515000Y-110415000D01*
X131315000Y-54765000D02*
X134655000Y-52995000D01*
X145555000Y-112455000D02*
X142275000Y-111775000D01*
X178565000Y-86195000D02*
X178215000Y-89585000D01*
X144335000Y-115905000D02*
X140875000Y-115125000D01*
X181735000Y-97705000D02*
X180175000Y-101095000D01*
X138375000Y-51105000D02*
X142065000Y-50115000D01*
X126255000Y-112115000D02*
X123525000Y-109505000D01*
X179715000Y-103515000D02*
X177555000Y-106625000D01*
X152905000Y-49915000D02*
X156625000Y-50485000D01*
X170905000Y-62315000D02*
X173285000Y-64845000D01*
X174555000Y-92865000D02*
X173385000Y-95875000D01*
X180595000Y-84315000D02*
X180455000Y-87825000D01*
X132505000Y-113195000D02*
X129525000Y-111165000D01*
X127685000Y-98605000D02*
X126155000Y-95765000D01*
X178695000Y-96695000D02*
X177185000Y-99895000D01*
X130025000Y-107975000D02*
X127495000Y-105555000D01*
X132495000Y-103715000D02*
X130275000Y-101425000D01*
X119365000Y-93485000D02*
X118605000Y-90065000D01*
X117865000Y-100685000D02*
X116385000Y-97245000D01*
X133995000Y-58295000D02*
X137095000Y-56725000D01*
X117775000Y-74875000D02*
X119085000Y-71445000D01*
X123395000Y-84775000D02*
X123625000Y-81545000D01*
X132785000Y-64965000D02*
X135385000Y-63065000D01*
X167845000Y-64395000D02*
X170175000Y-66745000D01*
X121255000Y-104835000D02*
X119285000Y-101675000D01*
X163855000Y-114685000D02*
X160485000Y-116085000D01*
X182225000Y-74635000D02*
X183145000Y-78225000D01*
X120505000Y-96815000D02*
X119365000Y-93485000D01*
X142995000Y-60175000D02*
X146095000Y-59565000D01*
X182455000Y-92815000D02*
X181395000Y-96355000D01*
X163755000Y-52795000D02*
X167105000Y-54505000D01*
X175705000Y-103755000D02*
X173435000Y-106555000D01*
X124005000Y-93605000D02*
X123145000Y-90425000D01*
X143775000Y-59155000D02*
X147045000Y-58655000D01*
X142485000Y-118815000D02*
X138895000Y-117865000D01*
X153665000Y-112845000D02*
X150335000Y-113135000D01*
X121075000Y-106615000D02*
X118955000Y-103495000D01*
X175755000Y-61585000D02*
X178095000Y-64525000D01*
X146175000Y-112135000D02*
X142895000Y-111525000D01*
X182535000Y-90415000D02*
X181725000Y-94015000D01*
X143685000Y-56725000D02*
X147075000Y-56245000D01*
X176435000Y-94775000D02*
X175085000Y-97885000D01*
X147525000Y-59015000D02*
X150735000Y-58975000D01*
X155595000Y-53135000D02*
X159075000Y-54015000D01*
X169945000Y-62515000D02*
X172355000Y-64985000D01*
X127425000Y-106645000D02*
X125105000Y-103985000D01*
X122985000Y-97485000D02*
X121725000Y-94355000D01*
X136435000Y-112585000D02*
X133375000Y-110915000D01*
X174925000Y-82985000D02*
X174965000Y-86175000D01*
X120965000Y-74225000D02*
X122375000Y-71055000D01*
X181055000Y-74895000D02*
X181955000Y-78405000D01*
X162385000Y-57885000D02*
X165405000Y-59555000D01*
X162315000Y-114075000D02*
X158995000Y-115315000D01*
X173105000Y-70015000D02*
X174725000Y-72965000D01*
X179955000Y-99755000D02*
X178165000Y-102975000D01*
X115085000Y-87525000D02*
X115015000Y-83835000D01*
X134995000Y-105705000D02*
X132495000Y-103715000D01*
X147125000Y-119055000D02*
X143455000Y-118595000D01*
X125075000Y-99705000D02*
X123505000Y-96705000D01*
X140405000Y-52995000D02*
X143985000Y-52195000D01*
X157805000Y-54065000D02*
X161195000Y-55185000D01*
X126795000Y-96135000D02*
X125585000Y-93215000D01*
X162975000Y-59985000D02*
X165825000Y-61755000D01*
X160645000Y-112605000D02*
X157365000Y-113705000D01*
X128365000Y-98885000D02*
X126795000Y-96135000D01*
X128685000Y-58515000D02*
X131675000Y-56415000D01*
X181395000Y-96355000D02*
X179955000Y-99755000D01*
X151065000Y-52185000D02*
X154655000Y-52565000D01*
X180495000Y-79305000D02*
X180925000Y-82765000D01*
X128975000Y-103015000D02*
X126975000Y-100445000D01*
X170625000Y-68555000D02*
X172465000Y-71265000D01*
X131355000Y-63035000D02*
X134075000Y-61055000D01*
X177185000Y-99895000D02*
X175325000Y-102905000D01*
X170085000Y-69165000D02*
X171875000Y-71845000D01*
X182075000Y-82095000D02*
X182185000Y-85695000D01*
X164405000Y-107505000D02*
X161535000Y-109145000D01*
X170675000Y-56385000D02*
X173555000Y-58775000D01*
X131475000Y-62425000D02*
X134275000Y-60455000D01*
X122845000Y-65715000D02*
X125085000Y-62955000D01*
X140655000Y-60045000D02*
X143775000Y-59155000D01*
X171155000Y-59845000D02*
X173755000Y-62355000D01*
X182185000Y-85695000D02*
X181895000Y-89315000D01*
X156325000Y-113145000D02*
X152965000Y-113745000D01*
X149295000Y-59345000D02*
X152495000Y-59535000D01*
X125085000Y-62955000D02*
X127695000Y-60375000D01*
X139105000Y-116245000D02*
X135725000Y-114905000D01*
X116945000Y-89795000D02*
X116615000Y-86115000D01*
X168225000Y-61565000D02*
X170795000Y-63885000D01*
X173455000Y-109975000D02*
X170625000Y-112395000D01*
X168435000Y-63845000D02*
X170805000Y-66255000D01*
X169805000Y-104005000D02*
X167345000Y-106315000D01*
X120455000Y-97725000D02*
X119215000Y-94395000D01*
X160355000Y-58295000D02*
X163415000Y-59765000D01*
X152195000Y-112615000D02*
X148865000Y-112735000D01*
X121295000Y-66565000D02*
X123435000Y-63655000D01*
X183055000Y-74595000D02*
X183955000Y-78205000D01*
X127955000Y-71795000D02*
X129785000Y-69175000D01*
X153945000Y-113205000D02*
X150585000Y-113525000D01*
X162195000Y-109255000D02*
X159225000Y-110585000D01*
X118475000Y-68165000D02*
X120415000Y-64995000D01*
X183395000Y-85555000D02*
X183115000Y-89225000D01*
X140715000Y-115905000D02*
X137305000Y-114725000D01*
X161565000Y-57945000D02*
X164635000Y-59545000D01*
X139895000Y-61645000D02*
X142875000Y-60625000D01*
X165715000Y-115995000D02*
X162315000Y-117535000D01*
X153555000Y-119315000D02*
X149805000Y-119545000D01*
X177585000Y-81435000D02*
X177795000Y-84745000D01*
X154315000Y-54535000D02*
X157705000Y-55275000D01*
X134345000Y-64805000D02*
X137045000Y-63025000D01*
X168985000Y-68435000D02*
X170885000Y-70995000D01*
X176055000Y-94655000D02*
X174705000Y-97735000D01*
X139445000Y-119285000D02*
X135895000Y-118035000D01*
X117135000Y-92865000D02*
X116475000Y-89325000D01*
X124015000Y-103875000D02*
X122065000Y-100905000D01*
X156215000Y-109455000D02*
X153115000Y-110095000D01*
X182585000Y-85615000D02*
X182315000Y-89255000D01*
X124595000Y-80625000D02*
X125355000Y-77535000D01*
X123295000Y-67165000D02*
X125475000Y-64325000D01*
X146095000Y-59565000D02*
X149295000Y-59345000D01*
X158785000Y-57285000D02*
X161965000Y-58575000D01*
X141825000Y-52215000D02*
X145415000Y-51585000D01*
X125475000Y-64325000D02*
X127905000Y-61805000D01*
X176225000Y-78425000D02*
X176815000Y-81765000D01*
X157455000Y-113265000D02*
X154085000Y-113995000D01*
X158435000Y-61445000D02*
X161265000Y-62725000D01*
X121795000Y-89725000D02*
X121425000Y-86355000D01*
X166425000Y-113775000D02*
X163195000Y-115435000D01*
X128655000Y-106175000D02*
X126325000Y-103595000D01*
X161605000Y-106855000D02*
X158755000Y-108205000D01*
X140345000Y-113285000D02*
X137125000Y-112025000D01*
X159245000Y-108425000D02*
X156215000Y-109455000D01*
X165035000Y-113185000D02*
X161815000Y-114725000D01*
X180605000Y-72455000D02*
X181775000Y-75915000D01*
X140185000Y-54305000D02*
X143685000Y-53465000D01*
X183625000Y-93075000D02*
X182565000Y-96645000D01*
X131335000Y-105405000D02*
X128975000Y-103015000D01*
X132875000Y-111075000D02*
X130015000Y-109005000D01*
X176095000Y-65175000D02*
X178095000Y-68215000D01*
X174775000Y-90505000D02*
X173885000Y-93595000D01*
X158445000Y-52995000D02*
X161875000Y-54165000D01*
X115265000Y-93645000D02*
X114545000Y-89995000D01*
X140445000Y-55485000D02*
X143795000Y-54665000D01*
X140435000Y-57585000D02*
X143685000Y-56725000D01*
X176165000Y-83675000D02*
X176115000Y-86955000D01*
X126295000Y-106615000D02*
X124015000Y-103875000D01*
X116085000Y-91835000D02*
X115545000Y-88205000D01*
X124345000Y-100805000D02*
X122685000Y-97795000D01*
X175905000Y-78795000D02*
X176445000Y-82045000D01*
X132395000Y-104735000D02*
X130115000Y-102495000D01*
X174965000Y-86175000D02*
X174605000Y-89335000D01*
X173965000Y-108905000D02*
X171235000Y-111405000D01*
X134655000Y-52995000D02*
X138065000Y-51635000D01*
X176445000Y-70175000D02*
X177945000Y-73345000D01*
X178005000Y-88215000D02*
X177405000Y-91565000D01*
X172905000Y-63205000D02*
X175175000Y-65945000D01*
X156045000Y-111565000D02*
X152775000Y-112155000D01*
X145305000Y-118075000D02*
X141735000Y-117415000D01*
X179125000Y-99625000D02*
X177325000Y-102795000D01*
X164275000Y-58415000D02*
X167175000Y-60265000D01*
X150725000Y-52975000D02*
X154295000Y-53315000D01*
X115555000Y-91215000D02*
X115085000Y-87525000D01*
X181775000Y-75915000D02*
X182555000Y-79485000D01*
X173865000Y-72145000D02*
X175255000Y-75255000D01*
X154400000Y-109450000D02*
X152820000Y-109640000D01*
X133935000Y-107455000D02*
X131335000Y-105405000D01*
X178855000Y-67935000D02*
X180525000Y-71225000D01*
X157255000Y-118675000D02*
X153555000Y-119315000D01*
X148215000Y-55375000D02*
X151655000Y-55425000D01*
X130565000Y-57625000D02*
X133705000Y-55705000D01*
X125285000Y-97625000D02*
X123935000Y-94595000D01*
X172355000Y-64985000D02*
X174485000Y-67745000D01*
X115655000Y-80795000D02*
X116305000Y-77175000D01*
X131795000Y-59205000D02*
X134765000Y-57405000D01*
X171685000Y-106665000D02*
X169145000Y-108975000D01*
X165595000Y-64585000D02*
X167975000Y-66725000D01*
X114545000Y-89995000D02*
X114215000Y-86245000D01*
X117435000Y-83465000D02*
X117805000Y-79905000D01*
X158515000Y-110415000D02*
X155355000Y-111315000D01*
X124805000Y-69995000D02*
X126745000Y-67195000D01*
X164955000Y-60215000D02*
X167705000Y-62175000D01*
X181415000Y-79935000D02*
X181765000Y-83465000D01*
X148125000Y-50965000D02*
X151815000Y-51025000D01*
X181955000Y-78405000D02*
X182465000Y-81975000D01*
X134875000Y-62925000D02*
X137655000Y-61315000D01*
X122305000Y-93555000D02*
X121485000Y-90275000D01*
X122025000Y-105215000D02*
X120005000Y-102135000D01*
X180175000Y-101095000D02*
X178255000Y-104295000D01*
X134275000Y-60455000D02*
X137225000Y-58855000D01*
X118865000Y-80895000D02*
X119545000Y-77395000D01*
X126615000Y-103315000D02*
X124645000Y-100535000D01*
X183515000Y-89255000D02*
X182845000Y-92895000D01*
X120605000Y-94795000D02*
X119675000Y-91415000D01*
X150685000Y-114325000D02*
X147255000Y-114255000D01*
X178985000Y-85385000D02*
X178735000Y-88815000D01*
X180455000Y-87825000D02*
X179925000Y-91305000D01*
X140125000Y-58115000D02*
X143385000Y-57195000D01*
X182735000Y-78235000D02*
X183265000Y-81915000D01*
X117175000Y-100175000D02*
X115755000Y-96675000D01*
X176415000Y-106135000D02*
X173965000Y-108905000D01*
X117695000Y-78295000D02*
X118645000Y-74785000D01*
X127125000Y-69365000D02*
X129155000Y-66805000D01*
X166985000Y-105575000D02*
X164405000Y-107505000D01*
X147045000Y-58655000D02*
X150225000Y-58555000D01*
X169485000Y-111755000D02*
X166425000Y-113775000D01*
X115545000Y-88205000D02*
X115395000Y-84485000D01*
X174545000Y-86315000D02*
X174165000Y-89435000D01*
X134105000Y-110425000D02*
X131245000Y-108455000D01*
X176335000Y-92495000D02*
X175225000Y-95665000D01*
X132475000Y-116405000D02*
X129235000Y-114415000D01*
X179495000Y-80625000D02*
X179785000Y-84075000D01*
X137755000Y-108335000D02*
X134985000Y-106715000D01*
X172075000Y-100575000D02*
X170015000Y-103175000D01*
X119525000Y-75995000D02*
X120725000Y-72685000D01*
X140995000Y-58245000D02*
X144275000Y-57425000D01*
X170325000Y-60715000D02*
X172905000Y-63205000D01*
X131515000Y-64475000D02*
X134145000Y-62445000D01*
X160075000Y-61225000D02*
X162935000Y-62725000D01*
X117805000Y-79905000D02*
X118565000Y-76425000D01*
X143805000Y-113775000D02*
X140565000Y-112935000D01*
X124975000Y-68255000D02*
X127085000Y-65525000D01*
X120275000Y-100125000D02*
X118785000Y-96815000D01*
X179665000Y-90555000D02*
X178835000Y-93925000D01*
X178995000Y-94725000D02*
X177695000Y-97995000D01*
X119255000Y-72045000D02*
X120875000Y-68785000D01*
X121425000Y-86355000D02*
X121465000Y-83025000D01*
X132665000Y-64035000D02*
X135335000Y-62155000D01*
X115615000Y-75095000D02*
X116865000Y-71545000D01*
X126175000Y-59055000D02*
X129055000Y-56735000D01*
X135795000Y-111825000D02*
X132795000Y-110065000D01*
X178995000Y-100755000D02*
X177065000Y-103905000D01*
X129855000Y-102805000D02*
X127815000Y-100255000D01*
X167985000Y-57905000D02*
X170835000Y-60095000D01*
X158175000Y-53335000D02*
X161595000Y-54485000D01*
X177695000Y-97995000D02*
X176025000Y-101105000D01*
X125125000Y-71835000D02*
X126885000Y-69015000D01*
%TD*%
%TA.AperFunction,Conductor*%
%TO.N,GND*%
G36*
X188433621Y-35528502D02*
G01*
X188480114Y-35582158D01*
X188491500Y-35634500D01*
X188491500Y-45491377D01*
X188491498Y-45492147D01*
X188491024Y-45569721D01*
X188493491Y-45578352D01*
X188499150Y-45598153D01*
X188502728Y-45614915D01*
X188506920Y-45644187D01*
X188510634Y-45652355D01*
X188510634Y-45652356D01*
X188517548Y-45667562D01*
X188523996Y-45685086D01*
X188531051Y-45709771D01*
X188535843Y-45717365D01*
X188535844Y-45717368D01*
X188546830Y-45734780D01*
X188554969Y-45749863D01*
X188567208Y-45776782D01*
X188573069Y-45783584D01*
X188583970Y-45796235D01*
X188595073Y-45811239D01*
X188608776Y-45832958D01*
X188615501Y-45838897D01*
X188615504Y-45838901D01*
X188630938Y-45852532D01*
X188642982Y-45864724D01*
X188656427Y-45880327D01*
X188656430Y-45880329D01*
X188662287Y-45887127D01*
X188669816Y-45892007D01*
X188669817Y-45892008D01*
X188683835Y-45901094D01*
X188698709Y-45912385D01*
X188711217Y-45923431D01*
X188717951Y-45929378D01*
X188744711Y-45941942D01*
X188759691Y-45950263D01*
X188776983Y-45961471D01*
X188776988Y-45961473D01*
X188784515Y-45966352D01*
X188793108Y-45968922D01*
X188793113Y-45968924D01*
X188809120Y-45973711D01*
X188826564Y-45980372D01*
X188841676Y-45987467D01*
X188841678Y-45987468D01*
X188849800Y-45991281D01*
X188858667Y-45992662D01*
X188858668Y-45992662D01*
X188861353Y-45993080D01*
X188879017Y-45995830D01*
X188895732Y-45999613D01*
X188915466Y-46005515D01*
X188915472Y-46005516D01*
X188924066Y-46008086D01*
X188933037Y-46008141D01*
X188933038Y-46008141D01*
X188943097Y-46008202D01*
X188958506Y-46008296D01*
X188959289Y-46008329D01*
X188960386Y-46008500D01*
X188991377Y-46008500D01*
X188992147Y-46008502D01*
X189065785Y-46008952D01*
X189065786Y-46008952D01*
X189069721Y-46008976D01*
X189071065Y-46008592D01*
X189072410Y-46008500D01*
X198865500Y-46008500D01*
X198933621Y-46028502D01*
X198980114Y-46082158D01*
X198991500Y-46134500D01*
X198991500Y-123865500D01*
X198971498Y-123933621D01*
X198917842Y-123980114D01*
X198865500Y-123991500D01*
X189008623Y-123991500D01*
X189007853Y-123991498D01*
X189007037Y-123991493D01*
X188930279Y-123991024D01*
X188907918Y-123997415D01*
X188901847Y-123999150D01*
X188885085Y-124002728D01*
X188855813Y-124006920D01*
X188847645Y-124010634D01*
X188847644Y-124010634D01*
X188832438Y-124017548D01*
X188814914Y-124023996D01*
X188790229Y-124031051D01*
X188782635Y-124035843D01*
X188782632Y-124035844D01*
X188765220Y-124046830D01*
X188750137Y-124054969D01*
X188723218Y-124067208D01*
X188716416Y-124073069D01*
X188703765Y-124083970D01*
X188688761Y-124095073D01*
X188667042Y-124108776D01*
X188661103Y-124115501D01*
X188661099Y-124115504D01*
X188647468Y-124130938D01*
X188635276Y-124142982D01*
X188619673Y-124156427D01*
X188619671Y-124156430D01*
X188612873Y-124162287D01*
X188607993Y-124169816D01*
X188607992Y-124169817D01*
X188598906Y-124183835D01*
X188587615Y-124198709D01*
X188576569Y-124211217D01*
X188570622Y-124217951D01*
X188564312Y-124231391D01*
X188558058Y-124244711D01*
X188549737Y-124259691D01*
X188538529Y-124276983D01*
X188538527Y-124276988D01*
X188533648Y-124284515D01*
X188531078Y-124293108D01*
X188531076Y-124293113D01*
X188526289Y-124309120D01*
X188519628Y-124326564D01*
X188512533Y-124341676D01*
X188508719Y-124349800D01*
X188507338Y-124358667D01*
X188507338Y-124358668D01*
X188504170Y-124379015D01*
X188500387Y-124395732D01*
X188494485Y-124415466D01*
X188494484Y-124415472D01*
X188491914Y-124424066D01*
X188491859Y-124433037D01*
X188491859Y-124433038D01*
X188491704Y-124458497D01*
X188491671Y-124459289D01*
X188491500Y-124460386D01*
X188491500Y-124491377D01*
X188491498Y-124492147D01*
X188491024Y-124569721D01*
X188491408Y-124571065D01*
X188491500Y-124572410D01*
X188491500Y-134365500D01*
X188471498Y-134433621D01*
X188417842Y-134480114D01*
X188365500Y-134491500D01*
X110634500Y-134491500D01*
X110566379Y-134471498D01*
X110519886Y-134417842D01*
X110508500Y-134365500D01*
X110508500Y-124508623D01*
X110508502Y-124507853D01*
X110508800Y-124459102D01*
X110508976Y-124430279D01*
X110500850Y-124401847D01*
X110497272Y-124385085D01*
X110494352Y-124364698D01*
X110493080Y-124355813D01*
X110482451Y-124332436D01*
X110476004Y-124314913D01*
X110471416Y-124298862D01*
X110468949Y-124290229D01*
X110464156Y-124282632D01*
X110453170Y-124265220D01*
X110445030Y-124250135D01*
X110442564Y-124244711D01*
X110432792Y-124223218D01*
X110416030Y-124203765D01*
X110404927Y-124188761D01*
X110391224Y-124167042D01*
X110384499Y-124161103D01*
X110384496Y-124161099D01*
X110369062Y-124147468D01*
X110357018Y-124135276D01*
X110343573Y-124119673D01*
X110343570Y-124119671D01*
X110337713Y-124112873D01*
X110324009Y-124103990D01*
X110316165Y-124098906D01*
X110301291Y-124087615D01*
X110288783Y-124076569D01*
X110288782Y-124076568D01*
X110282049Y-124070622D01*
X110255287Y-124058057D01*
X110240309Y-124049737D01*
X110223017Y-124038529D01*
X110223012Y-124038527D01*
X110215485Y-124033648D01*
X110206892Y-124031078D01*
X110206887Y-124031076D01*
X110190880Y-124026289D01*
X110173436Y-124019628D01*
X110158324Y-124012533D01*
X110158322Y-124012532D01*
X110150200Y-124008719D01*
X110141333Y-124007338D01*
X110141332Y-124007338D01*
X110130478Y-124005648D01*
X110120983Y-124004170D01*
X110104268Y-124000387D01*
X110084534Y-123994485D01*
X110084528Y-123994484D01*
X110075934Y-123991914D01*
X110066963Y-123991859D01*
X110066962Y-123991859D01*
X110056903Y-123991798D01*
X110041494Y-123991704D01*
X110040711Y-123991671D01*
X110039614Y-123991500D01*
X110008623Y-123991500D01*
X110007853Y-123991498D01*
X109934215Y-123991048D01*
X109934214Y-123991048D01*
X109930279Y-123991024D01*
X109928935Y-123991408D01*
X109927590Y-123991500D01*
X100134500Y-123991500D01*
X100066379Y-123971498D01*
X100019886Y-123917842D01*
X100008500Y-123865500D01*
X100008500Y-123050000D01*
X133016496Y-123050000D01*
X133036458Y-123239928D01*
X133095473Y-123421556D01*
X133190960Y-123586944D01*
X133195378Y-123591851D01*
X133195379Y-123591852D01*
X133244762Y-123646697D01*
X133318747Y-123728866D01*
X133473248Y-123841118D01*
X133479276Y-123843802D01*
X133479278Y-123843803D01*
X133528011Y-123865500D01*
X133647712Y-123918794D01*
X133741113Y-123938647D01*
X133828056Y-123957128D01*
X133828061Y-123957128D01*
X133834513Y-123958500D01*
X134025487Y-123958500D01*
X134031939Y-123957128D01*
X134031944Y-123957128D01*
X134118887Y-123938647D01*
X134212288Y-123918794D01*
X134331989Y-123865500D01*
X134380722Y-123843803D01*
X134380724Y-123843802D01*
X134386752Y-123841118D01*
X134541253Y-123728866D01*
X134615238Y-123646697D01*
X134664621Y-123591852D01*
X134664622Y-123591851D01*
X134669040Y-123586944D01*
X134764527Y-123421556D01*
X134823542Y-123239928D01*
X134843504Y-123050000D01*
X134842814Y-123043435D01*
X134824232Y-122866635D01*
X134824232Y-122866633D01*
X134823542Y-122860072D01*
X134764527Y-122678444D01*
X134746472Y-122647171D01*
X134672341Y-122518774D01*
X134669040Y-122513056D01*
X134541253Y-122371134D01*
X134386752Y-122258882D01*
X134380724Y-122256198D01*
X134380722Y-122256197D01*
X134218319Y-122183891D01*
X134218318Y-122183891D01*
X134212288Y-122181206D01*
X134118887Y-122161353D01*
X134031944Y-122142872D01*
X134031939Y-122142872D01*
X134025487Y-122141500D01*
X133834513Y-122141500D01*
X133828061Y-122142872D01*
X133828056Y-122142872D01*
X133741113Y-122161353D01*
X133647712Y-122181206D01*
X133641682Y-122183891D01*
X133641681Y-122183891D01*
X133479278Y-122256197D01*
X133479276Y-122256198D01*
X133473248Y-122258882D01*
X133318747Y-122371134D01*
X133190960Y-122513056D01*
X133187659Y-122518774D01*
X133113529Y-122647171D01*
X133095473Y-122678444D01*
X133036458Y-122860072D01*
X133035768Y-122866633D01*
X133035768Y-122866635D01*
X133017186Y-123043435D01*
X133016496Y-123050000D01*
X100008500Y-123050000D01*
X100008500Y-84956181D01*
X107361869Y-84956181D01*
X107376542Y-85306258D01*
X107397036Y-85438645D01*
X107419608Y-85584450D01*
X107430145Y-85652518D01*
X107431067Y-85655910D01*
X107431067Y-85655912D01*
X107441824Y-85695504D01*
X107522012Y-85990645D01*
X107523302Y-85993904D01*
X107523304Y-85993909D01*
X107626966Y-86255727D01*
X107650998Y-86316424D01*
X107652653Y-86319536D01*
X107652655Y-86319541D01*
X107705997Y-86419862D01*
X107815493Y-86625795D01*
X107817483Y-86628701D01*
X107817484Y-86628703D01*
X108006722Y-86905077D01*
X108013449Y-86914902D01*
X108242397Y-87180142D01*
X108499485Y-87418207D01*
X108781507Y-87626132D01*
X108784544Y-87627886D01*
X108784548Y-87627888D01*
X108906901Y-87698528D01*
X109084949Y-87801324D01*
X109145351Y-87827713D01*
X109402807Y-87940193D01*
X109402817Y-87940197D01*
X109406029Y-87941600D01*
X109409387Y-87942639D01*
X109409391Y-87942641D01*
X109545685Y-87984831D01*
X109740743Y-88045212D01*
X109744199Y-88045871D01*
X109744198Y-88045871D01*
X110081471Y-88110210D01*
X110081477Y-88110211D01*
X110084922Y-88110868D01*
X110316253Y-88128668D01*
X110430777Y-88137480D01*
X110430778Y-88137480D01*
X110434274Y-88137749D01*
X110666291Y-88129646D01*
X110780929Y-88125643D01*
X110780933Y-88125643D01*
X110784445Y-88125520D01*
X110787924Y-88125006D01*
X110787927Y-88125006D01*
X111127578Y-88074851D01*
X111127584Y-88074850D01*
X111131070Y-88074335D01*
X111134474Y-88073436D01*
X111134477Y-88073435D01*
X111466439Y-87985727D01*
X111466440Y-87985727D01*
X111469830Y-87984831D01*
X111796502Y-87858123D01*
X112107014Y-87695792D01*
X112292141Y-87570922D01*
X112394580Y-87501826D01*
X112394582Y-87501825D01*
X112397496Y-87499859D01*
X112414695Y-87485222D01*
X112661654Y-87275043D01*
X112661655Y-87275042D01*
X112664327Y-87272768D01*
X112749069Y-87182527D01*
X112901771Y-87019916D01*
X112901775Y-87019911D01*
X112904182Y-87017348D01*
X112959553Y-86943332D01*
X113024571Y-86856422D01*
X113081394Y-86813857D01*
X113152208Y-86808770D01*
X113214531Y-86842776D01*
X113248575Y-86905077D01*
X113251152Y-86923063D01*
X113330007Y-88045212D01*
X113419123Y-89313403D01*
X113419056Y-89331972D01*
X113417208Y-89355789D01*
X113418580Y-89363599D01*
X113418580Y-89363601D01*
X113424231Y-89395772D01*
X113424913Y-89401304D01*
X113425048Y-89401286D01*
X113425574Y-89405217D01*
X113425852Y-89409165D01*
X113431993Y-89440122D01*
X113432487Y-89442760D01*
X114060688Y-93018675D01*
X114071503Y-93080238D01*
X114073351Y-93098410D01*
X114074065Y-93123226D01*
X114076257Y-93130845D01*
X114076257Y-93130847D01*
X114085236Y-93162059D01*
X114086633Y-93167341D01*
X114087263Y-93169953D01*
X114087951Y-93173867D01*
X114089123Y-93177661D01*
X114097528Y-93204874D01*
X114098229Y-93207224D01*
X115130833Y-96796751D01*
X115134613Y-96814740D01*
X115137886Y-96839006D01*
X115153032Y-96876338D01*
X115154928Y-96881313D01*
X115156113Y-96884631D01*
X115157209Y-96888440D01*
X115169862Y-96917891D01*
X115170850Y-96920256D01*
X115256436Y-97131206D01*
X116567296Y-100362197D01*
X116572899Y-100379504D01*
X116578867Y-100403807D01*
X116582614Y-100410795D01*
X116582614Y-100410796D01*
X116597999Y-100439493D01*
X116600502Y-100444418D01*
X116601473Y-100446436D01*
X116602958Y-100450097D01*
X116604892Y-100453546D01*
X116604894Y-100453550D01*
X116618919Y-100478560D01*
X116620046Y-100480614D01*
X118270050Y-103558148D01*
X118370323Y-103745174D01*
X118377830Y-103762039D01*
X118386039Y-103784845D01*
X118390495Y-103791403D01*
X118408651Y-103818123D01*
X118411408Y-103822695D01*
X118411554Y-103822605D01*
X118413647Y-103825980D01*
X118415515Y-103829465D01*
X118417806Y-103832690D01*
X118417808Y-103832692D01*
X118433988Y-103855460D01*
X118435497Y-103857632D01*
X120096340Y-106301891D01*
X120520023Y-106925425D01*
X120529159Y-106941223D01*
X120540024Y-106963608D01*
X120545150Y-106969655D01*
X120545151Y-106969656D01*
X120566167Y-106994446D01*
X120569623Y-106998707D01*
X120571192Y-107000730D01*
X120573417Y-107004005D01*
X120576028Y-107006967D01*
X120576035Y-107006976D01*
X120594933Y-107028413D01*
X120596495Y-107030220D01*
X122057030Y-108753056D01*
X123005697Y-109872096D01*
X123016571Y-109887015D01*
X123025188Y-109900865D01*
X123025190Y-109900868D01*
X123029378Y-109907599D01*
X123035107Y-109913076D01*
X123058462Y-109935404D01*
X123062123Y-109939291D01*
X123062241Y-109939178D01*
X123064983Y-109942028D01*
X123067548Y-109945055D01*
X123070470Y-109947733D01*
X123070481Y-109947745D01*
X123091050Y-109966600D01*
X123092979Y-109968405D01*
X123111227Y-109985851D01*
X125775624Y-112533130D01*
X125777155Y-112534594D01*
X125789457Y-112548203D01*
X125799704Y-112561348D01*
X125799708Y-112561352D01*
X125804581Y-112567603D01*
X125810856Y-112572446D01*
X125810858Y-112572448D01*
X125836487Y-112592228D01*
X125840686Y-112595615D01*
X125843172Y-112597710D01*
X125846033Y-112600445D01*
X125871990Y-112619661D01*
X125873946Y-112621140D01*
X128804325Y-114882842D01*
X128817912Y-114894995D01*
X128835255Y-114912927D01*
X128842009Y-114917075D01*
X128842010Y-114917076D01*
X128869723Y-114934097D01*
X128874351Y-114937080D01*
X128876349Y-114938430D01*
X128879487Y-114940853D01*
X128907606Y-114957391D01*
X128909590Y-114958583D01*
X130692907Y-116053892D01*
X132096353Y-116915885D01*
X132111201Y-116926563D01*
X132130198Y-116942437D01*
X132166689Y-116959829D01*
X132171536Y-116962269D01*
X132174029Y-116963593D01*
X132177411Y-116965670D01*
X132181016Y-116967302D01*
X132181029Y-116967309D01*
X132206930Y-116979035D01*
X132209173Y-116980077D01*
X133939579Y-117804802D01*
X135572605Y-118583116D01*
X135588482Y-118592150D01*
X135602523Y-118601550D01*
X135602527Y-118601552D01*
X135609112Y-118605960D01*
X135616588Y-118608592D01*
X135616591Y-118608594D01*
X135647221Y-118619379D01*
X135652330Y-118621303D01*
X135654847Y-118622314D01*
X135658421Y-118624017D01*
X135662178Y-118625258D01*
X135662180Y-118625259D01*
X135689210Y-118634189D01*
X135691532Y-118634981D01*
X139182160Y-119864076D01*
X139199020Y-119871436D01*
X139220636Y-119882819D01*
X139228344Y-119884651D01*
X139228346Y-119884652D01*
X139259763Y-119892120D01*
X139264927Y-119893463D01*
X139268451Y-119894460D01*
X139272192Y-119895777D01*
X139276065Y-119896614D01*
X139276075Y-119896617D01*
X139303590Y-119902565D01*
X139306107Y-119903136D01*
X141513465Y-120427836D01*
X142904008Y-120758375D01*
X142921671Y-120763974D01*
X142936620Y-120769955D01*
X142936627Y-120769957D01*
X142943986Y-120772901D01*
X142951846Y-120773923D01*
X142951848Y-120773923D01*
X142984097Y-120778114D01*
X142989488Y-120779103D01*
X142989513Y-120778955D01*
X142993418Y-120779628D01*
X142997272Y-120780544D01*
X143001206Y-120780969D01*
X143001210Y-120780970D01*
X143028762Y-120783949D01*
X143031456Y-120784270D01*
X144371533Y-120958444D01*
X146157565Y-121190581D01*
X146222538Y-121219195D01*
X146261727Y-121278396D01*
X146265470Y-121316829D01*
X146267186Y-121316829D01*
X146267186Y-121323435D01*
X146266496Y-121330000D01*
X146267186Y-121336565D01*
X146278710Y-121446206D01*
X146286458Y-121519928D01*
X146345473Y-121701556D01*
X146440960Y-121866944D01*
X146568747Y-122008866D01*
X146667843Y-122080864D01*
X146696939Y-122102003D01*
X146723248Y-122121118D01*
X146729276Y-122123802D01*
X146729278Y-122123803D01*
X146788046Y-122149968D01*
X146842142Y-122195948D01*
X146862791Y-122263876D01*
X146846353Y-122327312D01*
X146839167Y-122339962D01*
X146688865Y-122604541D01*
X146550834Y-122926591D01*
X146549817Y-122929960D01*
X146458214Y-123233365D01*
X146449562Y-123262021D01*
X146441732Y-123304684D01*
X146389928Y-123586944D01*
X146386311Y-123606650D01*
X146361869Y-123956181D01*
X146376542Y-124306258D01*
X146397131Y-124439254D01*
X146417328Y-124569721D01*
X146430145Y-124652518D01*
X146522012Y-124990645D01*
X146523302Y-124993904D01*
X146523304Y-124993909D01*
X146572316Y-125117698D01*
X146650998Y-125316424D01*
X146815493Y-125625795D01*
X146817483Y-125628701D01*
X146817484Y-125628703D01*
X146891490Y-125736785D01*
X147013449Y-125914902D01*
X147242397Y-126180142D01*
X147499485Y-126418207D01*
X147781507Y-126626132D01*
X147784544Y-126627886D01*
X147784548Y-126627888D01*
X147945060Y-126720559D01*
X148084949Y-126801324D01*
X148088170Y-126802731D01*
X148402807Y-126940193D01*
X148402817Y-126940197D01*
X148406029Y-126941600D01*
X148409387Y-126942639D01*
X148409391Y-126942641D01*
X148545685Y-126984831D01*
X148740743Y-127045212D01*
X148744199Y-127045871D01*
X148744198Y-127045871D01*
X149081471Y-127110210D01*
X149081477Y-127110211D01*
X149084922Y-127110868D01*
X149316253Y-127128668D01*
X149430777Y-127137480D01*
X149430778Y-127137480D01*
X149434274Y-127137749D01*
X149666291Y-127129646D01*
X149780929Y-127125643D01*
X149780933Y-127125643D01*
X149784445Y-127125520D01*
X149787924Y-127125006D01*
X149787927Y-127125006D01*
X150127578Y-127074851D01*
X150127584Y-127074850D01*
X150131070Y-127074335D01*
X150134474Y-127073436D01*
X150134477Y-127073435D01*
X150466439Y-126985727D01*
X150466440Y-126985727D01*
X150469830Y-126984831D01*
X150796502Y-126858123D01*
X151107014Y-126695792D01*
X151397496Y-126499859D01*
X151664327Y-126272768D01*
X151749069Y-126182527D01*
X151901771Y-126019916D01*
X151901775Y-126019911D01*
X151904182Y-126017348D01*
X152114071Y-125736785D01*
X152291377Y-125434573D01*
X152292809Y-125431357D01*
X152432459Y-125117698D01*
X152432461Y-125117693D01*
X152433891Y-125114481D01*
X152539837Y-124780498D01*
X152607894Y-124436786D01*
X152627886Y-124198709D01*
X152637030Y-124089814D01*
X152637031Y-124089803D01*
X152637213Y-124087630D01*
X152637265Y-124083970D01*
X152638407Y-124002178D01*
X152638407Y-124002166D01*
X152638437Y-124000000D01*
X152638074Y-123993491D01*
X152619074Y-123653671D01*
X152618878Y-123650162D01*
X152607218Y-123581226D01*
X152561032Y-123308153D01*
X152561031Y-123308148D01*
X152560445Y-123304684D01*
X152463866Y-122967873D01*
X152347163Y-122684729D01*
X152331683Y-122647171D01*
X152331679Y-122647163D01*
X152330345Y-122643926D01*
X152161546Y-122336882D01*
X152128291Y-122289740D01*
X152105368Y-122222546D01*
X152122413Y-122153626D01*
X152180002Y-122102003D01*
X152310722Y-122043803D01*
X152310724Y-122043802D01*
X152316752Y-122041118D01*
X152355799Y-122012749D01*
X152372157Y-122000864D01*
X152471253Y-121928866D01*
X152599040Y-121786944D01*
X152694527Y-121621556D01*
X152753542Y-121439928D01*
X152770520Y-121278396D01*
X152772814Y-121256565D01*
X152773504Y-121250000D01*
X152753542Y-121060072D01*
X152718508Y-120952249D01*
X152716480Y-120881282D01*
X152753143Y-120820484D01*
X152816855Y-120789158D01*
X152824059Y-120788125D01*
X153858630Y-120670124D01*
X155431627Y-120490711D01*
X155449981Y-120489965D01*
X155466564Y-120490502D01*
X155466567Y-120490502D01*
X155474486Y-120490758D01*
X155482219Y-120489037D01*
X155482222Y-120489037D01*
X155513795Y-120482011D01*
X155519042Y-120480960D01*
X155522463Y-120480350D01*
X155526389Y-120479902D01*
X155530229Y-120478965D01*
X155530231Y-120478965D01*
X155535369Y-120477712D01*
X155557628Y-120472282D01*
X155560041Y-120471719D01*
X159138387Y-119675440D01*
X159156569Y-119672767D01*
X159165281Y-119672131D01*
X159173077Y-119671561D01*
X159173078Y-119671561D01*
X159180984Y-119670983D01*
X159188502Y-119668456D01*
X159219136Y-119658159D01*
X159224242Y-119656562D01*
X159227647Y-119655576D01*
X159231510Y-119654717D01*
X159261802Y-119643844D01*
X159264150Y-119643028D01*
X160658621Y-119174298D01*
X162774613Y-118463041D01*
X162792270Y-118458497D01*
X162816804Y-118454047D01*
X162853580Y-118437147D01*
X162858629Y-118434959D01*
X162860857Y-118434051D01*
X162864623Y-118432785D01*
X162893976Y-118418608D01*
X162896108Y-118417604D01*
X166300555Y-116853133D01*
X166317246Y-116846852D01*
X166334707Y-116841659D01*
X166334716Y-116841655D01*
X166342308Y-116839397D01*
X166377316Y-116818392D01*
X166382218Y-116815605D01*
X166385738Y-116813988D01*
X166414397Y-116796163D01*
X166416117Y-116795112D01*
X169478004Y-114957979D01*
X169612746Y-114877134D01*
X169629353Y-114868770D01*
X169644052Y-114862682D01*
X169644057Y-114862679D01*
X169651375Y-114859648D01*
X169683876Y-114835244D01*
X169688530Y-114832116D01*
X169688451Y-114832002D01*
X169691721Y-114829749D01*
X169695110Y-114827716D01*
X169719954Y-114808191D01*
X169722034Y-114806594D01*
X172641703Y-112614384D01*
X172656892Y-112604599D01*
X172672255Y-112596196D01*
X172679208Y-112592393D01*
X172684994Y-112586982D01*
X172685002Y-112586977D01*
X172708892Y-112564638D01*
X172713124Y-112560855D01*
X172714066Y-112560050D01*
X172717245Y-112557664D01*
X172740988Y-112534654D01*
X172742556Y-112533162D01*
X175466901Y-109985851D01*
X175481274Y-109974264D01*
X175501188Y-109960490D01*
X175527576Y-109930058D01*
X175531291Y-109926211D01*
X175531170Y-109926097D01*
X175533881Y-109923223D01*
X175536778Y-109920514D01*
X175539311Y-109917465D01*
X175539318Y-109917458D01*
X175557147Y-109896001D01*
X175558863Y-109893978D01*
X177997732Y-107081412D01*
X178010559Y-107068610D01*
X178029663Y-107052109D01*
X178052804Y-107018790D01*
X178056093Y-107014273D01*
X178057135Y-107012906D01*
X178059730Y-107009914D01*
X178078042Y-106982488D01*
X178079309Y-106980628D01*
X178085061Y-106972347D01*
X179952650Y-104283365D01*
X180204290Y-103921050D01*
X180215581Y-103907044D01*
X180233066Y-103888276D01*
X180236857Y-103881316D01*
X180252526Y-103852546D01*
X180255382Y-103847575D01*
X180255798Y-103846888D01*
X180258052Y-103843642D01*
X180273462Y-103814142D01*
X180274489Y-103812217D01*
X182014336Y-100617584D01*
X182024464Y-100601884D01*
X182033884Y-100589418D01*
X182038663Y-100583094D01*
X182054440Y-100545338D01*
X182056950Y-100540107D01*
X182056841Y-100540056D01*
X182058510Y-100536472D01*
X182060406Y-100532991D01*
X182071801Y-100503874D01*
X182072872Y-100501228D01*
X182085347Y-100471374D01*
X183498188Y-97090300D01*
X183506451Y-97073973D01*
X183519179Y-97052801D01*
X183530709Y-97014153D01*
X183532371Y-97008992D01*
X183533362Y-97006127D01*
X183534887Y-97002477D01*
X183543532Y-96971257D01*
X183544222Y-96968858D01*
X183554324Y-96935000D01*
X184606332Y-93408827D01*
X184612783Y-93391806D01*
X184619979Y-93376302D01*
X184619982Y-93376293D01*
X184623318Y-93369105D01*
X184630694Y-93329300D01*
X184631818Y-93323897D01*
X184632323Y-93321710D01*
X184633454Y-93317919D01*
X184638798Y-93285680D01*
X184639210Y-93283334D01*
X184689963Y-93009415D01*
X185307869Y-89674540D01*
X185312473Y-89656918D01*
X185317969Y-89640762D01*
X185317970Y-89640756D01*
X185320522Y-89633255D01*
X185323618Y-89592905D01*
X185324159Y-89587424D01*
X185324437Y-89585122D01*
X185325159Y-89581225D01*
X185327034Y-89548675D01*
X185327193Y-89546299D01*
X185551383Y-86624101D01*
X185576538Y-86557711D01*
X185633592Y-86515458D01*
X185704433Y-86510760D01*
X185766569Y-86545106D01*
X185788264Y-86574585D01*
X185815493Y-86625795D01*
X185817483Y-86628701D01*
X185817484Y-86628703D01*
X186006722Y-86905077D01*
X186013449Y-86914902D01*
X186242397Y-87180142D01*
X186499485Y-87418207D01*
X186781507Y-87626132D01*
X186784544Y-87627886D01*
X186784548Y-87627888D01*
X186906901Y-87698528D01*
X187084949Y-87801324D01*
X187145351Y-87827713D01*
X187402807Y-87940193D01*
X187402817Y-87940197D01*
X187406029Y-87941600D01*
X187409387Y-87942639D01*
X187409391Y-87942641D01*
X187545685Y-87984831D01*
X187740743Y-88045212D01*
X187744199Y-88045871D01*
X187744198Y-88045871D01*
X188081471Y-88110210D01*
X188081477Y-88110211D01*
X188084922Y-88110868D01*
X188316253Y-88128668D01*
X188430777Y-88137480D01*
X188430778Y-88137480D01*
X188434274Y-88137749D01*
X188666291Y-88129646D01*
X188780929Y-88125643D01*
X188780933Y-88125643D01*
X188784445Y-88125520D01*
X188787924Y-88125006D01*
X188787927Y-88125006D01*
X189127578Y-88074851D01*
X189127584Y-88074850D01*
X189131070Y-88074335D01*
X189134474Y-88073436D01*
X189134477Y-88073435D01*
X189466439Y-87985727D01*
X189466440Y-87985727D01*
X189469830Y-87984831D01*
X189796502Y-87858123D01*
X190107014Y-87695792D01*
X190292141Y-87570922D01*
X190394580Y-87501826D01*
X190394582Y-87501825D01*
X190397496Y-87499859D01*
X190414695Y-87485222D01*
X190661654Y-87275043D01*
X190661655Y-87275042D01*
X190664327Y-87272768D01*
X190749069Y-87182527D01*
X190901771Y-87019916D01*
X190901775Y-87019911D01*
X190904182Y-87017348D01*
X191114071Y-86736785D01*
X191291377Y-86434573D01*
X191300918Y-86413143D01*
X191432459Y-86117698D01*
X191432461Y-86117693D01*
X191433891Y-86114481D01*
X191539837Y-85780498D01*
X191607894Y-85436786D01*
X191634021Y-85125647D01*
X191637030Y-85089814D01*
X191637031Y-85089803D01*
X191637213Y-85087630D01*
X191637751Y-85049151D01*
X191638407Y-85002178D01*
X191638407Y-85002166D01*
X191638437Y-85000000D01*
X191636185Y-84959708D01*
X191624800Y-84756079D01*
X191618878Y-84650162D01*
X191613744Y-84619805D01*
X191561032Y-84308153D01*
X191561031Y-84308148D01*
X191560445Y-84304684D01*
X191463866Y-83967873D01*
X191385743Y-83778332D01*
X191331683Y-83647171D01*
X191331679Y-83647163D01*
X191330345Y-83643926D01*
X191161546Y-83336882D01*
X190971397Y-83067329D01*
X190961609Y-83053453D01*
X190961603Y-83053445D01*
X190959573Y-83050567D01*
X190914832Y-83000174D01*
X190729274Y-82791175D01*
X190729270Y-82791171D01*
X190726943Y-82788550D01*
X190724342Y-82786208D01*
X190724337Y-82786203D01*
X190469167Y-82556447D01*
X190469166Y-82556447D01*
X190466557Y-82554097D01*
X190463451Y-82551873D01*
X190184513Y-82352173D01*
X190184510Y-82352171D01*
X190181659Y-82350130D01*
X189875800Y-82179192D01*
X189552794Y-82043412D01*
X189549425Y-82042421D01*
X189549421Y-82042419D01*
X189342530Y-81981528D01*
X189216665Y-81944484D01*
X188923149Y-81892729D01*
X188875063Y-81884250D01*
X188875061Y-81884250D01*
X188871603Y-81883640D01*
X188868094Y-81883419D01*
X188868092Y-81883419D01*
X188525428Y-81861860D01*
X188525422Y-81861860D01*
X188521910Y-81861639D01*
X188424516Y-81866403D01*
X188175451Y-81878584D01*
X188175443Y-81878585D01*
X188171944Y-81878756D01*
X188168476Y-81879318D01*
X188168473Y-81879318D01*
X187829542Y-81934213D01*
X187829539Y-81934214D01*
X187826067Y-81934776D01*
X187822684Y-81935721D01*
X187822682Y-81935721D01*
X187787747Y-81945475D01*
X187488589Y-82029001D01*
X187485341Y-82030313D01*
X187485333Y-82030316D01*
X187166983Y-82158938D01*
X187166979Y-82158940D01*
X187163719Y-82160257D01*
X187160632Y-82161926D01*
X187160628Y-82161928D01*
X187131220Y-82177829D01*
X186855503Y-82326909D01*
X186567785Y-82526878D01*
X186565143Y-82529191D01*
X186565139Y-82529194D01*
X186341529Y-82724951D01*
X186304151Y-82757673D01*
X186067886Y-83016416D01*
X185861935Y-83299883D01*
X185860193Y-83302949D01*
X185860192Y-83302951D01*
X185785890Y-83433746D01*
X185734851Y-83483097D01*
X185665233Y-83497019D01*
X185599139Y-83471093D01*
X185557554Y-83413550D01*
X185550387Y-83375174D01*
X185509831Y-81981525D01*
X185510617Y-81963347D01*
X185512589Y-81946345D01*
X185513502Y-81938473D01*
X185508018Y-81898366D01*
X185507388Y-81892859D01*
X185507188Y-81890687D01*
X185507073Y-81886733D01*
X185502029Y-81854402D01*
X185501685Y-81852049D01*
X185000157Y-78184007D01*
X184999001Y-78165734D01*
X184999161Y-78148969D01*
X184999237Y-78141040D01*
X184989574Y-78101851D01*
X184988395Y-78096585D01*
X184987799Y-78093626D01*
X184987261Y-78089692D01*
X184978896Y-78058441D01*
X184978275Y-78056026D01*
X184529144Y-76234551D01*
X184093301Y-74466967D01*
X184090227Y-74448964D01*
X184087837Y-74424284D01*
X184074067Y-74386309D01*
X184072318Y-74381140D01*
X184071486Y-74378493D01*
X184070536Y-74374640D01*
X184058881Y-74344360D01*
X184058019Y-74342053D01*
X182799368Y-70870926D01*
X182794404Y-70853354D01*
X182790995Y-70836775D01*
X182790992Y-70836766D01*
X182789397Y-70829010D01*
X182771659Y-70792674D01*
X182769380Y-70787737D01*
X182768321Y-70785304D01*
X182766970Y-70781579D01*
X182752139Y-70752637D01*
X182751077Y-70750512D01*
X181128657Y-67427008D01*
X181121820Y-67409947D01*
X181114398Y-67386625D01*
X181093036Y-67352510D01*
X181090302Y-67347929D01*
X181088543Y-67344835D01*
X181086805Y-67341276D01*
X181069178Y-67314360D01*
X181067835Y-67312264D01*
X181065934Y-67309227D01*
X179091157Y-64155479D01*
X179082626Y-64139370D01*
X179075769Y-64123792D01*
X179072577Y-64116539D01*
X179067680Y-64110307D01*
X179067678Y-64110303D01*
X179047578Y-64084721D01*
X179044272Y-64080320D01*
X179042878Y-64078377D01*
X179040773Y-64075015D01*
X179020171Y-64049802D01*
X179018668Y-64047927D01*
X178863200Y-63850058D01*
X177589860Y-62229444D01*
X176747186Y-61156950D01*
X176736986Y-61141831D01*
X176728531Y-61127101D01*
X176728527Y-61127096D01*
X176724582Y-61120223D01*
X176719046Y-61114541D01*
X176696361Y-61091258D01*
X176692614Y-61087242D01*
X176690953Y-61085381D01*
X176688509Y-61082271D01*
X176665306Y-61059356D01*
X176663656Y-61057694D01*
X174047397Y-58372586D01*
X174035594Y-58358561D01*
X174025793Y-58345028D01*
X174025791Y-58345026D01*
X174021143Y-58338608D01*
X174015047Y-58333549D01*
X174015043Y-58333545D01*
X173990097Y-58312844D01*
X173986011Y-58309303D01*
X173983681Y-58307195D01*
X173980917Y-58304357D01*
X173977821Y-58301890D01*
X173977815Y-58301885D01*
X173955680Y-58284250D01*
X173953730Y-58282664D01*
X171122059Y-55932771D01*
X171108879Y-55920111D01*
X171103801Y-55914470D01*
X171092285Y-55901678D01*
X171058613Y-55879301D01*
X171054156Y-55876198D01*
X171051943Y-55874585D01*
X171048886Y-55872048D01*
X171045542Y-55869918D01*
X171045537Y-55869915D01*
X171021526Y-55854626D01*
X171019498Y-55853307D01*
X167911586Y-53787922D01*
X167897160Y-53776747D01*
X167878667Y-53760144D01*
X167842797Y-53741457D01*
X167838024Y-53738837D01*
X167835739Y-53737517D01*
X167832437Y-53735323D01*
X167828894Y-53733564D01*
X167828884Y-53733558D01*
X167803327Y-53720868D01*
X167801149Y-53719760D01*
X164516680Y-52008689D01*
X164501125Y-51999091D01*
X164487457Y-51989220D01*
X164481031Y-51984579D01*
X164473653Y-51981682D01*
X164473651Y-51981681D01*
X164443448Y-51969822D01*
X164438410Y-51967717D01*
X164435860Y-51966586D01*
X164432344Y-51964754D01*
X164401931Y-51953493D01*
X164399631Y-51952616D01*
X160917568Y-50585365D01*
X160901202Y-50577535D01*
X160886198Y-50568979D01*
X160886196Y-50568978D01*
X160879308Y-50565050D01*
X160840195Y-50554353D01*
X160834839Y-50552760D01*
X160833128Y-50552209D01*
X160829439Y-50550761D01*
X160825605Y-50549788D01*
X160825589Y-50549783D01*
X160797584Y-50542677D01*
X160795337Y-50542085D01*
X157235550Y-49568553D01*
X157218263Y-49562442D01*
X157202971Y-49555748D01*
X157202965Y-49555746D01*
X157195704Y-49552568D01*
X157162319Y-49547137D01*
X157155923Y-49546097D01*
X157150616Y-49545117D01*
X157147490Y-49544470D01*
X157143669Y-49543425D01*
X157111702Y-49538878D01*
X157109221Y-49538500D01*
X156838189Y-49494412D01*
X156286916Y-49404738D01*
X153421653Y-48938655D01*
X153403738Y-48934377D01*
X153388071Y-48929401D01*
X153388072Y-48929401D01*
X153380513Y-48927000D01*
X153372602Y-48926555D01*
X153372599Y-48926554D01*
X153349906Y-48925277D01*
X153340379Y-48924740D01*
X153335093Y-48924331D01*
X153331285Y-48923955D01*
X153327374Y-48923319D01*
X153314829Y-48922872D01*
X153295405Y-48922181D01*
X153292805Y-48922062D01*
X151339356Y-48812082D01*
X151272468Y-48788282D01*
X151229064Y-48732098D01*
X151222927Y-48661367D01*
X151256003Y-48598546D01*
X151275981Y-48581822D01*
X151394580Y-48501826D01*
X151394582Y-48501825D01*
X151397496Y-48499859D01*
X151664327Y-48272768D01*
X151749069Y-48182527D01*
X151901771Y-48019916D01*
X151901775Y-48019911D01*
X151904182Y-48017348D01*
X152114071Y-47736785D01*
X152291377Y-47434573D01*
X152292809Y-47431357D01*
X152432459Y-47117698D01*
X152432461Y-47117693D01*
X152433891Y-47114481D01*
X152539837Y-46780498D01*
X152607894Y-46436786D01*
X152621274Y-46277442D01*
X152637030Y-46089814D01*
X152637031Y-46089803D01*
X152637213Y-46087630D01*
X152637290Y-46082158D01*
X152638407Y-46002178D01*
X152638407Y-46002166D01*
X152638437Y-46000000D01*
X152638285Y-45997272D01*
X152621154Y-45690880D01*
X152618878Y-45650162D01*
X152613943Y-45620985D01*
X152561032Y-45308153D01*
X152561031Y-45308148D01*
X152560445Y-45304684D01*
X152463866Y-44967873D01*
X152416818Y-44853726D01*
X152331683Y-44647171D01*
X152331679Y-44647163D01*
X152330345Y-44643926D01*
X152161546Y-44336882D01*
X151959573Y-44050567D01*
X151726943Y-43788550D01*
X151724342Y-43786208D01*
X151724337Y-43786203D01*
X151469167Y-43556447D01*
X151469166Y-43556447D01*
X151466557Y-43554097D01*
X151428538Y-43526878D01*
X151184513Y-43352173D01*
X151184510Y-43352171D01*
X151181659Y-43350130D01*
X150875800Y-43179192D01*
X150552794Y-43043412D01*
X150549425Y-43042421D01*
X150549421Y-43042419D01*
X150401053Y-42998752D01*
X150216665Y-42944484D01*
X149940895Y-42895858D01*
X149875063Y-42884250D01*
X149875061Y-42884250D01*
X149871603Y-42883640D01*
X149868094Y-42883419D01*
X149868092Y-42883419D01*
X149525428Y-42861860D01*
X149525422Y-42861860D01*
X149521910Y-42861639D01*
X149424516Y-42866403D01*
X149175451Y-42878584D01*
X149175443Y-42878585D01*
X149171944Y-42878756D01*
X149168476Y-42879318D01*
X149168473Y-42879318D01*
X148829542Y-42934213D01*
X148829539Y-42934214D01*
X148826067Y-42934776D01*
X148822684Y-42935721D01*
X148822682Y-42935721D01*
X148787747Y-42945475D01*
X148488589Y-43029001D01*
X148485341Y-43030313D01*
X148485333Y-43030316D01*
X148166983Y-43158938D01*
X148166979Y-43158940D01*
X148163719Y-43160257D01*
X148160632Y-43161926D01*
X148160628Y-43161928D01*
X148131220Y-43177829D01*
X147855503Y-43326909D01*
X147567785Y-43526878D01*
X147565143Y-43529191D01*
X147565139Y-43529194D01*
X147326206Y-43738365D01*
X147304151Y-43757673D01*
X147067886Y-44016416D01*
X146861935Y-44299883D01*
X146688865Y-44604541D01*
X146550834Y-44926591D01*
X146531112Y-44991914D01*
X146450789Y-45257958D01*
X146449562Y-45262021D01*
X146433452Y-45349800D01*
X146391505Y-45578352D01*
X146386311Y-45606650D01*
X146361869Y-45956181D01*
X146376542Y-46306258D01*
X146430145Y-46652518D01*
X146522012Y-46990645D01*
X146523302Y-46993904D01*
X146523304Y-46993909D01*
X146572316Y-47117698D01*
X146650998Y-47316424D01*
X146815493Y-47625795D01*
X146817483Y-47628701D01*
X146817484Y-47628703D01*
X146891490Y-47736785D01*
X147013449Y-47914902D01*
X147242397Y-48180142D01*
X147499485Y-48418207D01*
X147716608Y-48578284D01*
X147759567Y-48634807D01*
X147765149Y-48705584D01*
X147731579Y-48768143D01*
X147669517Y-48802622D01*
X147648161Y-48805541D01*
X145778538Y-48899517D01*
X145760210Y-48899103D01*
X145743582Y-48897512D01*
X145743581Y-48897512D01*
X145735693Y-48896757D01*
X145695833Y-48903022D01*
X145690513Y-48903741D01*
X145687339Y-48904101D01*
X145683392Y-48904300D01*
X145651633Y-48909945D01*
X145649168Y-48910357D01*
X142021163Y-49480612D01*
X142002961Y-49482133D01*
X142000000Y-49482165D01*
X141986058Y-49482315D01*
X141986054Y-49482315D01*
X141978138Y-49482401D01*
X141970486Y-49484454D01*
X141939122Y-49492869D01*
X141933807Y-49494172D01*
X141931174Y-49494757D01*
X141927261Y-49495372D01*
X141923458Y-49496472D01*
X141923445Y-49496475D01*
X141896028Y-49504406D01*
X141893686Y-49505059D01*
X138264018Y-50478871D01*
X138246130Y-50482306D01*
X138235502Y-50483560D01*
X138229215Y-50484301D01*
X138229214Y-50484301D01*
X138221338Y-50485230D01*
X138183593Y-50499814D01*
X138178434Y-50501678D01*
X138176170Y-50502441D01*
X138172347Y-50503466D01*
X138168693Y-50504959D01*
X138168680Y-50504963D01*
X138142132Y-50515808D01*
X138139895Y-50516697D01*
X134678791Y-51853940D01*
X134661109Y-51859318D01*
X134645276Y-51862890D01*
X134645274Y-51862891D01*
X134637537Y-51864636D01*
X134630477Y-51868251D01*
X134630476Y-51868251D01*
X134601663Y-51883003D01*
X134596739Y-51885200D01*
X134596807Y-51885349D01*
X134593197Y-51887011D01*
X134589509Y-51888436D01*
X134561435Y-51903568D01*
X134559149Y-51904769D01*
X131274525Y-53586418D01*
X131258039Y-53593427D01*
X131233576Y-53601827D01*
X131226961Y-53606180D01*
X131226954Y-53606184D01*
X131199538Y-53624228D01*
X131194616Y-53627308D01*
X131194355Y-53627463D01*
X131190824Y-53629271D01*
X131163148Y-53648158D01*
X131161425Y-53649313D01*
X130950812Y-53787927D01*
X128084133Y-55674623D01*
X128067722Y-55683749D01*
X128046589Y-55693516D01*
X128040447Y-55698526D01*
X128014660Y-55719560D01*
X128009839Y-55723099D01*
X128009901Y-55723181D01*
X128006741Y-55725558D01*
X128003432Y-55727736D01*
X128000421Y-55730312D01*
X128000416Y-55730316D01*
X127979925Y-55747848D01*
X127977659Y-55749742D01*
X127784166Y-55907574D01*
X125097193Y-58099338D01*
X125082295Y-58109794D01*
X125060815Y-58122660D01*
X125055242Y-58128296D01*
X125032339Y-58151457D01*
X125028359Y-58155309D01*
X125026762Y-58156788D01*
X125023690Y-58159294D01*
X125020957Y-58162165D01*
X125020952Y-58162169D01*
X125001147Y-58182968D01*
X124999491Y-58184675D01*
X122383232Y-60830441D01*
X122369529Y-60842428D01*
X122355886Y-60852722D01*
X122355884Y-60852724D01*
X122349558Y-60857497D01*
X122344617Y-60863694D01*
X122344613Y-60863698D01*
X122324310Y-60889162D01*
X122320773Y-60893404D01*
X122319295Y-60895099D01*
X122316519Y-60897907D01*
X122314117Y-60901040D01*
X122314116Y-60901041D01*
X122296647Y-60923825D01*
X122295175Y-60925707D01*
X120184247Y-63573312D01*
X119974386Y-63836527D01*
X119961883Y-63850049D01*
X119944087Y-63866672D01*
X119922454Y-63900561D01*
X119919506Y-63904971D01*
X119917293Y-63908135D01*
X119914821Y-63911236D01*
X119898169Y-63938552D01*
X119896840Y-63940683D01*
X118015637Y-66887593D01*
X117900347Y-67068195D01*
X117889581Y-67082662D01*
X117872908Y-67102005D01*
X117869390Y-67109103D01*
X117869388Y-67109107D01*
X117854859Y-67138427D01*
X117852214Y-67143474D01*
X117851706Y-67144392D01*
X117849579Y-67147724D01*
X117847889Y-67151290D01*
X117847885Y-67151298D01*
X117835379Y-67177694D01*
X117834411Y-67179691D01*
X116192195Y-70493624D01*
X116182785Y-70509553D01*
X116169027Y-70529362D01*
X116166267Y-70536792D01*
X116166262Y-70536801D01*
X116154969Y-70567199D01*
X116152825Y-70572170D01*
X116152965Y-70572229D01*
X116151434Y-70575878D01*
X116149676Y-70579425D01*
X116148380Y-70583155D01*
X116148375Y-70583167D01*
X116139254Y-70609421D01*
X116138354Y-70611927D01*
X114848527Y-74083794D01*
X114830212Y-74133092D01*
X114822704Y-74149565D01*
X114810577Y-74171787D01*
X114808630Y-74179470D01*
X114800605Y-74211135D01*
X114799099Y-74216564D01*
X114798657Y-74218028D01*
X114797277Y-74221743D01*
X114796375Y-74225594D01*
X114796374Y-74225598D01*
X114789764Y-74253825D01*
X114789221Y-74256050D01*
X113884644Y-77825195D01*
X113878799Y-77842736D01*
X113872554Y-77857711D01*
X113872553Y-77857716D01*
X113869503Y-77865029D01*
X113868368Y-77872868D01*
X113868367Y-77872872D01*
X113863724Y-77904946D01*
X113862677Y-77910241D01*
X113862827Y-77910269D01*
X113862097Y-77914161D01*
X113861124Y-77917999D01*
X113860641Y-77921924D01*
X113860640Y-77921927D01*
X113857237Y-77949559D01*
X113856882Y-77952209D01*
X113326017Y-81619106D01*
X113322050Y-81637102D01*
X113317353Y-81652835D01*
X113315085Y-81660431D01*
X113314777Y-81668346D01*
X113314777Y-81668349D01*
X113313524Y-81700601D01*
X113313207Y-81705890D01*
X113312893Y-81709762D01*
X113312326Y-81713678D01*
X113312254Y-81717638D01*
X113312254Y-81717642D01*
X113311748Y-81745600D01*
X113311674Y-81748211D01*
X113262281Y-83019264D01*
X113259767Y-83083945D01*
X113237135Y-83151237D01*
X113181714Y-83195612D01*
X113111101Y-83202979D01*
X113047714Y-83171001D01*
X113030902Y-83151683D01*
X113030588Y-83151237D01*
X112959573Y-83050567D01*
X112914832Y-83000174D01*
X112729274Y-82791175D01*
X112729270Y-82791171D01*
X112726943Y-82788550D01*
X112724342Y-82786208D01*
X112724337Y-82786203D01*
X112469167Y-82556447D01*
X112469166Y-82556447D01*
X112466557Y-82554097D01*
X112463451Y-82551873D01*
X112184513Y-82352173D01*
X112184510Y-82352171D01*
X112181659Y-82350130D01*
X111875800Y-82179192D01*
X111552794Y-82043412D01*
X111549425Y-82042421D01*
X111549421Y-82042419D01*
X111342530Y-81981528D01*
X111216665Y-81944484D01*
X110923149Y-81892729D01*
X110875063Y-81884250D01*
X110875061Y-81884250D01*
X110871603Y-81883640D01*
X110868094Y-81883419D01*
X110868092Y-81883419D01*
X110525428Y-81861860D01*
X110525422Y-81861860D01*
X110521910Y-81861639D01*
X110424516Y-81866403D01*
X110175451Y-81878584D01*
X110175443Y-81878585D01*
X110171944Y-81878756D01*
X110168476Y-81879318D01*
X110168473Y-81879318D01*
X109829542Y-81934213D01*
X109829539Y-81934214D01*
X109826067Y-81934776D01*
X109822684Y-81935721D01*
X109822682Y-81935721D01*
X109787747Y-81945475D01*
X109488589Y-82029001D01*
X109485341Y-82030313D01*
X109485333Y-82030316D01*
X109166983Y-82158938D01*
X109166979Y-82158940D01*
X109163719Y-82160257D01*
X109160632Y-82161926D01*
X109160628Y-82161928D01*
X109131220Y-82177829D01*
X108855503Y-82326909D01*
X108567785Y-82526878D01*
X108565143Y-82529191D01*
X108565139Y-82529194D01*
X108341529Y-82724951D01*
X108304151Y-82757673D01*
X108067886Y-83016416D01*
X107861935Y-83299883D01*
X107688865Y-83604541D01*
X107550834Y-83926591D01*
X107449562Y-84262021D01*
X107429657Y-84370475D01*
X107399199Y-84536430D01*
X107386311Y-84606650D01*
X107361869Y-84956181D01*
X100008500Y-84956181D01*
X100008500Y-46134500D01*
X100028502Y-46066379D01*
X100082158Y-46019886D01*
X100134500Y-46008500D01*
X109991377Y-46008500D01*
X109992148Y-46008502D01*
X110069721Y-46008976D01*
X110098152Y-46000850D01*
X110114915Y-45997272D01*
X110115753Y-45997152D01*
X110144187Y-45993080D01*
X110167564Y-45982451D01*
X110185087Y-45976004D01*
X110209771Y-45968949D01*
X110217365Y-45964157D01*
X110217368Y-45964156D01*
X110234780Y-45953170D01*
X110249865Y-45945030D01*
X110276782Y-45932792D01*
X110296235Y-45916030D01*
X110311239Y-45904927D01*
X110332958Y-45891224D01*
X110338897Y-45884499D01*
X110338901Y-45884496D01*
X110352532Y-45869062D01*
X110364724Y-45857018D01*
X110380327Y-45843573D01*
X110380329Y-45843570D01*
X110387127Y-45837713D01*
X110401094Y-45816165D01*
X110412385Y-45801291D01*
X110423431Y-45788783D01*
X110423432Y-45788782D01*
X110429378Y-45782049D01*
X110441943Y-45755287D01*
X110450263Y-45740309D01*
X110461471Y-45723017D01*
X110461473Y-45723012D01*
X110466352Y-45715485D01*
X110468922Y-45706892D01*
X110468924Y-45706887D01*
X110473711Y-45690880D01*
X110480372Y-45673436D01*
X110487467Y-45658324D01*
X110487468Y-45658322D01*
X110491281Y-45650200D01*
X110495830Y-45620983D01*
X110499613Y-45604268D01*
X110505515Y-45584534D01*
X110505516Y-45584528D01*
X110508086Y-45575934D01*
X110508296Y-45541494D01*
X110508329Y-45540711D01*
X110508500Y-45539614D01*
X110508500Y-45508623D01*
X110508502Y-45507853D01*
X110508952Y-45434215D01*
X110508952Y-45434214D01*
X110508976Y-45430279D01*
X110508592Y-45428935D01*
X110508500Y-45427590D01*
X110508500Y-35634500D01*
X110528502Y-35566379D01*
X110582158Y-35519886D01*
X110634500Y-35508500D01*
X188365500Y-35508500D01*
X188433621Y-35528502D01*
G37*
%TD.AperFunction*%
%TA.AperFunction,Conductor*%
G36*
X152194677Y-60574912D02*
G01*
X152209088Y-60576582D01*
X155207221Y-61100528D01*
X155223135Y-61104389D01*
X158201777Y-62035821D01*
X158216097Y-62041276D01*
X160959263Y-63282002D01*
X160973592Y-63289630D01*
X163640183Y-64938068D01*
X163653414Y-64947477D01*
X166039757Y-66887593D01*
X166050949Y-66897874D01*
X168174541Y-69099040D01*
X168185172Y-69111609D01*
X169485834Y-70870926D01*
X170026248Y-71601907D01*
X170035092Y-71615653D01*
X171549263Y-74343102D01*
X171555720Y-74356552D01*
X172690249Y-77129844D01*
X172695382Y-77145111D01*
X173480338Y-80091124D01*
X173483481Y-80106912D01*
X173808966Y-82548042D01*
X173872103Y-83021562D01*
X173890711Y-83161125D01*
X173891814Y-83176987D01*
X173911126Y-86257251D01*
X173911209Y-86270506D01*
X173910287Y-86286524D01*
X173701814Y-87998198D01*
X173541800Y-89311993D01*
X173538985Y-89327224D01*
X173302950Y-90274470D01*
X172883286Y-91958647D01*
X172802138Y-92284305D01*
X172797215Y-92299750D01*
X171663883Y-95196045D01*
X171662320Y-95200039D01*
X171655706Y-95214262D01*
X170202530Y-97889646D01*
X170191637Y-97909700D01*
X170183021Y-97923387D01*
X168363683Y-100439493D01*
X168362251Y-100441474D01*
X168351184Y-100454755D01*
X167816781Y-101013231D01*
X166194173Y-102708929D01*
X166184800Y-102717771D01*
X165362911Y-103417251D01*
X163936491Y-104631226D01*
X163905984Y-104657189D01*
X163891425Y-104667879D01*
X163715036Y-104778866D01*
X161305999Y-106294665D01*
X161292835Y-106301891D01*
X160707338Y-106579231D01*
X160637212Y-106590316D01*
X160572225Y-106561728D01*
X160533011Y-106502544D01*
X160533566Y-106426423D01*
X160550357Y-106374747D01*
X160552396Y-106368472D01*
X160572358Y-106178544D01*
X160552396Y-105988616D01*
X160493381Y-105806988D01*
X160397894Y-105641600D01*
X160270107Y-105499678D01*
X160115606Y-105387426D01*
X160109578Y-105384742D01*
X160109576Y-105384741D01*
X159947173Y-105312435D01*
X159947172Y-105312435D01*
X159941142Y-105309750D01*
X159847741Y-105289897D01*
X159760798Y-105271416D01*
X159760793Y-105271416D01*
X159754341Y-105270044D01*
X159563367Y-105270044D01*
X159556915Y-105271416D01*
X159556910Y-105271416D01*
X159469967Y-105289897D01*
X159376566Y-105309750D01*
X159370536Y-105312435D01*
X159370535Y-105312435D01*
X159208132Y-105384741D01*
X159208130Y-105384742D01*
X159202102Y-105387426D01*
X159047601Y-105499678D01*
X158919814Y-105641600D01*
X158824327Y-105806988D01*
X158765312Y-105988616D01*
X158745350Y-106178544D01*
X158765312Y-106368472D01*
X158824327Y-106550100D01*
X158919814Y-106715488D01*
X159047601Y-106857410D01*
X159202102Y-106969662D01*
X159208130Y-106972346D01*
X159208132Y-106972347D01*
X159302572Y-107014394D01*
X159356668Y-107060374D01*
X159377317Y-107128301D01*
X159357965Y-107196609D01*
X159305262Y-107243372D01*
X158529366Y-107610902D01*
X158513845Y-107617031D01*
X156066682Y-108400446D01*
X156057533Y-108402999D01*
X155981266Y-108421206D01*
X154295305Y-108823692D01*
X154281090Y-108826235D01*
X152762764Y-109008818D01*
X152756645Y-109009403D01*
X151956865Y-109066192D01*
X151835896Y-109074782D01*
X151766530Y-109059655D01*
X151716354Y-109009427D01*
X151707139Y-108988035D01*
X151686568Y-108924725D01*
X151686567Y-108924724D01*
X151684527Y-108918444D01*
X151589040Y-108753056D01*
X151461253Y-108611134D01*
X151306752Y-108498882D01*
X151300724Y-108496198D01*
X151300722Y-108496197D01*
X151138319Y-108423891D01*
X151138318Y-108423891D01*
X151132288Y-108421206D01*
X151034616Y-108400445D01*
X150951944Y-108382872D01*
X150951939Y-108382872D01*
X150945487Y-108381500D01*
X150754513Y-108381500D01*
X150748061Y-108382872D01*
X150748056Y-108382872D01*
X150665384Y-108400445D01*
X150567712Y-108421206D01*
X150561682Y-108423891D01*
X150561681Y-108423891D01*
X150399278Y-108496197D01*
X150399276Y-108496198D01*
X150393248Y-108498882D01*
X150238747Y-108611134D01*
X150110960Y-108753056D01*
X150015473Y-108918444D01*
X149956458Y-109100072D01*
X149936496Y-109290000D01*
X149956458Y-109479928D01*
X149958497Y-109486203D01*
X149977102Y-109543462D01*
X149979130Y-109614430D01*
X149942467Y-109675228D01*
X149878755Y-109706554D01*
X149850543Y-109708219D01*
X148096134Y-109614430D01*
X146793659Y-109544801D01*
X146778885Y-109543133D01*
X146322798Y-109464138D01*
X143811873Y-109029239D01*
X143795946Y-109025399D01*
X141726270Y-108381500D01*
X140741010Y-108074974D01*
X140725542Y-108069020D01*
X138839792Y-107196609D01*
X138001686Y-106808873D01*
X137988599Y-106801854D01*
X135365998Y-105189442D01*
X135353529Y-105180695D01*
X133995873Y-104100000D01*
X138416496Y-104100000D01*
X138436458Y-104289928D01*
X138495473Y-104471556D01*
X138590960Y-104636944D01*
X138595378Y-104641851D01*
X138595379Y-104641852D01*
X138614472Y-104663057D01*
X138718747Y-104778866D01*
X138873248Y-104891118D01*
X138879276Y-104893802D01*
X138879278Y-104893803D01*
X139041681Y-104966109D01*
X139047712Y-104968794D01*
X139141112Y-104988647D01*
X139228056Y-105007128D01*
X139228061Y-105007128D01*
X139234513Y-105008500D01*
X139425487Y-105008500D01*
X139431939Y-105007128D01*
X139431944Y-105007128D01*
X139518888Y-104988647D01*
X139612288Y-104968794D01*
X139618319Y-104966109D01*
X139780722Y-104893803D01*
X139780724Y-104893802D01*
X139786752Y-104891118D01*
X139941253Y-104778866D01*
X140045528Y-104663057D01*
X140064621Y-104641852D01*
X140064622Y-104641851D01*
X140069040Y-104636944D01*
X140164527Y-104471556D01*
X140223542Y-104289928D01*
X140243504Y-104100000D01*
X140223542Y-103910072D01*
X140164527Y-103728444D01*
X140069040Y-103563056D01*
X139941253Y-103421134D01*
X139786752Y-103308882D01*
X139780724Y-103306198D01*
X139780722Y-103306197D01*
X139618319Y-103233891D01*
X139618318Y-103233891D01*
X139612288Y-103231206D01*
X139518888Y-103211353D01*
X139431944Y-103192872D01*
X139431939Y-103192872D01*
X139425487Y-103191500D01*
X139234513Y-103191500D01*
X139228061Y-103192872D01*
X139228056Y-103192872D01*
X139141113Y-103211353D01*
X139047712Y-103231206D01*
X139041682Y-103233891D01*
X139041681Y-103233891D01*
X138879278Y-103306197D01*
X138879276Y-103306198D01*
X138873248Y-103308882D01*
X138718747Y-103421134D01*
X138590960Y-103563056D01*
X138495473Y-103728444D01*
X138436458Y-103910072D01*
X138416496Y-104100000D01*
X133995873Y-104100000D01*
X132927792Y-103249807D01*
X132915805Y-103238935D01*
X132402000Y-102708929D01*
X131112242Y-101378502D01*
X135364998Y-101378502D01*
X135384960Y-101568430D01*
X135443975Y-101750058D01*
X135539462Y-101915446D01*
X135667249Y-102057368D01*
X135821750Y-102169620D01*
X135827778Y-102172304D01*
X135827780Y-102172305D01*
X135990183Y-102244611D01*
X135996214Y-102247296D01*
X136089615Y-102267149D01*
X136176558Y-102285630D01*
X136176563Y-102285630D01*
X136183015Y-102287002D01*
X136373989Y-102287002D01*
X136380441Y-102285630D01*
X136380446Y-102285630D01*
X136467389Y-102267149D01*
X136560790Y-102247296D01*
X136566821Y-102244611D01*
X136729224Y-102172305D01*
X136729226Y-102172304D01*
X136735254Y-102169620D01*
X136889755Y-102057368D01*
X137017542Y-101915446D01*
X137113029Y-101750058D01*
X137172044Y-101568430D01*
X137192006Y-101378502D01*
X137172044Y-101188574D01*
X137113029Y-101006946D01*
X137017542Y-100841558D01*
X136889755Y-100699636D01*
X136776821Y-100617584D01*
X136740596Y-100591265D01*
X136740595Y-100591264D01*
X136735254Y-100587384D01*
X136729226Y-100584700D01*
X136729224Y-100584699D01*
X136566821Y-100512393D01*
X136566820Y-100512393D01*
X136560790Y-100509708D01*
X136467390Y-100489855D01*
X136380446Y-100471374D01*
X136380441Y-100471374D01*
X136373989Y-100470002D01*
X136183015Y-100470002D01*
X136176563Y-100471374D01*
X136176558Y-100471374D01*
X136089614Y-100489855D01*
X135996214Y-100509708D01*
X135990184Y-100512393D01*
X135990183Y-100512393D01*
X135827780Y-100584699D01*
X135827778Y-100584700D01*
X135821750Y-100587384D01*
X135816409Y-100591264D01*
X135816408Y-100591265D01*
X135780183Y-100617584D01*
X135667249Y-100699636D01*
X135539462Y-100841558D01*
X135443975Y-101006946D01*
X135384960Y-101188574D01*
X135364998Y-101378502D01*
X131112242Y-101378502D01*
X130762965Y-101018212D01*
X130752737Y-101006249D01*
X128900116Y-98542557D01*
X128891402Y-98529306D01*
X128835563Y-98431498D01*
X135364998Y-98431498D01*
X135365688Y-98438063D01*
X135376004Y-98536210D01*
X135384960Y-98621426D01*
X135443975Y-98803054D01*
X135539462Y-98968442D01*
X135667249Y-99110364D01*
X135821750Y-99222616D01*
X135827778Y-99225300D01*
X135827780Y-99225301D01*
X135990183Y-99297607D01*
X135996214Y-99300292D01*
X136089614Y-99320145D01*
X136176558Y-99338626D01*
X136176563Y-99338626D01*
X136183015Y-99339998D01*
X136373989Y-99339998D01*
X136380441Y-99338626D01*
X136380446Y-99338626D01*
X136467390Y-99320145D01*
X136560790Y-99300292D01*
X136566821Y-99297607D01*
X136729224Y-99225301D01*
X136729226Y-99225300D01*
X136735254Y-99222616D01*
X136889755Y-99110364D01*
X137017542Y-98968442D01*
X137113029Y-98803054D01*
X137172044Y-98621426D01*
X137181001Y-98536210D01*
X137191316Y-98438063D01*
X137192006Y-98431498D01*
X137172044Y-98241570D01*
X137113029Y-98059942D01*
X137017542Y-97894554D01*
X136970338Y-97842128D01*
X136894177Y-97757543D01*
X136894176Y-97757542D01*
X136889755Y-97752632D01*
X136735254Y-97640380D01*
X136729226Y-97637696D01*
X136729224Y-97637695D01*
X136566821Y-97565389D01*
X136566820Y-97565389D01*
X136560790Y-97562704D01*
X136467389Y-97542851D01*
X136380446Y-97524370D01*
X136380441Y-97524370D01*
X136373989Y-97522998D01*
X136183015Y-97522998D01*
X136176563Y-97524370D01*
X136176558Y-97524370D01*
X136089615Y-97542851D01*
X135996214Y-97562704D01*
X135990184Y-97565389D01*
X135990183Y-97565389D01*
X135827780Y-97637695D01*
X135827778Y-97637696D01*
X135821750Y-97640380D01*
X135667249Y-97752632D01*
X135662828Y-97757542D01*
X135662827Y-97757543D01*
X135586667Y-97842128D01*
X135539462Y-97894554D01*
X135443975Y-98059942D01*
X135384960Y-98241570D01*
X135364998Y-98431498D01*
X128835563Y-98431498D01*
X128627027Y-98066227D01*
X127981199Y-96935000D01*
X131401496Y-96935000D01*
X131402186Y-96941565D01*
X131416102Y-97073964D01*
X131421458Y-97124928D01*
X131480473Y-97306556D01*
X131575960Y-97471944D01*
X131580378Y-97476851D01*
X131580379Y-97476852D01*
X131660098Y-97565389D01*
X131703747Y-97613866D01*
X131858248Y-97726118D01*
X131864276Y-97728802D01*
X131864278Y-97728803D01*
X131928830Y-97757543D01*
X132032712Y-97803794D01*
X132126112Y-97823647D01*
X132213056Y-97842128D01*
X132213061Y-97842128D01*
X132219513Y-97843500D01*
X132410487Y-97843500D01*
X132416939Y-97842128D01*
X132416944Y-97842128D01*
X132503888Y-97823647D01*
X132597288Y-97803794D01*
X132701170Y-97757543D01*
X132765722Y-97728803D01*
X132765724Y-97728802D01*
X132771752Y-97726118D01*
X132926253Y-97613866D01*
X132969902Y-97565389D01*
X133049621Y-97476852D01*
X133049622Y-97476851D01*
X133054040Y-97471944D01*
X133149527Y-97306556D01*
X133208542Y-97124928D01*
X133213899Y-97073964D01*
X133227814Y-96941565D01*
X133228504Y-96935000D01*
X133222336Y-96876318D01*
X133209232Y-96751635D01*
X133209232Y-96751633D01*
X133208542Y-96745072D01*
X133149527Y-96563444D01*
X133141111Y-96548866D01*
X133057341Y-96403774D01*
X133054040Y-96398056D01*
X132926253Y-96256134D01*
X132771752Y-96143882D01*
X132765724Y-96141198D01*
X132765722Y-96141197D01*
X132603319Y-96068891D01*
X132603318Y-96068891D01*
X132597288Y-96066206D01*
X132503887Y-96046353D01*
X132416944Y-96027872D01*
X132416939Y-96027872D01*
X132410487Y-96026500D01*
X132219513Y-96026500D01*
X132213061Y-96027872D01*
X132213056Y-96027872D01*
X132126113Y-96046353D01*
X132032712Y-96066206D01*
X132026682Y-96068891D01*
X132026681Y-96068891D01*
X131864278Y-96141197D01*
X131864276Y-96141198D01*
X131858248Y-96143882D01*
X131703747Y-96256134D01*
X131575960Y-96398056D01*
X131572659Y-96403774D01*
X131488890Y-96548866D01*
X131480473Y-96563444D01*
X131421458Y-96745072D01*
X131420768Y-96751633D01*
X131420768Y-96751635D01*
X131407664Y-96876318D01*
X131401496Y-96935000D01*
X127981199Y-96935000D01*
X127891852Y-96778500D01*
X127373181Y-95870000D01*
X139546496Y-95870000D01*
X139547186Y-95876565D01*
X139562945Y-96026500D01*
X139566458Y-96059928D01*
X139625473Y-96241556D01*
X139628776Y-96247278D01*
X139628777Y-96247279D01*
X139636725Y-96261045D01*
X139720960Y-96406944D01*
X139848747Y-96548866D01*
X140003248Y-96661118D01*
X140009276Y-96663802D01*
X140009278Y-96663803D01*
X140171681Y-96736109D01*
X140177712Y-96738794D01*
X140271112Y-96758647D01*
X140358056Y-96777128D01*
X140358061Y-96777128D01*
X140364513Y-96778500D01*
X140555487Y-96778500D01*
X140561939Y-96777128D01*
X140561944Y-96777128D01*
X140648888Y-96758647D01*
X140742288Y-96738794D01*
X140748319Y-96736109D01*
X140910722Y-96663803D01*
X140910724Y-96663802D01*
X140916752Y-96661118D01*
X141071253Y-96548866D01*
X141199040Y-96406944D01*
X141283275Y-96261045D01*
X141291223Y-96247279D01*
X141291224Y-96247278D01*
X141294527Y-96241556D01*
X141353542Y-96059928D01*
X141357056Y-96026500D01*
X141372814Y-95876565D01*
X141373504Y-95870000D01*
X141354262Y-95686924D01*
X141367034Y-95617086D01*
X141415536Y-95565239D01*
X141484369Y-95547845D01*
X141505769Y-95550507D01*
X141678056Y-95587128D01*
X141678061Y-95587128D01*
X141684513Y-95588500D01*
X141875487Y-95588500D01*
X141881939Y-95587128D01*
X141881944Y-95587128D01*
X141968887Y-95568647D01*
X142062288Y-95548794D01*
X142068319Y-95546109D01*
X142230722Y-95473803D01*
X142230724Y-95473802D01*
X142236752Y-95471118D01*
X142391253Y-95358866D01*
X142409344Y-95338774D01*
X142514621Y-95221852D01*
X142514622Y-95221851D01*
X142519040Y-95216944D01*
X142598750Y-95078882D01*
X142611223Y-95057279D01*
X142611224Y-95057278D01*
X142614527Y-95051556D01*
X142673542Y-94869928D01*
X142693504Y-94680000D01*
X142673542Y-94490072D01*
X142614527Y-94308444D01*
X142519040Y-94143056D01*
X142391253Y-94001134D01*
X142236752Y-93888882D01*
X142230724Y-93886198D01*
X142230722Y-93886197D01*
X142068319Y-93813891D01*
X142068318Y-93813891D01*
X142062288Y-93811206D01*
X141968888Y-93791353D01*
X141881944Y-93772872D01*
X141881939Y-93772872D01*
X141875487Y-93771500D01*
X141684513Y-93771500D01*
X141678061Y-93772872D01*
X141678056Y-93772872D01*
X141591112Y-93791353D01*
X141497712Y-93811206D01*
X141491682Y-93813891D01*
X141491681Y-93813891D01*
X141329278Y-93886197D01*
X141329276Y-93886198D01*
X141323248Y-93888882D01*
X141168747Y-94001134D01*
X141040960Y-94143056D01*
X140945473Y-94308444D01*
X140886458Y-94490072D01*
X140866496Y-94680000D01*
X140881754Y-94825166D01*
X140885738Y-94863075D01*
X140872966Y-94932914D01*
X140824464Y-94984761D01*
X140755631Y-95002155D01*
X140734231Y-94999493D01*
X140561944Y-94962872D01*
X140561939Y-94962872D01*
X140555487Y-94961500D01*
X140364513Y-94961500D01*
X140358061Y-94962872D01*
X140358056Y-94962872D01*
X140271112Y-94981353D01*
X140177712Y-95001206D01*
X140171682Y-95003891D01*
X140171681Y-95003891D01*
X140009278Y-95076197D01*
X140009276Y-95076198D01*
X140003248Y-95078882D01*
X139848747Y-95191134D01*
X139844326Y-95196044D01*
X139844325Y-95196045D01*
X139825508Y-95216944D01*
X139720960Y-95333056D01*
X139717659Y-95338774D01*
X139639700Y-95473803D01*
X139625473Y-95498444D01*
X139566458Y-95680072D01*
X139546496Y-95870000D01*
X127373181Y-95870000D01*
X127368891Y-95862485D01*
X127361912Y-95848249D01*
X126188589Y-93016758D01*
X126183449Y-93001742D01*
X126084962Y-92641396D01*
X142597892Y-92641396D01*
X142617854Y-92831324D01*
X142676869Y-93012952D01*
X142772356Y-93178340D01*
X142900143Y-93320262D01*
X143054644Y-93432514D01*
X143060672Y-93435198D01*
X143060674Y-93435199D01*
X143223077Y-93507505D01*
X143229108Y-93510190D01*
X143235563Y-93511562D01*
X143235572Y-93511565D01*
X143284142Y-93521889D01*
X143346615Y-93555617D01*
X143380936Y-93617767D01*
X143377777Y-93684071D01*
X143351458Y-93765072D01*
X143331496Y-93955000D01*
X143351458Y-94144928D01*
X143410473Y-94326556D01*
X143505960Y-94491944D01*
X143633747Y-94633866D01*
X143788248Y-94746118D01*
X143794276Y-94748802D01*
X143794278Y-94748803D01*
X143956681Y-94821109D01*
X143962712Y-94823794D01*
X144056113Y-94843647D01*
X144143056Y-94862128D01*
X144143061Y-94862128D01*
X144149513Y-94863500D01*
X144340487Y-94863500D01*
X144346939Y-94862128D01*
X144346944Y-94862128D01*
X144433887Y-94843647D01*
X144527288Y-94823794D01*
X144533319Y-94821109D01*
X144695722Y-94748803D01*
X144695724Y-94748802D01*
X144701752Y-94746118D01*
X144856253Y-94633866D01*
X144984040Y-94491944D01*
X145079527Y-94326556D01*
X145138542Y-94144928D01*
X145158504Y-93955000D01*
X145138542Y-93765072D01*
X145079527Y-93583444D01*
X144984040Y-93418056D01*
X144967855Y-93400080D01*
X144860675Y-93281045D01*
X144860674Y-93281044D01*
X144856253Y-93276134D01*
X144713782Y-93172622D01*
X144707094Y-93167763D01*
X144707093Y-93167762D01*
X144701752Y-93163882D01*
X144695724Y-93161198D01*
X144695722Y-93161197D01*
X144533319Y-93088891D01*
X144533318Y-93088891D01*
X144527288Y-93086206D01*
X144520833Y-93084834D01*
X144520824Y-93084831D01*
X144472254Y-93074507D01*
X144409781Y-93040779D01*
X144375460Y-92978629D01*
X144378619Y-92912325D01*
X144402898Y-92837602D01*
X144404938Y-92831324D01*
X144424900Y-92641396D01*
X144404938Y-92451468D01*
X144345923Y-92269840D01*
X144250436Y-92104452D01*
X144122649Y-91962530D01*
X143968148Y-91850278D01*
X143962120Y-91847594D01*
X143962118Y-91847593D01*
X143799715Y-91775287D01*
X143799714Y-91775287D01*
X143793684Y-91772602D01*
X143700283Y-91752749D01*
X143613340Y-91734268D01*
X143613335Y-91734268D01*
X143606883Y-91732896D01*
X143415909Y-91732896D01*
X143409457Y-91734268D01*
X143409452Y-91734268D01*
X143322509Y-91752749D01*
X143229108Y-91772602D01*
X143223078Y-91775287D01*
X143223077Y-91775287D01*
X143060674Y-91847593D01*
X143060672Y-91847594D01*
X143054644Y-91850278D01*
X142900143Y-91962530D01*
X142772356Y-92104452D01*
X142676869Y-92269840D01*
X142617854Y-92451468D01*
X142597892Y-92641396D01*
X126084962Y-92641396D01*
X125532491Y-90620000D01*
X143356496Y-90620000D01*
X143376458Y-90809928D01*
X143435473Y-90991556D01*
X143530960Y-91156944D01*
X143658747Y-91298866D01*
X143813248Y-91411118D01*
X143819276Y-91413802D01*
X143819278Y-91413803D01*
X143981681Y-91486109D01*
X143987712Y-91488794D01*
X144081112Y-91508647D01*
X144168056Y-91527128D01*
X144168061Y-91527128D01*
X144174513Y-91528500D01*
X144365487Y-91528500D01*
X144371939Y-91527128D01*
X144371944Y-91527128D01*
X144458888Y-91508647D01*
X144552288Y-91488794D01*
X144558319Y-91486109D01*
X144720722Y-91413803D01*
X144720724Y-91413802D01*
X144726752Y-91411118D01*
X144881253Y-91298866D01*
X145009040Y-91156944D01*
X145104527Y-90991556D01*
X145163542Y-90809928D01*
X145183504Y-90620000D01*
X145163542Y-90430072D01*
X145104527Y-90248444D01*
X145009040Y-90083056D01*
X144881253Y-89941134D01*
X144726752Y-89828882D01*
X144720724Y-89826198D01*
X144720722Y-89826197D01*
X144558319Y-89753891D01*
X144558318Y-89753891D01*
X144552288Y-89751206D01*
X144452489Y-89729993D01*
X144371944Y-89712872D01*
X144371939Y-89712872D01*
X144365487Y-89711500D01*
X144174513Y-89711500D01*
X144168061Y-89712872D01*
X144168056Y-89712872D01*
X144087511Y-89729993D01*
X143987712Y-89751206D01*
X143981682Y-89753891D01*
X143981681Y-89753891D01*
X143819278Y-89826197D01*
X143819276Y-89826198D01*
X143813248Y-89828882D01*
X143658747Y-89941134D01*
X143530960Y-90083056D01*
X143435473Y-90248444D01*
X143376458Y-90430072D01*
X143356496Y-90620000D01*
X125532491Y-90620000D01*
X125358790Y-89984459D01*
X125355567Y-89968835D01*
X125198747Y-88856840D01*
X149233592Y-88856840D01*
X149233889Y-88861993D01*
X149233889Y-88861996D01*
X149246626Y-89082900D01*
X149246924Y-89088068D01*
X149248061Y-89093114D01*
X149248062Y-89093120D01*
X149280238Y-89235894D01*
X149297843Y-89314013D01*
X149299785Y-89318795D01*
X149299786Y-89318799D01*
X149344161Y-89428081D01*
X149384981Y-89528608D01*
X149505998Y-89726090D01*
X149657644Y-89901155D01*
X149835846Y-90049101D01*
X150035819Y-90165955D01*
X150252191Y-90248580D01*
X150257257Y-90249611D01*
X150257258Y-90249611D01*
X150282414Y-90254729D01*
X150479153Y-90294756D01*
X150609821Y-90299547D01*
X150705446Y-90303054D01*
X150705450Y-90303054D01*
X150710610Y-90303243D01*
X150715730Y-90302587D01*
X150715732Y-90302587D01*
X150788767Y-90293231D01*
X150940344Y-90273813D01*
X150945292Y-90272328D01*
X150945299Y-90272327D01*
X151157244Y-90208740D01*
X151162187Y-90207257D01*
X151242733Y-90167798D01*
X151365546Y-90107633D01*
X151365549Y-90107631D01*
X151370181Y-90105362D01*
X151558740Y-89970865D01*
X151722800Y-89807376D01*
X151857955Y-89619288D01*
X151878726Y-89577262D01*
X151958281Y-89416293D01*
X151958282Y-89416291D01*
X151960575Y-89411651D01*
X152027905Y-89190042D01*
X152058137Y-88960412D01*
X152059690Y-88896855D01*
X171402561Y-88896855D01*
X171422523Y-89086783D01*
X171481538Y-89268411D01*
X171577025Y-89433799D01*
X171581443Y-89438706D01*
X171581444Y-89438707D01*
X171680474Y-89548691D01*
X171704812Y-89575721D01*
X171794333Y-89640762D01*
X171828462Y-89665558D01*
X171859313Y-89687973D01*
X171865341Y-89690657D01*
X171865343Y-89690658D01*
X172001337Y-89751206D01*
X172033777Y-89765649D01*
X172127177Y-89785502D01*
X172214121Y-89803983D01*
X172214126Y-89803983D01*
X172220578Y-89805355D01*
X172411552Y-89805355D01*
X172418004Y-89803983D01*
X172418009Y-89803983D01*
X172504952Y-89785502D01*
X172598353Y-89765649D01*
X172630793Y-89751206D01*
X172766787Y-89690658D01*
X172766789Y-89690657D01*
X172772817Y-89687973D01*
X172803669Y-89665558D01*
X172837797Y-89640762D01*
X172927318Y-89575721D01*
X172951656Y-89548691D01*
X173050686Y-89438707D01*
X173050687Y-89438706D01*
X173055105Y-89433799D01*
X173150592Y-89268411D01*
X173209607Y-89086783D01*
X173229569Y-88896855D01*
X173209607Y-88706927D01*
X173150592Y-88525299D01*
X173055105Y-88359911D01*
X172927318Y-88217989D01*
X172800046Y-88125520D01*
X172778159Y-88109618D01*
X172778158Y-88109617D01*
X172772817Y-88105737D01*
X172766789Y-88103053D01*
X172766787Y-88103052D01*
X172604384Y-88030746D01*
X172604383Y-88030746D01*
X172598353Y-88028061D01*
X172504953Y-88008208D01*
X172418009Y-87989727D01*
X172418004Y-87989727D01*
X172411552Y-87988355D01*
X172220578Y-87988355D01*
X172214126Y-87989727D01*
X172214121Y-87989727D01*
X172127177Y-88008208D01*
X172033777Y-88028061D01*
X172027747Y-88030746D01*
X172027746Y-88030746D01*
X171865343Y-88103052D01*
X171865341Y-88103053D01*
X171859313Y-88105737D01*
X171853972Y-88109617D01*
X171853971Y-88109618D01*
X171832084Y-88125520D01*
X171704812Y-88217989D01*
X171577025Y-88359911D01*
X171481538Y-88525299D01*
X171422523Y-88706927D01*
X171402561Y-88896855D01*
X152059690Y-88896855D01*
X152059824Y-88891371D01*
X152053529Y-88814805D01*
X152041270Y-88665689D01*
X152041269Y-88665683D01*
X152040846Y-88660538D01*
X151984422Y-88435904D01*
X151982363Y-88431168D01*
X151894127Y-88228239D01*
X151894125Y-88228236D01*
X151892067Y-88223502D01*
X151766261Y-88029036D01*
X151610384Y-87857729D01*
X151606333Y-87854530D01*
X151606329Y-87854526D01*
X151432674Y-87717382D01*
X151432669Y-87717379D01*
X151428620Y-87714181D01*
X151424104Y-87711688D01*
X151424101Y-87711686D01*
X151230376Y-87604744D01*
X151230372Y-87604742D01*
X151225852Y-87602247D01*
X151220983Y-87600523D01*
X151220979Y-87600521D01*
X151012400Y-87526659D01*
X151012396Y-87526658D01*
X151007525Y-87524933D01*
X151002432Y-87524026D01*
X151002429Y-87524025D01*
X150784592Y-87485222D01*
X150784586Y-87485221D01*
X150779503Y-87484316D01*
X150706593Y-87483425D01*
X150553078Y-87481550D01*
X150553076Y-87481550D01*
X150547908Y-87481487D01*
X150318961Y-87516521D01*
X150098811Y-87588477D01*
X150094223Y-87590865D01*
X150094219Y-87590867D01*
X149897958Y-87693034D01*
X149893369Y-87695423D01*
X149889236Y-87698526D01*
X149889233Y-87698528D01*
X149712287Y-87831383D01*
X149708152Y-87834488D01*
X149685942Y-87857729D01*
X149573233Y-87975673D01*
X149548136Y-88001935D01*
X149545222Y-88006207D01*
X149545221Y-88006208D01*
X149531250Y-88026689D01*
X149417616Y-88193270D01*
X149320099Y-88403352D01*
X149258204Y-88626540D01*
X149233592Y-88856840D01*
X125198747Y-88856840D01*
X124928892Y-86943332D01*
X124927673Y-86927730D01*
X124902868Y-85360000D01*
X143384951Y-85360000D01*
X143386224Y-85368889D01*
X143403368Y-85488599D01*
X143405600Y-85504186D01*
X143409314Y-85512354D01*
X143409314Y-85512355D01*
X143438095Y-85575656D01*
X143465887Y-85636782D01*
X143470834Y-85642935D01*
X143470836Y-85642938D01*
X143478539Y-85652518D01*
X143505080Y-85685528D01*
X145694472Y-87874920D01*
X145697134Y-87877060D01*
X145737062Y-87909164D01*
X145737065Y-87909166D01*
X145743218Y-87914113D01*
X145875814Y-87974400D01*
X145884697Y-87975672D01*
X145884700Y-87975673D01*
X146011111Y-87993776D01*
X146020000Y-87995049D01*
X146028889Y-87993776D01*
X146155300Y-87975673D01*
X146155303Y-87975672D01*
X146164186Y-87974400D01*
X146296782Y-87914113D01*
X146302935Y-87909166D01*
X146302938Y-87909164D01*
X146342866Y-87877060D01*
X146345528Y-87874920D01*
X147838482Y-86381966D01*
X151708466Y-86381966D01*
X151708763Y-86387119D01*
X151708763Y-86387122D01*
X151714438Y-86485538D01*
X151721798Y-86613194D01*
X151722935Y-86618240D01*
X151722936Y-86618246D01*
X151749650Y-86736785D01*
X151772717Y-86839139D01*
X151774659Y-86843921D01*
X151774660Y-86843925D01*
X151815025Y-86943332D01*
X151859855Y-87053734D01*
X151980872Y-87251216D01*
X152132518Y-87426281D01*
X152310720Y-87574227D01*
X152510693Y-87691081D01*
X152515518Y-87692923D01*
X152515519Y-87692924D01*
X152579568Y-87717382D01*
X152727065Y-87773706D01*
X152732131Y-87774737D01*
X152732132Y-87774737D01*
X152785217Y-87785537D01*
X152954027Y-87819882D01*
X153084695Y-87824673D01*
X153180320Y-87828180D01*
X153180324Y-87828180D01*
X153185484Y-87828369D01*
X153190604Y-87827713D01*
X153190606Y-87827713D01*
X153263641Y-87818357D01*
X153415218Y-87798939D01*
X153420166Y-87797454D01*
X153420173Y-87797453D01*
X153632118Y-87733866D01*
X153637061Y-87732383D01*
X153641695Y-87730113D01*
X153840420Y-87632759D01*
X153840423Y-87632757D01*
X153845055Y-87630488D01*
X154033614Y-87495991D01*
X154197674Y-87332502D01*
X154217242Y-87305271D01*
X154259246Y-87246815D01*
X154332829Y-87144414D01*
X154339989Y-87129928D01*
X154433155Y-86941419D01*
X154433156Y-86941417D01*
X154433856Y-86940000D01*
X156196496Y-86940000D01*
X156197186Y-86946565D01*
X156204626Y-87017348D01*
X156216458Y-87129928D01*
X156275473Y-87311556D01*
X156370960Y-87476944D01*
X156375378Y-87481851D01*
X156375379Y-87481852D01*
X156494325Y-87613955D01*
X156498747Y-87618866D01*
X156653248Y-87731118D01*
X156659276Y-87733802D01*
X156659278Y-87733803D01*
X156810934Y-87801324D01*
X156827712Y-87808794D01*
X156919805Y-87828369D01*
X157008056Y-87847128D01*
X157008061Y-87847128D01*
X157014513Y-87848500D01*
X157205487Y-87848500D01*
X157211939Y-87847128D01*
X157211944Y-87847128D01*
X157300195Y-87828369D01*
X157392288Y-87808794D01*
X157409066Y-87801324D01*
X157560722Y-87733803D01*
X157560724Y-87733802D01*
X157566752Y-87731118D01*
X157721253Y-87618866D01*
X157725675Y-87613955D01*
X157844621Y-87481852D01*
X157844622Y-87481851D01*
X157849040Y-87476944D01*
X157944527Y-87311556D01*
X158003542Y-87129928D01*
X158015375Y-87017348D01*
X158022814Y-86946565D01*
X158023504Y-86940000D01*
X158020561Y-86911996D01*
X158004232Y-86756635D01*
X158004232Y-86756633D01*
X158003542Y-86750072D01*
X157944527Y-86568444D01*
X157932753Y-86548050D01*
X157867236Y-86434573D01*
X157849040Y-86403056D01*
X157830051Y-86381966D01*
X157725675Y-86266045D01*
X157725674Y-86266044D01*
X157721253Y-86261134D01*
X157585570Y-86162554D01*
X157572094Y-86152763D01*
X157572093Y-86152762D01*
X157566752Y-86148882D01*
X157560724Y-86146198D01*
X157560722Y-86146197D01*
X157398319Y-86073891D01*
X157398318Y-86073891D01*
X157392288Y-86071206D01*
X157298888Y-86051353D01*
X157211944Y-86032872D01*
X157211939Y-86032872D01*
X157205487Y-86031500D01*
X157014513Y-86031500D01*
X157008061Y-86032872D01*
X157008056Y-86032872D01*
X156921112Y-86051353D01*
X156827712Y-86071206D01*
X156821682Y-86073891D01*
X156821681Y-86073891D01*
X156659278Y-86146197D01*
X156659276Y-86146198D01*
X156653248Y-86148882D01*
X156647907Y-86152762D01*
X156647906Y-86152763D01*
X156634430Y-86162554D01*
X156498747Y-86261134D01*
X156494326Y-86266044D01*
X156494325Y-86266045D01*
X156389950Y-86381966D01*
X156370960Y-86403056D01*
X156352764Y-86434573D01*
X156287248Y-86548050D01*
X156275473Y-86568444D01*
X156216458Y-86750072D01*
X156215768Y-86756633D01*
X156215768Y-86756635D01*
X156199439Y-86911996D01*
X156196496Y-86940000D01*
X154433856Y-86940000D01*
X154435449Y-86936777D01*
X154502779Y-86715168D01*
X154533011Y-86485538D01*
X154534182Y-86437611D01*
X154534616Y-86419862D01*
X154534616Y-86419858D01*
X154534698Y-86416497D01*
X154526727Y-86319541D01*
X154516144Y-86190815D01*
X154516143Y-86190809D01*
X154515720Y-86185664D01*
X154486626Y-86069834D01*
X154460555Y-85966041D01*
X154460554Y-85966037D01*
X154459296Y-85961030D01*
X154417923Y-85865878D01*
X154369001Y-85753365D01*
X154368999Y-85753362D01*
X154366941Y-85748628D01*
X154241135Y-85554162D01*
X154181477Y-85488599D01*
X165844703Y-85488599D01*
X165864665Y-85678527D01*
X165923680Y-85860155D01*
X166019167Y-86025543D01*
X166023585Y-86030450D01*
X166023586Y-86030451D01*
X166133716Y-86152763D01*
X166146954Y-86167465D01*
X166301455Y-86279717D01*
X166307483Y-86282401D01*
X166307485Y-86282402D01*
X166469888Y-86354708D01*
X166475919Y-86357393D01*
X166569319Y-86377246D01*
X166656263Y-86395727D01*
X166656268Y-86395727D01*
X166662720Y-86397099D01*
X166853694Y-86397099D01*
X166860146Y-86395727D01*
X166860151Y-86395727D01*
X166947094Y-86377246D01*
X167040495Y-86357393D01*
X167046526Y-86354708D01*
X167208929Y-86282402D01*
X167208931Y-86282401D01*
X167214959Y-86279717D01*
X167369460Y-86167465D01*
X167382698Y-86152763D01*
X167492828Y-86030451D01*
X167492829Y-86030450D01*
X167497247Y-86025543D01*
X167592734Y-85860155D01*
X167651749Y-85678527D01*
X167671711Y-85488599D01*
X167657261Y-85351111D01*
X167652439Y-85305234D01*
X167652439Y-85305232D01*
X167651749Y-85298671D01*
X167592734Y-85117043D01*
X167497247Y-84951655D01*
X167458180Y-84908266D01*
X167452269Y-84901701D01*
X171423775Y-84901701D01*
X171424465Y-84908266D01*
X171438653Y-85043254D01*
X171443737Y-85091629D01*
X171502752Y-85273257D01*
X171598239Y-85438645D01*
X171602657Y-85443552D01*
X171602658Y-85443553D01*
X171643218Y-85488599D01*
X171726026Y-85580567D01*
X171793506Y-85629594D01*
X171869497Y-85684805D01*
X171880527Y-85692819D01*
X171886555Y-85695503D01*
X171886557Y-85695504D01*
X172016516Y-85753365D01*
X172054991Y-85770495D01*
X172148391Y-85790348D01*
X172235335Y-85808829D01*
X172235340Y-85808829D01*
X172241792Y-85810201D01*
X172432766Y-85810201D01*
X172439218Y-85808829D01*
X172439223Y-85808829D01*
X172526166Y-85790348D01*
X172619567Y-85770495D01*
X172658042Y-85753365D01*
X172788001Y-85695504D01*
X172788003Y-85695503D01*
X172794031Y-85692819D01*
X172805062Y-85684805D01*
X172881052Y-85629594D01*
X172948532Y-85580567D01*
X173031340Y-85488599D01*
X173071900Y-85443553D01*
X173071901Y-85443552D01*
X173076319Y-85438645D01*
X173171806Y-85273257D01*
X173230821Y-85091629D01*
X173235906Y-85043254D01*
X173250093Y-84908266D01*
X173250783Y-84901701D01*
X173230821Y-84711773D01*
X173171806Y-84530145D01*
X173076319Y-84364757D01*
X172980776Y-84258645D01*
X172952954Y-84227746D01*
X172952953Y-84227745D01*
X172948532Y-84222835D01*
X172794031Y-84110583D01*
X172788003Y-84107899D01*
X172788001Y-84107898D01*
X172625598Y-84035592D01*
X172625597Y-84035592D01*
X172619567Y-84032907D01*
X172526167Y-84013054D01*
X172439223Y-83994573D01*
X172439218Y-83994573D01*
X172432766Y-83993201D01*
X172241792Y-83993201D01*
X172235340Y-83994573D01*
X172235335Y-83994573D01*
X172148391Y-84013054D01*
X172054991Y-84032907D01*
X172048961Y-84035592D01*
X172048960Y-84035592D01*
X171886557Y-84107898D01*
X171886555Y-84107899D01*
X171880527Y-84110583D01*
X171726026Y-84222835D01*
X171721605Y-84227745D01*
X171721604Y-84227746D01*
X171693783Y-84258645D01*
X171598239Y-84364757D01*
X171502752Y-84530145D01*
X171443737Y-84711773D01*
X171423775Y-84901701D01*
X167452269Y-84901701D01*
X167373882Y-84814644D01*
X167373881Y-84814643D01*
X167369460Y-84809733D01*
X167234630Y-84711773D01*
X167220301Y-84701362D01*
X167220300Y-84701361D01*
X167214959Y-84697481D01*
X167208931Y-84694797D01*
X167208929Y-84694796D01*
X167046526Y-84622490D01*
X167046525Y-84622490D01*
X167040495Y-84619805D01*
X166947095Y-84599952D01*
X166860151Y-84581471D01*
X166860146Y-84581471D01*
X166853694Y-84580099D01*
X166662720Y-84580099D01*
X166656268Y-84581471D01*
X166656263Y-84581471D01*
X166569319Y-84599952D01*
X166475919Y-84619805D01*
X166469889Y-84622490D01*
X166469888Y-84622490D01*
X166307485Y-84694796D01*
X166307483Y-84694797D01*
X166301455Y-84697481D01*
X166296114Y-84701361D01*
X166296113Y-84701362D01*
X166281784Y-84711773D01*
X166146954Y-84809733D01*
X166142533Y-84814643D01*
X166142532Y-84814644D01*
X166058235Y-84908266D01*
X166019167Y-84951655D01*
X165923680Y-85117043D01*
X165864665Y-85298671D01*
X165863975Y-85305232D01*
X165863975Y-85305234D01*
X165859153Y-85351111D01*
X165844703Y-85488599D01*
X154181477Y-85488599D01*
X154085258Y-85382855D01*
X154081207Y-85379656D01*
X154081203Y-85379652D01*
X153907548Y-85242508D01*
X153907543Y-85242505D01*
X153903494Y-85239307D01*
X153898978Y-85236814D01*
X153898975Y-85236812D01*
X153705250Y-85129870D01*
X153705246Y-85129868D01*
X153700726Y-85127373D01*
X153695857Y-85125649D01*
X153695853Y-85125647D01*
X153487274Y-85051785D01*
X153487270Y-85051784D01*
X153482399Y-85050059D01*
X153477306Y-85049152D01*
X153477303Y-85049151D01*
X153259466Y-85010348D01*
X153259460Y-85010347D01*
X153254377Y-85009442D01*
X153181467Y-85008551D01*
X153027952Y-85006676D01*
X153027950Y-85006676D01*
X153022782Y-85006613D01*
X152793835Y-85041647D01*
X152573685Y-85113603D01*
X152569097Y-85115991D01*
X152569093Y-85115993D01*
X152542436Y-85129870D01*
X152368243Y-85220549D01*
X152364110Y-85223652D01*
X152364107Y-85223654D01*
X152187161Y-85356509D01*
X152183026Y-85359614D01*
X152179454Y-85363352D01*
X152053362Y-85495300D01*
X152023010Y-85527061D01*
X152020096Y-85531333D01*
X152020095Y-85531334D01*
X152004523Y-85554162D01*
X151892490Y-85718396D01*
X151794973Y-85928478D01*
X151733078Y-86151666D01*
X151708466Y-86381966D01*
X147838482Y-86381966D01*
X148534920Y-85685528D01*
X148561461Y-85652518D01*
X148569164Y-85642938D01*
X148569166Y-85642935D01*
X148574113Y-85636782D01*
X148601905Y-85575656D01*
X148630686Y-85512355D01*
X148630686Y-85512354D01*
X148634400Y-85504186D01*
X148636633Y-85488599D01*
X148653776Y-85368889D01*
X148655049Y-85360000D01*
X148643446Y-85278980D01*
X148635673Y-85224700D01*
X148635672Y-85224697D01*
X148634400Y-85215814D01*
X148574113Y-85083218D01*
X148569166Y-85077065D01*
X148569164Y-85077062D01*
X148537060Y-85037134D01*
X148534920Y-85034472D01*
X146345528Y-82845080D01*
X146328792Y-82831624D01*
X146302938Y-82810836D01*
X146302935Y-82810834D01*
X146296782Y-82805887D01*
X146164186Y-82745600D01*
X146155303Y-82744328D01*
X146155300Y-82744327D01*
X146028889Y-82726224D01*
X146020000Y-82724951D01*
X146011111Y-82726224D01*
X145884700Y-82744327D01*
X145884697Y-82744328D01*
X145875814Y-82745600D01*
X145743218Y-82805887D01*
X145737065Y-82810834D01*
X145737062Y-82810836D01*
X145711208Y-82831624D01*
X145694472Y-82845080D01*
X143505080Y-85034472D01*
X143502940Y-85037134D01*
X143470836Y-85077062D01*
X143470834Y-85077065D01*
X143465887Y-85083218D01*
X143405600Y-85215814D01*
X143404328Y-85224697D01*
X143404327Y-85224700D01*
X143396554Y-85278980D01*
X143384951Y-85360000D01*
X124902868Y-85360000D01*
X124879172Y-83862415D01*
X124879903Y-83846722D01*
X125109580Y-81746816D01*
X147599019Y-81746816D01*
X147614784Y-82020218D01*
X147615609Y-82024423D01*
X147615610Y-82024431D01*
X147626229Y-82078555D01*
X147667507Y-82288951D01*
X147668894Y-82293001D01*
X147668895Y-82293006D01*
X147689707Y-82353793D01*
X147756214Y-82548042D01*
X147760441Y-82556447D01*
X147860481Y-82755354D01*
X147879262Y-82792697D01*
X147881688Y-82796226D01*
X147881691Y-82796232D01*
X148031233Y-83013815D01*
X148034376Y-83018388D01*
X148037263Y-83021561D01*
X148037264Y-83021562D01*
X148202340Y-83202979D01*
X148218684Y-83220941D01*
X148428777Y-83396605D01*
X148432418Y-83398889D01*
X148657126Y-83539849D01*
X148657130Y-83539851D01*
X148660766Y-83542132D01*
X148728646Y-83572781D01*
X148906447Y-83653062D01*
X148906451Y-83653064D01*
X148910359Y-83654828D01*
X148914479Y-83656048D01*
X148914478Y-83656048D01*
X149168825Y-83731389D01*
X149168829Y-83731390D01*
X149172938Y-83732607D01*
X149177172Y-83733255D01*
X149177177Y-83733256D01*
X149439400Y-83773381D01*
X149439402Y-83773381D01*
X149443642Y-83774030D01*
X149583014Y-83776220D01*
X149713173Y-83778265D01*
X149713179Y-83778265D01*
X149717464Y-83778332D01*
X149989337Y-83745432D01*
X150254229Y-83675939D01*
X150258189Y-83674299D01*
X150258194Y-83674297D01*
X150418779Y-83607780D01*
X150507238Y-83571139D01*
X150743684Y-83432971D01*
X150959191Y-83263992D01*
X151000911Y-83220941D01*
X151146788Y-83070407D01*
X151149771Y-83067329D01*
X151152304Y-83063881D01*
X151152308Y-83063876D01*
X151309359Y-82850076D01*
X151311897Y-82846621D01*
X151339256Y-82796232D01*
X151440520Y-82609728D01*
X151440521Y-82609726D01*
X151442570Y-82605952D01*
X151539371Y-82349775D01*
X151578752Y-82177829D01*
X151599551Y-82087015D01*
X151599552Y-82087011D01*
X151600509Y-82082831D01*
X151603906Y-82044775D01*
X151624633Y-81812525D01*
X151624633Y-81812523D01*
X151624853Y-81810059D01*
X151625295Y-81767898D01*
X151617451Y-81652835D01*
X151606961Y-81498953D01*
X151606960Y-81498947D01*
X151606669Y-81494676D01*
X151551134Y-81226510D01*
X151459719Y-80968363D01*
X151334115Y-80725010D01*
X151324142Y-80710819D01*
X151179110Y-80504460D01*
X151176647Y-80500955D01*
X150990227Y-80300343D01*
X150986912Y-80297629D01*
X150986908Y-80297626D01*
X150781625Y-80129604D01*
X150778307Y-80126888D01*
X150544806Y-79983799D01*
X150540870Y-79982071D01*
X150297975Y-79875447D01*
X150297971Y-79875446D01*
X150294047Y-79873723D01*
X150030668Y-79798698D01*
X150026426Y-79798094D01*
X150026420Y-79798093D01*
X149825936Y-79769560D01*
X149759545Y-79760111D01*
X149615691Y-79759358D01*
X149489979Y-79758700D01*
X149489973Y-79758700D01*
X149485693Y-79758678D01*
X149481449Y-79759237D01*
X149481445Y-79759237D01*
X149362404Y-79774909D01*
X149214180Y-79794423D01*
X149210040Y-79795556D01*
X149210038Y-79795556D01*
X149137110Y-79815507D01*
X148950030Y-79866686D01*
X148946082Y-79868370D01*
X148702084Y-79972444D01*
X148702080Y-79972446D01*
X148698132Y-79974130D01*
X148678227Y-79986043D01*
X148466827Y-80112562D01*
X148466823Y-80112565D01*
X148463145Y-80114766D01*
X148249420Y-80285992D01*
X148060910Y-80484640D01*
X147901104Y-80707034D01*
X147772959Y-80949059D01*
X147771487Y-80953082D01*
X147771485Y-80953086D01*
X147764416Y-80972404D01*
X147678845Y-81206235D01*
X147620506Y-81473805D01*
X147599019Y-81746816D01*
X125109580Y-81746816D01*
X125219277Y-80743866D01*
X125222176Y-80727473D01*
X125959557Y-77729440D01*
X125963901Y-77715379D01*
X126773403Y-75551802D01*
X153048298Y-75551802D01*
X153068260Y-75741730D01*
X153127275Y-75923358D01*
X153222762Y-76088746D01*
X153350549Y-76230668D01*
X153505050Y-76342920D01*
X153511078Y-76345604D01*
X153511080Y-76345605D01*
X153673483Y-76417911D01*
X153679514Y-76420596D01*
X153772915Y-76440449D01*
X153859858Y-76458930D01*
X153859863Y-76458930D01*
X153866315Y-76460302D01*
X154057289Y-76460302D01*
X154063741Y-76458930D01*
X154063746Y-76458930D01*
X154150689Y-76440449D01*
X154244090Y-76420596D01*
X154250121Y-76417911D01*
X154412524Y-76345605D01*
X154412526Y-76345604D01*
X154418554Y-76342920D01*
X154436337Y-76330000D01*
X156226496Y-76330000D01*
X156246458Y-76519928D01*
X156305473Y-76701556D01*
X156400960Y-76866944D01*
X156528747Y-77008866D01*
X156683248Y-77121118D01*
X156689276Y-77123802D01*
X156689278Y-77123803D01*
X156719618Y-77137311D01*
X156857712Y-77198794D01*
X156951113Y-77218647D01*
X157038056Y-77237128D01*
X157038061Y-77237128D01*
X157044513Y-77238500D01*
X157235487Y-77238500D01*
X157241939Y-77237128D01*
X157241944Y-77237128D01*
X157328887Y-77218647D01*
X157422288Y-77198794D01*
X157560382Y-77137311D01*
X157590722Y-77123803D01*
X157590724Y-77123802D01*
X157596752Y-77121118D01*
X157751253Y-77008866D01*
X157879040Y-76866944D01*
X157974527Y-76701556D01*
X158033542Y-76519928D01*
X158053504Y-76330000D01*
X158033542Y-76140072D01*
X157974527Y-75958444D01*
X157879040Y-75793056D01*
X157751253Y-75651134D01*
X157596752Y-75538882D01*
X157590724Y-75536198D01*
X157590722Y-75536197D01*
X157428319Y-75463891D01*
X157428318Y-75463891D01*
X157422288Y-75461206D01*
X157328887Y-75441353D01*
X157241944Y-75422872D01*
X157241939Y-75422872D01*
X157235487Y-75421500D01*
X157044513Y-75421500D01*
X157038061Y-75422872D01*
X157038056Y-75422872D01*
X156951113Y-75441353D01*
X156857712Y-75461206D01*
X156851682Y-75463891D01*
X156851681Y-75463891D01*
X156689278Y-75536197D01*
X156689276Y-75536198D01*
X156683248Y-75538882D01*
X156528747Y-75651134D01*
X156400960Y-75793056D01*
X156305473Y-75958444D01*
X156246458Y-76140072D01*
X156226496Y-76330000D01*
X154436337Y-76330000D01*
X154573055Y-76230668D01*
X154700842Y-76088746D01*
X154796329Y-75923358D01*
X154855344Y-75741730D01*
X154875306Y-75551802D01*
X154855344Y-75361874D01*
X154796329Y-75180246D01*
X154700842Y-75014858D01*
X154573055Y-74872936D01*
X154418554Y-74760684D01*
X154412526Y-74758000D01*
X154412524Y-74757999D01*
X154250121Y-74685693D01*
X154250120Y-74685693D01*
X154244090Y-74683008D01*
X154150689Y-74663155D01*
X154063746Y-74644674D01*
X154063741Y-74644674D01*
X154057289Y-74643302D01*
X153866315Y-74643302D01*
X153859863Y-74644674D01*
X153859858Y-74644674D01*
X153772915Y-74663155D01*
X153679514Y-74683008D01*
X153673484Y-74685693D01*
X153673483Y-74685693D01*
X153511080Y-74757999D01*
X153511078Y-74758000D01*
X153505050Y-74760684D01*
X153350549Y-74872936D01*
X153222762Y-75014858D01*
X153127275Y-75180246D01*
X153068260Y-75361874D01*
X153048298Y-75551802D01*
X126773403Y-75551802D01*
X127030502Y-74864646D01*
X127037446Y-74849300D01*
X127342428Y-74280000D01*
X155366496Y-74280000D01*
X155386458Y-74469928D01*
X155445473Y-74651556D01*
X155540960Y-74816944D01*
X155668747Y-74958866D01*
X155823248Y-75071118D01*
X155829276Y-75073802D01*
X155829278Y-75073803D01*
X155991681Y-75146109D01*
X155997712Y-75148794D01*
X156091112Y-75168647D01*
X156178056Y-75187128D01*
X156178061Y-75187128D01*
X156184513Y-75188500D01*
X156375487Y-75188500D01*
X156381939Y-75187128D01*
X156381944Y-75187128D01*
X156468888Y-75168647D01*
X156562288Y-75148794D01*
X156568319Y-75146109D01*
X156730722Y-75073803D01*
X156730724Y-75073802D01*
X156736752Y-75071118D01*
X156891253Y-74958866D01*
X157019040Y-74816944D01*
X157114527Y-74651556D01*
X157173542Y-74469928D01*
X157193504Y-74280000D01*
X157182938Y-74179470D01*
X157174232Y-74096635D01*
X157174232Y-74096633D01*
X157173542Y-74090072D01*
X157114527Y-73908444D01*
X157019040Y-73743056D01*
X156891253Y-73601134D01*
X156736752Y-73488882D01*
X156730724Y-73486198D01*
X156730722Y-73486197D01*
X156568319Y-73413891D01*
X156568318Y-73413891D01*
X156562288Y-73411206D01*
X156468887Y-73391353D01*
X156381944Y-73372872D01*
X156381939Y-73372872D01*
X156375487Y-73371500D01*
X156184513Y-73371500D01*
X156178061Y-73372872D01*
X156178056Y-73372872D01*
X156091113Y-73391353D01*
X155997712Y-73411206D01*
X155991682Y-73413891D01*
X155991681Y-73413891D01*
X155829278Y-73486197D01*
X155829276Y-73486198D01*
X155823248Y-73488882D01*
X155668747Y-73601134D01*
X155540960Y-73743056D01*
X155445473Y-73908444D01*
X155386458Y-74090072D01*
X155385768Y-74096633D01*
X155385768Y-74096635D01*
X155377062Y-74179470D01*
X155366496Y-74280000D01*
X127342428Y-74280000D01*
X128492250Y-72133664D01*
X128500019Y-72121014D01*
X130275343Y-69579294D01*
X130285841Y-69566213D01*
X132358780Y-67309227D01*
X132370369Y-67298121D01*
X132857368Y-66887593D01*
X134719138Y-65318166D01*
X134730978Y-65309320D01*
X137351799Y-63581520D01*
X137366239Y-63573312D01*
X140129626Y-62235249D01*
X140143735Y-62229444D01*
X143032976Y-61240510D01*
X143048912Y-61236198D01*
X145984509Y-60645204D01*
X145999742Y-60643095D01*
X149162499Y-60400552D01*
X149179413Y-60400394D01*
X152194677Y-60574912D01*
G37*
%TD.AperFunction*%
%TD*%
M02*
