%TF.GenerationSoftware,KiCad,Pcbnew,(6.0.9)*%
%TF.CreationDate,2023-03-28T01:31:43-07:00*%
%TF.ProjectId,solar-panel-side-Z,736f6c61-722d-4706-916e-656c2d736964,3.1*%
%TF.SameCoordinates,Original*%
%TF.FileFunction,Paste,Top*%
%TF.FilePolarity,Positive*%
%FSLAX46Y46*%
G04 Gerber Fmt 4.6, Leading zero omitted, Abs format (unit mm)*
G04 Created by KiCad (PCBNEW (6.0.9)) date 2023-03-28 01:31:43*
%MOMM*%
%LPD*%
G01*
G04 APERTURE LIST*
G04 Aperture macros list*
%AMRoundRect*
0 Rectangle with rounded corners*
0 $1 Rounding radius*
0 $2 $3 $4 $5 $6 $7 $8 $9 X,Y pos of 4 corners*
0 Add a 4 corners polygon primitive as box body*
4,1,4,$2,$3,$4,$5,$6,$7,$8,$9,$2,$3,0*
0 Add four circle primitives for the rounded corners*
1,1,$1+$1,$2,$3*
1,1,$1+$1,$4,$5*
1,1,$1+$1,$6,$7*
1,1,$1+$1,$8,$9*
0 Add four rect primitives between the rounded corners*
20,1,$1+$1,$2,$3,$4,$5,0*
20,1,$1+$1,$4,$5,$6,$7,0*
20,1,$1+$1,$6,$7,$8,$9,0*
20,1,$1+$1,$8,$9,$2,$3,0*%
%AMRotRect*
0 Rectangle, with rotation*
0 The origin of the aperture is its center*
0 $1 length*
0 $2 width*
0 $3 Rotation angle, in degrees counterclockwise*
0 Add horizontal line*
21,1,$1,$2,0,0,$3*%
G04 Aperture macros list end*
%ADD10RotRect,2.500000X1.700000X45.000000*%
%ADD11RoundRect,0.750000X0.750000X-0.750000X0.750000X0.750000X-0.750000X0.750000X-0.750000X-0.750000X0*%
%ADD12RoundRect,0.218750X0.335876X0.026517X0.026517X0.335876X-0.335876X-0.026517X-0.026517X-0.335876X0*%
%ADD13RoundRect,0.250000X0.512652X0.159099X0.159099X0.512652X-0.512652X-0.159099X-0.159099X-0.512652X0*%
%ADD14RotRect,0.300000X0.750000X225.000000*%
%ADD15RotRect,0.300000X0.750000X45.000000*%
%ADD16RotRect,1.450000X1.750000X225.000000*%
%ADD17RotRect,13.000000X3.000000X45.000000*%
%ADD18RoundRect,0.200000X-0.335876X-0.053033X-0.053033X-0.335876X0.335876X0.053033X0.053033X0.335876X0*%
%ADD19RoundRect,0.075000X-0.512652X0.406586X0.406586X-0.512652X0.512652X-0.406586X-0.406586X0.512652X0*%
%ADD20RotRect,2.500000X1.700000X135.000000*%
%ADD21RotRect,1.600000X0.700000X135.000000*%
%ADD22RotRect,13.000000X3.000000X225.000000*%
G04 APERTURE END LIST*
D10*
%TO.C,D2*%
X112421572Y-50578428D03*
X115250000Y-47750000D03*
%TD*%
D11*
%TO.C,TP1*%
X113410000Y-130950000D03*
%TD*%
D12*
%TO.C,D4*%
X168840000Y-69680000D03*
X167726306Y-68566306D03*
%TD*%
D13*
%TO.C,C3*%
X141201700Y-91147870D03*
X139858198Y-89804368D03*
%TD*%
D14*
%TO.C,U3*%
X160865025Y-70964365D03*
X160511472Y-71317918D03*
X160157918Y-71671472D03*
X159804365Y-72025025D03*
D15*
X161854975Y-74075635D03*
X162208528Y-73722082D03*
X162562082Y-73368528D03*
X162915635Y-73014975D03*
D16*
X161360000Y-72520000D03*
%TD*%
D17*
%TO.C,SC5*%
X108537864Y-97657864D03*
X136822136Y-125942136D03*
%TD*%
D11*
%TO.C,TP2*%
X119890000Y-130920000D03*
%TD*%
D17*
%TO.C,SC3*%
X125000000Y-43980000D03*
X153284272Y-72264272D03*
%TD*%
D18*
%TO.C,R1*%
X164836005Y-65732575D03*
X166002731Y-66899301D03*
%TD*%
D13*
%TO.C,C2*%
X137128765Y-95263232D03*
X135785263Y-93919730D03*
%TD*%
D19*
%TO.C,U2*%
X139893554Y-92470160D03*
X139540000Y-92823714D03*
X139186447Y-93177267D03*
X138832894Y-93530820D03*
X138479340Y-93884374D03*
X141590610Y-96995644D03*
X141944164Y-96642090D03*
X142297717Y-96288537D03*
X142651270Y-95934984D03*
X143004824Y-95581430D03*
%TD*%
D20*
%TO.C,D3*%
X133978428Y-103318428D03*
X131150000Y-100490000D03*
%TD*%
D13*
%TO.C,C1*%
X164240000Y-71195441D03*
X162896498Y-69851939D03*
%TD*%
D21*
%TO.C,U1*%
X155819358Y-80333435D03*
X156717383Y-79435409D03*
X157615409Y-78537383D03*
X158513435Y-77639358D03*
%TD*%
D22*
%TO.C,SC4*%
X136824272Y-88734272D03*
X108540000Y-60450000D03*
%TD*%
D17*
%TO.C,SC6*%
X145755728Y-97665728D03*
X174040000Y-125950000D03*
%TD*%
D22*
%TO.C,SC2*%
X190462136Y-72342136D03*
X162177864Y-44057864D03*
%TD*%
D10*
%TO.C,D1*%
X184161572Y-122588428D03*
X186990000Y-119760000D03*
%TD*%
D22*
%TO.C,SC1*%
X190480000Y-109480000D03*
X162195728Y-81195728D03*
%TD*%
M02*
