%TF.GenerationSoftware,KiCad,Pcbnew,9.0.0*%
%TF.CreationDate,2025-09-21T20:44:38-07:00*%
%TF.ProjectId,Z_Face_V3,5a5f4661-6365-45f5-9633-2e6b69636164,3.1*%
%TF.SameCoordinates,Original*%
%TF.FileFunction,Soldermask,Top*%
%TF.FilePolarity,Negative*%
%FSLAX46Y46*%
G04 Gerber Fmt 4.6, Leading zero omitted, Abs format (unit mm)*
G04 Created by KiCad (PCBNEW 9.0.0) date 2025-09-21 20:44:38*
%MOMM*%
%LPD*%
G01*
G04 APERTURE LIST*
G04 Aperture macros list*
%AMRoundRect*
0 Rectangle with rounded corners*
0 $1 Rounding radius*
0 $2 $3 $4 $5 $6 $7 $8 $9 X,Y pos of 4 corners*
0 Add a 4 corners polygon primitive as box body*
4,1,4,$2,$3,$4,$5,$6,$7,$8,$9,$2,$3,0*
0 Add four circle primitives for the rounded corners*
1,1,$1+$1,$2,$3*
1,1,$1+$1,$4,$5*
1,1,$1+$1,$6,$7*
1,1,$1+$1,$8,$9*
0 Add four rect primitives between the rounded corners*
20,1,$1+$1,$2,$3,$4,$5,0*
20,1,$1+$1,$4,$5,$6,$7,0*
20,1,$1+$1,$6,$7,$8,$9,0*
20,1,$1+$1,$8,$9,$2,$3,0*%
%AMHorizOval*
0 Thick line with rounded ends*
0 $1 width*
0 $2 $3 position (X,Y) of the first rounded end (center of the circle)*
0 $4 $5 position (X,Y) of the second rounded end (center of the circle)*
0 Add line between two ends*
20,1,$1,$2,$3,$4,$5,0*
0 Add two circle primitives to create the rounded ends*
1,1,$1,$2,$3*
1,1,$1,$4,$5*%
%AMRotRect*
0 Rectangle, with rotation*
0 The origin of the aperture is its center*
0 $1 length*
0 $2 width*
0 $3 Rotation angle, in degrees counterclockwise*
0 Add horizontal line*
21,1,$1,$2,0,0,$3*%
G04 Aperture macros list end*
%ADD10C,5.250000*%
%ADD11RotRect,2.500000X1.700000X45.000000*%
%ADD12RoundRect,0.750000X0.750000X-0.750000X0.750000X0.750000X-0.750000X0.750000X-0.750000X-0.750000X0*%
%ADD13RoundRect,0.140000X-0.021213X0.219203X-0.219203X0.021213X0.021213X-0.219203X0.219203X-0.021213X0*%
%ADD14RoundRect,0.140000X0.219203X0.021213X0.021213X0.219203X-0.219203X-0.021213X-0.021213X-0.219203X0*%
%ADD15RoundRect,0.218750X0.335876X0.026517X0.026517X0.335876X-0.335876X-0.026517X-0.026517X-0.335876X0*%
%ADD16RoundRect,0.140000X0.140000X0.170000X-0.140000X0.170000X-0.140000X-0.170000X0.140000X-0.170000X0*%
%ADD17RoundRect,0.140000X0.021213X-0.219203X0.219203X-0.021213X-0.021213X0.219203X-0.219203X0.021213X0*%
%ADD18RoundRect,0.087500X0.238649X-0.114905X-0.114905X0.238649X-0.238649X0.114905X0.114905X-0.238649X0*%
%ADD19RotRect,13.000000X3.000000X45.000000*%
%ADD20RoundRect,0.140000X-0.219203X-0.021213X-0.021213X-0.219203X0.219203X0.021213X0.021213X0.219203X0*%
%ADD21RoundRect,0.075000X-0.512652X0.406586X0.406586X-0.512652X0.512652X-0.406586X-0.406586X0.512652X0*%
%ADD22RotRect,2.500000X1.700000X135.000000*%
%ADD23RotRect,1.600000X0.700000X225.000000*%
%ADD24RotRect,13.000000X3.000000X225.000000*%
%ADD25RoundRect,0.125000X0.574524X-0.397748X-0.397748X0.574524X-0.574524X0.397748X0.397748X-0.574524X0*%
%ADD26RoundRect,0.250000X0.159099X-0.654074X0.654074X-0.159099X-0.159099X0.654074X-0.654074X0.159099X0*%
%ADD27HorizOval,1.200000X-0.159099X0.159099X0.159099X-0.159099X0*%
%ADD28C,0.600000*%
G04 APERTURE END LIST*
D10*
%TO.C,J4*%
X110500000Y-85000000D03*
%TD*%
%TO.C,J5*%
X149500000Y-124000000D03*
%TD*%
%TO.C,J6*%
X149500000Y-46000000D03*
%TD*%
%TO.C,J7*%
X188500000Y-85000000D03*
%TD*%
D11*
%TO.C,D2*%
X112421572Y-50578428D03*
X115250000Y-47750000D03*
%TD*%
D12*
%TO.C,TP1*%
X113410000Y-130950000D03*
%TD*%
D13*
%TO.C,C5*%
X139000000Y-89700000D03*
X138321178Y-90378822D03*
%TD*%
D14*
%TO.C,C6*%
X137539411Y-97739411D03*
X136860589Y-97060589D03*
%TD*%
D15*
%TO.C,D4*%
X164656847Y-71756847D03*
X163543153Y-70643153D03*
%TD*%
D16*
%TO.C,C3*%
X138580000Y-91500000D03*
X137620000Y-91500000D03*
%TD*%
D17*
%TO.C,R2*%
X132800000Y-95800000D03*
X133478822Y-95121178D03*
%TD*%
D18*
%TO.C,U5*%
X138250260Y-97157367D03*
X138603814Y-96803814D03*
X138957367Y-96450260D03*
X137949740Y-95442633D03*
X137596186Y-95796186D03*
X137242633Y-96149740D03*
%TD*%
D19*
%TO.C,SC5*%
X108537864Y-97657864D03*
X136822136Y-125942136D03*
%TD*%
D14*
%TO.C,R4*%
X143439411Y-89139411D03*
X142760589Y-88460589D03*
%TD*%
D12*
%TO.C,TP2*%
X119890000Y-130920000D03*
%TD*%
D19*
%TO.C,SC3*%
X125000000Y-43980000D03*
X153284272Y-72264272D03*
%TD*%
D14*
%TO.C,R3*%
X139778822Y-99778822D03*
X139100000Y-99100000D03*
%TD*%
D20*
%TO.C,R1*%
X160896805Y-68053374D03*
X161575627Y-68732196D03*
%TD*%
D17*
%TO.C,C4*%
X145660589Y-93639411D03*
X146339411Y-92960589D03*
%TD*%
D13*
%TO.C,C2*%
X137139411Y-93160589D03*
X136460589Y-93839411D03*
%TD*%
D21*
%TO.C,U2*%
X139893554Y-92470160D03*
X139540000Y-92823714D03*
X139186447Y-93177267D03*
X138832894Y-93530820D03*
X138479340Y-93884374D03*
X141590610Y-96995644D03*
X141944164Y-96642090D03*
X142297717Y-96288537D03*
X142651270Y-95934984D03*
X143004824Y-95581430D03*
%TD*%
D22*
%TO.C,D3*%
X133978428Y-103318428D03*
X131150000Y-100490000D03*
%TD*%
D17*
%TO.C,C1*%
X136660589Y-95239411D03*
X137339411Y-94560589D03*
%TD*%
%TO.C,R5*%
X144360589Y-94939411D03*
X145039411Y-94260589D03*
%TD*%
D23*
%TO.C,U1*%
X137383435Y-99710642D03*
X136485409Y-98812617D03*
X135587383Y-97914591D03*
X134689358Y-97016565D03*
%TD*%
D24*
%TO.C,SC4*%
X136824272Y-88734272D03*
X108540000Y-60450000D03*
%TD*%
D19*
%TO.C,SC6*%
X145755728Y-97665728D03*
X174040000Y-125950000D03*
%TD*%
D24*
%TO.C,SC2*%
X190462136Y-72342136D03*
X162177864Y-44057864D03*
%TD*%
D11*
%TO.C,D1*%
X184161572Y-122588428D03*
X186990000Y-119760000D03*
%TD*%
D25*
%TO.C,U4*%
X143404334Y-93683192D03*
X143863953Y-93223573D03*
X144323573Y-92763953D03*
X144783192Y-92304334D03*
X141795666Y-89316808D03*
X141336047Y-89776427D03*
X140876427Y-90236047D03*
X140416808Y-90695666D03*
%TD*%
D24*
%TO.C,SC1*%
X190480000Y-109480000D03*
X162195728Y-81195728D03*
%TD*%
D26*
%TO.C,J2*%
X160692893Y-75921320D03*
D27*
X159278679Y-74507106D03*
X162107107Y-74507106D03*
X160692893Y-73092893D03*
X163521320Y-73092893D03*
X162107107Y-71678679D03*
%TD*%
D28*
%TO.C,REF\u002A\u002A*%
X149564000Y-62462780D03*
X149564000Y-105988780D03*
X149564000Y-119952780D03*
%TD*%
M02*
