%TF.GenerationSoftware,KiCad,Pcbnew,9.0.0*%
%TF.CreationDate,2025-09-21T20:44:38-07:00*%
%TF.ProjectId,Z_Face_V3,5a5f4661-6365-45f5-9633-2e6b69636164,3.1*%
%TF.SameCoordinates,Original*%
%TF.FileFunction,Copper,L3,Inr*%
%TF.FilePolarity,Positive*%
%FSLAX46Y46*%
G04 Gerber Fmt 4.6, Leading zero omitted, Abs format (unit mm)*
G04 Created by KiCad (PCBNEW 9.0.0) date 2025-09-21 20:44:38*
%MOMM*%
%LPD*%
G01*
G04 APERTURE LIST*
G04 Aperture macros list*
%AMRoundRect*
0 Rectangle with rounded corners*
0 $1 Rounding radius*
0 $2 $3 $4 $5 $6 $7 $8 $9 X,Y pos of 4 corners*
0 Add a 4 corners polygon primitive as box body*
4,1,4,$2,$3,$4,$5,$6,$7,$8,$9,$2,$3,0*
0 Add four circle primitives for the rounded corners*
1,1,$1+$1,$2,$3*
1,1,$1+$1,$4,$5*
1,1,$1+$1,$6,$7*
1,1,$1+$1,$8,$9*
0 Add four rect primitives between the rounded corners*
20,1,$1+$1,$2,$3,$4,$5,0*
20,1,$1+$1,$4,$5,$6,$7,0*
20,1,$1+$1,$6,$7,$8,$9,0*
20,1,$1+$1,$8,$9,$2,$3,0*%
%AMHorizOval*
0 Thick line with rounded ends*
0 $1 width*
0 $2 $3 position (X,Y) of the first rounded end (center of the circle)*
0 $4 $5 position (X,Y) of the second rounded end (center of the circle)*
0 Add line between two ends*
20,1,$1,$2,$3,$4,$5,0*
0 Add two circle primitives to create the rounded ends*
1,1,$1,$2,$3*
1,1,$1,$4,$5*%
G04 Aperture macros list end*
%TA.AperFunction,EtchedComponent*%
%ADD10C,0.127000*%
%TD*%
%TA.AperFunction,ComponentPad*%
%ADD11C,5.250000*%
%TD*%
%TA.AperFunction,ComponentPad*%
%ADD12RoundRect,0.250000X0.159099X-0.654074X0.654074X-0.159099X-0.159099X0.654074X-0.654074X0.159099X0*%
%TD*%
%TA.AperFunction,ComponentPad*%
%ADD13HorizOval,1.200000X-0.159099X0.159099X0.159099X-0.159099X0*%
%TD*%
%TA.AperFunction,ComponentPad*%
%ADD14C,0.600000*%
%TD*%
%TA.AperFunction,ViaPad*%
%ADD15C,0.800000*%
%TD*%
%TA.AperFunction,Conductor*%
%ADD16C,0.152400*%
%TD*%
%TA.AperFunction,Conductor*%
%ADD17C,0.250000*%
%TD*%
G04 APERTURE END LIST*
D10*
%TO.C,REF\u002A\u002A*%
X149564000Y-49352780D02*
G75*
G02*
X149564000Y-119098780I7578J-34873000D01*
G01*
X149564000Y-49606780D02*
G75*
G02*
X149564000Y-118844780I0J-34619000D01*
G01*
X149564000Y-49860780D02*
G75*
G02*
X149564000Y-118590780I0J-34365000D01*
G01*
X149564000Y-50114780D02*
G75*
G02*
X149564000Y-118336780I0J-34111000D01*
G01*
X149564000Y-50368780D02*
G75*
G02*
X149564000Y-118082780I0J-33857000D01*
G01*
X149564000Y-50622780D02*
G75*
G02*
X149564000Y-117828780I0J-33603000D01*
G01*
X149564000Y-50876780D02*
G75*
G02*
X149564000Y-117574780I0J-33349000D01*
G01*
X149564000Y-51130780D02*
G75*
G02*
X149564000Y-117320780I0J-33095000D01*
G01*
X149564000Y-51384780D02*
G75*
G02*
X149564000Y-117066780I0J-32841000D01*
G01*
X149564000Y-51638780D02*
G75*
G02*
X149564000Y-116812780I0J-32587000D01*
G01*
X149564000Y-51892780D02*
G75*
G02*
X149564000Y-116558780I0J-32333000D01*
G01*
X149564000Y-52146780D02*
G75*
G02*
X149564000Y-116304780I0J-32079000D01*
G01*
X149564000Y-52400780D02*
G75*
G02*
X149564000Y-116050780I0J-31825000D01*
G01*
X149564000Y-52654780D02*
G75*
G02*
X149564000Y-115796780I0J-31571000D01*
G01*
X149564000Y-52908780D02*
G75*
G02*
X149564000Y-115542780I0J-31317000D01*
G01*
X149564000Y-53162780D02*
G75*
G02*
X149564000Y-115288780I0J-31063000D01*
G01*
X149564000Y-53416780D02*
G75*
G02*
X149564000Y-115034780I0J-30809000D01*
G01*
X149564000Y-53670780D02*
G75*
G02*
X149564000Y-114780780I0J-30555000D01*
G01*
X149564000Y-53924780D02*
G75*
G02*
X149564000Y-114526780I0J-30301000D01*
G01*
X149564000Y-54178780D02*
G75*
G02*
X149564000Y-114272780I0J-30047000D01*
G01*
X149564000Y-54432780D02*
G75*
G02*
X149564000Y-114018780I0J-29793000D01*
G01*
X149564000Y-54686780D02*
G75*
G02*
X149564000Y-113764780I0J-29539000D01*
G01*
X149564000Y-54940780D02*
G75*
G02*
X149564000Y-113510780I0J-29285000D01*
G01*
X149564000Y-55194780D02*
G75*
G02*
X149564000Y-113256780I0J-29031000D01*
G01*
X149564000Y-55448780D02*
G75*
G02*
X149564000Y-113002780I0J-28777000D01*
G01*
X149564000Y-55702780D02*
G75*
G02*
X149564000Y-112748780I0J-28523000D01*
G01*
X149564000Y-55956780D02*
G75*
G02*
X149564000Y-112494780I0J-28269000D01*
G01*
X149564000Y-56210780D02*
G75*
G02*
X149564000Y-112240780I0J-28015000D01*
G01*
X149564000Y-56464780D02*
G75*
G02*
X149564000Y-111986780I0J-27761000D01*
G01*
X149564000Y-56718780D02*
G75*
G02*
X149564000Y-111732780I0J-27507000D01*
G01*
X149564000Y-56972780D02*
G75*
G02*
X149564000Y-111478780I0J-27253000D01*
G01*
X149564000Y-57226780D02*
G75*
G02*
X149564000Y-111224780I0J-26999000D01*
G01*
X149564000Y-57480780D02*
G75*
G02*
X149564000Y-110970780I0J-26745000D01*
G01*
X149564000Y-57734780D02*
G75*
G02*
X149564000Y-110716780I0J-26491000D01*
G01*
X149564000Y-57988780D02*
G75*
G02*
X149564000Y-110462780I0J-26237000D01*
G01*
X149564000Y-58242780D02*
G75*
G02*
X149564000Y-110208780I0J-25983000D01*
G01*
X149564000Y-58496780D02*
G75*
G02*
X149564000Y-109954780I0J-25729000D01*
G01*
X149564000Y-58750780D02*
G75*
G02*
X149564000Y-109700780I0J-25475000D01*
G01*
X149564000Y-59004780D02*
G75*
G02*
X149564000Y-109446780I0J-25221000D01*
G01*
X149564000Y-59258780D02*
G75*
G02*
X149564000Y-109192780I0J-24967000D01*
G01*
X149564000Y-59512780D02*
G75*
G02*
X149564000Y-108938780I0J-24713000D01*
G01*
X149564000Y-59766780D02*
G75*
G02*
X149564000Y-108684780I0J-24459000D01*
G01*
X149564000Y-60020780D02*
G75*
G02*
X149564000Y-108430780I0J-24205000D01*
G01*
X149564000Y-60274780D02*
G75*
G02*
X149564000Y-108176780I0J-23951000D01*
G01*
X149564000Y-60528780D02*
G75*
G02*
X149564000Y-107922780I0J-23697000D01*
G01*
X149564000Y-60782780D02*
G75*
G02*
X149564000Y-107668780I0J-23443000D01*
G01*
X149564000Y-61036780D02*
G75*
G02*
X149564000Y-107414780I0J-23189000D01*
G01*
X149564000Y-61290780D02*
G75*
G02*
X149564000Y-107160780I0J-22935000D01*
G01*
X149564000Y-61544780D02*
G75*
G02*
X149564000Y-106906780I0J-22681000D01*
G01*
X149564000Y-61798780D02*
G75*
G02*
X149564000Y-106652780I0J-22427000D01*
G01*
X149564000Y-106652780D02*
G75*
G02*
X149564000Y-62398780I-2034J22127000D01*
G01*
X149564000Y-106906780D02*
G75*
G02*
X149564000Y-61798780I0J22554000D01*
G01*
X149564000Y-107160780D02*
G75*
G02*
X149564000Y-61544780I0J22808000D01*
G01*
X149564000Y-107414780D02*
G75*
G02*
X149564000Y-61290780I0J23062000D01*
G01*
X149564000Y-107668780D02*
G75*
G02*
X149564000Y-61036780I0J23316000D01*
G01*
X149564000Y-107922780D02*
G75*
G02*
X149564000Y-60782780I0J23570000D01*
G01*
X149564000Y-108176780D02*
G75*
G02*
X149564000Y-60528780I0J23824000D01*
G01*
X149564000Y-108430780D02*
G75*
G02*
X149564000Y-60274780I0J24078000D01*
G01*
X149564000Y-108684780D02*
G75*
G02*
X149564000Y-60020780I0J24332000D01*
G01*
X149564000Y-108938780D02*
G75*
G02*
X149564000Y-59766780I0J24586000D01*
G01*
X149564000Y-109192780D02*
G75*
G02*
X149564000Y-59512780I0J24840000D01*
G01*
X149564000Y-109446780D02*
G75*
G02*
X149564000Y-59258780I0J25094000D01*
G01*
X149564000Y-109700780D02*
G75*
G02*
X149564000Y-59004780I0J25348000D01*
G01*
X149564000Y-109954780D02*
G75*
G02*
X149564000Y-58750780I0J25602000D01*
G01*
X149564000Y-110208780D02*
G75*
G02*
X149564000Y-58496780I0J25856000D01*
G01*
X149564000Y-110462780D02*
G75*
G02*
X149564000Y-58242780I0J26110000D01*
G01*
X149564000Y-110716780D02*
G75*
G02*
X149564000Y-57988780I0J26364000D01*
G01*
X149564000Y-110970780D02*
G75*
G02*
X149564000Y-57734780I0J26618000D01*
G01*
X149564000Y-111224780D02*
G75*
G02*
X149564000Y-57480780I0J26872000D01*
G01*
X149564000Y-111478780D02*
G75*
G02*
X149564000Y-57226780I0J27126000D01*
G01*
X149564000Y-111732780D02*
G75*
G02*
X149564000Y-56972780I0J27380000D01*
G01*
X149564000Y-111986780D02*
G75*
G02*
X149564000Y-56718780I0J27634000D01*
G01*
X149564000Y-112240780D02*
G75*
G02*
X149564000Y-56464780I0J27888000D01*
G01*
X149564000Y-112494780D02*
G75*
G02*
X149564000Y-56210780I0J28142000D01*
G01*
X149564000Y-112748780D02*
G75*
G02*
X149564000Y-55956780I0J28396000D01*
G01*
X149564000Y-113002780D02*
G75*
G02*
X149564000Y-55702780I0J28650000D01*
G01*
X149564000Y-113256780D02*
G75*
G02*
X149564000Y-55448780I0J28904000D01*
G01*
X149564000Y-113510780D02*
G75*
G02*
X149564000Y-55194780I0J29158000D01*
G01*
X149564000Y-113764780D02*
G75*
G02*
X149564000Y-54940780I0J29412000D01*
G01*
X149564000Y-114018780D02*
G75*
G02*
X149564000Y-54686780I0J29666000D01*
G01*
X149564000Y-114272780D02*
G75*
G02*
X149564000Y-54432780I0J29920000D01*
G01*
X149564000Y-114526780D02*
G75*
G02*
X149564000Y-54178780I0J30174000D01*
G01*
X149564000Y-114780780D02*
G75*
G02*
X149564000Y-53924780I0J30428000D01*
G01*
X149564000Y-115034780D02*
G75*
G02*
X149564000Y-53670780I0J30682000D01*
G01*
X149564000Y-115288780D02*
G75*
G02*
X149564000Y-53416780I0J30936000D01*
G01*
X149564000Y-115542780D02*
G75*
G02*
X149564000Y-53162780I0J31190000D01*
G01*
X149564000Y-115796780D02*
G75*
G02*
X149564000Y-52908780I0J31444000D01*
G01*
X149564000Y-116050780D02*
G75*
G02*
X149564000Y-52654780I0J31698000D01*
G01*
X149564000Y-116304780D02*
G75*
G02*
X149564000Y-52400780I0J31952000D01*
G01*
X149564000Y-116558780D02*
G75*
G02*
X149564000Y-52146780I0J32206000D01*
G01*
X149564000Y-116812780D02*
G75*
G02*
X149564000Y-51892780I0J32460000D01*
G01*
X149564000Y-117066780D02*
G75*
G02*
X149564000Y-51638780I0J32714000D01*
G01*
X149564000Y-117320780D02*
G75*
G02*
X149564000Y-51384780I0J32968000D01*
G01*
X149564000Y-117574780D02*
G75*
G02*
X149564000Y-51130780I0J33222000D01*
G01*
X149564000Y-117828780D02*
G75*
G02*
X149564000Y-50876780I0J33476000D01*
G01*
X149564000Y-118082780D02*
G75*
G02*
X149564000Y-50622780I0J33730000D01*
G01*
X149564000Y-118336780D02*
G75*
G02*
X149564000Y-50368780I0J33984000D01*
G01*
X149564000Y-118590780D02*
G75*
G02*
X149564000Y-50114780I0J34238000D01*
G01*
X149564000Y-118844780D02*
G75*
G02*
X149564000Y-49860780I0J34492000D01*
G01*
X149564000Y-119098780D02*
G75*
G02*
X149564000Y-49606780I0J34746000D01*
G01*
X149564000Y-119952780D02*
G75*
G02*
X149564000Y-49352780I-65215J35300000D01*
G01*
%TD*%
D11*
%TO.N,unconnected-(J4-Pin_1-Pad1)*%
%TO.C,J4*%
X110500000Y-85000000D03*
%TD*%
%TO.N,unconnected-(J5-Pin_1-Pad1)*%
%TO.C,J5*%
X149500000Y-124000000D03*
%TD*%
%TO.N,unconnected-(J6-Pin_1-Pad1)*%
%TO.C,J6*%
X149500000Y-46000000D03*
%TD*%
%TO.N,unconnected-(J7-Pin_1-Pad1)*%
%TO.C,J7*%
X188500000Y-85000000D03*
%TD*%
D12*
%TO.N,GND*%
%TO.C,J2*%
X160692893Y-75921320D03*
D13*
%TO.N,/SDAIN*%
X159278679Y-74507106D03*
%TO.N,VSOLAR*%
X162107107Y-74507106D03*
%TO.N,+3V3*%
X160692893Y-73092893D03*
%TO.N,VSOLAR*%
X163521320Y-73092893D03*
%TO.N,/SCLIN*%
X162107107Y-71678679D03*
%TD*%
D14*
%TO.N,*%
%TO.C,REF\u002A\u002A*%
X149564000Y-62462780D03*
X149564000Y-105988780D03*
X149564000Y-119952780D03*
%TD*%
D15*
%TO.N,/SDAIN*%
X148022739Y-79043745D03*
X152050002Y-78050002D03*
%TO.N,/SCLIN*%
X148724272Y-78026354D03*
X151250000Y-77450000D03*
%TO.N,+3V3*%
X141300000Y-75400000D03*
X139650000Y-73800000D03*
%TO.N,GND*%
X171630000Y-123540000D03*
X156400000Y-87900000D03*
X188500000Y-107500000D03*
X108700000Y-77900000D03*
X191700000Y-114800000D03*
X146300313Y-80450313D03*
X164540000Y-46420000D03*
X139200000Y-66200000D03*
X111400000Y-75200000D03*
X160900000Y-101600000D03*
X194000000Y-72600000D03*
X135200000Y-122700000D03*
X142000000Y-81700000D03*
X184500000Y-73700000D03*
X189800000Y-68600000D03*
X168900000Y-76500000D03*
X136450000Y-96750000D03*
X126600000Y-112600000D03*
X136704592Y-91823800D03*
X138208651Y-94845115D03*
X114700000Y-120600000D03*
X135976200Y-94528146D03*
X165550000Y-72650000D03*
X151750000Y-92950000D03*
X145700000Y-91550000D03*
X111040000Y-62950000D03*
X144850000Y-79200000D03*
X163750000Y-76250000D03*
X175000000Y-111000000D03*
X138750000Y-102000000D03*
X134700000Y-98900000D03*
X189000000Y-114900000D03*
X116700000Y-122800000D03*
X140802156Y-94889337D03*
X143674813Y-83075813D03*
X126300000Y-46300000D03*
X146900000Y-92400000D03*
X137700000Y-121700000D03*
X119890000Y-126760000D03*
X166300000Y-52200000D03*
X184500000Y-70900000D03*
X124600000Y-110800000D03*
X160100000Y-67050000D03*
X155135531Y-86635531D03*
X163200000Y-99500000D03*
X131400000Y-53100000D03*
X151135531Y-90600000D03*
X172300000Y-113300000D03*
%TO.N,+3V3*%
X139500000Y-91100000D03*
X160300000Y-68700000D03*
X144100000Y-89800000D03*
X140330122Y-99130122D03*
X139854705Y-95552837D03*
X132200000Y-96400000D03*
X135500000Y-99800000D03*
X143400000Y-95000000D03*
X135200000Y-95400000D03*
%TO.N,VSOLAR*%
X156100000Y-86200000D03*
X156107797Y-84313922D03*
%TO.N,Net-(U2-OUT+)*%
X141780000Y-94680000D03*
X147500000Y-120500000D03*
X143700000Y-104200000D03*
X139500000Y-97800000D03*
%TO.N,/SDAIN*%
X142900000Y-86630426D03*
%TO.N,/SCLIN*%
X143400000Y-91800000D03*
%TO.N,/SCL*%
X138500000Y-98700000D03*
X141200000Y-93200000D03*
X142658472Y-92470925D03*
%TD*%
D16*
%TO.N,/SCLIN*%
X149123646Y-78026354D02*
X148724272Y-78026354D01*
%TO.N,/SDAIN*%
X148022739Y-79043745D02*
X148266484Y-78800000D01*
X148266484Y-78800000D02*
X151300004Y-78800000D01*
X151300004Y-78800000D02*
X152050002Y-78050002D01*
%TO.N,/SCLIN*%
X149700000Y-77450000D02*
X151250000Y-77450000D01*
X149123646Y-78026354D02*
X149700000Y-77450000D01*
D17*
%TO.N,+3V3*%
X160692893Y-73092893D02*
X162092893Y-73092893D01*
X162092893Y-73092893D02*
X162700000Y-73700000D01*
X161000000Y-74750000D02*
X161000000Y-73400000D01*
X161000000Y-73400000D02*
X160692893Y-73092893D01*
%TD*%
%TA.AperFunction,Conductor*%
%TO.N,+3V3*%
G36*
X153633459Y-62444372D02*
G01*
X154154803Y-62543824D01*
X154170652Y-62546848D01*
X154173215Y-62547392D01*
X155074447Y-62758773D01*
X155076961Y-62759419D01*
X155968565Y-63008360D01*
X155971059Y-63009113D01*
X156851448Y-63295169D01*
X156853882Y-63296017D01*
X157493640Y-63533941D01*
X157721523Y-63618690D01*
X157723957Y-63619654D01*
X158577286Y-63978360D01*
X158579678Y-63979424D01*
X159417298Y-64373578D01*
X159419573Y-64374707D01*
X160019107Y-64688136D01*
X160239944Y-64803587D01*
X160242238Y-64804848D01*
X161043916Y-65267697D01*
X161046155Y-65269054D01*
X161827693Y-65765034D01*
X161829874Y-65766482D01*
X162590024Y-66294799D01*
X162592141Y-66296338D01*
X162770583Y-66431783D01*
X163329471Y-66856003D01*
X163331479Y-66857593D01*
X163659620Y-67129055D01*
X164044740Y-67447655D01*
X164046722Y-67449365D01*
X164734648Y-68068775D01*
X164736556Y-68070567D01*
X165397925Y-68718227D01*
X165399749Y-68720090D01*
X165844784Y-69194004D01*
X166033426Y-69394887D01*
X166035177Y-69396832D01*
X166640024Y-70097555D01*
X166641693Y-70099572D01*
X167216675Y-70825018D01*
X167218258Y-70827103D01*
X167762363Y-71576000D01*
X167763857Y-71578150D01*
X168276121Y-72349169D01*
X168277523Y-72351379D01*
X168374518Y-72511536D01*
X168749386Y-73130518D01*
X168757041Y-73143157D01*
X168758350Y-73145424D01*
X169204297Y-73956600D01*
X169205510Y-73958920D01*
X169617097Y-74788056D01*
X169618212Y-74790425D01*
X169994723Y-75636082D01*
X169995737Y-75638495D01*
X170336495Y-76499152D01*
X170337408Y-76501606D01*
X170641843Y-77375822D01*
X170642651Y-77378312D01*
X170910192Y-78264454D01*
X170910896Y-78266975D01*
X171141102Y-79163568D01*
X171141700Y-79166116D01*
X171165708Y-79279063D01*
X171295722Y-79890734D01*
X171334157Y-80071553D01*
X171334648Y-80074125D01*
X171489026Y-80986861D01*
X171489408Y-80989451D01*
X171605423Y-81907807D01*
X171605697Y-81910410D01*
X171683157Y-82832858D01*
X171683321Y-82835471D01*
X171710141Y-83475369D01*
X171721833Y-83754344D01*
X171722084Y-83760320D01*
X171722139Y-83762937D01*
X171722139Y-84688622D01*
X171722084Y-84691239D01*
X171683321Y-85616088D01*
X171683157Y-85618701D01*
X171605697Y-86541149D01*
X171605423Y-86543752D01*
X171489408Y-87462108D01*
X171489026Y-87464698D01*
X171334648Y-88377434D01*
X171334157Y-88380006D01*
X171141700Y-89285443D01*
X171141102Y-89287991D01*
X170910896Y-90184584D01*
X170910192Y-90187105D01*
X170642651Y-91073247D01*
X170641843Y-91075737D01*
X170337408Y-91949953D01*
X170336495Y-91952407D01*
X169995737Y-92813064D01*
X169994723Y-92815477D01*
X169618212Y-93661134D01*
X169617097Y-93663503D01*
X169205510Y-94492639D01*
X169204297Y-94494959D01*
X168758350Y-95306135D01*
X168757041Y-95308402D01*
X168277523Y-96100180D01*
X168276121Y-96102390D01*
X167763857Y-96873409D01*
X167762363Y-96875559D01*
X167218258Y-97624456D01*
X167216675Y-97626541D01*
X166641693Y-98351987D01*
X166640024Y-98354004D01*
X166035177Y-99054727D01*
X166033426Y-99056672D01*
X165399757Y-99731461D01*
X165397925Y-99733332D01*
X164736556Y-100380992D01*
X164734648Y-100382784D01*
X164046722Y-101002194D01*
X164044740Y-101003904D01*
X163331501Y-101593948D01*
X163329449Y-101595574D01*
X162592141Y-102155221D01*
X162590024Y-102156760D01*
X161829874Y-102685077D01*
X161827693Y-102686525D01*
X161046155Y-103182505D01*
X161043916Y-103183862D01*
X160242238Y-103646711D01*
X160239944Y-103647972D01*
X159419608Y-104076834D01*
X159417263Y-104077998D01*
X158579677Y-104472135D01*
X158577286Y-104473199D01*
X157723957Y-104831905D01*
X157721523Y-104832869D01*
X156853901Y-105155535D01*
X156851429Y-105156396D01*
X155971065Y-105442444D01*
X155968559Y-105443201D01*
X155076972Y-105692137D01*
X155074436Y-105692788D01*
X154173213Y-105904167D01*
X154170652Y-105904711D01*
X153261392Y-106078162D01*
X153258811Y-106078599D01*
X152343053Y-106213827D01*
X152340456Y-106214155D01*
X151419852Y-106310914D01*
X151417243Y-106311133D01*
X150493382Y-106369257D01*
X150490767Y-106369366D01*
X150026130Y-106379099D01*
X149981562Y-106361723D01*
X149962335Y-106317922D01*
X149970694Y-106285364D01*
X150030392Y-106181966D01*
X150064500Y-106054672D01*
X150064500Y-105922888D01*
X150030392Y-105795594D01*
X149964500Y-105681466D01*
X149964498Y-105681464D01*
X149964495Y-105681460D01*
X149871319Y-105588284D01*
X149871315Y-105588281D01*
X149871314Y-105588280D01*
X149793935Y-105543605D01*
X149757185Y-105522387D01*
X149757182Y-105522386D01*
X149629898Y-105488281D01*
X149629893Y-105488280D01*
X149629892Y-105488280D01*
X149498108Y-105488280D01*
X149498107Y-105488280D01*
X149498101Y-105488281D01*
X149370817Y-105522386D01*
X149370814Y-105522387D01*
X149256684Y-105588281D01*
X149256680Y-105588284D01*
X149163504Y-105681460D01*
X149163501Y-105681464D01*
X149097607Y-105795594D01*
X149097606Y-105795597D01*
X149063501Y-105922881D01*
X149063500Y-105922889D01*
X149063500Y-106054670D01*
X149063501Y-106054678D01*
X149097606Y-106181962D01*
X149097607Y-106181965D01*
X149097608Y-106181966D01*
X149157253Y-106285274D01*
X149163496Y-106332699D01*
X149134376Y-106370650D01*
X149101805Y-106379009D01*
X148637363Y-106369191D01*
X148634712Y-106369079D01*
X147747334Y-106312572D01*
X147711067Y-106310262D01*
X147708424Y-106310038D01*
X146804600Y-106213827D01*
X146788122Y-106212072D01*
X146785491Y-106211736D01*
X145870184Y-106074799D01*
X145867569Y-106074351D01*
X144958884Y-105898687D01*
X144956290Y-105898128D01*
X144055894Y-105684056D01*
X144053327Y-105683388D01*
X143162812Y-105431288D01*
X143160275Y-105430511D01*
X142328457Y-105156396D01*
X142281268Y-105140845D01*
X142278771Y-105139963D01*
X141412860Y-104813253D01*
X141410398Y-104812264D01*
X141286903Y-104759578D01*
X140559114Y-104449085D01*
X140556715Y-104448001D01*
X140245523Y-104299326D01*
X139981617Y-104173241D01*
X139872155Y-104120944D01*
X143099500Y-104120944D01*
X143099500Y-104279055D01*
X143099501Y-104279063D01*
X143140421Y-104431780D01*
X143140422Y-104431783D01*
X143163719Y-104472135D01*
X143219480Y-104568716D01*
X143331284Y-104680520D01*
X143468216Y-104759577D01*
X143468219Y-104759578D01*
X143561681Y-104784621D01*
X143620943Y-104800500D01*
X143620944Y-104800500D01*
X143779056Y-104800500D01*
X143779057Y-104800500D01*
X143931784Y-104759577D01*
X144068716Y-104680520D01*
X144180520Y-104568716D01*
X144259577Y-104431784D01*
X144300500Y-104279057D01*
X144300500Y-104120943D01*
X144259577Y-103968216D01*
X144180520Y-103831284D01*
X144068716Y-103719480D01*
X143972464Y-103663909D01*
X143931783Y-103640422D01*
X143931780Y-103640421D01*
X143779063Y-103599501D01*
X143779058Y-103599500D01*
X143779057Y-103599500D01*
X143620943Y-103599500D01*
X143620942Y-103599500D01*
X143620936Y-103599501D01*
X143468219Y-103640421D01*
X143468216Y-103640422D01*
X143371964Y-103695993D01*
X143331284Y-103719480D01*
X143331283Y-103719481D01*
X143331279Y-103719484D01*
X143219484Y-103831279D01*
X143219481Y-103831283D01*
X143140422Y-103968216D01*
X143140421Y-103968219D01*
X143099501Y-104120936D01*
X143099500Y-104120944D01*
X139872155Y-104120944D01*
X139721635Y-104049031D01*
X139719266Y-104047837D01*
X138901844Y-103613766D01*
X138899527Y-103612472D01*
X138101287Y-103144112D01*
X138099028Y-103142721D01*
X137321390Y-102640905D01*
X137319191Y-102639419D01*
X136563553Y-102105048D01*
X136561420Y-102103471D01*
X136383938Y-101966299D01*
X136325255Y-101920944D01*
X138149500Y-101920944D01*
X138149500Y-102079055D01*
X138149501Y-102079063D01*
X138190421Y-102231780D01*
X138190422Y-102231783D01*
X138190423Y-102231784D01*
X138269480Y-102368716D01*
X138381284Y-102480520D01*
X138518216Y-102559577D01*
X138518219Y-102559578D01*
X138611681Y-102584621D01*
X138670943Y-102600500D01*
X138670944Y-102600500D01*
X138829056Y-102600500D01*
X138829057Y-102600500D01*
X138981784Y-102559577D01*
X139118716Y-102480520D01*
X139230520Y-102368716D01*
X139309577Y-102231784D01*
X139350500Y-102079057D01*
X139350500Y-101920943D01*
X139309577Y-101768216D01*
X139230520Y-101631284D01*
X139120180Y-101520944D01*
X160299500Y-101520944D01*
X160299500Y-101679055D01*
X160299501Y-101679063D01*
X160340421Y-101831780D01*
X160340422Y-101831783D01*
X160340423Y-101831784D01*
X160419480Y-101968716D01*
X160531284Y-102080520D01*
X160660671Y-102155221D01*
X160668216Y-102159577D01*
X160668219Y-102159578D01*
X160761681Y-102184621D01*
X160820943Y-102200500D01*
X160820944Y-102200500D01*
X160979056Y-102200500D01*
X160979057Y-102200500D01*
X161131784Y-102159577D01*
X161268716Y-102080520D01*
X161380520Y-101968716D01*
X161459577Y-101831784D01*
X161500500Y-101679057D01*
X161500500Y-101520943D01*
X161459577Y-101368216D01*
X161380520Y-101231284D01*
X161268716Y-101119480D01*
X161172464Y-101063909D01*
X161131783Y-101040422D01*
X161131780Y-101040421D01*
X160979063Y-100999501D01*
X160979058Y-100999500D01*
X160979057Y-100999500D01*
X160820943Y-100999500D01*
X160820942Y-100999500D01*
X160820936Y-100999501D01*
X160668219Y-101040421D01*
X160668216Y-101040422D01*
X160571964Y-101095993D01*
X160531284Y-101119480D01*
X160531283Y-101119481D01*
X160531279Y-101119484D01*
X160419484Y-101231279D01*
X160419481Y-101231283D01*
X160340422Y-101368216D01*
X160340421Y-101368219D01*
X160299501Y-101520936D01*
X160299500Y-101520944D01*
X139120180Y-101520944D01*
X139118716Y-101519480D01*
X139022464Y-101463909D01*
X138981783Y-101440422D01*
X138981780Y-101440421D01*
X138829063Y-101399501D01*
X138829058Y-101399500D01*
X138829057Y-101399500D01*
X138670943Y-101399500D01*
X138670942Y-101399500D01*
X138670936Y-101399501D01*
X138518219Y-101440421D01*
X138518216Y-101440422D01*
X138421964Y-101495993D01*
X138381284Y-101519480D01*
X138381283Y-101519481D01*
X138381279Y-101519484D01*
X138269484Y-101631279D01*
X138269481Y-101631283D01*
X138190422Y-101768216D01*
X138190421Y-101768219D01*
X138149501Y-101920936D01*
X138149500Y-101920944D01*
X136325255Y-101920944D01*
X135829134Y-101537504D01*
X135827069Y-101535837D01*
X135465807Y-101231279D01*
X135119446Y-100939283D01*
X135117463Y-100937537D01*
X134435833Y-100311518D01*
X134433917Y-100309682D01*
X133779462Y-99655287D01*
X133777626Y-99653372D01*
X133151505Y-98971755D01*
X133149788Y-98969805D01*
X133024269Y-98820944D01*
X134099500Y-98820944D01*
X134099500Y-98979055D01*
X134099501Y-98979063D01*
X134140421Y-99131780D01*
X134140422Y-99131783D01*
X134140423Y-99131784D01*
X134219480Y-99268716D01*
X134331284Y-99380520D01*
X134468216Y-99459577D01*
X134468219Y-99459578D01*
X134561681Y-99484621D01*
X134620943Y-99500500D01*
X134620944Y-99500500D01*
X134779056Y-99500500D01*
X134779057Y-99500500D01*
X134931784Y-99459577D01*
X134998699Y-99420944D01*
X162599500Y-99420944D01*
X162599500Y-99579055D01*
X162599501Y-99579063D01*
X162640421Y-99731780D01*
X162640422Y-99731783D01*
X162663909Y-99772464D01*
X162719480Y-99868716D01*
X162831284Y-99980520D01*
X162968216Y-100059577D01*
X162968219Y-100059578D01*
X163061681Y-100084621D01*
X163120943Y-100100500D01*
X163120944Y-100100500D01*
X163279056Y-100100500D01*
X163279057Y-100100500D01*
X163431784Y-100059577D01*
X163568716Y-99980520D01*
X163680520Y-99868716D01*
X163759577Y-99731784D01*
X163800500Y-99579057D01*
X163800500Y-99420943D01*
X163784621Y-99361681D01*
X163759578Y-99268219D01*
X163759577Y-99268216D01*
X163754589Y-99259577D01*
X163680520Y-99131284D01*
X163568716Y-99019480D01*
X163472464Y-98963909D01*
X163431783Y-98940422D01*
X163431780Y-98940421D01*
X163279063Y-98899501D01*
X163279058Y-98899500D01*
X163279057Y-98899500D01*
X163120943Y-98899500D01*
X163120942Y-98899500D01*
X163120936Y-98899501D01*
X162968219Y-98940421D01*
X162968216Y-98940422D01*
X162871964Y-98995993D01*
X162831284Y-99019480D01*
X162831283Y-99019481D01*
X162831279Y-99019484D01*
X162719484Y-99131279D01*
X162719481Y-99131283D01*
X162719480Y-99131284D01*
X162695993Y-99171964D01*
X162640422Y-99268216D01*
X162640421Y-99268219D01*
X162599501Y-99420936D01*
X162599500Y-99420944D01*
X134998699Y-99420944D01*
X135068716Y-99380520D01*
X135180520Y-99268716D01*
X135259577Y-99131784D01*
X135300500Y-98979057D01*
X135300500Y-98820943D01*
X135259577Y-98668216D01*
X135232285Y-98620944D01*
X137899500Y-98620944D01*
X137899500Y-98779055D01*
X137899501Y-98779063D01*
X137940421Y-98931780D01*
X137940422Y-98931783D01*
X137962362Y-98969784D01*
X138019480Y-99068716D01*
X138131284Y-99180520D01*
X138268216Y-99259577D01*
X138268219Y-99259578D01*
X138300457Y-99268216D01*
X138420943Y-99300500D01*
X138420944Y-99300500D01*
X138579056Y-99300500D01*
X138579057Y-99300500D01*
X138731784Y-99259577D01*
X138868716Y-99180520D01*
X138980520Y-99068716D01*
X139059577Y-98931784D01*
X139100500Y-98779057D01*
X139100500Y-98620943D01*
X139059577Y-98468216D01*
X138980520Y-98331284D01*
X138868716Y-98219480D01*
X138772464Y-98163909D01*
X138731783Y-98140422D01*
X138731780Y-98140421D01*
X138579063Y-98099501D01*
X138579058Y-98099500D01*
X138579057Y-98099500D01*
X138420943Y-98099500D01*
X138420942Y-98099500D01*
X138420936Y-98099501D01*
X138268219Y-98140421D01*
X138268216Y-98140422D01*
X138171964Y-98195993D01*
X138131284Y-98219480D01*
X138131283Y-98219481D01*
X138131279Y-98219484D01*
X138019484Y-98331279D01*
X138019481Y-98331283D01*
X138019480Y-98331284D01*
X138014204Y-98340423D01*
X137940422Y-98468216D01*
X137940421Y-98468219D01*
X137899501Y-98620936D01*
X137899500Y-98620944D01*
X135232285Y-98620944D01*
X135180520Y-98531284D01*
X135068716Y-98419480D01*
X134964960Y-98359577D01*
X134931783Y-98340422D01*
X134931780Y-98340421D01*
X134779063Y-98299501D01*
X134779058Y-98299500D01*
X134779057Y-98299500D01*
X134620943Y-98299500D01*
X134620942Y-98299500D01*
X134620936Y-98299501D01*
X134468219Y-98340421D01*
X134468216Y-98340422D01*
X134371964Y-98395993D01*
X134331284Y-98419480D01*
X134331283Y-98419481D01*
X134331279Y-98419484D01*
X134219484Y-98531279D01*
X134219481Y-98531283D01*
X134140422Y-98668216D01*
X134140421Y-98668219D01*
X134099501Y-98820936D01*
X134099500Y-98820944D01*
X133024269Y-98820944D01*
X132553168Y-98262236D01*
X132551510Y-98260183D01*
X132520046Y-98219481D01*
X132134665Y-97720944D01*
X138899500Y-97720944D01*
X138899500Y-97879055D01*
X138899501Y-97879063D01*
X138940421Y-98031780D01*
X138940422Y-98031783D01*
X138940423Y-98031784D01*
X139019480Y-98168716D01*
X139131284Y-98280520D01*
X139255070Y-98351987D01*
X139268216Y-98359577D01*
X139268219Y-98359578D01*
X139361681Y-98384621D01*
X139420943Y-98400500D01*
X139420944Y-98400500D01*
X139579056Y-98400500D01*
X139579057Y-98400500D01*
X139731784Y-98359577D01*
X139868716Y-98280520D01*
X139980520Y-98168716D01*
X140059577Y-98031784D01*
X140100500Y-97879057D01*
X140100500Y-97720943D01*
X140074929Y-97625510D01*
X140059578Y-97568219D01*
X140059577Y-97568216D01*
X140036325Y-97527942D01*
X139980520Y-97431284D01*
X139868716Y-97319480D01*
X139764217Y-97259148D01*
X139731783Y-97240422D01*
X139731780Y-97240421D01*
X139579063Y-97199501D01*
X139579058Y-97199500D01*
X139579057Y-97199500D01*
X139420943Y-97199500D01*
X139420942Y-97199500D01*
X139420936Y-97199501D01*
X139268219Y-97240421D01*
X139268216Y-97240422D01*
X139171964Y-97295993D01*
X139131284Y-97319480D01*
X139131283Y-97319481D01*
X139131279Y-97319484D01*
X139019484Y-97431279D01*
X139019481Y-97431283D01*
X138940422Y-97568216D01*
X138940421Y-97568219D01*
X138899501Y-97720936D01*
X138899500Y-97720944D01*
X132134665Y-97720944D01*
X131985464Y-97527934D01*
X131983892Y-97525808D01*
X131449445Y-96770208D01*
X131447984Y-96768046D01*
X131385311Y-96670944D01*
X135849500Y-96670944D01*
X135849500Y-96829055D01*
X135849501Y-96829063D01*
X135890421Y-96981780D01*
X135890422Y-96981783D01*
X135890423Y-96981784D01*
X135969480Y-97118716D01*
X136081284Y-97230520D01*
X136218216Y-97309577D01*
X136218219Y-97309578D01*
X136311681Y-97334621D01*
X136370943Y-97350500D01*
X136370944Y-97350500D01*
X136529056Y-97350500D01*
X136529057Y-97350500D01*
X136681784Y-97309577D01*
X136818716Y-97230520D01*
X136930520Y-97118716D01*
X137009577Y-96981784D01*
X137050500Y-96829057D01*
X137050500Y-96670943D01*
X137009577Y-96518216D01*
X136930520Y-96381284D01*
X136818716Y-96269480D01*
X136722464Y-96213909D01*
X136681783Y-96190422D01*
X136681780Y-96190421D01*
X136529063Y-96149501D01*
X136529058Y-96149500D01*
X136529057Y-96149500D01*
X136370943Y-96149500D01*
X136370942Y-96149500D01*
X136370936Y-96149501D01*
X136218219Y-96190421D01*
X136218216Y-96190422D01*
X136121964Y-96245993D01*
X136081284Y-96269480D01*
X136081283Y-96269481D01*
X136081279Y-96269484D01*
X135969484Y-96381279D01*
X135969481Y-96381283D01*
X135890422Y-96518216D01*
X135890421Y-96518219D01*
X135849501Y-96670936D01*
X135849500Y-96670944D01*
X131385311Y-96670944D01*
X130946076Y-95990423D01*
X130944686Y-95988165D01*
X130652235Y-95489837D01*
X130476241Y-95189948D01*
X130474969Y-95187672D01*
X130082677Y-94449090D01*
X135375700Y-94449090D01*
X135375700Y-94607201D01*
X135375701Y-94607209D01*
X135416621Y-94759926D01*
X135416622Y-94759929D01*
X135440109Y-94800610D01*
X135495680Y-94896862D01*
X135607484Y-95008666D01*
X135725668Y-95076899D01*
X135744416Y-95087723D01*
X135744419Y-95087724D01*
X135837881Y-95112767D01*
X135897143Y-95128646D01*
X135897144Y-95128646D01*
X136055256Y-95128646D01*
X136055257Y-95128646D01*
X136207984Y-95087723D01*
X136344916Y-95008666D01*
X136456720Y-94896862D01*
X136532238Y-94766059D01*
X137608151Y-94766059D01*
X137608151Y-94924170D01*
X137608152Y-94924178D01*
X137649072Y-95076895D01*
X137649073Y-95076898D01*
X137659680Y-95095270D01*
X137728131Y-95213831D01*
X137839935Y-95325635D01*
X137976867Y-95404692D01*
X137976870Y-95404693D01*
X138070332Y-95429736D01*
X138129594Y-95445615D01*
X138129595Y-95445615D01*
X138287707Y-95445615D01*
X138287708Y-95445615D01*
X138440435Y-95404692D01*
X138577367Y-95325635D01*
X138689171Y-95213831D01*
X138768228Y-95076899D01*
X138809151Y-94924172D01*
X138809151Y-94810281D01*
X140201656Y-94810281D01*
X140201656Y-94968392D01*
X140201657Y-94968400D01*
X140242577Y-95121117D01*
X140242578Y-95121120D01*
X140261688Y-95154219D01*
X140321636Y-95258053D01*
X140433440Y-95369857D01*
X140564658Y-95445615D01*
X140570372Y-95448914D01*
X140570375Y-95448915D01*
X140663837Y-95473958D01*
X140723099Y-95489837D01*
X140723100Y-95489837D01*
X140881212Y-95489837D01*
X140881213Y-95489837D01*
X141033940Y-95448914D01*
X141170872Y-95369857D01*
X141282676Y-95258053D01*
X141325812Y-95183338D01*
X141363760Y-95154219D01*
X141411186Y-95160462D01*
X141411187Y-95160463D01*
X141411281Y-95160517D01*
X141411284Y-95160520D01*
X141476777Y-95198332D01*
X141548210Y-95239574D01*
X141548213Y-95239575D01*
X141548216Y-95239577D01*
X141548217Y-95239577D01*
X141548219Y-95239578D01*
X141617162Y-95258051D01*
X141700943Y-95280500D01*
X141700944Y-95280500D01*
X141859056Y-95280500D01*
X141859057Y-95280500D01*
X142011784Y-95239577D01*
X142148716Y-95160520D01*
X142260520Y-95048716D01*
X142339577Y-94911784D01*
X142380500Y-94759057D01*
X142380500Y-94600943D01*
X142358978Y-94520620D01*
X142339578Y-94448219D01*
X142339577Y-94448216D01*
X142316832Y-94408821D01*
X142260520Y-94311284D01*
X142148716Y-94199480D01*
X142052464Y-94143909D01*
X142011783Y-94120422D01*
X142011780Y-94120421D01*
X141859063Y-94079501D01*
X141859058Y-94079500D01*
X141859057Y-94079500D01*
X141700943Y-94079500D01*
X141700942Y-94079500D01*
X141700936Y-94079501D01*
X141548219Y-94120421D01*
X141548216Y-94120422D01*
X141480653Y-94159430D01*
X141411284Y-94199480D01*
X141411283Y-94199481D01*
X141411279Y-94199484D01*
X141299484Y-94311279D01*
X141299477Y-94311288D01*
X141256344Y-94385997D01*
X141218394Y-94415117D01*
X141170968Y-94408874D01*
X141170875Y-94408820D01*
X141170872Y-94408817D01*
X141062932Y-94346498D01*
X141033939Y-94329759D01*
X141033936Y-94329758D01*
X140881219Y-94288838D01*
X140881214Y-94288837D01*
X140881213Y-94288837D01*
X140723099Y-94288837D01*
X140723098Y-94288837D01*
X140723092Y-94288838D01*
X140570375Y-94329758D01*
X140570372Y-94329759D01*
X140474120Y-94385330D01*
X140433440Y-94408817D01*
X140433439Y-94408818D01*
X140433435Y-94408821D01*
X140321640Y-94520616D01*
X140321637Y-94520620D01*
X140242578Y-94657553D01*
X140242577Y-94657556D01*
X140201657Y-94810273D01*
X140201656Y-94810281D01*
X138809151Y-94810281D01*
X138809151Y-94766058D01*
X138768228Y-94613331D01*
X138689171Y-94476399D01*
X138577367Y-94364595D01*
X138446151Y-94288838D01*
X138440434Y-94285537D01*
X138440431Y-94285536D01*
X138287714Y-94244616D01*
X138287709Y-94244615D01*
X138287708Y-94244615D01*
X138129594Y-94244615D01*
X138129593Y-94244615D01*
X138129587Y-94244616D01*
X137976870Y-94285536D01*
X137976867Y-94285537D01*
X137880615Y-94341108D01*
X137839935Y-94364595D01*
X137839934Y-94364596D01*
X137839930Y-94364599D01*
X137728135Y-94476394D01*
X137728132Y-94476398D01*
X137728131Y-94476399D01*
X137704644Y-94517079D01*
X137649073Y-94613331D01*
X137649072Y-94613334D01*
X137608152Y-94766051D01*
X137608151Y-94766059D01*
X136532238Y-94766059D01*
X136535777Y-94759930D01*
X136576700Y-94607203D01*
X136576700Y-94449089D01*
X136544726Y-94329759D01*
X136535778Y-94296365D01*
X136535777Y-94296362D01*
X136529527Y-94285536D01*
X136456720Y-94159430D01*
X136344916Y-94047626D01*
X136248664Y-93992055D01*
X136207983Y-93968568D01*
X136207980Y-93968567D01*
X136055263Y-93927647D01*
X136055258Y-93927646D01*
X136055257Y-93927646D01*
X135897143Y-93927646D01*
X135897142Y-93927646D01*
X135897136Y-93927647D01*
X135744419Y-93968567D01*
X135744416Y-93968568D01*
X135648164Y-94024139D01*
X135607484Y-94047626D01*
X135607483Y-94047627D01*
X135607479Y-94047630D01*
X135495684Y-94159425D01*
X135495681Y-94159429D01*
X135416622Y-94296362D01*
X135416621Y-94296365D01*
X135375701Y-94449082D01*
X135375700Y-94449090D01*
X130082677Y-94449090D01*
X130040822Y-94370288D01*
X130039636Y-94367938D01*
X129640573Y-93532860D01*
X129639487Y-93530458D01*
X129630577Y-93509578D01*
X129464734Y-93120944D01*
X140599500Y-93120944D01*
X140599500Y-93279055D01*
X140599501Y-93279063D01*
X140640421Y-93431780D01*
X140640422Y-93431783D01*
X140640423Y-93431784D01*
X140719480Y-93568716D01*
X140831284Y-93680520D01*
X140968216Y-93759577D01*
X140968219Y-93759578D01*
X141061681Y-93784621D01*
X141120943Y-93800500D01*
X141120944Y-93800500D01*
X141279056Y-93800500D01*
X141279057Y-93800500D01*
X141431784Y-93759577D01*
X141568716Y-93680520D01*
X141680520Y-93568716D01*
X141759577Y-93431784D01*
X141800500Y-93279057D01*
X141800500Y-93120943D01*
X141776267Y-93030503D01*
X141759578Y-92968219D01*
X141759577Y-92968216D01*
X141745390Y-92943644D01*
X141680520Y-92831284D01*
X141568716Y-92719480D01*
X141472464Y-92663909D01*
X141431783Y-92640422D01*
X141431780Y-92640421D01*
X141279063Y-92599501D01*
X141279058Y-92599500D01*
X141279057Y-92599500D01*
X141120943Y-92599500D01*
X141120942Y-92599500D01*
X141120936Y-92599501D01*
X140968219Y-92640421D01*
X140968216Y-92640422D01*
X140901041Y-92679206D01*
X140831284Y-92719480D01*
X140831283Y-92719481D01*
X140831279Y-92719484D01*
X140719484Y-92831279D01*
X140719481Y-92831283D01*
X140719480Y-92831284D01*
X140695993Y-92871964D01*
X140640422Y-92968216D01*
X140640421Y-92968219D01*
X140599501Y-93120936D01*
X140599500Y-93120944D01*
X129464734Y-93120944D01*
X129276227Y-92679198D01*
X129275242Y-92676744D01*
X129261533Y-92640421D01*
X128948453Y-91810864D01*
X128947569Y-91808362D01*
X128931697Y-91760214D01*
X128926597Y-91744744D01*
X136104092Y-91744744D01*
X136104092Y-91902855D01*
X136104093Y-91902863D01*
X136145013Y-92055580D01*
X136145014Y-92055583D01*
X136145015Y-92055584D01*
X136224072Y-92192516D01*
X136335876Y-92304320D01*
X136431587Y-92359578D01*
X136472808Y-92383377D01*
X136472811Y-92383378D01*
X136536712Y-92400500D01*
X136625535Y-92424300D01*
X136625536Y-92424300D01*
X136783648Y-92424300D01*
X136783649Y-92424300D01*
X136904683Y-92391869D01*
X142057972Y-92391869D01*
X142057972Y-92549980D01*
X142057973Y-92549988D01*
X142098893Y-92702705D01*
X142098894Y-92702708D01*
X142108578Y-92719481D01*
X142177952Y-92839641D01*
X142289756Y-92951445D01*
X142374723Y-93000500D01*
X142426688Y-93030502D01*
X142426691Y-93030503D01*
X142454510Y-93037957D01*
X142579415Y-93071425D01*
X142579416Y-93071425D01*
X142737528Y-93071425D01*
X142737529Y-93071425D01*
X142890256Y-93030502D01*
X143027188Y-92951445D01*
X143138992Y-92839641D01*
X143218049Y-92702709D01*
X143258972Y-92549982D01*
X143258972Y-92463000D01*
X143277278Y-92418806D01*
X143321472Y-92400500D01*
X143479056Y-92400500D01*
X143479057Y-92400500D01*
X143631784Y-92359577D01*
X143698699Y-92320944D01*
X146299500Y-92320944D01*
X146299500Y-92479055D01*
X146299501Y-92479063D01*
X146340421Y-92631780D01*
X146340422Y-92631783D01*
X146363909Y-92672464D01*
X146419480Y-92768716D01*
X146531284Y-92880520D01*
X146654131Y-92951445D01*
X146668216Y-92959577D01*
X146668219Y-92959578D01*
X146700457Y-92968216D01*
X146820943Y-93000500D01*
X146820944Y-93000500D01*
X146979056Y-93000500D01*
X146979057Y-93000500D01*
X147131784Y-92959577D01*
X147268716Y-92880520D01*
X147278292Y-92870944D01*
X151149500Y-92870944D01*
X151149500Y-93029055D01*
X151149501Y-93029063D01*
X151190421Y-93181780D01*
X151190422Y-93181783D01*
X151190423Y-93181784D01*
X151269480Y-93318716D01*
X151381284Y-93430520D01*
X151518216Y-93509577D01*
X151518219Y-93509578D01*
X151596145Y-93530458D01*
X151670943Y-93550500D01*
X151670944Y-93550500D01*
X151829056Y-93550500D01*
X151829057Y-93550500D01*
X151981784Y-93509577D01*
X152118716Y-93430520D01*
X152230520Y-93318716D01*
X152309577Y-93181784D01*
X152350500Y-93029057D01*
X152350500Y-92870943D01*
X152327263Y-92784222D01*
X152309578Y-92718219D01*
X152309577Y-92718216D01*
X152300624Y-92702709D01*
X152230520Y-92581284D01*
X152118716Y-92469480D01*
X151984289Y-92391869D01*
X151981783Y-92390422D01*
X151981780Y-92390421D01*
X151829063Y-92349501D01*
X151829058Y-92349500D01*
X151829057Y-92349500D01*
X151670943Y-92349500D01*
X151670942Y-92349500D01*
X151670936Y-92349501D01*
X151518219Y-92390421D01*
X151518216Y-92390422D01*
X151421964Y-92445993D01*
X151381284Y-92469480D01*
X151381283Y-92469481D01*
X151381279Y-92469484D01*
X151269484Y-92581279D01*
X151269481Y-92581283D01*
X151190422Y-92718216D01*
X151190421Y-92718219D01*
X151149501Y-92870936D01*
X151149500Y-92870944D01*
X147278292Y-92870944D01*
X147380520Y-92768716D01*
X147459577Y-92631784D01*
X147500500Y-92479057D01*
X147500500Y-92320943D01*
X147459577Y-92168216D01*
X147380520Y-92031284D01*
X147268716Y-91919480D01*
X147172464Y-91863909D01*
X147131783Y-91840422D01*
X147131780Y-91840421D01*
X146979063Y-91799501D01*
X146979058Y-91799500D01*
X146979057Y-91799500D01*
X146820943Y-91799500D01*
X146820942Y-91799500D01*
X146820936Y-91799501D01*
X146668219Y-91840421D01*
X146668216Y-91840422D01*
X146571964Y-91895993D01*
X146531284Y-91919480D01*
X146531283Y-91919481D01*
X146531279Y-91919484D01*
X146419484Y-92031279D01*
X146419481Y-92031283D01*
X146419480Y-92031284D01*
X146405453Y-92055580D01*
X146340422Y-92168216D01*
X146340421Y-92168219D01*
X146299501Y-92320936D01*
X146299500Y-92320944D01*
X143698699Y-92320944D01*
X143768716Y-92280520D01*
X143880520Y-92168716D01*
X143959577Y-92031784D01*
X144000500Y-91879057D01*
X144000500Y-91720943D01*
X143959577Y-91568216D01*
X143903418Y-91470944D01*
X145099500Y-91470944D01*
X145099500Y-91629055D01*
X145099501Y-91629063D01*
X145140421Y-91781780D01*
X145140422Y-91781783D01*
X145140423Y-91781784D01*
X145219480Y-91918716D01*
X145331284Y-92030520D01*
X145455454Y-92102209D01*
X145468216Y-92109577D01*
X145468219Y-92109578D01*
X145561681Y-92134621D01*
X145620943Y-92150500D01*
X145620944Y-92150500D01*
X145779056Y-92150500D01*
X145779057Y-92150500D01*
X145931784Y-92109577D01*
X146068716Y-92030520D01*
X146180520Y-91918716D01*
X146259577Y-91781784D01*
X146300500Y-91629057D01*
X146300500Y-91470943D01*
X146259577Y-91318216D01*
X146180520Y-91181284D01*
X146068716Y-91069480D01*
X145972464Y-91013909D01*
X145931783Y-90990422D01*
X145931780Y-90990421D01*
X145779063Y-90949501D01*
X145779058Y-90949500D01*
X145779057Y-90949500D01*
X145620943Y-90949500D01*
X145620942Y-90949500D01*
X145620936Y-90949501D01*
X145468219Y-90990421D01*
X145468216Y-90990422D01*
X145371964Y-91045993D01*
X145331284Y-91069480D01*
X145331283Y-91069481D01*
X145331279Y-91069484D01*
X145219484Y-91181279D01*
X145219481Y-91181283D01*
X145140422Y-91318216D01*
X145140421Y-91318219D01*
X145099501Y-91470936D01*
X145099500Y-91470944D01*
X143903418Y-91470944D01*
X143880520Y-91431284D01*
X143768716Y-91319480D01*
X143672464Y-91263909D01*
X143631783Y-91240422D01*
X143631780Y-91240421D01*
X143479063Y-91199501D01*
X143479058Y-91199500D01*
X143479057Y-91199500D01*
X143320943Y-91199500D01*
X143320942Y-91199500D01*
X143320936Y-91199501D01*
X143168219Y-91240421D01*
X143168216Y-91240422D01*
X143071964Y-91295993D01*
X143031284Y-91319480D01*
X143031283Y-91319481D01*
X143031279Y-91319484D01*
X142919484Y-91431279D01*
X142919482Y-91431282D01*
X142919480Y-91431284D01*
X142895993Y-91471964D01*
X142840422Y-91568216D01*
X142840421Y-91568219D01*
X142799501Y-91720936D01*
X142799500Y-91720944D01*
X142799500Y-91807925D01*
X142781194Y-91852119D01*
X142737000Y-91870425D01*
X142579415Y-91870425D01*
X142579414Y-91870425D01*
X142579408Y-91870426D01*
X142426691Y-91911346D01*
X142426688Y-91911347D01*
X142355571Y-91952407D01*
X142289756Y-91990405D01*
X142289755Y-91990406D01*
X142289751Y-91990409D01*
X142177956Y-92102204D01*
X142177953Y-92102208D01*
X142098894Y-92239141D01*
X142098893Y-92239144D01*
X142057973Y-92391861D01*
X142057972Y-92391869D01*
X136904683Y-92391869D01*
X136936376Y-92383377D01*
X137073308Y-92304320D01*
X137185112Y-92192516D01*
X137264169Y-92055584D01*
X137305092Y-91902857D01*
X137305092Y-91744743D01*
X137264169Y-91592016D01*
X137185112Y-91455084D01*
X137073308Y-91343280D01*
X136977056Y-91287709D01*
X136936375Y-91264222D01*
X136936372Y-91264221D01*
X136783655Y-91223301D01*
X136783650Y-91223300D01*
X136783649Y-91223300D01*
X136625535Y-91223300D01*
X136625534Y-91223300D01*
X136625528Y-91223301D01*
X136472811Y-91264221D01*
X136472808Y-91264222D01*
X136379283Y-91318219D01*
X136335876Y-91343280D01*
X136335875Y-91343281D01*
X136335871Y-91343284D01*
X136224076Y-91455079D01*
X136224073Y-91455083D01*
X136224072Y-91455084D01*
X136200585Y-91495764D01*
X136145014Y-91592016D01*
X136145013Y-91592019D01*
X136104093Y-91744736D01*
X136104092Y-91744744D01*
X128926597Y-91744744D01*
X128657818Y-90929372D01*
X128657046Y-90926850D01*
X128635424Y-90850500D01*
X128404866Y-90036359D01*
X128404201Y-90033806D01*
X128396042Y-89999501D01*
X128190037Y-89133388D01*
X128189489Y-89130847D01*
X128013735Y-88222148D01*
X128013288Y-88219537D01*
X128007347Y-88179853D01*
X127876265Y-87304231D01*
X127875930Y-87301611D01*
X127875705Y-87299500D01*
X127795998Y-86551370D01*
X142299500Y-86551370D01*
X142299500Y-86709481D01*
X142299501Y-86709489D01*
X142340421Y-86862206D01*
X142340422Y-86862209D01*
X142343370Y-86867315D01*
X142419480Y-86999142D01*
X142531284Y-87110946D01*
X142668216Y-87190003D01*
X142668219Y-87190004D01*
X142761681Y-87215047D01*
X142820943Y-87230926D01*
X142820944Y-87230926D01*
X142979056Y-87230926D01*
X142979057Y-87230926D01*
X143131784Y-87190003D01*
X143268716Y-87110946D01*
X143380520Y-86999142D01*
X143459577Y-86862210D01*
X143500500Y-86709483D01*
X143500500Y-86551369D01*
X143459577Y-86398642D01*
X143380520Y-86261710D01*
X143268716Y-86149906D01*
X143172464Y-86094335D01*
X143131783Y-86070848D01*
X143131780Y-86070847D01*
X142979063Y-86029927D01*
X142979058Y-86029926D01*
X142979057Y-86029926D01*
X142820943Y-86029926D01*
X142820942Y-86029926D01*
X142820936Y-86029927D01*
X142668219Y-86070847D01*
X142668216Y-86070848D01*
X142581462Y-86120936D01*
X142531284Y-86149906D01*
X142531283Y-86149907D01*
X142531279Y-86149910D01*
X142419484Y-86261705D01*
X142419481Y-86261709D01*
X142419480Y-86261710D01*
X142395993Y-86302390D01*
X142340422Y-86398642D01*
X142340421Y-86398645D01*
X142299501Y-86551362D01*
X142299500Y-86551370D01*
X127795998Y-86551370D01*
X127777878Y-86381294D01*
X127777658Y-86378702D01*
X127718756Y-85455058D01*
X127718644Y-85452408D01*
X127706600Y-84885118D01*
X143574500Y-84885118D01*
X143574500Y-84964882D01*
X143605024Y-85038574D01*
X149386426Y-90819976D01*
X149460118Y-90850500D01*
X149460120Y-90850500D01*
X149539880Y-90850500D01*
X149539882Y-90850500D01*
X149613574Y-90819976D01*
X149669976Y-90763574D01*
X149912606Y-90520944D01*
X150535031Y-90520944D01*
X150535031Y-90679055D01*
X150535032Y-90679063D01*
X150575952Y-90831780D01*
X150575953Y-90831783D01*
X150599440Y-90872464D01*
X150655011Y-90968716D01*
X150766815Y-91080520D01*
X150903747Y-91159577D01*
X150903750Y-91159578D01*
X150984740Y-91181279D01*
X151056474Y-91200500D01*
X151056475Y-91200500D01*
X151214587Y-91200500D01*
X151214588Y-91200500D01*
X151367315Y-91159577D01*
X151504247Y-91080520D01*
X151616051Y-90968716D01*
X151695108Y-90831784D01*
X151736031Y-90679057D01*
X151736031Y-90520943D01*
X151695108Y-90368216D01*
X151616051Y-90231284D01*
X151504247Y-90119480D01*
X151407995Y-90063909D01*
X151367314Y-90040422D01*
X151367311Y-90040421D01*
X151214594Y-89999501D01*
X151214589Y-89999500D01*
X151214588Y-89999500D01*
X151056474Y-89999500D01*
X151056473Y-89999500D01*
X151056467Y-89999501D01*
X150903750Y-90040421D01*
X150903747Y-90040422D01*
X150807495Y-90095993D01*
X150766815Y-90119480D01*
X150766814Y-90119481D01*
X150766810Y-90119484D01*
X150655015Y-90231279D01*
X150655012Y-90231283D01*
X150575953Y-90368216D01*
X150575952Y-90368219D01*
X150535032Y-90520936D01*
X150535031Y-90520944D01*
X149912606Y-90520944D01*
X152612605Y-87820944D01*
X155799500Y-87820944D01*
X155799500Y-87979055D01*
X155799501Y-87979063D01*
X155840421Y-88131780D01*
X155840422Y-88131783D01*
X155863909Y-88172464D01*
X155919480Y-88268716D01*
X156031284Y-88380520D01*
X156168216Y-88459577D01*
X156168219Y-88459578D01*
X156261681Y-88484621D01*
X156320943Y-88500500D01*
X156320944Y-88500500D01*
X156479056Y-88500500D01*
X156479057Y-88500500D01*
X156631784Y-88459577D01*
X156768716Y-88380520D01*
X156880520Y-88268716D01*
X156959577Y-88131784D01*
X157000500Y-87979057D01*
X157000500Y-87820943D01*
X156959577Y-87668216D01*
X156880520Y-87531284D01*
X156768716Y-87419480D01*
X156672464Y-87363909D01*
X156631783Y-87340422D01*
X156631780Y-87340421D01*
X156479063Y-87299501D01*
X156479058Y-87299500D01*
X156479057Y-87299500D01*
X156320943Y-87299500D01*
X156320942Y-87299500D01*
X156320936Y-87299501D01*
X156168219Y-87340421D01*
X156168216Y-87340422D01*
X156071964Y-87395993D01*
X156031284Y-87419480D01*
X156031283Y-87419481D01*
X156031279Y-87419484D01*
X155919484Y-87531279D01*
X155919481Y-87531283D01*
X155840422Y-87668216D01*
X155840421Y-87668219D01*
X155799501Y-87820936D01*
X155799500Y-87820944D01*
X152612605Y-87820944D01*
X153877074Y-86556475D01*
X154535031Y-86556475D01*
X154535031Y-86714586D01*
X154535032Y-86714594D01*
X154575952Y-86867311D01*
X154575953Y-86867314D01*
X154575954Y-86867315D01*
X154655011Y-87004247D01*
X154766815Y-87116051D01*
X154894905Y-87190003D01*
X154903747Y-87195108D01*
X154903750Y-87195109D01*
X154997212Y-87220152D01*
X155056474Y-87236031D01*
X155056475Y-87236031D01*
X155214587Y-87236031D01*
X155214588Y-87236031D01*
X155367315Y-87195108D01*
X155504247Y-87116051D01*
X155616051Y-87004247D01*
X155695108Y-86867315D01*
X155722219Y-86766131D01*
X155751339Y-86728183D01*
X155798765Y-86721939D01*
X155813836Y-86728180D01*
X155868216Y-86759577D01*
X155868219Y-86759578D01*
X155892683Y-86766133D01*
X156020943Y-86800500D01*
X156020944Y-86800500D01*
X156179056Y-86800500D01*
X156179057Y-86800500D01*
X156331784Y-86759577D01*
X156468716Y-86680520D01*
X156580520Y-86568716D01*
X156659577Y-86431784D01*
X156700500Y-86279057D01*
X156700500Y-86120943D01*
X156659577Y-85968216D01*
X156580520Y-85831284D01*
X156468716Y-85719480D01*
X156372464Y-85663909D01*
X156331783Y-85640422D01*
X156331780Y-85640421D01*
X156179063Y-85599501D01*
X156179058Y-85599500D01*
X156179057Y-85599500D01*
X156020943Y-85599500D01*
X156020942Y-85599500D01*
X156020936Y-85599501D01*
X155868219Y-85640421D01*
X155868216Y-85640422D01*
X155771964Y-85695993D01*
X155731284Y-85719480D01*
X155731283Y-85719481D01*
X155731279Y-85719484D01*
X155619484Y-85831279D01*
X155619481Y-85831283D01*
X155540422Y-85968216D01*
X155540422Y-85968218D01*
X155513311Y-86069397D01*
X155484191Y-86107347D01*
X155436764Y-86113590D01*
X155421692Y-86107347D01*
X155367318Y-86075955D01*
X155367311Y-86075952D01*
X155214594Y-86035032D01*
X155214589Y-86035031D01*
X155214588Y-86035031D01*
X155056474Y-86035031D01*
X155056473Y-86035031D01*
X155056467Y-86035032D01*
X154903750Y-86075952D01*
X154903747Y-86075953D01*
X154825835Y-86120936D01*
X154766815Y-86155011D01*
X154766814Y-86155012D01*
X154766810Y-86155015D01*
X154655015Y-86266810D01*
X154655012Y-86266814D01*
X154655011Y-86266815D01*
X154647943Y-86279057D01*
X154575953Y-86403747D01*
X154575952Y-86403750D01*
X154535032Y-86556467D01*
X154535031Y-86556475D01*
X153877074Y-86556475D01*
X155366422Y-85067127D01*
X155367297Y-85066756D01*
X155394614Y-85038935D01*
X155419976Y-85013574D01*
X155419977Y-85013570D01*
X155422185Y-85011363D01*
X155423183Y-85009840D01*
X155432835Y-84985922D01*
X155453033Y-84935875D01*
X155452306Y-84856114D01*
X155421112Y-84782704D01*
X154863196Y-84234866D01*
X155507297Y-84234866D01*
X155507297Y-84392977D01*
X155507298Y-84392985D01*
X155548218Y-84545702D01*
X155548219Y-84545705D01*
X155548220Y-84545706D01*
X155627277Y-84682638D01*
X155739081Y-84794442D01*
X155876013Y-84873499D01*
X155876016Y-84873500D01*
X155969478Y-84898543D01*
X156028740Y-84914422D01*
X156028741Y-84914422D01*
X156186853Y-84914422D01*
X156186854Y-84914422D01*
X156339581Y-84873499D01*
X156476513Y-84794442D01*
X156588317Y-84682638D01*
X156667374Y-84545706D01*
X156708297Y-84392979D01*
X156708297Y-84234865D01*
X156667374Y-84082138D01*
X156588317Y-83945206D01*
X156476513Y-83833402D01*
X156380261Y-83777831D01*
X156339580Y-83754344D01*
X156339577Y-83754343D01*
X156186860Y-83713423D01*
X156186855Y-83713422D01*
X156186854Y-83713422D01*
X156028740Y-83713422D01*
X156028739Y-83713422D01*
X156028733Y-83713423D01*
X155876016Y-83754343D01*
X155876013Y-83754344D01*
X155779761Y-83809915D01*
X155739081Y-83833402D01*
X155739080Y-83833403D01*
X155739076Y-83833406D01*
X155627281Y-83945201D01*
X155627278Y-83945205D01*
X155548219Y-84082138D01*
X155548218Y-84082141D01*
X155507298Y-84234858D01*
X155507297Y-84234866D01*
X154863196Y-84234866D01*
X152187593Y-81607594D01*
X149719207Y-79183795D01*
X149700500Y-79139770D01*
X149718402Y-79095410D01*
X149762427Y-79076703D01*
X149762997Y-79076700D01*
X151336431Y-79076700D01*
X151336432Y-79076700D01*
X151406807Y-79057844D01*
X151469902Y-79021415D01*
X151842799Y-78648516D01*
X151886992Y-78630211D01*
X151903166Y-78632340D01*
X151933326Y-78640422D01*
X151970940Y-78650501D01*
X151970943Y-78650501D01*
X151970945Y-78650502D01*
X151970946Y-78650502D01*
X152129058Y-78650502D01*
X152129059Y-78650502D01*
X152281786Y-78609579D01*
X152418718Y-78530522D01*
X152530522Y-78418718D01*
X152609579Y-78281786D01*
X152650502Y-78129059D01*
X152650502Y-77970945D01*
X152609714Y-77818720D01*
X152609580Y-77818221D01*
X152609579Y-77818218D01*
X152599957Y-77801552D01*
X152530522Y-77681286D01*
X152418718Y-77569482D01*
X152322466Y-77513911D01*
X152281785Y-77490424D01*
X152281782Y-77490423D01*
X152129065Y-77449503D01*
X152129060Y-77449502D01*
X152129059Y-77449502D01*
X151970945Y-77449502D01*
X151970944Y-77449502D01*
X151970938Y-77449503D01*
X151929176Y-77460693D01*
X151881750Y-77454449D01*
X151852630Y-77416499D01*
X151850500Y-77400323D01*
X151850500Y-77370944D01*
X151850498Y-77370936D01*
X151809578Y-77218219D01*
X151809577Y-77218216D01*
X151794531Y-77192155D01*
X151730520Y-77081284D01*
X151618716Y-76969480D01*
X151522464Y-76913909D01*
X151481783Y-76890422D01*
X151481780Y-76890421D01*
X151329063Y-76849501D01*
X151329058Y-76849500D01*
X151329057Y-76849500D01*
X151170943Y-76849500D01*
X151170942Y-76849500D01*
X151170936Y-76849501D01*
X151018219Y-76890421D01*
X151018216Y-76890422D01*
X150921964Y-76945993D01*
X150881284Y-76969480D01*
X150881283Y-76969481D01*
X150881279Y-76969484D01*
X150769484Y-77081279D01*
X150769479Y-77081285D01*
X150734396Y-77142051D01*
X150696446Y-77171171D01*
X150680270Y-77173300D01*
X149736428Y-77173300D01*
X149663572Y-77173300D01*
X149663571Y-77173300D01*
X149663565Y-77173301D01*
X149593197Y-77192155D01*
X149593195Y-77192156D01*
X149530102Y-77228584D01*
X149530096Y-77228589D01*
X149197114Y-77561572D01*
X149152920Y-77579878D01*
X149108726Y-77561572D01*
X149092992Y-77545838D01*
X149092988Y-77545834D01*
X148982034Y-77481775D01*
X148956055Y-77466776D01*
X148956052Y-77466775D01*
X148803335Y-77425855D01*
X148803330Y-77425854D01*
X148803329Y-77425854D01*
X148645215Y-77425854D01*
X148645214Y-77425854D01*
X148645208Y-77425855D01*
X148492491Y-77466775D01*
X148492488Y-77466776D01*
X148396236Y-77522347D01*
X148355556Y-77545834D01*
X148355555Y-77545835D01*
X148355551Y-77545838D01*
X148243756Y-77657633D01*
X148243753Y-77657637D01*
X148243752Y-77657638D01*
X148230102Y-77681281D01*
X148164694Y-77794570D01*
X148164693Y-77794573D01*
X148123773Y-77947290D01*
X148123772Y-77947298D01*
X148123772Y-78105409D01*
X148123773Y-78105417D01*
X148164693Y-78258134D01*
X148164694Y-78258137D01*
X148169797Y-78266975D01*
X148227192Y-78366387D01*
X148233435Y-78413812D01*
X148204315Y-78451763D01*
X148156889Y-78458006D01*
X148101802Y-78443246D01*
X148101797Y-78443245D01*
X148101796Y-78443245D01*
X147943682Y-78443245D01*
X147943681Y-78443245D01*
X147943675Y-78443246D01*
X147790958Y-78484166D01*
X147790955Y-78484167D01*
X147694703Y-78539738D01*
X147654023Y-78563225D01*
X147654022Y-78563226D01*
X147654018Y-78563229D01*
X147542223Y-78675024D01*
X147542220Y-78675028D01*
X147463161Y-78811961D01*
X147463160Y-78811964D01*
X147422240Y-78964681D01*
X147422239Y-78964689D01*
X147422239Y-79122800D01*
X147422240Y-79122808D01*
X147463160Y-79275525D01*
X147463161Y-79275528D01*
X147465202Y-79279063D01*
X147542219Y-79412461D01*
X147654023Y-79524265D01*
X147790955Y-79603322D01*
X147790958Y-79603323D01*
X147884420Y-79628366D01*
X147943682Y-79644245D01*
X147943683Y-79644245D01*
X148101795Y-79644245D01*
X148101796Y-79644245D01*
X148254523Y-79603322D01*
X148391455Y-79524265D01*
X148503259Y-79412461D01*
X148582316Y-79275529D01*
X148606896Y-79183795D01*
X148623180Y-79123024D01*
X148652300Y-79085073D01*
X148683550Y-79076700D01*
X149188861Y-79076700D01*
X149233055Y-79095006D01*
X149251361Y-79139200D01*
X149233055Y-79183394D01*
X143661426Y-84755024D01*
X143605025Y-84811424D01*
X143605023Y-84811427D01*
X143586514Y-84856114D01*
X143574500Y-84885118D01*
X127706600Y-84885118D01*
X127706497Y-84880289D01*
X127698998Y-84527107D01*
X127698998Y-84524453D01*
X127701790Y-84392979D01*
X127718644Y-83599149D01*
X127718757Y-83596500D01*
X127721319Y-83556333D01*
X127757003Y-82996757D01*
X143074313Y-82996757D01*
X143074313Y-83154868D01*
X143074314Y-83154876D01*
X143115234Y-83307593D01*
X143115235Y-83307596D01*
X143115236Y-83307597D01*
X143194293Y-83444529D01*
X143306097Y-83556333D01*
X143443029Y-83635390D01*
X143443032Y-83635391D01*
X143536494Y-83660434D01*
X143595756Y-83676313D01*
X143595757Y-83676313D01*
X143753869Y-83676313D01*
X143753870Y-83676313D01*
X143906597Y-83635390D01*
X144043529Y-83556333D01*
X144155333Y-83444529D01*
X144234390Y-83307597D01*
X144275313Y-83154870D01*
X144275313Y-82996756D01*
X144234390Y-82844029D01*
X144155333Y-82707097D01*
X144043529Y-82595293D01*
X143947277Y-82539722D01*
X143906596Y-82516235D01*
X143906593Y-82516234D01*
X143753876Y-82475314D01*
X143753871Y-82475313D01*
X143753870Y-82475313D01*
X143595756Y-82475313D01*
X143595755Y-82475313D01*
X143595749Y-82475314D01*
X143443032Y-82516234D01*
X143443029Y-82516235D01*
X143346777Y-82571806D01*
X143306097Y-82595293D01*
X143306096Y-82595294D01*
X143306092Y-82595297D01*
X143194297Y-82707092D01*
X143194294Y-82707096D01*
X143115235Y-82844029D01*
X143115234Y-82844032D01*
X143074314Y-82996749D01*
X143074313Y-82996757D01*
X127757003Y-82996757D01*
X127777658Y-82672857D01*
X127777878Y-82670269D01*
X127875932Y-81749930D01*
X127876267Y-81747316D01*
X127895185Y-81620944D01*
X141399500Y-81620944D01*
X141399500Y-81779055D01*
X141399501Y-81779063D01*
X141440421Y-81931780D01*
X141440422Y-81931783D01*
X141440423Y-81931784D01*
X141519480Y-82068716D01*
X141631284Y-82180520D01*
X141768216Y-82259577D01*
X141768219Y-82259578D01*
X141861681Y-82284621D01*
X141920943Y-82300500D01*
X141920944Y-82300500D01*
X142079056Y-82300500D01*
X142079057Y-82300500D01*
X142231784Y-82259577D01*
X142368716Y-82180520D01*
X142480520Y-82068716D01*
X142559577Y-81931784D01*
X142600500Y-81779057D01*
X142600500Y-81620943D01*
X142559577Y-81468216D01*
X142480520Y-81331284D01*
X142368716Y-81219480D01*
X142272464Y-81163909D01*
X142231783Y-81140422D01*
X142231780Y-81140421D01*
X142079063Y-81099501D01*
X142079058Y-81099500D01*
X142079057Y-81099500D01*
X141920943Y-81099500D01*
X141920942Y-81099500D01*
X141920936Y-81099501D01*
X141768219Y-81140421D01*
X141768216Y-81140422D01*
X141671964Y-81195993D01*
X141631284Y-81219480D01*
X141631283Y-81219481D01*
X141631279Y-81219484D01*
X141519484Y-81331279D01*
X141519481Y-81331283D01*
X141440422Y-81468216D01*
X141440421Y-81468219D01*
X141399501Y-81620936D01*
X141399500Y-81620944D01*
X127895185Y-81620944D01*
X127897184Y-81607594D01*
X127989917Y-80988142D01*
X128013289Y-80832010D01*
X128013736Y-80829407D01*
X128102348Y-80371257D01*
X145699813Y-80371257D01*
X145699813Y-80529368D01*
X145699814Y-80529376D01*
X145740734Y-80682093D01*
X145740735Y-80682096D01*
X145740736Y-80682097D01*
X145819793Y-80819029D01*
X145931597Y-80930833D01*
X146068529Y-81009890D01*
X146068532Y-81009891D01*
X146161994Y-81034934D01*
X146221256Y-81050813D01*
X146221257Y-81050813D01*
X146379369Y-81050813D01*
X146379370Y-81050813D01*
X146532097Y-81009890D01*
X146669029Y-80930833D01*
X146780833Y-80819029D01*
X146859890Y-80682097D01*
X146900813Y-80529370D01*
X146900813Y-80371256D01*
X146859890Y-80218529D01*
X146780833Y-80081597D01*
X146669029Y-79969793D01*
X146572777Y-79914222D01*
X146532096Y-79890735D01*
X146532093Y-79890734D01*
X146379376Y-79849814D01*
X146379371Y-79849813D01*
X146379370Y-79849813D01*
X146221256Y-79849813D01*
X146221255Y-79849813D01*
X146221249Y-79849814D01*
X146068532Y-79890734D01*
X146068529Y-79890735D01*
X145972277Y-79946306D01*
X145931597Y-79969793D01*
X145931596Y-79969794D01*
X145931592Y-79969797D01*
X145819797Y-80081592D01*
X145819794Y-80081596D01*
X145740735Y-80218529D01*
X145740734Y-80218532D01*
X145699814Y-80371249D01*
X145699813Y-80371257D01*
X128102348Y-80371257D01*
X128189491Y-79920702D01*
X128190035Y-79918180D01*
X128379657Y-79120944D01*
X144249500Y-79120944D01*
X144249500Y-79279055D01*
X144249501Y-79279063D01*
X144290421Y-79431780D01*
X144290422Y-79431783D01*
X144290423Y-79431784D01*
X144369480Y-79568716D01*
X144481284Y-79680520D01*
X144618216Y-79759577D01*
X144618219Y-79759578D01*
X144711681Y-79784621D01*
X144770943Y-79800500D01*
X144770944Y-79800500D01*
X144929056Y-79800500D01*
X144929057Y-79800500D01*
X145081784Y-79759577D01*
X145218716Y-79680520D01*
X145330520Y-79568716D01*
X145409577Y-79431784D01*
X145450500Y-79279057D01*
X145450500Y-79120943D01*
X145409577Y-78968216D01*
X145330520Y-78831284D01*
X145218716Y-78719480D01*
X145099238Y-78650500D01*
X145081783Y-78640422D01*
X145081780Y-78640421D01*
X144929063Y-78599501D01*
X144929058Y-78599500D01*
X144929057Y-78599500D01*
X144770943Y-78599500D01*
X144770942Y-78599500D01*
X144770936Y-78599501D01*
X144618219Y-78640421D01*
X144618216Y-78640422D01*
X144521964Y-78695993D01*
X144481284Y-78719480D01*
X144481283Y-78719481D01*
X144481279Y-78719484D01*
X144369484Y-78831279D01*
X144369481Y-78831283D01*
X144290422Y-78968216D01*
X144290421Y-78968219D01*
X144249501Y-79120936D01*
X144249500Y-79120944D01*
X128379657Y-79120944D01*
X128404207Y-79017726D01*
X128404862Y-79015212D01*
X128657054Y-78124680D01*
X128657814Y-78122200D01*
X128947573Y-77243183D01*
X128948453Y-77240695D01*
X128953022Y-77228589D01*
X129275252Y-76374789D01*
X129276220Y-76372377D01*
X129639501Y-75521069D01*
X129640565Y-75518716D01*
X130039645Y-74683602D01*
X130040802Y-74681308D01*
X130259709Y-74269164D01*
X158319080Y-74269164D01*
X158319080Y-74426849D01*
X158349842Y-74581502D01*
X158410186Y-74727187D01*
X158497790Y-74858295D01*
X158927489Y-75287994D01*
X159058597Y-75375598D01*
X159058598Y-75375598D01*
X159058599Y-75375599D01*
X159204281Y-75435942D01*
X159358936Y-75466705D01*
X159516620Y-75466705D01*
X159575690Y-75454955D01*
X159622606Y-75464287D01*
X159649182Y-75504061D01*
X159644194Y-75543372D01*
X159603470Y-75627935D01*
X159583230Y-75762221D01*
X159603471Y-75896509D01*
X159662082Y-76018216D01*
X159662394Y-76018863D01*
X159681896Y-76042401D01*
X160571812Y-76932317D01*
X160595350Y-76951819D01*
X160717705Y-77010742D01*
X160851992Y-77030983D01*
X160986279Y-77010742D01*
X161108634Y-76951819D01*
X161132172Y-76932317D01*
X161703890Y-76360599D01*
X161723392Y-76337061D01*
X161782315Y-76214706D01*
X161788911Y-76170944D01*
X163149500Y-76170944D01*
X163149500Y-76329055D01*
X163149501Y-76329063D01*
X163190421Y-76481780D01*
X163190422Y-76481783D01*
X163190423Y-76481784D01*
X163269480Y-76618716D01*
X163381284Y-76730520D01*
X163511865Y-76805910D01*
X163518216Y-76809577D01*
X163518219Y-76809578D01*
X163611681Y-76834621D01*
X163670943Y-76850500D01*
X163670944Y-76850500D01*
X163829056Y-76850500D01*
X163829057Y-76850500D01*
X163981784Y-76809577D01*
X164118716Y-76730520D01*
X164230520Y-76618716D01*
X164309577Y-76481784D01*
X164325879Y-76420944D01*
X168299500Y-76420944D01*
X168299500Y-76579055D01*
X168299501Y-76579063D01*
X168340421Y-76731780D01*
X168340422Y-76731783D01*
X168340423Y-76731784D01*
X168419480Y-76868716D01*
X168531284Y-76980520D01*
X168668216Y-77059577D01*
X168668219Y-77059578D01*
X168761681Y-77084621D01*
X168820943Y-77100500D01*
X168820944Y-77100500D01*
X168979056Y-77100500D01*
X168979057Y-77100500D01*
X169131784Y-77059577D01*
X169268716Y-76980520D01*
X169380520Y-76868716D01*
X169459577Y-76731784D01*
X169500500Y-76579057D01*
X169500500Y-76420943D01*
X169459577Y-76268216D01*
X169380520Y-76131284D01*
X169268716Y-76019480D01*
X169172464Y-75963909D01*
X169131783Y-75940422D01*
X169131780Y-75940421D01*
X168979063Y-75899501D01*
X168979058Y-75899500D01*
X168979057Y-75899500D01*
X168820943Y-75899500D01*
X168820942Y-75899500D01*
X168820936Y-75899501D01*
X168668219Y-75940421D01*
X168668216Y-75940422D01*
X168571964Y-75995993D01*
X168531284Y-76019480D01*
X168531283Y-76019481D01*
X168531279Y-76019484D01*
X168419484Y-76131279D01*
X168419481Y-76131283D01*
X168419480Y-76131284D01*
X168395993Y-76171964D01*
X168340422Y-76268216D01*
X168340421Y-76268219D01*
X168299501Y-76420936D01*
X168299500Y-76420944D01*
X164325879Y-76420944D01*
X164331312Y-76400670D01*
X164331312Y-76400669D01*
X164350498Y-76329063D01*
X164350500Y-76329055D01*
X164350500Y-76170944D01*
X164350498Y-76170936D01*
X164346906Y-76157532D01*
X164309751Y-76018864D01*
X164309578Y-76018219D01*
X164309577Y-76018216D01*
X164230520Y-75881284D01*
X164118716Y-75769480D01*
X164022464Y-75713909D01*
X163981783Y-75690422D01*
X163981780Y-75690421D01*
X163829063Y-75649501D01*
X163829058Y-75649500D01*
X163829057Y-75649500D01*
X163670943Y-75649500D01*
X163670942Y-75649500D01*
X163670936Y-75649501D01*
X163518219Y-75690421D01*
X163518216Y-75690422D01*
X163421964Y-75745993D01*
X163381284Y-75769480D01*
X163381283Y-75769481D01*
X163381279Y-75769484D01*
X163269484Y-75881279D01*
X163269481Y-75881283D01*
X163190422Y-76018216D01*
X163190421Y-76018219D01*
X163149501Y-76170936D01*
X163149500Y-76170944D01*
X161788911Y-76170944D01*
X161802556Y-76080419D01*
X161782315Y-75946132D01*
X161723392Y-75823777D01*
X161703890Y-75800239D01*
X160813974Y-74910323D01*
X160790436Y-74890821D01*
X160758213Y-74875303D01*
X160668082Y-74831898D01*
X160533794Y-74811657D01*
X160399508Y-74831897D01*
X160314945Y-74872621D01*
X160267184Y-74875303D01*
X160231516Y-74843428D01*
X160226528Y-74804117D01*
X160238278Y-74745047D01*
X160238278Y-74587363D01*
X160207515Y-74432708D01*
X160147172Y-74287026D01*
X160136732Y-74271402D01*
X160126828Y-74256580D01*
X160098203Y-74213739D01*
X160088872Y-74166825D01*
X160115448Y-74127051D01*
X160162364Y-74117719D01*
X160186907Y-74128454D01*
X160275465Y-74192795D01*
X160429734Y-74271400D01*
X160429740Y-74271402D01*
X160594405Y-74324905D01*
X160594408Y-74324906D01*
X160765408Y-74351990D01*
X160765422Y-74351992D01*
X160938562Y-74351992D01*
X160938575Y-74351990D01*
X161075230Y-74330346D01*
X161121744Y-74341512D01*
X161146738Y-74382298D01*
X161147508Y-74392076D01*
X161147508Y-74426849D01*
X161178270Y-74581502D01*
X161238614Y-74727187D01*
X161326218Y-74858295D01*
X161755917Y-75287994D01*
X161887025Y-75375598D01*
X161887026Y-75375598D01*
X161887027Y-75375599D01*
X162032709Y-75435942D01*
X162187364Y-75466705D01*
X162345048Y-75466705D01*
X162499703Y-75435942D01*
X162645385Y-75375599D01*
X162776495Y-75287994D01*
X162887995Y-75176494D01*
X162975600Y-75045384D01*
X163035943Y-74899702D01*
X163066706Y-74745047D01*
X163066706Y-74587363D01*
X163035943Y-74432708D01*
X162975600Y-74287026D01*
X162965160Y-74271402D01*
X162887995Y-74155916D01*
X162458296Y-73726217D01*
X162327188Y-73638613D01*
X162181503Y-73578269D01*
X162026850Y-73547507D01*
X161992076Y-73547507D01*
X161947882Y-73529201D01*
X161929576Y-73485007D01*
X161930346Y-73475229D01*
X161951990Y-73338575D01*
X161951992Y-73338561D01*
X161951992Y-73165422D01*
X161951990Y-73165408D01*
X161924906Y-72994408D01*
X161924905Y-72994405D01*
X161871402Y-72829740D01*
X161871400Y-72829734D01*
X161792795Y-72675465D01*
X161728453Y-72586906D01*
X161717286Y-72540393D01*
X161742281Y-72499606D01*
X161788794Y-72488439D01*
X161813740Y-72498203D01*
X161887025Y-72547171D01*
X161887026Y-72547171D01*
X161887027Y-72547172D01*
X162032709Y-72607515D01*
X162187364Y-72638278D01*
X162345048Y-72638278D01*
X162499703Y-72607515D01*
X162518686Y-72599651D01*
X162566520Y-72599651D01*
X162600346Y-72633474D01*
X162600347Y-72681310D01*
X162592484Y-72700293D01*
X162561721Y-72854951D01*
X162561721Y-73012636D01*
X162592483Y-73167289D01*
X162652827Y-73312974D01*
X162740431Y-73444082D01*
X163170130Y-73873781D01*
X163301238Y-73961385D01*
X163301239Y-73961385D01*
X163301240Y-73961386D01*
X163446922Y-74021729D01*
X163601577Y-74052492D01*
X163759261Y-74052492D01*
X163913916Y-74021729D01*
X164059598Y-73961386D01*
X164190708Y-73873781D01*
X164302208Y-73762281D01*
X164389813Y-73631171D01*
X164450156Y-73485489D01*
X164480919Y-73330834D01*
X164480919Y-73173150D01*
X164450156Y-73018495D01*
X164389813Y-72872813D01*
X164362500Y-72831937D01*
X164302208Y-72741703D01*
X164131449Y-72570944D01*
X164949500Y-72570944D01*
X164949500Y-72729055D01*
X164949501Y-72729063D01*
X164990421Y-72881780D01*
X164990422Y-72881783D01*
X164990423Y-72881784D01*
X165069480Y-73018716D01*
X165181284Y-73130520D01*
X165286698Y-73191380D01*
X165318216Y-73209577D01*
X165318219Y-73209578D01*
X165377548Y-73225475D01*
X165470943Y-73250500D01*
X165470944Y-73250500D01*
X165629056Y-73250500D01*
X165629057Y-73250500D01*
X165781784Y-73209577D01*
X165918716Y-73130520D01*
X166030520Y-73018716D01*
X166109577Y-72881784D01*
X166150500Y-72729057D01*
X166150500Y-72570943D01*
X166109577Y-72418216D01*
X166030520Y-72281284D01*
X165918716Y-72169480D01*
X165822464Y-72113909D01*
X165781783Y-72090422D01*
X165781780Y-72090421D01*
X165629063Y-72049501D01*
X165629058Y-72049500D01*
X165629057Y-72049500D01*
X165470943Y-72049500D01*
X165470942Y-72049500D01*
X165470936Y-72049501D01*
X165318219Y-72090421D01*
X165318216Y-72090422D01*
X165235648Y-72138093D01*
X165181284Y-72169480D01*
X165181283Y-72169481D01*
X165181279Y-72169484D01*
X165069484Y-72281279D01*
X165069481Y-72281283D01*
X164990422Y-72418216D01*
X164990421Y-72418219D01*
X164949501Y-72570936D01*
X164949500Y-72570944D01*
X164131449Y-72570944D01*
X163872509Y-72312004D01*
X163741401Y-72224400D01*
X163595716Y-72164056D01*
X163441063Y-72133294D01*
X163283379Y-72133294D01*
X163128720Y-72164057D01*
X163109738Y-72171920D01*
X163061903Y-72171919D01*
X163028079Y-72138093D01*
X163028080Y-72090258D01*
X163035943Y-72071275D01*
X163066706Y-71916620D01*
X163066706Y-71758936D01*
X163035943Y-71604281D01*
X162975600Y-71458599D01*
X162887995Y-71327489D01*
X162458297Y-70897791D01*
X162426083Y-70876266D01*
X162327188Y-70810186D01*
X162181503Y-70749842D01*
X162026850Y-70719080D01*
X161869166Y-70719080D01*
X161714512Y-70749842D01*
X161568827Y-70810186D01*
X161437719Y-70897790D01*
X161326218Y-71009291D01*
X161238614Y-71140399D01*
X161178270Y-71286084D01*
X161147508Y-71440737D01*
X161147508Y-71598422D01*
X161178270Y-71753075D01*
X161178271Y-71753077D01*
X161238614Y-71898759D01*
X161269464Y-71944929D01*
X161287582Y-71972045D01*
X161296914Y-72018961D01*
X161270338Y-72058735D01*
X161223422Y-72068067D01*
X161198879Y-72057332D01*
X161110320Y-71992990D01*
X160956051Y-71914385D01*
X160956045Y-71914383D01*
X160791380Y-71860880D01*
X160791377Y-71860879D01*
X160620377Y-71833795D01*
X160620364Y-71833794D01*
X160447224Y-71833794D01*
X160447210Y-71833795D01*
X160276210Y-71860879D01*
X160276207Y-71860880D01*
X160111542Y-71914383D01*
X160111536Y-71914385D01*
X159957266Y-71992991D01*
X159951055Y-71997502D01*
X160624720Y-72671167D01*
X160528849Y-72696856D01*
X160431937Y-72752809D01*
X160352809Y-72831937D01*
X160296856Y-72928849D01*
X160271167Y-73024720D01*
X159597502Y-72351055D01*
X159592991Y-72357266D01*
X159514385Y-72511536D01*
X159514383Y-72511542D01*
X159460880Y-72676207D01*
X159460879Y-72676210D01*
X159433795Y-72847210D01*
X159433794Y-72847224D01*
X159433794Y-73020363D01*
X159433795Y-73020377D01*
X159460879Y-73191377D01*
X159460880Y-73191380D01*
X159514383Y-73356045D01*
X159514385Y-73356051D01*
X159592988Y-73510316D01*
X159657331Y-73598876D01*
X159668498Y-73645390D01*
X159643504Y-73686177D01*
X159596990Y-73697344D01*
X159572044Y-73687580D01*
X159498760Y-73638614D01*
X159498761Y-73638614D01*
X159498759Y-73638613D01*
X159353077Y-73578270D01*
X159353075Y-73578269D01*
X159198422Y-73547507D01*
X159040738Y-73547507D01*
X158886084Y-73578269D01*
X158740399Y-73638613D01*
X158609291Y-73726217D01*
X158497790Y-73837718D01*
X158410186Y-73968826D01*
X158349842Y-74114511D01*
X158319080Y-74269164D01*
X130259709Y-74269164D01*
X130474980Y-73863867D01*
X130476229Y-73861631D01*
X130944699Y-73063372D01*
X130946063Y-73061157D01*
X131447998Y-72283491D01*
X131449430Y-72281373D01*
X131983915Y-71525719D01*
X131985447Y-71523647D01*
X132551537Y-70791341D01*
X132553149Y-70789346D01*
X133149808Y-70081730D01*
X133151484Y-70079827D01*
X133777651Y-69398160D01*
X133779436Y-69396298D01*
X134433938Y-68741855D01*
X134435811Y-68740061D01*
X135117497Y-68113991D01*
X135119419Y-68112298D01*
X135827096Y-67515699D01*
X135829106Y-67514076D01*
X136531847Y-66970944D01*
X159499500Y-66970944D01*
X159499500Y-67129055D01*
X159499501Y-67129063D01*
X159540421Y-67281780D01*
X159540422Y-67281783D01*
X159540423Y-67281784D01*
X159619480Y-67418716D01*
X159731284Y-67530520D01*
X159868216Y-67609577D01*
X159868219Y-67609578D01*
X159961681Y-67634621D01*
X160020943Y-67650500D01*
X160020944Y-67650500D01*
X160179056Y-67650500D01*
X160179057Y-67650500D01*
X160331784Y-67609577D01*
X160468716Y-67530520D01*
X160580520Y-67418716D01*
X160659577Y-67281784D01*
X160700500Y-67129057D01*
X160700500Y-66970943D01*
X160659577Y-66818216D01*
X160580520Y-66681284D01*
X160468716Y-66569480D01*
X160372464Y-66513909D01*
X160331783Y-66490422D01*
X160331780Y-66490421D01*
X160179063Y-66449501D01*
X160179058Y-66449500D01*
X160179057Y-66449500D01*
X160020943Y-66449500D01*
X160020942Y-66449500D01*
X160020936Y-66449501D01*
X159868219Y-66490421D01*
X159868216Y-66490422D01*
X159771964Y-66545993D01*
X159731284Y-66569480D01*
X159731283Y-66569481D01*
X159731279Y-66569484D01*
X159619484Y-66681279D01*
X159619481Y-66681283D01*
X159540422Y-66818216D01*
X159540421Y-66818219D01*
X159499501Y-66970936D01*
X159499500Y-66970944D01*
X136531847Y-66970944D01*
X136561446Y-66948068D01*
X136563525Y-66946531D01*
X137319218Y-66412121D01*
X137321362Y-66410672D01*
X137770339Y-66120944D01*
X138599500Y-66120944D01*
X138599500Y-66279055D01*
X138599501Y-66279063D01*
X138640421Y-66431780D01*
X138640422Y-66431783D01*
X138640423Y-66431784D01*
X138719480Y-66568716D01*
X138831284Y-66680520D01*
X138968216Y-66759577D01*
X138968219Y-66759578D01*
X139061681Y-66784621D01*
X139120943Y-66800500D01*
X139120944Y-66800500D01*
X139279056Y-66800500D01*
X139279057Y-66800500D01*
X139431784Y-66759577D01*
X139568716Y-66680520D01*
X139680520Y-66568716D01*
X139759577Y-66431784D01*
X139800500Y-66279057D01*
X139800500Y-66120943D01*
X139759577Y-65968216D01*
X139680520Y-65831284D01*
X139568716Y-65719480D01*
X139472464Y-65663909D01*
X139431783Y-65640422D01*
X139431780Y-65640421D01*
X139279063Y-65599501D01*
X139279058Y-65599500D01*
X139279057Y-65599500D01*
X139120943Y-65599500D01*
X139120942Y-65599500D01*
X139120936Y-65599501D01*
X138968219Y-65640421D01*
X138968216Y-65640422D01*
X138910886Y-65673522D01*
X138831284Y-65719480D01*
X138831283Y-65719481D01*
X138831279Y-65719484D01*
X138719484Y-65831279D01*
X138719481Y-65831283D01*
X138640422Y-65968216D01*
X138640421Y-65968219D01*
X138599501Y-66120936D01*
X138599500Y-66120944D01*
X137770339Y-66120944D01*
X138099053Y-65908822D01*
X138101262Y-65907461D01*
X138899559Y-65439068D01*
X138901831Y-65437800D01*
X139719266Y-65003722D01*
X139721618Y-65002536D01*
X140556754Y-64603539D01*
X140559074Y-64602490D01*
X141410440Y-64239278D01*
X141412818Y-64238322D01*
X142278817Y-63911579D01*
X142281226Y-63910728D01*
X143160283Y-63621045D01*
X143162803Y-63620273D01*
X144053343Y-63368166D01*
X144055878Y-63367507D01*
X144956329Y-63153422D01*
X144958844Y-63152880D01*
X145867574Y-62977207D01*
X145870178Y-62976760D01*
X146785538Y-62839816D01*
X146788075Y-62839492D01*
X147708472Y-62741516D01*
X147711020Y-62741300D01*
X148634749Y-62682478D01*
X148637326Y-62682369D01*
X149070155Y-62673219D01*
X149114726Y-62690587D01*
X149125602Y-62704454D01*
X149163499Y-62770093D01*
X149163504Y-62770099D01*
X149256680Y-62863275D01*
X149256684Y-62863278D01*
X149256686Y-62863280D01*
X149370814Y-62929172D01*
X149370817Y-62929173D01*
X149448712Y-62950044D01*
X149498108Y-62963280D01*
X149498109Y-62963280D01*
X149629891Y-62963280D01*
X149629892Y-62963280D01*
X149757186Y-62929172D01*
X149871314Y-62863280D01*
X149964500Y-62770094D01*
X150030392Y-62655966D01*
X150064500Y-62528672D01*
X150064500Y-62512958D01*
X150082806Y-62468764D01*
X150126868Y-62450459D01*
X153621644Y-62443268D01*
X153633459Y-62444372D01*
G37*
%TD.AperFunction*%
%TD*%
%TA.AperFunction,Conductor*%
%TO.N,GND*%
G36*
X188741621Y-35220502D02*
G01*
X188788114Y-35274158D01*
X188799500Y-35326500D01*
X188799500Y-45539882D01*
X188830023Y-45613573D01*
X188830026Y-45613577D01*
X188886422Y-45669973D01*
X188886426Y-45669976D01*
X188960118Y-45700500D01*
X189039882Y-45700500D01*
X199173500Y-45700500D01*
X199241621Y-45720502D01*
X199288114Y-45774158D01*
X199299500Y-45826500D01*
X199299500Y-124173500D01*
X199279498Y-124241621D01*
X199225842Y-124288114D01*
X199173500Y-124299500D01*
X188960118Y-124299500D01*
X188886426Y-124330023D01*
X188886422Y-124330026D01*
X188830026Y-124386422D01*
X188830023Y-124386426D01*
X188799500Y-124460117D01*
X188799500Y-134673500D01*
X188779498Y-134741621D01*
X188725842Y-134788114D01*
X188673500Y-134799500D01*
X110326500Y-134799500D01*
X110258379Y-134779498D01*
X110211886Y-134725842D01*
X110200500Y-134673500D01*
X110200500Y-124460117D01*
X110169976Y-124386426D01*
X110169973Y-124386422D01*
X110113577Y-124330026D01*
X110113573Y-124330023D01*
X110039882Y-124299500D01*
X99826500Y-124299500D01*
X99758379Y-124279498D01*
X99711886Y-124225842D01*
X99700500Y-124173500D01*
X99700500Y-84824024D01*
X107366500Y-84824024D01*
X107366500Y-85175975D01*
X107405906Y-85525711D01*
X107484223Y-85868837D01*
X107600455Y-86201010D01*
X107600466Y-86201037D01*
X107753163Y-86518116D01*
X107753168Y-86518125D01*
X107940414Y-86816124D01*
X108159844Y-87091283D01*
X108408716Y-87340155D01*
X108683875Y-87559585D01*
X108966897Y-87737420D01*
X108981879Y-87746834D01*
X109298972Y-87899538D01*
X109298988Y-87899543D01*
X109298989Y-87899544D01*
X109631162Y-88015776D01*
X109631165Y-88015776D01*
X109631169Y-88015778D01*
X109974292Y-88094094D01*
X110222284Y-88122036D01*
X110324024Y-88133500D01*
X110324026Y-88133500D01*
X110675976Y-88133500D01*
X110764795Y-88123492D01*
X111025708Y-88094094D01*
X111368831Y-88015778D01*
X111701028Y-87899538D01*
X112018121Y-87746834D01*
X112316123Y-87559586D01*
X112443703Y-87457845D01*
X112591283Y-87340155D01*
X112840155Y-87091283D01*
X113059585Y-86816124D01*
X113118394Y-86722531D01*
X113246834Y-86518121D01*
X113399538Y-86201028D01*
X113414295Y-86158854D01*
X113455671Y-86101164D01*
X113521671Y-86075000D01*
X113591339Y-86088672D01*
X113642556Y-86137838D01*
X113659069Y-86194214D01*
X113676680Y-86548531D01*
X113700446Y-87026694D01*
X113788997Y-88094094D01*
X113798647Y-88210408D01*
X113935976Y-89390207D01*
X114112282Y-90564801D01*
X114327379Y-91732943D01*
X114327380Y-91732948D01*
X114349743Y-91835253D01*
X114581029Y-92893345D01*
X114872939Y-94044660D01*
X115202804Y-95185694D01*
X115461198Y-95979952D01*
X115570267Y-96315208D01*
X115760533Y-96840292D01*
X115974915Y-97431930D01*
X116416301Y-98534632D01*
X116893960Y-99622147D01*
X117407342Y-100693227D01*
X117955893Y-101746714D01*
X118539046Y-102781518D01*
X118747282Y-103124006D01*
X119156107Y-103796407D01*
X119806433Y-104790326D01*
X120489303Y-105762174D01*
X120670034Y-106002092D01*
X121203982Y-106710902D01*
X121949633Y-107635400D01*
X122725524Y-108534762D01*
X123110397Y-108952112D01*
X123530742Y-109407927D01*
X124364425Y-110253961D01*
X125225655Y-111071935D01*
X126113491Y-111860951D01*
X126954090Y-112559584D01*
X127026975Y-112620160D01*
X127965043Y-113348678D01*
X128926760Y-114045778D01*
X129910994Y-114710641D01*
X129911004Y-114710647D01*
X130916722Y-115342574D01*
X131942806Y-115940863D01*
X132988133Y-116504859D01*
X134051556Y-117033942D01*
X135131911Y-117527534D01*
X136228013Y-117985094D01*
X137338660Y-118406119D01*
X137338666Y-118406121D01*
X137338687Y-118406129D01*
X138462611Y-118790141D01*
X138462616Y-118790142D01*
X138462635Y-118790149D01*
X139598707Y-119136762D01*
X140745629Y-119445578D01*
X141902146Y-119716260D01*
X142689008Y-119873147D01*
X143066983Y-119948509D01*
X143066988Y-119948509D01*
X143066989Y-119948510D01*
X144238881Y-120142074D01*
X145416539Y-120296739D01*
X146477766Y-120400513D01*
X146543613Y-120427049D01*
X146584664Y-120484975D01*
X146591500Y-120525914D01*
X146591500Y-120589481D01*
X146606175Y-120663258D01*
X146623922Y-120752479D01*
X146626414Y-120765003D01*
X146636859Y-120790219D01*
X146694898Y-120930336D01*
X146794322Y-121079135D01*
X146920865Y-121205678D01*
X147069664Y-121305102D01*
X147206628Y-121361835D01*
X147234997Y-121373586D01*
X147234998Y-121373586D01*
X147235000Y-121373587D01*
X147395236Y-121405459D01*
X147458145Y-121438366D01*
X147493277Y-121500061D01*
X147489477Y-121570956D01*
X147449216Y-121627547D01*
X147408713Y-121659847D01*
X147159844Y-121908716D01*
X146940414Y-122183875D01*
X146753168Y-122481874D01*
X146753163Y-122481883D01*
X146600466Y-122798962D01*
X146600455Y-122798989D01*
X146484223Y-123131162D01*
X146405906Y-123474288D01*
X146366500Y-123824024D01*
X146366500Y-124175975D01*
X146405906Y-124525711D01*
X146484223Y-124868837D01*
X146600455Y-125201010D01*
X146600466Y-125201037D01*
X146753163Y-125518116D01*
X146753168Y-125518125D01*
X146940414Y-125816124D01*
X147159844Y-126091283D01*
X147408716Y-126340155D01*
X147683875Y-126559585D01*
X147683877Y-126559586D01*
X147981879Y-126746834D01*
X148298972Y-126899538D01*
X148298988Y-126899543D01*
X148298989Y-126899544D01*
X148631162Y-127015776D01*
X148631165Y-127015776D01*
X148631169Y-127015778D01*
X148974292Y-127094094D01*
X149222284Y-127122036D01*
X149324024Y-127133500D01*
X149324026Y-127133500D01*
X149675976Y-127133500D01*
X149764795Y-127123492D01*
X150025708Y-127094094D01*
X150368831Y-127015778D01*
X150701028Y-126899538D01*
X151018121Y-126746834D01*
X151316123Y-126559586D01*
X151371155Y-126515699D01*
X151591283Y-126340155D01*
X151840155Y-126091283D01*
X152059585Y-125816124D01*
X152246831Y-125518125D01*
X152246834Y-125518121D01*
X152399538Y-125201028D01*
X152515778Y-124868831D01*
X152594094Y-124525708D01*
X152633500Y-124175974D01*
X152633500Y-123824026D01*
X152594094Y-123474292D01*
X152515778Y-123131169D01*
X152399538Y-122798972D01*
X152246834Y-122481879D01*
X152059586Y-122183877D01*
X152059585Y-122183875D01*
X151840155Y-121908716D01*
X151591283Y-121659844D01*
X151316124Y-121440414D01*
X151018125Y-121253168D01*
X151018116Y-121253163D01*
X150701037Y-121100466D01*
X150701032Y-121100464D01*
X150701028Y-121100462D01*
X150701022Y-121100459D01*
X150701010Y-121100455D01*
X150368837Y-120984223D01*
X150025704Y-120905904D01*
X149997593Y-120902737D01*
X149932141Y-120875233D01*
X149891949Y-120816708D01*
X149889778Y-120745745D01*
X149926318Y-120684873D01*
X149942385Y-120673546D01*
X149941821Y-120672702D01*
X149955955Y-120663258D01*
X150079389Y-120580783D01*
X150192003Y-120468169D01*
X150280483Y-120335748D01*
X150341430Y-120188611D01*
X150372500Y-120032410D01*
X150372500Y-119873150D01*
X150360056Y-119810589D01*
X150366384Y-119739877D01*
X150409938Y-119683810D01*
X150476890Y-119660190D01*
X150479473Y-119660077D01*
X150876608Y-119647025D01*
X151321872Y-119632391D01*
X151906797Y-119593770D01*
X152491730Y-119555149D01*
X153658403Y-119439264D01*
X154820605Y-119284863D01*
X155977066Y-119092115D01*
X157126521Y-118861231D01*
X158267712Y-118592462D01*
X159399392Y-118286104D01*
X160520322Y-117942491D01*
X161629277Y-117562000D01*
X162725042Y-117145045D01*
X163806421Y-116692084D01*
X164872230Y-116203611D01*
X165921304Y-115680162D01*
X166952494Y-115122308D01*
X167964673Y-114530660D01*
X168956734Y-113905864D01*
X169927591Y-113248605D01*
X170876184Y-112559601D01*
X170876206Y-112559584D01*
X171801472Y-111839608D01*
X172702446Y-111089411D01*
X173578127Y-110309823D01*
X173636844Y-110253961D01*
X174427540Y-109501714D01*
X175249770Y-108665955D01*
X176043913Y-107803464D01*
X176809101Y-106915184D01*
X177544497Y-106002086D01*
X178249296Y-105065170D01*
X178922728Y-104105460D01*
X179564056Y-103124006D01*
X180172579Y-102121881D01*
X180747631Y-101100182D01*
X181288583Y-100060025D01*
X181794843Y-99002550D01*
X182265857Y-97928911D01*
X182701111Y-96840285D01*
X183100129Y-95737860D01*
X183462473Y-94622844D01*
X183787748Y-93496456D01*
X184075597Y-92359928D01*
X184325707Y-91214502D01*
X184537803Y-90061433D01*
X184711653Y-88901980D01*
X184847067Y-87737413D01*
X184943898Y-86569005D01*
X184944600Y-86554878D01*
X184957066Y-86303788D01*
X185002039Y-85398033D01*
X185011532Y-84824024D01*
X185366500Y-84824024D01*
X185366500Y-85175975D01*
X185405906Y-85525711D01*
X185484223Y-85868837D01*
X185600455Y-86201010D01*
X185600466Y-86201037D01*
X185753163Y-86518116D01*
X185753168Y-86518125D01*
X185940414Y-86816124D01*
X186159844Y-87091283D01*
X186408716Y-87340155D01*
X186683875Y-87559585D01*
X186966897Y-87737420D01*
X186981879Y-87746834D01*
X187298972Y-87899538D01*
X187298988Y-87899543D01*
X187298989Y-87899544D01*
X187631162Y-88015776D01*
X187631165Y-88015776D01*
X187631169Y-88015778D01*
X187974292Y-88094094D01*
X188222284Y-88122036D01*
X188324024Y-88133500D01*
X188324026Y-88133500D01*
X188675976Y-88133500D01*
X188764795Y-88123492D01*
X189025708Y-88094094D01*
X189368831Y-88015778D01*
X189701028Y-87899538D01*
X190018121Y-87746834D01*
X190316123Y-87559586D01*
X190443703Y-87457845D01*
X190591283Y-87340155D01*
X190840155Y-87091283D01*
X191059585Y-86816124D01*
X191118394Y-86722531D01*
X191246834Y-86518121D01*
X191399538Y-86201028D01*
X191515778Y-85868831D01*
X191594094Y-85525708D01*
X191633500Y-85175974D01*
X191633500Y-84824026D01*
X191594094Y-84474292D01*
X191515778Y-84131169D01*
X191399538Y-83798972D01*
X191246834Y-83481879D01*
X191059586Y-83183877D01*
X191059585Y-83183875D01*
X190840155Y-82908716D01*
X190591283Y-82659844D01*
X190316124Y-82440414D01*
X190018125Y-82253168D01*
X190018116Y-82253163D01*
X189701037Y-82100466D01*
X189701032Y-82100464D01*
X189701028Y-82100462D01*
X189701022Y-82100459D01*
X189701010Y-82100455D01*
X189368837Y-81984223D01*
X189025711Y-81905906D01*
X188675976Y-81866500D01*
X188675974Y-81866500D01*
X188324026Y-81866500D01*
X188324024Y-81866500D01*
X187974288Y-81905906D01*
X187631162Y-81984223D01*
X187298989Y-82100455D01*
X187298962Y-82100466D01*
X186981883Y-82253163D01*
X186981874Y-82253168D01*
X186683875Y-82440414D01*
X186408716Y-82659844D01*
X186159844Y-82908716D01*
X185940414Y-83183875D01*
X185753168Y-83481874D01*
X185753163Y-83481883D01*
X185600466Y-83798962D01*
X185600455Y-83798989D01*
X185484223Y-84131162D01*
X185405906Y-84474288D01*
X185366500Y-84824024D01*
X185011532Y-84824024D01*
X185021426Y-84225780D01*
X185002039Y-83053527D01*
X184954718Y-82100466D01*
X184943899Y-81882570D01*
X184935979Y-81787000D01*
X184847067Y-80714147D01*
X184711653Y-79549580D01*
X184537803Y-78390127D01*
X184325707Y-77237058D01*
X184075597Y-76091632D01*
X183990914Y-75757276D01*
X183897475Y-75388344D01*
X183787748Y-74955104D01*
X183462473Y-73828716D01*
X183100129Y-72713700D01*
X182701111Y-71611275D01*
X182265857Y-70522649D01*
X181794843Y-69449010D01*
X181288583Y-68391535D01*
X181288572Y-68391513D01*
X180747640Y-67351394D01*
X180172574Y-66329669D01*
X179807639Y-65728691D01*
X179564056Y-65327554D01*
X178922728Y-64346100D01*
X178249296Y-63386390D01*
X177544497Y-62449474D01*
X176809101Y-61536376D01*
X176043913Y-60648096D01*
X175713020Y-60288724D01*
X175249777Y-59785612D01*
X174427530Y-58949836D01*
X173578127Y-58141736D01*
X172702446Y-57362148D01*
X171801472Y-56611951D01*
X170876206Y-55891975D01*
X170005832Y-55259785D01*
X169927591Y-55202955D01*
X168956734Y-54545696D01*
X168956730Y-54545693D01*
X168956716Y-54545684D01*
X167964675Y-53920900D01*
X166952512Y-53329262D01*
X166952494Y-53329252D01*
X165921304Y-52771398D01*
X164872230Y-52247949D01*
X164872216Y-52247942D01*
X163806418Y-51759474D01*
X162725059Y-51306521D01*
X161629273Y-50889558D01*
X160520316Y-50509067D01*
X159399383Y-50165453D01*
X158267711Y-49859097D01*
X157126543Y-49590334D01*
X157126537Y-49590332D01*
X157126521Y-49590329D01*
X155977066Y-49359445D01*
X154820605Y-49166697D01*
X153658403Y-49012296D01*
X153658388Y-49012294D01*
X152491722Y-48896410D01*
X151330691Y-48819751D01*
X151264036Y-48795305D01*
X151221179Y-48738702D01*
X151215727Y-48667915D01*
X151249411Y-48605418D01*
X151271956Y-48587338D01*
X151316123Y-48559586D01*
X151407844Y-48486441D01*
X151591283Y-48340155D01*
X151840155Y-48091283D01*
X152059585Y-47816124D01*
X152246831Y-47518125D01*
X152246834Y-47518121D01*
X152399538Y-47201028D01*
X152515778Y-46868831D01*
X152594094Y-46525708D01*
X152633500Y-46175974D01*
X152633500Y-45824026D01*
X152594094Y-45474292D01*
X152515778Y-45131169D01*
X152399538Y-44798972D01*
X152246834Y-44481879D01*
X152059586Y-44183877D01*
X152059585Y-44183875D01*
X151840155Y-43908716D01*
X151591283Y-43659844D01*
X151316124Y-43440414D01*
X151018125Y-43253168D01*
X151018116Y-43253163D01*
X150701037Y-43100466D01*
X150701032Y-43100464D01*
X150701028Y-43100462D01*
X150701022Y-43100459D01*
X150701010Y-43100455D01*
X150368837Y-42984223D01*
X150025711Y-42905906D01*
X149675976Y-42866500D01*
X149675974Y-42866500D01*
X149324026Y-42866500D01*
X149324024Y-42866500D01*
X148974288Y-42905906D01*
X148631162Y-42984223D01*
X148298989Y-43100455D01*
X148298962Y-43100466D01*
X147981883Y-43253163D01*
X147981874Y-43253168D01*
X147683875Y-43440414D01*
X147408716Y-43659844D01*
X147159844Y-43908716D01*
X146940414Y-44183875D01*
X146753168Y-44481874D01*
X146753163Y-44481883D01*
X146600466Y-44798962D01*
X146600455Y-44798989D01*
X146484223Y-45131162D01*
X146405906Y-45474288D01*
X146366500Y-45824024D01*
X146366500Y-46175975D01*
X146405906Y-46525711D01*
X146484223Y-46868837D01*
X146600455Y-47201010D01*
X146600466Y-47201037D01*
X146753163Y-47518116D01*
X146753168Y-47518125D01*
X146940414Y-47816124D01*
X147159844Y-48091283D01*
X147408716Y-48340155D01*
X147683875Y-48559585D01*
X147734481Y-48591383D01*
X147781519Y-48644562D01*
X147792339Y-48714729D01*
X147763506Y-48779607D01*
X147704174Y-48818598D01*
X147675550Y-48823809D01*
X146598677Y-48893222D01*
X145416527Y-49008822D01*
X144238896Y-49163483D01*
X143066983Y-49357050D01*
X141902154Y-49589298D01*
X141897749Y-49590329D01*
X140745629Y-49859982D01*
X139598707Y-50168798D01*
X138976849Y-50358525D01*
X138462611Y-50515418D01*
X137338687Y-50899430D01*
X136228007Y-51320468D01*
X135131904Y-51778029D01*
X134051558Y-52271617D01*
X132988120Y-52800707D01*
X131942813Y-53364692D01*
X130916729Y-53962981D01*
X129910994Y-54594918D01*
X128926760Y-55259781D01*
X127965043Y-55956881D01*
X127026975Y-56685399D01*
X126503481Y-57120482D01*
X126113491Y-57444609D01*
X125329055Y-58141734D01*
X125225646Y-58233633D01*
X124364421Y-59051602D01*
X123530742Y-59897633D01*
X122725524Y-60770797D01*
X121949633Y-61670159D01*
X121203982Y-62594657D01*
X120489311Y-63543375D01*
X119806421Y-64515251D01*
X119156109Y-65509149D01*
X118539046Y-66524041D01*
X117955893Y-67558845D01*
X117407342Y-68612332D01*
X116893960Y-69683412D01*
X116416301Y-70770927D01*
X115974915Y-71873629D01*
X115570267Y-72990352D01*
X115202804Y-74119865D01*
X114872939Y-75260899D01*
X114581029Y-76412214D01*
X114327379Y-77572616D01*
X114112282Y-78740758D01*
X113935976Y-79915352D01*
X113865603Y-80519929D01*
X113798646Y-81095162D01*
X113700446Y-82278866D01*
X113641483Y-83465172D01*
X113641207Y-83481874D01*
X113636901Y-83741941D01*
X113615774Y-83809721D01*
X113561356Y-83855319D01*
X113490924Y-83864259D01*
X113426840Y-83833700D01*
X113397396Y-83794524D01*
X113246836Y-83481883D01*
X113246831Y-83481874D01*
X113059585Y-83183875D01*
X112840155Y-82908716D01*
X112591283Y-82659844D01*
X112316124Y-82440414D01*
X112018125Y-82253168D01*
X112018116Y-82253163D01*
X111701037Y-82100466D01*
X111701032Y-82100464D01*
X111701028Y-82100462D01*
X111701022Y-82100459D01*
X111701010Y-82100455D01*
X111368837Y-81984223D01*
X111025711Y-81905906D01*
X110675976Y-81866500D01*
X110675974Y-81866500D01*
X110324026Y-81866500D01*
X110324024Y-81866500D01*
X109974288Y-81905906D01*
X109631162Y-81984223D01*
X109298989Y-82100455D01*
X109298962Y-82100466D01*
X108981883Y-82253163D01*
X108981874Y-82253168D01*
X108683875Y-82440414D01*
X108408716Y-82659844D01*
X108159844Y-82908716D01*
X107940414Y-83183875D01*
X107753168Y-83481874D01*
X107753163Y-83481883D01*
X107600466Y-83798962D01*
X107600455Y-83798989D01*
X107484223Y-84131162D01*
X107405906Y-84474288D01*
X107366500Y-84824024D01*
X99700500Y-84824024D01*
X99700500Y-45826500D01*
X99720502Y-45758379D01*
X99774158Y-45711886D01*
X99826500Y-45700500D01*
X110039882Y-45700500D01*
X110113574Y-45669976D01*
X110169976Y-45613574D01*
X110200500Y-45539882D01*
X110200500Y-35326500D01*
X110220502Y-35258379D01*
X110274158Y-35211886D01*
X110326500Y-35200500D01*
X188673500Y-35200500D01*
X188741621Y-35220502D01*
G37*
%TD.AperFunction*%
%TD*%
M02*
