%TF.GenerationSoftware,KiCad,Pcbnew,9.0.0*%
%TF.CreationDate,2025-09-25T18:34:07-07:00*%
%TF.ProjectId,Z_Face_V3,5a5f4661-6365-45f5-9633-2e6b69636164,3.1*%
%TF.SameCoordinates,Original*%
%TF.FileFunction,Legend,Top*%
%TF.FilePolarity,Positive*%
%FSLAX46Y46*%
G04 Gerber Fmt 4.6, Leading zero omitted, Abs format (unit mm)*
G04 Created by KiCad (PCBNEW 9.0.0) date 2025-09-25 18:34:07*
%MOMM*%
%LPD*%
G01*
G04 APERTURE LIST*
G04 Aperture macros list*
%AMRoundRect*
0 Rectangle with rounded corners*
0 $1 Rounding radius*
0 $2 $3 $4 $5 $6 $7 $8 $9 X,Y pos of 4 corners*
0 Add a 4 corners polygon primitive as box body*
4,1,4,$2,$3,$4,$5,$6,$7,$8,$9,$2,$3,0*
0 Add four circle primitives for the rounded corners*
1,1,$1+$1,$2,$3*
1,1,$1+$1,$4,$5*
1,1,$1+$1,$6,$7*
1,1,$1+$1,$8,$9*
0 Add four rect primitives between the rounded corners*
20,1,$1+$1,$2,$3,$4,$5,0*
20,1,$1+$1,$4,$5,$6,$7,0*
20,1,$1+$1,$6,$7,$8,$9,0*
20,1,$1+$1,$8,$9,$2,$3,0*%
%AMHorizOval*
0 Thick line with rounded ends*
0 $1 width*
0 $2 $3 position (X,Y) of the first rounded end (center of the circle)*
0 $4 $5 position (X,Y) of the second rounded end (center of the circle)*
0 Add line between two ends*
20,1,$1,$2,$3,$4,$5,0*
0 Add two circle primitives to create the rounded ends*
1,1,$1,$2,$3*
1,1,$1,$4,$5*%
%AMRotRect*
0 Rectangle, with rotation*
0 The origin of the aperture is its center*
0 $1 length*
0 $2 width*
0 $3 Rotation angle, in degrees counterclockwise*
0 Add horizontal line*
21,1,$1,$2,0,0,$3*%
G04 Aperture macros list end*
%ADD10C,0.150000*%
%ADD11C,0.500000*%
%ADD12C,0.100000*%
%ADD13C,0.120000*%
%ADD14RotRect,0.850000X0.790000X135.000000*%
%ADD15RotRect,0.790000X0.850000X315.000000*%
%ADD16RotRect,2.500000X1.700000X45.000000*%
%ADD17RoundRect,0.750000X0.750000X-0.750000X0.750000X0.750000X-0.750000X0.750000X-0.750000X-0.750000X0*%
%ADD18RoundRect,0.140000X-0.021213X0.219203X-0.219203X0.021213X0.021213X-0.219203X0.219203X-0.021213X0*%
%ADD19RoundRect,0.140000X0.219203X0.021213X0.021213X0.219203X-0.219203X-0.021213X-0.021213X-0.219203X0*%
%ADD20RoundRect,0.218750X0.335876X0.026517X0.026517X0.335876X-0.335876X-0.026517X-0.026517X-0.335876X0*%
%ADD21RoundRect,0.140000X0.140000X0.170000X-0.140000X0.170000X-0.140000X-0.170000X0.140000X-0.170000X0*%
%ADD22RoundRect,0.140000X0.021213X-0.219203X0.219203X-0.021213X-0.021213X0.219203X-0.219203X0.021213X0*%
%ADD23RoundRect,0.087500X0.238649X-0.114905X-0.114905X0.238649X-0.238649X0.114905X0.114905X-0.238649X0*%
%ADD24RotRect,13.000000X3.000000X45.000000*%
%ADD25RoundRect,0.140000X-0.219203X-0.021213X-0.021213X-0.219203X0.219203X0.021213X0.021213X0.219203X0*%
%ADD26RoundRect,0.075000X-0.512652X0.406586X0.406586X-0.512652X0.512652X-0.406586X-0.406586X0.512652X0*%
%ADD27RotRect,2.500000X1.700000X135.000000*%
%ADD28C,0.600000*%
%ADD29RotRect,13.000000X3.000000X225.000000*%
%ADD30RoundRect,0.125000X0.574524X-0.397748X-0.397748X0.574524X-0.574524X0.397748X0.397748X-0.574524X0*%
%ADD31RoundRect,0.250000X0.159099X-0.654074X0.654074X-0.159099X-0.159099X0.654074X-0.654074X0.159099X0*%
%ADD32HorizOval,1.200000X-0.159099X0.159099X0.159099X-0.159099X0*%
%ADD33C,5.600000*%
G04 APERTURE END LIST*
D10*
X119248095Y-127952438D02*
X119152857Y-127904819D01*
X119152857Y-127904819D02*
X119010000Y-127904819D01*
X119010000Y-127904819D02*
X118867143Y-127952438D01*
X118867143Y-127952438D02*
X118771905Y-128047676D01*
X118771905Y-128047676D02*
X118724286Y-128142914D01*
X118724286Y-128142914D02*
X118676667Y-128333390D01*
X118676667Y-128333390D02*
X118676667Y-128476247D01*
X118676667Y-128476247D02*
X118724286Y-128666723D01*
X118724286Y-128666723D02*
X118771905Y-128761961D01*
X118771905Y-128761961D02*
X118867143Y-128857200D01*
X118867143Y-128857200D02*
X119010000Y-128904819D01*
X119010000Y-128904819D02*
X119105238Y-128904819D01*
X119105238Y-128904819D02*
X119248095Y-128857200D01*
X119248095Y-128857200D02*
X119295714Y-128809580D01*
X119295714Y-128809580D02*
X119295714Y-128476247D01*
X119295714Y-128476247D02*
X119105238Y-128476247D01*
X119724286Y-128904819D02*
X119724286Y-127904819D01*
X119724286Y-127904819D02*
X120295714Y-128904819D01*
X120295714Y-128904819D02*
X120295714Y-127904819D01*
X120771905Y-128904819D02*
X120771905Y-127904819D01*
X120771905Y-127904819D02*
X121010000Y-127904819D01*
X121010000Y-127904819D02*
X121152857Y-127952438D01*
X121152857Y-127952438D02*
X121248095Y-128047676D01*
X121248095Y-128047676D02*
X121295714Y-128142914D01*
X121295714Y-128142914D02*
X121343333Y-128333390D01*
X121343333Y-128333390D02*
X121343333Y-128476247D01*
X121343333Y-128476247D02*
X121295714Y-128666723D01*
X121295714Y-128666723D02*
X121248095Y-128761961D01*
X121248095Y-128761961D02*
X121152857Y-128857200D01*
X121152857Y-128857200D02*
X121010000Y-128904819D01*
X121010000Y-128904819D02*
X120771905Y-128904819D01*
X110723333Y-127954819D02*
X111056666Y-128954819D01*
X111056666Y-128954819D02*
X111389999Y-127954819D01*
X111675714Y-128907200D02*
X111818571Y-128954819D01*
X111818571Y-128954819D02*
X112056666Y-128954819D01*
X112056666Y-128954819D02*
X112151904Y-128907200D01*
X112151904Y-128907200D02*
X112199523Y-128859580D01*
X112199523Y-128859580D02*
X112247142Y-128764342D01*
X112247142Y-128764342D02*
X112247142Y-128669104D01*
X112247142Y-128669104D02*
X112199523Y-128573866D01*
X112199523Y-128573866D02*
X112151904Y-128526247D01*
X112151904Y-128526247D02*
X112056666Y-128478628D01*
X112056666Y-128478628D02*
X111866190Y-128431009D01*
X111866190Y-128431009D02*
X111770952Y-128383390D01*
X111770952Y-128383390D02*
X111723333Y-128335771D01*
X111723333Y-128335771D02*
X111675714Y-128240533D01*
X111675714Y-128240533D02*
X111675714Y-128145295D01*
X111675714Y-128145295D02*
X111723333Y-128050057D01*
X111723333Y-128050057D02*
X111770952Y-128002438D01*
X111770952Y-128002438D02*
X111866190Y-127954819D01*
X111866190Y-127954819D02*
X112104285Y-127954819D01*
X112104285Y-127954819D02*
X112247142Y-128002438D01*
X112866190Y-127954819D02*
X113056666Y-127954819D01*
X113056666Y-127954819D02*
X113151904Y-128002438D01*
X113151904Y-128002438D02*
X113247142Y-128097676D01*
X113247142Y-128097676D02*
X113294761Y-128288152D01*
X113294761Y-128288152D02*
X113294761Y-128621485D01*
X113294761Y-128621485D02*
X113247142Y-128811961D01*
X113247142Y-128811961D02*
X113151904Y-128907200D01*
X113151904Y-128907200D02*
X113056666Y-128954819D01*
X113056666Y-128954819D02*
X112866190Y-128954819D01*
X112866190Y-128954819D02*
X112770952Y-128907200D01*
X112770952Y-128907200D02*
X112675714Y-128811961D01*
X112675714Y-128811961D02*
X112628095Y-128621485D01*
X112628095Y-128621485D02*
X112628095Y-128288152D01*
X112628095Y-128288152D02*
X112675714Y-128097676D01*
X112675714Y-128097676D02*
X112770952Y-128002438D01*
X112770952Y-128002438D02*
X112866190Y-127954819D01*
X114199523Y-128954819D02*
X113723333Y-128954819D01*
X113723333Y-128954819D02*
X113723333Y-127954819D01*
X114485238Y-128669104D02*
X114961428Y-128669104D01*
X114390000Y-128954819D02*
X114723333Y-127954819D01*
X114723333Y-127954819D02*
X115056666Y-128954819D01*
X115961428Y-128954819D02*
X115628095Y-128478628D01*
X115390000Y-128954819D02*
X115390000Y-127954819D01*
X115390000Y-127954819D02*
X115770952Y-127954819D01*
X115770952Y-127954819D02*
X115866190Y-128002438D01*
X115866190Y-128002438D02*
X115913809Y-128050057D01*
X115913809Y-128050057D02*
X115961428Y-128145295D01*
X115961428Y-128145295D02*
X115961428Y-128288152D01*
X115961428Y-128288152D02*
X115913809Y-128383390D01*
X115913809Y-128383390D02*
X115866190Y-128431009D01*
X115866190Y-128431009D02*
X115770952Y-128478628D01*
X115770952Y-128478628D02*
X115390000Y-128478628D01*
X131571844Y-101077005D02*
X130999424Y-101649425D01*
X130999424Y-101649425D02*
X130965752Y-101750440D01*
X130965752Y-101750440D02*
X130965752Y-101817784D01*
X130965752Y-101817784D02*
X130999424Y-101918799D01*
X130999424Y-101918799D02*
X131134111Y-102053486D01*
X131134111Y-102053486D02*
X131235126Y-102087158D01*
X131235126Y-102087158D02*
X131302470Y-102087158D01*
X131302470Y-102087158D02*
X131403485Y-102053486D01*
X131403485Y-102053486D02*
X131975905Y-101481066D01*
X131975905Y-102895280D02*
X131571844Y-102491219D01*
X131773874Y-102693249D02*
X132480981Y-101986143D01*
X132480981Y-101986143D02*
X132312622Y-102019814D01*
X132312622Y-102019814D02*
X132177935Y-102019814D01*
X132177935Y-102019814D02*
X132076920Y-101986143D01*
X111779693Y-48463517D02*
X111072587Y-47756410D01*
X111072587Y-47756410D02*
X111240945Y-47588051D01*
X111240945Y-47588051D02*
X111375632Y-47520708D01*
X111375632Y-47520708D02*
X111510319Y-47520708D01*
X111510319Y-47520708D02*
X111611335Y-47554380D01*
X111611335Y-47554380D02*
X111779693Y-47655395D01*
X111779693Y-47655395D02*
X111880709Y-47756410D01*
X111880709Y-47756410D02*
X111981724Y-47924769D01*
X111981724Y-47924769D02*
X112015396Y-48025784D01*
X112015396Y-48025784D02*
X112015396Y-48160471D01*
X112015396Y-48160471D02*
X111948052Y-48295158D01*
X111948052Y-48295158D02*
X111779693Y-48463517D01*
X111813365Y-47150319D02*
X111813365Y-47082975D01*
X111813365Y-47082975D02*
X111847037Y-46981960D01*
X111847037Y-46981960D02*
X112015396Y-46813601D01*
X112015396Y-46813601D02*
X112116411Y-46779929D01*
X112116411Y-46779929D02*
X112183754Y-46779929D01*
X112183754Y-46779929D02*
X112284770Y-46813601D01*
X112284770Y-46813601D02*
X112352113Y-46880945D01*
X112352113Y-46880945D02*
X112419457Y-47015632D01*
X112419457Y-47015632D02*
X112419457Y-47823754D01*
X112419457Y-47823754D02*
X112857189Y-47386021D01*
X112188095Y-132984819D02*
X112759523Y-132984819D01*
X112473809Y-133984819D02*
X112473809Y-132984819D01*
X113092857Y-133984819D02*
X113092857Y-132984819D01*
X113092857Y-132984819D02*
X113473809Y-132984819D01*
X113473809Y-132984819D02*
X113569047Y-133032438D01*
X113569047Y-133032438D02*
X113616666Y-133080057D01*
X113616666Y-133080057D02*
X113664285Y-133175295D01*
X113664285Y-133175295D02*
X113664285Y-133318152D01*
X113664285Y-133318152D02*
X113616666Y-133413390D01*
X113616666Y-133413390D02*
X113569047Y-133461009D01*
X113569047Y-133461009D02*
X113473809Y-133508628D01*
X113473809Y-133508628D02*
X113092857Y-133508628D01*
X114616666Y-133984819D02*
X114045238Y-133984819D01*
X114330952Y-133984819D02*
X114330952Y-132984819D01*
X114330952Y-132984819D02*
X114235714Y-133127676D01*
X114235714Y-133127676D02*
X114140476Y-133222914D01*
X114140476Y-133222914D02*
X114045238Y-133270533D01*
X165232845Y-72891204D02*
X165939952Y-72184098D01*
X165939952Y-72184098D02*
X166108311Y-72352456D01*
X166108311Y-72352456D02*
X166175654Y-72487143D01*
X166175654Y-72487143D02*
X166175654Y-72621830D01*
X166175654Y-72621830D02*
X166141982Y-72722846D01*
X166141982Y-72722846D02*
X166040967Y-72891204D01*
X166040967Y-72891204D02*
X165939952Y-72992220D01*
X165939952Y-72992220D02*
X165771593Y-73093235D01*
X165771593Y-73093235D02*
X165670578Y-73126907D01*
X165670578Y-73126907D02*
X165535891Y-73126907D01*
X165535891Y-73126907D02*
X165401204Y-73059563D01*
X165401204Y-73059563D02*
X165232845Y-72891204D01*
X166714402Y-73429952D02*
X166242998Y-73901357D01*
X166815417Y-72992220D02*
X166141982Y-73328937D01*
X166141982Y-73328937D02*
X166579715Y-73766670D01*
X122429185Y-113333788D02*
X122563872Y-113266444D01*
X122563872Y-113266444D02*
X122732231Y-113098086D01*
X122732231Y-113098086D02*
X122765902Y-112997070D01*
X122765902Y-112997070D02*
X122765902Y-112929727D01*
X122765902Y-112929727D02*
X122732231Y-112828712D01*
X122732231Y-112828712D02*
X122664887Y-112761368D01*
X122664887Y-112761368D02*
X122563872Y-112727696D01*
X122563872Y-112727696D02*
X122496528Y-112727696D01*
X122496528Y-112727696D02*
X122395513Y-112761368D01*
X122395513Y-112761368D02*
X122227154Y-112862383D01*
X122227154Y-112862383D02*
X122126139Y-112896055D01*
X122126139Y-112896055D02*
X122058796Y-112896055D01*
X122058796Y-112896055D02*
X121957780Y-112862383D01*
X121957780Y-112862383D02*
X121890437Y-112795040D01*
X121890437Y-112795040D02*
X121856765Y-112694025D01*
X121856765Y-112694025D02*
X121856765Y-112626681D01*
X121856765Y-112626681D02*
X121890437Y-112525666D01*
X121890437Y-112525666D02*
X122058796Y-112357307D01*
X122058796Y-112357307D02*
X122193483Y-112289964D01*
X123506681Y-112188948D02*
X123506681Y-112256292D01*
X123506681Y-112256292D02*
X123439338Y-112390979D01*
X123439338Y-112390979D02*
X123371994Y-112458322D01*
X123371994Y-112458322D02*
X123237307Y-112525666D01*
X123237307Y-112525666D02*
X123102620Y-112525666D01*
X123102620Y-112525666D02*
X123001605Y-112491994D01*
X123001605Y-112491994D02*
X122833246Y-112390979D01*
X122833246Y-112390979D02*
X122732231Y-112289963D01*
X122732231Y-112289963D02*
X122631215Y-112121605D01*
X122631215Y-112121605D02*
X122597544Y-112020589D01*
X122597544Y-112020589D02*
X122597544Y-111885902D01*
X122597544Y-111885902D02*
X122664887Y-111751215D01*
X122664887Y-111751215D02*
X122732231Y-111683872D01*
X122732231Y-111683872D02*
X122866918Y-111616528D01*
X122866918Y-111616528D02*
X122934261Y-111616528D01*
X123506681Y-110909422D02*
X123169963Y-111246139D01*
X123169963Y-111246139D02*
X123473009Y-111616528D01*
X123473009Y-111616528D02*
X123473009Y-111549185D01*
X123473009Y-111549185D02*
X123506681Y-111448170D01*
X123506681Y-111448170D02*
X123675040Y-111279811D01*
X123675040Y-111279811D02*
X123776055Y-111246139D01*
X123776055Y-111246139D02*
X123843399Y-111246139D01*
X123843399Y-111246139D02*
X123944414Y-111279811D01*
X123944414Y-111279811D02*
X124112773Y-111448170D01*
X124112773Y-111448170D02*
X124146444Y-111549185D01*
X124146444Y-111549185D02*
X124146444Y-111616528D01*
X124146444Y-111616528D02*
X124112773Y-111717544D01*
X124112773Y-111717544D02*
X123944414Y-111885902D01*
X123944414Y-111885902D02*
X123843399Y-111919574D01*
X123843399Y-111919574D02*
X123776055Y-111919574D01*
D11*
X110713026Y-101449270D02*
X112329270Y-99833026D01*
X112329270Y-101449270D02*
X110713026Y-99833026D01*
X133163666Y-123899910D02*
X134779910Y-122283666D01*
D10*
X118678095Y-132984819D02*
X119249523Y-132984819D01*
X118963809Y-133984819D02*
X118963809Y-132984819D01*
X119582857Y-133984819D02*
X119582857Y-132984819D01*
X119582857Y-132984819D02*
X119963809Y-132984819D01*
X119963809Y-132984819D02*
X120059047Y-133032438D01*
X120059047Y-133032438D02*
X120106666Y-133080057D01*
X120106666Y-133080057D02*
X120154285Y-133175295D01*
X120154285Y-133175295D02*
X120154285Y-133318152D01*
X120154285Y-133318152D02*
X120106666Y-133413390D01*
X120106666Y-133413390D02*
X120059047Y-133461009D01*
X120059047Y-133461009D02*
X119963809Y-133508628D01*
X119963809Y-133508628D02*
X119582857Y-133508628D01*
X120535238Y-133080057D02*
X120582857Y-133032438D01*
X120582857Y-133032438D02*
X120678095Y-132984819D01*
X120678095Y-132984819D02*
X120916190Y-132984819D01*
X120916190Y-132984819D02*
X121011428Y-133032438D01*
X121011428Y-133032438D02*
X121059047Y-133080057D01*
X121059047Y-133080057D02*
X121106666Y-133175295D01*
X121106666Y-133175295D02*
X121106666Y-133270533D01*
X121106666Y-133270533D02*
X121059047Y-133413390D01*
X121059047Y-133413390D02*
X120487619Y-133984819D01*
X120487619Y-133984819D02*
X121106666Y-133984819D01*
X138891321Y-59655924D02*
X139026008Y-59588580D01*
X139026008Y-59588580D02*
X139194367Y-59420222D01*
X139194367Y-59420222D02*
X139228038Y-59319206D01*
X139228038Y-59319206D02*
X139228038Y-59251863D01*
X139228038Y-59251863D02*
X139194367Y-59150848D01*
X139194367Y-59150848D02*
X139127023Y-59083504D01*
X139127023Y-59083504D02*
X139026008Y-59049832D01*
X139026008Y-59049832D02*
X138958664Y-59049832D01*
X138958664Y-59049832D02*
X138857649Y-59083504D01*
X138857649Y-59083504D02*
X138689290Y-59184519D01*
X138689290Y-59184519D02*
X138588275Y-59218191D01*
X138588275Y-59218191D02*
X138520932Y-59218191D01*
X138520932Y-59218191D02*
X138419916Y-59184519D01*
X138419916Y-59184519D02*
X138352573Y-59117176D01*
X138352573Y-59117176D02*
X138318901Y-59016161D01*
X138318901Y-59016161D02*
X138318901Y-58948817D01*
X138318901Y-58948817D02*
X138352573Y-58847802D01*
X138352573Y-58847802D02*
X138520932Y-58679443D01*
X138520932Y-58679443D02*
X138655619Y-58612100D01*
X139968817Y-58511084D02*
X139968817Y-58578428D01*
X139968817Y-58578428D02*
X139901474Y-58713115D01*
X139901474Y-58713115D02*
X139834130Y-58780458D01*
X139834130Y-58780458D02*
X139699443Y-58847802D01*
X139699443Y-58847802D02*
X139564756Y-58847802D01*
X139564756Y-58847802D02*
X139463741Y-58814130D01*
X139463741Y-58814130D02*
X139295382Y-58713115D01*
X139295382Y-58713115D02*
X139194367Y-58612099D01*
X139194367Y-58612099D02*
X139093351Y-58443741D01*
X139093351Y-58443741D02*
X139059680Y-58342725D01*
X139059680Y-58342725D02*
X139059680Y-58208038D01*
X139059680Y-58208038D02*
X139127023Y-58073351D01*
X139127023Y-58073351D02*
X139194367Y-58006008D01*
X139194367Y-58006008D02*
X139329054Y-57938664D01*
X139329054Y-57938664D02*
X139396397Y-57938664D01*
X139564756Y-57635619D02*
X140002489Y-57197886D01*
X140002489Y-57197886D02*
X140036161Y-57702962D01*
X140036161Y-57702962D02*
X140137176Y-57601947D01*
X140137176Y-57601947D02*
X140238191Y-57568275D01*
X140238191Y-57568275D02*
X140305535Y-57568275D01*
X140305535Y-57568275D02*
X140406550Y-57601947D01*
X140406550Y-57601947D02*
X140574909Y-57770306D01*
X140574909Y-57770306D02*
X140608580Y-57871321D01*
X140608580Y-57871321D02*
X140608580Y-57938664D01*
X140608580Y-57938664D02*
X140574909Y-58039680D01*
X140574909Y-58039680D02*
X140372878Y-58241710D01*
X140372878Y-58241710D02*
X140271863Y-58275382D01*
X140271863Y-58275382D02*
X140204519Y-58275382D01*
D11*
X149625802Y-70222046D02*
X151242046Y-68605802D01*
X127175162Y-47771406D02*
X128791406Y-46155162D01*
X128791406Y-47771406D02*
X127175162Y-46155162D01*
D10*
X161617003Y-67776295D02*
X161718018Y-67203876D01*
X161212942Y-67372234D02*
X161920049Y-66665128D01*
X161920049Y-66665128D02*
X162189423Y-66934502D01*
X162189423Y-66934502D02*
X162223095Y-67035517D01*
X162223095Y-67035517D02*
X162223095Y-67102860D01*
X162223095Y-67102860D02*
X162189423Y-67203876D01*
X162189423Y-67203876D02*
X162088408Y-67304891D01*
X162088408Y-67304891D02*
X161987392Y-67338563D01*
X161987392Y-67338563D02*
X161920049Y-67338563D01*
X161920049Y-67338563D02*
X161819034Y-67304891D01*
X161819034Y-67304891D02*
X161549660Y-67035517D01*
X162290438Y-68449730D02*
X161886377Y-68045669D01*
X162088408Y-68247700D02*
X162795514Y-67540593D01*
X162795514Y-67540593D02*
X162627156Y-67574265D01*
X162627156Y-67574265D02*
X162492469Y-67574265D01*
X162492469Y-67574265D02*
X162391453Y-67540593D01*
X121724215Y-75418818D02*
X121858902Y-75351474D01*
X121858902Y-75351474D02*
X122027261Y-75183116D01*
X122027261Y-75183116D02*
X122060932Y-75082100D01*
X122060932Y-75082100D02*
X122060932Y-75014757D01*
X122060932Y-75014757D02*
X122027261Y-74913742D01*
X122027261Y-74913742D02*
X121959917Y-74846398D01*
X121959917Y-74846398D02*
X121858902Y-74812726D01*
X121858902Y-74812726D02*
X121791558Y-74812726D01*
X121791558Y-74812726D02*
X121690543Y-74846398D01*
X121690543Y-74846398D02*
X121522184Y-74947413D01*
X121522184Y-74947413D02*
X121421169Y-74981085D01*
X121421169Y-74981085D02*
X121353826Y-74981085D01*
X121353826Y-74981085D02*
X121252810Y-74947413D01*
X121252810Y-74947413D02*
X121185467Y-74880070D01*
X121185467Y-74880070D02*
X121151795Y-74779055D01*
X121151795Y-74779055D02*
X121151795Y-74711711D01*
X121151795Y-74711711D02*
X121185467Y-74610696D01*
X121185467Y-74610696D02*
X121353826Y-74442337D01*
X121353826Y-74442337D02*
X121488513Y-74374994D01*
X122801711Y-74273978D02*
X122801711Y-74341322D01*
X122801711Y-74341322D02*
X122734368Y-74476009D01*
X122734368Y-74476009D02*
X122667024Y-74543352D01*
X122667024Y-74543352D02*
X122532337Y-74610696D01*
X122532337Y-74610696D02*
X122397650Y-74610696D01*
X122397650Y-74610696D02*
X122296635Y-74577024D01*
X122296635Y-74577024D02*
X122128276Y-74476009D01*
X122128276Y-74476009D02*
X122027261Y-74374993D01*
X122027261Y-74374993D02*
X121926245Y-74206635D01*
X121926245Y-74206635D02*
X121892574Y-74105619D01*
X121892574Y-74105619D02*
X121892574Y-73970932D01*
X121892574Y-73970932D02*
X121959917Y-73836245D01*
X121959917Y-73836245D02*
X122027261Y-73768902D01*
X122027261Y-73768902D02*
X122161948Y-73701558D01*
X122161948Y-73701558D02*
X122229291Y-73701558D01*
X123003742Y-73263826D02*
X123475146Y-73735230D01*
X122566009Y-73162810D02*
X122902726Y-73836245D01*
X122902726Y-73836245D02*
X123340459Y-73398513D01*
D11*
X133342578Y-86868822D02*
X134958822Y-85252578D01*
X134958822Y-86868822D02*
X133342578Y-85252578D01*
X110891938Y-64418182D02*
X112508182Y-62801938D01*
D10*
X159647049Y-113341652D02*
X159781736Y-113274308D01*
X159781736Y-113274308D02*
X159950095Y-113105950D01*
X159950095Y-113105950D02*
X159983766Y-113004934D01*
X159983766Y-113004934D02*
X159983766Y-112937591D01*
X159983766Y-112937591D02*
X159950095Y-112836576D01*
X159950095Y-112836576D02*
X159882751Y-112769232D01*
X159882751Y-112769232D02*
X159781736Y-112735560D01*
X159781736Y-112735560D02*
X159714392Y-112735560D01*
X159714392Y-112735560D02*
X159613377Y-112769232D01*
X159613377Y-112769232D02*
X159445018Y-112870247D01*
X159445018Y-112870247D02*
X159344003Y-112903919D01*
X159344003Y-112903919D02*
X159276660Y-112903919D01*
X159276660Y-112903919D02*
X159175644Y-112870247D01*
X159175644Y-112870247D02*
X159108301Y-112802904D01*
X159108301Y-112802904D02*
X159074629Y-112701889D01*
X159074629Y-112701889D02*
X159074629Y-112634545D01*
X159074629Y-112634545D02*
X159108301Y-112533530D01*
X159108301Y-112533530D02*
X159276660Y-112365171D01*
X159276660Y-112365171D02*
X159411347Y-112297828D01*
X160724545Y-112196812D02*
X160724545Y-112264156D01*
X160724545Y-112264156D02*
X160657202Y-112398843D01*
X160657202Y-112398843D02*
X160589858Y-112466186D01*
X160589858Y-112466186D02*
X160455171Y-112533530D01*
X160455171Y-112533530D02*
X160320484Y-112533530D01*
X160320484Y-112533530D02*
X160219469Y-112499858D01*
X160219469Y-112499858D02*
X160051110Y-112398843D01*
X160051110Y-112398843D02*
X159950095Y-112297827D01*
X159950095Y-112297827D02*
X159849079Y-112129469D01*
X159849079Y-112129469D02*
X159815408Y-112028453D01*
X159815408Y-112028453D02*
X159815408Y-111893766D01*
X159815408Y-111893766D02*
X159882751Y-111759079D01*
X159882751Y-111759079D02*
X159950095Y-111691736D01*
X159950095Y-111691736D02*
X160084782Y-111624392D01*
X160084782Y-111624392D02*
X160152125Y-111624392D01*
X160690873Y-110950957D02*
X160556186Y-111085644D01*
X160556186Y-111085644D02*
X160522515Y-111186660D01*
X160522515Y-111186660D02*
X160522515Y-111254003D01*
X160522515Y-111254003D02*
X160556186Y-111422362D01*
X160556186Y-111422362D02*
X160657202Y-111590721D01*
X160657202Y-111590721D02*
X160926576Y-111860095D01*
X160926576Y-111860095D02*
X161027591Y-111893766D01*
X161027591Y-111893766D02*
X161094934Y-111893766D01*
X161094934Y-111893766D02*
X161195950Y-111860095D01*
X161195950Y-111860095D02*
X161330637Y-111725408D01*
X161330637Y-111725408D02*
X161364308Y-111624392D01*
X161364308Y-111624392D02*
X161364308Y-111557049D01*
X161364308Y-111557049D02*
X161330637Y-111456034D01*
X161330637Y-111456034D02*
X161162278Y-111287675D01*
X161162278Y-111287675D02*
X161061263Y-111254003D01*
X161061263Y-111254003D02*
X160993919Y-111254003D01*
X160993919Y-111254003D02*
X160892904Y-111287675D01*
X160892904Y-111287675D02*
X160758217Y-111422362D01*
X160758217Y-111422362D02*
X160724545Y-111523377D01*
X160724545Y-111523377D02*
X160724545Y-111590721D01*
X160724545Y-111590721D02*
X160758217Y-111691736D01*
D11*
X147930890Y-101457134D02*
X149547134Y-99840890D01*
X149547134Y-101457134D02*
X147930890Y-99840890D01*
X170381530Y-123907774D02*
X171997774Y-122291530D01*
D10*
X175362079Y-59026682D02*
X175496766Y-58959338D01*
X175496766Y-58959338D02*
X175665125Y-58790980D01*
X175665125Y-58790980D02*
X175698796Y-58689964D01*
X175698796Y-58689964D02*
X175698796Y-58622621D01*
X175698796Y-58622621D02*
X175665125Y-58521606D01*
X175665125Y-58521606D02*
X175597781Y-58454262D01*
X175597781Y-58454262D02*
X175496766Y-58420590D01*
X175496766Y-58420590D02*
X175429422Y-58420590D01*
X175429422Y-58420590D02*
X175328407Y-58454262D01*
X175328407Y-58454262D02*
X175160048Y-58555277D01*
X175160048Y-58555277D02*
X175059033Y-58588949D01*
X175059033Y-58588949D02*
X174991690Y-58588949D01*
X174991690Y-58588949D02*
X174890674Y-58555277D01*
X174890674Y-58555277D02*
X174823331Y-58487934D01*
X174823331Y-58487934D02*
X174789659Y-58386919D01*
X174789659Y-58386919D02*
X174789659Y-58319575D01*
X174789659Y-58319575D02*
X174823331Y-58218560D01*
X174823331Y-58218560D02*
X174991690Y-58050201D01*
X174991690Y-58050201D02*
X175126377Y-57982858D01*
X176439575Y-57881842D02*
X176439575Y-57949186D01*
X176439575Y-57949186D02*
X176372232Y-58083873D01*
X176372232Y-58083873D02*
X176304888Y-58151216D01*
X176304888Y-58151216D02*
X176170201Y-58218560D01*
X176170201Y-58218560D02*
X176035514Y-58218560D01*
X176035514Y-58218560D02*
X175934499Y-58184888D01*
X175934499Y-58184888D02*
X175766140Y-58083873D01*
X175766140Y-58083873D02*
X175665125Y-57982857D01*
X175665125Y-57982857D02*
X175564109Y-57814499D01*
X175564109Y-57814499D02*
X175530438Y-57713483D01*
X175530438Y-57713483D02*
X175530438Y-57578796D01*
X175530438Y-57578796D02*
X175597781Y-57444109D01*
X175597781Y-57444109D02*
X175665125Y-57376766D01*
X175665125Y-57376766D02*
X175799812Y-57309422D01*
X175799812Y-57309422D02*
X175867155Y-57309422D01*
X176136529Y-57040048D02*
X176136529Y-56972705D01*
X176136529Y-56972705D02*
X176170201Y-56871690D01*
X176170201Y-56871690D02*
X176338560Y-56703331D01*
X176338560Y-56703331D02*
X176439575Y-56669659D01*
X176439575Y-56669659D02*
X176506919Y-56669659D01*
X176506919Y-56669659D02*
X176607934Y-56703331D01*
X176607934Y-56703331D02*
X176675277Y-56770674D01*
X176675277Y-56770674D02*
X176742621Y-56905361D01*
X176742621Y-56905361D02*
X176742621Y-57713483D01*
X176742621Y-57713483D02*
X177180354Y-57275751D01*
D11*
X186980442Y-70476686D02*
X188596686Y-68860442D01*
X188596686Y-70476686D02*
X186980442Y-68860442D01*
X164529802Y-48026046D02*
X166146046Y-46409802D01*
D10*
X187171530Y-123813782D02*
X186464424Y-123106675D01*
X186464424Y-123106675D02*
X186632782Y-122938316D01*
X186632782Y-122938316D02*
X186767469Y-122870973D01*
X186767469Y-122870973D02*
X186902156Y-122870973D01*
X186902156Y-122870973D02*
X187003172Y-122904645D01*
X187003172Y-122904645D02*
X187171530Y-123005660D01*
X187171530Y-123005660D02*
X187272546Y-123106675D01*
X187272546Y-123106675D02*
X187373561Y-123275034D01*
X187373561Y-123275034D02*
X187407233Y-123376049D01*
X187407233Y-123376049D02*
X187407233Y-123510736D01*
X187407233Y-123510736D02*
X187339889Y-123645423D01*
X187339889Y-123645423D02*
X187171530Y-123813782D01*
X188249026Y-122736286D02*
X187844965Y-123140347D01*
X188046996Y-122938316D02*
X187339889Y-122231210D01*
X187339889Y-122231210D02*
X187373561Y-122399568D01*
X187373561Y-122399568D02*
X187373561Y-122534255D01*
X187373561Y-122534255D02*
X187339889Y-122635271D01*
X175379943Y-96164546D02*
X175514630Y-96097202D01*
X175514630Y-96097202D02*
X175682989Y-95928844D01*
X175682989Y-95928844D02*
X175716660Y-95827828D01*
X175716660Y-95827828D02*
X175716660Y-95760485D01*
X175716660Y-95760485D02*
X175682989Y-95659470D01*
X175682989Y-95659470D02*
X175615645Y-95592126D01*
X175615645Y-95592126D02*
X175514630Y-95558454D01*
X175514630Y-95558454D02*
X175447286Y-95558454D01*
X175447286Y-95558454D02*
X175346271Y-95592126D01*
X175346271Y-95592126D02*
X175177912Y-95693141D01*
X175177912Y-95693141D02*
X175076897Y-95726813D01*
X175076897Y-95726813D02*
X175009554Y-95726813D01*
X175009554Y-95726813D02*
X174908538Y-95693141D01*
X174908538Y-95693141D02*
X174841195Y-95625798D01*
X174841195Y-95625798D02*
X174807523Y-95524783D01*
X174807523Y-95524783D02*
X174807523Y-95457439D01*
X174807523Y-95457439D02*
X174841195Y-95356424D01*
X174841195Y-95356424D02*
X175009554Y-95188065D01*
X175009554Y-95188065D02*
X175144241Y-95120722D01*
X176457439Y-95019706D02*
X176457439Y-95087050D01*
X176457439Y-95087050D02*
X176390096Y-95221737D01*
X176390096Y-95221737D02*
X176322752Y-95289080D01*
X176322752Y-95289080D02*
X176188065Y-95356424D01*
X176188065Y-95356424D02*
X176053378Y-95356424D01*
X176053378Y-95356424D02*
X175952363Y-95322752D01*
X175952363Y-95322752D02*
X175784004Y-95221737D01*
X175784004Y-95221737D02*
X175682989Y-95120721D01*
X175682989Y-95120721D02*
X175581973Y-94952363D01*
X175581973Y-94952363D02*
X175548302Y-94851347D01*
X175548302Y-94851347D02*
X175548302Y-94716660D01*
X175548302Y-94716660D02*
X175615645Y-94581973D01*
X175615645Y-94581973D02*
X175682989Y-94514630D01*
X175682989Y-94514630D02*
X175817676Y-94447286D01*
X175817676Y-94447286D02*
X175885019Y-94447286D01*
X177198218Y-94413615D02*
X176794157Y-94817676D01*
X176996187Y-94615645D02*
X176289080Y-93908538D01*
X176289080Y-93908538D02*
X176322752Y-94076897D01*
X176322752Y-94076897D02*
X176322752Y-94211584D01*
X176322752Y-94211584D02*
X176289080Y-94312599D01*
D11*
X164547666Y-85163910D02*
X166163910Y-83547666D01*
X186998306Y-107614550D02*
X188614550Y-105998306D01*
X188614550Y-107614550D02*
X186998306Y-105998306D01*
D10*
X188166666Y-80654819D02*
X188166666Y-81369104D01*
X188166666Y-81369104D02*
X188119047Y-81511961D01*
X188119047Y-81511961D02*
X188023809Y-81607200D01*
X188023809Y-81607200D02*
X187880952Y-81654819D01*
X187880952Y-81654819D02*
X187785714Y-81654819D01*
X188547619Y-80654819D02*
X189214285Y-80654819D01*
X189214285Y-80654819D02*
X188785714Y-81654819D01*
X149166666Y-41654819D02*
X149166666Y-42369104D01*
X149166666Y-42369104D02*
X149119047Y-42511961D01*
X149119047Y-42511961D02*
X149023809Y-42607200D01*
X149023809Y-42607200D02*
X148880952Y-42654819D01*
X148880952Y-42654819D02*
X148785714Y-42654819D01*
X150071428Y-41654819D02*
X149880952Y-41654819D01*
X149880952Y-41654819D02*
X149785714Y-41702438D01*
X149785714Y-41702438D02*
X149738095Y-41750057D01*
X149738095Y-41750057D02*
X149642857Y-41892914D01*
X149642857Y-41892914D02*
X149595238Y-42083390D01*
X149595238Y-42083390D02*
X149595238Y-42464342D01*
X149595238Y-42464342D02*
X149642857Y-42559580D01*
X149642857Y-42559580D02*
X149690476Y-42607200D01*
X149690476Y-42607200D02*
X149785714Y-42654819D01*
X149785714Y-42654819D02*
X149976190Y-42654819D01*
X149976190Y-42654819D02*
X150071428Y-42607200D01*
X150071428Y-42607200D02*
X150119047Y-42559580D01*
X150119047Y-42559580D02*
X150166666Y-42464342D01*
X150166666Y-42464342D02*
X150166666Y-42226247D01*
X150166666Y-42226247D02*
X150119047Y-42131009D01*
X150119047Y-42131009D02*
X150071428Y-42083390D01*
X150071428Y-42083390D02*
X149976190Y-42035771D01*
X149976190Y-42035771D02*
X149785714Y-42035771D01*
X149785714Y-42035771D02*
X149690476Y-42083390D01*
X149690476Y-42083390D02*
X149642857Y-42131009D01*
X149642857Y-42131009D02*
X149595238Y-42226247D01*
X149166666Y-119654819D02*
X149166666Y-120369104D01*
X149166666Y-120369104D02*
X149119047Y-120511961D01*
X149119047Y-120511961D02*
X149023809Y-120607200D01*
X149023809Y-120607200D02*
X148880952Y-120654819D01*
X148880952Y-120654819D02*
X148785714Y-120654819D01*
X150119047Y-119654819D02*
X149642857Y-119654819D01*
X149642857Y-119654819D02*
X149595238Y-120131009D01*
X149595238Y-120131009D02*
X149642857Y-120083390D01*
X149642857Y-120083390D02*
X149738095Y-120035771D01*
X149738095Y-120035771D02*
X149976190Y-120035771D01*
X149976190Y-120035771D02*
X150071428Y-120083390D01*
X150071428Y-120083390D02*
X150119047Y-120131009D01*
X150119047Y-120131009D02*
X150166666Y-120226247D01*
X150166666Y-120226247D02*
X150166666Y-120464342D01*
X150166666Y-120464342D02*
X150119047Y-120559580D01*
X150119047Y-120559580D02*
X150071428Y-120607200D01*
X150071428Y-120607200D02*
X149976190Y-120654819D01*
X149976190Y-120654819D02*
X149738095Y-120654819D01*
X149738095Y-120654819D02*
X149642857Y-120607200D01*
X149642857Y-120607200D02*
X149595238Y-120559580D01*
X110166666Y-80654819D02*
X110166666Y-81369104D01*
X110166666Y-81369104D02*
X110119047Y-81511961D01*
X110119047Y-81511961D02*
X110023809Y-81607200D01*
X110023809Y-81607200D02*
X109880952Y-81654819D01*
X109880952Y-81654819D02*
X109785714Y-81654819D01*
X111071428Y-80988152D02*
X111071428Y-81654819D01*
X110833333Y-80607200D02*
X110595238Y-81321485D01*
X110595238Y-81321485D02*
X111214285Y-81321485D01*
D12*
%TO.C,U1*%
X135409117Y-100226417D02*
X135409117Y-100226417D01*
X136229361Y-99406173D02*
X136257645Y-99377889D01*
X137077889Y-98557645D02*
X137127387Y-98508148D01*
X137127387Y-98508148D02*
X136582914Y-97963675D01*
X135394975Y-100212275D02*
X135409117Y-100226417D01*
X134864645Y-99681945D02*
X135394975Y-100212275D01*
X135762671Y-97143432D02*
X135218198Y-96598959D01*
X133499929Y-98317229D02*
X134044401Y-98861701D01*
X134348457Y-97468701D02*
X134320173Y-97496985D01*
X135218198Y-96598959D02*
X135168701Y-96648457D01*
D13*
%TO.C,D2*%
X111131103Y-49818288D02*
X114489860Y-46459531D01*
X112955721Y-48894806D02*
X114051312Y-49990398D01*
X113181712Y-51868897D02*
X111131103Y-49818288D01*
X113181712Y-51868897D02*
X116540469Y-48510140D01*
X116540469Y-48510140D02*
X114489860Y-46459531D01*
D12*
X114697891Y-49307898D02*
X113602299Y-49361780D01*
X113745983Y-48355991D01*
X114697891Y-49307898D01*
G36*
X114697891Y-49307898D02*
G01*
X113602299Y-49361780D01*
X113745983Y-48355991D01*
X114697891Y-49307898D01*
G37*
D13*
%TO.C,C5*%
X138482282Y-89708601D02*
X138329779Y-89861104D01*
X138991399Y-90217718D02*
X138838896Y-90370221D01*
%TO.C,C6*%
X137021693Y-97730810D02*
X136869190Y-97578307D01*
X137530810Y-97221693D02*
X137378307Y-97069190D01*
%TO.C,D4*%
X163014591Y-71154038D02*
X164630330Y-72769777D01*
X164630330Y-72769777D02*
X165669777Y-71730330D01*
X165669777Y-71730330D02*
X164054038Y-70114591D01*
%TO.C,C3*%
X138207836Y-91140000D02*
X137992164Y-91140000D01*
X138207836Y-91860000D02*
X137992164Y-91860000D01*
%TO.C,R2*%
X132808601Y-95282282D02*
X132961104Y-95129779D01*
X133317718Y-95791399D02*
X133470221Y-95638896D01*
%TO.C,U5*%
X137438855Y-96961145D02*
X137014591Y-96536881D01*
X137438855Y-96961145D02*
X137863119Y-97385409D01*
X138761145Y-95638855D02*
X138336881Y-95214591D01*
X138761145Y-95638855D02*
X139185409Y-96063119D01*
X139075807Y-97643503D02*
X138736396Y-97982914D01*
X138672756Y-97579863D01*
X139075807Y-97643503D01*
G36*
X139075807Y-97643503D02*
G01*
X138736396Y-97982914D01*
X138672756Y-97579863D01*
X139075807Y-97643503D01*
G37*
%TO.C,SC5*%
X99699030Y-105082486D02*
X103057787Y-101723728D01*
X99699030Y-105082486D02*
X103057787Y-108441243D01*
X103057787Y-101723728D02*
X99699030Y-105082486D01*
X107477204Y-112860660D02*
X121619340Y-127002796D01*
X112603728Y-92177787D02*
X115962486Y-88819030D01*
X114548272Y-119931728D02*
X107477204Y-112860660D01*
X115962486Y-88819030D02*
X119321243Y-92177787D01*
X123740660Y-96597204D02*
X136645359Y-109501903D01*
X129397514Y-134780970D02*
X126038757Y-131422213D01*
X129397514Y-134780970D02*
X132756272Y-131422213D01*
X130811728Y-103668272D02*
X123740660Y-96597204D01*
X130811728Y-103668272D02*
X137882796Y-110739340D01*
X136645359Y-109501903D02*
X130811728Y-103668272D01*
X142302213Y-121876272D02*
X145660970Y-118517514D01*
X145660970Y-118517514D02*
X142302213Y-115158757D01*
%TO.C,R4*%
X142921693Y-89130810D02*
X142769190Y-88978307D01*
X143430810Y-88621693D02*
X143278307Y-88469190D01*
%TO.C,SC3*%
X116161166Y-51404622D02*
X119519923Y-48045864D01*
X116161166Y-51404622D02*
X119519923Y-54763379D01*
X119519923Y-48045864D02*
X116161166Y-51404622D01*
X123939340Y-59182796D02*
X138081476Y-73324932D01*
X129065864Y-38499923D02*
X132424622Y-35141166D01*
X131010408Y-66253864D02*
X123939340Y-59182796D01*
X132424622Y-35141166D02*
X135783379Y-38499923D01*
X140202796Y-42919340D02*
X153107495Y-55824039D01*
X145859650Y-81103106D02*
X142500893Y-77744349D01*
X145859650Y-81103106D02*
X149218408Y-77744349D01*
X147273864Y-49990408D02*
X140202796Y-42919340D01*
X147273864Y-49990408D02*
X154344932Y-57061476D01*
X153107495Y-55824039D02*
X147273864Y-49990408D01*
X158764349Y-68198408D02*
X162123106Y-64839650D01*
X162123106Y-64839650D02*
X158764349Y-61480893D01*
%TO.C,R3*%
X139261104Y-99770221D02*
X139108601Y-99617718D01*
X139770221Y-99261104D02*
X139617718Y-99108601D01*
%TO.C,R1*%
X160905406Y-68571092D02*
X161057909Y-68723595D01*
X161414523Y-68061975D02*
X161567026Y-68214478D01*
%TO.C,C4*%
X145669190Y-93121693D02*
X145821693Y-92969190D01*
X146178307Y-93630810D02*
X146330810Y-93478307D01*
%TO.C,C2*%
X136621693Y-93169190D02*
X136469190Y-93321693D01*
X137130810Y-93678307D02*
X136978307Y-93830810D01*
%TO.C,U2*%
X139603640Y-95871344D02*
X138542980Y-94810684D01*
X139603640Y-95871344D02*
X140664300Y-96932004D01*
X141880524Y-93594460D02*
X139812237Y-91526173D01*
X141880524Y-93594460D02*
X142941184Y-94655120D01*
%TO.C,D3*%
X131910140Y-99199531D02*
X129859531Y-101250140D01*
X132294806Y-102784279D02*
X133390398Y-101688688D01*
X133218288Y-104608897D02*
X129859531Y-101250140D01*
X135268897Y-102558288D02*
X131910140Y-99199531D01*
X135268897Y-102558288D02*
X133218288Y-104608897D01*
D12*
X132761780Y-102137701D02*
X131755991Y-101994017D01*
X132707898Y-101042109D01*
X132761780Y-102137701D01*
G36*
X132761780Y-102137701D02*
G01*
X131755991Y-101994017D01*
X132707898Y-101042109D01*
X132761780Y-102137701D01*
G37*
D13*
%TO.C,C1*%
X136669190Y-94721693D02*
X136821693Y-94569190D01*
X137178307Y-95230810D02*
X137330810Y-95078307D01*
%TO.C,R5*%
X144369190Y-94421693D02*
X144521693Y-94269190D01*
X144878307Y-94930810D02*
X145030810Y-94778307D01*
%TO.C,SC4*%
X99701166Y-67874622D02*
X103059923Y-71233379D01*
X103059923Y-64515864D02*
X99701166Y-67874622D01*
X108716777Y-76890233D02*
X114550408Y-82723864D01*
X114550408Y-82723864D02*
X107479340Y-75652796D01*
X114550408Y-82723864D02*
X121621476Y-89794932D01*
X115964622Y-51611166D02*
X112605864Y-54969923D01*
X115964622Y-51611166D02*
X119323379Y-54969923D01*
X121621476Y-89794932D02*
X108716777Y-76890233D01*
X129399650Y-97573106D02*
X126040893Y-94214349D01*
X130813864Y-66460408D02*
X137884932Y-73531476D01*
X132758408Y-94214349D02*
X129399650Y-97573106D01*
X137884932Y-73531476D02*
X123742796Y-59389340D01*
X142304349Y-84668408D02*
X145663106Y-81309650D01*
X145663106Y-81309650D02*
X142304349Y-77950893D01*
X145663106Y-81309650D02*
X142304349Y-84668408D01*
%TO.C,SC6*%
X136916894Y-105090350D02*
X140275651Y-101731592D01*
X136916894Y-105090350D02*
X140275651Y-108449107D01*
X140275651Y-101731592D02*
X136916894Y-105090350D01*
X144695068Y-112868524D02*
X158837204Y-127010660D01*
X149821592Y-92185651D02*
X153180350Y-88826894D01*
X151766136Y-119939592D02*
X144695068Y-112868524D01*
X153180350Y-88826894D02*
X156539107Y-92185651D01*
X160958524Y-96605068D02*
X173863223Y-109509767D01*
X166615378Y-134788834D02*
X163256621Y-131430077D01*
X166615378Y-134788834D02*
X169974136Y-131430077D01*
X168029592Y-103676136D02*
X160958524Y-96605068D01*
X168029592Y-103676136D02*
X175100660Y-110747204D01*
X173863223Y-109509767D02*
X168029592Y-103676136D01*
X179520077Y-121884136D02*
X182878834Y-118525378D01*
X182878834Y-118525378D02*
X179520077Y-115166621D01*
%TO.C,SC2*%
X153339030Y-51482486D02*
X156697787Y-54841243D01*
X156697787Y-48123728D02*
X153339030Y-51482486D01*
X162354641Y-60498097D02*
X168188272Y-66331728D01*
X168188272Y-66331728D02*
X161117204Y-59260660D01*
X168188272Y-66331728D02*
X175259340Y-73402796D01*
X169602486Y-35219030D02*
X166243728Y-38577787D01*
X169602486Y-35219030D02*
X172961243Y-38577787D01*
X175259340Y-73402796D02*
X162354641Y-60498097D01*
X183037514Y-81180970D02*
X179678757Y-77822213D01*
X184451728Y-50068272D02*
X191522796Y-57139340D01*
X186396272Y-77822213D02*
X183037514Y-81180970D01*
X191522796Y-57139340D02*
X177380660Y-42997204D01*
X195942213Y-68276272D02*
X199300970Y-64917514D01*
X199300970Y-64917514D02*
X195942213Y-61558757D01*
X199300970Y-64917514D02*
X195942213Y-68276272D01*
%TO.C,D1*%
X182871103Y-121828288D02*
X186229860Y-118469531D01*
X184695721Y-120904806D02*
X185791312Y-122000398D01*
X184921712Y-123878897D02*
X182871103Y-121828288D01*
X184921712Y-123878897D02*
X188280469Y-120520140D01*
X188280469Y-120520140D02*
X186229860Y-118469531D01*
D12*
X186437891Y-121317898D02*
X185342299Y-121371780D01*
X185485983Y-120365991D01*
X186437891Y-121317898D01*
G36*
X186437891Y-121317898D02*
G01*
X185342299Y-121371780D01*
X185485983Y-120365991D01*
X186437891Y-121317898D01*
G37*
D13*
%TO.C,U4*%
X141461558Y-92638442D02*
X140400898Y-91577782D01*
X141461558Y-92638442D02*
X142522218Y-93699102D01*
X143738442Y-90361558D02*
X142677782Y-89300898D01*
X143738442Y-90361558D02*
X144799102Y-91422218D01*
X143050781Y-94517578D02*
X142711369Y-94178167D01*
X143114420Y-94114527D01*
X143050781Y-94517578D01*
G36*
X143050781Y-94517578D02*
G01*
X142711369Y-94178167D01*
X143114420Y-94114527D01*
X143050781Y-94517578D01*
G37*
%TO.C,SC1*%
X153356894Y-88620350D02*
X156715651Y-91979107D01*
X156715651Y-85261592D02*
X153356894Y-88620350D01*
X162372505Y-97635961D02*
X168206136Y-103469592D01*
X168206136Y-103469592D02*
X161135068Y-96398524D01*
X168206136Y-103469592D02*
X175277204Y-110540660D01*
X169620350Y-72356894D02*
X166261592Y-75715651D01*
X169620350Y-72356894D02*
X172979107Y-75715651D01*
X175277204Y-110540660D02*
X162372505Y-97635961D01*
X183055378Y-118318834D02*
X179696621Y-114960077D01*
X184469592Y-87206136D02*
X191540660Y-94277204D01*
X186414136Y-114960077D02*
X183055378Y-118318834D01*
X191540660Y-94277204D02*
X177398524Y-80135068D01*
X195960077Y-105414136D02*
X199318834Y-102055378D01*
X199318834Y-102055378D02*
X195960077Y-98696621D01*
X199318834Y-102055378D02*
X195960077Y-105414136D01*
%TD*%
%LPC*%
D14*
%TO.C,U1*%
X136024300Y-97702046D03*
D15*
X134900000Y-97200000D03*
X134051472Y-98048528D03*
D14*
X134553518Y-99172828D03*
D15*
X135677818Y-99674874D03*
X136526346Y-98826346D03*
%TD*%
D16*
%TO.C,D2*%
X112421572Y-50578428D03*
X115250000Y-47750000D03*
%TD*%
D17*
%TO.C,TP1*%
X113410000Y-130950000D03*
%TD*%
D18*
%TO.C,C5*%
X139000000Y-89700000D03*
X138321178Y-90378822D03*
%TD*%
D19*
%TO.C,C6*%
X137539411Y-97739411D03*
X136860589Y-97060589D03*
%TD*%
D20*
%TO.C,D4*%
X164656847Y-71756847D03*
X163543153Y-70643153D03*
%TD*%
D21*
%TO.C,C3*%
X138580000Y-91500000D03*
X137620000Y-91500000D03*
%TD*%
D22*
%TO.C,R2*%
X132800000Y-95800000D03*
X133478822Y-95121178D03*
%TD*%
D23*
%TO.C,U5*%
X138250260Y-97157367D03*
X138603814Y-96803814D03*
X138957367Y-96450260D03*
X137949740Y-95442633D03*
X137596186Y-95796186D03*
X137242633Y-96149740D03*
%TD*%
D24*
%TO.C,SC5*%
X108537864Y-97657864D03*
X136822136Y-125942136D03*
%TD*%
D19*
%TO.C,R4*%
X143439411Y-89139411D03*
X142760589Y-88460589D03*
%TD*%
D17*
%TO.C,TP2*%
X119890000Y-130920000D03*
%TD*%
D24*
%TO.C,SC3*%
X125000000Y-43980000D03*
X153284272Y-72264272D03*
%TD*%
D19*
%TO.C,R3*%
X139778822Y-99778822D03*
X139100000Y-99100000D03*
%TD*%
D25*
%TO.C,R1*%
X160896805Y-68053374D03*
X161575627Y-68732196D03*
%TD*%
D22*
%TO.C,C4*%
X145660589Y-93639411D03*
X146339411Y-92960589D03*
%TD*%
D18*
%TO.C,C2*%
X137139411Y-93160589D03*
X136460589Y-93839411D03*
%TD*%
D26*
%TO.C,U2*%
X139893554Y-92470160D03*
X139540000Y-92823714D03*
X139186447Y-93177267D03*
X138832894Y-93530820D03*
X138479340Y-93884374D03*
X141590610Y-96995644D03*
X141944164Y-96642090D03*
X142297717Y-96288537D03*
X142651270Y-95934984D03*
X143004824Y-95581430D03*
%TD*%
D27*
%TO.C,D3*%
X133978428Y-103318428D03*
X131150000Y-100490000D03*
%TD*%
D28*
%TO.C,REF\u002A\u002A*%
X149564000Y-62462780D03*
X149564000Y-105988780D03*
X149564000Y-119952780D03*
%TD*%
D22*
%TO.C,C1*%
X136660589Y-95239411D03*
X137339411Y-94560589D03*
%TD*%
%TO.C,R5*%
X144360589Y-94939411D03*
X145039411Y-94260589D03*
%TD*%
D29*
%TO.C,SC4*%
X136824272Y-88734272D03*
X108540000Y-60450000D03*
%TD*%
D24*
%TO.C,SC6*%
X145755728Y-97665728D03*
X174040000Y-125950000D03*
%TD*%
D29*
%TO.C,SC2*%
X190462136Y-72342136D03*
X162177864Y-44057864D03*
%TD*%
D16*
%TO.C,D1*%
X184161572Y-122588428D03*
X186990000Y-119760000D03*
%TD*%
D30*
%TO.C,U4*%
X143404334Y-93683192D03*
X143863953Y-93223573D03*
X144323573Y-92763953D03*
X144783192Y-92304334D03*
X141795666Y-89316808D03*
X141336047Y-89776427D03*
X140876427Y-90236047D03*
X140416808Y-90695666D03*
%TD*%
D29*
%TO.C,SC1*%
X190480000Y-109480000D03*
X162195728Y-81195728D03*
%TD*%
D31*
%TO.C,J2*%
X160692893Y-75921320D03*
D32*
X159278679Y-74507106D03*
X162107107Y-74507106D03*
X160692893Y-73092893D03*
X163521320Y-73092893D03*
X162107107Y-71678679D03*
%TD*%
D33*
%TO.C,J7*%
X188500000Y-85000000D03*
%TD*%
%TO.C,J6*%
X149500000Y-46000000D03*
%TD*%
%TO.C,J5*%
X149500000Y-124000000D03*
%TD*%
%TO.C,J4*%
X110500000Y-85000000D03*
%TD*%
%LPD*%
M02*
