%TF.GenerationSoftware,KiCad,Pcbnew,9.0.0*%
%TF.CreationDate,2025-09-21T20:44:38-07:00*%
%TF.ProjectId,Z_Face_V3,5a5f4661-6365-45f5-9633-2e6b69636164,3.1*%
%TF.SameCoordinates,Original*%
%TF.FileFunction,Copper,L4,Bot*%
%TF.FilePolarity,Positive*%
%FSLAX46Y46*%
G04 Gerber Fmt 4.6, Leading zero omitted, Abs format (unit mm)*
G04 Created by KiCad (PCBNEW 9.0.0) date 2025-09-21 20:44:38*
%MOMM*%
%LPD*%
G01*
G04 APERTURE LIST*
G04 Aperture macros list*
%AMRoundRect*
0 Rectangle with rounded corners*
0 $1 Rounding radius*
0 $2 $3 $4 $5 $6 $7 $8 $9 X,Y pos of 4 corners*
0 Add a 4 corners polygon primitive as box body*
4,1,4,$2,$3,$4,$5,$6,$7,$8,$9,$2,$3,0*
0 Add four circle primitives for the rounded corners*
1,1,$1+$1,$2,$3*
1,1,$1+$1,$4,$5*
1,1,$1+$1,$6,$7*
1,1,$1+$1,$8,$9*
0 Add four rect primitives between the rounded corners*
20,1,$1+$1,$2,$3,$4,$5,0*
20,1,$1+$1,$4,$5,$6,$7,0*
20,1,$1+$1,$6,$7,$8,$9,0*
20,1,$1+$1,$8,$9,$2,$3,0*%
%AMHorizOval*
0 Thick line with rounded ends*
0 $1 width*
0 $2 $3 position (X,Y) of the first rounded end (center of the circle)*
0 $4 $5 position (X,Y) of the second rounded end (center of the circle)*
0 Add line between two ends*
20,1,$1,$2,$3,$4,$5,0*
0 Add two circle primitives to create the rounded ends*
1,1,$1,$2,$3*
1,1,$1,$4,$5*%
%AMRotRect*
0 Rectangle, with rotation*
0 The origin of the aperture is its center*
0 $1 length*
0 $2 width*
0 $3 Rotation angle, in degrees counterclockwise*
0 Add horizontal line*
21,1,$1,$2,0,0,$3*%
G04 Aperture macros list end*
%TA.AperFunction,EtchedComponent*%
%ADD10C,0.127000*%
%TD*%
%TA.AperFunction,ComponentPad*%
%ADD11C,5.250000*%
%TD*%
%TA.AperFunction,ComponentPad*%
%ADD12RoundRect,0.250000X0.159099X-0.654074X0.654074X-0.159099X-0.159099X0.654074X-0.654074X0.159099X0*%
%TD*%
%TA.AperFunction,ComponentPad*%
%ADD13HorizOval,1.200000X-0.159099X0.159099X0.159099X-0.159099X0*%
%TD*%
%TA.AperFunction,SMDPad,CuDef*%
%ADD14RotRect,0.600000X1.000000X225.000000*%
%TD*%
%TA.AperFunction,SMDPad,CuDef*%
%ADD15RotRect,1.250000X1.800000X225.000000*%
%TD*%
%TA.AperFunction,ComponentPad*%
%ADD16C,0.600000*%
%TD*%
%TA.AperFunction,SMDPad,CuDef*%
%ADD17RoundRect,0.031750X-0.031750X0.476250X-0.031750X-0.476250X0.031750X-0.476250X0.031750X0.476250X0*%
%TD*%
%TA.AperFunction,ViaPad*%
%ADD18C,0.800000*%
%TD*%
%TA.AperFunction,Conductor*%
%ADD19C,0.500000*%
%TD*%
%TA.AperFunction,Conductor*%
%ADD20C,0.152400*%
%TD*%
%TA.AperFunction,Conductor*%
%ADD21C,0.127000*%
%TD*%
%TA.AperFunction,Conductor*%
%ADD22C,0.254000*%
%TD*%
G04 APERTURE END LIST*
D10*
%TO.C,REF\u002A\u002A*%
X149064000Y-119352780D02*
X149064000Y-119852780D01*
X149564000Y-119352780D02*
X149064000Y-119352780D01*
X149564000Y-49352780D02*
G75*
G02*
X149564000Y-119352780I0J-35000000D01*
G01*
X149564000Y-49606780D02*
G75*
G02*
X149564000Y-119098780I0J-34746000D01*
G01*
X149564000Y-49860780D02*
G75*
G02*
X149564000Y-118844780I0J-34492000D01*
G01*
X149564000Y-50114780D02*
G75*
G02*
X149564000Y-118590780I0J-34238000D01*
G01*
X149564000Y-50368780D02*
G75*
G02*
X149564000Y-118336780I0J-33984000D01*
G01*
X149564000Y-50622780D02*
G75*
G02*
X149564000Y-118082780I0J-33730000D01*
G01*
X149564000Y-50876780D02*
G75*
G02*
X149564000Y-117828780I0J-33476000D01*
G01*
X149564000Y-51130780D02*
G75*
G02*
X149564000Y-117574780I0J-33222000D01*
G01*
X149564000Y-51384780D02*
G75*
G02*
X149564000Y-117320780I0J-32968000D01*
G01*
X149564000Y-51638780D02*
G75*
G02*
X149564000Y-117066780I0J-32714000D01*
G01*
X149564000Y-51892780D02*
G75*
G02*
X149564000Y-116812780I0J-32460000D01*
G01*
X149564000Y-52146780D02*
G75*
G02*
X149564000Y-116558780I0J-32206000D01*
G01*
X149564000Y-52400780D02*
G75*
G02*
X149564000Y-116304780I0J-31952000D01*
G01*
X149564000Y-52654780D02*
G75*
G02*
X149564000Y-116050780I0J-31698000D01*
G01*
X149564000Y-52908780D02*
G75*
G02*
X149564000Y-115796780I0J-31444000D01*
G01*
X149564000Y-53162780D02*
G75*
G02*
X149564000Y-115542780I0J-31190000D01*
G01*
X149564000Y-53416780D02*
G75*
G02*
X149564000Y-115288780I0J-30936000D01*
G01*
X149564000Y-53670780D02*
G75*
G02*
X149564000Y-115034780I0J-30682000D01*
G01*
X149564000Y-53924780D02*
G75*
G02*
X149564000Y-114780780I0J-30428000D01*
G01*
X149564000Y-54178780D02*
G75*
G02*
X149564000Y-114526780I0J-30174000D01*
G01*
X149564000Y-54432780D02*
G75*
G02*
X149564000Y-114272780I0J-29920000D01*
G01*
X149564000Y-54686780D02*
G75*
G02*
X149564000Y-114018780I0J-29666000D01*
G01*
X149564000Y-54940780D02*
G75*
G02*
X149564000Y-113764780I0J-29412000D01*
G01*
X149564000Y-55194780D02*
G75*
G02*
X149564000Y-113510780I0J-29158000D01*
G01*
X149564000Y-55448780D02*
G75*
G02*
X149564000Y-113256780I0J-28904000D01*
G01*
X149564000Y-55702780D02*
G75*
G02*
X149564000Y-113002780I0J-28650000D01*
G01*
X149564000Y-55956780D02*
G75*
G02*
X149564000Y-112748780I0J-28396000D01*
G01*
X149564000Y-56210780D02*
G75*
G02*
X149564000Y-112494780I0J-28142000D01*
G01*
X149564000Y-56464780D02*
G75*
G02*
X149564000Y-112240780I0J-27888000D01*
G01*
X149564000Y-56718780D02*
G75*
G02*
X149564000Y-111986780I0J-27634000D01*
G01*
X149564000Y-56972780D02*
G75*
G02*
X149564000Y-111732780I0J-27380000D01*
G01*
X149564000Y-57226780D02*
G75*
G02*
X149564000Y-111478780I0J-27126000D01*
G01*
X149564000Y-57480780D02*
G75*
G02*
X149564000Y-111224780I0J-26872000D01*
G01*
X149564000Y-57734780D02*
G75*
G02*
X149564000Y-110970780I0J-26618000D01*
G01*
X149564000Y-57988780D02*
G75*
G02*
X149564000Y-110716780I0J-26364000D01*
G01*
X149564000Y-58242780D02*
G75*
G02*
X149564000Y-110462780I0J-26110000D01*
G01*
X149564000Y-58496780D02*
G75*
G02*
X149564000Y-110208780I0J-25856000D01*
G01*
X149564000Y-58750780D02*
G75*
G02*
X149564000Y-109954780I0J-25602000D01*
G01*
X149564000Y-59004780D02*
G75*
G02*
X149564000Y-109700780I0J-25348000D01*
G01*
X149564000Y-59258780D02*
G75*
G02*
X149564000Y-109446780I0J-25094000D01*
G01*
X149564000Y-59512780D02*
G75*
G02*
X149564000Y-109192780I0J-24840000D01*
G01*
X149564000Y-59766780D02*
G75*
G02*
X149564000Y-108938780I0J-24586000D01*
G01*
X149564000Y-60020780D02*
G75*
G02*
X149564000Y-108684780I0J-24332000D01*
G01*
X149564000Y-60274780D02*
G75*
G02*
X149564000Y-108430780I0J-24078000D01*
G01*
X149564000Y-60528780D02*
G75*
G02*
X149564000Y-108176780I0J-23824000D01*
G01*
X149564000Y-60782780D02*
G75*
G02*
X149564000Y-107922780I0J-23570000D01*
G01*
X149564000Y-61036780D02*
G75*
G02*
X149564000Y-107668780I0J-23316000D01*
G01*
X149564000Y-61290780D02*
G75*
G02*
X149564000Y-107414780I0J-23062000D01*
G01*
X149564000Y-61544780D02*
G75*
G02*
X149564000Y-107160780I0J-22808000D01*
G01*
X149564000Y-61798780D02*
G75*
G02*
X149564000Y-106906780I0J-22554000D01*
G01*
X149564000Y-62398780D02*
G75*
G02*
X149564000Y-106652780I2034J-22127000D01*
G01*
X149564000Y-106652780D02*
G75*
G02*
X149564000Y-61798780I0J22427000D01*
G01*
X149564000Y-106906780D02*
G75*
G02*
X149564000Y-61544780I0J22681000D01*
G01*
X149564000Y-107160780D02*
G75*
G02*
X149564000Y-61290780I0J22935000D01*
G01*
X149564000Y-107414780D02*
G75*
G02*
X149564000Y-61036780I0J23189000D01*
G01*
X149564000Y-107668780D02*
G75*
G02*
X149564000Y-60782780I0J23443000D01*
G01*
X149564000Y-107922780D02*
G75*
G02*
X149564000Y-60528780I0J23697000D01*
G01*
X149564000Y-108176780D02*
G75*
G02*
X149564000Y-60274780I0J23951000D01*
G01*
X149564000Y-108430780D02*
G75*
G02*
X149564000Y-60020780I0J24205000D01*
G01*
X149564000Y-108684780D02*
G75*
G02*
X149564000Y-59766780I0J24459000D01*
G01*
X149564000Y-108938780D02*
G75*
G02*
X149564000Y-59512780I0J24713000D01*
G01*
X149564000Y-109192780D02*
G75*
G02*
X149564000Y-59258780I0J24967000D01*
G01*
X149564000Y-109446780D02*
G75*
G02*
X149564000Y-59004780I0J25221000D01*
G01*
X149564000Y-109700780D02*
G75*
G02*
X149564000Y-58750780I0J25475000D01*
G01*
X149564000Y-109954780D02*
G75*
G02*
X149564000Y-58496780I0J25729000D01*
G01*
X149564000Y-110208780D02*
G75*
G02*
X149564000Y-58242780I0J25983000D01*
G01*
X149564000Y-110462780D02*
G75*
G02*
X149564000Y-57988780I0J26237000D01*
G01*
X149564000Y-110716780D02*
G75*
G02*
X149564000Y-57734780I0J26491000D01*
G01*
X149564000Y-110970780D02*
G75*
G02*
X149564000Y-57480780I0J26745000D01*
G01*
X149564000Y-111224780D02*
G75*
G02*
X149564000Y-57226780I0J26999000D01*
G01*
X149564000Y-111478780D02*
G75*
G02*
X149564000Y-56972780I0J27253000D01*
G01*
X149564000Y-111732780D02*
G75*
G02*
X149564000Y-56718780I0J27507000D01*
G01*
X149564000Y-111986780D02*
G75*
G02*
X149564000Y-56464780I0J27761000D01*
G01*
X149564000Y-112240780D02*
G75*
G02*
X149564000Y-56210780I0J28015000D01*
G01*
X149564000Y-112494780D02*
G75*
G02*
X149564000Y-55956780I0J28269000D01*
G01*
X149564000Y-112748780D02*
G75*
G02*
X149564000Y-55702780I0J28523000D01*
G01*
X149564000Y-113002780D02*
G75*
G02*
X149564000Y-55448780I0J28777000D01*
G01*
X149564000Y-113256780D02*
G75*
G02*
X149564000Y-55194780I0J29031000D01*
G01*
X149564000Y-113510780D02*
G75*
G02*
X149564000Y-54940780I0J29285000D01*
G01*
X149564000Y-113764780D02*
G75*
G02*
X149564000Y-54686780I0J29539000D01*
G01*
X149564000Y-114018780D02*
G75*
G02*
X149564000Y-54432780I0J29793000D01*
G01*
X149564000Y-114272780D02*
G75*
G02*
X149564000Y-54178780I0J30047000D01*
G01*
X149564000Y-114526780D02*
G75*
G02*
X149564000Y-53924780I0J30301000D01*
G01*
X149564000Y-114780780D02*
G75*
G02*
X149564000Y-53670780I0J30555000D01*
G01*
X149564000Y-115034780D02*
G75*
G02*
X149564000Y-53416780I0J30809000D01*
G01*
X149564000Y-115288780D02*
G75*
G02*
X149564000Y-53162780I0J31063000D01*
G01*
X149564000Y-115542780D02*
G75*
G02*
X149564000Y-52908780I0J31317000D01*
G01*
X149564000Y-115796780D02*
G75*
G02*
X149564000Y-52654780I0J31571000D01*
G01*
X149564000Y-116050780D02*
G75*
G02*
X149564000Y-52400780I0J31825000D01*
G01*
X149564000Y-116304780D02*
G75*
G02*
X149564000Y-52146780I0J32079000D01*
G01*
X149564000Y-116558780D02*
G75*
G02*
X149564000Y-51892780I0J32333000D01*
G01*
X149564000Y-116812780D02*
G75*
G02*
X149564000Y-51638780I0J32587000D01*
G01*
X149564000Y-117066780D02*
G75*
G02*
X149564000Y-51384780I0J32841000D01*
G01*
X149564000Y-117320780D02*
G75*
G02*
X149564000Y-51130780I0J33095000D01*
G01*
X149564000Y-117574780D02*
G75*
G02*
X149564000Y-50876780I0J33349000D01*
G01*
X149564000Y-117828780D02*
G75*
G02*
X149564000Y-50622780I0J33603000D01*
G01*
X149564000Y-118082780D02*
G75*
G02*
X149564000Y-50368780I0J33857000D01*
G01*
X149564000Y-118336780D02*
G75*
G02*
X149564000Y-50114780I0J34111000D01*
G01*
X149564000Y-118590780D02*
G75*
G02*
X149564000Y-49860780I0J34365000D01*
G01*
X149564000Y-118844780D02*
G75*
G02*
X149564000Y-49606780I0J34619000D01*
G01*
X149564000Y-119098780D02*
G75*
G02*
X149564000Y-49352780I0J34873000D01*
G01*
%TD*%
D11*
%TO.P,J4,1,Pin_1*%
%TO.N,unconnected-(J4-Pin_1-Pad1)*%
X110500000Y-85000000D03*
%TD*%
%TO.P,J5,1,Pin_1*%
%TO.N,unconnected-(J5-Pin_1-Pad1)*%
X149500000Y-124000000D03*
%TD*%
%TO.P,J6,1,Pin_1*%
%TO.N,unconnected-(J6-Pin_1-Pad1)*%
X149500000Y-46000000D03*
%TD*%
%TO.P,J7,1,Pin_1*%
%TO.N,unconnected-(J7-Pin_1-Pad1)*%
X188500000Y-85000000D03*
%TD*%
D12*
%TO.P,J2,1,Pin_1*%
%TO.N,GND*%
X160692893Y-75921320D03*
D13*
%TO.P,J2,2,Pin_2*%
%TO.N,/SDAIN*%
X159278679Y-74507106D03*
%TO.P,J2,3,Pin_3*%
%TO.N,VSOLAR*%
X162107107Y-74507106D03*
%TO.P,J2,4,Pin_4*%
%TO.N,+3V3*%
X160692893Y-73092893D03*
%TO.P,J2,5,Pin_5*%
%TO.N,VSOLAR*%
X163521320Y-73092893D03*
%TO.P,J2,6,Pin_6*%
%TO.N,/SCLIN*%
X162107107Y-71678679D03*
%TD*%
D14*
%TO.P,J1,1,Pin_1*%
%TO.N,GND*%
X137277746Y-77781047D03*
%TO.P,J1,2,Pin_2*%
%TO.N,/SDAIN*%
X138338406Y-76720387D03*
%TO.P,J1,3,Pin_3*%
%TO.N,/SCLIN*%
X139399066Y-75659727D03*
%TO.P,J1,4,Pin_4*%
%TO.N,+3V3*%
X140459727Y-74599066D03*
%TO.P,J1,5,Pin_5*%
%TO.N,VSOLAR*%
X141520387Y-73538406D03*
%TO.P,J1,6,Pin_6*%
X142581047Y-72477746D03*
D15*
%TO.P,J1,S1*%
%TO.N,N/C*%
X131765849Y-75953176D03*
%TO.P,J1,S2*%
X140753176Y-66965849D03*
%TD*%
D16*
%TO.P,REF\u002A\u002A,*%
%TO.N,*%
X149564000Y-62462780D03*
X149564000Y-105988780D03*
X149564000Y-119952780D03*
D17*
%TO.P,REF\u002A\u002A,2*%
%TO.N,N/C*%
X149064000Y-120202780D03*
%TD*%
D18*
%TO.N,/SDAIN*%
X148022739Y-79043745D03*
X152050002Y-78050002D03*
%TO.N,/SCLIN*%
X148724272Y-78026354D03*
X151250000Y-77450000D03*
%TO.N,+3V3*%
X141300000Y-75400000D03*
X139650000Y-73800000D03*
%TO.N,GND*%
X171630000Y-123540000D03*
X156400000Y-87900000D03*
X188500000Y-107500000D03*
X108700000Y-77900000D03*
X191700000Y-114800000D03*
X146300313Y-80450313D03*
X164540000Y-46420000D03*
X139200000Y-66200000D03*
X111400000Y-75200000D03*
X160900000Y-101600000D03*
X194000000Y-72600000D03*
X135200000Y-122700000D03*
X142000000Y-81700000D03*
X184500000Y-73700000D03*
X189800000Y-68600000D03*
X168900000Y-76500000D03*
X136450000Y-96750000D03*
X126600000Y-112600000D03*
X136704592Y-91823800D03*
X138208651Y-94845115D03*
X114700000Y-120600000D03*
X135976200Y-94528146D03*
X165550000Y-72650000D03*
X151750000Y-92950000D03*
X145700000Y-91550000D03*
X111040000Y-62950000D03*
X144850000Y-79200000D03*
X163750000Y-76250000D03*
X175000000Y-111000000D03*
X138750000Y-102000000D03*
X134700000Y-98900000D03*
X189000000Y-114900000D03*
X116700000Y-122800000D03*
X140802156Y-94889337D03*
X143674813Y-83075813D03*
X126300000Y-46300000D03*
X146900000Y-92400000D03*
X137700000Y-121700000D03*
X119890000Y-126760000D03*
X166300000Y-52200000D03*
X184500000Y-70900000D03*
X124600000Y-110800000D03*
X160100000Y-67050000D03*
X155135531Y-86635531D03*
X163200000Y-99500000D03*
X131400000Y-53100000D03*
X151135531Y-90600000D03*
X172300000Y-113300000D03*
%TO.N,+3V3*%
X139500000Y-91100000D03*
X160300000Y-68700000D03*
X144100000Y-89800000D03*
X140330122Y-99130122D03*
X139854705Y-95552837D03*
X132200000Y-96400000D03*
X135500000Y-99800000D03*
X143400000Y-95000000D03*
X135200000Y-95400000D03*
%TO.N,VSOLAR*%
X156100000Y-86200000D03*
X156107797Y-84313922D03*
%TO.N,Net-(U2-OUT+)*%
X141780000Y-94680000D03*
X147500000Y-120500000D03*
X143700000Y-104200000D03*
X139500000Y-97800000D03*
%TO.N,/SDAIN*%
X142900000Y-86630426D03*
%TO.N,/SCLIN*%
X143400000Y-91800000D03*
%TO.N,/SCL*%
X138500000Y-98700000D03*
X141200000Y-93200000D03*
X142658472Y-92470925D03*
%TD*%
D19*
%TO.N,VSOLAR*%
X156107797Y-84313922D02*
X156107797Y-83442203D01*
X156107797Y-83442203D02*
X162107107Y-77442893D01*
X162107107Y-77442893D02*
X162107107Y-74507106D01*
D20*
%TO.N,/SCLIN*%
X142039339Y-78300000D02*
X139399066Y-75659727D01*
X148724272Y-78026354D02*
X148450626Y-78300000D01*
X148450626Y-78300000D02*
X142039339Y-78300000D01*
%TO.N,/SDAIN*%
X148005035Y-79026041D02*
X145981665Y-79026041D01*
X145981665Y-79026041D02*
X143902925Y-81104781D01*
X148022739Y-79043745D02*
X148005035Y-79026041D01*
X142922799Y-81104781D02*
X142809009Y-80990991D01*
X143902925Y-81104781D02*
X142922799Y-81104781D01*
X142922800Y-81104781D02*
X142809009Y-80990991D01*
X155592898Y-74507106D02*
X152050002Y-78050002D01*
X159278679Y-74507106D02*
X155592898Y-74507106D01*
%TO.N,/SCLIN*%
X157021321Y-71678679D02*
X151250000Y-77450000D01*
X162107107Y-71678679D02*
X157021321Y-71678679D01*
%TO.N,/SDAIN*%
X142900000Y-86630426D02*
X142900000Y-86015161D01*
X142809009Y-80990991D02*
X140984009Y-79165991D01*
X142900000Y-86015161D02*
X142922800Y-85992361D01*
X142922800Y-85992361D02*
X142922800Y-81104781D01*
D21*
%TO.N,GND*%
X151200000Y-91200000D02*
X151200000Y-92400000D01*
X151135531Y-90600000D02*
X151250000Y-90714469D01*
X151250000Y-90714469D02*
X151250000Y-91150000D01*
X151250000Y-91150000D02*
X151200000Y-91200000D01*
X151200000Y-92400000D02*
X151750000Y-92950000D01*
X155135531Y-86635531D02*
X156400000Y-87900000D01*
D19*
%TO.N,VSOLAR*%
X141520387Y-73538406D02*
X141520387Y-73570387D01*
X141520387Y-73570387D02*
X142625000Y-74675000D01*
X142625000Y-74675000D02*
X146575000Y-74675000D01*
X156107797Y-84313922D02*
X156107797Y-84207797D01*
X146575000Y-74675000D02*
X144650000Y-72750000D01*
X142853301Y-72750000D02*
X142581047Y-72477746D01*
X144650000Y-72750000D02*
X142853301Y-72750000D01*
D20*
%TO.N,+3V3*%
X140499066Y-74599066D02*
X141300000Y-75400000D01*
X140459727Y-74599066D02*
X140499066Y-74599066D01*
X140449066Y-74599066D02*
X139650000Y-73800000D01*
X140459727Y-74599066D02*
X140449066Y-74599066D01*
%TO.N,/SCLIN*%
X142223800Y-86314339D02*
X141322800Y-85413339D01*
X141322800Y-85413339D02*
X141322800Y-80809817D01*
X141322800Y-80809817D02*
X137495521Y-76982538D01*
X137495521Y-76004479D02*
X137840273Y-75659727D01*
X137495521Y-76982538D02*
X137495521Y-76004479D01*
X137840273Y-75659727D02*
X139399066Y-75659727D01*
%TO.N,/SDAIN*%
X140984009Y-79165991D02*
X138538405Y-76720387D01*
X138538405Y-76720387D02*
X138338406Y-76720387D01*
D21*
%TO.N,+3V3*%
X142847163Y-95552837D02*
X143400000Y-95000000D01*
X139854705Y-95552837D02*
X142847163Y-95552837D01*
D19*
%TO.N,VSOLAR*%
X156100000Y-86200000D02*
X156100000Y-84321719D01*
X156100000Y-84321719D02*
X156107797Y-84313922D01*
X162107107Y-74507106D02*
X163521320Y-73092893D01*
D21*
%TO.N,Net-(U2-OUT+)*%
X139400000Y-97900000D02*
X139400000Y-100000000D01*
X139500000Y-97800000D02*
X139400000Y-97900000D01*
X149064000Y-120202780D02*
X148766780Y-120500000D01*
X139400000Y-100000000D02*
X143600000Y-104200000D01*
X148766780Y-120500000D02*
X147500000Y-120500000D01*
X143600000Y-104200000D02*
X143700000Y-104200000D01*
D20*
%TO.N,/SDAIN*%
X140938406Y-79120387D02*
X140984009Y-79165991D01*
%TO.N,/SCLIN*%
X142223800Y-86314339D02*
X142223800Y-90623800D01*
X142223800Y-90623800D02*
X143400000Y-91800000D01*
D22*
%TO.N,/SCL*%
X138533763Y-98666237D02*
X138500000Y-98700000D01*
D20*
X142658472Y-92470925D02*
X141929075Y-92470925D01*
X141929075Y-92470925D02*
X141200000Y-93200000D01*
D22*
X138533763Y-95696237D02*
X138533763Y-98666237D01*
X141200000Y-93200000D02*
X141030000Y-93200000D01*
X141030000Y-93200000D02*
X138533763Y-95696237D01*
D19*
%TO.N,VSOLAR*%
X156107797Y-84207797D02*
X146575000Y-74675000D01*
%TD*%
%TA.AperFunction,Conductor*%
%TO.N,GND*%
G36*
X148690737Y-62407053D02*
G01*
X148740550Y-62457641D01*
X148755500Y-62517171D01*
X148755500Y-62542412D01*
X148771035Y-62620510D01*
X148786570Y-62698611D01*
X148847517Y-62845748D01*
X148858329Y-62861929D01*
X148935998Y-62978170D01*
X148936003Y-62978176D01*
X149048603Y-63090776D01*
X149048609Y-63090781D01*
X149048611Y-63090783D01*
X149181032Y-63179263D01*
X149328169Y-63240210D01*
X149484370Y-63271280D01*
X149484371Y-63271280D01*
X149643629Y-63271280D01*
X149643630Y-63271280D01*
X149799831Y-63240210D01*
X149946968Y-63179263D01*
X150079389Y-63090783D01*
X150148226Y-63021944D01*
X150176716Y-63006388D01*
X150204387Y-62989421D01*
X150208770Y-62988884D01*
X150210538Y-62987920D01*
X150239982Y-62985068D01*
X150476295Y-62990064D01*
X150481576Y-62990288D01*
X151389513Y-63048105D01*
X151394784Y-63048553D01*
X152299470Y-63144855D01*
X152304709Y-63145525D01*
X153204461Y-63280135D01*
X153209702Y-63281033D01*
X154102946Y-63453713D01*
X154108151Y-63454835D01*
X154795921Y-63618354D01*
X154993198Y-63665257D01*
X154998375Y-63666604D01*
X155873717Y-63914408D01*
X155878832Y-63915974D01*
X156742869Y-64200707D01*
X156747912Y-64202489D01*
X157599053Y-64523627D01*
X157604017Y-64525621D01*
X158440789Y-64882608D01*
X158445663Y-64884811D01*
X158856088Y-65080897D01*
X159266523Y-65276987D01*
X159271283Y-65279387D01*
X159602621Y-65455335D01*
X160074757Y-65706050D01*
X160079427Y-65708658D01*
X160864100Y-66169059D01*
X160868627Y-66171846D01*
X161116683Y-66331919D01*
X161633017Y-66665114D01*
X161637449Y-66668109D01*
X161873642Y-66835139D01*
X162380223Y-67193381D01*
X162384496Y-67196541D01*
X162758358Y-67485490D01*
X163104333Y-67752886D01*
X163108486Y-67756240D01*
X163804038Y-68342618D01*
X163808021Y-68346123D01*
X164290760Y-68789477D01*
X164478067Y-68961503D01*
X164481929Y-68965204D01*
X165125233Y-69608448D01*
X165128935Y-69612310D01*
X165744360Y-70282283D01*
X165747894Y-70286298D01*
X166334326Y-70981785D01*
X166337687Y-70985947D01*
X166894077Y-71705704D01*
X166897257Y-71710005D01*
X167422591Y-72452721D01*
X167425585Y-72457150D01*
X167458584Y-72508275D01*
X167918923Y-73221494D01*
X167921728Y-73226049D01*
X168382181Y-74010648D01*
X168384790Y-74015318D01*
X168811528Y-74818753D01*
X168813936Y-74823529D01*
X169206189Y-75644354D01*
X169208392Y-75649228D01*
X169565447Y-76485947D01*
X169567442Y-76490911D01*
X169888665Y-77342044D01*
X169890447Y-77347087D01*
X170175260Y-78211097D01*
X170176826Y-78216212D01*
X170424702Y-79091505D01*
X170426050Y-79096681D01*
X170636558Y-79981724D01*
X170637684Y-79986948D01*
X170665701Y-80131805D01*
X170810437Y-80880131D01*
X170811341Y-80885403D01*
X170946026Y-81785094D01*
X170946706Y-81790400D01*
X171043084Y-82695014D01*
X171043538Y-82700344D01*
X171101435Y-83608236D01*
X171101662Y-83613580D01*
X171120973Y-84523105D01*
X171120973Y-84528455D01*
X171101662Y-85437979D01*
X171101435Y-85443323D01*
X171043538Y-86351215D01*
X171043084Y-86356545D01*
X170946706Y-87261159D01*
X170946026Y-87266465D01*
X170811341Y-88166156D01*
X170810437Y-88171428D01*
X170637685Y-89064606D01*
X170636558Y-89069835D01*
X170426050Y-89954878D01*
X170424702Y-89960054D01*
X170176826Y-90835347D01*
X170175260Y-90840462D01*
X169890447Y-91704472D01*
X169888665Y-91709515D01*
X169567442Y-92560648D01*
X169565447Y-92565612D01*
X169208392Y-93402331D01*
X169206189Y-93407205D01*
X168813936Y-94228030D01*
X168811528Y-94232806D01*
X168384790Y-95036241D01*
X168382181Y-95040911D01*
X167921728Y-95825510D01*
X167918923Y-95830065D01*
X167425587Y-96594407D01*
X167422591Y-96598838D01*
X166897257Y-97341554D01*
X166894077Y-97345855D01*
X166337687Y-98065612D01*
X166334326Y-98069774D01*
X165747894Y-98765261D01*
X165744360Y-98769276D01*
X165128935Y-99439249D01*
X165125233Y-99443111D01*
X164481929Y-100086355D01*
X164478067Y-100090056D01*
X163808037Y-100705422D01*
X163804022Y-100708955D01*
X163108495Y-101295312D01*
X163104333Y-101298673D01*
X162384510Y-101855008D01*
X162380209Y-101858188D01*
X161637449Y-102383450D01*
X161633017Y-102386445D01*
X160868641Y-102879704D01*
X160864086Y-102882509D01*
X160079427Y-103342901D01*
X160074757Y-103345509D01*
X159271291Y-103772168D01*
X159266514Y-103774576D01*
X158445663Y-104166748D01*
X158440789Y-104168951D01*
X157604017Y-104525938D01*
X157599053Y-104527932D01*
X156747912Y-104849070D01*
X156742869Y-104850852D01*
X155878832Y-105135585D01*
X155873717Y-105137151D01*
X154998375Y-105384955D01*
X154993198Y-105386302D01*
X154108163Y-105596721D01*
X154102934Y-105597848D01*
X153209718Y-105770523D01*
X153204446Y-105771426D01*
X152304742Y-105906029D01*
X152299436Y-105906708D01*
X151394813Y-106003003D01*
X151389483Y-106003456D01*
X150506507Y-106059683D01*
X150437253Y-106044051D01*
X150387444Y-105993458D01*
X150372500Y-105933938D01*
X150372500Y-105909151D01*
X150372499Y-105909147D01*
X150371485Y-105904048D01*
X150341430Y-105752949D01*
X150280483Y-105605812D01*
X150192003Y-105473391D01*
X150192001Y-105473389D01*
X150191996Y-105473383D01*
X150079396Y-105360783D01*
X150079390Y-105360778D01*
X150079389Y-105360777D01*
X149946968Y-105272297D01*
X149799831Y-105211350D01*
X149721730Y-105195815D01*
X149643632Y-105180280D01*
X149643630Y-105180280D01*
X149484370Y-105180280D01*
X149484367Y-105180280D01*
X149367219Y-105203582D01*
X149328169Y-105211350D01*
X149200263Y-105264331D01*
X149181032Y-105272297D01*
X149048609Y-105360778D01*
X149048603Y-105360783D01*
X148936003Y-105473383D01*
X148935998Y-105473389D01*
X148847517Y-105605812D01*
X148786571Y-105752947D01*
X148786570Y-105752950D01*
X148755500Y-105909147D01*
X148755500Y-105934388D01*
X148735498Y-106002509D01*
X148681842Y-106049002D01*
X148621482Y-106060133D01*
X147713228Y-106002216D01*
X147707898Y-106001762D01*
X146790693Y-105904048D01*
X146785388Y-105903369D01*
X145873132Y-105766811D01*
X145867860Y-105765907D01*
X144962229Y-105590757D01*
X144957000Y-105589630D01*
X144059615Y-105376201D01*
X144054439Y-105374853D01*
X143896409Y-105330103D01*
X143836315Y-105292297D01*
X143806200Y-105228004D01*
X143815626Y-105157636D01*
X143861599Y-105103534D01*
X143906156Y-105085291D01*
X143965000Y-105073587D01*
X144130336Y-105005102D01*
X144279135Y-104905678D01*
X144405678Y-104779135D01*
X144505102Y-104630336D01*
X144573587Y-104465000D01*
X144608500Y-104289479D01*
X144608500Y-104110521D01*
X144573587Y-103935000D01*
X144505102Y-103769664D01*
X144405678Y-103620865D01*
X144279135Y-103494322D01*
X144130336Y-103394898D01*
X144004805Y-103342901D01*
X143965003Y-103326414D01*
X143965001Y-103326413D01*
X143965000Y-103326413D01*
X143866197Y-103306760D01*
X143789481Y-103291500D01*
X143789479Y-103291500D01*
X143610521Y-103291500D01*
X143610515Y-103291500D01*
X143584748Y-103296626D01*
X143514034Y-103290298D01*
X143471072Y-103262142D01*
X140442782Y-100233852D01*
X140408756Y-100171540D01*
X140413821Y-100100725D01*
X140456368Y-100043889D01*
X140507293Y-100021178D01*
X140595122Y-100003709D01*
X140760458Y-99935224D01*
X140909257Y-99835800D01*
X141035800Y-99709257D01*
X141135224Y-99560458D01*
X141203709Y-99395122D01*
X141238622Y-99219601D01*
X141238622Y-99040643D01*
X141203709Y-98865122D01*
X141135224Y-98699786D01*
X141035800Y-98550987D01*
X140909257Y-98424444D01*
X140760458Y-98325020D01*
X140626813Y-98269662D01*
X140595125Y-98256536D01*
X140595123Y-98256535D01*
X140595122Y-98256535D01*
X140467732Y-98231195D01*
X140404824Y-98198288D01*
X140369692Y-98136593D01*
X140373189Y-98071349D01*
X140371789Y-98070925D01*
X140373581Y-98065014D01*
X140373587Y-98065000D01*
X140408500Y-97889479D01*
X140408500Y-97710521D01*
X140373587Y-97535000D01*
X140305102Y-97369664D01*
X140205678Y-97220865D01*
X140079135Y-97094322D01*
X139930336Y-96994898D01*
X139813429Y-96946473D01*
X139765003Y-96926414D01*
X139765001Y-96926413D01*
X139765000Y-96926413D01*
X139648340Y-96903208D01*
X139589481Y-96891500D01*
X139589479Y-96891500D01*
X139410521Y-96891500D01*
X139410515Y-96891500D01*
X139319844Y-96909536D01*
X139249130Y-96903208D01*
X139193063Y-96859653D01*
X139169444Y-96792701D01*
X139169263Y-96785957D01*
X139169263Y-96423212D01*
X139189265Y-96355091D01*
X139242921Y-96308598D01*
X139313195Y-96298494D01*
X139365264Y-96318446D01*
X139424369Y-96357939D01*
X139589705Y-96426424D01*
X139765226Y-96461337D01*
X139765227Y-96461337D01*
X139944183Y-96461337D01*
X139944184Y-96461337D01*
X140119705Y-96426424D01*
X140285041Y-96357939D01*
X140433840Y-96258515D01*
X140530613Y-96161742D01*
X140592925Y-96127716D01*
X140619708Y-96124837D01*
X142922466Y-96124837D01*
X142922468Y-96124837D01*
X143067947Y-96085856D01*
X143198379Y-96010551D01*
X143263524Y-95945404D01*
X143325836Y-95911380D01*
X143352620Y-95908500D01*
X143489478Y-95908500D01*
X143489479Y-95908500D01*
X143665000Y-95873587D01*
X143830336Y-95805102D01*
X143979135Y-95705678D01*
X144105678Y-95579135D01*
X144205102Y-95430336D01*
X144273587Y-95265000D01*
X144308500Y-95089479D01*
X144308500Y-94910521D01*
X144273587Y-94735000D01*
X144205102Y-94569664D01*
X144105678Y-94420865D01*
X143979135Y-94294322D01*
X143830336Y-94194898D01*
X143713429Y-94146473D01*
X143665003Y-94126414D01*
X143665001Y-94126413D01*
X143665000Y-94126413D01*
X143576645Y-94108838D01*
X143489481Y-94091500D01*
X143489479Y-94091500D01*
X143310521Y-94091500D01*
X143310518Y-94091500D01*
X143179771Y-94117507D01*
X143135000Y-94126413D01*
X143134999Y-94126413D01*
X143134996Y-94126414D01*
X142969662Y-94194899D01*
X142820869Y-94294319D01*
X142820866Y-94294321D01*
X142800575Y-94314612D01*
X142738262Y-94348636D01*
X142667446Y-94343570D01*
X142610611Y-94301022D01*
X142595073Y-94273734D01*
X142585104Y-94249669D01*
X142585102Y-94249664D01*
X142548509Y-94194899D01*
X142485678Y-94100865D01*
X142359135Y-93974322D01*
X142210336Y-93874898D01*
X142063447Y-93814054D01*
X142008167Y-93769505D01*
X141985746Y-93702141D01*
X142002621Y-93636026D01*
X142002185Y-93635793D01*
X142003135Y-93634015D01*
X142003305Y-93633350D01*
X142004528Y-93631408D01*
X142005100Y-93630339D01*
X142005100Y-93630338D01*
X142005102Y-93630336D01*
X142073587Y-93465000D01*
X142090126Y-93381848D01*
X142123033Y-93318940D01*
X142184728Y-93283808D01*
X142255623Y-93287608D01*
X142261924Y-93290023D01*
X142393464Y-93344509D01*
X142393465Y-93344509D01*
X142393472Y-93344512D01*
X142568993Y-93379425D01*
X142568994Y-93379425D01*
X142747950Y-93379425D01*
X142747951Y-93379425D01*
X142923472Y-93344512D01*
X143088808Y-93276027D01*
X143237607Y-93176603D01*
X143364150Y-93050060D01*
X143463574Y-92901261D01*
X143522489Y-92759026D01*
X143567036Y-92703748D01*
X143614318Y-92683668D01*
X143664994Y-92673589D01*
X143664994Y-92673588D01*
X143665000Y-92673587D01*
X143830336Y-92605102D01*
X143979135Y-92505678D01*
X144105678Y-92379135D01*
X144205102Y-92230336D01*
X144273587Y-92065000D01*
X144308500Y-91889479D01*
X144308500Y-91710521D01*
X144273587Y-91535000D01*
X144205102Y-91369664D01*
X144105678Y-91220865D01*
X143979135Y-91094322D01*
X143830336Y-90994898D01*
X143713429Y-90946473D01*
X143665003Y-90926414D01*
X143665001Y-90926413D01*
X143665000Y-90926413D01*
X143576645Y-90908838D01*
X143489481Y-90891500D01*
X143489479Y-90891500D01*
X143370580Y-90891500D01*
X143302459Y-90871498D01*
X143281485Y-90854595D01*
X142845405Y-90418515D01*
X142811379Y-90356203D01*
X142808500Y-90329420D01*
X142808500Y-89710518D01*
X143191500Y-89710518D01*
X143191500Y-89889481D01*
X143205538Y-89960054D01*
X143226413Y-90065000D01*
X143294898Y-90230336D01*
X143394322Y-90379135D01*
X143520865Y-90505678D01*
X143669664Y-90605102D01*
X143835000Y-90673587D01*
X144010521Y-90708500D01*
X144010522Y-90708500D01*
X144189478Y-90708500D01*
X144189479Y-90708500D01*
X144365000Y-90673587D01*
X144530336Y-90605102D01*
X144679135Y-90505678D01*
X144805678Y-90379135D01*
X144905102Y-90230336D01*
X144973587Y-90065000D01*
X145008500Y-89889479D01*
X145008500Y-89710521D01*
X144973587Y-89535000D01*
X144905102Y-89369664D01*
X144805678Y-89220865D01*
X144679135Y-89094322D01*
X144530336Y-88994898D01*
X144413429Y-88946473D01*
X144365003Y-88926414D01*
X144365001Y-88926413D01*
X144365000Y-88926413D01*
X144276645Y-88908838D01*
X144189481Y-88891500D01*
X144189479Y-88891500D01*
X144010521Y-88891500D01*
X144010518Y-88891500D01*
X143879771Y-88917507D01*
X143835000Y-88926413D01*
X143834999Y-88926413D01*
X143834996Y-88926414D01*
X143669662Y-88994899D01*
X143520869Y-89094319D01*
X143520862Y-89094324D01*
X143394324Y-89220862D01*
X143394319Y-89220869D01*
X143294899Y-89369662D01*
X143226414Y-89534996D01*
X143191500Y-89710518D01*
X142808500Y-89710518D01*
X142808500Y-87664926D01*
X142828502Y-87596805D01*
X142882158Y-87550312D01*
X142934500Y-87538926D01*
X142989478Y-87538926D01*
X142989479Y-87538926D01*
X143165000Y-87504013D01*
X143330336Y-87435528D01*
X143479135Y-87336104D01*
X143605678Y-87209561D01*
X143705102Y-87060762D01*
X143773587Y-86895426D01*
X143808500Y-86719905D01*
X143808500Y-86540947D01*
X143773587Y-86365426D01*
X143705102Y-86200090D01*
X143605678Y-86051291D01*
X143544405Y-85990018D01*
X143510379Y-85927706D01*
X143507500Y-85900923D01*
X143507500Y-85245241D01*
X143527502Y-85177120D01*
X143581158Y-85130627D01*
X143651432Y-85120523D01*
X143716012Y-85150017D01*
X143722595Y-85156146D01*
X149386422Y-90819973D01*
X149386426Y-90819976D01*
X149460118Y-90850500D01*
X149539882Y-90850500D01*
X149613574Y-90819976D01*
X149669976Y-90763574D01*
X155126405Y-85307145D01*
X155188717Y-85273119D01*
X155259532Y-85278184D01*
X155316368Y-85320731D01*
X155341179Y-85387251D01*
X155341500Y-85396240D01*
X155341500Y-85661696D01*
X155321498Y-85729817D01*
X155320267Y-85731696D01*
X155294898Y-85769664D01*
X155226414Y-85934996D01*
X155191500Y-86110518D01*
X155191500Y-86110521D01*
X155191500Y-86289479D01*
X155226413Y-86465000D01*
X155294898Y-86630336D01*
X155394322Y-86779135D01*
X155520865Y-86905678D01*
X155669664Y-87005102D01*
X155835000Y-87073587D01*
X156010521Y-87108500D01*
X156010522Y-87108500D01*
X156189478Y-87108500D01*
X156189479Y-87108500D01*
X156365000Y-87073587D01*
X156530336Y-87005102D01*
X156679135Y-86905678D01*
X156805678Y-86779135D01*
X156905102Y-86630336D01*
X156973587Y-86465000D01*
X157008500Y-86289479D01*
X157008500Y-86110521D01*
X156973587Y-85935000D01*
X156905102Y-85769664D01*
X156879732Y-85731695D01*
X156858520Y-85663943D01*
X156858500Y-85661696D01*
X156858500Y-84863893D01*
X156878502Y-84795772D01*
X156879735Y-84793891D01*
X156912899Y-84744258D01*
X156981384Y-84578922D01*
X156981385Y-84578916D01*
X156981386Y-84578916D01*
X156990292Y-84534138D01*
X157023198Y-84471228D01*
X157024719Y-84469679D01*
X162696273Y-78798127D01*
X162779281Y-78673896D01*
X162836458Y-78535858D01*
X162853467Y-78450347D01*
X162865607Y-78389318D01*
X162865607Y-75665096D01*
X162885609Y-75596975D01*
X162917546Y-75563160D01*
X162988345Y-75511722D01*
X163111723Y-75388344D01*
X163214280Y-75247186D01*
X163293494Y-75091722D01*
X163347411Y-74925779D01*
X163374706Y-74753446D01*
X163374706Y-74578964D01*
X163360720Y-74490662D01*
X163369819Y-74420255D01*
X163415541Y-74365941D01*
X163483369Y-74344968D01*
X163504869Y-74346505D01*
X163593178Y-74360492D01*
X163593181Y-74360492D01*
X163767657Y-74360492D01*
X163767660Y-74360492D01*
X163939993Y-74333197D01*
X164105936Y-74279280D01*
X164261400Y-74200066D01*
X164402558Y-74097509D01*
X164525936Y-73974131D01*
X164628493Y-73832973D01*
X164707707Y-73677509D01*
X164761624Y-73511566D01*
X164788919Y-73339233D01*
X164788919Y-73164751D01*
X164761624Y-72992418D01*
X164707707Y-72826475D01*
X164628493Y-72671011D01*
X164525936Y-72529853D01*
X164525933Y-72529850D01*
X164525931Y-72529847D01*
X164084365Y-72088281D01*
X164084362Y-72088279D01*
X164084360Y-72088277D01*
X163978208Y-72011153D01*
X163943204Y-71985721D01*
X163915290Y-71971498D01*
X163787738Y-71906506D01*
X163787735Y-71906505D01*
X163787733Y-71906504D01*
X163621799Y-71852590D01*
X163621797Y-71852589D01*
X163621795Y-71852589D01*
X163521353Y-71836680D01*
X163475343Y-71829393D01*
X163411191Y-71798980D01*
X163373664Y-71738711D01*
X163370608Y-71724666D01*
X163347411Y-71578204D01*
X163293494Y-71412261D01*
X163214280Y-71256797D01*
X163111723Y-71115639D01*
X163111720Y-71115636D01*
X163111718Y-71115633D01*
X162670152Y-70674067D01*
X162670149Y-70674065D01*
X162670147Y-70674063D01*
X162571426Y-70602338D01*
X162528991Y-70571507D01*
X162523173Y-70568543D01*
X162373525Y-70492292D01*
X162373522Y-70492291D01*
X162373520Y-70492290D01*
X162207585Y-70438376D01*
X162207582Y-70438375D01*
X162035249Y-70411080D01*
X161860767Y-70411080D01*
X161688434Y-70438375D01*
X161688431Y-70438375D01*
X161688430Y-70438376D01*
X161522495Y-70492290D01*
X161522489Y-70492293D01*
X161367024Y-70571507D01*
X161225866Y-70674065D01*
X161225863Y-70674067D01*
X161102495Y-70797435D01*
X161102493Y-70797438D01*
X160999934Y-70938598D01*
X160955816Y-71025183D01*
X160907068Y-71076798D01*
X160843550Y-71093979D01*
X156944344Y-71093979D01*
X156795635Y-71133826D01*
X156741372Y-71165155D01*
X156741371Y-71165154D01*
X156669368Y-71206725D01*
X156662306Y-71210803D01*
X156662304Y-71210804D01*
X156662298Y-71210809D01*
X151368515Y-76504595D01*
X151306203Y-76538621D01*
X151279420Y-76541500D01*
X151160518Y-76541500D01*
X151029771Y-76567507D01*
X150985000Y-76576413D01*
X150984999Y-76576413D01*
X150984996Y-76576414D01*
X150819662Y-76644899D01*
X150670869Y-76744319D01*
X150670862Y-76744324D01*
X150544324Y-76870862D01*
X150544319Y-76870869D01*
X150444897Y-77019664D01*
X150444897Y-77019665D01*
X150384509Y-77165450D01*
X150339960Y-77220730D01*
X150272597Y-77243150D01*
X150203806Y-77225591D01*
X150179006Y-77206325D01*
X145133519Y-72160838D01*
X145133515Y-72160834D01*
X145009284Y-72077826D01*
X144871247Y-72020649D01*
X144785722Y-72003637D01*
X144785720Y-72003636D01*
X144724709Y-71991500D01*
X144724706Y-71991500D01*
X143290382Y-71991500D01*
X143222261Y-71971498D01*
X143201291Y-71954599D01*
X142764797Y-71518105D01*
X142764796Y-71518104D01*
X142764792Y-71518100D01*
X142717372Y-71479886D01*
X142717370Y-71479885D01*
X142717369Y-71479884D01*
X142584360Y-71419141D01*
X142439626Y-71398332D01*
X142439625Y-71398332D01*
X142367258Y-71408736D01*
X142294891Y-71419141D01*
X142161883Y-71479884D01*
X142161879Y-71479887D01*
X142114453Y-71518105D01*
X141621406Y-72011152D01*
X141583188Y-72058578D01*
X141583185Y-72058582D01*
X141536489Y-72160833D01*
X141522442Y-72191591D01*
X141500351Y-72345245D01*
X141498129Y-72344925D01*
X141481631Y-72401113D01*
X141427975Y-72447606D01*
X141387693Y-72456368D01*
X141387886Y-72457710D01*
X141378967Y-72458992D01*
X141378966Y-72458992D01*
X141234231Y-72479801D01*
X141124633Y-72529853D01*
X141101223Y-72540544D01*
X141101219Y-72540547D01*
X141053793Y-72578765D01*
X140560746Y-73071812D01*
X140522528Y-73119238D01*
X140522522Y-73119247D01*
X140513742Y-73138473D01*
X140467248Y-73192127D01*
X140399126Y-73212127D01*
X140331006Y-73192123D01*
X140310035Y-73175222D01*
X140229137Y-73094324D01*
X140229135Y-73094322D01*
X140080336Y-72994898D01*
X139962958Y-72946278D01*
X139915003Y-72926414D01*
X139915001Y-72926413D01*
X139915000Y-72926413D01*
X139826645Y-72908838D01*
X139739481Y-72891500D01*
X139739479Y-72891500D01*
X139560521Y-72891500D01*
X139560518Y-72891500D01*
X139429771Y-72917507D01*
X139385000Y-72926413D01*
X139384999Y-72926413D01*
X139384996Y-72926414D01*
X139253902Y-72980716D01*
X139225652Y-72992418D01*
X139219662Y-72994899D01*
X139070869Y-73094319D01*
X139070862Y-73094324D01*
X138944324Y-73220862D01*
X138944319Y-73220869D01*
X138844899Y-73369662D01*
X138776414Y-73534996D01*
X138776413Y-73534999D01*
X138776413Y-73535000D01*
X138770465Y-73564904D01*
X138741500Y-73710518D01*
X138741500Y-73889481D01*
X138776414Y-74065003D01*
X138789879Y-74097509D01*
X138844898Y-74230336D01*
X138944322Y-74379135D01*
X138944324Y-74379137D01*
X139021246Y-74456059D01*
X139055272Y-74518371D01*
X139050207Y-74589186D01*
X139007660Y-74646022D01*
X138984501Y-74659764D01*
X138979911Y-74661860D01*
X138979905Y-74661863D01*
X138979902Y-74661865D01*
X138979899Y-74661867D01*
X138979898Y-74661868D01*
X138932472Y-74700086D01*
X138932471Y-74700087D01*
X138594437Y-75038122D01*
X138532125Y-75072148D01*
X138505342Y-75075027D01*
X137763296Y-75075027D01*
X137664156Y-75101591D01*
X137614586Y-75114874D01*
X137503035Y-75179277D01*
X137503036Y-75179278D01*
X137481261Y-75191850D01*
X137481255Y-75191854D01*
X137364409Y-75308701D01*
X137136507Y-75536603D01*
X137091874Y-75581236D01*
X137027646Y-75645463D01*
X137027642Y-75645468D01*
X136950668Y-75778792D01*
X136910821Y-75927503D01*
X136910821Y-76681449D01*
X136890819Y-76749570D01*
X136863884Y-76779557D01*
X136811472Y-76821794D01*
X136811465Y-76821800D01*
X136744587Y-76888677D01*
X136885262Y-77029352D01*
X136890949Y-77038133D01*
X136896496Y-77042224D01*
X136905508Y-77060610D01*
X136913907Y-77073577D01*
X136916203Y-77079604D01*
X136950668Y-77208224D01*
X136988447Y-77273659D01*
X136993482Y-77282380D01*
X136993483Y-77282382D01*
X137027642Y-77341548D01*
X137027644Y-77341550D01*
X137027645Y-77341552D01*
X137372443Y-77686350D01*
X140701195Y-81015102D01*
X140735221Y-81077414D01*
X140738100Y-81104197D01*
X140738100Y-85490314D01*
X140738099Y-85490314D01*
X140777947Y-85639025D01*
X140845967Y-85756839D01*
X140854924Y-85772353D01*
X141602196Y-86519625D01*
X141636220Y-86581936D01*
X141639100Y-86608719D01*
X141639100Y-90700775D01*
X141639099Y-90700775D01*
X141664361Y-90795052D01*
X141678947Y-90849486D01*
X141746062Y-90965733D01*
X141755924Y-90982814D01*
X142245937Y-91472827D01*
X142279961Y-91535138D01*
X142274897Y-91605953D01*
X142232350Y-91662789D01*
X142226843Y-91666686D01*
X142079341Y-91765244D01*
X142079334Y-91765249D01*
X141995264Y-91849320D01*
X141932952Y-91883346D01*
X141906169Y-91886225D01*
X141852098Y-91886225D01*
X141781655Y-91905100D01*
X141703392Y-91926070D01*
X141703385Y-91926073D01*
X141570064Y-92003046D01*
X141570058Y-92003051D01*
X141444287Y-92128823D01*
X141318513Y-92254596D01*
X141256203Y-92288620D01*
X141229420Y-92291500D01*
X141110518Y-92291500D01*
X140979771Y-92317507D01*
X140935000Y-92326413D01*
X140934999Y-92326413D01*
X140934996Y-92326414D01*
X140769662Y-92394899D01*
X140620869Y-92494319D01*
X140620862Y-92494324D01*
X140494324Y-92620862D01*
X140494319Y-92620869D01*
X140394899Y-92769662D01*
X140326414Y-92934997D01*
X140326411Y-92935005D01*
X140316523Y-92984714D01*
X140283615Y-93047623D01*
X140282040Y-93049225D01*
X138128655Y-95202612D01*
X138040140Y-95291126D01*
X138040135Y-95291133D01*
X137970590Y-95395214D01*
X137922687Y-95510862D01*
X137922685Y-95510867D01*
X137898263Y-95633643D01*
X137898263Y-97964734D01*
X137878261Y-98032855D01*
X137861358Y-98053829D01*
X137794324Y-98120862D01*
X137794319Y-98120869D01*
X137694899Y-98269662D01*
X137626414Y-98434996D01*
X137591500Y-98610518D01*
X137591500Y-98610521D01*
X137591500Y-98789479D01*
X137626413Y-98965000D01*
X137694898Y-99130336D01*
X137794322Y-99279135D01*
X137920865Y-99405678D01*
X138069664Y-99505102D01*
X138235000Y-99573587D01*
X138410521Y-99608500D01*
X138410522Y-99608500D01*
X138589478Y-99608500D01*
X138589479Y-99608500D01*
X138677421Y-99591007D01*
X138748131Y-99597335D01*
X138804199Y-99640888D01*
X138827819Y-99707841D01*
X138828000Y-99714586D01*
X138828000Y-100075305D01*
X138853786Y-100171540D01*
X138866980Y-100220781D01*
X138866983Y-100220788D01*
X138879070Y-100241723D01*
X138921910Y-100315923D01*
X138942286Y-100351216D01*
X138942289Y-100351219D01*
X138942292Y-100351223D01*
X142754595Y-104163525D01*
X142788621Y-104225837D01*
X142791500Y-104252620D01*
X142791500Y-104289481D01*
X142793844Y-104301263D01*
X142826413Y-104465000D01*
X142894898Y-104630336D01*
X142994322Y-104779135D01*
X142994324Y-104779137D01*
X143048755Y-104833568D01*
X143082781Y-104895880D01*
X143077716Y-104966695D01*
X143035169Y-105023531D01*
X142968649Y-105048342D01*
X142920216Y-105042330D01*
X142286874Y-104833568D01*
X142285773Y-104833205D01*
X142280730Y-104831423D01*
X141417730Y-104505741D01*
X141412767Y-104503747D01*
X140622992Y-104166748D01*
X140564336Y-104141719D01*
X140559468Y-104139518D01*
X139727210Y-103741828D01*
X139722434Y-103739420D01*
X138907778Y-103306751D01*
X138903140Y-103304160D01*
X138107553Y-102837292D01*
X138103021Y-102834501D01*
X137328007Y-102334314D01*
X137323575Y-102331319D01*
X136570479Y-101798684D01*
X136566179Y-101795504D01*
X135836362Y-101231382D01*
X135832200Y-101228021D01*
X135479712Y-100930829D01*
X135440526Y-100871628D01*
X135439567Y-100800638D01*
X135477141Y-100740399D01*
X135541317Y-100710036D01*
X135560932Y-100708500D01*
X135589478Y-100708500D01*
X135589479Y-100708500D01*
X135765000Y-100673587D01*
X135930336Y-100605102D01*
X136079135Y-100505678D01*
X136205678Y-100379135D01*
X136305102Y-100230336D01*
X136373587Y-100065000D01*
X136408500Y-99889479D01*
X136408500Y-99710521D01*
X136373587Y-99535000D01*
X136305102Y-99369664D01*
X136205678Y-99220865D01*
X136079135Y-99094322D01*
X135930336Y-98994898D01*
X135813429Y-98946473D01*
X135765003Y-98926414D01*
X135765001Y-98926413D01*
X135765000Y-98926413D01*
X135676645Y-98908838D01*
X135589481Y-98891500D01*
X135589479Y-98891500D01*
X135410521Y-98891500D01*
X135410518Y-98891500D01*
X135279771Y-98917507D01*
X135235000Y-98926413D01*
X135234999Y-98926413D01*
X135234996Y-98926414D01*
X135069662Y-98994899D01*
X134920869Y-99094319D01*
X134920862Y-99094324D01*
X134794324Y-99220862D01*
X134794319Y-99220869D01*
X134694899Y-99369662D01*
X134626414Y-99534996D01*
X134626413Y-99534999D01*
X134626413Y-99535000D01*
X134621349Y-99560458D01*
X134591500Y-99710518D01*
X134591500Y-99849764D01*
X134571498Y-99917885D01*
X134517842Y-99964378D01*
X134447568Y-99974482D01*
X134382988Y-99944988D01*
X134376405Y-99938859D01*
X133787547Y-99350001D01*
X133783846Y-99346140D01*
X133466497Y-99000633D01*
X133159867Y-98666796D01*
X133156336Y-98662785D01*
X133112268Y-98610518D01*
X132561752Y-97957571D01*
X132558397Y-97953417D01*
X132214901Y-97509028D01*
X132189068Y-97442901D01*
X132203086Y-97373302D01*
X132252508Y-97322331D01*
X132290012Y-97308394D01*
X132295470Y-97307308D01*
X132465000Y-97273587D01*
X132630336Y-97205102D01*
X132779135Y-97105678D01*
X132905678Y-96979135D01*
X133005102Y-96830336D01*
X133073587Y-96665000D01*
X133108500Y-96489479D01*
X133108500Y-96310521D01*
X133073587Y-96135000D01*
X133005102Y-95969664D01*
X132905678Y-95820865D01*
X132779135Y-95694322D01*
X132630336Y-95594898D01*
X132513429Y-95546473D01*
X132465003Y-95526414D01*
X132465001Y-95526413D01*
X132465000Y-95526413D01*
X132376645Y-95508838D01*
X132289481Y-95491500D01*
X132289479Y-95491500D01*
X132110521Y-95491500D01*
X132110518Y-95491500D01*
X131979771Y-95517507D01*
X131935000Y-95526413D01*
X131934999Y-95526413D01*
X131934996Y-95526414D01*
X131769662Y-95594899D01*
X131620869Y-95694319D01*
X131620862Y-95694324D01*
X131494324Y-95820862D01*
X131494319Y-95820869D01*
X131394897Y-95969664D01*
X131394895Y-95969668D01*
X131386380Y-95990225D01*
X131341830Y-96045505D01*
X131274466Y-96067923D01*
X131205675Y-96050362D01*
X131164107Y-96010328D01*
X131143972Y-95979130D01*
X130955270Y-95686745D01*
X130952495Y-95682239D01*
X130734361Y-95310518D01*
X134291500Y-95310518D01*
X134291500Y-95489481D01*
X134298847Y-95526414D01*
X134320176Y-95633646D01*
X134326414Y-95665003D01*
X134343263Y-95705680D01*
X134394898Y-95830336D01*
X134494322Y-95979135D01*
X134620865Y-96105678D01*
X134769664Y-96205102D01*
X134935000Y-96273587D01*
X135110521Y-96308500D01*
X135110522Y-96308500D01*
X135289478Y-96308500D01*
X135289479Y-96308500D01*
X135465000Y-96273587D01*
X135630336Y-96205102D01*
X135779135Y-96105678D01*
X135905678Y-95979135D01*
X136005102Y-95830336D01*
X136073587Y-95665000D01*
X136108500Y-95489479D01*
X136108500Y-95310521D01*
X136073587Y-95135000D01*
X136005102Y-94969664D01*
X135905678Y-94820865D01*
X135779135Y-94694322D01*
X135630336Y-94594898D01*
X135513429Y-94546473D01*
X135465003Y-94526414D01*
X135465001Y-94526413D01*
X135465000Y-94526413D01*
X135376645Y-94508838D01*
X135289481Y-94491500D01*
X135289479Y-94491500D01*
X135110521Y-94491500D01*
X135110518Y-94491500D01*
X134979771Y-94517507D01*
X134935000Y-94526413D01*
X134934999Y-94526413D01*
X134934996Y-94526414D01*
X134803902Y-94580716D01*
X134780246Y-94590515D01*
X134769662Y-94594899D01*
X134620869Y-94694319D01*
X134620862Y-94694324D01*
X134494324Y-94820862D01*
X134494319Y-94820869D01*
X134412092Y-94943932D01*
X134394898Y-94969664D01*
X134392384Y-94975733D01*
X134326414Y-95134996D01*
X134291500Y-95310518D01*
X130734361Y-95310518D01*
X130485598Y-94886604D01*
X130483036Y-94882017D01*
X130050350Y-94067327D01*
X130047951Y-94062569D01*
X130005783Y-93974322D01*
X129650248Y-93230284D01*
X129648069Y-93225464D01*
X129286029Y-92377006D01*
X129284038Y-92372049D01*
X129144783Y-92003049D01*
X128958354Y-91509045D01*
X128956574Y-91504006D01*
X128793911Y-91010518D01*
X138591500Y-91010518D01*
X138591500Y-91189481D01*
X138596291Y-91213566D01*
X138626413Y-91365000D01*
X138694898Y-91530336D01*
X138794322Y-91679135D01*
X138920865Y-91805678D01*
X139069664Y-91905102D01*
X139235000Y-91973587D01*
X139410521Y-92008500D01*
X139410522Y-92008500D01*
X139589478Y-92008500D01*
X139589479Y-92008500D01*
X139765000Y-91973587D01*
X139930336Y-91905102D01*
X140079135Y-91805678D01*
X140205678Y-91679135D01*
X140305102Y-91530336D01*
X140373587Y-91365000D01*
X140408500Y-91189479D01*
X140408500Y-91010521D01*
X140373587Y-90835000D01*
X140305102Y-90669664D01*
X140205678Y-90520865D01*
X140079135Y-90394322D01*
X139930336Y-90294898D01*
X139813429Y-90246473D01*
X139765003Y-90226414D01*
X139765001Y-90226413D01*
X139765000Y-90226413D01*
X139675015Y-90208514D01*
X139589481Y-90191500D01*
X139589479Y-90191500D01*
X139410521Y-90191500D01*
X139410518Y-90191500D01*
X139279771Y-90217507D01*
X139235000Y-90226413D01*
X139234999Y-90226413D01*
X139234996Y-90226414D01*
X139069662Y-90294899D01*
X138920869Y-90394319D01*
X138920862Y-90394324D01*
X138794324Y-90520862D01*
X138794319Y-90520869D01*
X138694899Y-90669662D01*
X138626414Y-90834996D01*
X138591500Y-91010518D01*
X128793911Y-91010518D01*
X128667808Y-90627948D01*
X128666246Y-90622845D01*
X128633067Y-90505678D01*
X128414922Y-89735326D01*
X128413578Y-89730164D01*
X128408906Y-89710522D01*
X128200145Y-88832764D01*
X128199022Y-88827550D01*
X128023872Y-87921919D01*
X128022968Y-87916647D01*
X127969519Y-87559586D01*
X127886405Y-87004357D01*
X127885735Y-86999121D01*
X127788016Y-86081869D01*
X127787563Y-86076551D01*
X127785952Y-86051295D01*
X127728861Y-85155991D01*
X127728635Y-85150657D01*
X127709056Y-84228417D01*
X127709056Y-84223142D01*
X127728635Y-83300891D01*
X127728862Y-83295558D01*
X127787564Y-82374993D01*
X127788017Y-82369678D01*
X127885736Y-81452432D01*
X127886404Y-81447208D01*
X128022968Y-80534908D01*
X128023872Y-80529640D01*
X128127125Y-79995759D01*
X128199027Y-79623985D01*
X128200143Y-79618805D01*
X128413584Y-78721369D01*
X128414919Y-78716245D01*
X128467094Y-78531994D01*
X136886008Y-78531994D01*
X136886008Y-78531995D01*
X137094299Y-78740286D01*
X137094318Y-78740303D01*
X137141697Y-78778483D01*
X137274575Y-78839166D01*
X137274574Y-78839166D01*
X137419166Y-78859955D01*
X137563759Y-78839166D01*
X137696640Y-78778481D01*
X137744011Y-78740306D01*
X137744024Y-78740294D01*
X137810904Y-78673414D01*
X137277747Y-78140257D01*
X137277746Y-78140257D01*
X136886008Y-78531994D01*
X128467094Y-78531994D01*
X128666253Y-77828690D01*
X128667800Y-77823637D01*
X128728454Y-77639626D01*
X136198837Y-77639626D01*
X136219626Y-77784218D01*
X136280309Y-77917095D01*
X136318489Y-77964474D01*
X136318506Y-77964493D01*
X136526797Y-78172784D01*
X136526798Y-78172784D01*
X136918536Y-77781046D01*
X136385378Y-77247888D01*
X136385377Y-77247888D01*
X136318499Y-77314766D01*
X136318485Y-77314781D01*
X136280311Y-77362152D01*
X136219626Y-77495033D01*
X136198837Y-77639626D01*
X128728454Y-77639626D01*
X128956585Y-76947520D01*
X128958356Y-76942510D01*
X128980287Y-76884398D01*
X129284046Y-76079488D01*
X129286023Y-76074569D01*
X129420796Y-75758722D01*
X130173783Y-75758722D01*
X130194592Y-75903456D01*
X130255335Y-76036465D01*
X130255336Y-76036466D01*
X130255337Y-76036468D01*
X130293548Y-76083885D01*
X130293570Y-76083909D01*
X131635115Y-77425454D01*
X131635127Y-77425465D01*
X131635132Y-77425470D01*
X131635135Y-77425473D01*
X131635139Y-77425476D01*
X131682556Y-77463687D01*
X131682560Y-77463690D01*
X131815569Y-77524433D01*
X131960303Y-77545242D01*
X132105038Y-77524433D01*
X132238046Y-77463690D01*
X132285475Y-77425470D01*
X133238143Y-76472802D01*
X133276363Y-76425373D01*
X133337106Y-76292365D01*
X133357915Y-76147630D01*
X133337106Y-76002896D01*
X133276363Y-75869887D01*
X133276360Y-75869883D01*
X133238149Y-75822466D01*
X133238127Y-75822442D01*
X131896582Y-74480897D01*
X131896558Y-74480875D01*
X131849141Y-74442664D01*
X131849139Y-74442663D01*
X131849138Y-74442662D01*
X131716129Y-74381919D01*
X131571395Y-74361110D01*
X131571394Y-74361110D01*
X131537793Y-74365941D01*
X131426660Y-74381919D01*
X131293652Y-74442662D01*
X131293650Y-74442663D01*
X131246226Y-74480879D01*
X131246207Y-74480896D01*
X130293569Y-75433534D01*
X130293552Y-75433553D01*
X130255336Y-75480977D01*
X130255335Y-75480978D01*
X130255335Y-75480979D01*
X130194592Y-75613987D01*
X130173783Y-75758722D01*
X129420796Y-75758722D01*
X129648077Y-75226077D01*
X129650240Y-75221293D01*
X130047969Y-74388953D01*
X130050340Y-74384251D01*
X130483047Y-73569521D01*
X130485598Y-73564955D01*
X130952507Y-72769298D01*
X130955256Y-72764834D01*
X131455487Y-71989754D01*
X131458438Y-71985386D01*
X131991122Y-71232221D01*
X131994246Y-71227997D01*
X132558421Y-70498111D01*
X132561733Y-70494010D01*
X133156360Y-69788746D01*
X133159846Y-69784786D01*
X133783869Y-69105394D01*
X133787523Y-69101582D01*
X134278587Y-68610518D01*
X159391500Y-68610518D01*
X159391500Y-68610521D01*
X159391500Y-68789479D01*
X159425717Y-68961503D01*
X159426414Y-68965003D01*
X159446473Y-69013429D01*
X159494898Y-69130336D01*
X159594322Y-69279135D01*
X159720865Y-69405678D01*
X159869664Y-69505102D01*
X160035000Y-69573587D01*
X160210521Y-69608500D01*
X160210522Y-69608500D01*
X160389478Y-69608500D01*
X160389479Y-69608500D01*
X160565000Y-69573587D01*
X160730336Y-69505102D01*
X160879135Y-69405678D01*
X161005678Y-69279135D01*
X161105102Y-69130336D01*
X161173587Y-68965000D01*
X161208500Y-68789479D01*
X161208500Y-68610521D01*
X161173587Y-68435000D01*
X161105102Y-68269664D01*
X161005678Y-68120865D01*
X160879135Y-67994322D01*
X160730336Y-67894898D01*
X160613429Y-67846473D01*
X160565003Y-67826414D01*
X160565001Y-67826413D01*
X160565000Y-67826413D01*
X160476645Y-67808838D01*
X160389481Y-67791500D01*
X160389479Y-67791500D01*
X160210521Y-67791500D01*
X160210518Y-67791500D01*
X160079771Y-67817507D01*
X160035000Y-67826413D01*
X160034999Y-67826413D01*
X160034996Y-67826414D01*
X159869662Y-67894899D01*
X159720869Y-67994319D01*
X159720862Y-67994324D01*
X159594324Y-68120862D01*
X159594319Y-68120869D01*
X159494899Y-68269662D01*
X159426414Y-68434996D01*
X159426413Y-68434999D01*
X159426413Y-68435000D01*
X159423941Y-68447430D01*
X159391500Y-68610518D01*
X134278587Y-68610518D01*
X134439802Y-68449303D01*
X134443614Y-68445649D01*
X135123006Y-67821626D01*
X135126966Y-67818140D01*
X135832230Y-67223513D01*
X135836362Y-67220178D01*
X135871043Y-67193371D01*
X136416961Y-66771395D01*
X139161110Y-66771395D01*
X139181919Y-66916129D01*
X139242662Y-67049138D01*
X139242663Y-67049139D01*
X139242664Y-67049141D01*
X139280875Y-67096558D01*
X139280897Y-67096582D01*
X140622442Y-68438127D01*
X140622454Y-68438138D01*
X140622459Y-68438143D01*
X140622462Y-68438146D01*
X140622466Y-68438149D01*
X140633983Y-68447430D01*
X140669887Y-68476363D01*
X140802896Y-68537106D01*
X140947630Y-68557915D01*
X141092365Y-68537106D01*
X141225373Y-68476363D01*
X141272802Y-68438143D01*
X142225470Y-67485475D01*
X142263690Y-67438046D01*
X142324433Y-67305038D01*
X142345242Y-67160303D01*
X142324433Y-67015569D01*
X142263690Y-66882560D01*
X142225470Y-66835132D01*
X142225465Y-66835127D01*
X142225454Y-66835115D01*
X140883909Y-65493570D01*
X140883885Y-65493548D01*
X140836468Y-65455337D01*
X140836466Y-65455336D01*
X140836465Y-65455335D01*
X140703456Y-65394592D01*
X140558722Y-65373783D01*
X140558721Y-65373783D01*
X140486354Y-65384187D01*
X140413987Y-65394592D01*
X140280979Y-65455335D01*
X140280977Y-65455336D01*
X140233553Y-65493552D01*
X140233534Y-65493569D01*
X139280896Y-66446207D01*
X139280879Y-66446226D01*
X139242663Y-66493650D01*
X139242662Y-66493651D01*
X139242662Y-66493652D01*
X139181919Y-66626660D01*
X139161110Y-66771395D01*
X136416961Y-66771395D01*
X136566224Y-66656020D01*
X136570441Y-66652903D01*
X137323606Y-66120218D01*
X137327974Y-66117267D01*
X138103054Y-65617036D01*
X138107518Y-65614287D01*
X138903175Y-65147378D01*
X138907741Y-65144827D01*
X139722471Y-64712120D01*
X139727173Y-64709749D01*
X140559513Y-64312020D01*
X140564297Y-64309857D01*
X141412789Y-63947803D01*
X141417708Y-63945826D01*
X142280749Y-63620129D01*
X142285740Y-63618365D01*
X143161857Y-63329580D01*
X143166910Y-63328033D01*
X144054465Y-63076699D01*
X144059589Y-63075364D01*
X144957025Y-62861923D01*
X144962205Y-62860807D01*
X145867863Y-62685651D01*
X145873132Y-62684748D01*
X146785428Y-62548184D01*
X146790652Y-62547516D01*
X147707914Y-62449795D01*
X147713213Y-62449344D01*
X148621483Y-62391426D01*
X148690737Y-62407053D01*
G37*
%TD.AperFunction*%
%TA.AperFunction,Conductor*%
G36*
X140793675Y-94439222D02*
G01*
X140850511Y-94481769D01*
X140875322Y-94548289D01*
X140873223Y-94581855D01*
X140871500Y-94590515D01*
X140871500Y-94769481D01*
X140883589Y-94830255D01*
X140881680Y-94851576D01*
X140884728Y-94872769D01*
X140878579Y-94886230D01*
X140877261Y-94900969D01*
X140864127Y-94917876D01*
X140855234Y-94937349D01*
X140842786Y-94945348D01*
X140833707Y-94957037D01*
X140813516Y-94964159D01*
X140795508Y-94975733D01*
X140770527Y-94979324D01*
X140766754Y-94980656D01*
X140760010Y-94980837D01*
X140619708Y-94980837D01*
X140551587Y-94960835D01*
X140530613Y-94943932D01*
X140446801Y-94860120D01*
X140412775Y-94797808D01*
X140417840Y-94726993D01*
X140446799Y-94681932D01*
X140660550Y-94468181D01*
X140722860Y-94434157D01*
X140793675Y-94439222D01*
G37*
%TD.AperFunction*%
%TA.AperFunction,Conductor*%
G36*
X142116012Y-81125338D02*
G01*
X142122595Y-81131467D01*
X142301195Y-81310067D01*
X142335221Y-81372379D01*
X142338100Y-81399162D01*
X142338100Y-85297558D01*
X142331761Y-85319145D01*
X142330156Y-85341590D01*
X142321954Y-85352546D01*
X142318098Y-85365679D01*
X142301092Y-85380414D01*
X142287609Y-85398426D01*
X142274786Y-85403208D01*
X142264442Y-85412172D01*
X142242169Y-85415374D01*
X142221089Y-85423237D01*
X142207716Y-85420328D01*
X142194168Y-85422276D01*
X142173701Y-85412928D01*
X142151715Y-85408146D01*
X142133701Y-85394660D01*
X142129588Y-85392782D01*
X142123005Y-85386653D01*
X141944405Y-85208053D01*
X141910379Y-85145741D01*
X141907500Y-85118958D01*
X141907500Y-81220562D01*
X141927502Y-81152441D01*
X141981158Y-81105948D01*
X142051432Y-81095844D01*
X142116012Y-81125338D01*
G37*
%TD.AperFunction*%
%TA.AperFunction,Conductor*%
G36*
X147320853Y-79630743D02*
G01*
X147341826Y-79647645D01*
X147443604Y-79749423D01*
X147592403Y-79848847D01*
X147757739Y-79917332D01*
X147933260Y-79952245D01*
X147933261Y-79952245D01*
X148112217Y-79952245D01*
X148112218Y-79952245D01*
X148144216Y-79945880D01*
X148214930Y-79952206D01*
X148270998Y-79995759D01*
X148294619Y-80062711D01*
X148278294Y-80131805D01*
X148257895Y-80158553D01*
X143722595Y-84693854D01*
X143660283Y-84727880D01*
X143589468Y-84722815D01*
X143532632Y-84680268D01*
X143507821Y-84613748D01*
X143507500Y-84604759D01*
X143507500Y-81815481D01*
X143527502Y-81747360D01*
X143581158Y-81700867D01*
X143633500Y-81689481D01*
X143979900Y-81689481D01*
X143979902Y-81689481D01*
X144128611Y-81649634D01*
X144261939Y-81572657D01*
X144370801Y-81463795D01*
X144430326Y-81404270D01*
X144430328Y-81404266D01*
X146186952Y-79647645D01*
X146249264Y-79613620D01*
X146276047Y-79610741D01*
X147252732Y-79610741D01*
X147320853Y-79630743D01*
G37*
%TD.AperFunction*%
%TA.AperFunction,Conductor*%
G36*
X158311654Y-75111808D02*
G01*
X158332623Y-75128706D01*
X158715639Y-75511722D01*
X158856797Y-75614279D01*
X159012261Y-75693493D01*
X159178204Y-75747410D01*
X159178206Y-75747410D01*
X159183015Y-75748565D01*
X159182626Y-75750182D01*
X159240217Y-75777462D01*
X159277762Y-75837719D01*
X159278941Y-75843721D01*
X159279126Y-75843678D01*
X159321682Y-76023230D01*
X159321685Y-76023239D01*
X159401204Y-76181580D01*
X159467113Y-76262487D01*
X159729813Y-76525187D01*
X160269971Y-75985029D01*
X160296856Y-76085364D01*
X160352809Y-76182276D01*
X160431937Y-76261404D01*
X160528849Y-76317357D01*
X160629181Y-76344240D01*
X160089024Y-76884398D01*
X160351725Y-77147099D01*
X160432632Y-77213008D01*
X160590973Y-77292527D01*
X160590982Y-77292530D01*
X160763389Y-77333393D01*
X160763394Y-77333394D01*
X160940590Y-77333394D01*
X160940594Y-77333393D01*
X161113001Y-77292530D01*
X161113006Y-77292529D01*
X161166059Y-77265886D01*
X161235911Y-77253188D01*
X161301539Y-77280272D01*
X161342107Y-77338536D01*
X161348607Y-77378484D01*
X161348607Y-77948240D01*
X161328605Y-78016361D01*
X161311702Y-78037335D01*
X156249954Y-83099083D01*
X156187642Y-83133109D01*
X156116827Y-83128044D01*
X156071764Y-83099083D01*
X152132427Y-79159746D01*
X152098401Y-79097434D01*
X152103466Y-79026619D01*
X152146013Y-78969783D01*
X152196938Y-78947073D01*
X152315002Y-78923589D01*
X152480338Y-78855104D01*
X152629137Y-78755680D01*
X152755680Y-78629137D01*
X152855104Y-78480338D01*
X152923589Y-78315002D01*
X152958502Y-78139481D01*
X152958502Y-78020582D01*
X152978504Y-77952461D01*
X152995407Y-77931487D01*
X155798184Y-75128711D01*
X155860496Y-75094685D01*
X155887279Y-75091806D01*
X158243533Y-75091806D01*
X158311654Y-75111808D01*
G37*
%TD.AperFunction*%
%TA.AperFunction,Conductor*%
G36*
X141825418Y-78848005D02*
G01*
X141962362Y-78884700D01*
X144991925Y-78884700D01*
X145060046Y-78904702D01*
X145106539Y-78958358D01*
X145116643Y-79028632D01*
X145087149Y-79093212D01*
X145081020Y-79099795D01*
X143697640Y-80483176D01*
X143635328Y-80517201D01*
X143608545Y-80520081D01*
X143217179Y-80520081D01*
X143149058Y-80500079D01*
X143128084Y-80483176D01*
X141703716Y-79058808D01*
X141669690Y-78996496D01*
X141674755Y-78925681D01*
X141717302Y-78868845D01*
X141783822Y-78844034D01*
X141825418Y-78848005D01*
G37*
%TD.AperFunction*%
%TA.AperFunction,Conductor*%
G36*
X188741621Y-35220502D02*
G01*
X188788114Y-35274158D01*
X188799500Y-35326500D01*
X188799500Y-45539882D01*
X188830023Y-45613573D01*
X188830026Y-45613577D01*
X188886422Y-45669973D01*
X188886426Y-45669976D01*
X188960118Y-45700500D01*
X189039882Y-45700500D01*
X199173500Y-45700500D01*
X199241621Y-45720502D01*
X199288114Y-45774158D01*
X199299500Y-45826500D01*
X199299500Y-124173500D01*
X199279498Y-124241621D01*
X199225842Y-124288114D01*
X199173500Y-124299500D01*
X188960118Y-124299500D01*
X188886426Y-124330023D01*
X188886422Y-124330026D01*
X188830026Y-124386422D01*
X188830023Y-124386426D01*
X188799500Y-124460117D01*
X188799500Y-134673500D01*
X188779498Y-134741621D01*
X188725842Y-134788114D01*
X188673500Y-134799500D01*
X110326500Y-134799500D01*
X110258379Y-134779498D01*
X110211886Y-134725842D01*
X110200500Y-134673500D01*
X110200500Y-124460117D01*
X110169976Y-124386426D01*
X110169973Y-124386422D01*
X110113577Y-124330026D01*
X110113573Y-124330023D01*
X110039882Y-124299500D01*
X99826500Y-124299500D01*
X99758379Y-124279498D01*
X99711886Y-124225842D01*
X99700500Y-124173500D01*
X99700500Y-84824024D01*
X107366500Y-84824024D01*
X107366500Y-85175975D01*
X107405906Y-85525711D01*
X107484223Y-85868837D01*
X107600455Y-86201010D01*
X107600466Y-86201037D01*
X107753163Y-86518116D01*
X107753168Y-86518125D01*
X107940414Y-86816124D01*
X108159844Y-87091283D01*
X108408716Y-87340155D01*
X108683875Y-87559585D01*
X108981874Y-87746831D01*
X108981879Y-87746834D01*
X109298972Y-87899538D01*
X109298988Y-87899543D01*
X109298989Y-87899544D01*
X109631162Y-88015776D01*
X109631165Y-88015776D01*
X109631169Y-88015778D01*
X109974292Y-88094094D01*
X110222284Y-88122036D01*
X110324024Y-88133500D01*
X110324026Y-88133500D01*
X110675976Y-88133500D01*
X110764795Y-88123492D01*
X111025708Y-88094094D01*
X111368831Y-88015778D01*
X111701028Y-87899538D01*
X112018121Y-87746834D01*
X112316123Y-87559586D01*
X112385812Y-87504011D01*
X112591283Y-87340155D01*
X112840155Y-87091283D01*
X113059585Y-86816124D01*
X113082830Y-86779130D01*
X113246834Y-86518121D01*
X113399538Y-86201028D01*
X113515778Y-85868831D01*
X113594094Y-85525708D01*
X113633500Y-85175974D01*
X113633500Y-84824026D01*
X113632080Y-84811426D01*
X113622036Y-84722284D01*
X113594094Y-84474292D01*
X113537372Y-84225780D01*
X114114154Y-84225780D01*
X114133536Y-85397877D01*
X114191660Y-86568671D01*
X114288464Y-87736938D01*
X114388313Y-88595758D01*
X114422697Y-88891500D01*
X114423843Y-88901351D01*
X114597639Y-90060608D01*
X114809684Y-91213566D01*
X115059722Y-92358828D01*
X115347488Y-93495187D01*
X115672681Y-94621456D01*
X116034924Y-95736327D01*
X116433829Y-96838604D01*
X116433834Y-96838617D01*
X116868970Y-97927116D01*
X117339858Y-99000633D01*
X117845983Y-100057993D01*
X118078770Y-100505675D01*
X118386792Y-101098045D01*
X118961687Y-102119635D01*
X119570057Y-103121679D01*
X120101424Y-103934996D01*
X120211214Y-104103042D01*
X120884472Y-105062677D01*
X121589090Y-105999526D01*
X122137559Y-106680658D01*
X122324301Y-106912569D01*
X123089291Y-107800796D01*
X123883239Y-108663253D01*
X124705267Y-109498987D01*
X125554481Y-110307087D01*
X126429917Y-111086639D01*
X126429935Y-111086655D01*
X127330695Y-111836860D01*
X128255766Y-112556871D01*
X129204137Y-113245904D01*
X130174772Y-113903203D01*
X130545145Y-114136534D01*
X131166622Y-114528058D01*
X132178545Y-115119753D01*
X132178562Y-115119762D01*
X133209527Y-115677692D01*
X134258375Y-116201230D01*
X135323959Y-116689803D01*
X135323974Y-116689809D01*
X135323980Y-116689812D01*
X136405106Y-117142875D01*
X136922067Y-117339684D01*
X137500659Y-117559958D01*
X138218504Y-117806394D01*
X138609404Y-117940590D01*
X139730112Y-118284351D01*
X140352647Y-118452998D01*
X140861577Y-118590870D01*
X142002561Y-118859813D01*
X143151813Y-119090883D01*
X144308077Y-119283830D01*
X145470087Y-119438441D01*
X146636575Y-119554547D01*
X146852151Y-119568825D01*
X146918799Y-119593286D01*
X146961644Y-119649897D01*
X146967082Y-119720685D01*
X146933385Y-119783175D01*
X146923765Y-119791941D01*
X146920868Y-119794318D01*
X146794324Y-119920862D01*
X146794319Y-119920869D01*
X146694899Y-120069662D01*
X146626414Y-120234996D01*
X146591500Y-120410518D01*
X146591500Y-120410521D01*
X146591500Y-120589479D01*
X146626413Y-120765000D01*
X146694898Y-120930336D01*
X146794322Y-121079135D01*
X146920865Y-121205678D01*
X147069664Y-121305102D01*
X147206628Y-121361835D01*
X147234997Y-121373586D01*
X147234998Y-121373586D01*
X147235000Y-121373587D01*
X147395236Y-121405459D01*
X147458145Y-121438366D01*
X147493277Y-121500061D01*
X147489477Y-121570956D01*
X147449216Y-121627547D01*
X147408713Y-121659847D01*
X147159844Y-121908716D01*
X146940414Y-122183875D01*
X146753168Y-122481874D01*
X146753163Y-122481883D01*
X146600466Y-122798962D01*
X146600455Y-122798989D01*
X146484223Y-123131162D01*
X146405906Y-123474288D01*
X146366500Y-123824024D01*
X146366500Y-124175975D01*
X146405906Y-124525711D01*
X146484223Y-124868837D01*
X146600455Y-125201010D01*
X146600466Y-125201037D01*
X146753163Y-125518116D01*
X146753168Y-125518125D01*
X146940414Y-125816124D01*
X147159844Y-126091283D01*
X147408716Y-126340155D01*
X147683875Y-126559585D01*
X147683877Y-126559586D01*
X147981879Y-126746834D01*
X148298972Y-126899538D01*
X148298988Y-126899543D01*
X148298989Y-126899544D01*
X148631162Y-127015776D01*
X148631165Y-127015776D01*
X148631169Y-127015778D01*
X148974292Y-127094094D01*
X149222284Y-127122036D01*
X149324024Y-127133500D01*
X149324026Y-127133500D01*
X149675976Y-127133500D01*
X149764795Y-127123492D01*
X150025708Y-127094094D01*
X150368831Y-127015778D01*
X150701028Y-126899538D01*
X151018121Y-126746834D01*
X151316123Y-126559586D01*
X151371155Y-126515699D01*
X151591283Y-126340155D01*
X151840155Y-126091283D01*
X152059585Y-125816124D01*
X152246831Y-125518125D01*
X152246834Y-125518121D01*
X152399538Y-125201028D01*
X152515778Y-124868831D01*
X152594094Y-124525708D01*
X152633500Y-124175974D01*
X152633500Y-123824026D01*
X152594094Y-123474292D01*
X152515778Y-123131169D01*
X152399538Y-122798972D01*
X152246834Y-122481879D01*
X152059586Y-122183877D01*
X152059585Y-122183875D01*
X151840155Y-121908716D01*
X151591283Y-121659844D01*
X151316124Y-121440414D01*
X151018125Y-121253168D01*
X151018116Y-121253163D01*
X150701037Y-121100466D01*
X150701032Y-121100464D01*
X150701028Y-121100462D01*
X150701022Y-121100459D01*
X150701010Y-121100455D01*
X150368837Y-120984223D01*
X150025704Y-120905904D01*
X149997593Y-120902737D01*
X149932141Y-120875233D01*
X149891949Y-120816708D01*
X149889778Y-120745745D01*
X149926318Y-120684873D01*
X149942385Y-120673546D01*
X149941821Y-120672702D01*
X149946968Y-120669263D01*
X150079389Y-120580783D01*
X150192003Y-120468169D01*
X150280483Y-120335748D01*
X150341430Y-120188611D01*
X150372500Y-120032410D01*
X150372500Y-120032408D01*
X150373027Y-120027057D01*
X150399603Y-119961222D01*
X150457553Y-119920207D01*
X150494253Y-119913464D01*
X151328034Y-119885882D01*
X152501914Y-119808130D01*
X153672581Y-119691608D01*
X154838755Y-119536443D01*
X155999162Y-119342805D01*
X157152532Y-119110907D01*
X158297604Y-118841000D01*
X159220925Y-118590868D01*
X159433122Y-118533383D01*
X160557845Y-118188390D01*
X160557843Y-118188390D01*
X160557855Y-118188387D01*
X161670564Y-117806394D01*
X162770034Y-117387820D01*
X162770032Y-117387820D01*
X162770042Y-117387817D01*
X163438772Y-117107574D01*
X163855063Y-116933122D01*
X164924465Y-116442798D01*
X165977071Y-115917385D01*
X167011730Y-115357456D01*
X168027309Y-114763623D01*
X169022700Y-114136537D01*
X169996812Y-113476883D01*
X170948582Y-112785382D01*
X171876967Y-112062790D01*
X172780954Y-111309898D01*
X173659554Y-110527529D01*
X174511805Y-109716538D01*
X175336776Y-108877812D01*
X176133565Y-108012268D01*
X176901301Y-107120853D01*
X177639144Y-106204542D01*
X178346287Y-105264335D01*
X179021957Y-104301263D01*
X179665415Y-103316377D01*
X180275958Y-102310754D01*
X180852917Y-101285495D01*
X181395663Y-100241720D01*
X181903601Y-99180571D01*
X182376176Y-98103208D01*
X182812872Y-97010809D01*
X183213210Y-95904569D01*
X183576754Y-94785696D01*
X183903105Y-93655416D01*
X184127408Y-92769664D01*
X184191906Y-92514968D01*
X184442840Y-91365603D01*
X184442844Y-91365585D01*
X184655641Y-90208539D01*
X184658196Y-90191500D01*
X184730304Y-89710521D01*
X184830066Y-89045090D01*
X184965928Y-87876509D01*
X185063079Y-86704076D01*
X185121412Y-85529071D01*
X185125549Y-85278874D01*
X185146674Y-85211097D01*
X185201091Y-85165498D01*
X185271522Y-85156557D01*
X185335606Y-85187114D01*
X185372997Y-85247466D01*
X185376739Y-85266853D01*
X185405906Y-85525711D01*
X185484223Y-85868837D01*
X185600455Y-86201010D01*
X185600466Y-86201037D01*
X185753163Y-86518116D01*
X185753168Y-86518125D01*
X185940414Y-86816124D01*
X186159844Y-87091283D01*
X186408716Y-87340155D01*
X186683875Y-87559585D01*
X186981874Y-87746831D01*
X186981879Y-87746834D01*
X187298972Y-87899538D01*
X187298988Y-87899543D01*
X187298989Y-87899544D01*
X187631162Y-88015776D01*
X187631165Y-88015776D01*
X187631169Y-88015778D01*
X187974292Y-88094094D01*
X188222284Y-88122036D01*
X188324024Y-88133500D01*
X188324026Y-88133500D01*
X188675976Y-88133500D01*
X188764795Y-88123492D01*
X189025708Y-88094094D01*
X189368831Y-88015778D01*
X189701028Y-87899538D01*
X190018121Y-87746834D01*
X190316123Y-87559586D01*
X190385812Y-87504011D01*
X190591283Y-87340155D01*
X190840155Y-87091283D01*
X191059585Y-86816124D01*
X191082830Y-86779130D01*
X191246834Y-86518121D01*
X191399538Y-86201028D01*
X191515778Y-85868831D01*
X191594094Y-85525708D01*
X191633500Y-85175974D01*
X191633500Y-84824026D01*
X191632080Y-84811426D01*
X191622036Y-84722284D01*
X191594094Y-84474292D01*
X191515778Y-84131169D01*
X191399538Y-83798972D01*
X191246834Y-83481879D01*
X191059586Y-83183877D01*
X191059585Y-83183875D01*
X190840155Y-82908716D01*
X190591283Y-82659844D01*
X190316124Y-82440414D01*
X190018125Y-82253168D01*
X190018116Y-82253163D01*
X189701037Y-82100466D01*
X189701032Y-82100464D01*
X189701028Y-82100462D01*
X189701022Y-82100459D01*
X189701010Y-82100455D01*
X189368837Y-81984223D01*
X189025711Y-81905906D01*
X188675976Y-81866500D01*
X188675974Y-81866500D01*
X188324026Y-81866500D01*
X188324024Y-81866500D01*
X187974288Y-81905906D01*
X187631162Y-81984223D01*
X187298989Y-82100455D01*
X187298962Y-82100466D01*
X186981883Y-82253163D01*
X186981874Y-82253168D01*
X186683875Y-82440414D01*
X186408716Y-82659844D01*
X186159844Y-82908716D01*
X185940414Y-83183875D01*
X185753168Y-83481874D01*
X185753163Y-83481883D01*
X185600466Y-83798962D01*
X185600455Y-83798989D01*
X185484223Y-84131162D01*
X185405906Y-84474288D01*
X185387629Y-84636496D01*
X185360125Y-84701949D01*
X185301601Y-84742142D01*
X185230637Y-84744313D01*
X185169765Y-84707775D01*
X185138310Y-84644126D01*
X185136439Y-84620317D01*
X185140863Y-84352780D01*
X185121412Y-83176489D01*
X185063079Y-82001484D01*
X184965928Y-80829051D01*
X184830066Y-79660470D01*
X184694419Y-78755677D01*
X184655645Y-78497045D01*
X184652573Y-78480339D01*
X184442844Y-77339975D01*
X184432486Y-77292530D01*
X184191906Y-76190591D01*
X183903109Y-75050160D01*
X183903105Y-75050144D01*
X183576754Y-73919864D01*
X183213210Y-72800991D01*
X182812872Y-71694751D01*
X182376176Y-70602352D01*
X181903601Y-69524989D01*
X181395663Y-68463840D01*
X180852917Y-67420065D01*
X180742322Y-67223538D01*
X180275961Y-66394811D01*
X180237780Y-66331924D01*
X179802066Y-65614260D01*
X179665411Y-65389176D01*
X179021960Y-64404302D01*
X179021957Y-64404297D01*
X178346287Y-63441225D01*
X177639144Y-62501018D01*
X176901301Y-61584707D01*
X176861930Y-61538994D01*
X176133553Y-60693278D01*
X175336788Y-59827761D01*
X175336787Y-59827760D01*
X175336776Y-59827748D01*
X174511805Y-58989022D01*
X173659554Y-58178031D01*
X172780954Y-57395662D01*
X171876967Y-56642770D01*
X170948582Y-55920178D01*
X170913488Y-55894681D01*
X169996810Y-55228675D01*
X169022703Y-54569025D01*
X168027308Y-53941936D01*
X167011732Y-53348105D01*
X166826043Y-53247615D01*
X165977071Y-52788175D01*
X164924465Y-52262762D01*
X163855063Y-51772438D01*
X163855060Y-51772437D01*
X163855041Y-51772428D01*
X162770042Y-51317742D01*
X161670567Y-50899167D01*
X160557845Y-50517169D01*
X159433122Y-50172176D01*
X158297609Y-49864561D01*
X157152543Y-49594655D01*
X155999171Y-49362756D01*
X154838731Y-49169113D01*
X153672578Y-49013951D01*
X152501939Y-48897432D01*
X152501924Y-48897431D01*
X152501914Y-48897430D01*
X151330515Y-48819842D01*
X151263867Y-48795382D01*
X151221022Y-48738771D01*
X151215584Y-48667983D01*
X151249281Y-48605493D01*
X151271808Y-48587431D01*
X151316123Y-48559586D01*
X151407844Y-48486441D01*
X151591283Y-48340155D01*
X151840155Y-48091283D01*
X152059585Y-47816124D01*
X152246831Y-47518125D01*
X152246834Y-47518121D01*
X152399538Y-47201028D01*
X152515778Y-46868831D01*
X152594094Y-46525708D01*
X152633500Y-46175974D01*
X152633500Y-45824026D01*
X152594094Y-45474292D01*
X152515778Y-45131169D01*
X152399538Y-44798972D01*
X152246834Y-44481879D01*
X152059586Y-44183877D01*
X152059585Y-44183875D01*
X151840155Y-43908716D01*
X151591283Y-43659844D01*
X151316124Y-43440414D01*
X151018125Y-43253168D01*
X151018116Y-43253163D01*
X150701037Y-43100466D01*
X150701032Y-43100464D01*
X150701028Y-43100462D01*
X150701022Y-43100459D01*
X150701010Y-43100455D01*
X150368837Y-42984223D01*
X150025711Y-42905906D01*
X149675976Y-42866500D01*
X149675974Y-42866500D01*
X149324026Y-42866500D01*
X149324024Y-42866500D01*
X148974288Y-42905906D01*
X148631162Y-42984223D01*
X148298989Y-43100455D01*
X148298962Y-43100466D01*
X147981883Y-43253163D01*
X147981874Y-43253168D01*
X147683875Y-43440414D01*
X147408716Y-43659844D01*
X147159844Y-43908716D01*
X146940414Y-44183875D01*
X146753168Y-44481874D01*
X146753163Y-44481883D01*
X146600466Y-44798962D01*
X146600455Y-44798989D01*
X146484223Y-45131162D01*
X146405906Y-45474288D01*
X146366500Y-45824024D01*
X146366500Y-46175975D01*
X146405906Y-46525711D01*
X146484223Y-46868837D01*
X146600455Y-47201010D01*
X146600466Y-47201037D01*
X146753163Y-47518116D01*
X146753168Y-47518125D01*
X146940414Y-47816124D01*
X147159844Y-48091283D01*
X147408716Y-48340155D01*
X147683875Y-48559585D01*
X147740796Y-48595351D01*
X147787834Y-48648530D01*
X147798654Y-48718697D01*
X147769821Y-48783575D01*
X147710489Y-48822566D01*
X147682087Y-48827762D01*
X146636575Y-48897013D01*
X146636566Y-48897013D01*
X146636549Y-48897015D01*
X145470089Y-49013118D01*
X144308100Y-49167726D01*
X143151803Y-49360678D01*
X142002549Y-49591749D01*
X140861571Y-49860691D01*
X139730112Y-50167208D01*
X138609404Y-50510969D01*
X137500655Y-50891603D01*
X136405106Y-51308684D01*
X135323980Y-51761747D01*
X134258371Y-52250332D01*
X133209523Y-52773870D01*
X132178545Y-53331806D01*
X131166622Y-53923501D01*
X130174768Y-54548359D01*
X129204138Y-55205654D01*
X128255776Y-55894681D01*
X127330694Y-56614700D01*
X126429917Y-57364920D01*
X125554481Y-58144472D01*
X124705267Y-58952572D01*
X123883239Y-59788306D01*
X123089291Y-60650763D01*
X122324301Y-61538990D01*
X121775829Y-62220126D01*
X121589090Y-62452034D01*
X121517280Y-62547511D01*
X120884469Y-63388886D01*
X120211210Y-64348523D01*
X119570057Y-65329880D01*
X118961687Y-66331924D01*
X118386792Y-67353514D01*
X117910410Y-68269664D01*
X117845983Y-68393567D01*
X117799959Y-68489717D01*
X117339854Y-69450935D01*
X116974327Y-70284254D01*
X116868970Y-70524444D01*
X116685326Y-70983833D01*
X116433829Y-71612955D01*
X116034924Y-72715232D01*
X115672681Y-73830103D01*
X115347488Y-74956372D01*
X115059722Y-76092731D01*
X114809684Y-77237993D01*
X114597639Y-78390951D01*
X114423843Y-79550208D01*
X114423841Y-79550223D01*
X114400682Y-79749420D01*
X114288464Y-80714621D01*
X114191660Y-81882888D01*
X114133536Y-83053682D01*
X114114154Y-84225780D01*
X113537372Y-84225780D01*
X113515778Y-84131169D01*
X113399538Y-83798972D01*
X113246834Y-83481879D01*
X113059586Y-83183877D01*
X113059585Y-83183875D01*
X112840155Y-82908716D01*
X112591283Y-82659844D01*
X112316124Y-82440414D01*
X112018125Y-82253168D01*
X112018116Y-82253163D01*
X111701037Y-82100466D01*
X111701032Y-82100464D01*
X111701028Y-82100462D01*
X111701022Y-82100459D01*
X111701010Y-82100455D01*
X111368837Y-81984223D01*
X111025711Y-81905906D01*
X110675976Y-81866500D01*
X110675974Y-81866500D01*
X110324026Y-81866500D01*
X110324024Y-81866500D01*
X109974288Y-81905906D01*
X109631162Y-81984223D01*
X109298989Y-82100455D01*
X109298962Y-82100466D01*
X108981883Y-82253163D01*
X108981874Y-82253168D01*
X108683875Y-82440414D01*
X108408716Y-82659844D01*
X108159844Y-82908716D01*
X107940414Y-83183875D01*
X107753168Y-83481874D01*
X107753163Y-83481883D01*
X107600466Y-83798962D01*
X107600455Y-83798989D01*
X107484223Y-84131162D01*
X107405906Y-84474288D01*
X107366500Y-84824024D01*
X99700500Y-84824024D01*
X99700500Y-45826500D01*
X99720502Y-45758379D01*
X99774158Y-45711886D01*
X99826500Y-45700500D01*
X110039882Y-45700500D01*
X110113574Y-45669976D01*
X110169976Y-45613574D01*
X110200500Y-45539882D01*
X110200500Y-35326500D01*
X110220502Y-35258379D01*
X110274158Y-35211886D01*
X110326500Y-35200500D01*
X188673500Y-35200500D01*
X188741621Y-35220502D01*
G37*
%TD.AperFunction*%
%TD*%
%TA.AperFunction,Conductor*%
%TO.N,GND*%
G36*
X148690737Y-62407053D02*
G01*
X148740550Y-62457641D01*
X148755500Y-62517171D01*
X148755500Y-62542412D01*
X148771035Y-62620510D01*
X148786570Y-62698611D01*
X148847517Y-62845748D01*
X148858329Y-62861929D01*
X148935998Y-62978170D01*
X148936003Y-62978176D01*
X149048603Y-63090776D01*
X149048609Y-63090781D01*
X149048611Y-63090783D01*
X149181032Y-63179263D01*
X149328169Y-63240210D01*
X149484370Y-63271280D01*
X149484371Y-63271280D01*
X149643629Y-63271280D01*
X149643630Y-63271280D01*
X149799831Y-63240210D01*
X149946968Y-63179263D01*
X150079389Y-63090783D01*
X150148226Y-63021944D01*
X150176716Y-63006388D01*
X150204387Y-62989421D01*
X150208770Y-62988884D01*
X150210538Y-62987920D01*
X150239982Y-62985068D01*
X150476295Y-62990064D01*
X150481576Y-62990288D01*
X151389513Y-63048105D01*
X151394784Y-63048553D01*
X152299470Y-63144855D01*
X152304709Y-63145525D01*
X153204461Y-63280135D01*
X153209702Y-63281033D01*
X154102946Y-63453713D01*
X154108151Y-63454835D01*
X154795921Y-63618354D01*
X154993198Y-63665257D01*
X154998375Y-63666604D01*
X155873717Y-63914408D01*
X155878832Y-63915974D01*
X156742869Y-64200707D01*
X156747912Y-64202489D01*
X157599053Y-64523627D01*
X157604017Y-64525621D01*
X158440789Y-64882608D01*
X158445663Y-64884811D01*
X158856088Y-65080897D01*
X159266523Y-65276987D01*
X159271283Y-65279387D01*
X159602621Y-65455335D01*
X160074757Y-65706050D01*
X160079427Y-65708658D01*
X160864100Y-66169059D01*
X160868627Y-66171846D01*
X161116683Y-66331919D01*
X161633017Y-66665114D01*
X161637449Y-66668109D01*
X161873642Y-66835139D01*
X162380223Y-67193381D01*
X162384496Y-67196541D01*
X162758358Y-67485490D01*
X163104333Y-67752886D01*
X163108486Y-67756240D01*
X163804038Y-68342618D01*
X163808021Y-68346123D01*
X164290760Y-68789477D01*
X164478067Y-68961503D01*
X164481929Y-68965204D01*
X165125233Y-69608448D01*
X165128935Y-69612310D01*
X165744360Y-70282283D01*
X165747894Y-70286298D01*
X166334326Y-70981785D01*
X166337687Y-70985947D01*
X166894077Y-71705704D01*
X166897257Y-71710005D01*
X167422591Y-72452721D01*
X167425585Y-72457150D01*
X167458584Y-72508275D01*
X167918923Y-73221494D01*
X167921728Y-73226049D01*
X168382181Y-74010648D01*
X168384790Y-74015318D01*
X168811528Y-74818753D01*
X168813936Y-74823529D01*
X169206189Y-75644354D01*
X169208392Y-75649228D01*
X169565447Y-76485947D01*
X169567442Y-76490911D01*
X169888665Y-77342044D01*
X169890447Y-77347087D01*
X170175260Y-78211097D01*
X170176826Y-78216212D01*
X170424702Y-79091505D01*
X170426050Y-79096681D01*
X170636558Y-79981724D01*
X170637684Y-79986948D01*
X170665701Y-80131805D01*
X170810437Y-80880131D01*
X170811341Y-80885403D01*
X170946026Y-81785094D01*
X170946706Y-81790400D01*
X171043084Y-82695014D01*
X171043538Y-82700344D01*
X171101435Y-83608236D01*
X171101662Y-83613580D01*
X171120973Y-84523105D01*
X171120973Y-84528455D01*
X171101662Y-85437979D01*
X171101435Y-85443323D01*
X171043538Y-86351215D01*
X171043084Y-86356545D01*
X170946706Y-87261159D01*
X170946026Y-87266465D01*
X170811341Y-88166156D01*
X170810437Y-88171428D01*
X170637685Y-89064606D01*
X170636558Y-89069835D01*
X170426050Y-89954878D01*
X170424702Y-89960054D01*
X170176826Y-90835347D01*
X170175260Y-90840462D01*
X169890447Y-91704472D01*
X169888665Y-91709515D01*
X169567442Y-92560648D01*
X169565447Y-92565612D01*
X169208392Y-93402331D01*
X169206189Y-93407205D01*
X168813936Y-94228030D01*
X168811528Y-94232806D01*
X168384790Y-95036241D01*
X168382181Y-95040911D01*
X167921728Y-95825510D01*
X167918923Y-95830065D01*
X167425587Y-96594407D01*
X167422591Y-96598838D01*
X166897257Y-97341554D01*
X166894077Y-97345855D01*
X166337687Y-98065612D01*
X166334326Y-98069774D01*
X165747894Y-98765261D01*
X165744360Y-98769276D01*
X165128935Y-99439249D01*
X165125233Y-99443111D01*
X164481929Y-100086355D01*
X164478067Y-100090056D01*
X163808037Y-100705422D01*
X163804022Y-100708955D01*
X163108495Y-101295312D01*
X163104333Y-101298673D01*
X162384510Y-101855008D01*
X162380209Y-101858188D01*
X161637449Y-102383450D01*
X161633017Y-102386445D01*
X160868641Y-102879704D01*
X160864086Y-102882509D01*
X160079427Y-103342901D01*
X160074757Y-103345509D01*
X159271291Y-103772168D01*
X159266514Y-103774576D01*
X158445663Y-104166748D01*
X158440789Y-104168951D01*
X157604017Y-104525938D01*
X157599053Y-104527932D01*
X156747912Y-104849070D01*
X156742869Y-104850852D01*
X155878832Y-105135585D01*
X155873717Y-105137151D01*
X154998375Y-105384955D01*
X154993198Y-105386302D01*
X154108163Y-105596721D01*
X154102934Y-105597848D01*
X153209718Y-105770523D01*
X153204446Y-105771426D01*
X152304742Y-105906029D01*
X152299436Y-105906708D01*
X151394813Y-106003003D01*
X151389483Y-106003456D01*
X150506507Y-106059683D01*
X150437253Y-106044051D01*
X150387444Y-105993458D01*
X150372500Y-105933938D01*
X150372500Y-105909151D01*
X150372499Y-105909147D01*
X150371485Y-105904048D01*
X150341430Y-105752949D01*
X150280483Y-105605812D01*
X150192003Y-105473391D01*
X150192001Y-105473389D01*
X150191996Y-105473383D01*
X150079396Y-105360783D01*
X150079390Y-105360778D01*
X150079389Y-105360777D01*
X149946968Y-105272297D01*
X149799831Y-105211350D01*
X149721730Y-105195815D01*
X149643632Y-105180280D01*
X149643630Y-105180280D01*
X149484370Y-105180280D01*
X149484367Y-105180280D01*
X149367219Y-105203582D01*
X149328169Y-105211350D01*
X149200263Y-105264331D01*
X149181032Y-105272297D01*
X149048609Y-105360778D01*
X149048603Y-105360783D01*
X148936003Y-105473383D01*
X148935998Y-105473389D01*
X148847517Y-105605812D01*
X148786571Y-105752947D01*
X148786570Y-105752950D01*
X148755500Y-105909147D01*
X148755500Y-105934388D01*
X148735498Y-106002509D01*
X148681842Y-106049002D01*
X148621482Y-106060133D01*
X147713228Y-106002216D01*
X147707898Y-106001762D01*
X146790693Y-105904048D01*
X146785388Y-105903369D01*
X145873132Y-105766811D01*
X145867860Y-105765907D01*
X144962229Y-105590757D01*
X144957000Y-105589630D01*
X144059615Y-105376201D01*
X144054439Y-105374853D01*
X143896409Y-105330103D01*
X143836315Y-105292297D01*
X143806200Y-105228004D01*
X143815626Y-105157636D01*
X143861599Y-105103534D01*
X143906156Y-105085291D01*
X143965000Y-105073587D01*
X144130336Y-105005102D01*
X144279135Y-104905678D01*
X144405678Y-104779135D01*
X144505102Y-104630336D01*
X144573587Y-104465000D01*
X144608500Y-104289479D01*
X144608500Y-104110521D01*
X144573587Y-103935000D01*
X144505102Y-103769664D01*
X144405678Y-103620865D01*
X144279135Y-103494322D01*
X144130336Y-103394898D01*
X144004805Y-103342901D01*
X143965003Y-103326414D01*
X143965001Y-103326413D01*
X143965000Y-103326413D01*
X143866197Y-103306760D01*
X143789481Y-103291500D01*
X143789479Y-103291500D01*
X143610521Y-103291500D01*
X143610515Y-103291500D01*
X143584748Y-103296626D01*
X143514034Y-103290298D01*
X143471072Y-103262142D01*
X140442782Y-100233852D01*
X140408756Y-100171540D01*
X140413821Y-100100725D01*
X140456368Y-100043889D01*
X140507293Y-100021178D01*
X140595122Y-100003709D01*
X140760458Y-99935224D01*
X140909257Y-99835800D01*
X141035800Y-99709257D01*
X141135224Y-99560458D01*
X141203709Y-99395122D01*
X141238622Y-99219601D01*
X141238622Y-99040643D01*
X141203709Y-98865122D01*
X141135224Y-98699786D01*
X141035800Y-98550987D01*
X140909257Y-98424444D01*
X140760458Y-98325020D01*
X140626813Y-98269662D01*
X140595125Y-98256536D01*
X140595123Y-98256535D01*
X140595122Y-98256535D01*
X140467732Y-98231195D01*
X140404824Y-98198288D01*
X140369692Y-98136593D01*
X140373189Y-98071349D01*
X140371789Y-98070925D01*
X140373581Y-98065014D01*
X140373587Y-98065000D01*
X140408500Y-97889479D01*
X140408500Y-97710521D01*
X140373587Y-97535000D01*
X140305102Y-97369664D01*
X140205678Y-97220865D01*
X140079135Y-97094322D01*
X139930336Y-96994898D01*
X139813429Y-96946473D01*
X139765003Y-96926414D01*
X139765001Y-96926413D01*
X139765000Y-96926413D01*
X139648340Y-96903208D01*
X139589481Y-96891500D01*
X139589479Y-96891500D01*
X139410521Y-96891500D01*
X139410515Y-96891500D01*
X139319844Y-96909536D01*
X139249130Y-96903208D01*
X139193063Y-96859653D01*
X139169444Y-96792701D01*
X139169263Y-96785957D01*
X139169263Y-96423212D01*
X139189265Y-96355091D01*
X139242921Y-96308598D01*
X139313195Y-96298494D01*
X139365264Y-96318446D01*
X139424369Y-96357939D01*
X139589705Y-96426424D01*
X139765226Y-96461337D01*
X139765227Y-96461337D01*
X139944183Y-96461337D01*
X139944184Y-96461337D01*
X140119705Y-96426424D01*
X140285041Y-96357939D01*
X140433840Y-96258515D01*
X140530613Y-96161742D01*
X140592925Y-96127716D01*
X140619708Y-96124837D01*
X142922466Y-96124837D01*
X142922468Y-96124837D01*
X143067947Y-96085856D01*
X143198379Y-96010551D01*
X143263524Y-95945404D01*
X143325836Y-95911380D01*
X143352620Y-95908500D01*
X143489478Y-95908500D01*
X143489479Y-95908500D01*
X143665000Y-95873587D01*
X143830336Y-95805102D01*
X143979135Y-95705678D01*
X144105678Y-95579135D01*
X144205102Y-95430336D01*
X144273587Y-95265000D01*
X144308500Y-95089479D01*
X144308500Y-94910521D01*
X144273587Y-94735000D01*
X144205102Y-94569664D01*
X144105678Y-94420865D01*
X143979135Y-94294322D01*
X143830336Y-94194898D01*
X143713429Y-94146473D01*
X143665003Y-94126414D01*
X143665001Y-94126413D01*
X143665000Y-94126413D01*
X143576645Y-94108838D01*
X143489481Y-94091500D01*
X143489479Y-94091500D01*
X143310521Y-94091500D01*
X143310518Y-94091500D01*
X143179771Y-94117507D01*
X143135000Y-94126413D01*
X143134999Y-94126413D01*
X143134996Y-94126414D01*
X142969662Y-94194899D01*
X142820869Y-94294319D01*
X142820866Y-94294321D01*
X142800575Y-94314612D01*
X142738262Y-94348636D01*
X142667446Y-94343570D01*
X142610611Y-94301022D01*
X142595073Y-94273734D01*
X142585104Y-94249669D01*
X142585102Y-94249664D01*
X142548509Y-94194899D01*
X142485678Y-94100865D01*
X142359135Y-93974322D01*
X142210336Y-93874898D01*
X142063447Y-93814054D01*
X142008167Y-93769505D01*
X141985746Y-93702141D01*
X142002621Y-93636026D01*
X142002185Y-93635793D01*
X142003135Y-93634015D01*
X142003305Y-93633350D01*
X142004528Y-93631408D01*
X142005100Y-93630339D01*
X142005100Y-93630338D01*
X142005102Y-93630336D01*
X142073587Y-93465000D01*
X142090126Y-93381848D01*
X142123033Y-93318940D01*
X142184728Y-93283808D01*
X142255623Y-93287608D01*
X142261924Y-93290023D01*
X142393464Y-93344509D01*
X142393465Y-93344509D01*
X142393472Y-93344512D01*
X142568993Y-93379425D01*
X142568994Y-93379425D01*
X142747950Y-93379425D01*
X142747951Y-93379425D01*
X142923472Y-93344512D01*
X143088808Y-93276027D01*
X143237607Y-93176603D01*
X143364150Y-93050060D01*
X143463574Y-92901261D01*
X143522489Y-92759026D01*
X143567036Y-92703748D01*
X143614318Y-92683668D01*
X143664994Y-92673589D01*
X143664994Y-92673588D01*
X143665000Y-92673587D01*
X143830336Y-92605102D01*
X143979135Y-92505678D01*
X144105678Y-92379135D01*
X144205102Y-92230336D01*
X144273587Y-92065000D01*
X144308500Y-91889479D01*
X144308500Y-91710521D01*
X144273587Y-91535000D01*
X144205102Y-91369664D01*
X144105678Y-91220865D01*
X143979135Y-91094322D01*
X143830336Y-90994898D01*
X143713429Y-90946473D01*
X143665003Y-90926414D01*
X143665001Y-90926413D01*
X143665000Y-90926413D01*
X143576645Y-90908838D01*
X143489481Y-90891500D01*
X143489479Y-90891500D01*
X143370580Y-90891500D01*
X143302459Y-90871498D01*
X143281485Y-90854595D01*
X142845405Y-90418515D01*
X142811379Y-90356203D01*
X142808500Y-90329420D01*
X142808500Y-89710518D01*
X143191500Y-89710518D01*
X143191500Y-89889481D01*
X143205538Y-89960054D01*
X143226413Y-90065000D01*
X143294898Y-90230336D01*
X143394322Y-90379135D01*
X143520865Y-90505678D01*
X143669664Y-90605102D01*
X143835000Y-90673587D01*
X144010521Y-90708500D01*
X144010522Y-90708500D01*
X144189478Y-90708500D01*
X144189479Y-90708500D01*
X144365000Y-90673587D01*
X144530336Y-90605102D01*
X144679135Y-90505678D01*
X144805678Y-90379135D01*
X144905102Y-90230336D01*
X144973587Y-90065000D01*
X145008500Y-89889479D01*
X145008500Y-89710521D01*
X144973587Y-89535000D01*
X144905102Y-89369664D01*
X144805678Y-89220865D01*
X144679135Y-89094322D01*
X144530336Y-88994898D01*
X144413429Y-88946473D01*
X144365003Y-88926414D01*
X144365001Y-88926413D01*
X144365000Y-88926413D01*
X144276645Y-88908838D01*
X144189481Y-88891500D01*
X144189479Y-88891500D01*
X144010521Y-88891500D01*
X144010518Y-88891500D01*
X143879771Y-88917507D01*
X143835000Y-88926413D01*
X143834999Y-88926413D01*
X143834996Y-88926414D01*
X143669662Y-88994899D01*
X143520869Y-89094319D01*
X143520862Y-89094324D01*
X143394324Y-89220862D01*
X143394319Y-89220869D01*
X143294899Y-89369662D01*
X143226414Y-89534996D01*
X143191500Y-89710518D01*
X142808500Y-89710518D01*
X142808500Y-87664926D01*
X142828502Y-87596805D01*
X142882158Y-87550312D01*
X142934500Y-87538926D01*
X142989478Y-87538926D01*
X142989479Y-87538926D01*
X143165000Y-87504013D01*
X143330336Y-87435528D01*
X143479135Y-87336104D01*
X143605678Y-87209561D01*
X143705102Y-87060762D01*
X143773587Y-86895426D01*
X143808500Y-86719905D01*
X143808500Y-86540947D01*
X143773587Y-86365426D01*
X143705102Y-86200090D01*
X143605678Y-86051291D01*
X143544405Y-85990018D01*
X143510379Y-85927706D01*
X143507500Y-85900923D01*
X143507500Y-85245241D01*
X143527502Y-85177120D01*
X143581158Y-85130627D01*
X143651432Y-85120523D01*
X143716012Y-85150017D01*
X143722595Y-85156146D01*
X149386422Y-90819973D01*
X149386426Y-90819976D01*
X149460118Y-90850500D01*
X149539882Y-90850500D01*
X149613574Y-90819976D01*
X149669976Y-90763574D01*
X155126405Y-85307145D01*
X155188717Y-85273119D01*
X155259532Y-85278184D01*
X155316368Y-85320731D01*
X155341179Y-85387251D01*
X155341500Y-85396240D01*
X155341500Y-85661696D01*
X155321498Y-85729817D01*
X155320267Y-85731696D01*
X155294898Y-85769664D01*
X155226414Y-85934996D01*
X155191500Y-86110518D01*
X155191500Y-86110521D01*
X155191500Y-86289479D01*
X155226413Y-86465000D01*
X155294898Y-86630336D01*
X155394322Y-86779135D01*
X155520865Y-86905678D01*
X155669664Y-87005102D01*
X155835000Y-87073587D01*
X156010521Y-87108500D01*
X156010522Y-87108500D01*
X156189478Y-87108500D01*
X156189479Y-87108500D01*
X156365000Y-87073587D01*
X156530336Y-87005102D01*
X156679135Y-86905678D01*
X156805678Y-86779135D01*
X156905102Y-86630336D01*
X156973587Y-86465000D01*
X157008500Y-86289479D01*
X157008500Y-86110521D01*
X156973587Y-85935000D01*
X156905102Y-85769664D01*
X156879732Y-85731695D01*
X156858520Y-85663943D01*
X156858500Y-85661696D01*
X156858500Y-84863893D01*
X156878502Y-84795772D01*
X156879735Y-84793891D01*
X156912899Y-84744258D01*
X156981384Y-84578922D01*
X156981385Y-84578916D01*
X156981386Y-84578916D01*
X156990292Y-84534138D01*
X157023198Y-84471228D01*
X157024719Y-84469679D01*
X162696273Y-78798127D01*
X162779281Y-78673896D01*
X162836458Y-78535858D01*
X162853467Y-78450347D01*
X162865607Y-78389318D01*
X162865607Y-75665096D01*
X162885609Y-75596975D01*
X162917546Y-75563160D01*
X162988345Y-75511722D01*
X163111723Y-75388344D01*
X163214280Y-75247186D01*
X163293494Y-75091722D01*
X163347411Y-74925779D01*
X163374706Y-74753446D01*
X163374706Y-74578964D01*
X163360720Y-74490662D01*
X163369819Y-74420255D01*
X163415541Y-74365941D01*
X163483369Y-74344968D01*
X163504869Y-74346505D01*
X163593178Y-74360492D01*
X163593181Y-74360492D01*
X163767657Y-74360492D01*
X163767660Y-74360492D01*
X163939993Y-74333197D01*
X164105936Y-74279280D01*
X164261400Y-74200066D01*
X164402558Y-74097509D01*
X164525936Y-73974131D01*
X164628493Y-73832973D01*
X164707707Y-73677509D01*
X164761624Y-73511566D01*
X164788919Y-73339233D01*
X164788919Y-73164751D01*
X164761624Y-72992418D01*
X164707707Y-72826475D01*
X164628493Y-72671011D01*
X164525936Y-72529853D01*
X164525933Y-72529850D01*
X164525931Y-72529847D01*
X164084365Y-72088281D01*
X164084362Y-72088279D01*
X164084360Y-72088277D01*
X163978208Y-72011153D01*
X163943204Y-71985721D01*
X163915290Y-71971498D01*
X163787738Y-71906506D01*
X163787735Y-71906505D01*
X163787733Y-71906504D01*
X163621799Y-71852590D01*
X163621797Y-71852589D01*
X163621795Y-71852589D01*
X163521353Y-71836680D01*
X163475343Y-71829393D01*
X163411191Y-71798980D01*
X163373664Y-71738711D01*
X163370608Y-71724666D01*
X163347411Y-71578204D01*
X163293494Y-71412261D01*
X163214280Y-71256797D01*
X163111723Y-71115639D01*
X163111720Y-71115636D01*
X163111718Y-71115633D01*
X162670152Y-70674067D01*
X162670149Y-70674065D01*
X162670147Y-70674063D01*
X162571426Y-70602338D01*
X162528991Y-70571507D01*
X162523173Y-70568543D01*
X162373525Y-70492292D01*
X162373522Y-70492291D01*
X162373520Y-70492290D01*
X162207585Y-70438376D01*
X162207582Y-70438375D01*
X162035249Y-70411080D01*
X161860767Y-70411080D01*
X161688434Y-70438375D01*
X161688431Y-70438375D01*
X161688430Y-70438376D01*
X161522495Y-70492290D01*
X161522489Y-70492293D01*
X161367024Y-70571507D01*
X161225866Y-70674065D01*
X161225863Y-70674067D01*
X161102495Y-70797435D01*
X161102493Y-70797438D01*
X160999934Y-70938598D01*
X160955816Y-71025183D01*
X160907068Y-71076798D01*
X160843550Y-71093979D01*
X156944344Y-71093979D01*
X156795635Y-71133826D01*
X156741372Y-71165155D01*
X156741371Y-71165154D01*
X156669368Y-71206725D01*
X156662306Y-71210803D01*
X156662304Y-71210804D01*
X156662298Y-71210809D01*
X151368515Y-76504595D01*
X151306203Y-76538621D01*
X151279420Y-76541500D01*
X151160518Y-76541500D01*
X151029771Y-76567507D01*
X150985000Y-76576413D01*
X150984999Y-76576413D01*
X150984996Y-76576414D01*
X150819662Y-76644899D01*
X150670869Y-76744319D01*
X150670862Y-76744324D01*
X150544324Y-76870862D01*
X150544319Y-76870869D01*
X150444897Y-77019664D01*
X150444897Y-77019665D01*
X150384509Y-77165450D01*
X150339960Y-77220730D01*
X150272597Y-77243150D01*
X150203806Y-77225591D01*
X150179006Y-77206325D01*
X145133519Y-72160838D01*
X145133515Y-72160834D01*
X145009284Y-72077826D01*
X144871247Y-72020649D01*
X144785722Y-72003637D01*
X144785720Y-72003636D01*
X144724709Y-71991500D01*
X144724706Y-71991500D01*
X143290382Y-71991500D01*
X143222261Y-71971498D01*
X143201291Y-71954599D01*
X142764797Y-71518105D01*
X142764796Y-71518104D01*
X142764792Y-71518100D01*
X142717372Y-71479886D01*
X142717370Y-71479885D01*
X142717369Y-71479884D01*
X142584360Y-71419141D01*
X142439626Y-71398332D01*
X142439625Y-71398332D01*
X142367258Y-71408736D01*
X142294891Y-71419141D01*
X142161883Y-71479884D01*
X142161879Y-71479887D01*
X142114453Y-71518105D01*
X141621406Y-72011152D01*
X141583188Y-72058578D01*
X141583185Y-72058582D01*
X141536489Y-72160833D01*
X141522442Y-72191591D01*
X141500351Y-72345245D01*
X141498129Y-72344925D01*
X141481631Y-72401113D01*
X141427975Y-72447606D01*
X141387693Y-72456368D01*
X141387886Y-72457710D01*
X141378967Y-72458992D01*
X141378966Y-72458992D01*
X141234231Y-72479801D01*
X141124633Y-72529853D01*
X141101223Y-72540544D01*
X141101219Y-72540547D01*
X141053793Y-72578765D01*
X140560746Y-73071812D01*
X140522528Y-73119238D01*
X140522522Y-73119247D01*
X140513742Y-73138473D01*
X140467248Y-73192127D01*
X140399126Y-73212127D01*
X140331006Y-73192123D01*
X140310035Y-73175222D01*
X140229137Y-73094324D01*
X140229135Y-73094322D01*
X140080336Y-72994898D01*
X139962958Y-72946278D01*
X139915003Y-72926414D01*
X139915001Y-72926413D01*
X139915000Y-72926413D01*
X139826645Y-72908838D01*
X139739481Y-72891500D01*
X139739479Y-72891500D01*
X139560521Y-72891500D01*
X139560518Y-72891500D01*
X139429771Y-72917507D01*
X139385000Y-72926413D01*
X139384999Y-72926413D01*
X139384996Y-72926414D01*
X139253902Y-72980716D01*
X139225652Y-72992418D01*
X139219662Y-72994899D01*
X139070869Y-73094319D01*
X139070862Y-73094324D01*
X138944324Y-73220862D01*
X138944319Y-73220869D01*
X138844899Y-73369662D01*
X138776414Y-73534996D01*
X138776413Y-73534999D01*
X138776413Y-73535000D01*
X138770465Y-73564904D01*
X138741500Y-73710518D01*
X138741500Y-73889481D01*
X138776414Y-74065003D01*
X138789879Y-74097509D01*
X138844898Y-74230336D01*
X138944322Y-74379135D01*
X138944324Y-74379137D01*
X139021246Y-74456059D01*
X139055272Y-74518371D01*
X139050207Y-74589186D01*
X139007660Y-74646022D01*
X138984501Y-74659764D01*
X138979911Y-74661860D01*
X138979905Y-74661863D01*
X138979902Y-74661865D01*
X138979899Y-74661867D01*
X138979898Y-74661868D01*
X138932472Y-74700086D01*
X138932471Y-74700087D01*
X138594437Y-75038122D01*
X138532125Y-75072148D01*
X138505342Y-75075027D01*
X137763296Y-75075027D01*
X137664156Y-75101591D01*
X137614586Y-75114874D01*
X137503035Y-75179277D01*
X137503036Y-75179278D01*
X137481261Y-75191850D01*
X137481255Y-75191854D01*
X137364409Y-75308701D01*
X137136507Y-75536603D01*
X137091874Y-75581236D01*
X137027646Y-75645463D01*
X137027642Y-75645468D01*
X136950668Y-75778792D01*
X136910821Y-75927503D01*
X136910821Y-76681449D01*
X136890819Y-76749570D01*
X136863884Y-76779557D01*
X136811472Y-76821794D01*
X136811465Y-76821800D01*
X136744587Y-76888677D01*
X136885262Y-77029352D01*
X136890949Y-77038133D01*
X136896496Y-77042224D01*
X136905508Y-77060610D01*
X136913907Y-77073577D01*
X136916203Y-77079604D01*
X136950668Y-77208224D01*
X136988447Y-77273659D01*
X136993482Y-77282380D01*
X136993483Y-77282382D01*
X137027642Y-77341548D01*
X137027644Y-77341550D01*
X137027645Y-77341552D01*
X137372443Y-77686350D01*
X140701195Y-81015102D01*
X140735221Y-81077414D01*
X140738100Y-81104197D01*
X140738100Y-85490314D01*
X140738099Y-85490314D01*
X140777947Y-85639025D01*
X140845967Y-85756839D01*
X140854924Y-85772353D01*
X141602196Y-86519625D01*
X141636220Y-86581936D01*
X141639100Y-86608719D01*
X141639100Y-90700775D01*
X141639099Y-90700775D01*
X141664361Y-90795052D01*
X141678947Y-90849486D01*
X141746062Y-90965733D01*
X141755924Y-90982814D01*
X142245937Y-91472827D01*
X142279961Y-91535138D01*
X142274897Y-91605953D01*
X142232350Y-91662789D01*
X142226843Y-91666686D01*
X142079341Y-91765244D01*
X142079334Y-91765249D01*
X141995264Y-91849320D01*
X141932952Y-91883346D01*
X141906169Y-91886225D01*
X141852098Y-91886225D01*
X141781655Y-91905100D01*
X141703392Y-91926070D01*
X141703385Y-91926073D01*
X141570064Y-92003046D01*
X141570058Y-92003051D01*
X141444287Y-92128823D01*
X141318513Y-92254596D01*
X141256203Y-92288620D01*
X141229420Y-92291500D01*
X141110518Y-92291500D01*
X140979771Y-92317507D01*
X140935000Y-92326413D01*
X140934999Y-92326413D01*
X140934996Y-92326414D01*
X140769662Y-92394899D01*
X140620869Y-92494319D01*
X140620862Y-92494324D01*
X140494324Y-92620862D01*
X140494319Y-92620869D01*
X140394899Y-92769662D01*
X140326414Y-92934997D01*
X140326411Y-92935005D01*
X140316523Y-92984714D01*
X140283615Y-93047623D01*
X140282040Y-93049225D01*
X138128655Y-95202612D01*
X138040140Y-95291126D01*
X138040135Y-95291133D01*
X137970590Y-95395214D01*
X137922687Y-95510862D01*
X137922685Y-95510867D01*
X137898263Y-95633643D01*
X137898263Y-97964734D01*
X137878261Y-98032855D01*
X137861358Y-98053829D01*
X137794324Y-98120862D01*
X137794319Y-98120869D01*
X137694899Y-98269662D01*
X137626414Y-98434996D01*
X137591500Y-98610518D01*
X137591500Y-98610521D01*
X137591500Y-98789479D01*
X137626413Y-98965000D01*
X137694898Y-99130336D01*
X137794322Y-99279135D01*
X137920865Y-99405678D01*
X138069664Y-99505102D01*
X138235000Y-99573587D01*
X138410521Y-99608500D01*
X138410522Y-99608500D01*
X138589478Y-99608500D01*
X138589479Y-99608500D01*
X138677421Y-99591007D01*
X138748131Y-99597335D01*
X138804199Y-99640888D01*
X138827819Y-99707841D01*
X138828000Y-99714586D01*
X138828000Y-100075305D01*
X138853786Y-100171540D01*
X138866980Y-100220781D01*
X138866983Y-100220788D01*
X138879070Y-100241723D01*
X138921910Y-100315923D01*
X138942286Y-100351216D01*
X138942289Y-100351219D01*
X138942292Y-100351223D01*
X142754595Y-104163525D01*
X142788621Y-104225837D01*
X142791500Y-104252620D01*
X142791500Y-104289481D01*
X142793844Y-104301263D01*
X142826413Y-104465000D01*
X142894898Y-104630336D01*
X142994322Y-104779135D01*
X142994324Y-104779137D01*
X143048755Y-104833568D01*
X143082781Y-104895880D01*
X143077716Y-104966695D01*
X143035169Y-105023531D01*
X142968649Y-105048342D01*
X142920216Y-105042330D01*
X142286874Y-104833568D01*
X142285773Y-104833205D01*
X142280730Y-104831423D01*
X141417730Y-104505741D01*
X141412767Y-104503747D01*
X140622992Y-104166748D01*
X140564336Y-104141719D01*
X140559468Y-104139518D01*
X139727210Y-103741828D01*
X139722434Y-103739420D01*
X138907778Y-103306751D01*
X138903140Y-103304160D01*
X138107553Y-102837292D01*
X138103021Y-102834501D01*
X137328007Y-102334314D01*
X137323575Y-102331319D01*
X136570479Y-101798684D01*
X136566179Y-101795504D01*
X135836362Y-101231382D01*
X135832200Y-101228021D01*
X135479712Y-100930829D01*
X135440526Y-100871628D01*
X135439567Y-100800638D01*
X135477141Y-100740399D01*
X135541317Y-100710036D01*
X135560932Y-100708500D01*
X135589478Y-100708500D01*
X135589479Y-100708500D01*
X135765000Y-100673587D01*
X135930336Y-100605102D01*
X136079135Y-100505678D01*
X136205678Y-100379135D01*
X136305102Y-100230336D01*
X136373587Y-100065000D01*
X136408500Y-99889479D01*
X136408500Y-99710521D01*
X136373587Y-99535000D01*
X136305102Y-99369664D01*
X136205678Y-99220865D01*
X136079135Y-99094322D01*
X135930336Y-98994898D01*
X135813429Y-98946473D01*
X135765003Y-98926414D01*
X135765001Y-98926413D01*
X135765000Y-98926413D01*
X135676645Y-98908838D01*
X135589481Y-98891500D01*
X135589479Y-98891500D01*
X135410521Y-98891500D01*
X135410518Y-98891500D01*
X135279771Y-98917507D01*
X135235000Y-98926413D01*
X135234999Y-98926413D01*
X135234996Y-98926414D01*
X135069662Y-98994899D01*
X134920869Y-99094319D01*
X134920862Y-99094324D01*
X134794324Y-99220862D01*
X134794319Y-99220869D01*
X134694899Y-99369662D01*
X134626414Y-99534996D01*
X134626413Y-99534999D01*
X134626413Y-99535000D01*
X134621349Y-99560458D01*
X134591500Y-99710518D01*
X134591500Y-99849764D01*
X134571498Y-99917885D01*
X134517842Y-99964378D01*
X134447568Y-99974482D01*
X134382988Y-99944988D01*
X134376405Y-99938859D01*
X133787547Y-99350001D01*
X133783846Y-99346140D01*
X133466497Y-99000633D01*
X133159867Y-98666796D01*
X133156336Y-98662785D01*
X133112268Y-98610518D01*
X132561752Y-97957571D01*
X132558397Y-97953417D01*
X132214901Y-97509028D01*
X132189068Y-97442901D01*
X132203086Y-97373302D01*
X132252508Y-97322331D01*
X132290012Y-97308394D01*
X132295470Y-97307308D01*
X132465000Y-97273587D01*
X132630336Y-97205102D01*
X132779135Y-97105678D01*
X132905678Y-96979135D01*
X133005102Y-96830336D01*
X133073587Y-96665000D01*
X133108500Y-96489479D01*
X133108500Y-96310521D01*
X133073587Y-96135000D01*
X133005102Y-95969664D01*
X132905678Y-95820865D01*
X132779135Y-95694322D01*
X132630336Y-95594898D01*
X132513429Y-95546473D01*
X132465003Y-95526414D01*
X132465001Y-95526413D01*
X132465000Y-95526413D01*
X132376645Y-95508838D01*
X132289481Y-95491500D01*
X132289479Y-95491500D01*
X132110521Y-95491500D01*
X132110518Y-95491500D01*
X131979771Y-95517507D01*
X131935000Y-95526413D01*
X131934999Y-95526413D01*
X131934996Y-95526414D01*
X131769662Y-95594899D01*
X131620869Y-95694319D01*
X131620862Y-95694324D01*
X131494324Y-95820862D01*
X131494319Y-95820869D01*
X131394897Y-95969664D01*
X131394895Y-95969668D01*
X131386380Y-95990225D01*
X131341830Y-96045505D01*
X131274466Y-96067923D01*
X131205675Y-96050362D01*
X131164107Y-96010328D01*
X131143972Y-95979130D01*
X130955270Y-95686745D01*
X130952495Y-95682239D01*
X130734361Y-95310518D01*
X134291500Y-95310518D01*
X134291500Y-95489481D01*
X134298847Y-95526414D01*
X134320176Y-95633646D01*
X134326414Y-95665003D01*
X134343263Y-95705680D01*
X134394898Y-95830336D01*
X134494322Y-95979135D01*
X134620865Y-96105678D01*
X134769664Y-96205102D01*
X134935000Y-96273587D01*
X135110521Y-96308500D01*
X135110522Y-96308500D01*
X135289478Y-96308500D01*
X135289479Y-96308500D01*
X135465000Y-96273587D01*
X135630336Y-96205102D01*
X135779135Y-96105678D01*
X135905678Y-95979135D01*
X136005102Y-95830336D01*
X136073587Y-95665000D01*
X136108500Y-95489479D01*
X136108500Y-95310521D01*
X136073587Y-95135000D01*
X136005102Y-94969664D01*
X135905678Y-94820865D01*
X135779135Y-94694322D01*
X135630336Y-94594898D01*
X135513429Y-94546473D01*
X135465003Y-94526414D01*
X135465001Y-94526413D01*
X135465000Y-94526413D01*
X135376645Y-94508838D01*
X135289481Y-94491500D01*
X135289479Y-94491500D01*
X135110521Y-94491500D01*
X135110518Y-94491500D01*
X134979771Y-94517507D01*
X134935000Y-94526413D01*
X134934999Y-94526413D01*
X134934996Y-94526414D01*
X134803902Y-94580716D01*
X134780246Y-94590515D01*
X134769662Y-94594899D01*
X134620869Y-94694319D01*
X134620862Y-94694324D01*
X134494324Y-94820862D01*
X134494319Y-94820869D01*
X134412092Y-94943932D01*
X134394898Y-94969664D01*
X134392384Y-94975733D01*
X134326414Y-95134996D01*
X134291500Y-95310518D01*
X130734361Y-95310518D01*
X130485598Y-94886604D01*
X130483036Y-94882017D01*
X130050350Y-94067327D01*
X130047951Y-94062569D01*
X130005783Y-93974322D01*
X129650248Y-93230284D01*
X129648069Y-93225464D01*
X129286029Y-92377006D01*
X129284038Y-92372049D01*
X129144783Y-92003049D01*
X128958354Y-91509045D01*
X128956574Y-91504006D01*
X128793911Y-91010518D01*
X138591500Y-91010518D01*
X138591500Y-91189481D01*
X138596291Y-91213566D01*
X138626413Y-91365000D01*
X138694898Y-91530336D01*
X138794322Y-91679135D01*
X138920865Y-91805678D01*
X139069664Y-91905102D01*
X139235000Y-91973587D01*
X139410521Y-92008500D01*
X139410522Y-92008500D01*
X139589478Y-92008500D01*
X139589479Y-92008500D01*
X139765000Y-91973587D01*
X139930336Y-91905102D01*
X140079135Y-91805678D01*
X140205678Y-91679135D01*
X140305102Y-91530336D01*
X140373587Y-91365000D01*
X140408500Y-91189479D01*
X140408500Y-91010521D01*
X140373587Y-90835000D01*
X140305102Y-90669664D01*
X140205678Y-90520865D01*
X140079135Y-90394322D01*
X139930336Y-90294898D01*
X139813429Y-90246473D01*
X139765003Y-90226414D01*
X139765001Y-90226413D01*
X139765000Y-90226413D01*
X139675015Y-90208514D01*
X139589481Y-90191500D01*
X139589479Y-90191500D01*
X139410521Y-90191500D01*
X139410518Y-90191500D01*
X139279771Y-90217507D01*
X139235000Y-90226413D01*
X139234999Y-90226413D01*
X139234996Y-90226414D01*
X139069662Y-90294899D01*
X138920869Y-90394319D01*
X138920862Y-90394324D01*
X138794324Y-90520862D01*
X138794319Y-90520869D01*
X138694899Y-90669662D01*
X138626414Y-90834996D01*
X138591500Y-91010518D01*
X128793911Y-91010518D01*
X128667808Y-90627948D01*
X128666246Y-90622845D01*
X128633067Y-90505678D01*
X128414922Y-89735326D01*
X128413578Y-89730164D01*
X128408906Y-89710522D01*
X128200145Y-88832764D01*
X128199022Y-88827550D01*
X128023872Y-87921919D01*
X128022968Y-87916647D01*
X127969519Y-87559586D01*
X127886405Y-87004357D01*
X127885735Y-86999121D01*
X127788016Y-86081869D01*
X127787563Y-86076551D01*
X127785952Y-86051295D01*
X127728861Y-85155991D01*
X127728635Y-85150657D01*
X127709056Y-84228417D01*
X127709056Y-84223142D01*
X127728635Y-83300891D01*
X127728862Y-83295558D01*
X127787564Y-82374993D01*
X127788017Y-82369678D01*
X127885736Y-81452432D01*
X127886404Y-81447208D01*
X128022968Y-80534908D01*
X128023872Y-80529640D01*
X128127125Y-79995759D01*
X128199027Y-79623985D01*
X128200143Y-79618805D01*
X128413584Y-78721369D01*
X128414919Y-78716245D01*
X128467094Y-78531994D01*
X136886008Y-78531994D01*
X136886008Y-78531995D01*
X137094299Y-78740286D01*
X137094318Y-78740303D01*
X137141697Y-78778483D01*
X137274575Y-78839166D01*
X137274574Y-78839166D01*
X137419166Y-78859955D01*
X137563759Y-78839166D01*
X137696640Y-78778481D01*
X137744011Y-78740306D01*
X137744024Y-78740294D01*
X137810904Y-78673414D01*
X137277747Y-78140257D01*
X137277746Y-78140257D01*
X136886008Y-78531994D01*
X128467094Y-78531994D01*
X128666253Y-77828690D01*
X128667800Y-77823637D01*
X128728454Y-77639626D01*
X136198837Y-77639626D01*
X136219626Y-77784218D01*
X136280309Y-77917095D01*
X136318489Y-77964474D01*
X136318506Y-77964493D01*
X136526797Y-78172784D01*
X136526798Y-78172784D01*
X136918536Y-77781046D01*
X136385378Y-77247888D01*
X136385377Y-77247888D01*
X136318499Y-77314766D01*
X136318485Y-77314781D01*
X136280311Y-77362152D01*
X136219626Y-77495033D01*
X136198837Y-77639626D01*
X128728454Y-77639626D01*
X128956585Y-76947520D01*
X128958356Y-76942510D01*
X128980287Y-76884398D01*
X129284046Y-76079488D01*
X129286023Y-76074569D01*
X129420796Y-75758722D01*
X130173783Y-75758722D01*
X130194592Y-75903456D01*
X130255335Y-76036465D01*
X130255336Y-76036466D01*
X130255337Y-76036468D01*
X130293548Y-76083885D01*
X130293570Y-76083909D01*
X131635115Y-77425454D01*
X131635127Y-77425465D01*
X131635132Y-77425470D01*
X131635135Y-77425473D01*
X131635139Y-77425476D01*
X131682556Y-77463687D01*
X131682560Y-77463690D01*
X131815569Y-77524433D01*
X131960303Y-77545242D01*
X132105038Y-77524433D01*
X132238046Y-77463690D01*
X132285475Y-77425470D01*
X133238143Y-76472802D01*
X133276363Y-76425373D01*
X133337106Y-76292365D01*
X133357915Y-76147630D01*
X133337106Y-76002896D01*
X133276363Y-75869887D01*
X133276360Y-75869883D01*
X133238149Y-75822466D01*
X133238127Y-75822442D01*
X131896582Y-74480897D01*
X131896558Y-74480875D01*
X131849141Y-74442664D01*
X131849139Y-74442663D01*
X131849138Y-74442662D01*
X131716129Y-74381919D01*
X131571395Y-74361110D01*
X131571394Y-74361110D01*
X131537793Y-74365941D01*
X131426660Y-74381919D01*
X131293652Y-74442662D01*
X131293650Y-74442663D01*
X131246226Y-74480879D01*
X131246207Y-74480896D01*
X130293569Y-75433534D01*
X130293552Y-75433553D01*
X130255336Y-75480977D01*
X130255335Y-75480978D01*
X130255335Y-75480979D01*
X130194592Y-75613987D01*
X130173783Y-75758722D01*
X129420796Y-75758722D01*
X129648077Y-75226077D01*
X129650240Y-75221293D01*
X130047969Y-74388953D01*
X130050340Y-74384251D01*
X130483047Y-73569521D01*
X130485598Y-73564955D01*
X130952507Y-72769298D01*
X130955256Y-72764834D01*
X131455487Y-71989754D01*
X131458438Y-71985386D01*
X131991122Y-71232221D01*
X131994246Y-71227997D01*
X132558421Y-70498111D01*
X132561733Y-70494010D01*
X133156360Y-69788746D01*
X133159846Y-69784786D01*
X133783869Y-69105394D01*
X133787523Y-69101582D01*
X134278587Y-68610518D01*
X159391500Y-68610518D01*
X159391500Y-68610521D01*
X159391500Y-68789479D01*
X159425717Y-68961503D01*
X159426414Y-68965003D01*
X159446473Y-69013429D01*
X159494898Y-69130336D01*
X159594322Y-69279135D01*
X159720865Y-69405678D01*
X159869664Y-69505102D01*
X160035000Y-69573587D01*
X160210521Y-69608500D01*
X160210522Y-69608500D01*
X160389478Y-69608500D01*
X160389479Y-69608500D01*
X160565000Y-69573587D01*
X160730336Y-69505102D01*
X160879135Y-69405678D01*
X161005678Y-69279135D01*
X161105102Y-69130336D01*
X161173587Y-68965000D01*
X161208500Y-68789479D01*
X161208500Y-68610521D01*
X161173587Y-68435000D01*
X161105102Y-68269664D01*
X161005678Y-68120865D01*
X160879135Y-67994322D01*
X160730336Y-67894898D01*
X160613429Y-67846473D01*
X160565003Y-67826414D01*
X160565001Y-67826413D01*
X160565000Y-67826413D01*
X160476645Y-67808838D01*
X160389481Y-67791500D01*
X160389479Y-67791500D01*
X160210521Y-67791500D01*
X160210518Y-67791500D01*
X160079771Y-67817507D01*
X160035000Y-67826413D01*
X160034999Y-67826413D01*
X160034996Y-67826414D01*
X159869662Y-67894899D01*
X159720869Y-67994319D01*
X159720862Y-67994324D01*
X159594324Y-68120862D01*
X159594319Y-68120869D01*
X159494899Y-68269662D01*
X159426414Y-68434996D01*
X159426413Y-68434999D01*
X159426413Y-68435000D01*
X159423941Y-68447430D01*
X159391500Y-68610518D01*
X134278587Y-68610518D01*
X134439802Y-68449303D01*
X134443614Y-68445649D01*
X135123006Y-67821626D01*
X135126966Y-67818140D01*
X135832230Y-67223513D01*
X135836362Y-67220178D01*
X135871043Y-67193371D01*
X136416961Y-66771395D01*
X139161110Y-66771395D01*
X139181919Y-66916129D01*
X139242662Y-67049138D01*
X139242663Y-67049139D01*
X139242664Y-67049141D01*
X139280875Y-67096558D01*
X139280897Y-67096582D01*
X140622442Y-68438127D01*
X140622454Y-68438138D01*
X140622459Y-68438143D01*
X140622462Y-68438146D01*
X140622466Y-68438149D01*
X140633983Y-68447430D01*
X140669887Y-68476363D01*
X140802896Y-68537106D01*
X140947630Y-68557915D01*
X141092365Y-68537106D01*
X141225373Y-68476363D01*
X141272802Y-68438143D01*
X142225470Y-67485475D01*
X142263690Y-67438046D01*
X142324433Y-67305038D01*
X142345242Y-67160303D01*
X142324433Y-67015569D01*
X142263690Y-66882560D01*
X142225470Y-66835132D01*
X142225465Y-66835127D01*
X142225454Y-66835115D01*
X140883909Y-65493570D01*
X140883885Y-65493548D01*
X140836468Y-65455337D01*
X140836466Y-65455336D01*
X140836465Y-65455335D01*
X140703456Y-65394592D01*
X140558722Y-65373783D01*
X140558721Y-65373783D01*
X140486354Y-65384187D01*
X140413987Y-65394592D01*
X140280979Y-65455335D01*
X140280977Y-65455336D01*
X140233553Y-65493552D01*
X140233534Y-65493569D01*
X139280896Y-66446207D01*
X139280879Y-66446226D01*
X139242663Y-66493650D01*
X139242662Y-66493651D01*
X139242662Y-66493652D01*
X139181919Y-66626660D01*
X139161110Y-66771395D01*
X136416961Y-66771395D01*
X136566224Y-66656020D01*
X136570441Y-66652903D01*
X137323606Y-66120218D01*
X137327974Y-66117267D01*
X138103054Y-65617036D01*
X138107518Y-65614287D01*
X138903175Y-65147378D01*
X138907741Y-65144827D01*
X139722471Y-64712120D01*
X139727173Y-64709749D01*
X140559513Y-64312020D01*
X140564297Y-64309857D01*
X141412789Y-63947803D01*
X141417708Y-63945826D01*
X142280749Y-63620129D01*
X142285740Y-63618365D01*
X143161857Y-63329580D01*
X143166910Y-63328033D01*
X144054465Y-63076699D01*
X144059589Y-63075364D01*
X144957025Y-62861923D01*
X144962205Y-62860807D01*
X145867863Y-62685651D01*
X145873132Y-62684748D01*
X146785428Y-62548184D01*
X146790652Y-62547516D01*
X147707914Y-62449795D01*
X147713213Y-62449344D01*
X148621483Y-62391426D01*
X148690737Y-62407053D01*
G37*
%TD.AperFunction*%
%TA.AperFunction,Conductor*%
G36*
X140793675Y-94439222D02*
G01*
X140850511Y-94481769D01*
X140875322Y-94548289D01*
X140873223Y-94581855D01*
X140871500Y-94590515D01*
X140871500Y-94769481D01*
X140883589Y-94830255D01*
X140881680Y-94851576D01*
X140884728Y-94872769D01*
X140878579Y-94886230D01*
X140877261Y-94900969D01*
X140864127Y-94917876D01*
X140855234Y-94937349D01*
X140842786Y-94945348D01*
X140833707Y-94957037D01*
X140813516Y-94964159D01*
X140795508Y-94975733D01*
X140770527Y-94979324D01*
X140766754Y-94980656D01*
X140760010Y-94980837D01*
X140619708Y-94980837D01*
X140551587Y-94960835D01*
X140530613Y-94943932D01*
X140446801Y-94860120D01*
X140412775Y-94797808D01*
X140417840Y-94726993D01*
X140446799Y-94681932D01*
X140660550Y-94468181D01*
X140722860Y-94434157D01*
X140793675Y-94439222D01*
G37*
%TD.AperFunction*%
%TA.AperFunction,Conductor*%
G36*
X142116012Y-81125338D02*
G01*
X142122595Y-81131467D01*
X142301195Y-81310067D01*
X142335221Y-81372379D01*
X142338100Y-81399162D01*
X142338100Y-85297558D01*
X142331761Y-85319145D01*
X142330156Y-85341590D01*
X142321954Y-85352546D01*
X142318098Y-85365679D01*
X142301092Y-85380414D01*
X142287609Y-85398426D01*
X142274786Y-85403208D01*
X142264442Y-85412172D01*
X142242169Y-85415374D01*
X142221089Y-85423237D01*
X142207716Y-85420328D01*
X142194168Y-85422276D01*
X142173701Y-85412928D01*
X142151715Y-85408146D01*
X142133701Y-85394660D01*
X142129588Y-85392782D01*
X142123005Y-85386653D01*
X141944405Y-85208053D01*
X141910379Y-85145741D01*
X141907500Y-85118958D01*
X141907500Y-81220562D01*
X141927502Y-81152441D01*
X141981158Y-81105948D01*
X142051432Y-81095844D01*
X142116012Y-81125338D01*
G37*
%TD.AperFunction*%
%TA.AperFunction,Conductor*%
G36*
X147320853Y-79630743D02*
G01*
X147341826Y-79647645D01*
X147443604Y-79749423D01*
X147592403Y-79848847D01*
X147757739Y-79917332D01*
X147933260Y-79952245D01*
X147933261Y-79952245D01*
X148112217Y-79952245D01*
X148112218Y-79952245D01*
X148144216Y-79945880D01*
X148214930Y-79952206D01*
X148270998Y-79995759D01*
X148294619Y-80062711D01*
X148278294Y-80131805D01*
X148257895Y-80158553D01*
X143722595Y-84693854D01*
X143660283Y-84727880D01*
X143589468Y-84722815D01*
X143532632Y-84680268D01*
X143507821Y-84613748D01*
X143507500Y-84604759D01*
X143507500Y-81815481D01*
X143527502Y-81747360D01*
X143581158Y-81700867D01*
X143633500Y-81689481D01*
X143979900Y-81689481D01*
X143979902Y-81689481D01*
X144128611Y-81649634D01*
X144261939Y-81572657D01*
X144370801Y-81463795D01*
X144430326Y-81404270D01*
X144430328Y-81404266D01*
X146186952Y-79647645D01*
X146249264Y-79613620D01*
X146276047Y-79610741D01*
X147252732Y-79610741D01*
X147320853Y-79630743D01*
G37*
%TD.AperFunction*%
%TA.AperFunction,Conductor*%
G36*
X158311654Y-75111808D02*
G01*
X158332623Y-75128706D01*
X158715639Y-75511722D01*
X158856797Y-75614279D01*
X159012261Y-75693493D01*
X159178204Y-75747410D01*
X159178206Y-75747410D01*
X159183015Y-75748565D01*
X159182626Y-75750182D01*
X159240217Y-75777462D01*
X159277762Y-75837719D01*
X159278941Y-75843721D01*
X159279126Y-75843678D01*
X159321682Y-76023230D01*
X159321685Y-76023239D01*
X159401204Y-76181580D01*
X159467113Y-76262487D01*
X159729813Y-76525187D01*
X160269971Y-75985029D01*
X160296856Y-76085364D01*
X160352809Y-76182276D01*
X160431937Y-76261404D01*
X160528849Y-76317357D01*
X160629181Y-76344240D01*
X160089024Y-76884398D01*
X160351725Y-77147099D01*
X160432632Y-77213008D01*
X160590973Y-77292527D01*
X160590982Y-77292530D01*
X160763389Y-77333393D01*
X160763394Y-77333394D01*
X160940590Y-77333394D01*
X160940594Y-77333393D01*
X161113001Y-77292530D01*
X161113006Y-77292529D01*
X161166059Y-77265886D01*
X161235911Y-77253188D01*
X161301539Y-77280272D01*
X161342107Y-77338536D01*
X161348607Y-77378484D01*
X161348607Y-77948240D01*
X161328605Y-78016361D01*
X161311702Y-78037335D01*
X156249954Y-83099083D01*
X156187642Y-83133109D01*
X156116827Y-83128044D01*
X156071764Y-83099083D01*
X152132427Y-79159746D01*
X152098401Y-79097434D01*
X152103466Y-79026619D01*
X152146013Y-78969783D01*
X152196938Y-78947073D01*
X152315002Y-78923589D01*
X152480338Y-78855104D01*
X152629137Y-78755680D01*
X152755680Y-78629137D01*
X152855104Y-78480338D01*
X152923589Y-78315002D01*
X152958502Y-78139481D01*
X152958502Y-78020582D01*
X152978504Y-77952461D01*
X152995407Y-77931487D01*
X155798184Y-75128711D01*
X155860496Y-75094685D01*
X155887279Y-75091806D01*
X158243533Y-75091806D01*
X158311654Y-75111808D01*
G37*
%TD.AperFunction*%
%TA.AperFunction,Conductor*%
G36*
X141825418Y-78848005D02*
G01*
X141962362Y-78884700D01*
X144991925Y-78884700D01*
X145060046Y-78904702D01*
X145106539Y-78958358D01*
X145116643Y-79028632D01*
X145087149Y-79093212D01*
X145081020Y-79099795D01*
X143697640Y-80483176D01*
X143635328Y-80517201D01*
X143608545Y-80520081D01*
X143217179Y-80520081D01*
X143149058Y-80500079D01*
X143128084Y-80483176D01*
X141703716Y-79058808D01*
X141669690Y-78996496D01*
X141674755Y-78925681D01*
X141717302Y-78868845D01*
X141783822Y-78844034D01*
X141825418Y-78848005D01*
G37*
%TD.AperFunction*%
%TA.AperFunction,Conductor*%
G36*
X188741621Y-35220502D02*
G01*
X188788114Y-35274158D01*
X188799500Y-35326500D01*
X188799500Y-45539882D01*
X188830023Y-45613573D01*
X188830026Y-45613577D01*
X188886422Y-45669973D01*
X188886426Y-45669976D01*
X188960118Y-45700500D01*
X189039882Y-45700500D01*
X199173500Y-45700500D01*
X199241621Y-45720502D01*
X199288114Y-45774158D01*
X199299500Y-45826500D01*
X199299500Y-124173500D01*
X199279498Y-124241621D01*
X199225842Y-124288114D01*
X199173500Y-124299500D01*
X188960118Y-124299500D01*
X188886426Y-124330023D01*
X188886422Y-124330026D01*
X188830026Y-124386422D01*
X188830023Y-124386426D01*
X188799500Y-124460117D01*
X188799500Y-134673500D01*
X188779498Y-134741621D01*
X188725842Y-134788114D01*
X188673500Y-134799500D01*
X110326500Y-134799500D01*
X110258379Y-134779498D01*
X110211886Y-134725842D01*
X110200500Y-134673500D01*
X110200500Y-124460117D01*
X110169976Y-124386426D01*
X110169973Y-124386422D01*
X110113577Y-124330026D01*
X110113573Y-124330023D01*
X110039882Y-124299500D01*
X99826500Y-124299500D01*
X99758379Y-124279498D01*
X99711886Y-124225842D01*
X99700500Y-124173500D01*
X99700500Y-84824024D01*
X107366500Y-84824024D01*
X107366500Y-85175975D01*
X107405906Y-85525711D01*
X107484223Y-85868837D01*
X107600455Y-86201010D01*
X107600466Y-86201037D01*
X107753163Y-86518116D01*
X107753168Y-86518125D01*
X107940414Y-86816124D01*
X108159844Y-87091283D01*
X108408716Y-87340155D01*
X108683875Y-87559585D01*
X108981874Y-87746831D01*
X108981879Y-87746834D01*
X109298972Y-87899538D01*
X109298988Y-87899543D01*
X109298989Y-87899544D01*
X109631162Y-88015776D01*
X109631165Y-88015776D01*
X109631169Y-88015778D01*
X109974292Y-88094094D01*
X110222284Y-88122036D01*
X110324024Y-88133500D01*
X110324026Y-88133500D01*
X110675976Y-88133500D01*
X110764795Y-88123492D01*
X111025708Y-88094094D01*
X111368831Y-88015778D01*
X111701028Y-87899538D01*
X112018121Y-87746834D01*
X112316123Y-87559586D01*
X112385812Y-87504011D01*
X112591283Y-87340155D01*
X112840155Y-87091283D01*
X113059585Y-86816124D01*
X113082830Y-86779130D01*
X113246834Y-86518121D01*
X113399538Y-86201028D01*
X113515778Y-85868831D01*
X113594094Y-85525708D01*
X113633500Y-85175974D01*
X113633500Y-84824026D01*
X113632080Y-84811426D01*
X113622036Y-84722284D01*
X113594094Y-84474292D01*
X113537372Y-84225780D01*
X114114154Y-84225780D01*
X114133536Y-85397877D01*
X114191660Y-86568671D01*
X114288464Y-87736938D01*
X114388313Y-88595758D01*
X114422697Y-88891500D01*
X114423843Y-88901351D01*
X114597639Y-90060608D01*
X114809684Y-91213566D01*
X115059722Y-92358828D01*
X115347488Y-93495187D01*
X115672681Y-94621456D01*
X116034924Y-95736327D01*
X116433829Y-96838604D01*
X116433834Y-96838617D01*
X116868970Y-97927116D01*
X117339858Y-99000633D01*
X117845983Y-100057993D01*
X118078770Y-100505675D01*
X118386792Y-101098045D01*
X118961687Y-102119635D01*
X119570057Y-103121679D01*
X120101424Y-103934996D01*
X120211214Y-104103042D01*
X120884472Y-105062677D01*
X121589090Y-105999526D01*
X122137559Y-106680658D01*
X122324301Y-106912569D01*
X123089291Y-107800796D01*
X123883239Y-108663253D01*
X124705267Y-109498987D01*
X125554481Y-110307087D01*
X126429917Y-111086639D01*
X126429935Y-111086655D01*
X127330695Y-111836860D01*
X128255766Y-112556871D01*
X129204137Y-113245904D01*
X130174772Y-113903203D01*
X130545145Y-114136534D01*
X131166622Y-114528058D01*
X132178545Y-115119753D01*
X132178562Y-115119762D01*
X133209527Y-115677692D01*
X134258375Y-116201230D01*
X135323959Y-116689803D01*
X135323974Y-116689809D01*
X135323980Y-116689812D01*
X136405106Y-117142875D01*
X136922067Y-117339684D01*
X137500659Y-117559958D01*
X138218504Y-117806394D01*
X138609404Y-117940590D01*
X139730112Y-118284351D01*
X140352647Y-118452998D01*
X140861577Y-118590870D01*
X142002561Y-118859813D01*
X143151813Y-119090883D01*
X144308077Y-119283830D01*
X145470087Y-119438441D01*
X146636575Y-119554547D01*
X146852151Y-119568825D01*
X146918799Y-119593286D01*
X146961644Y-119649897D01*
X146967082Y-119720685D01*
X146933385Y-119783175D01*
X146923765Y-119791941D01*
X146920868Y-119794318D01*
X146794324Y-119920862D01*
X146794319Y-119920869D01*
X146694899Y-120069662D01*
X146626414Y-120234996D01*
X146591500Y-120410518D01*
X146591500Y-120410521D01*
X146591500Y-120589479D01*
X146626413Y-120765000D01*
X146694898Y-120930336D01*
X146794322Y-121079135D01*
X146920865Y-121205678D01*
X147069664Y-121305102D01*
X147206628Y-121361835D01*
X147234997Y-121373586D01*
X147234998Y-121373586D01*
X147235000Y-121373587D01*
X147395236Y-121405459D01*
X147458145Y-121438366D01*
X147493277Y-121500061D01*
X147489477Y-121570956D01*
X147449216Y-121627547D01*
X147408713Y-121659847D01*
X147159844Y-121908716D01*
X146940414Y-122183875D01*
X146753168Y-122481874D01*
X146753163Y-122481883D01*
X146600466Y-122798962D01*
X146600455Y-122798989D01*
X146484223Y-123131162D01*
X146405906Y-123474288D01*
X146366500Y-123824024D01*
X146366500Y-124175975D01*
X146405906Y-124525711D01*
X146484223Y-124868837D01*
X146600455Y-125201010D01*
X146600466Y-125201037D01*
X146753163Y-125518116D01*
X146753168Y-125518125D01*
X146940414Y-125816124D01*
X147159844Y-126091283D01*
X147408716Y-126340155D01*
X147683875Y-126559585D01*
X147683877Y-126559586D01*
X147981879Y-126746834D01*
X148298972Y-126899538D01*
X148298988Y-126899543D01*
X148298989Y-126899544D01*
X148631162Y-127015776D01*
X148631165Y-127015776D01*
X148631169Y-127015778D01*
X148974292Y-127094094D01*
X149222284Y-127122036D01*
X149324024Y-127133500D01*
X149324026Y-127133500D01*
X149675976Y-127133500D01*
X149764795Y-127123492D01*
X150025708Y-127094094D01*
X150368831Y-127015778D01*
X150701028Y-126899538D01*
X151018121Y-126746834D01*
X151316123Y-126559586D01*
X151371155Y-126515699D01*
X151591283Y-126340155D01*
X151840155Y-126091283D01*
X152059585Y-125816124D01*
X152246831Y-125518125D01*
X152246834Y-125518121D01*
X152399538Y-125201028D01*
X152515778Y-124868831D01*
X152594094Y-124525708D01*
X152633500Y-124175974D01*
X152633500Y-123824026D01*
X152594094Y-123474292D01*
X152515778Y-123131169D01*
X152399538Y-122798972D01*
X152246834Y-122481879D01*
X152059586Y-122183877D01*
X152059585Y-122183875D01*
X151840155Y-121908716D01*
X151591283Y-121659844D01*
X151316124Y-121440414D01*
X151018125Y-121253168D01*
X151018116Y-121253163D01*
X150701037Y-121100466D01*
X150701032Y-121100464D01*
X150701028Y-121100462D01*
X150701022Y-121100459D01*
X150701010Y-121100455D01*
X150368837Y-120984223D01*
X150025704Y-120905904D01*
X149997593Y-120902737D01*
X149932141Y-120875233D01*
X149891949Y-120816708D01*
X149889778Y-120745745D01*
X149926318Y-120684873D01*
X149942385Y-120673546D01*
X149941821Y-120672702D01*
X149946968Y-120669263D01*
X150079389Y-120580783D01*
X150192003Y-120468169D01*
X150280483Y-120335748D01*
X150341430Y-120188611D01*
X150372500Y-120032410D01*
X150372500Y-120032408D01*
X150373027Y-120027057D01*
X150399603Y-119961222D01*
X150457553Y-119920207D01*
X150494253Y-119913464D01*
X151328034Y-119885882D01*
X152501914Y-119808130D01*
X153672581Y-119691608D01*
X154838755Y-119536443D01*
X155999162Y-119342805D01*
X157152532Y-119110907D01*
X158297604Y-118841000D01*
X159220925Y-118590868D01*
X159433122Y-118533383D01*
X160557845Y-118188390D01*
X160557843Y-118188390D01*
X160557855Y-118188387D01*
X161670564Y-117806394D01*
X162770034Y-117387820D01*
X162770032Y-117387820D01*
X162770042Y-117387817D01*
X163438772Y-117107574D01*
X163855063Y-116933122D01*
X164924465Y-116442798D01*
X165977071Y-115917385D01*
X167011730Y-115357456D01*
X168027309Y-114763623D01*
X169022700Y-114136537D01*
X169996812Y-113476883D01*
X170948582Y-112785382D01*
X171876967Y-112062790D01*
X172780954Y-111309898D01*
X173659554Y-110527529D01*
X174511805Y-109716538D01*
X175336776Y-108877812D01*
X176133565Y-108012268D01*
X176901301Y-107120853D01*
X177639144Y-106204542D01*
X178346287Y-105264335D01*
X179021957Y-104301263D01*
X179665415Y-103316377D01*
X180275958Y-102310754D01*
X180852917Y-101285495D01*
X181395663Y-100241720D01*
X181903601Y-99180571D01*
X182376176Y-98103208D01*
X182812872Y-97010809D01*
X183213210Y-95904569D01*
X183576754Y-94785696D01*
X183903105Y-93655416D01*
X184127408Y-92769664D01*
X184191906Y-92514968D01*
X184442840Y-91365603D01*
X184442844Y-91365585D01*
X184655641Y-90208539D01*
X184658196Y-90191500D01*
X184730304Y-89710521D01*
X184830066Y-89045090D01*
X184965928Y-87876509D01*
X185063079Y-86704076D01*
X185121412Y-85529071D01*
X185125549Y-85278874D01*
X185146674Y-85211097D01*
X185201091Y-85165498D01*
X185271522Y-85156557D01*
X185335606Y-85187114D01*
X185372997Y-85247466D01*
X185376739Y-85266853D01*
X185405906Y-85525711D01*
X185484223Y-85868837D01*
X185600455Y-86201010D01*
X185600466Y-86201037D01*
X185753163Y-86518116D01*
X185753168Y-86518125D01*
X185940414Y-86816124D01*
X186159844Y-87091283D01*
X186408716Y-87340155D01*
X186683875Y-87559585D01*
X186981874Y-87746831D01*
X186981879Y-87746834D01*
X187298972Y-87899538D01*
X187298988Y-87899543D01*
X187298989Y-87899544D01*
X187631162Y-88015776D01*
X187631165Y-88015776D01*
X187631169Y-88015778D01*
X187974292Y-88094094D01*
X188222284Y-88122036D01*
X188324024Y-88133500D01*
X188324026Y-88133500D01*
X188675976Y-88133500D01*
X188764795Y-88123492D01*
X189025708Y-88094094D01*
X189368831Y-88015778D01*
X189701028Y-87899538D01*
X190018121Y-87746834D01*
X190316123Y-87559586D01*
X190385812Y-87504011D01*
X190591283Y-87340155D01*
X190840155Y-87091283D01*
X191059585Y-86816124D01*
X191082830Y-86779130D01*
X191246834Y-86518121D01*
X191399538Y-86201028D01*
X191515778Y-85868831D01*
X191594094Y-85525708D01*
X191633500Y-85175974D01*
X191633500Y-84824026D01*
X191632080Y-84811426D01*
X191622036Y-84722284D01*
X191594094Y-84474292D01*
X191515778Y-84131169D01*
X191399538Y-83798972D01*
X191246834Y-83481879D01*
X191059586Y-83183877D01*
X191059585Y-83183875D01*
X190840155Y-82908716D01*
X190591283Y-82659844D01*
X190316124Y-82440414D01*
X190018125Y-82253168D01*
X190018116Y-82253163D01*
X189701037Y-82100466D01*
X189701032Y-82100464D01*
X189701028Y-82100462D01*
X189701022Y-82100459D01*
X189701010Y-82100455D01*
X189368837Y-81984223D01*
X189025711Y-81905906D01*
X188675976Y-81866500D01*
X188675974Y-81866500D01*
X188324026Y-81866500D01*
X188324024Y-81866500D01*
X187974288Y-81905906D01*
X187631162Y-81984223D01*
X187298989Y-82100455D01*
X187298962Y-82100466D01*
X186981883Y-82253163D01*
X186981874Y-82253168D01*
X186683875Y-82440414D01*
X186408716Y-82659844D01*
X186159844Y-82908716D01*
X185940414Y-83183875D01*
X185753168Y-83481874D01*
X185753163Y-83481883D01*
X185600466Y-83798962D01*
X185600455Y-83798989D01*
X185484223Y-84131162D01*
X185405906Y-84474288D01*
X185387629Y-84636496D01*
X185360125Y-84701949D01*
X185301601Y-84742142D01*
X185230637Y-84744313D01*
X185169765Y-84707775D01*
X185138310Y-84644126D01*
X185136439Y-84620317D01*
X185140863Y-84352780D01*
X185121412Y-83176489D01*
X185063079Y-82001484D01*
X184965928Y-80829051D01*
X184830066Y-79660470D01*
X184694419Y-78755677D01*
X184655645Y-78497045D01*
X184652573Y-78480339D01*
X184442844Y-77339975D01*
X184432486Y-77292530D01*
X184191906Y-76190591D01*
X183903109Y-75050160D01*
X183903105Y-75050144D01*
X183576754Y-73919864D01*
X183213210Y-72800991D01*
X182812872Y-71694751D01*
X182376176Y-70602352D01*
X181903601Y-69524989D01*
X181395663Y-68463840D01*
X180852917Y-67420065D01*
X180742322Y-67223538D01*
X180275961Y-66394811D01*
X180237780Y-66331924D01*
X179802066Y-65614260D01*
X179665411Y-65389176D01*
X179021960Y-64404302D01*
X179021957Y-64404297D01*
X178346287Y-63441225D01*
X177639144Y-62501018D01*
X176901301Y-61584707D01*
X176861930Y-61538994D01*
X176133553Y-60693278D01*
X175336788Y-59827761D01*
X175336787Y-59827760D01*
X175336776Y-59827748D01*
X174511805Y-58989022D01*
X173659554Y-58178031D01*
X172780954Y-57395662D01*
X171876967Y-56642770D01*
X170948582Y-55920178D01*
X170913488Y-55894681D01*
X169996810Y-55228675D01*
X169022703Y-54569025D01*
X168027308Y-53941936D01*
X167011732Y-53348105D01*
X166826043Y-53247615D01*
X165977071Y-52788175D01*
X164924465Y-52262762D01*
X163855063Y-51772438D01*
X163855060Y-51772437D01*
X163855041Y-51772428D01*
X162770042Y-51317742D01*
X161670567Y-50899167D01*
X160557845Y-50517169D01*
X159433122Y-50172176D01*
X158297609Y-49864561D01*
X157152543Y-49594655D01*
X155999171Y-49362756D01*
X154838731Y-49169113D01*
X153672578Y-49013951D01*
X152501939Y-48897432D01*
X152501924Y-48897431D01*
X152501914Y-48897430D01*
X151330515Y-48819842D01*
X151263867Y-48795382D01*
X151221022Y-48738771D01*
X151215584Y-48667983D01*
X151249281Y-48605493D01*
X151271808Y-48587431D01*
X151316123Y-48559586D01*
X151407844Y-48486441D01*
X151591283Y-48340155D01*
X151840155Y-48091283D01*
X152059585Y-47816124D01*
X152246831Y-47518125D01*
X152246834Y-47518121D01*
X152399538Y-47201028D01*
X152515778Y-46868831D01*
X152594094Y-46525708D01*
X152633500Y-46175974D01*
X152633500Y-45824026D01*
X152594094Y-45474292D01*
X152515778Y-45131169D01*
X152399538Y-44798972D01*
X152246834Y-44481879D01*
X152059586Y-44183877D01*
X152059585Y-44183875D01*
X151840155Y-43908716D01*
X151591283Y-43659844D01*
X151316124Y-43440414D01*
X151018125Y-43253168D01*
X151018116Y-43253163D01*
X150701037Y-43100466D01*
X150701032Y-43100464D01*
X150701028Y-43100462D01*
X150701022Y-43100459D01*
X150701010Y-43100455D01*
X150368837Y-42984223D01*
X150025711Y-42905906D01*
X149675976Y-42866500D01*
X149675974Y-42866500D01*
X149324026Y-42866500D01*
X149324024Y-42866500D01*
X148974288Y-42905906D01*
X148631162Y-42984223D01*
X148298989Y-43100455D01*
X148298962Y-43100466D01*
X147981883Y-43253163D01*
X147981874Y-43253168D01*
X147683875Y-43440414D01*
X147408716Y-43659844D01*
X147159844Y-43908716D01*
X146940414Y-44183875D01*
X146753168Y-44481874D01*
X146753163Y-44481883D01*
X146600466Y-44798962D01*
X146600455Y-44798989D01*
X146484223Y-45131162D01*
X146405906Y-45474288D01*
X146366500Y-45824024D01*
X146366500Y-46175975D01*
X146405906Y-46525711D01*
X146484223Y-46868837D01*
X146600455Y-47201010D01*
X146600466Y-47201037D01*
X146753163Y-47518116D01*
X146753168Y-47518125D01*
X146940414Y-47816124D01*
X147159844Y-48091283D01*
X147408716Y-48340155D01*
X147683875Y-48559585D01*
X147740796Y-48595351D01*
X147787834Y-48648530D01*
X147798654Y-48718697D01*
X147769821Y-48783575D01*
X147710489Y-48822566D01*
X147682087Y-48827762D01*
X146636575Y-48897013D01*
X146636566Y-48897013D01*
X146636549Y-48897015D01*
X145470089Y-49013118D01*
X144308100Y-49167726D01*
X143151803Y-49360678D01*
X142002549Y-49591749D01*
X140861571Y-49860691D01*
X139730112Y-50167208D01*
X138609404Y-50510969D01*
X137500655Y-50891603D01*
X136405106Y-51308684D01*
X135323980Y-51761747D01*
X134258371Y-52250332D01*
X133209523Y-52773870D01*
X132178545Y-53331806D01*
X131166622Y-53923501D01*
X130174768Y-54548359D01*
X129204138Y-55205654D01*
X128255776Y-55894681D01*
X127330694Y-56614700D01*
X126429917Y-57364920D01*
X125554481Y-58144472D01*
X124705267Y-58952572D01*
X123883239Y-59788306D01*
X123089291Y-60650763D01*
X122324301Y-61538990D01*
X121775829Y-62220126D01*
X121589090Y-62452034D01*
X121517280Y-62547511D01*
X120884469Y-63388886D01*
X120211210Y-64348523D01*
X119570057Y-65329880D01*
X118961687Y-66331924D01*
X118386792Y-67353514D01*
X117910410Y-68269664D01*
X117845983Y-68393567D01*
X117799959Y-68489717D01*
X117339854Y-69450935D01*
X116974327Y-70284254D01*
X116868970Y-70524444D01*
X116685326Y-70983833D01*
X116433829Y-71612955D01*
X116034924Y-72715232D01*
X115672681Y-73830103D01*
X115347488Y-74956372D01*
X115059722Y-76092731D01*
X114809684Y-77237993D01*
X114597639Y-78390951D01*
X114423843Y-79550208D01*
X114423841Y-79550223D01*
X114400682Y-79749420D01*
X114288464Y-80714621D01*
X114191660Y-81882888D01*
X114133536Y-83053682D01*
X114114154Y-84225780D01*
X113537372Y-84225780D01*
X113515778Y-84131169D01*
X113399538Y-83798972D01*
X113246834Y-83481879D01*
X113059586Y-83183877D01*
X113059585Y-83183875D01*
X112840155Y-82908716D01*
X112591283Y-82659844D01*
X112316124Y-82440414D01*
X112018125Y-82253168D01*
X112018116Y-82253163D01*
X111701037Y-82100466D01*
X111701032Y-82100464D01*
X111701028Y-82100462D01*
X111701022Y-82100459D01*
X111701010Y-82100455D01*
X111368837Y-81984223D01*
X111025711Y-81905906D01*
X110675976Y-81866500D01*
X110675974Y-81866500D01*
X110324026Y-81866500D01*
X110324024Y-81866500D01*
X109974288Y-81905906D01*
X109631162Y-81984223D01*
X109298989Y-82100455D01*
X109298962Y-82100466D01*
X108981883Y-82253163D01*
X108981874Y-82253168D01*
X108683875Y-82440414D01*
X108408716Y-82659844D01*
X108159844Y-82908716D01*
X107940414Y-83183875D01*
X107753168Y-83481874D01*
X107753163Y-83481883D01*
X107600466Y-83798962D01*
X107600455Y-83798989D01*
X107484223Y-84131162D01*
X107405906Y-84474288D01*
X107366500Y-84824024D01*
X99700500Y-84824024D01*
X99700500Y-45826500D01*
X99720502Y-45758379D01*
X99774158Y-45711886D01*
X99826500Y-45700500D01*
X110039882Y-45700500D01*
X110113574Y-45669976D01*
X110169976Y-45613574D01*
X110200500Y-45539882D01*
X110200500Y-35326500D01*
X110220502Y-35258379D01*
X110274158Y-35211886D01*
X110326500Y-35200500D01*
X188673500Y-35200500D01*
X188741621Y-35220502D01*
G37*
%TD.AperFunction*%
%TD*%
M02*
