M48
; DRILL file {KiCad 9.0.0} date 2025-09-25T18:34:07-0700
; FORMAT={-:-/ absolute / inch / decimal}
; #@! TF.CreationDate,2025-09-25T18:34:07-07:00
; #@! TF.GenerationSoftware,Kicad,Pcbnew,9.0.0
; #@! TF.FileFunction,Plated,1,4,PTH
FMAT,2
INCH
; #@! TA.AperFunction,Plated,PTH,ComponentDrill
T1C0.0118
; #@! TA.AperFunction,Plated,PTH,ViaDrill
T2C0.0157
; #@! TA.AperFunction,Plated,PTH,ComponentDrill
T3C0.0335
; #@! TA.AperFunction,Plated,PTH,ComponentDrill
T4C0.1260
%
G90
G05
T1
X5.8883Y-2.4592
X5.8883Y-4.1728
X5.8883Y-4.7226
T2
X4.2795Y-3.0669
X4.3717Y-2.4783
X4.3858Y-2.9606
X4.5157Y-4.748
X4.5945Y-4.8346
X4.7201Y-4.9906
X4.9055Y-4.3622
X4.9724Y-1.8228
X4.9843Y-4.4331
X5.1732Y-2.0906
X5.2047Y-3.7953
X5.3228Y-3.7559
X5.3228Y-4.8307
X5.3268Y-3.874
X5.3534Y-3.7216
X5.3701Y-3.0276
X5.372Y-3.8091
X5.3821Y-3.6151
X5.4121Y-3.8886
X5.4213Y-4.7913
X5.437Y-3.0945
X5.4413Y-3.7341
X5.4528Y-3.8858
X5.4626Y-4.0157
X5.4803Y-2.6063
X5.4921Y-3.5866
X5.4921Y-3.8504
X5.498Y-2.9055
X5.5061Y-3.7619
X5.5248Y-3.9028
X5.5434Y-3.7358
X5.5591Y-3.6693
X5.563Y-2.9685
X5.5819Y-3.7276
X5.5906Y-3.2165
X5.6165Y-3.6406
X5.626Y-3.4106
X5.6457Y-3.6142
X5.6457Y-3.7402
X5.6565Y-3.2707
X5.6575Y-4.1024
X5.6732Y-3.5354
X5.7028Y-3.1181
X5.7362Y-3.6043
X5.7599Y-3.1673
X5.7835Y-3.6378
X5.8071Y-4.7441
X5.8277Y-3.112
X5.8553Y-3.0719
X5.9502Y-3.5669
X5.9547Y-3.0492
X5.9744Y-3.6594
X5.9862Y-3.0728
X6.1077Y-3.4108
X6.1457Y-3.3937
X6.146Y-3.3194
X6.1575Y-3.4606
X6.3031Y-2.6398
X6.311Y-2.7047
X6.3346Y-4.0
X6.4252Y-3.9173
X6.4469Y-3.002
X6.478Y-1.8276
X6.5177Y-2.8602
X6.5472Y-2.0551
X6.6496Y-3.0118
X6.7571Y-4.8638
X6.7835Y-4.4606
X6.8898Y-4.3701
X7.2638Y-2.7913
X7.2638Y-2.9016
X7.4213Y-4.2323
X7.4409Y-4.5236
X7.4724Y-2.7008
X7.5472Y-4.5197
X7.6378Y-2.8583
T3
X6.2708Y-2.9334
X6.3265Y-2.8777
X6.3265Y-2.989
X6.3822Y-2.822
X6.3822Y-2.9334
X6.4378Y-2.8777
T4
X4.3504Y-3.3465
X5.8858Y-1.811
X5.8858Y-4.8819
X7.4213Y-3.3465
M30
