%TF.GenerationSoftware,KiCad,Pcbnew,9.0.0*%
%TF.CreationDate,2025-11-19T22:29:22-08:00*%
%TF.ProjectId,2U_XY_V1,32555f58-595f-4563-912e-6b696361645f,1.0*%
%TF.SameCoordinates,Original*%
%TF.FileFunction,Copper,L3,Inr*%
%TF.FilePolarity,Positive*%
%FSLAX46Y46*%
G04 Gerber Fmt 4.6, Leading zero omitted, Abs format (unit mm)*
G04 Created by KiCad (PCBNEW 9.0.0) date 2025-11-19 22:29:22*
%MOMM*%
%LPD*%
G01*
G04 APERTURE LIST*
G04 Aperture macros list*
%AMRoundRect*
0 Rectangle with rounded corners*
0 $1 Rounding radius*
0 $2 $3 $4 $5 $6 $7 $8 $9 X,Y pos of 4 corners*
0 Add a 4 corners polygon primitive as box body*
4,1,4,$2,$3,$4,$5,$6,$7,$8,$9,$2,$3,0*
0 Add four circle primitives for the rounded corners*
1,1,$1+$1,$2,$3*
1,1,$1+$1,$4,$5*
1,1,$1+$1,$6,$7*
1,1,$1+$1,$8,$9*
0 Add four rect primitives between the rounded corners*
20,1,$1+$1,$2,$3,$4,$5,0*
20,1,$1+$1,$4,$5,$6,$7,0*
20,1,$1+$1,$6,$7,$8,$9,0*
20,1,$1+$1,$8,$9,$2,$3,0*%
G04 Aperture macros list end*
%TA.AperFunction,ComponentPad*%
%ADD10C,5.700000*%
%TD*%
%TA.AperFunction,ComponentPad*%
%ADD11C,5.000000*%
%TD*%
%TA.AperFunction,ComponentPad*%
%ADD12RoundRect,0.250000X-0.350000X-0.575000X0.350000X-0.575000X0.350000X0.575000X-0.350000X0.575000X0*%
%TD*%
%TA.AperFunction,ComponentPad*%
%ADD13O,1.200000X1.650000*%
%TD*%
%TA.AperFunction,ViaPad*%
%ADD14C,0.800000*%
%TD*%
%TA.AperFunction,Conductor*%
%ADD15C,0.400000*%
%TD*%
%TA.AperFunction,Conductor*%
%ADD16C,0.250000*%
%TD*%
G04 APERTURE END LIST*
D10*
%TO.N,unconnected-(J2-Pin_1-Pad1)*%
%TO.C,J2*%
X171800001Y-41000000D03*
%TD*%
%TO.N,unconnected-(J4-Pin_1-Pad1)*%
%TO.C,J4*%
X247800001Y-41000000D03*
%TD*%
%TO.N,unconnected-(J3-Pin_1-Pad1)*%
%TO.C,J3*%
X171800001Y-243750000D03*
%TD*%
D11*
%TO.N,/SOL_OUT*%
%TO.C,SC1*%
X222250000Y-85500000D03*
%TO.N,Net-(SC1---Pad2)*%
X197250000Y-85500000D03*
%TO.N,/SOL_OUT*%
X197250000Y-134000000D03*
%TO.N,Net-(SC1---Pad2)*%
X222250000Y-134000000D03*
%TD*%
D10*
%TO.N,unconnected-(J4-Pin_1-Pad1)*%
%TO.C,J14*%
X247800001Y-154800000D03*
%TD*%
%TO.N,unconnected-(J4-Pin_1-Pad1)*%
%TO.C,J114*%
X247800001Y-130000000D03*
%TD*%
%TO.N,unconnected-(J5-Pin_1-Pad1)*%
%TO.C,J5*%
X247800000Y-243800000D03*
%TD*%
D11*
%TO.N,Net-(SC1---Pad2)*%
%TO.C,SC2*%
X222250000Y-178000000D03*
%TO.N,GND*%
X197250000Y-178000000D03*
%TO.N,Net-(SC1---Pad2)*%
X197250000Y-226500000D03*
%TO.N,GND*%
X222250000Y-226500000D03*
%TD*%
D10*
%TO.N,unconnected-(J2-Pin_1-Pad1)*%
%TO.C,J12*%
X171800001Y-154800000D03*
%TD*%
%TO.N,unconnected-(J2-Pin_1-Pad1)*%
%TO.C,J112*%
X171800001Y-130000000D03*
%TD*%
D12*
%TO.N,GND*%
%TO.C,CN1*%
X207000000Y-58020000D03*
D13*
%TO.N,SDAIN*%
X207000000Y-56019999D03*
%TO.N,VSOLAR*%
X209000001Y-58020000D03*
%TO.N,+3V3*%
X209000000Y-56020000D03*
%TO.N,VSOLAR*%
X211000000Y-58020000D03*
%TO.N,SCLIN*%
X211000001Y-56020000D03*
%TD*%
D14*
%TO.N,GND*%
X216319998Y-58715000D03*
X213419999Y-54990000D03*
X211414772Y-53956603D03*
X214326520Y-54103480D03*
X215411297Y-51766078D03*
X208990000Y-51860000D03*
X179980000Y-59700000D03*
X210710000Y-47590153D03*
X180090000Y-64300000D03*
X205630000Y-49590000D03*
X217920000Y-58640000D03*
%TO.N,+3V3*%
X219150000Y-51200000D03*
X209090000Y-64140000D03*
X202920000Y-51780000D03*
X210826736Y-53147766D03*
X213750000Y-61050000D03*
X209940000Y-64100000D03*
X216060000Y-61110000D03*
X203980000Y-53290000D03*
X207230000Y-47710000D03*
X218760000Y-55530000D03*
X216780000Y-49550000D03*
X218994998Y-57980000D03*
%TO.N,VSOLAR*%
X221430000Y-62990000D03*
X219900000Y-62970000D03*
X222780000Y-63000000D03*
%TO.N,/SCL*%
X215590000Y-53720000D03*
X205590000Y-50890000D03*
%TO.N,/SDA*%
X212820000Y-50480000D03*
%TO.N,Net-(D4-A)*%
X207430000Y-54160000D03*
%TO.N,Net-(U3-OUT+)*%
X239820000Y-242660000D03*
X216769999Y-59709999D03*
X229940000Y-227900000D03*
%TO.N,SCLIN*%
X211785153Y-48315153D03*
%TD*%
D15*
%TO.N,+3V3*%
X209000000Y-56020000D02*
X210000001Y-57020001D01*
X209150000Y-64100000D02*
X209140000Y-64090000D01*
X210000001Y-57020001D02*
X210000001Y-64039999D01*
X209940000Y-64100000D02*
X209150000Y-64100000D01*
X210000001Y-64039999D02*
X209940000Y-64100000D01*
D16*
%TO.N,/SCL*%
X205590000Y-50890000D02*
X212138346Y-50890000D01*
X212138346Y-50890000D02*
X214968346Y-53720000D01*
X214968346Y-53720000D02*
X215590000Y-53720000D01*
%TO.N,Net-(U3-OUT+)*%
X176890000Y-74510000D02*
X176890000Y-238210000D01*
X184890000Y-240210000D02*
X233890000Y-240210000D01*
X232890000Y-233710000D02*
X232890000Y-79260000D01*
X188390000Y-79510000D02*
X187890000Y-80010000D01*
X186390000Y-79260000D02*
X186390000Y-233460000D01*
X230640000Y-233710000D02*
X231390000Y-232960000D01*
X234640000Y-72010000D02*
X184640000Y-72010000D01*
X235890000Y-244210000D02*
X241890000Y-238210000D01*
X183390000Y-234960000D02*
X186140000Y-237710000D01*
X180890000Y-76510000D02*
X180890000Y-236210000D01*
X232390000Y-237210000D02*
X234890000Y-234710000D01*
X232140000Y-236710000D02*
X234390000Y-234460000D01*
X232140000Y-77010000D02*
X187140000Y-77010000D01*
X236890000Y-235710000D02*
X236890000Y-77260000D01*
X186890000Y-236210000D02*
X231890000Y-236210000D01*
X234140000Y-240710000D02*
X238390000Y-236460000D01*
X187390000Y-235210000D02*
X231390000Y-235210000D01*
X234390000Y-241210000D02*
X238890000Y-236710000D01*
X241390000Y-237960000D02*
X241390000Y-75010000D01*
X187390000Y-232960000D02*
X188140000Y-233710000D01*
X186390000Y-75510000D02*
X183890000Y-78010000D01*
X233890000Y-73510000D02*
X185390000Y-73510000D01*
X235140000Y-242710000D02*
X240390000Y-237460000D01*
X232390000Y-233460000D02*
X232390000Y-79510000D01*
X186640000Y-76010000D02*
X184390000Y-78260000D01*
X231390000Y-80010000D02*
X230890000Y-79510000D01*
X240890000Y-237710000D02*
X240890000Y-75260000D01*
X231640000Y-235710000D02*
X233390000Y-233960000D01*
X188390000Y-80260000D02*
X188390000Y-232460000D01*
X177890000Y-237710000D02*
X183390000Y-243210000D01*
X177390000Y-74760000D02*
X177390000Y-237960000D01*
X235890000Y-77760000D02*
X233140000Y-75010000D01*
X238890000Y-76260000D02*
X234640000Y-72010000D01*
X236390000Y-77510000D02*
X233390000Y-74510000D01*
X184140000Y-241710000D02*
X234640000Y-241710000D01*
X180390000Y-76260000D02*
X180390000Y-236460000D01*
X239890000Y-237210000D02*
X239890000Y-75760000D01*
X231390000Y-232960000D02*
X231390000Y-80010000D01*
X187140000Y-235710000D02*
X231640000Y-235710000D01*
X235390000Y-234960000D02*
X235390000Y-78010000D01*
X232640000Y-76010000D02*
X186640000Y-76010000D01*
X185390000Y-239210000D02*
X233390000Y-239210000D01*
X184640000Y-72010000D02*
X180390000Y-76260000D01*
X233890000Y-234210000D02*
X233890000Y-78760000D01*
X231890000Y-77510000D02*
X187390000Y-77510000D01*
X183390000Y-77760000D02*
X183390000Y-234960000D01*
X187640000Y-234710000D02*
X231140000Y-234710000D01*
X184640000Y-240710000D02*
X234140000Y-240710000D01*
X237890000Y-236210000D02*
X237890000Y-76760000D01*
X180390000Y-236460000D02*
X184640000Y-240710000D01*
X184390000Y-234460000D02*
X186640000Y-236710000D01*
X231890000Y-236210000D02*
X233890000Y-234210000D01*
X188640000Y-232710000D02*
X230140000Y-232710000D01*
X186890000Y-76510000D02*
X184890000Y-78510000D01*
X233390000Y-79010000D02*
X231890000Y-77510000D01*
X216840000Y-64520000D02*
X216840000Y-59780000D01*
X183390000Y-69510000D02*
X177890000Y-75010000D01*
X237390000Y-77010000D02*
X233890000Y-73510000D01*
X187890000Y-232710000D02*
X188390000Y-233210000D01*
X188140000Y-233710000D02*
X230640000Y-233710000D01*
X183390000Y-243210000D02*
X235390000Y-243210000D01*
X185890000Y-238210000D02*
X232890000Y-238210000D01*
X184890000Y-72510000D02*
X180890000Y-76510000D01*
X183140000Y-243710000D02*
X235640000Y-243710000D01*
X186140000Y-75010000D02*
X183390000Y-77760000D01*
X180890000Y-236210000D02*
X184890000Y-240210000D01*
X181390000Y-235960000D02*
X185140000Y-239710000D01*
X185890000Y-233710000D02*
X187390000Y-235210000D01*
X234140000Y-73010000D02*
X185140000Y-73010000D01*
X187390000Y-77510000D02*
X185890000Y-79010000D01*
X240390000Y-237460000D02*
X240390000Y-75510000D01*
X182890000Y-68510000D02*
X176890000Y-74510000D01*
X188390000Y-232460000D02*
X188640000Y-232710000D01*
X241390000Y-75010000D02*
X235890000Y-69510000D01*
X231890000Y-233210000D02*
X231890000Y-79760000D01*
X182390000Y-235460000D02*
X185640000Y-238710000D01*
X233640000Y-239710000D02*
X237390000Y-235960000D01*
X240890000Y-75260000D02*
X235640000Y-70010000D01*
X234890000Y-234710000D02*
X234890000Y-78260000D01*
X183890000Y-70510000D02*
X178890000Y-75510000D01*
X233140000Y-75010000D02*
X186140000Y-75010000D01*
X238390000Y-236460000D02*
X238390000Y-76510000D01*
X230890000Y-80260000D02*
X230640000Y-80010000D01*
X186390000Y-233460000D02*
X187640000Y-234710000D01*
X181390000Y-76760000D02*
X181390000Y-235960000D01*
X233390000Y-239210000D02*
X236890000Y-235710000D01*
X237390000Y-235960000D02*
X237390000Y-77010000D01*
X177390000Y-237960000D02*
X183140000Y-243710000D01*
X230430000Y-232420000D02*
X230430000Y-228390000D01*
X183890000Y-78010000D02*
X183890000Y-234710000D01*
X184140000Y-71010000D02*
X179390000Y-75760000D01*
X185890000Y-74510000D02*
X182890000Y-77510000D01*
X185390000Y-233960000D02*
X187140000Y-235710000D01*
X233640000Y-74010000D02*
X185640000Y-74010000D01*
X185140000Y-73010000D02*
X181390000Y-76760000D01*
X178890000Y-237210000D02*
X183890000Y-242210000D01*
X230640000Y-80010000D02*
X188640000Y-80010000D01*
X183890000Y-234710000D02*
X186390000Y-237210000D01*
X234890000Y-78260000D02*
X232640000Y-76010000D01*
X179390000Y-236960000D02*
X184140000Y-241710000D01*
X231890000Y-79760000D02*
X231140000Y-79010000D01*
X179890000Y-76010000D02*
X179890000Y-236710000D01*
X187640000Y-78010000D02*
X186390000Y-79260000D01*
X178890000Y-75510000D02*
X178890000Y-237210000D01*
X183640000Y-242710000D02*
X235140000Y-242710000D01*
X230890000Y-79510000D02*
X188390000Y-79510000D01*
X233390000Y-74510000D02*
X185890000Y-74510000D01*
X238890000Y-236710000D02*
X238890000Y-76260000D01*
X230140000Y-232710000D02*
X230430000Y-232420000D01*
X185390000Y-78760000D02*
X185390000Y-233960000D01*
X182890000Y-77510000D02*
X182890000Y-235210000D01*
X188140000Y-79010000D02*
X187390000Y-79760000D01*
X230390000Y-233210000D02*
X230890000Y-232710000D01*
X179890000Y-236710000D02*
X184390000Y-241210000D01*
X182890000Y-235210000D02*
X185890000Y-238210000D01*
X177890000Y-75010000D02*
X177890000Y-237710000D01*
X232890000Y-79260000D02*
X231640000Y-78010000D01*
X184890000Y-234210000D02*
X186890000Y-236210000D01*
X186140000Y-237710000D02*
X232640000Y-237710000D01*
X231390000Y-235210000D02*
X232890000Y-233710000D01*
X181890000Y-235710000D02*
X185390000Y-239210000D01*
X235390000Y-78010000D02*
X232890000Y-75510000D01*
X235640000Y-70010000D02*
X183640000Y-70010000D01*
X181890000Y-77010000D02*
X181890000Y-235710000D01*
X234640000Y-241710000D02*
X239390000Y-236960000D01*
X236140000Y-69010000D02*
X183140000Y-69010000D01*
X187890000Y-234210000D02*
X230890000Y-234210000D01*
X183640000Y-70010000D02*
X178390000Y-75260000D01*
X235890000Y-235210000D02*
X235890000Y-77760000D01*
X239390000Y-76010000D02*
X234890000Y-71510000D01*
X185140000Y-239710000D02*
X233640000Y-239710000D01*
X185640000Y-74010000D02*
X182390000Y-77260000D01*
X182390000Y-77260000D02*
X182390000Y-235460000D01*
X232890000Y-75510000D02*
X186390000Y-75510000D01*
X240390000Y-75510000D02*
X235390000Y-70510000D01*
X234890000Y-71510000D02*
X184390000Y-71510000D01*
X212850000Y-68510000D02*
X182890000Y-68510000D01*
X232390000Y-76510000D02*
X186890000Y-76510000D01*
X232390000Y-79510000D02*
X231390000Y-78510000D01*
X238390000Y-76510000D02*
X234390000Y-72510000D01*
X179390000Y-75760000D02*
X179390000Y-236960000D01*
X233390000Y-233960000D02*
X233390000Y-79010000D01*
X235390000Y-70510000D02*
X183890000Y-70510000D01*
X186390000Y-237210000D02*
X232390000Y-237210000D01*
X188390000Y-233210000D02*
X230390000Y-233210000D01*
X231140000Y-79010000D02*
X188140000Y-79010000D01*
X235140000Y-71010000D02*
X184140000Y-71010000D01*
X176890000Y-238210000D02*
X182890000Y-244210000D01*
X233890000Y-240210000D02*
X237890000Y-236210000D01*
X186890000Y-79510000D02*
X186890000Y-233210000D01*
X178390000Y-75260000D02*
X178390000Y-237460000D01*
X234890000Y-242210000D02*
X239890000Y-237210000D01*
X230430000Y-228390000D02*
X229940000Y-227900000D01*
X187890000Y-78510000D02*
X186890000Y-79510000D01*
X235390000Y-243210000D02*
X240890000Y-237710000D01*
X241890000Y-74760000D02*
X236140000Y-69010000D01*
X184390000Y-241210000D02*
X234390000Y-241210000D01*
X231140000Y-234710000D02*
X232390000Y-233460000D01*
X183140000Y-69010000D02*
X177390000Y-74760000D01*
X230890000Y-234210000D02*
X231890000Y-233210000D01*
X233890000Y-78760000D02*
X232140000Y-77010000D01*
X186890000Y-233210000D02*
X187890000Y-234210000D01*
X235890000Y-69510000D02*
X183390000Y-69510000D01*
X233140000Y-238710000D02*
X236390000Y-235460000D01*
X187390000Y-79760000D02*
X187390000Y-232960000D01*
X234390000Y-78510000D02*
X232390000Y-76510000D01*
X232640000Y-237710000D02*
X235390000Y-234960000D01*
X183890000Y-242210000D02*
X234890000Y-242210000D01*
X237890000Y-76760000D02*
X234140000Y-73010000D01*
X187140000Y-77010000D02*
X185390000Y-78760000D01*
X185390000Y-73510000D02*
X181890000Y-77010000D01*
X231640000Y-78010000D02*
X187640000Y-78010000D01*
X184390000Y-78260000D02*
X184390000Y-234460000D01*
X178390000Y-237460000D02*
X183640000Y-242710000D01*
X230890000Y-232710000D02*
X230890000Y-80260000D01*
X184890000Y-78510000D02*
X184890000Y-234210000D01*
X216840000Y-59780000D02*
X216769999Y-59709999D01*
X187890000Y-80010000D02*
X187890000Y-232710000D01*
X235640000Y-243710000D02*
X241390000Y-237960000D01*
X234390000Y-234460000D02*
X234390000Y-78510000D01*
X216840000Y-64520000D02*
X212850000Y-68510000D01*
X234390000Y-72510000D02*
X184890000Y-72510000D01*
X239890000Y-75760000D02*
X235140000Y-71010000D01*
X239390000Y-236960000D02*
X239390000Y-76010000D01*
X188640000Y-80010000D02*
X188390000Y-80260000D01*
X241890000Y-238210000D02*
X241890000Y-74760000D01*
X185890000Y-79010000D02*
X185890000Y-233710000D01*
X185640000Y-238710000D02*
X233140000Y-238710000D01*
X232890000Y-238210000D02*
X235890000Y-235210000D01*
X186640000Y-236710000D02*
X232140000Y-236710000D01*
X236890000Y-77260000D02*
X233640000Y-74010000D01*
X182890000Y-244210000D02*
X235890000Y-244210000D01*
X184390000Y-71510000D02*
X179890000Y-76010000D01*
X236390000Y-235460000D02*
X236390000Y-77510000D01*
X231390000Y-78510000D02*
X187890000Y-78510000D01*
%TD*%
%TA.AperFunction,Conductor*%
%TO.N,+3V3*%
G36*
X227597412Y-44235565D02*
G01*
X227781730Y-44252553D01*
X227793650Y-44254835D01*
X227968272Y-44306269D01*
X227979517Y-44310808D01*
X228076992Y-44361677D01*
X228140908Y-44395033D01*
X228151074Y-44401668D01*
X228293132Y-44515498D01*
X228301823Y-44523973D01*
X228419197Y-44663117D01*
X228426086Y-44673113D01*
X228514345Y-44832319D01*
X228519172Y-44843458D01*
X228574989Y-45016722D01*
X228577572Y-45028583D01*
X228599198Y-45212404D01*
X228599614Y-45218467D01*
X228787096Y-54666396D01*
X228911372Y-60929173D01*
X228911184Y-60935412D01*
X228895980Y-61124894D01*
X228893748Y-61137160D01*
X228842108Y-61316830D01*
X228837486Y-61328408D01*
X228751210Y-61494258D01*
X228744382Y-61504690D01*
X228626904Y-61650114D01*
X228618141Y-61658982D01*
X228474134Y-61778198D01*
X228463786Y-61785151D01*
X228298987Y-61873410D01*
X228287464Y-61878171D01*
X228108417Y-61931966D01*
X228096178Y-61934344D01*
X227906902Y-61951817D01*
X227900667Y-61952080D01*
X217227510Y-61868369D01*
X217183461Y-61849717D01*
X217165500Y-61805871D01*
X217165500Y-60189622D01*
X217183806Y-60145428D01*
X217250519Y-60078715D01*
X217329576Y-59941783D01*
X217370499Y-59789056D01*
X217370499Y-59630942D01*
X217329576Y-59478215D01*
X217250519Y-59341283D01*
X217138715Y-59229479D01*
X217001783Y-59150422D01*
X217001782Y-59150421D01*
X217001781Y-59150421D01*
X216872804Y-59115861D01*
X216834854Y-59086741D01*
X216828611Y-59039314D01*
X216834853Y-59024244D01*
X216879575Y-58946784D01*
X216920498Y-58794057D01*
X216920498Y-58635943D01*
X216900402Y-58560944D01*
X217319500Y-58560944D01*
X217319500Y-58719055D01*
X217319501Y-58719063D01*
X217360421Y-58871780D01*
X217360422Y-58871783D01*
X217360423Y-58871784D01*
X217439480Y-59008716D01*
X217551284Y-59120520D01*
X217681180Y-59195515D01*
X217688216Y-59199577D01*
X217688219Y-59199578D01*
X217781681Y-59224621D01*
X217840943Y-59240500D01*
X217840944Y-59240500D01*
X217999056Y-59240500D01*
X217999057Y-59240500D01*
X218151784Y-59199577D01*
X218288716Y-59120520D01*
X218400520Y-59008716D01*
X218479577Y-58871784D01*
X218520500Y-58719057D01*
X218520500Y-58560943D01*
X218479577Y-58408216D01*
X218400520Y-58271284D01*
X218288716Y-58159480D01*
X218192464Y-58103909D01*
X218151783Y-58080422D01*
X218151780Y-58080421D01*
X217999063Y-58039501D01*
X217999058Y-58039500D01*
X217999057Y-58039500D01*
X217840943Y-58039500D01*
X217840942Y-58039500D01*
X217840936Y-58039501D01*
X217688219Y-58080421D01*
X217688216Y-58080422D01*
X217591964Y-58135993D01*
X217551284Y-58159480D01*
X217551283Y-58159481D01*
X217551279Y-58159484D01*
X217439484Y-58271279D01*
X217439481Y-58271283D01*
X217360422Y-58408216D01*
X217360421Y-58408219D01*
X217319501Y-58560936D01*
X217319500Y-58560944D01*
X216900402Y-58560944D01*
X216879575Y-58483216D01*
X216800518Y-58346284D01*
X216688714Y-58234480D01*
X216592462Y-58178909D01*
X216551781Y-58155422D01*
X216551778Y-58155421D01*
X216399061Y-58114501D01*
X216399056Y-58114500D01*
X216399055Y-58114500D01*
X216240941Y-58114500D01*
X216240940Y-58114500D01*
X216240934Y-58114501D01*
X216088217Y-58155421D01*
X216088214Y-58155422D01*
X215991962Y-58210993D01*
X215951282Y-58234480D01*
X215951281Y-58234481D01*
X215951277Y-58234484D01*
X215839482Y-58346279D01*
X215839479Y-58346283D01*
X215760420Y-58483216D01*
X215760419Y-58483219D01*
X215719499Y-58635936D01*
X215719498Y-58635944D01*
X215719498Y-58794055D01*
X215719499Y-58794063D01*
X215760419Y-58946780D01*
X215760420Y-58946783D01*
X215783907Y-58987464D01*
X215839478Y-59083716D01*
X215951282Y-59195520D01*
X216088214Y-59274577D01*
X216088217Y-59274578D01*
X216217191Y-59309137D01*
X216255142Y-59338257D01*
X216261385Y-59385683D01*
X216255142Y-59400757D01*
X216210422Y-59478215D01*
X216210420Y-59478218D01*
X216169500Y-59630935D01*
X216169499Y-59630943D01*
X216169499Y-59789054D01*
X216169500Y-59789062D01*
X216210420Y-59941779D01*
X216210421Y-59941782D01*
X216210422Y-59941783D01*
X216289479Y-60078715D01*
X216401283Y-60190519D01*
X216483249Y-60237841D01*
X216512370Y-60275791D01*
X216514500Y-60291968D01*
X216514500Y-61799784D01*
X216496194Y-61843978D01*
X216452000Y-61862284D01*
X216451510Y-61862282D01*
X186554328Y-61627796D01*
X186548201Y-61627447D01*
X186362340Y-61607658D01*
X186350336Y-61605171D01*
X186174857Y-61550402D01*
X186163569Y-61545619D01*
X186002160Y-61457653D01*
X185992023Y-61450759D01*
X185850887Y-61332975D01*
X185842297Y-61324242D01*
X185726863Y-61181171D01*
X185720139Y-61170922D01*
X185696034Y-61124894D01*
X185634854Y-61008071D01*
X185630264Y-60996718D01*
X185578407Y-60820351D01*
X185576119Y-60808308D01*
X185559410Y-60622133D01*
X185559163Y-60616031D01*
X185601877Y-55716156D01*
X206199500Y-55716156D01*
X206199500Y-56323841D01*
X206230262Y-56478494D01*
X206290606Y-56624179D01*
X206378210Y-56755287D01*
X206489711Y-56866788D01*
X206539787Y-56900248D01*
X206566363Y-56940022D01*
X206557031Y-56986938D01*
X206525707Y-57011208D01*
X206437116Y-57042207D01*
X206327850Y-57122850D01*
X206247207Y-57232116D01*
X206247207Y-57232117D01*
X206202354Y-57360298D01*
X206202353Y-57360303D01*
X206199500Y-57390737D01*
X206199500Y-58649262D01*
X206202353Y-58679696D01*
X206202354Y-58679701D01*
X206247207Y-58807882D01*
X206247207Y-58807883D01*
X206287528Y-58862516D01*
X206327850Y-58917150D01*
X206437118Y-58997793D01*
X206565301Y-59042646D01*
X206595734Y-59045500D01*
X206595738Y-59045500D01*
X207404262Y-59045500D01*
X207404266Y-59045500D01*
X207434699Y-59042646D01*
X207562882Y-58997793D01*
X207672150Y-58917150D01*
X207752793Y-58807882D01*
X207797646Y-58679699D01*
X207800500Y-58649266D01*
X207800500Y-57390734D01*
X207797646Y-57360301D01*
X207752793Y-57232118D01*
X207672150Y-57122850D01*
X207597344Y-57067641D01*
X207562883Y-57042207D01*
X207474292Y-57011208D01*
X207438624Y-56979333D01*
X207435942Y-56931572D01*
X207460211Y-56900248D01*
X207510289Y-56866788D01*
X207621789Y-56755288D01*
X207709394Y-56624178D01*
X207709397Y-56624171D01*
X207752547Y-56520000D01*
X208139755Y-56520000D01*
X208202430Y-56671310D01*
X208202431Y-56671312D01*
X208300923Y-56818716D01*
X208426283Y-56944076D01*
X208551685Y-57027867D01*
X208578261Y-57067641D01*
X208568929Y-57114557D01*
X208551686Y-57131800D01*
X208489715Y-57173208D01*
X208489710Y-57173212D01*
X208378211Y-57284711D01*
X208290607Y-57415819D01*
X208230263Y-57561504D01*
X208199501Y-57716157D01*
X208199501Y-58323842D01*
X208230263Y-58478495D01*
X208290607Y-58624180D01*
X208378211Y-58755288D01*
X208489712Y-58866789D01*
X208620820Y-58954393D01*
X208620821Y-58954393D01*
X208620822Y-58954394D01*
X208766504Y-59014737D01*
X208921159Y-59045500D01*
X209078843Y-59045500D01*
X209233498Y-59014737D01*
X209379180Y-58954394D01*
X209510290Y-58866789D01*
X209621790Y-58755289D01*
X209709395Y-58624179D01*
X209769738Y-58478497D01*
X209800501Y-58323842D01*
X209800501Y-57716158D01*
X209800501Y-57716157D01*
X210199500Y-57716157D01*
X210199500Y-58323842D01*
X210230262Y-58478495D01*
X210290606Y-58624180D01*
X210378210Y-58755288D01*
X210489711Y-58866789D01*
X210620819Y-58954393D01*
X210620820Y-58954393D01*
X210620821Y-58954394D01*
X210766503Y-59014737D01*
X210921158Y-59045500D01*
X211078842Y-59045500D01*
X211233497Y-59014737D01*
X211379179Y-58954394D01*
X211510289Y-58866789D01*
X211621789Y-58755289D01*
X211709394Y-58624179D01*
X211769737Y-58478497D01*
X211800500Y-58323842D01*
X211800500Y-57716158D01*
X211769737Y-57561503D01*
X211709394Y-57415821D01*
X211692633Y-57390737D01*
X211621789Y-57284711D01*
X211510288Y-57173210D01*
X211379180Y-57085606D01*
X211379177Y-57085605D01*
X211360196Y-57077743D01*
X211326371Y-57043918D01*
X211326370Y-56996083D01*
X211360195Y-56962258D01*
X211360197Y-56962257D01*
X211379175Y-56954396D01*
X211379174Y-56954396D01*
X211379180Y-56954394D01*
X211510290Y-56866789D01*
X211621790Y-56755289D01*
X211709395Y-56624179D01*
X211769738Y-56478497D01*
X211800501Y-56323842D01*
X211800501Y-55716158D01*
X211769738Y-55561503D01*
X211709395Y-55415821D01*
X211677902Y-55368689D01*
X211621790Y-55284711D01*
X211510289Y-55173210D01*
X211379181Y-55085606D01*
X211233496Y-55025262D01*
X211078843Y-54994500D01*
X210921159Y-54994500D01*
X210766505Y-55025262D01*
X210620820Y-55085606D01*
X210489712Y-55173210D01*
X210378211Y-55284711D01*
X210290607Y-55415819D01*
X210230263Y-55561504D01*
X210199501Y-55716157D01*
X210199501Y-56323842D01*
X210230263Y-56478495D01*
X210290607Y-56624180D01*
X210378211Y-56755288D01*
X210489712Y-56866789D01*
X210620820Y-56954393D01*
X210620825Y-56954396D01*
X210639803Y-56962256D01*
X210673629Y-56996080D01*
X210673630Y-57043915D01*
X210639807Y-57077741D01*
X210620821Y-57085605D01*
X210620819Y-57085606D01*
X210489711Y-57173210D01*
X210378210Y-57284711D01*
X210290606Y-57415819D01*
X210230262Y-57561504D01*
X210199500Y-57716157D01*
X209800501Y-57716157D01*
X209769738Y-57561503D01*
X209709395Y-57415821D01*
X209692634Y-57390737D01*
X209621790Y-57284711D01*
X209510292Y-57173213D01*
X209510291Y-57173212D01*
X209510290Y-57173211D01*
X209448313Y-57131799D01*
X209421739Y-57092026D01*
X209431071Y-57045109D01*
X209448315Y-57027866D01*
X209573716Y-56944076D01*
X209699076Y-56818716D01*
X209797568Y-56671312D01*
X209797569Y-56671310D01*
X209860245Y-56520000D01*
X208139755Y-56520000D01*
X207752547Y-56520000D01*
X207765331Y-56489136D01*
X207769736Y-56478499D01*
X207769736Y-56478497D01*
X207769737Y-56478496D01*
X207800500Y-56323841D01*
X207800500Y-55964048D01*
X208575000Y-55964048D01*
X208575000Y-56075952D01*
X208603963Y-56184044D01*
X208659916Y-56280956D01*
X208739044Y-56360084D01*
X208835956Y-56416037D01*
X208944048Y-56445000D01*
X209055952Y-56445000D01*
X209164044Y-56416037D01*
X209260956Y-56360084D01*
X209340084Y-56280956D01*
X209396037Y-56184044D01*
X209425000Y-56075952D01*
X209425000Y-55964048D01*
X209396037Y-55855956D01*
X209340084Y-55759044D01*
X209260956Y-55679916D01*
X209164044Y-55623963D01*
X209055952Y-55595000D01*
X208944048Y-55595000D01*
X208835956Y-55623963D01*
X208739044Y-55679916D01*
X208659916Y-55759044D01*
X208603963Y-55855956D01*
X208575000Y-55964048D01*
X207800500Y-55964048D01*
X207800500Y-55716157D01*
X207769737Y-55561502D01*
X207752546Y-55519999D01*
X208139754Y-55519999D01*
X208139755Y-55520000D01*
X208500000Y-55520000D01*
X209500000Y-55520000D01*
X209860245Y-55520000D01*
X209860245Y-55519999D01*
X209797569Y-55368689D01*
X209797568Y-55368687D01*
X209699076Y-55221283D01*
X209573719Y-55095926D01*
X209500000Y-55046667D01*
X209500000Y-55520000D01*
X208500000Y-55520000D01*
X208500000Y-55046667D01*
X208426280Y-55095926D01*
X208300923Y-55221283D01*
X208202431Y-55368687D01*
X208202430Y-55368689D01*
X208139754Y-55519999D01*
X207752546Y-55519999D01*
X207709394Y-55415820D01*
X207621789Y-55284710D01*
X207510289Y-55173210D01*
X207510288Y-55173209D01*
X207379180Y-55085605D01*
X207233495Y-55025261D01*
X207078842Y-54994499D01*
X206921158Y-54994499D01*
X206766504Y-55025261D01*
X206620819Y-55085605D01*
X206489711Y-55173209D01*
X206378210Y-55284710D01*
X206290606Y-55415818D01*
X206230262Y-55561503D01*
X206199500Y-55716156D01*
X185601877Y-55716156D01*
X185616132Y-54080944D01*
X206829500Y-54080944D01*
X206829500Y-54239055D01*
X206829501Y-54239063D01*
X206870421Y-54391780D01*
X206870422Y-54391783D01*
X206870423Y-54391784D01*
X206949480Y-54528716D01*
X207061284Y-54640520D01*
X207171201Y-54703980D01*
X207198216Y-54719577D01*
X207198219Y-54719578D01*
X207291681Y-54744621D01*
X207350943Y-54760500D01*
X207350944Y-54760500D01*
X207509056Y-54760500D01*
X207509057Y-54760500D01*
X207661784Y-54719577D01*
X207798716Y-54640520D01*
X207910520Y-54528716D01*
X207989577Y-54391784D01*
X208030500Y-54239057D01*
X208030500Y-54080943D01*
X207989577Y-53928216D01*
X207960324Y-53877547D01*
X210814272Y-53877547D01*
X210814272Y-54035658D01*
X210814273Y-54035666D01*
X210855193Y-54188383D01*
X210855194Y-54188386D01*
X210862200Y-54200520D01*
X210934252Y-54325319D01*
X211046056Y-54437123D01*
X211171383Y-54509480D01*
X211182988Y-54516180D01*
X211182991Y-54516181D01*
X211229773Y-54528716D01*
X211335715Y-54557103D01*
X211335716Y-54557103D01*
X211493828Y-54557103D01*
X211493829Y-54557103D01*
X211646556Y-54516180D01*
X211783488Y-54437123D01*
X211895292Y-54325319D01*
X211974349Y-54188387D01*
X212015272Y-54035660D01*
X212015272Y-53877546D01*
X211977014Y-53734764D01*
X211974350Y-53724822D01*
X211974349Y-53724819D01*
X211948173Y-53679481D01*
X211895292Y-53587887D01*
X211783488Y-53476083D01*
X211681556Y-53417233D01*
X211646555Y-53397025D01*
X211646552Y-53397024D01*
X211493835Y-53356104D01*
X211493830Y-53356103D01*
X211493829Y-53356103D01*
X211335715Y-53356103D01*
X211335714Y-53356103D01*
X211335708Y-53356104D01*
X211182991Y-53397024D01*
X211182988Y-53397025D01*
X211086736Y-53452596D01*
X211046056Y-53476083D01*
X211046055Y-53476084D01*
X211046051Y-53476087D01*
X210934256Y-53587882D01*
X210934253Y-53587886D01*
X210934252Y-53587887D01*
X210910765Y-53628567D01*
X210855194Y-53724819D01*
X210855193Y-53724822D01*
X210814273Y-53877539D01*
X210814272Y-53877547D01*
X207960324Y-53877547D01*
X207910520Y-53791284D01*
X207798716Y-53679480D01*
X207700820Y-53622960D01*
X207661783Y-53600422D01*
X207661780Y-53600421D01*
X207509063Y-53559501D01*
X207509058Y-53559500D01*
X207509057Y-53559500D01*
X207350943Y-53559500D01*
X207350942Y-53559500D01*
X207350936Y-53559501D01*
X207198219Y-53600421D01*
X207198216Y-53600422D01*
X207101964Y-53655993D01*
X207061284Y-53679480D01*
X207061283Y-53679481D01*
X207061279Y-53679484D01*
X206949484Y-53791279D01*
X206949481Y-53791283D01*
X206949480Y-53791284D01*
X206944989Y-53799063D01*
X206870422Y-53928216D01*
X206870421Y-53928219D01*
X206829501Y-54080936D01*
X206829500Y-54080944D01*
X185616132Y-54080944D01*
X185644637Y-50810944D01*
X204989500Y-50810944D01*
X204989500Y-50969055D01*
X204989501Y-50969063D01*
X205030421Y-51121780D01*
X205030422Y-51121783D01*
X205053909Y-51162464D01*
X205109480Y-51258716D01*
X205221284Y-51370520D01*
X205358216Y-51449577D01*
X205358219Y-51449578D01*
X205451681Y-51474621D01*
X205510943Y-51490500D01*
X205510944Y-51490500D01*
X205669056Y-51490500D01*
X205669057Y-51490500D01*
X205821784Y-51449577D01*
X205958716Y-51370520D01*
X206070520Y-51258716D01*
X206077429Y-51246749D01*
X206115379Y-51217630D01*
X206131555Y-51215500D01*
X208672054Y-51215500D01*
X208716248Y-51233806D01*
X208734554Y-51278000D01*
X208716248Y-51322194D01*
X208703308Y-51332123D01*
X208621284Y-51379480D01*
X208621283Y-51379481D01*
X208621279Y-51379484D01*
X208509484Y-51491279D01*
X208509481Y-51491283D01*
X208430422Y-51628216D01*
X208430421Y-51628219D01*
X208389501Y-51780936D01*
X208389500Y-51780944D01*
X208389500Y-51939055D01*
X208389501Y-51939063D01*
X208430421Y-52091780D01*
X208430422Y-52091783D01*
X208430423Y-52091784D01*
X208509480Y-52228716D01*
X208621284Y-52340520D01*
X208758216Y-52419577D01*
X208758219Y-52419578D01*
X208851681Y-52444621D01*
X208910943Y-52460500D01*
X208910944Y-52460500D01*
X209069056Y-52460500D01*
X209069057Y-52460500D01*
X209221784Y-52419577D01*
X209358716Y-52340520D01*
X209470520Y-52228716D01*
X209549577Y-52091784D01*
X209590500Y-51939057D01*
X209590500Y-51780943D01*
X209549577Y-51628216D01*
X209470520Y-51491284D01*
X209358716Y-51379480D01*
X209276694Y-51332125D01*
X209247576Y-51294176D01*
X209253819Y-51246750D01*
X209291770Y-51217630D01*
X209307946Y-51215500D01*
X211977631Y-51215500D01*
X212021825Y-51233806D01*
X214205252Y-53417233D01*
X214223558Y-53461427D01*
X214205252Y-53505621D01*
X214177234Y-53521797D01*
X214094740Y-53543901D01*
X214094736Y-53543902D01*
X213998484Y-53599473D01*
X213957804Y-53622960D01*
X213957803Y-53622961D01*
X213957799Y-53622964D01*
X213846004Y-53734759D01*
X213846001Y-53734763D01*
X213766942Y-53871696D01*
X213766941Y-53871699D01*
X213726021Y-54024416D01*
X213726020Y-54024424D01*
X213726020Y-54182535D01*
X213726021Y-54182543D01*
X213766941Y-54335260D01*
X213766942Y-54335262D01*
X213766943Y-54335264D01*
X213790306Y-54375730D01*
X213796549Y-54423157D01*
X213767429Y-54461107D01*
X213720002Y-54467350D01*
X213704931Y-54461108D01*
X213663388Y-54437123D01*
X213651782Y-54430422D01*
X213651779Y-54430421D01*
X213499062Y-54389501D01*
X213499057Y-54389500D01*
X213499056Y-54389500D01*
X213340942Y-54389500D01*
X213340941Y-54389500D01*
X213340935Y-54389501D01*
X213188218Y-54430421D01*
X213188215Y-54430422D01*
X213115861Y-54472196D01*
X213051283Y-54509480D01*
X213051282Y-54509481D01*
X213051278Y-54509484D01*
X212939483Y-54621279D01*
X212939480Y-54621283D01*
X212939479Y-54621284D01*
X212928373Y-54640520D01*
X212860421Y-54758216D01*
X212860420Y-54758219D01*
X212819500Y-54910936D01*
X212819499Y-54910944D01*
X212819499Y-55069055D01*
X212819500Y-55069063D01*
X212860420Y-55221780D01*
X212860421Y-55221783D01*
X212860422Y-55221784D01*
X212939479Y-55358716D01*
X213051283Y-55470520D01*
X213188215Y-55549577D01*
X213188218Y-55549578D01*
X213232727Y-55561504D01*
X213340942Y-55590500D01*
X213340943Y-55590500D01*
X213499055Y-55590500D01*
X213499056Y-55590500D01*
X213651783Y-55549577D01*
X213788715Y-55470520D01*
X213900519Y-55358716D01*
X213979576Y-55221784D01*
X214020499Y-55069057D01*
X214020499Y-54910943D01*
X213980188Y-54760500D01*
X213979577Y-54758219D01*
X213979576Y-54758216D01*
X213956211Y-54717747D01*
X213949969Y-54670323D01*
X213979089Y-54632372D01*
X214026515Y-54626129D01*
X214041583Y-54632369D01*
X214094736Y-54663057D01*
X214094739Y-54663058D01*
X214107197Y-54666396D01*
X214247463Y-54703980D01*
X214247464Y-54703980D01*
X214405576Y-54703980D01*
X214405577Y-54703980D01*
X214558304Y-54663057D01*
X214695236Y-54584000D01*
X214807040Y-54472196D01*
X214886097Y-54335264D01*
X214927020Y-54182537D01*
X214927020Y-54108000D01*
X214945326Y-54063806D01*
X214989520Y-54045500D01*
X215048445Y-54045500D01*
X215092639Y-54063806D01*
X215102569Y-54076746D01*
X215104993Y-54080944D01*
X215109481Y-54088717D01*
X215109484Y-54088721D01*
X215203299Y-54182535D01*
X215221284Y-54200520D01*
X215358216Y-54279577D01*
X215358219Y-54279578D01*
X215451681Y-54304621D01*
X215510943Y-54320500D01*
X215510944Y-54320500D01*
X215669056Y-54320500D01*
X215669057Y-54320500D01*
X215821784Y-54279577D01*
X215958716Y-54200520D01*
X216070520Y-54088716D01*
X216149577Y-53951784D01*
X216190500Y-53799057D01*
X216190500Y-53640943D01*
X216168678Y-53559501D01*
X216149578Y-53488219D01*
X216149577Y-53488216D01*
X216142572Y-53476083D01*
X216070520Y-53351284D01*
X215958716Y-53239480D01*
X215862464Y-53183909D01*
X215821783Y-53160422D01*
X215821780Y-53160421D01*
X215669063Y-53119501D01*
X215669058Y-53119500D01*
X215669057Y-53119500D01*
X215510943Y-53119500D01*
X215510942Y-53119500D01*
X215510936Y-53119501D01*
X215358219Y-53160421D01*
X215358216Y-53160422D01*
X215261964Y-53215993D01*
X215221284Y-53239480D01*
X215221283Y-53239481D01*
X215221279Y-53239484D01*
X215128912Y-53331851D01*
X215084718Y-53350157D01*
X215040524Y-53331851D01*
X213395695Y-51687022D01*
X214810797Y-51687022D01*
X214810797Y-51845133D01*
X214810798Y-51845141D01*
X214851718Y-51997858D01*
X214851719Y-51997861D01*
X214851720Y-51997862D01*
X214930777Y-52134794D01*
X215042581Y-52246598D01*
X215179513Y-52325655D01*
X215179516Y-52325656D01*
X215234990Y-52340520D01*
X215332240Y-52366578D01*
X215332241Y-52366578D01*
X215490353Y-52366578D01*
X215490354Y-52366578D01*
X215643081Y-52325655D01*
X215780013Y-52246598D01*
X215891817Y-52134794D01*
X215970874Y-51997862D01*
X216011797Y-51845135D01*
X216011797Y-51687021D01*
X215970874Y-51534294D01*
X215891817Y-51397362D01*
X215780013Y-51285558D01*
X215683761Y-51229987D01*
X215643080Y-51206500D01*
X215643077Y-51206499D01*
X215490360Y-51165579D01*
X215490355Y-51165578D01*
X215490354Y-51165578D01*
X215332240Y-51165578D01*
X215332239Y-51165578D01*
X215332233Y-51165579D01*
X215179516Y-51206499D01*
X215179513Y-51206500D01*
X215109799Y-51246750D01*
X215042581Y-51285558D01*
X215042580Y-51285559D01*
X215042576Y-51285562D01*
X214930781Y-51397357D01*
X214930778Y-51397361D01*
X214851719Y-51534294D01*
X214851718Y-51534297D01*
X214810798Y-51687014D01*
X214810797Y-51687022D01*
X213395695Y-51687022D01*
X212888940Y-51180267D01*
X212870634Y-51136073D01*
X212888940Y-51091879D01*
X212916956Y-51075703D01*
X213051784Y-51039577D01*
X213188716Y-50960520D01*
X213300520Y-50848716D01*
X213379577Y-50711784D01*
X213420500Y-50559057D01*
X213420500Y-50400943D01*
X213379577Y-50248216D01*
X213300520Y-50111284D01*
X213188716Y-49999480D01*
X213092464Y-49943909D01*
X213051783Y-49920422D01*
X213051780Y-49920421D01*
X212899063Y-49879501D01*
X212899058Y-49879500D01*
X212899057Y-49879500D01*
X212740943Y-49879500D01*
X212740942Y-49879500D01*
X212740936Y-49879501D01*
X212588219Y-49920421D01*
X212588216Y-49920422D01*
X212521883Y-49958720D01*
X212451284Y-49999480D01*
X212451283Y-49999481D01*
X212451279Y-49999484D01*
X212339484Y-50111279D01*
X212339481Y-50111283D01*
X212260422Y-50248216D01*
X212260421Y-50248219D01*
X212219501Y-50400936D01*
X212219500Y-50400944D01*
X212219500Y-50502000D01*
X212201194Y-50546194D01*
X212157000Y-50564500D01*
X206131555Y-50564500D01*
X206087361Y-50546194D01*
X206077430Y-50533253D01*
X206070520Y-50521284D01*
X206070518Y-50521282D01*
X206070515Y-50521278D01*
X205958720Y-50409484D01*
X205958716Y-50409480D01*
X205862464Y-50353909D01*
X205821783Y-50330422D01*
X205821780Y-50330421D01*
X205729626Y-50305729D01*
X205691675Y-50276609D01*
X205685432Y-50229183D01*
X205714552Y-50191232D01*
X205729626Y-50184989D01*
X205861780Y-50149578D01*
X205861778Y-50149578D01*
X205861784Y-50149577D01*
X205998716Y-50070520D01*
X206110520Y-49958716D01*
X206189577Y-49821784D01*
X206230500Y-49669057D01*
X206230500Y-49510943D01*
X206189577Y-49358216D01*
X206110520Y-49221284D01*
X205998716Y-49109480D01*
X205902464Y-49053909D01*
X205861783Y-49030422D01*
X205861780Y-49030421D01*
X205709063Y-48989501D01*
X205709058Y-48989500D01*
X205709057Y-48989500D01*
X205550943Y-48989500D01*
X205550942Y-48989500D01*
X205550936Y-48989501D01*
X205398219Y-49030421D01*
X205398216Y-49030422D01*
X205301964Y-49085993D01*
X205261284Y-49109480D01*
X205261283Y-49109481D01*
X205261279Y-49109484D01*
X205149484Y-49221279D01*
X205149481Y-49221283D01*
X205070422Y-49358216D01*
X205070421Y-49358219D01*
X205029501Y-49510936D01*
X205029500Y-49510944D01*
X205029500Y-49669055D01*
X205029501Y-49669063D01*
X205070421Y-49821780D01*
X205070422Y-49821783D01*
X205070423Y-49821784D01*
X205149480Y-49958716D01*
X205261284Y-50070520D01*
X205398216Y-50149577D01*
X205398219Y-50149578D01*
X205431457Y-50158484D01*
X205490373Y-50174270D01*
X205528323Y-50203390D01*
X205534567Y-50250816D01*
X205505447Y-50288766D01*
X205490374Y-50295010D01*
X205358218Y-50330422D01*
X205358216Y-50330422D01*
X205261964Y-50385993D01*
X205221284Y-50409480D01*
X205221283Y-50409481D01*
X205221279Y-50409484D01*
X205109484Y-50521279D01*
X205109482Y-50521282D01*
X205109480Y-50521284D01*
X205085993Y-50561964D01*
X205030422Y-50658216D01*
X205030421Y-50658219D01*
X204989501Y-50810936D01*
X204989500Y-50810944D01*
X185644637Y-50810944D01*
X185673402Y-47511097D01*
X210109500Y-47511097D01*
X210109500Y-47669208D01*
X210109501Y-47669216D01*
X210150421Y-47821933D01*
X210150422Y-47821936D01*
X210157755Y-47834637D01*
X210229480Y-47958869D01*
X210341284Y-48070673D01*
X210478216Y-48149730D01*
X210478219Y-48149731D01*
X210571681Y-48174774D01*
X210630943Y-48190653D01*
X210630944Y-48190653D01*
X210789056Y-48190653D01*
X210789057Y-48190653D01*
X210941784Y-48149730D01*
X211078716Y-48070673D01*
X211119045Y-48030343D01*
X211163236Y-48012039D01*
X211207431Y-48030344D01*
X211225737Y-48074538D01*
X211223607Y-48090715D01*
X211184654Y-48236089D01*
X211184653Y-48236097D01*
X211184653Y-48394208D01*
X211184654Y-48394216D01*
X211225574Y-48546933D01*
X211225575Y-48546936D01*
X211225576Y-48546937D01*
X211304633Y-48683869D01*
X211416437Y-48795673D01*
X211553369Y-48874730D01*
X211553372Y-48874731D01*
X211646834Y-48899774D01*
X211706096Y-48915653D01*
X211706097Y-48915653D01*
X211864209Y-48915653D01*
X211864210Y-48915653D01*
X212016937Y-48874730D01*
X212153869Y-48795673D01*
X212265673Y-48683869D01*
X212344730Y-48546937D01*
X212385653Y-48394210D01*
X212385653Y-48236096D01*
X212362511Y-48149730D01*
X212344731Y-48083372D01*
X212344730Y-48083369D01*
X212337397Y-48070668D01*
X212265673Y-47946437D01*
X212153869Y-47834633D01*
X212057617Y-47779062D01*
X212016936Y-47755575D01*
X212016933Y-47755574D01*
X211864216Y-47714654D01*
X211864211Y-47714653D01*
X211864210Y-47714653D01*
X211706096Y-47714653D01*
X211706095Y-47714653D01*
X211706089Y-47714654D01*
X211553372Y-47755574D01*
X211553369Y-47755575D01*
X211457117Y-47811146D01*
X211416437Y-47834633D01*
X211416436Y-47834634D01*
X211376109Y-47874961D01*
X211331914Y-47893266D01*
X211287720Y-47874960D01*
X211269415Y-47830765D01*
X211271544Y-47814595D01*
X211310500Y-47669210D01*
X211310500Y-47511096D01*
X211269577Y-47358369D01*
X211190520Y-47221437D01*
X211078716Y-47109633D01*
X210982464Y-47054062D01*
X210941783Y-47030575D01*
X210941780Y-47030574D01*
X210789063Y-46989654D01*
X210789058Y-46989653D01*
X210789057Y-46989653D01*
X210630943Y-46989653D01*
X210630942Y-46989653D01*
X210630936Y-46989654D01*
X210478219Y-47030574D01*
X210478216Y-47030575D01*
X210381964Y-47086146D01*
X210341284Y-47109633D01*
X210341283Y-47109634D01*
X210341279Y-47109637D01*
X210229484Y-47221432D01*
X210229481Y-47221436D01*
X210150422Y-47358369D01*
X210150421Y-47358372D01*
X210109501Y-47511089D01*
X210109500Y-47511097D01*
X185673402Y-47511097D01*
X185691378Y-45449006D01*
X185691726Y-45442959D01*
X185711318Y-45258846D01*
X185713767Y-45246966D01*
X185767685Y-45073034D01*
X185772383Y-45061858D01*
X185858915Y-44901635D01*
X185865692Y-44891569D01*
X185981566Y-44751111D01*
X185990163Y-44742541D01*
X186131009Y-44627139D01*
X186141099Y-44620395D01*
X186301611Y-44534400D01*
X186312810Y-44529738D01*
X186486919Y-44476404D01*
X186498800Y-44473996D01*
X186682989Y-44455021D01*
X186689030Y-44454694D01*
X204030681Y-44361677D01*
X227591353Y-44235303D01*
X227597412Y-44235565D01*
G37*
%TD.AperFunction*%
%TD*%
M02*
