%TF.GenerationSoftware,KiCad,Pcbnew,9.0.0*%
%TF.CreationDate,2025-10-09T13:40:37-07:00*%
%TF.ProjectId,2U_XY_V1,32555f58-595f-4563-912e-6b696361645f,1.0*%
%TF.SameCoordinates,Original*%
%TF.FileFunction,Copper,L4,Bot*%
%TF.FilePolarity,Positive*%
%FSLAX46Y46*%
G04 Gerber Fmt 4.6, Leading zero omitted, Abs format (unit mm)*
G04 Created by KiCad (PCBNEW 9.0.0) date 2025-10-09 13:40:37*
%MOMM*%
%LPD*%
G01*
G04 APERTURE LIST*
G04 Aperture macros list*
%AMRoundRect*
0 Rectangle with rounded corners*
0 $1 Rounding radius*
0 $2 $3 $4 $5 $6 $7 $8 $9 X,Y pos of 4 corners*
0 Add a 4 corners polygon primitive as box body*
4,1,4,$2,$3,$4,$5,$6,$7,$8,$9,$2,$3,0*
0 Add four circle primitives for the rounded corners*
1,1,$1+$1,$2,$3*
1,1,$1+$1,$4,$5*
1,1,$1+$1,$6,$7*
1,1,$1+$1,$8,$9*
0 Add four rect primitives between the rounded corners*
20,1,$1+$1,$2,$3,$4,$5,0*
20,1,$1+$1,$4,$5,$6,$7,0*
20,1,$1+$1,$6,$7,$8,$9,0*
20,1,$1+$1,$8,$9,$2,$3,0*%
G04 Aperture macros list end*
%TA.AperFunction,ComponentPad*%
%ADD10C,5.700000*%
%TD*%
%TA.AperFunction,ComponentPad*%
%ADD11C,5.000000*%
%TD*%
%TA.AperFunction,ComponentPad*%
%ADD12RoundRect,0.250000X-0.350000X-0.575000X0.350000X-0.575000X0.350000X0.575000X-0.350000X0.575000X0*%
%TD*%
%TA.AperFunction,ComponentPad*%
%ADD13O,1.200000X1.650000*%
%TD*%
%TA.AperFunction,SMDPad,CuDef*%
%ADD14O,1.690000X0.360000*%
%TD*%
%TA.AperFunction,SMDPad,CuDef*%
%ADD15RoundRect,0.225000X0.225000X0.250000X-0.225000X0.250000X-0.225000X-0.250000X0.225000X-0.250000X0*%
%TD*%
%TA.AperFunction,SMDPad,CuDef*%
%ADD16RoundRect,0.200000X-0.200000X-0.275000X0.200000X-0.275000X0.200000X0.275000X-0.200000X0.275000X0*%
%TD*%
%TA.AperFunction,SMDPad,CuDef*%
%ADD17RoundRect,0.225000X-0.225000X-0.250000X0.225000X-0.250000X0.225000X0.250000X-0.225000X0.250000X0*%
%TD*%
%TA.AperFunction,SMDPad,CuDef*%
%ADD18RoundRect,0.250000X0.475000X-0.250000X0.475000X0.250000X-0.475000X0.250000X-0.475000X-0.250000X0*%
%TD*%
%TA.AperFunction,SMDPad,CuDef*%
%ADD19RoundRect,0.200000X0.200000X0.275000X-0.200000X0.275000X-0.200000X-0.275000X0.200000X-0.275000X0*%
%TD*%
%TA.AperFunction,SMDPad,CuDef*%
%ADD20R,0.600000X1.500000*%
%TD*%
%TA.AperFunction,SMDPad,CuDef*%
%ADD21R,1.250000X1.800000*%
%TD*%
%TA.AperFunction,SMDPad,CuDef*%
%ADD22RoundRect,0.225000X0.250000X-0.225000X0.250000X0.225000X-0.250000X0.225000X-0.250000X-0.225000X0*%
%TD*%
%TA.AperFunction,SMDPad,CuDef*%
%ADD23RoundRect,0.075000X-0.075000X0.650000X-0.075000X-0.650000X0.075000X-0.650000X0.075000X0.650000X0*%
%TD*%
%TA.AperFunction,ViaPad*%
%ADD24C,0.800000*%
%TD*%
%TA.AperFunction,Conductor*%
%ADD25C,0.250000*%
%TD*%
%TA.AperFunction,Conductor*%
%ADD26C,0.400000*%
%TD*%
%TA.AperFunction,Conductor*%
%ADD27C,1.000000*%
%TD*%
%TA.AperFunction,Conductor*%
%ADD28C,0.500000*%
%TD*%
G04 APERTURE END LIST*
D10*
%TO.P,J12,1,Pin_1*%
%TO.N,unconnected-(J2-Pin_1-Pad1)*%
X171800001Y-155450000D03*
%TD*%
%TO.P,J14,1,Pin_1*%
%TO.N,unconnected-(J4-Pin_1-Pad1)*%
X247800001Y-155450000D03*
%TD*%
%TO.P,J112,1,Pin_1*%
%TO.N,unconnected-(J2-Pin_1-Pad1)*%
X171800001Y-129650000D03*
%TD*%
%TO.P,J114,1,Pin_1*%
%TO.N,unconnected-(J4-Pin_1-Pad1)*%
X247800001Y-129650000D03*
%TD*%
%TO.P,J2,1,Pin_1*%
%TO.N,unconnected-(J2-Pin_1-Pad1)*%
X171800001Y-40650000D03*
%TD*%
%TO.P,J4,1,Pin_1*%
%TO.N,unconnected-(J4-Pin_1-Pad1)*%
X247800001Y-40650000D03*
%TD*%
%TO.P,J3,1,Pin_1*%
%TO.N,unconnected-(J3-Pin_1-Pad1)*%
X171800001Y-244450000D03*
%TD*%
D11*
%TO.P,SC1,1,+*%
%TO.N,/SOL_OUT*%
X222250000Y-134000000D03*
%TO.P,SC1,2,-*%
%TO.N,Net-(SC1---Pad2)*%
X197250000Y-134000000D03*
%TO.P,SC1,3,+*%
%TO.N,/SOL_OUT*%
X197250000Y-85500000D03*
%TO.P,SC1,4,-*%
%TO.N,Net-(SC1---Pad2)*%
X222250000Y-85500000D03*
%TD*%
D10*
%TO.P,J5,1,Pin_1*%
%TO.N,unconnected-(J5-Pin_1-Pad1)*%
X247800000Y-244500000D03*
%TD*%
D11*
%TO.P,SC2,1,+*%
%TO.N,Net-(SC1---Pad2)*%
X222250000Y-226500000D03*
%TO.P,SC2,2,-*%
%TO.N,GND*%
X197250000Y-226500000D03*
%TO.P,SC2,3,+*%
%TO.N,Net-(SC1---Pad2)*%
X197250000Y-178000000D03*
%TO.P,SC2,4,-*%
%TO.N,GND*%
X222250000Y-178000000D03*
%TD*%
D12*
%TO.P,CN1,1,Pin_1*%
%TO.N,GND*%
X207000000Y-58020000D03*
D13*
%TO.P,CN1,2,Pin_2*%
%TO.N,SDAIN*%
X207000000Y-56019999D03*
%TO.P,CN1,3,Pin_3*%
%TO.N,VSOLAR*%
X209000001Y-58020000D03*
%TO.P,CN1,4,Pin_4*%
%TO.N,+3V3*%
X209000000Y-56020000D03*
%TO.P,CN1,5,Pin_5*%
%TO.N,VSOLAR*%
X211000000Y-58020000D03*
%TO.P,CN1,6,Pin_6*%
%TO.N,SCLIN*%
X211000001Y-56020000D03*
%TD*%
D14*
%TO.P,U4,1,EN*%
%TO.N,Net-(U4-EN)*%
X206930000Y-51520000D03*
%TO.P,U4,2,SCLOUT*%
%TO.N,/SCL*%
X206930000Y-50860000D03*
%TO.P,U4,3,SCLIN*%
%TO.N,SCLIN*%
X206930000Y-50210000D03*
%TO.P,U4,4,GND*%
%TO.N,GND*%
X206930000Y-49560000D03*
%TO.P,U4,5,READY*%
%TO.N,Net-(U4-READY)*%
X211230000Y-49560000D03*
%TO.P,U4,6,SDAIN*%
%TO.N,SDAIN*%
X211230000Y-50210000D03*
%TO.P,U4,7,SDAOUT*%
%TO.N,/SDA*%
X211230000Y-50860000D03*
%TO.P,U4,8,VCC*%
%TO.N,+3V3*%
X211230000Y-51520000D03*
%TD*%
D15*
%TO.P,C6,1*%
%TO.N,GND*%
X214355000Y-51650000D03*
%TO.P,C6,2*%
%TO.N,+3V3*%
X212805000Y-51650000D03*
%TD*%
D16*
%TO.P,R2,1*%
%TO.N,+3V3*%
X204995000Y-53290000D03*
%TO.P,R2,2*%
%TO.N,Net-(U4-EN)*%
X206645000Y-53290000D03*
%TD*%
D17*
%TO.P,C4,1*%
%TO.N,+3V3*%
X212785000Y-53150000D03*
%TO.P,C4,2*%
%TO.N,GND*%
X214335000Y-53150000D03*
%TD*%
D18*
%TO.P,C5,1*%
%TO.N,Net-(U3-REG)*%
X214919999Y-56939999D03*
%TO.P,C5,2*%
%TO.N,GND*%
X214919999Y-55040001D03*
%TD*%
D16*
%TO.P,R4,1*%
%TO.N,Net-(U4-READY)*%
X214295000Y-49480000D03*
%TO.P,R4,2*%
%TO.N,+3V3*%
X215945000Y-49480000D03*
%TD*%
%TO.P,R6,1*%
%TO.N,/SDA*%
X216365000Y-51140000D03*
%TO.P,R6,2*%
%TO.N,+3V3*%
X218015000Y-51140000D03*
%TD*%
D19*
%TO.P,R5,1*%
%TO.N,/SCL*%
X205405000Y-51780000D03*
%TO.P,R5,2*%
%TO.N,+3V3*%
X203755000Y-51780000D03*
%TD*%
D20*
%TO.P,U5,1,1*%
%TO.N,SDAIN*%
X212760000Y-65240000D03*
%TO.P,U5,2,2*%
%TO.N,SCLIN*%
X211260000Y-65240000D03*
%TO.P,U5,3,3*%
%TO.N,+3V3*%
X209760001Y-65240000D03*
%TO.P,U5,4,4*%
%TO.N,GND*%
X208259999Y-65240000D03*
%TO.P,U5,5,5*%
%TO.N,VSOLAR*%
X206760000Y-65240000D03*
%TO.P,U5,6,6*%
X205260000Y-65240000D03*
D21*
%TO.P,U5,7,7*%
%TO.N,unconnected-(U5-Pad7)*%
X202660000Y-70420001D03*
%TO.P,U5,8,8*%
%TO.N,unconnected-(U5-Pad8)*%
X215360000Y-70420001D03*
%TD*%
D22*
%TO.P,C3,1*%
%TO.N,+3V3*%
X214919998Y-61065000D03*
%TO.P,C3,2*%
%TO.N,GND*%
X214919998Y-59515000D03*
%TD*%
D19*
%TO.P,R1,1*%
%TO.N,+3V3*%
X209855000Y-53280000D03*
%TO.P,R1,2*%
%TO.N,Net-(D4-A)*%
X208205000Y-53280000D03*
%TD*%
D23*
%TO.P,U3,1,REG*%
%TO.N,Net-(U3-REG)*%
X216770000Y-56870000D03*
%TO.P,U3,2,SCL*%
%TO.N,/SCL*%
X217270001Y-56870000D03*
%TO.P,U3,3,SDA*%
%TO.N,/SDA*%
X217770000Y-56870000D03*
%TO.P,U3,4,IN/TRIG*%
%TO.N,GND*%
X218269999Y-56870000D03*
%TO.P,U3,5,EN*%
%TO.N,+3V3*%
X218770000Y-56870000D03*
%TO.P,U3,6,VDD/NC*%
%TO.N,unconnected-(U3-VDD{slash}NC-Pad6)*%
X218770000Y-61270000D03*
%TO.P,U3,7,OUT+*%
%TO.N,Net-(U3-OUT+)*%
X218269999Y-61270000D03*
%TO.P,U3,8,GND*%
%TO.N,GND*%
X217770000Y-61270000D03*
%TO.P,U3,9,OUT-*%
%TO.N,Net-(U3-OUT+)*%
X217270001Y-61270000D03*
%TO.P,U3,10,VDD*%
%TO.N,+3V3*%
X216770000Y-61270000D03*
%TD*%
D24*
%TO.N,GND*%
X210710000Y-47590153D03*
%TO.N,+3V3*%
X219150000Y-51200000D03*
%TO.N,Net-(U3-OUT+)*%
X239820000Y-242660000D03*
X229940000Y-227900000D03*
%TO.N,GND*%
X214326520Y-54103480D03*
%TO.N,/SCL*%
X215590000Y-53720000D03*
%TO.N,+3V3*%
X218994998Y-57980000D03*
X218760000Y-55530000D03*
X216060000Y-61110000D03*
X213750000Y-61050000D03*
%TO.N,GND*%
X216319998Y-58715000D03*
X213419999Y-54990000D03*
X211414772Y-53956603D03*
X215411297Y-51766078D03*
X208990000Y-51860000D03*
X179980000Y-59700000D03*
X180090000Y-64300000D03*
X205630000Y-49590000D03*
X217920000Y-58640000D03*
%TO.N,+3V3*%
X209090000Y-64140000D03*
X202920000Y-51780000D03*
X210826736Y-53147766D03*
X209940000Y-64100000D03*
X203980000Y-53290000D03*
X207230000Y-47710000D03*
X216780000Y-49550000D03*
%TO.N,VSOLAR*%
X221430000Y-62990000D03*
X219900000Y-62970000D03*
X222780000Y-63000000D03*
%TO.N,/SCL*%
X205590000Y-50890000D03*
%TO.N,/SDA*%
X212820000Y-50480000D03*
%TO.N,Net-(D4-A)*%
X207430000Y-54160000D03*
%TO.N,Net-(U3-OUT+)*%
X216769999Y-59709999D03*
%TO.N,SCLIN*%
X211785153Y-48315153D03*
%TD*%
D25*
%TO.N,Net-(U4-READY)*%
X211230000Y-49560000D02*
X214215000Y-49560000D01*
X214215000Y-49560000D02*
X214295000Y-49480000D01*
%TO.N,+3V3*%
X215945000Y-49480000D02*
X216710000Y-49480000D01*
X216710000Y-49480000D02*
X216780000Y-49550000D01*
X216780000Y-49550000D02*
X216565000Y-49550000D01*
X219090000Y-51140000D02*
X219150000Y-51200000D01*
X218015000Y-51140000D02*
X219090000Y-51140000D01*
%TO.N,Net-(U3-OUT+)*%
X239820000Y-242660000D02*
X239820000Y-65230000D01*
X239820000Y-65230000D02*
X234430000Y-59840000D01*
X234430000Y-59840000D02*
X218810000Y-59840000D01*
X218810000Y-59840000D02*
X218749999Y-59779999D01*
%TO.N,/SDA*%
X212820000Y-50480000D02*
X215151939Y-50480000D01*
X217770000Y-53098061D02*
X217770000Y-56870000D01*
X215151939Y-50480000D02*
X217770000Y-53098061D01*
%TO.N,GND*%
X214335000Y-54095000D02*
X214326520Y-54103480D01*
%TO.N,/SCL*%
X215590000Y-53720000D02*
X217270001Y-55400001D01*
X217270001Y-55400001D02*
X217270001Y-56870000D01*
%TO.N,+3V3*%
X218770000Y-57755002D02*
X218994998Y-57980000D01*
X218770000Y-56870000D02*
X218770000Y-57755002D01*
X218770000Y-55540000D02*
X218760000Y-55530000D01*
X218770000Y-56870000D02*
X218770000Y-55540000D01*
X216015000Y-61065000D02*
X216060000Y-61110000D01*
X214919998Y-61065000D02*
X216015000Y-61065000D01*
X213765000Y-61065000D02*
X213750000Y-61050000D01*
X214919998Y-61065000D02*
X213765000Y-61065000D01*
%TO.N,GND*%
X215295219Y-51650000D02*
X215411297Y-51766078D01*
X214335000Y-53150000D02*
X214335000Y-54095000D01*
X216394998Y-58640000D02*
X216319998Y-58715000D01*
X217770000Y-58790000D02*
X217920000Y-58640000D01*
X205660000Y-49560000D02*
X205630000Y-49590000D01*
X218269998Y-56870000D02*
X218269998Y-58290000D01*
X206930000Y-49560000D02*
X205660000Y-49560000D01*
X214335000Y-54095000D02*
X214320000Y-54110000D01*
X214355000Y-51650000D02*
X215295219Y-51650000D01*
X217920000Y-58640000D02*
X216394998Y-58640000D01*
X214919998Y-59340001D02*
X215694997Y-59340001D01*
X213419999Y-54990000D02*
X213469998Y-55040000D01*
X218269998Y-58290000D02*
X217920000Y-58640000D01*
X213469998Y-55040000D02*
X214869998Y-55040000D01*
X217769999Y-61270000D02*
X217770000Y-58790000D01*
X215694997Y-59340001D02*
X216319998Y-58715000D01*
%TO.N,+3V3*%
X207290000Y-47770000D02*
X207230000Y-47710000D01*
D26*
X209140000Y-64100000D02*
X209140000Y-64619999D01*
X209940000Y-64100000D02*
X209940000Y-65060001D01*
D25*
X209855000Y-53280000D02*
X210694502Y-53280000D01*
X203755000Y-51780000D02*
X202920000Y-51780000D01*
X211620000Y-51910000D02*
X212805000Y-51910000D01*
X210694502Y-53280000D02*
X210826736Y-53147766D01*
X210826736Y-53147766D02*
X212782766Y-53147766D01*
X218769998Y-56870000D02*
X218769998Y-56290000D01*
X204995000Y-53290000D02*
X203980000Y-53290000D01*
X212782766Y-53147766D02*
X212785000Y-53150000D01*
X216769998Y-61270000D02*
X214829999Y-61270000D01*
X211230000Y-51520000D02*
X211230000Y-52744502D01*
X211230000Y-51520000D02*
X211620000Y-51910000D01*
X211230000Y-52744502D02*
X210826736Y-53147766D01*
D26*
X209140000Y-64619999D02*
X209760001Y-65240000D01*
X209940000Y-65060001D02*
X209760001Y-65240000D01*
X209140000Y-64100000D02*
X209940000Y-64100000D01*
D27*
%TO.N,VSOLAR*%
X209000001Y-58020000D02*
X211000000Y-58020000D01*
D28*
X206760000Y-63620000D02*
X206860000Y-63520000D01*
X205260000Y-65240000D02*
X205260000Y-63660000D01*
X206760000Y-65240000D02*
X206760000Y-63620000D01*
D27*
X207527999Y-63520000D02*
X206860000Y-63520000D01*
X209000001Y-62047998D02*
X207527999Y-63520000D01*
X206860000Y-63520000D02*
X205400000Y-63520000D01*
X209000001Y-58020000D02*
X209000001Y-62047998D01*
D28*
X205260000Y-63660000D02*
X205400000Y-63520000D01*
D25*
%TO.N,Net-(U3-REG)*%
X216769998Y-56870000D02*
X214989998Y-56870000D01*
X214989998Y-56870000D02*
X214919998Y-56940000D01*
%TO.N,/SCL*%
X205620000Y-50860000D02*
X205590000Y-50890000D01*
X205590000Y-50890000D02*
X205590000Y-51595000D01*
X205590000Y-51595000D02*
X205405000Y-51780000D01*
X206930000Y-50860000D02*
X205620000Y-50860000D01*
%TO.N,/SDA*%
X212044000Y-50716000D02*
X211900000Y-50860000D01*
X212150592Y-50670000D02*
X212104592Y-50716000D01*
X212630000Y-50670000D02*
X212150592Y-50670000D01*
X211900000Y-50860000D02*
X211230000Y-50860000D01*
X212104592Y-50716000D02*
X212044000Y-50716000D01*
X212820000Y-50480000D02*
X212630000Y-50670000D01*
%TO.N,Net-(D4-A)*%
X208205000Y-53280000D02*
X208205000Y-53385000D01*
X208205000Y-53385000D02*
X207430000Y-54160000D01*
X207430000Y-54160000D02*
X207430000Y-54070000D01*
%TO.N,Net-(U3-OUT+)*%
X218269997Y-61270000D02*
X218269998Y-60260000D01*
X217269999Y-60209999D02*
X216769999Y-59709999D01*
X218269998Y-60260000D02*
X218749999Y-59779999D01*
X217269999Y-61269999D02*
X217269999Y-60209999D01*
%TO.N,SCLIN*%
X206940000Y-50220000D02*
X206930000Y-50210000D01*
X211260000Y-65240000D02*
X211926000Y-64574000D01*
X211926000Y-64574000D02*
X211926000Y-56945999D01*
X211785153Y-48315153D02*
X209555439Y-48315153D01*
X207740000Y-50210000D02*
X206930000Y-50210000D01*
X211926000Y-56945999D02*
X211000001Y-56020000D01*
X209555439Y-48315153D02*
X207740000Y-50130592D01*
X207740000Y-50130592D02*
X207740000Y-50210000D01*
%TO.N,SDAIN*%
X210211408Y-50210000D02*
X211230000Y-50210000D01*
X208339999Y-54680000D02*
X207000000Y-56019999D01*
X210059000Y-50362408D02*
X210211408Y-50210000D01*
X211960592Y-50210000D02*
X211230000Y-50210000D01*
X211194563Y-54680000D02*
X208800000Y-54680000D01*
X212760000Y-56245437D02*
X211194563Y-54680000D01*
X208800000Y-54680000D02*
X208339999Y-54680000D01*
X210059000Y-51817720D02*
X210059000Y-50362408D01*
X208800000Y-54680000D02*
X209129000Y-54351000D01*
X209129000Y-52747720D02*
X210059000Y-51817720D01*
X212760000Y-65240000D02*
X212760000Y-56245437D01*
X209129000Y-54351000D02*
X209129000Y-52747720D01*
%TO.N,Net-(U4-EN)*%
X206930000Y-53005000D02*
X206645000Y-53290000D01*
X206930000Y-51520000D02*
X206930000Y-53005000D01*
%TD*%
%TA.AperFunction,Conductor*%
%TO.N,GND*%
G36*
X215378026Y-51167542D02*
G01*
X215385630Y-51174018D01*
X215800857Y-51589245D01*
X215812351Y-51605064D01*
X215836950Y-51653342D01*
X215926658Y-51743050D01*
X215959094Y-51759577D01*
X215974933Y-51767647D01*
X215990753Y-51779141D01*
X217426194Y-53214582D01*
X217444500Y-53258776D01*
X217444500Y-54963285D01*
X217426194Y-55007479D01*
X217382000Y-55025785D01*
X217337806Y-55007479D01*
X216203099Y-53872772D01*
X216184793Y-53828578D01*
X216186922Y-53812405D01*
X216190500Y-53799057D01*
X216190500Y-53640943D01*
X216168678Y-53559501D01*
X216149578Y-53488219D01*
X216149577Y-53488216D01*
X216140946Y-53473266D01*
X216070520Y-53351284D01*
X215958716Y-53239480D01*
X215862464Y-53183909D01*
X215821783Y-53160422D01*
X215821780Y-53160421D01*
X215669063Y-53119501D01*
X215669058Y-53119500D01*
X215669057Y-53119500D01*
X215510943Y-53119500D01*
X215510942Y-53119500D01*
X215510936Y-53119501D01*
X215358219Y-53160421D01*
X215358216Y-53160422D01*
X215270724Y-53210936D01*
X215221284Y-53239480D01*
X215221283Y-53239481D01*
X215221279Y-53239484D01*
X215109484Y-53351279D01*
X215109481Y-53351283D01*
X215109480Y-53351284D01*
X215085993Y-53391964D01*
X215030422Y-53488216D01*
X215030421Y-53488219D01*
X215012883Y-53553676D01*
X214983763Y-53591626D01*
X214952513Y-53600000D01*
X214397500Y-53600000D01*
X214353306Y-53581694D01*
X214335000Y-53537500D01*
X214335000Y-53150000D01*
X213947500Y-53150000D01*
X213903306Y-53131694D01*
X213885000Y-53087500D01*
X213885000Y-52693500D01*
X214785000Y-52693500D01*
X214785000Y-52700000D01*
X215257495Y-52700000D01*
X215221547Y-52591516D01*
X215130662Y-52444170D01*
X215132406Y-52443093D01*
X215121106Y-52403257D01*
X215138991Y-52366312D01*
X215152574Y-52352729D01*
X215241547Y-52208483D01*
X215277495Y-52100000D01*
X214805000Y-52100000D01*
X214805000Y-52647612D01*
X214786694Y-52691806D01*
X214785000Y-52693500D01*
X213885000Y-52693500D01*
X213885000Y-52152388D01*
X213903306Y-52108194D01*
X213905000Y-52106500D01*
X213905000Y-51712500D01*
X213923306Y-51668306D01*
X213967500Y-51650000D01*
X214355000Y-51650000D01*
X214355000Y-51262500D01*
X214373306Y-51218306D01*
X214417500Y-51200000D01*
X215277495Y-51200000D01*
X215290766Y-51181622D01*
X215331480Y-51156510D01*
X215378026Y-51167542D01*
G37*
%TD.AperFunction*%
%TA.AperFunction,Conductor*%
G36*
X242142748Y-36228195D02*
G01*
X242295091Y-36274444D01*
X242306414Y-36279139D01*
X242468535Y-36365871D01*
X242478710Y-36372675D01*
X242620790Y-36489399D01*
X242629452Y-36498072D01*
X242745997Y-36640273D01*
X242752802Y-36650473D01*
X242839343Y-36812695D01*
X242844025Y-36824027D01*
X242897228Y-37000018D01*
X242899608Y-37012046D01*
X242917728Y-37198117D01*
X242918022Y-37204248D01*
X242905967Y-47475797D01*
X242905584Y-47482636D01*
X242884250Y-47674357D01*
X242884250Y-47674358D01*
X242884500Y-47824446D01*
X242884500Y-65766392D01*
X242883818Y-66347186D01*
X242675200Y-244096140D01*
X242674892Y-244102262D01*
X242656391Y-244288009D01*
X242653990Y-244300014D01*
X242600531Y-244475643D01*
X242595836Y-244486950D01*
X242509163Y-244648790D01*
X242502354Y-244658964D01*
X242385798Y-244800798D01*
X242377136Y-244809451D01*
X242235157Y-244925847D01*
X242224974Y-244932644D01*
X242063036Y-245019125D01*
X242051724Y-245023807D01*
X241876026Y-245077062D01*
X241864018Y-245079448D01*
X241689400Y-245096634D01*
X241678255Y-245097731D01*
X241672135Y-245098032D01*
X177922532Y-245098032D01*
X177916406Y-245097731D01*
X177730499Y-245079420D01*
X177718482Y-245077030D01*
X177542667Y-245023698D01*
X177531348Y-245019009D01*
X177369322Y-244932404D01*
X177359134Y-244925597D01*
X177217113Y-244809043D01*
X177208450Y-244800380D01*
X177091896Y-244658359D01*
X177085089Y-244648171D01*
X176998482Y-244486141D01*
X176993797Y-244474831D01*
X176940462Y-244299007D01*
X176938073Y-244286994D01*
X176919763Y-244101088D01*
X176919462Y-244094962D01*
X176919462Y-226331527D01*
X194250000Y-226331527D01*
X194250000Y-226668472D01*
X194287725Y-227003298D01*
X194287728Y-227003315D01*
X194362704Y-227331808D01*
X194362705Y-227331814D01*
X194473989Y-227649848D01*
X194542881Y-227792903D01*
X195750000Y-226585784D01*
X195750000Y-226618053D01*
X195786935Y-226851251D01*
X195859896Y-227075800D01*
X195967085Y-227286171D01*
X196105864Y-227477184D01*
X196272816Y-227644136D01*
X196463829Y-227782915D01*
X196674200Y-227890104D01*
X196898749Y-227963065D01*
X197131947Y-228000000D01*
X197164214Y-228000000D01*
X195957095Y-229207117D01*
X196100151Y-229276010D01*
X196418185Y-229387294D01*
X196418191Y-229387295D01*
X196746684Y-229462271D01*
X196746701Y-229462274D01*
X197081527Y-229500000D01*
X197418473Y-229500000D01*
X197753298Y-229462274D01*
X197753315Y-229462271D01*
X198081808Y-229387295D01*
X198081814Y-229387294D01*
X198399856Y-229276007D01*
X198542904Y-229207118D01*
X197335786Y-228000000D01*
X197368053Y-228000000D01*
X197601251Y-227963065D01*
X197825800Y-227890104D01*
X198036171Y-227782915D01*
X198227184Y-227644136D01*
X198394136Y-227477184D01*
X198532915Y-227286171D01*
X198640104Y-227075800D01*
X198713065Y-226851251D01*
X198750000Y-226618053D01*
X198750000Y-226585786D01*
X199957118Y-227792904D01*
X200026007Y-227649856D01*
X200137294Y-227331814D01*
X200137295Y-227331808D01*
X200212271Y-227003315D01*
X200212274Y-227003298D01*
X200250000Y-226668472D01*
X200250000Y-226348346D01*
X219549500Y-226348346D01*
X219549500Y-226651653D01*
X219583458Y-226953052D01*
X219583460Y-226953064D01*
X219650953Y-227248769D01*
X219650953Y-227248771D01*
X219751127Y-227535054D01*
X219882735Y-227808341D01*
X220044104Y-228065158D01*
X220044116Y-228065175D01*
X220233210Y-228302291D01*
X220233215Y-228302297D01*
X220233221Y-228302304D01*
X220447696Y-228516779D01*
X220447703Y-228516785D01*
X220447708Y-228516789D01*
X220684824Y-228705883D01*
X220684830Y-228705887D01*
X220684836Y-228705892D01*
X220941659Y-228867265D01*
X221214935Y-228998868D01*
X221214941Y-228998870D01*
X221214945Y-228998872D01*
X221383483Y-229057845D01*
X221501228Y-229099046D01*
X221796937Y-229166540D01*
X222098343Y-229200500D01*
X222098346Y-229200500D01*
X222401654Y-229200500D01*
X222401657Y-229200500D01*
X222703063Y-229166540D01*
X222998772Y-229099046D01*
X223285065Y-228998868D01*
X223558341Y-228867265D01*
X223815164Y-228705892D01*
X224052304Y-228516779D01*
X224266779Y-228302304D01*
X224455892Y-228065164D01*
X224609346Y-227820944D01*
X229339500Y-227820944D01*
X229339500Y-227979055D01*
X229339501Y-227979063D01*
X229380421Y-228131780D01*
X229380422Y-228131783D01*
X229380423Y-228131784D01*
X229459480Y-228268716D01*
X229571284Y-228380520D01*
X229708216Y-228459577D01*
X229708219Y-228459578D01*
X229801681Y-228484621D01*
X229860943Y-228500500D01*
X229860944Y-228500500D01*
X230019056Y-228500500D01*
X230019057Y-228500500D01*
X230171784Y-228459577D01*
X230308716Y-228380520D01*
X230420520Y-228268716D01*
X230499577Y-228131784D01*
X230540500Y-227979057D01*
X230540500Y-227820943D01*
X230499577Y-227668216D01*
X230420520Y-227531284D01*
X230308716Y-227419480D01*
X230212464Y-227363909D01*
X230171783Y-227340422D01*
X230171780Y-227340421D01*
X230019063Y-227299501D01*
X230019058Y-227299500D01*
X230019057Y-227299500D01*
X229860943Y-227299500D01*
X229860942Y-227299500D01*
X229860936Y-227299501D01*
X229708219Y-227340421D01*
X229708216Y-227340422D01*
X229611964Y-227395993D01*
X229571284Y-227419480D01*
X229571283Y-227419481D01*
X229571279Y-227419484D01*
X229459484Y-227531279D01*
X229459481Y-227531283D01*
X229459480Y-227531284D01*
X229457297Y-227535065D01*
X229380422Y-227668216D01*
X229380421Y-227668219D01*
X229339501Y-227820936D01*
X229339500Y-227820944D01*
X224609346Y-227820944D01*
X224617265Y-227808341D01*
X224748868Y-227535065D01*
X224750192Y-227531283D01*
X224819988Y-227331814D01*
X224849046Y-227248772D01*
X224916540Y-226953063D01*
X224950500Y-226651657D01*
X224950500Y-226348343D01*
X224916540Y-226046937D01*
X224849046Y-225751228D01*
X224819988Y-225668185D01*
X224748872Y-225464945D01*
X224748870Y-225464941D01*
X224748868Y-225464935D01*
X224617265Y-225191659D01*
X224455892Y-224934836D01*
X224455887Y-224934830D01*
X224455883Y-224934824D01*
X224266789Y-224697708D01*
X224266785Y-224697703D01*
X224266779Y-224697696D01*
X224052304Y-224483221D01*
X224052297Y-224483215D01*
X224052291Y-224483210D01*
X223815175Y-224294116D01*
X223815158Y-224294104D01*
X223558341Y-224132735D01*
X223285065Y-224001132D01*
X223285062Y-224001131D01*
X223285054Y-224001127D01*
X222998770Y-223900953D01*
X222703064Y-223833460D01*
X222703052Y-223833458D01*
X222494385Y-223809947D01*
X222401657Y-223799500D01*
X222098343Y-223799500D01*
X222014239Y-223808976D01*
X221796947Y-223833458D01*
X221796935Y-223833460D01*
X221501230Y-223900953D01*
X221501228Y-223900953D01*
X221214945Y-224001127D01*
X220941658Y-224132735D01*
X220684841Y-224294104D01*
X220684824Y-224294116D01*
X220447708Y-224483210D01*
X220447688Y-224483228D01*
X220233228Y-224697688D01*
X220233210Y-224697708D01*
X220044116Y-224934824D01*
X220044104Y-224934841D01*
X219882735Y-225191658D01*
X219751127Y-225464945D01*
X219650953Y-225751228D01*
X219650953Y-225751230D01*
X219583460Y-226046935D01*
X219583458Y-226046947D01*
X219549500Y-226348346D01*
X200250000Y-226348346D01*
X200250000Y-226331527D01*
X200212274Y-225996701D01*
X200212271Y-225996684D01*
X200137295Y-225668191D01*
X200137294Y-225668185D01*
X200026010Y-225350151D01*
X199957117Y-225207095D01*
X198750000Y-226414212D01*
X198750000Y-226381947D01*
X198713065Y-226148749D01*
X198640104Y-225924200D01*
X198532915Y-225713829D01*
X198394136Y-225522816D01*
X198227184Y-225355864D01*
X198036171Y-225217085D01*
X197825800Y-225109896D01*
X197601251Y-225036935D01*
X197368053Y-225000000D01*
X197335784Y-225000000D01*
X198542903Y-223792881D01*
X198399848Y-223723989D01*
X198081814Y-223612705D01*
X198081808Y-223612704D01*
X197753315Y-223537728D01*
X197753298Y-223537725D01*
X197418473Y-223500000D01*
X197081527Y-223500000D01*
X196746701Y-223537725D01*
X196746684Y-223537728D01*
X196418191Y-223612704D01*
X196418185Y-223612705D01*
X196100151Y-223723989D01*
X195957095Y-223792881D01*
X197164214Y-225000000D01*
X197131947Y-225000000D01*
X196898749Y-225036935D01*
X196674200Y-225109896D01*
X196463829Y-225217085D01*
X196272816Y-225355864D01*
X196105864Y-225522816D01*
X195967085Y-225713829D01*
X195859896Y-225924200D01*
X195786935Y-226148749D01*
X195750000Y-226381947D01*
X195750000Y-226414214D01*
X194542881Y-225207095D01*
X194473989Y-225350151D01*
X194362705Y-225668185D01*
X194362704Y-225668191D01*
X194287728Y-225996684D01*
X194287725Y-225996701D01*
X194250000Y-226331527D01*
X176919462Y-226331527D01*
X176919462Y-177848346D01*
X194549500Y-177848346D01*
X194549500Y-178151653D01*
X194583458Y-178453052D01*
X194583460Y-178453064D01*
X194650953Y-178748769D01*
X194650953Y-178748771D01*
X194751127Y-179035054D01*
X194882735Y-179308341D01*
X195044104Y-179565158D01*
X195044116Y-179565175D01*
X195233210Y-179802291D01*
X195233215Y-179802297D01*
X195233221Y-179802304D01*
X195447696Y-180016779D01*
X195447703Y-180016785D01*
X195447708Y-180016789D01*
X195684824Y-180205883D01*
X195684830Y-180205887D01*
X195684836Y-180205892D01*
X195941659Y-180367265D01*
X196214935Y-180498868D01*
X196214941Y-180498870D01*
X196214945Y-180498872D01*
X196383483Y-180557845D01*
X196501228Y-180599046D01*
X196796937Y-180666540D01*
X197098343Y-180700500D01*
X197098346Y-180700500D01*
X197401654Y-180700500D01*
X197401657Y-180700500D01*
X197703063Y-180666540D01*
X197998772Y-180599046D01*
X198285065Y-180498868D01*
X198558341Y-180367265D01*
X198815164Y-180205892D01*
X199052304Y-180016779D01*
X199266779Y-179802304D01*
X199455892Y-179565164D01*
X199617265Y-179308341D01*
X199748868Y-179035065D01*
X199849046Y-178748772D01*
X199916540Y-178453063D01*
X199950500Y-178151657D01*
X199950500Y-177848343D01*
X199948605Y-177831527D01*
X219250000Y-177831527D01*
X219250000Y-178168472D01*
X219287725Y-178503298D01*
X219287728Y-178503315D01*
X219362704Y-178831808D01*
X219362705Y-178831814D01*
X219473989Y-179149848D01*
X219542881Y-179292903D01*
X220750000Y-178085784D01*
X220750000Y-178118053D01*
X220786935Y-178351251D01*
X220859896Y-178575800D01*
X220967085Y-178786171D01*
X221105864Y-178977184D01*
X221272816Y-179144136D01*
X221463829Y-179282915D01*
X221674200Y-179390104D01*
X221898749Y-179463065D01*
X222131947Y-179500000D01*
X222164214Y-179500000D01*
X220957095Y-180707117D01*
X221100151Y-180776010D01*
X221418185Y-180887294D01*
X221418191Y-180887295D01*
X221746684Y-180962271D01*
X221746701Y-180962274D01*
X222081527Y-181000000D01*
X222418473Y-181000000D01*
X222753298Y-180962274D01*
X222753315Y-180962271D01*
X223081808Y-180887295D01*
X223081814Y-180887294D01*
X223399856Y-180776007D01*
X223542904Y-180707118D01*
X222335786Y-179500000D01*
X222368053Y-179500000D01*
X222601251Y-179463065D01*
X222825800Y-179390104D01*
X223036171Y-179282915D01*
X223227184Y-179144136D01*
X223394136Y-178977184D01*
X223532915Y-178786171D01*
X223640104Y-178575800D01*
X223713065Y-178351251D01*
X223750000Y-178118053D01*
X223750000Y-178085786D01*
X224957118Y-179292904D01*
X225026007Y-179149856D01*
X225137294Y-178831814D01*
X225137295Y-178831808D01*
X225212271Y-178503315D01*
X225212274Y-178503298D01*
X225250000Y-178168472D01*
X225250000Y-177831527D01*
X225212274Y-177496701D01*
X225212271Y-177496684D01*
X225137295Y-177168191D01*
X225137294Y-177168185D01*
X225026010Y-176850151D01*
X224957117Y-176707095D01*
X223750000Y-177914212D01*
X223750000Y-177881947D01*
X223713065Y-177648749D01*
X223640104Y-177424200D01*
X223532915Y-177213829D01*
X223394136Y-177022816D01*
X223227184Y-176855864D01*
X223036171Y-176717085D01*
X222825800Y-176609896D01*
X222601251Y-176536935D01*
X222368053Y-176500000D01*
X222335784Y-176500000D01*
X223542903Y-175292881D01*
X223399848Y-175223989D01*
X223081814Y-175112705D01*
X223081808Y-175112704D01*
X222753315Y-175037728D01*
X222753298Y-175037725D01*
X222418473Y-175000000D01*
X222081527Y-175000000D01*
X221746701Y-175037725D01*
X221746684Y-175037728D01*
X221418191Y-175112704D01*
X221418185Y-175112705D01*
X221100151Y-175223989D01*
X220957095Y-175292881D01*
X222164214Y-176500000D01*
X222131947Y-176500000D01*
X221898749Y-176536935D01*
X221674200Y-176609896D01*
X221463829Y-176717085D01*
X221272816Y-176855864D01*
X221105864Y-177022816D01*
X220967085Y-177213829D01*
X220859896Y-177424200D01*
X220786935Y-177648749D01*
X220750000Y-177881947D01*
X220750000Y-177914214D01*
X219542881Y-176707095D01*
X219473989Y-176850151D01*
X219362705Y-177168185D01*
X219362704Y-177168191D01*
X219287728Y-177496684D01*
X219287725Y-177496701D01*
X219250000Y-177831527D01*
X199948605Y-177831527D01*
X199916540Y-177546937D01*
X199849046Y-177251228D01*
X199819988Y-177168185D01*
X199748872Y-176964945D01*
X199748870Y-176964941D01*
X199748868Y-176964935D01*
X199617265Y-176691659D01*
X199455892Y-176434836D01*
X199455887Y-176434830D01*
X199455883Y-176434824D01*
X199266789Y-176197708D01*
X199266785Y-176197703D01*
X199266779Y-176197696D01*
X199052304Y-175983221D01*
X199052297Y-175983215D01*
X199052291Y-175983210D01*
X198815175Y-175794116D01*
X198815158Y-175794104D01*
X198558341Y-175632735D01*
X198285065Y-175501132D01*
X198285062Y-175501131D01*
X198285054Y-175501127D01*
X197998770Y-175400953D01*
X197885836Y-175375177D01*
X197703064Y-175333460D01*
X197703052Y-175333458D01*
X197494385Y-175309947D01*
X197401657Y-175299500D01*
X197098343Y-175299500D01*
X197014239Y-175308976D01*
X196796947Y-175333458D01*
X196796935Y-175333460D01*
X196501230Y-175400953D01*
X196501228Y-175400953D01*
X196214945Y-175501127D01*
X195941658Y-175632735D01*
X195684841Y-175794104D01*
X195684824Y-175794116D01*
X195447708Y-175983210D01*
X195447688Y-175983228D01*
X195233228Y-176197688D01*
X195233210Y-176197708D01*
X195044116Y-176434824D01*
X195044104Y-176434841D01*
X194882735Y-176691658D01*
X194751127Y-176964945D01*
X194650953Y-177251228D01*
X194650953Y-177251230D01*
X194583460Y-177546935D01*
X194583458Y-177546947D01*
X194558976Y-177764239D01*
X194550805Y-177836767D01*
X194549500Y-177848346D01*
X176919462Y-177848346D01*
X176919462Y-133848346D01*
X194549500Y-133848346D01*
X194549500Y-134151653D01*
X194583458Y-134453052D01*
X194583460Y-134453064D01*
X194650953Y-134748769D01*
X194650953Y-134748771D01*
X194751127Y-135035054D01*
X194882735Y-135308341D01*
X195044104Y-135565158D01*
X195044116Y-135565175D01*
X195233210Y-135802291D01*
X195233215Y-135802297D01*
X195233221Y-135802304D01*
X195447696Y-136016779D01*
X195447703Y-136016785D01*
X195447708Y-136016789D01*
X195684824Y-136205883D01*
X195684830Y-136205887D01*
X195684836Y-136205892D01*
X195941659Y-136367265D01*
X196214935Y-136498868D01*
X196214941Y-136498870D01*
X196214945Y-136498872D01*
X196383483Y-136557845D01*
X196501228Y-136599046D01*
X196796937Y-136666540D01*
X197098343Y-136700500D01*
X197098346Y-136700500D01*
X197401654Y-136700500D01*
X197401657Y-136700500D01*
X197703063Y-136666540D01*
X197998772Y-136599046D01*
X198285065Y-136498868D01*
X198558341Y-136367265D01*
X198815164Y-136205892D01*
X199052304Y-136016779D01*
X199266779Y-135802304D01*
X199455892Y-135565164D01*
X199617265Y-135308341D01*
X199748868Y-135035065D01*
X199849046Y-134748772D01*
X199916540Y-134453063D01*
X199950500Y-134151657D01*
X199950500Y-133848346D01*
X219549500Y-133848346D01*
X219549500Y-134151653D01*
X219583458Y-134453052D01*
X219583460Y-134453064D01*
X219650953Y-134748769D01*
X219650953Y-134748771D01*
X219751127Y-135035054D01*
X219882735Y-135308341D01*
X220044104Y-135565158D01*
X220044116Y-135565175D01*
X220233210Y-135802291D01*
X220233215Y-135802297D01*
X220233221Y-135802304D01*
X220447696Y-136016779D01*
X220447703Y-136016785D01*
X220447708Y-136016789D01*
X220684824Y-136205883D01*
X220684830Y-136205887D01*
X220684836Y-136205892D01*
X220941659Y-136367265D01*
X221214935Y-136498868D01*
X221214941Y-136498870D01*
X221214945Y-136498872D01*
X221383483Y-136557845D01*
X221501228Y-136599046D01*
X221796937Y-136666540D01*
X222098343Y-136700500D01*
X222098346Y-136700500D01*
X222401654Y-136700500D01*
X222401657Y-136700500D01*
X222703063Y-136666540D01*
X222998772Y-136599046D01*
X223285065Y-136498868D01*
X223558341Y-136367265D01*
X223815164Y-136205892D01*
X224052304Y-136016779D01*
X224266779Y-135802304D01*
X224455892Y-135565164D01*
X224617265Y-135308341D01*
X224748868Y-135035065D01*
X224849046Y-134748772D01*
X224916540Y-134453063D01*
X224950500Y-134151657D01*
X224950500Y-133848343D01*
X224916540Y-133546937D01*
X224849046Y-133251228D01*
X224748872Y-132964945D01*
X224748870Y-132964941D01*
X224748868Y-132964935D01*
X224617265Y-132691659D01*
X224455892Y-132434836D01*
X224455887Y-132434830D01*
X224455883Y-132434824D01*
X224266789Y-132197708D01*
X224266785Y-132197703D01*
X224266779Y-132197696D01*
X224052304Y-131983221D01*
X224052297Y-131983215D01*
X224052291Y-131983210D01*
X223815175Y-131794116D01*
X223815158Y-131794104D01*
X223558341Y-131632735D01*
X223285065Y-131501132D01*
X223285062Y-131501131D01*
X223285054Y-131501127D01*
X222998770Y-131400953D01*
X222703064Y-131333460D01*
X222703052Y-131333458D01*
X222494385Y-131309947D01*
X222401657Y-131299500D01*
X222098343Y-131299500D01*
X222014239Y-131308976D01*
X221796947Y-131333458D01*
X221796935Y-131333460D01*
X221501230Y-131400953D01*
X221501228Y-131400953D01*
X221214945Y-131501127D01*
X220941658Y-131632735D01*
X220684841Y-131794104D01*
X220684824Y-131794116D01*
X220447708Y-131983210D01*
X220447688Y-131983228D01*
X220233228Y-132197688D01*
X220233210Y-132197708D01*
X220044116Y-132434824D01*
X220044104Y-132434841D01*
X219882735Y-132691658D01*
X219751127Y-132964945D01*
X219650953Y-133251228D01*
X219650953Y-133251230D01*
X219583460Y-133546935D01*
X219583458Y-133546947D01*
X219549500Y-133848346D01*
X199950500Y-133848346D01*
X199950500Y-133848343D01*
X199916540Y-133546937D01*
X199849046Y-133251228D01*
X199748872Y-132964945D01*
X199748870Y-132964941D01*
X199748868Y-132964935D01*
X199617265Y-132691659D01*
X199455892Y-132434836D01*
X199455887Y-132434830D01*
X199455883Y-132434824D01*
X199266789Y-132197708D01*
X199266785Y-132197703D01*
X199266779Y-132197696D01*
X199052304Y-131983221D01*
X199052297Y-131983215D01*
X199052291Y-131983210D01*
X198815175Y-131794116D01*
X198815158Y-131794104D01*
X198558341Y-131632735D01*
X198285065Y-131501132D01*
X198285062Y-131501131D01*
X198285054Y-131501127D01*
X197998770Y-131400953D01*
X197703064Y-131333460D01*
X197703052Y-131333458D01*
X197494385Y-131309947D01*
X197401657Y-131299500D01*
X197098343Y-131299500D01*
X197014239Y-131308976D01*
X196796947Y-131333458D01*
X196796935Y-131333460D01*
X196501230Y-131400953D01*
X196501228Y-131400953D01*
X196214945Y-131501127D01*
X195941658Y-131632735D01*
X195684841Y-131794104D01*
X195684824Y-131794116D01*
X195447708Y-131983210D01*
X195447688Y-131983228D01*
X195233228Y-132197688D01*
X195233210Y-132197708D01*
X195044116Y-132434824D01*
X195044104Y-132434841D01*
X194882735Y-132691658D01*
X194751127Y-132964945D01*
X194650953Y-133251228D01*
X194650953Y-133251230D01*
X194583460Y-133546935D01*
X194583458Y-133546947D01*
X194549500Y-133848346D01*
X176919462Y-133848346D01*
X176919462Y-98124000D01*
X199694500Y-98124000D01*
X199694500Y-98124004D01*
X199694500Y-118676005D01*
X199699196Y-118719678D01*
X199710401Y-118771190D01*
X199712889Y-118781369D01*
X199712890Y-118781373D01*
X199755900Y-118862085D01*
X199801655Y-118914889D01*
X199801657Y-118914891D01*
X199819245Y-118932843D01*
X199819247Y-118932844D01*
X199899059Y-118977488D01*
X199899063Y-118977490D01*
X199966102Y-118997175D01*
X200024000Y-119005500D01*
X200024004Y-119005500D01*
X220275994Y-119005500D01*
X220276000Y-119005500D01*
X220319684Y-119000803D01*
X220371195Y-118989597D01*
X220381373Y-118987110D01*
X220462085Y-118944100D01*
X220514889Y-118898345D01*
X220532843Y-118880754D01*
X220577490Y-118800937D01*
X220597175Y-118733898D01*
X220605500Y-118676000D01*
X220605500Y-98124000D01*
X220600803Y-98080316D01*
X220589597Y-98028805D01*
X220587110Y-98018627D01*
X220544100Y-97937915D01*
X220498345Y-97885111D01*
X220497316Y-97884061D01*
X220480754Y-97867156D01*
X220480752Y-97867155D01*
X220400940Y-97822511D01*
X220333899Y-97802825D01*
X220322318Y-97801160D01*
X220276000Y-97794500D01*
X200024000Y-97794500D01*
X200023994Y-97794500D01*
X199980321Y-97799196D01*
X199928809Y-97810401D01*
X199918630Y-97812888D01*
X199918630Y-97812889D01*
X199918629Y-97812889D01*
X199918627Y-97812890D01*
X199873292Y-97837048D01*
X199837916Y-97855899D01*
X199837912Y-97855902D01*
X199785110Y-97901656D01*
X199785108Y-97901657D01*
X199767156Y-97919245D01*
X199767155Y-97919247D01*
X199722511Y-97999059D01*
X199702825Y-98066100D01*
X199702825Y-98066102D01*
X199694500Y-98124000D01*
X176919462Y-98124000D01*
X176919462Y-85348346D01*
X194549500Y-85348346D01*
X194549500Y-85651653D01*
X194583458Y-85953052D01*
X194583460Y-85953064D01*
X194650953Y-86248769D01*
X194650953Y-86248771D01*
X194751127Y-86535054D01*
X194882735Y-86808341D01*
X195044104Y-87065158D01*
X195044116Y-87065175D01*
X195233210Y-87302291D01*
X195233215Y-87302297D01*
X195233221Y-87302304D01*
X195447696Y-87516779D01*
X195447703Y-87516785D01*
X195447708Y-87516789D01*
X195684824Y-87705883D01*
X195684830Y-87705887D01*
X195684836Y-87705892D01*
X195941659Y-87867265D01*
X196214935Y-87998868D01*
X196214941Y-87998870D01*
X196214945Y-87998872D01*
X196383483Y-88057845D01*
X196501228Y-88099046D01*
X196796937Y-88166540D01*
X197098343Y-88200500D01*
X197098346Y-88200500D01*
X197401654Y-88200500D01*
X197401657Y-88200500D01*
X197703063Y-88166540D01*
X197998772Y-88099046D01*
X198285065Y-87998868D01*
X198558341Y-87867265D01*
X198815164Y-87705892D01*
X199052304Y-87516779D01*
X199266779Y-87302304D01*
X199455892Y-87065164D01*
X199617265Y-86808341D01*
X199748868Y-86535065D01*
X199849046Y-86248772D01*
X199916540Y-85953063D01*
X199950500Y-85651657D01*
X199950500Y-85348346D01*
X219549500Y-85348346D01*
X219549500Y-85651653D01*
X219583458Y-85953052D01*
X219583460Y-85953064D01*
X219650953Y-86248769D01*
X219650953Y-86248771D01*
X219751127Y-86535054D01*
X219882735Y-86808341D01*
X220044104Y-87065158D01*
X220044116Y-87065175D01*
X220233210Y-87302291D01*
X220233215Y-87302297D01*
X220233221Y-87302304D01*
X220447696Y-87516779D01*
X220447703Y-87516785D01*
X220447708Y-87516789D01*
X220684824Y-87705883D01*
X220684830Y-87705887D01*
X220684836Y-87705892D01*
X220941659Y-87867265D01*
X221214935Y-87998868D01*
X221214941Y-87998870D01*
X221214945Y-87998872D01*
X221383483Y-88057845D01*
X221501228Y-88099046D01*
X221796937Y-88166540D01*
X222098343Y-88200500D01*
X222098346Y-88200500D01*
X222401654Y-88200500D01*
X222401657Y-88200500D01*
X222703063Y-88166540D01*
X222998772Y-88099046D01*
X223285065Y-87998868D01*
X223558341Y-87867265D01*
X223815164Y-87705892D01*
X224052304Y-87516779D01*
X224266779Y-87302304D01*
X224455892Y-87065164D01*
X224617265Y-86808341D01*
X224748868Y-86535065D01*
X224849046Y-86248772D01*
X224916540Y-85953063D01*
X224950500Y-85651657D01*
X224950500Y-85348343D01*
X224916540Y-85046937D01*
X224849046Y-84751228D01*
X224748872Y-84464945D01*
X224748870Y-84464941D01*
X224748868Y-84464935D01*
X224617265Y-84191659D01*
X224455892Y-83934836D01*
X224455887Y-83934830D01*
X224455883Y-83934824D01*
X224266789Y-83697708D01*
X224266785Y-83697703D01*
X224266779Y-83697696D01*
X224052304Y-83483221D01*
X224052297Y-83483215D01*
X224052291Y-83483210D01*
X223815175Y-83294116D01*
X223815158Y-83294104D01*
X223558341Y-83132735D01*
X223285065Y-83001132D01*
X223285062Y-83001131D01*
X223285054Y-83001127D01*
X222998770Y-82900953D01*
X222703064Y-82833460D01*
X222703052Y-82833458D01*
X222494385Y-82809947D01*
X222401657Y-82799500D01*
X222098343Y-82799500D01*
X222014239Y-82808976D01*
X221796947Y-82833458D01*
X221796935Y-82833460D01*
X221501230Y-82900953D01*
X221501228Y-82900953D01*
X221214945Y-83001127D01*
X220941658Y-83132735D01*
X220684841Y-83294104D01*
X220684824Y-83294116D01*
X220447708Y-83483210D01*
X220447688Y-83483228D01*
X220233228Y-83697688D01*
X220233210Y-83697708D01*
X220044116Y-83934824D01*
X220044104Y-83934841D01*
X219882735Y-84191658D01*
X219751127Y-84464945D01*
X219650953Y-84751228D01*
X219650953Y-84751230D01*
X219583460Y-85046935D01*
X219583458Y-85046947D01*
X219549500Y-85348346D01*
X199950500Y-85348346D01*
X199950500Y-85348343D01*
X199916540Y-85046937D01*
X199849046Y-84751228D01*
X199748872Y-84464945D01*
X199748870Y-84464941D01*
X199748868Y-84464935D01*
X199617265Y-84191659D01*
X199455892Y-83934836D01*
X199455887Y-83934830D01*
X199455883Y-83934824D01*
X199266789Y-83697708D01*
X199266785Y-83697703D01*
X199266779Y-83697696D01*
X199052304Y-83483221D01*
X199052297Y-83483215D01*
X199052291Y-83483210D01*
X198815175Y-83294116D01*
X198815158Y-83294104D01*
X198558341Y-83132735D01*
X198285065Y-83001132D01*
X198285062Y-83001131D01*
X198285054Y-83001127D01*
X197998770Y-82900953D01*
X197703064Y-82833460D01*
X197703052Y-82833458D01*
X197494385Y-82809947D01*
X197401657Y-82799500D01*
X197098343Y-82799500D01*
X197014239Y-82808976D01*
X196796947Y-82833458D01*
X196796935Y-82833460D01*
X196501230Y-82900953D01*
X196501228Y-82900953D01*
X196214945Y-83001127D01*
X195941658Y-83132735D01*
X195684841Y-83294104D01*
X195684824Y-83294116D01*
X195447708Y-83483210D01*
X195447688Y-83483228D01*
X195233228Y-83697688D01*
X195233210Y-83697708D01*
X195044116Y-83934824D01*
X195044104Y-83934841D01*
X194882735Y-84191658D01*
X194751127Y-84464945D01*
X194650953Y-84751228D01*
X194650953Y-84751230D01*
X194583460Y-85046935D01*
X194583458Y-85046947D01*
X194549500Y-85348346D01*
X176919462Y-85348346D01*
X176919462Y-69500252D01*
X201834500Y-69500252D01*
X201834500Y-71339749D01*
X201846132Y-71398231D01*
X201846133Y-71398233D01*
X201890447Y-71464553D01*
X201956767Y-71508867D01*
X201956769Y-71508868D01*
X202015252Y-71520501D01*
X203304748Y-71520501D01*
X203363231Y-71508868D01*
X203429552Y-71464553D01*
X203473867Y-71398232D01*
X203485500Y-71339749D01*
X203485500Y-69500253D01*
X203485500Y-69500252D01*
X214534500Y-69500252D01*
X214534500Y-71339749D01*
X214546132Y-71398231D01*
X214546133Y-71398233D01*
X214590447Y-71464553D01*
X214656767Y-71508867D01*
X214656769Y-71508868D01*
X214715252Y-71520501D01*
X216004748Y-71520501D01*
X216063231Y-71508868D01*
X216129552Y-71464553D01*
X216173867Y-71398232D01*
X216185500Y-71339749D01*
X216185500Y-69500253D01*
X216173867Y-69441770D01*
X216173866Y-69441768D01*
X216129552Y-69375448D01*
X216063232Y-69331134D01*
X216063230Y-69331133D01*
X216004748Y-69319501D01*
X214715252Y-69319501D01*
X214656769Y-69331133D01*
X214656767Y-69331134D01*
X214590447Y-69375448D01*
X214546133Y-69441768D01*
X214546132Y-69441770D01*
X214534500Y-69500252D01*
X203485500Y-69500252D01*
X203473867Y-69441770D01*
X203473866Y-69441768D01*
X203429552Y-69375448D01*
X203363232Y-69331134D01*
X203363230Y-69331133D01*
X203304748Y-69319501D01*
X202015252Y-69319501D01*
X201956769Y-69331133D01*
X201956767Y-69331134D01*
X201890447Y-69375448D01*
X201846133Y-69441768D01*
X201846132Y-69441770D01*
X201834500Y-69500252D01*
X176919462Y-69500252D01*
X176919462Y-63451006D01*
X204699500Y-63451006D01*
X204699500Y-63588993D01*
X204726419Y-63724326D01*
X204726419Y-63724327D01*
X204779225Y-63851811D01*
X204779226Y-63851813D01*
X204798967Y-63881357D01*
X204809500Y-63916080D01*
X204809500Y-64335389D01*
X204798967Y-64370112D01*
X204771133Y-64411767D01*
X204771132Y-64411769D01*
X204759500Y-64470251D01*
X204759500Y-66009748D01*
X204771132Y-66068230D01*
X204771133Y-66068232D01*
X204815447Y-66134552D01*
X204881767Y-66178866D01*
X204881769Y-66178867D01*
X204940252Y-66190500D01*
X205579748Y-66190500D01*
X205638231Y-66178867D01*
X205704552Y-66134552D01*
X205748867Y-66068231D01*
X205760500Y-66009748D01*
X205760500Y-64470252D01*
X205748867Y-64411769D01*
X205722150Y-64371784D01*
X205721033Y-64370112D01*
X205710500Y-64335389D01*
X205710500Y-64283000D01*
X205728806Y-64238806D01*
X205773000Y-64220500D01*
X206247000Y-64220500D01*
X206291194Y-64238806D01*
X206309500Y-64283000D01*
X206309500Y-64335389D01*
X206298967Y-64370112D01*
X206271133Y-64411767D01*
X206271132Y-64411769D01*
X206259500Y-64470251D01*
X206259500Y-66009748D01*
X206271132Y-66068230D01*
X206271133Y-66068232D01*
X206315447Y-66134552D01*
X206381767Y-66178866D01*
X206381769Y-66178867D01*
X206440252Y-66190500D01*
X207079748Y-66190500D01*
X207138231Y-66178867D01*
X207204552Y-66134552D01*
X207248867Y-66068231D01*
X207254913Y-66037835D01*
X207459999Y-66037835D01*
X207466401Y-66097377D01*
X207516646Y-66232091D01*
X207516648Y-66232094D01*
X207602807Y-66347186D01*
X207602812Y-66347191D01*
X207717904Y-66433350D01*
X207717907Y-66433352D01*
X207852621Y-66483597D01*
X207912163Y-66489999D01*
X207912177Y-66490000D01*
X207959999Y-66490000D01*
X208559999Y-66490000D01*
X208607821Y-66490000D01*
X208607834Y-66489999D01*
X208667376Y-66483597D01*
X208802090Y-66433352D01*
X208802093Y-66433350D01*
X208917185Y-66347191D01*
X208917190Y-66347186D01*
X209003349Y-66232094D01*
X209003351Y-66232091D01*
X209053596Y-66097377D01*
X209059998Y-66037835D01*
X209059999Y-66037822D01*
X209059999Y-65540000D01*
X208559999Y-65540000D01*
X208559999Y-66490000D01*
X207959999Y-66490000D01*
X207959999Y-65540000D01*
X207459999Y-65540000D01*
X207459999Y-66037835D01*
X207254913Y-66037835D01*
X207260500Y-66009748D01*
X207260500Y-64470252D01*
X207248867Y-64411769D01*
X207222150Y-64371784D01*
X207221033Y-64370112D01*
X207210500Y-64335389D01*
X207210500Y-64283000D01*
X207228806Y-64238806D01*
X207273000Y-64220500D01*
X207436853Y-64220500D01*
X207481047Y-64238806D01*
X207499353Y-64283000D01*
X207495412Y-64304842D01*
X207466401Y-64382622D01*
X207459999Y-64442164D01*
X207459999Y-64940000D01*
X207959999Y-64940000D01*
X207959999Y-64104545D01*
X207978059Y-64060944D01*
X208489500Y-64060944D01*
X208489500Y-64219055D01*
X208489501Y-64219063D01*
X208530421Y-64371780D01*
X208530422Y-64371783D01*
X208530423Y-64371784D01*
X208551626Y-64408509D01*
X208559999Y-64439758D01*
X208559999Y-64940000D01*
X208867720Y-64940000D01*
X208911914Y-64958306D01*
X209241195Y-65287587D01*
X209259501Y-65331781D01*
X209259501Y-66009748D01*
X209271133Y-66068230D01*
X209271134Y-66068232D01*
X209315448Y-66134552D01*
X209381768Y-66178866D01*
X209381770Y-66178867D01*
X209440253Y-66190500D01*
X210079749Y-66190500D01*
X210138232Y-66178867D01*
X210204553Y-66134552D01*
X210248868Y-66068231D01*
X210260501Y-66009748D01*
X210260501Y-65322623D01*
X210268874Y-65291373D01*
X210313207Y-65214589D01*
X210340500Y-65112728D01*
X210340500Y-65007274D01*
X210340500Y-64574624D01*
X210358806Y-64530430D01*
X210380520Y-64508716D01*
X210420520Y-64468716D01*
X210499577Y-64331784D01*
X210540500Y-64179057D01*
X210540500Y-64020943D01*
X210499577Y-63868216D01*
X210420520Y-63731284D01*
X210308716Y-63619480D01*
X210204960Y-63559577D01*
X210171783Y-63540422D01*
X210171780Y-63540421D01*
X210019063Y-63499501D01*
X210019058Y-63499500D01*
X210019057Y-63499500D01*
X209860943Y-63499500D01*
X209860942Y-63499500D01*
X209860936Y-63499501D01*
X209708219Y-63540421D01*
X209708216Y-63540422D01*
X209621483Y-63590498D01*
X209571284Y-63619480D01*
X209571283Y-63619481D01*
X209538533Y-63652231D01*
X209494338Y-63670536D01*
X209463172Y-63659953D01*
X209462263Y-63661529D01*
X209458718Y-63659482D01*
X209458716Y-63659480D01*
X209336628Y-63588993D01*
X209321783Y-63580422D01*
X209321780Y-63580421D01*
X209169063Y-63539501D01*
X209169058Y-63539500D01*
X209169057Y-63539500D01*
X209010943Y-63539500D01*
X209010942Y-63539500D01*
X209010936Y-63539501D01*
X208858219Y-63580421D01*
X208858216Y-63580422D01*
X208761964Y-63635993D01*
X208721284Y-63659480D01*
X208721283Y-63659481D01*
X208721279Y-63659484D01*
X208609484Y-63771279D01*
X208609481Y-63771283D01*
X208530422Y-63908216D01*
X208530421Y-63908219D01*
X208489501Y-64060936D01*
X208489500Y-64060944D01*
X207978059Y-64060944D01*
X207978305Y-64060351D01*
X208026003Y-64012653D01*
X208722984Y-63315672D01*
X209544115Y-62494541D01*
X209620776Y-62379809D01*
X209673581Y-62252327D01*
X209684884Y-62195500D01*
X209684885Y-62195498D01*
X209692421Y-62157610D01*
X209700501Y-62116991D01*
X209700501Y-58783000D01*
X209718807Y-58738806D01*
X209763001Y-58720500D01*
X210321559Y-58720500D01*
X210365753Y-58738806D01*
X210373526Y-58748277D01*
X210378210Y-58755288D01*
X210489711Y-58866789D01*
X210620819Y-58954393D01*
X210620820Y-58954393D01*
X210620821Y-58954394D01*
X210766503Y-59014737D01*
X210921158Y-59045500D01*
X211078842Y-59045500D01*
X211233497Y-59014737D01*
X211379179Y-58954394D01*
X211503277Y-58871473D01*
X211550193Y-58862142D01*
X211589967Y-58888718D01*
X211600500Y-58923441D01*
X211600500Y-64227000D01*
X211582194Y-64271194D01*
X211538000Y-64289500D01*
X210940252Y-64289500D01*
X210881769Y-64301132D01*
X210881767Y-64301133D01*
X210815447Y-64345447D01*
X210771133Y-64411767D01*
X210771132Y-64411769D01*
X210759500Y-64470251D01*
X210759500Y-66009748D01*
X210771132Y-66068230D01*
X210771133Y-66068232D01*
X210815447Y-66134552D01*
X210881767Y-66178866D01*
X210881769Y-66178867D01*
X210940252Y-66190500D01*
X211579748Y-66190500D01*
X211638231Y-66178867D01*
X211704552Y-66134552D01*
X211748867Y-66068231D01*
X211760500Y-66009748D01*
X211760500Y-65225715D01*
X211778806Y-65181521D01*
X212152806Y-64807521D01*
X212197000Y-64789215D01*
X212241194Y-64807521D01*
X212259500Y-64851715D01*
X212259500Y-66009748D01*
X212271132Y-66068230D01*
X212271133Y-66068232D01*
X212315447Y-66134552D01*
X212381767Y-66178866D01*
X212381769Y-66178867D01*
X212440252Y-66190500D01*
X213079748Y-66190500D01*
X213138231Y-66178867D01*
X213204552Y-66134552D01*
X213248867Y-66068231D01*
X213260500Y-66009748D01*
X213260500Y-64470252D01*
X213248867Y-64411769D01*
X213246688Y-64408508D01*
X213204552Y-64345447D01*
X213138232Y-64301133D01*
X213138228Y-64301132D01*
X213135801Y-64300649D01*
X213133745Y-64299275D01*
X213132545Y-64298778D01*
X213132643Y-64298539D01*
X213096030Y-64274069D01*
X213085500Y-64239351D01*
X213085500Y-62890944D01*
X219299500Y-62890944D01*
X219299500Y-63049055D01*
X219299501Y-63049063D01*
X219340421Y-63201780D01*
X219340422Y-63201783D01*
X219351969Y-63221783D01*
X219419480Y-63338716D01*
X219531284Y-63450520D01*
X219668216Y-63529577D01*
X219668219Y-63529578D01*
X219742857Y-63549577D01*
X219820943Y-63570500D01*
X219820944Y-63570500D01*
X219979056Y-63570500D01*
X219979057Y-63570500D01*
X220131784Y-63529577D01*
X220268716Y-63450520D01*
X220380520Y-63338716D01*
X220459577Y-63201784D01*
X220500500Y-63049057D01*
X220500500Y-62910944D01*
X220829500Y-62910944D01*
X220829500Y-63069055D01*
X220829501Y-63069063D01*
X220870421Y-63221780D01*
X220870422Y-63221783D01*
X220870423Y-63221784D01*
X220949480Y-63358716D01*
X221061284Y-63470520D01*
X221180762Y-63539500D01*
X221198216Y-63549577D01*
X221198219Y-63549578D01*
X221235540Y-63559578D01*
X221350943Y-63590500D01*
X221350944Y-63590500D01*
X221509056Y-63590500D01*
X221509057Y-63590500D01*
X221661784Y-63549577D01*
X221798716Y-63470520D01*
X221910520Y-63358716D01*
X221989577Y-63221784D01*
X222030500Y-63069057D01*
X222030500Y-62920944D01*
X222179500Y-62920944D01*
X222179500Y-63079055D01*
X222179501Y-63079063D01*
X222220421Y-63231780D01*
X222220422Y-63231783D01*
X222220423Y-63231784D01*
X222299480Y-63368716D01*
X222411284Y-63480520D01*
X222530897Y-63549578D01*
X222548216Y-63559577D01*
X222548219Y-63559578D01*
X222588981Y-63570500D01*
X222700943Y-63600500D01*
X222700944Y-63600500D01*
X222859056Y-63600500D01*
X222859057Y-63600500D01*
X223011784Y-63559577D01*
X223148716Y-63480520D01*
X223260520Y-63368716D01*
X223339577Y-63231784D01*
X223380500Y-63079057D01*
X223380500Y-62920943D01*
X223360531Y-62846419D01*
X223339578Y-62768219D01*
X223339577Y-62768216D01*
X223333805Y-62758219D01*
X223260520Y-62631284D01*
X223148716Y-62519480D01*
X223052464Y-62463909D01*
X223011783Y-62440422D01*
X223011780Y-62440421D01*
X222859063Y-62399501D01*
X222859058Y-62399500D01*
X222859057Y-62399500D01*
X222700943Y-62399500D01*
X222700942Y-62399500D01*
X222700936Y-62399501D01*
X222548219Y-62440421D01*
X222548216Y-62440422D01*
X222454482Y-62494540D01*
X222411284Y-62519480D01*
X222411283Y-62519481D01*
X222411279Y-62519484D01*
X222299484Y-62631279D01*
X222299481Y-62631283D01*
X222220422Y-62768216D01*
X222220421Y-62768219D01*
X222179501Y-62920936D01*
X222179500Y-62920944D01*
X222030500Y-62920944D01*
X222030500Y-62910943D01*
X221992257Y-62768219D01*
X221989578Y-62758219D01*
X221989577Y-62758216D01*
X221978030Y-62738216D01*
X221910520Y-62621284D01*
X221798716Y-62509480D01*
X221679103Y-62440422D01*
X221661783Y-62430422D01*
X221661780Y-62430421D01*
X221509063Y-62389501D01*
X221509058Y-62389500D01*
X221509057Y-62389500D01*
X221350943Y-62389500D01*
X221350942Y-62389500D01*
X221350936Y-62389501D01*
X221198219Y-62430421D01*
X221198216Y-62430422D01*
X221111997Y-62480201D01*
X221061284Y-62509480D01*
X221061283Y-62509481D01*
X221061279Y-62509484D01*
X220949484Y-62621279D01*
X220949481Y-62621283D01*
X220949480Y-62621284D01*
X220943707Y-62631283D01*
X220870422Y-62758216D01*
X220870421Y-62758219D01*
X220829501Y-62910936D01*
X220829500Y-62910944D01*
X220500500Y-62910944D01*
X220500500Y-62890943D01*
X220467616Y-62768219D01*
X220459578Y-62738219D01*
X220459577Y-62738216D01*
X220380520Y-62601284D01*
X220268716Y-62489480D01*
X220152290Y-62422262D01*
X220131783Y-62410422D01*
X220131780Y-62410421D01*
X219979063Y-62369501D01*
X219979058Y-62369500D01*
X219979057Y-62369500D01*
X219820943Y-62369500D01*
X219820942Y-62369500D01*
X219820936Y-62369501D01*
X219668219Y-62410421D01*
X219668216Y-62410422D01*
X219571964Y-62465993D01*
X219531284Y-62489480D01*
X219531283Y-62489481D01*
X219531279Y-62489484D01*
X219419484Y-62601279D01*
X219419481Y-62601283D01*
X219340422Y-62738216D01*
X219340421Y-62738219D01*
X219299501Y-62890936D01*
X219299500Y-62890944D01*
X213085500Y-62890944D01*
X213085500Y-61333305D01*
X213103806Y-61289111D01*
X213148000Y-61270805D01*
X213192194Y-61289111D01*
X213202124Y-61302051D01*
X213269480Y-61418716D01*
X213381284Y-61530520D01*
X213493834Y-61595500D01*
X213518216Y-61609577D01*
X213518219Y-61609578D01*
X213611681Y-61634621D01*
X213670943Y-61650500D01*
X213670944Y-61650500D01*
X213829056Y-61650500D01*
X213829057Y-61650500D01*
X213981784Y-61609577D01*
X214118716Y-61530520D01*
X214187918Y-61461317D01*
X214232111Y-61443012D01*
X214276305Y-61461318D01*
X214287799Y-61477137D01*
X214321470Y-61543220D01*
X214416778Y-61638528D01*
X214536867Y-61699717D01*
X214536869Y-61699717D01*
X214536872Y-61699719D01*
X214536875Y-61699719D01*
X214536877Y-61699720D01*
X214636496Y-61715498D01*
X214636502Y-61715498D01*
X214636510Y-61715500D01*
X214636512Y-61715500D01*
X215203484Y-61715500D01*
X215203486Y-61715500D01*
X215275508Y-61704093D01*
X215303118Y-61699720D01*
X215303118Y-61699719D01*
X215303124Y-61699719D01*
X215423218Y-61638528D01*
X215447940Y-61613806D01*
X215492134Y-61595500D01*
X215683163Y-61595500D01*
X215714412Y-61603872D01*
X215828211Y-61669574D01*
X215828216Y-61669577D01*
X215828219Y-61669578D01*
X215921681Y-61694621D01*
X215980943Y-61710500D01*
X215980944Y-61710500D01*
X216139056Y-61710500D01*
X216139057Y-61710500D01*
X216291784Y-61669577D01*
X216300777Y-61664384D01*
X216325750Y-61649967D01*
X216373176Y-61643723D01*
X216411126Y-61672843D01*
X216419500Y-61704093D01*
X216419500Y-61947130D01*
X216419501Y-61947134D01*
X216435484Y-62027493D01*
X216435486Y-62027497D01*
X216496375Y-62118624D01*
X216587503Y-62179514D01*
X216587505Y-62179515D01*
X216667867Y-62195500D01*
X216872132Y-62195499D01*
X216952495Y-62179515D01*
X216985276Y-62157610D01*
X217032189Y-62148276D01*
X217054723Y-62157610D01*
X217087503Y-62179513D01*
X217087506Y-62179515D01*
X217161032Y-62194140D01*
X217198424Y-62217391D01*
X217284905Y-62330094D01*
X217405020Y-62422262D01*
X217544895Y-62480199D01*
X217544902Y-62480201D01*
X217619999Y-62490087D01*
X217620000Y-62490086D01*
X217620000Y-61955291D01*
X217620301Y-61949165D01*
X217620499Y-61947141D01*
X217620501Y-61947133D01*
X217620500Y-60592868D01*
X217620499Y-60592867D01*
X217620499Y-60592865D01*
X217919499Y-60592865D01*
X217919499Y-60592867D01*
X217919499Y-61129057D01*
X217919500Y-61270000D01*
X217919500Y-61947133D01*
X217919699Y-61949154D01*
X217920000Y-61955280D01*
X217920000Y-62490087D01*
X217995097Y-62480201D01*
X217995104Y-62480199D01*
X218134979Y-62422262D01*
X218255096Y-62330093D01*
X218341576Y-62217390D01*
X218378966Y-62194139D01*
X218452494Y-62179515D01*
X218485275Y-62157610D01*
X218532188Y-62148276D01*
X218554722Y-62157610D01*
X218587502Y-62179513D01*
X218587505Y-62179515D01*
X218667867Y-62195500D01*
X218872132Y-62195499D01*
X218952495Y-62179515D01*
X219043624Y-62118624D01*
X219104515Y-62027495D01*
X219120500Y-61947133D01*
X219120499Y-60592868D01*
X219104515Y-60512505D01*
X219089760Y-60490423D01*
X219043624Y-60421375D01*
X218952496Y-60360485D01*
X218952494Y-60360484D01*
X218872133Y-60344500D01*
X218796712Y-60344500D01*
X218796711Y-60344499D01*
X218796711Y-60344500D01*
X218752517Y-60326194D01*
X218739573Y-60294943D01*
X218734212Y-60282000D01*
X218740008Y-60268008D01*
X218752516Y-60237807D01*
X218806520Y-60183804D01*
X218850713Y-60165500D01*
X218852853Y-60165500D01*
X234269285Y-60165500D01*
X234313479Y-60183806D01*
X239476194Y-65346520D01*
X239494500Y-65390714D01*
X239494500Y-242118445D01*
X239476194Y-242162639D01*
X239463253Y-242172569D01*
X239453620Y-242178131D01*
X239451282Y-242179481D01*
X239451278Y-242179484D01*
X239339484Y-242291279D01*
X239339481Y-242291283D01*
X239260422Y-242428216D01*
X239260421Y-242428219D01*
X239219501Y-242580936D01*
X239219500Y-242580944D01*
X239219500Y-242739055D01*
X239219501Y-242739063D01*
X239260421Y-242891780D01*
X239260422Y-242891783D01*
X239260423Y-242891784D01*
X239339480Y-243028716D01*
X239451284Y-243140520D01*
X239588216Y-243219577D01*
X239588219Y-243219578D01*
X239681681Y-243244621D01*
X239740943Y-243260500D01*
X239740944Y-243260500D01*
X239899056Y-243260500D01*
X239899057Y-243260500D01*
X240051784Y-243219577D01*
X240188716Y-243140520D01*
X240300520Y-243028716D01*
X240379577Y-242891784D01*
X240420500Y-242739057D01*
X240420500Y-242580943D01*
X240379577Y-242428216D01*
X240300520Y-242291284D01*
X240300515Y-242291279D01*
X240188721Y-242179484D01*
X240188717Y-242179481D01*
X240188716Y-242179480D01*
X240176749Y-242172570D01*
X240147630Y-242134621D01*
X240145500Y-242118445D01*
X240145500Y-65187148D01*
X240145499Y-65187142D01*
X240125561Y-65112734D01*
X240123318Y-65104362D01*
X240123318Y-65104361D01*
X240080465Y-65030138D01*
X240080463Y-65030136D01*
X240080460Y-65030132D01*
X234629867Y-59579539D01*
X234629858Y-59579532D01*
X234555644Y-59536684D01*
X234555635Y-59536680D01*
X234472859Y-59514501D01*
X234472854Y-59514500D01*
X234472853Y-59514500D01*
X234472852Y-59514500D01*
X218957888Y-59514500D01*
X218926638Y-59506126D01*
X218902456Y-59492165D01*
X218875639Y-59476681D01*
X218875634Y-59476679D01*
X218792858Y-59454500D01*
X218792853Y-59454499D01*
X218792852Y-59454499D01*
X218707146Y-59454499D01*
X218707145Y-59454499D01*
X218707139Y-59454500D01*
X218624363Y-59476679D01*
X218624354Y-59476683D01*
X218550140Y-59519531D01*
X218550131Y-59519538D01*
X218029947Y-60039723D01*
X217985753Y-60058029D01*
X217977595Y-60057494D01*
X217920000Y-60049911D01*
X217920000Y-60584711D01*
X217919699Y-60590838D01*
X217919499Y-60592865D01*
X217620499Y-60592865D01*
X217620301Y-60590850D01*
X217620000Y-60584722D01*
X217620000Y-60049912D01*
X217619999Y-60049911D01*
X217599533Y-60052606D01*
X217553328Y-60040225D01*
X217545123Y-60032676D01*
X217540609Y-60027709D01*
X217530464Y-60010137D01*
X217469861Y-59949534D01*
X217469858Y-59949532D01*
X217383099Y-59862773D01*
X217364793Y-59818579D01*
X217366923Y-59802401D01*
X217370498Y-59789058D01*
X217370499Y-59789055D01*
X217370499Y-59630943D01*
X217370497Y-59630935D01*
X217329577Y-59478218D01*
X217329576Y-59478215D01*
X217250519Y-59341283D01*
X217138715Y-59229479D01*
X217042463Y-59173908D01*
X217001782Y-59150421D01*
X217001779Y-59150420D01*
X216849062Y-59109500D01*
X216849057Y-59109499D01*
X216849056Y-59109499D01*
X216690942Y-59109499D01*
X216690941Y-59109499D01*
X216690935Y-59109500D01*
X216538218Y-59150420D01*
X216538215Y-59150421D01*
X216474310Y-59187317D01*
X216401283Y-59229479D01*
X216401282Y-59229480D01*
X216401278Y-59229483D01*
X216289483Y-59341278D01*
X216289480Y-59341282D01*
X216210421Y-59478215D01*
X216210420Y-59478218D01*
X216169500Y-59630935D01*
X216169499Y-59630943D01*
X216169499Y-59789054D01*
X216169500Y-59789062D01*
X216210420Y-59941779D01*
X216210421Y-59941782D01*
X216210422Y-59941783D01*
X216289479Y-60078715D01*
X216401283Y-60190519D01*
X216483186Y-60237805D01*
X216538215Y-60269576D01*
X216541999Y-60271143D01*
X216541429Y-60272517D01*
X216575215Y-60298438D01*
X216581463Y-60345863D01*
X216555815Y-60381658D01*
X216496376Y-60421374D01*
X216435485Y-60512503D01*
X216435485Y-60512504D01*
X216430932Y-60535394D01*
X216404356Y-60575167D01*
X216357439Y-60584499D01*
X216338384Y-60577327D01*
X216316595Y-60564747D01*
X216291783Y-60550422D01*
X216291780Y-60550421D01*
X216139063Y-60509501D01*
X216139058Y-60509500D01*
X216139057Y-60509500D01*
X215980943Y-60509500D01*
X215980942Y-60509500D01*
X215980936Y-60509501D01*
X215828219Y-60550421D01*
X215828216Y-60550422D01*
X215731964Y-60605993D01*
X215691284Y-60629480D01*
X215691283Y-60629481D01*
X215691279Y-60629484D01*
X215652078Y-60668684D01*
X215607884Y-60686989D01*
X215563690Y-60668682D01*
X215552197Y-60652863D01*
X215518526Y-60586780D01*
X215441078Y-60509332D01*
X215422772Y-60465138D01*
X215441078Y-60420944D01*
X215465617Y-60405809D01*
X215478482Y-60401546D01*
X215622729Y-60312573D01*
X215742571Y-60192731D01*
X215831545Y-60048483D01*
X215859209Y-59965000D01*
X213980787Y-59965000D01*
X214008450Y-60048483D01*
X214097424Y-60192731D01*
X214217266Y-60312573D01*
X214361512Y-60401546D01*
X214374379Y-60405809D01*
X214410574Y-60437085D01*
X214414052Y-60484794D01*
X214398917Y-60509332D01*
X214321468Y-60586781D01*
X214297924Y-60632988D01*
X214261550Y-60664054D01*
X214213862Y-60660300D01*
X214198043Y-60648807D01*
X214118720Y-60569484D01*
X214118716Y-60569480D01*
X214020033Y-60512506D01*
X213981783Y-60490422D01*
X213981780Y-60490421D01*
X213829063Y-60449501D01*
X213829058Y-60449500D01*
X213829057Y-60449500D01*
X213670943Y-60449500D01*
X213670942Y-60449500D01*
X213670936Y-60449501D01*
X213518219Y-60490421D01*
X213518216Y-60490422D01*
X213440323Y-60535394D01*
X213381284Y-60569480D01*
X213381283Y-60569481D01*
X213381279Y-60569484D01*
X213269484Y-60681279D01*
X213269477Y-60681288D01*
X213202126Y-60797944D01*
X213164176Y-60827064D01*
X213116750Y-60820820D01*
X213087630Y-60782870D01*
X213085500Y-60766694D01*
X213085500Y-59065000D01*
X213980786Y-59065000D01*
X214469998Y-59065000D01*
X215369998Y-59065000D01*
X215859209Y-59065000D01*
X215831545Y-58981516D01*
X215742571Y-58837268D01*
X215622729Y-58717426D01*
X215478481Y-58628452D01*
X215369998Y-58592504D01*
X215369998Y-59065000D01*
X214469998Y-59065000D01*
X214469998Y-58592504D01*
X214361514Y-58628452D01*
X214217266Y-58717426D01*
X214097424Y-58837268D01*
X214008450Y-58981516D01*
X213980786Y-59065000D01*
X213085500Y-59065000D01*
X213085500Y-56202585D01*
X213085499Y-56202579D01*
X213070242Y-56145640D01*
X213070242Y-56145639D01*
X213063318Y-56119798D01*
X213059107Y-56112505D01*
X213020467Y-56045578D01*
X213020460Y-56045569D01*
X212514892Y-55540001D01*
X213737736Y-55540001D01*
X213760640Y-55609122D01*
X213852681Y-55758344D01*
X213976655Y-55882318D01*
X214125877Y-55974359D01*
X214292307Y-56029508D01*
X214395016Y-56040000D01*
X215419999Y-56040000D01*
X215444975Y-56040000D01*
X215444986Y-56039999D01*
X215547686Y-56029508D01*
X215547693Y-56029507D01*
X215714120Y-55974359D01*
X215863342Y-55882318D01*
X215987316Y-55758344D01*
X216079357Y-55609122D01*
X216102262Y-55540001D01*
X215419999Y-55540001D01*
X215419999Y-56040000D01*
X214395016Y-56040000D01*
X214419998Y-56039999D01*
X214419999Y-56039999D01*
X214419999Y-55540001D01*
X213737736Y-55540001D01*
X212514892Y-55540001D01*
X211394430Y-54419539D01*
X211394421Y-54419532D01*
X211320207Y-54376684D01*
X211320198Y-54376680D01*
X211237422Y-54354501D01*
X211237417Y-54354500D01*
X211237416Y-54354500D01*
X211237415Y-54354500D01*
X209517000Y-54354500D01*
X209472806Y-54336194D01*
X209454500Y-54292000D01*
X209454500Y-54001914D01*
X209472806Y-53957720D01*
X209517000Y-53939414D01*
X209526777Y-53940184D01*
X209623467Y-53955498D01*
X209623469Y-53955498D01*
X209623481Y-53955500D01*
X210086518Y-53955499D01*
X210180304Y-53940646D01*
X210293342Y-53883050D01*
X210383050Y-53793342D01*
X210435176Y-53691039D01*
X210471548Y-53659974D01*
X210519236Y-53663727D01*
X210522112Y-53665289D01*
X210594946Y-53707340D01*
X210594949Y-53707341D01*
X210594952Y-53707343D01*
X210594953Y-53707343D01*
X210594955Y-53707344D01*
X210688417Y-53732387D01*
X210747679Y-53748266D01*
X210747680Y-53748266D01*
X210905792Y-53748266D01*
X210905793Y-53748266D01*
X211058520Y-53707343D01*
X211195452Y-53628286D01*
X211307256Y-53516482D01*
X211314165Y-53504515D01*
X211352115Y-53475396D01*
X211368291Y-53473266D01*
X212087420Y-53473266D01*
X212131614Y-53491572D01*
X212149151Y-53525989D01*
X212150281Y-53533127D01*
X212211471Y-53653219D01*
X212306780Y-53748528D01*
X212426869Y-53809717D01*
X212426871Y-53809717D01*
X212426874Y-53809719D01*
X212426877Y-53809719D01*
X212426879Y-53809720D01*
X212526498Y-53825498D01*
X212526504Y-53825498D01*
X212526512Y-53825500D01*
X212526514Y-53825500D01*
X213043486Y-53825500D01*
X213043488Y-53825500D01*
X213126212Y-53812398D01*
X213143120Y-53809720D01*
X213143120Y-53809719D01*
X213143126Y-53809719D01*
X213263220Y-53748528D01*
X213340667Y-53671080D01*
X213384860Y-53652775D01*
X213429054Y-53671081D01*
X213444187Y-53695613D01*
X213448452Y-53708483D01*
X213537426Y-53852731D01*
X213657268Y-53972573D01*
X213801515Y-54061546D01*
X213939133Y-54107148D01*
X213975326Y-54138426D01*
X213978802Y-54186135D01*
X213963668Y-54210670D01*
X213852681Y-54321657D01*
X213760640Y-54470879D01*
X213737735Y-54540001D01*
X215923786Y-54540001D01*
X215967980Y-54558307D01*
X216926195Y-55516522D01*
X216944501Y-55560716D01*
X216944501Y-55882738D01*
X216926195Y-55926932D01*
X216882001Y-55945238D01*
X216875209Y-55944572D01*
X216875187Y-55944801D01*
X216872134Y-55944500D01*
X216872133Y-55944500D01*
X216872131Y-55944500D01*
X216667869Y-55944500D01*
X216667865Y-55944501D01*
X216587506Y-55960484D01*
X216587502Y-55960486D01*
X216496375Y-56021375D01*
X216435485Y-56112503D01*
X216435484Y-56112505D01*
X216419500Y-56192866D01*
X216419500Y-56482000D01*
X216401194Y-56526194D01*
X216357000Y-56544500D01*
X215865716Y-56544500D01*
X215821522Y-56526194D01*
X215806723Y-56502641D01*
X215797792Y-56477117D01*
X215717149Y-56367849D01*
X215607881Y-56287206D01*
X215479700Y-56242353D01*
X215479695Y-56242352D01*
X215459698Y-56240477D01*
X215449265Y-56239499D01*
X214390733Y-56239499D01*
X214381123Y-56240400D01*
X214360302Y-56242352D01*
X214360297Y-56242353D01*
X214232116Y-56287206D01*
X214232115Y-56287206D01*
X214122849Y-56367849D01*
X214042206Y-56477115D01*
X214042206Y-56477116D01*
X213997353Y-56605297D01*
X213997352Y-56605302D01*
X213994499Y-56635736D01*
X213994499Y-57244261D01*
X213997352Y-57274695D01*
X213997353Y-57274700D01*
X214042206Y-57402881D01*
X214042206Y-57402882D01*
X214082527Y-57457515D01*
X214122849Y-57512149D01*
X214232117Y-57592792D01*
X214360300Y-57637645D01*
X214390733Y-57640499D01*
X214390737Y-57640499D01*
X215449261Y-57640499D01*
X215449265Y-57640499D01*
X215479698Y-57637645D01*
X215607881Y-57592792D01*
X215717149Y-57512149D01*
X215797792Y-57402881D01*
X215842645Y-57274698D01*
X215844758Y-57252164D01*
X215867110Y-57209873D01*
X215906985Y-57195500D01*
X216357001Y-57195500D01*
X216401195Y-57213806D01*
X216419501Y-57258000D01*
X216419501Y-57547134D01*
X216435484Y-57627493D01*
X216435486Y-57627497D01*
X216496375Y-57718624D01*
X216587503Y-57779514D01*
X216587505Y-57779515D01*
X216667867Y-57795500D01*
X216872132Y-57795499D01*
X216952495Y-57779515D01*
X216985276Y-57757610D01*
X217032189Y-57748276D01*
X217054723Y-57757610D01*
X217087503Y-57779513D01*
X217087506Y-57779515D01*
X217167868Y-57795500D01*
X217372133Y-57795499D01*
X217452496Y-57779515D01*
X217485277Y-57757610D01*
X217532191Y-57748278D01*
X217554724Y-57757611D01*
X217587502Y-57779514D01*
X217587505Y-57779515D01*
X217661031Y-57794140D01*
X217698423Y-57817391D01*
X217784904Y-57930094D01*
X217905019Y-58022262D01*
X218044894Y-58080199D01*
X218044901Y-58080201D01*
X218119998Y-58090087D01*
X218119999Y-58090086D01*
X218119999Y-57555291D01*
X218120300Y-57549165D01*
X218120498Y-57547141D01*
X218120500Y-57547133D01*
X218120499Y-56932498D01*
X218138805Y-56888306D01*
X218182999Y-56870000D01*
X218357001Y-56870000D01*
X218401195Y-56888306D01*
X218419501Y-56932500D01*
X218419501Y-57547132D01*
X218419698Y-57549133D01*
X218419999Y-57555259D01*
X218419999Y-57797544D01*
X218417869Y-57813720D01*
X218394499Y-57900936D01*
X218394498Y-57900944D01*
X218394498Y-58059055D01*
X218394499Y-58059063D01*
X218435419Y-58211780D01*
X218435420Y-58211783D01*
X218435421Y-58211784D01*
X218514478Y-58348716D01*
X218626282Y-58460520D01*
X218763214Y-58539577D01*
X218763217Y-58539578D01*
X218856679Y-58564621D01*
X218915941Y-58580500D01*
X218915942Y-58580500D01*
X219074054Y-58580500D01*
X219074055Y-58580500D01*
X219226782Y-58539577D01*
X219363714Y-58460520D01*
X219475518Y-58348716D01*
X219554575Y-58211784D01*
X219595498Y-58059057D01*
X219595498Y-57900943D01*
X219567245Y-57795500D01*
X219554576Y-57748219D01*
X219554575Y-57748216D01*
X219475518Y-57611284D01*
X219363714Y-57499480D01*
X219226782Y-57420423D01*
X219226781Y-57420422D01*
X219226780Y-57420422D01*
X219166822Y-57404356D01*
X219128872Y-57375235D01*
X219120499Y-57343986D01*
X219120499Y-56192869D01*
X219120499Y-56192867D01*
X219104515Y-56112505D01*
X219104513Y-56112503D01*
X219102158Y-56106815D01*
X219103454Y-56106278D01*
X219095500Y-56080053D01*
X219095500Y-56065781D01*
X219113806Y-56021587D01*
X219126751Y-56011654D01*
X219128716Y-56010520D01*
X219240520Y-55898716D01*
X219319577Y-55761784D01*
X219360500Y-55609057D01*
X219360500Y-55450943D01*
X219319577Y-55298216D01*
X219240520Y-55161284D01*
X219128716Y-55049480D01*
X219032464Y-54993909D01*
X218991783Y-54970422D01*
X218991780Y-54970421D01*
X218839063Y-54929501D01*
X218839058Y-54929500D01*
X218839057Y-54929500D01*
X218680943Y-54929500D01*
X218680942Y-54929500D01*
X218680936Y-54929501D01*
X218528219Y-54970421D01*
X218528216Y-54970422D01*
X218435753Y-55023806D01*
X218391284Y-55049480D01*
X218391283Y-55049481D01*
X218391279Y-55049484D01*
X218279484Y-55161279D01*
X218279477Y-55161288D01*
X218212126Y-55277944D01*
X218174176Y-55307064D01*
X218126750Y-55300820D01*
X218097630Y-55262870D01*
X218095500Y-55246694D01*
X218095500Y-53055209D01*
X218095498Y-53055201D01*
X218073319Y-52972426D01*
X218073318Y-52972423D01*
X218067385Y-52962147D01*
X218030465Y-52898199D01*
X217969862Y-52837596D01*
X216883523Y-51751257D01*
X216865217Y-51707063D01*
X216883523Y-51662869D01*
X216893050Y-51653342D01*
X216950646Y-51540304D01*
X216965500Y-51446519D01*
X216965499Y-50833483D01*
X217414500Y-50833483D01*
X217414500Y-51446514D01*
X217414501Y-51446519D01*
X217429354Y-51540304D01*
X217429354Y-51540305D01*
X217444535Y-51570099D01*
X217486950Y-51653342D01*
X217576658Y-51743050D01*
X217689696Y-51800646D01*
X217689699Y-51800646D01*
X217689701Y-51800647D01*
X217783467Y-51815498D01*
X217783469Y-51815498D01*
X217783481Y-51815500D01*
X218246518Y-51815499D01*
X218340304Y-51800646D01*
X218453342Y-51743050D01*
X218543050Y-51653342D01*
X218575236Y-51590172D01*
X218611609Y-51559107D01*
X218659297Y-51562860D01*
X218675117Y-51574354D01*
X218750764Y-51650000D01*
X218781284Y-51680520D01*
X218903805Y-51751257D01*
X218918216Y-51759577D01*
X218918219Y-51759578D01*
X218991230Y-51779141D01*
X219070943Y-51800500D01*
X219070944Y-51800500D01*
X219229056Y-51800500D01*
X219229057Y-51800500D01*
X219381784Y-51759577D01*
X219518716Y-51680520D01*
X219630520Y-51568716D01*
X219709577Y-51431784D01*
X219750500Y-51279057D01*
X219750500Y-51120943D01*
X219731885Y-51051471D01*
X219709578Y-50968219D01*
X219709577Y-50968216D01*
X219686384Y-50928045D01*
X219630520Y-50831284D01*
X219518716Y-50719480D01*
X219412603Y-50658216D01*
X219381783Y-50640422D01*
X219381780Y-50640421D01*
X219229063Y-50599501D01*
X219229058Y-50599500D01*
X219229057Y-50599500D01*
X219070943Y-50599500D01*
X219070942Y-50599500D01*
X219070936Y-50599501D01*
X218918219Y-50640421D01*
X218918216Y-50640422D01*
X218852529Y-50678347D01*
X218781284Y-50719480D01*
X218781283Y-50719481D01*
X218781279Y-50719484D01*
X218709315Y-50791448D01*
X218665121Y-50809754D01*
X218620927Y-50791448D01*
X218603391Y-50757030D01*
X218600646Y-50739696D01*
X218543050Y-50626658D01*
X218453342Y-50536950D01*
X218406962Y-50513318D01*
X218340305Y-50479354D01*
X218340298Y-50479352D01*
X218246532Y-50464501D01*
X218246520Y-50464500D01*
X218246519Y-50464500D01*
X218246516Y-50464500D01*
X217783485Y-50464500D01*
X217783480Y-50464501D01*
X217689695Y-50479354D01*
X217689694Y-50479354D01*
X217576657Y-50536950D01*
X217486950Y-50626657D01*
X217429354Y-50739694D01*
X217429352Y-50739701D01*
X217414501Y-50833467D01*
X217414500Y-50833483D01*
X216965499Y-50833483D01*
X216965499Y-50833482D01*
X216950646Y-50739696D01*
X216893050Y-50626658D01*
X216803342Y-50536950D01*
X216756962Y-50513318D01*
X216690305Y-50479354D01*
X216690298Y-50479352D01*
X216596532Y-50464501D01*
X216596520Y-50464500D01*
X216596519Y-50464500D01*
X216596516Y-50464500D01*
X216133485Y-50464500D01*
X216133480Y-50464501D01*
X216039695Y-50479354D01*
X216039694Y-50479354D01*
X215926657Y-50536950D01*
X215842131Y-50621476D01*
X215797937Y-50639782D01*
X215753743Y-50621476D01*
X215351806Y-50219539D01*
X215351797Y-50219532D01*
X215277583Y-50176684D01*
X215277574Y-50176680D01*
X215194798Y-50154501D01*
X215194793Y-50154500D01*
X215194792Y-50154500D01*
X215194791Y-50154500D01*
X214812780Y-50154500D01*
X214768586Y-50136194D01*
X214750280Y-50092000D01*
X214768586Y-50047806D01*
X214785877Y-50030515D01*
X214823050Y-49993342D01*
X214880646Y-49880304D01*
X214883153Y-49864476D01*
X214895498Y-49786532D01*
X214895498Y-49786531D01*
X214895500Y-49786519D01*
X214895499Y-49173483D01*
X215344500Y-49173483D01*
X215344500Y-49786514D01*
X215344501Y-49786519D01*
X215359354Y-49880304D01*
X215359354Y-49880305D01*
X215394629Y-49949535D01*
X215416950Y-49993342D01*
X215506658Y-50083050D01*
X215619696Y-50140646D01*
X215619699Y-50140646D01*
X215619701Y-50140647D01*
X215713467Y-50155498D01*
X215713469Y-50155498D01*
X215713481Y-50155500D01*
X216176518Y-50155499D01*
X216270304Y-50140646D01*
X216383342Y-50083050D01*
X216392960Y-50073431D01*
X216437153Y-50055124D01*
X216468405Y-50063498D01*
X216548210Y-50109574D01*
X216548213Y-50109575D01*
X216548216Y-50109577D01*
X216548217Y-50109577D01*
X216548219Y-50109578D01*
X216559912Y-50112711D01*
X216700943Y-50150500D01*
X216700944Y-50150500D01*
X216859056Y-50150500D01*
X216859057Y-50150500D01*
X217011784Y-50109577D01*
X217148716Y-50030520D01*
X217260520Y-49918716D01*
X217339577Y-49781784D01*
X217380500Y-49629057D01*
X217380500Y-49470943D01*
X217339577Y-49318216D01*
X217260520Y-49181284D01*
X217148716Y-49069480D01*
X217052464Y-49013909D01*
X217011783Y-48990422D01*
X217011780Y-48990421D01*
X216859063Y-48949501D01*
X216859058Y-48949500D01*
X216859057Y-48949500D01*
X216700943Y-48949500D01*
X216700942Y-48949500D01*
X216700936Y-48949501D01*
X216544259Y-48991483D01*
X216543863Y-48990006D01*
X216501380Y-48989997D01*
X216474747Y-48968995D01*
X216473051Y-48966661D01*
X216473050Y-48966658D01*
X216383342Y-48876950D01*
X216378985Y-48874730D01*
X216270305Y-48819354D01*
X216270298Y-48819352D01*
X216176532Y-48804501D01*
X216176520Y-48804500D01*
X216176519Y-48804500D01*
X216176516Y-48804500D01*
X215713485Y-48804500D01*
X215713480Y-48804501D01*
X215619695Y-48819354D01*
X215619694Y-48819354D01*
X215506657Y-48876950D01*
X215416950Y-48966657D01*
X215359354Y-49079694D01*
X215359352Y-49079701D01*
X215344501Y-49173467D01*
X215344500Y-49173483D01*
X214895499Y-49173483D01*
X214895499Y-49173482D01*
X214880646Y-49079696D01*
X214823050Y-48966658D01*
X214733342Y-48876950D01*
X214728985Y-48874730D01*
X214620305Y-48819354D01*
X214620298Y-48819352D01*
X214526532Y-48804501D01*
X214526520Y-48804500D01*
X214526519Y-48804500D01*
X214526516Y-48804500D01*
X214063485Y-48804500D01*
X214063480Y-48804501D01*
X213969695Y-48819354D01*
X213969694Y-48819354D01*
X213856657Y-48876950D01*
X213766950Y-48966657D01*
X213709354Y-49079694D01*
X213709352Y-49079701D01*
X213694501Y-49173467D01*
X213694308Y-49175925D01*
X213692919Y-49175815D01*
X213676194Y-49216194D01*
X213632000Y-49234500D01*
X212108964Y-49234500D01*
X212077715Y-49226127D01*
X212041870Y-49205432D01*
X212041864Y-49205430D01*
X211945099Y-49179500D01*
X211945094Y-49179500D01*
X210514906Y-49179500D01*
X210514900Y-49179500D01*
X210418135Y-49205430D01*
X210418133Y-49205431D01*
X210331367Y-49255524D01*
X210260524Y-49326367D01*
X210210431Y-49413133D01*
X210210430Y-49413135D01*
X210184500Y-49509900D01*
X210184500Y-49610099D01*
X210210430Y-49706864D01*
X210210432Y-49706869D01*
X210258860Y-49790751D01*
X210265103Y-49838177D01*
X210235982Y-49876127D01*
X210204733Y-49884500D01*
X210168555Y-49884500D01*
X210168554Y-49884500D01*
X210168548Y-49884501D01*
X210085773Y-49906680D01*
X210085770Y-49906682D01*
X210027195Y-49940500D01*
X210027194Y-49940499D01*
X210011546Y-49949534D01*
X210011540Y-49949539D01*
X209798539Y-50162540D01*
X209798534Y-50162546D01*
X209755682Y-50236766D01*
X209755681Y-50236769D01*
X209750467Y-50256231D01*
X209733501Y-50319548D01*
X209733500Y-50319556D01*
X209733500Y-51657004D01*
X209715194Y-51701198D01*
X208868539Y-52547852D01*
X208868532Y-52547861D01*
X208825684Y-52622075D01*
X208825680Y-52622084D01*
X208805537Y-52697263D01*
X208805536Y-52697270D01*
X208803570Y-52704604D01*
X208774445Y-52742551D01*
X208727018Y-52748790D01*
X208699007Y-52732615D01*
X208643342Y-52676950D01*
X208530305Y-52619354D01*
X208530298Y-52619352D01*
X208436532Y-52604501D01*
X208436520Y-52604500D01*
X208436519Y-52604500D01*
X208436516Y-52604500D01*
X207973485Y-52604500D01*
X207973480Y-52604501D01*
X207879695Y-52619354D01*
X207879694Y-52619354D01*
X207766657Y-52676950D01*
X207676950Y-52766657D01*
X207619354Y-52879694D01*
X207619352Y-52879701D01*
X207604501Y-52973467D01*
X207604500Y-52973483D01*
X207604500Y-53499283D01*
X207586194Y-53543477D01*
X207582772Y-53546899D01*
X207538578Y-53565205D01*
X207522402Y-53563075D01*
X207509063Y-53559501D01*
X207509058Y-53559500D01*
X207509057Y-53559500D01*
X207350943Y-53559500D01*
X207350941Y-53559500D01*
X207324174Y-53566672D01*
X207276748Y-53560427D01*
X207247628Y-53522476D01*
X207245499Y-53506301D01*
X207245499Y-53093404D01*
X207247629Y-53077227D01*
X207255499Y-53047856D01*
X207255500Y-53047851D01*
X207255500Y-51963000D01*
X207273806Y-51918806D01*
X207318000Y-51900500D01*
X207645094Y-51900500D01*
X207645099Y-51900499D01*
X207673848Y-51892795D01*
X207741867Y-51874569D01*
X207828632Y-51824476D01*
X207899476Y-51753632D01*
X207949569Y-51666867D01*
X207968492Y-51596246D01*
X207975499Y-51570099D01*
X207975500Y-51570093D01*
X207975500Y-51469906D01*
X207975499Y-51469900D01*
X207959792Y-51411284D01*
X207949569Y-51373133D01*
X207899476Y-51286368D01*
X207847302Y-51234194D01*
X207828996Y-51190000D01*
X207847302Y-51145806D01*
X207872172Y-51120936D01*
X207899476Y-51093632D01*
X207949569Y-51006867D01*
X207970690Y-50928045D01*
X207975499Y-50910099D01*
X207975500Y-50910093D01*
X207975500Y-50809906D01*
X207975499Y-50809900D01*
X207956686Y-50739694D01*
X207949569Y-50713133D01*
X207899476Y-50626368D01*
X207873014Y-50599906D01*
X207854708Y-50555712D01*
X207873014Y-50511518D01*
X207885955Y-50501587D01*
X207939862Y-50470465D01*
X208000465Y-50409862D01*
X208043318Y-50335638D01*
X208056566Y-50286191D01*
X208072740Y-50258177D01*
X209671960Y-48658959D01*
X209716154Y-48640653D01*
X211243598Y-48640653D01*
X211287792Y-48658959D01*
X211297722Y-48671899D01*
X211304633Y-48683869D01*
X211304634Y-48683870D01*
X211304637Y-48683874D01*
X211416432Y-48795668D01*
X211416437Y-48795673D01*
X211553369Y-48874730D01*
X211553372Y-48874731D01*
X211646834Y-48899774D01*
X211706096Y-48915653D01*
X211706097Y-48915653D01*
X211864209Y-48915653D01*
X211864210Y-48915653D01*
X212016937Y-48874730D01*
X212153869Y-48795673D01*
X212265673Y-48683869D01*
X212344730Y-48546937D01*
X212385653Y-48394210D01*
X212385653Y-48236096D01*
X212344730Y-48083369D01*
X212265673Y-47946437D01*
X212153869Y-47834633D01*
X212057617Y-47779062D01*
X212016936Y-47755575D01*
X212016933Y-47755574D01*
X211864216Y-47714654D01*
X211864211Y-47714653D01*
X211864210Y-47714653D01*
X211706096Y-47714653D01*
X211706095Y-47714653D01*
X211706089Y-47714654D01*
X211553372Y-47755574D01*
X211553369Y-47755575D01*
X211495367Y-47789063D01*
X211416437Y-47834633D01*
X211416436Y-47834634D01*
X211416432Y-47834637D01*
X211304637Y-47946431D01*
X211304634Y-47946435D01*
X211304633Y-47946437D01*
X211297723Y-47958403D01*
X211259774Y-47987523D01*
X211243598Y-47989653D01*
X209512586Y-47989653D01*
X209512585Y-47989653D01*
X209512579Y-47989654D01*
X209429804Y-48011833D01*
X209429801Y-48011834D01*
X209355575Y-48054689D01*
X208241347Y-49168916D01*
X208197153Y-49187222D01*
X208152959Y-49168916D01*
X208145186Y-49159445D01*
X208123190Y-49126525D01*
X208028474Y-49031809D01*
X207917102Y-48957393D01*
X207917098Y-48957391D01*
X207793347Y-48906131D01*
X207661974Y-48880000D01*
X207110000Y-48880000D01*
X207110000Y-49497500D01*
X207091694Y-49541694D01*
X207047500Y-49560000D01*
X206930000Y-49560000D01*
X206930000Y-49677500D01*
X206911694Y-49721694D01*
X206867500Y-49740000D01*
X205607482Y-49740000D01*
X205611131Y-49758347D01*
X205611131Y-49758348D01*
X205662391Y-49882098D01*
X205662393Y-49882102D01*
X205736809Y-49993474D01*
X205831523Y-50088188D01*
X205831529Y-50088193D01*
X205856722Y-50105026D01*
X205860243Y-50110296D01*
X205866106Y-50112711D01*
X205873086Y-50129515D01*
X205883299Y-50144799D01*
X205884500Y-50156869D01*
X205884505Y-50159883D01*
X205884500Y-50159906D01*
X205884500Y-50260094D01*
X205884706Y-50260864D01*
X205884716Y-50265710D01*
X205877024Y-50284382D01*
X205871794Y-50303891D01*
X205868115Y-50306014D01*
X205866498Y-50309940D01*
X205847858Y-50317704D01*
X205830363Y-50327801D01*
X205824537Y-50327418D01*
X205822340Y-50328334D01*
X205819279Y-50327073D01*
X205806040Y-50326204D01*
X205669063Y-50289501D01*
X205669058Y-50289500D01*
X205669057Y-50289500D01*
X205510943Y-50289500D01*
X205510942Y-50289500D01*
X205510936Y-50289501D01*
X205358219Y-50330421D01*
X205358216Y-50330422D01*
X205261964Y-50385993D01*
X205221284Y-50409480D01*
X205221283Y-50409481D01*
X205221279Y-50409484D01*
X205109484Y-50521279D01*
X205109481Y-50521283D01*
X205109480Y-50521284D01*
X205089712Y-50555524D01*
X205030422Y-50658216D01*
X205030421Y-50658219D01*
X204989501Y-50810936D01*
X204989500Y-50810944D01*
X204989500Y-50969055D01*
X204989501Y-50969063D01*
X205022669Y-51092848D01*
X205016426Y-51140274D01*
X204990676Y-51164710D01*
X204966660Y-51176948D01*
X204966658Y-51176950D01*
X204876950Y-51266657D01*
X204819354Y-51379694D01*
X204819352Y-51379701D01*
X204804501Y-51473467D01*
X204804500Y-51473483D01*
X204804500Y-52086514D01*
X204804501Y-52086519D01*
X204819354Y-52180304D01*
X204819354Y-52180305D01*
X204853560Y-52247437D01*
X204876950Y-52293342D01*
X204966658Y-52383050D01*
X205079696Y-52440646D01*
X205079699Y-52440646D01*
X205079701Y-52440647D01*
X205173467Y-52455498D01*
X205173469Y-52455498D01*
X205173481Y-52455500D01*
X205636518Y-52455499D01*
X205730304Y-52440646D01*
X205843342Y-52383050D01*
X205933050Y-52293342D01*
X205990646Y-52180304D01*
X206005500Y-52086519D01*
X206005499Y-51917792D01*
X206023805Y-51873599D01*
X206067999Y-51855293D01*
X206099247Y-51863665D01*
X206118133Y-51874569D01*
X206143626Y-51881400D01*
X206214900Y-51900499D01*
X206214906Y-51900500D01*
X206542000Y-51900500D01*
X206586194Y-51918806D01*
X206604500Y-51963000D01*
X206604500Y-52552000D01*
X206586194Y-52596194D01*
X206542000Y-52614500D01*
X206413486Y-52614500D01*
X206413480Y-52614501D01*
X206319695Y-52629354D01*
X206319694Y-52629354D01*
X206206657Y-52686950D01*
X206116950Y-52776657D01*
X206059354Y-52889694D01*
X206059352Y-52889701D01*
X206044501Y-52983467D01*
X206044500Y-52983483D01*
X206044500Y-53596514D01*
X206044501Y-53596519D01*
X206059354Y-53690304D01*
X206059354Y-53690305D01*
X206096957Y-53764104D01*
X206116950Y-53803342D01*
X206206658Y-53893050D01*
X206319696Y-53950646D01*
X206319699Y-53950646D01*
X206319701Y-53950647D01*
X206413467Y-53965498D01*
X206413469Y-53965498D01*
X206413481Y-53965500D01*
X206778981Y-53965499D01*
X206823175Y-53983805D01*
X206841481Y-54027999D01*
X206839351Y-54044175D01*
X206829501Y-54080936D01*
X206829500Y-54080944D01*
X206829500Y-54239055D01*
X206829501Y-54239063D01*
X206870421Y-54391780D01*
X206870422Y-54391783D01*
X206886443Y-54419532D01*
X206949480Y-54528716D01*
X207061284Y-54640520D01*
X207176643Y-54707122D01*
X207198216Y-54719577D01*
X207198219Y-54719578D01*
X207260407Y-54736241D01*
X207350943Y-54760500D01*
X207350944Y-54760500D01*
X207509056Y-54760500D01*
X207509057Y-54760500D01*
X207661784Y-54719577D01*
X207672540Y-54713366D01*
X207719964Y-54707122D01*
X207757916Y-54736241D01*
X207764161Y-54783667D01*
X207747984Y-54811687D01*
X207472329Y-55087342D01*
X207428135Y-55105648D01*
X207393412Y-55095115D01*
X207387035Y-55090854D01*
X207379179Y-55085605D01*
X207234760Y-55025785D01*
X207233495Y-55025261D01*
X207078842Y-54994499D01*
X206921158Y-54994499D01*
X206766504Y-55025261D01*
X206620819Y-55085605D01*
X206489711Y-55173209D01*
X206378210Y-55284710D01*
X206290606Y-55415818D01*
X206230262Y-55561503D01*
X206199500Y-55716156D01*
X206199500Y-56323841D01*
X206230262Y-56478494D01*
X206230263Y-56478496D01*
X206290606Y-56624178D01*
X206298327Y-56635733D01*
X206330920Y-56684513D01*
X206340252Y-56731429D01*
X206313676Y-56771203D01*
X206311764Y-56772431D01*
X206181656Y-56852682D01*
X206057682Y-56976656D01*
X205965641Y-57125878D01*
X205910492Y-57292308D01*
X205900000Y-57395013D01*
X205900000Y-57420000D01*
X206937500Y-57420000D01*
X206981694Y-57438306D01*
X207000000Y-57482500D01*
X207000000Y-57595000D01*
X206944048Y-57595000D01*
X206835956Y-57623963D01*
X206739044Y-57679916D01*
X206659916Y-57759044D01*
X206603963Y-57855956D01*
X206575000Y-57964048D01*
X206575000Y-58075952D01*
X206603963Y-58184044D01*
X206659916Y-58280956D01*
X206739044Y-58360084D01*
X206835956Y-58416037D01*
X206944048Y-58445000D01*
X207055952Y-58445000D01*
X207164044Y-58416037D01*
X207260956Y-58360084D01*
X207340084Y-58280956D01*
X207396037Y-58184044D01*
X207425000Y-58075952D01*
X207425000Y-58020000D01*
X207537500Y-58020000D01*
X207581694Y-58038306D01*
X207600000Y-58082500D01*
X207600000Y-59302261D01*
X207669121Y-59279358D01*
X207818343Y-59187317D01*
X207942317Y-59063343D01*
X208034358Y-58914121D01*
X208089507Y-58747691D01*
X208099999Y-58644986D01*
X208099999Y-58458188D01*
X208118305Y-58413994D01*
X208162499Y-58395688D01*
X208206693Y-58413994D01*
X208223798Y-58445993D01*
X208230265Y-58478501D01*
X208290604Y-58624173D01*
X208292055Y-58626887D01*
X208290696Y-58627612D01*
X208299501Y-58656448D01*
X208299501Y-61731953D01*
X208281195Y-61776147D01*
X207256148Y-62801194D01*
X207211954Y-62819500D01*
X205331007Y-62819500D01*
X205195673Y-62846419D01*
X205195672Y-62846419D01*
X205068188Y-62899225D01*
X205068186Y-62899226D01*
X204953458Y-62975885D01*
X204855885Y-63073458D01*
X204779226Y-63188186D01*
X204779225Y-63188188D01*
X204726419Y-63315672D01*
X204726419Y-63315673D01*
X204699500Y-63451006D01*
X176919462Y-63451006D01*
X176919462Y-58644987D01*
X205900001Y-58644987D01*
X205910492Y-58747687D01*
X205910493Y-58747694D01*
X205965641Y-58914121D01*
X206057682Y-59063343D01*
X206181656Y-59187317D01*
X206330878Y-59279358D01*
X206330877Y-59279358D01*
X206400000Y-59302261D01*
X206400000Y-58620000D01*
X205900001Y-58620000D01*
X205900001Y-58644987D01*
X176919462Y-58644987D01*
X176919462Y-53210944D01*
X203379500Y-53210944D01*
X203379500Y-53369055D01*
X203379501Y-53369063D01*
X203420421Y-53521780D01*
X203420422Y-53521783D01*
X203432947Y-53543477D01*
X203499480Y-53658716D01*
X203611284Y-53770520D01*
X203744198Y-53847257D01*
X203748216Y-53849577D01*
X203748219Y-53849578D01*
X203834781Y-53872772D01*
X203900943Y-53890500D01*
X203900944Y-53890500D01*
X204059056Y-53890500D01*
X204059057Y-53890500D01*
X204211784Y-53849577D01*
X204348716Y-53770520D01*
X204355132Y-53764103D01*
X204399325Y-53745796D01*
X204443520Y-53764099D01*
X204455015Y-53779921D01*
X204466948Y-53803339D01*
X204466948Y-53803340D01*
X204466950Y-53803342D01*
X204556658Y-53893050D01*
X204669696Y-53950646D01*
X204669699Y-53950646D01*
X204669701Y-53950647D01*
X204763467Y-53965498D01*
X204763469Y-53965498D01*
X204763481Y-53965500D01*
X205226518Y-53965499D01*
X205320304Y-53950646D01*
X205433342Y-53893050D01*
X205523050Y-53803342D01*
X205580646Y-53690304D01*
X205585649Y-53658716D01*
X205595498Y-53596532D01*
X205595498Y-53596531D01*
X205595500Y-53596519D01*
X205595499Y-52983482D01*
X205580646Y-52889696D01*
X205523050Y-52776658D01*
X205433342Y-52686950D01*
X205394671Y-52667246D01*
X205320305Y-52629354D01*
X205320298Y-52629352D01*
X205226532Y-52614501D01*
X205226520Y-52614500D01*
X205226519Y-52614500D01*
X205226516Y-52614500D01*
X204763485Y-52614500D01*
X204763480Y-52614501D01*
X204669695Y-52629354D01*
X204669694Y-52629354D01*
X204556657Y-52686950D01*
X204466948Y-52776659D01*
X204466948Y-52776660D01*
X204455015Y-52800079D01*
X204418640Y-52831145D01*
X204370953Y-52827391D01*
X204355134Y-52815898D01*
X204348720Y-52809484D01*
X204348716Y-52809480D01*
X204215581Y-52732615D01*
X204211783Y-52730422D01*
X204211780Y-52730421D01*
X204059063Y-52689501D01*
X204059058Y-52689500D01*
X204059057Y-52689500D01*
X203900943Y-52689500D01*
X203900942Y-52689500D01*
X203900936Y-52689501D01*
X203748219Y-52730421D01*
X203748216Y-52730422D01*
X203668134Y-52776658D01*
X203611284Y-52809480D01*
X203611283Y-52809481D01*
X203611279Y-52809484D01*
X203499484Y-52921279D01*
X203499481Y-52921283D01*
X203420422Y-53058216D01*
X203420421Y-53058219D01*
X203379501Y-53210936D01*
X203379500Y-53210944D01*
X176919462Y-53210944D01*
X176919462Y-51700944D01*
X202319500Y-51700944D01*
X202319500Y-51859055D01*
X202319501Y-51859063D01*
X202360421Y-52011780D01*
X202360422Y-52011783D01*
X202383909Y-52052464D01*
X202439480Y-52148716D01*
X202551284Y-52260520D01*
X202663834Y-52325500D01*
X202688216Y-52339577D01*
X202688219Y-52339578D01*
X202737300Y-52352729D01*
X202840943Y-52380500D01*
X202840944Y-52380500D01*
X202999056Y-52380500D01*
X202999057Y-52380500D01*
X203151784Y-52339577D01*
X203187216Y-52319119D01*
X203234641Y-52312875D01*
X203262660Y-52329052D01*
X203316658Y-52383050D01*
X203429696Y-52440646D01*
X203429699Y-52440646D01*
X203429701Y-52440647D01*
X203523467Y-52455498D01*
X203523469Y-52455498D01*
X203523481Y-52455500D01*
X203986518Y-52455499D01*
X204080304Y-52440646D01*
X204193342Y-52383050D01*
X204283050Y-52293342D01*
X204340646Y-52180304D01*
X204355500Y-52086519D01*
X204355499Y-51473482D01*
X204340646Y-51379696D01*
X204283050Y-51266658D01*
X204193342Y-51176950D01*
X204168861Y-51164476D01*
X204080305Y-51119354D01*
X204080298Y-51119352D01*
X203986532Y-51104501D01*
X203986520Y-51104500D01*
X203986519Y-51104500D01*
X203986516Y-51104500D01*
X203523485Y-51104500D01*
X203523480Y-51104501D01*
X203429695Y-51119354D01*
X203429694Y-51119354D01*
X203316657Y-51176950D01*
X203262659Y-51230947D01*
X203218465Y-51249252D01*
X203187217Y-51240879D01*
X203151787Y-51220424D01*
X203151780Y-51220421D01*
X202999063Y-51179501D01*
X202999058Y-51179500D01*
X202999057Y-51179500D01*
X202840943Y-51179500D01*
X202840942Y-51179500D01*
X202840936Y-51179501D01*
X202688219Y-51220421D01*
X202688216Y-51220422D01*
X202591964Y-51275993D01*
X202551284Y-51299480D01*
X202551283Y-51299481D01*
X202551279Y-51299484D01*
X202439484Y-51411279D01*
X202439481Y-51411283D01*
X202439480Y-51411284D01*
X202419140Y-51446514D01*
X202360422Y-51548216D01*
X202360421Y-51548219D01*
X202319501Y-51700936D01*
X202319500Y-51700944D01*
X176919462Y-51700944D01*
X176919462Y-49379999D01*
X205607482Y-49379999D01*
X205607482Y-49380000D01*
X206750000Y-49380000D01*
X206750000Y-48880000D01*
X206198026Y-48880000D01*
X206066652Y-48906131D01*
X206066651Y-48906131D01*
X205942901Y-48957391D01*
X205942897Y-48957393D01*
X205831525Y-49031809D01*
X205736809Y-49126525D01*
X205662393Y-49237897D01*
X205662391Y-49237901D01*
X205611131Y-49361651D01*
X205611131Y-49361652D01*
X205607482Y-49379999D01*
X176919462Y-49379999D01*
X176919462Y-47630944D01*
X206629500Y-47630944D01*
X206629500Y-47789055D01*
X206629501Y-47789063D01*
X206670421Y-47941780D01*
X206670422Y-47941783D01*
X206673109Y-47946437D01*
X206749480Y-48078716D01*
X206861284Y-48190520D01*
X206998216Y-48269577D01*
X206998219Y-48269578D01*
X207091681Y-48294621D01*
X207150943Y-48310500D01*
X207150944Y-48310500D01*
X207309056Y-48310500D01*
X207309057Y-48310500D01*
X207461784Y-48269577D01*
X207598716Y-48190520D01*
X207710520Y-48078716D01*
X207789577Y-47941784D01*
X207830500Y-47789057D01*
X207830500Y-47630943D01*
X207802172Y-47525222D01*
X207789578Y-47478219D01*
X207789577Y-47478216D01*
X207788180Y-47475797D01*
X207710520Y-47341284D01*
X207598716Y-47229480D01*
X207502464Y-47173909D01*
X207461783Y-47150422D01*
X207461780Y-47150421D01*
X207309063Y-47109501D01*
X207309058Y-47109500D01*
X207309057Y-47109500D01*
X207150943Y-47109500D01*
X207150942Y-47109500D01*
X207150936Y-47109501D01*
X206998219Y-47150421D01*
X206998216Y-47150422D01*
X206901964Y-47205993D01*
X206861284Y-47229480D01*
X206861283Y-47229481D01*
X206861279Y-47229484D01*
X206749484Y-47341279D01*
X206749481Y-47341283D01*
X206670422Y-47478216D01*
X206670421Y-47478219D01*
X206629501Y-47630936D01*
X206629500Y-47630944D01*
X176919462Y-47630944D01*
X176919462Y-37227318D01*
X176919761Y-37221207D01*
X176922030Y-37198117D01*
X176937984Y-37035728D01*
X176940360Y-37023753D01*
X176993443Y-36848312D01*
X176998105Y-36837029D01*
X177084317Y-36675279D01*
X177091092Y-36665109D01*
X177107507Y-36645040D01*
X177207131Y-36523235D01*
X177215751Y-36514582D01*
X177357188Y-36398002D01*
X177367333Y-36391190D01*
X177528747Y-36304371D01*
X177540021Y-36299663D01*
X177715255Y-36245917D01*
X177727229Y-36243494D01*
X177900338Y-36225822D01*
X177906685Y-36225500D01*
X242124592Y-36225500D01*
X242142748Y-36228195D01*
G37*
%TD.AperFunction*%
%TD*%
%TA.AperFunction,NonConductor*%
G36*
X220343039Y-98019685D02*
G01*
X220388794Y-98072489D01*
X220400000Y-98124000D01*
X220400000Y-118676000D01*
X220380315Y-118743039D01*
X220327511Y-118788794D01*
X220276000Y-118800000D01*
X200024000Y-118800000D01*
X199956961Y-118780315D01*
X199911206Y-118727511D01*
X199900000Y-118676000D01*
X199900000Y-98124000D01*
X199919685Y-98056961D01*
X199972489Y-98011206D01*
X200024000Y-98000000D01*
X220276000Y-98000000D01*
X220343039Y-98019685D01*
G37*
%TD.AperFunction*%
M02*
