%TF.GenerationSoftware,KiCad,Pcbnew,9.0.0*%
%TF.CreationDate,2025-10-09T13:40:37-07:00*%
%TF.ProjectId,2U_XY_V1,32555f58-595f-4563-912e-6b696361645f,1.0*%
%TF.SameCoordinates,Original*%
%TF.FileFunction,Legend,Top*%
%TF.FilePolarity,Positive*%
%FSLAX46Y46*%
G04 Gerber Fmt 4.6, Leading zero omitted, Abs format (unit mm)*
G04 Created by KiCad (PCBNEW 9.0.0) date 2025-10-09 13:40:37*
%MOMM*%
%LPD*%
G01*
G04 APERTURE LIST*
G04 Aperture macros list*
%AMRoundRect*
0 Rectangle with rounded corners*
0 $1 Rounding radius*
0 $2 $3 $4 $5 $6 $7 $8 $9 X,Y pos of 4 corners*
0 Add a 4 corners polygon primitive as box body*
4,1,4,$2,$3,$4,$5,$6,$7,$8,$9,$2,$3,0*
0 Add four circle primitives for the rounded corners*
1,1,$1+$1,$2,$3*
1,1,$1+$1,$4,$5*
1,1,$1+$1,$6,$7*
1,1,$1+$1,$8,$9*
0 Add four rect primitives between the rounded corners*
20,1,$1+$1,$2,$3,$4,$5,0*
20,1,$1+$1,$4,$5,$6,$7,0*
20,1,$1+$1,$6,$7,$8,$9,0*
20,1,$1+$1,$8,$9,$2,$3,0*%
G04 Aperture macros list end*
%ADD10C,0.150000*%
%ADD11C,0.250000*%
%ADD12C,0.500000*%
%ADD13C,4.302641*%
%ADD14C,1.000000*%
%ADD15C,0.100000*%
%ADD16C,0.120000*%
%ADD17C,5.700000*%
%ADD18C,5.000000*%
%ADD19RoundRect,0.750000X-0.750000X-0.750000X0.750000X-0.750000X0.750000X0.750000X-0.750000X0.750000X0*%
%ADD20R,0.790000X0.850000*%
%ADD21R,0.850000X0.790000*%
%ADD22RoundRect,0.087500X-0.250000X-0.087500X0.250000X-0.087500X0.250000X0.087500X-0.250000X0.087500X0*%
%ADD23R,2.500000X1.700000*%
%ADD24RoundRect,0.218750X0.218750X0.256250X-0.218750X0.256250X-0.218750X-0.256250X0.218750X-0.256250X0*%
%ADD25RoundRect,0.250000X-0.350000X-0.575000X0.350000X-0.575000X0.350000X0.575000X-0.350000X0.575000X0*%
%ADD26O,1.200000X1.650000*%
%ADD27RoundRect,0.225000X-0.225000X-0.250000X0.225000X-0.250000X0.225000X0.250000X-0.225000X0.250000X0*%
G04 APERTURE END LIST*
D10*
X219152381Y-97669819D02*
X219152381Y-96669819D01*
X219152381Y-97146009D02*
X219723809Y-97146009D01*
X219723809Y-97669819D02*
X219723809Y-96669819D01*
X220200000Y-97669819D02*
X220200000Y-97003152D01*
X220200000Y-96669819D02*
X220152381Y-96717438D01*
X220152381Y-96717438D02*
X220200000Y-96765057D01*
X220200000Y-96765057D02*
X220247619Y-96717438D01*
X220247619Y-96717438D02*
X220200000Y-96669819D01*
X220200000Y-96669819D02*
X220200000Y-96765057D01*
X221438095Y-97669819D02*
X221438095Y-96669819D01*
X221438095Y-96669819D02*
X221771428Y-97384104D01*
X221771428Y-97384104D02*
X222104761Y-96669819D01*
X222104761Y-96669819D02*
X222104761Y-97669819D01*
X222485714Y-97003152D02*
X222723809Y-97669819D01*
X222961904Y-97003152D02*
X222723809Y-97669819D01*
X222723809Y-97669819D02*
X222628571Y-97907914D01*
X222628571Y-97907914D02*
X222580952Y-97955533D01*
X222580952Y-97955533D02*
X222485714Y-98003152D01*
X224104762Y-97669819D02*
X224104762Y-96669819D01*
X224104762Y-96669819D02*
X224676190Y-97669819D01*
X224676190Y-97669819D02*
X224676190Y-96669819D01*
X225580952Y-97669819D02*
X225580952Y-97146009D01*
X225580952Y-97146009D02*
X225533333Y-97050771D01*
X225533333Y-97050771D02*
X225438095Y-97003152D01*
X225438095Y-97003152D02*
X225247619Y-97003152D01*
X225247619Y-97003152D02*
X225152381Y-97050771D01*
X225580952Y-97622200D02*
X225485714Y-97669819D01*
X225485714Y-97669819D02*
X225247619Y-97669819D01*
X225247619Y-97669819D02*
X225152381Y-97622200D01*
X225152381Y-97622200D02*
X225104762Y-97526961D01*
X225104762Y-97526961D02*
X225104762Y-97431723D01*
X225104762Y-97431723D02*
X225152381Y-97336485D01*
X225152381Y-97336485D02*
X225247619Y-97288866D01*
X225247619Y-97288866D02*
X225485714Y-97288866D01*
X225485714Y-97288866D02*
X225580952Y-97241247D01*
X226057143Y-97669819D02*
X226057143Y-97003152D01*
X226057143Y-97098390D02*
X226104762Y-97050771D01*
X226104762Y-97050771D02*
X226200000Y-97003152D01*
X226200000Y-97003152D02*
X226342857Y-97003152D01*
X226342857Y-97003152D02*
X226438095Y-97050771D01*
X226438095Y-97050771D02*
X226485714Y-97146009D01*
X226485714Y-97146009D02*
X226485714Y-97669819D01*
X226485714Y-97146009D02*
X226533333Y-97050771D01*
X226533333Y-97050771D02*
X226628571Y-97003152D01*
X226628571Y-97003152D02*
X226771428Y-97003152D01*
X226771428Y-97003152D02*
X226866667Y-97050771D01*
X226866667Y-97050771D02*
X226914286Y-97146009D01*
X226914286Y-97146009D02*
X226914286Y-97669819D01*
X227771428Y-97622200D02*
X227676190Y-97669819D01*
X227676190Y-97669819D02*
X227485714Y-97669819D01*
X227485714Y-97669819D02*
X227390476Y-97622200D01*
X227390476Y-97622200D02*
X227342857Y-97526961D01*
X227342857Y-97526961D02*
X227342857Y-97146009D01*
X227342857Y-97146009D02*
X227390476Y-97050771D01*
X227390476Y-97050771D02*
X227485714Y-97003152D01*
X227485714Y-97003152D02*
X227676190Y-97003152D01*
X227676190Y-97003152D02*
X227771428Y-97050771D01*
X227771428Y-97050771D02*
X227819047Y-97146009D01*
X227819047Y-97146009D02*
X227819047Y-97241247D01*
X227819047Y-97241247D02*
X227342857Y-97336485D01*
X229009524Y-97669819D02*
X229009524Y-96669819D01*
X229438095Y-97622200D02*
X229533333Y-97669819D01*
X229533333Y-97669819D02*
X229723809Y-97669819D01*
X229723809Y-97669819D02*
X229819047Y-97622200D01*
X229819047Y-97622200D02*
X229866666Y-97526961D01*
X229866666Y-97526961D02*
X229866666Y-97479342D01*
X229866666Y-97479342D02*
X229819047Y-97384104D01*
X229819047Y-97384104D02*
X229723809Y-97336485D01*
X229723809Y-97336485D02*
X229580952Y-97336485D01*
X229580952Y-97336485D02*
X229485714Y-97288866D01*
X229485714Y-97288866D02*
X229438095Y-97193628D01*
X229438095Y-97193628D02*
X229438095Y-97146009D01*
X229438095Y-97146009D02*
X229485714Y-97050771D01*
X229485714Y-97050771D02*
X229580952Y-97003152D01*
X229580952Y-97003152D02*
X229723809Y-97003152D01*
X229723809Y-97003152D02*
X229819047Y-97050771D01*
X231342857Y-96669819D02*
X231342857Y-97384104D01*
X231342857Y-97384104D02*
X231295238Y-97526961D01*
X231295238Y-97526961D02*
X231200000Y-97622200D01*
X231200000Y-97622200D02*
X231057143Y-97669819D01*
X231057143Y-97669819D02*
X230961905Y-97669819D01*
X231819048Y-97669819D02*
X231819048Y-97003152D01*
X231819048Y-96669819D02*
X231771429Y-96717438D01*
X231771429Y-96717438D02*
X231819048Y-96765057D01*
X231819048Y-96765057D02*
X231866667Y-96717438D01*
X231866667Y-96717438D02*
X231819048Y-96669819D01*
X231819048Y-96669819D02*
X231819048Y-96765057D01*
X232295238Y-97669819D02*
X232295238Y-97003152D01*
X232295238Y-97098390D02*
X232342857Y-97050771D01*
X232342857Y-97050771D02*
X232438095Y-97003152D01*
X232438095Y-97003152D02*
X232580952Y-97003152D01*
X232580952Y-97003152D02*
X232676190Y-97050771D01*
X232676190Y-97050771D02*
X232723809Y-97146009D01*
X232723809Y-97146009D02*
X232723809Y-97669819D01*
X232723809Y-97146009D02*
X232771428Y-97050771D01*
X232771428Y-97050771D02*
X232866666Y-97003152D01*
X232866666Y-97003152D02*
X233009523Y-97003152D01*
X233009523Y-97003152D02*
X233104762Y-97050771D01*
X233104762Y-97050771D02*
X233152381Y-97146009D01*
X233152381Y-97146009D02*
X233152381Y-97669819D01*
X233628571Y-97669819D02*
X233628571Y-97003152D01*
X233628571Y-97098390D02*
X233676190Y-97050771D01*
X233676190Y-97050771D02*
X233771428Y-97003152D01*
X233771428Y-97003152D02*
X233914285Y-97003152D01*
X233914285Y-97003152D02*
X234009523Y-97050771D01*
X234009523Y-97050771D02*
X234057142Y-97146009D01*
X234057142Y-97146009D02*
X234057142Y-97669819D01*
X234057142Y-97146009D02*
X234104761Y-97050771D01*
X234104761Y-97050771D02*
X234199999Y-97003152D01*
X234199999Y-97003152D02*
X234342856Y-97003152D01*
X234342856Y-97003152D02*
X234438095Y-97050771D01*
X234438095Y-97050771D02*
X234485714Y-97146009D01*
X234485714Y-97146009D02*
X234485714Y-97669819D01*
X234866666Y-97003152D02*
X235104761Y-97669819D01*
X235342856Y-97003152D02*
X235104761Y-97669819D01*
X235104761Y-97669819D02*
X235009523Y-97907914D01*
X235009523Y-97907914D02*
X234961904Y-97955533D01*
X234961904Y-97955533D02*
X234866666Y-98003152D01*
X182738095Y-219722438D02*
X182642857Y-219674819D01*
X182642857Y-219674819D02*
X182500000Y-219674819D01*
X182500000Y-219674819D02*
X182357143Y-219722438D01*
X182357143Y-219722438D02*
X182261905Y-219817676D01*
X182261905Y-219817676D02*
X182214286Y-219912914D01*
X182214286Y-219912914D02*
X182166667Y-220103390D01*
X182166667Y-220103390D02*
X182166667Y-220246247D01*
X182166667Y-220246247D02*
X182214286Y-220436723D01*
X182214286Y-220436723D02*
X182261905Y-220531961D01*
X182261905Y-220531961D02*
X182357143Y-220627200D01*
X182357143Y-220627200D02*
X182500000Y-220674819D01*
X182500000Y-220674819D02*
X182595238Y-220674819D01*
X182595238Y-220674819D02*
X182738095Y-220627200D01*
X182738095Y-220627200D02*
X182785714Y-220579580D01*
X182785714Y-220579580D02*
X182785714Y-220246247D01*
X182785714Y-220246247D02*
X182595238Y-220246247D01*
X183214286Y-220674819D02*
X183214286Y-219674819D01*
X183214286Y-219674819D02*
X183785714Y-220674819D01*
X183785714Y-220674819D02*
X183785714Y-219674819D01*
X184261905Y-220674819D02*
X184261905Y-219674819D01*
X184261905Y-219674819D02*
X184500000Y-219674819D01*
X184500000Y-219674819D02*
X184642857Y-219722438D01*
X184642857Y-219722438D02*
X184738095Y-219817676D01*
X184738095Y-219817676D02*
X184785714Y-219912914D01*
X184785714Y-219912914D02*
X184833333Y-220103390D01*
X184833333Y-220103390D02*
X184833333Y-220246247D01*
X184833333Y-220246247D02*
X184785714Y-220436723D01*
X184785714Y-220436723D02*
X184738095Y-220531961D01*
X184738095Y-220531961D02*
X184642857Y-220627200D01*
X184642857Y-220627200D02*
X184500000Y-220674819D01*
X184500000Y-220674819D02*
X184261905Y-220674819D01*
X229864762Y-215524819D02*
X229864762Y-214524819D01*
X229864762Y-214524819D02*
X230102857Y-214524819D01*
X230102857Y-214524819D02*
X230245714Y-214572438D01*
X230245714Y-214572438D02*
X230340952Y-214667676D01*
X230340952Y-214667676D02*
X230388571Y-214762914D01*
X230388571Y-214762914D02*
X230436190Y-214953390D01*
X230436190Y-214953390D02*
X230436190Y-215096247D01*
X230436190Y-215096247D02*
X230388571Y-215286723D01*
X230388571Y-215286723D02*
X230340952Y-215381961D01*
X230340952Y-215381961D02*
X230245714Y-215477200D01*
X230245714Y-215477200D02*
X230102857Y-215524819D01*
X230102857Y-215524819D02*
X229864762Y-215524819D01*
X231436190Y-215524819D02*
X231102857Y-215048628D01*
X230864762Y-215524819D02*
X230864762Y-214524819D01*
X230864762Y-214524819D02*
X231245714Y-214524819D01*
X231245714Y-214524819D02*
X231340952Y-214572438D01*
X231340952Y-214572438D02*
X231388571Y-214620057D01*
X231388571Y-214620057D02*
X231436190Y-214715295D01*
X231436190Y-214715295D02*
X231436190Y-214858152D01*
X231436190Y-214858152D02*
X231388571Y-214953390D01*
X231388571Y-214953390D02*
X231340952Y-215001009D01*
X231340952Y-215001009D02*
X231245714Y-215048628D01*
X231245714Y-215048628D02*
X230864762Y-215048628D01*
X231721905Y-214524819D02*
X232055238Y-215524819D01*
X232055238Y-215524819D02*
X232388571Y-214524819D01*
X232674286Y-214620057D02*
X232721905Y-214572438D01*
X232721905Y-214572438D02*
X232817143Y-214524819D01*
X232817143Y-214524819D02*
X233055238Y-214524819D01*
X233055238Y-214524819D02*
X233150476Y-214572438D01*
X233150476Y-214572438D02*
X233198095Y-214620057D01*
X233198095Y-214620057D02*
X233245714Y-214715295D01*
X233245714Y-214715295D02*
X233245714Y-214810533D01*
X233245714Y-214810533D02*
X233198095Y-214953390D01*
X233198095Y-214953390D02*
X232626667Y-215524819D01*
X232626667Y-215524819D02*
X233245714Y-215524819D01*
X234102857Y-214524819D02*
X233912381Y-214524819D01*
X233912381Y-214524819D02*
X233817143Y-214572438D01*
X233817143Y-214572438D02*
X233769524Y-214620057D01*
X233769524Y-214620057D02*
X233674286Y-214762914D01*
X233674286Y-214762914D02*
X233626667Y-214953390D01*
X233626667Y-214953390D02*
X233626667Y-215334342D01*
X233626667Y-215334342D02*
X233674286Y-215429580D01*
X233674286Y-215429580D02*
X233721905Y-215477200D01*
X233721905Y-215477200D02*
X233817143Y-215524819D01*
X233817143Y-215524819D02*
X234007619Y-215524819D01*
X234007619Y-215524819D02*
X234102857Y-215477200D01*
X234102857Y-215477200D02*
X234150476Y-215429580D01*
X234150476Y-215429580D02*
X234198095Y-215334342D01*
X234198095Y-215334342D02*
X234198095Y-215096247D01*
X234198095Y-215096247D02*
X234150476Y-215001009D01*
X234150476Y-215001009D02*
X234102857Y-214953390D01*
X234102857Y-214953390D02*
X234007619Y-214905771D01*
X234007619Y-214905771D02*
X233817143Y-214905771D01*
X233817143Y-214905771D02*
X233721905Y-214953390D01*
X233721905Y-214953390D02*
X233674286Y-215001009D01*
X233674286Y-215001009D02*
X233626667Y-215096247D01*
X234817143Y-214524819D02*
X234912381Y-214524819D01*
X234912381Y-214524819D02*
X235007619Y-214572438D01*
X235007619Y-214572438D02*
X235055238Y-214620057D01*
X235055238Y-214620057D02*
X235102857Y-214715295D01*
X235102857Y-214715295D02*
X235150476Y-214905771D01*
X235150476Y-214905771D02*
X235150476Y-215143866D01*
X235150476Y-215143866D02*
X235102857Y-215334342D01*
X235102857Y-215334342D02*
X235055238Y-215429580D01*
X235055238Y-215429580D02*
X235007619Y-215477200D01*
X235007619Y-215477200D02*
X234912381Y-215524819D01*
X234912381Y-215524819D02*
X234817143Y-215524819D01*
X234817143Y-215524819D02*
X234721905Y-215477200D01*
X234721905Y-215477200D02*
X234674286Y-215429580D01*
X234674286Y-215429580D02*
X234626667Y-215334342D01*
X234626667Y-215334342D02*
X234579048Y-215143866D01*
X234579048Y-215143866D02*
X234579048Y-214905771D01*
X234579048Y-214905771D02*
X234626667Y-214715295D01*
X234626667Y-214715295D02*
X234674286Y-214620057D01*
X234674286Y-214620057D02*
X234721905Y-214572438D01*
X234721905Y-214572438D02*
X234817143Y-214524819D01*
X236055238Y-214524819D02*
X235579048Y-214524819D01*
X235579048Y-214524819D02*
X235531429Y-215001009D01*
X235531429Y-215001009D02*
X235579048Y-214953390D01*
X235579048Y-214953390D02*
X235674286Y-214905771D01*
X235674286Y-214905771D02*
X235912381Y-214905771D01*
X235912381Y-214905771D02*
X236007619Y-214953390D01*
X236007619Y-214953390D02*
X236055238Y-215001009D01*
X236055238Y-215001009D02*
X236102857Y-215096247D01*
X236102857Y-215096247D02*
X236102857Y-215334342D01*
X236102857Y-215334342D02*
X236055238Y-215429580D01*
X236055238Y-215429580D02*
X236007619Y-215477200D01*
X236007619Y-215477200D02*
X235912381Y-215524819D01*
X235912381Y-215524819D02*
X235674286Y-215524819D01*
X235674286Y-215524819D02*
X235579048Y-215477200D01*
X235579048Y-215477200D02*
X235531429Y-215429580D01*
X180993333Y-210294819D02*
X181326666Y-211294819D01*
X181326666Y-211294819D02*
X181659999Y-210294819D01*
X181945714Y-211247200D02*
X182088571Y-211294819D01*
X182088571Y-211294819D02*
X182326666Y-211294819D01*
X182326666Y-211294819D02*
X182421904Y-211247200D01*
X182421904Y-211247200D02*
X182469523Y-211199580D01*
X182469523Y-211199580D02*
X182517142Y-211104342D01*
X182517142Y-211104342D02*
X182517142Y-211009104D01*
X182517142Y-211009104D02*
X182469523Y-210913866D01*
X182469523Y-210913866D02*
X182421904Y-210866247D01*
X182421904Y-210866247D02*
X182326666Y-210818628D01*
X182326666Y-210818628D02*
X182136190Y-210771009D01*
X182136190Y-210771009D02*
X182040952Y-210723390D01*
X182040952Y-210723390D02*
X181993333Y-210675771D01*
X181993333Y-210675771D02*
X181945714Y-210580533D01*
X181945714Y-210580533D02*
X181945714Y-210485295D01*
X181945714Y-210485295D02*
X181993333Y-210390057D01*
X181993333Y-210390057D02*
X182040952Y-210342438D01*
X182040952Y-210342438D02*
X182136190Y-210294819D01*
X182136190Y-210294819D02*
X182374285Y-210294819D01*
X182374285Y-210294819D02*
X182517142Y-210342438D01*
X183136190Y-210294819D02*
X183326666Y-210294819D01*
X183326666Y-210294819D02*
X183421904Y-210342438D01*
X183421904Y-210342438D02*
X183517142Y-210437676D01*
X183517142Y-210437676D02*
X183564761Y-210628152D01*
X183564761Y-210628152D02*
X183564761Y-210961485D01*
X183564761Y-210961485D02*
X183517142Y-211151961D01*
X183517142Y-211151961D02*
X183421904Y-211247200D01*
X183421904Y-211247200D02*
X183326666Y-211294819D01*
X183326666Y-211294819D02*
X183136190Y-211294819D01*
X183136190Y-211294819D02*
X183040952Y-211247200D01*
X183040952Y-211247200D02*
X182945714Y-211151961D01*
X182945714Y-211151961D02*
X182898095Y-210961485D01*
X182898095Y-210961485D02*
X182898095Y-210628152D01*
X182898095Y-210628152D02*
X182945714Y-210437676D01*
X182945714Y-210437676D02*
X183040952Y-210342438D01*
X183040952Y-210342438D02*
X183136190Y-210294819D01*
X184469523Y-211294819D02*
X183993333Y-211294819D01*
X183993333Y-211294819D02*
X183993333Y-210294819D01*
X184755238Y-211009104D02*
X185231428Y-211009104D01*
X184660000Y-211294819D02*
X184993333Y-210294819D01*
X184993333Y-210294819D02*
X185326666Y-211294819D01*
X186231428Y-211294819D02*
X185898095Y-210818628D01*
X185660000Y-211294819D02*
X185660000Y-210294819D01*
X185660000Y-210294819D02*
X186040952Y-210294819D01*
X186040952Y-210294819D02*
X186136190Y-210342438D01*
X186136190Y-210342438D02*
X186183809Y-210390057D01*
X186183809Y-210390057D02*
X186231428Y-210485295D01*
X186231428Y-210485295D02*
X186231428Y-210628152D01*
X186231428Y-210628152D02*
X186183809Y-210723390D01*
X186183809Y-210723390D02*
X186136190Y-210771009D01*
X186136190Y-210771009D02*
X186040952Y-210818628D01*
X186040952Y-210818628D02*
X185660000Y-210818628D01*
D11*
X182000000Y-38000000D02*
X196000000Y-43000000D01*
D12*
X193071068Y-50000000D02*
G75*
G02*
X178928932Y-50000000I-7071068J0D01*
G01*
X178928932Y-50000000D02*
G75*
G02*
X193071068Y-50000000I7071068J0D01*
G01*
D13*
X237151320Y-52000000D02*
G75*
G02*
X232848680Y-52000000I-2151320J0D01*
G01*
X232848680Y-52000000D02*
G75*
G02*
X237151320Y-52000000I2151320J0D01*
G01*
X186151320Y-49000000D02*
G75*
G02*
X181848680Y-49000000I-2151320J0D01*
G01*
X181848680Y-49000000D02*
G75*
G02*
X186151320Y-49000000I2151320J0D01*
G01*
D11*
X223282485Y-43363961D02*
X237000000Y-38000000D01*
D12*
X241000000Y-49990001D02*
G75*
G02*
X226857864Y-49990001I-7071068J0D01*
G01*
X226857864Y-49990001D02*
G75*
G02*
X241000000Y-49990001I7071068J0D01*
G01*
D14*
X223000000Y-58686426D02*
G75*
G02*
X194763137Y-58504634I-14000000J18486326D01*
G01*
D10*
X170990477Y-151104819D02*
X170990477Y-151819104D01*
X170990477Y-151819104D02*
X170942858Y-151961961D01*
X170942858Y-151961961D02*
X170847620Y-152057200D01*
X170847620Y-152057200D02*
X170704763Y-152104819D01*
X170704763Y-152104819D02*
X170609525Y-152104819D01*
X171990477Y-152104819D02*
X171419049Y-152104819D01*
X171704763Y-152104819D02*
X171704763Y-151104819D01*
X171704763Y-151104819D02*
X171609525Y-151247676D01*
X171609525Y-151247676D02*
X171514287Y-151342914D01*
X171514287Y-151342914D02*
X171419049Y-151390533D01*
X172371430Y-151200057D02*
X172419049Y-151152438D01*
X172419049Y-151152438D02*
X172514287Y-151104819D01*
X172514287Y-151104819D02*
X172752382Y-151104819D01*
X172752382Y-151104819D02*
X172847620Y-151152438D01*
X172847620Y-151152438D02*
X172895239Y-151200057D01*
X172895239Y-151200057D02*
X172942858Y-151295295D01*
X172942858Y-151295295D02*
X172942858Y-151390533D01*
X172942858Y-151390533D02*
X172895239Y-151533390D01*
X172895239Y-151533390D02*
X172323811Y-152104819D01*
X172323811Y-152104819D02*
X172942858Y-152104819D01*
X246990477Y-151104819D02*
X246990477Y-151819104D01*
X246990477Y-151819104D02*
X246942858Y-151961961D01*
X246942858Y-151961961D02*
X246847620Y-152057200D01*
X246847620Y-152057200D02*
X246704763Y-152104819D01*
X246704763Y-152104819D02*
X246609525Y-152104819D01*
X247990477Y-152104819D02*
X247419049Y-152104819D01*
X247704763Y-152104819D02*
X247704763Y-151104819D01*
X247704763Y-151104819D02*
X247609525Y-151247676D01*
X247609525Y-151247676D02*
X247514287Y-151342914D01*
X247514287Y-151342914D02*
X247419049Y-151390533D01*
X248847620Y-151438152D02*
X248847620Y-152104819D01*
X248609525Y-151057200D02*
X248371430Y-151771485D01*
X248371430Y-151771485D02*
X248990477Y-151771485D01*
X170514286Y-125304819D02*
X170514286Y-126019104D01*
X170514286Y-126019104D02*
X170466667Y-126161961D01*
X170466667Y-126161961D02*
X170371429Y-126257200D01*
X170371429Y-126257200D02*
X170228572Y-126304819D01*
X170228572Y-126304819D02*
X170133334Y-126304819D01*
X171514286Y-126304819D02*
X170942858Y-126304819D01*
X171228572Y-126304819D02*
X171228572Y-125304819D01*
X171228572Y-125304819D02*
X171133334Y-125447676D01*
X171133334Y-125447676D02*
X171038096Y-125542914D01*
X171038096Y-125542914D02*
X170942858Y-125590533D01*
X172466667Y-126304819D02*
X171895239Y-126304819D01*
X172180953Y-126304819D02*
X172180953Y-125304819D01*
X172180953Y-125304819D02*
X172085715Y-125447676D01*
X172085715Y-125447676D02*
X171990477Y-125542914D01*
X171990477Y-125542914D02*
X171895239Y-125590533D01*
X172847620Y-125400057D02*
X172895239Y-125352438D01*
X172895239Y-125352438D02*
X172990477Y-125304819D01*
X172990477Y-125304819D02*
X173228572Y-125304819D01*
X173228572Y-125304819D02*
X173323810Y-125352438D01*
X173323810Y-125352438D02*
X173371429Y-125400057D01*
X173371429Y-125400057D02*
X173419048Y-125495295D01*
X173419048Y-125495295D02*
X173419048Y-125590533D01*
X173419048Y-125590533D02*
X173371429Y-125733390D01*
X173371429Y-125733390D02*
X172800001Y-126304819D01*
X172800001Y-126304819D02*
X173419048Y-126304819D01*
X246514286Y-125304819D02*
X246514286Y-126019104D01*
X246514286Y-126019104D02*
X246466667Y-126161961D01*
X246466667Y-126161961D02*
X246371429Y-126257200D01*
X246371429Y-126257200D02*
X246228572Y-126304819D01*
X246228572Y-126304819D02*
X246133334Y-126304819D01*
X247514286Y-126304819D02*
X246942858Y-126304819D01*
X247228572Y-126304819D02*
X247228572Y-125304819D01*
X247228572Y-125304819D02*
X247133334Y-125447676D01*
X247133334Y-125447676D02*
X247038096Y-125542914D01*
X247038096Y-125542914D02*
X246942858Y-125590533D01*
X248466667Y-126304819D02*
X247895239Y-126304819D01*
X248180953Y-126304819D02*
X248180953Y-125304819D01*
X248180953Y-125304819D02*
X248085715Y-125447676D01*
X248085715Y-125447676D02*
X247990477Y-125542914D01*
X247990477Y-125542914D02*
X247895239Y-125590533D01*
X249323810Y-125638152D02*
X249323810Y-126304819D01*
X249085715Y-125257200D02*
X248847620Y-125971485D01*
X248847620Y-125971485D02*
X249466667Y-125971485D01*
X171466667Y-36304819D02*
X171466667Y-37019104D01*
X171466667Y-37019104D02*
X171419048Y-37161961D01*
X171419048Y-37161961D02*
X171323810Y-37257200D01*
X171323810Y-37257200D02*
X171180953Y-37304819D01*
X171180953Y-37304819D02*
X171085715Y-37304819D01*
X171895239Y-36400057D02*
X171942858Y-36352438D01*
X171942858Y-36352438D02*
X172038096Y-36304819D01*
X172038096Y-36304819D02*
X172276191Y-36304819D01*
X172276191Y-36304819D02*
X172371429Y-36352438D01*
X172371429Y-36352438D02*
X172419048Y-36400057D01*
X172419048Y-36400057D02*
X172466667Y-36495295D01*
X172466667Y-36495295D02*
X172466667Y-36590533D01*
X172466667Y-36590533D02*
X172419048Y-36733390D01*
X172419048Y-36733390D02*
X171847620Y-37304819D01*
X171847620Y-37304819D02*
X172466667Y-37304819D01*
X247466667Y-36304819D02*
X247466667Y-37019104D01*
X247466667Y-37019104D02*
X247419048Y-37161961D01*
X247419048Y-37161961D02*
X247323810Y-37257200D01*
X247323810Y-37257200D02*
X247180953Y-37304819D01*
X247180953Y-37304819D02*
X247085715Y-37304819D01*
X248371429Y-36638152D02*
X248371429Y-37304819D01*
X248133334Y-36257200D02*
X247895239Y-36971485D01*
X247895239Y-36971485D02*
X248514286Y-36971485D01*
X171466667Y-240104819D02*
X171466667Y-240819104D01*
X171466667Y-240819104D02*
X171419048Y-240961961D01*
X171419048Y-240961961D02*
X171323810Y-241057200D01*
X171323810Y-241057200D02*
X171180953Y-241104819D01*
X171180953Y-241104819D02*
X171085715Y-241104819D01*
X171847620Y-240104819D02*
X172466667Y-240104819D01*
X172466667Y-240104819D02*
X172133334Y-240485771D01*
X172133334Y-240485771D02*
X172276191Y-240485771D01*
X172276191Y-240485771D02*
X172371429Y-240533390D01*
X172371429Y-240533390D02*
X172419048Y-240581009D01*
X172419048Y-240581009D02*
X172466667Y-240676247D01*
X172466667Y-240676247D02*
X172466667Y-240914342D01*
X172466667Y-240914342D02*
X172419048Y-241009580D01*
X172419048Y-241009580D02*
X172371429Y-241057200D01*
X172371429Y-241057200D02*
X172276191Y-241104819D01*
X172276191Y-241104819D02*
X171990477Y-241104819D01*
X171990477Y-241104819D02*
X171895239Y-241057200D01*
X171895239Y-241057200D02*
X171847620Y-241009580D01*
D15*
X209659800Y-111261904D02*
X209707419Y-111119047D01*
X209707419Y-111119047D02*
X209707419Y-110880952D01*
X209707419Y-110880952D02*
X209659800Y-110785714D01*
X209659800Y-110785714D02*
X209612180Y-110738095D01*
X209612180Y-110738095D02*
X209516942Y-110690476D01*
X209516942Y-110690476D02*
X209421704Y-110690476D01*
X209421704Y-110690476D02*
X209326466Y-110738095D01*
X209326466Y-110738095D02*
X209278847Y-110785714D01*
X209278847Y-110785714D02*
X209231228Y-110880952D01*
X209231228Y-110880952D02*
X209183609Y-111071428D01*
X209183609Y-111071428D02*
X209135990Y-111166666D01*
X209135990Y-111166666D02*
X209088371Y-111214285D01*
X209088371Y-111214285D02*
X208993133Y-111261904D01*
X208993133Y-111261904D02*
X208897895Y-111261904D01*
X208897895Y-111261904D02*
X208802657Y-111214285D01*
X208802657Y-111214285D02*
X208755038Y-111166666D01*
X208755038Y-111166666D02*
X208707419Y-111071428D01*
X208707419Y-111071428D02*
X208707419Y-110833333D01*
X208707419Y-110833333D02*
X208755038Y-110690476D01*
X209612180Y-109690476D02*
X209659800Y-109738095D01*
X209659800Y-109738095D02*
X209707419Y-109880952D01*
X209707419Y-109880952D02*
X209707419Y-109976190D01*
X209707419Y-109976190D02*
X209659800Y-110119047D01*
X209659800Y-110119047D02*
X209564561Y-110214285D01*
X209564561Y-110214285D02*
X209469323Y-110261904D01*
X209469323Y-110261904D02*
X209278847Y-110309523D01*
X209278847Y-110309523D02*
X209135990Y-110309523D01*
X209135990Y-110309523D02*
X208945514Y-110261904D01*
X208945514Y-110261904D02*
X208850276Y-110214285D01*
X208850276Y-110214285D02*
X208755038Y-110119047D01*
X208755038Y-110119047D02*
X208707419Y-109976190D01*
X208707419Y-109976190D02*
X208707419Y-109880952D01*
X208707419Y-109880952D02*
X208755038Y-109738095D01*
X208755038Y-109738095D02*
X208802657Y-109690476D01*
X209707419Y-108738095D02*
X209707419Y-109309523D01*
X209707419Y-109023809D02*
X208707419Y-109023809D01*
X208707419Y-109023809D02*
X208850276Y-109119047D01*
X208850276Y-109119047D02*
X208945514Y-109214285D01*
X208945514Y-109214285D02*
X208993133Y-109309523D01*
D10*
X183448095Y-64214819D02*
X184019523Y-64214819D01*
X183733809Y-65214819D02*
X183733809Y-64214819D01*
X184352857Y-65214819D02*
X184352857Y-64214819D01*
X184352857Y-64214819D02*
X184733809Y-64214819D01*
X184733809Y-64214819D02*
X184829047Y-64262438D01*
X184829047Y-64262438D02*
X184876666Y-64310057D01*
X184876666Y-64310057D02*
X184924285Y-64405295D01*
X184924285Y-64405295D02*
X184924285Y-64548152D01*
X184924285Y-64548152D02*
X184876666Y-64643390D01*
X184876666Y-64643390D02*
X184829047Y-64691009D01*
X184829047Y-64691009D02*
X184733809Y-64738628D01*
X184733809Y-64738628D02*
X184352857Y-64738628D01*
X185876666Y-65214819D02*
X185305238Y-65214819D01*
X185590952Y-65214819D02*
X185590952Y-64214819D01*
X185590952Y-64214819D02*
X185495714Y-64357676D01*
X185495714Y-64357676D02*
X185400476Y-64452914D01*
X185400476Y-64452914D02*
X185305238Y-64500533D01*
X178738095Y-64184820D02*
X179309523Y-64184820D01*
X179023809Y-65184820D02*
X179023809Y-64184820D01*
X179642857Y-65184820D02*
X179642857Y-64184820D01*
X179642857Y-64184820D02*
X180023809Y-64184820D01*
X180023809Y-64184820D02*
X180119047Y-64232439D01*
X180119047Y-64232439D02*
X180166666Y-64280058D01*
X180166666Y-64280058D02*
X180214285Y-64375296D01*
X180214285Y-64375296D02*
X180214285Y-64518153D01*
X180214285Y-64518153D02*
X180166666Y-64613391D01*
X180166666Y-64613391D02*
X180119047Y-64661010D01*
X180119047Y-64661010D02*
X180023809Y-64708629D01*
X180023809Y-64708629D02*
X179642857Y-64708629D01*
X180595238Y-64280058D02*
X180642857Y-64232439D01*
X180642857Y-64232439D02*
X180738095Y-64184820D01*
X180738095Y-64184820D02*
X180976190Y-64184820D01*
X180976190Y-64184820D02*
X181071428Y-64232439D01*
X181071428Y-64232439D02*
X181119047Y-64280058D01*
X181119047Y-64280058D02*
X181166666Y-64375296D01*
X181166666Y-64375296D02*
X181166666Y-64470534D01*
X181166666Y-64470534D02*
X181119047Y-64613391D01*
X181119047Y-64613391D02*
X180547619Y-65184820D01*
X180547619Y-65184820D02*
X181166666Y-65184820D01*
X230901906Y-63434818D02*
X230901906Y-62434818D01*
X230901906Y-62434818D02*
X231140001Y-62434818D01*
X231140001Y-62434818D02*
X231282858Y-62482437D01*
X231282858Y-62482437D02*
X231378096Y-62577675D01*
X231378096Y-62577675D02*
X231425715Y-62672913D01*
X231425715Y-62672913D02*
X231473334Y-62863389D01*
X231473334Y-62863389D02*
X231473334Y-63006246D01*
X231473334Y-63006246D02*
X231425715Y-63196722D01*
X231425715Y-63196722D02*
X231378096Y-63291960D01*
X231378096Y-63291960D02*
X231282858Y-63387199D01*
X231282858Y-63387199D02*
X231140001Y-63434818D01*
X231140001Y-63434818D02*
X230901906Y-63434818D01*
X231854287Y-62530056D02*
X231901906Y-62482437D01*
X231901906Y-62482437D02*
X231997144Y-62434818D01*
X231997144Y-62434818D02*
X232235239Y-62434818D01*
X232235239Y-62434818D02*
X232330477Y-62482437D01*
X232330477Y-62482437D02*
X232378096Y-62530056D01*
X232378096Y-62530056D02*
X232425715Y-62625294D01*
X232425715Y-62625294D02*
X232425715Y-62720532D01*
X232425715Y-62720532D02*
X232378096Y-62863389D01*
X232378096Y-62863389D02*
X231806668Y-63434818D01*
X231806668Y-63434818D02*
X232425715Y-63434818D01*
X247466666Y-240154819D02*
X247466666Y-240869104D01*
X247466666Y-240869104D02*
X247419047Y-241011961D01*
X247419047Y-241011961D02*
X247323809Y-241107200D01*
X247323809Y-241107200D02*
X247180952Y-241154819D01*
X247180952Y-241154819D02*
X247085714Y-241154819D01*
X248419047Y-240154819D02*
X247942857Y-240154819D01*
X247942857Y-240154819D02*
X247895238Y-240631009D01*
X247895238Y-240631009D02*
X247942857Y-240583390D01*
X247942857Y-240583390D02*
X248038095Y-240535771D01*
X248038095Y-240535771D02*
X248276190Y-240535771D01*
X248276190Y-240535771D02*
X248371428Y-240583390D01*
X248371428Y-240583390D02*
X248419047Y-240631009D01*
X248419047Y-240631009D02*
X248466666Y-240726247D01*
X248466666Y-240726247D02*
X248466666Y-240964342D01*
X248466666Y-240964342D02*
X248419047Y-241059580D01*
X248419047Y-241059580D02*
X248371428Y-241107200D01*
X248371428Y-241107200D02*
X248276190Y-241154819D01*
X248276190Y-241154819D02*
X248038095Y-241154819D01*
X248038095Y-241154819D02*
X247942857Y-241107200D01*
X247942857Y-241107200D02*
X247895238Y-241059580D01*
D15*
X209659800Y-203761904D02*
X209707419Y-203619047D01*
X209707419Y-203619047D02*
X209707419Y-203380952D01*
X209707419Y-203380952D02*
X209659800Y-203285714D01*
X209659800Y-203285714D02*
X209612180Y-203238095D01*
X209612180Y-203238095D02*
X209516942Y-203190476D01*
X209516942Y-203190476D02*
X209421704Y-203190476D01*
X209421704Y-203190476D02*
X209326466Y-203238095D01*
X209326466Y-203238095D02*
X209278847Y-203285714D01*
X209278847Y-203285714D02*
X209231228Y-203380952D01*
X209231228Y-203380952D02*
X209183609Y-203571428D01*
X209183609Y-203571428D02*
X209135990Y-203666666D01*
X209135990Y-203666666D02*
X209088371Y-203714285D01*
X209088371Y-203714285D02*
X208993133Y-203761904D01*
X208993133Y-203761904D02*
X208897895Y-203761904D01*
X208897895Y-203761904D02*
X208802657Y-203714285D01*
X208802657Y-203714285D02*
X208755038Y-203666666D01*
X208755038Y-203666666D02*
X208707419Y-203571428D01*
X208707419Y-203571428D02*
X208707419Y-203333333D01*
X208707419Y-203333333D02*
X208755038Y-203190476D01*
X209612180Y-202190476D02*
X209659800Y-202238095D01*
X209659800Y-202238095D02*
X209707419Y-202380952D01*
X209707419Y-202380952D02*
X209707419Y-202476190D01*
X209707419Y-202476190D02*
X209659800Y-202619047D01*
X209659800Y-202619047D02*
X209564561Y-202714285D01*
X209564561Y-202714285D02*
X209469323Y-202761904D01*
X209469323Y-202761904D02*
X209278847Y-202809523D01*
X209278847Y-202809523D02*
X209135990Y-202809523D01*
X209135990Y-202809523D02*
X208945514Y-202761904D01*
X208945514Y-202761904D02*
X208850276Y-202714285D01*
X208850276Y-202714285D02*
X208755038Y-202619047D01*
X208755038Y-202619047D02*
X208707419Y-202476190D01*
X208707419Y-202476190D02*
X208707419Y-202380952D01*
X208707419Y-202380952D02*
X208755038Y-202238095D01*
X208755038Y-202238095D02*
X208802657Y-202190476D01*
X208802657Y-201809523D02*
X208755038Y-201761904D01*
X208755038Y-201761904D02*
X208707419Y-201666666D01*
X208707419Y-201666666D02*
X208707419Y-201428571D01*
X208707419Y-201428571D02*
X208755038Y-201333333D01*
X208755038Y-201333333D02*
X208802657Y-201285714D01*
X208802657Y-201285714D02*
X208897895Y-201238095D01*
X208897895Y-201238095D02*
X208993133Y-201238095D01*
X208993133Y-201238095D02*
X209135990Y-201285714D01*
X209135990Y-201285714D02*
X209707419Y-201857142D01*
X209707419Y-201857142D02*
X209707419Y-201238095D01*
%TO.C,SC1*%
X177250000Y-154500000D02*
X242250000Y-154500000D01*
X242250000Y-65500000D01*
X177250000Y-65500000D01*
X177250000Y-154500000D01*
%TO.C,U7*%
X207810000Y-50510000D02*
X207810000Y-51280000D01*
X207810000Y-52440000D02*
X207810000Y-53190000D01*
X207810000Y-53190000D02*
X207810000Y-53210000D01*
X207810000Y-53210000D02*
X207810000Y-53210000D01*
X208970000Y-53210000D02*
X209010000Y-53210000D01*
X209010000Y-50510000D02*
X208970000Y-50510000D01*
X210170000Y-53210000D02*
X210240000Y-53210000D01*
X210240000Y-50510000D02*
X210170000Y-50510000D01*
X210240000Y-51280001D02*
X210240000Y-50510000D01*
X210240000Y-53210000D02*
X210240000Y-52439999D01*
D16*
%TO.C,U2*%
X208980000Y-48265000D02*
X208380000Y-48265000D01*
X208980000Y-48265000D02*
X209580000Y-48265000D01*
X208980000Y-50135000D02*
X208380000Y-50135000D01*
X208980000Y-50135000D02*
X209580000Y-50135000D01*
X207670001Y-48700000D02*
X207340000Y-48940000D01*
X207340000Y-48460000D01*
X207670001Y-48700000D01*
G36*
X207670001Y-48700000D02*
G01*
X207340000Y-48940000D01*
X207340000Y-48460000D01*
X207670001Y-48700000D01*
G37*
%TO.C,D2*%
X224625001Y-61550000D02*
X229375001Y-61550000D01*
X224625001Y-64450000D02*
X224625001Y-61550000D01*
X224625001Y-64450000D02*
X229375001Y-64450000D01*
X226568201Y-62187200D02*
X226568201Y-63736600D01*
X229375001Y-64450000D02*
X229375001Y-61550000D01*
D15*
X227508001Y-63711200D02*
X226695201Y-62974600D01*
X227508001Y-62365000D01*
X227508001Y-63711200D01*
G36*
X227508001Y-63711200D02*
G01*
X226695201Y-62974600D01*
X227508001Y-62365000D01*
X227508001Y-63711200D01*
G37*
%TO.C,SC2*%
X177250000Y-247000000D02*
X242250000Y-247000000D01*
X242250000Y-158000000D01*
X177250000Y-158000000D01*
X177250000Y-247000000D01*
D16*
%TO.C,D4*%
X208220000Y-54995000D02*
X210505000Y-54995000D01*
X210505000Y-53525000D02*
X208220000Y-53525000D01*
X210505000Y-54995000D02*
X210505000Y-53525000D01*
%TO.C,C2*%
X208839419Y-47990000D02*
X209120581Y-47990000D01*
X208839419Y-46970000D02*
X209120581Y-46970000D01*
%TD*%
%LPC*%
D17*
%TO.C,J12*%
X171800001Y-155450000D03*
%TD*%
%TO.C,J14*%
X247800001Y-155450000D03*
%TD*%
%TO.C,J112*%
X171800001Y-129650000D03*
%TD*%
%TO.C,J114*%
X247800001Y-129650000D03*
%TD*%
%TO.C,J2*%
X171800001Y-40650000D03*
%TD*%
%TO.C,J4*%
X247800001Y-40650000D03*
%TD*%
%TO.C,J3*%
X171800001Y-244450000D03*
%TD*%
D18*
%TO.C,SC1*%
X222250000Y-134000000D03*
X197250000Y-134000000D03*
X197250000Y-85500000D03*
X222250000Y-85500000D03*
%TD*%
D19*
%TO.C,TP1*%
X184600000Y-62010000D03*
%TD*%
D20*
%TO.C,U7*%
X210030000Y-51860000D03*
D21*
X209590000Y-50710000D03*
X208390000Y-50710000D03*
D20*
X207950000Y-51860000D03*
D21*
X208390000Y-53010000D03*
X209590000Y-53010000D03*
%TD*%
D22*
%TO.C,U2*%
X208267500Y-48700000D03*
X208267499Y-49200000D03*
X208267500Y-49700000D03*
X209692500Y-49700000D03*
X209692501Y-49200000D03*
X209692500Y-48700000D03*
%TD*%
D19*
%TO.C,TP2*%
X180000000Y-62000000D03*
%TD*%
D23*
%TO.C,D2*%
X225000000Y-63000000D03*
X229000002Y-63000000D03*
%TD*%
D17*
%TO.C,J5*%
X247800000Y-244500000D03*
%TD*%
D18*
%TO.C,SC2*%
X222250000Y-226500000D03*
X197250000Y-226500000D03*
X197250000Y-178000000D03*
X222250000Y-178000000D03*
%TD*%
D24*
%TO.C,D4*%
X209807501Y-54260000D03*
X208232499Y-54260000D03*
%TD*%
D25*
%TO.C,CN1*%
X207000000Y-58020000D03*
D26*
X207000000Y-56019999D03*
X209000001Y-58020000D03*
X209000000Y-56020000D03*
X211000000Y-58020000D03*
X211000001Y-56020000D03*
%TD*%
D27*
%TO.C,C2*%
X208205000Y-47480000D03*
X209755000Y-47480000D03*
%TD*%
%LPD*%
M02*
