M48
; DRILL file {KiCad 9.0.0} date 2025-10-09T13:40:37-0700
; FORMAT={-:-/ absolute / inch / decimal}
; #@! TF.CreationDate,2025-10-09T13:40:37-07:00
; #@! TF.GenerationSoftware,Kicad,Pcbnew,9.0.0
; #@! TF.FileFunction,Plated,1,4,PTH
FMAT,2
INCH
; #@! TA.AperFunction,Plated,PTH,ViaDrill
T1C0.0157
; #@! TA.AperFunction,Plated,PTH,ComponentDrill
T2C0.0335
; #@! TA.AperFunction,Plated,PTH,ComponentDrill
T3C0.1181
; #@! TA.AperFunction,Plated,PTH,ComponentDrill
T4C0.1260
%
G90
G05
T1
X7.0858Y-2.3504
X7.0902Y-2.5315
X7.989Y-2.0386
X8.0307Y-2.098
X8.0941Y-2.0035
X8.0957Y-1.9524
X8.1587Y-1.8783
X8.1665Y-2.1323
X8.228Y-2.0417
X8.2319Y-2.5252
X8.2654Y-2.5236
X8.2957Y-1.8736
X8.3003Y-2.0924
X8.3234Y-2.1243
X8.338Y-1.9022
X8.3787Y-1.9874
X8.4024Y-2.165
X8.4154Y-2.4035
X8.4381Y-2.1301
X8.4808Y-2.038
X8.4878Y-2.115
X8.5063Y-2.4059
X8.5165Y-2.3116
X8.5343Y-2.3508
X8.5346Y-1.9508
X8.5795Y-2.3087
X8.6126Y-2.1862
X8.6219Y-2.2827
X8.628Y-2.0157
X8.6575Y-2.4791
X8.7177Y-2.4799
X8.7709Y-2.4803
X9.0528Y-8.9724
X9.4417Y-9.5535
T2
X8.1496Y-2.2055
X8.1496Y-2.2843
X8.2283Y-2.2055
X8.2283Y-2.2843
X8.3071Y-2.2843
X8.3071Y-2.2055
T3
X7.7657Y-3.3661
X7.7657Y-5.2756
X7.7657Y-7.0079
X7.7657Y-8.9173
X8.75Y-3.3661
X8.75Y-5.2756
X8.75Y-7.0079
X8.75Y-8.9173
T4
X6.7638Y-1.6004
X6.7638Y-5.1043
X6.7638Y-6.1201
X6.7638Y-9.624
X9.7559Y-9.626
X9.7559Y-1.6004
X9.7559Y-5.1043
X9.7559Y-6.1201
M30
