%TF.GenerationSoftware,KiCad,Pcbnew,9.0.0*%
%TF.CreationDate,2025-11-19T22:29:22-08:00*%
%TF.ProjectId,2U_XY_V1,32555f58-595f-4563-912e-6b696361645f,1.0*%
%TF.SameCoordinates,Original*%
%TF.FileFunction,Soldermask,Top*%
%TF.FilePolarity,Negative*%
%FSLAX46Y46*%
G04 Gerber Fmt 4.6, Leading zero omitted, Abs format (unit mm)*
G04 Created by KiCad (PCBNEW 9.0.0) date 2025-11-19 22:29:22*
%MOMM*%
%LPD*%
G01*
G04 APERTURE LIST*
G04 Aperture macros list*
%AMRoundRect*
0 Rectangle with rounded corners*
0 $1 Rounding radius*
0 $2 $3 $4 $5 $6 $7 $8 $9 X,Y pos of 4 corners*
0 Add a 4 corners polygon primitive as box body*
4,1,4,$2,$3,$4,$5,$6,$7,$8,$9,$2,$3,0*
0 Add four circle primitives for the rounded corners*
1,1,$1+$1,$2,$3*
1,1,$1+$1,$4,$5*
1,1,$1+$1,$6,$7*
1,1,$1+$1,$8,$9*
0 Add four rect primitives between the rounded corners*
20,1,$1+$1,$2,$3,$4,$5,0*
20,1,$1+$1,$4,$5,$6,$7,0*
20,1,$1+$1,$6,$7,$8,$9,0*
20,1,$1+$1,$8,$9,$2,$3,0*%
G04 Aperture macros list end*
%ADD10R,0.790000X0.850000*%
%ADD11R,0.850000X0.790000*%
%ADD12C,5.700000*%
%ADD13C,5.000000*%
%ADD14RoundRect,0.750000X-0.750000X-0.750000X0.750000X-0.750000X0.750000X0.750000X-0.750000X0.750000X0*%
%ADD15RoundRect,0.087500X-0.250000X-0.087500X0.250000X-0.087500X0.250000X0.087500X-0.250000X0.087500X0*%
%ADD16R,2.500000X1.700000*%
%ADD17RoundRect,0.225000X-0.225000X-0.250000X0.225000X-0.250000X0.225000X0.250000X-0.225000X0.250000X0*%
%ADD18RoundRect,0.218750X0.218750X0.256250X-0.218750X0.256250X-0.218750X-0.256250X0.218750X-0.256250X0*%
%ADD19RoundRect,0.250000X-0.350000X-0.575000X0.350000X-0.575000X0.350000X0.575000X-0.350000X0.575000X0*%
%ADD20O,1.200000X1.650000*%
G04 APERTURE END LIST*
D10*
%TO.C,U7*%
X210030000Y-51860000D03*
D11*
X209590000Y-50710000D03*
X208390000Y-50710000D03*
D10*
X207950000Y-51860000D03*
D11*
X208390000Y-53010000D03*
X209590000Y-53010000D03*
%TD*%
D12*
%TO.C,J2*%
X171800001Y-41000000D03*
%TD*%
%TO.C,J4*%
X247800001Y-41000000D03*
%TD*%
%TO.C,J3*%
X171800001Y-243750000D03*
%TD*%
D13*
%TO.C,SC1*%
X222250000Y-85500000D03*
X197250000Y-85500000D03*
X197250000Y-134000000D03*
X222250000Y-134000000D03*
%TD*%
D14*
%TO.C,TP1*%
X184600000Y-62010000D03*
%TD*%
D15*
%TO.C,U2*%
X208267500Y-48700000D03*
X208267499Y-49200000D03*
X208267500Y-49700000D03*
X209692500Y-49700000D03*
X209692501Y-49200000D03*
X209692500Y-48700000D03*
%TD*%
D12*
%TO.C,J14*%
X247800001Y-154800000D03*
%TD*%
D14*
%TO.C,TP2*%
X180000000Y-62000000D03*
%TD*%
D12*
%TO.C,J114*%
X247800001Y-130000000D03*
%TD*%
D16*
%TO.C,D2*%
X225000000Y-63000000D03*
X229000002Y-63000000D03*
%TD*%
D17*
%TO.C,C2*%
X208205000Y-47480000D03*
X209755000Y-47480000D03*
%TD*%
D12*
%TO.C,J5*%
X247800000Y-243800000D03*
%TD*%
D13*
%TO.C,SC2*%
X222250000Y-178000000D03*
X197250000Y-178000000D03*
X197250000Y-226500000D03*
X222250000Y-226500000D03*
%TD*%
D18*
%TO.C,D4*%
X209807501Y-54260000D03*
X208232499Y-54260000D03*
%TD*%
D12*
%TO.C,J12*%
X171800001Y-154800000D03*
%TD*%
%TO.C,J112*%
X171800001Y-130000000D03*
%TD*%
D19*
%TO.C,CN1*%
X207000000Y-58020000D03*
D20*
X207000000Y-56019999D03*
X209000001Y-58020000D03*
X209000000Y-56020000D03*
X211000000Y-58020000D03*
X211000001Y-56020000D03*
%TD*%
M02*
