%TF.GenerationSoftware,KiCad,Pcbnew,(6.0.7)*%
%TF.CreationDate,2023-05-18T12:23:56-07:00*%
%TF.ProjectId,solar-panel-NoCutout,736f6c61-722d-4706-916e-656c2d4e6f43,3.0*%
%TF.SameCoordinates,Original*%
%TF.FileFunction,Legend,Top*%
%TF.FilePolarity,Positive*%
%FSLAX46Y46*%
G04 Gerber Fmt 4.6, Leading zero omitted, Abs format (unit mm)*
G04 Created by KiCad (PCBNEW (6.0.7)) date 2023-05-18 12:23:56*
%MOMM*%
%LPD*%
G01*
G04 APERTURE LIST*
G04 Aperture macros list*
%AMRoundRect*
0 Rectangle with rounded corners*
0 $1 Rounding radius*
0 $2 $3 $4 $5 $6 $7 $8 $9 X,Y pos of 4 corners*
0 Add a 4 corners polygon primitive as box body*
4,1,4,$2,$3,$4,$5,$6,$7,$8,$9,$2,$3,0*
0 Add four circle primitives for the rounded corners*
1,1,$1+$1,$2,$3*
1,1,$1+$1,$4,$5*
1,1,$1+$1,$6,$7*
1,1,$1+$1,$8,$9*
0 Add four rect primitives between the rounded corners*
20,1,$1+$1,$2,$3,$4,$5,0*
20,1,$1+$1,$4,$5,$6,$7,0*
20,1,$1+$1,$6,$7,$8,$9,0*
20,1,$1+$1,$8,$9,$2,$3,0*%
G04 Aperture macros list end*
%ADD10C,0.150000*%
%ADD11C,0.500000*%
%ADD12C,0.120000*%
%ADD13C,0.100000*%
%ADD14C,0.127000*%
%ADD15C,0.200000*%
%ADD16C,5.250000*%
%ADD17R,0.750000X0.300000*%
%ADD18R,1.750000X1.450000*%
%ADD19R,13.000000X3.000000*%
%ADD20RoundRect,0.750000X0.750000X-0.750000X0.750000X0.750000X-0.750000X0.750000X-0.750000X-0.750000X0*%
%ADD21R,2.500000X1.700000*%
%ADD22RoundRect,0.250000X-0.250000X-0.475000X0.250000X-0.475000X0.250000X0.475000X-0.250000X0.475000X0*%
%ADD23RoundRect,0.250000X0.250000X0.475000X-0.250000X0.475000X-0.250000X-0.475000X0.250000X-0.475000X0*%
%ADD24R,1.600000X0.700000*%
%ADD25RoundRect,0.200000X0.200000X0.275000X-0.200000X0.275000X-0.200000X-0.275000X0.200000X-0.275000X0*%
%ADD26RoundRect,0.218750X-0.218750X-0.256250X0.218750X-0.256250X0.218750X0.256250X-0.218750X0.256250X0*%
%ADD27RoundRect,0.075000X-0.650000X-0.075000X0.650000X-0.075000X0.650000X0.075000X-0.650000X0.075000X0*%
G04 APERTURE END LIST*
D10*
X117598095Y-119010000D02*
X117502857Y-118962380D01*
X117360000Y-118962380D01*
X117217142Y-119010000D01*
X117121904Y-119105238D01*
X117074285Y-119200476D01*
X117026666Y-119390952D01*
X117026666Y-119533809D01*
X117074285Y-119724285D01*
X117121904Y-119819523D01*
X117217142Y-119914761D01*
X117360000Y-119962380D01*
X117455238Y-119962380D01*
X117598095Y-119914761D01*
X117645714Y-119867142D01*
X117645714Y-119533809D01*
X117455238Y-119533809D01*
X118074285Y-119962380D02*
X118074285Y-118962380D01*
X118645714Y-119962380D01*
X118645714Y-118962380D01*
X119121904Y-119962380D02*
X119121904Y-118962380D01*
X119360000Y-118962380D01*
X119502857Y-119010000D01*
X119598095Y-119105238D01*
X119645714Y-119200476D01*
X119693333Y-119390952D01*
X119693333Y-119533809D01*
X119645714Y-119724285D01*
X119598095Y-119819523D01*
X119502857Y-119914761D01*
X119360000Y-119962380D01*
X119121904Y-119962380D01*
X149621904Y-111852380D02*
X149621904Y-110852380D01*
X149955238Y-111566666D01*
X150288571Y-110852380D01*
X150288571Y-111852380D01*
X151336190Y-111757142D02*
X151288571Y-111804761D01*
X151145714Y-111852380D01*
X151050476Y-111852380D01*
X150907619Y-111804761D01*
X150812380Y-111709523D01*
X150764761Y-111614285D01*
X150717142Y-111423809D01*
X150717142Y-111280952D01*
X150764761Y-111090476D01*
X150812380Y-110995238D01*
X150907619Y-110900000D01*
X151050476Y-110852380D01*
X151145714Y-110852380D01*
X151288571Y-110900000D01*
X151336190Y-110947619D01*
X151764761Y-111852380D02*
X151764761Y-110852380D01*
X152145714Y-110852380D01*
X152240952Y-110900000D01*
X152288571Y-110947619D01*
X152336190Y-111042857D01*
X152336190Y-111185714D01*
X152288571Y-111280952D01*
X152240952Y-111328571D01*
X152145714Y-111376190D01*
X151764761Y-111376190D01*
X152812380Y-111852380D02*
X153002857Y-111852380D01*
X153098095Y-111804761D01*
X153145714Y-111757142D01*
X153240952Y-111614285D01*
X153288571Y-111423809D01*
X153288571Y-111042857D01*
X153240952Y-110947619D01*
X153193333Y-110900000D01*
X153098095Y-110852380D01*
X152907619Y-110852380D01*
X152812380Y-110900000D01*
X152764761Y-110947619D01*
X152717142Y-111042857D01*
X152717142Y-111280952D01*
X152764761Y-111376190D01*
X152812380Y-111423809D01*
X152907619Y-111471428D01*
X153098095Y-111471428D01*
X153193333Y-111423809D01*
X153240952Y-111376190D01*
X153288571Y-111280952D01*
X153860000Y-111280952D02*
X153764761Y-111233333D01*
X153717142Y-111185714D01*
X153669523Y-111090476D01*
X153669523Y-111042857D01*
X153717142Y-110947619D01*
X153764761Y-110900000D01*
X153860000Y-110852380D01*
X154050476Y-110852380D01*
X154145714Y-110900000D01*
X154193333Y-110947619D01*
X154240952Y-111042857D01*
X154240952Y-111090476D01*
X154193333Y-111185714D01*
X154145714Y-111233333D01*
X154050476Y-111280952D01*
X153860000Y-111280952D01*
X153764761Y-111328571D01*
X153717142Y-111376190D01*
X153669523Y-111471428D01*
X153669523Y-111661904D01*
X153717142Y-111757142D01*
X153764761Y-111804761D01*
X153860000Y-111852380D01*
X154050476Y-111852380D01*
X154145714Y-111804761D01*
X154193333Y-111757142D01*
X154240952Y-111661904D01*
X154240952Y-111471428D01*
X154193333Y-111376190D01*
X154145714Y-111328571D01*
X154050476Y-111280952D01*
X154860000Y-110852380D02*
X154955238Y-110852380D01*
X155050476Y-110900000D01*
X155098095Y-110947619D01*
X155145714Y-111042857D01*
X155193333Y-111233333D01*
X155193333Y-111471428D01*
X155145714Y-111661904D01*
X155098095Y-111757142D01*
X155050476Y-111804761D01*
X154955238Y-111852380D01*
X154860000Y-111852380D01*
X154764761Y-111804761D01*
X154717142Y-111757142D01*
X154669523Y-111661904D01*
X154621904Y-111471428D01*
X154621904Y-111233333D01*
X154669523Y-111042857D01*
X154717142Y-110947619D01*
X154764761Y-110900000D01*
X154860000Y-110852380D01*
X155764761Y-111280952D02*
X155669523Y-111233333D01*
X155621904Y-111185714D01*
X155574285Y-111090476D01*
X155574285Y-111042857D01*
X155621904Y-110947619D01*
X155669523Y-110900000D01*
X155764761Y-110852380D01*
X155955238Y-110852380D01*
X156050476Y-110900000D01*
X156098095Y-110947619D01*
X156145714Y-111042857D01*
X156145714Y-111090476D01*
X156098095Y-111185714D01*
X156050476Y-111233333D01*
X155955238Y-111280952D01*
X155764761Y-111280952D01*
X155669523Y-111328571D01*
X155621904Y-111376190D01*
X155574285Y-111471428D01*
X155574285Y-111661904D01*
X155621904Y-111757142D01*
X155669523Y-111804761D01*
X155764761Y-111852380D01*
X155955238Y-111852380D01*
X156050476Y-111804761D01*
X156098095Y-111757142D01*
X156145714Y-111661904D01*
X156145714Y-111471428D01*
X156098095Y-111376190D01*
X156050476Y-111328571D01*
X155955238Y-111280952D01*
X165552857Y-116545714D02*
X164790952Y-116831428D01*
X165552857Y-117117142D01*
X166029047Y-116831428D02*
X166790952Y-116831428D01*
X167267142Y-116831428D02*
X168029047Y-116831428D01*
X144112380Y-117176666D02*
X145112380Y-116843333D01*
X144112380Y-116510000D01*
X144588571Y-116176666D02*
X144588571Y-115843333D01*
X145112380Y-115700476D02*
X145112380Y-116176666D01*
X144112380Y-116176666D01*
X144112380Y-115700476D01*
X145112380Y-115271904D02*
X144112380Y-115271904D01*
X144826666Y-114938571D01*
X144112380Y-114605238D01*
X145112380Y-114605238D01*
X145112380Y-113652857D02*
X145112380Y-114129047D01*
X144112380Y-114129047D01*
X144112380Y-113414761D02*
X144112380Y-112748095D01*
X145112380Y-113176666D01*
X144112380Y-112462380D02*
X144112380Y-111795714D01*
X145112380Y-112224285D01*
X144112380Y-111224285D02*
X144112380Y-111129047D01*
X144160000Y-111033809D01*
X144207619Y-110986190D01*
X144302857Y-110938571D01*
X144493333Y-110890952D01*
X144731428Y-110890952D01*
X144921904Y-110938571D01*
X145017142Y-110986190D01*
X145064761Y-111033809D01*
X145112380Y-111129047D01*
X145112380Y-111224285D01*
X145064761Y-111319523D01*
X145017142Y-111367142D01*
X144921904Y-111414761D01*
X144731428Y-111462380D01*
X144493333Y-111462380D01*
X144302857Y-111414761D01*
X144207619Y-111367142D01*
X144160000Y-111319523D01*
X144112380Y-111224285D01*
X144112380Y-110271904D02*
X144112380Y-110176666D01*
X144160000Y-110081428D01*
X144207619Y-110033809D01*
X144302857Y-109986190D01*
X144493333Y-109938571D01*
X144731428Y-109938571D01*
X144921904Y-109986190D01*
X145017142Y-110033809D01*
X145064761Y-110081428D01*
X145112380Y-110176666D01*
X145112380Y-110271904D01*
X145064761Y-110367142D01*
X145017142Y-110414761D01*
X144921904Y-110462380D01*
X144731428Y-110510000D01*
X144493333Y-110510000D01*
X144302857Y-110462380D01*
X144207619Y-110414761D01*
X144160000Y-110367142D01*
X144112380Y-110271904D01*
X164724761Y-114812380D02*
X164724761Y-113812380D01*
X164962857Y-113812380D01*
X165105714Y-113860000D01*
X165200952Y-113955238D01*
X165248571Y-114050476D01*
X165296190Y-114240952D01*
X165296190Y-114383809D01*
X165248571Y-114574285D01*
X165200952Y-114669523D01*
X165105714Y-114764761D01*
X164962857Y-114812380D01*
X164724761Y-114812380D01*
X166296190Y-114812380D02*
X165962857Y-114336190D01*
X165724761Y-114812380D02*
X165724761Y-113812380D01*
X166105714Y-113812380D01*
X166200952Y-113860000D01*
X166248571Y-113907619D01*
X166296190Y-114002857D01*
X166296190Y-114145714D01*
X166248571Y-114240952D01*
X166200952Y-114288571D01*
X166105714Y-114336190D01*
X165724761Y-114336190D01*
X166581904Y-113812380D02*
X166915238Y-114812380D01*
X167248571Y-113812380D01*
X167534285Y-113907619D02*
X167581904Y-113860000D01*
X167677142Y-113812380D01*
X167915238Y-113812380D01*
X168010476Y-113860000D01*
X168058095Y-113907619D01*
X168105714Y-114002857D01*
X168105714Y-114098095D01*
X168058095Y-114240952D01*
X167486666Y-114812380D01*
X168105714Y-114812380D01*
X168962857Y-113812380D02*
X168772380Y-113812380D01*
X168677142Y-113860000D01*
X168629523Y-113907619D01*
X168534285Y-114050476D01*
X168486666Y-114240952D01*
X168486666Y-114621904D01*
X168534285Y-114717142D01*
X168581904Y-114764761D01*
X168677142Y-114812380D01*
X168867619Y-114812380D01*
X168962857Y-114764761D01*
X169010476Y-114717142D01*
X169058095Y-114621904D01*
X169058095Y-114383809D01*
X169010476Y-114288571D01*
X168962857Y-114240952D01*
X168867619Y-114193333D01*
X168677142Y-114193333D01*
X168581904Y-114240952D01*
X168534285Y-114288571D01*
X168486666Y-114383809D01*
X169677142Y-113812380D02*
X169772380Y-113812380D01*
X169867619Y-113860000D01*
X169915238Y-113907619D01*
X169962857Y-114002857D01*
X170010476Y-114193333D01*
X170010476Y-114431428D01*
X169962857Y-114621904D01*
X169915238Y-114717142D01*
X169867619Y-114764761D01*
X169772380Y-114812380D01*
X169677142Y-114812380D01*
X169581904Y-114764761D01*
X169534285Y-114717142D01*
X169486666Y-114621904D01*
X169439047Y-114431428D01*
X169439047Y-114193333D01*
X169486666Y-114002857D01*
X169534285Y-113907619D01*
X169581904Y-113860000D01*
X169677142Y-113812380D01*
X170915238Y-113812380D02*
X170439047Y-113812380D01*
X170391428Y-114288571D01*
X170439047Y-114240952D01*
X170534285Y-114193333D01*
X170772380Y-114193333D01*
X170867619Y-114240952D01*
X170915238Y-114288571D01*
X170962857Y-114383809D01*
X170962857Y-114621904D01*
X170915238Y-114717142D01*
X170867619Y-114764761D01*
X170772380Y-114812380D01*
X170534285Y-114812380D01*
X170439047Y-114764761D01*
X170391428Y-114717142D01*
X156580714Y-118815535D02*
X156580714Y-118065535D01*
X156866428Y-118065535D01*
X156937857Y-118101250D01*
X156973571Y-118136964D01*
X157009285Y-118208392D01*
X157009285Y-118315535D01*
X156973571Y-118386964D01*
X156937857Y-118422678D01*
X156866428Y-118458392D01*
X156580714Y-118458392D01*
X157473571Y-118065535D02*
X157616428Y-118065535D01*
X157687857Y-118101250D01*
X157759285Y-118172678D01*
X157795000Y-118315535D01*
X157795000Y-118565535D01*
X157759285Y-118708392D01*
X157687857Y-118779821D01*
X157616428Y-118815535D01*
X157473571Y-118815535D01*
X157402142Y-118779821D01*
X157330714Y-118708392D01*
X157295000Y-118565535D01*
X157295000Y-118315535D01*
X157330714Y-118172678D01*
X157402142Y-118101250D01*
X157473571Y-118065535D01*
X158116428Y-118815535D02*
X158116428Y-118065535D01*
X158402142Y-118065535D01*
X158473571Y-118101250D01*
X158509285Y-118136964D01*
X158545000Y-118208392D01*
X158545000Y-118315535D01*
X158509285Y-118386964D01*
X158473571Y-118422678D01*
X158402142Y-118458392D01*
X158116428Y-118458392D01*
X158866428Y-118065535D02*
X158866428Y-118672678D01*
X158902142Y-118744107D01*
X158937857Y-118779821D01*
X159009285Y-118815535D01*
X159152142Y-118815535D01*
X159223571Y-118779821D01*
X159259285Y-118744107D01*
X159295000Y-118672678D01*
X159295000Y-118065535D01*
X160009285Y-118815535D02*
X159652142Y-118815535D01*
X159652142Y-118065535D01*
X160223571Y-118601250D02*
X160580714Y-118601250D01*
X160152142Y-118815535D02*
X160402142Y-118065535D01*
X160652142Y-118815535D01*
X160795000Y-118065535D02*
X161223571Y-118065535D01*
X161009285Y-118815535D02*
X161009285Y-118065535D01*
X161473571Y-118422678D02*
X161723571Y-118422678D01*
X161830714Y-118815535D02*
X161473571Y-118815535D01*
X161473571Y-118065535D01*
X161830714Y-118065535D01*
X163152142Y-118815535D02*
X162902142Y-118458392D01*
X162723571Y-118815535D02*
X162723571Y-118065535D01*
X163009285Y-118065535D01*
X163080714Y-118101250D01*
X163116428Y-118136964D01*
X163152142Y-118208392D01*
X163152142Y-118315535D01*
X163116428Y-118386964D01*
X163080714Y-118422678D01*
X163009285Y-118458392D01*
X162723571Y-118458392D01*
X163402142Y-118065535D02*
X163866428Y-118065535D01*
X163616428Y-118351250D01*
X163723571Y-118351250D01*
X163795000Y-118386964D01*
X163830714Y-118422678D01*
X163866428Y-118494107D01*
X163866428Y-118672678D01*
X163830714Y-118744107D01*
X163795000Y-118779821D01*
X163723571Y-118815535D01*
X163509285Y-118815535D01*
X163437857Y-118779821D01*
X163402142Y-118744107D01*
X164902142Y-118065535D02*
X165045000Y-118065535D01*
X165116428Y-118101250D01*
X165187857Y-118172678D01*
X165223571Y-118315535D01*
X165223571Y-118565535D01*
X165187857Y-118708392D01*
X165116428Y-118779821D01*
X165045000Y-118815535D01*
X164902142Y-118815535D01*
X164830714Y-118779821D01*
X164759285Y-118708392D01*
X164723571Y-118565535D01*
X164723571Y-118315535D01*
X164759285Y-118172678D01*
X164830714Y-118101250D01*
X164902142Y-118065535D01*
X165545000Y-118815535D02*
X165545000Y-118065535D01*
X165973571Y-118815535D01*
X165973571Y-118065535D01*
X166795000Y-118065535D02*
X167223571Y-118065535D01*
X167009285Y-118815535D02*
X167009285Y-118065535D01*
X167402142Y-118065535D02*
X167580714Y-118815535D01*
X167723571Y-118279821D01*
X167866428Y-118815535D01*
X168045000Y-118065535D01*
X168473571Y-118065535D02*
X168616428Y-118065535D01*
X168687857Y-118101250D01*
X168759285Y-118172678D01*
X168795000Y-118315535D01*
X168795000Y-118565535D01*
X168759285Y-118708392D01*
X168687857Y-118779821D01*
X168616428Y-118815535D01*
X168473571Y-118815535D01*
X168402142Y-118779821D01*
X168330714Y-118708392D01*
X168295000Y-118565535D01*
X168295000Y-118315535D01*
X168330714Y-118172678D01*
X168402142Y-118101250D01*
X168473571Y-118065535D01*
X156330714Y-120023035D02*
X156330714Y-119273035D01*
X156616428Y-119273035D01*
X156687857Y-119308750D01*
X156723571Y-119344464D01*
X156759285Y-119415892D01*
X156759285Y-119523035D01*
X156723571Y-119594464D01*
X156687857Y-119630178D01*
X156616428Y-119665892D01*
X156330714Y-119665892D01*
X157080714Y-119630178D02*
X157330714Y-119630178D01*
X157437857Y-120023035D02*
X157080714Y-120023035D01*
X157080714Y-119273035D01*
X157437857Y-119273035D01*
X158187857Y-120023035D02*
X157937857Y-119665892D01*
X157759285Y-120023035D02*
X157759285Y-119273035D01*
X158045000Y-119273035D01*
X158116428Y-119308750D01*
X158152142Y-119344464D01*
X158187857Y-119415892D01*
X158187857Y-119523035D01*
X158152142Y-119594464D01*
X158116428Y-119630178D01*
X158045000Y-119665892D01*
X157759285Y-119665892D01*
X158509285Y-120023035D02*
X158509285Y-119273035D01*
X158795000Y-119273035D01*
X158866428Y-119308750D01*
X158902142Y-119344464D01*
X158937857Y-119415892D01*
X158937857Y-119523035D01*
X158902142Y-119594464D01*
X158866428Y-119630178D01*
X158795000Y-119665892D01*
X158509285Y-119665892D01*
X159259285Y-119630178D02*
X159509285Y-119630178D01*
X159616428Y-120023035D02*
X159259285Y-120023035D01*
X159259285Y-119273035D01*
X159616428Y-119273035D01*
X159937857Y-120023035D02*
X159937857Y-119273035D01*
X160366428Y-120023035D01*
X160366428Y-119273035D01*
X160723571Y-120023035D02*
X160723571Y-119273035D01*
X160902142Y-119273035D01*
X161009285Y-119308750D01*
X161080714Y-119380178D01*
X161116428Y-119451607D01*
X161152142Y-119594464D01*
X161152142Y-119701607D01*
X161116428Y-119844464D01*
X161080714Y-119915892D01*
X161009285Y-119987321D01*
X160902142Y-120023035D01*
X160723571Y-120023035D01*
X161473571Y-120023035D02*
X161473571Y-119273035D01*
X162259285Y-119951607D02*
X162223571Y-119987321D01*
X162116428Y-120023035D01*
X162045000Y-120023035D01*
X161937857Y-119987321D01*
X161866428Y-119915892D01*
X161830714Y-119844464D01*
X161795000Y-119701607D01*
X161795000Y-119594464D01*
X161830714Y-119451607D01*
X161866428Y-119380178D01*
X161937857Y-119308750D01*
X162045000Y-119273035D01*
X162116428Y-119273035D01*
X162223571Y-119308750D01*
X162259285Y-119344464D01*
X162580714Y-119273035D02*
X162580714Y-119880178D01*
X162616428Y-119951607D01*
X162652142Y-119987321D01*
X162723571Y-120023035D01*
X162866428Y-120023035D01*
X162937857Y-119987321D01*
X162973571Y-119951607D01*
X163009285Y-119880178D01*
X163009285Y-119273035D01*
X163723571Y-120023035D02*
X163366428Y-120023035D01*
X163366428Y-119273035D01*
X163937857Y-119808750D02*
X164295000Y-119808750D01*
X163866428Y-120023035D02*
X164116428Y-119273035D01*
X164366428Y-120023035D01*
X165045000Y-120023035D02*
X164795000Y-119665892D01*
X164616428Y-120023035D02*
X164616428Y-119273035D01*
X164902142Y-119273035D01*
X164973571Y-119308750D01*
X165009285Y-119344464D01*
X165045000Y-119415892D01*
X165045000Y-119523035D01*
X165009285Y-119594464D01*
X164973571Y-119630178D01*
X164902142Y-119665892D01*
X164616428Y-119665892D01*
X166187857Y-119630178D02*
X165937857Y-119630178D01*
X165937857Y-120023035D02*
X165937857Y-119273035D01*
X166295000Y-119273035D01*
X166545000Y-119808750D02*
X166902142Y-119808750D01*
X166473571Y-120023035D02*
X166723571Y-119273035D01*
X166973571Y-120023035D01*
X167652142Y-119951607D02*
X167616428Y-119987321D01*
X167509285Y-120023035D01*
X167437857Y-120023035D01*
X167330714Y-119987321D01*
X167259285Y-119915892D01*
X167223571Y-119844464D01*
X167187857Y-119701607D01*
X167187857Y-119594464D01*
X167223571Y-119451607D01*
X167259285Y-119380178D01*
X167330714Y-119308750D01*
X167437857Y-119273035D01*
X167509285Y-119273035D01*
X167616428Y-119308750D01*
X167652142Y-119344464D01*
X167973571Y-119630178D02*
X168223571Y-119630178D01*
X168330714Y-120023035D02*
X167973571Y-120023035D01*
X167973571Y-119273035D01*
X168330714Y-119273035D01*
X168616428Y-119987321D02*
X168723571Y-120023035D01*
X168902142Y-120023035D01*
X168973571Y-119987321D01*
X169009285Y-119951607D01*
X169045000Y-119880178D01*
X169045000Y-119808750D01*
X169009285Y-119737321D01*
X168973571Y-119701607D01*
X168902142Y-119665892D01*
X168759285Y-119630178D01*
X168687857Y-119594464D01*
X168652142Y-119558750D01*
X168616428Y-119487321D01*
X168616428Y-119415892D01*
X168652142Y-119344464D01*
X168687857Y-119308750D01*
X168759285Y-119273035D01*
X168937857Y-119273035D01*
X169045000Y-119308750D01*
X115853333Y-109582380D02*
X116186666Y-110582380D01*
X116520000Y-109582380D01*
X116805714Y-110534761D02*
X116948571Y-110582380D01*
X117186666Y-110582380D01*
X117281904Y-110534761D01*
X117329523Y-110487142D01*
X117377142Y-110391904D01*
X117377142Y-110296666D01*
X117329523Y-110201428D01*
X117281904Y-110153809D01*
X117186666Y-110106190D01*
X116996190Y-110058571D01*
X116900952Y-110010952D01*
X116853333Y-109963333D01*
X116805714Y-109868095D01*
X116805714Y-109772857D01*
X116853333Y-109677619D01*
X116900952Y-109630000D01*
X116996190Y-109582380D01*
X117234285Y-109582380D01*
X117377142Y-109630000D01*
X117996190Y-109582380D02*
X118186666Y-109582380D01*
X118281904Y-109630000D01*
X118377142Y-109725238D01*
X118424761Y-109915714D01*
X118424761Y-110249047D01*
X118377142Y-110439523D01*
X118281904Y-110534761D01*
X118186666Y-110582380D01*
X117996190Y-110582380D01*
X117900952Y-110534761D01*
X117805714Y-110439523D01*
X117758095Y-110249047D01*
X117758095Y-109915714D01*
X117805714Y-109725238D01*
X117900952Y-109630000D01*
X117996190Y-109582380D01*
X119329523Y-110582380D02*
X118853333Y-110582380D01*
X118853333Y-109582380D01*
X119615238Y-110296666D02*
X120091428Y-110296666D01*
X119520000Y-110582380D02*
X119853333Y-109582380D01*
X120186666Y-110582380D01*
X121091428Y-110582380D02*
X120758095Y-110106190D01*
X120520000Y-110582380D02*
X120520000Y-109582380D01*
X120900952Y-109582380D01*
X120996190Y-109630000D01*
X121043809Y-109677619D01*
X121091428Y-109772857D01*
X121091428Y-109915714D01*
X121043809Y-110010952D01*
X120996190Y-110058571D01*
X120900952Y-110106190D01*
X120520000Y-110106190D01*
%TO.C,J2*%
X106206666Y-69762380D02*
X106206666Y-70476666D01*
X106159047Y-70619523D01*
X106063809Y-70714761D01*
X105920952Y-70762380D01*
X105825714Y-70762380D01*
X106635238Y-69857619D02*
X106682857Y-69810000D01*
X106778095Y-69762380D01*
X107016190Y-69762380D01*
X107111428Y-69810000D01*
X107159047Y-69857619D01*
X107206666Y-69952857D01*
X107206666Y-70048095D01*
X107159047Y-70190952D01*
X106587619Y-70762380D01*
X107206666Y-70762380D01*
%TO.C,J3*%
X106086666Y-158882380D02*
X106086666Y-159596666D01*
X106039047Y-159739523D01*
X105943809Y-159834761D01*
X105800952Y-159882380D01*
X105705714Y-159882380D01*
X106467619Y-158882380D02*
X107086666Y-158882380D01*
X106753333Y-159263333D01*
X106896190Y-159263333D01*
X106991428Y-159310952D01*
X107039047Y-159358571D01*
X107086666Y-159453809D01*
X107086666Y-159691904D01*
X107039047Y-159787142D01*
X106991428Y-159834761D01*
X106896190Y-159882380D01*
X106610476Y-159882380D01*
X106515238Y-159834761D01*
X106467619Y-159787142D01*
%TO.C,J4*%
X182266666Y-69832380D02*
X182266666Y-70546666D01*
X182219047Y-70689523D01*
X182123809Y-70784761D01*
X181980952Y-70832380D01*
X181885714Y-70832380D01*
X183171428Y-70165714D02*
X183171428Y-70832380D01*
X182933333Y-69784761D02*
X182695238Y-70499047D01*
X183314285Y-70499047D01*
%TO.C,J5*%
X182046666Y-158822380D02*
X182046666Y-159536666D01*
X181999047Y-159679523D01*
X181903809Y-159774761D01*
X181760952Y-159822380D01*
X181665714Y-159822380D01*
X182999047Y-158822380D02*
X182522857Y-158822380D01*
X182475238Y-159298571D01*
X182522857Y-159250952D01*
X182618095Y-159203333D01*
X182856190Y-159203333D01*
X182951428Y-159250952D01*
X182999047Y-159298571D01*
X183046666Y-159393809D01*
X183046666Y-159631904D01*
X182999047Y-159727142D01*
X182951428Y-159774761D01*
X182856190Y-159822380D01*
X182618095Y-159822380D01*
X182522857Y-159774761D01*
X182475238Y-159727142D01*
%TO.C,U2*%
X153668095Y-112212380D02*
X153668095Y-113021904D01*
X153715714Y-113117142D01*
X153763333Y-113164761D01*
X153858571Y-113212380D01*
X154049047Y-113212380D01*
X154144285Y-113164761D01*
X154191904Y-113117142D01*
X154239523Y-113021904D01*
X154239523Y-112212380D01*
X154668095Y-112307619D02*
X154715714Y-112260000D01*
X154810952Y-112212380D01*
X155049047Y-112212380D01*
X155144285Y-112260000D01*
X155191904Y-112307619D01*
X155239523Y-112402857D01*
X155239523Y-112498095D01*
X155191904Y-112640952D01*
X154620476Y-113212380D01*
X155239523Y-113212380D01*
%TO.C,SC5*%
X166598095Y-88474761D02*
X166740952Y-88522380D01*
X166979047Y-88522380D01*
X167074285Y-88474761D01*
X167121904Y-88427142D01*
X167169523Y-88331904D01*
X167169523Y-88236666D01*
X167121904Y-88141428D01*
X167074285Y-88093809D01*
X166979047Y-88046190D01*
X166788571Y-87998571D01*
X166693333Y-87950952D01*
X166645714Y-87903333D01*
X166598095Y-87808095D01*
X166598095Y-87712857D01*
X166645714Y-87617619D01*
X166693333Y-87570000D01*
X166788571Y-87522380D01*
X167026666Y-87522380D01*
X167169523Y-87570000D01*
X168169523Y-88427142D02*
X168121904Y-88474761D01*
X167979047Y-88522380D01*
X167883809Y-88522380D01*
X167740952Y-88474761D01*
X167645714Y-88379523D01*
X167598095Y-88284285D01*
X167550476Y-88093809D01*
X167550476Y-87950952D01*
X167598095Y-87760476D01*
X167645714Y-87665238D01*
X167740952Y-87570000D01*
X167883809Y-87522380D01*
X167979047Y-87522380D01*
X168121904Y-87570000D01*
X168169523Y-87617619D01*
X169074285Y-87522380D02*
X168598095Y-87522380D01*
X168550476Y-87998571D01*
X168598095Y-87950952D01*
X168693333Y-87903333D01*
X168931428Y-87903333D01*
X169026666Y-87950952D01*
X169074285Y-87998571D01*
X169121904Y-88093809D01*
X169121904Y-88331904D01*
X169074285Y-88427142D01*
X169026666Y-88474761D01*
X168931428Y-88522380D01*
X168693333Y-88522380D01*
X168598095Y-88474761D01*
X168550476Y-88427142D01*
D11*
X166717142Y-71784285D02*
X169002857Y-71784285D01*
X167860000Y-72927142D02*
X167860000Y-70641428D01*
X166717142Y-103534285D02*
X169002857Y-103534285D01*
D10*
%TO.C,TP1*%
X120572380Y-113601904D02*
X120572380Y-113030476D01*
X121572380Y-113316190D02*
X120572380Y-113316190D01*
X121572380Y-112697142D02*
X120572380Y-112697142D01*
X120572380Y-112316190D01*
X120620000Y-112220952D01*
X120667619Y-112173333D01*
X120762857Y-112125714D01*
X120905714Y-112125714D01*
X121000952Y-112173333D01*
X121048571Y-112220952D01*
X121096190Y-112316190D01*
X121096190Y-112697142D01*
X121572380Y-111173333D02*
X121572380Y-111744761D01*
X121572380Y-111459047D02*
X120572380Y-111459047D01*
X120715238Y-111554285D01*
X120810476Y-111649523D01*
X120858095Y-111744761D01*
%TO.C,D3*%
X132311904Y-118452380D02*
X132311904Y-117452380D01*
X132550000Y-117452380D01*
X132692857Y-117500000D01*
X132788095Y-117595238D01*
X132835714Y-117690476D01*
X132883333Y-117880952D01*
X132883333Y-118023809D01*
X132835714Y-118214285D01*
X132788095Y-118309523D01*
X132692857Y-118404761D01*
X132550000Y-118452380D01*
X132311904Y-118452380D01*
X133216666Y-117452380D02*
X133835714Y-117452380D01*
X133502380Y-117833333D01*
X133645238Y-117833333D01*
X133740476Y-117880952D01*
X133788095Y-117928571D01*
X133835714Y-118023809D01*
X133835714Y-118261904D01*
X133788095Y-118357142D01*
X133740476Y-118404761D01*
X133645238Y-118452380D01*
X133359523Y-118452380D01*
X133264285Y-118404761D01*
X133216666Y-118357142D01*
%TO.C,TP2*%
X120542380Y-118311904D02*
X120542380Y-117740476D01*
X121542380Y-118026190D02*
X120542380Y-118026190D01*
X121542380Y-117407142D02*
X120542380Y-117407142D01*
X120542380Y-117026190D01*
X120590000Y-116930952D01*
X120637619Y-116883333D01*
X120732857Y-116835714D01*
X120875714Y-116835714D01*
X120970952Y-116883333D01*
X121018571Y-116930952D01*
X121066190Y-117026190D01*
X121066190Y-117407142D01*
X120637619Y-116454761D02*
X120590000Y-116407142D01*
X120542380Y-116311904D01*
X120542380Y-116073809D01*
X120590000Y-115978571D01*
X120637619Y-115930952D01*
X120732857Y-115883333D01*
X120828095Y-115883333D01*
X120970952Y-115930952D01*
X121542380Y-116502380D01*
X121542380Y-115883333D01*
%TO.C,D1*%
X132281904Y-111962380D02*
X132281904Y-110962380D01*
X132520000Y-110962380D01*
X132662857Y-111010000D01*
X132758095Y-111105238D01*
X132805714Y-111200476D01*
X132853333Y-111390952D01*
X132853333Y-111533809D01*
X132805714Y-111724285D01*
X132758095Y-111819523D01*
X132662857Y-111914761D01*
X132520000Y-111962380D01*
X132281904Y-111962380D01*
X133805714Y-111962380D02*
X133234285Y-111962380D01*
X133520000Y-111962380D02*
X133520000Y-110962380D01*
X133424761Y-111105238D01*
X133329523Y-111200476D01*
X133234285Y-111248095D01*
%TO.C,SC3*%
X143228095Y-88474761D02*
X143370952Y-88522380D01*
X143609047Y-88522380D01*
X143704285Y-88474761D01*
X143751904Y-88427142D01*
X143799523Y-88331904D01*
X143799523Y-88236666D01*
X143751904Y-88141428D01*
X143704285Y-88093809D01*
X143609047Y-88046190D01*
X143418571Y-87998571D01*
X143323333Y-87950952D01*
X143275714Y-87903333D01*
X143228095Y-87808095D01*
X143228095Y-87712857D01*
X143275714Y-87617619D01*
X143323333Y-87570000D01*
X143418571Y-87522380D01*
X143656666Y-87522380D01*
X143799523Y-87570000D01*
X144799523Y-88427142D02*
X144751904Y-88474761D01*
X144609047Y-88522380D01*
X144513809Y-88522380D01*
X144370952Y-88474761D01*
X144275714Y-88379523D01*
X144228095Y-88284285D01*
X144180476Y-88093809D01*
X144180476Y-87950952D01*
X144228095Y-87760476D01*
X144275714Y-87665238D01*
X144370952Y-87570000D01*
X144513809Y-87522380D01*
X144609047Y-87522380D01*
X144751904Y-87570000D01*
X144799523Y-87617619D01*
X145132857Y-87522380D02*
X145751904Y-87522380D01*
X145418571Y-87903333D01*
X145561428Y-87903333D01*
X145656666Y-87950952D01*
X145704285Y-87998571D01*
X145751904Y-88093809D01*
X145751904Y-88331904D01*
X145704285Y-88427142D01*
X145656666Y-88474761D01*
X145561428Y-88522380D01*
X145275714Y-88522380D01*
X145180476Y-88474761D01*
X145132857Y-88427142D01*
D11*
X143347142Y-103534285D02*
X145632857Y-103534285D01*
X143347142Y-71784285D02*
X145632857Y-71784285D01*
X144490000Y-72927142D02*
X144490000Y-70641428D01*
D10*
%TO.C,SC4*%
X143188095Y-142844761D02*
X143330952Y-142892380D01*
X143569047Y-142892380D01*
X143664285Y-142844761D01*
X143711904Y-142797142D01*
X143759523Y-142701904D01*
X143759523Y-142606666D01*
X143711904Y-142511428D01*
X143664285Y-142463809D01*
X143569047Y-142416190D01*
X143378571Y-142368571D01*
X143283333Y-142320952D01*
X143235714Y-142273333D01*
X143188095Y-142178095D01*
X143188095Y-142082857D01*
X143235714Y-141987619D01*
X143283333Y-141940000D01*
X143378571Y-141892380D01*
X143616666Y-141892380D01*
X143759523Y-141940000D01*
X144759523Y-142797142D02*
X144711904Y-142844761D01*
X144569047Y-142892380D01*
X144473809Y-142892380D01*
X144330952Y-142844761D01*
X144235714Y-142749523D01*
X144188095Y-142654285D01*
X144140476Y-142463809D01*
X144140476Y-142320952D01*
X144188095Y-142130476D01*
X144235714Y-142035238D01*
X144330952Y-141940000D01*
X144473809Y-141892380D01*
X144569047Y-141892380D01*
X144711904Y-141940000D01*
X144759523Y-141987619D01*
X145616666Y-142225714D02*
X145616666Y-142892380D01*
X145378571Y-141844761D02*
X145140476Y-142559047D01*
X145759523Y-142559047D01*
D11*
X143307142Y-157904285D02*
X145592857Y-157904285D01*
X143307142Y-126154285D02*
X145592857Y-126154285D01*
X144450000Y-127297142D02*
X144450000Y-125011428D01*
D10*
%TO.C,SC2*%
X119858095Y-142824761D02*
X120000952Y-142872380D01*
X120239047Y-142872380D01*
X120334285Y-142824761D01*
X120381904Y-142777142D01*
X120429523Y-142681904D01*
X120429523Y-142586666D01*
X120381904Y-142491428D01*
X120334285Y-142443809D01*
X120239047Y-142396190D01*
X120048571Y-142348571D01*
X119953333Y-142300952D01*
X119905714Y-142253333D01*
X119858095Y-142158095D01*
X119858095Y-142062857D01*
X119905714Y-141967619D01*
X119953333Y-141920000D01*
X120048571Y-141872380D01*
X120286666Y-141872380D01*
X120429523Y-141920000D01*
X121429523Y-142777142D02*
X121381904Y-142824761D01*
X121239047Y-142872380D01*
X121143809Y-142872380D01*
X121000952Y-142824761D01*
X120905714Y-142729523D01*
X120858095Y-142634285D01*
X120810476Y-142443809D01*
X120810476Y-142300952D01*
X120858095Y-142110476D01*
X120905714Y-142015238D01*
X121000952Y-141920000D01*
X121143809Y-141872380D01*
X121239047Y-141872380D01*
X121381904Y-141920000D01*
X121429523Y-141967619D01*
X121810476Y-141967619D02*
X121858095Y-141920000D01*
X121953333Y-141872380D01*
X122191428Y-141872380D01*
X122286666Y-141920000D01*
X122334285Y-141967619D01*
X122381904Y-142062857D01*
X122381904Y-142158095D01*
X122334285Y-142300952D01*
X121762857Y-142872380D01*
X122381904Y-142872380D01*
D11*
X119977142Y-126134285D02*
X122262857Y-126134285D01*
X121120000Y-127277142D02*
X121120000Y-124991428D01*
X119977142Y-157884285D02*
X122262857Y-157884285D01*
D10*
%TO.C,D2*%
X132391904Y-115182380D02*
X132391904Y-114182380D01*
X132630000Y-114182380D01*
X132772857Y-114230000D01*
X132868095Y-114325238D01*
X132915714Y-114420476D01*
X132963333Y-114610952D01*
X132963333Y-114753809D01*
X132915714Y-114944285D01*
X132868095Y-115039523D01*
X132772857Y-115134761D01*
X132630000Y-115182380D01*
X132391904Y-115182380D01*
X133344285Y-114277619D02*
X133391904Y-114230000D01*
X133487142Y-114182380D01*
X133725238Y-114182380D01*
X133820476Y-114230000D01*
X133868095Y-114277619D01*
X133915714Y-114372857D01*
X133915714Y-114468095D01*
X133868095Y-114610952D01*
X133296666Y-115182380D01*
X133915714Y-115182380D01*
%TO.C,SC6*%
X166588095Y-142854761D02*
X166730952Y-142902380D01*
X166969047Y-142902380D01*
X167064285Y-142854761D01*
X167111904Y-142807142D01*
X167159523Y-142711904D01*
X167159523Y-142616666D01*
X167111904Y-142521428D01*
X167064285Y-142473809D01*
X166969047Y-142426190D01*
X166778571Y-142378571D01*
X166683333Y-142330952D01*
X166635714Y-142283333D01*
X166588095Y-142188095D01*
X166588095Y-142092857D01*
X166635714Y-141997619D01*
X166683333Y-141950000D01*
X166778571Y-141902380D01*
X167016666Y-141902380D01*
X167159523Y-141950000D01*
X168159523Y-142807142D02*
X168111904Y-142854761D01*
X167969047Y-142902380D01*
X167873809Y-142902380D01*
X167730952Y-142854761D01*
X167635714Y-142759523D01*
X167588095Y-142664285D01*
X167540476Y-142473809D01*
X167540476Y-142330952D01*
X167588095Y-142140476D01*
X167635714Y-142045238D01*
X167730952Y-141950000D01*
X167873809Y-141902380D01*
X167969047Y-141902380D01*
X168111904Y-141950000D01*
X168159523Y-141997619D01*
X169016666Y-141902380D02*
X168826190Y-141902380D01*
X168730952Y-141950000D01*
X168683333Y-141997619D01*
X168588095Y-142140476D01*
X168540476Y-142330952D01*
X168540476Y-142711904D01*
X168588095Y-142807142D01*
X168635714Y-142854761D01*
X168730952Y-142902380D01*
X168921428Y-142902380D01*
X169016666Y-142854761D01*
X169064285Y-142807142D01*
X169111904Y-142711904D01*
X169111904Y-142473809D01*
X169064285Y-142378571D01*
X169016666Y-142330952D01*
X168921428Y-142283333D01*
X168730952Y-142283333D01*
X168635714Y-142330952D01*
X168588095Y-142378571D01*
X168540476Y-142473809D01*
D11*
X166707142Y-157914285D02*
X168992857Y-157914285D01*
X166707142Y-126164285D02*
X168992857Y-126164285D01*
X167850000Y-127307142D02*
X167850000Y-125021428D01*
D10*
%TO.C,C2*%
X153753333Y-118807142D02*
X153705714Y-118854761D01*
X153562857Y-118902380D01*
X153467619Y-118902380D01*
X153324761Y-118854761D01*
X153229523Y-118759523D01*
X153181904Y-118664285D01*
X153134285Y-118473809D01*
X153134285Y-118330952D01*
X153181904Y-118140476D01*
X153229523Y-118045238D01*
X153324761Y-117950000D01*
X153467619Y-117902380D01*
X153562857Y-117902380D01*
X153705714Y-117950000D01*
X153753333Y-117997619D01*
X154134285Y-117997619D02*
X154181904Y-117950000D01*
X154277142Y-117902380D01*
X154515238Y-117902380D01*
X154610476Y-117950000D01*
X154658095Y-117997619D01*
X154705714Y-118092857D01*
X154705714Y-118188095D01*
X154658095Y-118330952D01*
X154086666Y-118902380D01*
X154705714Y-118902380D01*
%TO.C,C5*%
X157923333Y-110087142D02*
X157875714Y-110134761D01*
X157732857Y-110182380D01*
X157637619Y-110182380D01*
X157494761Y-110134761D01*
X157399523Y-110039523D01*
X157351904Y-109944285D01*
X157304285Y-109753809D01*
X157304285Y-109610952D01*
X157351904Y-109420476D01*
X157399523Y-109325238D01*
X157494761Y-109230000D01*
X157637619Y-109182380D01*
X157732857Y-109182380D01*
X157875714Y-109230000D01*
X157923333Y-109277619D01*
X158828095Y-109182380D02*
X158351904Y-109182380D01*
X158304285Y-109658571D01*
X158351904Y-109610952D01*
X158447142Y-109563333D01*
X158685238Y-109563333D01*
X158780476Y-109610952D01*
X158828095Y-109658571D01*
X158875714Y-109753809D01*
X158875714Y-109991904D01*
X158828095Y-110087142D01*
X158780476Y-110134761D01*
X158685238Y-110182380D01*
X158447142Y-110182380D01*
X158351904Y-110134761D01*
X158304285Y-110087142D01*
%TO.C,U1*%
X146318095Y-117412380D02*
X146318095Y-118221904D01*
X146365714Y-118317142D01*
X146413333Y-118364761D01*
X146508571Y-118412380D01*
X146699047Y-118412380D01*
X146794285Y-118364761D01*
X146841904Y-118317142D01*
X146889523Y-118221904D01*
X146889523Y-117412380D01*
X147889523Y-118412380D02*
X147318095Y-118412380D01*
X147603809Y-118412380D02*
X147603809Y-117412380D01*
X147508571Y-117555238D01*
X147413333Y-117650476D01*
X147318095Y-117698095D01*
%TO.C,R3*%
X163493333Y-117422380D02*
X163160000Y-116946190D01*
X162921904Y-117422380D02*
X162921904Y-116422380D01*
X163302857Y-116422380D01*
X163398095Y-116470000D01*
X163445714Y-116517619D01*
X163493333Y-116612857D01*
X163493333Y-116755714D01*
X163445714Y-116850952D01*
X163398095Y-116898571D01*
X163302857Y-116946190D01*
X162921904Y-116946190D01*
X163826666Y-116422380D02*
X164445714Y-116422380D01*
X164112380Y-116803333D01*
X164255238Y-116803333D01*
X164350476Y-116850952D01*
X164398095Y-116898571D01*
X164445714Y-116993809D01*
X164445714Y-117231904D01*
X164398095Y-117327142D01*
X164350476Y-117374761D01*
X164255238Y-117422380D01*
X163969523Y-117422380D01*
X163874285Y-117374761D01*
X163826666Y-117327142D01*
%TO.C,C3*%
X164173333Y-110127142D02*
X164125714Y-110174761D01*
X163982857Y-110222380D01*
X163887619Y-110222380D01*
X163744761Y-110174761D01*
X163649523Y-110079523D01*
X163601904Y-109984285D01*
X163554285Y-109793809D01*
X163554285Y-109650952D01*
X163601904Y-109460476D01*
X163649523Y-109365238D01*
X163744761Y-109270000D01*
X163887619Y-109222380D01*
X163982857Y-109222380D01*
X164125714Y-109270000D01*
X164173333Y-109317619D01*
X164506666Y-109222380D02*
X165125714Y-109222380D01*
X164792380Y-109603333D01*
X164935238Y-109603333D01*
X165030476Y-109650952D01*
X165078095Y-109698571D01*
X165125714Y-109793809D01*
X165125714Y-110031904D01*
X165078095Y-110127142D01*
X165030476Y-110174761D01*
X164935238Y-110222380D01*
X164649523Y-110222380D01*
X164554285Y-110174761D01*
X164506666Y-110127142D01*
%TO.C,D4*%
X137961904Y-110547380D02*
X137961904Y-109547380D01*
X138200000Y-109547380D01*
X138342857Y-109595000D01*
X138438095Y-109690238D01*
X138485714Y-109785476D01*
X138533333Y-109975952D01*
X138533333Y-110118809D01*
X138485714Y-110309285D01*
X138438095Y-110404523D01*
X138342857Y-110499761D01*
X138200000Y-110547380D01*
X137961904Y-110547380D01*
X139390476Y-109880714D02*
X139390476Y-110547380D01*
X139152380Y-109499761D02*
X138914285Y-110214047D01*
X139533333Y-110214047D01*
%TO.C,SC1*%
X119828095Y-88474761D02*
X119970952Y-88522380D01*
X120209047Y-88522380D01*
X120304285Y-88474761D01*
X120351904Y-88427142D01*
X120399523Y-88331904D01*
X120399523Y-88236666D01*
X120351904Y-88141428D01*
X120304285Y-88093809D01*
X120209047Y-88046190D01*
X120018571Y-87998571D01*
X119923333Y-87950952D01*
X119875714Y-87903333D01*
X119828095Y-87808095D01*
X119828095Y-87712857D01*
X119875714Y-87617619D01*
X119923333Y-87570000D01*
X120018571Y-87522380D01*
X120256666Y-87522380D01*
X120399523Y-87570000D01*
X121399523Y-88427142D02*
X121351904Y-88474761D01*
X121209047Y-88522380D01*
X121113809Y-88522380D01*
X120970952Y-88474761D01*
X120875714Y-88379523D01*
X120828095Y-88284285D01*
X120780476Y-88093809D01*
X120780476Y-87950952D01*
X120828095Y-87760476D01*
X120875714Y-87665238D01*
X120970952Y-87570000D01*
X121113809Y-87522380D01*
X121209047Y-87522380D01*
X121351904Y-87570000D01*
X121399523Y-87617619D01*
X122351904Y-88522380D02*
X121780476Y-88522380D01*
X122066190Y-88522380D02*
X122066190Y-87522380D01*
X121970952Y-87665238D01*
X121875714Y-87760476D01*
X121780476Y-87808095D01*
D11*
X119947142Y-71784285D02*
X122232857Y-71784285D01*
X121090000Y-72927142D02*
X121090000Y-70641428D01*
X119947142Y-103534285D02*
X122232857Y-103534285D01*
D10*
%TO.C,R1*%
X141733333Y-113432380D02*
X141400000Y-112956190D01*
X141161904Y-113432380D02*
X141161904Y-112432380D01*
X141542857Y-112432380D01*
X141638095Y-112480000D01*
X141685714Y-112527619D01*
X141733333Y-112622857D01*
X141733333Y-112765714D01*
X141685714Y-112860952D01*
X141638095Y-112908571D01*
X141542857Y-112956190D01*
X141161904Y-112956190D01*
X142685714Y-113432380D02*
X142114285Y-113432380D01*
X142400000Y-113432380D02*
X142400000Y-112432380D01*
X142304761Y-112575238D01*
X142209523Y-112670476D01*
X142114285Y-112718095D01*
%TO.C,U3*%
X160418095Y-111352380D02*
X160418095Y-112161904D01*
X160465714Y-112257142D01*
X160513333Y-112304761D01*
X160608571Y-112352380D01*
X160799047Y-112352380D01*
X160894285Y-112304761D01*
X160941904Y-112257142D01*
X160989523Y-112161904D01*
X160989523Y-111352380D01*
X161370476Y-111352380D02*
X161989523Y-111352380D01*
X161656190Y-111733333D01*
X161799047Y-111733333D01*
X161894285Y-111780952D01*
X161941904Y-111828571D01*
X161989523Y-111923809D01*
X161989523Y-112161904D01*
X161941904Y-112257142D01*
X161894285Y-112304761D01*
X161799047Y-112352380D01*
X161513333Y-112352380D01*
X161418095Y-112304761D01*
X161370476Y-112257142D01*
D12*
%TO.C,U2*%
X152500000Y-113370000D02*
X152500000Y-113620000D01*
X152450000Y-115470000D02*
X152450000Y-115220000D01*
X152800000Y-113370000D02*
X152900000Y-113370000D01*
X156450000Y-113370000D02*
X156150000Y-113370000D01*
X156400000Y-115470000D02*
X156400000Y-115220000D01*
X152450000Y-115470000D02*
X152750000Y-115470000D01*
X156100000Y-115470000D02*
X156400000Y-115470000D01*
X156150000Y-113370000D02*
X156050000Y-113370000D01*
X156100000Y-115470000D02*
X156000000Y-115470000D01*
X156150000Y-113370000D02*
X156450000Y-113370000D01*
X156450000Y-113370000D02*
X156450000Y-113620000D01*
X152800000Y-113370000D02*
X152500000Y-113370000D01*
X152500000Y-113370000D02*
X152800000Y-113370000D01*
X152750000Y-115470000D02*
X152850000Y-115470000D01*
X152750000Y-115470000D02*
X152450000Y-115470000D01*
X156400000Y-115470000D02*
X156100000Y-115470000D01*
X156300000Y-115770000D02*
G75*
G03*
X156300000Y-115770000I-50000J0D01*
G01*
%TO.C,SC5*%
X161110000Y-66570000D02*
X156360000Y-66570000D01*
X179360000Y-87570000D02*
X179360000Y-97570000D01*
X156360000Y-77570000D02*
X156360000Y-97570000D01*
X156360000Y-87570000D02*
X156360000Y-77570000D01*
X179360000Y-87570000D02*
X179360000Y-77570000D01*
X179360000Y-95820000D02*
X179360000Y-87570000D01*
X156360000Y-66570000D02*
X156360000Y-71320000D01*
X179360000Y-77570000D02*
X179360000Y-95820000D01*
X156360000Y-66570000D02*
X161110000Y-66570000D01*
X156360000Y-108570000D02*
X161110000Y-108570000D01*
X156360000Y-108570000D02*
X156360000Y-103820000D01*
X179360000Y-66570000D02*
X179360000Y-71320000D01*
X174610000Y-108570000D02*
X179360000Y-108570000D01*
X174610000Y-66570000D02*
X179360000Y-66570000D01*
X179360000Y-108570000D02*
X179360000Y-103820000D01*
%TO.C,D3*%
X126025000Y-119450000D02*
X130775000Y-119450000D01*
X126025000Y-119450000D02*
X126025000Y-116550000D01*
X130775000Y-119450000D02*
X130775000Y-116550000D01*
X127968200Y-117187200D02*
X127968200Y-118736600D01*
X126025000Y-116550000D02*
X130775000Y-116550000D01*
G36*
X128908000Y-118711200D02*
G01*
X128095200Y-117974600D01*
X128908000Y-117365000D01*
X128908000Y-118711200D01*
G37*
D13*
X128908000Y-118711200D02*
X128095200Y-117974600D01*
X128908000Y-117365000D01*
X128908000Y-118711200D01*
D12*
%TO.C,D1*%
X125985000Y-112990000D02*
X125985000Y-110090000D01*
X130735000Y-112990000D02*
X130735000Y-110090000D01*
X125985000Y-112990000D02*
X130735000Y-112990000D01*
X125985000Y-110090000D02*
X130735000Y-110090000D01*
X127928200Y-110727200D02*
X127928200Y-112276600D01*
G36*
X128868000Y-112251200D02*
G01*
X128055200Y-111514600D01*
X128868000Y-110905000D01*
X128868000Y-112251200D01*
G37*
D13*
X128868000Y-112251200D02*
X128055200Y-111514600D01*
X128868000Y-110905000D01*
X128868000Y-112251200D01*
D12*
%TO.C,SC3*%
X132990000Y-87570000D02*
X132990000Y-77570000D01*
X132990000Y-77570000D02*
X132990000Y-97570000D01*
X151240000Y-66570000D02*
X155990000Y-66570000D01*
X155990000Y-66570000D02*
X155990000Y-71320000D01*
X132990000Y-66570000D02*
X132990000Y-71320000D01*
X155990000Y-77570000D02*
X155990000Y-95820000D01*
X132990000Y-108570000D02*
X137740000Y-108570000D01*
X132990000Y-108570000D02*
X132990000Y-103820000D01*
X137740000Y-66570000D02*
X132990000Y-66570000D01*
X155990000Y-95820000D02*
X155990000Y-87570000D01*
X151240000Y-108570000D02*
X155990000Y-108570000D01*
X155990000Y-108570000D02*
X155990000Y-103820000D01*
X132990000Y-66570000D02*
X137740000Y-66570000D01*
X155990000Y-87570000D02*
X155990000Y-97570000D01*
X155990000Y-87570000D02*
X155990000Y-77570000D01*
%TO.C,SC4*%
X155950000Y-141940000D02*
X155950000Y-131940000D01*
X132950000Y-131940000D02*
X132950000Y-151940000D01*
X155950000Y-131940000D02*
X155950000Y-150190000D01*
X132950000Y-162940000D02*
X137700000Y-162940000D01*
X155950000Y-150190000D02*
X155950000Y-141940000D01*
X132950000Y-141940000D02*
X132950000Y-131940000D01*
X155950000Y-120940000D02*
X155950000Y-125690000D01*
X155950000Y-141940000D02*
X155950000Y-151940000D01*
X137700000Y-120940000D02*
X132950000Y-120940000D01*
X132950000Y-120940000D02*
X137700000Y-120940000D01*
X155950000Y-162940000D02*
X155950000Y-158190000D01*
X151200000Y-120940000D02*
X155950000Y-120940000D01*
X151200000Y-162940000D02*
X155950000Y-162940000D01*
X132950000Y-120940000D02*
X132950000Y-125690000D01*
X132950000Y-162940000D02*
X132950000Y-158190000D01*
%TO.C,SC2*%
X132620000Y-150170000D02*
X132620000Y-141920000D01*
X109620000Y-162920000D02*
X114370000Y-162920000D01*
X109620000Y-162920000D02*
X109620000Y-158170000D01*
X114370000Y-120920000D02*
X109620000Y-120920000D01*
X132620000Y-131920000D02*
X132620000Y-150170000D01*
X109620000Y-141920000D02*
X109620000Y-131920000D01*
X109620000Y-131920000D02*
X109620000Y-151920000D01*
X132620000Y-141920000D02*
X132620000Y-131920000D01*
X132620000Y-120920000D02*
X132620000Y-125670000D01*
X109620000Y-120920000D02*
X114370000Y-120920000D01*
X127870000Y-120920000D02*
X132620000Y-120920000D01*
X109620000Y-120920000D02*
X109620000Y-125670000D01*
X132620000Y-141920000D02*
X132620000Y-151920000D01*
X132620000Y-162920000D02*
X132620000Y-158170000D01*
X127870000Y-162920000D02*
X132620000Y-162920000D01*
%TO.C,D2*%
X125985000Y-116200000D02*
X125985000Y-113300000D01*
X125985000Y-113300000D02*
X130735000Y-113300000D01*
X130735000Y-116200000D02*
X130735000Y-113300000D01*
X125985000Y-116200000D02*
X130735000Y-116200000D01*
X127928200Y-113937200D02*
X127928200Y-115486600D01*
G36*
X128868000Y-115461200D02*
G01*
X128055200Y-114724600D01*
X128868000Y-114115000D01*
X128868000Y-115461200D01*
G37*
D13*
X128868000Y-115461200D02*
X128055200Y-114724600D01*
X128868000Y-114115000D01*
X128868000Y-115461200D01*
D12*
%TO.C,SC6*%
X179350000Y-141950000D02*
X179350000Y-151950000D01*
X161100000Y-120950000D02*
X156350000Y-120950000D01*
X156350000Y-141950000D02*
X156350000Y-131950000D01*
X174600000Y-120950000D02*
X179350000Y-120950000D01*
X179350000Y-141950000D02*
X179350000Y-131950000D01*
X156350000Y-162950000D02*
X161100000Y-162950000D01*
X174600000Y-162950000D02*
X179350000Y-162950000D01*
X156350000Y-131950000D02*
X156350000Y-151950000D01*
X179350000Y-120950000D02*
X179350000Y-125700000D01*
X179350000Y-150200000D02*
X179350000Y-141950000D01*
X156350000Y-162950000D02*
X156350000Y-158200000D01*
X156350000Y-120950000D02*
X161100000Y-120950000D01*
X156350000Y-120950000D02*
X156350000Y-125700000D01*
X179350000Y-131950000D02*
X179350000Y-150200000D01*
X179350000Y-162950000D02*
X179350000Y-158200000D01*
%TO.C,C2*%
X153698748Y-115955000D02*
X154221252Y-115955000D01*
X153698748Y-117425000D02*
X154221252Y-117425000D01*
%TO.C,C5*%
X158361252Y-110715000D02*
X157838748Y-110715000D01*
X158361252Y-112185000D02*
X157838748Y-112185000D01*
D14*
%TO.C,U1*%
X145675000Y-116925000D02*
X145675000Y-110125000D01*
X148675000Y-116100000D02*
X148675000Y-116925000D01*
X148675000Y-110125000D02*
X148675000Y-110950000D01*
X148675000Y-116925000D02*
X145675000Y-116925000D01*
X145675000Y-110125000D02*
X148675000Y-110125000D01*
D15*
X149975000Y-115430000D02*
G75*
G03*
X149975000Y-115430000I-100000J0D01*
G01*
D12*
%TO.C,R3*%
X161402258Y-116447500D02*
X160927742Y-116447500D01*
X161402258Y-117492500D02*
X160927742Y-117492500D01*
%TO.C,C3*%
X164098748Y-112115000D02*
X164621252Y-112115000D01*
X164098748Y-110645000D02*
X164621252Y-110645000D01*
%TO.C,D4*%
X139500000Y-110790000D02*
X137215000Y-110790000D01*
X137215000Y-112260000D02*
X139500000Y-112260000D01*
X137215000Y-110790000D02*
X137215000Y-112260000D01*
%TO.C,SC1*%
X132590000Y-66570000D02*
X132590000Y-71320000D01*
X114340000Y-66570000D02*
X109590000Y-66570000D01*
X127840000Y-108570000D02*
X132590000Y-108570000D01*
X109590000Y-108570000D02*
X109590000Y-103820000D01*
X132590000Y-95820000D02*
X132590000Y-87570000D01*
X109590000Y-108570000D02*
X114340000Y-108570000D01*
X132590000Y-108570000D02*
X132590000Y-103820000D01*
X109590000Y-66570000D02*
X109590000Y-71320000D01*
X132590000Y-87570000D02*
X132590000Y-77570000D01*
X127840000Y-66570000D02*
X132590000Y-66570000D01*
X132590000Y-87570000D02*
X132590000Y-97570000D01*
X132590000Y-77570000D02*
X132590000Y-95820000D01*
X109590000Y-77570000D02*
X109590000Y-97570000D01*
X109590000Y-87570000D02*
X109590000Y-77570000D01*
X109590000Y-66570000D02*
X114340000Y-66570000D01*
%TO.C,R1*%
X142137258Y-112072500D02*
X141662742Y-112072500D01*
X142137258Y-111027500D02*
X141662742Y-111027500D01*
%TO.C,U3*%
X161180000Y-115960000D02*
X162680000Y-115960000D01*
X161180000Y-112740000D02*
X158255000Y-112740000D01*
X161180000Y-112740000D02*
X162680000Y-112740000D01*
X161180000Y-115960000D02*
X159680000Y-115960000D01*
%TD*%
%LPC*%
D16*
%TO.C,J2*%
X106500000Y-70300000D03*
%TD*%
%TO.C,J3*%
X106500000Y-159300000D03*
%TD*%
%TO.C,J4*%
X182500000Y-70300000D03*
%TD*%
%TO.C,J5*%
X182500000Y-159300000D03*
%TD*%
D17*
%TO.C,U2*%
X155900000Y-115170000D03*
X155900000Y-114670000D03*
X155900000Y-114170000D03*
X155900000Y-113670000D03*
X153000000Y-113670000D03*
X153000000Y-114170000D03*
X153000000Y-114670000D03*
X153000000Y-115170000D03*
D18*
X154450000Y-114420000D03*
%TD*%
D19*
%TO.C,SC5*%
X167860000Y-67570000D03*
X167860000Y-107570000D03*
%TD*%
D20*
%TO.C,TP1*%
X118370000Y-112450000D03*
%TD*%
D21*
%TO.C,D3*%
X126400000Y-118000000D03*
X130400000Y-118000000D03*
%TD*%
D20*
%TO.C,TP2*%
X118360000Y-117050000D03*
%TD*%
D21*
%TO.C,D1*%
X126360000Y-111540000D03*
X130360000Y-111540000D03*
%TD*%
D19*
%TO.C,SC3*%
X144490000Y-67570000D03*
X144490000Y-107570000D03*
%TD*%
%TO.C,SC4*%
X144450000Y-121940000D03*
X144450000Y-161940000D03*
%TD*%
%TO.C,SC2*%
X121120000Y-121920000D03*
X121120000Y-161920000D03*
%TD*%
D21*
%TO.C,D2*%
X126360000Y-114750000D03*
X130360000Y-114750000D03*
%TD*%
D19*
%TO.C,SC6*%
X167850000Y-121950000D03*
X167850000Y-161950000D03*
%TD*%
D22*
%TO.C,C2*%
X153010000Y-116690000D03*
X154910000Y-116690000D03*
%TD*%
D23*
%TO.C,C5*%
X159050000Y-111450000D03*
X157150000Y-111450000D03*
%TD*%
D24*
%TO.C,U1*%
X148075000Y-115430000D03*
X148075000Y-114160000D03*
X148075000Y-112890000D03*
X148075000Y-111620000D03*
%TD*%
D25*
%TO.C,R3*%
X161990000Y-116970000D03*
X160340000Y-116970000D03*
%TD*%
D22*
%TO.C,C3*%
X163410000Y-111380000D03*
X165310000Y-111380000D03*
%TD*%
D26*
%TO.C,D4*%
X137912500Y-111525000D03*
X139487500Y-111525000D03*
%TD*%
D19*
%TO.C,SC1*%
X121090000Y-67570000D03*
X121090000Y-107570000D03*
%TD*%
D25*
%TO.C,R1*%
X142725000Y-111550000D03*
X141075000Y-111550000D03*
%TD*%
D27*
%TO.C,U3*%
X158980000Y-113350000D03*
X158980000Y-113850000D03*
X158980000Y-114350000D03*
X158980000Y-114850000D03*
X158980000Y-115350000D03*
X163380000Y-115350000D03*
X163380000Y-114850000D03*
X163380000Y-114350000D03*
X163380000Y-113850000D03*
X163380000Y-113350000D03*
%TD*%
M02*
