%TF.GenerationSoftware,KiCad,Pcbnew,(6.0.7)*%
%TF.CreationDate,2023-05-18T12:23:57-07:00*%
%TF.ProjectId,solar-panel-NoCutout,736f6c61-722d-4706-916e-656c2d4e6f43,3.0*%
%TF.SameCoordinates,Original*%
%TF.FileFunction,Other,Comment*%
%FSLAX46Y46*%
G04 Gerber Fmt 4.6, Leading zero omitted, Abs format (unit mm)*
G04 Created by KiCad (PCBNEW (6.0.7)) date 2023-05-18 12:23:57*
%MOMM*%
%LPD*%
G01*
G04 APERTURE LIST*
%ADD10C,0.002000*%
%ADD11C,0.150000*%
G04 APERTURE END LIST*
D10*
%TO.C,J1*%
X120854166Y-124795357D02*
X120848119Y-124801404D01*
X120829976Y-124807452D01*
X120817880Y-124807452D01*
X120799738Y-124801404D01*
X120787642Y-124789309D01*
X120781595Y-124777214D01*
X120775547Y-124753023D01*
X120775547Y-124734880D01*
X120781595Y-124710690D01*
X120787642Y-124698595D01*
X120799738Y-124686500D01*
X120817880Y-124680452D01*
X120829976Y-124680452D01*
X120848119Y-124686500D01*
X120854166Y-124692547D01*
X120926738Y-124807452D02*
X120914642Y-124801404D01*
X120908595Y-124795357D01*
X120902547Y-124783261D01*
X120902547Y-124746976D01*
X120908595Y-124734880D01*
X120914642Y-124728833D01*
X120926738Y-124722785D01*
X120944880Y-124722785D01*
X120956976Y-124728833D01*
X120963023Y-124734880D01*
X120969071Y-124746976D01*
X120969071Y-124783261D01*
X120963023Y-124795357D01*
X120956976Y-124801404D01*
X120944880Y-124807452D01*
X120926738Y-124807452D01*
X121023500Y-124722785D02*
X121023500Y-124849785D01*
X121023500Y-124728833D02*
X121035595Y-124722785D01*
X121059785Y-124722785D01*
X121071880Y-124728833D01*
X121077928Y-124734880D01*
X121083976Y-124746976D01*
X121083976Y-124783261D01*
X121077928Y-124795357D01*
X121071880Y-124801404D01*
X121059785Y-124807452D01*
X121035595Y-124807452D01*
X121023500Y-124801404D01*
X121126309Y-124722785D02*
X121156547Y-124807452D01*
X121186785Y-124722785D02*
X121156547Y-124807452D01*
X121144452Y-124837690D01*
X121138404Y-124843738D01*
X121126309Y-124849785D01*
X121235166Y-124807452D02*
X121235166Y-124722785D01*
X121235166Y-124746976D02*
X121241214Y-124734880D01*
X121247261Y-124728833D01*
X121259357Y-124722785D01*
X121271452Y-124722785D01*
X121313785Y-124807452D02*
X121313785Y-124722785D01*
X121313785Y-124680452D02*
X121307738Y-124686500D01*
X121313785Y-124692547D01*
X121319833Y-124686500D01*
X121313785Y-124680452D01*
X121313785Y-124692547D01*
X121428690Y-124722785D02*
X121428690Y-124825595D01*
X121422642Y-124837690D01*
X121416595Y-124843738D01*
X121404500Y-124849785D01*
X121386357Y-124849785D01*
X121374261Y-124843738D01*
X121428690Y-124801404D02*
X121416595Y-124807452D01*
X121392404Y-124807452D01*
X121380309Y-124801404D01*
X121374261Y-124795357D01*
X121368214Y-124783261D01*
X121368214Y-124746976D01*
X121374261Y-124734880D01*
X121380309Y-124728833D01*
X121392404Y-124722785D01*
X121416595Y-124722785D01*
X121428690Y-124728833D01*
X121489166Y-124807452D02*
X121489166Y-124680452D01*
X121543595Y-124807452D02*
X121543595Y-124740928D01*
X121537547Y-124728833D01*
X121525452Y-124722785D01*
X121507309Y-124722785D01*
X121495214Y-124728833D01*
X121489166Y-124734880D01*
X121585928Y-124722785D02*
X121634309Y-124722785D01*
X121604071Y-124680452D02*
X121604071Y-124789309D01*
X121610119Y-124801404D01*
X121622214Y-124807452D01*
X121634309Y-124807452D01*
X121767357Y-124692547D02*
X121773404Y-124686500D01*
X121785500Y-124680452D01*
X121815738Y-124680452D01*
X121827833Y-124686500D01*
X121833880Y-124692547D01*
X121839928Y-124704642D01*
X121839928Y-124716738D01*
X121833880Y-124734880D01*
X121761309Y-124807452D01*
X121839928Y-124807452D01*
X121918547Y-124680452D02*
X121930642Y-124680452D01*
X121942738Y-124686500D01*
X121948785Y-124692547D01*
X121954833Y-124704642D01*
X121960880Y-124728833D01*
X121960880Y-124759071D01*
X121954833Y-124783261D01*
X121948785Y-124795357D01*
X121942738Y-124801404D01*
X121930642Y-124807452D01*
X121918547Y-124807452D01*
X121906452Y-124801404D01*
X121900404Y-124795357D01*
X121894357Y-124783261D01*
X121888309Y-124759071D01*
X121888309Y-124728833D01*
X121894357Y-124704642D01*
X121900404Y-124692547D01*
X121906452Y-124686500D01*
X121918547Y-124680452D01*
X122009261Y-124692547D02*
X122015309Y-124686500D01*
X122027404Y-124680452D01*
X122057642Y-124680452D01*
X122069738Y-124686500D01*
X122075785Y-124692547D01*
X122081833Y-124704642D01*
X122081833Y-124716738D01*
X122075785Y-124734880D01*
X122003214Y-124807452D01*
X122081833Y-124807452D01*
X122202785Y-124807452D02*
X122130214Y-124807452D01*
X122166500Y-124807452D02*
X122166500Y-124680452D01*
X122154404Y-124698595D01*
X122142309Y-124710690D01*
X122130214Y-124716738D01*
X122347928Y-124771166D02*
X122408404Y-124771166D01*
X122335833Y-124807452D02*
X122378166Y-124680452D01*
X122420500Y-124807452D01*
X122517261Y-124801404D02*
X122505166Y-124807452D01*
X122480976Y-124807452D01*
X122468880Y-124801404D01*
X122462833Y-124795357D01*
X122456785Y-124783261D01*
X122456785Y-124746976D01*
X122462833Y-124734880D01*
X122468880Y-124728833D01*
X122480976Y-124722785D01*
X122505166Y-124722785D01*
X122517261Y-124728833D01*
X122626119Y-124801404D02*
X122614023Y-124807452D01*
X122589833Y-124807452D01*
X122577738Y-124801404D01*
X122571690Y-124795357D01*
X122565642Y-124783261D01*
X122565642Y-124746976D01*
X122571690Y-124734880D01*
X122577738Y-124728833D01*
X122589833Y-124722785D01*
X122614023Y-124722785D01*
X122626119Y-124728833D01*
X122728928Y-124801404D02*
X122716833Y-124807452D01*
X122692642Y-124807452D01*
X122680547Y-124801404D01*
X122674500Y-124789309D01*
X122674500Y-124740928D01*
X122680547Y-124728833D01*
X122692642Y-124722785D01*
X122716833Y-124722785D01*
X122728928Y-124728833D01*
X122734976Y-124740928D01*
X122734976Y-124753023D01*
X122674500Y-124765119D01*
X122807547Y-124807452D02*
X122795452Y-124801404D01*
X122789404Y-124789309D01*
X122789404Y-124680452D01*
X122904309Y-124801404D02*
X122892214Y-124807452D01*
X122868023Y-124807452D01*
X122855928Y-124801404D01*
X122849880Y-124789309D01*
X122849880Y-124740928D01*
X122855928Y-124728833D01*
X122868023Y-124722785D01*
X122892214Y-124722785D01*
X122904309Y-124728833D01*
X122910357Y-124740928D01*
X122910357Y-124753023D01*
X122849880Y-124765119D01*
X122964785Y-124807452D02*
X122964785Y-124722785D01*
X122964785Y-124746976D02*
X122970833Y-124734880D01*
X122976880Y-124728833D01*
X122988976Y-124722785D01*
X123001071Y-124722785D01*
X123097833Y-124807452D02*
X123097833Y-124740928D01*
X123091785Y-124728833D01*
X123079690Y-124722785D01*
X123055500Y-124722785D01*
X123043404Y-124728833D01*
X123097833Y-124801404D02*
X123085738Y-124807452D01*
X123055500Y-124807452D01*
X123043404Y-124801404D01*
X123037357Y-124789309D01*
X123037357Y-124777214D01*
X123043404Y-124765119D01*
X123055500Y-124759071D01*
X123085738Y-124759071D01*
X123097833Y-124753023D01*
X123140166Y-124722785D02*
X123188547Y-124722785D01*
X123158309Y-124680452D02*
X123158309Y-124789309D01*
X123164357Y-124801404D01*
X123176452Y-124807452D01*
X123188547Y-124807452D01*
X123279261Y-124801404D02*
X123267166Y-124807452D01*
X123242976Y-124807452D01*
X123230880Y-124801404D01*
X123224833Y-124789309D01*
X123224833Y-124740928D01*
X123230880Y-124728833D01*
X123242976Y-124722785D01*
X123267166Y-124722785D01*
X123279261Y-124728833D01*
X123285309Y-124740928D01*
X123285309Y-124753023D01*
X123224833Y-124765119D01*
X123394166Y-124807452D02*
X123394166Y-124680452D01*
X123394166Y-124801404D02*
X123382071Y-124807452D01*
X123357880Y-124807452D01*
X123345785Y-124801404D01*
X123339738Y-124795357D01*
X123333690Y-124783261D01*
X123333690Y-124746976D01*
X123339738Y-124734880D01*
X123345785Y-124728833D01*
X123357880Y-124722785D01*
X123382071Y-124722785D01*
X123394166Y-124728833D01*
X123551404Y-124807452D02*
X123551404Y-124680452D01*
X123581642Y-124680452D01*
X123599785Y-124686500D01*
X123611880Y-124698595D01*
X123617928Y-124710690D01*
X123623976Y-124734880D01*
X123623976Y-124753023D01*
X123617928Y-124777214D01*
X123611880Y-124789309D01*
X123599785Y-124801404D01*
X123581642Y-124807452D01*
X123551404Y-124807452D01*
X123726785Y-124801404D02*
X123714690Y-124807452D01*
X123690500Y-124807452D01*
X123678404Y-124801404D01*
X123672357Y-124789309D01*
X123672357Y-124740928D01*
X123678404Y-124728833D01*
X123690500Y-124722785D01*
X123714690Y-124722785D01*
X123726785Y-124728833D01*
X123732833Y-124740928D01*
X123732833Y-124753023D01*
X123672357Y-124765119D01*
X123781214Y-124801404D02*
X123793309Y-124807452D01*
X123817500Y-124807452D01*
X123829595Y-124801404D01*
X123835642Y-124789309D01*
X123835642Y-124783261D01*
X123829595Y-124771166D01*
X123817500Y-124765119D01*
X123799357Y-124765119D01*
X123787261Y-124759071D01*
X123781214Y-124746976D01*
X123781214Y-124740928D01*
X123787261Y-124728833D01*
X123799357Y-124722785D01*
X123817500Y-124722785D01*
X123829595Y-124728833D01*
X123890071Y-124807452D02*
X123890071Y-124722785D01*
X123890071Y-124680452D02*
X123884023Y-124686500D01*
X123890071Y-124692547D01*
X123896119Y-124686500D01*
X123890071Y-124680452D01*
X123890071Y-124692547D01*
X124004976Y-124722785D02*
X124004976Y-124825595D01*
X123998928Y-124837690D01*
X123992880Y-124843738D01*
X123980785Y-124849785D01*
X123962642Y-124849785D01*
X123950547Y-124843738D01*
X124004976Y-124801404D02*
X123992880Y-124807452D01*
X123968690Y-124807452D01*
X123956595Y-124801404D01*
X123950547Y-124795357D01*
X123944500Y-124783261D01*
X123944500Y-124746976D01*
X123950547Y-124734880D01*
X123956595Y-124728833D01*
X123968690Y-124722785D01*
X123992880Y-124722785D01*
X124004976Y-124728833D01*
X124065452Y-124722785D02*
X124065452Y-124807452D01*
X124065452Y-124734880D02*
X124071500Y-124728833D01*
X124083595Y-124722785D01*
X124101738Y-124722785D01*
X124113833Y-124728833D01*
X124119880Y-124740928D01*
X124119880Y-124807452D01*
X124174309Y-124801404D02*
X124186404Y-124807452D01*
X124210595Y-124807452D01*
X124222690Y-124801404D01*
X124228738Y-124789309D01*
X124228738Y-124783261D01*
X124222690Y-124771166D01*
X124210595Y-124765119D01*
X124192452Y-124765119D01*
X124180357Y-124759071D01*
X124174309Y-124746976D01*
X124174309Y-124740928D01*
X124180357Y-124728833D01*
X124192452Y-124722785D01*
X124210595Y-124722785D01*
X124222690Y-124728833D01*
X124283166Y-124795357D02*
X124289214Y-124801404D01*
X124283166Y-124807452D01*
X124277119Y-124801404D01*
X124283166Y-124795357D01*
X124283166Y-124807452D01*
X124434357Y-124771166D02*
X124494833Y-124771166D01*
X124422261Y-124807452D02*
X124464595Y-124680452D01*
X124506928Y-124807452D01*
X124567404Y-124807452D02*
X124555309Y-124801404D01*
X124549261Y-124789309D01*
X124549261Y-124680452D01*
X124633928Y-124807452D02*
X124621833Y-124801404D01*
X124615785Y-124789309D01*
X124615785Y-124680452D01*
X124779071Y-124807452D02*
X124779071Y-124722785D01*
X124779071Y-124746976D02*
X124785119Y-124734880D01*
X124791166Y-124728833D01*
X124803261Y-124722785D01*
X124815357Y-124722785D01*
X124857690Y-124807452D02*
X124857690Y-124722785D01*
X124857690Y-124680452D02*
X124851642Y-124686500D01*
X124857690Y-124692547D01*
X124863738Y-124686500D01*
X124857690Y-124680452D01*
X124857690Y-124692547D01*
X124972595Y-124722785D02*
X124972595Y-124825595D01*
X124966547Y-124837690D01*
X124960500Y-124843738D01*
X124948404Y-124849785D01*
X124930261Y-124849785D01*
X124918166Y-124843738D01*
X124972595Y-124801404D02*
X124960500Y-124807452D01*
X124936309Y-124807452D01*
X124924214Y-124801404D01*
X124918166Y-124795357D01*
X124912119Y-124783261D01*
X124912119Y-124746976D01*
X124918166Y-124734880D01*
X124924214Y-124728833D01*
X124936309Y-124722785D01*
X124960500Y-124722785D01*
X124972595Y-124728833D01*
X125033071Y-124807452D02*
X125033071Y-124680452D01*
X125087500Y-124807452D02*
X125087500Y-124740928D01*
X125081452Y-124728833D01*
X125069357Y-124722785D01*
X125051214Y-124722785D01*
X125039119Y-124728833D01*
X125033071Y-124734880D01*
X125129833Y-124722785D02*
X125178214Y-124722785D01*
X125147976Y-124680452D02*
X125147976Y-124789309D01*
X125154023Y-124801404D01*
X125166119Y-124807452D01*
X125178214Y-124807452D01*
X125214500Y-124801404D02*
X125226595Y-124807452D01*
X125250785Y-124807452D01*
X125262880Y-124801404D01*
X125268928Y-124789309D01*
X125268928Y-124783261D01*
X125262880Y-124771166D01*
X125250785Y-124765119D01*
X125232642Y-124765119D01*
X125220547Y-124759071D01*
X125214500Y-124746976D01*
X125214500Y-124740928D01*
X125220547Y-124728833D01*
X125232642Y-124722785D01*
X125250785Y-124722785D01*
X125262880Y-124728833D01*
X125420119Y-124807452D02*
X125420119Y-124722785D01*
X125420119Y-124746976D02*
X125426166Y-124734880D01*
X125432214Y-124728833D01*
X125444309Y-124722785D01*
X125456404Y-124722785D01*
X125547119Y-124801404D02*
X125535023Y-124807452D01*
X125510833Y-124807452D01*
X125498738Y-124801404D01*
X125492690Y-124789309D01*
X125492690Y-124740928D01*
X125498738Y-124728833D01*
X125510833Y-124722785D01*
X125535023Y-124722785D01*
X125547119Y-124728833D01*
X125553166Y-124740928D01*
X125553166Y-124753023D01*
X125492690Y-124765119D01*
X125601547Y-124801404D02*
X125613642Y-124807452D01*
X125637833Y-124807452D01*
X125649928Y-124801404D01*
X125655976Y-124789309D01*
X125655976Y-124783261D01*
X125649928Y-124771166D01*
X125637833Y-124765119D01*
X125619690Y-124765119D01*
X125607595Y-124759071D01*
X125601547Y-124746976D01*
X125601547Y-124740928D01*
X125607595Y-124728833D01*
X125619690Y-124722785D01*
X125637833Y-124722785D01*
X125649928Y-124728833D01*
X125758785Y-124801404D02*
X125746690Y-124807452D01*
X125722500Y-124807452D01*
X125710404Y-124801404D01*
X125704357Y-124789309D01*
X125704357Y-124740928D01*
X125710404Y-124728833D01*
X125722500Y-124722785D01*
X125746690Y-124722785D01*
X125758785Y-124728833D01*
X125764833Y-124740928D01*
X125764833Y-124753023D01*
X125704357Y-124765119D01*
X125819261Y-124807452D02*
X125819261Y-124722785D01*
X125819261Y-124746976D02*
X125825309Y-124734880D01*
X125831357Y-124728833D01*
X125843452Y-124722785D01*
X125855547Y-124722785D01*
X125885785Y-124722785D02*
X125916023Y-124807452D01*
X125946261Y-124722785D01*
X126043023Y-124801404D02*
X126030928Y-124807452D01*
X126006738Y-124807452D01*
X125994642Y-124801404D01*
X125988595Y-124789309D01*
X125988595Y-124740928D01*
X125994642Y-124728833D01*
X126006738Y-124722785D01*
X126030928Y-124722785D01*
X126043023Y-124728833D01*
X126049071Y-124740928D01*
X126049071Y-124753023D01*
X125988595Y-124765119D01*
X126157928Y-124807452D02*
X126157928Y-124680452D01*
X126157928Y-124801404D02*
X126145833Y-124807452D01*
X126121642Y-124807452D01*
X126109547Y-124801404D01*
X126103500Y-124795357D01*
X126097452Y-124783261D01*
X126097452Y-124746976D01*
X126103500Y-124734880D01*
X126109547Y-124728833D01*
X126121642Y-124722785D01*
X126145833Y-124722785D01*
X126157928Y-124728833D01*
X126218404Y-124795357D02*
X126224452Y-124801404D01*
X126218404Y-124807452D01*
X126212357Y-124801404D01*
X126218404Y-124795357D01*
X126218404Y-124807452D01*
D11*
X120072608Y-131802379D02*
X120072608Y-130802379D01*
X120405941Y-131516665D01*
X120739274Y-130802379D01*
X120739274Y-131802379D01*
X121167846Y-131516665D02*
X121644036Y-131516665D01*
X121072608Y-131802379D02*
X121405941Y-130802379D01*
X121739274Y-131802379D01*
X121977369Y-130802379D02*
X122644036Y-131802379D01*
X122644036Y-130802379D02*
X121977369Y-131802379D01*
X123024989Y-131802379D02*
X123024989Y-130802379D01*
X123501179Y-131802379D02*
X123501179Y-130802379D01*
X123834512Y-131516665D01*
X124167846Y-130802379D01*
X124167846Y-131802379D01*
X124644036Y-130802379D02*
X124644036Y-131611903D01*
X124691655Y-131707141D01*
X124739274Y-131754760D01*
X124834512Y-131802379D01*
X125024989Y-131802379D01*
X125120227Y-131754760D01*
X125167846Y-131707141D01*
X125215465Y-131611903D01*
X125215465Y-130802379D01*
X125691655Y-131802379D02*
X125691655Y-130802379D01*
X126024989Y-131516665D01*
X126358322Y-130802379D01*
X126358322Y-131802379D01*
X126596417Y-131897618D02*
X127358322Y-131897618D01*
X127596417Y-131802379D02*
X127596417Y-130802379D01*
X127977369Y-130802379D01*
X128072608Y-130849999D01*
X128120227Y-130897618D01*
X128167846Y-130992856D01*
X128167846Y-131135713D01*
X128120227Y-131230951D01*
X128072608Y-131278570D01*
X127977369Y-131326189D01*
X127596417Y-131326189D01*
X128548798Y-131516665D02*
X129024989Y-131516665D01*
X128453560Y-131802379D02*
X128786893Y-130802379D01*
X129120227Y-131802379D01*
X130024989Y-131707141D02*
X129977369Y-131754760D01*
X129834512Y-131802379D01*
X129739274Y-131802379D01*
X129596417Y-131754760D01*
X129501179Y-131659522D01*
X129453560Y-131564284D01*
X129405941Y-131373808D01*
X129405941Y-131230951D01*
X129453560Y-131040475D01*
X129501179Y-130945237D01*
X129596417Y-130849999D01*
X129739274Y-130802379D01*
X129834512Y-130802379D01*
X129977369Y-130849999D01*
X130024989Y-130897618D01*
X130453560Y-131802379D02*
X130453560Y-130802379D01*
X131024989Y-131802379D02*
X130596417Y-131230951D01*
X131024989Y-130802379D02*
X130453560Y-131373808D01*
X131405941Y-131516665D02*
X131882131Y-131516665D01*
X131310703Y-131802379D02*
X131644036Y-130802379D01*
X131977369Y-131802379D01*
X132834512Y-130849999D02*
X132739274Y-130802379D01*
X132596417Y-130802379D01*
X132453560Y-130849999D01*
X132358322Y-130945237D01*
X132310703Y-131040475D01*
X132263084Y-131230951D01*
X132263084Y-131373808D01*
X132310703Y-131564284D01*
X132358322Y-131659522D01*
X132453560Y-131754760D01*
X132596417Y-131802379D01*
X132691655Y-131802379D01*
X132834512Y-131754760D01*
X132882131Y-131707141D01*
X132882131Y-131373808D01*
X132691655Y-131373808D01*
X133310703Y-131278570D02*
X133644036Y-131278570D01*
X133786893Y-131802379D02*
X133310703Y-131802379D01*
X133310703Y-130802379D01*
X133786893Y-130802379D01*
X133977369Y-131897618D02*
X134739274Y-131897618D01*
X134977369Y-131802379D02*
X134977369Y-130802379D01*
X134977369Y-131278570D02*
X135548798Y-131278570D01*
X135548798Y-131802379D02*
X135548798Y-130802379D01*
X136024989Y-131278570D02*
X136358322Y-131278570D01*
X136501179Y-131802379D02*
X136024989Y-131802379D01*
X136024989Y-130802379D01*
X136501179Y-130802379D01*
X136929750Y-131802379D02*
X136929750Y-130802379D01*
X137929750Y-130849999D02*
X137834512Y-130802379D01*
X137691655Y-130802379D01*
X137548798Y-130849999D01*
X137453560Y-130945237D01*
X137405941Y-131040475D01*
X137358322Y-131230951D01*
X137358322Y-131373808D01*
X137405941Y-131564284D01*
X137453560Y-131659522D01*
X137548798Y-131754760D01*
X137691655Y-131802379D01*
X137786893Y-131802379D01*
X137929750Y-131754760D01*
X137977369Y-131707141D01*
X137977369Y-131373808D01*
X137786893Y-131373808D01*
X138405941Y-131802379D02*
X138405941Y-130802379D01*
X138405941Y-131278570D02*
X138977369Y-131278570D01*
X138977369Y-131802379D02*
X138977369Y-130802379D01*
X139310703Y-130802379D02*
X139882131Y-130802379D01*
X139596417Y-131802379D02*
X139596417Y-130802379D01*
X140215465Y-131707141D02*
X140263084Y-131754760D01*
X140215465Y-131802379D01*
X140167846Y-131754760D01*
X140215465Y-131707141D01*
X140215465Y-131802379D01*
X140215465Y-131183332D02*
X140263084Y-131230951D01*
X140215465Y-131278570D01*
X140167846Y-131230951D01*
X140215465Y-131183332D01*
X140215465Y-131278570D01*
X140453560Y-131897618D02*
X141215465Y-131897618D01*
X141405941Y-130897618D02*
X141453560Y-130849999D01*
X141548798Y-130802379D01*
X141786893Y-130802379D01*
X141882131Y-130849999D01*
X141929750Y-130897618D01*
X141977369Y-130992856D01*
X141977369Y-131088094D01*
X141929750Y-131230951D01*
X141358322Y-131802379D01*
X141977369Y-131802379D01*
X142167846Y-131897618D02*
X142929750Y-131897618D01*
X143167846Y-131802379D02*
X143167846Y-130802379D01*
X143501179Y-131516665D01*
X143834512Y-130802379D01*
X143834512Y-131802379D01*
X144310703Y-131802379D02*
X144310703Y-130802379D01*
X144644036Y-131516665D01*
X144977369Y-130802379D01*
X144977369Y-131802379D01*
X120072608Y-131802379D02*
X120072608Y-130802379D01*
X120405941Y-131516665D01*
X120739274Y-130802379D01*
X120739274Y-131802379D01*
X121167846Y-131516665D02*
X121644036Y-131516665D01*
X121072608Y-131802379D02*
X121405941Y-130802379D01*
X121739274Y-131802379D01*
X121977369Y-130802379D02*
X122644036Y-131802379D01*
X122644036Y-130802379D02*
X121977369Y-131802379D01*
X123024989Y-131802379D02*
X123024989Y-130802379D01*
X123501179Y-131802379D02*
X123501179Y-130802379D01*
X123834512Y-131516665D01*
X124167846Y-130802379D01*
X124167846Y-131802379D01*
X124644036Y-130802379D02*
X124644036Y-131611903D01*
X124691655Y-131707141D01*
X124739274Y-131754760D01*
X124834512Y-131802379D01*
X125024989Y-131802379D01*
X125120227Y-131754760D01*
X125167846Y-131707141D01*
X125215465Y-131611903D01*
X125215465Y-130802379D01*
X125691655Y-131802379D02*
X125691655Y-130802379D01*
X126024989Y-131516665D01*
X126358322Y-130802379D01*
X126358322Y-131802379D01*
X126596417Y-131897618D02*
X127358322Y-131897618D01*
X127596417Y-131802379D02*
X127596417Y-130802379D01*
X127977369Y-130802379D01*
X128072608Y-130849999D01*
X128120227Y-130897618D01*
X128167846Y-130992856D01*
X128167846Y-131135713D01*
X128120227Y-131230951D01*
X128072608Y-131278570D01*
X127977369Y-131326189D01*
X127596417Y-131326189D01*
X128548798Y-131516665D02*
X129024989Y-131516665D01*
X128453560Y-131802379D02*
X128786893Y-130802379D01*
X129120227Y-131802379D01*
X130024989Y-131707141D02*
X129977369Y-131754760D01*
X129834512Y-131802379D01*
X129739274Y-131802379D01*
X129596417Y-131754760D01*
X129501179Y-131659522D01*
X129453560Y-131564284D01*
X129405941Y-131373808D01*
X129405941Y-131230951D01*
X129453560Y-131040475D01*
X129501179Y-130945237D01*
X129596417Y-130849999D01*
X129739274Y-130802379D01*
X129834512Y-130802379D01*
X129977369Y-130849999D01*
X130024989Y-130897618D01*
X130453560Y-131802379D02*
X130453560Y-130802379D01*
X131024989Y-131802379D02*
X130596417Y-131230951D01*
X131024989Y-130802379D02*
X130453560Y-131373808D01*
X131405941Y-131516665D02*
X131882131Y-131516665D01*
X131310703Y-131802379D02*
X131644036Y-130802379D01*
X131977369Y-131802379D01*
X132834512Y-130849999D02*
X132739274Y-130802379D01*
X132596417Y-130802379D01*
X132453560Y-130849999D01*
X132358322Y-130945237D01*
X132310703Y-131040475D01*
X132263084Y-131230951D01*
X132263084Y-131373808D01*
X132310703Y-131564284D01*
X132358322Y-131659522D01*
X132453560Y-131754760D01*
X132596417Y-131802379D01*
X132691655Y-131802379D01*
X132834512Y-131754760D01*
X132882131Y-131707141D01*
X132882131Y-131373808D01*
X132691655Y-131373808D01*
X133310703Y-131278570D02*
X133644036Y-131278570D01*
X133786893Y-131802379D02*
X133310703Y-131802379D01*
X133310703Y-130802379D01*
X133786893Y-130802379D01*
X133977369Y-131897618D02*
X134739274Y-131897618D01*
X134977369Y-131802379D02*
X134977369Y-130802379D01*
X134977369Y-131278570D02*
X135548798Y-131278570D01*
X135548798Y-131802379D02*
X135548798Y-130802379D01*
X136024989Y-131278570D02*
X136358322Y-131278570D01*
X136501179Y-131802379D02*
X136024989Y-131802379D01*
X136024989Y-130802379D01*
X136501179Y-130802379D01*
X136929750Y-131802379D02*
X136929750Y-130802379D01*
X137929750Y-130849999D02*
X137834512Y-130802379D01*
X137691655Y-130802379D01*
X137548798Y-130849999D01*
X137453560Y-130945237D01*
X137405941Y-131040475D01*
X137358322Y-131230951D01*
X137358322Y-131373808D01*
X137405941Y-131564284D01*
X137453560Y-131659522D01*
X137548798Y-131754760D01*
X137691655Y-131802379D01*
X137786893Y-131802379D01*
X137929750Y-131754760D01*
X137977369Y-131707141D01*
X137977369Y-131373808D01*
X137786893Y-131373808D01*
X138405941Y-131802379D02*
X138405941Y-130802379D01*
X138405941Y-131278570D02*
X138977369Y-131278570D01*
X138977369Y-131802379D02*
X138977369Y-130802379D01*
X139310703Y-130802379D02*
X139882131Y-130802379D01*
X139596417Y-131802379D02*
X139596417Y-130802379D01*
X140215465Y-131707141D02*
X140263084Y-131754760D01*
X140215465Y-131802379D01*
X140167846Y-131754760D01*
X140215465Y-131707141D01*
X140215465Y-131802379D01*
X140215465Y-131183332D02*
X140263084Y-131230951D01*
X140215465Y-131278570D01*
X140167846Y-131230951D01*
X140215465Y-131183332D01*
X140215465Y-131278570D01*
X140453560Y-131897618D02*
X141215465Y-131897618D01*
X141405941Y-130897618D02*
X141453560Y-130849999D01*
X141548798Y-130802379D01*
X141786893Y-130802379D01*
X141882131Y-130849999D01*
X141929750Y-130897618D01*
X141977369Y-130992856D01*
X141977369Y-131088094D01*
X141929750Y-131230951D01*
X141358322Y-131802379D01*
X141977369Y-131802379D01*
X142167846Y-131897618D02*
X142929750Y-131897618D01*
X143167846Y-131802379D02*
X143167846Y-130802379D01*
X143501179Y-131516665D01*
X143834512Y-130802379D01*
X143834512Y-131802379D01*
X144310703Y-131802379D02*
X144310703Y-130802379D01*
X144644036Y-131516665D01*
X144977369Y-130802379D01*
X144977369Y-131802379D01*
X130882131Y-129262379D02*
X130882131Y-128262379D01*
X131453560Y-129262379D01*
X131453560Y-128262379D01*
X132120227Y-128262379D02*
X132310703Y-128262379D01*
X132405941Y-128309999D01*
X132501179Y-128405237D01*
X132548798Y-128595713D01*
X132548798Y-128929046D01*
X132501179Y-129119522D01*
X132405941Y-129214760D01*
X132310703Y-129262379D01*
X132120227Y-129262379D01*
X132024989Y-129214760D01*
X131929750Y-129119522D01*
X131882131Y-128929046D01*
X131882131Y-128595713D01*
X131929750Y-128405237D01*
X132024989Y-128309999D01*
X132120227Y-128262379D01*
X132834512Y-128262379D02*
X133405941Y-128262379D01*
X133120227Y-129262379D02*
X133120227Y-128262379D01*
X133739274Y-128738570D02*
X134072608Y-128738570D01*
X134215465Y-129262379D02*
X133739274Y-129262379D01*
X133739274Y-128262379D01*
X134215465Y-128262379D01*
X130882131Y-129262379D02*
X130882131Y-128262379D01*
X131453560Y-129262379D01*
X131453560Y-128262379D01*
X132120227Y-128262379D02*
X132310703Y-128262379D01*
X132405941Y-128309999D01*
X132501179Y-128405237D01*
X132548798Y-128595713D01*
X132548798Y-128929046D01*
X132501179Y-129119522D01*
X132405941Y-129214760D01*
X132310703Y-129262379D01*
X132120227Y-129262379D01*
X132024989Y-129214760D01*
X131929750Y-129119522D01*
X131882131Y-128929046D01*
X131882131Y-128595713D01*
X131929750Y-128405237D01*
X132024989Y-128309999D01*
X132120227Y-128262379D01*
X132834512Y-128262379D02*
X133405941Y-128262379D01*
X133120227Y-129262379D02*
X133120227Y-128262379D01*
X133739274Y-128738570D02*
X134072608Y-128738570D01*
X134215465Y-129262379D02*
X133739274Y-129262379D01*
X133739274Y-128262379D01*
X134215465Y-128262379D01*
%TD*%
M02*
