%TF.GenerationSoftware,KiCad,Pcbnew,9.0.0*%
%TF.CreationDate,2025-10-14T23:51:45-07:00*%
%TF.ProjectId,XY_V3_Stencil,58595f56-335f-4537-9465-6e63696c2e6b,3.0*%
%TF.SameCoordinates,Original*%
%TF.FileFunction,Profile,NP*%
%FSLAX46Y46*%
G04 Gerber Fmt 4.6, Leading zero omitted, Abs format (unit mm)*
G04 Created by KiCad (PCBNEW 9.0.0) date 2025-10-14 23:51:45*
%MOMM*%
%LPD*%
G01*
G04 APERTURE LIST*
%TA.AperFunction,Profile*%
%ADD10C,0.050000*%
%TD*%
G04 APERTURE END LIST*
D10*
X186000000Y-65750000D02*
X103000000Y-65750000D01*
X108580000Y-74920000D02*
X103000000Y-74920000D01*
X108580000Y-74920000D02*
G75*
G02*
X111239938Y-77570000I15000J-2644900D01*
G01*
X103000000Y-65750000D02*
X103000000Y-74920000D01*
X103000000Y-154620000D02*
X103000000Y-163750000D01*
X186000000Y-74925000D02*
X180420000Y-74925000D01*
X186000000Y-74925000D02*
X186000000Y-65750000D01*
X111240000Y-123595000D02*
X111240000Y-151970000D01*
X109650000Y-108545000D02*
X109650000Y-120995000D01*
X109650000Y-120995000D02*
X111240000Y-123595000D01*
X103000000Y-163750000D02*
X186000000Y-163750000D01*
X186000000Y-163750000D02*
X186000000Y-154625000D01*
X177760000Y-77575000D02*
G75*
G02*
X180420000Y-74925038I2644900J5100D01*
G01*
X109650000Y-108545000D02*
X111240000Y-105945000D01*
X177760000Y-105950000D02*
X179350000Y-108550000D01*
X177760000Y-77575000D02*
X177760000Y-105950000D01*
X111240000Y-151970000D02*
G75*
G02*
X108580000Y-154619962I-2645000J-5000D01*
G01*
X179350000Y-108550000D02*
X179350000Y-121000000D01*
X111240000Y-77570000D02*
X111240000Y-105945000D01*
X180420000Y-154625000D02*
G75*
G02*
X177759963Y-151975000I-14900J2645100D01*
G01*
X103000000Y-154620000D02*
X108580000Y-154620000D01*
X177760000Y-123600000D02*
X177760000Y-151975000D01*
X177760000Y-123600000D02*
X179350000Y-121000000D01*
X180420000Y-154625000D02*
X186000000Y-154625000D01*
M02*
