M48
; DRILL file {KiCad 9.0.0} date 2026-04-15T23:37:52-0700
; FORMAT={-:-/ absolute / inch / decimal}
; #@! TF.CreationDate,2026-04-15T23:37:52-07:00
; #@! TF.GenerationSoftware,Kicad,Pcbnew,9.0.0
; #@! TF.FileFunction,Plated,1,4,PTH
FMAT,2
INCH
; #@! TA.AperFunction,Plated,PTH,ViaDrill
T1C0.0157
; #@! TA.AperFunction,Plated,PTH,ComponentDrill
T2C0.0276
; #@! TA.AperFunction,Plated,PTH,ComponentDrill
T3C0.0335
; #@! TA.AperFunction,Plated,PTH,ComponentDrill
T4C0.1181
; #@! TA.AperFunction,Plated,PTH,ComponentDrill
T5C0.1260
%
G90
G05
T1
X7.3819Y-2.6575
X7.5244Y-5.7918
X7.5244Y-6.0182
X8.0024Y-5.3882
X8.0441Y-5.4476
X8.1075Y-5.3531
X8.1091Y-5.302
X8.172Y-5.228
X8.1741Y-5.9869
X8.1799Y-5.4819
X8.2126Y-5.9873
X8.2413Y-5.3913
X8.2453Y-5.8748
X8.2787Y-5.8732
X8.3091Y-5.2232
X8.3137Y-5.442
X8.3368Y-5.4739
X8.3514Y-5.2518
X8.3921Y-5.337
X8.4157Y-5.5146
X8.4287Y-5.7531
X8.4514Y-5.4797
X8.4941Y-5.3876
X8.5012Y-5.4646
X8.5197Y-5.7555
X8.5299Y-5.6612
X8.548Y-5.3004
X8.5929Y-5.6583
X8.626Y-5.5358
X8.6352Y-5.6323
X8.6413Y-5.3654
X8.6425Y-5.8214
X8.7028Y-5.8222
X8.7559Y-5.8226
X8.998Y-7.813
X9.4487Y-8.6325
T2
X8.846Y-5.3767
X8.846Y-5.5767
T3
X8.163Y-5.5551
X8.163Y-5.6339
X8.2417Y-5.5551
X8.2417Y-5.6339
X8.3205Y-5.6339
X8.3205Y-5.5551
T4
X7.7657Y-2.2835
X7.7657Y-4.1929
X7.7657Y-7.0079
X7.7657Y-8.9173
X8.75Y-2.2835
X8.75Y-4.1929
X8.75Y-7.0079
X8.75Y-8.9173
T5
X6.7622Y-9.5984
X6.7638Y-1.6142
X9.7559Y-9.5984
X9.7559Y-1.6142
M30
