%TF.GenerationSoftware,KiCad,Pcbnew,9.0.0*%
%TF.CreationDate,2026-04-15T23:37:52-07:00*%
%TF.ProjectId,2U_XY_V1a,32555f58-595f-4563-9161-2e6b69636164,1.0*%
%TF.SameCoordinates,Original*%
%TF.FileFunction,Copper,L2,Inr*%
%TF.FilePolarity,Positive*%
%FSLAX46Y46*%
G04 Gerber Fmt 4.6, Leading zero omitted, Abs format (unit mm)*
G04 Created by KiCad (PCBNEW 9.0.0) date 2026-04-15 23:37:52*
%MOMM*%
%LPD*%
G01*
G04 APERTURE LIST*
G04 Aperture macros list*
%AMRoundRect*
0 Rectangle with rounded corners*
0 $1 Rounding radius*
0 $2 $3 $4 $5 $6 $7 $8 $9 X,Y pos of 4 corners*
0 Add a 4 corners polygon primitive as box body*
4,1,4,$2,$3,$4,$5,$6,$7,$8,$9,$2,$3,0*
0 Add four circle primitives for the rounded corners*
1,1,$1+$1,$2,$3*
1,1,$1+$1,$4,$5*
1,1,$1+$1,$6,$7*
1,1,$1+$1,$8,$9*
0 Add four rect primitives between the rounded corners*
20,1,$1+$1,$2,$3,$4,$5,0*
20,1,$1+$1,$4,$5,$6,$7,0*
20,1,$1+$1,$6,$7,$8,$9,0*
20,1,$1+$1,$8,$9,$2,$3,0*%
G04 Aperture macros list end*
%TA.AperFunction,ComponentPad*%
%ADD10C,5.700000*%
%TD*%
%TA.AperFunction,ComponentPad*%
%ADD11C,5.000000*%
%TD*%
%TA.AperFunction,ComponentPad*%
%ADD12C,1.400000*%
%TD*%
%TA.AperFunction,ComponentPad*%
%ADD13RoundRect,0.250000X-0.350000X-0.575000X0.350000X-0.575000X0.350000X0.575000X-0.350000X0.575000X0*%
%TD*%
%TA.AperFunction,ComponentPad*%
%ADD14O,1.200000X1.650000*%
%TD*%
%TA.AperFunction,ViaPad*%
%ADD15C,0.800000*%
%TD*%
%TA.AperFunction,Conductor*%
%ADD16C,0.250000*%
%TD*%
G04 APERTURE END LIST*
D10*
%TO.N,unconnected-(J2-Pin_1-Pad1)*%
%TO.C,J2*%
X171800001Y-41000000D03*
%TD*%
%TO.N,unconnected-(J4-Pin_1-Pad1)*%
%TO.C,J4*%
X247800001Y-41000000D03*
%TD*%
%TO.N,unconnected-(J3-Pin_1-Pad1)*%
%TO.C,J3*%
X171760000Y-243800000D03*
%TD*%
D11*
%TO.N,/SOL_OUT*%
%TO.C,SC1*%
X222250000Y-58000000D03*
%TO.N,Net-(SC1---Pad2)*%
X197250000Y-58000000D03*
%TO.N,/SOL_OUT*%
X197250000Y-106500000D03*
%TO.N,Net-(SC1---Pad2)*%
X222250000Y-106500000D03*
%TD*%
D10*
%TO.N,unconnected-(J5-Pin_1-Pad1)*%
%TO.C,J5*%
X247800000Y-243800000D03*
%TD*%
D11*
%TO.N,Net-(SC1---Pad2)*%
%TO.C,SC2*%
X222250000Y-178000000D03*
%TO.N,GND*%
X197250000Y-178000000D03*
%TO.N,Net-(SC1---Pad2)*%
X197250000Y-226500000D03*
%TO.N,GND*%
X222250000Y-226500000D03*
%TD*%
D12*
%TO.N,unconnected-(J1-Power-Pad1)*%
%TO.C,J1*%
X224688110Y-141649088D03*
%TO.N,unconnected-(J1-GND-Pad2)*%
X224688110Y-136569088D03*
%TD*%
D13*
%TO.N,GND*%
%TO.C,CN1*%
X207340000Y-143099999D03*
D14*
%TO.N,SDAIN*%
X207340000Y-141099998D03*
%TO.N,VSOLAR*%
X209340001Y-143099999D03*
%TO.N,+3V3*%
X209340000Y-141099999D03*
%TO.N,VSOLAR*%
X211340000Y-143099999D03*
%TO.N,SCLIN*%
X211340001Y-141099999D03*
%TD*%
D15*
%TO.N,GND*%
X216659998Y-143794999D03*
X213759999Y-140069999D03*
X211754772Y-139036602D03*
X214666520Y-139183479D03*
X208598908Y-152076567D03*
X215751297Y-136846077D03*
X209330000Y-136939999D03*
X191120598Y-147112774D03*
X211050000Y-132670152D03*
X191120598Y-152862774D03*
X205970000Y-134669999D03*
X207620980Y-152066485D03*
X218260000Y-143719999D03*
%TO.N,+3V3*%
X219490000Y-136279999D03*
X209430000Y-149219999D03*
X203260000Y-136859999D03*
X211166736Y-138227765D03*
X214090000Y-146129999D03*
X210280000Y-149179999D03*
X216400000Y-146189999D03*
X204320000Y-138369999D03*
X207570000Y-132789999D03*
X219100000Y-140609999D03*
X217120000Y-134629999D03*
X219334998Y-143059999D03*
%TO.N,VSOLAR*%
X221050596Y-147882774D03*
X219520596Y-147862774D03*
X222400596Y-147892774D03*
%TO.N,/SCL*%
X215930000Y-138799999D03*
X205930000Y-135969999D03*
%TO.N,/SDA*%
X213160000Y-135559999D03*
%TO.N,Net-(D4-A)*%
X207770000Y-139239999D03*
%TO.N,Net-(U3-OUT+)*%
X239996361Y-219266361D03*
X187500000Y-67500000D03*
X228550000Y-198450000D03*
%TO.N,SCLIN*%
X212125153Y-133395152D03*
%TD*%
D16*
%TO.N,Net-(U3-OUT+)*%
X233816361Y-215316361D02*
X185816361Y-215316361D01*
X185640000Y-74010000D02*
X233140000Y-74010000D01*
X232640000Y-75010000D02*
X235394000Y-77764000D01*
X185316361Y-216316361D02*
X181390000Y-212390000D01*
X230901000Y-209231722D02*
X230816361Y-209316361D01*
X188140000Y-79010000D02*
X230640000Y-79010000D01*
X230890000Y-78510000D02*
X231905000Y-79525000D01*
X184890000Y-78510000D02*
X186890000Y-76510000D01*
X240910000Y-75030000D02*
X240910000Y-214222722D01*
X187816361Y-211316361D02*
X186390000Y-209890000D01*
X230399000Y-196601000D02*
X228550000Y-198450000D01*
X180890000Y-76510000D02*
X184890000Y-72510000D01*
X232566361Y-212816361D02*
X187066361Y-212816361D01*
X181390000Y-76760000D02*
X185140000Y-73010000D01*
X187316361Y-212316361D02*
X185390000Y-210390000D01*
X241389000Y-74759000D02*
X241389000Y-214493722D01*
X180390000Y-212890000D02*
X180390000Y-76260000D01*
X183640000Y-70010000D02*
X235140000Y-70010000D01*
X177890000Y-214140000D02*
X177890000Y-75010000D01*
X186140000Y-75010000D02*
X232640000Y-75010000D01*
X178390000Y-75260000D02*
X183640000Y-70010000D01*
X233863000Y-210724000D02*
X232270639Y-212316361D01*
X184390000Y-210890000D02*
X184390000Y-78260000D01*
X184890000Y-210640000D02*
X184890000Y-78510000D01*
X239899000Y-75519000D02*
X239899000Y-213733722D01*
X183316361Y-220316361D02*
X177390000Y-214390000D01*
X231816361Y-211316361D02*
X187816361Y-211316361D01*
X183566361Y-219816361D02*
X177890000Y-214140000D01*
X232381000Y-210001722D02*
X231566361Y-210816361D01*
X188066361Y-210816361D02*
X186890000Y-209640000D01*
X186890000Y-209640000D02*
X186890000Y-79510000D01*
X238383000Y-76253000D02*
X238383000Y-212999722D01*
X234640000Y-71010000D02*
X239394000Y-75764000D01*
X176890000Y-214640000D02*
X176890000Y-74510000D01*
X233890000Y-72510000D02*
X237890000Y-76510000D01*
X179390000Y-213390000D02*
X179390000Y-75760000D01*
X239394000Y-75764000D02*
X239394000Y-213488722D01*
X183390000Y-77760000D02*
X186140000Y-75010000D01*
X184066361Y-218816361D02*
X178890000Y-213640000D01*
X183390000Y-69510000D02*
X235390000Y-69510000D01*
X232910000Y-79030000D02*
X232910000Y-210222722D01*
X235895000Y-77515000D02*
X235895000Y-211737722D01*
X236387000Y-77257000D02*
X236387000Y-211995722D01*
X182890000Y-68510000D02*
X235890000Y-68510000D01*
X184390000Y-71510000D02*
X234390000Y-71510000D01*
X183140000Y-69010000D02*
X235640000Y-69010000D01*
X177390000Y-214390000D02*
X177390000Y-74760000D01*
X176890000Y-74510000D02*
X182890000Y-68510000D01*
X237890000Y-212742722D02*
X234316361Y-216316361D01*
X181890000Y-212140000D02*
X181890000Y-77010000D01*
X235140000Y-70010000D02*
X240405000Y-75275000D01*
X178890000Y-213640000D02*
X178890000Y-75510000D01*
X233140000Y-74010000D02*
X236387000Y-77257000D01*
X232890000Y-74510000D02*
X235895000Y-77515000D01*
X230816361Y-209316361D02*
X188816361Y-209316361D01*
X182390000Y-77260000D02*
X185640000Y-74010000D01*
X238901000Y-213231722D02*
X234816361Y-217316361D01*
X183390000Y-211390000D02*
X183390000Y-77760000D01*
X234390000Y-71510000D02*
X238901000Y-76021000D01*
X235066361Y-217816361D02*
X184566361Y-217816361D01*
X234890000Y-70510000D02*
X239899000Y-75519000D01*
X187890000Y-78510000D02*
X230890000Y-78510000D01*
X235816361Y-219316361D02*
X183816361Y-219316361D01*
X181390000Y-212390000D02*
X181390000Y-76760000D01*
X183890000Y-211140000D02*
X183890000Y-78010000D01*
X239996361Y-219266361D02*
X238446361Y-220816361D01*
X236316361Y-220316361D02*
X183316361Y-220316361D01*
X237890000Y-76510000D02*
X237890000Y-212742722D01*
X235566361Y-218816361D02*
X184066361Y-218816361D01*
X231566361Y-210816361D02*
X188066361Y-210816361D01*
X179890000Y-76010000D02*
X184390000Y-71510000D01*
X233640000Y-73010000D02*
X237398000Y-76768000D01*
X236893000Y-212239722D02*
X233816361Y-215316361D01*
X184390000Y-78260000D02*
X186640000Y-76010000D01*
X235895000Y-211737722D02*
X233316361Y-214316361D01*
X187640000Y-78010000D02*
X231140000Y-78010000D01*
X179390000Y-75760000D02*
X184140000Y-71010000D01*
X240405000Y-75275000D02*
X240405000Y-213977722D01*
X183066361Y-220816361D02*
X176890000Y-214640000D01*
X240910000Y-214222722D02*
X235816361Y-219316361D01*
X186066361Y-214816361D02*
X182890000Y-211640000D01*
X234038722Y-215844000D02*
X185594000Y-215844000D01*
X241894000Y-214738722D02*
X236316361Y-220316361D01*
X187890000Y-209140000D02*
X187890000Y-80010000D01*
X241894000Y-74514000D02*
X241894000Y-214738722D01*
X187066361Y-212816361D02*
X184890000Y-210640000D01*
X235390000Y-69510000D02*
X240910000Y-75030000D01*
X183816361Y-219316361D02*
X178390000Y-213890000D01*
X231640000Y-77010000D02*
X233385000Y-78755000D01*
X234892000Y-78012000D02*
X234892000Y-211240722D01*
X183890000Y-70510000D02*
X234890000Y-70510000D01*
X233390000Y-73510000D02*
X236893000Y-77013000D01*
X177890000Y-75010000D02*
X183390000Y-69510000D01*
X183890000Y-78010000D02*
X186390000Y-75510000D01*
X231412000Y-79782000D02*
X231412000Y-209470722D01*
X185890000Y-74510000D02*
X232890000Y-74510000D01*
X188390000Y-208890000D02*
X188390000Y-80260000D01*
X186640000Y-76010000D02*
X232140000Y-76010000D01*
X186390000Y-79260000D02*
X187640000Y-78010000D01*
X178890000Y-75510000D02*
X183890000Y-70510000D01*
X184890000Y-72510000D02*
X233890000Y-72510000D01*
X231412000Y-209470722D02*
X231066361Y-209816361D01*
X185890000Y-210140000D02*
X185890000Y-79010000D01*
X231140000Y-78010000D02*
X232381000Y-79251000D01*
X231905000Y-209727722D02*
X231316361Y-210316361D01*
X188816361Y-209316361D02*
X188390000Y-208890000D01*
X231890000Y-76510000D02*
X233863000Y-78483000D01*
X230901000Y-80021000D02*
X230901000Y-209231722D01*
X184640000Y-72010000D02*
X234140000Y-72010000D01*
X233385000Y-210497722D02*
X232066361Y-211816361D01*
X230399000Y-80269000D02*
X230399000Y-196601000D01*
X231905000Y-79525000D02*
X231905000Y-209727722D01*
X232381000Y-79251000D02*
X232381000Y-210001722D01*
X187140000Y-77010000D02*
X231640000Y-77010000D01*
X182890000Y-211640000D02*
X182890000Y-77510000D01*
X234316361Y-216316361D02*
X185316361Y-216316361D01*
X185816361Y-215316361D02*
X182390000Y-211890000D01*
X185594000Y-215844000D02*
X181890000Y-212140000D01*
X188640000Y-80010000D02*
X230140000Y-80010000D01*
X233066361Y-213816361D02*
X186566361Y-213816361D01*
X236387000Y-211995722D02*
X233566361Y-214816361D01*
X180390000Y-76260000D02*
X184640000Y-72010000D01*
X188316361Y-210316361D02*
X187390000Y-209390000D01*
X232910000Y-210222722D02*
X231816361Y-211316361D01*
X236066361Y-219816361D02*
X183566361Y-219816361D01*
X186816361Y-213316361D02*
X184390000Y-210890000D01*
X181890000Y-77010000D02*
X185390000Y-73510000D01*
X235890000Y-68510000D02*
X241894000Y-74514000D01*
X179890000Y-213140000D02*
X179890000Y-76010000D01*
X237398000Y-76768000D02*
X237398000Y-212484722D01*
X236893000Y-77013000D02*
X236893000Y-212239722D01*
X182390000Y-211890000D02*
X182390000Y-77260000D01*
X185140000Y-73010000D02*
X233640000Y-73010000D01*
X184566361Y-217816361D02*
X179890000Y-213140000D01*
X234566361Y-216816361D02*
X185066361Y-216816361D01*
X234390000Y-210992722D02*
X232566361Y-212816361D01*
X230390000Y-79510000D02*
X230901000Y-80021000D01*
X235316361Y-218316361D02*
X184316361Y-218316361D01*
X185890000Y-79010000D02*
X187390000Y-77510000D01*
X233863000Y-78483000D02*
X233863000Y-210724000D01*
X186890000Y-79510000D02*
X187890000Y-78510000D01*
X232140000Y-76010000D02*
X234390000Y-78260000D01*
X232816361Y-213316361D02*
X186816361Y-213316361D01*
X177390000Y-74760000D02*
X183140000Y-69010000D01*
X185390000Y-73510000D02*
X233390000Y-73510000D01*
X237398000Y-212484722D02*
X234038722Y-215844000D01*
X233566361Y-214816361D02*
X186066361Y-214816361D01*
X187390000Y-79760000D02*
X188140000Y-79010000D01*
X235394000Y-77764000D02*
X235394000Y-211488722D01*
X184316361Y-218316361D02*
X179390000Y-213390000D01*
X238446361Y-220816361D02*
X183066361Y-220816361D01*
X188390000Y-79510000D02*
X230390000Y-79510000D01*
X234892000Y-211240722D02*
X232816361Y-213316361D01*
X186566361Y-213816361D02*
X183890000Y-211140000D01*
X187390000Y-77510000D02*
X231390000Y-77510000D01*
X184140000Y-71010000D02*
X234640000Y-71010000D01*
X232390000Y-75510000D02*
X234892000Y-78012000D01*
X231066361Y-209816361D02*
X188566361Y-209816361D01*
X233316361Y-214316361D02*
X186316361Y-214316361D01*
X235640000Y-69010000D02*
X241389000Y-74759000D01*
X239899000Y-213733722D02*
X235316361Y-218316361D01*
X233385000Y-78755000D02*
X233385000Y-210497722D01*
X232066361Y-211816361D02*
X187566361Y-211816361D01*
X234816361Y-217316361D02*
X184816361Y-217316361D01*
X230640000Y-79010000D02*
X231412000Y-79782000D01*
X182890000Y-77510000D02*
X185890000Y-74510000D01*
X241389000Y-214493722D02*
X236066361Y-219816361D01*
X187890000Y-80010000D02*
X188390000Y-79510000D01*
X239394000Y-213488722D02*
X235066361Y-217816361D01*
X180890000Y-212640000D02*
X180890000Y-76510000D01*
X188566361Y-209816361D02*
X187890000Y-209140000D01*
X186390000Y-209890000D02*
X186390000Y-79260000D01*
X186890000Y-76510000D02*
X231890000Y-76510000D01*
X187390000Y-209390000D02*
X187390000Y-79760000D01*
X231390000Y-77510000D02*
X232910000Y-79030000D01*
X230140000Y-80010000D02*
X230399000Y-80269000D01*
X234390000Y-78260000D02*
X234390000Y-210992722D01*
X185066361Y-216816361D02*
X180890000Y-212640000D01*
X232270639Y-212316361D02*
X187316361Y-212316361D01*
X238383000Y-212999722D02*
X234566361Y-216816361D01*
X178390000Y-213890000D02*
X178390000Y-75260000D01*
X188390000Y-80260000D02*
X188640000Y-80010000D01*
X185390000Y-210390000D02*
X185390000Y-78760000D01*
X238901000Y-76021000D02*
X238901000Y-213231722D01*
X240405000Y-213977722D02*
X235566361Y-218816361D01*
X235394000Y-211488722D02*
X233066361Y-213816361D01*
X186316361Y-214316361D02*
X183390000Y-211390000D01*
X187566361Y-211816361D02*
X185890000Y-210140000D01*
X234140000Y-72010000D02*
X238383000Y-76253000D01*
X186390000Y-75510000D02*
X232390000Y-75510000D01*
X231316361Y-210316361D02*
X188316361Y-210316361D01*
X185390000Y-78760000D02*
X187140000Y-77010000D01*
X184816361Y-217316361D02*
X180390000Y-212890000D01*
%TD*%
%TA.AperFunction,Conductor*%
%TO.N,VSOLAR*%
G36*
X223529289Y-142448495D02*
G01*
X223715889Y-142465988D01*
X223727940Y-142468330D01*
X223904540Y-142521114D01*
X223915899Y-142525769D01*
X224078765Y-142612101D01*
X224088987Y-142618885D01*
X224231799Y-142735415D01*
X224240504Y-142744076D01*
X224309865Y-142828215D01*
X224357745Y-142886296D01*
X224364593Y-142896503D01*
X224451730Y-143058912D01*
X224456448Y-143070262D01*
X224510117Y-143246585D01*
X224512522Y-143258638D01*
X224513840Y-143271978D01*
X224529327Y-143428719D01*
X224530949Y-143445129D01*
X224531252Y-143451275D01*
X224531252Y-148996930D01*
X224530951Y-149003056D01*
X224512640Y-149188962D01*
X224510250Y-149200979D01*
X224456918Y-149376794D01*
X224452229Y-149388113D01*
X224365624Y-149550139D01*
X224358817Y-149560327D01*
X224242263Y-149702348D01*
X224233600Y-149711011D01*
X224091579Y-149827565D01*
X224081391Y-149834372D01*
X223919365Y-149920977D01*
X223908046Y-149925666D01*
X223732231Y-149978998D01*
X223720214Y-149981388D01*
X223534308Y-149999699D01*
X223528182Y-150000000D01*
X209189537Y-150000000D01*
X209183395Y-149999698D01*
X208997007Y-149981293D01*
X208984961Y-149978890D01*
X208808745Y-149925290D01*
X208797401Y-149920578D01*
X208635066Y-149833545D01*
X208624863Y-149826705D01*
X208482687Y-149709605D01*
X208474019Y-149700902D01*
X208473704Y-149700517D01*
X208357490Y-149558253D01*
X208350695Y-149548028D01*
X208264315Y-149385339D01*
X208259650Y-149373980D01*
X208206758Y-149197544D01*
X208204404Y-149185489D01*
X208200186Y-149140943D01*
X208829500Y-149140943D01*
X208829500Y-149299054D01*
X208829501Y-149299062D01*
X208870421Y-149451779D01*
X208870422Y-149451782D01*
X208870423Y-149451783D01*
X208949480Y-149588715D01*
X209061284Y-149700519D01*
X209198216Y-149779576D01*
X209198219Y-149779577D01*
X209291681Y-149804620D01*
X209350943Y-149820499D01*
X209350944Y-149820499D01*
X209509056Y-149820499D01*
X209509057Y-149820499D01*
X209661784Y-149779576D01*
X209798716Y-149700519D01*
X209831468Y-149667766D01*
X209875659Y-149649462D01*
X209906826Y-149660047D01*
X209907737Y-149658470D01*
X209911281Y-149660516D01*
X209911284Y-149660519D01*
X209998740Y-149711011D01*
X210048216Y-149739576D01*
X210048219Y-149739577D01*
X210141681Y-149764620D01*
X210200943Y-149780499D01*
X210200944Y-149780499D01*
X210359056Y-149780499D01*
X210359057Y-149780499D01*
X210511784Y-149739576D01*
X210648716Y-149660519D01*
X210760520Y-149548715D01*
X210839577Y-149411783D01*
X210880500Y-149259056D01*
X210880500Y-149100942D01*
X210839577Y-148948215D01*
X210760520Y-148811283D01*
X210648716Y-148699479D01*
X210552464Y-148643908D01*
X210511783Y-148620421D01*
X210511780Y-148620420D01*
X210359063Y-148579500D01*
X210359058Y-148579499D01*
X210359057Y-148579499D01*
X210200943Y-148579499D01*
X210200942Y-148579499D01*
X210200936Y-148579500D01*
X210048219Y-148620420D01*
X210048216Y-148620421D01*
X209978935Y-148660421D01*
X209911284Y-148699479D01*
X209911283Y-148699480D01*
X209878533Y-148732230D01*
X209834338Y-148750535D01*
X209803172Y-148739952D01*
X209802263Y-148741528D01*
X209798718Y-148739481D01*
X209798716Y-148739479D01*
X209699359Y-148682116D01*
X209661783Y-148660421D01*
X209661780Y-148660420D01*
X209509063Y-148619500D01*
X209509058Y-148619499D01*
X209509057Y-148619499D01*
X209350943Y-148619499D01*
X209350942Y-148619499D01*
X209350936Y-148619500D01*
X209198219Y-148660420D01*
X209198216Y-148660421D01*
X209101964Y-148715992D01*
X209061284Y-148739479D01*
X209061283Y-148739480D01*
X209061279Y-148739483D01*
X208949484Y-148851278D01*
X208949481Y-148851282D01*
X208870422Y-148988215D01*
X208870421Y-148988218D01*
X208829501Y-149140935D01*
X208829500Y-149140943D01*
X208200186Y-149140943D01*
X208186749Y-148999022D01*
X208186473Y-148992886D01*
X208187044Y-148851282D01*
X208198319Y-146050943D01*
X213489500Y-146050943D01*
X213489500Y-146209054D01*
X213489501Y-146209062D01*
X213530421Y-146361779D01*
X213530422Y-146361782D01*
X213530423Y-146361783D01*
X213609480Y-146498715D01*
X213721284Y-146610519D01*
X213858216Y-146689576D01*
X213858219Y-146689577D01*
X213951681Y-146714620D01*
X214010943Y-146730499D01*
X214010944Y-146730499D01*
X214169056Y-146730499D01*
X214169057Y-146730499D01*
X214321784Y-146689576D01*
X214458716Y-146610519D01*
X214570520Y-146498715D01*
X214649577Y-146361783D01*
X214690500Y-146209056D01*
X214690500Y-146110943D01*
X215799500Y-146110943D01*
X215799500Y-146269054D01*
X215799501Y-146269062D01*
X215840421Y-146421779D01*
X215840422Y-146421782D01*
X215840423Y-146421783D01*
X215919480Y-146558715D01*
X216031284Y-146670519D01*
X216168216Y-146749576D01*
X216168219Y-146749577D01*
X216261681Y-146774620D01*
X216320943Y-146790499D01*
X216320944Y-146790499D01*
X216479056Y-146790499D01*
X216479057Y-146790499D01*
X216631784Y-146749576D01*
X216768716Y-146670519D01*
X216880520Y-146558715D01*
X216959577Y-146421783D01*
X217000500Y-146269056D01*
X217000500Y-146110942D01*
X216959577Y-145958215D01*
X216880520Y-145821283D01*
X216768716Y-145709479D01*
X216664792Y-145649479D01*
X216631783Y-145630421D01*
X216631780Y-145630420D01*
X216479063Y-145589500D01*
X216479058Y-145589499D01*
X216479057Y-145589499D01*
X216320943Y-145589499D01*
X216320942Y-145589499D01*
X216320936Y-145589500D01*
X216168219Y-145630420D01*
X216168216Y-145630421D01*
X216071964Y-145685992D01*
X216031284Y-145709479D01*
X216031283Y-145709480D01*
X216031279Y-145709483D01*
X215919484Y-145821278D01*
X215919481Y-145821282D01*
X215840422Y-145958215D01*
X215840421Y-145958218D01*
X215799501Y-146110935D01*
X215799500Y-146110943D01*
X214690500Y-146110943D01*
X214690500Y-146050942D01*
X214649577Y-145898215D01*
X214570520Y-145761283D01*
X214458716Y-145649479D01*
X214362464Y-145593908D01*
X214321783Y-145570421D01*
X214321780Y-145570420D01*
X214169063Y-145529500D01*
X214169058Y-145529499D01*
X214169057Y-145529499D01*
X214010943Y-145529499D01*
X214010942Y-145529499D01*
X214010936Y-145529500D01*
X213858219Y-145570420D01*
X213858216Y-145570421D01*
X213761964Y-145625992D01*
X213721284Y-145649479D01*
X213721283Y-145649480D01*
X213721279Y-145649483D01*
X213609484Y-145761278D01*
X213609481Y-145761282D01*
X213530422Y-145898215D01*
X213530421Y-145898218D01*
X213489501Y-146050935D01*
X213489500Y-146050943D01*
X208198319Y-146050943D01*
X208208188Y-143599999D01*
X208479756Y-143599999D01*
X208542431Y-143751309D01*
X208542432Y-143751311D01*
X208640924Y-143898715D01*
X208766284Y-144024075D01*
X208840001Y-144073330D01*
X209840001Y-144073330D01*
X209913717Y-144024075D01*
X210039077Y-143898715D01*
X210137569Y-143751311D01*
X210137570Y-143751309D01*
X210200246Y-143599999D01*
X210479755Y-143599999D01*
X210542430Y-143751309D01*
X210542431Y-143751311D01*
X210640923Y-143898715D01*
X210766283Y-144024075D01*
X210840000Y-144073330D01*
X211840000Y-144073330D01*
X211913716Y-144024075D01*
X212039076Y-143898715D01*
X212137568Y-143751311D01*
X212137569Y-143751309D01*
X212152218Y-143715943D01*
X216059498Y-143715943D01*
X216059498Y-143874054D01*
X216059499Y-143874062D01*
X216100419Y-144026779D01*
X216100420Y-144026782D01*
X216100421Y-144026783D01*
X216179478Y-144163715D01*
X216291282Y-144275519D01*
X216428214Y-144354576D01*
X216428217Y-144354577D01*
X216521679Y-144379620D01*
X216580941Y-144395499D01*
X216580942Y-144395499D01*
X216739054Y-144395499D01*
X216739055Y-144395499D01*
X216891782Y-144354576D01*
X217028714Y-144275519D01*
X217140518Y-144163715D01*
X217219575Y-144026783D01*
X217260498Y-143874056D01*
X217260498Y-143715942D01*
X217219575Y-143563215D01*
X217140518Y-143426283D01*
X217028714Y-143314479D01*
X216904662Y-143242858D01*
X216891781Y-143235421D01*
X216891778Y-143235420D01*
X216739061Y-143194500D01*
X216739056Y-143194499D01*
X216739055Y-143194499D01*
X216580941Y-143194499D01*
X216580940Y-143194499D01*
X216580934Y-143194500D01*
X216428217Y-143235420D01*
X216428214Y-143235421D01*
X216331962Y-143290992D01*
X216291282Y-143314479D01*
X216291281Y-143314480D01*
X216291277Y-143314483D01*
X216179482Y-143426278D01*
X216179479Y-143426282D01*
X216179478Y-143426283D01*
X216165049Y-143451275D01*
X216100420Y-143563215D01*
X216100419Y-143563218D01*
X216059499Y-143715935D01*
X216059498Y-143715943D01*
X212152218Y-143715943D01*
X212163823Y-143687928D01*
X212200245Y-143599999D01*
X211840000Y-143599999D01*
X211840000Y-144073330D01*
X210840000Y-144073330D01*
X210840000Y-143599999D01*
X210479755Y-143599999D01*
X210200246Y-143599999D01*
X209840001Y-143599999D01*
X209840001Y-144073330D01*
X208840001Y-144073330D01*
X208840001Y-143599999D01*
X208479756Y-143599999D01*
X208208188Y-143599999D01*
X208208514Y-143519136D01*
X208208835Y-143513077D01*
X208227682Y-143328275D01*
X208230089Y-143316356D01*
X208283528Y-143141660D01*
X208288207Y-143130421D01*
X208334508Y-143044047D01*
X208915001Y-143044047D01*
X208915001Y-143155951D01*
X208943964Y-143264043D01*
X208999917Y-143360955D01*
X209079045Y-143440083D01*
X209175957Y-143496036D01*
X209284049Y-143524999D01*
X209395953Y-143524999D01*
X209504045Y-143496036D01*
X209600957Y-143440083D01*
X209680085Y-143360955D01*
X209736038Y-143264043D01*
X209765001Y-143155951D01*
X209765001Y-143044047D01*
X210915000Y-143044047D01*
X210915000Y-143155951D01*
X210943963Y-143264043D01*
X210999916Y-143360955D01*
X211079044Y-143440083D01*
X211175956Y-143496036D01*
X211284048Y-143524999D01*
X211395952Y-143524999D01*
X211504044Y-143496036D01*
X211600956Y-143440083D01*
X211680084Y-143360955D01*
X211736037Y-143264043D01*
X211765000Y-143155951D01*
X211765000Y-143044047D01*
X211736037Y-142935955D01*
X211680084Y-142839043D01*
X211600956Y-142759915D01*
X211504044Y-142703962D01*
X211395952Y-142674999D01*
X211284048Y-142674999D01*
X211175956Y-142703962D01*
X211079044Y-142759915D01*
X210999916Y-142839043D01*
X210943963Y-142935955D01*
X210915000Y-143044047D01*
X209765001Y-143044047D01*
X209736038Y-142935955D01*
X209680085Y-142839043D01*
X209600957Y-142759915D01*
X209504045Y-142703962D01*
X209395953Y-142674999D01*
X209284049Y-142674999D01*
X209175957Y-142703962D01*
X209079045Y-142759915D01*
X208999917Y-142839043D01*
X208943964Y-142935955D01*
X208915001Y-143044047D01*
X208334508Y-143044047D01*
X208377402Y-142964029D01*
X208501061Y-142813371D01*
X208651596Y-142689562D01*
X208818276Y-142599999D01*
X210200246Y-142599999D01*
X210200766Y-142599219D01*
X210200766Y-142553423D01*
X210234590Y-142519597D01*
X210258188Y-142514841D01*
X210421518Y-142514021D01*
X210465802Y-142532103D01*
X210484329Y-142576205D01*
X210479680Y-142599887D01*
X210479755Y-142599999D01*
X212200244Y-142599999D01*
X212196614Y-142591235D01*
X212196613Y-142543400D01*
X212230437Y-142509574D01*
X212254036Y-142504818D01*
X218923238Y-142471325D01*
X218967521Y-142489407D01*
X218986048Y-142533509D01*
X218967965Y-142577795D01*
X218854482Y-142691278D01*
X218854479Y-142691282D01*
X218775420Y-142828215D01*
X218775419Y-142828218D01*
X218734499Y-142980935D01*
X218734498Y-142980943D01*
X218734498Y-143139054D01*
X218734499Y-143139062D01*
X218749603Y-143195432D01*
X218743360Y-143242858D01*
X218705409Y-143271978D01*
X218657983Y-143265735D01*
X218645039Y-143255802D01*
X218628720Y-143239483D01*
X218628716Y-143239479D01*
X218532464Y-143183908D01*
X218491783Y-143160421D01*
X218491780Y-143160420D01*
X218339063Y-143119500D01*
X218339058Y-143119499D01*
X218339057Y-143119499D01*
X218180943Y-143119499D01*
X218180942Y-143119499D01*
X218180936Y-143119500D01*
X218028219Y-143160420D01*
X218028216Y-143160421D01*
X217967576Y-143195432D01*
X217891284Y-143239479D01*
X217891283Y-143239480D01*
X217891279Y-143239483D01*
X217779484Y-143351278D01*
X217779481Y-143351282D01*
X217700422Y-143488215D01*
X217700421Y-143488218D01*
X217659501Y-143640935D01*
X217659500Y-143640943D01*
X217659500Y-143799054D01*
X217659501Y-143799062D01*
X217700421Y-143951779D01*
X217700422Y-143951782D01*
X217700423Y-143951783D01*
X217779480Y-144088715D01*
X217891284Y-144200519D01*
X218021180Y-144275514D01*
X218028216Y-144279576D01*
X218028219Y-144279577D01*
X218121681Y-144304620D01*
X218180943Y-144320499D01*
X218180944Y-144320499D01*
X218339056Y-144320499D01*
X218339057Y-144320499D01*
X218491784Y-144279576D01*
X218628716Y-144200519D01*
X218740520Y-144088715D01*
X218819577Y-143951783D01*
X218860500Y-143799056D01*
X218860500Y-143640942D01*
X218845394Y-143584565D01*
X218851637Y-143537139D01*
X218889587Y-143508019D01*
X218937014Y-143514262D01*
X218949958Y-143524195D01*
X218966282Y-143540519D01*
X219103214Y-143619576D01*
X219103217Y-143619577D01*
X219182927Y-143640935D01*
X219255941Y-143660499D01*
X219255942Y-143660499D01*
X219414054Y-143660499D01*
X219414055Y-143660499D01*
X219566782Y-143619576D01*
X219703714Y-143540519D01*
X219815518Y-143428715D01*
X219894575Y-143291783D01*
X219935498Y-143139056D01*
X219935498Y-142980942D01*
X219910138Y-142886296D01*
X219894576Y-142828218D01*
X219894575Y-142828215D01*
X219855142Y-142759915D01*
X219815518Y-142691283D01*
X219703714Y-142579479D01*
X219703710Y-142579476D01*
X219703486Y-142579305D01*
X219703412Y-142579177D01*
X219700817Y-142576582D01*
X219701512Y-142575886D01*
X219679564Y-142537881D01*
X219691939Y-142491674D01*
X219733363Y-142467752D01*
X219741207Y-142467217D01*
X223523160Y-142448224D01*
X223529289Y-142448495D01*
G37*
%TD.AperFunction*%
%TD*%
%TA.AperFunction,Conductor*%
%TO.N,GND*%
G36*
X229033716Y-222019685D02*
G01*
X229079471Y-222072489D01*
X229090633Y-222120708D01*
X229315372Y-230582708D01*
X229297475Y-230650246D01*
X229245904Y-230697387D01*
X229191416Y-230710000D01*
X189069832Y-230710000D01*
X189002793Y-230690315D01*
X188957038Y-230637511D01*
X188945834Y-230585218D01*
X188972675Y-226331041D01*
X194241500Y-226331041D01*
X194241500Y-226668958D01*
X194279332Y-227004723D01*
X194279334Y-227004739D01*
X194354524Y-227334171D01*
X194354528Y-227334183D01*
X194466126Y-227653110D01*
X194466132Y-227653124D01*
X194612740Y-227957558D01*
X194612742Y-227957561D01*
X194792519Y-228243675D01*
X195003201Y-228507862D01*
X195242138Y-228746799D01*
X195506325Y-228957481D01*
X195792439Y-229137258D01*
X196096883Y-229283871D01*
X196096889Y-229283873D01*
X196415816Y-229395471D01*
X196415828Y-229395475D01*
X196745264Y-229470666D01*
X197081042Y-229508499D01*
X197081043Y-229508500D01*
X197081046Y-229508500D01*
X197418957Y-229508500D01*
X197418957Y-229508499D01*
X197754736Y-229470666D01*
X198084172Y-229395475D01*
X198403117Y-229283871D01*
X198707561Y-229137258D01*
X198993675Y-228957481D01*
X199257862Y-228746799D01*
X199496799Y-228507862D01*
X199707481Y-228243675D01*
X199887258Y-227957561D01*
X200033871Y-227653117D01*
X200145475Y-227334172D01*
X200220666Y-227004736D01*
X200258500Y-226668954D01*
X200258500Y-226331519D01*
X219250000Y-226331519D01*
X219250000Y-226668480D01*
X219287725Y-227003297D01*
X219287727Y-227003313D01*
X219362705Y-227331814D01*
X219362709Y-227331826D01*
X219473995Y-227649862D01*
X219620191Y-227953440D01*
X219799461Y-228238747D01*
X219958397Y-228438048D01*
X221027340Y-227369105D01*
X221105864Y-227477184D01*
X221272816Y-227644136D01*
X221380893Y-227722658D01*
X220311950Y-228791601D01*
X220511252Y-228950538D01*
X220796559Y-229129808D01*
X221100137Y-229276004D01*
X221418173Y-229387290D01*
X221418185Y-229387294D01*
X221746686Y-229462272D01*
X221746702Y-229462274D01*
X222081519Y-229499999D01*
X222081521Y-229500000D01*
X222418479Y-229500000D01*
X222418480Y-229499999D01*
X222753297Y-229462274D01*
X222753313Y-229462272D01*
X223081814Y-229387294D01*
X223081826Y-229387290D01*
X223399862Y-229276004D01*
X223703440Y-229129808D01*
X223988747Y-228950538D01*
X224188048Y-228791600D01*
X223119106Y-227722658D01*
X223227184Y-227644136D01*
X223394136Y-227477184D01*
X223472658Y-227369106D01*
X224541600Y-228438048D01*
X224700538Y-228238747D01*
X224879808Y-227953440D01*
X225026004Y-227649862D01*
X225137290Y-227331826D01*
X225137294Y-227331814D01*
X225212272Y-227003313D01*
X225212274Y-227003297D01*
X225249999Y-226668480D01*
X225250000Y-226668478D01*
X225250000Y-226331521D01*
X225249999Y-226331519D01*
X225212274Y-225996702D01*
X225212272Y-225996686D01*
X225137294Y-225668185D01*
X225137290Y-225668173D01*
X225026004Y-225350137D01*
X224879808Y-225046559D01*
X224700538Y-224761252D01*
X224541601Y-224561950D01*
X223472658Y-225630893D01*
X223394136Y-225522816D01*
X223227184Y-225355864D01*
X223119104Y-225277340D01*
X224188048Y-224208397D01*
X223988747Y-224049461D01*
X223703440Y-223870191D01*
X223399862Y-223723995D01*
X223081826Y-223612709D01*
X223081814Y-223612705D01*
X222753313Y-223537727D01*
X222753297Y-223537725D01*
X222418480Y-223500000D01*
X222081519Y-223500000D01*
X221746702Y-223537725D01*
X221746686Y-223537727D01*
X221418185Y-223612705D01*
X221418173Y-223612709D01*
X221100137Y-223723995D01*
X220796559Y-223870191D01*
X220511252Y-224049461D01*
X220311950Y-224208397D01*
X221380893Y-225277340D01*
X221272816Y-225355864D01*
X221105864Y-225522816D01*
X221027340Y-225630893D01*
X219958397Y-224561950D01*
X219799461Y-224761252D01*
X219620191Y-225046559D01*
X219473995Y-225350137D01*
X219362709Y-225668173D01*
X219362705Y-225668185D01*
X219287727Y-225996686D01*
X219287725Y-225996702D01*
X219250000Y-226331519D01*
X200258500Y-226331519D01*
X200258500Y-226331046D01*
X200220666Y-225995264D01*
X200145475Y-225665828D01*
X200033871Y-225346883D01*
X199887258Y-225042439D01*
X199707481Y-224756325D01*
X199496799Y-224492138D01*
X199257862Y-224253201D01*
X198993675Y-224042519D01*
X198707561Y-223862742D01*
X198707558Y-223862740D01*
X198403124Y-223716132D01*
X198403110Y-223716126D01*
X198084183Y-223604528D01*
X198084171Y-223604524D01*
X197754739Y-223529334D01*
X197754723Y-223529332D01*
X197418958Y-223491500D01*
X197418954Y-223491500D01*
X197081046Y-223491500D01*
X197081041Y-223491500D01*
X196745276Y-223529332D01*
X196745260Y-223529334D01*
X196415828Y-223604524D01*
X196415816Y-223604528D01*
X196096889Y-223716126D01*
X196096875Y-223716132D01*
X195792441Y-223862740D01*
X195506326Y-224042518D01*
X195242138Y-224253200D01*
X195003200Y-224492138D01*
X194792518Y-224756326D01*
X194612740Y-225042441D01*
X194466132Y-225346875D01*
X194466126Y-225346889D01*
X194354528Y-225665816D01*
X194354524Y-225665828D01*
X194279334Y-225995260D01*
X194279332Y-225995276D01*
X194241500Y-226331041D01*
X188972675Y-226331041D01*
X188972702Y-226326785D01*
X188999223Y-222123218D01*
X189019331Y-222056304D01*
X189072422Y-222010883D01*
X189123221Y-222000000D01*
X228966677Y-222000000D01*
X229033716Y-222019685D01*
G37*
%TD.AperFunction*%
%TD*%
%TA.AperFunction,Conductor*%
%TO.N,GND*%
G36*
X216719947Y-143402128D02*
G01*
X216804508Y-143424785D01*
X216819583Y-143431029D01*
X216837122Y-143441155D01*
X216895414Y-143474809D01*
X216908356Y-143484741D01*
X216970255Y-143546640D01*
X216980188Y-143559584D01*
X217023966Y-143635410D01*
X217030209Y-143650483D01*
X217034901Y-143667993D01*
X217034901Y-143667994D01*
X217052868Y-143735047D01*
X217054998Y-143751223D01*
X217054998Y-143838773D01*
X217052868Y-143854949D01*
X217030209Y-143939512D01*
X217023966Y-143954586D01*
X216980188Y-144030412D01*
X216970255Y-144043356D01*
X216908355Y-144105256D01*
X216895411Y-144115189D01*
X216819585Y-144158967D01*
X216804512Y-144165210D01*
X216762231Y-144176539D01*
X216719948Y-144187869D01*
X216703773Y-144189999D01*
X216616225Y-144189999D01*
X216600048Y-144187869D01*
X216515482Y-144165209D01*
X216500410Y-144158966D01*
X216424584Y-144115189D01*
X216411639Y-144105256D01*
X216349739Y-144043356D01*
X216339806Y-144030412D01*
X216303978Y-143968356D01*
X216296026Y-143954583D01*
X216289788Y-143939522D01*
X216267126Y-143854945D01*
X216264998Y-143838776D01*
X216264998Y-143751219D01*
X216267125Y-143735051D01*
X216289788Y-143650473D01*
X216296024Y-143635417D01*
X216339809Y-143559579D01*
X216349734Y-143546645D01*
X216411647Y-143484733D01*
X216424575Y-143474813D01*
X216500412Y-143431027D01*
X216515480Y-143424787D01*
X216571639Y-143409740D01*
X216600049Y-143402128D01*
X216616224Y-143399999D01*
X216703772Y-143399999D01*
X216719947Y-143402128D01*
G37*
%TD.AperFunction*%
%TA.AperFunction,Conductor*%
G36*
X218319948Y-143327127D02*
G01*
X218404512Y-143349785D01*
X218419584Y-143356028D01*
X218498360Y-143401509D01*
X218508318Y-143408645D01*
X218519933Y-143418832D01*
X218519936Y-143418834D01*
X218519937Y-143418835D01*
X218532889Y-143428774D01*
X218536068Y-143431029D01*
X218545419Y-143437664D01*
X218582096Y-143451272D01*
X218605512Y-143459960D01*
X218640578Y-143492496D01*
X218645737Y-143526713D01*
X218641652Y-143557744D01*
X218641652Y-143557752D01*
X218646895Y-143637749D01*
X218646896Y-143637755D01*
X218650307Y-143650483D01*
X218652870Y-143660048D01*
X218655000Y-143676223D01*
X218655000Y-143763773D01*
X218652870Y-143779949D01*
X218630211Y-143864512D01*
X218623968Y-143879586D01*
X218580190Y-143955412D01*
X218570257Y-143968356D01*
X218508357Y-144030256D01*
X218495413Y-144040189D01*
X218419587Y-144083967D01*
X218404514Y-144090210D01*
X218362233Y-144101539D01*
X218319950Y-144112869D01*
X218303775Y-144114999D01*
X218216226Y-144114999D01*
X218200050Y-144112869D01*
X218115485Y-144090210D01*
X218100411Y-144083967D01*
X218024585Y-144040189D01*
X218011641Y-144030256D01*
X217949741Y-143968356D01*
X217939808Y-143955412D01*
X217896030Y-143879586D01*
X217889790Y-143864522D01*
X217867128Y-143779945D01*
X217865000Y-143763776D01*
X217865000Y-143676219D01*
X217867128Y-143660050D01*
X217889789Y-143575475D01*
X217896025Y-143560419D01*
X217939814Y-143484577D01*
X217949739Y-143471643D01*
X218011646Y-143409736D01*
X218024581Y-143399810D01*
X218100414Y-143356027D01*
X218115482Y-143349787D01*
X218170995Y-143334913D01*
X218200051Y-143327128D01*
X218216226Y-143324999D01*
X218303774Y-143324999D01*
X218319948Y-143327127D01*
G37*
%TD.AperFunction*%
%TA.AperFunction,Conductor*%
G36*
X230055026Y-127946274D02*
G01*
X230073500Y-127990398D01*
X230073500Y-157437500D01*
X230055194Y-157481694D01*
X230011000Y-157500000D01*
X188778000Y-157500000D01*
X188733806Y-157481694D01*
X188715500Y-157437500D01*
X188715500Y-143724986D01*
X206240001Y-143724986D01*
X206250492Y-143827686D01*
X206250493Y-143827693D01*
X206305641Y-143994120D01*
X206397682Y-144143342D01*
X206521656Y-144267316D01*
X206670878Y-144359357D01*
X206670877Y-144359357D01*
X206740000Y-144382260D01*
X206740000Y-143699999D01*
X206240001Y-143699999D01*
X206240001Y-143724986D01*
X188715500Y-143724986D01*
X188715500Y-142475012D01*
X206240000Y-142475012D01*
X206240000Y-142499999D01*
X207277500Y-142499999D01*
X207321694Y-142518305D01*
X207340000Y-142562499D01*
X207340000Y-142674999D01*
X207284048Y-142674999D01*
X207175956Y-142703962D01*
X207079044Y-142759915D01*
X206999916Y-142839043D01*
X206943963Y-142935955D01*
X206915000Y-143044047D01*
X206915000Y-143155951D01*
X206943963Y-143264043D01*
X206999916Y-143360955D01*
X207079044Y-143440083D01*
X207175956Y-143496036D01*
X207284048Y-143524999D01*
X207395952Y-143524999D01*
X207504044Y-143496036D01*
X207600956Y-143440083D01*
X207680084Y-143360955D01*
X207736037Y-143264043D01*
X207765000Y-143155951D01*
X207765000Y-143099999D01*
X207877500Y-143099999D01*
X207921694Y-143118305D01*
X207940000Y-143162499D01*
X207940000Y-144382261D01*
X207954249Y-144392550D01*
X207964810Y-144393319D01*
X207996092Y-144429508D01*
X207999266Y-144449426D01*
X207992821Y-146050117D01*
X207992709Y-146077992D01*
X207992709Y-146077993D01*
X207981546Y-148850453D01*
X207980974Y-148992028D01*
X207981181Y-149002120D01*
X207981457Y-149008250D01*
X207982164Y-149018395D01*
X207995460Y-149158836D01*
X207995462Y-149158847D01*
X207996328Y-149167992D01*
X207999821Y-149204879D01*
X207999823Y-149204893D01*
X208002711Y-149224864D01*
X208002717Y-149224898D01*
X208005063Y-149236909D01*
X208005071Y-149236947D01*
X208009911Y-149256547D01*
X208062804Y-149432989D01*
X208069549Y-149452029D01*
X208074229Y-149463425D01*
X208082800Y-149481683D01*
X208082812Y-149481708D01*
X208169192Y-149644397D01*
X208179541Y-149661768D01*
X208186336Y-149671993D01*
X208186345Y-149672006D01*
X208186348Y-149672010D01*
X208188180Y-149674492D01*
X208198341Y-149688260D01*
X208314870Y-149830909D01*
X208328416Y-149845919D01*
X208337084Y-149854622D01*
X208337091Y-149854629D01*
X208337093Y-149854631D01*
X208352019Y-149868210D01*
X208352040Y-149868229D01*
X208446754Y-149946238D01*
X208494207Y-149985322D01*
X208494209Y-149985323D01*
X208494216Y-149985329D01*
X208510432Y-149997397D01*
X208510439Y-149997402D01*
X208520641Y-150004241D01*
X208520644Y-150004243D01*
X208522306Y-150005242D01*
X208537966Y-150014658D01*
X208700301Y-150101691D01*
X208718572Y-150110357D01*
X208719706Y-150110828D01*
X208729881Y-150115055D01*
X208729895Y-150115060D01*
X208729916Y-150115069D01*
X208743251Y-150119853D01*
X208748931Y-150121892D01*
X208748936Y-150121893D01*
X208748943Y-150121896D01*
X208867316Y-150157901D01*
X208925142Y-150175491D01*
X208925147Y-150175492D01*
X208925159Y-150175496D01*
X208925172Y-150175499D01*
X208925182Y-150175502D01*
X208944755Y-150180418D01*
X208944772Y-150180422D01*
X208956803Y-150182822D01*
X208963008Y-150183744D01*
X208976813Y-150185798D01*
X209163201Y-150204203D01*
X209173303Y-150204950D01*
X209179445Y-150205252D01*
X209187208Y-150205442D01*
X209189534Y-150205500D01*
X209189537Y-150205500D01*
X223528184Y-150205500D01*
X223529622Y-150205464D01*
X223538267Y-150205252D01*
X223544393Y-150204951D01*
X223554451Y-150204209D01*
X223740357Y-150185898D01*
X223760300Y-150182940D01*
X223772317Y-150180550D01*
X223791884Y-150175650D01*
X223967699Y-150122318D01*
X223986695Y-150115520D01*
X223998014Y-150110831D01*
X224016237Y-150102212D01*
X224178263Y-150015607D01*
X224195556Y-150005242D01*
X224205744Y-149998435D01*
X224221947Y-149986418D01*
X224363968Y-149869864D01*
X224378910Y-149856321D01*
X224387573Y-149847658D01*
X224401116Y-149832716D01*
X224517670Y-149690695D01*
X224529687Y-149674492D01*
X224536494Y-149664304D01*
X224546859Y-149647011D01*
X224633464Y-149484985D01*
X224642083Y-149466762D01*
X224646772Y-149455443D01*
X224653570Y-149436447D01*
X224706902Y-149260632D01*
X224711802Y-149241065D01*
X224714192Y-149229048D01*
X224717150Y-149209105D01*
X224735461Y-149023199D01*
X224736203Y-149013141D01*
X224736504Y-149007015D01*
X224736752Y-148996930D01*
X224736752Y-143451275D01*
X224736503Y-143441156D01*
X224736200Y-143435010D01*
X224735453Y-143424922D01*
X224735439Y-143424785D01*
X224725790Y-143327128D01*
X224717026Y-143238431D01*
X224714049Y-143218426D01*
X224711644Y-143206373D01*
X224706712Y-143186746D01*
X224653043Y-143010423D01*
X224646207Y-142991383D01*
X224641489Y-142980033D01*
X224641484Y-142980024D01*
X224641481Y-142980015D01*
X224641473Y-142979999D01*
X224632827Y-142961785D01*
X224632809Y-142961749D01*
X224618970Y-142935955D01*
X224545676Y-142799347D01*
X224535244Y-142782011D01*
X224532932Y-142778565D01*
X224528400Y-142771809D01*
X224528394Y-142771801D01*
X224516319Y-142755587D01*
X224408389Y-142624662D01*
X224394403Y-142578917D01*
X224416859Y-142536680D01*
X224462604Y-142522694D01*
X224468791Y-142523604D01*
X224599419Y-142549588D01*
X224599420Y-142549588D01*
X224776801Y-142549588D01*
X224950776Y-142514982D01*
X225114657Y-142447101D01*
X225262145Y-142348552D01*
X225387574Y-142223123D01*
X225486123Y-142075635D01*
X225554004Y-141911754D01*
X225588610Y-141737779D01*
X225588610Y-141560397D01*
X225554004Y-141386422D01*
X225486123Y-141222541D01*
X225478075Y-141210497D01*
X225387574Y-141075053D01*
X225262144Y-140949623D01*
X225114658Y-140851075D01*
X224950774Y-140783193D01*
X224776801Y-140748588D01*
X224599419Y-140748588D01*
X224425445Y-140783193D01*
X224261561Y-140851075D01*
X224114075Y-140949623D01*
X223988645Y-141075053D01*
X223890097Y-141222539D01*
X223822215Y-141386423D01*
X223787610Y-141560396D01*
X223787610Y-141737779D01*
X223822215Y-141911752D01*
X223822216Y-141911754D01*
X223890097Y-142075635D01*
X223902860Y-142094736D01*
X223982934Y-142214575D01*
X223992266Y-142261491D01*
X223965690Y-142301265D01*
X223918774Y-142310597D01*
X223913069Y-142309180D01*
X223786798Y-142271438D01*
X223772810Y-142267998D01*
X223767144Y-142266604D01*
X223755093Y-142264262D01*
X223743247Y-142262560D01*
X223735079Y-142261386D01*
X223735072Y-142261385D01*
X223735070Y-142261385D01*
X223718108Y-142259794D01*
X223548466Y-142243891D01*
X223538374Y-142243196D01*
X223532236Y-142242924D01*
X223522121Y-142242726D01*
X219740170Y-142261720D01*
X219727219Y-142262193D01*
X219719493Y-142262719D01*
X219719494Y-142262720D01*
X219719446Y-142262723D01*
X219719379Y-142262728D01*
X219717984Y-142262828D01*
X219717975Y-142262830D01*
X219630594Y-142289794D01*
X219589167Y-142313719D01*
X219589164Y-142313721D01*
X219536159Y-142357647D01*
X219536157Y-142357649D01*
X219497162Y-142431453D01*
X219460331Y-142461976D01*
X219425728Y-142462626D01*
X219414059Y-142459499D01*
X219414055Y-142459499D01*
X219255941Y-142459499D01*
X219255940Y-142459499D01*
X219255934Y-142459500D01*
X219238427Y-142464190D01*
X219191001Y-142457944D01*
X219164632Y-142428025D01*
X219156986Y-142409824D01*
X219156979Y-142409811D01*
X219120059Y-142351703D01*
X219120058Y-142351702D01*
X219045210Y-142299158D01*
X219045204Y-142299155D01*
X219000923Y-142281074D01*
X218922202Y-142265827D01*
X212253018Y-142299320D01*
X212253007Y-142299320D01*
X212224933Y-142302192D01*
X212213437Y-142303368D01*
X212213434Y-142303368D01*
X212213430Y-142303369D01*
X212189836Y-142308124D01*
X212170640Y-142313391D01*
X212162559Y-142315608D01*
X212162558Y-142315608D01*
X212162556Y-142315609D01*
X212162555Y-142315609D01*
X212085122Y-142364267D01*
X212073199Y-142376192D01*
X212029005Y-142394499D01*
X212015100Y-142394499D01*
X211970906Y-142376193D01*
X211963132Y-142366720D01*
X211961790Y-142364711D01*
X211850288Y-142253209D01*
X211719180Y-142165605D01*
X211719177Y-142165604D01*
X211700196Y-142157742D01*
X211666371Y-142123917D01*
X211666370Y-142076082D01*
X211700195Y-142042257D01*
X211700197Y-142042256D01*
X211719175Y-142034395D01*
X211719174Y-142034395D01*
X211719180Y-142034393D01*
X211850290Y-141946788D01*
X211961790Y-141835288D01*
X212049395Y-141704178D01*
X212109738Y-141558496D01*
X212140501Y-141403841D01*
X212140501Y-140796157D01*
X212109738Y-140641502D01*
X212109737Y-140641501D01*
X212109737Y-140641498D01*
X212072154Y-140550764D01*
X212072153Y-140550763D01*
X212063943Y-140530943D01*
X218499500Y-140530943D01*
X218499500Y-140689054D01*
X218499501Y-140689062D01*
X218540421Y-140841779D01*
X218540422Y-140841782D01*
X218563909Y-140882463D01*
X218619480Y-140978715D01*
X218731284Y-141090519D01*
X218868216Y-141169576D01*
X218868219Y-141169577D01*
X218961681Y-141194620D01*
X219020943Y-141210499D01*
X219020944Y-141210499D01*
X219179056Y-141210499D01*
X219179057Y-141210499D01*
X219331784Y-141169576D01*
X219468716Y-141090519D01*
X219580520Y-140978715D01*
X219659577Y-140841783D01*
X219700500Y-140689056D01*
X219700500Y-140530942D01*
X219659577Y-140378215D01*
X219580520Y-140241283D01*
X219468716Y-140129479D01*
X219372464Y-140073908D01*
X219331783Y-140050421D01*
X219331780Y-140050420D01*
X219179063Y-140009500D01*
X219179058Y-140009499D01*
X219179057Y-140009499D01*
X219020943Y-140009499D01*
X219020942Y-140009499D01*
X219020936Y-140009500D01*
X218868219Y-140050420D01*
X218868216Y-140050421D01*
X218773233Y-140105260D01*
X218731284Y-140129479D01*
X218731283Y-140129480D01*
X218731279Y-140129483D01*
X218619484Y-140241278D01*
X218619481Y-140241282D01*
X218540422Y-140378215D01*
X218540421Y-140378218D01*
X218499501Y-140530935D01*
X218499500Y-140530943D01*
X212063943Y-140530943D01*
X212049395Y-140495821D01*
X212049394Y-140495818D01*
X211961790Y-140364710D01*
X211850289Y-140253209D01*
X211719181Y-140165605D01*
X211573496Y-140105261D01*
X211418843Y-140074499D01*
X211261159Y-140074499D01*
X211106505Y-140105261D01*
X210960820Y-140165605D01*
X210829712Y-140253209D01*
X210718211Y-140364710D01*
X210630607Y-140495818D01*
X210570263Y-140641503D01*
X210539501Y-140796156D01*
X210539501Y-141403841D01*
X210570263Y-141558494D01*
X210630607Y-141704179D01*
X210718211Y-141835287D01*
X210829712Y-141946788D01*
X210960820Y-142034392D01*
X210960825Y-142034395D01*
X210977065Y-142041121D01*
X210979800Y-142042254D01*
X210979803Y-142042255D01*
X211013629Y-142076079D01*
X211013630Y-142123914D01*
X210979807Y-142157740D01*
X210960821Y-142165604D01*
X210960819Y-142165605D01*
X210829711Y-142253209D01*
X210718209Y-142364711D01*
X210716868Y-142366720D01*
X210711544Y-142370277D01*
X210709094Y-142376193D01*
X210692252Y-142383168D01*
X210677095Y-142393298D01*
X210664900Y-142394499D01*
X210638230Y-142394499D01*
X210602321Y-142383153D01*
X210543489Y-142341854D01*
X210543485Y-142341852D01*
X210499199Y-142323769D01*
X210445614Y-142313391D01*
X210420486Y-142308524D01*
X210420484Y-142308524D01*
X210420479Y-142308523D01*
X210257169Y-142309343D01*
X210257140Y-142309344D01*
X210217593Y-142313391D01*
X210217589Y-142313391D01*
X210217587Y-142313392D01*
X210215965Y-142313719D01*
X210193991Y-142318147D01*
X210193969Y-142318153D01*
X210166711Y-142325630D01*
X210089275Y-142374290D01*
X210089274Y-142374291D01*
X210087373Y-142376193D01*
X210043179Y-142394499D01*
X210015101Y-142394499D01*
X209970907Y-142376193D01*
X209963133Y-142366720D01*
X209961791Y-142364711D01*
X209850289Y-142253209D01*
X209719181Y-142165605D01*
X209719176Y-142165603D01*
X209700194Y-142157740D01*
X209666370Y-142123915D01*
X209666371Y-142076079D01*
X209700194Y-142042256D01*
X209719179Y-142034393D01*
X209850289Y-141946788D01*
X209961789Y-141835288D01*
X210049394Y-141704178D01*
X210109737Y-141558496D01*
X210140500Y-141403841D01*
X210140500Y-140796157D01*
X210109737Y-140641502D01*
X210049394Y-140495820D01*
X209961789Y-140364710D01*
X209850289Y-140253210D01*
X209850288Y-140253209D01*
X209719180Y-140165605D01*
X209573495Y-140105261D01*
X209418842Y-140074499D01*
X209261158Y-140074499D01*
X209106504Y-140105261D01*
X208960819Y-140165605D01*
X208829711Y-140253209D01*
X208718210Y-140364710D01*
X208630606Y-140495818D01*
X208570262Y-140641503D01*
X208539500Y-140796156D01*
X208539500Y-141403841D01*
X208570262Y-141558494D01*
X208630606Y-141704179D01*
X208718210Y-141835287D01*
X208829711Y-141946788D01*
X208960819Y-142034392D01*
X208960820Y-142034392D01*
X208960821Y-142034393D01*
X208977984Y-142041502D01*
X208979804Y-142042256D01*
X209013629Y-142076081D01*
X209013630Y-142123916D01*
X208979805Y-142157741D01*
X208960828Y-142165601D01*
X208960820Y-142165605D01*
X208829712Y-142253209D01*
X208718213Y-142364708D01*
X208718209Y-142364713D01*
X208668731Y-142438761D01*
X208646349Y-142459092D01*
X208554325Y-142508541D01*
X208536941Y-142520197D01*
X208490040Y-142529603D01*
X208450224Y-142503090D01*
X208439960Y-142474636D01*
X208429507Y-142372311D01*
X208429506Y-142372304D01*
X208374358Y-142205877D01*
X208282317Y-142056655D01*
X208158343Y-141932681D01*
X208028235Y-141852430D01*
X208000231Y-141813649D01*
X208007851Y-141766424D01*
X208009079Y-141764512D01*
X208026942Y-141737779D01*
X208049394Y-141704177D01*
X208109737Y-141558495D01*
X208140500Y-141403840D01*
X208140500Y-140796156D01*
X208109737Y-140641501D01*
X208049394Y-140495819D01*
X207961789Y-140364709D01*
X207850289Y-140253209D01*
X207850288Y-140253208D01*
X207719180Y-140165604D01*
X207573495Y-140105260D01*
X207418842Y-140074498D01*
X207261158Y-140074498D01*
X207106504Y-140105260D01*
X206960819Y-140165604D01*
X206829711Y-140253208D01*
X206718210Y-140364709D01*
X206630606Y-140495817D01*
X206570262Y-140641502D01*
X206539500Y-140796155D01*
X206539500Y-141403840D01*
X206570262Y-141558493D01*
X206570263Y-141558495D01*
X206630606Y-141704177D01*
X206644907Y-141725580D01*
X206670920Y-141764512D01*
X206680252Y-141811428D01*
X206653676Y-141851202D01*
X206651764Y-141852430D01*
X206521656Y-141932681D01*
X206397682Y-142056655D01*
X206305641Y-142205877D01*
X206250492Y-142372307D01*
X206240000Y-142475012D01*
X188715500Y-142475012D01*
X188715500Y-139160943D01*
X207169500Y-139160943D01*
X207169500Y-139319054D01*
X207169501Y-139319062D01*
X207210421Y-139471779D01*
X207210422Y-139471782D01*
X207210423Y-139471783D01*
X207289480Y-139608715D01*
X207401284Y-139720519D01*
X207538216Y-139799576D01*
X207538219Y-139799577D01*
X207631681Y-139824620D01*
X207690943Y-139840499D01*
X207690944Y-139840499D01*
X207849056Y-139840499D01*
X207849057Y-139840499D01*
X208001784Y-139799576D01*
X208138716Y-139720519D01*
X208250520Y-139608715D01*
X208329577Y-139471783D01*
X208370500Y-139319056D01*
X208370500Y-139160942D01*
X208329577Y-139008215D01*
X208250520Y-138871283D01*
X208138716Y-138759479D01*
X208042464Y-138703908D01*
X208001783Y-138680421D01*
X208001780Y-138680420D01*
X207849063Y-138639500D01*
X207849058Y-138639499D01*
X207849057Y-138639499D01*
X207690943Y-138639499D01*
X207690942Y-138639499D01*
X207690936Y-138639500D01*
X207538219Y-138680420D01*
X207538216Y-138680421D01*
X207441964Y-138735992D01*
X207401284Y-138759479D01*
X207401283Y-138759480D01*
X207401279Y-138759483D01*
X207289484Y-138871278D01*
X207289481Y-138871282D01*
X207289480Y-138871283D01*
X207284989Y-138879062D01*
X207210422Y-139008215D01*
X207210421Y-139008218D01*
X207169501Y-139160935D01*
X207169500Y-139160943D01*
X188715500Y-139160943D01*
X188715500Y-138290943D01*
X203719500Y-138290943D01*
X203719500Y-138449054D01*
X203719501Y-138449062D01*
X203760421Y-138601779D01*
X203760422Y-138601782D01*
X203760423Y-138601783D01*
X203839480Y-138738715D01*
X203951284Y-138850519D01*
X204088216Y-138929576D01*
X204088219Y-138929577D01*
X204181681Y-138954620D01*
X204240943Y-138970499D01*
X204240944Y-138970499D01*
X204399056Y-138970499D01*
X204399057Y-138970499D01*
X204551784Y-138929576D01*
X204688716Y-138850519D01*
X204800520Y-138738715D01*
X204879577Y-138601783D01*
X204920500Y-138449056D01*
X204920500Y-138290942D01*
X204906963Y-138240420D01*
X204885626Y-138160788D01*
X204882389Y-138148709D01*
X210566236Y-138148709D01*
X210566236Y-138306820D01*
X210566237Y-138306828D01*
X210607157Y-138459545D01*
X210607158Y-138459548D01*
X210607159Y-138459549D01*
X210686216Y-138596481D01*
X210798020Y-138708285D01*
X210934952Y-138787342D01*
X210934955Y-138787343D01*
X211028417Y-138812386D01*
X211087679Y-138828265D01*
X211087680Y-138828265D01*
X211245792Y-138828265D01*
X211245793Y-138828265D01*
X211398520Y-138787342D01*
X211513527Y-138720943D01*
X215329500Y-138720943D01*
X215329500Y-138879054D01*
X215329501Y-138879062D01*
X215370421Y-139031779D01*
X215370422Y-139031782D01*
X215370423Y-139031783D01*
X215449480Y-139168715D01*
X215561284Y-139280519D01*
X215698216Y-139359576D01*
X215698219Y-139359577D01*
X215791681Y-139384620D01*
X215850943Y-139400499D01*
X215850944Y-139400499D01*
X216009056Y-139400499D01*
X216009057Y-139400499D01*
X216161784Y-139359576D01*
X216298716Y-139280519D01*
X216410520Y-139168715D01*
X216489577Y-139031783D01*
X216530500Y-138879056D01*
X216530500Y-138720942D01*
X216508678Y-138639500D01*
X216489578Y-138568218D01*
X216489577Y-138568215D01*
X216410520Y-138431283D01*
X216298716Y-138319479D01*
X216202464Y-138263908D01*
X216161783Y-138240421D01*
X216161780Y-138240420D01*
X216009063Y-138199500D01*
X216009058Y-138199499D01*
X216009057Y-138199499D01*
X215850943Y-138199499D01*
X215850942Y-138199499D01*
X215850936Y-138199500D01*
X215698219Y-138240420D01*
X215698216Y-138240421D01*
X215610724Y-138290935D01*
X215561284Y-138319479D01*
X215561283Y-138319480D01*
X215561279Y-138319483D01*
X215449484Y-138431278D01*
X215449481Y-138431282D01*
X215449480Y-138431283D01*
X215433163Y-138459545D01*
X215370422Y-138568215D01*
X215370421Y-138568218D01*
X215329501Y-138720935D01*
X215329500Y-138720943D01*
X211513527Y-138720943D01*
X211535452Y-138708285D01*
X211647256Y-138596481D01*
X211726313Y-138459549D01*
X211767236Y-138306822D01*
X211767236Y-138148708D01*
X211727734Y-138001283D01*
X211726314Y-137995984D01*
X211726313Y-137995981D01*
X211647256Y-137859049D01*
X211535452Y-137747245D01*
X211439200Y-137691674D01*
X211398519Y-137668187D01*
X211398516Y-137668186D01*
X211245799Y-137627266D01*
X211245794Y-137627265D01*
X211245793Y-137627265D01*
X211087679Y-137627265D01*
X211087678Y-137627265D01*
X211087672Y-137627266D01*
X210934955Y-137668186D01*
X210934952Y-137668187D01*
X210838700Y-137723758D01*
X210798020Y-137747245D01*
X210798019Y-137747246D01*
X210798015Y-137747249D01*
X210686220Y-137859044D01*
X210686217Y-137859048D01*
X210607158Y-137995981D01*
X210607157Y-137995984D01*
X210566237Y-138148701D01*
X210566236Y-138148709D01*
X204882389Y-138148709D01*
X204882387Y-138148701D01*
X204879577Y-138138215D01*
X204800520Y-138001283D01*
X204688716Y-137889479D01*
X204592464Y-137833908D01*
X204551783Y-137810421D01*
X204551780Y-137810420D01*
X204399063Y-137769500D01*
X204399058Y-137769499D01*
X204399057Y-137769499D01*
X204240943Y-137769499D01*
X204240942Y-137769499D01*
X204240936Y-137769500D01*
X204088219Y-137810420D01*
X204088216Y-137810421D01*
X204003991Y-137859049D01*
X203951284Y-137889479D01*
X203951283Y-137889480D01*
X203951279Y-137889483D01*
X203839484Y-138001278D01*
X203839481Y-138001282D01*
X203760422Y-138138215D01*
X203760421Y-138138218D01*
X203719501Y-138290935D01*
X203719500Y-138290943D01*
X188715500Y-138290943D01*
X188715500Y-136780943D01*
X202659500Y-136780943D01*
X202659500Y-136939054D01*
X202659501Y-136939062D01*
X202700421Y-137091779D01*
X202700422Y-137091782D01*
X202700423Y-137091783D01*
X202779480Y-137228715D01*
X202891284Y-137340519D01*
X203028216Y-137419576D01*
X203028219Y-137419577D01*
X203085712Y-137434982D01*
X203180943Y-137460499D01*
X203180944Y-137460499D01*
X203339056Y-137460499D01*
X203339057Y-137460499D01*
X203491784Y-137419576D01*
X203628716Y-137340519D01*
X203740520Y-137228715D01*
X203819577Y-137091783D01*
X203860500Y-136939056D01*
X203860500Y-136780942D01*
X203819577Y-136628215D01*
X203740520Y-136491283D01*
X203628716Y-136379479D01*
X203532464Y-136323908D01*
X203491783Y-136300421D01*
X203491780Y-136300420D01*
X203339063Y-136259500D01*
X203339058Y-136259499D01*
X203339057Y-136259499D01*
X203180943Y-136259499D01*
X203180942Y-136259499D01*
X203180936Y-136259500D01*
X203028219Y-136300420D01*
X203028216Y-136300421D01*
X202961883Y-136338719D01*
X202891284Y-136379479D01*
X202891283Y-136379480D01*
X202891279Y-136379483D01*
X202779484Y-136491278D01*
X202779481Y-136491282D01*
X202779480Y-136491283D01*
X202757372Y-136529576D01*
X202700422Y-136628215D01*
X202700421Y-136628218D01*
X202659501Y-136780935D01*
X202659500Y-136780943D01*
X188715500Y-136780943D01*
X188715500Y-135890943D01*
X205329500Y-135890943D01*
X205329500Y-136049054D01*
X205329501Y-136049062D01*
X205370421Y-136201779D01*
X205370422Y-136201782D01*
X205370423Y-136201783D01*
X205449480Y-136338715D01*
X205561284Y-136450519D01*
X205698216Y-136529576D01*
X205698219Y-136529577D01*
X205791681Y-136554620D01*
X205850943Y-136570499D01*
X205850944Y-136570499D01*
X206009056Y-136570499D01*
X206009057Y-136570499D01*
X206161784Y-136529576D01*
X206298716Y-136450519D01*
X206410520Y-136338715D01*
X206489577Y-136201783D01*
X206489802Y-136200943D01*
X218889500Y-136200943D01*
X218889500Y-136359054D01*
X218889501Y-136359062D01*
X218930421Y-136511779D01*
X218930422Y-136511782D01*
X218940696Y-136529577D01*
X219009480Y-136648715D01*
X219121284Y-136760519D01*
X219244668Y-136831754D01*
X219258216Y-136839576D01*
X219258219Y-136839577D01*
X219351681Y-136864620D01*
X219410943Y-136880499D01*
X219410944Y-136880499D01*
X219569056Y-136880499D01*
X219569057Y-136880499D01*
X219721784Y-136839576D01*
X219858716Y-136760519D01*
X219970520Y-136648715D01*
X220049577Y-136511783D01*
X220057987Y-136480396D01*
X223787610Y-136480396D01*
X223787610Y-136657779D01*
X223822215Y-136831752D01*
X223890097Y-136995636D01*
X223988645Y-137143122D01*
X224114075Y-137268552D01*
X224261561Y-137367100D01*
X224261562Y-137367100D01*
X224261563Y-137367101D01*
X224425444Y-137434982D01*
X224599419Y-137469588D01*
X224776801Y-137469588D01*
X224950776Y-137434982D01*
X225114657Y-137367101D01*
X225262145Y-137268552D01*
X225387574Y-137143123D01*
X225486123Y-136995635D01*
X225554004Y-136831754D01*
X225588610Y-136657779D01*
X225588610Y-136480397D01*
X225554004Y-136306422D01*
X225486123Y-136142541D01*
X225482070Y-136136476D01*
X225387574Y-135995053D01*
X225262144Y-135869623D01*
X225114658Y-135771075D01*
X224950774Y-135703193D01*
X224776801Y-135668588D01*
X224599419Y-135668588D01*
X224425445Y-135703193D01*
X224261561Y-135771075D01*
X224114075Y-135869623D01*
X223988645Y-135995053D01*
X223890097Y-136142539D01*
X223822215Y-136306423D01*
X223787610Y-136480396D01*
X220057987Y-136480396D01*
X220090500Y-136359056D01*
X220090500Y-136200942D01*
X220049804Y-136049062D01*
X220049578Y-136048218D01*
X220049577Y-136048215D01*
X220018884Y-135995053D01*
X219970520Y-135911283D01*
X219858716Y-135799479D01*
X219752603Y-135738215D01*
X219721783Y-135720421D01*
X219721780Y-135720420D01*
X219569063Y-135679500D01*
X219569058Y-135679499D01*
X219569057Y-135679499D01*
X219410943Y-135679499D01*
X219410942Y-135679499D01*
X219410936Y-135679500D01*
X219258219Y-135720420D01*
X219258216Y-135720421D01*
X219161964Y-135775992D01*
X219121284Y-135799479D01*
X219121283Y-135799480D01*
X219121279Y-135799483D01*
X219009484Y-135911278D01*
X219009481Y-135911282D01*
X219009480Y-135911283D01*
X218985993Y-135951963D01*
X218930422Y-136048215D01*
X218930421Y-136048218D01*
X218889501Y-136200935D01*
X218889500Y-136200943D01*
X206489802Y-136200943D01*
X206530500Y-136049056D01*
X206530500Y-135890942D01*
X206505993Y-135799479D01*
X206489578Y-135738218D01*
X206489577Y-135738215D01*
X206479303Y-135720420D01*
X206410520Y-135601283D01*
X206298716Y-135489479D01*
X206283931Y-135480943D01*
X212559500Y-135480943D01*
X212559500Y-135639054D01*
X212559501Y-135639062D01*
X212600421Y-135791779D01*
X212600422Y-135791782D01*
X212623909Y-135832463D01*
X212679480Y-135928715D01*
X212791284Y-136040519D01*
X212928216Y-136119576D01*
X212928219Y-136119577D01*
X212991288Y-136136476D01*
X213080943Y-136160499D01*
X213080944Y-136160499D01*
X213239056Y-136160499D01*
X213239057Y-136160499D01*
X213279570Y-136149643D01*
X213328714Y-136136476D01*
X213391780Y-136119577D01*
X213391778Y-136119577D01*
X213391784Y-136119576D01*
X213528716Y-136040519D01*
X213640520Y-135928715D01*
X213719577Y-135791783D01*
X213760500Y-135639056D01*
X213760500Y-135480942D01*
X213719577Y-135328215D01*
X213640520Y-135191283D01*
X213528716Y-135079479D01*
X213432464Y-135023908D01*
X213391783Y-135000421D01*
X213391780Y-135000420D01*
X213239063Y-134959500D01*
X213239058Y-134959499D01*
X213239057Y-134959499D01*
X213080943Y-134959499D01*
X213080942Y-134959499D01*
X213080936Y-134959500D01*
X212928219Y-135000420D01*
X212928216Y-135000421D01*
X212831964Y-135055992D01*
X212791284Y-135079479D01*
X212791283Y-135079480D01*
X212791279Y-135079483D01*
X212679484Y-135191278D01*
X212679481Y-135191282D01*
X212600422Y-135328215D01*
X212600421Y-135328218D01*
X212559501Y-135480935D01*
X212559500Y-135480943D01*
X206283931Y-135480943D01*
X206202464Y-135433908D01*
X206161783Y-135410421D01*
X206161780Y-135410420D01*
X206009063Y-135369500D01*
X206009058Y-135369499D01*
X206009057Y-135369499D01*
X205850943Y-135369499D01*
X205850942Y-135369499D01*
X205850936Y-135369500D01*
X205698219Y-135410420D01*
X205698216Y-135410421D01*
X205601964Y-135465992D01*
X205561284Y-135489479D01*
X205561283Y-135489480D01*
X205561279Y-135489483D01*
X205449484Y-135601278D01*
X205449481Y-135601282D01*
X205449480Y-135601283D01*
X205425993Y-135641963D01*
X205370422Y-135738215D01*
X205370421Y-135738218D01*
X205329501Y-135890935D01*
X205329500Y-135890943D01*
X188715500Y-135890943D01*
X188715500Y-134550943D01*
X216519500Y-134550943D01*
X216519500Y-134709054D01*
X216519501Y-134709062D01*
X216560421Y-134861779D01*
X216560422Y-134861782D01*
X216560423Y-134861783D01*
X216639480Y-134998715D01*
X216751284Y-135110519D01*
X216888216Y-135189576D01*
X216888219Y-135189577D01*
X216981681Y-135214620D01*
X217040943Y-135230499D01*
X217040944Y-135230499D01*
X217199056Y-135230499D01*
X217199057Y-135230499D01*
X217351784Y-135189576D01*
X217488716Y-135110519D01*
X217600520Y-134998715D01*
X217679577Y-134861783D01*
X217720500Y-134709056D01*
X217720500Y-134550942D01*
X217679577Y-134398215D01*
X217600520Y-134261283D01*
X217488716Y-134149479D01*
X217392464Y-134093908D01*
X217351783Y-134070421D01*
X217351780Y-134070420D01*
X217199063Y-134029500D01*
X217199058Y-134029499D01*
X217199057Y-134029499D01*
X217040943Y-134029499D01*
X217040942Y-134029499D01*
X217040936Y-134029500D01*
X216888219Y-134070420D01*
X216888216Y-134070421D01*
X216791964Y-134125992D01*
X216751284Y-134149479D01*
X216751283Y-134149480D01*
X216751279Y-134149483D01*
X216639484Y-134261278D01*
X216639481Y-134261282D01*
X216560422Y-134398215D01*
X216560421Y-134398218D01*
X216519501Y-134550935D01*
X216519500Y-134550943D01*
X188715500Y-134550943D01*
X188715500Y-132710943D01*
X206969500Y-132710943D01*
X206969500Y-132869054D01*
X206969501Y-132869062D01*
X207010421Y-133021779D01*
X207010422Y-133021782D01*
X207013109Y-133026436D01*
X207089480Y-133158715D01*
X207201284Y-133270519D01*
X207338216Y-133349576D01*
X207338219Y-133349577D01*
X207431681Y-133374620D01*
X207490943Y-133390499D01*
X207490944Y-133390499D01*
X207649056Y-133390499D01*
X207649057Y-133390499D01*
X207801784Y-133349576D01*
X207859774Y-133316096D01*
X211524653Y-133316096D01*
X211524653Y-133474207D01*
X211524654Y-133474215D01*
X211565574Y-133626932D01*
X211565575Y-133626935D01*
X211565576Y-133626936D01*
X211644633Y-133763868D01*
X211756437Y-133875672D01*
X211893369Y-133954729D01*
X211893372Y-133954730D01*
X211986834Y-133979773D01*
X212046096Y-133995652D01*
X212046097Y-133995652D01*
X212204209Y-133995652D01*
X212204210Y-133995652D01*
X212356937Y-133954729D01*
X212493869Y-133875672D01*
X212605673Y-133763868D01*
X212684730Y-133626936D01*
X212725653Y-133474209D01*
X212725653Y-133316095D01*
X212684730Y-133163368D01*
X212605673Y-133026436D01*
X212493869Y-132914632D01*
X212397617Y-132859061D01*
X212356936Y-132835574D01*
X212356933Y-132835573D01*
X212204216Y-132794653D01*
X212204211Y-132794652D01*
X212204210Y-132794652D01*
X212046096Y-132794652D01*
X212046095Y-132794652D01*
X212046089Y-132794653D01*
X211893372Y-132835573D01*
X211893369Y-132835574D01*
X211835367Y-132869062D01*
X211756437Y-132914632D01*
X211756436Y-132914633D01*
X211756432Y-132914636D01*
X211644637Y-133026431D01*
X211644634Y-133026435D01*
X211565575Y-133163368D01*
X211565574Y-133163371D01*
X211524654Y-133316088D01*
X211524653Y-133316096D01*
X207859774Y-133316096D01*
X207938716Y-133270519D01*
X208050520Y-133158715D01*
X208129577Y-133021783D01*
X208170500Y-132869056D01*
X208170500Y-132710942D01*
X208129577Y-132558215D01*
X208050520Y-132421283D01*
X207938716Y-132309479D01*
X207842464Y-132253908D01*
X207801783Y-132230421D01*
X207801780Y-132230420D01*
X207649063Y-132189500D01*
X207649058Y-132189499D01*
X207649057Y-132189499D01*
X207490943Y-132189499D01*
X207490942Y-132189499D01*
X207490936Y-132189500D01*
X207338219Y-132230420D01*
X207338216Y-132230421D01*
X207241964Y-132285992D01*
X207201284Y-132309479D01*
X207201283Y-132309480D01*
X207201279Y-132309483D01*
X207089484Y-132421278D01*
X207089481Y-132421282D01*
X207010422Y-132558215D01*
X207010421Y-132558218D01*
X206969501Y-132710935D01*
X206969500Y-132710943D01*
X188715500Y-132710943D01*
X188715500Y-128146821D01*
X188733806Y-128102627D01*
X188777761Y-128084321D01*
X216426493Y-127979592D01*
X230010766Y-127928136D01*
X230055026Y-127946274D01*
G37*
%TD.AperFunction*%
%TD*%
M02*
