%TF.GenerationSoftware,KiCad,Pcbnew,9.0.0*%
%TF.CreationDate,2025-03-12T18:23:27-07:00*%
%TF.ProjectId,Z_Face_V2,5a5f4661-6365-45f5-9632-2e6b69636164,3.1*%
%TF.SameCoordinates,Original*%
%TF.FileFunction,Soldermask,Top*%
%TF.FilePolarity,Negative*%
%FSLAX46Y46*%
G04 Gerber Fmt 4.6, Leading zero omitted, Abs format (unit mm)*
G04 Created by KiCad (PCBNEW 9.0.0) date 2025-03-12 18:23:27*
%MOMM*%
%LPD*%
G01*
G04 APERTURE LIST*
G04 Aperture macros list*
%AMRoundRect*
0 Rectangle with rounded corners*
0 $1 Rounding radius*
0 $2 $3 $4 $5 $6 $7 $8 $9 X,Y pos of 4 corners*
0 Add a 4 corners polygon primitive as box body*
4,1,4,$2,$3,$4,$5,$6,$7,$8,$9,$2,$3,0*
0 Add four circle primitives for the rounded corners*
1,1,$1+$1,$2,$3*
1,1,$1+$1,$4,$5*
1,1,$1+$1,$6,$7*
1,1,$1+$1,$8,$9*
0 Add four rect primitives between the rounded corners*
20,1,$1+$1,$2,$3,$4,$5,0*
20,1,$1+$1,$4,$5,$6,$7,0*
20,1,$1+$1,$6,$7,$8,$9,0*
20,1,$1+$1,$8,$9,$2,$3,0*%
%AMRotRect*
0 Rectangle, with rotation*
0 The origin of the aperture is its center*
0 $1 length*
0 $2 width*
0 $3 Rotation angle, in degrees counterclockwise*
0 Add horizontal line*
21,1,$1,$2,0,0,$3*%
G04 Aperture macros list end*
%ADD10RoundRect,0.100000X-0.556847X0.415425X0.415425X-0.556847X0.556847X-0.415425X-0.415425X0.556847X0*%
%ADD11RotRect,1.500000X1.800000X315.000000*%
%ADD12C,0.600000*%
%ADD13C,5.250000*%
%ADD14RotRect,2.500000X1.700000X45.000000*%
%ADD15RoundRect,0.750000X0.750000X-0.750000X0.750000X0.750000X-0.750000X0.750000X-0.750000X-0.750000X0*%
%ADD16RoundRect,0.218750X-0.335876X-0.026517X-0.026517X-0.335876X0.335876X0.026517X0.026517X0.335876X0*%
%ADD17RoundRect,0.250000X0.512652X0.159099X0.159099X0.512652X-0.512652X-0.159099X-0.159099X-0.512652X0*%
%ADD18RotRect,13.000000X3.000000X45.000000*%
%ADD19RoundRect,0.200000X0.335876X0.053033X0.053033X0.335876X-0.335876X-0.053033X-0.053033X-0.335876X0*%
%ADD20RoundRect,0.075000X-0.512652X0.406586X0.406586X-0.512652X0.512652X-0.406586X-0.406586X0.512652X0*%
%ADD21RotRect,2.500000X1.700000X135.000000*%
%ADD22RotRect,1.600000X0.700000X135.000000*%
%ADD23RotRect,13.000000X3.000000X225.000000*%
G04 APERTURE END LIST*
D10*
%TO.C,U3*%
X160566377Y-70268280D03*
X160106758Y-70727899D03*
X159647138Y-71187519D03*
X159187519Y-71647138D03*
X162175045Y-74634664D03*
X162634664Y-74175045D03*
X163094284Y-73715425D03*
X163553903Y-73255806D03*
D11*
X161370711Y-72451472D03*
%TD*%
D12*
%TO.C,REF\u002A\u002A*%
X149564000Y-105988780D03*
X149564000Y-62462780D03*
X149564000Y-119952780D03*
%TD*%
D13*
%TO.C,J4*%
X110500000Y-85000000D03*
%TD*%
%TO.C,J5*%
X149500000Y-124000000D03*
%TD*%
%TO.C,J6*%
X149500000Y-46000000D03*
%TD*%
%TO.C,J7*%
X188500000Y-85000000D03*
%TD*%
D14*
%TO.C,D2*%
X112421572Y-50578428D03*
X115250000Y-47750000D03*
%TD*%
D15*
%TO.C,TP1*%
X113410000Y-130950000D03*
%TD*%
D16*
%TO.C,D4*%
X164796234Y-65652804D03*
X165909928Y-66766498D03*
%TD*%
D17*
%TO.C,C3*%
X139858198Y-89804368D03*
X141201700Y-91147870D03*
%TD*%
D18*
%TO.C,SC5*%
X136822136Y-125942136D03*
X108537864Y-97657864D03*
%TD*%
D15*
%TO.C,TP2*%
X119890000Y-130920000D03*
%TD*%
D18*
%TO.C,SC3*%
X125000000Y-43980000D03*
X153284272Y-72264272D03*
%TD*%
D19*
%TO.C,R1*%
X168800229Y-69600229D03*
X167633503Y-68433503D03*
%TD*%
D17*
%TO.C,C2*%
X137128765Y-95263232D03*
X135785263Y-93919730D03*
%TD*%
D20*
%TO.C,U2*%
X138479340Y-93884374D03*
X143004824Y-95581430D03*
X138832894Y-93530820D03*
X142297717Y-96288537D03*
X139893554Y-92470160D03*
X139540000Y-92823714D03*
X139186447Y-93177267D03*
X141590610Y-96995644D03*
X141944164Y-96642090D03*
X142651270Y-95934984D03*
%TD*%
D21*
%TO.C,D3*%
X133978428Y-103318428D03*
X131150000Y-100490000D03*
%TD*%
D17*
%TO.C,C1*%
X164240000Y-71195441D03*
X162896498Y-69851939D03*
%TD*%
D22*
%TO.C,U1*%
X156717383Y-79435409D03*
X157615409Y-78537383D03*
X155819358Y-80333435D03*
X158513435Y-77639358D03*
%TD*%
D23*
%TO.C,SC4*%
X108540000Y-60450000D03*
X136824272Y-88734272D03*
%TD*%
D18*
%TO.C,SC6*%
X145755728Y-97665728D03*
X174040000Y-125950000D03*
%TD*%
D23*
%TO.C,SC2*%
X162177864Y-44057864D03*
X190462136Y-72342136D03*
%TD*%
D14*
%TO.C,D1*%
X184161572Y-122588428D03*
X186990000Y-119760000D03*
%TD*%
D23*
%TO.C,SC1*%
X190480000Y-109480000D03*
X162195728Y-81195728D03*
%TD*%
M02*
