%TF.GenerationSoftware,KiCad,Pcbnew,(6.0.9)*%
%TF.CreationDate,2023-03-28T01:31:43-07:00*%
%TF.ProjectId,solar-panel-side-Z,736f6c61-722d-4706-916e-656c2d736964,3.1*%
%TF.SameCoordinates,Original*%
%TF.FileFunction,Legend,Bot*%
%TF.FilePolarity,Positive*%
%FSLAX46Y46*%
G04 Gerber Fmt 4.6, Leading zero omitted, Abs format (unit mm)*
G04 Created by KiCad (PCBNEW (6.0.9)) date 2023-03-28 01:31:43*
%MOMM*%
%LPD*%
G01*
G04 APERTURE LIST*
G04 Aperture macros list*
%AMRoundRect*
0 Rectangle with rounded corners*
0 $1 Rounding radius*
0 $2 $3 $4 $5 $6 $7 $8 $9 X,Y pos of 4 corners*
0 Add a 4 corners polygon primitive as box body*
4,1,4,$2,$3,$4,$5,$6,$7,$8,$9,$2,$3,0*
0 Add four circle primitives for the rounded corners*
1,1,$1+$1,$2,$3*
1,1,$1+$1,$4,$5*
1,1,$1+$1,$6,$7*
1,1,$1+$1,$8,$9*
0 Add four rect primitives between the rounded corners*
20,1,$1+$1,$2,$3,$4,$5,0*
20,1,$1+$1,$4,$5,$6,$7,0*
20,1,$1+$1,$6,$7,$8,$9,0*
20,1,$1+$1,$8,$9,$2,$3,0*%
%AMRotRect*
0 Rectangle, with rotation*
0 The origin of the aperture is its center*
0 $1 length*
0 $2 width*
0 $3 Rotation angle, in degrees counterclockwise*
0 Add horizontal line*
21,1,$1,$2,0,0,$3*%
%AMFreePoly0*
4,1,22,0.499999,-0.750000,0.000000,-0.750000,0.000000,-0.745033,-0.079941,-0.743568,-0.215256,-0.701293,-0.333266,-0.622738,-0.424486,-0.514219,-0.481581,-0.384460,-0.499164,-0.250000,-0.500000,-0.250000,-0.500000,0.250000,-0.499164,0.250000,-0.499963,0.256109,-0.478152,0.396186,-0.417904,0.524511,-0.324060,0.630769,-0.204165,0.706417,-0.067858,0.745374,0.000000,0.744960,0.000000,0.750000,
0.499999,0.750000,0.499999,-0.750000,0.499999,-0.750000,$1*%
%AMFreePoly1*
4,1,20,0.000000,0.744960,0.073905,0.744508,0.209726,0.703889,0.328688,0.626782,0.421226,0.519385,0.479903,0.390333,0.500000,0.250000,0.500000,-0.250000,0.499851,-0.262216,0.476331,-0.402017,0.414519,-0.529596,0.319384,-0.634700,0.198574,-0.708877,0.061801,-0.746166,0.000000,-0.745033,0.000000,-0.750000,-0.499999,-0.750000,-0.499999,0.750000,0.000000,0.750000,0.000000,0.744960,
0.000000,0.744960,$1*%
G04 Aperture macros list end*
%ADD10C,0.120000*%
%ADD11C,0.150000*%
%ADD12C,0.200000*%
%ADD13C,5.250000*%
%ADD14R,0.600000X1.000000*%
%ADD15R,1.250000X1.800000*%
%ADD16RotRect,1.100000X0.250000X135.000000*%
%ADD17C,1.800000*%
%ADD18RoundRect,0.250000X0.512652X0.159099X0.159099X0.512652X-0.512652X-0.159099X-0.159099X-0.512652X0*%
%ADD19RoundRect,0.250000X-0.512652X-0.159099X-0.159099X-0.512652X0.512652X0.159099X0.159099X0.512652X0*%
%ADD20RoundRect,0.250000X0.159099X-0.512652X0.512652X-0.159099X-0.159099X0.512652X-0.512652X0.159099X0*%
%ADD21FreePoly0,135.000000*%
%ADD22FreePoly1,135.000000*%
%ADD23RotRect,3.000000X3.000000X45.000000*%
%ADD24C,3.000000*%
%ADD25RoundRect,0.200000X0.335876X0.053033X0.053033X0.335876X-0.335876X-0.053033X-0.053033X-0.335876X0*%
%ADD26RoundRect,0.200000X-0.053033X0.335876X-0.335876X0.053033X0.053033X-0.335876X0.335876X-0.053033X0*%
%ADD27RoundRect,0.250000X-0.159099X0.512652X-0.512652X0.159099X0.159099X-0.512652X0.512652X-0.159099X0*%
%ADD28RoundRect,0.200000X-0.335876X-0.053033X-0.053033X-0.335876X0.335876X0.053033X0.053033X0.335876X0*%
%ADD29RoundRect,0.100000X0.433103X0.574524X-0.574524X-0.433103X-0.433103X-0.574524X0.574524X0.433103X0*%
%ADD30RoundRect,0.150000X0.521491X-0.309359X-0.309359X0.521491X-0.521491X0.309359X0.309359X-0.521491X0*%
G04 APERTURE END LIST*
D10*
X148721082Y-91370516D02*
X149406976Y-92056410D01*
X180978123Y-89596889D02*
X173963624Y-82582390D01*
X149456473Y-92105907D02*
X149223127Y-91844279D01*
X161787246Y-108801910D02*
X149130034Y-96144698D01*
X149350406Y-91914989D02*
X148855431Y-91420014D01*
X143011194Y-90200255D02*
X143124331Y-90313392D01*
X149597895Y-91200811D02*
X148721082Y-91370516D01*
X144213274Y-88559766D02*
X144807245Y-88474915D01*
X146769467Y-94170660D02*
X146656330Y-94057523D01*
X149583751Y-91214953D02*
X148721082Y-91370516D01*
X156109177Y-85842153D02*
X163434804Y-78516527D01*
X144807245Y-88474915D02*
X144722393Y-88998174D01*
X126070000Y-92890000D02*
X126070000Y-121940000D01*
X101770000Y-121939999D01*
X101770000Y-92889999D01*
X126070000Y-92890000D01*
X143053621Y-90242682D02*
X144941594Y-88354705D01*
X173963624Y-82582390D02*
X173942411Y-82603604D01*
X143124331Y-90313392D02*
X144474905Y-88962819D01*
X144722393Y-88998174D02*
X144354697Y-88616336D01*
X146705826Y-94092878D02*
X149583751Y-91214953D01*
X174373747Y-96215409D02*
X166553146Y-88394808D01*
X149597895Y-91200811D02*
X149456473Y-92105907D01*
X143124331Y-90313392D02*
X144481976Y-88941605D01*
X144941594Y-88354705D02*
X144078926Y-88510269D01*
X149307980Y-91716999D02*
X149117061Y-91526081D01*
X149456473Y-92105907D02*
X149332728Y-91982164D01*
X163434804Y-78516527D02*
X170732146Y-85813868D01*
X166546075Y-88727148D02*
X163894424Y-91378799D01*
X148855431Y-91420014D02*
X149449401Y-91335162D01*
X144665824Y-88856752D02*
X144474905Y-88665834D01*
X161094281Y-90827256D02*
X156109177Y-85842153D01*
X170732146Y-85813868D02*
X173942411Y-82603604D01*
X144361768Y-88849681D02*
X143011194Y-90200255D01*
X144708250Y-89054744D02*
X144213274Y-88559766D01*
X144824924Y-88499663D02*
X144789568Y-89058278D01*
X149307979Y-91462440D02*
X149307980Y-91716999D01*
X149130034Y-96144698D02*
X157594102Y-87680630D01*
X162367073Y-89851449D02*
X161065997Y-91152525D01*
X157594102Y-87680630D02*
X161065997Y-91152525D01*
X144665823Y-88602193D02*
X144665824Y-88856752D01*
X163894424Y-91378799D02*
X162367073Y-89851449D01*
X144814317Y-89245661D02*
X144580971Y-88984031D01*
X149406976Y-92056410D02*
X149583751Y-91214953D01*
X144078926Y-88510269D02*
X144764820Y-89196164D01*
X166553146Y-88394808D02*
X163880282Y-91067672D01*
X144955739Y-88340564D02*
X144078926Y-88510269D01*
X148996852Y-91476584D02*
X149307979Y-91462440D01*
X149003924Y-91709928D02*
X146656330Y-94057523D01*
X144354697Y-88616336D02*
X144665823Y-88602193D01*
X166553145Y-88734219D02*
X174204041Y-96385115D01*
X147653349Y-93060502D02*
X147766487Y-93173640D01*
X147766487Y-93173640D02*
X149124134Y-91801851D01*
X144764820Y-89196164D02*
X144941594Y-88354705D01*
X162367073Y-89554464D02*
X161094281Y-90827256D01*
X163880282Y-91067672D02*
X162367073Y-89554464D01*
X174204041Y-96385115D02*
X161787246Y-108801910D01*
X144955739Y-88340564D02*
X144814317Y-89245661D01*
X146769467Y-94170660D02*
X149117061Y-91823065D01*
X174373746Y-96215409D02*
X180978123Y-89596889D01*
X149364549Y-91858421D02*
X148996852Y-91476584D01*
X149449401Y-91335162D02*
X149364549Y-91858421D01*
X144814317Y-89245661D02*
X144690572Y-89121917D01*
D11*
X113620476Y-98902381D02*
X113953809Y-98426191D01*
X114191904Y-98902381D02*
X114191904Y-97902381D01*
X113810952Y-97902381D01*
X113715714Y-97950001D01*
X113668095Y-97997620D01*
X113620476Y-98092858D01*
X113620476Y-98235715D01*
X113668095Y-98330953D01*
X113715714Y-98378572D01*
X113810952Y-98426191D01*
X114191904Y-98426191D01*
X112668095Y-98902381D02*
X113239523Y-98902381D01*
X112953809Y-98902381D02*
X112953809Y-97902381D01*
X113049047Y-98045239D01*
X113144285Y-98140477D01*
X113239523Y-98188096D01*
X111477619Y-98378572D02*
X110715714Y-98378572D01*
X110715714Y-98664286D02*
X111477619Y-98664286D01*
X108953809Y-98902381D02*
X109525238Y-98902381D01*
X109239523Y-98902381D02*
X109239523Y-97902381D01*
X109334761Y-98045239D01*
X109430000Y-98140477D01*
X109525238Y-98188096D01*
X108525238Y-98902381D02*
X108525238Y-97902381D01*
X108430000Y-98521429D02*
X108144285Y-98902381D01*
X108144285Y-98235715D02*
X108525238Y-98616667D01*
X107715714Y-98521429D02*
X106953809Y-98521429D01*
X106287142Y-97902381D02*
X106096666Y-97902381D01*
X106001428Y-97950001D01*
X105906190Y-98045239D01*
X105858571Y-98235715D01*
X105858571Y-98569048D01*
X105906190Y-98759524D01*
X106001428Y-98854762D01*
X106096666Y-98902381D01*
X106287142Y-98902381D01*
X106382380Y-98854762D01*
X106477619Y-98759524D01*
X106525238Y-98569048D01*
X106525238Y-98235715D01*
X106477619Y-98045239D01*
X106382380Y-97950001D01*
X106287142Y-97902381D01*
X105430000Y-98902381D02*
X105430000Y-97902381D01*
X105001428Y-98902381D02*
X105001428Y-98378572D01*
X105049047Y-98283334D01*
X105144285Y-98235715D01*
X105287142Y-98235715D01*
X105382380Y-98283334D01*
X105430000Y-98330953D01*
X104525238Y-98902381D02*
X104525238Y-98235715D01*
X104525238Y-98330953D02*
X104477619Y-98283334D01*
X104382380Y-98235715D01*
X104239523Y-98235715D01*
X104144285Y-98283334D01*
X104096666Y-98378572D01*
X104096666Y-98902381D01*
X104096666Y-98378572D02*
X104049047Y-98283334D01*
X103953809Y-98235715D01*
X103810952Y-98235715D01*
X103715714Y-98283334D01*
X103668095Y-98378572D01*
X103668095Y-98902381D01*
X138484761Y-106219523D02*
X138532380Y-106362380D01*
X138532380Y-106600476D01*
X138484761Y-106695714D01*
X138437142Y-106743333D01*
X138341904Y-106790952D01*
X138246666Y-106790952D01*
X138151428Y-106743333D01*
X138103809Y-106695714D01*
X138056190Y-106600476D01*
X138008571Y-106410000D01*
X137960952Y-106314761D01*
X137913333Y-106267142D01*
X137818095Y-106219523D01*
X137722857Y-106219523D01*
X137627619Y-106267142D01*
X137580000Y-106314761D01*
X137532380Y-106410000D01*
X137532380Y-106648095D01*
X137580000Y-106790952D01*
X138437142Y-107790952D02*
X138484761Y-107743333D01*
X138532380Y-107600476D01*
X138532380Y-107505238D01*
X138484761Y-107362380D01*
X138389523Y-107267142D01*
X138294285Y-107219523D01*
X138103809Y-107171904D01*
X137960952Y-107171904D01*
X137770476Y-107219523D01*
X137675238Y-107267142D01*
X137580000Y-107362380D01*
X137532380Y-107505238D01*
X137532380Y-107600476D01*
X137580000Y-107743333D01*
X137627619Y-107790952D01*
X138532380Y-108695714D02*
X138532380Y-108219523D01*
X137532380Y-108219523D01*
X124682976Y-106127143D02*
X124730595Y-106174762D01*
X124873452Y-106222381D01*
X124968690Y-106222381D01*
X125111547Y-106174762D01*
X125206785Y-106079524D01*
X125254404Y-105984286D01*
X125302023Y-105793810D01*
X125302023Y-105650953D01*
X125254404Y-105460477D01*
X125206785Y-105365239D01*
X125111547Y-105270001D01*
X124968690Y-105222381D01*
X124873452Y-105222381D01*
X124730595Y-105270001D01*
X124682976Y-105317620D01*
X123825833Y-105555715D02*
X123825833Y-106222381D01*
X124063928Y-105174762D02*
X124302023Y-105889048D01*
X123682976Y-105889048D01*
X122540119Y-105698572D02*
X121778214Y-105698572D01*
X121778214Y-105984286D02*
X122540119Y-105984286D01*
X120016309Y-106222381D02*
X120587738Y-106222381D01*
X120302023Y-106222381D02*
X120302023Y-105222381D01*
X120397261Y-105365239D01*
X120492500Y-105460477D01*
X120587738Y-105508096D01*
X119159166Y-105555715D02*
X119159166Y-106222381D01*
X119587738Y-105555715D02*
X119587738Y-106079524D01*
X119540119Y-106174762D01*
X119444880Y-106222381D01*
X119302023Y-106222381D01*
X119206785Y-106174762D01*
X119159166Y-106127143D01*
X118349642Y-105698572D02*
X118682976Y-105698572D01*
X118682976Y-106222381D02*
X118682976Y-105222381D01*
X118206785Y-105222381D01*
X124682976Y-107737143D02*
X124730595Y-107784762D01*
X124873452Y-107832381D01*
X124968690Y-107832381D01*
X125111547Y-107784762D01*
X125206785Y-107689524D01*
X125254404Y-107594286D01*
X125302023Y-107403810D01*
X125302023Y-107260953D01*
X125254404Y-107070477D01*
X125206785Y-106975239D01*
X125111547Y-106880001D01*
X124968690Y-106832381D01*
X124873452Y-106832381D01*
X124730595Y-106880001D01*
X124682976Y-106927620D01*
X123778214Y-106832381D02*
X124254404Y-106832381D01*
X124302023Y-107308572D01*
X124254404Y-107260953D01*
X124159166Y-107213334D01*
X123921071Y-107213334D01*
X123825833Y-107260953D01*
X123778214Y-107308572D01*
X123730595Y-107403810D01*
X123730595Y-107641905D01*
X123778214Y-107737143D01*
X123825833Y-107784762D01*
X123921071Y-107832381D01*
X124159166Y-107832381D01*
X124254404Y-107784762D01*
X124302023Y-107737143D01*
X122540119Y-107308572D02*
X121778214Y-107308572D01*
X121778214Y-107594286D02*
X122540119Y-107594286D01*
X120349642Y-106832381D02*
X120254404Y-106832381D01*
X120159166Y-106880001D01*
X120111547Y-106927620D01*
X120063928Y-107022858D01*
X120016309Y-107213334D01*
X120016309Y-107451429D01*
X120063928Y-107641905D01*
X120111547Y-107737143D01*
X120159166Y-107784762D01*
X120254404Y-107832381D01*
X120349642Y-107832381D01*
X120444880Y-107784762D01*
X120492500Y-107737143D01*
X120540119Y-107641905D01*
X120587738Y-107451429D01*
X120587738Y-107213334D01*
X120540119Y-107022858D01*
X120492500Y-106927620D01*
X120444880Y-106880001D01*
X120349642Y-106832381D01*
X119587738Y-107737143D02*
X119540119Y-107784762D01*
X119587738Y-107832381D01*
X119635357Y-107784762D01*
X119587738Y-107737143D01*
X119587738Y-107832381D01*
X118921071Y-106832381D02*
X118825833Y-106832381D01*
X118730595Y-106880001D01*
X118682976Y-106927620D01*
X118635357Y-107022858D01*
X118587738Y-107213334D01*
X118587738Y-107451429D01*
X118635357Y-107641905D01*
X118682976Y-107737143D01*
X118730595Y-107784762D01*
X118825833Y-107832381D01*
X118921071Y-107832381D01*
X119016309Y-107784762D01*
X119063928Y-107737143D01*
X119111547Y-107641905D01*
X119159166Y-107451429D01*
X119159166Y-107213334D01*
X119111547Y-107022858D01*
X119063928Y-106927620D01*
X119016309Y-106880001D01*
X118921071Y-106832381D01*
X117635357Y-107832381D02*
X118206785Y-107832381D01*
X117921071Y-107832381D02*
X117921071Y-106832381D01*
X118016309Y-106975239D01*
X118111547Y-107070477D01*
X118206785Y-107118096D01*
X116778214Y-107165715D02*
X116778214Y-107832381D01*
X117206785Y-107165715D02*
X117206785Y-107689524D01*
X117159166Y-107784762D01*
X117063928Y-107832381D01*
X116921071Y-107832381D01*
X116825833Y-107784762D01*
X116778214Y-107737143D01*
X115968690Y-107308572D02*
X116302023Y-107308572D01*
X116302023Y-107832381D02*
X116302023Y-106832381D01*
X115825833Y-106832381D01*
X124682976Y-109347143D02*
X124730595Y-109394762D01*
X124873452Y-109442381D01*
X124968690Y-109442381D01*
X125111547Y-109394762D01*
X125206785Y-109299524D01*
X125254404Y-109204286D01*
X125302023Y-109013810D01*
X125302023Y-108870953D01*
X125254404Y-108680477D01*
X125206785Y-108585239D01*
X125111547Y-108490001D01*
X124968690Y-108442381D01*
X124873452Y-108442381D01*
X124730595Y-108490001D01*
X124682976Y-108537620D01*
X123825833Y-108442381D02*
X124016309Y-108442381D01*
X124111547Y-108490001D01*
X124159166Y-108537620D01*
X124254404Y-108680477D01*
X124302023Y-108870953D01*
X124302023Y-109251905D01*
X124254404Y-109347143D01*
X124206785Y-109394762D01*
X124111547Y-109442381D01*
X123921071Y-109442381D01*
X123825833Y-109394762D01*
X123778214Y-109347143D01*
X123730595Y-109251905D01*
X123730595Y-109013810D01*
X123778214Y-108918572D01*
X123825833Y-108870953D01*
X123921071Y-108823334D01*
X124111547Y-108823334D01*
X124206785Y-108870953D01*
X124254404Y-108918572D01*
X124302023Y-109013810D01*
X122540119Y-108918572D02*
X121778214Y-108918572D01*
X121778214Y-109204286D02*
X122540119Y-109204286D01*
X120349642Y-108442381D02*
X120254404Y-108442381D01*
X120159166Y-108490001D01*
X120111547Y-108537620D01*
X120063928Y-108632858D01*
X120016309Y-108823334D01*
X120016309Y-109061429D01*
X120063928Y-109251905D01*
X120111547Y-109347143D01*
X120159166Y-109394762D01*
X120254404Y-109442381D01*
X120349642Y-109442381D01*
X120444880Y-109394762D01*
X120492500Y-109347143D01*
X120540119Y-109251905D01*
X120587738Y-109061429D01*
X120587738Y-108823334D01*
X120540119Y-108632858D01*
X120492500Y-108537620D01*
X120444880Y-108490001D01*
X120349642Y-108442381D01*
X119587738Y-109347143D02*
X119540119Y-109394762D01*
X119587738Y-109442381D01*
X119635357Y-109394762D01*
X119587738Y-109347143D01*
X119587738Y-109442381D01*
X118921071Y-108442381D02*
X118825833Y-108442381D01*
X118730595Y-108490001D01*
X118682976Y-108537620D01*
X118635357Y-108632858D01*
X118587738Y-108823334D01*
X118587738Y-109061429D01*
X118635357Y-109251905D01*
X118682976Y-109347143D01*
X118730595Y-109394762D01*
X118825833Y-109442381D01*
X118921071Y-109442381D01*
X119016309Y-109394762D01*
X119063928Y-109347143D01*
X119111547Y-109251905D01*
X119159166Y-109061429D01*
X119159166Y-108823334D01*
X119111547Y-108632858D01*
X119063928Y-108537620D01*
X119016309Y-108490001D01*
X118921071Y-108442381D01*
X117635357Y-109442381D02*
X118206785Y-109442381D01*
X117921071Y-109442381D02*
X117921071Y-108442381D01*
X118016309Y-108585239D01*
X118111547Y-108680477D01*
X118206785Y-108728096D01*
X116778214Y-108775715D02*
X116778214Y-109442381D01*
X117206785Y-108775715D02*
X117206785Y-109299524D01*
X117159166Y-109394762D01*
X117063928Y-109442381D01*
X116921071Y-109442381D01*
X116825833Y-109394762D01*
X116778214Y-109347143D01*
X115968690Y-108918572D02*
X116302023Y-108918572D01*
X116302023Y-109442381D02*
X116302023Y-108442381D01*
X115825833Y-108442381D01*
X124682976Y-110957143D02*
X124730595Y-111004762D01*
X124873452Y-111052381D01*
X124968690Y-111052381D01*
X125111547Y-111004762D01*
X125206785Y-110909524D01*
X125254404Y-110814286D01*
X125302023Y-110623810D01*
X125302023Y-110480953D01*
X125254404Y-110290477D01*
X125206785Y-110195239D01*
X125111547Y-110100001D01*
X124968690Y-110052381D01*
X124873452Y-110052381D01*
X124730595Y-110100001D01*
X124682976Y-110147620D01*
X124349642Y-110052381D02*
X123682976Y-110052381D01*
X124111547Y-111052381D01*
X122540119Y-110528572D02*
X121778214Y-110528572D01*
X121778214Y-110814286D02*
X122540119Y-110814286D01*
X120349642Y-110052381D02*
X120254404Y-110052381D01*
X120159166Y-110100001D01*
X120111547Y-110147620D01*
X120063928Y-110242858D01*
X120016309Y-110433334D01*
X120016309Y-110671429D01*
X120063928Y-110861905D01*
X120111547Y-110957143D01*
X120159166Y-111004762D01*
X120254404Y-111052381D01*
X120349642Y-111052381D01*
X120444880Y-111004762D01*
X120492500Y-110957143D01*
X120540119Y-110861905D01*
X120587738Y-110671429D01*
X120587738Y-110433334D01*
X120540119Y-110242858D01*
X120492500Y-110147620D01*
X120444880Y-110100001D01*
X120349642Y-110052381D01*
X119587738Y-110957143D02*
X119540119Y-111004762D01*
X119587738Y-111052381D01*
X119635357Y-111004762D01*
X119587738Y-110957143D01*
X119587738Y-111052381D01*
X118587738Y-111052381D02*
X119159166Y-111052381D01*
X118873452Y-111052381D02*
X118873452Y-110052381D01*
X118968690Y-110195239D01*
X119063928Y-110290477D01*
X119159166Y-110338096D01*
X117730595Y-110385715D02*
X117730595Y-111052381D01*
X118159166Y-110385715D02*
X118159166Y-110909524D01*
X118111547Y-111004762D01*
X118016309Y-111052381D01*
X117873452Y-111052381D01*
X117778214Y-111004762D01*
X117730595Y-110957143D01*
X116921071Y-110528572D02*
X117254404Y-110528572D01*
X117254404Y-111052381D02*
X117254404Y-110052381D01*
X116778214Y-110052381D01*
X124682976Y-112567143D02*
X124730595Y-112614762D01*
X124873452Y-112662381D01*
X124968690Y-112662381D01*
X125111547Y-112614762D01*
X125206785Y-112519524D01*
X125254404Y-112424286D01*
X125302023Y-112233810D01*
X125302023Y-112090953D01*
X125254404Y-111900477D01*
X125206785Y-111805239D01*
X125111547Y-111710001D01*
X124968690Y-111662381D01*
X124873452Y-111662381D01*
X124730595Y-111710001D01*
X124682976Y-111757620D01*
X124111547Y-112090953D02*
X124206785Y-112043334D01*
X124254404Y-111995715D01*
X124302023Y-111900477D01*
X124302023Y-111852858D01*
X124254404Y-111757620D01*
X124206785Y-111710001D01*
X124111547Y-111662381D01*
X123921071Y-111662381D01*
X123825833Y-111710001D01*
X123778214Y-111757620D01*
X123730595Y-111852858D01*
X123730595Y-111900477D01*
X123778214Y-111995715D01*
X123825833Y-112043334D01*
X123921071Y-112090953D01*
X124111547Y-112090953D01*
X124206785Y-112138572D01*
X124254404Y-112186191D01*
X124302023Y-112281429D01*
X124302023Y-112471905D01*
X124254404Y-112567143D01*
X124206785Y-112614762D01*
X124111547Y-112662381D01*
X123921071Y-112662381D01*
X123825833Y-112614762D01*
X123778214Y-112567143D01*
X123730595Y-112471905D01*
X123730595Y-112281429D01*
X123778214Y-112186191D01*
X123825833Y-112138572D01*
X123921071Y-112090953D01*
X122540119Y-112138572D02*
X121778214Y-112138572D01*
X121778214Y-112424286D02*
X122540119Y-112424286D01*
X120016309Y-112662381D02*
X120587738Y-112662381D01*
X120302023Y-112662381D02*
X120302023Y-111662381D01*
X120397261Y-111805239D01*
X120492500Y-111900477D01*
X120587738Y-111948096D01*
X119397261Y-111662381D02*
X119302023Y-111662381D01*
X119206785Y-111710001D01*
X119159166Y-111757620D01*
X119111547Y-111852858D01*
X119063928Y-112043334D01*
X119063928Y-112281429D01*
X119111547Y-112471905D01*
X119159166Y-112567143D01*
X119206785Y-112614762D01*
X119302023Y-112662381D01*
X119397261Y-112662381D01*
X119492499Y-112614762D01*
X119540119Y-112567143D01*
X119587738Y-112471905D01*
X119635357Y-112281429D01*
X119635357Y-112043334D01*
X119587738Y-111852858D01*
X119540119Y-111757620D01*
X119492499Y-111710001D01*
X119397261Y-111662381D01*
X118206785Y-111995715D02*
X118206785Y-112662381D01*
X118635357Y-111995715D02*
X118635357Y-112519524D01*
X118587738Y-112614762D01*
X118492499Y-112662381D01*
X118349642Y-112662381D01*
X118254404Y-112614762D01*
X118206785Y-112567143D01*
X117397261Y-112138572D02*
X117730595Y-112138572D01*
X117730595Y-112662381D02*
X117730595Y-111662381D01*
X117254404Y-111662381D01*
X124682976Y-114177143D02*
X124730595Y-114224762D01*
X124873452Y-114272381D01*
X124968690Y-114272381D01*
X125111547Y-114224762D01*
X125206785Y-114129524D01*
X125254404Y-114034286D01*
X125302023Y-113843810D01*
X125302023Y-113700953D01*
X125254404Y-113510477D01*
X125206785Y-113415239D01*
X125111547Y-113320001D01*
X124968690Y-113272381D01*
X124873452Y-113272381D01*
X124730595Y-113320001D01*
X124682976Y-113367620D01*
X124206785Y-114272381D02*
X124016309Y-114272381D01*
X123921071Y-114224762D01*
X123873452Y-114177143D01*
X123778214Y-114034286D01*
X123730595Y-113843810D01*
X123730595Y-113462858D01*
X123778214Y-113367620D01*
X123825833Y-113320001D01*
X123921071Y-113272381D01*
X124111547Y-113272381D01*
X124206785Y-113320001D01*
X124254404Y-113367620D01*
X124302023Y-113462858D01*
X124302023Y-113700953D01*
X124254404Y-113796191D01*
X124206785Y-113843810D01*
X124111547Y-113891429D01*
X123921071Y-113891429D01*
X123825833Y-113843810D01*
X123778214Y-113796191D01*
X123730595Y-113700953D01*
X122540119Y-113748572D02*
X121778214Y-113748572D01*
X121778214Y-114034286D02*
X122540119Y-114034286D01*
X120016309Y-114272381D02*
X120587738Y-114272381D01*
X120302023Y-114272381D02*
X120302023Y-113272381D01*
X120397261Y-113415239D01*
X120492500Y-113510477D01*
X120587738Y-113558096D01*
X119397261Y-113272381D02*
X119302023Y-113272381D01*
X119206785Y-113320001D01*
X119159166Y-113367620D01*
X119111547Y-113462858D01*
X119063928Y-113653334D01*
X119063928Y-113891429D01*
X119111547Y-114081905D01*
X119159166Y-114177143D01*
X119206785Y-114224762D01*
X119302023Y-114272381D01*
X119397261Y-114272381D01*
X119492499Y-114224762D01*
X119540119Y-114177143D01*
X119587738Y-114081905D01*
X119635357Y-113891429D01*
X119635357Y-113653334D01*
X119587738Y-113462858D01*
X119540119Y-113367620D01*
X119492499Y-113320001D01*
X119397261Y-113272381D01*
X118206785Y-113605715D02*
X118206785Y-114272381D01*
X118635357Y-113605715D02*
X118635357Y-114129524D01*
X118587738Y-114224762D01*
X118492499Y-114272381D01*
X118349642Y-114272381D01*
X118254404Y-114224762D01*
X118206785Y-114177143D01*
X117397261Y-113748572D02*
X117730595Y-113748572D01*
X117730595Y-114272381D02*
X117730595Y-113272381D01*
X117254404Y-113272381D01*
X124682976Y-115787143D02*
X124730595Y-115834762D01*
X124873452Y-115882381D01*
X124968690Y-115882381D01*
X125111547Y-115834762D01*
X125206785Y-115739524D01*
X125254404Y-115644286D01*
X125302023Y-115453810D01*
X125302023Y-115310953D01*
X125254404Y-115120477D01*
X125206785Y-115025239D01*
X125111547Y-114930001D01*
X124968690Y-114882381D01*
X124873452Y-114882381D01*
X124730595Y-114930001D01*
X124682976Y-114977620D01*
X123730595Y-115882381D02*
X124302023Y-115882381D01*
X124016309Y-115882381D02*
X124016309Y-114882381D01*
X124111547Y-115025239D01*
X124206785Y-115120477D01*
X124302023Y-115168096D01*
X123111547Y-114882381D02*
X123016309Y-114882381D01*
X122921071Y-114930001D01*
X122873452Y-114977620D01*
X122825833Y-115072858D01*
X122778214Y-115263334D01*
X122778214Y-115501429D01*
X122825833Y-115691905D01*
X122873452Y-115787143D01*
X122921071Y-115834762D01*
X123016309Y-115882381D01*
X123111547Y-115882381D01*
X123206785Y-115834762D01*
X123254404Y-115787143D01*
X123302023Y-115691905D01*
X123349642Y-115501429D01*
X123349642Y-115263334D01*
X123302023Y-115072858D01*
X123254404Y-114977620D01*
X123206785Y-114930001D01*
X123111547Y-114882381D01*
X121587738Y-115358572D02*
X120825833Y-115358572D01*
X120825833Y-115644286D02*
X121587738Y-115644286D01*
X119397261Y-114882381D02*
X119302023Y-114882381D01*
X119206785Y-114930001D01*
X119159166Y-114977620D01*
X119111547Y-115072858D01*
X119063928Y-115263334D01*
X119063928Y-115501429D01*
X119111547Y-115691905D01*
X119159166Y-115787143D01*
X119206785Y-115834762D01*
X119302023Y-115882381D01*
X119397261Y-115882381D01*
X119492500Y-115834762D01*
X119540119Y-115787143D01*
X119587738Y-115691905D01*
X119635357Y-115501429D01*
X119635357Y-115263334D01*
X119587738Y-115072858D01*
X119540119Y-114977620D01*
X119492500Y-114930001D01*
X119397261Y-114882381D01*
X118635357Y-115787143D02*
X118587738Y-115834762D01*
X118635357Y-115882381D01*
X118682976Y-115834762D01*
X118635357Y-115787143D01*
X118635357Y-115882381D01*
X117635357Y-115882381D02*
X118206785Y-115882381D01*
X117921071Y-115882381D02*
X117921071Y-114882381D01*
X118016309Y-115025239D01*
X118111547Y-115120477D01*
X118206785Y-115168096D01*
X116778214Y-115215715D02*
X116778214Y-115882381D01*
X117206785Y-115215715D02*
X117206785Y-115739524D01*
X117159166Y-115834762D01*
X117063928Y-115882381D01*
X116921071Y-115882381D01*
X116825833Y-115834762D01*
X116778214Y-115787143D01*
X115968690Y-115358572D02*
X116302023Y-115358572D01*
X116302023Y-115882381D02*
X116302023Y-114882381D01*
X115825833Y-114882381D01*
X132952380Y-106153333D02*
X133952380Y-106486666D01*
X132952380Y-106820000D01*
X133904761Y-107105714D02*
X133952380Y-107248571D01*
X133952380Y-107486666D01*
X133904761Y-107581904D01*
X133857142Y-107629523D01*
X133761904Y-107677142D01*
X133666666Y-107677142D01*
X133571428Y-107629523D01*
X133523809Y-107581904D01*
X133476190Y-107486666D01*
X133428571Y-107296190D01*
X133380952Y-107200952D01*
X133333333Y-107153333D01*
X133238095Y-107105714D01*
X133142857Y-107105714D01*
X133047619Y-107153333D01*
X133000000Y-107200952D01*
X132952380Y-107296190D01*
X132952380Y-107534285D01*
X133000000Y-107677142D01*
X132952380Y-108296190D02*
X132952380Y-108486666D01*
X133000000Y-108581904D01*
X133095238Y-108677142D01*
X133285714Y-108724761D01*
X133619047Y-108724761D01*
X133809523Y-108677142D01*
X133904761Y-108581904D01*
X133952380Y-108486666D01*
X133952380Y-108296190D01*
X133904761Y-108200952D01*
X133809523Y-108105714D01*
X133619047Y-108058095D01*
X133285714Y-108058095D01*
X133095238Y-108105714D01*
X133000000Y-108200952D01*
X132952380Y-108296190D01*
X133952380Y-109629523D02*
X133952380Y-109153333D01*
X132952380Y-109153333D01*
X133666666Y-109915238D02*
X133666666Y-110391428D01*
X133952380Y-109820000D02*
X132952380Y-110153333D01*
X133952380Y-110486666D01*
X133952380Y-111391428D02*
X133476190Y-111058095D01*
X133952380Y-110820000D02*
X132952380Y-110820000D01*
X132952380Y-111200952D01*
X133000000Y-111296190D01*
X133047619Y-111343809D01*
X133142857Y-111391428D01*
X133285714Y-111391428D01*
X133380952Y-111343809D01*
X133428571Y-111296190D01*
X133476190Y-111200952D01*
X133476190Y-110820000D01*
X161300351Y-109280048D02*
X160896290Y-108875987D01*
X160391214Y-109785124D02*
X161098321Y-109078017D01*
X159953481Y-109347391D02*
X160660588Y-108640285D01*
X159650435Y-109044346D02*
X160020825Y-108673956D01*
X160121840Y-108640285D01*
X160222855Y-108673956D01*
X160323870Y-108774972D01*
X160357542Y-108875987D01*
X160357542Y-108943330D01*
X159078016Y-108404582D02*
X159111687Y-108505598D01*
X159246374Y-108640285D01*
X159347390Y-108673956D01*
X159448405Y-108640285D01*
X159717779Y-108370911D01*
X159751451Y-108269895D01*
X159717779Y-108168880D01*
X159583092Y-108034193D01*
X159482077Y-108000521D01*
X159381061Y-108034193D01*
X159313718Y-108101537D01*
X159583092Y-108505598D01*
X158707626Y-108101537D02*
X159179031Y-107630132D01*
X159044344Y-107764819D02*
X159078016Y-107663804D01*
X159078016Y-107596460D01*
X159044344Y-107495445D01*
X158977000Y-107428102D01*
X158269894Y-107663804D02*
X158741298Y-107192399D01*
X158673955Y-107259743D02*
X158673955Y-107192399D01*
X158640283Y-107091384D01*
X158539268Y-106990369D01*
X158438252Y-106956697D01*
X158337237Y-106990369D01*
X157966848Y-107360758D01*
X158337237Y-106990369D02*
X158370909Y-106889354D01*
X158337237Y-106788338D01*
X158236222Y-106687323D01*
X158135207Y-106653651D01*
X158034191Y-106687323D01*
X157663802Y-107057712D01*
X157226069Y-106619980D02*
X157327084Y-106653651D01*
X157394428Y-106653651D01*
X157495443Y-106619980D01*
X157697474Y-106417949D01*
X157731146Y-106316934D01*
X157731146Y-106249590D01*
X157697474Y-106148575D01*
X157596458Y-106047560D01*
X157495443Y-106013888D01*
X157428100Y-106013888D01*
X157327084Y-106047560D01*
X157125054Y-106249590D01*
X157091382Y-106350605D01*
X157091382Y-106417949D01*
X157125054Y-106518964D01*
X157226069Y-106619980D01*
X156417947Y-105744514D02*
X156451619Y-105845529D01*
X156586306Y-105980216D01*
X156687321Y-106013888D01*
X156754665Y-106013888D01*
X156855680Y-105980216D01*
X157057710Y-105778186D01*
X157091382Y-105677170D01*
X157091382Y-105609827D01*
X157057710Y-105508812D01*
X156923023Y-105374125D01*
X156822008Y-105340453D01*
X155980214Y-105374125D02*
X156081230Y-105407796D01*
X156148573Y-105407796D01*
X156249588Y-105374125D01*
X156451619Y-105172094D01*
X156485291Y-105071079D01*
X156485291Y-105003735D01*
X156451619Y-104902720D01*
X156350604Y-104801705D01*
X156249588Y-104768033D01*
X156182245Y-104768033D01*
X156081230Y-104801705D01*
X155879199Y-105003735D01*
X155845527Y-105104751D01*
X155845527Y-105172094D01*
X155879199Y-105273109D01*
X155980214Y-105374125D01*
X155609825Y-104060926D02*
X155138421Y-104532331D01*
X155912871Y-104363972D02*
X155542482Y-104734361D01*
X155441466Y-104768033D01*
X155340451Y-104734361D01*
X155239436Y-104633346D01*
X155205764Y-104532331D01*
X155205764Y-104464987D01*
X155273108Y-103724209D02*
X154566001Y-104431316D01*
X155239436Y-103757881D02*
X155205764Y-103656865D01*
X155071077Y-103522178D01*
X154970062Y-103488507D01*
X154902718Y-103488507D01*
X154801703Y-103522178D01*
X154599673Y-103724209D01*
X154566001Y-103825224D01*
X154566001Y-103892568D01*
X154599673Y-103993583D01*
X154734360Y-104128270D01*
X154835375Y-104161942D01*
X154060925Y-103454835D02*
X154161940Y-103488507D01*
X154262955Y-103454835D01*
X154869047Y-102848743D01*
X153555848Y-102882415D02*
X153589520Y-102983430D01*
X153724207Y-103118117D01*
X153825222Y-103151789D01*
X153926238Y-103118117D01*
X154195612Y-102848743D01*
X154229283Y-102747728D01*
X154195612Y-102646713D01*
X154060925Y-102512026D01*
X153959909Y-102478354D01*
X153858894Y-102512026D01*
X153791551Y-102579369D01*
X154060925Y-102983430D01*
X153252803Y-102512026D02*
X153185459Y-102512026D01*
X153185459Y-102579369D01*
X153252803Y-102579369D01*
X153252803Y-102512026D01*
X153185459Y-102579369D01*
X153623192Y-102141637D02*
X153555848Y-102141637D01*
X153555848Y-102208980D01*
X153623192Y-102208980D01*
X153623192Y-102141637D01*
X153555848Y-102208980D01*
X152545696Y-101535545D02*
X152208978Y-101198828D01*
X152411009Y-101804919D02*
X152882413Y-100862110D01*
X151939604Y-101333515D01*
X151703902Y-101097812D02*
X152411009Y-100390705D01*
X152242650Y-100222347D01*
X152107963Y-100155003D01*
X151973276Y-100155003D01*
X151872261Y-100188675D01*
X151703902Y-100289690D01*
X151602887Y-100390705D01*
X151501871Y-100559064D01*
X151468200Y-100660079D01*
X151468200Y-100794766D01*
X151535543Y-100929454D01*
X151703902Y-101097812D01*
X151299841Y-99885629D02*
X151400856Y-99919301D01*
X151468200Y-99919301D01*
X151569215Y-99885629D01*
X151602887Y-99851957D01*
X151636558Y-99750942D01*
X151636558Y-99683599D01*
X151602887Y-99582583D01*
X151468200Y-99447896D01*
X151367184Y-99414225D01*
X151299841Y-99414225D01*
X151198826Y-99447896D01*
X151165154Y-99481568D01*
X151131482Y-99582583D01*
X151131482Y-99649927D01*
X151165154Y-99750942D01*
X151299841Y-99885629D01*
X151333513Y-99986644D01*
X151333513Y-100053988D01*
X151299841Y-100155003D01*
X151165154Y-100289690D01*
X151064139Y-100323362D01*
X150996795Y-100323362D01*
X150895780Y-100289690D01*
X150761093Y-100155003D01*
X150727421Y-100053988D01*
X150727421Y-99986644D01*
X150761093Y-99885629D01*
X150895780Y-99750942D01*
X150996795Y-99717270D01*
X151064139Y-99717270D01*
X151165154Y-99750942D01*
X150491719Y-98942820D02*
X150020314Y-99414225D01*
X150929452Y-98841805D02*
X150592734Y-99515240D01*
X150155001Y-99077507D01*
X149616253Y-99010164D02*
X149481566Y-98875477D01*
X149447895Y-98774461D01*
X149447895Y-98707118D01*
X149481566Y-98538759D01*
X149582582Y-98370400D01*
X149851956Y-98101026D01*
X149952971Y-98067355D01*
X150020314Y-98067355D01*
X150121330Y-98101026D01*
X150256017Y-98235713D01*
X150289688Y-98336729D01*
X150289688Y-98404072D01*
X150256017Y-98505087D01*
X150087658Y-98673446D01*
X149986643Y-98707118D01*
X149919299Y-98707118D01*
X149818284Y-98673446D01*
X149683597Y-98538759D01*
X149649925Y-98437744D01*
X149649925Y-98370400D01*
X149683597Y-98269385D01*
X149346879Y-97326576D02*
X149683597Y-97663294D01*
X149380551Y-98033683D01*
X149380551Y-97966339D01*
X149346879Y-97865324D01*
X149178521Y-97696965D01*
X149077505Y-97663294D01*
X149010162Y-97663294D01*
X148909147Y-97696965D01*
X148740788Y-97865324D01*
X148707116Y-97966339D01*
X148707116Y-98033683D01*
X148740788Y-98134698D01*
X148909147Y-98303057D01*
X149010162Y-98336729D01*
X149077505Y-98336729D01*
X134590000Y-106778095D02*
X134542380Y-106682857D01*
X134542380Y-106540000D01*
X134590000Y-106397142D01*
X134685238Y-106301904D01*
X134780476Y-106254285D01*
X134970952Y-106206666D01*
X135113809Y-106206666D01*
X135304285Y-106254285D01*
X135399523Y-106301904D01*
X135494761Y-106397142D01*
X135542380Y-106540000D01*
X135542380Y-106635238D01*
X135494761Y-106778095D01*
X135447142Y-106825714D01*
X135113809Y-106825714D01*
X135113809Y-106635238D01*
X135542380Y-107254285D02*
X134542380Y-107254285D01*
X135542380Y-107825714D01*
X134542380Y-107825714D01*
X135542380Y-108301904D02*
X134542380Y-108301904D01*
X134542380Y-108540000D01*
X134590000Y-108682857D01*
X134685238Y-108778095D01*
X134780476Y-108825714D01*
X134970952Y-108873333D01*
X135113809Y-108873333D01*
X135304285Y-108825714D01*
X135399523Y-108778095D01*
X135494761Y-108682857D01*
X135542380Y-108540000D01*
X135542380Y-108301904D01*
X136102380Y-106191904D02*
X136102380Y-106810952D01*
X136483333Y-106477619D01*
X136483333Y-106620476D01*
X136530952Y-106715714D01*
X136578571Y-106763333D01*
X136673809Y-106810952D01*
X136911904Y-106810952D01*
X137007142Y-106763333D01*
X137054761Y-106715714D01*
X137102380Y-106620476D01*
X137102380Y-106334761D01*
X137054761Y-106239523D01*
X137007142Y-106191904D01*
X136102380Y-107096666D02*
X137102380Y-107430000D01*
X136102380Y-107763333D01*
X136102380Y-108001428D02*
X136102380Y-108620476D01*
X136483333Y-108287142D01*
X136483333Y-108430000D01*
X136530952Y-108525238D01*
X136578571Y-108572857D01*
X136673809Y-108620476D01*
X136911904Y-108620476D01*
X137007142Y-108572857D01*
X137054761Y-108525238D01*
X137102380Y-108430000D01*
X137102380Y-108144285D01*
X137054761Y-108049047D01*
X137007142Y-108001428D01*
X188094642Y-133752380D02*
X188094642Y-132752380D01*
X187713690Y-132752380D01*
X187618452Y-132800000D01*
X187570833Y-132847619D01*
X187523214Y-132942857D01*
X187523214Y-133085714D01*
X187570833Y-133180952D01*
X187618452Y-133228571D01*
X187713690Y-133276190D01*
X188094642Y-133276190D01*
X186523214Y-133752380D02*
X186856547Y-133276190D01*
X187094642Y-133752380D02*
X187094642Y-132752380D01*
X186713690Y-132752380D01*
X186618452Y-132800000D01*
X186570833Y-132847619D01*
X186523214Y-132942857D01*
X186523214Y-133085714D01*
X186570833Y-133180952D01*
X186618452Y-133228571D01*
X186713690Y-133276190D01*
X187094642Y-133276190D01*
X185904166Y-132752380D02*
X185713690Y-132752380D01*
X185618452Y-132800000D01*
X185523214Y-132895238D01*
X185475595Y-133085714D01*
X185475595Y-133419047D01*
X185523214Y-133609523D01*
X185618452Y-133704761D01*
X185713690Y-133752380D01*
X185904166Y-133752380D01*
X185999404Y-133704761D01*
X186094642Y-133609523D01*
X186142261Y-133419047D01*
X186142261Y-133085714D01*
X186094642Y-132895238D01*
X185999404Y-132800000D01*
X185904166Y-132752380D01*
X185189880Y-132752380D02*
X184856547Y-133752380D01*
X184523214Y-132752380D01*
X184189880Y-133228571D02*
X183856547Y-133228571D01*
X183713690Y-133752380D02*
X184189880Y-133752380D01*
X184189880Y-132752380D01*
X183713690Y-132752380D01*
X183332738Y-133704761D02*
X183189880Y-133752380D01*
X182951785Y-133752380D01*
X182856547Y-133704761D01*
X182808928Y-133657142D01*
X182761309Y-133561904D01*
X182761309Y-133466666D01*
X182808928Y-133371428D01*
X182856547Y-133323809D01*
X182951785Y-133276190D01*
X183142261Y-133228571D01*
X183237500Y-133180952D01*
X183285119Y-133133333D01*
X183332738Y-133038095D01*
X183332738Y-132942857D01*
X183285119Y-132847619D01*
X183237500Y-132800000D01*
X183142261Y-132752380D01*
X182904166Y-132752380D01*
X182761309Y-132800000D01*
X181237500Y-133228571D02*
X181094642Y-133276190D01*
X181047023Y-133323809D01*
X180999404Y-133419047D01*
X180999404Y-133561904D01*
X181047023Y-133657142D01*
X181094642Y-133704761D01*
X181189880Y-133752380D01*
X181570833Y-133752380D01*
X181570833Y-132752380D01*
X181237500Y-132752380D01*
X181142261Y-132800000D01*
X181094642Y-132847619D01*
X181047023Y-132942857D01*
X181047023Y-133038095D01*
X181094642Y-133133333D01*
X181142261Y-133180952D01*
X181237500Y-133228571D01*
X181570833Y-133228571D01*
X180380357Y-132752380D02*
X180189880Y-132752380D01*
X180094642Y-132800000D01*
X179999404Y-132895238D01*
X179951785Y-133085714D01*
X179951785Y-133419047D01*
X179999404Y-133609523D01*
X180094642Y-133704761D01*
X180189880Y-133752380D01*
X180380357Y-133752380D01*
X180475595Y-133704761D01*
X180570833Y-133609523D01*
X180618452Y-133419047D01*
X180618452Y-133085714D01*
X180570833Y-132895238D01*
X180475595Y-132800000D01*
X180380357Y-132752380D01*
X179666071Y-132752380D02*
X179094642Y-132752380D01*
X179380357Y-133752380D02*
X179380357Y-132752380D01*
X178904166Y-132752380D02*
X178332738Y-132752380D01*
X178618452Y-133752380D02*
X178618452Y-132752380D01*
X177808928Y-132752380D02*
X177618452Y-132752380D01*
X177523214Y-132800000D01*
X177427976Y-132895238D01*
X177380357Y-133085714D01*
X177380357Y-133419047D01*
X177427976Y-133609523D01*
X177523214Y-133704761D01*
X177618452Y-133752380D01*
X177808928Y-133752380D01*
X177904166Y-133704761D01*
X177999404Y-133609523D01*
X178047023Y-133419047D01*
X178047023Y-133085714D01*
X177999404Y-132895238D01*
X177904166Y-132800000D01*
X177808928Y-132752380D01*
X176951785Y-133752380D02*
X176951785Y-132752380D01*
X176618452Y-133466666D01*
X176285119Y-132752380D01*
X176285119Y-133752380D01*
X174475595Y-133657142D02*
X174523214Y-133704761D01*
X174666071Y-133752380D01*
X174761309Y-133752380D01*
X174904166Y-133704761D01*
X174999404Y-133609523D01*
X175047023Y-133514285D01*
X175094642Y-133323809D01*
X175094642Y-133180952D01*
X175047023Y-132990476D01*
X174999404Y-132895238D01*
X174904166Y-132800000D01*
X174761309Y-132752380D01*
X174666071Y-132752380D01*
X174523214Y-132800000D01*
X174475595Y-132847619D01*
X174094642Y-133466666D02*
X173618452Y-133466666D01*
X174189880Y-133752380D02*
X173856547Y-132752380D01*
X173523214Y-133752380D01*
X173189880Y-133752380D02*
X173189880Y-132752380D01*
X172808928Y-132752380D01*
X172713690Y-132800000D01*
X172666071Y-132847619D01*
X172618452Y-132942857D01*
X172618452Y-133085714D01*
X172666071Y-133180952D01*
X172713690Y-133228571D01*
X172808928Y-133276190D01*
X173189880Y-133276190D01*
X172189880Y-133657142D02*
X172142261Y-133704761D01*
X172189880Y-133752380D01*
X172237500Y-133704761D01*
X172189880Y-133657142D01*
X172189880Y-133752380D01*
X172189880Y-133133333D02*
X172142261Y-133180952D01*
X172189880Y-133228571D01*
X172237500Y-133180952D01*
X172189880Y-133133333D01*
X172189880Y-133228571D01*
X170761309Y-133276190D02*
X170761309Y-133752380D01*
X171094642Y-132752380D02*
X170761309Y-133276190D01*
X170427976Y-132752380D01*
X170094642Y-133228571D02*
X169761309Y-133228571D01*
X169618452Y-133752380D02*
X170094642Y-133752380D01*
X170094642Y-132752380D01*
X169618452Y-132752380D01*
X169237500Y-133466666D02*
X168761309Y-133466666D01*
X169332738Y-133752380D02*
X168999404Y-132752380D01*
X168666071Y-133752380D01*
X167761309Y-133752380D02*
X168094642Y-133276190D01*
X168332738Y-133752380D02*
X168332738Y-132752380D01*
X167951785Y-132752380D01*
X167856547Y-132800000D01*
X167808928Y-132847619D01*
X167761309Y-132942857D01*
X167761309Y-133085714D01*
X167808928Y-133180952D01*
X167856547Y-133228571D01*
X167951785Y-133276190D01*
X168332738Y-133276190D01*
X166856547Y-133752380D02*
X167332738Y-133752380D01*
X167332738Y-132752380D01*
X166523214Y-133752380D02*
X166523214Y-132752380D01*
X166047023Y-133752380D02*
X166047023Y-132752380D01*
X165475595Y-133752380D01*
X165475595Y-132752380D01*
X164475595Y-132800000D02*
X164570833Y-132752380D01*
X164713690Y-132752380D01*
X164856547Y-132800000D01*
X164951785Y-132895238D01*
X164999404Y-132990476D01*
X165047023Y-133180952D01*
X165047023Y-133323809D01*
X164999404Y-133514285D01*
X164951785Y-133609523D01*
X164856547Y-133704761D01*
X164713690Y-133752380D01*
X164618452Y-133752380D01*
X164475595Y-133704761D01*
X164427976Y-133657142D01*
X164427976Y-133323809D01*
X164618452Y-133323809D01*
X163237500Y-133752380D02*
X163237500Y-132752380D01*
X162666071Y-133752380D02*
X163094642Y-133180952D01*
X162666071Y-132752380D02*
X163237500Y-133323809D01*
X162237500Y-133752380D02*
X162237500Y-132752380D01*
X161904166Y-132752380D02*
X161332738Y-132752380D01*
X161618452Y-133752380D02*
X161618452Y-132752380D01*
X125212022Y-117826667D02*
X124735832Y-117826667D01*
X125307260Y-118112381D02*
X124973927Y-117112381D01*
X124640594Y-118112381D01*
X124307260Y-118112381D02*
X124307260Y-117112381D01*
X124069165Y-117112381D01*
X123926308Y-117160001D01*
X123831070Y-117255239D01*
X123783451Y-117350477D01*
X123735832Y-117540953D01*
X123735832Y-117683810D01*
X123783451Y-117874286D01*
X123831070Y-117969524D01*
X123926308Y-118064762D01*
X124069165Y-118112381D01*
X124307260Y-118112381D01*
X122735832Y-118017143D02*
X122783451Y-118064762D01*
X122926308Y-118112381D01*
X123021546Y-118112381D01*
X123164403Y-118064762D01*
X123259641Y-117969524D01*
X123307260Y-117874286D01*
X123354879Y-117683810D01*
X123354879Y-117540953D01*
X123307260Y-117350477D01*
X123259641Y-117255239D01*
X123164403Y-117160001D01*
X123021546Y-117112381D01*
X122926308Y-117112381D01*
X122783451Y-117160001D01*
X122735832Y-117207620D01*
X121545356Y-118112381D02*
X121545356Y-117112381D01*
X121116784Y-117207620D02*
X121069165Y-117160001D01*
X120973927Y-117112381D01*
X120735832Y-117112381D01*
X120640594Y-117160001D01*
X120592975Y-117207620D01*
X120545356Y-117302858D01*
X120545356Y-117398096D01*
X120592975Y-117540953D01*
X121164403Y-118112381D01*
X120545356Y-118112381D01*
X119545356Y-118017143D02*
X119592975Y-118064762D01*
X119735832Y-118112381D01*
X119831070Y-118112381D01*
X119973927Y-118064762D01*
X120069165Y-117969524D01*
X120116784Y-117874286D01*
X120164403Y-117683810D01*
X120164403Y-117540953D01*
X120116784Y-117350477D01*
X120069165Y-117255239D01*
X119973927Y-117160001D01*
X119831070Y-117112381D01*
X119735832Y-117112381D01*
X119592975Y-117160001D01*
X119545356Y-117207620D01*
X119116784Y-118017143D02*
X119069165Y-118064762D01*
X119116784Y-118112381D01*
X119164403Y-118064762D01*
X119116784Y-118017143D01*
X119116784Y-118112381D01*
X119116784Y-117493334D02*
X119069165Y-117540953D01*
X119116784Y-117588572D01*
X119164403Y-117540953D01*
X119116784Y-117493334D01*
X119116784Y-117588572D01*
X124878689Y-118722381D02*
X124878689Y-119436667D01*
X124926308Y-119579524D01*
X125021546Y-119674762D01*
X125164403Y-119722381D01*
X125259641Y-119722381D01*
X124402499Y-119722381D02*
X124402499Y-118722381D01*
X124021546Y-118722381D01*
X123926308Y-118770001D01*
X123878689Y-118817620D01*
X123831070Y-118912858D01*
X123831070Y-119055715D01*
X123878689Y-119150953D01*
X123926308Y-119198572D01*
X124021546Y-119246191D01*
X124402499Y-119246191D01*
X122878689Y-119722381D02*
X123450118Y-119722381D01*
X123164403Y-119722381D02*
X123164403Y-118722381D01*
X123259641Y-118865239D01*
X123354879Y-118960477D01*
X123450118Y-119008096D01*
X121497737Y-118722381D02*
X121307260Y-118722381D01*
X121212022Y-118770001D01*
X121116784Y-118865239D01*
X121069165Y-119055715D01*
X121069165Y-119389048D01*
X121116784Y-119579524D01*
X121212022Y-119674762D01*
X121307260Y-119722381D01*
X121497737Y-119722381D01*
X121592975Y-119674762D01*
X121688213Y-119579524D01*
X121735832Y-119389048D01*
X121735832Y-119055715D01*
X121688213Y-118865239D01*
X121592975Y-118770001D01*
X121497737Y-118722381D01*
X120640594Y-119055715D02*
X120640594Y-120055715D01*
X120640594Y-119103334D02*
X120545356Y-119055715D01*
X120354879Y-119055715D01*
X120259641Y-119103334D01*
X120212022Y-119150953D01*
X120164403Y-119246191D01*
X120164403Y-119531905D01*
X120212022Y-119627143D01*
X120259641Y-119674762D01*
X120354879Y-119722381D01*
X120545356Y-119722381D01*
X120640594Y-119674762D01*
X119354879Y-119674762D02*
X119450118Y-119722381D01*
X119640594Y-119722381D01*
X119735832Y-119674762D01*
X119783451Y-119579524D01*
X119783451Y-119198572D01*
X119735832Y-119103334D01*
X119640594Y-119055715D01*
X119450118Y-119055715D01*
X119354879Y-119103334D01*
X119307260Y-119198572D01*
X119307260Y-119293810D01*
X119783451Y-119389048D01*
X118878689Y-119055715D02*
X118878689Y-119722381D01*
X118878689Y-119150953D02*
X118831070Y-119103334D01*
X118735832Y-119055715D01*
X118592975Y-119055715D01*
X118497737Y-119103334D01*
X118450118Y-119198572D01*
X118450118Y-119722381D01*
X116926308Y-120103334D02*
X116973927Y-120055715D01*
X117069165Y-119912858D01*
X117116784Y-119817620D01*
X117164403Y-119674762D01*
X117212022Y-119436667D01*
X117212022Y-119246191D01*
X117164403Y-119008096D01*
X117116784Y-118865239D01*
X117069165Y-118770001D01*
X116973927Y-118627143D01*
X116926308Y-118579524D01*
X116545356Y-119722381D02*
X116545356Y-118722381D01*
X116307260Y-118722381D01*
X116164403Y-118770001D01*
X116069165Y-118865239D01*
X116021546Y-118960477D01*
X115973927Y-119150953D01*
X115973927Y-119293810D01*
X116021546Y-119484286D01*
X116069165Y-119579524D01*
X116164403Y-119674762D01*
X116307260Y-119722381D01*
X116545356Y-119722381D01*
X115164403Y-119674762D02*
X115259641Y-119722381D01*
X115450118Y-119722381D01*
X115545356Y-119674762D01*
X115592975Y-119579524D01*
X115592975Y-119198572D01*
X115545356Y-119103334D01*
X115450118Y-119055715D01*
X115259641Y-119055715D01*
X115164403Y-119103334D01*
X115116784Y-119198572D01*
X115116784Y-119293810D01*
X115592975Y-119389048D01*
X114831070Y-119055715D02*
X114450118Y-119055715D01*
X114688213Y-119722381D02*
X114688213Y-118865239D01*
X114640594Y-118770001D01*
X114545356Y-118722381D01*
X114450118Y-118722381D01*
X113735832Y-119674762D02*
X113831070Y-119722381D01*
X114021546Y-119722381D01*
X114116784Y-119674762D01*
X114164403Y-119579524D01*
X114164403Y-119198572D01*
X114116784Y-119103334D01*
X114021546Y-119055715D01*
X113831070Y-119055715D01*
X113735832Y-119103334D01*
X113688213Y-119198572D01*
X113688213Y-119293810D01*
X114164403Y-119389048D01*
X112831070Y-119055715D02*
X112831070Y-119722381D01*
X113259641Y-119055715D02*
X113259641Y-119579524D01*
X113212022Y-119674762D01*
X113116784Y-119722381D01*
X112973927Y-119722381D01*
X112878689Y-119674762D01*
X112831070Y-119627143D01*
X112212022Y-119722381D02*
X112307260Y-119674762D01*
X112354879Y-119579524D01*
X112354879Y-118722381D01*
X111973927Y-119055715D02*
X111592975Y-119055715D01*
X111831070Y-118722381D02*
X111831070Y-119579524D01*
X111783451Y-119674762D01*
X111688213Y-119722381D01*
X111592975Y-119722381D01*
X111354879Y-120103334D02*
X111307260Y-120055715D01*
X111212022Y-119912858D01*
X111164403Y-119817620D01*
X111116784Y-119674762D01*
X111069165Y-119436667D01*
X111069165Y-119246191D01*
X111116784Y-119008096D01*
X111164403Y-118865239D01*
X111212022Y-118770001D01*
X111307260Y-118627143D01*
X111354879Y-118579524D01*
X110592975Y-119627143D02*
X110545356Y-119674762D01*
X110592975Y-119722381D01*
X110640594Y-119674762D01*
X110592975Y-119627143D01*
X110592975Y-119722381D01*
X110592975Y-119103334D02*
X110545356Y-119150953D01*
X110592975Y-119198572D01*
X110640594Y-119150953D01*
X110592975Y-119103334D01*
X110592975Y-119198572D01*
X109164403Y-118722381D02*
X109069165Y-118722381D01*
X108973927Y-118770001D01*
X108926308Y-118817620D01*
X108878689Y-118912858D01*
X108831070Y-119103334D01*
X108831070Y-119341429D01*
X108878689Y-119531905D01*
X108926308Y-119627143D01*
X108973927Y-119674762D01*
X109069165Y-119722381D01*
X109164403Y-119722381D01*
X109259641Y-119674762D01*
X109307260Y-119627143D01*
X109354879Y-119531905D01*
X109402499Y-119341429D01*
X109402499Y-119103334D01*
X109354879Y-118912858D01*
X109307260Y-118817620D01*
X109259641Y-118770001D01*
X109164403Y-118722381D01*
X108497737Y-119722381D02*
X107973927Y-119055715D01*
X108497737Y-119055715D02*
X107973927Y-119722381D01*
X107164403Y-119055715D02*
X107164403Y-119722381D01*
X107402499Y-118674762D02*
X107640594Y-119389048D01*
X107021546Y-119389048D01*
X106497737Y-119150953D02*
X106592975Y-119103334D01*
X106640594Y-119055715D01*
X106688213Y-118960477D01*
X106688213Y-118912858D01*
X106640594Y-118817620D01*
X106592975Y-118770001D01*
X106497737Y-118722381D01*
X106307260Y-118722381D01*
X106212022Y-118770001D01*
X106164403Y-118817620D01*
X106116784Y-118912858D01*
X106116784Y-118960477D01*
X106164403Y-119055715D01*
X106212022Y-119103334D01*
X106307260Y-119150953D01*
X106497737Y-119150953D01*
X106592975Y-119198572D01*
X106640594Y-119246191D01*
X106688213Y-119341429D01*
X106688213Y-119531905D01*
X106640594Y-119627143D01*
X106592975Y-119674762D01*
X106497737Y-119722381D01*
X106307260Y-119722381D01*
X106212022Y-119674762D01*
X106164403Y-119627143D01*
X106116784Y-119531905D01*
X106116784Y-119341429D01*
X106164403Y-119246191D01*
X106212022Y-119198572D01*
X106307260Y-119150953D01*
X124878689Y-120332381D02*
X124878689Y-121046667D01*
X124926308Y-121189524D01*
X125021546Y-121284762D01*
X125164403Y-121332381D01*
X125259641Y-121332381D01*
X124402499Y-121332381D02*
X124402499Y-120332381D01*
X124021546Y-120332381D01*
X123926308Y-120380001D01*
X123878689Y-120427620D01*
X123831070Y-120522858D01*
X123831070Y-120665715D01*
X123878689Y-120760953D01*
X123926308Y-120808572D01*
X124021546Y-120856191D01*
X124402499Y-120856191D01*
X122878689Y-121332381D02*
X123450118Y-121332381D01*
X123164403Y-121332381D02*
X123164403Y-120332381D01*
X123259641Y-120475239D01*
X123354879Y-120570477D01*
X123450118Y-120618096D01*
X121735832Y-121284762D02*
X121592975Y-121332381D01*
X121354879Y-121332381D01*
X121259641Y-121284762D01*
X121212022Y-121237143D01*
X121164403Y-121141905D01*
X121164403Y-121046667D01*
X121212022Y-120951429D01*
X121259641Y-120903810D01*
X121354879Y-120856191D01*
X121545356Y-120808572D01*
X121640594Y-120760953D01*
X121688213Y-120713334D01*
X121735832Y-120618096D01*
X121735832Y-120522858D01*
X121688213Y-120427620D01*
X121640594Y-120380001D01*
X121545356Y-120332381D01*
X121307260Y-120332381D01*
X121164403Y-120380001D01*
X120592975Y-121332381D02*
X120688213Y-121284762D01*
X120735832Y-121237143D01*
X120783451Y-121141905D01*
X120783451Y-120856191D01*
X120735832Y-120760953D01*
X120688213Y-120713334D01*
X120592975Y-120665715D01*
X120450118Y-120665715D01*
X120354879Y-120713334D01*
X120307260Y-120760953D01*
X120259641Y-120856191D01*
X120259641Y-121141905D01*
X120307260Y-121237143D01*
X120354879Y-121284762D01*
X120450118Y-121332381D01*
X120592975Y-121332381D01*
X119688213Y-121332381D02*
X119783451Y-121284762D01*
X119831070Y-121189524D01*
X119831070Y-120332381D01*
X118878689Y-121332381D02*
X118878689Y-120332381D01*
X118878689Y-121284762D02*
X118973927Y-121332381D01*
X119164403Y-121332381D01*
X119259641Y-121284762D01*
X119307260Y-121237143D01*
X119354879Y-121141905D01*
X119354879Y-120856191D01*
X119307260Y-120760953D01*
X119259641Y-120713334D01*
X119164403Y-120665715D01*
X118973927Y-120665715D01*
X118878689Y-120713334D01*
X118021546Y-121284762D02*
X118116784Y-121332381D01*
X118307260Y-121332381D01*
X118402499Y-121284762D01*
X118450118Y-121189524D01*
X118450118Y-120808572D01*
X118402499Y-120713334D01*
X118307260Y-120665715D01*
X118116784Y-120665715D01*
X118021546Y-120713334D01*
X117973927Y-120808572D01*
X117973927Y-120903810D01*
X118450118Y-120999048D01*
X117545356Y-121332381D02*
X117545356Y-120665715D01*
X117545356Y-120856191D02*
X117497737Y-120760953D01*
X117450118Y-120713334D01*
X117354879Y-120665715D01*
X117259641Y-120665715D01*
X115878689Y-120332381D02*
X115878689Y-121046667D01*
X115926308Y-121189524D01*
X116021546Y-121284762D01*
X116164403Y-121332381D01*
X116259641Y-121332381D01*
X114973927Y-120665715D02*
X114973927Y-121332381D01*
X115402499Y-120665715D02*
X115402499Y-121189524D01*
X115354879Y-121284762D01*
X115259641Y-121332381D01*
X115116784Y-121332381D01*
X115021546Y-121284762D01*
X114973927Y-121237143D01*
X114497737Y-121332381D02*
X114497737Y-120665715D01*
X114497737Y-120760953D02*
X114450118Y-120713334D01*
X114354879Y-120665715D01*
X114212022Y-120665715D01*
X114116784Y-120713334D01*
X114069165Y-120808572D01*
X114069165Y-121332381D01*
X114069165Y-120808572D02*
X114021546Y-120713334D01*
X113926308Y-120665715D01*
X113783451Y-120665715D01*
X113688213Y-120713334D01*
X113640594Y-120808572D01*
X113640594Y-121332381D01*
X113164403Y-120665715D02*
X113164403Y-121665715D01*
X113164403Y-120713334D02*
X113069165Y-120665715D01*
X112878689Y-120665715D01*
X112783451Y-120713334D01*
X112735832Y-120760953D01*
X112688213Y-120856191D01*
X112688213Y-121141905D01*
X112735832Y-121237143D01*
X112783451Y-121284762D01*
X112878689Y-121332381D01*
X113069165Y-121332381D01*
X113164403Y-121284762D01*
X111878689Y-121284762D02*
X111973927Y-121332381D01*
X112164403Y-121332381D01*
X112259641Y-121284762D01*
X112307260Y-121189524D01*
X112307260Y-120808572D01*
X112259641Y-120713334D01*
X112164403Y-120665715D01*
X111973927Y-120665715D01*
X111878689Y-120713334D01*
X111831070Y-120808572D01*
X111831070Y-120903810D01*
X112307260Y-120999048D01*
X110973927Y-121332381D02*
X110973927Y-120332381D01*
X110973927Y-121284762D02*
X111069165Y-121332381D01*
X111259641Y-121332381D01*
X111354879Y-121284762D01*
X111402499Y-121237143D01*
X111450118Y-121141905D01*
X111450118Y-120856191D01*
X111402499Y-120760953D01*
X111354879Y-120713334D01*
X111259641Y-120665715D01*
X111069165Y-120665715D01*
X110973927Y-120713334D01*
X110497737Y-121237143D02*
X110450118Y-121284762D01*
X110497737Y-121332381D01*
X110545356Y-121284762D01*
X110497737Y-121237143D01*
X110497737Y-121332381D01*
X110497737Y-120713334D02*
X110450118Y-120760953D01*
X110497737Y-120808572D01*
X110545356Y-120760953D01*
X110497737Y-120713334D01*
X110497737Y-120808572D01*
X109069165Y-120332381D02*
X108973927Y-120332381D01*
X108878689Y-120380001D01*
X108831070Y-120427620D01*
X108783451Y-120522858D01*
X108735832Y-120713334D01*
X108735832Y-120951429D01*
X108783451Y-121141905D01*
X108831070Y-121237143D01*
X108878689Y-121284762D01*
X108973927Y-121332381D01*
X109069165Y-121332381D01*
X109164403Y-121284762D01*
X109212022Y-121237143D01*
X109259641Y-121141905D01*
X109307260Y-120951429D01*
X109307260Y-120713334D01*
X109259641Y-120522858D01*
X109212022Y-120427620D01*
X109164403Y-120380001D01*
X109069165Y-120332381D01*
X108402499Y-121332381D02*
X107878689Y-120665715D01*
X108402499Y-120665715D02*
X107878689Y-121332381D01*
X107069165Y-120665715D02*
X107069165Y-121332381D01*
X107307260Y-120284762D02*
X107545356Y-120999048D01*
X106926308Y-120999048D01*
X106497737Y-121332381D02*
X106307260Y-121332381D01*
X106212022Y-121284762D01*
X106164403Y-121237143D01*
X106069165Y-121094286D01*
X106021546Y-120903810D01*
X106021546Y-120522858D01*
X106069165Y-120427620D01*
X106116784Y-120380001D01*
X106212022Y-120332381D01*
X106402499Y-120332381D01*
X106497737Y-120380001D01*
X106545356Y-120427620D01*
X106592975Y-120522858D01*
X106592975Y-120760953D01*
X106545356Y-120856191D01*
X106497737Y-120903810D01*
X106402499Y-120951429D01*
X106212022Y-120951429D01*
X106116784Y-120903810D01*
X106069165Y-120856191D01*
X106021546Y-120760953D01*
D12*
X118687142Y-94912857D02*
X118739523Y-94965238D01*
X118896666Y-95017619D01*
X119001428Y-95017619D01*
X119158571Y-94965238D01*
X119263333Y-94860476D01*
X119315714Y-94755714D01*
X119368095Y-94546190D01*
X119368095Y-94389047D01*
X119315714Y-94179523D01*
X119263333Y-94074761D01*
X119158571Y-93970000D01*
X119001428Y-93917619D01*
X118896666Y-93917619D01*
X118739523Y-93970000D01*
X118687142Y-94022380D01*
X118215714Y-95017619D02*
X118215714Y-93917619D01*
X118215714Y-94441428D02*
X117587142Y-94441428D01*
X117587142Y-95017619D02*
X117587142Y-93917619D01*
X117063333Y-94441428D02*
X116696666Y-94441428D01*
X116539523Y-95017619D02*
X117063333Y-95017619D01*
X117063333Y-93917619D01*
X116539523Y-93917619D01*
X116120476Y-94703333D02*
X115596666Y-94703333D01*
X116225238Y-95017619D02*
X115858571Y-93917619D01*
X115491904Y-95017619D01*
X115282380Y-93917619D02*
X114653809Y-93917619D01*
X114968095Y-95017619D02*
X114968095Y-93917619D01*
X113501428Y-94965238D02*
X113344285Y-95017619D01*
X113082380Y-95017619D01*
X112977619Y-94965238D01*
X112925238Y-94912857D01*
X112872857Y-94808095D01*
X112872857Y-94703333D01*
X112925238Y-94598571D01*
X112977619Y-94546190D01*
X113082380Y-94493809D01*
X113291904Y-94441428D01*
X113396666Y-94389047D01*
X113449047Y-94336666D01*
X113501428Y-94231904D01*
X113501428Y-94127142D01*
X113449047Y-94022380D01*
X113396666Y-93970000D01*
X113291904Y-93917619D01*
X113030000Y-93917619D01*
X112872857Y-93970000D01*
X112401428Y-95017619D02*
X112401428Y-93917619D01*
X112401428Y-94441428D02*
X111772857Y-94441428D01*
X111772857Y-95017619D02*
X111772857Y-93917619D01*
X111249047Y-94441428D02*
X110882380Y-94441428D01*
X110725238Y-95017619D02*
X111249047Y-95017619D01*
X111249047Y-93917619D01*
X110725238Y-93917619D01*
X110253809Y-94441428D02*
X109887142Y-94441428D01*
X109730000Y-95017619D02*
X110253809Y-95017619D01*
X110253809Y-93917619D01*
X109730000Y-93917619D01*
X109415714Y-93917619D02*
X108787142Y-93917619D01*
X109101428Y-95017619D02*
X109101428Y-93917619D01*
D11*
X130244285Y-125532380D02*
X130244285Y-124532380D01*
X129863333Y-124532380D01*
X129768095Y-124580000D01*
X129720476Y-124627619D01*
X129672857Y-124722857D01*
X129672857Y-124865714D01*
X129720476Y-124960952D01*
X129768095Y-125008571D01*
X129863333Y-125056190D01*
X130244285Y-125056190D01*
X129244285Y-125532380D02*
X129244285Y-124865714D01*
X129244285Y-125056190D02*
X129196666Y-124960952D01*
X129149047Y-124913333D01*
X129053809Y-124865714D01*
X128958571Y-124865714D01*
X128482380Y-125532380D02*
X128577619Y-125484761D01*
X128625238Y-125437142D01*
X128672857Y-125341904D01*
X128672857Y-125056190D01*
X128625238Y-124960952D01*
X128577619Y-124913333D01*
X128482380Y-124865714D01*
X128339523Y-124865714D01*
X128244285Y-124913333D01*
X128196666Y-124960952D01*
X128149047Y-125056190D01*
X128149047Y-125341904D01*
X128196666Y-125437142D01*
X128244285Y-125484761D01*
X128339523Y-125532380D01*
X128482380Y-125532380D01*
X127101428Y-124532380D02*
X126530000Y-124532380D01*
X126815714Y-125532380D02*
X126815714Y-124532380D01*
X126196666Y-125532380D02*
X126196666Y-124865714D01*
X126196666Y-124532380D02*
X126244285Y-124580000D01*
X126196666Y-124627619D01*
X126149047Y-124580000D01*
X126196666Y-124532380D01*
X126196666Y-124627619D01*
X125720476Y-124865714D02*
X125720476Y-125865714D01*
X125720476Y-124913333D02*
X125625238Y-124865714D01*
X125434761Y-124865714D01*
X125339523Y-124913333D01*
X125291904Y-124960952D01*
X125244285Y-125056190D01*
X125244285Y-125341904D01*
X125291904Y-125437142D01*
X125339523Y-125484761D01*
X125434761Y-125532380D01*
X125625238Y-125532380D01*
X125720476Y-125484761D01*
X124815714Y-125437142D02*
X124768095Y-125484761D01*
X124815714Y-125532380D01*
X124863333Y-125484761D01*
X124815714Y-125437142D01*
X124815714Y-125532380D01*
X124815714Y-124913333D02*
X124768095Y-124960952D01*
X124815714Y-125008571D01*
X124863333Y-124960952D01*
X124815714Y-124913333D01*
X124815714Y-125008571D01*
X142339523Y-126142380D02*
X141768095Y-126142380D01*
X142053809Y-127142380D02*
X142053809Y-126142380D01*
X141053809Y-127094761D02*
X141149047Y-127142380D01*
X141339523Y-127142380D01*
X141434761Y-127094761D01*
X141482380Y-126999523D01*
X141482380Y-126618571D01*
X141434761Y-126523333D01*
X141339523Y-126475714D01*
X141149047Y-126475714D01*
X141053809Y-126523333D01*
X141006190Y-126618571D01*
X141006190Y-126713809D01*
X141482380Y-126809047D01*
X140625238Y-127094761D02*
X140530000Y-127142380D01*
X140339523Y-127142380D01*
X140244285Y-127094761D01*
X140196666Y-126999523D01*
X140196666Y-126951904D01*
X140244285Y-126856666D01*
X140339523Y-126809047D01*
X140482380Y-126809047D01*
X140577619Y-126761428D01*
X140625238Y-126666190D01*
X140625238Y-126618571D01*
X140577619Y-126523333D01*
X140482380Y-126475714D01*
X140339523Y-126475714D01*
X140244285Y-126523333D01*
X139910952Y-126475714D02*
X139530000Y-126475714D01*
X139768095Y-126142380D02*
X139768095Y-126999523D01*
X139720476Y-127094761D01*
X139625238Y-127142380D01*
X139530000Y-127142380D01*
X138530000Y-126475714D02*
X138291904Y-127142380D01*
X138053809Y-126475714D02*
X138291904Y-127142380D01*
X138387142Y-127380476D01*
X138434761Y-127428095D01*
X138530000Y-127475714D01*
X137530000Y-127142380D02*
X137625238Y-127094761D01*
X137672857Y-127047142D01*
X137720476Y-126951904D01*
X137720476Y-126666190D01*
X137672857Y-126570952D01*
X137625238Y-126523333D01*
X137530000Y-126475714D01*
X137387142Y-126475714D01*
X137291904Y-126523333D01*
X137244285Y-126570952D01*
X137196666Y-126666190D01*
X137196666Y-126951904D01*
X137244285Y-127047142D01*
X137291904Y-127094761D01*
X137387142Y-127142380D01*
X137530000Y-127142380D01*
X136339523Y-126475714D02*
X136339523Y-127142380D01*
X136768095Y-126475714D02*
X136768095Y-126999523D01*
X136720476Y-127094761D01*
X136625238Y-127142380D01*
X136482380Y-127142380D01*
X136387142Y-127094761D01*
X136339523Y-127047142D01*
X135863333Y-127142380D02*
X135863333Y-126475714D01*
X135863333Y-126666190D02*
X135815714Y-126570952D01*
X135768095Y-126523333D01*
X135672857Y-126475714D01*
X135577619Y-126475714D01*
X134101428Y-127094761D02*
X134196666Y-127142380D01*
X134387142Y-127142380D01*
X134482380Y-127094761D01*
X134530000Y-126999523D01*
X134530000Y-126618571D01*
X134482380Y-126523333D01*
X134387142Y-126475714D01*
X134196666Y-126475714D01*
X134101428Y-126523333D01*
X134053809Y-126618571D01*
X134053809Y-126713809D01*
X134530000Y-126809047D01*
X133720476Y-127142380D02*
X133196666Y-126475714D01*
X133720476Y-126475714D02*
X133196666Y-127142380D01*
X132958571Y-126475714D02*
X132577619Y-126475714D01*
X132815714Y-126142380D02*
X132815714Y-126999523D01*
X132768095Y-127094761D01*
X132672857Y-127142380D01*
X132577619Y-127142380D01*
X131863333Y-127094761D02*
X131958571Y-127142380D01*
X132149047Y-127142380D01*
X132244285Y-127094761D01*
X132291904Y-126999523D01*
X132291904Y-126618571D01*
X132244285Y-126523333D01*
X132149047Y-126475714D01*
X131958571Y-126475714D01*
X131863333Y-126523333D01*
X131815714Y-126618571D01*
X131815714Y-126713809D01*
X132291904Y-126809047D01*
X131387142Y-127142380D02*
X131387142Y-126475714D01*
X131387142Y-126666190D02*
X131339523Y-126570952D01*
X131291904Y-126523333D01*
X131196666Y-126475714D01*
X131101428Y-126475714D01*
X130768095Y-126475714D02*
X130768095Y-127142380D01*
X130768095Y-126570952D02*
X130720476Y-126523333D01*
X130625238Y-126475714D01*
X130482380Y-126475714D01*
X130387142Y-126523333D01*
X130339523Y-126618571D01*
X130339523Y-127142380D01*
X129434761Y-127142380D02*
X129434761Y-126618571D01*
X129482380Y-126523333D01*
X129577619Y-126475714D01*
X129768095Y-126475714D01*
X129863333Y-126523333D01*
X129434761Y-127094761D02*
X129530000Y-127142380D01*
X129768095Y-127142380D01*
X129863333Y-127094761D01*
X129910952Y-126999523D01*
X129910952Y-126904285D01*
X129863333Y-126809047D01*
X129768095Y-126761428D01*
X129530000Y-126761428D01*
X129434761Y-126713809D01*
X128815714Y-127142380D02*
X128910952Y-127094761D01*
X128958571Y-126999523D01*
X128958571Y-126142380D01*
X127720476Y-127094761D02*
X127625238Y-127142380D01*
X127434761Y-127142380D01*
X127339523Y-127094761D01*
X127291904Y-126999523D01*
X127291904Y-126951904D01*
X127339523Y-126856666D01*
X127434761Y-126809047D01*
X127577619Y-126809047D01*
X127672857Y-126761428D01*
X127720476Y-126666190D01*
X127720476Y-126618571D01*
X127672857Y-126523333D01*
X127577619Y-126475714D01*
X127434761Y-126475714D01*
X127339523Y-126523333D01*
X126482380Y-127094761D02*
X126577619Y-127142380D01*
X126768095Y-127142380D01*
X126863333Y-127094761D01*
X126910952Y-126999523D01*
X126910952Y-126618571D01*
X126863333Y-126523333D01*
X126768095Y-126475714D01*
X126577619Y-126475714D01*
X126482380Y-126523333D01*
X126434761Y-126618571D01*
X126434761Y-126713809D01*
X126910952Y-126809047D01*
X126006190Y-126475714D02*
X126006190Y-127142380D01*
X126006190Y-126570952D02*
X125958571Y-126523333D01*
X125863333Y-126475714D01*
X125720476Y-126475714D01*
X125625238Y-126523333D01*
X125577619Y-126618571D01*
X125577619Y-127142380D01*
X125149047Y-127094761D02*
X125053809Y-127142380D01*
X124863333Y-127142380D01*
X124768095Y-127094761D01*
X124720476Y-126999523D01*
X124720476Y-126951904D01*
X124768095Y-126856666D01*
X124863333Y-126809047D01*
X125006190Y-126809047D01*
X125101428Y-126761428D01*
X125149047Y-126666190D01*
X125149047Y-126618571D01*
X125101428Y-126523333D01*
X125006190Y-126475714D01*
X124863333Y-126475714D01*
X124768095Y-126523333D01*
X124149047Y-127142380D02*
X124244285Y-127094761D01*
X124291904Y-127047142D01*
X124339523Y-126951904D01*
X124339523Y-126666190D01*
X124291904Y-126570952D01*
X124244285Y-126523333D01*
X124149047Y-126475714D01*
X124006190Y-126475714D01*
X123910952Y-126523333D01*
X123863333Y-126570952D01*
X123815714Y-126666190D01*
X123815714Y-126951904D01*
X123863333Y-127047142D01*
X123910952Y-127094761D01*
X124006190Y-127142380D01*
X124149047Y-127142380D01*
X123387142Y-127142380D02*
X123387142Y-126475714D01*
X123387142Y-126666190D02*
X123339523Y-126570952D01*
X123291904Y-126523333D01*
X123196666Y-126475714D01*
X123101428Y-126475714D01*
X122815714Y-127094761D02*
X122720476Y-127142380D01*
X122530000Y-127142380D01*
X122434761Y-127094761D01*
X122387142Y-126999523D01*
X122387142Y-126951904D01*
X122434761Y-126856666D01*
X122530000Y-126809047D01*
X122672857Y-126809047D01*
X122768095Y-126761428D01*
X122815714Y-126666190D01*
X122815714Y-126618571D01*
X122768095Y-126523333D01*
X122672857Y-126475714D01*
X122530000Y-126475714D01*
X122434761Y-126523333D01*
X121196666Y-127142380D02*
X121196666Y-126142380D01*
X121196666Y-126523333D02*
X121101428Y-126475714D01*
X120910952Y-126475714D01*
X120815714Y-126523333D01*
X120768095Y-126570952D01*
X120720476Y-126666190D01*
X120720476Y-126951904D01*
X120768095Y-127047142D01*
X120815714Y-127094761D01*
X120910952Y-127142380D01*
X121101428Y-127142380D01*
X121196666Y-127094761D01*
X119910952Y-127094761D02*
X120006190Y-127142380D01*
X120196666Y-127142380D01*
X120291904Y-127094761D01*
X120339523Y-126999523D01*
X120339523Y-126618571D01*
X120291904Y-126523333D01*
X120196666Y-126475714D01*
X120006190Y-126475714D01*
X119910952Y-126523333D01*
X119863333Y-126618571D01*
X119863333Y-126713809D01*
X120339523Y-126809047D01*
X119577619Y-126475714D02*
X119196666Y-126475714D01*
X119434761Y-127142380D02*
X119434761Y-126285238D01*
X119387142Y-126190000D01*
X119291904Y-126142380D01*
X119196666Y-126142380D01*
X118720476Y-127142380D02*
X118815714Y-127094761D01*
X118863333Y-127047142D01*
X118910952Y-126951904D01*
X118910952Y-126666190D01*
X118863333Y-126570952D01*
X118815714Y-126523333D01*
X118720476Y-126475714D01*
X118577619Y-126475714D01*
X118482380Y-126523333D01*
X118434761Y-126570952D01*
X118387142Y-126666190D01*
X118387142Y-126951904D01*
X118434761Y-127047142D01*
X118482380Y-127094761D01*
X118577619Y-127142380D01*
X118720476Y-127142380D01*
X117958571Y-127142380D02*
X117958571Y-126475714D01*
X117958571Y-126666190D02*
X117910952Y-126570952D01*
X117863333Y-126523333D01*
X117768095Y-126475714D01*
X117672857Y-126475714D01*
X116958571Y-127094761D02*
X117053809Y-127142380D01*
X117244285Y-127142380D01*
X117339523Y-127094761D01*
X117387142Y-126999523D01*
X117387142Y-126618571D01*
X117339523Y-126523333D01*
X117244285Y-126475714D01*
X117053809Y-126475714D01*
X116958571Y-126523333D01*
X116910952Y-126618571D01*
X116910952Y-126713809D01*
X117387142Y-126809047D01*
X115815714Y-126475714D02*
X115577619Y-127142380D01*
X115339523Y-126475714D02*
X115577619Y-127142380D01*
X115672857Y-127380476D01*
X115720476Y-127428095D01*
X115815714Y-127475714D01*
X114815714Y-127142380D02*
X114910952Y-127094761D01*
X114958571Y-127047142D01*
X115006190Y-126951904D01*
X115006190Y-126666190D01*
X114958571Y-126570952D01*
X114910952Y-126523333D01*
X114815714Y-126475714D01*
X114672857Y-126475714D01*
X114577619Y-126523333D01*
X114530000Y-126570952D01*
X114482380Y-126666190D01*
X114482380Y-126951904D01*
X114530000Y-127047142D01*
X114577619Y-127094761D01*
X114672857Y-127142380D01*
X114815714Y-127142380D01*
X113625238Y-126475714D02*
X113625238Y-127142380D01*
X114053809Y-126475714D02*
X114053809Y-126999523D01*
X114006190Y-127094761D01*
X113910952Y-127142380D01*
X113768095Y-127142380D01*
X113672857Y-127094761D01*
X113625238Y-127047142D01*
X143268095Y-128752380D02*
X143268095Y-128085714D01*
X143268095Y-128276190D02*
X143220476Y-128180952D01*
X143172857Y-128133333D01*
X143077619Y-128085714D01*
X142982380Y-128085714D01*
X142268095Y-128704761D02*
X142363333Y-128752380D01*
X142553809Y-128752380D01*
X142649047Y-128704761D01*
X142696666Y-128609523D01*
X142696666Y-128228571D01*
X142649047Y-128133333D01*
X142553809Y-128085714D01*
X142363333Y-128085714D01*
X142268095Y-128133333D01*
X142220476Y-128228571D01*
X142220476Y-128323809D01*
X142696666Y-128419047D01*
X141934761Y-128085714D02*
X141553809Y-128085714D01*
X141791904Y-128752380D02*
X141791904Y-127895238D01*
X141744285Y-127800000D01*
X141649047Y-127752380D01*
X141553809Y-127752380D01*
X141077619Y-128752380D02*
X141172857Y-128704761D01*
X141220476Y-128609523D01*
X141220476Y-127752380D01*
X140553809Y-128752380D02*
X140649047Y-128704761D01*
X140696666Y-128657142D01*
X140744285Y-128561904D01*
X140744285Y-128276190D01*
X140696666Y-128180952D01*
X140649047Y-128133333D01*
X140553809Y-128085714D01*
X140410952Y-128085714D01*
X140315714Y-128133333D01*
X140268095Y-128180952D01*
X140220476Y-128276190D01*
X140220476Y-128561904D01*
X140268095Y-128657142D01*
X140315714Y-128704761D01*
X140410952Y-128752380D01*
X140553809Y-128752380D01*
X139887142Y-128085714D02*
X139696666Y-128752380D01*
X139506190Y-128276190D01*
X139315714Y-128752380D01*
X139125238Y-128085714D01*
X138125238Y-128085714D02*
X137744285Y-128085714D01*
X137982380Y-127752380D02*
X137982380Y-128609523D01*
X137934761Y-128704761D01*
X137839523Y-128752380D01*
X137744285Y-128752380D01*
X137410952Y-128752380D02*
X137410952Y-127752380D01*
X136982380Y-128752380D02*
X136982380Y-128228571D01*
X137030000Y-128133333D01*
X137125238Y-128085714D01*
X137268095Y-128085714D01*
X137363333Y-128133333D01*
X137410952Y-128180952D01*
X136125238Y-128704761D02*
X136220476Y-128752380D01*
X136410952Y-128752380D01*
X136506190Y-128704761D01*
X136553809Y-128609523D01*
X136553809Y-128228571D01*
X136506190Y-128133333D01*
X136410952Y-128085714D01*
X136220476Y-128085714D01*
X136125238Y-128133333D01*
X136077619Y-128228571D01*
X136077619Y-128323809D01*
X136553809Y-128419047D01*
X134934761Y-128704761D02*
X134791904Y-128752380D01*
X134553809Y-128752380D01*
X134458571Y-128704761D01*
X134410952Y-128657142D01*
X134363333Y-128561904D01*
X134363333Y-128466666D01*
X134410952Y-128371428D01*
X134458571Y-128323809D01*
X134553809Y-128276190D01*
X134744285Y-128228571D01*
X134839523Y-128180952D01*
X134887142Y-128133333D01*
X134934761Y-128038095D01*
X134934761Y-127942857D01*
X134887142Y-127847619D01*
X134839523Y-127800000D01*
X134744285Y-127752380D01*
X134506190Y-127752380D01*
X134363333Y-127800000D01*
X133791904Y-128752380D02*
X133887142Y-128704761D01*
X133934761Y-128657142D01*
X133982380Y-128561904D01*
X133982380Y-128276190D01*
X133934761Y-128180952D01*
X133887142Y-128133333D01*
X133791904Y-128085714D01*
X133649047Y-128085714D01*
X133553809Y-128133333D01*
X133506190Y-128180952D01*
X133458571Y-128276190D01*
X133458571Y-128561904D01*
X133506190Y-128657142D01*
X133553809Y-128704761D01*
X133649047Y-128752380D01*
X133791904Y-128752380D01*
X132887142Y-128752380D02*
X132982380Y-128704761D01*
X133030000Y-128609523D01*
X133030000Y-127752380D01*
X132077619Y-128752380D02*
X132077619Y-128228571D01*
X132125238Y-128133333D01*
X132220476Y-128085714D01*
X132410952Y-128085714D01*
X132506190Y-128133333D01*
X132077619Y-128704761D02*
X132172857Y-128752380D01*
X132410952Y-128752380D01*
X132506190Y-128704761D01*
X132553809Y-128609523D01*
X132553809Y-128514285D01*
X132506190Y-128419047D01*
X132410952Y-128371428D01*
X132172857Y-128371428D01*
X132077619Y-128323809D01*
X131601428Y-128752380D02*
X131601428Y-128085714D01*
X131601428Y-128276190D02*
X131553809Y-128180952D01*
X131506190Y-128133333D01*
X131410952Y-128085714D01*
X131315714Y-128085714D01*
X129649047Y-128657142D02*
X129696666Y-128704761D01*
X129839523Y-128752380D01*
X129934761Y-128752380D01*
X130077619Y-128704761D01*
X130172857Y-128609523D01*
X130220476Y-128514285D01*
X130268095Y-128323809D01*
X130268095Y-128180952D01*
X130220476Y-127990476D01*
X130172857Y-127895238D01*
X130077619Y-127800000D01*
X129934761Y-127752380D01*
X129839523Y-127752380D01*
X129696666Y-127800000D01*
X129649047Y-127847619D01*
X128839523Y-128704761D02*
X128934761Y-128752380D01*
X129125238Y-128752380D01*
X129220476Y-128704761D01*
X129268095Y-128609523D01*
X129268095Y-128228571D01*
X129220476Y-128133333D01*
X129125238Y-128085714D01*
X128934761Y-128085714D01*
X128839523Y-128133333D01*
X128791904Y-128228571D01*
X128791904Y-128323809D01*
X129268095Y-128419047D01*
X128220476Y-128752380D02*
X128315714Y-128704761D01*
X128363333Y-128609523D01*
X128363333Y-127752380D01*
X127696666Y-128752380D02*
X127791904Y-128704761D01*
X127839523Y-128609523D01*
X127839523Y-127752380D01*
X127363333Y-128704761D02*
X127268095Y-128752380D01*
X127077619Y-128752380D01*
X126982380Y-128704761D01*
X126934761Y-128609523D01*
X126934761Y-128561904D01*
X126982380Y-128466666D01*
X127077619Y-128419047D01*
X127220476Y-128419047D01*
X127315714Y-128371428D01*
X127363333Y-128276190D01*
X127363333Y-128228571D01*
X127315714Y-128133333D01*
X127220476Y-128085714D01*
X127077619Y-128085714D01*
X126982380Y-128133333D01*
X126506190Y-128657142D02*
X126458571Y-128704761D01*
X126506190Y-128752380D01*
X126553809Y-128704761D01*
X126506190Y-128657142D01*
X126506190Y-128752380D01*
X125410952Y-127752380D02*
X124839523Y-127752380D01*
X125125238Y-128752380D02*
X125125238Y-127752380D01*
X124506190Y-128752380D02*
X124506190Y-127752380D01*
X124077619Y-128752380D02*
X124077619Y-128228571D01*
X124125238Y-128133333D01*
X124220476Y-128085714D01*
X124363333Y-128085714D01*
X124458571Y-128133333D01*
X124506190Y-128180952D01*
X123220476Y-128704761D02*
X123315714Y-128752380D01*
X123506190Y-128752380D01*
X123601428Y-128704761D01*
X123649047Y-128609523D01*
X123649047Y-128228571D01*
X123601428Y-128133333D01*
X123506190Y-128085714D01*
X123315714Y-128085714D01*
X123220476Y-128133333D01*
X123172857Y-128228571D01*
X123172857Y-128323809D01*
X123649047Y-128419047D01*
X121410952Y-128657142D02*
X121458571Y-128704761D01*
X121601428Y-128752380D01*
X121696666Y-128752380D01*
X121839523Y-128704761D01*
X121934761Y-128609523D01*
X121982380Y-128514285D01*
X122030000Y-128323809D01*
X122030000Y-128180952D01*
X121982380Y-127990476D01*
X121934761Y-127895238D01*
X121839523Y-127800000D01*
X121696666Y-127752380D01*
X121601428Y-127752380D01*
X121458571Y-127800000D01*
X121410952Y-127847619D01*
X120601428Y-128704761D02*
X120696666Y-128752380D01*
X120887142Y-128752380D01*
X120982380Y-128704761D01*
X121030000Y-128609523D01*
X121030000Y-128228571D01*
X120982380Y-128133333D01*
X120887142Y-128085714D01*
X120696666Y-128085714D01*
X120601428Y-128133333D01*
X120553809Y-128228571D01*
X120553809Y-128323809D01*
X121030000Y-128419047D01*
X119982380Y-128752380D02*
X120077619Y-128704761D01*
X120125238Y-128609523D01*
X120125238Y-127752380D01*
X119458571Y-128752380D02*
X119553809Y-128704761D01*
X119601428Y-128609523D01*
X119601428Y-127752380D01*
X119125238Y-128704761D02*
X119030000Y-128752380D01*
X118839523Y-128752380D01*
X118744285Y-128704761D01*
X118696666Y-128609523D01*
X118696666Y-128561904D01*
X118744285Y-128466666D01*
X118839523Y-128419047D01*
X118982380Y-128419047D01*
X119077619Y-128371428D01*
X119125238Y-128276190D01*
X119125238Y-128228571D01*
X119077619Y-128133333D01*
X118982380Y-128085714D01*
X118839523Y-128085714D01*
X118744285Y-128133333D01*
X117077619Y-128752380D02*
X117077619Y-127752380D01*
X117077619Y-128704761D02*
X117172857Y-128752380D01*
X117363333Y-128752380D01*
X117458571Y-128704761D01*
X117506190Y-128657142D01*
X117553809Y-128561904D01*
X117553809Y-128276190D01*
X117506190Y-128180952D01*
X117458571Y-128133333D01*
X117363333Y-128085714D01*
X117172857Y-128085714D01*
X117077619Y-128133333D01*
X116458571Y-128752380D02*
X116553809Y-128704761D01*
X116601428Y-128657142D01*
X116649047Y-128561904D01*
X116649047Y-128276190D01*
X116601428Y-128180952D01*
X116553809Y-128133333D01*
X116458571Y-128085714D01*
X116315714Y-128085714D01*
X116220476Y-128133333D01*
X116172857Y-128180952D01*
X116125238Y-128276190D01*
X116125238Y-128561904D01*
X116172857Y-128657142D01*
X116220476Y-128704761D01*
X116315714Y-128752380D01*
X116458571Y-128752380D01*
X114934761Y-128752380D02*
X114934761Y-127752380D01*
X114363333Y-128752380D01*
X114363333Y-127752380D01*
X113696666Y-127752380D02*
X113506190Y-127752380D01*
X113410952Y-127800000D01*
X113315714Y-127895238D01*
X113268095Y-128085714D01*
X113268095Y-128419047D01*
X113315714Y-128609523D01*
X113410952Y-128704761D01*
X113506190Y-128752380D01*
X113696666Y-128752380D01*
X113791904Y-128704761D01*
X113887142Y-128609523D01*
X113934761Y-128419047D01*
X113934761Y-128085714D01*
X113887142Y-127895238D01*
X113791904Y-127800000D01*
X113696666Y-127752380D01*
X112982380Y-127752380D02*
X112410952Y-127752380D01*
X112696666Y-128752380D02*
X112696666Y-127752380D01*
X141887142Y-130362380D02*
X141982380Y-130314761D01*
X142030000Y-130219523D01*
X142030000Y-129362380D01*
X141506190Y-130362380D02*
X141506190Y-129695714D01*
X141506190Y-129362380D02*
X141553809Y-129410000D01*
X141506190Y-129457619D01*
X141458571Y-129410000D01*
X141506190Y-129362380D01*
X141506190Y-129457619D01*
X141030000Y-130362380D02*
X141030000Y-129362380D01*
X140934761Y-129981428D02*
X140649047Y-130362380D01*
X140649047Y-129695714D02*
X141030000Y-130076666D01*
X139839523Y-130314761D02*
X139934761Y-130362380D01*
X140125238Y-130362380D01*
X140220476Y-130314761D01*
X140268095Y-130219523D01*
X140268095Y-129838571D01*
X140220476Y-129743333D01*
X140125238Y-129695714D01*
X139934761Y-129695714D01*
X139839523Y-129743333D01*
X139791904Y-129838571D01*
X139791904Y-129933809D01*
X140268095Y-130029047D01*
X138744285Y-129695714D02*
X138363333Y-129695714D01*
X138601428Y-129362380D02*
X138601428Y-130219523D01*
X138553809Y-130314761D01*
X138458571Y-130362380D01*
X138363333Y-130362380D01*
X138030000Y-130362380D02*
X138030000Y-129362380D01*
X137601428Y-130362380D02*
X137601428Y-129838571D01*
X137649047Y-129743333D01*
X137744285Y-129695714D01*
X137887142Y-129695714D01*
X137982380Y-129743333D01*
X138030000Y-129790952D01*
X136744285Y-130314761D02*
X136839523Y-130362380D01*
X137030000Y-130362380D01*
X137125238Y-130314761D01*
X137172857Y-130219523D01*
X137172857Y-129838571D01*
X137125238Y-129743333D01*
X137030000Y-129695714D01*
X136839523Y-129695714D01*
X136744285Y-129743333D01*
X136696666Y-129838571D01*
X136696666Y-129933809D01*
X137172857Y-130029047D01*
X135506190Y-130362380D02*
X135506190Y-129362380D01*
X135506190Y-129838571D02*
X134934761Y-129838571D01*
X134934761Y-130362380D02*
X134934761Y-129362380D01*
X134077619Y-130314761D02*
X134172857Y-130362380D01*
X134363333Y-130362380D01*
X134458571Y-130314761D01*
X134506190Y-130219523D01*
X134506190Y-129838571D01*
X134458571Y-129743333D01*
X134363333Y-129695714D01*
X134172857Y-129695714D01*
X134077619Y-129743333D01*
X134030000Y-129838571D01*
X134030000Y-129933809D01*
X134506190Y-130029047D01*
X133172857Y-130362380D02*
X133172857Y-129838571D01*
X133220476Y-129743333D01*
X133315714Y-129695714D01*
X133506190Y-129695714D01*
X133601428Y-129743333D01*
X133172857Y-130314761D02*
X133268095Y-130362380D01*
X133506190Y-130362380D01*
X133601428Y-130314761D01*
X133649047Y-130219523D01*
X133649047Y-130124285D01*
X133601428Y-130029047D01*
X133506190Y-129981428D01*
X133268095Y-129981428D01*
X133172857Y-129933809D01*
X132839523Y-129695714D02*
X132458571Y-129695714D01*
X132696666Y-129362380D02*
X132696666Y-130219523D01*
X132649047Y-130314761D01*
X132553809Y-130362380D01*
X132458571Y-130362380D01*
X130839523Y-129410000D02*
X130934761Y-129362380D01*
X131077619Y-129362380D01*
X131220476Y-129410000D01*
X131315714Y-129505238D01*
X131363333Y-129600476D01*
X131410952Y-129790952D01*
X131410952Y-129933809D01*
X131363333Y-130124285D01*
X131315714Y-130219523D01*
X131220476Y-130314761D01*
X131077619Y-130362380D01*
X130982380Y-130362380D01*
X130839523Y-130314761D01*
X130791904Y-130267142D01*
X130791904Y-129933809D01*
X130982380Y-129933809D01*
X129934761Y-129695714D02*
X129934761Y-130362380D01*
X130363333Y-129695714D02*
X130363333Y-130219523D01*
X130315714Y-130314761D01*
X130220476Y-130362380D01*
X130077619Y-130362380D01*
X129982380Y-130314761D01*
X129934761Y-130267142D01*
X129458571Y-129695714D02*
X129458571Y-130362380D01*
X129458571Y-129790952D02*
X129410952Y-129743333D01*
X129315714Y-129695714D01*
X129172857Y-129695714D01*
X129077619Y-129743333D01*
X129030000Y-129838571D01*
X129030000Y-130362380D01*
X128553809Y-130267142D02*
X128506190Y-130314761D01*
X128553809Y-130362380D01*
X128601428Y-130314761D01*
X128553809Y-130267142D01*
X128553809Y-130362380D01*
X127363333Y-130314761D02*
X127220476Y-130362380D01*
X126982380Y-130362380D01*
X126887142Y-130314761D01*
X126839523Y-130267142D01*
X126791904Y-130171904D01*
X126791904Y-130076666D01*
X126839523Y-129981428D01*
X126887142Y-129933809D01*
X126982380Y-129886190D01*
X127172857Y-129838571D01*
X127268095Y-129790952D01*
X127315714Y-129743333D01*
X127363333Y-129648095D01*
X127363333Y-129552857D01*
X127315714Y-129457619D01*
X127268095Y-129410000D01*
X127172857Y-129362380D01*
X126934761Y-129362380D01*
X126791904Y-129410000D01*
X126363333Y-130362380D02*
X126363333Y-129362380D01*
X125934761Y-130362380D02*
X125934761Y-129838571D01*
X125982380Y-129743333D01*
X126077619Y-129695714D01*
X126220476Y-129695714D01*
X126315714Y-129743333D01*
X126363333Y-129790952D01*
X125458571Y-130362380D02*
X125458571Y-129695714D01*
X125458571Y-129362380D02*
X125506190Y-129410000D01*
X125458571Y-129457619D01*
X125410952Y-129410000D01*
X125458571Y-129362380D01*
X125458571Y-129457619D01*
X124601428Y-130314761D02*
X124696666Y-130362380D01*
X124887142Y-130362380D01*
X124982380Y-130314761D01*
X125030000Y-130219523D01*
X125030000Y-129838571D01*
X124982380Y-129743333D01*
X124887142Y-129695714D01*
X124696666Y-129695714D01*
X124601428Y-129743333D01*
X124553809Y-129838571D01*
X124553809Y-129933809D01*
X125030000Y-130029047D01*
X123982380Y-130362380D02*
X124077619Y-130314761D01*
X124125238Y-130219523D01*
X124125238Y-129362380D01*
X123172857Y-130362380D02*
X123172857Y-129362380D01*
X123172857Y-130314761D02*
X123268095Y-130362380D01*
X123458571Y-130362380D01*
X123553809Y-130314761D01*
X123601428Y-130267142D01*
X123649047Y-130171904D01*
X123649047Y-129886190D01*
X123601428Y-129790952D01*
X123553809Y-129743333D01*
X123458571Y-129695714D01*
X123268095Y-129695714D01*
X123172857Y-129743333D01*
X122077619Y-129695714D02*
X121696666Y-129695714D01*
X121934761Y-129362380D02*
X121934761Y-130219523D01*
X121887142Y-130314761D01*
X121791904Y-130362380D01*
X121696666Y-130362380D01*
X121363333Y-130362380D02*
X121363333Y-129362380D01*
X120934761Y-130362380D02*
X120934761Y-129838571D01*
X120982380Y-129743333D01*
X121077619Y-129695714D01*
X121220476Y-129695714D01*
X121315714Y-129743333D01*
X121363333Y-129790952D01*
X120077619Y-130314761D02*
X120172857Y-130362380D01*
X120363333Y-130362380D01*
X120458571Y-130314761D01*
X120506190Y-130219523D01*
X120506190Y-129838571D01*
X120458571Y-129743333D01*
X120363333Y-129695714D01*
X120172857Y-129695714D01*
X120077619Y-129743333D01*
X120030000Y-129838571D01*
X120030000Y-129933809D01*
X120506190Y-130029047D01*
X118268095Y-130267142D02*
X118315714Y-130314761D01*
X118458571Y-130362380D01*
X118553809Y-130362380D01*
X118696666Y-130314761D01*
X118791904Y-130219523D01*
X118839523Y-130124285D01*
X118887142Y-129933809D01*
X118887142Y-129790952D01*
X118839523Y-129600476D01*
X118791904Y-129505238D01*
X118696666Y-129410000D01*
X118553809Y-129362380D01*
X118458571Y-129362380D01*
X118315714Y-129410000D01*
X118268095Y-129457619D01*
X117458571Y-130314761D02*
X117553809Y-130362380D01*
X117744285Y-130362380D01*
X117839523Y-130314761D01*
X117887142Y-130219523D01*
X117887142Y-129838571D01*
X117839523Y-129743333D01*
X117744285Y-129695714D01*
X117553809Y-129695714D01*
X117458571Y-129743333D01*
X117410952Y-129838571D01*
X117410952Y-129933809D01*
X117887142Y-130029047D01*
X116839523Y-130362380D02*
X116934761Y-130314761D01*
X116982380Y-130219523D01*
X116982380Y-129362380D01*
X116315714Y-130362380D02*
X116410952Y-130314761D01*
X116458571Y-130219523D01*
X116458571Y-129362380D01*
X115982380Y-130314761D02*
X115887142Y-130362380D01*
X115696666Y-130362380D01*
X115601428Y-130314761D01*
X115553809Y-130219523D01*
X115553809Y-130171904D01*
X115601428Y-130076666D01*
X115696666Y-130029047D01*
X115839523Y-130029047D01*
X115934761Y-129981428D01*
X115982380Y-129886190D01*
X115982380Y-129838571D01*
X115934761Y-129743333D01*
X115839523Y-129695714D01*
X115696666Y-129695714D01*
X115601428Y-129743333D01*
X114363333Y-130362380D02*
X114363333Y-129695714D01*
X114363333Y-129362380D02*
X114410952Y-129410000D01*
X114363333Y-129457619D01*
X114315714Y-129410000D01*
X114363333Y-129362380D01*
X114363333Y-129457619D01*
X114030000Y-129695714D02*
X113649047Y-129695714D01*
X113887142Y-130362380D02*
X113887142Y-129505238D01*
X113839523Y-129410000D01*
X113744285Y-129362380D01*
X113649047Y-129362380D01*
X139244285Y-131305714D02*
X139006190Y-131972380D01*
X138768095Y-131305714D02*
X139006190Y-131972380D01*
X139101428Y-132210476D01*
X139149047Y-132258095D01*
X139244285Y-132305714D01*
X138244285Y-131972380D02*
X138339523Y-131924761D01*
X138387142Y-131877142D01*
X138434761Y-131781904D01*
X138434761Y-131496190D01*
X138387142Y-131400952D01*
X138339523Y-131353333D01*
X138244285Y-131305714D01*
X138101428Y-131305714D01*
X138006190Y-131353333D01*
X137958571Y-131400952D01*
X137910952Y-131496190D01*
X137910952Y-131781904D01*
X137958571Y-131877142D01*
X138006190Y-131924761D01*
X138101428Y-131972380D01*
X138244285Y-131972380D01*
X137053809Y-131305714D02*
X137053809Y-131972380D01*
X137482380Y-131305714D02*
X137482380Y-131829523D01*
X137434761Y-131924761D01*
X137339523Y-131972380D01*
X137196666Y-131972380D01*
X137101428Y-131924761D01*
X137053809Y-131877142D01*
X135815714Y-131305714D02*
X135815714Y-131972380D01*
X135815714Y-131400952D02*
X135768095Y-131353333D01*
X135672857Y-131305714D01*
X135530000Y-131305714D01*
X135434761Y-131353333D01*
X135387142Y-131448571D01*
X135387142Y-131972380D01*
X134530000Y-131924761D02*
X134625238Y-131972380D01*
X134815714Y-131972380D01*
X134910952Y-131924761D01*
X134958571Y-131829523D01*
X134958571Y-131448571D01*
X134910952Y-131353333D01*
X134815714Y-131305714D01*
X134625238Y-131305714D01*
X134530000Y-131353333D01*
X134482380Y-131448571D01*
X134482380Y-131543809D01*
X134958571Y-131639047D01*
X133672857Y-131924761D02*
X133768095Y-131972380D01*
X133958571Y-131972380D01*
X134053809Y-131924761D01*
X134101428Y-131829523D01*
X134101428Y-131448571D01*
X134053809Y-131353333D01*
X133958571Y-131305714D01*
X133768095Y-131305714D01*
X133672857Y-131353333D01*
X133625238Y-131448571D01*
X133625238Y-131543809D01*
X134101428Y-131639047D01*
X132768095Y-131972380D02*
X132768095Y-130972380D01*
X132768095Y-131924761D02*
X132863333Y-131972380D01*
X133053809Y-131972380D01*
X133149047Y-131924761D01*
X133196666Y-131877142D01*
X133244285Y-131781904D01*
X133244285Y-131496190D01*
X133196666Y-131400952D01*
X133149047Y-131353333D01*
X133053809Y-131305714D01*
X132863333Y-131305714D01*
X132768095Y-131353333D01*
X131672857Y-131305714D02*
X131291904Y-131305714D01*
X131530000Y-130972380D02*
X131530000Y-131829523D01*
X131482380Y-131924761D01*
X131387142Y-131972380D01*
X131291904Y-131972380D01*
X130815714Y-131972380D02*
X130910952Y-131924761D01*
X130958571Y-131877142D01*
X131006190Y-131781904D01*
X131006190Y-131496190D01*
X130958571Y-131400952D01*
X130910952Y-131353333D01*
X130815714Y-131305714D01*
X130672857Y-131305714D01*
X130577619Y-131353333D01*
X130530000Y-131400952D01*
X130482380Y-131496190D01*
X130482380Y-131781904D01*
X130530000Y-131877142D01*
X130577619Y-131924761D01*
X130672857Y-131972380D01*
X130815714Y-131972380D01*
X128863333Y-131305714D02*
X128863333Y-131972380D01*
X129291904Y-131305714D02*
X129291904Y-131829523D01*
X129244285Y-131924761D01*
X129149047Y-131972380D01*
X129006190Y-131972380D01*
X128910952Y-131924761D01*
X128863333Y-131877142D01*
X128434761Y-131924761D02*
X128339523Y-131972380D01*
X128149047Y-131972380D01*
X128053809Y-131924761D01*
X128006190Y-131829523D01*
X128006190Y-131781904D01*
X128053809Y-131686666D01*
X128149047Y-131639047D01*
X128291904Y-131639047D01*
X128387142Y-131591428D01*
X128434761Y-131496190D01*
X128434761Y-131448571D01*
X128387142Y-131353333D01*
X128291904Y-131305714D01*
X128149047Y-131305714D01*
X128053809Y-131353333D01*
X127196666Y-131924761D02*
X127291904Y-131972380D01*
X127482380Y-131972380D01*
X127577619Y-131924761D01*
X127625238Y-131829523D01*
X127625238Y-131448571D01*
X127577619Y-131353333D01*
X127482380Y-131305714D01*
X127291904Y-131305714D01*
X127196666Y-131353333D01*
X127149047Y-131448571D01*
X127149047Y-131543809D01*
X127625238Y-131639047D01*
X126101428Y-131305714D02*
X125720476Y-131305714D01*
X125958571Y-130972380D02*
X125958571Y-131829523D01*
X125910952Y-131924761D01*
X125815714Y-131972380D01*
X125720476Y-131972380D01*
X125387142Y-131972380D02*
X125387142Y-130972380D01*
X124958571Y-131972380D02*
X124958571Y-131448571D01*
X125006190Y-131353333D01*
X125101428Y-131305714D01*
X125244285Y-131305714D01*
X125339523Y-131353333D01*
X125387142Y-131400952D01*
X124101428Y-131924761D02*
X124196666Y-131972380D01*
X124387142Y-131972380D01*
X124482380Y-131924761D01*
X124530000Y-131829523D01*
X124530000Y-131448571D01*
X124482380Y-131353333D01*
X124387142Y-131305714D01*
X124196666Y-131305714D01*
X124101428Y-131353333D01*
X124053809Y-131448571D01*
X124053809Y-131543809D01*
X124530000Y-131639047D01*
X122863333Y-131972380D02*
X122863333Y-130972380D01*
X122863333Y-131448571D02*
X122291904Y-131448571D01*
X122291904Y-131972380D02*
X122291904Y-130972380D01*
X121434761Y-131924761D02*
X121530000Y-131972380D01*
X121720476Y-131972380D01*
X121815714Y-131924761D01*
X121863333Y-131829523D01*
X121863333Y-131448571D01*
X121815714Y-131353333D01*
X121720476Y-131305714D01*
X121530000Y-131305714D01*
X121434761Y-131353333D01*
X121387142Y-131448571D01*
X121387142Y-131543809D01*
X121863333Y-131639047D01*
X120530000Y-131972380D02*
X120530000Y-131448571D01*
X120577619Y-131353333D01*
X120672857Y-131305714D01*
X120863333Y-131305714D01*
X120958571Y-131353333D01*
X120530000Y-131924761D02*
X120625238Y-131972380D01*
X120863333Y-131972380D01*
X120958571Y-131924761D01*
X121006190Y-131829523D01*
X121006190Y-131734285D01*
X120958571Y-131639047D01*
X120863333Y-131591428D01*
X120625238Y-131591428D01*
X120530000Y-131543809D01*
X120196666Y-131305714D02*
X119815714Y-131305714D01*
X120053809Y-130972380D02*
X120053809Y-131829523D01*
X120006190Y-131924761D01*
X119910952Y-131972380D01*
X119815714Y-131972380D01*
X118196666Y-131020000D02*
X118291904Y-130972380D01*
X118434761Y-130972380D01*
X118577619Y-131020000D01*
X118672857Y-131115238D01*
X118720476Y-131210476D01*
X118768095Y-131400952D01*
X118768095Y-131543809D01*
X118720476Y-131734285D01*
X118672857Y-131829523D01*
X118577619Y-131924761D01*
X118434761Y-131972380D01*
X118339523Y-131972380D01*
X118196666Y-131924761D01*
X118149047Y-131877142D01*
X118149047Y-131543809D01*
X118339523Y-131543809D01*
X117291904Y-131305714D02*
X117291904Y-131972380D01*
X117720476Y-131305714D02*
X117720476Y-131829523D01*
X117672857Y-131924761D01*
X117577619Y-131972380D01*
X117434761Y-131972380D01*
X117339523Y-131924761D01*
X117291904Y-131877142D01*
X116815714Y-131305714D02*
X116815714Y-131972380D01*
X116815714Y-131400952D02*
X116768095Y-131353333D01*
X116672857Y-131305714D01*
X116530000Y-131305714D01*
X116434761Y-131353333D01*
X116387142Y-131448571D01*
X116387142Y-131972380D01*
X115910952Y-131877142D02*
X115863333Y-131924761D01*
X115910952Y-131972380D01*
X115958571Y-131924761D01*
X115910952Y-131877142D01*
X115910952Y-131972380D01*
X170937206Y-85137402D02*
X170600489Y-84800684D01*
X170802519Y-85406776D02*
X171273924Y-84463967D01*
X170331115Y-84935371D01*
X170095413Y-84699669D02*
X170802519Y-83992562D01*
X170634161Y-83824203D01*
X170499474Y-83756860D01*
X170364787Y-83756860D01*
X170263771Y-83790532D01*
X170095413Y-83891547D01*
X169994397Y-83992562D01*
X169893382Y-84160921D01*
X169859710Y-84261936D01*
X169859710Y-84396623D01*
X169927054Y-84531310D01*
X170095413Y-84699669D01*
X169051588Y-83521158D02*
X169051588Y-83588501D01*
X169118932Y-83723188D01*
X169186275Y-83790532D01*
X169320962Y-83857875D01*
X169455649Y-83857875D01*
X169556665Y-83824203D01*
X169725023Y-83723188D01*
X169826039Y-83622173D01*
X169927054Y-83453814D01*
X169960726Y-83352799D01*
X169960726Y-83218112D01*
X169893382Y-83083425D01*
X169826039Y-83016081D01*
X169691352Y-82948738D01*
X169624008Y-82948738D01*
X168748543Y-83218112D02*
X168681199Y-83218112D01*
X168681199Y-83285455D01*
X168748543Y-83285455D01*
X168748543Y-83218112D01*
X168681199Y-83285455D01*
X169118932Y-82847723D02*
X169051588Y-82847723D01*
X169051588Y-82915066D01*
X169118932Y-82915066D01*
X169118932Y-82847723D01*
X169051588Y-82915066D01*
X168041436Y-82241631D02*
X167704718Y-81904914D01*
X167906749Y-82511005D02*
X168378153Y-81568196D01*
X167435344Y-82039601D01*
X167199642Y-81803898D02*
X167906749Y-81096791D01*
X167738390Y-80928433D01*
X167603703Y-80861089D01*
X167469016Y-80861089D01*
X167368001Y-80894761D01*
X167199642Y-80995776D01*
X167098627Y-81096791D01*
X166997611Y-81265150D01*
X166963940Y-81366165D01*
X166963940Y-81500853D01*
X167031283Y-81635540D01*
X167199642Y-81803898D01*
X166559879Y-81096791D02*
X166425192Y-81029448D01*
X166256833Y-80861089D01*
X166223161Y-80760074D01*
X166223161Y-80692730D01*
X166256833Y-80591715D01*
X166324176Y-80524372D01*
X166425192Y-80490700D01*
X166492535Y-80490700D01*
X166593550Y-80524372D01*
X166761909Y-80625387D01*
X166862924Y-80659059D01*
X166930268Y-80659059D01*
X167031283Y-80625387D01*
X167098627Y-80558043D01*
X167132298Y-80457028D01*
X167132298Y-80389685D01*
X167098627Y-80288669D01*
X166930268Y-80120311D01*
X166795581Y-80052967D01*
X165448711Y-80052967D02*
X165852772Y-80457028D01*
X165650741Y-80254998D02*
X166357848Y-79547891D01*
X166324176Y-79716250D01*
X166324176Y-79850937D01*
X166357848Y-79951952D01*
X165718085Y-78908128D02*
X165650741Y-78840784D01*
X165549726Y-78807112D01*
X165482383Y-78807112D01*
X165381367Y-78840784D01*
X165213009Y-78941799D01*
X165044650Y-79110158D01*
X164943635Y-79278517D01*
X164909963Y-79379532D01*
X164909963Y-79446876D01*
X164943635Y-79547891D01*
X165010978Y-79615234D01*
X165111993Y-79648906D01*
X165179337Y-79648906D01*
X165280352Y-79615234D01*
X165448711Y-79514219D01*
X165617070Y-79345860D01*
X165718085Y-79177502D01*
X165751757Y-79076486D01*
X165751757Y-79009143D01*
X165718085Y-78908128D01*
X164101841Y-78706097D02*
X164505902Y-79110158D01*
X164303871Y-78908128D02*
X165010978Y-78201021D01*
X164977306Y-78369380D01*
X164977306Y-78504067D01*
X165010978Y-78605082D01*
X164169184Y-77359227D02*
X164505902Y-77695945D01*
X164202856Y-78066334D01*
X164202856Y-77998990D01*
X164169184Y-77897975D01*
X164000826Y-77729616D01*
X163899810Y-77695945D01*
X163832467Y-77695945D01*
X163731452Y-77729616D01*
X163563093Y-77897975D01*
X163529421Y-77998990D01*
X163529421Y-78066334D01*
X163563093Y-78167349D01*
X163731452Y-78335708D01*
X163832467Y-78369380D01*
X163899810Y-78369380D01*
X113662976Y-106322381D02*
X113996309Y-105846191D01*
X114234404Y-106322381D02*
X114234404Y-105322381D01*
X113853452Y-105322381D01*
X113758214Y-105370001D01*
X113710595Y-105417620D01*
X113662976Y-105512858D01*
X113662976Y-105655715D01*
X113710595Y-105750953D01*
X113758214Y-105798572D01*
X113853452Y-105846191D01*
X114234404Y-105846191D01*
X113282023Y-105417620D02*
X113234404Y-105370001D01*
X113139166Y-105322381D01*
X112901071Y-105322381D01*
X112805833Y-105370001D01*
X112758214Y-105417620D01*
X112710595Y-105512858D01*
X112710595Y-105608096D01*
X112758214Y-105750953D01*
X113329642Y-106322381D01*
X112710595Y-106322381D01*
X111520119Y-105798572D02*
X110758214Y-105798572D01*
X110758214Y-106084286D02*
X111520119Y-106084286D01*
X108996309Y-106322381D02*
X109567738Y-106322381D01*
X109282023Y-106322381D02*
X109282023Y-105322381D01*
X109377261Y-105465239D01*
X109472500Y-105560477D01*
X109567738Y-105608096D01*
X108567738Y-106322381D02*
X108567738Y-105322381D01*
X108234404Y-106036667D01*
X107901071Y-105322381D01*
X107901071Y-106322381D01*
X107424880Y-105941429D02*
X106662976Y-105941429D01*
X105996309Y-105322381D02*
X105805833Y-105322381D01*
X105710595Y-105370001D01*
X105615357Y-105465239D01*
X105567738Y-105655715D01*
X105567738Y-105989048D01*
X105615357Y-106179524D01*
X105710595Y-106274762D01*
X105805833Y-106322381D01*
X105996309Y-106322381D01*
X106091547Y-106274762D01*
X106186785Y-106179524D01*
X106234404Y-105989048D01*
X106234404Y-105655715D01*
X106186785Y-105465239D01*
X106091547Y-105370001D01*
X105996309Y-105322381D01*
X105139166Y-106322381D02*
X105139166Y-105322381D01*
X104710595Y-106322381D02*
X104710595Y-105798572D01*
X104758214Y-105703334D01*
X104853452Y-105655715D01*
X104996309Y-105655715D01*
X105091547Y-105703334D01*
X105139166Y-105750953D01*
X104234404Y-106322381D02*
X104234404Y-105655715D01*
X104234404Y-105750953D02*
X104186785Y-105703334D01*
X104091547Y-105655715D01*
X103948690Y-105655715D01*
X103853452Y-105703334D01*
X103805833Y-105798572D01*
X103805833Y-106322381D01*
X103805833Y-105798572D02*
X103758214Y-105703334D01*
X103662976Y-105655715D01*
X103520119Y-105655715D01*
X103424880Y-105703334D01*
X103377261Y-105798572D01*
X103377261Y-106322381D01*
X113662976Y-107932381D02*
X113996309Y-107456191D01*
X114234404Y-107932381D02*
X114234404Y-106932381D01*
X113853452Y-106932381D01*
X113758214Y-106980001D01*
X113710595Y-107027620D01*
X113662976Y-107122858D01*
X113662976Y-107265715D01*
X113710595Y-107360953D01*
X113758214Y-107408572D01*
X113853452Y-107456191D01*
X114234404Y-107456191D01*
X113329642Y-106932381D02*
X112710595Y-106932381D01*
X113043928Y-107313334D01*
X112901071Y-107313334D01*
X112805833Y-107360953D01*
X112758214Y-107408572D01*
X112710595Y-107503810D01*
X112710595Y-107741905D01*
X112758214Y-107837143D01*
X112805833Y-107884762D01*
X112901071Y-107932381D01*
X113186785Y-107932381D01*
X113282023Y-107884762D01*
X113329642Y-107837143D01*
X111520119Y-107408572D02*
X110758214Y-107408572D01*
X110758214Y-107694286D02*
X111520119Y-107694286D01*
X108996309Y-107932381D02*
X109567738Y-107932381D01*
X109282023Y-107932381D02*
X109282023Y-106932381D01*
X109377261Y-107075239D01*
X109472500Y-107170477D01*
X109567738Y-107218096D01*
X108377261Y-106932381D02*
X108282023Y-106932381D01*
X108186785Y-106980001D01*
X108139166Y-107027620D01*
X108091547Y-107122858D01*
X108043928Y-107313334D01*
X108043928Y-107551429D01*
X108091547Y-107741905D01*
X108139166Y-107837143D01*
X108186785Y-107884762D01*
X108282023Y-107932381D01*
X108377261Y-107932381D01*
X108472500Y-107884762D01*
X108520119Y-107837143D01*
X108567738Y-107741905D01*
X108615357Y-107551429D01*
X108615357Y-107313334D01*
X108567738Y-107122858D01*
X108520119Y-107027620D01*
X108472500Y-106980001D01*
X108377261Y-106932381D01*
X107424880Y-106932381D02*
X107329642Y-106932381D01*
X107234404Y-106980001D01*
X107186785Y-107027620D01*
X107139166Y-107122858D01*
X107091547Y-107313334D01*
X107091547Y-107551429D01*
X107139166Y-107741905D01*
X107186785Y-107837143D01*
X107234404Y-107884762D01*
X107329642Y-107932381D01*
X107424880Y-107932381D01*
X107520119Y-107884762D01*
X107567738Y-107837143D01*
X107615357Y-107741905D01*
X107662976Y-107551429D01*
X107662976Y-107313334D01*
X107615357Y-107122858D01*
X107567738Y-107027620D01*
X107520119Y-106980001D01*
X107424880Y-106932381D01*
X106662976Y-107551429D02*
X105901071Y-107551429D01*
X105234404Y-106932381D02*
X105043928Y-106932381D01*
X104948690Y-106980001D01*
X104853452Y-107075239D01*
X104805833Y-107265715D01*
X104805833Y-107599048D01*
X104853452Y-107789524D01*
X104948690Y-107884762D01*
X105043928Y-107932381D01*
X105234404Y-107932381D01*
X105329642Y-107884762D01*
X105424880Y-107789524D01*
X105472500Y-107599048D01*
X105472500Y-107265715D01*
X105424880Y-107075239D01*
X105329642Y-106980001D01*
X105234404Y-106932381D01*
X104377261Y-107932381D02*
X104377261Y-106932381D01*
X103948690Y-107932381D02*
X103948690Y-107408572D01*
X103996309Y-107313334D01*
X104091547Y-107265715D01*
X104234404Y-107265715D01*
X104329642Y-107313334D01*
X104377261Y-107360953D01*
X103472500Y-107932381D02*
X103472500Y-107265715D01*
X103472500Y-107360953D02*
X103424880Y-107313334D01*
X103329642Y-107265715D01*
X103186785Y-107265715D01*
X103091547Y-107313334D01*
X103043928Y-107408572D01*
X103043928Y-107932381D01*
X103043928Y-107408572D02*
X102996309Y-107313334D01*
X102901071Y-107265715D01*
X102758214Y-107265715D01*
X102662976Y-107313334D01*
X102615357Y-107408572D01*
X102615357Y-107932381D01*
X113662976Y-109542381D02*
X113996309Y-109066191D01*
X114234404Y-109542381D02*
X114234404Y-108542381D01*
X113853452Y-108542381D01*
X113758214Y-108590001D01*
X113710595Y-108637620D01*
X113662976Y-108732858D01*
X113662976Y-108875715D01*
X113710595Y-108970953D01*
X113758214Y-109018572D01*
X113853452Y-109066191D01*
X114234404Y-109066191D01*
X112805833Y-108875715D02*
X112805833Y-109542381D01*
X113043928Y-108494762D02*
X113282023Y-109209048D01*
X112662976Y-109209048D01*
X111520119Y-109018572D02*
X110758214Y-109018572D01*
X110758214Y-109304286D02*
X111520119Y-109304286D01*
X108996309Y-109542381D02*
X109567738Y-109542381D01*
X109282023Y-109542381D02*
X109282023Y-108542381D01*
X109377261Y-108685239D01*
X109472500Y-108780477D01*
X109567738Y-108828096D01*
X108377261Y-108542381D02*
X108282023Y-108542381D01*
X108186785Y-108590001D01*
X108139166Y-108637620D01*
X108091547Y-108732858D01*
X108043928Y-108923334D01*
X108043928Y-109161429D01*
X108091547Y-109351905D01*
X108139166Y-109447143D01*
X108186785Y-109494762D01*
X108282023Y-109542381D01*
X108377261Y-109542381D01*
X108472500Y-109494762D01*
X108520119Y-109447143D01*
X108567738Y-109351905D01*
X108615357Y-109161429D01*
X108615357Y-108923334D01*
X108567738Y-108732858D01*
X108520119Y-108637620D01*
X108472500Y-108590001D01*
X108377261Y-108542381D01*
X107424880Y-108542381D02*
X107329642Y-108542381D01*
X107234404Y-108590001D01*
X107186785Y-108637620D01*
X107139166Y-108732858D01*
X107091547Y-108923334D01*
X107091547Y-109161429D01*
X107139166Y-109351905D01*
X107186785Y-109447143D01*
X107234404Y-109494762D01*
X107329642Y-109542381D01*
X107424880Y-109542381D01*
X107520119Y-109494762D01*
X107567738Y-109447143D01*
X107615357Y-109351905D01*
X107662976Y-109161429D01*
X107662976Y-108923334D01*
X107615357Y-108732858D01*
X107567738Y-108637620D01*
X107520119Y-108590001D01*
X107424880Y-108542381D01*
X106662976Y-109161429D02*
X105901071Y-109161429D01*
X105234404Y-108542381D02*
X105043928Y-108542381D01*
X104948690Y-108590001D01*
X104853452Y-108685239D01*
X104805833Y-108875715D01*
X104805833Y-109209048D01*
X104853452Y-109399524D01*
X104948690Y-109494762D01*
X105043928Y-109542381D01*
X105234404Y-109542381D01*
X105329642Y-109494762D01*
X105424880Y-109399524D01*
X105472500Y-109209048D01*
X105472500Y-108875715D01*
X105424880Y-108685239D01*
X105329642Y-108590001D01*
X105234404Y-108542381D01*
X104377261Y-109542381D02*
X104377261Y-108542381D01*
X103948690Y-109542381D02*
X103948690Y-109018572D01*
X103996309Y-108923334D01*
X104091547Y-108875715D01*
X104234404Y-108875715D01*
X104329642Y-108923334D01*
X104377261Y-108970953D01*
X103472500Y-109542381D02*
X103472500Y-108875715D01*
X103472500Y-108970953D02*
X103424880Y-108923334D01*
X103329642Y-108875715D01*
X103186785Y-108875715D01*
X103091547Y-108923334D01*
X103043928Y-109018572D01*
X103043928Y-109542381D01*
X103043928Y-109018572D02*
X102996309Y-108923334D01*
X102901071Y-108875715D01*
X102758214Y-108875715D01*
X102662976Y-108923334D01*
X102615357Y-109018572D01*
X102615357Y-109542381D01*
X113662976Y-111152381D02*
X113996309Y-110676191D01*
X114234404Y-111152381D02*
X114234404Y-110152381D01*
X113853452Y-110152381D01*
X113758214Y-110200001D01*
X113710595Y-110247620D01*
X113662976Y-110342858D01*
X113662976Y-110485715D01*
X113710595Y-110580953D01*
X113758214Y-110628572D01*
X113853452Y-110676191D01*
X114234404Y-110676191D01*
X112758214Y-110152381D02*
X113234404Y-110152381D01*
X113282023Y-110628572D01*
X113234404Y-110580953D01*
X113139166Y-110533334D01*
X112901071Y-110533334D01*
X112805833Y-110580953D01*
X112758214Y-110628572D01*
X112710595Y-110723810D01*
X112710595Y-110961905D01*
X112758214Y-111057143D01*
X112805833Y-111104762D01*
X112901071Y-111152381D01*
X113139166Y-111152381D01*
X113234404Y-111104762D01*
X113282023Y-111057143D01*
X111520119Y-110628572D02*
X110758214Y-110628572D01*
X110758214Y-110914286D02*
X111520119Y-110914286D01*
X108996309Y-111152381D02*
X109567738Y-111152381D01*
X109282023Y-111152381D02*
X109282023Y-110152381D01*
X109377261Y-110295239D01*
X109472500Y-110390477D01*
X109567738Y-110438096D01*
X108567738Y-111152381D02*
X108567738Y-110152381D01*
X108472500Y-110771429D02*
X108186785Y-111152381D01*
X108186785Y-110485715D02*
X108567738Y-110866667D01*
X107758214Y-110771429D02*
X106996309Y-110771429D01*
X106329642Y-110152381D02*
X106139166Y-110152381D01*
X106043928Y-110200001D01*
X105948690Y-110295239D01*
X105901071Y-110485715D01*
X105901071Y-110819048D01*
X105948690Y-111009524D01*
X106043928Y-111104762D01*
X106139166Y-111152381D01*
X106329642Y-111152381D01*
X106424880Y-111104762D01*
X106520119Y-111009524D01*
X106567738Y-110819048D01*
X106567738Y-110485715D01*
X106520119Y-110295239D01*
X106424880Y-110200001D01*
X106329642Y-110152381D01*
X105472500Y-111152381D02*
X105472500Y-110152381D01*
X105043928Y-111152381D02*
X105043928Y-110628572D01*
X105091547Y-110533334D01*
X105186785Y-110485715D01*
X105329642Y-110485715D01*
X105424880Y-110533334D01*
X105472500Y-110580953D01*
X104567738Y-111152381D02*
X104567738Y-110485715D01*
X104567738Y-110580953D02*
X104520119Y-110533334D01*
X104424880Y-110485715D01*
X104282023Y-110485715D01*
X104186785Y-110533334D01*
X104139166Y-110628572D01*
X104139166Y-111152381D01*
X104139166Y-110628572D02*
X104091547Y-110533334D01*
X103996309Y-110485715D01*
X103853452Y-110485715D01*
X103758214Y-110533334D01*
X103710595Y-110628572D01*
X103710595Y-111152381D01*
X113662976Y-112762381D02*
X113996309Y-112286191D01*
X114234404Y-112762381D02*
X114234404Y-111762381D01*
X113853452Y-111762381D01*
X113758214Y-111810001D01*
X113710595Y-111857620D01*
X113662976Y-111952858D01*
X113662976Y-112095715D01*
X113710595Y-112190953D01*
X113758214Y-112238572D01*
X113853452Y-112286191D01*
X114234404Y-112286191D01*
X112805833Y-111762381D02*
X112996309Y-111762381D01*
X113091547Y-111810001D01*
X113139166Y-111857620D01*
X113234404Y-112000477D01*
X113282023Y-112190953D01*
X113282023Y-112571905D01*
X113234404Y-112667143D01*
X113186785Y-112714762D01*
X113091547Y-112762381D01*
X112901071Y-112762381D01*
X112805833Y-112714762D01*
X112758214Y-112667143D01*
X112710595Y-112571905D01*
X112710595Y-112333810D01*
X112758214Y-112238572D01*
X112805833Y-112190953D01*
X112901071Y-112143334D01*
X113091547Y-112143334D01*
X113186785Y-112190953D01*
X113234404Y-112238572D01*
X113282023Y-112333810D01*
X111520119Y-112238572D02*
X110758214Y-112238572D01*
X110758214Y-112524286D02*
X111520119Y-112524286D01*
X108996309Y-112762381D02*
X109567738Y-112762381D01*
X109282023Y-112762381D02*
X109282023Y-111762381D01*
X109377261Y-111905239D01*
X109472500Y-112000477D01*
X109567738Y-112048096D01*
X108377261Y-111762381D02*
X108282023Y-111762381D01*
X108186785Y-111810001D01*
X108139166Y-111857620D01*
X108091547Y-111952858D01*
X108043928Y-112143334D01*
X108043928Y-112381429D01*
X108091547Y-112571905D01*
X108139166Y-112667143D01*
X108186785Y-112714762D01*
X108282023Y-112762381D01*
X108377261Y-112762381D01*
X108472500Y-112714762D01*
X108520119Y-112667143D01*
X108567738Y-112571905D01*
X108615357Y-112381429D01*
X108615357Y-112143334D01*
X108567738Y-111952858D01*
X108520119Y-111857620D01*
X108472500Y-111810001D01*
X108377261Y-111762381D01*
X107615357Y-112762381D02*
X107615357Y-111762381D01*
X107520119Y-112381429D02*
X107234404Y-112762381D01*
X107234404Y-112095715D02*
X107615357Y-112476667D01*
X106805833Y-112381429D02*
X106043928Y-112381429D01*
X105377261Y-111762381D02*
X105186785Y-111762381D01*
X105091547Y-111810001D01*
X104996309Y-111905239D01*
X104948690Y-112095715D01*
X104948690Y-112429048D01*
X104996309Y-112619524D01*
X105091547Y-112714762D01*
X105186785Y-112762381D01*
X105377261Y-112762381D01*
X105472500Y-112714762D01*
X105567738Y-112619524D01*
X105615357Y-112429048D01*
X105615357Y-112095715D01*
X105567738Y-111905239D01*
X105472500Y-111810001D01*
X105377261Y-111762381D01*
X104520119Y-112762381D02*
X104520119Y-111762381D01*
X104091547Y-112762381D02*
X104091547Y-112238572D01*
X104139166Y-112143334D01*
X104234404Y-112095715D01*
X104377261Y-112095715D01*
X104472500Y-112143334D01*
X104520119Y-112190953D01*
X103615357Y-112762381D02*
X103615357Y-112095715D01*
X103615357Y-112190953D02*
X103567738Y-112143334D01*
X103472500Y-112095715D01*
X103329642Y-112095715D01*
X103234404Y-112143334D01*
X103186785Y-112238572D01*
X103186785Y-112762381D01*
X103186785Y-112238572D02*
X103139166Y-112143334D01*
X103043928Y-112095715D01*
X102901071Y-112095715D01*
X102805833Y-112143334D01*
X102758214Y-112238572D01*
X102758214Y-112762381D01*
X124682977Y-98757142D02*
X124730596Y-98804761D01*
X124873453Y-98852380D01*
X124968691Y-98852380D01*
X125111548Y-98804761D01*
X125206786Y-98709523D01*
X125254405Y-98614285D01*
X125302024Y-98423809D01*
X125302024Y-98280952D01*
X125254405Y-98090476D01*
X125206786Y-97995238D01*
X125111548Y-97900000D01*
X124968691Y-97852380D01*
X124873453Y-97852380D01*
X124730596Y-97900000D01*
X124682977Y-97947619D01*
X123730596Y-98852380D02*
X124302024Y-98852380D01*
X124016310Y-98852380D02*
X124016310Y-97852380D01*
X124111548Y-97995238D01*
X124206786Y-98090476D01*
X124302024Y-98138095D01*
X122540120Y-98328571D02*
X121778215Y-98328571D01*
X121778215Y-98614285D02*
X122540120Y-98614285D01*
X120016310Y-98852380D02*
X120587739Y-98852380D01*
X120302024Y-98852380D02*
X120302024Y-97852380D01*
X120397262Y-97995238D01*
X120492501Y-98090476D01*
X120587739Y-98138095D01*
X119159167Y-98185714D02*
X119159167Y-98852380D01*
X119587739Y-98185714D02*
X119587739Y-98709523D01*
X119540120Y-98804761D01*
X119444881Y-98852380D01*
X119302024Y-98852380D01*
X119206786Y-98804761D01*
X119159167Y-98757142D01*
X118349643Y-98328571D02*
X118682977Y-98328571D01*
X118682977Y-98852380D02*
X118682977Y-97852380D01*
X118206786Y-97852380D01*
X124682977Y-100367142D02*
X124730596Y-100414761D01*
X124873453Y-100462380D01*
X124968691Y-100462380D01*
X125111548Y-100414761D01*
X125206786Y-100319523D01*
X125254405Y-100224285D01*
X125302024Y-100033809D01*
X125302024Y-99890952D01*
X125254405Y-99700476D01*
X125206786Y-99605238D01*
X125111548Y-99510000D01*
X124968691Y-99462380D01*
X124873453Y-99462380D01*
X124730596Y-99510000D01*
X124682977Y-99557619D01*
X124302024Y-99557619D02*
X124254405Y-99510000D01*
X124159167Y-99462380D01*
X123921072Y-99462380D01*
X123825834Y-99510000D01*
X123778215Y-99557619D01*
X123730596Y-99652857D01*
X123730596Y-99748095D01*
X123778215Y-99890952D01*
X124349643Y-100462380D01*
X123730596Y-100462380D01*
X122540120Y-99938571D02*
X121778215Y-99938571D01*
X121778215Y-100224285D02*
X122540120Y-100224285D01*
X120016310Y-100462380D02*
X120587739Y-100462380D01*
X120302024Y-100462380D02*
X120302024Y-99462380D01*
X120397262Y-99605238D01*
X120492501Y-99700476D01*
X120587739Y-99748095D01*
X119159167Y-99795714D02*
X119159167Y-100462380D01*
X119587739Y-99795714D02*
X119587739Y-100319523D01*
X119540120Y-100414761D01*
X119444881Y-100462380D01*
X119302024Y-100462380D01*
X119206786Y-100414761D01*
X119159167Y-100367142D01*
X118349643Y-99938571D02*
X118682977Y-99938571D01*
X118682977Y-100462380D02*
X118682977Y-99462380D01*
X118206786Y-99462380D01*
X124682977Y-101977142D02*
X124730596Y-102024761D01*
X124873453Y-102072380D01*
X124968691Y-102072380D01*
X125111548Y-102024761D01*
X125206786Y-101929523D01*
X125254405Y-101834285D01*
X125302024Y-101643809D01*
X125302024Y-101500952D01*
X125254405Y-101310476D01*
X125206786Y-101215238D01*
X125111548Y-101120000D01*
X124968691Y-101072380D01*
X124873453Y-101072380D01*
X124730596Y-101120000D01*
X124682977Y-101167619D01*
X124349643Y-101072380D02*
X123730596Y-101072380D01*
X124063929Y-101453333D01*
X123921072Y-101453333D01*
X123825834Y-101500952D01*
X123778215Y-101548571D01*
X123730596Y-101643809D01*
X123730596Y-101881904D01*
X123778215Y-101977142D01*
X123825834Y-102024761D01*
X123921072Y-102072380D01*
X124206786Y-102072380D01*
X124302024Y-102024761D01*
X124349643Y-101977142D01*
X122540120Y-101548571D02*
X121778215Y-101548571D01*
X121778215Y-101834285D02*
X122540120Y-101834285D01*
X120016310Y-102072380D02*
X120587739Y-102072380D01*
X120302024Y-102072380D02*
X120302024Y-101072380D01*
X120397262Y-101215238D01*
X120492501Y-101310476D01*
X120587739Y-101358095D01*
X119159167Y-101405714D02*
X119159167Y-102072380D01*
X119587739Y-101405714D02*
X119587739Y-101929523D01*
X119540120Y-102024761D01*
X119444881Y-102072380D01*
X119302024Y-102072380D01*
X119206786Y-102024761D01*
X119159167Y-101977142D01*
X118349643Y-101548571D02*
X118682977Y-101548571D01*
X118682977Y-102072380D02*
X118682977Y-101072380D01*
X118206786Y-101072380D01*
X139964761Y-106195714D02*
X140012380Y-106338571D01*
X140012380Y-106576666D01*
X139964761Y-106671904D01*
X139917142Y-106719523D01*
X139821904Y-106767142D01*
X139726666Y-106767142D01*
X139631428Y-106719523D01*
X139583809Y-106671904D01*
X139536190Y-106576666D01*
X139488571Y-106386190D01*
X139440952Y-106290952D01*
X139393333Y-106243333D01*
X139298095Y-106195714D01*
X139202857Y-106195714D01*
X139107619Y-106243333D01*
X139060000Y-106290952D01*
X139012380Y-106386190D01*
X139012380Y-106624285D01*
X139060000Y-106767142D01*
X140012380Y-107195714D02*
X139012380Y-107195714D01*
X139012380Y-107433809D01*
X139060000Y-107576666D01*
X139155238Y-107671904D01*
X139250476Y-107719523D01*
X139440952Y-107767142D01*
X139583809Y-107767142D01*
X139774285Y-107719523D01*
X139869523Y-107671904D01*
X139964761Y-107576666D01*
X140012380Y-107433809D01*
X140012380Y-107195714D01*
X139726666Y-108148095D02*
X139726666Y-108624285D01*
X140012380Y-108052857D02*
X139012380Y-108386190D01*
X140012380Y-108719523D01*
D12*
X125294285Y-104422381D02*
X125294285Y-103422381D01*
X124818095Y-103755715D02*
X124818095Y-104422381D01*
X124818095Y-103850953D02*
X124770476Y-103803334D01*
X124675238Y-103755715D01*
X124532380Y-103755715D01*
X124437142Y-103803334D01*
X124389523Y-103898572D01*
X124389523Y-104422381D01*
X123960952Y-104374762D02*
X123865714Y-104422381D01*
X123675238Y-104422381D01*
X123580000Y-104374762D01*
X123532380Y-104279524D01*
X123532380Y-104231905D01*
X123580000Y-104136667D01*
X123675238Y-104089048D01*
X123818095Y-104089048D01*
X123913333Y-104041429D01*
X123960952Y-103946191D01*
X123960952Y-103898572D01*
X123913333Y-103803334D01*
X123818095Y-103755715D01*
X123675238Y-103755715D01*
X123580000Y-103803334D01*
X123103809Y-104422381D02*
X123103809Y-103755715D01*
X123103809Y-103422381D02*
X123151428Y-103470001D01*
X123103809Y-103517620D01*
X123056190Y-103470001D01*
X123103809Y-103422381D01*
X123103809Y-103517620D01*
X122199047Y-104422381D02*
X122199047Y-103422381D01*
X122199047Y-104374762D02*
X122294285Y-104422381D01*
X122484761Y-104422381D01*
X122580000Y-104374762D01*
X122627619Y-104327143D01*
X122675238Y-104231905D01*
X122675238Y-103946191D01*
X122627619Y-103850953D01*
X122580000Y-103803334D01*
X122484761Y-103755715D01*
X122294285Y-103755715D01*
X122199047Y-103803334D01*
X121341904Y-104374762D02*
X121437142Y-104422381D01*
X121627619Y-104422381D01*
X121722857Y-104374762D01*
X121770476Y-104279524D01*
X121770476Y-103898572D01*
X121722857Y-103803334D01*
X121627619Y-103755715D01*
X121437142Y-103755715D01*
X121341904Y-103803334D01*
X121294285Y-103898572D01*
X121294285Y-103993810D01*
X121770476Y-104089048D01*
X120865714Y-104327143D02*
X120818095Y-104374762D01*
X120865714Y-104422381D01*
X120913333Y-104374762D01*
X120865714Y-104327143D01*
X120865714Y-104422381D01*
X120865714Y-103803334D02*
X120818095Y-103850953D01*
X120865714Y-103898572D01*
X120913333Y-103850953D01*
X120865714Y-103803334D01*
X120865714Y-103898572D01*
D11*
X146417766Y-95554400D02*
X146417766Y-95621744D01*
X146485109Y-95756431D01*
X146552453Y-95823774D01*
X146687140Y-95891118D01*
X146821827Y-95891118D01*
X146922842Y-95857446D01*
X147091201Y-95756431D01*
X147192216Y-95655416D01*
X147293232Y-95487057D01*
X147326903Y-95386042D01*
X147326903Y-95251354D01*
X147259560Y-95116667D01*
X147192216Y-95049324D01*
X147057529Y-94981980D01*
X146990186Y-94981980D01*
X146047377Y-95318698D02*
X146754484Y-94611591D01*
X145744331Y-95015652D02*
X146114720Y-94645263D01*
X146215735Y-94611591D01*
X146316751Y-94645263D01*
X146417766Y-94746278D01*
X146451438Y-94847293D01*
X146451438Y-94914637D01*
X145306598Y-94577919D02*
X145407613Y-94611591D01*
X145474957Y-94611591D01*
X145575972Y-94577919D01*
X145778003Y-94375889D01*
X145811674Y-94274874D01*
X145811674Y-94207530D01*
X145778003Y-94106515D01*
X145676987Y-94005500D01*
X145575972Y-93971828D01*
X145508629Y-93971828D01*
X145407613Y-94005500D01*
X145205583Y-94207530D01*
X145171911Y-94308545D01*
X145171911Y-94375889D01*
X145205583Y-94476904D01*
X145306598Y-94577919D01*
X144666835Y-93938156D02*
X144767850Y-93971828D01*
X144835194Y-93971828D01*
X144936209Y-93938156D01*
X145138239Y-93736126D01*
X145171911Y-93635110D01*
X145171911Y-93567767D01*
X145138239Y-93466752D01*
X145037224Y-93365736D01*
X144936209Y-93332065D01*
X144868865Y-93332065D01*
X144767850Y-93365736D01*
X144565820Y-93567767D01*
X144532148Y-93668782D01*
X144532148Y-93736126D01*
X144565820Y-93837141D01*
X144666835Y-93938156D01*
X144195430Y-93399408D02*
X144094415Y-93365736D01*
X143959728Y-93231049D01*
X143926056Y-93130034D01*
X143959728Y-93029019D01*
X143993400Y-92995347D01*
X144094415Y-92961675D01*
X144195430Y-92995347D01*
X144296446Y-93096362D01*
X144397461Y-93130034D01*
X144498476Y-93096362D01*
X144532148Y-93062691D01*
X144565820Y-92961675D01*
X144532148Y-92860660D01*
X144431133Y-92759645D01*
X144330117Y-92725973D01*
X143319965Y-92523943D02*
X143353637Y-92624958D01*
X143488324Y-92759645D01*
X143589339Y-92793317D01*
X143690354Y-92759645D01*
X143959728Y-92490271D01*
X143993400Y-92389256D01*
X143959728Y-92288240D01*
X143825041Y-92153553D01*
X143724026Y-92119882D01*
X143623011Y-92153553D01*
X143555667Y-92220897D01*
X143825041Y-92624958D01*
X142612858Y-91210744D02*
X142276141Y-91547462D01*
X143218950Y-91076057D02*
X142612858Y-91210744D01*
X142747545Y-90604653D01*
X141703721Y-90975042D02*
X141804736Y-91008714D01*
X141872080Y-91008714D01*
X141973095Y-90975042D01*
X142175125Y-90773012D01*
X142208797Y-90671996D01*
X142208797Y-90604653D01*
X142175125Y-90503638D01*
X142074110Y-90402622D01*
X141973095Y-90368951D01*
X141905751Y-90368951D01*
X141804736Y-90402622D01*
X141602706Y-90604653D01*
X141569034Y-90705668D01*
X141569034Y-90773012D01*
X141602706Y-90874027D01*
X141703721Y-90975042D01*
X141333332Y-89661844D02*
X140861927Y-90133248D01*
X141636377Y-89964890D02*
X141265988Y-90335279D01*
X141164973Y-90368951D01*
X141063957Y-90335279D01*
X140962942Y-90234264D01*
X140929270Y-90133248D01*
X140929270Y-90065905D01*
X140525209Y-89796531D02*
X140996614Y-89325126D01*
X140861927Y-89459813D02*
X140895599Y-89358798D01*
X140895599Y-89291454D01*
X140861927Y-89190439D01*
X140794583Y-89123096D01*
X145885416Y-96692842D02*
X146121118Y-96928545D01*
X145750729Y-97298934D02*
X146457835Y-96591827D01*
X146121118Y-96255109D01*
X144841591Y-96389796D02*
X145211980Y-96019407D01*
X145312996Y-95985735D01*
X145414011Y-96019407D01*
X145548698Y-96154094D01*
X145582370Y-96255109D01*
X144875263Y-96356125D02*
X144908935Y-96457140D01*
X145077293Y-96625499D01*
X145178309Y-96659171D01*
X145279324Y-96625499D01*
X145346667Y-96558155D01*
X145380339Y-96457140D01*
X145346667Y-96356125D01*
X145178309Y-96187766D01*
X145144637Y-96086751D01*
X145043622Y-95649018D02*
X144403858Y-95952064D01*
X144706904Y-95312300D01*
X143865110Y-95413316D02*
X143966126Y-95446987D01*
X144033469Y-95446987D01*
X144134484Y-95413316D01*
X144336515Y-95211285D01*
X144370187Y-95110270D01*
X144370187Y-95042926D01*
X144336515Y-94941911D01*
X144235500Y-94840896D01*
X144134484Y-94807224D01*
X144067141Y-94807224D01*
X143966126Y-94840896D01*
X143764095Y-95042926D01*
X143730423Y-95143942D01*
X143730423Y-95211285D01*
X143764095Y-95312300D01*
X143865110Y-95413316D01*
X143326362Y-94874568D02*
X143797767Y-94403163D01*
X143663080Y-94537850D02*
X143696752Y-94436835D01*
X143696752Y-94369491D01*
X143663080Y-94268476D01*
X143595736Y-94201133D01*
X142888630Y-94436835D02*
X143360034Y-93965430D01*
X143595736Y-93729728D02*
X143595736Y-93797072D01*
X143528393Y-93797072D01*
X143528393Y-93729728D01*
X143595736Y-93729728D01*
X143528393Y-93797072D01*
X143124332Y-93729728D02*
X142854958Y-93460354D01*
X143259019Y-93393011D02*
X142652927Y-93999102D01*
X142551912Y-94032774D01*
X142450897Y-93999102D01*
X142383553Y-93931759D01*
X141912149Y-93393011D02*
X141945821Y-93494026D01*
X142080508Y-93628713D01*
X142181523Y-93662385D01*
X142282538Y-93628713D01*
X142551912Y-93359339D01*
X142585584Y-93258324D01*
X142551912Y-93157308D01*
X142417225Y-93022621D01*
X142316210Y-92988950D01*
X142215195Y-93022621D01*
X142147851Y-93089965D01*
X142417225Y-93494026D01*
X141070355Y-92551217D02*
X140935668Y-92483873D01*
X140767309Y-92315515D01*
X140733638Y-92214499D01*
X140733638Y-92147156D01*
X140767309Y-92046141D01*
X140834653Y-91978797D01*
X140935668Y-91945125D01*
X141003012Y-91945125D01*
X141104027Y-91978797D01*
X141272386Y-92079812D01*
X141373401Y-92113484D01*
X141440744Y-92113484D01*
X141541760Y-92079812D01*
X141609103Y-92012469D01*
X141642775Y-91911454D01*
X141642775Y-91844110D01*
X141609103Y-91743095D01*
X141440744Y-91574736D01*
X141306057Y-91507393D01*
X140329577Y-91877782D02*
X140800981Y-91406377D01*
X141036683Y-91170675D02*
X141036683Y-91238019D01*
X140969340Y-91238019D01*
X140969340Y-91170675D01*
X141036683Y-91170675D01*
X140969340Y-91238019D01*
X140531607Y-91137003D02*
X140161218Y-90766614D01*
X140060203Y-91608408D01*
X139689813Y-91238019D01*
X139184737Y-90665599D02*
X139218409Y-90766614D01*
X139353096Y-90901301D01*
X139454111Y-90934973D01*
X139555126Y-90901301D01*
X139824500Y-90631927D01*
X139858172Y-90530912D01*
X139824500Y-90429896D01*
X139689813Y-90295209D01*
X139588798Y-90261538D01*
X139487783Y-90295209D01*
X139420439Y-90362553D01*
X139689813Y-90766614D01*
D12*
X125255239Y-95962380D02*
X125064762Y-95962380D01*
X124969524Y-96010000D01*
X124874286Y-96105238D01*
X124826667Y-96295714D01*
X124826667Y-96629047D01*
X124874286Y-96819523D01*
X124969524Y-96914761D01*
X125064762Y-96962380D01*
X125255239Y-96962380D01*
X125350477Y-96914761D01*
X125445715Y-96819523D01*
X125493334Y-96629047D01*
X125493334Y-96295714D01*
X125445715Y-96105238D01*
X125350477Y-96010000D01*
X125255239Y-95962380D01*
X123969524Y-96295714D02*
X123969524Y-96962380D01*
X124398096Y-96295714D02*
X124398096Y-96819523D01*
X124350477Y-96914761D01*
X124255239Y-96962380D01*
X124112381Y-96962380D01*
X124017143Y-96914761D01*
X123969524Y-96867142D01*
X123636191Y-96295714D02*
X123255239Y-96295714D01*
X123493334Y-95962380D02*
X123493334Y-96819523D01*
X123445715Y-96914761D01*
X123350477Y-96962380D01*
X123255239Y-96962380D01*
X122969524Y-96914761D02*
X122874286Y-96962380D01*
X122683810Y-96962380D01*
X122588572Y-96914761D01*
X122540953Y-96819523D01*
X122540953Y-96771904D01*
X122588572Y-96676666D01*
X122683810Y-96629047D01*
X122826667Y-96629047D01*
X122921905Y-96581428D01*
X122969524Y-96486190D01*
X122969524Y-96438571D01*
X122921905Y-96343333D01*
X122826667Y-96295714D01*
X122683810Y-96295714D01*
X122588572Y-96343333D01*
X122112381Y-96962380D02*
X122112381Y-96295714D01*
X122112381Y-95962380D02*
X122160001Y-96010000D01*
X122112381Y-96057619D01*
X122064762Y-96010000D01*
X122112381Y-95962380D01*
X122112381Y-96057619D01*
X121207620Y-96962380D02*
X121207620Y-95962380D01*
X121207620Y-96914761D02*
X121302858Y-96962380D01*
X121493334Y-96962380D01*
X121588572Y-96914761D01*
X121636191Y-96867142D01*
X121683810Y-96771904D01*
X121683810Y-96486190D01*
X121636191Y-96390952D01*
X121588572Y-96343333D01*
X121493334Y-96295714D01*
X121302858Y-96295714D01*
X121207620Y-96343333D01*
X120350477Y-96914761D02*
X120445715Y-96962380D01*
X120636191Y-96962380D01*
X120731429Y-96914761D01*
X120779048Y-96819523D01*
X120779048Y-96438571D01*
X120731429Y-96343333D01*
X120636191Y-96295714D01*
X120445715Y-96295714D01*
X120350477Y-96343333D01*
X120302858Y-96438571D01*
X120302858Y-96533809D01*
X120779048Y-96629047D01*
X119874286Y-96867142D02*
X119826667Y-96914761D01*
X119874286Y-96962380D01*
X119921905Y-96914761D01*
X119874286Y-96867142D01*
X119874286Y-96962380D01*
X119874286Y-96343333D02*
X119826667Y-96390952D01*
X119874286Y-96438571D01*
X119921905Y-96390952D01*
X119874286Y-96343333D01*
X119874286Y-96438571D01*
D11*
%TO.C,J1*%
X144803333Y-102232380D02*
X144803333Y-102946666D01*
X144850952Y-103089523D01*
X144946190Y-103184761D01*
X145089047Y-103232380D01*
X145184285Y-103232380D01*
X143803333Y-103232380D02*
X144374761Y-103232380D01*
X144089047Y-103232380D02*
X144089047Y-102232380D01*
X144184285Y-102375238D01*
X144279523Y-102470476D01*
X144374761Y-102518095D01*
X139278501Y-99302380D02*
X139278501Y-99540476D01*
X139516596Y-99445238D02*
X139278501Y-99540476D01*
X139040405Y-99445238D01*
X139421358Y-99730952D02*
X139278501Y-99540476D01*
X139135643Y-99730952D01*
%TO.C,U5*%
X168017193Y-86220960D02*
X168589613Y-85648540D01*
X168690628Y-85614868D01*
X168757972Y-85614868D01*
X168858987Y-85648540D01*
X168993674Y-85783227D01*
X169027346Y-85884242D01*
X169027346Y-85951586D01*
X168993674Y-86052601D01*
X168421254Y-86625021D01*
X169094689Y-87298456D02*
X168757972Y-86961738D01*
X169061018Y-86591349D01*
X169061018Y-86658692D01*
X169094689Y-86759708D01*
X169263048Y-86928066D01*
X169364063Y-86961738D01*
X169431407Y-86961738D01*
X169532422Y-86928066D01*
X169700781Y-86759708D01*
X169734453Y-86658692D01*
X169734453Y-86591349D01*
X169700781Y-86490334D01*
X169532422Y-86321975D01*
X169431407Y-86288303D01*
X169364063Y-86288303D01*
%TO.C,J2*%
X154547072Y-84451522D02*
X155052148Y-83946446D01*
X155119492Y-83811759D01*
X155119492Y-83677072D01*
X155052148Y-83542385D01*
X154984805Y-83475042D01*
X154917461Y-84687225D02*
X154917461Y-84754568D01*
X154951133Y-84855583D01*
X155119492Y-85023942D01*
X155220507Y-85057614D01*
X155287851Y-85057614D01*
X155388866Y-85023942D01*
X155456209Y-84956599D01*
X155523553Y-84821912D01*
X155523553Y-84013790D01*
X155961286Y-84451522D01*
%TO.C,C6*%
X156562064Y-99253272D02*
X156562064Y-99185929D01*
X156494720Y-99051242D01*
X156427377Y-98983898D01*
X156292689Y-98916555D01*
X156158002Y-98916555D01*
X156056987Y-98950226D01*
X155888628Y-99051242D01*
X155787613Y-99152257D01*
X155686598Y-99320616D01*
X155652926Y-99421631D01*
X155652926Y-99556318D01*
X155720270Y-99691005D01*
X155787613Y-99758349D01*
X155922300Y-99825692D01*
X155989644Y-99825692D01*
X156528392Y-100499127D02*
X156393705Y-100364440D01*
X156360033Y-100263425D01*
X156360033Y-100196081D01*
X156393705Y-100027723D01*
X156494720Y-99859364D01*
X156764094Y-99589990D01*
X156865109Y-99556318D01*
X156932453Y-99556318D01*
X157033468Y-99589990D01*
X157168155Y-99724677D01*
X157201827Y-99825692D01*
X157201827Y-99893036D01*
X157168155Y-99994051D01*
X156999796Y-100162410D01*
X156898781Y-100196081D01*
X156831438Y-100196081D01*
X156730422Y-100162410D01*
X156595735Y-100027723D01*
X156562064Y-99926707D01*
X156562064Y-99859364D01*
X156595735Y-99758349D01*
%TO.C,C5*%
X163456354Y-92316557D02*
X163456354Y-92249214D01*
X163389010Y-92114527D01*
X163321667Y-92047183D01*
X163186979Y-91979840D01*
X163052292Y-91979840D01*
X162951277Y-92013511D01*
X162782918Y-92114527D01*
X162681903Y-92215542D01*
X162580888Y-92383901D01*
X162547216Y-92484916D01*
X162547216Y-92619603D01*
X162614560Y-92754290D01*
X162681903Y-92821634D01*
X162816590Y-92888977D01*
X162883934Y-92888977D01*
X163456354Y-93596084D02*
X163119636Y-93259366D01*
X163422682Y-92888977D01*
X163422682Y-92956321D01*
X163456354Y-93057336D01*
X163624712Y-93225695D01*
X163725728Y-93259366D01*
X163793071Y-93259366D01*
X163894086Y-93225695D01*
X164062445Y-93057336D01*
X164096117Y-92956321D01*
X164096117Y-92888977D01*
X164062445Y-92787962D01*
X163894086Y-92619603D01*
X163793071Y-92585931D01*
X163725728Y-92585931D01*
%TO.C,C7*%
X159838324Y-95741985D02*
X159905667Y-95741985D01*
X160040354Y-95674641D01*
X160107698Y-95607298D01*
X160175041Y-95472610D01*
X160175041Y-95337923D01*
X160141370Y-95236908D01*
X160040354Y-95068549D01*
X159939339Y-94967534D01*
X159770980Y-94866519D01*
X159669965Y-94832847D01*
X159535278Y-94832847D01*
X159400591Y-94900191D01*
X159333247Y-94967534D01*
X159265904Y-95102221D01*
X159265904Y-95169565D01*
X158962858Y-95337923D02*
X158491454Y-95809328D01*
X159501606Y-96213389D01*
%TO.C,C4*%
X158485395Y-102986799D02*
X158485395Y-102919456D01*
X158418051Y-102784769D01*
X158350708Y-102717425D01*
X158216020Y-102650082D01*
X158081333Y-102650082D01*
X157980318Y-102683753D01*
X157811959Y-102784769D01*
X157710944Y-102885784D01*
X157609929Y-103054143D01*
X157576257Y-103155158D01*
X157576257Y-103289845D01*
X157643601Y-103424532D01*
X157710944Y-103491876D01*
X157845631Y-103559219D01*
X157912975Y-103559219D01*
X158687425Y-103996952D02*
X159158830Y-103525547D01*
X158249692Y-104097967D02*
X158586410Y-103424532D01*
X159024143Y-103862265D01*
%TO.C,C8*%
X175769440Y-94348984D02*
X175836783Y-94348984D01*
X175971470Y-94281640D01*
X176038814Y-94214297D01*
X176106157Y-94079609D01*
X176106157Y-93944922D01*
X176072486Y-93843907D01*
X175971470Y-93675548D01*
X175870455Y-93574533D01*
X175702096Y-93473518D01*
X175601081Y-93439846D01*
X175466394Y-93439846D01*
X175331707Y-93507190D01*
X175264363Y-93574533D01*
X175197020Y-93709220D01*
X175197020Y-93776564D01*
X175028661Y-94416327D02*
X175062333Y-94315312D01*
X175062333Y-94247968D01*
X175028661Y-94146953D01*
X174994989Y-94113281D01*
X174893974Y-94079609D01*
X174826631Y-94079609D01*
X174725615Y-94113281D01*
X174590928Y-94247968D01*
X174557257Y-94348984D01*
X174557257Y-94416327D01*
X174590928Y-94517342D01*
X174624600Y-94551014D01*
X174725615Y-94584686D01*
X174792959Y-94584686D01*
X174893974Y-94551014D01*
X175028661Y-94416327D01*
X175129676Y-94382655D01*
X175197020Y-94382655D01*
X175298035Y-94416327D01*
X175432722Y-94551014D01*
X175466394Y-94652029D01*
X175466394Y-94719373D01*
X175432722Y-94820388D01*
X175298035Y-94955075D01*
X175197020Y-94988747D01*
X175129676Y-94988747D01*
X175028661Y-94955075D01*
X174893974Y-94820388D01*
X174860302Y-94719373D01*
X174860302Y-94652029D01*
X174893974Y-94551014D01*
%TO.C,JP1*%
X174146798Y-84940087D02*
X174651874Y-84435011D01*
X174719217Y-84300324D01*
X174719217Y-84165637D01*
X174651874Y-84030950D01*
X174584530Y-83963606D01*
X175190622Y-84569698D02*
X174483515Y-85276805D01*
X174752889Y-85546179D01*
X174853904Y-85579850D01*
X174921248Y-85579850D01*
X175022263Y-85546179D01*
X175123279Y-85445163D01*
X175156950Y-85344148D01*
X175156950Y-85276805D01*
X175123279Y-85175789D01*
X174853904Y-84906415D01*
X176268118Y-85647194D02*
X175864057Y-85243133D01*
X176066088Y-85445163D02*
X175358981Y-86152270D01*
X175392653Y-85983911D01*
X175392653Y-85849224D01*
X175358981Y-85748209D01*
%TO.C,J3*%
X151527072Y-79511522D02*
X152032148Y-79006446D01*
X152099492Y-78871759D01*
X152099492Y-78737072D01*
X152032148Y-78602385D01*
X151964805Y-78535042D01*
X151796446Y-79780896D02*
X152234179Y-80218629D01*
X152267851Y-79713553D01*
X152368866Y-79814568D01*
X152469881Y-79848240D01*
X152537225Y-79848240D01*
X152638240Y-79814568D01*
X152806599Y-79646209D01*
X152840270Y-79545194D01*
X152840270Y-79477851D01*
X152806599Y-79376835D01*
X152604568Y-79174805D01*
X152503553Y-79141133D01*
X152436209Y-79141133D01*
%TO.C,FB1*%
X159174654Y-87919699D02*
X158938952Y-87683997D01*
X159309341Y-87313608D02*
X158602234Y-88020715D01*
X158938952Y-88357432D01*
X159780746Y-88525791D02*
X159915433Y-88593135D01*
X159982776Y-88593135D01*
X160083792Y-88559463D01*
X160184807Y-88458448D01*
X160218479Y-88357432D01*
X160218479Y-88290089D01*
X160184807Y-88189073D01*
X159915433Y-87919699D01*
X159208326Y-88626806D01*
X159444028Y-88862509D01*
X159545043Y-88896180D01*
X159612387Y-88896180D01*
X159713402Y-88862509D01*
X159780746Y-88795165D01*
X159814418Y-88694150D01*
X159814418Y-88626806D01*
X159780746Y-88525791D01*
X159545043Y-88290089D01*
X160992929Y-88997196D02*
X160588868Y-88593135D01*
X160790898Y-88795165D02*
X160083792Y-89502272D01*
X160117463Y-89333913D01*
X160117463Y-89199226D01*
X160083792Y-89098211D01*
%TO.C,R2*%
X151752726Y-95293140D02*
X151651711Y-94720720D01*
X152156787Y-94889079D02*
X151449681Y-94181972D01*
X151180306Y-94451346D01*
X151146635Y-94552361D01*
X151146635Y-94619705D01*
X151180306Y-94720720D01*
X151281322Y-94821735D01*
X151382337Y-94855407D01*
X151449681Y-94855407D01*
X151550696Y-94821735D01*
X151820070Y-94552361D01*
X150843589Y-94922751D02*
X150776245Y-94922751D01*
X150675230Y-94956422D01*
X150506871Y-95124781D01*
X150473200Y-95225797D01*
X150473200Y-95293140D01*
X150506871Y-95394155D01*
X150574215Y-95461499D01*
X150708902Y-95528842D01*
X151517024Y-95528842D01*
X151079291Y-95966575D01*
%TO.C,C9*%
X160743421Y-82943353D02*
X160810764Y-82943353D01*
X160945451Y-82876009D01*
X161012795Y-82808666D01*
X161080138Y-82673978D01*
X161080138Y-82539291D01*
X161046467Y-82438276D01*
X160945451Y-82269917D01*
X160844436Y-82168902D01*
X160676077Y-82067887D01*
X160575062Y-82034215D01*
X160440375Y-82034215D01*
X160305688Y-82101559D01*
X160238344Y-82168902D01*
X160171001Y-82303589D01*
X160171001Y-82370933D01*
X160474047Y-83347414D02*
X160339360Y-83482101D01*
X160238344Y-83515772D01*
X160171001Y-83515772D01*
X160002642Y-83482101D01*
X159834283Y-83381085D01*
X159564909Y-83111711D01*
X159531238Y-83010696D01*
X159531238Y-82943353D01*
X159564909Y-82842337D01*
X159699596Y-82707650D01*
X159800612Y-82673978D01*
X159867955Y-82673978D01*
X159968970Y-82707650D01*
X160137329Y-82876009D01*
X160171001Y-82977024D01*
X160171001Y-83044368D01*
X160137329Y-83145383D01*
X160002642Y-83280070D01*
X159901627Y-83313742D01*
X159834283Y-83313742D01*
X159733268Y-83280070D01*
%TO.C,FB3*%
X163011885Y-105086232D02*
X163247587Y-104850530D01*
X163617976Y-105220919D02*
X162910869Y-104513812D01*
X162574152Y-104850530D01*
X162405793Y-105692324D02*
X162338449Y-105827011D01*
X162338449Y-105894354D01*
X162372121Y-105995370D01*
X162473137Y-106096385D01*
X162574152Y-106130057D01*
X162641495Y-106130057D01*
X162742511Y-106096385D01*
X163011885Y-105827011D01*
X162304778Y-105119904D01*
X162069075Y-105355606D01*
X162035404Y-105456621D01*
X162035404Y-105523965D01*
X162069075Y-105624980D01*
X162136419Y-105692324D01*
X162237434Y-105725996D01*
X162304778Y-105725996D01*
X162405793Y-105692324D01*
X162641495Y-105456621D01*
X161665014Y-105759667D02*
X161227282Y-106197400D01*
X161732358Y-106231072D01*
X161631343Y-106332087D01*
X161597671Y-106433102D01*
X161597671Y-106500446D01*
X161631343Y-106601461D01*
X161799701Y-106769820D01*
X161900717Y-106803492D01*
X161968060Y-106803492D01*
X162069075Y-106769820D01*
X162271106Y-106567789D01*
X162304778Y-106466774D01*
X162304778Y-106399431D01*
%TO.C,C10*%
X166079383Y-87577594D02*
X166146727Y-87577594D01*
X166281414Y-87510250D01*
X166348757Y-87442907D01*
X166416101Y-87308220D01*
X166416101Y-87173533D01*
X166382429Y-87072518D01*
X166281414Y-86904159D01*
X166180399Y-86803144D01*
X166012040Y-86702128D01*
X165911025Y-86668457D01*
X165776338Y-86668457D01*
X165641651Y-86735800D01*
X165574307Y-86803144D01*
X165506964Y-86937831D01*
X165506964Y-87005174D01*
X165473292Y-88318373D02*
X165877353Y-87914312D01*
X165675322Y-88116342D02*
X164968215Y-87409235D01*
X165136574Y-87442907D01*
X165271261Y-87442907D01*
X165372277Y-87409235D01*
X164328452Y-88048999D02*
X164261109Y-88116342D01*
X164227437Y-88217357D01*
X164227437Y-88284701D01*
X164261109Y-88385716D01*
X164362124Y-88554075D01*
X164530483Y-88722434D01*
X164698841Y-88823449D01*
X164799857Y-88857121D01*
X164867200Y-88857121D01*
X164968215Y-88823449D01*
X165035559Y-88756105D01*
X165069231Y-88655090D01*
X165069231Y-88587747D01*
X165035559Y-88486731D01*
X164934544Y-88318373D01*
X164766185Y-88150014D01*
X164597826Y-88048999D01*
X164496811Y-88015327D01*
X164429467Y-88015327D01*
X164328452Y-88048999D01*
%TO.C,R5*%
X170941248Y-96668631D02*
X170368828Y-96769646D01*
X170537187Y-96264570D02*
X169830080Y-96971676D01*
X170099454Y-97241051D01*
X170200469Y-97274722D01*
X170267813Y-97274722D01*
X170368828Y-97241051D01*
X170469843Y-97140035D01*
X170503515Y-97039020D01*
X170503515Y-96971676D01*
X170469843Y-96870661D01*
X170200469Y-96601287D01*
X170873905Y-98015501D02*
X170537187Y-97678783D01*
X170840233Y-97308394D01*
X170840233Y-97375738D01*
X170873905Y-97476753D01*
X171042263Y-97645112D01*
X171143279Y-97678783D01*
X171210622Y-97678783D01*
X171311637Y-97645112D01*
X171479996Y-97476753D01*
X171513668Y-97375738D01*
X171513668Y-97308394D01*
X171479996Y-97207379D01*
X171311637Y-97039020D01*
X171210622Y-97005348D01*
X171143279Y-97005348D01*
%TO.C,R3*%
X158383029Y-89526853D02*
X157810609Y-89627868D01*
X157978968Y-89122792D02*
X157271861Y-89829898D01*
X157541235Y-90099273D01*
X157642250Y-90132944D01*
X157709594Y-90132944D01*
X157810609Y-90099273D01*
X157911624Y-89998257D01*
X157945296Y-89897242D01*
X157945296Y-89829898D01*
X157911624Y-89728883D01*
X157642250Y-89459509D01*
X157911624Y-90469662D02*
X158349357Y-90907395D01*
X158383029Y-90402318D01*
X158484044Y-90503334D01*
X158585060Y-90537005D01*
X158652403Y-90537005D01*
X158753418Y-90503334D01*
X158921777Y-90334975D01*
X158955449Y-90233960D01*
X158955449Y-90166616D01*
X158921777Y-90065601D01*
X158719747Y-89863570D01*
X158618731Y-89829898D01*
X158551388Y-89829898D01*
%TO.C,FB2*%
X165033034Y-81842116D02*
X164797332Y-81606414D01*
X165167721Y-81236025D02*
X164460614Y-81943132D01*
X164797332Y-82279849D01*
X165639126Y-82448208D02*
X165773813Y-82515552D01*
X165841156Y-82515552D01*
X165942172Y-82481880D01*
X166043187Y-82380865D01*
X166076859Y-82279849D01*
X166076859Y-82212506D01*
X166043187Y-82111490D01*
X165773813Y-81842116D01*
X165066706Y-82549223D01*
X165302408Y-82784926D01*
X165403423Y-82818597D01*
X165470767Y-82818597D01*
X165571782Y-82784926D01*
X165639126Y-82717582D01*
X165672798Y-82616567D01*
X165672798Y-82549223D01*
X165639126Y-82448208D01*
X165403423Y-82212506D01*
X165807485Y-83155315D02*
X165807485Y-83222658D01*
X165841156Y-83323674D01*
X166009515Y-83492032D01*
X166110530Y-83525704D01*
X166177874Y-83525704D01*
X166278889Y-83492032D01*
X166346233Y-83424689D01*
X166413576Y-83290002D01*
X166413576Y-82481880D01*
X166851309Y-82919613D01*
%TO.C,U4*%
X165563531Y-96905343D02*
X166135951Y-96332923D01*
X166236966Y-96299251D01*
X166304310Y-96299251D01*
X166405325Y-96332923D01*
X166540012Y-96467610D01*
X166573684Y-96568625D01*
X166573684Y-96635969D01*
X166540012Y-96736984D01*
X165967592Y-97309404D01*
X166843058Y-97713465D02*
X167314462Y-97242060D01*
X166405325Y-97814480D02*
X166742043Y-97141045D01*
X167179775Y-97578778D01*
%TO.C,R6*%
X177272210Y-89728208D02*
X177171195Y-89155788D01*
X177676271Y-89324147D02*
X176969165Y-88617040D01*
X176699790Y-88886414D01*
X176666119Y-88987429D01*
X176666119Y-89054773D01*
X176699790Y-89155788D01*
X176800806Y-89256803D01*
X176901821Y-89290475D01*
X176969165Y-89290475D01*
X177070180Y-89256803D01*
X177339554Y-88987429D01*
X175959012Y-89627193D02*
X176093699Y-89492506D01*
X176194714Y-89458834D01*
X176262058Y-89458834D01*
X176430416Y-89492506D01*
X176598775Y-89593521D01*
X176868149Y-89862895D01*
X176901821Y-89963910D01*
X176901821Y-90031254D01*
X176868149Y-90132269D01*
X176733462Y-90266956D01*
X176632447Y-90300628D01*
X176565103Y-90300628D01*
X176464088Y-90266956D01*
X176295729Y-90098597D01*
X176262058Y-89997582D01*
X176262058Y-89930239D01*
X176295729Y-89829223D01*
X176430416Y-89694536D01*
X176531432Y-89660865D01*
X176598775Y-89660865D01*
X176699790Y-89694536D01*
%TO.C,U6*%
X164220029Y-93468805D02*
X164792449Y-92896385D01*
X164893464Y-92862713D01*
X164960808Y-92862713D01*
X165061823Y-92896385D01*
X165196510Y-93031072D01*
X165230182Y-93132087D01*
X165230182Y-93199431D01*
X165196510Y-93300446D01*
X164624090Y-93872866D01*
X165263854Y-94512629D02*
X165129167Y-94377942D01*
X165095495Y-94276927D01*
X165095495Y-94209583D01*
X165129167Y-94041224D01*
X165230182Y-93872866D01*
X165499556Y-93603492D01*
X165600571Y-93569820D01*
X165667915Y-93569820D01*
X165768930Y-93603492D01*
X165903617Y-93738179D01*
X165937289Y-93839194D01*
X165937289Y-93906537D01*
X165903617Y-94007553D01*
X165735258Y-94175911D01*
X165634243Y-94209583D01*
X165566899Y-94209583D01*
X165465884Y-94175911D01*
X165331197Y-94041224D01*
X165297525Y-93940209D01*
X165297525Y-93872866D01*
X165331197Y-93771850D01*
%TO.C,R4*%
X154154533Y-93783635D02*
X153582113Y-93884650D01*
X153750472Y-93379574D02*
X153043365Y-94086680D01*
X153312739Y-94356055D01*
X153413754Y-94389726D01*
X153481098Y-94389726D01*
X153582113Y-94356055D01*
X153683128Y-94255039D01*
X153716800Y-94154024D01*
X153716800Y-94086680D01*
X153683128Y-93985665D01*
X153413754Y-93716291D01*
X154289220Y-94861131D02*
X154760625Y-94389726D01*
X153851487Y-94962146D02*
X154188205Y-94288711D01*
X154625938Y-94726444D01*
D10*
%TO.C,J1*%
X144081488Y-99215000D02*
X142557488Y-99850000D01*
X138398541Y-99510000D02*
X138658461Y-99510000D01*
X130253512Y-103819960D02*
X130253512Y-99510000D01*
X142303489Y-99510000D02*
X142303489Y-103819960D01*
X142557488Y-99850000D02*
X144081488Y-100485000D01*
X130253512Y-99510000D02*
X132658460Y-99510000D01*
X135398540Y-99510000D02*
X135658462Y-99510000D01*
X136898542Y-99510000D02*
X137158461Y-99510000D01*
X140938616Y-105950000D02*
X131618385Y-105950000D01*
X133898540Y-99510000D02*
X134158460Y-99510000D01*
X144081488Y-100485000D02*
X144081488Y-99215000D01*
X139898541Y-99510000D02*
X142303489Y-99510000D01*
D11*
%TO.C,U5*%
X174083833Y-89257479D02*
X171785736Y-86959382D01*
X171785736Y-91555576D02*
X169487639Y-89257479D01*
X169487639Y-89257479D02*
X169682093Y-89063025D01*
X171785736Y-86959382D02*
X171591282Y-87153836D01*
X171785736Y-91555576D02*
X171980190Y-91361122D01*
X173960089Y-89381223D02*
X174720229Y-90141362D01*
X174083833Y-89257479D02*
X173960089Y-89381223D01*
D10*
%TO.C,J2*%
X146686699Y-87760000D02*
X151777868Y-92851169D01*
X157293301Y-87760000D02*
X157081169Y-87547868D01*
X151990000Y-93063301D02*
X151777868Y-92851169D01*
X151990000Y-82456699D02*
X146686699Y-87760000D01*
X157081169Y-87547868D02*
X151990000Y-82456699D01*
X152767817Y-83234517D02*
X147464517Y-88537817D01*
X151990000Y-93063301D02*
X157293301Y-87760000D01*
%TO.C,C6*%
X157379321Y-99027043D02*
X157009854Y-98657576D01*
X158418768Y-97987596D02*
X158049301Y-97618129D01*
%TO.C,C5*%
X162489931Y-93149216D02*
X162859398Y-93518683D01*
X161450484Y-94188663D02*
X161819951Y-94558130D01*
%TO.C,C7*%
X160948438Y-97471410D02*
X161317905Y-97101943D01*
X159908991Y-96431963D02*
X160278458Y-96062496D01*
%TO.C,C4*%
X160342099Y-101749407D02*
X159972632Y-101379940D01*
X159302652Y-102788854D02*
X158933185Y-102419387D01*
%TO.C,C8*%
X173506655Y-92691368D02*
X173876122Y-92321901D01*
X174546102Y-93730815D02*
X174915569Y-93361348D01*
%TO.C,JP1*%
X172648405Y-86627042D02*
X173638355Y-87616992D01*
X173072670Y-85212828D02*
X172648405Y-85637093D01*
X174628304Y-87616992D02*
X175052569Y-87192727D01*
X175052569Y-86202778D02*
X174062619Y-85212828D01*
X174062619Y-85212828D02*
G75*
G03*
X173072670Y-85212828I-494975J-494975D01*
G01*
X175052570Y-87192728D02*
G75*
G03*
X175052569Y-86202778I-494975J494975D01*
G01*
X172648405Y-85637093D02*
G75*
G03*
X172648405Y-86627042I494975J-494974D01*
G01*
X173638355Y-87616992D02*
G75*
G03*
X174628304Y-87616992I494975J494974D01*
G01*
%TO.C,J3*%
X154102231Y-82665923D02*
X146918026Y-89850128D01*
X149612102Y-78175795D02*
X142427898Y-85360000D01*
X148714077Y-77277769D02*
X154102231Y-82665923D01*
X141529872Y-84461974D02*
X148714077Y-77277769D01*
X146918026Y-89850128D02*
X141529872Y-84461974D01*
%TO.C,FB1*%
X160832480Y-87797132D02*
X160496947Y-87461599D01*
X161571407Y-87058205D02*
X161235874Y-86722672D01*
%TO.C,R2*%
X152888135Y-96250937D02*
X152552602Y-96586470D01*
X152149208Y-95512010D02*
X151813675Y-95847543D01*
%TO.C,C9*%
X161225981Y-83292148D02*
X160856514Y-83661615D01*
X162265428Y-84331595D02*
X161895961Y-84701062D01*
%TO.C,FB3*%
X161868390Y-104707934D02*
X161532857Y-105043467D01*
X161129463Y-103969007D02*
X160793930Y-104304540D01*
%TO.C,C10*%
X163479881Y-86256696D02*
X163849348Y-85887229D01*
X164519328Y-87296143D02*
X164888795Y-86926676D01*
%TO.C,R5*%
X168289264Y-95395337D02*
X168624797Y-95730870D01*
X169028191Y-94656410D02*
X169363724Y-94991943D01*
%TO.C,R3*%
X156622000Y-91237550D02*
X156957533Y-91573083D01*
X157360927Y-90498623D02*
X157696460Y-90834156D01*
%TO.C,FB2*%
X164459938Y-83929258D02*
X164124405Y-83593725D01*
X165198865Y-83190331D02*
X164863332Y-82854798D01*
%TO.C,U4*%
X164854321Y-100947721D02*
X165914981Y-99887061D01*
X162577437Y-98670837D02*
X161516777Y-99731497D01*
X164854321Y-100947721D02*
X163793661Y-102008381D01*
X162577437Y-98670837D02*
X164645724Y-96602550D01*
%TO.C,R6*%
X175512017Y-87832828D02*
X175176484Y-88168361D01*
X176250944Y-88571755D02*
X175915411Y-88907288D01*
%TO.C,U6*%
X168018625Y-90821952D02*
X167559005Y-90362333D01*
X168018625Y-90821952D02*
X169203028Y-92006356D01*
X165812451Y-93028126D02*
X166272071Y-93487745D01*
X165812451Y-93028126D02*
X165352832Y-92568506D01*
%TO.C,R4*%
X155532716Y-92955475D02*
X155197183Y-92619942D01*
X154793789Y-93694402D02*
X154458256Y-93358869D01*
%TD*%
%LPC*%
D13*
%TO.C,J4*%
X110500000Y-85000000D03*
%TD*%
%TO.C,J5*%
X149500000Y-124000000D03*
%TD*%
%TO.C,J6*%
X149500000Y-46000000D03*
%TD*%
%TO.C,J7*%
X188500000Y-85000000D03*
%TD*%
D14*
%TO.C,J1*%
X139278501Y-99850000D03*
X137778501Y-99850000D03*
X136278502Y-99850000D03*
X134778500Y-99850000D03*
X133278500Y-99850000D03*
D15*
X141883500Y-105040000D03*
X130673502Y-105040000D03*
%TD*%
D16*
%TO.C,U5*%
X174013122Y-90070652D03*
X173659569Y-90424205D03*
X173306016Y-90777759D03*
X172952462Y-91131312D03*
X172598909Y-91484865D03*
X169558350Y-88444306D03*
X169911903Y-88090753D03*
X170265456Y-87737199D03*
X170619010Y-87383646D03*
X170972563Y-87030093D03*
%TD*%
D17*
%TO.C,J2*%
X153121371Y-86416497D03*
X150646497Y-88891371D03*
%TD*%
D18*
%TO.C,C6*%
X158386062Y-98994337D03*
X157042560Y-97650835D03*
%TD*%
D19*
%TO.C,C5*%
X161483190Y-93181922D03*
X162826692Y-94525424D03*
%TD*%
D20*
%TO.C,C7*%
X159941697Y-97438704D03*
X161285199Y-96095202D03*
%TD*%
D18*
%TO.C,C4*%
X160309393Y-102756148D03*
X158965891Y-101412646D03*
%TD*%
D20*
%TO.C,C8*%
X173539361Y-93698109D03*
X174882863Y-92354607D03*
%TD*%
D21*
%TO.C,JP1*%
X174310106Y-86874529D03*
D22*
X173390868Y-85955291D03*
%TD*%
D23*
%TO.C,J3*%
X146020000Y-85360000D03*
D24*
X149612102Y-81767898D03*
%TD*%
D25*
%TO.C,FB1*%
X161617540Y-87843265D03*
X160450814Y-86676539D03*
%TD*%
D26*
%TO.C,R2*%
X152934268Y-95465877D03*
X151767542Y-96632603D03*
%TD*%
D27*
%TO.C,C9*%
X162232722Y-83324854D03*
X160889220Y-84668356D03*
%TD*%
D26*
%TO.C,FB3*%
X161914523Y-103922874D03*
X160747797Y-105089600D03*
%TD*%
D20*
%TO.C,C10*%
X163512587Y-87263437D03*
X164856089Y-85919935D03*
%TD*%
D28*
%TO.C,R5*%
X168243131Y-94610277D03*
X169409857Y-95777003D03*
%TD*%
%TO.C,R3*%
X156575867Y-90452490D03*
X157742593Y-91619216D03*
%TD*%
D25*
%TO.C,FB2*%
X165244998Y-83975391D03*
X164078272Y-82808665D03*
%TD*%
D29*
%TO.C,U4*%
X164520213Y-97626087D03*
X164979832Y-98085706D03*
X165439452Y-98545326D03*
X165899071Y-99004945D03*
X162911545Y-101992471D03*
X162451926Y-101532852D03*
X161992306Y-101073232D03*
X161532687Y-100613613D03*
%TD*%
D26*
%TO.C,R6*%
X176297077Y-87786695D03*
X175130351Y-88953421D03*
%TD*%
D30*
%TO.C,U6*%
X168250202Y-91916200D03*
X166906699Y-93259703D03*
X166252625Y-91262126D03*
%TD*%
D25*
%TO.C,R4*%
X155578849Y-93740535D03*
X154412123Y-92573809D03*
%TD*%
M02*
