%TF.GenerationSoftware,KiCad,Pcbnew,(6.0.9)*%
%TF.CreationDate,2023-03-28T01:31:43-07:00*%
%TF.ProjectId,solar-panel-side-Z,736f6c61-722d-4706-916e-656c2d736964,3.1*%
%TF.SameCoordinates,Original*%
%TF.FileFunction,Soldermask,Bot*%
%TF.FilePolarity,Negative*%
%FSLAX46Y46*%
G04 Gerber Fmt 4.6, Leading zero omitted, Abs format (unit mm)*
G04 Created by KiCad (PCBNEW (6.0.9)) date 2023-03-28 01:31:43*
%MOMM*%
%LPD*%
G01*
G04 APERTURE LIST*
G04 Aperture macros list*
%AMRoundRect*
0 Rectangle with rounded corners*
0 $1 Rounding radius*
0 $2 $3 $4 $5 $6 $7 $8 $9 X,Y pos of 4 corners*
0 Add a 4 corners polygon primitive as box body*
4,1,4,$2,$3,$4,$5,$6,$7,$8,$9,$2,$3,0*
0 Add four circle primitives for the rounded corners*
1,1,$1+$1,$2,$3*
1,1,$1+$1,$4,$5*
1,1,$1+$1,$6,$7*
1,1,$1+$1,$8,$9*
0 Add four rect primitives between the rounded corners*
20,1,$1+$1,$2,$3,$4,$5,0*
20,1,$1+$1,$4,$5,$6,$7,0*
20,1,$1+$1,$6,$7,$8,$9,0*
20,1,$1+$1,$8,$9,$2,$3,0*%
%AMRotRect*
0 Rectangle, with rotation*
0 The origin of the aperture is its center*
0 $1 length*
0 $2 width*
0 $3 Rotation angle, in degrees counterclockwise*
0 Add horizontal line*
21,1,$1,$2,0,0,$3*%
%AMFreePoly0*
4,1,22,0.499999,-0.750000,0.000000,-0.750000,0.000000,-0.745033,-0.079941,-0.743568,-0.215256,-0.701293,-0.333266,-0.622738,-0.424486,-0.514219,-0.481581,-0.384460,-0.499164,-0.250000,-0.500000,-0.250000,-0.500000,0.250000,-0.499164,0.250000,-0.499963,0.256109,-0.478152,0.396186,-0.417904,0.524511,-0.324060,0.630769,-0.204165,0.706417,-0.067858,0.745374,0.000000,0.744960,0.000000,0.750000,
0.499999,0.750000,0.499999,-0.750000,0.499999,-0.750000,$1*%
%AMFreePoly1*
4,1,20,0.000000,0.744960,0.073905,0.744508,0.209726,0.703889,0.328688,0.626782,0.421226,0.519385,0.479903,0.390333,0.500000,0.250000,0.500000,-0.250000,0.499851,-0.262216,0.476331,-0.402017,0.414519,-0.529596,0.319384,-0.634700,0.198574,-0.708877,0.061801,-0.746166,0.000000,-0.745033,0.000000,-0.750000,-0.499999,-0.750000,-0.499999,0.750000,0.000000,0.750000,0.000000,0.744960,
0.000000,0.744960,$1*%
G04 Aperture macros list end*
%ADD10C,5.250000*%
%ADD11R,0.600000X1.000000*%
%ADD12R,1.250000X1.800000*%
%ADD13RotRect,1.100000X0.250000X135.000000*%
%ADD14C,1.800000*%
%ADD15RoundRect,0.250000X0.512652X0.159099X0.159099X0.512652X-0.512652X-0.159099X-0.159099X-0.512652X0*%
%ADD16RoundRect,0.250000X-0.512652X-0.159099X-0.159099X-0.512652X0.512652X0.159099X0.159099X0.512652X0*%
%ADD17RoundRect,0.250000X0.159099X-0.512652X0.512652X-0.159099X-0.159099X0.512652X-0.512652X0.159099X0*%
%ADD18FreePoly0,135.000000*%
%ADD19FreePoly1,135.000000*%
%ADD20RotRect,3.000000X3.000000X45.000000*%
%ADD21C,3.000000*%
%ADD22RoundRect,0.200000X0.335876X0.053033X0.053033X0.335876X-0.335876X-0.053033X-0.053033X-0.335876X0*%
%ADD23RoundRect,0.200000X-0.053033X0.335876X-0.335876X0.053033X0.053033X-0.335876X0.335876X-0.053033X0*%
%ADD24RoundRect,0.250000X-0.159099X0.512652X-0.512652X0.159099X0.159099X-0.512652X0.512652X-0.159099X0*%
%ADD25RoundRect,0.200000X-0.335876X-0.053033X-0.053033X-0.335876X0.335876X0.053033X0.053033X0.335876X0*%
%ADD26RoundRect,0.100000X0.433103X0.574524X-0.574524X-0.433103X-0.433103X-0.574524X0.574524X0.433103X0*%
%ADD27RoundRect,0.150000X0.521491X-0.309359X-0.309359X0.521491X-0.521491X0.309359X0.309359X-0.521491X0*%
G04 APERTURE END LIST*
D10*
%TO.C,J4*%
X110500000Y-85000000D03*
%TD*%
%TO.C,J5*%
X149500000Y-124000000D03*
%TD*%
%TO.C,J6*%
X149500000Y-46000000D03*
%TD*%
%TO.C,J7*%
X188500000Y-85000000D03*
%TD*%
D11*
%TO.C,J1*%
X139278501Y-99850000D03*
X137778501Y-99850000D03*
X136278502Y-99850000D03*
X134778500Y-99850000D03*
X133278500Y-99850000D03*
D12*
X141883500Y-105040000D03*
X130673502Y-105040000D03*
%TD*%
D13*
%TO.C,U5*%
X174013122Y-90070652D03*
X173659569Y-90424205D03*
X173306016Y-90777759D03*
X172952462Y-91131312D03*
X172598909Y-91484865D03*
X169558350Y-88444306D03*
X169911903Y-88090753D03*
X170265456Y-87737199D03*
X170619010Y-87383646D03*
X170972563Y-87030093D03*
%TD*%
D14*
%TO.C,J2*%
X153121371Y-86416497D03*
X150646497Y-88891371D03*
%TD*%
D15*
%TO.C,C6*%
X158386062Y-98994337D03*
X157042560Y-97650835D03*
%TD*%
D16*
%TO.C,C5*%
X161483190Y-93181922D03*
X162826692Y-94525424D03*
%TD*%
D17*
%TO.C,C7*%
X159941697Y-97438704D03*
X161285199Y-96095202D03*
%TD*%
D15*
%TO.C,C4*%
X160309393Y-102756148D03*
X158965891Y-101412646D03*
%TD*%
D17*
%TO.C,C8*%
X173539361Y-93698109D03*
X174882863Y-92354607D03*
%TD*%
D18*
%TO.C,JP1*%
X174310106Y-86874529D03*
D19*
X173390868Y-85955291D03*
%TD*%
D20*
%TO.C,J3*%
X146020000Y-85360000D03*
D21*
X149612102Y-81767898D03*
%TD*%
D22*
%TO.C,FB1*%
X161617540Y-87843265D03*
X160450814Y-86676539D03*
%TD*%
D23*
%TO.C,R2*%
X152934268Y-95465877D03*
X151767542Y-96632603D03*
%TD*%
D24*
%TO.C,C9*%
X162232722Y-83324854D03*
X160889220Y-84668356D03*
%TD*%
D23*
%TO.C,FB3*%
X161914523Y-103922874D03*
X160747797Y-105089600D03*
%TD*%
D17*
%TO.C,C10*%
X163512587Y-87263437D03*
X164856089Y-85919935D03*
%TD*%
D25*
%TO.C,R5*%
X168243131Y-94610277D03*
X169409857Y-95777003D03*
%TD*%
%TO.C,R3*%
X156575867Y-90452490D03*
X157742593Y-91619216D03*
%TD*%
D22*
%TO.C,FB2*%
X165244998Y-83975391D03*
X164078272Y-82808665D03*
%TD*%
D26*
%TO.C,U4*%
X164520213Y-97626087D03*
X164979832Y-98085706D03*
X165439452Y-98545326D03*
X165899071Y-99004945D03*
X162911545Y-101992471D03*
X162451926Y-101532852D03*
X161992306Y-101073232D03*
X161532687Y-100613613D03*
%TD*%
D23*
%TO.C,R6*%
X176297077Y-87786695D03*
X175130351Y-88953421D03*
%TD*%
D27*
%TO.C,U6*%
X168250202Y-91916200D03*
X166906699Y-93259703D03*
X166252625Y-91262126D03*
%TD*%
D22*
%TO.C,R4*%
X155578849Y-93740535D03*
X154412123Y-92573809D03*
%TD*%
M02*
