%TF.GenerationSoftware,KiCad,Pcbnew,8.0.2-1*%
%TF.CreationDate,2024-05-28T20:36:57-07:00*%
%TF.ProjectId,solar-panel-side-Z,736f6c61-722d-4706-916e-656c2d736964,3.1*%
%TF.SameCoordinates,Original*%
%TF.FileFunction,Soldermask,Top*%
%TF.FilePolarity,Negative*%
%FSLAX46Y46*%
G04 Gerber Fmt 4.6, Leading zero omitted, Abs format (unit mm)*
G04 Created by KiCad (PCBNEW 8.0.2-1) date 2024-05-28 20:36:57*
%MOMM*%
%LPD*%
G01*
G04 APERTURE LIST*
G04 Aperture macros list*
%AMRoundRect*
0 Rectangle with rounded corners*
0 $1 Rounding radius*
0 $2 $3 $4 $5 $6 $7 $8 $9 X,Y pos of 4 corners*
0 Add a 4 corners polygon primitive as box body*
4,1,4,$2,$3,$4,$5,$6,$7,$8,$9,$2,$3,0*
0 Add four circle primitives for the rounded corners*
1,1,$1+$1,$2,$3*
1,1,$1+$1,$4,$5*
1,1,$1+$1,$6,$7*
1,1,$1+$1,$8,$9*
0 Add four rect primitives between the rounded corners*
20,1,$1+$1,$2,$3,$4,$5,0*
20,1,$1+$1,$4,$5,$6,$7,0*
20,1,$1+$1,$6,$7,$8,$9,0*
20,1,$1+$1,$8,$9,$2,$3,0*%
%AMRotRect*
0 Rectangle, with rotation*
0 The origin of the aperture is its center*
0 $1 length*
0 $2 width*
0 $3 Rotation angle, in degrees counterclockwise*
0 Add horizontal line*
21,1,$1,$2,0,0,$3*%
G04 Aperture macros list end*
%ADD10C,0.250000*%
%ADD11C,5.250000*%
%ADD12RotRect,2.500000X1.700000X45.000000*%
%ADD13RoundRect,0.750000X0.750000X-0.750000X0.750000X0.750000X-0.750000X0.750000X-0.750000X-0.750000X0*%
%ADD14RoundRect,0.218750X0.335876X0.026517X0.026517X0.335876X-0.335876X-0.026517X-0.026517X-0.335876X0*%
%ADD15RoundRect,0.250000X0.512652X0.159099X0.159099X0.512652X-0.512652X-0.159099X-0.159099X-0.512652X0*%
%ADD16RotRect,13.000000X3.000000X45.000000*%
%ADD17RotRect,1.730000X2.360000X315.000000*%
%ADD18RoundRect,0.087500X-0.477297X0.353553X0.353553X-0.477297X0.477297X-0.353553X-0.353553X0.477297X0*%
%ADD19RoundRect,0.200000X-0.335876X-0.053033X-0.053033X-0.335876X0.335876X0.053033X0.053033X0.335876X0*%
%ADD20RoundRect,0.075000X-0.512652X0.406586X0.406586X-0.512652X0.512652X-0.406586X-0.406586X0.512652X0*%
%ADD21RotRect,2.500000X1.700000X135.000000*%
%ADD22RotRect,1.600000X0.700000X135.000000*%
%ADD23RotRect,13.000000X3.000000X225.000000*%
G04 APERTURE END LIST*
D10*
X137654949Y-131578904D02*
X138131139Y-131578904D01*
X137559711Y-131864619D02*
X137893044Y-130864619D01*
X137893044Y-130864619D02*
X138226377Y-131864619D01*
X138559711Y-131864619D02*
X138559711Y-131197952D01*
X138559711Y-131388428D02*
X138607330Y-131293190D01*
X138607330Y-131293190D02*
X138654949Y-131245571D01*
X138654949Y-131245571D02*
X138750187Y-131197952D01*
X138750187Y-131197952D02*
X138845425Y-131197952D01*
X139035902Y-131197952D02*
X139416854Y-131197952D01*
X139178759Y-130864619D02*
X139178759Y-131721761D01*
X139178759Y-131721761D02*
X139226378Y-131817000D01*
X139226378Y-131817000D02*
X139321616Y-131864619D01*
X139321616Y-131864619D02*
X139416854Y-131864619D01*
X139750188Y-131864619D02*
X139750188Y-131197952D01*
X139750188Y-130864619D02*
X139702569Y-130912238D01*
X139702569Y-130912238D02*
X139750188Y-130959857D01*
X139750188Y-130959857D02*
X139797807Y-130912238D01*
X139797807Y-130912238D02*
X139750188Y-130864619D01*
X139750188Y-130864619D02*
X139750188Y-130959857D01*
X140178759Y-131817000D02*
X140273997Y-131864619D01*
X140273997Y-131864619D02*
X140464473Y-131864619D01*
X140464473Y-131864619D02*
X140559711Y-131817000D01*
X140559711Y-131817000D02*
X140607330Y-131721761D01*
X140607330Y-131721761D02*
X140607330Y-131674142D01*
X140607330Y-131674142D02*
X140559711Y-131578904D01*
X140559711Y-131578904D02*
X140464473Y-131531285D01*
X140464473Y-131531285D02*
X140321616Y-131531285D01*
X140321616Y-131531285D02*
X140226378Y-131483666D01*
X140226378Y-131483666D02*
X140178759Y-131388428D01*
X140178759Y-131388428D02*
X140178759Y-131340809D01*
X140178759Y-131340809D02*
X140226378Y-131245571D01*
X140226378Y-131245571D02*
X140321616Y-131197952D01*
X140321616Y-131197952D02*
X140464473Y-131197952D01*
X140464473Y-131197952D02*
X140559711Y-131245571D01*
X141464473Y-131864619D02*
X141464473Y-131340809D01*
X141464473Y-131340809D02*
X141416854Y-131245571D01*
X141416854Y-131245571D02*
X141321616Y-131197952D01*
X141321616Y-131197952D02*
X141131140Y-131197952D01*
X141131140Y-131197952D02*
X141035902Y-131245571D01*
X141464473Y-131817000D02*
X141369235Y-131864619D01*
X141369235Y-131864619D02*
X141131140Y-131864619D01*
X141131140Y-131864619D02*
X141035902Y-131817000D01*
X141035902Y-131817000D02*
X140988283Y-131721761D01*
X140988283Y-131721761D02*
X140988283Y-131626523D01*
X140988283Y-131626523D02*
X141035902Y-131531285D01*
X141035902Y-131531285D02*
X141131140Y-131483666D01*
X141131140Y-131483666D02*
X141369235Y-131483666D01*
X141369235Y-131483666D02*
X141464473Y-131436047D01*
X141940664Y-131197952D02*
X141940664Y-131864619D01*
X141940664Y-131293190D02*
X141988283Y-131245571D01*
X141988283Y-131245571D02*
X142083521Y-131197952D01*
X142083521Y-131197952D02*
X142226378Y-131197952D01*
X142226378Y-131197952D02*
X142321616Y-131245571D01*
X142321616Y-131245571D02*
X142369235Y-131340809D01*
X142369235Y-131340809D02*
X142369235Y-131864619D01*
X143273997Y-131864619D02*
X143273997Y-131340809D01*
X143273997Y-131340809D02*
X143226378Y-131245571D01*
X143226378Y-131245571D02*
X143131140Y-131197952D01*
X143131140Y-131197952D02*
X142940664Y-131197952D01*
X142940664Y-131197952D02*
X142845426Y-131245571D01*
X143273997Y-131817000D02*
X143178759Y-131864619D01*
X143178759Y-131864619D02*
X142940664Y-131864619D01*
X142940664Y-131864619D02*
X142845426Y-131817000D01*
X142845426Y-131817000D02*
X142797807Y-131721761D01*
X142797807Y-131721761D02*
X142797807Y-131626523D01*
X142797807Y-131626523D02*
X142845426Y-131531285D01*
X142845426Y-131531285D02*
X142940664Y-131483666D01*
X142940664Y-131483666D02*
X143178759Y-131483666D01*
X143178759Y-131483666D02*
X143273997Y-131436047D01*
X143893045Y-131864619D02*
X143797807Y-131817000D01*
X143797807Y-131817000D02*
X143750188Y-131721761D01*
X143750188Y-131721761D02*
X143750188Y-130864619D01*
X144416855Y-131864619D02*
X144321617Y-131817000D01*
X144321617Y-131817000D02*
X144273998Y-131721761D01*
X144273998Y-131721761D02*
X144273998Y-130864619D01*
X144702570Y-131197952D02*
X144940665Y-131864619D01*
X145178760Y-131197952D02*
X144940665Y-131864619D01*
X144940665Y-131864619D02*
X144845427Y-132102714D01*
X144845427Y-132102714D02*
X144797808Y-132150333D01*
X144797808Y-132150333D02*
X144702570Y-132197952D01*
X146321618Y-131864619D02*
X146321618Y-130864619D01*
X146321618Y-131340809D02*
X146893046Y-131340809D01*
X146893046Y-131864619D02*
X146893046Y-130864619D01*
X147797808Y-131864619D02*
X147797808Y-131340809D01*
X147797808Y-131340809D02*
X147750189Y-131245571D01*
X147750189Y-131245571D02*
X147654951Y-131197952D01*
X147654951Y-131197952D02*
X147464475Y-131197952D01*
X147464475Y-131197952D02*
X147369237Y-131245571D01*
X147797808Y-131817000D02*
X147702570Y-131864619D01*
X147702570Y-131864619D02*
X147464475Y-131864619D01*
X147464475Y-131864619D02*
X147369237Y-131817000D01*
X147369237Y-131817000D02*
X147321618Y-131721761D01*
X147321618Y-131721761D02*
X147321618Y-131626523D01*
X147321618Y-131626523D02*
X147369237Y-131531285D01*
X147369237Y-131531285D02*
X147464475Y-131483666D01*
X147464475Y-131483666D02*
X147702570Y-131483666D01*
X147702570Y-131483666D02*
X147797808Y-131436047D01*
X148273999Y-131197952D02*
X148273999Y-131864619D01*
X148273999Y-131293190D02*
X148321618Y-131245571D01*
X148321618Y-131245571D02*
X148416856Y-131197952D01*
X148416856Y-131197952D02*
X148559713Y-131197952D01*
X148559713Y-131197952D02*
X148654951Y-131245571D01*
X148654951Y-131245571D02*
X148702570Y-131340809D01*
X148702570Y-131340809D02*
X148702570Y-131864619D01*
X149607332Y-131864619D02*
X149607332Y-130864619D01*
X149607332Y-131817000D02*
X149512094Y-131864619D01*
X149512094Y-131864619D02*
X149321618Y-131864619D01*
X149321618Y-131864619D02*
X149226380Y-131817000D01*
X149226380Y-131817000D02*
X149178761Y-131769380D01*
X149178761Y-131769380D02*
X149131142Y-131674142D01*
X149131142Y-131674142D02*
X149131142Y-131388428D01*
X149131142Y-131388428D02*
X149178761Y-131293190D01*
X149178761Y-131293190D02*
X149226380Y-131245571D01*
X149226380Y-131245571D02*
X149321618Y-131197952D01*
X149321618Y-131197952D02*
X149512094Y-131197952D01*
X149512094Y-131197952D02*
X149607332Y-131245571D01*
X151416856Y-131769380D02*
X151369237Y-131817000D01*
X151369237Y-131817000D02*
X151226380Y-131864619D01*
X151226380Y-131864619D02*
X151131142Y-131864619D01*
X151131142Y-131864619D02*
X150988285Y-131817000D01*
X150988285Y-131817000D02*
X150893047Y-131721761D01*
X150893047Y-131721761D02*
X150845428Y-131626523D01*
X150845428Y-131626523D02*
X150797809Y-131436047D01*
X150797809Y-131436047D02*
X150797809Y-131293190D01*
X150797809Y-131293190D02*
X150845428Y-131102714D01*
X150845428Y-131102714D02*
X150893047Y-131007476D01*
X150893047Y-131007476D02*
X150988285Y-130912238D01*
X150988285Y-130912238D02*
X151131142Y-130864619D01*
X151131142Y-130864619D02*
X151226380Y-130864619D01*
X151226380Y-130864619D02*
X151369237Y-130912238D01*
X151369237Y-130912238D02*
X151416856Y-130959857D01*
X151845428Y-131864619D02*
X151845428Y-131197952D01*
X151845428Y-131388428D02*
X151893047Y-131293190D01*
X151893047Y-131293190D02*
X151940666Y-131245571D01*
X151940666Y-131245571D02*
X152035904Y-131197952D01*
X152035904Y-131197952D02*
X152131142Y-131197952D01*
X152893047Y-131864619D02*
X152893047Y-131340809D01*
X152893047Y-131340809D02*
X152845428Y-131245571D01*
X152845428Y-131245571D02*
X152750190Y-131197952D01*
X152750190Y-131197952D02*
X152559714Y-131197952D01*
X152559714Y-131197952D02*
X152464476Y-131245571D01*
X152893047Y-131817000D02*
X152797809Y-131864619D01*
X152797809Y-131864619D02*
X152559714Y-131864619D01*
X152559714Y-131864619D02*
X152464476Y-131817000D01*
X152464476Y-131817000D02*
X152416857Y-131721761D01*
X152416857Y-131721761D02*
X152416857Y-131626523D01*
X152416857Y-131626523D02*
X152464476Y-131531285D01*
X152464476Y-131531285D02*
X152559714Y-131483666D01*
X152559714Y-131483666D02*
X152797809Y-131483666D01*
X152797809Y-131483666D02*
X152893047Y-131436047D01*
X153226381Y-131197952D02*
X153607333Y-131197952D01*
X153369238Y-131864619D02*
X153369238Y-131007476D01*
X153369238Y-131007476D02*
X153416857Y-130912238D01*
X153416857Y-130912238D02*
X153512095Y-130864619D01*
X153512095Y-130864619D02*
X153607333Y-130864619D01*
X153797810Y-131197952D02*
X154178762Y-131197952D01*
X153940667Y-130864619D02*
X153940667Y-131721761D01*
X153940667Y-131721761D02*
X153988286Y-131817000D01*
X153988286Y-131817000D02*
X154083524Y-131864619D01*
X154083524Y-131864619D02*
X154178762Y-131864619D01*
X154893048Y-131817000D02*
X154797810Y-131864619D01*
X154797810Y-131864619D02*
X154607334Y-131864619D01*
X154607334Y-131864619D02*
X154512096Y-131817000D01*
X154512096Y-131817000D02*
X154464477Y-131721761D01*
X154464477Y-131721761D02*
X154464477Y-131340809D01*
X154464477Y-131340809D02*
X154512096Y-131245571D01*
X154512096Y-131245571D02*
X154607334Y-131197952D01*
X154607334Y-131197952D02*
X154797810Y-131197952D01*
X154797810Y-131197952D02*
X154893048Y-131245571D01*
X154893048Y-131245571D02*
X154940667Y-131340809D01*
X154940667Y-131340809D02*
X154940667Y-131436047D01*
X154940667Y-131436047D02*
X154464477Y-131531285D01*
X155797810Y-131864619D02*
X155797810Y-130864619D01*
X155797810Y-131817000D02*
X155702572Y-131864619D01*
X155702572Y-131864619D02*
X155512096Y-131864619D01*
X155512096Y-131864619D02*
X155416858Y-131817000D01*
X155416858Y-131817000D02*
X155369239Y-131769380D01*
X155369239Y-131769380D02*
X155321620Y-131674142D01*
X155321620Y-131674142D02*
X155321620Y-131388428D01*
X155321620Y-131388428D02*
X155369239Y-131293190D01*
X155369239Y-131293190D02*
X155416858Y-131245571D01*
X155416858Y-131245571D02*
X155512096Y-131197952D01*
X155512096Y-131197952D02*
X155702572Y-131197952D01*
X155702572Y-131197952D02*
X155797810Y-131245571D01*
X157035906Y-131864619D02*
X157035906Y-130864619D01*
X157035906Y-130864619D02*
X157416858Y-130864619D01*
X157416858Y-130864619D02*
X157512096Y-130912238D01*
X157512096Y-130912238D02*
X157559715Y-130959857D01*
X157559715Y-130959857D02*
X157607334Y-131055095D01*
X157607334Y-131055095D02*
X157607334Y-131197952D01*
X157607334Y-131197952D02*
X157559715Y-131293190D01*
X157559715Y-131293190D02*
X157512096Y-131340809D01*
X157512096Y-131340809D02*
X157416858Y-131388428D01*
X157416858Y-131388428D02*
X157035906Y-131388428D01*
X158607334Y-131769380D02*
X158559715Y-131817000D01*
X158559715Y-131817000D02*
X158416858Y-131864619D01*
X158416858Y-131864619D02*
X158321620Y-131864619D01*
X158321620Y-131864619D02*
X158178763Y-131817000D01*
X158178763Y-131817000D02*
X158083525Y-131721761D01*
X158083525Y-131721761D02*
X158035906Y-131626523D01*
X158035906Y-131626523D02*
X157988287Y-131436047D01*
X157988287Y-131436047D02*
X157988287Y-131293190D01*
X157988287Y-131293190D02*
X158035906Y-131102714D01*
X158035906Y-131102714D02*
X158083525Y-131007476D01*
X158083525Y-131007476D02*
X158178763Y-130912238D01*
X158178763Y-130912238D02*
X158321620Y-130864619D01*
X158321620Y-130864619D02*
X158416858Y-130864619D01*
X158416858Y-130864619D02*
X158559715Y-130912238D01*
X158559715Y-130912238D02*
X158607334Y-130959857D01*
X159369239Y-131340809D02*
X159512096Y-131388428D01*
X159512096Y-131388428D02*
X159559715Y-131436047D01*
X159559715Y-131436047D02*
X159607334Y-131531285D01*
X159607334Y-131531285D02*
X159607334Y-131674142D01*
X159607334Y-131674142D02*
X159559715Y-131769380D01*
X159559715Y-131769380D02*
X159512096Y-131817000D01*
X159512096Y-131817000D02*
X159416858Y-131864619D01*
X159416858Y-131864619D02*
X159035906Y-131864619D01*
X159035906Y-131864619D02*
X159035906Y-130864619D01*
X159035906Y-130864619D02*
X159369239Y-130864619D01*
X159369239Y-130864619D02*
X159464477Y-130912238D01*
X159464477Y-130912238D02*
X159512096Y-130959857D01*
X159512096Y-130959857D02*
X159559715Y-131055095D01*
X159559715Y-131055095D02*
X159559715Y-131150333D01*
X159559715Y-131150333D02*
X159512096Y-131245571D01*
X159512096Y-131245571D02*
X159464477Y-131293190D01*
X159464477Y-131293190D02*
X159369239Y-131340809D01*
X159369239Y-131340809D02*
X159035906Y-131340809D01*
D11*
%TO.C,J4*%
X110500000Y-85000000D03*
%TD*%
%TO.C,J5*%
X149500000Y-124000000D03*
%TD*%
%TO.C,J6*%
X149500000Y-46000000D03*
%TD*%
%TO.C,J7*%
X188500000Y-85000000D03*
%TD*%
D12*
%TO.C,D2*%
X112421572Y-50578428D03*
X115250000Y-47750000D03*
%TD*%
D13*
%TO.C,TP1*%
X113410000Y-130950000D03*
%TD*%
D14*
%TO.C,D4*%
X168840000Y-69680000D03*
X167726306Y-68566306D03*
%TD*%
D15*
%TO.C,C3*%
X141201700Y-91147870D03*
X139858198Y-89804368D03*
%TD*%
D16*
%TO.C,SC5*%
X108537864Y-97657864D03*
X136822136Y-125942136D03*
%TD*%
D17*
%TO.C,U3*%
X162041249Y-72946863D03*
D18*
X161192721Y-70719477D03*
X160733101Y-71179096D03*
X160273482Y-71638715D03*
X159813863Y-72098335D03*
X162889777Y-75174249D03*
X163349397Y-74714630D03*
X163809016Y-74255011D03*
X164268635Y-73795391D03*
%TD*%
D13*
%TO.C,TP2*%
X119890000Y-130920000D03*
%TD*%
D16*
%TO.C,SC3*%
X125000000Y-43980000D03*
X153284272Y-72264272D03*
%TD*%
D19*
%TO.C,R1*%
X164836005Y-65732575D03*
X166002731Y-66899301D03*
%TD*%
D15*
%TO.C,C2*%
X137128765Y-95263232D03*
X135785263Y-93919730D03*
%TD*%
D20*
%TO.C,U2*%
X139893554Y-92470160D03*
X139540000Y-92823714D03*
X139186447Y-93177267D03*
X138832894Y-93530820D03*
X138479340Y-93884374D03*
X141590610Y-96995644D03*
X141944164Y-96642090D03*
X142297717Y-96288537D03*
X142651270Y-95934984D03*
X143004824Y-95581430D03*
%TD*%
D21*
%TO.C,D3*%
X133978428Y-103318428D03*
X131150000Y-100490000D03*
%TD*%
D15*
%TO.C,C1*%
X164240000Y-71195441D03*
X162896498Y-69851939D03*
%TD*%
D22*
%TO.C,U1*%
X155819358Y-80333435D03*
X156717383Y-79435409D03*
X157615409Y-78537383D03*
X158513435Y-77639358D03*
%TD*%
D23*
%TO.C,SC4*%
X136824272Y-88734272D03*
X108540000Y-60450000D03*
%TD*%
D16*
%TO.C,SC6*%
X145755728Y-97665728D03*
X174040000Y-125950000D03*
%TD*%
D23*
%TO.C,SC2*%
X190462136Y-72342136D03*
X162177864Y-44057864D03*
%TD*%
D12*
%TO.C,D1*%
X184161572Y-122588428D03*
X186990000Y-119760000D03*
%TD*%
D23*
%TO.C,SC1*%
X190480000Y-109480000D03*
X162195728Y-81195728D03*
%TD*%
M02*
